#define pikachu_width 83
#define pikachu_height 64
static unsigned char pikachu_bits[] = {
   0x00, 0x00, 0x00, 0x00, 0x00, 0x00, 0x00, 0x00, 0x00, 0x00, 0x00, 0x00,
   0x00, 0x00, 0x00, 0x00, 0x00, 0x00, 0x00, 0x00, 0x00, 0x00, 0x0e, 0x00,
   0x00, 0x00, 0x00, 0x00, 0x00, 0x00, 0x00, 0x00, 0x00, 0x3e, 0x00, 0x00,
   0x00, 0x00, 0x00, 0x00, 0x00, 0x00, 0x00, 0x00, 0x7e, 0x00, 0x00, 0x00,
   0x00, 0x00, 0x00, 0x00, 0x00, 0x00, 0x00, 0xfc, 0x01, 0x00, 0x00, 0x00,
   0x00, 0x00, 0x00, 0x00, 0x00, 0x00, 0x78, 0x02, 0x00, 0x00, 0x00, 0x00,
   0x00, 0x00, 0x00, 0x00, 0x02, 0xf8, 0x08, 0x00, 0x00, 0x00, 0x00, 0x00,
   0x00, 0x00, 0xe0, 0x03, 0x70, 0x10, 0x00, 0x00, 0x00, 0x00, 0x00, 0x00,
   0x00, 0xfc, 0x03, 0x60, 0x41, 0x00, 0x00, 0x00, 0x00, 0x00, 0x00, 0x80,
   0xff, 0x01, 0xe0, 0x80, 0x00, 0x00, 0x00, 0x00, 0x00, 0x00, 0x70, 0xff,
   0x00, 0xc0, 0x09, 0x02, 0x00, 0x00, 0x00, 0x00, 0x00, 0x0c, 0x7e, 0x00,
   0x80, 0x00, 0x04, 0x00, 0x00, 0x00, 0x00, 0x00, 0x03, 0x7f, 0x00, 0x80,
   0x49, 0x10, 0x00, 0x00, 0x00, 0x00, 0xe0, 0x10, 0x3f, 0x00, 0x00, 0x01,
   0x31, 0x00, 0x00, 0x00, 0x00, 0x18, 0x00, 0x1f, 0x00, 0x00, 0x13, 0xc0,
   0x00, 0x00, 0x00, 0x00, 0x0e, 0x24, 0x0f, 0x00, 0x00, 0x86, 0x04, 0x03,
   0x00, 0x00, 0x80, 0xa1, 0x00, 0x07, 0x00, 0x00, 0x14, 0x00, 0x04, 0x00,
   0x00, 0x60, 0x00, 0x22, 0x07, 0x00, 0x00, 0x8c, 0x24, 0x08, 0x00, 0x00,
   0x18, 0x02, 0x88, 0x01, 0x00, 0x00, 0x18, 0x00, 0xf1, 0xff, 0xff, 0x4b,
   0xa4, 0xc0, 0x01, 0x00, 0x00, 0x30, 0x49, 0x10, 0x00, 0x00, 0x00, 0x00,
   0xe4, 0x00, 0x00, 0x00, 0x20, 0x00, 0x82, 0x04, 0x00, 0x88, 0x88, 0x20,
   0x00, 0x00, 0x00, 0x60, 0x89, 0x20, 0x00, 0x80, 0x20, 0x20, 0x1c, 0x00,
   0x00, 0x00, 0xc0, 0x10, 0x04, 0x52, 0x12, 0x02, 0x02, 0x0c, 0x00, 0x00,
   0x00, 0x80, 0x01, 0x21, 0x00, 0x80, 0x90, 0x20, 0x06, 0x00, 0x00, 0x00,
   0x00, 0x33, 0x80, 0x44, 0x12, 0x00, 0x44, 0x01, 0x00, 0x00, 0x00, 0x00,
   0x0e, 0x12, 0x10, 0x80, 0x92, 0x82, 0x00, 0x00, 0x00, 0x00, 0x00, 0x4c,
   0x00, 0x81, 0x08, 0x00, 0x64, 0x00, 0x00, 0x00, 0x00, 0x00, 0x04, 0x12,
   0x20, 0x20, 0x22, 0x3c, 0x00, 0x00, 0x00, 0x00, 0x00, 0x44, 0x80, 0x04,
   0x02, 0x40, 0x18, 0x00, 0x00, 0x00, 0x00, 0x00, 0x10, 0x12, 0x20, 0x48,
   0x02, 0x10, 0x00, 0x00, 0x00, 0x00, 0x00, 0x02, 0x82, 0x04, 0x81, 0x12,
   0x11, 0x00, 0x00, 0x00, 0x00, 0x00, 0x22, 0x2f, 0x20, 0xc8, 0x47, 0x20,
   0x00, 0x00, 0x00, 0x00, 0x00, 0x82, 0x1c, 0x84, 0x20, 0x0e, 0x22, 0x00,
   0x00, 0x00, 0x00, 0x00, 0x91, 0xb8, 0x20, 0x28, 0x8e, 0x20, 0x00, 0x00,
   0x00, 0x00, 0x00, 0x81, 0x3d, 0x01, 0x61, 0x1f, 0x44, 0x00, 0x00, 0x00,
   0x00, 0x00, 0x91, 0x3f, 0x44, 0xe0, 0x0f, 0x41, 0x00, 0x00, 0x00, 0x00,
   0x80, 0x02, 0x3f, 0x00, 0xc2, 0x2f, 0x48, 0x00, 0x00, 0x00, 0x00, 0x80,
   0x50, 0x9f, 0x14, 0x80, 0x03, 0x82, 0x00, 0x00, 0x00, 0x00, 0xc0, 0x00,
   0x00, 0x3e, 0x09, 0x40, 0x90, 0x00, 0x00, 0x00, 0x00, 0x40, 0x0b, 0x84,
   0x3e, 0x00, 0x12, 0xc0, 0x00, 0x00, 0x00, 0x00, 0xc0, 0x9f, 0x10, 0x34,
   0x49, 0xc0, 0x85, 0x00, 0x00, 0x00, 0x00, 0xc0, 0x3b, 0x00, 0x00, 0x00,
   0xf1, 0x83, 0x01, 0x00, 0x00, 0x00, 0xe0, 0x36, 0x92, 0x00, 0x12, 0x52,
   0x17, 0x01, 0x00, 0x00, 0x00, 0x60, 0xbb, 0x00, 0x52, 0x00, 0x78, 0x85,
   0x01, 0x00, 0x00, 0x00, 0xe0, 0x36, 0x22, 0x94, 0x92, 0xa8, 0x0f, 0x01,
   0x00, 0x00, 0x00, 0xe0, 0x1d, 0x88, 0xff, 0x01, 0x78, 0x05, 0x01, 0x00,
   0x00, 0x00, 0xa0, 0xbb, 0x80, 0xbf, 0x27, 0x51, 0x17, 0x03, 0x00, 0x00,
   0x00, 0x20, 0x0e, 0x88, 0x57, 0x03, 0xf8, 0x42, 0x02, 0x00, 0x00, 0x00,
   0x20, 0x00, 0x81, 0x57, 0x97, 0xe0, 0x07, 0x02, 0x00, 0x00, 0x00, 0xa0,
   0x20, 0x88, 0x6b, 0x03, 0x02, 0x80, 0x02, 0x00, 0x00, 0x00, 0x40, 0x84,
   0x10, 0x57, 0x27, 0x40, 0x10, 0x02, 0x00, 0x00, 0x00, 0xc0, 0x00, 0x02,
   0xd7, 0x03, 0x09, 0x01, 0x06, 0x00, 0x00, 0x00, 0x80, 0x24, 0x20, 0xde,
   0x25, 0x00, 0x48, 0x04, 0x00, 0x00, 0x00, 0x80, 0x81, 0x04, 0x68, 0x00,
   0x49, 0x02, 0x06, 0x00, 0x00, 0x00, 0x00, 0x0b, 0x20, 0x00, 0x24, 0x00,
   0x20, 0x04, 0x00, 0x00, 0x00, 0x00, 0x42, 0x84, 0x90, 0x00, 0x49, 0x02,
   0x04, 0x00, 0x00, 0x00, 0x00, 0x86, 0x00, 0x02, 0x22, 0x00, 0x90, 0x08,
   0x00, 0x00, 0x00, 0x00, 0x12, 0x24, 0x10, 0x08, 0x49, 0x02, 0x0a, 0x00,
   0x00, 0x00, 0x00, 0x02, 0x40, 0x82, 0x00, 0x00, 0x48, 0x08, 0x00, 0x00,
   0x00, 0x00, 0xa2, 0x04, 0x10, 0x24, 0x49, 0x00, 0x0a, 0x00, 0x00, 0x00,
   0x00, 0x01, 0x08, 0x82, 0x00, 0x80, 0x24, 0x08, 0x00, 0x00, 0x00, 0x00,
   0x85, 0x20, 0x10, 0x24, 0x11, 0x80, 0x08, 0x00, 0x00, 0x00, 0x00, 0x00,
   0x00, 0x00, 0x00, 0x00, 0x00, 0x00, 0x00, 0x00 };
