#define aa_width 128
#define aa_height 64
static unsigned char startwars_bits[] = {
   0x00, 0x00, 0x00, 0x00, 0x00, 0x00, 0x00, 0x00, 0x00, 0x00, 0x00, 0x00,
   0x00, 0x00, 0x00, 0x00, 0x00, 0x00, 0x00, 0x00, 0x00, 0x00, 0x00, 0x00,
   0x00, 0x00, 0x00, 0x00, 0x00, 0x00, 0x00, 0x00, 0x00, 0x00, 0x00, 0x00,
   0x00, 0x00, 0x00, 0x00, 0x00, 0x00, 0x00, 0x00, 0x00, 0x00, 0x00, 0x00,
   0x00, 0x00, 0x00, 0x00, 0x00, 0x00, 0x00, 0x00, 0x00, 0x00, 0x00, 0x00,
   0x00, 0x00, 0x00, 0x00, 0x00, 0x00, 0x00, 0x00, 0x00, 0x00, 0x00, 0x00,
   0x00, 0x00, 0x00, 0x00, 0x00, 0x00, 0x00, 0x00, 0x00, 0x00, 0x00, 0x00,
   0x00, 0x00, 0x00, 0x00, 0x00, 0x00, 0x00, 0x00, 0x00, 0x00, 0x00, 0x00,
   0x00, 0x00, 0x00, 0x00, 0x00, 0x00, 0x00, 0x00, 0x00, 0x00, 0x00, 0x00,
   0x00, 0x00, 0x00, 0x00, 0x00, 0x00, 0x00, 0x10, 0x91, 0x48, 0x24, 0x02,
   0x48, 0x04, 0x00, 0x11, 0x11, 0x00, 0x00, 0x00, 0x00, 0x00, 0xc0, 0xff,
   0xff, 0xff, 0xff, 0x8f, 0xff, 0x1f, 0xe0, 0xff, 0xff, 0x03, 0x00, 0x00,
   0x00, 0x00, 0xc0, 0xff, 0xff, 0xff, 0xff, 0xcf, 0xff, 0x3f, 0xe0, 0xff,
   0xff, 0x0f, 0x00, 0x00, 0x00, 0x00, 0xf0, 0xff, 0xff, 0xff, 0xff, 0xc7,
   0xff, 0x3f, 0xe0, 0xff, 0xff, 0x1f, 0x00, 0x00, 0x00, 0x00, 0xe0, 0xff,
   0x00, 0xfe, 0x07, 0xe4, 0xff, 0x7f, 0xe0, 0x3f, 0xe0, 0x1f, 0x00, 0x00,
   0x00, 0x00, 0xe0, 0xff, 0x00, 0xfc, 0x01, 0xf0, 0x9f, 0x7f, 0xe0, 0xff,
   0xff, 0x1f, 0x00, 0x00, 0x00, 0x00, 0x80, 0xff, 0x07, 0xfe, 0x03, 0xf0,
   0x1f, 0xff, 0xe0, 0xff, 0xff, 0x07, 0x00, 0x00, 0x00, 0x00, 0x00, 0xff,
   0x03, 0xfc, 0x01, 0xf8, 0xff, 0xff, 0xe1, 0xff, 0xff, 0x01, 0x00, 0x00,
   0x80, 0xff, 0xff, 0xff, 0x0f, 0xfe, 0x03, 0xf8, 0xff, 0xff, 0xc1, 0xff,
   0xff, 0xff, 0x1f, 0x00, 0xe0, 0xff, 0xff, 0xff, 0x07, 0xfc, 0x03, 0xfc,
   0xff, 0xff, 0xe3, 0xbf, 0xfe, 0xff, 0x3f, 0x00, 0x80, 0xff, 0xff, 0xff,
   0x03, 0xfe, 0x03, 0xfc, 0x05, 0xfc, 0xe7, 0x3f, 0xfc, 0xff, 0x3f, 0x00,
   0xc0, 0xff, 0xff, 0xff, 0x00, 0xfc, 0x01, 0xfe, 0x01, 0xf8, 0xe7, 0x3f,
   0xf0, 0xff, 0x1f, 0x00, 0x00, 0x00, 0x00, 0x00, 0x00, 0x00, 0x00, 0x00,
   0x00, 0x00, 0x00, 0x00, 0x00, 0x00, 0x00, 0x00, 0xc0, 0x7f, 0xf8, 0x1f,
   0xff, 0xe1, 0xff, 0x03, 0xf8, 0xff, 0x3f, 0x00, 0xe8, 0xff, 0x3f, 0x00,
   0x80, 0xff, 0xfc, 0x1f, 0xff, 0xf0, 0xff, 0x07, 0xf8, 0xff, 0xff, 0x03,
   0xfe, 0xff, 0x3f, 0x00, 0x80, 0xff, 0xfd, 0xbf, 0x7f, 0xf0, 0xff, 0x0f,
   0xf8, 0xff, 0xff, 0x07, 0xff, 0xff, 0x1f, 0x00, 0x00, 0xff, 0xff, 0xff,
   0x7f, 0xf8, 0xff, 0x0f, 0xf0, 0x2f, 0xfc, 0x07, 0xff, 0x6f, 0x2b, 0x00,
   0x00, 0xfe, 0xff, 0xff, 0x3f, 0xfc, 0xf7, 0x1f, 0xf8, 0x9f, 0xfc, 0x07,
   0xff, 0x07, 0x00, 0x00, 0x00, 0xfe, 0xff, 0xff, 0x3f, 0xf8, 0xe3, 0x1f,
   0xf8, 0xff, 0xff, 0x07, 0xfe, 0x1f, 0x00, 0x00, 0x00, 0xfc, 0xff, 0xff,
   0x1f, 0xfe, 0xe3, 0x3f, 0xf8, 0xff, 0xff, 0x00, 0xf8, 0x3f, 0x00, 0x00,
   0x00, 0xf8, 0xff, 0xff, 0x1f, 0xfe, 0xff, 0x7f, 0xf0, 0xff, 0xff, 0x09,
   0xf4, 0x7f, 0x00, 0x00, 0x00, 0xf8, 0x7f, 0xfe, 0x0f, 0xff, 0xff, 0x7f,
   0xf8, 0xff, 0xff, 0xff, 0xff, 0x3f, 0x00, 0x00, 0x00, 0xf0, 0x3f, 0xfe,
   0x07, 0xff, 0xff, 0xff, 0xf8, 0x8f, 0xff, 0xff, 0xff, 0x7f, 0x00, 0x00,
   0x00, 0xf0, 0x1f, 0xfc, 0x83, 0x7f, 0x00, 0xff, 0xf8, 0x0f, 0xfe, 0xff,
   0xff, 0x1f, 0x00, 0x00, 0x00, 0x40, 0x15, 0xa8, 0x06, 0x55, 0x00, 0xaa,
   0xa1, 0x0a, 0x40, 0x55, 0x55, 0x01, 0x00, 0x00, 0x00, 0x00, 0x00, 0x00,
   0x00, 0x00, 0x00, 0x00, 0x00, 0x00, 0x00, 0x00, 0x00, 0x00, 0x00, 0x00,
   0x00, 0x00, 0x00, 0x00, 0x00, 0x00, 0x00, 0x00, 0x00, 0x00, 0x00, 0x00,
   0x00, 0x00, 0x00, 0x00, 0x00, 0x00, 0x00, 0x00, 0x00, 0x00, 0x00, 0x00,
   0x00, 0x00, 0x00, 0x00, 0x00, 0x00, 0x00, 0x00, 0x00, 0x00, 0x00, 0x00,
   0x00, 0x00, 0x00, 0x00, 0x00, 0x00, 0x00, 0x00, 0x00, 0x00, 0x00, 0x00,
   0x00, 0x00, 0x00, 0x00, 0x00, 0x00, 0x00, 0x00, 0x00, 0x00, 0x00, 0x00,
   0x00, 0x00, 0x00, 0x00, 0x00, 0x00, 0x00, 0x00, 0x00, 0x00, 0x00, 0x00,
   0x00, 0x00, 0x00, 0x00, 0x00, 0x00, 0x00, 0x00, 0x00, 0x00, 0x00, 0x00,
   0x00, 0x00, 0x00, 0x00, 0x00, 0x00, 0x00, 0x00, 0x00, 0x00, 0x00, 0x00,
   0x00, 0x00, 0x00, 0x00, 0x00, 0x00, 0x00, 0x00, 0x00, 0x00, 0x00, 0x00,
   0x00, 0x00, 0x00, 0x00, 0x00, 0x00, 0x00, 0x00, 0x00, 0x00, 0x00, 0x00,
   0x00, 0x00, 0x00, 0x00, 0x00, 0x00, 0x00, 0x00, 0x00, 0x00, 0x00, 0x00,
   0x00, 0x00, 0x00, 0x00, 0x00, 0x00, 0x00, 0x00, 0x00, 0x00, 0x00, 0x00,
   0x00, 0x00, 0x00, 0x00, 0x00, 0x00, 0x00, 0x00, 0x00, 0x00, 0x00, 0x00,
   0x00, 0x00, 0x00, 0x00, 0x00, 0x00, 0x00, 0x00, 0x00, 0x00, 0x00, 0x00,
   0x00, 0x00, 0x00, 0x00, 0x00, 0x00, 0x00, 0x00, 0x00, 0x00, 0x00, 0x00,
   0x00, 0x00, 0x00, 0x00, 0x00, 0x00, 0x00, 0x00, 0x00, 0x00, 0x00, 0x00,
   0x00, 0x00, 0x00, 0x00, 0x00, 0x00, 0x00, 0x00, 0x00, 0x00, 0x00, 0x00,
   0x00, 0x00, 0x00, 0x00, 0x00, 0x00, 0x00, 0x00, 0x00, 0x00, 0x00, 0x00,
   0x00, 0x00, 0x00, 0x00, 0x00, 0x00, 0x00, 0x00, 0x00, 0x00, 0x00, 0x00,
   0x00, 0x00, 0x00, 0x00, 0x00, 0x00, 0x00, 0x00, 0x00, 0x00, 0x00, 0x00,
   0x00, 0x00, 0x00, 0x00, 0x00, 0x00, 0x00, 0x00, 0x00, 0x00, 0x00, 0x00,
   0x00, 0x00, 0x00, 0x00, 0x00, 0x00, 0x00, 0x00, 0x00, 0x00, 0x00, 0x00,
   0x00, 0x00, 0x00, 0x00, 0x00, 0x00, 0x00, 0x00, 0x00, 0x00, 0x00, 0x00,
   0x00, 0x00, 0x00, 0x00, 0x00, 0x00, 0x00, 0x00, 0x00, 0x00, 0x00, 0x00,
   0x00, 0x00, 0x00, 0x00, 0x00, 0x00, 0x00, 0x00, 0x00, 0x00, 0x00, 0x00,
   0x00, 0x00, 0x00, 0x00, 0x00, 0x00, 0x00, 0x00, 0x00, 0x00, 0x00, 0x00,
   0x00, 0x00, 0x00, 0x00, 0x00, 0x00, 0x00, 0x00, 0x00, 0x00, 0x00, 0x00,
   0x00, 0x00, 0x00, 0x00, 0x00, 0x00, 0x00, 0x00, 0x00, 0x00, 0x00, 0x00,
   0x00, 0x00, 0x00, 0x00, 0x00, 0x00, 0x00, 0x00, 0x00, 0x00, 0x00, 0x00,
   0x00, 0x00, 0x00, 0x00, 0x00, 0x00, 0x00, 0x00, 0x00, 0x00, 0x00, 0x00,
   0x00, 0x00, 0x00, 0x00, 0x00, 0x00, 0x00, 0x00, 0x00, 0x00, 0x00, 0x00,
   0x00, 0x00, 0x00, 0x00, 0x00, 0x00, 0x00, 0x00, 0x00, 0x00, 0x00, 0x00,
   0x00, 0x00, 0x00, 0x00, 0x00, 0x00, 0x00, 0x00, 0x00, 0x00, 0x00, 0x00,
   0x00, 0x00, 0x00, 0x00, 0x00, 0x00, 0x00, 0x00, 0x00, 0x00, 0x00, 0x00,
   0x00, 0x00, 0x00, 0x00, 0x00, 0x00, 0x00, 0x00, 0x00, 0x00, 0x00, 0x00,
   0x00, 0x00, 0x00, 0x00, 0x00, 0x00, 0x00, 0x00, 0x00, 0x00, 0x00, 0x00,
   0x00, 0x00, 0x00, 0x00, 0x00, 0x00, 0x00, 0x00, 0x00, 0x00, 0x00, 0x00,
   0x00, 0x00, 0x00, 0x00, 0x00, 0x00, 0x00, 0x00, 0x00, 0x00, 0x00, 0x00,
   0x00, 0x00, 0x00, 0x00, 0x00, 0x00, 0x00, 0x00, 0x00, 0x00, 0x00, 0x00,
   0x00, 0x00, 0x00, 0x00, 0x00, 0x00, 0x00, 0x00, 0x00, 0x00, 0x00, 0x00,
   0x00, 0x00, 0x00, 0x00, 0x00, 0x00, 0x00, 0x00, 0x00, 0x00, 0x00, 0x00,
   0x00, 0x00, 0x00, 0x00 };
