<svg width="580" height="400" xmlns="http://www.w3.org/2000/svg">
 <!-- Created with Method Draw - http://github.com/duopixel/Method-Draw/ -->
 <g>
  <title>background</title>
  <rect fill="#fff" id="canvas_background" height="402" width="582" y="-1" x="-1"/>
  <g display="none" overflow="visible" y="0" x="0" height="100%" width="100%" id="canvasGrid">
   <rect fill="url(#gridpattern)" stroke-width="0" y="0" x="0" height="100%" width="100%"/>
  </g>
 </g>
 <g>
  <title>Layer 1</title>
  <path d="m171,105.4375c0,1 0,2 0,7c0,6 0,11 0,19c0,8 -1.248306,16.08699 0,25c1.009766,7.209747 3,15 3,23c0,6 0,11 0,15c0,5 0,10 0,14c0,4 3.496231,11.907791 4,16c1.221832,9.925079 1,15 1,18c0,4 2.496231,6.907791 3,11c0.24437,1.985016 1.458801,4.693451 2,6c0.765366,1.847748 1.186005,1.692535 3,3c1.147263,0.826904 3.044235,0.336334 8,1c11.300873,1.513397 22,3 32,3c12,0 25,1 36,1c12,0 29.069,-0.585358 40,1c5.046234,0.731873 9,1 15,1c7,0 16.117859,0.828491 26,-1c11.211456,-2.074463 21,-4 30,-4c13,0 19.044952,0.733093 25,0c4.092224,-0.503784 6,-2 7,-2c1,0 1.149353,-0.474274 2,-1c1.9021,-1.175568 2.933502,-6.017212 4,-10c1.883118,-7.032349 2,-17 2,-25c0,-10 0,-17 0,-24c0,-7 0,-12 0,-17c0,-4 0.164948,-7.006821 0,-9c-0.501709,-6.062042 -0.881348,-11.025208 -2,-16c-0.904572,-4.022659 -2.139099,-9.974182 -3,-15c-1.193848,-6.969559 -1.498749,-12.946716 -2,-20c-0.283569,-3.989937 0,-9 0,-14c0,-4 0,-7 0,-11c0,-3 0.61731,-5.076118 1,-6c0.541199,-1.306564 1.707092,-2.292892 1,-3c-0.707092,-0.707108 -3.026764,0.229752 -4,0c-2.176239,-0.513741 -4.907776,-2.496223 -9,-3c-4.962524,-0.610916 -13.991486,-2.061432 -21,-3c-7.990936,-1.070129 -14.973236,-1.49968 -29,-2c-7.994904,-0.285172 -14,0 -30,0c-11,0 -21.98877,-0.069824 -28,-1c-6.987915,-1.081314 -13,-3 -18,-3c-5,0 -10,0 -15,0c-8,0 -15,0 -21,0c-5,0 -12.022644,0.638 -21,0c-7.053284,-0.501259 -12,-2 -16,-2c-5,0 -9,0 -10,0c-1,0 -2,0 -3,0c-2,0 -3.458801,0.693436 -4,2c-0.765366,1.847755 -2.486252,2.823746 -3,5c-0.229752,0.973251 0.38269,2.076118 0,3c-0.541199,1.306564 -0.61731,4.076118 -1,5c-0.541199,1.306564 -1,2 -1,4c0,1 -0.486252,1.823746 -1,4c-0.459503,1.946495 0.614899,3.372017 -2,7c-0.826904,1.14727 -1,3 -2,4l0,1l0,1l0,2" id="svg_1" stroke-width="1.5" stroke="#000" fill="none"/>
  <path d="m166,123.4375c-1,-1 -2.953278,-3.071938 -6,-5c-4.927216,-3.118095 -5.692551,-4.186005 -7,-6c-0.826904,-1.14727 -1.714127,-2.211678 -4,-5c-2.689789,-3.281013 -4.917603,-5.386871 -6,-8c-0.38269,-0.923882 -1.190277,-3.881523 -3,-7c-1.122345,-1.933998 -4.877655,-7.066002 -6,-9c-1.809723,-3.118477 -1.048691,-5.289124 -3,-10c-1.379791,-3.331093 -2.331985,-4.229362 -4,-8c-1.458641,-3.297329 -3.458771,-5.471249 -5,-12c-1.148766,-4.866245 -0.420433,-6.085815 -1,-8c-1.04483,-3.450844 -3,-5 -3,-6c0,-3 -1,-5 -1,-7c0,-1 2.041321,-0.152771 6,1c6.072327,1.768269 12.091141,4.795677 19,8c10.142548,4.704105 18.95488,9.072926 27,14c4.972519,3.045326 12,6 16,8c6,3 12.229355,6.331985 16,8c3.297333,1.458641 5.906326,3.103401 7,4c2.78833,2.285881 5,2 6,3l1,0" id="svg_2" stroke-width="1.5" stroke="#000" fill="none"/>
  <path d="m375,84.4375c0,0 0.380615,-1.44352 6,-3c4.818573,-1.334671 8.785492,-1.655006 14,-3c7.806763,-2.013618 15,-3 22,-5c7,-2 13.07843,-3.789848 16,-5c6.197571,-2.567116 9.924835,-4.284721 17,-6c4.955475,-1.201385 9.07843,-1.789848 12,-3c4.131714,-1.711411 9.235321,-4.369545 18,-8c4.131714,-1.711411 9.186005,-3.692547 11,-5c1.147278,-0.826904 2.610352,-0.904591 2,1c-2.625244,8.191956 -13,16 -20,26c-7,10 -14.192017,18.830475 -23,29c-5.113312,5.903725 -10.227997,12.277092 -12,16c-2.148865,4.514687 -5,5 -6,7c-1,2 -3.076111,3.61731 -4,4c-2.613129,1.082397 -4.418854,3.418854 -6,5c-1.581146,1.581146 -3,1 -4,2c-1,1 -2,1 -3,2l-3,2l-1,0l-1,1" id="svg_3" stroke-width="1.5" stroke="#000" fill="none"/>
  <path d="m300,130.4375c-1,0 -2.693451,-1.458801 -4,-2c-1.847748,-0.765366 -2.549164,-0.95517 -6,-2c-2.871277,-0.869354 -9,0 -12,0c-2,0 -5.009735,-0.197075 -7,0c-5.074219,0.502449 -7.77063,3.259354 -10,5c-4.595978,3.58844 -8,6 -10,8c-1,1 -0.851944,7.228363 -2,10c-1.082397,2.613129 -2,4 -2,6c0,2 -0.229752,5.026749 0,6c0.513748,2.176254 2,5 4,7c1,1 1.080307,3.376419 5,5c0.923889,0.38269 1.693451,2.458801 3,3c0.923889,0.38269 3.852722,2.173096 5,3c1.813995,1.307449 2.960175,2.083984 5,3c4.912567,2.20607 6.823761,3.486252 9,4c2.919739,0.689255 7,2 9,2c2,0 6,0 10,0c3,0 8,0 13,0c1,0 3.080261,-0.310745 6,-1c4.352509,-1.027481 5.61731,-3.076126 6,-4c0.541199,-1.306564 3,-5 4,-7c1,-2 0.337494,-5.310013 2,-8c0.7435,-1.203003 1,-4 1,-7c0,-1 -0.496216,-4.907791 -1,-9c-0.122192,-0.992508 -2,-4 -3,-6c-1,-2 -2.337494,-4.310013 -4,-7c-2.230499,-3.609009 -3,-4 -4,-4c-1,0 -1.053497,-0.540497 -3,-1c-2.176239,-0.513748 -3.292908,-2.292892 -4,-3c-1.414215,-1.414215 -3,0 -5,0l-1,-1l-1,0" id="svg_4" stroke-width="1.5" stroke="#000" fill="none"/>
  <path d="m270,150.4375c0,1 0,3 0,4c0,1 0,3 0,5c0,1 1,2 3,2c1,0 1.149353,-1.474274 2,-2c3.80423,-2.351135 2,-5 2,-6l0,-1l0,-1l0,-1" id="svg_5" stroke-width="1.5" stroke="#000" fill="none"/>
  <path d="m303,157.4375c0,-1 0,-3 -1,-3c-1,0 -2,0 -3,0c-1,0 -1,1 -1,2c0,1 0,3 0,4c0,1 2.309998,1.337494 5,3c1.203003,0.7435 2.292908,1.292892 3,2c0.707092,0.707108 2,0 2,-1c0,-1 0,-4 0,-5c0,-1 -1,-3 -2,-3l-1,-1l-1,0" id="svg_6" stroke-width="1.5" stroke="#000" fill="none"/>
  <path d="m243,229.4375c0,0 1.025818,-0.320358 3,0c3.121445,0.506546 11.016876,5.962219 20,10c11.020905,4.953735 19.784241,9.654556 28,12c4.903137,1.39975 14,2 17,2c2,0 7.332062,-1.468063 14,-6c5.295746,-3.599304 9.634888,-10.275757 15,-17c7.510132,-9.412643 11,-12 11,-13l1,-1" id="svg_7" stroke-width="1.5" stroke="#000" fill="none"/>
  <path d="m219,106.4375c-1,0 -2.839813,1.012909 -3,2c-0.506546,3.121445 -1.770248,5.026749 -2,6c-0.513748,2.176254 -1,3 -1,4c0,2 0,3 1,3c2,0 2.486252,-0.823746 3,-3c0.689255,-2.919746 1,-4 1,-6c0,-1 0,-3 0,-4l0,-2" id="svg_8" stroke-width="1.5" stroke="#000" fill="none"/>
  <path d="m376,107.4375c0,0 -3.693451,0.458801 -5,1c-0.923889,0.382683 -1.877808,1.007492 -2,2c-0.503784,4.092216 -1,5 -1,6c0,1 0,3 0,4c0,2 2.412079,2.968552 6,5c1.230652,0.696785 2.292908,1.707108 3,1c2.121307,-2.121323 0,-4 0,-8c0,-3 -0.173096,-4.85273 -1,-6c-1.307465,-1.813995 -4,-4 -5,-6l-1,-1" id="svg_9" stroke-width="1.5" stroke="#000" fill="none"/>
 </g>
</svg>
