<?xml version="1.0" encoding="utf-8"?>
<!-- Generator: Adobe Illustrator 23.1.0, SVG Export Plug-In . SVG Version: 6.00 Build 0)  -->
<svg version="1.1" xmlns="http://www.w3.org/2000/svg" xmlns:xlink="http://www.w3.org/1999/xlink" x="0px" y="0px"
	 viewBox="0 0 702 1098" style="enable-background:new 0 0 702 1098;" xml:space="preserve">
<style type="text/css">
	.st0{fill:none;stroke:#000000;stroke-width:0.5;stroke-dasharray:4,3;}
	.st1{fill:none;stroke:#000000;stroke-width:0.5;}
	.st2{fill:none;stroke:#000000;stroke-width:0.5;stroke-dasharray:3,3;}
</style>
<g id="Guides">
</g>
<g id="Crop_Marks">
	<g>
		<line class="st0" x1="40.19" y1="375.69" x2="0" y2="375.69"/>
		<line class="st0" x1="702" y1="375.69" x2="666.06" y2="375.69"/>
		<line class="st0" x1="40.19" y1="720.41" x2="0" y2="720.41"/>
		<line class="st0" x1="702" y1="720.41" x2="666.06" y2="720.41"/>
	</g>
	<g>
		<g>
			<line class="st1" x1="45" y1="1070.96" x2="45" y2="1097.96"/>
			<line class="st1" x1="26.99" y1="1053" x2="-0.01" y2="1053"/>
		</g>
		<g>
			<line class="st1" x1="674.96" y1="1053" x2="701.96" y2="1053"/>
			<line class="st1" x1="657" y1="1071.01" x2="657" y2="1098.01"/>
		</g>
		<g>
			<line class="st1" x1="26.99" y1="45" x2="-0.01" y2="45"/>
		</g>
		<g>
			<line class="st1" x1="674.96" y1="45" x2="701.96" y2="45"/>
			<line class="st1" x1="45" y1="-0.07" x2="45" y2="26.93"/>
			<line class="st1" x1="657" y1="-0.02" x2="657" y2="26.98"/>
		</g>
	</g>
	<g>
		<g>
			<line class="st1" x1="1280.57" y1="503.03" x2="1280.57" y2="530.03"/>
			<line class="st1" x1="1262.56" y1="485.07" x2="1235.56" y2="485.07"/>
		</g>
		<g>
			<line class="st1" x1="1586.53" y1="485.05" x2="1613.53" y2="485.05"/>
			<line class="st1" x1="1568.57" y1="503.05" x2="1568.57" y2="530.05"/>
		</g>
		<g>
			<line class="st1" x1="1262.56" y1="53.07" x2="1235.56" y2="53.07"/>
		</g>
		<g>
			<line class="st1" x1="1586.53" y1="53.05" x2="1613.53" y2="53.05"/>
			<line class="st1" x1="1280.57" y1="8" x2="1280.57" y2="35"/>
			<line class="st1" x1="1568.57" y1="8.02" x2="1568.57" y2="35.02"/>
		</g>
	</g>
	<g>
		<g>
			<line class="st1" x1="885.28" y1="503.04" x2="885.28" y2="530.04"/>
			<line class="st1" x1="867.28" y1="485.08" x2="840.28" y2="485.08"/>
		</g>
		<g>
			<line class="st1" x1="1191.25" y1="485.05" x2="1218.25" y2="485.05"/>
			<line class="st1" x1="1173.28" y1="503.06" x2="1173.28" y2="530.06"/>
		</g>
		<g>
			<line class="st1" x1="867.28" y1="53.08" x2="840.28" y2="53.08"/>
		</g>
		<g>
			<line class="st1" x1="1191.25" y1="53.05" x2="1218.25" y2="53.05"/>
			<line class="st1" x1="885.28" y1="8.01" x2="885.28" y2="35.01"/>
			<line class="st1" x1="1173.28" y1="8.03" x2="1173.28" y2="35.03"/>
		</g>
	</g>
	<g>
		<g>
			<line class="st2" x1="1727.59" y1="594.17" x2="1754.59" y2="594.17"/>
			<line class="st2" x1="1727.59" y1="1044" x2="1754.59" y2="1044"/>
			<line class="st2" x1="1727.59" y1="143.98" x2="1754.59" y2="143.98"/>
			<line class="st2" x1="2061.41" y1="594.17" x2="2088.41" y2="594.17"/>
			<line class="st2" x1="2060.66" y1="144.77" x2="2087.66" y2="144.77"/>
			<line class="st2" x1="2060.66" y1="1042.57" x2="2087.66" y2="1042.57"/>
		</g>
		<line class="st1" x1="1908" y1="82.23" x2="1908" y2="0"/>
		<line class="st1" x1="1908" y1="1188" x2="1908" y2="1105.77"/>
	</g>
	<path d="M455.74,246.05c-3.8-10.42-14.52-16.57-23.47-22.03c-24.03-14.64-49.07-27.57-74.52-39.53
		c-25.37-11.92-51.17-22.89-77-33.76c-11.84-4.98-23.66-10.2-36.14-13.4c-11.22-2.87-23.35-4.22-34.59-0.72
		c-11.35,3.54-19.62,11.85-25.96,21.61c-3.37,5.18-6.27,10.66-9.2,16.1c-3.23,5.99-6.4,12.02-9.42,18.12
		c-11.78,23.82-21.64,49.59-21.27,76.56c0.08,5.84,0.46,12.28,4.07,17.15c2.75,3.71,6.99,5.74,11.51,6.27
		c11.24,1.31,20.53-5.31,28.75-12.06c4.14-3.4,8.26-6.84,12.92-9.49c-0.22,2.17-0.43,4.33-0.64,6.5
		c-1.04,10.96-1.92,21.94-2.64,32.92c-0.72,10.99-1.28,21.98-1.68,32.98c-0.03,0.81-0.06,1.62-0.08,2.43
		c-0.63-1.05-1.27-2.09-1.9-3.14c-0.33-0.55-1.2-0.05-0.86,0.5c0.92,1.53,1.85,3.05,2.77,4.58c0.26,0.43,0.92,0.24,0.93-0.25
		c0.73-22.01,2.09-43.99,4.08-65.92c0.34-3.73,0.7-7.45,1.08-11.17c0.35-0.18,0.69-0.38,1.04-0.55c0.58-0.29,0.07-1.15-0.5-0.86
		c-0.14,0.07-0.27,0.15-0.41,0.22c1.81-17.74,4.04-35.44,6.68-53.07c1.83-12.19,3.86-24.36,6.08-36.49c0.12-0.63-0.85-0.9-0.96-0.27
		c-1.99,10.83-3.82,21.69-5.49,32.57c-1.66,10.82-3.17,21.66-4.52,32.52c-1.05,8.42-2,16.86-2.86,25.3
		c-9.71,5.36-16.92,14.51-27.05,19.14c-9.16,4.18-22.37,4.44-27.14-6.18c-2.56-5.69-2.33-12.56-2.13-18.66
		c0.21-6.53,1.01-13.03,2.27-19.44c2.53-12.81,6.88-25.2,12.08-37.16c5.21-11.97,11.27-23.55,17.48-35.02
		c5.49-10.14,11.22-20.79,20.45-28.06c19.64-15.47,46.51-7.4,67.36,0.9c12.35,4.92,24.56,10.24,36.78,15.45
		c12.29,5.24,24.55,10.55,36.73,16.04c24.51,11.03,48.72,22.75,72.2,35.85c5.86,3.27,11.68,6.63,17.44,10.08
		c5.1,3.06,10.29,6.06,15.04,9.65c4.3,3.24,8.4,7.09,10.83,11.97c2.8,5.63,2.45,11.82,0.16,17.56c-2.28,5.71-5.96,10.86-9.54,15.81
		c-3.37,4.66-6.99,9.15-10.81,13.46c-7.56,8.52-15.95,16.31-25,23.23c-18.01,13.78-38.74,24.31-60.68,30.19
		c-12.51,3.35-26.11,5.09-38.7,1.14c-10.43-3.27-19.6-11.21-23.36-21.62c-0.69-1.92-1.16-3.89-1.41-5.89
		c9.42-5.19,18.87-10.3,28.27-15.51c10.5-5.83,20.95-11.74,31.3-17.83c10.34-6.09,20.59-12.35,30.67-18.86
		c1.22-0.79,2.45-1.59,3.67-2.38c0.54-0.35,0.04-1.22-0.5-0.86c-10.09,6.6-20.34,12.94-30.7,19.1
		c-10.32,6.13-20.75,12.08-31.24,17.93c-10.22,5.7-20.51,11.27-30.78,16.91c-0.27,0.15-0.53,0.3-0.8,0.44
		c-0.21-2.67-0.02-5.36,0.65-8.01c0.16-0.62-0.81-0.89-0.96-0.27c-0.74,2.94-0.9,5.89-0.61,8.79c-9.19,5.06-18.32,10.23-27.16,15.88
		c-2.66,1.7-5.29,3.46-7.89,5.26c0.15-1.61,0.33-3.22,0.53-4.83c0.08-0.64-0.92-0.63-1,0c-0.23,1.85-0.43,3.71-0.59,5.57
		c-4.5,3.14-8.91,6.42-13.15,9.91c1.84-6.38,0.43-13.83-4.67-18.29c-5.55-4.85-15.15-4.6-20.13,1c-0.6,0.68-1.12,1.42-1.55,2.21
		c-0.31,0.57,0.56,1.07,0.86,0.5c1.85-3.42,5.34-5.41,9.08-5.97c-7.19,3.24-13.08,9.22-16.24,16.46c-0.88,2.01-1.56,4.1-1.98,6.25
		c-0.48,2.4-0.8,5.01,0.16,7.33c1.55,3.74,5.68,5.41,9.44,5.87c4.34,0.53,8.92-0.45,12.88-2.21c4.12-1.83,7.78-4.79,10.16-8.64
		c0.54-0.87,0.99-1.78,1.38-2.74c4.39-3.68,8.96-7.13,13.65-10.42c-1.13,13.94-0.42,27.97,1.43,41.83
		c2.16,16.21,5.77,32.19,9.63,48.07c3.9,16.07,8.08,32.09,11.35,48.31c3.35,16.63,5.69,33.47,7.02,50.38
		c1.33,16.88,1.64,33.83,0.95,50.75c-0.09,2.12-0.19,4.25-0.31,6.37c-0.04,0.64,0.96,0.64,1,0c0.94-16.9,0.89-33.86-0.19-50.75
		c-1.06-16.78-3.12-33.49-6.16-50.02c-3-16.32-7.07-32.42-11.03-48.52c-3.93-15.94-7.77-31.92-10.31-48.14
		c-2.54-16.17-3.74-32.63-2.32-48.97c0-0.01,0-0.02,0-0.03c1.81-1.25,3.63-2.49,5.47-3.7c9.28-6.09,18.91-11.62,28.62-16.99
		c0.4-0.22,0.8-0.44,1.2-0.66c0.96,6.74,4.43,13.09,9.23,18.06c8.41,8.68,20.19,12.2,32.06,12.21c12.77,0.01,25.41-3.52,37.31-7.89
		c11.01-4.04,21.6-9.18,31.6-15.3c19.86-12.16,37.35-28.17,51.09-46.98C451.59,269.57,460.08,257.94,455.74,246.05z M232.81,350.52
		c-0.99,0.84-1.98,1.68-2.96,2.54c-1.04,0.92-2.07,1.85-3.09,2.79c-0.47,0.44,0.24,1.14,0.71,0.71c1.41-1.31,2.85-2.58,4.31-3.83
		c-3.83,6.87-11.93,10.82-19.62,11.11c-3.61,0.14-7.86-0.71-10.33-3.56c-1.52-1.75-1.81-4.02-1.58-6.26
		c0.21-2.1,0.73-4.19,1.42-6.18c2.71-7.79,8.66-14.43,16.13-17.94c0.95-0.45,1.92-0.83,2.91-1.17c0.06-0.02,0.1-0.05,0.14-0.08
		c2.2,0.12,4.37,0.72,6.24,1.82C233.78,334.4,235.48,343.62,232.81,350.52z"/>
	<path d="M258.37,216.67c-4.3-3.21-10.93-3.53-15.17-0.04c-0.52,0.43-0.98,0.91-1.4,1.44c-0.4,0.5,0.31,1.21,0.71,0.71
		c3.22-4.06,9.27-4.55,13.7-2.28c5.18,2.66,7.04,8.84,5.94,14.29c-1.15,5.7-5.73,11.45-11.87,11.91
		c-5.24,0.39-10.79-2.93-12.32-8.07c-1.71-5.75,1.79-12.51,7.47-14.41c0.61-0.2,0.35-1.17-0.27-0.96
		c-5.49,1.83-9.16,7.76-8.58,13.49c0.59,5.87,5.72,10.24,11.42,10.9c6.62,0.77,12.32-4.27,14.45-10.23
		C264.49,227.7,263.47,220.47,258.37,216.67z"/>
	<path d="M315.71,260.55c-3.45-4.33-10.82-5.04-14.78-1c-0.48,0.49-0.89,1.04-1.23,1.63c-0.32,0.56,0.54,1.06,0.86,0.5
		c2.57-4.5,9.42-4.93,13.19-1.74c4.68,3.97,4.27,11.55,0.77,16.12c-4.01,5.25-11.07,7.25-17.43,6.83
		c-3.61-0.24-7.17-1.25-10.37-2.95c-2.71-1.44-6.25-3.65-6.46-7.07c-0.22-3.43,2.79-6.42,5.88-7.37c4.21-1.31,8.75,0.18,12.77,1.46
		c0.61,0.2,0.88-0.77,0.27-0.96c-3.98-1.27-8.24-2.58-12.45-1.68c-3.15,0.67-6.07,3-7.12,6.1c-0.51,1.51-0.46,3.15,0.18,4.61
		c0.7,1.59,1.97,2.83,3.34,3.85c3.11,2.32,6.85,3.87,10.65,4.6c6.98,1.33,14.99-0.06,20.17-5.24
		C318.5,273.7,319.9,265.82,315.71,260.55z"/>
	<path d="M195.35,307.2c-8.39,18.44-16.81,36.86-25.46,55.18c-8.64,18.31-17.5,36.53-26.77,54.53
		c-9.1,17.67-18.67,35.07-28.59,52.28c-9.21,15.97-18.49,31.96-26.01,48.81c-7.27,16.3-12.87,33.49-14.56,51.33
		c-0.21,2.24-0.36,4.48-0.45,6.72c-0.03,0.64,0.97,0.64,1,0c0.74-18.18,5.7-35.82,12.7-52.53c7.11-16.97,16.19-33.01,25.36-48.93
		c9.74-16.91,19.3-33.9,28.32-51.21c9.32-17.88,18.22-35.98,26.88-54.19c8.62-18.14,17.01-36.39,25.34-54.67
		c1.04-2.27,2.07-4.55,3.11-6.82C196.48,307.12,195.62,306.61,195.35,307.2z"/>
	<path d="M276.71,559.76c-6.65,1.43-13.31,2.85-19.96,4.28c-21.24,0.5-42.47,1-63.71,1.51l-75,1.77
		c-13.81,0.33-27.72,0.99-41.48-0.62c-0.64-0.07-0.63,0.93,0,1c12.24,1.44,24.59,1.02,36.89,0.73c12.5-0.3,25-0.59,37.5-0.89
		c25-0.59,50-1.18,75-1.77c8.66-0.2,17.31-0.41,25.97-0.61c-0.29,0.3-0.03,0.95,0.5,0.84c1.48-0.32,2.96-0.64,4.45-0.95
		c3.73-0.09,7.45-0.18,11.18-0.26c0.64-0.02,0.64-1.02,0-1c-1.98,0.05-3.96,0.09-5.93,0.14c4.96-1.06,9.91-2.12,14.87-3.19
		C277.6,560.59,277.34,559.63,276.71,559.76z"/>
	<path d="M356.34,447.48c-8.87,9.29-17.23,19.06-25.05,29.26c-7.81,10.19-15.08,20.8-21.74,31.77c-2.01,3.3-3.95,6.64-5.85,10
		c-3.23,3.59-6.45,7.17-9.68,10.76c-2.34,2.6-4.68,5.2-7.02,7.8c-0.43,0.48,0.28,1.19,0.71,0.71l13.82-15.35
		c-0.9,1.65-1.79,3.31-2.67,4.97c-0.3,0.57,0.56,1.07,0.86,0.5c1.56-2.96,3.16-5.89,4.8-8.8c2.58-2.87,5.17-5.74,7.75-8.62
		c2.34-2.6,4.68-5.2,7.02-7.8c0.43-0.48-0.28-1.19-0.71-0.71c-3.91,4.34-7.81,8.68-11.72,13.02c3.98-6.85,8.19-13.57,12.62-20.14
		c7.15-10.61,14.88-20.83,23.14-30.61c4.11-4.86,8.36-9.61,12.72-14.25c-3.27,8.69-6.59,17.37-9.97,26.02
		c-3.67,9.42-7.41,18.81-11.21,28.18c-2.13,5.26-4.28,10.5-6.45,15.74c-0.25,0.59,0.72,0.85,0.96,0.27
		c3.87-9.34,7.67-18.71,11.42-28.1c3.74-9.39,7.43-18.81,11.05-28.25c2.03-5.3,4.04-10.6,6.03-15.91
		C357.36,447.49,356.67,447.14,356.34,447.48z"/>
	<path d="M311.73,544.37c-7.77,10.79-14.99,21.96-21.64,33.47c-1.89,3.27-3.73,6.57-5.52,9.89c-0.31,0.57,0.56,1.07,0.86,0.5
		c6.32-11.69,13.22-23.07,20.68-34.08c2.12-3.13,4.28-6.22,6.49-9.28C312.97,544.35,312.1,543.85,311.73,544.37z"/>
	<path d="M306.21,108.65c-14.37,1.74-28.61,4.58-42.54,8.53c-3.91,1.11-7.8,2.31-11.66,3.59c-0.61,0.2-0.35,1.17,0.27,0.96
		c13.62-4.51,27.59-7.98,41.75-10.33c3.45-0.57,6.92-1.07,10.39-1.51c-2.77,2.23-5.12,4.94-6.93,8.02c-0.33,0.56,0.54,1.06,0.86,0.5
		c2.05-3.48,4.81-6.5,8.11-8.83C306.82,109.33,306.75,108.58,306.21,108.65z"/>
	<path d="M265.31,493.38c-2.46-9.79-5.61-19.4-9.42-28.75c-3.8-9.32-8.24-18.37-13.3-27.07c-2.86-4.92-5.92-9.73-9.17-14.41
		c-0.36-0.53-1.23-0.03-0.86,0.5c5.73,8.26,10.88,16.93,15.4,25.91c4.52,8.98,8.4,18.27,11.61,27.8c1.81,5.36,3.4,10.79,4.78,16.28
		C264.5,494.27,265.47,494,265.31,493.38z"/>
	<path d="M212.65,307.08c-2.21,4.74-4.41,9.48-6.62,14.22c-0.27,0.58,0.59,1.09,0.86,0.5c2.21-4.74,4.41-9.48,6.62-14.22
		C213.78,307.01,212.92,306.5,212.65,307.08z"/>
	<path d="M255.42,313.96c-3.52,1.74-7.04,3.47-10.55,5.21c-0.35,0.17-0.3,0.55-0.08,0.77c0.02,0.23,0.17,0.46,0.48,0.46
		c0.34,0,0.5-0.28,0.48-0.54l10.18-5.03C256.5,314.54,256,313.68,255.42,313.96z"/>
	<path d="M241.89,317.87l-6.99-5.3c-0.22-0.16-0.56-0.03-0.68,0.18c-0.15,0.25-0.03,0.52,0.18,0.68l6.99,5.3
		c0.22,0.16,0.56,0.03,0.68-0.18C242.22,318.29,242.1,318.03,241.89,317.87z"/>
	<path d="M215.44,340.45h-1.75c-0.26,0-0.51,0.23-0.5,0.5c0.01,0.27,0.22,0.5,0.5,0.5h1.75c0.26,0,0.51-0.23,0.5-0.5
		C215.93,340.68,215.72,340.45,215.44,340.45z"/>
	<path d="M409.81,298.25c-6.83,4.91-14.09,9.22-21.68,12.86c-7.65,3.66-15.62,6.64-23.8,8.89c-4.58,1.26-9.22,2.29-13.91,3.08
		c-0.63,0.11-0.36,1.07,0.27,0.96c8.37-1.42,16.6-3.59,24.59-6.48c7.95-2.87,15.66-6.45,22.98-10.67c4.15-2.39,8.17-4.99,12.06-7.79
		C410.83,298.74,410.33,297.88,409.81,298.25z"/>
	<path d="M183.82,195.31c-7.1,6.62-13.07,14.42-17.68,22.96c-4.61,8.54-7.87,17.82-9.57,27.37c-0.96,5.39-1.43,10.87-1.38,16.35
		c0.01,0.64,1.01,0.64,1,0c-0.09-9.63,1.45-19.23,4.44-28.37c2.98-9.11,7.42-17.74,13.09-25.47c3.21-4.37,6.84-8.44,10.8-12.14
		C185,195.58,184.29,194.88,183.82,195.31z"/>
	<path d="M426.23,240.49c-12.91-7.2-26.17-13.8-39.71-19.74c-3.75-1.65-7.53-3.24-11.32-4.79c-0.6-0.24-0.85,0.72-0.27,0.96
		c13.58,5.54,26.89,11.72,39.89,18.53c3.66,1.92,7.3,3.89,10.91,5.9C426.29,241.67,426.79,240.81,426.23,240.49z"/>
</g>
</svg>
