<svg id="Слой_1" data-name="Слой 1" xmlns="http://www.w3.org/2000/svg" viewBox="0 0 438.41 453.51">
  <title>gragon2</title>
  <g>
    <path d="M399.5,56.5c-7.24.61-12.94,2.33-21.9,6.58a24.82,24.82,0,0,1-4.67,1.84,32.45,32.45,0,0,0-9,2.26,19,19,0,0,0-7.27,6.31c-2,3.53-2.64,6.93-2,11.72l.27,2.1-.81-1a15.88,15.88,0,0,1-1.76-3.07c-1.72-3.94-2.14-4.59-2.87-4.59s-21.74,14-40.88,27.33c-8.46,5.9-20.1,14.17-20.29,14.36a16,16,0,0,1-1.72,1.26c-.85.62-2,1.46-2.68,1.92s-2.61,2-4.41,3.33c-3.52,2.64-6.89,5.74-6.89,6.28s4.1-.08,6.32-.92c1.8-.69,5.13-2.76,13.13-8.31a17,17,0,0,1,4.37-2.37,12.21,12.21,0,0,0,3.75-2.19c7-5.28,25.84-18,35-23.62,6.44-4,7.28-4.47,11.34-7a17.32,17.32,0,0,1,2.83-1.61,27.86,27.86,0,0,1,3.52,3.1c6.05,5.82,12.21,7.43,18,4.71,5.09-2.37,7.77-7.35,6.81-12.52-.65-3.52-4.51-6.77-8-6.77-.95,0-1.87.15-2,.38s.27.38,1,.38a8.78,8.78,0,0,1,2.6.58c4.94,2.1,6.2,8.11,2.53,12.36a8.22,8.22,0,0,1-7,3.26c-7.24,0-12.22-6.93-10.53-14.66a16.63,16.63,0,0,1,4.52-7A16.92,16.92,0,0,1,373.81,67c5.9.49,6.16.45,13.05-2.07,3.6-1.34,9.5-3.45,13.17-4.67C410.83,56.65,410.67,55.58,399.5,56.5Z" transform="translate(-48.43 -56.19)" style="fill: #3f51b5"/>
    <path d="M429.32,69.55a12.47,12.47,0,0,0-10.15,9.69c-1.11,4.94,1.92,10.41,6.36,11.67,5.4,1.5,10.53-1.72,10.53-6.58a5.53,5.53,0,0,0-1.92-4.75,4.65,4.65,0,0,0-6.93-.11,3.44,3.44,0,0,0-.23,4.9c1,.92,2.53,1.11,3.26.38s.57-2.18-.12-2.45c-.88-.34-.69-.92.31-.92,2.29,0,2.95,3.14,1.07,5-2.07,2.06-6.09,1.18-7.54-1.61A7.09,7.09,0,0,1,431.61,75c5.06.42,8.35,4.29,8.31,9.8-.07,8.92-9.68,14.32-18.87,10.6-2.53-1-4.21-2.18-7.31-5.09-2.07-2-2.3-2.07-3.64-1.8a17,17,0,0,0-2.56.77,24.11,24.11,0,0,1-2.68,1c-1.57.45-8,3-14.93,5.85-4.83,2-17,8-21.25,10.49-1.8,1-3.67,2.15-4.17,2.45s-2.07,1.26-3.41,2.15a23.94,23.94,0,0,1-2.6,1.64c-.08,0-1.3.81-2.72,1.8s-4.25,2.87-6.24,4.25c-6.89,4.75-21.78,15.89-23.81,17.8a16,16,0,0,1-2.22,1.8,24.78,24.78,0,0,0-2.18,1.68,11.5,11.5,0,0,1-1.34,1.19c-3.6,2.68-9.88,7.93-19.22,16.12-3.41,3-6.85,6-7.7,6.7s-2,1.8-2.68,2.45-2.33,2.14-3.82,3.4A195.75,195.75,0,0,0,264,194.12c-1.42,1.88-2.95,3.94-3.41,4.55s-1.45,2-2.18,3l-1.3,1.87.88.73a2.93,2.93,0,0,0,1.34.73,7.37,7.37,0,0,0,1.76-2.57c1.07-2,2.87-4.09,9-10.22,9.68-9.76,17.87-17.07,19.06-17.07,1,0,2.41-1.19,3-2.41.95-2.26,5.89-7.43,8.19-8.58a61.66,61.66,0,0,0,5.55-4c8-6.39,10.6-8.23,14.74-10.6,5.7-3.29,14.81-9.15,15-9.69a.54.54,0,0,1,.46-.3,9.3,9.3,0,0,0,2-1.57c2.68-2.6,12.48-9.49,21.94-15.47l4.36-2.75c3.33-2.15,12.37-7.54,18-10.76,9.3-5.28,29.25-15.39,30.59-15.5a20.4,20.4,0,0,1,4.13,1.57c8.19,3.9,15.47,3.21,20.18-1.84,2.56-2.76,3.44-4.9,3.44-8.42,0-4.64-2-8.12-5.7-9.8-4.67-2.19-10.45-.35-12,3.79-1.53,4-.27,7.5,3.21,9.11,2,.92,3.53.92,5.06,0C434,86.32,434.72,83.26,433,81c-.76-1-.76-1.19-.23-1.07,2,.38,3.06,4.44,1.84,6.77a7.37,7.37,0,0,1-9.53,3.18,9.39,9.39,0,0,1-4.9-5.93c-2.53-9.77,8.88-17,18.64-11.83,2.45,1.34,5.86,5,7.69,8.42,1.57,2.87,2.11,3.21,3.6,2.14,1.19-.84,1-1.57-.46-2.06-.88-.27-1.95-1.27-3.44-3.18C441.38,71.2,435.52,68.48,429.32,69.55Z" transform="translate(-48.43 -56.19)" style="fill: #3f51b5"/>
    <path d="M378.9,86.74c-.11.31-.42,1.23-.65,2A14.65,14.65,0,0,1,373,95.16a19.79,19.79,0,0,1-4.6,1.8c-3.52.81-6.89.42-11.33-1.38-4.13-1.64-4.63-1.57-4.63,1a7.05,7.05,0,0,1-.08,2s-.8-.73-1.64-1.57c-1.5-1.53-1.65-1.57-3.33-1.34a5.54,5.54,0,0,0-2.3.69,10.75,10.75,0,0,0-2,3.56,17.45,17.45,0,0,1-.27,2,12,12,0,0,0,.58,4.52c1.3,4.78,1.07,5.55-1.34,4.09-.92-.57-1.38-1.34-2.26-4-1.23-3.67-1.46-3.82-4-2.52-3,1.53-3.76,3.29-4.14,10.06l-.23,4.52-1.18-.11-1.19-.12-.12-4.9-.11-4.86-1,.23a7.28,7.28,0,0,0-5.29,4.56c-.46,1.07-.69,3.1-.84,6.77-.11,3.49-.34,5.28-.61,5.32a8.34,8.34,0,0,0-1.15.16c-1.45.26-1.57,0-1.45-4.64.07-2.45,0-4.59-.23-4.82-.62-.61-4.64,1.3-7.28,3.52-2.83,2.38-3.86,4.29-3.86,7.35,0,1.57.15,2,1.49,3.56,1.76,2,2.14,3.87.69,3.41-2.45-.77-3.68-3-4.52-8.31-.54-3.29-.92-3.56-2.49-1.91-1.11,1.22-2.26,4.06-3.18,7.85a9.53,9.53,0,0,0-.11,5.16,39.06,39.06,0,0,0,.88,3.87c.5,1.72-.11,2.37-1,1.07-1.15-1.68-5.2-2.14-6-.65a7.37,7.37,0,0,0,.08,3,12.56,12.56,0,0,1,.23,2.52,5.49,5.49,0,0,1-1.38.35c-1.19.23-1.26.19-1.68-1.38-.73-2.49-.81-2.53-3.49-2-4.63.92-6,2-15.12,12.05-2.79,3.07-6,6.36-7.08,7.28-3.1,2.6-6,4.55-6.74,4.55-.38,0-2.22-.34-4.1-.72a22.09,22.09,0,0,0-10.56.07c-4.36,1.34-8.61,5.59-9.53,9.5-.65,2.6-.31,6.66.69,8.57a12.75,12.75,0,0,0,5.93,5.36,9,9,0,0,0,11.6-5.28,7.09,7.09,0,0,0-2.49-8.12,5.63,5.63,0,0,0-7.31.5c-1.34,1.34-1.53,1.68-1.53,3.25a4.12,4.12,0,0,0,3.21,4.25c1.42.5,1.46.5.46.77-1.18.31-2.68-.38-4-1.84s-1.53-4.48-.53-6.31c2.37-4.52,8.61-5.17,12.48-1.34,2.14,2.14,2.75,3.75,2.75,7.08,0,4.63-2,7.69-6.5,10-2,1-2.68,1.18-5.56,1.22-5.47,0-9.37-2-13.62-7.12-1.38-1.64-2.8-3-3.18-3-1.34,0-5.25,4.59-4.94,5.89.08.5.65.23,2.6-1.11a14.94,14.94,0,0,1,2.95-1.72,3.53,3.53,0,0,1,1.53,1c.73.65.88.92.5,1a1.69,1.69,0,0,1-1.07-.46c-.69-.68-4.37,3.3-5.78,6.21a8,8,0,0,0-.92,2.29c.11,0,0,.23-.19.46-.61.77-2,5.78-3.14,11.41a32.85,32.85,0,0,1-3,9.19c-1.95,4-3,8.42-2.06,8.42.65,0,2.94-3.06,4.32-5.74,3.06-6,6.09-9.76,8.84-10.91a13.21,13.21,0,0,1,4.25-.58c2.84,0,2.88,0,3.91,1.38s1,1.42.65,4.48a43.76,43.76,0,0,1-4.9,14.05c-.27.54-1.15,2.18-1.88,3.71a14.63,14.63,0,0,1-1.72,3c-.57.34-.46,2.72.15,3.21a1.17,1.17,0,0,0,1,.23A5.89,5.89,0,0,0,229,236.8c0-.38,1.19-2.26,4.9-7.73a41.91,41.91,0,0,0,2.76-4.48,8.07,8.07,0,0,1,1.26-1.91c.65-.85,2-2.68,2.95-4.06,4.4-6.39,9.65-13.13,17.15-22,4.29-5.06,26.07-27,32.81-33.12,1.87-1.68,5.66-5.13,8.38-7.65s7.85-7.2,11.33-10.3,7.28-6.58,8.46-7.66c2.41-2.25,5.36-4.82,11.18-9.8,4.17-3.59,4.71-4.4,3.56-5.7a5.35,5.35,0,0,1-.76-1.42c-.23-.72-.12-.76,3.1-.76,2.87,0,3.67-.12,5.55-1,2.64-1.22,6.28-4.44,5.66-5s-.38-1,1.46-1c2.79,0,8.11-1.87,9.26-3.29a1.66,1.66,0,0,1,.81-.53c.61,0,9.14-5.86,9.14-6.28a1.45,1.45,0,0,0-.42-.88c-.65-.65,0-1.46,2.72-3.37a26.62,26.62,0,0,0,6.85-6.47c1.23-1.84,2.49-5,2.22-5.7C379.17,86.28,379.05,86.32,378.9,86.74Z" transform="translate(-48.43 -56.19)" style="fill: #3f51b5"/>
    <path d="M271.87,112.81a54.77,54.77,0,0,0-5.9,4.9c-8,7.58-11.64,9.3-25.91,12.44-18.49,4.1-26.88,7.54-31.4,12.86-.95,1.11-1.83,2.22-2,2.45s.73,1.5,1.92,2.84l2.18,2.37,4.59.27c9.54.46,17.8-1.65,24.66-6.32,1.37-1,2.6-1.84,2.71-2s1.08-.92,2.11-1.72c3.33-2.64,8.27-7.12,13.59-12.33,2.83-2.79,7-6.58,9.19-8.42,3.67-3,7.16-6.59,8.07-8.31C276.38,110.67,274.36,111.13,271.87,112.81Z" transform="translate(-48.43 -56.19)" style="fill: #3f51b5"/>
    <path d="M472,122c-3.1.38-17.8,3.33-21.63,4.36-3.21.88-8.27,2.15-9.19,2.26-.42.08-1.53.34-2.49.61a27.4,27.4,0,0,1-2.67.62c-2.49.45-17.12,3.78-22.4,5.12-8.15,2.11-22.7,6.44-29.28,8.73a27.34,27.34,0,0,1-3.68,1.07,7.73,7.73,0,0,0-2.07.73,19.15,19.15,0,0,1-3,1.15,49.46,49.46,0,0,0-7.16,2.6,1.53,1.53,0,0,1-1,.27,6.23,6.23,0,0,0-1.95.54c-2.68,1.11-7.12,2.87-9.68,3.83-1.46.57-3.18,1.26-3.83,1.57s-1.84.8-2.68,1.14c-5.55,2.34-16.88,7.89-22.74,11.14a36.06,36.06,0,0,1-4.82,2.45c-.69,0-4.9-1.91-4.71-2.14a2.17,2.17,0,0,1,1.22.23c1.84.69,2.95.42,6.51-1.61,1.91-1.11,4.36-2.49,5.4-3.06,2.64-1.46,19.87-10.07,20.13-10.07a10.65,10.65,0,0,0,1.53-.65c3.3-1.61,6.28-2.91,11.8-5.13a34.6,34.6,0,0,0,6.08-2.79,11.35,11.35,0,0,0-.61-3,37.37,37.37,0,0,1-1-8.61l-.27-6h-.92c-2.87,0-5.48,2.53-6.62,6.39-1.11,3.68-1.27,6.24-.62,9,.77,3.21.73,4.13-.07,4-2.15-.35-3.75-3-4.25-7-.27-2.06-.35-2.18-1.53-2.48-1.69-.46-4.67.53-6.43,2.06-2.45,2.15-4.75,7.31-4.75,10.68,0,.81-.19,1.5-.42,1.5-.54,0-1.46-2.34-1.76-4.41a4.39,4.39,0,0,0-.54-1.95A51.17,51.17,0,0,0,333.5,148c-8.23,4.17-9.15,5.21-8.73,10.18.15,2.07.08,2.49-.38,2.38s-.92-1-1.34-2.15a5.49,5.49,0,0,0-1.3-2.26c-.73-.26-3,1.5-4.41,3.45a4.87,4.87,0,0,0-.49,5.44c.57.84.57.95,0,1.18a2.64,2.64,0,0,1-1.77-.46,1.89,1.89,0,0,1-1.18-1.95c0-1.61-.35-1.76-2.15-.92A22.11,22.11,0,0,1,308,164c-5.66,1.23-10.72,4.9-12.9,9.42a22.48,22.48,0,0,0-1.22,3.06,9.8,9.8,0,0,1-.46,1.45c-.5,1.15,0,5.33,1,7.43a13.52,13.52,0,0,0,7,6.55,13.88,13.88,0,0,0,2.95.84c.42,0,.76.19.76.42s-.84.38-2.56.27c-4.56-.27-8.31-2.8-13.36-8.92-1.53-1.88-1.57-1.88-2.49-1.26-3.9,2.52-21.59,20.94-26.72,27.79a4.05,4.05,0,0,1-1.84,1.45,1.69,1.69,0,0,0-1.11,1.27,55,55,0,0,1-4.55,6.73c-4.25,5.67-11.64,16.58-16.08,23.78-5.32,8.57-7.2,11.25-7.93,11.25-.49,0-.34-5,.23-7.27,1.15-4.6,2.72-7.43,7.89-14.36,1.42-1.91,3-4.13,3.56-5s1.8-2.65,2.72-4c1.3-1.87,1.64-2.6,1.3-3a1.4,1.4,0,0,0-.84-.5c-.84,0-4.37,4-7.16,8.23a91.62,91.62,0,0,0-5.93,9.95,23,23,0,0,1-1.38,2.38,21.42,21.42,0,0,0-1.46,3.44c-.57,1.65-2.14,5.9-3.44,9.5s-2.68,7.5-3.1,8.72c-1.34,3.91-2.87,5.94-3.79,5-.27-.27.23-2,1.57-5.32,3.94-10,5.32-14.85,5.32-19,0-3.1-2.11-4.36-4.94-2.87s-6.78,7.69-13.29,20.67c-2.22,4.4-4.36,8.38-4.74,8.77-.61.65-.84.69-1.88.23-1.3-.54-1.57-1.38-.5-1.69a4.47,4.47,0,0,0,1.54-1.87c8.07-15.85,9.76-18.38,19.1-28.41,5.28-5.7,7.69-8.77,9.42-12.17a20.24,20.24,0,0,0,2.56-10.72c0-3.45-.08-3.83-.92-4.67-1.3-1.3-2.26-.92-5.24,2.1s-6.82,8.66-12.1,17.8c-4.25,7.35-4.48,7.55-7,5.56-1.49-1.19-1.6-1.19-2.48-.62a11.69,11.69,0,0,0-2,2c-1.23,1.53-5.48,9.26-5.48,10,0,.26.35.61.77.72s.76.39.76.54.54.54,1.15.8l1.15.46v5.52c0,3.14-.15,5.55-.38,5.7s-.27-.88-.12-2.83c.27-3.56-.15-4.94-1.76-5.9a6.12,6.12,0,0,0-4.75-.3c-1.41.53-3.17,2.64-4.55,5.39-1.11,2.22-1.49,2.61-3.37,3.53a10.46,10.46,0,0,1-2.79,1c-1,0-.62-.81.61-1.42a5.1,5.1,0,0,0,2.56-3.52l.35-1.26-2,.23c-2.33.3-4.93,1.8-8.15,4.71-1.26,1.14-2.68,2.37-3.18,2.71-1.6,1.11-7.31,8.92-9,12.25-1.38,2.72-1.61,3.56-1.61,5.59,0,2.87.8,4.44,2.79,5.48a30.81,30.81,0,0,1,3.64,2.37,15.12,15.12,0,0,0,2.37,1.53,11,11,0,0,0-.34-2c-.54-2.41.5-8.35,1.15-6.55a69.09,69.09,0,0,0,5.28,6.89c1.88,2.26,6.16,4,8.8,3.64,2.3-.34,5.94-3.18,7.35-5.7l.88-1.5-1.79.88c-2.68,1.38-4.9,1.15-3.45-.3a22.9,22.9,0,0,0,2.53-3.87c0-.15,0-.42,0-.61s.46-.46,1.08-.61c1.45-.35,2.75-1.27,2.6-1.84-.46-1.46-.57-2.57-.27-2.57s.46.62.58,1.34c.19.92.42,1.27.8,1.08.84-.31.73,1.68-.15,3.75-.39.92-1,2.49-1.34,3.52a15,15,0,0,1-2.61,3.9c-1.49,1.65-1.76,2.11-1.18,2.11a3.78,3.78,0,0,0,1.64-.65,5.75,5.75,0,0,1,1.5-.77c1-.11,2.45-1.87,3.52-4.25a6.63,6.63,0,0,1,1.41-2.37c.73,0,1.65,3.14,1.42,4.63-.31,1.8-2.14,4.63-3.44,5.32l-1,.5v19.41h1.64c2.91,0,8-2.95,12.41-7.24a21.39,21.39,0,0,0,2.41-2.48,4.1,4.1,0,0,1,.84-1.11c4.71-4.94,8.35-13.13,8.35-18.76,0-2.72-1.27-5.28-3.07-6.2-1.11-.58-5.74-1.27-5.74-.85a13.5,13.5,0,0,0,.81,2c1.57,3.68,2.1,7.85,1.91,14.82,0,1.95-.19,2.41-1.19,3.41-.65.65-1.26,1.07-1.41,1a68.55,68.55,0,0,1-.31-7.62,59.17,59.17,0,0,0-.5-8.38,6.82,6.82,0,0,0-4-3.56,14.7,14.7,0,0,0-3.4,0l-2.15.23-1.22-1.72a8.61,8.61,0,0,1-1.19-2.15c0-.72.65-.46,1.34.58s1.42,1.11,5.55-.12a37.21,37.21,0,0,1,8.61-1.45c.85,0,3.64-.31,6.21-.61l4.67-.5.8,1c1,1.27,1.38,1.11,1.68-.69s3.72-8.15,5.75-10.79c1.49-2,5.59-8.65,5.59-9.15,0-.12,1.11-2.22,2.45-4.67s4.4-8.35,6.81-13.09a115.3,115.3,0,0,1,14.78-22.67c.38-.42,4.44-4.17,9-8.3,17.53-15.7,16.31-14.7,17.61-14.47s4.21,1.76,3.94,2a5.81,5.81,0,0,1-2.1-.26l-2-.46-1.83,1.64c-5.06,4.56-14.89,14.51-18.53,18.76-5.32,6.2-11.06,13.51-11.06,14.13,0,.23-.16.42-.31.42-.31,0-3.75,5.09-8.35,12.25a33.83,33.83,0,0,1-2.06,3.06,76.4,76.4,0,0,0-4.79,8.23,42.66,42.66,0,0,1-2.3,4,35.64,35.64,0,0,0-3.25,6.43,1,1,0,0,1-.5.73c-1.95,1.22-7.12,8.46-6.5,9.07s.84.16,2.18-2.22,5.89-7.12,6.85-7.12,2.49-2,3.67-4.67a32,32,0,0,1,4.48-7.2c.85-1.14,1.8-2.52,2.11-3.06s2.79-4,5.51-7.62c5.78-7.77,10.49-12.86,13.55-14.73,2.53-1.57,2.42-1.46,6.36-7.09a68.55,68.55,0,0,1,5.86-7.23,23.06,23.06,0,0,0,2.75-3.26c0-.84,2.18-3.13,5.4-5.66,3.87-3.06,4.55-3.87,4.25-5-.19-.72-.08-.76,1-.57,9.22,1.84,14.39.8,19-3.79a14.65,14.65,0,0,0,2.53-3,5.3,5.3,0,0,1,.65-1.57c.46-.84.65-2.14.65-4.78,0-3.06-.12-3.91-.8-5.21a13.76,13.76,0,0,0-6.17-5.43,9,9,0,0,0-9.57,2.33,7.46,7.46,0,0,0-1.34,9.5,6.2,6.2,0,0,0,9.3,1.53c2-1.8,2.19-4.33.58-6.78-1-1.49.34-1.19,1.41.31a5.32,5.32,0,0,1,.89,3.6c0,2.1-.16,2.48-1.31,3.82a7.07,7.07,0,0,1-6.27,2.65c-5.29-.31-9-4.87-8.62-10.46.27-3.48,2.38-7.38,4.71-8.76a16.68,16.68,0,0,1,13.44-1.65,27.58,27.58,0,0,1,8,4.67,2.86,2.86,0,0,0,3.6.58,203.66,203.66,0,0,1,18.6-9.27c5.86-2.56,24.12-7.69,36.75-10.33,20.18-4.21,32.81-7.51,41.15-10.76,2.42-1,6.21-2.68,8.43-3.87,7.31-3.9,11.25-5.93,12.82-6.47,4.25-1.57,6.62-2.06,10-2.06,4.56,0,5.55-.39,6.47-2.42a4.62,4.62,0,0,1,2.3-2.33c2.18-1,9.3-2.11,16.84-2.53,3.56-.23,6.82-.49,7.2-.61.69-.23.69-.27,0-1s-1.19-.72-6.05-.69C477.32,121.65,473.61,121.84,472,122Z" transform="translate(-48.43 -56.19)" style="fill: #3f51b5"/>
    <path d="M279.87,135.4c-1.15.42-2.8,1.07-3.64,1.45s-2.14,1-2.87,1.3c-7,3-12.63,6.24-16.27,9.23-3.94,3.25-3.87,3.67.57,3.67,3.07,0,3.45.08,3.33.65a9.14,9.14,0,0,1-2.06,3.72c-.88,1.07-4.06,3.67-4.48,3.67-.08,0-1.49.81-3.14,1.76a31,31,0,0,1-6.24,2.68c-5.21,1.53-7.39,2.95-11.25,7.35-1.5,1.69-2.57,1.92-2.57.54a2.87,2.87,0,0,0-.5-1.38c-.49-.69-.72-.65-5.85.5-2.91.65-5.86,1.34-6.51,1.53-2.61.73-5.13-.12-6.09-2.07-1.42-3.06-.11-5.05,3.83-5.7.84-.15,3.44-.42,5.74-.61l6.51-.58c2.41-.23,8.15-1.11,11.68-1.76,3.71-.73,6.89-2.07,8.65-3.67a8.73,8.73,0,0,0,2.45-5.33v-.95l-2.76.23a49.41,49.41,0,0,0-9.68,2.18,38.85,38.85,0,0,1-6.74.57c-4.67.19-5.94.08-7.85-.49-3.52-1.08-10.64-1-14.13.19-3.33,1.11-5.55,3.21-6.31,5.93-.46,1.61-.61,1.8-1.5,1.69-.65-.08-.95-.31-.84-.69a19.8,19.8,0,0,0,.31-2.3c.15-1.46,0-1.8-.61-2.18s-1.19-.27-3.64,1c-3.06,1.57-3.68,1.49-2.91-.38.54-1.3.54-1.3,4.21-1.88,6.89-1.11,7.66-1.53,7.66-4,0-2.75-1.76-4.28-6.89-6.08-13.4-4.75-35.8-4.41-45.83.61-4.25,2.18-5.85,4.21-5.85,7.46,0,3.91,5.13,5.78,10.14,3.68,1.72-.69,7.05-.69,9.76,0a9.06,9.06,0,0,1,6,4.4c1.19,2.41,1.11,3-.72,5.59-5.4,7.65-5.75,15.35-1,21.32,1.19,1.49,1.3,2.07.31,1.3a17,17,0,0,1-3.91-5.74,35.46,35.46,0,0,1-1.3-5.59c-.61-4.1-.69-4.25-1.72-4.25s-3-1-3-1.53c0-.23,1-.38,2.11-.38,1.68,0,2.18.15,2.56.76.27.42.62.77.73.77a6.35,6.35,0,0,0,1.11-2.11c1-2.45.69-3.25-1.3-3.25a7.35,7.35,0,0,1-4.71-1.61c-1.11-1-1.15-2.91-.11-5.24.92-2,.92-2,.26-2-.88,0-4.4,3.95-4.55,5.1s-.15,1-1.46-1a8.3,8.3,0,0,0-3.86-3.33c-2.57-1.3-5.28-1.84-7-1.42-.73.16-1.11.77-1.76,2.53a9.27,9.27,0,0,1-1,2.3,5.32,5.32,0,0,1-1-.39c-.61-.34-.73-.84-.73-3.06,0-1.45-.19-2.76-.42-2.87a4.67,4.67,0,0,0-2.1,0,3.16,3.16,0,0,0-2.76,1.72,5.77,5.77,0,0,1-1.57,1.72c-.57.23-1.95-.8-1.95-1.45,0-.23.34-.08.76.31s.88.57,1,.42-.08-.58-.5-.92a3.25,3.25,0,0,1-1-1.34c-.35-.88-2.07-.84-3.53.11a5.38,5.38,0,0,1-1.41.77c-.19,0-.31-.92-.31-2,0-2.56-.8-3.45-3.21-3.48-2,0-3.18.84-3.53,2.71-.19,1-.34,1.19-.76.85-.88-.73-.69-4.64.23-5.82.69-.88.72-1,.15-1.57-1.11-1.11-6.09-.58-6.81.73-.23.42-.46.84-.54,1s-.27-.07-.5-.38c-.42-.65-.11-2.41.69-4l.58-1.11-1.69.19a11.17,11.17,0,0,0-2.3.5c-.57.23-.68,0-.68-1.3,0-1.73-.2-1.84-1.46-1-.92.61-1.61.46-1.61-.46s-2.18-4.9-3.37-6.05c-1.37-1.26-4.51-1.87-5.09-1-.42.66-.07,2.84.69,4.29.46,1,.46,1.19-.19,2.11-2.1,3-2.53,4.32-2.68,9.07-.11,4,0,4.86.65,6.74,1.23,3.25,5.51,7.16,9.61,8.76,2,.81,2.07.88,1.3,4.21-.11.54-.3,2.61-.42,4.64-.31,5.24.61,8.27,3.52,11.37,2,2.14,4.21,3.63,5.55,3.75a4.19,4.19,0,0,1,1.42.5c1.15.61,1.34.53,1.07-.35-.3-1,1-1,1.88,0,.61.69.73.69,2.45,0s5-3.29,5-4.1-.27-.61-1.42.58c-1.72,1.72-3.06,2.18-6,2.14s-4.33-.57-6.59-2.75a11.79,11.79,0,0,1-3.18-7.54c0-4,3.14-8.85,6.89-10.69,2.57-1.3,6.24-2.18,8.12-2,3.22.31,7.47,2.8,12.14,7.09a6.94,6.94,0,0,0,4.78,2.37,59.6,59.6,0,0,1,12.71,4.1,26.07,26.07,0,0,1,7.85,6c2.33,2.83,2.6,4.21,2.72,14.16s0,10.53-2.57,12.75c-1.84,1.64-3.44,2-9.42,2-5.36,0-7.38-.38-7.81-1.42s.35-1.26,2.88-.76a39.19,39.19,0,0,0,5.35.46c3.22,0,5.44-.92,6.86-2.72,2.33-2.95,4.55-15.28,3.48-19.3-.92-3.56-3.79-6.24-8.34-7.73-2.19-.69-6.21-1-6.21-.34s3.64,3.71,5,4.21c2.34.84,3.14,1.34,4,2.45.73,1,.81,1.57.77,5.36-.08,6.5-2,13.09-3.95,13.51-.53.11-1.3.31-1.64.38-1,.27-5.25-.61-7-1.45-2.87-1.38-11.14-4.14-18.37-6.05-1.69-.46-4.21-1.19-5.63-1.57-3.06-.88-3-.88-3-.15s-.68.69-1-.19a1.11,1.11,0,0,0-1-.77,1,1,0,0,0-.88.77,1,1,0,0,1-.8.76c-.46,0-.58-.23-.39-1s.12-1-.57-1-.8.23-.8.76a3,3,0,0,1-1,1.73c-1.07,1.11-2.18,1.34-1.27.26a4.7,4.7,0,0,0,.81-1.26,2,2,0,0,0-1.72-2.26c-.77,0-.77,0-.2.69a1.77,1.77,0,0,1-.11,2.76c-1.07,1.07-1.68.95-.92-.16a1.61,1.61,0,0,0,.08-2,2.14,2.14,0,0,0-1.38-1.18c-.88-.15-.88-.12-.27.84a2.85,2.85,0,0,1,.42,2.26l-.23,1.3,2.76.46c1.53.27,4.44.92,6.43,1.45s3.91,1,4.21,1.08a68.8,68.8,0,0,1,7.27,2.83c4.45,2.1,8.5,6.12,9.88,9.8a24.85,24.85,0,0,1,1.23,6.93c0,4.55-3.18,7.58-14.17,13.55a50.38,50.38,0,0,0-12.78,9c-2.34,2.1-4.33,3.94-4.44,4.06l-3.83,3.25c-4.29,3.6-8.27,7.62-9,9.07-.3.61-.69,1.07-.84,1.07a7.73,7.73,0,0,0-1.42,2,27.71,27.71,0,0,1-2,3c-1.3,1.61-4.63,8.92-6,13.21a94.9,94.9,0,0,0-4.29,18.6c-1.34,9-1,18.19,1,29.86.23,1.15.5,2.72.62,3.45,1,6.09,1,6,3.4,10.49,1.15,2.14,1.27,3.1.42,3.44-.61.23-.84,3.45-.26,3.83a11.2,11.2,0,0,0,3.06-1,9.55,9.55,0,0,1,3-1c.58.61-.38,2.26-1.64,2.79a2.56,2.56,0,0,0-1.42,4c.42.85,1,1.31,1.42,1.27s.57.15.46.46.88,1.26,1.07.88c.61-1.3.84-2.61.53-3.14a1.79,1.79,0,0,1,.65-2.3c1-.34,1.42,1.19,1.15,3.6a5.8,5.8,0,0,0,.39,3.6c.61,1.3.72,1.34,1.34.8.91-.84,1.49-.72,1.91.39a1.34,1.34,0,0,0,1,1,8.65,8.65,0,0,1,2.26.73c2.26,1,2.76,2.53,2.64,7.89-.15,5.93,1.19,9.83,4.48,13.43,1.42,1.53,2.64,2.3,2,1.27-.15-.27,0-.39.46-.27a1.14,1.14,0,0,1,.84.92c.27,2,6.78,3.1,11,1.91a8.77,8.77,0,0,0,4.14-2.45c2.48-2.41,3.4-4.29,3.63-7.43a6.87,6.87,0,0,0-.84-4.63c-1.72-3.52-5.63-5.93-8.88-5.43-2.18.3-4.86,2.1-5.63,3.75-1.41,2.95-1.3,4.78.31,6.74,1.34,1.53,3,2.37,4.44,2.06,1.11-.19,1.57-.88.65-.88-.27,0,.08-.38.73-.8,1.3-.81,1.68-1.88.72-1.88a1.7,1.7,0,0,0-1,.58c-.73.88-1.76.69-2.83-.62a2.79,2.79,0,0,1-.35-3.82c1.65-2.8,6.2-2.3,8.16.88.76,1.3,1,3,.42,3-.2,0-.42.69-.58,1.53s-.42,1.53-.61,1.53-.38.27-.38.54-.62,1-1.38,1.61c-2.6,2-6.74,1.68-9.65-.81-4.09-3.44-3.86-10.87.5-14.66,2.68-2.37,4.21-2.91,8.23-2.91,3.25,0,3.87.12,5.86,1.11,4.86,2.42,8.42,7.7,9.22,13.63l.39,3,2.14.46c3.44.69,3.83.8,3.83,1.15,0,.19.42.34.92.34a6.91,6.91,0,0,0,5.09-2.07l1.8-1.57,4.59,0c4.63,0,6.16-.38,6.85-1.53.46-.76,1-.65,1,.2s.65,1.41,1,1.07a2.24,2.24,0,0,0-.19-1.38c-.23-.65-.35-1.19-.23-1.19.53,0,1.22,1.11,1.49,2.34a18.88,18.88,0,0,0,1.57,3.75,10.16,10.16,0,0,1,1.23,2.76c-.08.19-1.19-.62-2.53-1.77-2.68-2.33-4.29-2.79-4.29-1.22a1.64,1.64,0,0,0,1.53,1.8,15.57,15.57,0,0,1,3.64,1.91,37.42,37.42,0,0,0,5.55,2.87c3.06,1.15,7.16,1.65,8.38,1a8.15,8.15,0,0,1,2.42-.65c3.06-.31,7.23-3.75,8.72-7.28,1.08-2.48,1.38-6.46.66-8.23A16.17,16.17,0,0,0,188,370.4c-1.64-.68-2.37-.76-5.24-.57-2.68.15-3.48.38-4.52,1.15a10.06,10.06,0,0,0-3.21,6.66c0,1.3-.12,1.61-.39,1.19-.53-.85-.07-4.14.81-6a11.94,11.94,0,0,1,6.39-5.32,13.27,13.27,0,0,1,12.56,3.21,19.24,19.24,0,0,1,5.13,12.6,12.19,12.19,0,0,0,.38,3l.42,1,3.06-.26c4.44-.39,5.71-1.15,5.71-3.53,0-.69.19-.92.8-.92s.81.16.61,1.27a3.67,3.67,0,0,0,.12,1.8,1.35,1.35,0,0,1-1.07,1.91,3.12,3.12,0,0,0-1.42.5c-.65.5-.65.57.15,1.38.65.65,1.23.8,2.64.76,2.61-.11,2.91-.3,2.15-1.15-.61-.68-.61-.72.46-.72a10.83,10.83,0,0,1,2.37.34c.65.19,1.23.27,1.26.12s.08-.88.16-1.69a5.31,5.31,0,0,1,3.1-4.32,27.13,27.13,0,0,0,2.72-1.57,4.64,4.64,0,0,1,4.09-.69c1,.34.73.84-.3.65-1.23-.23-2.87.69-4.52,2.49s-2.11,3.44-1.26,5l.61,1.19h3.9c4.71,0,5.52.34,4,1.72a2.82,2.82,0,0,0-1.07,1.46c0,1.64,4.06,3.13,7.77,2.87,1.42-.12,1.61-.23,1.49-1-.15-1,.08-1.07,1.08-.08a3.12,3.12,0,0,0,2.41.77l1.61,0-1.15-.61a22.67,22.67,0,0,1-5.78-5.55c-.88-1.69-.58-4.9.46-4.9.3,0,.53.15.53.34,0,.46,2.57,1.76,4.06,2.07l1.23.23.15-2.79c.11-2.65.23-3,1.95-5.48a9.32,9.32,0,0,0,1.8-3.67c0-.81.19-1,.8-1s.73.19.58.65-.58,1.88-1,3.33c-1,3.14-1,5.48-.19,7.05a5.1,5.1,0,0,1,.62,1.8c0,.3.11.53.3.49a6.91,6.91,0,0,1,1.88.77,7.81,7.81,0,0,0,3.25.84c1.88,0,4.1-1.18,4.4-2.33.27-.92.88-1,.88-.08a12,12,0,0,1-2.1,6.05c-1.26,1.95-1.42,2.33-1.23,4a9.27,9.27,0,0,0,.46,2.3c.39.65,2.45-.69,3.33-2.15.42-.73.88-1.26,1-1.15.54.54-.54,2.53-2.07,4l-1.76,1.61.92,2.3c1,2.41,1.49,2.91,1.53,1.42v-.85l.46.88a1.49,1.49,0,0,1,0,1.65c-1.11,1.76,4.94,9.72,8.58,11.25a9.18,9.18,0,0,0,1.72.58c.84,0,.19-1.23-1.38-2.76s-1.83-2.1-2.68-5.09c-1.83-6.32-1.95-9.38-.65-14.74.58-2.37,2.38-5.36,3.22-5.36.42,0,.08,2.91-.69,5.52s-1.15,9-.61,9c.23,0,.69-1,1-2.18,1.72-6,4-8.92,6.81-8.92,1.54,0,2.22.65,1.15,1a8.49,8.49,0,0,0-3.83,3.29c-.57,1-.68,2.3-.68,7.93v6.7l1.14,2.07c1,1.87,4.06,5,4.83,5,.61,0,1.87-1.53,1.87-2.22a25.43,25.43,0,0,0-.76-3.45c-1.27-4.59-.88-9.26.88-10.75.57-.46.65-.42.65.27a8.38,8.38,0,0,1-.77,2.41c-.92,2.06-.95,3.71-.11,4.94a2.61,2.61,0,0,1,.57,1.14c-.07.08,0,.23.19.27s.66-1.22,1-2.87c.61-2.76,2.53-6.58,3.29-6.58a27.47,27.47,0,0,1,.31,5.24c0,5.21.46,7.62,1.64,8.35.62.38.46,1.53-.34,2.56-.65.81-.77,1.72-.88,8.73l-.12,7.85-1.3,2.37a23.77,23.77,0,0,1-3.48,4.63c-2,2-2.18,2.45-2.41,4.33-.31,2.72.27,6.77,1.18,8,1,1.38,3.22,1.49,5.63.38,1.92-.88,3.37-2.6,4.82-5.55.92-1.91,3.07-4.36,3.79-4.36s.27,3.71-.53,5.32a11.61,11.61,0,0,1-2.76,2.76c-3,2.29-4.06,4.21-4.09,7.81-.08,2.41-.19,2.83-.65,2.64a12.76,12.76,0,0,0-2-.42c-1.19-.2-1.69-.54-2.64-2a22.16,22.16,0,0,0-1.65-2.15,9.82,9.82,0,0,1-1.3-1.8l-.84-1.45-1.46.72a9.83,9.83,0,0,0-1.91,1.34c-.65.81-1.57.77-1.57,0s2.41-3.21,3.21-3.21.77-.31-.38-1.8a19.94,19.94,0,0,1-1.95-3.41c-.73-1.64-1.11-2.06-1.61-1.87-.34.11-1.34.42-2.26.69-1.45.38-1.68.34-2.37-.35-1.11-1.11-1-2.26.57-6.09,1.69-4.09,2-6.69,1.07-8.61s-2.1-2.37-5.28-2.1c-5.05.38-7.31,1.76-11.52,6.85l-1.53,1.91-2.68-.46a32,32,0,0,1-5.09-1.45c-5.94-2.41-15.43-1.34-23.32,2.64-6.28,3.14-7.5,3.87-21.51,12.9-6,3.87-7.43,4.52-11.87,5.32-5.17,1-9.68,4.1-13.24,9.15-1.61,2.3-1.69,2.53-1.69,5.21a13.8,13.8,0,0,0,2.87,9,10.11,10.11,0,0,0,4,3.49c2.38,1.18,6,1.83,7.2,1.3.46-.19-.08-.38-1.84-.54-3.71-.34-7.5-2.56-8.42-4.9a28.52,28.52,0,0,1-1.38-8.38c.42-3.87,3.76-8.31,7.62-10.18,5.36-2.65,9.46-2.38,17.46,1,2.06.88,2.6,1,3.83.61,2.48-.69,5.85-.5,6.77.39a1.43,1.43,0,0,0,1.84.42,3.41,3.41,0,0,0,1.22-.77c.16-.27,2.72-.42,7.28-.42h7.08l1.19,1.07a3.71,3.71,0,0,1,1.37,2.87c.43,3.49-.19,3.72-13.66,5.67-4.52.65-7.31,1.45-9.46,2.75-3.29,2-2.72,2.07,10.34,2.15l11.56,0,1.53,1.8c3.48,4.17,6.32,6.66,8.92,7.88,2.41,1.15,2.83,1.23,6.78,1.23,4.13,0,4.28,0,6.2-1.27,4.55-2.91,6.24-5.74,6.24-10.41,0-3.37-.77-5.32-2.84-7.39a8.45,8.45,0,0,0-8.69-2.41c-3.75,1.11-5.66,3.56-5.7,7.27a6.18,6.18,0,0,0,3.25,5.82c1.73.92,1.73,1.34,0,.81a7.94,7.94,0,0,1-4.75-5.29c-1.49-6.08,3.48-11.82,10.22-11.82a5.79,5.79,0,0,0,2.34-.43c.49-.3,1.14-.19,2.75.54,4.44,2,7.43,5.17,7.51,7.89a19.49,19.49,0,0,0,.72,3.86,16.45,16.45,0,0,1,.46,6.13,15.38,15.38,0,0,0,.08,4.13,12,12,0,0,0,4.55,1.61c.23,0,.46-.31.46-.69,0-1.65,1.27-4.78,2.91-7.16,1.53-2.22,1.73-2.75,1.53-3.86s-.15-1.27.31-1.08a1.6,1.6,0,0,1,.8.92,10.22,10.22,0,0,0,2.11,2.45,18.59,18.59,0,0,1,1.91,1.95,4.26,4.26,0,0,1-1.83.2c-1.53,0-2,.19-2.84,1a11.26,11.26,0,0,0-1.45,2.33c-.61,1.57-.35,6.82.42,8s8,4.83,8.15,4.18c.88-3,1.31-12.29.62-12.71-1-.62-.31-1,1.3-.85,1.8.27,7.12,2.45,7.12,3,0,.16-.77.42-1.72.54-4.87.73-6.44,7.69-2.61,11.56,1.3,1.3,3,1.95,5.67,2.14l1.53.12V496c0-4.44.11-5.51.57-5.81a1.25,1.25,0,0,1,1.92.19c.42.49.34.69-.39,1.22s-.84.77-.61,3.52c.54,6.4,4.9,11.6,10.41,12.48,2,.31,2.11.08,1.5-4.05-.65-4.29-1.84-7.28-3.52-8.92l-1.42-1.34,3.87.23c4.47.26,6.12-.08,10.37-2.11,1.53-.73,2.87-1.22,3-1.07s0,.65-.19,1.18c-.61,1.31-.57,2.3,0,2.8a25.71,25.71,0,0,0,4.67,1.38c9.76,2.18,24.92.8,34-3.1,1.79-.77,2.45-.88,3.25-.58,3.06,1.15,11,1.34,12.67.27.23-.11.42-.08.42.08s-.84.65-1.87,1a4.14,4.14,0,0,0-2.11,1.26c-.19.5-.34.5-.84.08s-.69-.38-1.15.19-.57.65-1.38.16c-1.57-1-4.52-1.46-7.35-1-2.49.35-4.55,1.19-10.18,4.29-4.48,2.45-9.46,3.21-11.72,1.84-1.41-.88-5.2-1.76-6-1.46s-.81,3.37.15,4.6c.76.95,1,1.79.54,1.79a22,22,0,0,1-2.68-2.64c-2.57-2.75-5.59-4.63-7.47-4.63-1.61,0-3,.77-3.25,1.8-.16.5-.46.88-.73.88-.5,0-4.29-3.56-5.47-5.13-.46-.53-.89-.61-2.68-.42-3.26.38-3.53.5-3.53,1.68a11.12,11.12,0,0,0,2.38,5.94,11.89,11.89,0,0,0,6.05,3.83c1.91.57,6.5.84,6.5.42a4,4,0,0,0-.61-1.15,3.34,3.34,0,0,1-.46-1.92c.12-.95.15-.95,3.48,1.34a26.1,26.1,0,0,0,4.9,2.72c1.34.42,1.73.39,3.22-.34l1.68-.81,2.61,1.54c2.49,1.49,2.72,1.53,5.28,1.37a12,12,0,0,0,4-.8l1.27-.69L341.65,507l-1.07-1.11h1.23a8.84,8.84,0,0,1,2.64.57,12.5,12.5,0,0,0,3.83.58c2.6,0,3.17-.35,5.55-3.37,1.07-1.3,2.45-1.45,6.05-.5,4.05,1,4.59,1,6.81-.11,3.67-1.92,3.67-1.8.84-4.48-1.38-1.26-2.14-2.22-1.72-2.07a51.1,51.1,0,0,0,8.92,1.72,8.3,8.3,0,0,0,4.13-1.37,8.82,8.82,0,0,0,2.45-1.73c0-.19-.61-.72-1.34-1.15-2.29-1.37-1.76-1.72,2.22-1.56,3.3.15,3.76.07,5.59-.85s8.46-6.81,8.46-7.5a3.67,3.67,0,0,0-1.8-.73c-1.91-.49-7.61-3-7.35-3.25a9.84,9.84,0,0,1,2.45.19c1.27.19,4.44.38,7.09.42,5.81.08,7.38-.46,9.8-3.37,1.57-1.91,3.21-4.44,3.21-4.94a8.21,8.21,0,0,0-2.76,0,17.09,17.09,0,0,1-6.23-.53,55.15,55.15,0,0,0-10.23-1.57,3.73,3.73,0,0,0-2.71,1.15,6.41,6.41,0,0,1-1.69,1.15,4.88,4.88,0,0,1-1.45-1.15c-1.3-1.38-1.73-1.46-1.46-.27.16.57-.23.31-1.18-1-4.22-5.28-11.53-7.16-17.19-4.36-2.64,1.26-3.3,1.11-1-.27a13.19,13.19,0,0,1,7.27-1.8c3.45,0,6.7,1.26,11.11,4.29l3.44,2.41,1.34-1.53c3.91-4.48,9.11-14,11.33-20.75,2.18-6.55,3-12.06,3-20.14,0-4.21-.19-7-.42-7.35a1.09,1.09,0,0,1-.16-1.07,3.9,3.9,0,0,0-.95-2.29c-1.42-2.11-1.73-3.26-1.27-5,.35-1.23.23-1.57-1.18-3.91-1.53-2.52-1.57-2.64-1.57-6.31,0-3.06.07-3.87.65-4.48s.65-.84-.12-2.6-.8-1.84-1.61-1.11a6.71,6.71,0,0,0-1.3,1.95c-.88,2-.72,3.33.81,7.2.69,1.72-2.22-1.61-3.1-3.57-1.19-2.71-1.46-4.36-.92-6a6.57,6.57,0,0,1,3.1-3.37c.27-.07.19-.57-.23-1.49-.61-1.3-.77-1.38-1.88-1.11-3.06.69-4.82,2.64-4.82,5.4,0,2.3.38,3.1,2.41,5.21a5.93,5.93,0,0,1,1.38,1.83c-.23.19-4.06-2-6.05-3.52a6.47,6.47,0,0,1-1.38-8.38,7.55,7.55,0,0,1,7.08-3.45,4.31,4.31,0,0,0,1.92,0c0-.77-1-1.84-2.3-2.49a7.26,7.26,0,0,0-7,.31c-1.61.88-2,1.34-2.8,3.29a20.36,20.36,0,0,1-2.07,3.9c-1.11,1.57-1.14,1.73-.72,3.34.69,2.87,3,4.67,6.35,5.09,3,.34,3.1.61.5,1.18-4.71,1-6.24,1-7.92.19a9.73,9.73,0,0,1-3.79-3.75c-.39-.65-.46-.65-1.73.23-2.37,1.69-2.41,2.11-.34,4.37,3.33,3.63,7.23,4.13,10.6,1.38,2-1.69,2.49-1.73,1.34-.12a9.86,9.86,0,0,0-1,1.88c-.42,1.3-2.22,2.75-4.14,3.25a4.22,4.22,0,0,1-3.75-.31l-1.91-.8.23,1c.46,2.14.61,2.41,1.6,2.79,2,.77,6.63-.73,8.12-2.64a4.23,4.23,0,0,0,.77-2.53l0-1.57.58,1.34c.69,1.57.46,3.45-.54,4.29-1.34,1.15-6.58,3.37-7.88,3.37s-1.38.11-1.38,1,.38,1,2.56.38a.74.74,0,0,1,.65.07c.12.16-.46.54-1.34.92s-1.45.88-1.3,1.11a10.37,10.37,0,0,1,.39,2.72c.07,1.65.3,2.45.76,2.8s.61.76.38,1.8a50.24,50.24,0,0,0-.38,5.24,52,52,0,0,1-6,24.19c-2.45,4.94-3.14,5.82-7.08,8.89-5,3.86-8.08,9.6-8.16,15.12,0,1.76-.49,1.57-1.53-.65-1.37-2.95-1.45-3-5.05-1.23-1.76.84-3.83,1.76-4.59,2s-1.46.65-1.46.84-.15.23-.34.12c-.58-.39-3.37,1.34-3.83,2.33a5.83,5.83,0,0,0-.42,2c0,.65-.15,1.15-.31,1.15-.53,0-1.22-1.84-1.22-3.26,0-1.22-.12-1.33-1.07-1.33-1.42,0-1.69.3-1.19,1.22.3.54.3.88,0,1.19s-.81,0-1.8-1c-1.19-1.18-1.61-1.37-2.87-1.3s-1.42.15-1,.88a4.47,4.47,0,0,0,1.72,1.3c1.57.73,1.34,1.34-.65,1.5a4.47,4.47,0,0,1-4.51-2.34,6.8,6.8,0,0,1-.23-5.13c.3-.53.23-1-.31-1.64-.69-.92-.69-.92-1.57-.2a8.64,8.64,0,0,0-1.57,2.45,3.7,3.7,0,0,0-.31,3.33,10.32,10.32,0,0,0,2,3.37c2.29,2.64.42,2.76-2.45.16-2.42-2.19-3.18-5.09-2-7.81.42-1,1-1.53,2.45-2.18a6.52,6.52,0,0,0,1.95-1.08c0-.69-3.94-4-5.94-4.93-2.33-1.12-5.78-2-4.21-1.08.73.42.73.42,0,.73a6.37,6.37,0,0,1-1.8.31,4.17,4.17,0,0,0-3,3.1c0,1.22.84,2.68,1.61,2.68.38,0,.65-.12.65-.31A3.9,3.9,0,0,1,309,468c.61-.61,1.26-.76,3.26-.76,1.41,0,2.48.15,2.48.38s-.34.38-.76.38a5,5,0,0,0-3.87,2.38c-.38,1-.34,1.18.27,1.64,1,.73,1.22.73,1.49-.19.5-1.57,2-2.3,4.83-2.3,1.49,0,2.64.16,2.64.39s-.46.38-1,.38c-2.91,0-5.55,3.1-4.78,5.59a19.12,19.12,0,0,1,.57,2.49,4,4,0,0,0,.8,1.87c.62.5.81,1.92.23,1.92-.19,0-.53-.27-.8-.58-.61-.73-1.15-.73-1.15,0s-2.26,3.22-4,4.14c-2.22,1.14-6.7,1.14-8.84,0-2.87-1.53-5.48-4.56-5.82-6.7a6,6,0,0,0-.92-2.3c-.61-.84-.65-1-.15-1,1,0,.72-2.26-.35-3.26a5.13,5.13,0,0,1-1.07-1.37c-.38-1-.69-.08-.92,2.75a23.71,23.71,0,0,1-.34,2.95c-.35.38-1-3.1-1-5.47a9.91,9.91,0,0,0-.31-3.07,6.16,6.16,0,0,0-1.6-1.07,5.36,5.36,0,0,1-1.84-1.45c-.42-.69-.38-.73.38-.62a13.28,13.28,0,0,1,2.76,1l1.87.88,3.95-4a40.23,40.23,0,0,0,4.44-4.9c.27-.54.76-1.38,1.07-1.92A23,23,0,0,0,302,453c.88-2.19,1.76-2.84,2.22-1.61.27.69-.38,3.1-1.41,5.2l-.65,1.38,1.18.23a4,4,0,0,1,1.95,1.19c.73.88.89.92,2.57.53a10.76,10.76,0,0,0,3.18-1.34c.76-.49,1.87-1.18,2.49-1.49a54,54,0,0,0,5.81-5.17c3.26-3.17,4.9-4.51,5.32-4.4.73.23,4.22-1.26,4.68-2a.71.71,0,0,1,.84-.27c.3.16,1-.19,1.64-.69,1-.8,1.42-.88,4.9-.88a59.16,59.16,0,0,1,7.12.54l3.37.54-.69,1.11c-1.64,2.83-3.37,4.7-4.4,4.82-.57.08-1,.34-1,.57,0,.62,1.84,2.64,3.14,3.49,1,.65,1.07.61,3.1-.35,3.25-1.53,3.44-2,3.25-8.19-.15-4.44-.3-5.47-1-7a7.67,7.67,0,0,0-1.92-2.53c-3.37-2.34-9.22-2.45-17-.31-6,1.65-20.26,1.34-25.19-.57-5.1-2-7.28-6.7-7.28-15.85,0-3.87,0-3.87,1.38-5.67.88-1.14,1.3-2.06,1.19-2.56-.23-.88.3-1,.8-.11.27.49.73.15,2.57-1.84A21.75,21.75,0,0,0,307,406c.65-1.54.77-5.94.19-7.09a2,2,0,0,1-.23-1.22,12.75,12.75,0,0,1,3.91-2.8,1.55,1.55,0,0,0,.8-.57c.31-.34.65-.46.84-.27s-.23.92-1,1.69c-1.34,1.34-1.38,1.45-1.19,3.6.12,1.26.31,3.94.42,6,.23,3.59.27,3.75,1,3.48,2.33-.69,3-2.34,3.21-8,.15-4.48.61-6.63,1.42-7.2.27-.19,0-.65-.61-1.26a5.91,5.91,0,0,1-1.5-2.68,4.91,4.91,0,0,0-1.57-2.68c-1.18-1-1.83-1.23-1.83-.58,0,.19.26.39.57.39s.57.19.57.42-.34.34-.91.19a3.52,3.52,0,0,0-2.19.46,10.66,10.66,0,0,1-4.63.65h-3.37V390a5.27,5.27,0,0,1-.38,2.15c-.38.76-2.57,1.8-3,1.45-.11-.15.23-.42.77-.61,1.22-.46,1.8-1.49,1.8-3.22,0-1.18-.92-2.56-1.73-2.56a2.18,2.18,0,0,1-1-.65c-.65-.58-.69-.54-.69.76a5.48,5.48,0,0,1-3.1,4.29c-2.3,1.19-4.82.54-12.17-3.18-3.68-1.87-5.75-6.08-4.63-9.45.61-1.88,4.78-6.28,6.77-7.16s2-1,2.22-2.49c.08-.61.31-1.84.54-2.79a7.53,7.53,0,0,0,.27-1.8,32.38,32.38,0,0,0-3.91.61c-6.74,1.3-11.29,3.41-15.35,7.08l-2,1.84-1.3-.61a5.7,5.7,0,0,1-1.91-1.57c-.54-.81-.77-.92-1.42-.54-1,.54-1.46.12-.58-.53.66-.46.54-.66-1.3-2.3-3.17-2.87-8.73-5.25-12.32-5.25-1.84,0-1.88-.69-.12-1.83s1.69-2-.27-3.72c-4-3.4-9-5.85-12.21-6H233l.88-.42c.46-.23.85-.61.85-.8,0-.62-3.37-3.64-5.75-5.17-1.14-.77-3.56-2.11-5.28-3-2.76-1.41-3.52-1.64-5.59-1.64a23.85,23.85,0,0,0-5.17.76c-4.9,1.38-10.1,1.34-11.94,0-.92-.72-.92-.76-.8-6.2.15-7,.65-10.91,1.87-14.39a7.83,7.83,0,0,0,.69-3.06,18,18,0,0,0-4.4-.39c-4.44-.15-9.27.62-15.7,2.45a65.33,65.33,0,0,1-17.61,2l-5.51,0-.65,1.46c-1.15,2.75-3.48,4-7.46,4-2.3,0-2.84.15-5.82,1.8s-3.6,1.84-5.63,1.84c-5.93,0-10.95-2.95-11.52-6.78l-.27-1.57-.73,1.38a4.57,4.57,0,0,1-1.49,1.8.89.89,0,0,0-.5,1.26c.88,2.83,3.52,4.48,7.81,4.86,3.1.31,7.27,1.38,7.27,1.92,0,.76-1.41.69-3.06-.16s-1.87-.91-3.94-.38a7.6,7.6,0,0,1-4.71-.08c-4.56-1-6.24-2.41-6.58-5.39a4.12,4.12,0,0,0-.81-2.3c-.53-.38-.46-.5.46-.92.57-.27,1-.61,1-.76a5.28,5.28,0,0,1,1.11-1.57,19.38,19.38,0,0,0,1.92-2.87c1-2.07,2.26-2.8,3-1.84.46.65.54.57,1.08-.69a9.58,9.58,0,0,0,.57-2.91,3.36,3.36,0,0,1,1-2.6c.76-.81.91-.88.72-.31a45.86,45.86,0,0,0-.8,10.22A8.79,8.79,0,0,0,136,327a8.09,8.09,0,0,0,4.94,1.11,12.51,12.51,0,0,0,4.93-.85,33.45,33.45,0,0,1,4.22-1.26c2.79-.57,4.74-1.57,5.74-2.95l.76-1.11-1.95-.23c-1.64-.23-2.33-.07-4.29.84-2.79,1.34-7.5,1.92-10.1,1.23a10.48,10.48,0,0,1-5.55-4.79c-.62-1.18-.81-2.41-.92-5.05-.08-3.52-.5-4.82-2.11-6.74a2.8,2.8,0,0,1-.69-1.26,3.84,3.84,0,0,0-1.15-1.53c-1.07-1-1.14-1.26-1.14-4.06a8.31,8.31,0,0,1,.3-3.1,39.59,39.59,0,0,0,4.41-5.47c1.18-1.73,1.37-2.72.3-1.46a3.09,3.09,0,0,1-1,.88c-.53,0,1-2.33,1.92-2.91.65-.42.84-.76.57-1s-.69-.15-1.34.27c-1,.61-1,.61-1-.12a1.53,1.53,0,0,1,1.91-1.45c.92.23,1.46-.42.61-.73-.34-.11-.61-.38-.61-.57s.23-.23.54-.12c1.15.46,1-3.41-.27-6.93a13.21,13.21,0,0,0-7.77-8.19c-6.82-2.56-14.32,1.65-15.2,8.5-.31,2.33-.65,2.14-.65-.35,0-4.28,2.64-8.07,7.08-10.26,2-1,2.8-1.14,6-1.26a15.41,15.41,0,0,1,7.54,1.23,38.58,38.58,0,0,0,4.41,1.34c.34,0,1.22-1.15,2-2.61s2.23-3.63,3.18-5c2.15-3,9.42-11.45,10.26-11.91a16.9,16.9,0,0,0,2.76-3.25c1.95-2.72,4.17-4.44,5.66-4.44,1,0,.35.72-3.33,4.13-5.89,5.44-7.12,7.89-5.39,10.68,1.18,2,2.67,2.49,7.65,2.68a21.12,21.12,0,0,0,8.19-.8c4.1-1.07,6-2.18,7-4.1.88-1.72.58-2.72-1-3.14a14.81,14.81,0,0,1-3.59-1.87c-2.26-1.53-6.4-5.44-6.4-6,0-.2.27-.54.58-.81.49-.42.72-.34,1.22.42a14.67,14.67,0,0,0,9.69,6c2.14.19,2.41.15,2.94-.66s.81-.8,2-.57c4.09.73,6-.46,6.69-4.33.2-1.11.08-1.3-.84-1.68-.57-.23-3-1.34-5.32-2.49-4.4-2.14-5.86-3.37-5.86-4.94,0-.49-.11-.92-.3-.92a30.85,30.85,0,0,0-3.33,1.77c-5.52,3.21-5.9,3.4-6.13,3.13-.42-.42,1.3-3.33,2.84-4.82a53.13,53.13,0,0,1,5.81-4.09c5.71-3.53,7.81-5.29,10.38-8.69,3.52-4.6,6-10.46,8-18.65a20.68,20.68,0,0,1,1.76-4.9,49.05,49.05,0,0,0,3.83-7.58,16.51,16.51,0,0,0,.5-7.27c-1.34-7.31-6.63-12.06-13.33-12.06-7.27,0-12.74,6.93-10.6,13.36s10.41,8.27,14.16,3.33c1.23-1.61,1.65-1.57.81.08-3,5.78-12.06,4.86-15.47-1.61a12.63,12.63,0,0,1-.19-9.8c1.15-2.3,3.33-4.67,4.4-4.82a12.85,12.85,0,0,0,2.57-.69,16.17,16.17,0,0,1,5-.61c3.07,0,3.56.11,6,1.33,4.52,2.26,7.66,6.36,9.8,12.83l.58,1.72,2.33.12,2.38.11.57-1.41a2.59,2.59,0,0,0,.19-2.34c-.34-.77-.69-.88-2.33-.88-2.57,0-3.14-.35-4.56-2.87a7.68,7.68,0,0,0-1.49-2.11c-.16,0-.61-.53-1-1.18-.95-1.65-5-4.48-7.5-5.21s-3.45-1.45-1.34-1.07c3.1.53,8.46,3.86,10.64,6.58a2.31,2.31,0,0,0,1.07.88c.19,0,.35-2,.35-4.4v-4.4h1.11c1,0,1.11.15,1.3,1.41a13.42,13.42,0,0,0,2.72,6.74,3.6,3.6,0,0,0,5.2.61,2.44,2.44,0,0,1,2-.61,33.74,33.74,0,0,0,9.54,1.42c4.25,0,3.79-.38,5.43,5a16.31,16.31,0,0,0,5.36,8.53c3,2.53,4.79,3.14,9,3.14,2.87,0,3.67-.11,4.21-.69s.61-.65-.19-.65c-.46,0-.84.12-.84.27,0,.38-2.38.34-4.44,0-3.45-.65-7.16-4-8.54-7.66a13.48,13.48,0,0,1-.08-8.76c2.45-7.12,8.69-10.84,19-11.33,1,0,3.29-2.11,12.36-11.14,5.36-5.36,7.85-7.58,10.11-8.92a22.67,22.67,0,0,1,3.33-1.8.35.35,0,0,0,.38-.35c0-.19.92-.61,2-1,2.91-1,7.54-4.63,7.54-6C287.52,134.32,282.09,134.67,279.87,135.4Z" transform="translate(-48.43 -56.19)" style="fill: #3f51b5"/>
    <path d="M412,153.73c-1.49.92-3.9,4.6-4.86,7.43-1.26,3.75-.11,5.89,4.6,8.38l2.29,1.23.23,5.17c.16,4.13.39,5.58,1.08,7.27.76,1.87,2.25,4,2.56,3.71a12,12,0,0,0-.88-2.56,12.16,12.16,0,0,1-1-5.94c0-4,.49-5.59,3-10.06a18,18,0,0,0,1.72-3.6,5.56,5.56,0,0,0-1.57-2c-2.45-2.34-4.51-5.74-4.78-7.89S413.85,152.62,412,153.73Z" transform="translate(-48.43 -56.19)" style="fill: #3f51b5"/>
    <path d="M401.41,155.42c-1,1-2.87,4.74-2.87,5.66a1.53,1.53,0,0,1-.38.92,8.21,8.21,0,0,0-.42,3.22,8.46,8.46,0,0,0,1.07,4.9c1.53,3.06,2.91,3.79,6.2,3.21s3.44-.84,2.22-2.45c-1.46-1.95-2-4-2-8.15,0-3,.11-4.1.65-5.09.84-1.53.46-2.18-1.61-2.76C402.44,154.38,402.48,154.38,401.41,155.42Z" transform="translate(-48.43 -56.19)" style="fill: #3f51b5"/>
    <path d="M391.65,159.17a6.78,6.78,0,0,0-.77,1.53c0,.19-.26.31-.57.31s-.58.15-.58.34-.76.54-1.68.77a4.93,4.93,0,0,0-2.72,1.64c-.92,1.11-1,1.46-.88,3.6a7.79,7.79,0,0,0,1.38,4.33c1.11,1.8,1.15,1.95.42,1.95a5.17,5.17,0,0,1-2.26-1.46l-1.49-1.41-.12-4.4-.11-4.41-2.22-.11c-2.07-.12-2.18-.08-2.18.8,0,1.8-.65,2.07-5.17,2.3a22,22,0,0,0-6.32,1c-2.29.88-2.83,1-2.52.5a14.2,14.2,0,0,1,3-1.41c3.33-1.31,2.84-1.73-.76-.62-4.75,1.42-9.23,5.36-10.84,9.54a19.83,19.83,0,0,0-.61,9.45c.27,1.07.23,1.07-.27.42-1.3-1.64-1.22-7.16.19-11.21a6.75,6.75,0,0,0,.54-2.34c-.5-.5-1.8,1.42-2.45,3.52a16.66,16.66,0,0,0,2.14,14.32,10.21,10.21,0,0,1,1.5,2.64c-.19.23-3.64-3.71-4.25-4.86-1-1.88-1.42-5.78-1.19-10.07.31-4.67.23-4.75-2.64-3.33s-3.29,2-4,5.36c-.77,3.67-1.23,5-1.57,4.78s-.46-.91-1-4.21a16.64,16.64,0,0,1-.11-2l-.08-1.65-1.11.57a10.68,10.68,0,0,0-4.1,3.75,33.2,33.2,0,0,0-1.3,3.87c-.53,2.18-.84,2.76-1.38,2.76-1,0-1.14-1.69-.34-4.1a4.9,4.9,0,0,0,.38-2.14c-.34-.35-3.75.65-4.48,1.34-1.11,1-1.57,3.06-1.37,6.47.15,2.91.11,3.14-.5,2.79a2.49,2.49,0,0,1-.92-1.57c-.31-1.45-3.1-7.42-3.64-7.77-.19-.11-.27,1.07-.15,2.95a26.42,26.42,0,0,1-.31,5.86c-.57,3.13-.49,4.4.35,4.4a21.59,21.59,0,0,0,3.18-.77c1.41-.42,4.21-1.18,6.16-1.72s3.86-1,4.17-1.15c11.45-4,12.79-4.36,13.78-3.83s2.3,2.11,2.3,2.68c0,.16-.54-.15-1.19-.61-1.07-.77-1.34-.8-2.75-.34a33.7,33.7,0,0,0-4.41,1.76c-3,1.34-3,1.37-1.49,3.29.73.92,3.75.92,7.43,0l2.75-.62,3,1.38c4.25,2,6,2.3,10.3,2.11a14.27,14.27,0,0,0,5.47-1,17.1,17.1,0,0,0,6.81-6.39c.88-1.69,1-2.41,1-5.4s-.16-3.71-1-5.4a9.63,9.63,0,0,0-9.49-5.43,7.36,7.36,0,0,0-4.17,1.18c-5.52,3.64-4.83,11.56,1.11,13.33a4.94,4.94,0,0,0,5.74-2,5.77,5.77,0,0,0,1.15-2.68c0-.58.19-1.07.42-1.07s.38.65.27,1.91c-.23,2.3-1.53,3.9-4.06,5-2.14,1-4.48.61-6.89-1-5.28-3.56-4.67-11.83,1.19-15.89a13.34,13.34,0,0,1,12.21-1c4.28,1.91,7,4.71,9.76,10.18l1.45,2.87,9.92.12c9.53.07,10,.07,10.64-.69a2.92,2.92,0,0,1,2-.77c1.34,0,2.37,1,3.68,3.6.88,1.76,5.39,6.05,7.58,7.23,3.48,1.92,9.38,2,12.59.23a11.76,11.76,0,0,0,6.24-8.72c1.11-8.12-8.12-14-13.7-8.73-2.72,2.52-2.61,7.42.23,9.3a5.35,5.35,0,0,0,4.59.19c1.38-.73,1-1.19-.84-1-2.07.31-3.18-.26-3.91-2a4.11,4.11,0,0,1,1.42-4.87,5.23,5.23,0,0,1,7.54.73c2.95,3.33,2.37,8-1.3,10.8-2.22,1.64-8.19,1.8-9.8.19a1.69,1.69,0,0,0-.84-.46c-.69,0-2.72-2.76-3.45-4.6a12.72,12.72,0,0,1,.15-8.49,9.68,9.68,0,0,1,3.11-4.29,13.29,13.29,0,0,1,10.6-3.56c4.36.27,7.88,2.07,13.44,6.85a3.42,3.42,0,0,0,1.72.42A73.25,73.25,0,0,0,459,173.26a5.64,5.64,0,0,1,2-.39,4.93,4.93,0,0,0,1.8-.34,16.21,16.21,0,0,1,2.37-.81c2.45-.65,6.47-2.29,7.08-2.9a1.56,1.56,0,0,1,.92-.54.42.42,0,0,0,.42-.42c0-.77-17-.15-22,.8-7.24,1.38-7,1.38-9.69,0-9.11-4.59-18.95-2.14-22.89,5.63a13.53,13.53,0,0,0-.73,9.61,12,12,0,0,0,8.92,7.88c.88.16,1.54.42,1.38.61-.46.77-3.94.27-7-1.07a2.7,2.7,0,0,0-1-.15c-.26,0-.49-.19-.49-.54a.55.55,0,0,0-.5-.57c-.69,0-3.6-3.9-4.63-6.2a32.58,32.58,0,0,1-1.57-5.28,14.18,14.18,0,0,0-1.19-3.79c-.46-.5-1.91-.39-6.09.61-.42.07-2.56.5-4.78.88s-4.86.92-5.93,1.15c-3.79.84-7.93,1.49-8.46,1.26a8.44,8.44,0,0,1-1.92-2.07,37.39,37.39,0,0,0-3.86-4.17c-1.38-1.26-2.34-2.3-2.15-2.3.5,0,2.07,1.23,4.82,3.72,2.38,2.14,2.65,2.22,6,1.64,6.67-1.11,9.38-1.64,9.54-1.76a11.88,11.88,0,0,0-1.92-3.21,19.31,19.31,0,0,1-1.41-2.49,10.52,10.52,0,0,1-1.23-7.08c.27-1.42.19-1.61-.76-2.3C392.57,157.71,392.53,157.71,391.65,159.17Z" transform="translate(-48.43 -56.19)" style="fill: #3f51b5"/>
    <path d="M57.8,167.48a13.33,13.33,0,0,0-8.5,7.61,13,13,0,0,0,.19,9.84c1.91,3.56,4.48,5.67,7.58,6.17,1.3.22,1.61.15,1.46-.27s-.81-.65-1.61-.81c-7.24-1.53-10.11-9.49-5.82-16.3A12.47,12.47,0,0,1,61.05,168c6.36-.38,10.22,1.57,16.39,8.43l1.26,1.41,5.93.38c7.93.54,15.58,2.11,17.5,3.56a21.4,21.4,0,0,1,2.06,3.11c1.77,3,5.29,6.92,7,7.77s1.19.11-1-1.65c-2.38-1.88-4.29-4.59-6.2-8.88-1.23-2.72-1.57-3.1-2.91-3.64-.81-.34-5.82-1.49-11.14-2.56-12.52-2.49-12.29-2.41-15.24-4.56a35.48,35.48,0,0,0-4.09-2.64A17.88,17.88,0,0,0,57.8,167.48Z" transform="translate(-48.43 -56.19)" style="fill: #3f51b5"/>
    <path d="M120,170.23c-3.48.84-6.81,4.56-7.54,8.31a8.86,8.86,0,0,0,4.83,9.22c1.72.85,4.24,1.08,4.63.43a1.08,1.08,0,0,1,.92-.39c1.53,0,3.86-3.14,3.86-5.2a4.89,4.89,0,0,0-1.87-3.6c-1.23-.65-1.38-.42-.42.57a3.12,3.12,0,0,1,.8,2.76c-.08,2-.61,2.83-2.6,3.75-3.72,1.76-7.7-1.57-7.32-6.12.31-3.72,3.45-6.4,7.58-6.47a8.18,8.18,0,0,1,6.78,3.52,9.94,9.94,0,0,1,1.95,7.23,7,7,0,0,1-1.68,4.6c-2.34,3.4-6.2,5.62-9.65,5.55-.76,0-1.15.11-1,.34.38.61,3.94,0,6.08-1.07A11.91,11.91,0,0,0,132,180.22c-.16-.69-.12-1.22.07-1.22.5,0,.88,3.21.65,5.74a11.64,11.64,0,0,1-3.83,7.77,17.83,17.83,0,0,1-8.23,4.52c-4.17,1-1,1.26,3.56.34,3.79-.8,6.78-3.37,8.85-7.58.92-1.91,1.07-2.64,1.07-5.82s-.12-3.86-.88-5.35c-1.34-2.53-2.3-3.72-3.94-4.79s-1.92-1.19-1.57-.31c.19.5.11.58-.5.35a10.55,10.55,0,0,0-8.81,0,8.14,8.14,0,0,0-3.48,9.8c.84,2,0,1.8-.88-.23-2.83-6.24,2.11-13,9.53-13A13.38,13.38,0,0,1,135.13,178a20.26,20.26,0,0,1,1.57,10c-.66,5-.58,5.52,1,6.17,1.73.69,4.79,1.15,4.79.65,0-.19-.69-.77-1.57-1.26-3.14-1.92-3-1.65-3.22-6.59-.19-5.32-1.3-9-3.48-11.68s-2.8-3.13-5.13-4.24A15.21,15.21,0,0,0,120,170.23Z" transform="translate(-48.43 -56.19)" style="fill: #3f51b5"/>
    <path d="M373.66,172c2.18,1,5.55,4.87,6.43,7.35a18,18,0,0,1,.34,4.41,10.63,10.63,0,0,1-1.34,5.7,16.59,16.59,0,0,1-6.73,6.93c-2.19,1.11-9.69,1.19-14.32.11-3.14-.72-3.26-.72-4.52,0-3,1.6-5.51,6-5.82,10.22-.23,3.44-.92,3.37-1.53-.08-.65-3.79-.57-5.36.31-7l.76-1.42H345.6a11.77,11.77,0,0,0-7.05,2.45c-1.95,1.68-3.1,4.67-3.52,9.07-.27,3-.31,3.14-.73,2.15a21.56,21.56,0,0,1-.46-5.29v-4.17h-1a6.23,6.23,0,0,0-4.4,2.33,24,24,0,0,0-1.69,3.3c-1.22,3.06-1.72,3-1.72,0,0-2.49,0-2.53-1-2.53a48.89,48.89,0,0,0-11.22,2.38c-1.84.8-3.83,3.1-3.83,4.51,0,1.57-.38,2.3-1.19,2.3a.67.67,0,0,1-.72-.73,2.52,2.52,0,0,0-1.57-2.56,2.12,2.12,0,0,0-2.41,0c-1.19.5-1.42.84-2.15,3.25s-1.53,3.87-1.53,2.57a5.21,5.21,0,0,0-1.34-2c-1.53-1.64-2-1.6-6.51.23-4.82,2-13.66,8.43-18.14,13.17-1.92,2-2,2.22-1.34,2.61,1.11.65,6.81.42,10.68-.43a79.92,79.92,0,0,0,10.14-3.52c3.68-1.49,6.89-2.75,7.09-2.79a2.75,2.75,0,0,0,.76-.35c.69-.42,5.67-1.76,10.91-2.94,2.83-.65,6.43-1.57,8-2s3-.85,3.26-.89,2.1-.45,4.09-.91c4.14-.92,9.38-2,10.53-2.15,2.72-.34,7.7-1.15,9.95-1.61,1.5-.3,8.12-.88,14.74-1.26,14.51-.92,16.58-1.07,18.57-1.64,3-.89,3.1-1.27.92-5.63-1.46-2.84-1.57-3.33-1.42-5.4.23-3,2.07-5.86,4.4-6.74a3.92,3.92,0,0,1,2-.38c.2.15-.72,1.3-2.06,2.64a12,12,0,0,0-2.72,3.48,18.2,18.2,0,0,0,1.07,6.86,19.23,19.23,0,0,0,2.53,3.29l.92,1h6.54c5.13,0,7.24-.15,9.61-.72,3-.73,3.06-.73,2.22-1.42a9.24,9.24,0,0,1-1.84-2.91c-1-2.14-1-2.41-.8-8.08l.19-5.89-1.22-.73a5.22,5.22,0,0,0-1.88-.73c-.84,0-3.64,2.53-5.05,4.6-1,1.53-1.07,1.61-.81,5.47.19,3.52.35,4.06,1.38,5.55,1.3,1.84,1.34,2,.65,2-.88,0-2.87-2.41-3.33-4-.65-2.25-.38-9.22.46-10.83l.61-1.22h-4.36c-4.21,0-4.36,0-4.52-.89s-1-6.16-1-6.66c0-.84-.77,1-.77,1.88,0,1.19-1.64,5.93-2.26,6.55-.84.84-.76-.08.16-2.11a14.44,14.44,0,0,0-.65-12.9c-1.08-2-3.87-4.48-5.48-4.79C373.62,171.8,373.35,171.84,373.66,172Z" transform="translate(-48.43 -56.19)" style="fill: #3f51b5"/>
    <path d="M316,174a12.49,12.49,0,0,1,3.6,8.42c.19,3.1-.54,6.89-1.61,8a2.28,2.28,0,0,0-.58,1.07,2,2,0,0,1-.69,1.11c-2.37,2.3-4.28,4-4.28,3.76s-.5.11-1.08.53a29.57,29.57,0,0,1-6.77,2.57c-2.34.46-2.87.69-3.83,1.68l-1,1.11,1.34.23a9,9,0,0,0,5.24-.84,87.91,87.91,0,0,0,9-4.48,18.3,18.3,0,0,1,4-2.53c1.15,0,2.87-8,2.49-11.67a16.91,16.91,0,0,0-2.84-7.31c-.88-1.11-3.9-3.6-4.36-3.6C314.4,172.11,315,173,316,174Z" transform="translate(-48.43 -56.19)" style="fill: #3f51b5"/>
    <path d="M197.87,178.42a27.09,27.09,0,0,1,1.07,7.85c-.84,8.12-1,7.5,2.34,8.54,2.79.92,5.51.84,6.77-.15s1.42-4,.12-5.56c-.81-.91-1.23-1-3.79-1.22s-2.91-.27-3.49-1.23c-.34-.57-.53-1.11-.42-1.22.27-.31-1.64-6.16-2.33-7S197.52,177.66,197.87,178.42Z" transform="translate(-48.43 -56.19)" style="fill: #3f51b5"/>
    <path d="M67.29,182.37c-.46,3.14-1.26,4.74-3,5.93-1.53,1.07-2,1.8-1,1.8.61,0,2.18-1.34,2.18-1.88a.84.84,0,0,1,.58-.65c.88-.34,1.8-3.25,1.64-5.36l-.11-1.87Z" transform="translate(-48.43 -56.19)" style="fill: #3f51b5"/>
    <path d="M409.45,189c-3.83,2-5.24,4.56-5.32,9.57,0,3,0,3.41,1.11,5.13,2,3.25,5.09,4.78,9.61,4.78h2.22l-1.27-1.3c-1.45-1.49-2.71-5.16-2.71-7.81,0-2,1.18-4.93,2-5.28a11.6,11.6,0,0,1,3.56.84,19.49,19.49,0,0,0,6.47,1.15l3.44.12-3.22-.58a24.29,24.29,0,0,1-5.2-1.53c-2-.92-7.93-5-8.16-5.59S411.06,188.15,409.45,189Z" transform="translate(-48.43 -56.19)" style="fill: #3f51b5"/>
    <path d="M331.36,193.74a111.27,111.27,0,0,0-14.21,5.43c-1.68.81-3.75,1.73-4.63,2s-1.64.65-1.64.81c0,1.07,7.12.65,11.1-.69,2.45-.81,9.18-3.76,13.17-5.75,3.29-1.64,3.36-1.72,2.68-2.45C336.94,192.13,335.87,192.24,331.36,193.74Z" transform="translate(-48.43 -56.19)" style="fill: #3f51b5"/>
    <path d="M112.58,193.16a.42.42,0,0,0,.38.39.39.39,0,0,0,.38-.39.36.36,0,0,0-.38-.38A.38.38,0,0,0,112.58,193.16Z" transform="translate(-48.43 -56.19)" style="fill: #3f51b5"/>
    <path d="M114.11,193.93c0,.19.27.38.61.38s.46-.19.35-.38a.74.74,0,0,0-.62-.38A.35.35,0,0,0,114.11,193.93Z" transform="translate(-48.43 -56.19)" style="fill: #3f51b5"/>
    <path d="M429.28,195.73a3.17,3.17,0,0,0,1.15,0c.23-.12,0-.19-.69-.19S428.9,195.61,429.28,195.73Z" transform="translate(-48.43 -56.19)" style="fill: #3f51b5"/>
    <path d="M195,197.07c-.84,1-1,4.94-.27,6.5.8,1.8,1.38,1.92,8,1.77l4.94-.12.61-1.76a14.89,14.89,0,0,1,1.46-2.91l.88-1.19-1.65-.76c-2.52-1.19-4.32-1.57-9.07-1.84C196.26,196.57,195.34,196.61,195,197.07Z" transform="translate(-48.43 -56.19)" style="fill: #3f51b5"/>
    <path d="M100,198.87c-.53.95-.11,1.26.88.61a4.07,4.07,0,0,1,5.67,1.76c.27.73.61,1.11,1,1,1.11-.23.92-1.41-.46-2.79s-1.45-1.34-4-1.34C100.83,198.14,100.29,198.25,100,198.87Z" transform="translate(-48.43 -56.19)" style="fill: #3f51b5"/>
    <path d="M101.71,200.4c-.12.19.19.46.69.57s1.22.35,1.64.46c.61.23.61.19.12-.34C103.43,200.36,102,199.94,101.71,200.4Z" transform="translate(-48.43 -56.19)" style="fill: #3f51b5"/>
    <path d="M192.43,208.44,190.94,210l.69,1a13.31,13.31,0,0,0,9.15,5.55l2.33.38,1.08-1.26c1.64-1.91,2.22-3.25,2.1-4.82l-.11-1.38L203,209a41.08,41.08,0,0,1-5.48-1.26C194.46,206.68,194.12,206.71,192.43,208.44Z" transform="translate(-48.43 -56.19)" style="fill: #3f51b5"/>
    <path d="M404.28,211.15c-1.15.2-4.44.5-7.27.77s-7.66.69-10.72,1c-8.65.88-8.92.88-17.42,1.49-10.49.76-12.75.88-18.95,1.15a84.21,84.21,0,0,0-16.27,2.18c-4.06,1.07-9,2.95-9,3.44s8.38.12,14.2-.65c2.37-.3,6.7-1.07,9.53-1.68,10.38-2.3,15.08-2.49,37.71-1.76,4,.11,8.57.3,10.14.38,4.25.27,21.33,1.26,29.67,1.72A130.81,130.81,0,0,1,443.14,221c11.63,2.15,13.89,2.34,16.53,1.27,1.11-.46,2-1,1.84-1.11-.38-.61-7.46-3.79-11.41-5.13-7.54-2.53-17.22-4-31-4.83C411.36,210.73,407.34,210.73,404.28,211.15Z" transform="translate(-48.43 -56.19)" style="fill: #3f51b5"/>
    <path d="M190.1,216.86a1.67,1.67,0,0,1-1,.19c-.15-.12-.34,0-.49.23a1.24,1.24,0,0,1-.92.38c-1.53,0-2.53,2-2.38,4.86.12,2.42,3.95,4.37,8.58,4.37s6.55-1.49,6.58-4.9v-2.15l-4.17-1.64C192,216.48,191.44,216.36,190.1,216.86Z" transform="translate(-48.43 -56.19)" style="fill: #3f51b5"/>
    <path d="M360.26,225.47a41.3,41.3,0,0,1-2.15,3.68,11.63,11.63,0,0,0-2,8c.16,2.79,1.42,6.47,2.76,8a5,5,0,0,1,.77,1.61,1.73,1.73,0,0,0,1,1.27,8.54,8.54,0,0,1,2,1.37,29.21,29.21,0,0,0,4.67,2.91,55,55,0,0,1,5.82,3.45c5,3.52,8.73,4.36,13.21,3a4.3,4.3,0,0,1,2-.3c.15.15.19.07.11-.12s.61-1.11,1.49-2c2.3-2.3,2.41-3.18.85-5.4-1.27-1.72-1.31-2-1.42-5.7-.19-4.86.42-6.93,2.72-9.38s10.75-7.92,12.28-8a3.6,3.6,0,0,0,1.34-.73l.89-.69-1.27-.57c-1.45-.69-5.36-1.3-10.56-1.69l-3.49-.23-.72,2a3.63,3.63,0,0,1-2.42,2.79,19.83,19.83,0,0,0-4.09,3.22c-2.53,2.56-2.49,2.56-2.95-.23a23,23,0,0,1,1.11-7.12c.27-.81.23-.81-10.49-.81l-10.76,0Z" transform="translate(-48.43 -56.19)" style="fill: #3f51b5"/>
    <path d="M179.26,227c-2.06,2.11-2.75,3-2.75,3.83a6.7,6.7,0,0,0,2,4.41c1.26,1.14,5.4,2.75,7.88,3,1.88.19,2.11.15,3.18-.88a35,35,0,0,0,4.29-5.78c.19-.27-.61-.69-2.37-1.23a19.73,19.73,0,0,1-8-5.16c-.49-.54-1-1-1.18-1A24.29,24.29,0,0,0,179.26,227Z" transform="translate(-48.43 -56.19)" style="fill: #3f51b5"/>
    <path d="M346.86,225.59c-4.33.38-11.25,2.45-13.28,3.9a9.56,9.56,0,0,0-2.8,3.6,10,10,0,0,0-1.26,5.47c0,2.72.07,3.26,1.19,5.29a9.65,9.65,0,0,1,1.22,3.37c0,1-.11,1.11-.84.88-2.64-.81-4.6-4.33-4.75-8.54a8.24,8.24,0,0,1,1-5,13.59,13.59,0,0,1,3-4,14.11,14.11,0,0,0,1.95-1.95c0-.54-3-.61-6.16-.08-4.4.69-5.24,1-8.38,2.45-5,2.38-6.82,3.75-8.08,6.24a10.84,10.84,0,0,0-.15,7.31,8.92,8.92,0,0,1,.57,2.61v1.22l-.88-.8a3.16,3.16,0,0,0-1.69-.84c-2.18,0-7.61-3-7.23-4a19.07,19.07,0,0,0,.42-3l.23-2.41-1.38,1.53c-1.34,1.49-1.41,1.49-1.95.76a8.17,8.17,0,0,1-1-2.18c-.3-1.22-.49-1.41-1.22-1.26l-3.52.88-2.68.65.11,1.34a3,3,0,0,0,.88,1.91,1.55,1.55,0,0,1,.54,1.73c-.46,2.37,4.17,6.73,9.19,8.72l2.29.92,6.51-.69c3.6-.42,8.5-.8,10.91-.95s5.44-.35,6.7-.46c3.75-.46,27-.27,28.63.19a3.84,3.84,0,0,0,1.42.27,16.51,16.51,0,0,0-1.38-2,41.86,41.86,0,0,1-2.52-3.86,11.71,11.71,0,0,0-1.34-2,7.45,7.45,0,0,0,.07,2.49c.23,2.14.16,2.48-.34,2.48-1.34,0-2.15-2.25-2.15-6,0-6.58.73-8.34,5.63-13.47l2.6-2.68-2.25-.23A41.68,41.68,0,0,0,346.86,225.59Z" transform="translate(-48.43 -56.19)" style="fill: #3f51b5"/>
    <path d="M304.37,234.31a8.07,8.07,0,0,0,2.06,3.22l1,.92v-.92a5.74,5.74,0,0,1,.57-2,8.35,8.35,0,0,0,.58-1.22,7.53,7.53,0,0,0-2.11-.16A5.87,5.87,0,0,0,304.37,234.31Z" transform="translate(-48.43 -56.19)" style="fill: #3f51b5"/>
    <path d="M277.57,241.09c-5.86,1.88-6.16,2.07-6.93,4.63s-1.3,3.33-2.26,3.33c-1.15,0-1.64-2.41-.57-2.83.8-.31.73-1.22-.23-1.91-.73-.5-1-.46-2.76.26a11.53,11.53,0,0,0-2.33,1.11,2.12,2.12,0,0,1-1,.31c-1.11,0-5.85,3.75-7.31,5.82-3,4.25-5.7,8.42-5.55,8.61s1-.84,1.92-2.06c1.83-2.42,2.87-3.41,3.13-3.11.12.12-.11.62-.53,1.11-.88,1.11-1.49,4.56-.84,4.56.23,0,3.06-.77,6.27-1.68a106.59,106.59,0,0,1,10.8-2.49c2.76-.46,5.4-.88,5.93-1,1.27-.23,6.63-.92,8.81-1.15,2.75-.26,5.09-.57,6.24-.8l1.07-.23-1.65-1c-3.71-2.38-6.73-7-7.12-10.84C282.43,239.48,282.47,239.52,277.57,241.09Z" transform="translate(-48.43 -56.19)" style="fill: #3f51b5"/>
    <path d="M329.21,253c-.07.08-2.6.27-5.63.43l-5.43.22-1.88,1.84c-1.45,1.42-1.8,2-1.49,2.45.46.88,1.72.81,3.56-.11s3.1-1,3.37,0c.15.65.42.76,1.11.61.5-.12,3.9-.42,7.62-.69a95.76,95.76,0,0,1,29.82,2.53,47.23,47.23,0,0,1,5,1.45,8.83,8.83,0,0,0,3.07.61c2.6,0,5.36.58,12,2.3a68.45,68.45,0,0,0,7.35,1.57c.69,0,1.38.19,1.49.42a1.43,1.43,0,0,0,1.07.31,4.13,4.13,0,0,1,1.42.15c.84.34,5.66,1.76,6.66,2,4.17.88,12.52,3.83,13.13,4.63a9.56,9.56,0,0,1,.88,2.8c1.49,7.62,4.25,11.86,9.38,14.51a11.22,11.22,0,0,0,5.05,1.14c4.29.23,6.51-.57,9.34-3.36a9.78,9.78,0,0,0,2.26-11.68c-1.11-2.57-4.44-4.94-6.05-4.36-.46.19-.84.42-.84.53s.15.15.31,0c.61-.38,3.44,1.26,4.74,2.79,3.14,3.68,2.22,9.8-1.95,12.94-5.66,4.33-14,2.38-18-4.25-1.45-2.41-2.83-7.12-2.56-8.84.11-.65.3-2.64.45-4.48l.27-3.29-1.87-1c-1.69-.8-6-2.52-11.45-4.51-1-.39-3.6-1.23-5.66-1.84L392,259.81l-2.22,1.49c-3.14,2.15-4.86,2.8-7.5,2.84-3.37,0-5.9-1.31-9.46-5.1-2.22-2.37-3.21-3.13-4.51-3.52a8.77,8.77,0,0,1-1.92-.72,24.08,24.08,0,0,0-4.4-.69l-5.74-.69-1.53-.19,1.15,1c1.49,1.26,2.94,1.61,8.23,1.91,5.85.39,7.12,1,1.91.89a15.74,15.74,0,0,0-4.86.38,4.38,4.38,0,0,1-1.92.46c-1.41,0-4.78-1.73-6.81-3.52l-1.65-1.46H340.08C334.19,252.88,329.29,253,329.21,253Z" transform="translate(-48.43 -56.19)" style="fill: #3f51b5"/>
    <path d="M293.27,256.29c-3.79.57-4.25.73-3.26,1,1.46.42,7.7.46,10.72,0L303,257l-1.92-.69C298.82,255.48,298.78,255.48,293.27,256.29Z" transform="translate(-48.43 -56.19)" style="fill: #3f51b5"/>
    <path d="M146.69,257.28a21.52,21.52,0,0,0-3.68,5.59c-2,3.91-2.14,4.29-1.72,5.51a8.69,8.69,0,0,0,1.19,2.26c.76,1,.84,1,6.2,1h5.43l1.15-1.84a27.88,27.88,0,0,1,3.52-4.13,21.41,21.41,0,0,0,2.42-2.57,6,6,0,0,0-1.8-.88c-5.75-2.14-7.35-2.91-9.19-4.55l-2-1.76Z" transform="translate(-48.43 -56.19)" style="fill: #3f51b5"/>
    <path d="M281.59,258.05l-1.91.5,2.45,0c2.1,0,2.37,0,1.95-.53a3,3,0,0,0-.54-.54A17.87,17.87,0,0,1,281.59,258.05Z" transform="translate(-48.43 -56.19)" style="fill: #3f51b5"/>
    <path d="M393.18,258.24c-.34.61-.31.77.19.77.31,0,.58-.35.58-.77s-.08-.77-.2-.77A2.26,2.26,0,0,0,393.18,258.24Z" transform="translate(-48.43 -56.19)" style="fill: #3f51b5"/>
    <path d="M304,264a16.41,16.41,0,0,1-2.22.81c-4.9,1.45-8.88,8.23-8.38,14.2a12.08,12.08,0,0,0,3.33,7.73c5.25,5.71,13.67,4.75,17.53-2,.62-1.11.58-1.61-.15-1.61-.42,0-.53-.19-.38-.61a4.32,4.32,0,0,0,.23-1c0-.19.27-.34.57-.34s.58-.19.58-.42.38-.35,1-.19c1.34.34,1.92-.88,1.34-2.68l-.46-1.34-.61,1.22c-.61,1.19-2.37,2.15-2.91,1.57s-.19-2,.35-2a3.1,3.1,0,0,0,2.1-2c0-1-3-3.63-4.9-4.25a9.33,9.33,0,0,1-5-4.55c-.23-.58-.31-1-.19-1a12.64,12.64,0,0,1,1.91,1.5,6.21,6.21,0,0,0,5.47,1.76,2.3,2.3,0,0,1,1.76.34c.73.54.73.54-.19,1.3s-.88.81-.26,1a1.29,1.29,0,0,0,1.37-.35c1-.88,1.23-.76.73.39-.31.61-.31,1.07-.08,1.22,1.11.77,3.18,4.4,3.79,6.7a22.39,22.39,0,0,1-.38,10.95,7.92,7.92,0,0,0-.5,2.87c.12,1.11.31,1.26,2.61,2a45.42,45.42,0,0,1,5.7,2.37,13,13,0,0,0,4.71,1.61h1.45v-2.79c0-5.86,1.46-13.06,1.61-7.93a22.74,22.74,0,0,0,.12,2.49c.49,3,.8,4.1,1.57,5.55a14.27,14.27,0,0,0,4.86,5.25,68.86,68.86,0,0,0,9.45,4.63c1.15.42,2.42.88,2.76,1,1.26.5,1.19-.88-.19-3.14-3.06-5.05-3.83-7-3.6-9.07.27-2.41.38-2.87,1-4s1.79-1,4.67.61c9.83,5.51,21.39,1,22.66-8.92a11.57,11.57,0,0,0-2.34-7.88c-4.13-4.9-11.6-4.33-14.39,1.07-2.34,4.59,2.26,10.3,6.77,8.42a3.86,3.86,0,0,0,2.38-4.13c-.27-1.27-1.69-2.42-2.72-2.19-.84.16-1.19,1.08-.42,1.08a1.64,1.64,0,0,1,1,.57c.73.88-.46,2.49-1.91,2.49-2.18,0-3.48-3.29-2.07-5.29,1.92-2.75,5.9-2.6,8.35.31.53.69,1,1,1,.8,0-.95.61-.3,1.07,1.12.62,2.06.62,2.52-.11,1.91-.46-.38-.57-.35-.57.31a9.56,9.56,0,0,1-1.92,4.4c-3.48,4.4-11.6,3-14.43-2.49a11.33,11.33,0,0,1,2.37-13.17c3-3.06,4.9-3.79,9.88-3.79,4.29,0,5.32-.34,2.33-.8a15.53,15.53,0,0,0-12.9,4c-2.64,2.72-3.52,4.94-3.48,8.88,0,3.75.69,5.44,2.95,7.58.76.73.88,1.61.19,1.61s-4.06-3.68-4.75-5.25c-1.3-2.83-1.34-7.62-.15-12.25a12.88,12.88,0,0,0,.65-4c-.42-1.15-9.61-1.83-24.39-1.83H320.64l-2.26,2.14c-1.69,1.61-2.34,2-2.68,1.68s-.15-.65.65-1.34a5.14,5.14,0,0,0,1-1.07c0-.5-2.49-.53-3.82-.07a5.69,5.69,0,0,1-3.49.15c-1-.23-1.87-.58-1.87-.77s-.46-.34-1-.34-.88-.15-.77-.35C306.86,263.71,305,263.41,304,264Z" transform="translate(-48.43 -56.19)" style="fill: #3f51b5"/>
    <path d="M285.61,264.56c-.31.07-2.11.34-4,.57s-5.24.8-7.43,1.23l-5,.95c-4.1.73-6.28,1.38-7.54,2.22-1.46,1-2.49,1-1.15,0,.72-.5.72-.54-.23-.54a1.69,1.69,0,0,1-1.23-.35,3.77,3.77,0,0,0-1.38-.76c-1.14-.38-1.18-.35-1.79,1.15-.43,1.15-.77,1.49-1.23,1.3s-.27.11.34.76,1.15.89,1.61.73.69,0,.69.92a1.51,1.51,0,0,0,.58,1.38,1,1,0,0,1,.57.84c0,.38.11.54.27.42.38-.42,2,4.56,2.6,8.16.84,4.67.69,4.44,3,4.7,7.88.92,25.88,4.79,29.78,6.4s8,2.68,10.45,2.68a8.93,8.93,0,0,1,3.14,1c1,.54,3.94,1.73,6.47,2.64,6.2,2.22,12.1,4.37,13,4.79,1.54.69,10.07,4.17,14.55,5.93,2.53,1,5.63,2.3,6.89,2.87s4.4,2,7,3.07,6.54,3,8.8,4.28,5.21,2.91,6.59,3.64,2.68,1.49,2.87,1.65c.84.69,14.24,7.19,15.31,7.46,1.8.46,2.87.54,2.87.23a8.62,8.62,0,0,0-1.38-1.87c-1.07-1.27-1.22-1.65-.8-1.84.69-.23,2.18.46,2.18,1a.45.45,0,0,0,.5.39,1.66,1.66,0,0,1,1,.8,20.69,20.69,0,0,0,2.91,2.6c2.45,2,5.82,4.94,7.43,6.59a11.61,11.61,0,0,0,2.6,1.84l1.61.8V343.8c0-3.71-6.47-12.21-17.72-23.28-11-10.83-22.32-18.87-29.75-21.17-2.49-.76-3.06-.68-3.06.35,0,1.68,6.12,9.68,11.25,14.81,3.91,3.87,4.48,4.87,2.53,4.44-3.06-.57-7-2.48-20.48-9.68-5.9-3.18-19.72-8.92-21.44-8.92a10.93,10.93,0,0,1-2.56-.88,57.93,57.93,0,0,0-5.86-2,29.34,29.34,0,0,1-4.17-1.38c-.39-.34-.31-.61,1.45-5.63a18.33,18.33,0,0,0,1-4.59v-1.8l-.81,1.72a16.58,16.58,0,0,1-9.87,9c-1.61.54-2.87.61-5.94.46-4.05-.19-6.43-1-10.56-3.41a14.58,14.58,0,0,0-4.21-1.45c-4.94-.88-14.67-3.72-14.36-4.21.19-.31,4.48-.23,11.18.23l3.48.23,2.61,2.14c4.13,3.41,7.15,5,10.68,5.47,6.2.92,12.32-2,14.81-7a15.11,15.11,0,0,0,1.3-3.52c.23-1.42.23-1.46-.57-1-.58.35-.81.81-.81,1.84,0,2.72-4,6.7-7.84,7.73a17.19,17.19,0,0,1-3.72.42c-1.95,0-2.41-.19-5.09-1.95a15.44,15.44,0,0,1-6.05-6.85c-.65-1.38-.8-2.49-.8-5.55,0-3.83.42-5.48,2.87-11.52.92-2.26.54-2.45-4.71-2.42C288.29,264.44,285.92,264.52,285.61,264.56Z" transform="translate(-48.43 -56.19)" style="fill: #3f51b5"/>
    <path d="M248.48,266.66c-.73.61-1.11,1.15-.85,1.15s.39.15.27.38.27.39,1,.39a8.67,8.67,0,0,1,2.91.76c.88.38,1.6.58,1.6.38a.4.4,0,0,0-.42-.38c-.27,0-.34-.3-.19-.76s.35-1.08.46-1.5-.08-.76-1.53-1.15C249.66,265.4,250.05,265.32,248.48,266.66Z" transform="translate(-48.43 -56.19)" style="fill: #3f51b5"/>
    <path d="M122.15,266.89c-.31.12-.84.31-1.15.46s1,.35,2.91.46c4.44.31,7,1.53,9.91,4.63,2.45,2.64,3.41,4.56,4.75,9.46l1,3.71,2.84.12c3.86.19,8.92-.58,10.1-1.5a5.54,5.54,0,0,0,1.61-5.09,4,4,0,0,0-3.41-3.67,52.22,52.22,0,0,1-9.37-3.1,5.82,5.82,0,0,0-2.3-.73,8.88,8.88,0,0,1-3.33-1.42c-3.75-2.26-6.55-3.21-10-3.4A18.77,18.77,0,0,0,122.15,266.89Z" transform="translate(-48.43 -56.19)" style="fill: #3f51b5"/>
    <path d="M237.68,268.84c-3,2.61-3.14,3-1.41,3.45l1.18.31-1,1.07a3.24,3.24,0,0,1-1.88,1,1.28,1.28,0,0,0-1.19.61c-.42,1.08-.26,1.34.5.92s1.57-.5,1.57-.07c0,.15-.53.49-1.19.72l-1.22.46.23,2.34a10.1,10.1,0,0,0,2.87,6.62,9.58,9.58,0,0,0,6.51,3.18A8.94,8.94,0,0,0,249,288l1.07-.77-.88-.69c-.84-.61-.91-.61-2.22.08a6.26,6.26,0,0,1-2.52.69l-1.15,0,1.22-.42c1.92-.73,1.84-1-.26-.73-1.15.11-1.92,0-1.92-.19s.69-.38,1.49-.38a5.61,5.61,0,0,0,4.68-2.68l.76-1.23L248,281a14.06,14.06,0,0,1-2.34-1.53,3.9,3.9,0,0,0-1.91-.92c-1,0-3.33-1.34-3.33-1.91s.23-.5,1.57.19a32.37,32.37,0,0,0,6.39,2.1c.27,0,.38-.19.27-.38-.31-.5.3-.5.84,0s2.41,0,2.41-.61c0-.85-2.29-3.41-3.75-4.18a6,6,0,0,0-3.79-.5,4.7,4.7,0,0,1-2.41-.07c0-.35,4.13-1.19,5.89-1.19.62,0,1-.15.81-.38a5.27,5.27,0,0,0-2.6-.38,5.75,5.75,0,0,0-4.37,1.37,11.77,11.77,0,0,0-2.79,2.65,7,7,0,0,0-.62,6.08c.77,1.84.77,1.76-.15,1.76-.57,0-1-.49-1.57-1.83-1.57-3.56-.11-8,3.37-10.61,1.84-1.34,1.88-1.87.15-2-1-.11-1.15-.23-.76-.69C240.17,267,239.29,267.43,237.68,268.84Z" transform="translate(-48.43 -56.19)" style="fill: #3f51b5"/>
    <path d="M242.16,269c-.11.23,0,.27.35.15.68-.27.8-.53.26-.53A.73.73,0,0,0,242.16,269Z" transform="translate(-48.43 -56.19)" style="fill: #3f51b5"/>
    <path d="M382.69,270.76c-.11.11.08.46.46.73.77.61,1.23.65,1.23.15S383,270.45,382.69,270.76Z" transform="translate(-48.43 -56.19)" style="fill: #3f51b5"/>
    <path d="M425.76,274.17a6.3,6.3,0,0,0-1.38,8.07,6,6,0,0,0,4.25,2.41,5,5,0,0,0,4.09-2.79c.77-2.3-1.6-4.75-3.56-3.71-.45.23-.91.34-1.07.23-.42-.42,1-1.42,2.38-1.76s1.53-.2,2.71,1a6.61,6.61,0,0,1,1.57,2.26c.88,3.44-2.6,7.43-6.24,7.12a1.4,1.4,0,0,0-1.07.31c-.5.88,3.26.46,4.63-.5,3.87-2.64,4.52-6.78,1.54-9.88-1.77-1.84-4.1-1.84-6.05,0a2.9,2.9,0,0,0-1.08,2.6,2.93,2.93,0,0,0,.58,2.07c.73.61.73,1.15,0,1.15-.31,0-1-.61-1.61-1.34a3.14,3.14,0,0,1-.73-3.1c.31-2.18,2.45-4.75,4-4.75.77,0,.88-.07.42-.38C428.17,272.52,427.4,272.75,425.76,274.17Z" transform="translate(-48.43 -56.19)" style="fill: #3f51b5"/>
    <path d="M229.72,276.62c0,.72.19,1.14.54,1.14s.61-.49.68-1.14c.16-.92,0-1.15-.53-1.15S229.72,275.77,229.72,276.62Z" transform="translate(-48.43 -56.19)" style="fill: #3f51b5"/>
    <path d="M230,279.52c-.31.27.76,4.22,1.49,5.71a14,14,0,0,0,6.09,6.35c2.18,1.08,2.67,1.19,5.39,1a13,13,0,0,0,4.52-.88c1.91-.88,1.84-.85,1.57-1.27-.15-.23-.88-.19-2,.16-6.09,1.83-12.29-1.15-15-7.2a17.67,17.67,0,0,1-1.11-2.87C231.06,279.52,230.6,279,230,279.52Z" transform="translate(-48.43 -56.19)" style="fill: #3f51b5"/>
    <path d="M257.93,281.06c-.11.38-.3,1.6-.46,2.68a17.26,17.26,0,0,1-4.9,8.72,22.65,22.65,0,0,1-4,2.49c-2.22,1.11-2.56,1.19-6.12,1.07s-8.31-1.14-10.11-2.18c-.84-.46-1.68.5-2.79,3.14-.46,1.11-1.23,2.76-1.69,3.64a7.58,7.58,0,0,0-.84,2.26c0,1.26,2.41,3.06,5.17,3.9,3.33,1,5.47,1.26,5.74.81s.92-.43,1.61.42a2.26,2.26,0,0,0,1.11.76c.72,0,10.22,5,11.06,5.78,1.3,1.27.31,1.57-2.95,1a24.24,24.24,0,0,1-8-2.91,8,8,0,0,0-1.91-1,4.62,4.62,0,0,1-1.46-.69c-.84-.65-5.93-1.64-9.07-1.72-3.6-.11-3.33.23,1.26,1.65,1.61.49,4.4,1.45,6.2,2.14s4.9,1.76,6.89,2.41c4.1,1.38,4.79,1.73,7.05,3.45,1.45,1.11,26.87,17.07,29.9,18.79.76.43,2.25,1.38,3.36,2.15s3.3,2.22,4.87,3.21c3.75,2.38,7,4.56,7.27,4.79s2.34,1.64,5,3.41c5.43,3.67,12.21,8.76,12.32,9.26.16,1,0,1.3-.84,1.53-.65.15-.76.31-.38.42,4.44,1.42,6.05,2.07,8.76,3.72,3.37,2,4.56,2.56,4.94,2.18s-2.1-2.8-3.83-3.91a11.9,11.9,0,0,1-2.67-2.56c-.69-.92-2.07-2.76-3.11-4.1-1.72-2.3-1.79-2.45-1.22-3.29s.54-1.3,0-5c-.35-2.29-.69-4.44-.8-4.78a30.64,30.64,0,0,1-.2-4.4c0-8.73,3-13.63,10.57-17.19a43.29,43.29,0,0,1,11.79-3.64c2-.3,2.95-.61,2.95-.95a.61.61,0,0,0-.65-.54c-.69,0-4.14-1.3-8.27-3.1-3-1.3-2.95-1.3-2.95-.54s-2.1,3-2.91,3.29a73.76,73.76,0,0,0-11.25,7c-2.15,2.18-2.57,3.64-3.87,13.74-.34,2.8-.54,3.37-1.07,3.37-.81,0-1.57-2.22-1.84-5.36-.23-2.52.73-6.89,1.8-8.42a6.16,6.16,0,0,0,.77-1.3c0-.73,4.47-4.52,8.19-6.89a37.75,37.75,0,0,0,5.74-4.44l1.49-1.65-1-.84c-2.8-2.18-12.1-4.82-17.92-5-4.78-.16-6.7.3-11.14,2.64-5.89,3.1-9.87,7.85-9.87,11.67,0,1.76.65,4.6,1.22,5.25.38.42.42,1.72,0,1.72-.69,0-1.69-1.11-2.22-2.41-.69-1.65-.77-6.62-.15-8.84.68-2.53,3.71-5.13,8.8-7.58,5.67-2.76,6.78-4.21,4.94-6.51-1-1.3-4.75-2-8.23-1.65-6.17.65-12.79,6.36-14.32,12.33-.8,3.06-.84,3.1-1.57,1.07-.84-2.26-.88-3-.38-4.78.69-2.45,3.6-5,9.57-8.31a5.92,5.92,0,0,0,2.22-1.8c.15-.69-1.65-1.53-2.53-1.19a1.21,1.21,0,0,1-1.07-.23c-.73-.61-5.55-.15-7.16.69a46.54,46.54,0,0,0-9,7.28c-.84,1-1.65,1.68-1.84,1.53-.34-.35.5-3.68,1.15-4.41a9.73,9.73,0,0,1,2-1.49c1.34-.84,5.17-4.48,5.17-4.94a2.14,2.14,0,0,0-.84-.53,22.26,22.26,0,0,1-2.19-1.19,14,14,0,0,0-5.36-1.88c-1.68,0-3.86-.84-3.86-1.49,0-.34.19-1.64.38-2.91.5-3,.54-8,.08-8.84C258.16,280.37,258.12,280.37,257.93,281.06Z" transform="translate(-48.43 -56.19)" style="fill: #3f51b5"/>
    <path d="M251.35,281.21c-1,.15-1.15.38-1.27,1.65-.07.84-.38,1.56-.68,1.68-.73.27-.69.88.15,1.49,1,.77,1.11.69,2.18-1.57C253,281.78,252.92,280.94,251.35,281.21Z" transform="translate(-48.43 -56.19)" style="fill: #3f51b5"/>
    <path d="M137.08,282.78a16,16,0,0,1-.54,3.64c-.5,1.87-.46,2,.27,2.79l.8.77-1.11-.08c-.57,0-1.14.15-1.22.42s0,.46.15.42a2.88,2.88,0,0,1,2.45.81l.92.76-1.38-.23a4.23,4.23,0,0,0-4.21,1.88,18.06,18.06,0,0,1-1.72,2.26c-.92,1-1.19,1.64-1,2.29.49,1.95.91,1.88,2.06-.38,1.3-2.57,1.76-3.14,3-4,.95-.69,3.37-.8,5.55-.31,1.07.27,1,.31-.92.73a6.57,6.57,0,0,0-5.25,4.06l-.91,2,1.3.23c2.06.35,10.52-.31,11.21-.88.35-.27.65-.42.65-.31.08.31,3.34-.72,5.21-1.64a10,10,0,0,0,4.59-5.67,16.52,16.52,0,0,0,.31-4.25c-.15-3.25-.76-4-2.49-2.87a29.72,29.72,0,0,1-5.93,2.8c-2.37.53-10,.95-10.34.61a12.9,12.9,0,0,1-.72-3.75C137.42,281.13,137.08,280.14,137.08,282.78Z" transform="translate(-48.43 -56.19)" style="fill: #3f51b5"/>
    <path d="M250.77,288.64c0,.34.2.61.39.61a.35.35,0,0,0,.38-.35.73.73,0,0,0-.38-.61C251,288.18,250.77,288.33,250.77,288.64Z" transform="translate(-48.43 -56.19)" style="fill: #3f51b5"/>
    <path d="M249.43,289.67c-.15.23-.19.5-.07.61.27.27,1-.23,1-.69S249.74,289.13,249.43,289.67Z" transform="translate(-48.43 -56.19)" style="fill: #3f51b5"/>
    <path d="M159.78,291.24a6.12,6.12,0,0,0-1.49,4.29c.26,1.3,2,4.05,2.48,4.05.2,0,.54-1.45.81-3.21.38-2.64.34-3.41-.08-4.29C160.93,290.86,160.32,290.55,159.78,291.24Z" transform="translate(-48.43 -56.19)" style="fill: #3f51b5"/>
    <path d="M166.17,292.27a7.54,7.54,0,0,0,1.42,3.22c.65.42,0-2.38-.69-3C166.44,292.08,166.17,292,166.17,292.27Z" transform="translate(-48.43 -56.19)" style="fill: #3f51b5"/>
    <path d="M172.72,296.25a5,5,0,0,0-.65,1.84c-.39,2-4.14,9.3-6.17,12a68.75,68.75,0,0,1-5.2,5.7l-3.41,3.37h18l2.22-2.49c2.49-2.83,5.32-7.35,5.82-9.38a32.82,32.82,0,0,0,.57-4.59c.16-2.87.31-3.33,1.15-4.1,1.34-1.11,1.27-1.22-.42-.84a16.58,16.58,0,0,1-3.18.34,5.89,5.89,0,0,0-2.14.31c-.31.15-.5,2.1-.57,5.44-.16,4.78-.23,5.28-1.19,6.89a31.34,31.34,0,0,1-3.64,4.51c-2,2.11-2.83,2.76-3.67,2.76s-1-.15-1-1.07c0-1.65,1.27-4,3.34-6.28,3-3.25,3.86-5.51,4-9.92l.12-3.71-1.07-.61C174.29,295.6,173.29,295.6,172.72,296.25Z" transform="translate(-48.43 -56.19)" style="fill: #3f51b5"/>
    <path d="M191.17,296.94c-3.6.35-4.13.85-4.75,4.63-.27,1.77-.49,3.3-.53,3.45a1.05,1.05,0,0,1-.27.54,1.18,1.18,0,0,0-.31.84c0,.92-2.94,6.93-4.59,9.34-1.34,1.91-1.49,2.37-1.07,2.87.72.88,4.63.46,7-.77,3-1.53,4.48-3.59,6.28-8.69.92-2.64,1.42-9.57.84-11.48C193.54,296.75,193.47,296.71,191.17,296.94Z" transform="translate(-48.43 -56.19)" style="fill: #3f51b5"/>
    <path d="M153,299.39c-1.34,1.11-1.45,1.34-1,1.92.88,1.07,2.72,1.8,5.17,2.1,2.25.27,2.83.08,2.87-1,0-.23-.65-.66-1.42-.92a9.24,9.24,0,0,1-2.79-2l-1.34-1.45Z" transform="translate(-48.43 -56.19)" style="fill: #3f51b5"/>
    <path d="M163.91,299.09c-.69,1.53-.49,1.91,1.61,2.68s2.57.84,2.53-.39c0-.57-.61-1.22-1.88-2l-1.84-1.18Z" transform="translate(-48.43 -56.19)" style="fill: #3f51b5"/>
    <path d="M219.57,299.16a36.81,36.81,0,0,0-6.69,7.51c-.73,1-1.69,2.33-2.15,2.83a10.31,10.31,0,0,0-1.57,2.3,12.51,12.51,0,0,1-1.15,1.95,57.79,57.79,0,0,0-4.36,9.07,32.82,32.82,0,0,0-1.88,10.57c0,5.55,1.27,7.92,4.14,7.92a4.2,4.2,0,0,0,2.41-.73l.92-.72-1.61-1.73c-2.26-2.41-2.91-3.9-3.1-7-.27-4.17,1.22-7.35,7.24-15.7,1.68-2.29,4-5.55,5.28-7.27,2.91-4,4.48-7.5,4.17-9.34C221.11,298.05,221,298.05,219.57,299.16Z" transform="translate(-48.43 -56.19)" style="fill: #3f51b5"/>
    <path d="M133.94,303.53c.27,2.18,1.15,3.52,5.05,7.65,2.11,2.26,3.83,4.21,3.83,4.33,0,.57-3.22-.23-4.63-1.19l-1.53-1,.61,1.22a9,9,0,0,0,7.35,4.56c1.3,0,1.57-.12,1.42-.58s.15-.57,1.76-.57c1.8,0,2.14-.15,3.29-1.38,1.72-1.84,1.65-2.18-.38-1.87a4.39,4.39,0,0,1-3-.35,6.06,6.06,0,0,0-2.14-.61c-2.11,0-5.36-2.57-6.82-5.36a15.73,15.73,0,0,1-1-3.06c-.39-1.73-.5-1.92-1.46-1.92a3.74,3.74,0,0,1-1.8-.53C133.82,302.34,133.79,302.38,133.94,303.53Z" transform="translate(-48.43 -56.19)" style="fill: #3f51b5"/>
    <path d="M162,304a36.67,36.67,0,0,1-6.09,8.23c-1.34,1.22-1.41,1.42-1.41,3.71v2.41l.95-1.22a44.7,44.7,0,0,1,7.77-7.31c2.61-1.84,3.33-2.68,4-4.67.42-1.15.38-1.15-1.57-1.84-1.08-.38-2.15-.8-2.42-.88S162.42,303,162,304Z" transform="translate(-48.43 -56.19)" style="fill: #3f51b5"/>
    <path d="M143.66,303.14l-1.64.46.92,1.73a5.72,5.72,0,0,0,3,2.79c2.49,1.3,3.83,1.23,7.24-.5,2.56-1.3,3.44-1.49,2.68-.57a2,2,0,0,1-.92.61c-.46,0-3.49,3.79-3.07,3.79,1.19,0,7.51-6.2,6.9-6.77a4.51,4.51,0,0,0-2.26.26c-3.18.85-5.78.65-7.54-.53-.85-.54-1.54-1.19-1.54-1.38C147.41,302.53,145.77,302.61,143.66,303.14Z" transform="translate(-48.43 -56.19)" style="fill: #3f51b5"/>
    <path d="M217.05,314.4c-1.46,1.61-2.07,2.72-3.18,5.82-1.26,3.56-1.84,5.93-1.53,6.74.27.65,1.3,1.14,5.89,2.87a154.63,154.63,0,0,1,18.38,9c4.71,3.18,6.32,4.56,6.43,5.67.08.57,0,1-.27,1a19.18,19.18,0,0,1-2.91-1.91c-5.93-4.6-14.77-9.73-19.44-11.37-3.53-1.23-8.65-1.65-9.38-.77a1,1,0,0,0-.08,1.38c.54,1,3,2.72,3.6,2.49.77-.31,15.66,7.16,20.17,10.11,1.08.72,5.71,3.86,7.24,4.93,2,1.42,7.35,6.24,14,12.64,8,7.77,6.74,7.38,13.59,4.13,9.07-4.25,15.66-6.28,22.24-6.89,3.1-.31,3.14-.34,1.69-.69-1.65-.34-10.91-.08-14.28.46-1.07.15-2,.19-2,0,0-.57,13.4-4.56,15.39-4.56,1.07,0,.84-.61-.92-2.33-3.52-3.37-3.94-3.6-7.2-3.56-4.06.08-11.29,1.8-14.51,3.48a20.75,20.75,0,0,0-4.13,2.91c-.92.84-1.72,1.5-1.84,1.38-.34-.38.61-3,1.53-4.1,1.88-2.22,8.23-4.47,13.78-4.9a34.56,34.56,0,0,0,3.6-.38c1-.34-1.18-2.1-4.55-3.67a19.82,19.82,0,0,1-4.25-2.45l-1-1-2.26,1.19c-1.22.61-3.75,1.8-5.59,2.64a22.29,22.29,0,0,0-5.05,3.1c-1.8,1.64-2.91,1.84-2.91.5,0-1.8,2.8-3.68,8.16-5.48,2.9-1,3.52-1.72,3.13-3.67-.38-2.18-1.68-2.57-7.61-2.38-5.4.2-6.55.5-9.65,2.61a17.29,17.29,0,0,1-1.91,1.15c-.31,0-.16-1.92.26-2.84a5.16,5.16,0,0,1,3.6-2.14c.77,0,1.92-.58,3.52-1.8,1.23-.88,1.23-1,.73-1.95a17.43,17.43,0,0,0-2.26-2.76c-5.36-5.51-7.65-6.66-23.23-11.48-2.84-.88-5.52-1.76-5.94-2a64.23,64.23,0,0,0-6.89-2C218.23,313.37,217.85,313.52,217.05,314.4Z" transform="translate(-48.43 -56.19)" style="fill: #3f51b5"/>
    <path d="M127,319.68c-.92,1.92-.77,2.22.15.46a4.93,4.93,0,0,0,.65-1.64C127.7,318.42,127.35,319,127,319.68Z" transform="translate(-48.43 -56.19)" style="fill: #3f51b5"/>
    <path d="M348.58,325.85c-.34,1.26-.76,2.67-.95,3.21s-.62,2.07-1,3.45a79.69,79.69,0,0,1-3.91,10.91c-.72,1.53-.8,2.06-.49,2.71.61,1.08,3.82,1.92,5,1.31,4.25-2.3,7.66-9.23,7.66-15.7,0-5.24-1.19-7.54-4.14-7.92l-1.57-.2Z" transform="translate(-48.43 -56.19)" style="fill: #3f51b5"/>
    <path d="M331.74,324.28c-.19,0-1.15.3-2.11.61a31.65,31.65,0,0,0-8.72,4.63c-1.88,1.61-3.11,3.68-3.14,5.17,0,1.3,1.11,2.64,3,3.63A8.23,8.23,0,0,1,322,339a14,14,0,0,0,4.82,1.8c1.53.19,1.76.12,2.95-1.15,2-2,3.1-5.93,3.1-11.14C332.89,324.54,332.73,324,331.74,324.28Z" transform="translate(-48.43 -56.19)" style="fill: #3f51b5"/>
    <path d="M341.73,325.12l-2.14,2.41c-1.15,1.34-1.15,1.34-.92.27a2,2,0,0,0-.23-1.61c-.54-.65-.77-.69-1.5-.23-.45.31-.42.5.31,1.07.58.46.77.92.61,1.38s-1,1-.92.34-.07-1.22-.42-1.22-.3.5-.15,1.38.12,1.34-.11,1.18c-.62-.38-1,2-.43,2.72.43.5.39.58-.15.35s-.69-.08-.69.3.35.58.88.58c.88,0,1.8.65,1.8,1.22,0,.19-.3.19-.65,0a1.6,1.6,0,0,0-2.41,1.27c0,.53-.15,1-.34,1a4.43,4.43,0,0,0-1.34,1.57,6.52,6.52,0,0,1-2.65,2.26,12.44,12.44,0,0,1-8.07.23,7.91,7.91,0,0,0-2.38-.61,1.81,1.81,0,0,1-1.37-.77,2,2,0,0,0-1.73-.76c-1.41,0-1.61.65-.72,2.37.42.77.42,1.07.11,1.23s-.31.26.08.53.34.46.11.61c-.84.5.65,5.32,2.68,8.54a32.22,32.22,0,0,0,10,9.23c2.91,1.8,3.49,2,4.6,1.76a47.54,47.54,0,0,1,7.31-.62c2-.11,2.33,0,3,.89a3.11,3.11,0,0,1,.62,2.1l-.16,1.11-.61-1.38c-.8-1.87-2.49-2.56-4.75-1.95a14.29,14.29,0,0,1-3.25.46c-1.07,0-1.49.15-1.38.46s1,.46,3.14.38c3.75-.15,4.86.31,6.32,2.64a17.83,17.83,0,0,1,1.15,2.11c0,.11-.66-.35-1.46-1-1.38-1.07-4.13-2.18-4.52-1.8a11.49,11.49,0,0,0,2.61,1.54c1.53.8,3.4,1.79,4.13,2.25a6.54,6.54,0,0,0,3.87.85c2.72,0,3.9.65,4.29,2.18.22.88-.31,1-.66.15s-2.52-1.72-3.86-1.72c-1.88,0-1.07.76,2.07,1.95a10.57,10.57,0,0,1,2.29,1.3,5.24,5.24,0,0,0,3.22,1,4.43,4.43,0,0,1,2.6.72c.58,1,.38,1.27-.42.54a7.91,7.91,0,0,0-3.33-1l-4.1-.57-1.49-.27.27,1.3a4.56,4.56,0,0,0,.38,1.38c.08.12.8,0,1.65-.23a9.1,9.1,0,0,1,6.89.61,5.39,5.39,0,0,1,2,1.38c0,.19-.31.23-.65.08a7.89,7.89,0,0,0-7.39.8c-1.07.92-1.11,1-.61,2a15.37,15.37,0,0,0,1.11,1.76c.49.69.57.66,1.37-.65,1-1.68,2.64-2.45,6.09-2.94a8.41,8.41,0,0,1,4.75.3l2,.65-2.53.27c-3.83.35-6.62,2.07-7.58,4.63-.61,1.57-.57,1.57,1.26,2.49,2,1,2.15,1,2.15.15a7.12,7.12,0,0,1,1.11-2.45c1-1.49,1.68-2,4.71-3.52a17.65,17.65,0,0,1,5.78-2c1.87-.19,2.33-.38,2.83-1.22.34-.54,1-1.61,1.53-2.37,1-1.57,1.15-2.34.27-2-.46.16-.54,0-.35-.68s-.11-1.34-1.18-2.57c-.77-.92-1.3-1.72-1.19-1.84.31-.34,1.68.54,2.53,1.61l.76,1,2.15-.62c1.57-.46,2.29-.53,2.87-.23a3.3,3.3,0,0,1,.76.5,5,5,0,0,1-1.61.12,9.67,9.67,0,0,0-2.75.49c-.84.35-1,.54-.65,1s.61.46,1.61,0a5.41,5.41,0,0,1,3.29-.3l2.14.26-.73-1.14a22.64,22.64,0,0,0-8.57-8.23c-2.37-1.19-2.68-1.23-7.08-1.23-4.21,0-4.79.08-6.7,1a6,6,0,0,1-2.26.85c-.12-.08,0-.62.19-1.19.5-1.49,3.29-3,7.24-3.94,4.4-1.07,6-1.88,8.65-4.21a19.14,19.14,0,0,0,5.66-8.39c.73-2.06.77-2.64.39-3.56a3.21,3.21,0,0,1,0-2.6c.66-2,.08-3.37-2-4.71s-2.45-1.3-2.71.19c-.16.69-.35,1.65-.5,2.11-.19.72-.08.88.65.92.92,0,.92,0,.08.34a1.79,1.79,0,0,0-1.19,2.45c.3.54.27.65,0,.46s-.57.15-.84.8c-3.14,8.23-8.42,13.4-13.52,13.17-1.64,0-3.25-.72-9.95-4.09-4.75-2.41-8.31-4-8.73-3.87s-.69,0-.69-.27c0-.65-9.87-4.44-11.56-4.44-.49,0-.69-.3-.69-1.11,0-1.07,0-1.07,2.8-1.3,3.25-.23,6.81-1.26,6.66-1.91a.3.3,0,0,1,.42-.35c.65.12,2-1.57,2.64-3.21a27.88,27.88,0,0,0,.54-7.7c0-1.42-.12-1.57-.88-1.42l-.88.2.88-.65c1.49-1.11.88-1.34-1.07-.35-2.57,1.3-3.14,1.23-1.23-.19,1.53-1.07,2.37-2.18,2.37-3S342.73,324.05,341.73,325.12Z" transform="translate(-48.43 -56.19)" style="fill: #3f51b5"/>
    <path d="M357.39,328.75c-.73,7.32-3.75,15.7-7,19.45-1.72,2-1.42,2.8,1,3a10.36,10.36,0,0,0,9.18-4.63A34.14,34.14,0,0,0,363.89,336c.5-5.71-1.41-9.65-4.7-9.65h-1.53Z" transform="translate(-48.43 -56.19)" style="fill: #3f51b5"/>
    <path d="M366.61,330.67c-.11.69-.3,2.33-.42,3.6-.34,3.79-1.53,7.19-4.48,13.05-2.68,5.32-2.75,5.55-2.18,6.55s.69,1,3.64,1a9.42,9.42,0,0,0,4.25-.65,12.21,12.21,0,0,0,4.51-4.75c.39-.8.81-1.72,1-2.06,1.22-2.61,1.53-8,.57-11.1-1-3.45-2.22-5-4.71-6.24C367.07,329.21,366.84,329.29,366.61,330.67Z" transform="translate(-48.43 -56.19)" style="fill: #3f51b5"/>
    <path d="M385,347.51c-2.95,5.78-5.55,9.73-7.92,12-1.57,1.53-1.8,1.61-4.41,1.8a14.5,14.5,0,0,0-3.14.46c-1,.58-.26.92,1.8.77a27,27,0,0,1,5.78.61c4.48.92,4.52.92,7.12-.08,5.78-2.18,11-11.21,9.38-16.23a5.31,5.31,0,0,0-2.41-2.68C387.63,341.92,387.9,341.77,385,347.51Z" transform="translate(-48.43 -56.19)" style="fill: #3f51b5"/>
    <path d="M394.71,353.25A35.36,35.36,0,0,1,392.8,357a18,18,0,0,0-1.34,2.1,19.86,19.86,0,0,1-5.36,6.32c-2.11,1.61-3.22,1.84-4.79,1-1.87-1.08-1.49-.54,2,2.9l3.52,3.49,2.72-.16a12.25,12.25,0,0,0,4.44-1c2.41-1.22,5.62-4.75,7-7.69,1-2.22,1.19-2.87,1.19-6,0-3.33,0-3.56-1.19-5s-3.41-3.18-4.13-3.18C396.59,349.73,395.63,351.34,394.71,353.25Z" transform="translate(-48.43 -56.19)" style="fill: #3f51b5"/>
    <path d="M405.05,361.1a23.57,23.57,0,0,0-3.22,4.37c-2.07,3.44-6.66,8.38-8.46,9.07a22,22,0,0,1-2.56.69c-.81.11-1.46.38-1.46.53a5,5,0,0,0,1,1.5c.92,1.11,1.15,1.18,3.52,1.18,5.51,0,11.41-3.21,13.51-7.35,1-1.87,1-5.85.08-7.19a6.16,6.16,0,0,1-.88-2.45l-.19-1.53Z" transform="translate(-48.43 -56.19)" style="fill: #3f51b5"/>
    <path d="M290.85,364.16c-1.6.16-1.91.31-2.71,1.57a12.42,12.42,0,0,0-1.42,3.14,9.7,9.7,0,0,1-2.45,3.83c-2.45,2.6-3.22,4.06-3.52,6.51-.46,3.87,2.18,7.5,6.62,9.19,3.71,1.37,6.05.84,8-1.73,1.34-1.76.88-2.25-1.38-1.49a6,6,0,0,1-6.39-1.19c-3.45-2.94-3.75-6.08-1-11.59,2.37-4.87,3.33-6.13,5.55-7.16,1-.46,1.76-1,1.6-1.11a.88.88,0,0,0-.65-.16C292.88,364,291.89,364.09,290.85,364.16Z" transform="translate(-48.43 -56.19)" style="fill: #3f51b5"/>
    <path d="M305.9,366.58c0,.19-.58.38-1.23.38a7,7,0,0,0-2.6.76c-1.57.89-.88,1,1.53.23,1.84-.53,3-.23,4.71,1.23,1,.92.77,1.3-.5.65-4.48-2.33-11.56,2.87-9.76,7.2.61,1.53,1.8,2.6,3.94,3.71.92.46,1.61.88,1.54,1s-1,0-5.25-.85a5.16,5.16,0,0,1-1.3-.42c-.77-.46,1,2.18,2.3,3.56,2.33,2.41,5,3.29,7.69,2.61.5-.16.8-.46.73-.69a1.16,1.16,0,0,1,.42-1c.5-.5.61-.5,1.07.11.27.39.65.58.84.46s-.23-1.34-.95-2.75c-2-4.06-1.57-6.85,1.41-8.54a7.29,7.29,0,0,1,3.56-.8c2.22,0,4.1-.58,4.1-1.3,0-.23.15-.2.34.11a.85.85,0,0,0,.85.34c.84-.26-3.22-4-5.56-5.09S305.9,365.81,305.9,366.58Z" transform="translate(-48.43 -56.19)" style="fill: #3f51b5"/>
    <path d="M291.77,369.14c-3.6,3.79-3.6,9.84,0,12.25,2,1.34,2.45,1.19,1.69-.57-1-2.26-1.15-6.89-.38-10.07a9.39,9.39,0,0,0,.46-2.91C293.38,367.69,292.62,368.3,291.77,369.14Z" transform="translate(-48.43 -56.19)" style="fill: #3f51b5"/>
    <path d="M408.3,373.74a45.18,45.18,0,0,1-4,2.83c-.73.42-1.84,1.07-2.49,1.49s-1.64,1-2.29,1.38c-2.34,1.3-4,2.87-4.21,4-.35,1.61.11,5.2.76,5.86.46.42,1.38.3,6-.92l6.62-1.69,1.15-.27L408.3,388c-1.72,1.79-4.29,2.87-7.69,3.29-2.8.3-3.37,1-2.8,3.06.31,1.11.54,1.34,1,1.15a7.5,7.5,0,0,1,5.32,0c3.67,1.3,5.24,1.38,9.64.38,1.38-.3,1.65.38.35.81a7.47,7.47,0,0,0-1.84.91c-1.57,1.11-5.36,2.22-8.54,2.53l-2.94.27v1.49c0,3.18,1.64,4.63,5.85,5.32,4.37.73,14-1.38,15.58-3.37.92-1.18,1-3.21.2-5.51s-1.46-2.64-3.91-2.64c-2.26,0-2.6-.42-.92-1.15a11,11,0,0,1,4.06-.19c2.33.23,3.06.15,3.56-.31.84-.76,4-1.22,4.9-.72a2.3,2.3,0,0,0,2-.16,16.61,16.61,0,0,0,5.59-4.25c.65-.95.53-.91-1.23.39a14.65,14.65,0,0,1-8.5,3.21,15.51,15.51,0,0,1-9.11-2.06c-1.76-1-2.1-1.46-.88-1.15.42.11.77.11.77,0a23.12,23.12,0,0,0-1.8-2.34c-2.64-3.25-3.83-6.12-4.59-11.1-.35-2.45-.81-4.29-1-4.25A18.6,18.6,0,0,0,408.3,373.74Z" transform="translate(-48.43 -56.19)" style="fill: #3f51b5"/>
    <path d="M316.08,374.46a16.1,16.1,0,0,0-3.41,1.57,6.31,6.31,0,0,0-1.26,6.82l.5,1.14.46-.88c.73-1.37,1.26-.95.61.58-.57,1.34-.57,1.41.35,2.37a10.44,10.44,0,0,1,1.6,2.53,15.32,15.32,0,0,0,1.38,2.6c.73,1,.84,1,1.42.5s.53-.73-.08-1.69a32.78,32.78,0,0,1-3.6-7.84c-.42-2.76,2.68-6.82,5.74-7.43.85-.15,1-.31.62-.73C319.83,373.28,319.18,373.35,316.08,374.46Z" transform="translate(-48.43 -56.19)" style="fill: #3f51b5"/>
    <path d="M320.29,377.14a9.57,9.57,0,0,0-1.61,2.3c-1,2.37-.45,6.89,1,7.88.38.27.73.66.73.89,0,.88.84.53,1.07-.46.12-.58.38-1.69.58-2.42a20.5,20.5,0,0,0-.16-7.77l-.46-1.41Z" transform="translate(-48.43 -56.19)" style="fill: #3f51b5"/>
    <path d="M381.24,376.61a1.26,1.26,0,0,0-1.08,1.41c0,1.46.23,1.57,1.73,1s4.9-.69,6-.12c.65.35.61.2-.27-1.14-1-1.53-1.07-1.57-3.18-1.53A10.92,10.92,0,0,0,381.24,376.61Z" transform="translate(-48.43 -56.19)" style="fill: #3f51b5"/>
    <path d="M377.18,380.4c-1,1.41-1.84,2-4.1,3-3.06,1.38-5.55,3.64-6.54,6-.77,1.92-.69,2.11.95,2.11,2,0,3.87-.69,3.87-1.46,0-1.22,1.57-3.33,4.44-6,2.68-2.48,2.87-2.79,2.76-4l-.12-1.33Z" transform="translate(-48.43 -56.19)" style="fill: #3f51b5"/>
    <path d="M308.2,385.72a.42.42,0,0,0,.42.38c.19,0,.26-.19.15-.38s-.31-.39-.42-.39S308.2,385.49,308.2,385.72Z" transform="translate(-48.43 -56.19)" style="fill: #3f51b5"/>
    <path d="M239.06,388.09c.54,2.8,3.79,5.4,7.27,5.9,3.18.46,4.44.3,5.32-.58l.81-.8h-1.15a10.8,10.8,0,0,1-6.93-2.87,7.59,7.59,0,0,0-2.3-1.73,7.84,7.84,0,0,1-1.91-.57l-1.38-.57Z" transform="translate(-48.43 -56.19)" style="fill: #3f51b5"/>
    <path d="M189.33,392.84A20.23,20.23,0,0,0,186,395a3.35,3.35,0,0,1-1.49.8c-1.88.65-2.8,2.19-3,5.06a5.26,5.26,0,0,1-.57,2.56c-.5.12-1.11-3.6-.8-4.82a5.88,5.88,0,0,1,1.18-2.11l.92-1.11-3.9-.27c-2.15-.11-4.75-.34-5.78-.49l-1.88-.23.23,2.1a18.4,18.4,0,0,0,1.23,4.56c2.18,5.17,2.87,7.31,2.87,9s-.08,1.69-.73,1.31a2.36,2.36,0,0,1-1-1.23c-.46-1.61-3.72-8-4.06-8-.84,0,.27,5.4,1.72,8.31,3,6,3.25,9.37,1,14.39a19.72,19.72,0,0,1-8.69,8.38c-3.56,1.73-4.9,1.76-9.8.31-2.34-.69-4.71-1.38-5.36-1.53s-3.29-1-5.94-1.88-5.05-1.57-5.35-1.57a1.69,1.69,0,0,1-1.08-.46c-.26-.27-.46-.34-.46-.23,0,.46-7.5-2.41-9.37-3.6-1-.65-3.3-1.95-5-2.9s-4.06-2.34-5.25-3.11a61,61,0,0,0-9.07-5c-1.38-.38-5.24.08-7.69,1-4.44,1.57-6,3.9-5.67,8.53s.46,4.64,7.66,6.78c5.09,1.49,6.81,2.22,9.49,3.87,3.83,2.37,7.24,3.36,13.59,4,5.09.46,8.69,1.18,8.88,1.76.27.84-2.18,1.26-12.32,2.1l-10.38.81-3.14-.81c-3.67-.95-5.74-1-8.34-.23-3.07.88-5,3.56-5.4,7.28-.31,3.1,0,3.83,1.88,4.36,2.94.88,3.44,1.19,3.86,2.34s.54,1.14,2.76,1.14a7.39,7.39,0,0,1,3.71.77c1.3.69,1.49.69,2.8.15s1.49-.49,2.33,0c2.07,1.38,8.35,0,15.62-3.37,4.86-2.25,5.59-2.52,9.34-3.36a36.17,36.17,0,0,1,9.07-.85c5.09,0,5.48,0,7.47,1,2.45,1.22,4.21,2.6,9.91,8,4,3.71,6.74,5.7,7.93,5.7.46,0,3.21-4.25,3.21-4.93,0-.16-.42-.5-.95-.73-1.38-.65-1.73-1.88-1.73-6.43,0-4.21.19-4.6,1.76-3.41,1.08.8,1.31.73,1.31-.5,0-1.84.49-2.22,2.1-1.64a2.17,2.17,0,0,0,2.41-.16c1.57-1,2.22-1.95,4.44-6.31,4.48-8.85,7.93-12.25,12.33-12.25a5.29,5.29,0,0,1,2.6.57c1.69,1.26,4.33.38,5.94-1.95,1.76-2.53,2.1-11.95.61-15.58-.38-.92,1-.88,1.84,0,.53.61.65,1.68.65,7.12a37.93,37.93,0,0,0,.38,7.16c.46.8,2.6,1,3.87.34,3.37-1.84,4.67-16.38,1.64-19.22-1.11-1.07-1.18-1.84-.15-1.57a4.05,4.05,0,0,1,1.61,1.61c.84,1.3.88,1.88,1.07,10L215,425l1.11-.12c3.52-.38,6.13-5.7,6.62-13.55.35-4.94-.92-8.46-2.68-7.54a4,4,0,0,1-2.33.19c-.88-.15-2.76-.35-4.25-.46a15.53,15.53,0,0,1-4.33-1c-1.83-.88-3.52-3-3.52-4.55,0-1.3-.19-1.34-5.86-2.11-6.77-.88-6.54-.8-6.69-2.94-.08-1-.23-1.8-.39-1.8A31.89,31.89,0,0,0,189.33,392.84Z" transform="translate(-48.43 -56.19)" style="fill: #3f51b5"/>
    <path d="M253.3,393.26c-1.19,1.22-1.68,2-1.26,2a17.2,17.2,0,0,0,1.8-1.73c.92-.95,1.49-1.72,1.26-1.72A6,6,0,0,0,253.3,393.26Z" transform="translate(-48.43 -56.19)" style="fill: #3f51b5"/>
    <path d="M209.05,397.93a5.92,5.92,0,0,0,1.53,1.68,10.62,10.62,0,0,0,6.93,2.11c.8-.12.69-.27-1-1.15C213.91,399.23,209.05,397.51,209.05,397.93Z" transform="translate(-48.43 -56.19)" style="fill: #3f51b5"/>
    <path d="M398,402.94c-.35.54,0,3.41.76,5.75a26.55,26.55,0,0,1,.73,4c.23,2.22,1,4.28,1,2.83a20.42,20.42,0,0,0-.34-2.49c-.19-1-.65-3.75-1-6.05s-.69-4.25-.73-4.32S398.12,402.71,398,402.94Z" transform="translate(-48.43 -56.19)" style="fill: #3f51b5"/>
    <path d="M424.38,405.59a40.7,40.7,0,0,1-7.54,2.71c-1.27.35-1.84.69-2,1.3a10.52,10.52,0,0,0,.38,5.48c.46,1.38.54,1.95.19,2.49-1,1.68-.38,1.72,4.4.27,3.53-1.08,6.21-4,6.36-7,.15-2.45-.08-6-.35-6A5.18,5.18,0,0,0,424.38,405.59Z" transform="translate(-48.43 -56.19)" style="fill: #3f51b5"/>
    <path d="M406.69,409.34c-2.75.15-2.79.23-1.8,3.6a12.93,12.93,0,0,0,3.14,5.39,2.92,2.92,0,0,0,2.61,1.07h1.6l-1.53-3c-1.22-2.41-1.53-3.37-1.53-5.17a16.77,16.77,0,0,0-.07-2.1S408,409.26,406.69,409.34Z" transform="translate(-48.43 -56.19)" style="fill: #3f51b5"/>
    <path d="M403.4,417.49a1.77,1.77,0,0,0,1.84,1.46c.42-.08.23-.39-.73-1.15S403.25,416.84,403.4,417.49Z" transform="translate(-48.43 -56.19)" style="fill: #3f51b5"/>
    <path d="M423.61,418a30.37,30.37,0,0,1-15.35,4.86h-2.79l-.58,2.11c-1.07,3.56-1.11,4.21-.46,5.51a1.83,1.83,0,0,0,1.69,1.22,8.72,8.72,0,0,1,1.8.19c.42.08,2.91.16,5.55.2,4.9,0,8.27-.58,10.22-1.84,1.53-1,2.41-3.52,2.6-7.43C426.48,418.06,425.68,416.61,423.61,418Z" transform="translate(-48.43 -56.19)" style="fill: #3f51b5"/>
    <path d="M245.72,426.3a13,13,0,0,0-5.51,4.21,8.55,8.55,0,0,0-1.19,3c-.27,2.11.77,2.8,4.56,2.87l2.79.08,3.75-3a26.23,26.23,0,0,0,3.72-3.33,6.57,6.57,0,0,0-1.38-1.91A6.2,6.2,0,0,0,245.72,426.3Z" transform="translate(-48.43 -56.19)" style="fill: #3f51b5"/>
    <path d="M419,433.57c-1,.19-2.87.57-4,.88a22.75,22.75,0,0,1-5.93.5l-3.83-.08L404,436.13a5.13,5.13,0,0,0-1.49,3.45c-.23,1.95-.19,2.22.61,2.87a9,9,0,0,0,2.42,1.15c.88.23,1.87.5,2.18.61a30.7,30.7,0,0,0,8.65.12c5.93-1.08,9-4,9.61-9.27l.23-1.87-2.64,0C422.12,433.26,420.09,433.42,419,433.57Z" transform="translate(-48.43 -56.19)" style="fill: #3f51b5"/>
    <path d="M402,446.12a38.63,38.63,0,0,1-2.11,4.6c-1.84,3.48-2.22,6-1.11,7.62.58.8.54.88-.5,1.41a15.87,15.87,0,0,0-5.93,5.44c-.92,1.91-.77,2.41,1,3.75,1,.73,1.53.8,7.05.69,3.29,0,7.77-.31,9.91-.54l3.91-.46,1.91-3.44c2.76-5.09,2.8-5-1-5.21l-3.22-.19.84-1.07c1.27-1.61,2.76-2.18,5.48-2.18,3.56,0,4.25-1.15,4.44-7.2l.08-2.79-6.63,0c-6.62,0-9-.23-12.06-1.3l-1.6-.57Z" transform="translate(-48.43 -56.19)" style="fill: #3f51b5"/>
    <path d="M300.92,459.64c-2.91,1.19-6.51,5.86-6.51,8.42,0,1.8.5,2.18,1.11.8a41.93,41.93,0,0,1,2.61-3.82c2.14-2.88,3.67-3.91,5.63-3.91s1.37-1.34-.77-1.72A4.64,4.64,0,0,0,300.92,459.64Z" transform="translate(-48.43 -56.19)" style="fill: #3f51b5"/>
    <path d="M302.76,465.53a8.47,8.47,0,0,0-2,1.31c-.46.72.69,2.79,2,3.67l1.42,1h-1.73a6.25,6.25,0,0,1-3-.77,9.27,9.27,0,0,0-1.42-.76,3.59,3.59,0,0,0-.76,1.14c-.62,1.15-.62,1.19.65,1.69a2.71,2.71,0,0,0,2.14.19c1.38-.54,1.53-.08.34,1.07a3.24,3.24,0,0,1-2.56,1.07c-1.42,0-1.53.08-1.53,1s.15,1.07,1.3,1.07a4.34,4.34,0,0,0,2.26-.77c.92-.72,1.8-1,1.8-.53,0,1.15-2.26,2.83-3.83,2.83-.92,0-1,.46-.12,1.84,1.92,3.06,4,4.29,7.39,4.29,2.68,0,4-.58,5.63-2.45a6.68,6.68,0,0,0,.15-8.39c-.57-.69-.61-.69-.84.19s-.23.85-.84-.38a1.8,1.8,0,0,0-2-1.22,3.33,3.33,0,0,0-2.68,1.3c-1.38,1.38-1.57,2.26-.84,3.86.88,1.92,3.56,1.65,3.56-.34,0-1.23,1.15-1.38,1.45-.19a3.28,3.28,0,0,1-3.21,3.79,3.13,3.13,0,0,1-2.22-1.34,3.87,3.87,0,0,1-1.19-3.22,4.18,4.18,0,0,1,1.26-3.37c.69-.84,1.46-1.45,1.73-1.34.72.23.53-.26-.5-1.53a3.06,3.06,0,0,1,.15-4.55C306.13,464.27,305.32,464.23,302.76,465.53Z" transform="translate(-48.43 -56.19)" style="fill: #3f51b5"/>
  </g>
</svg>
