<svg id="Слой_1" data-name="Слой 1" xmlns="http://www.w3.org/2000/svg" viewBox="0 0 360.84 339.81">
  <title>dragon</title>
  <path d="M316.78,119.52c-5.23.72-8.43,1.64-16.13,4.59-2.65,1-6.95,2.49-9.6,3.28-5.09,1.54-13,4.27-18,6.23-14.74,5.78-20.79,7.45-26.75,7.48s-11.63-2.16-13-5c-.58-1.28-.52-1.41.64-1.9,2.65-1.08-.84-1.58-3.63-.49-1.78.69-2,.92-4,4.65A14.45,14.45,0,0,1,221.9,144c-3.8,3.38-7,6.53-11.8,11.61-2.24,2.36-4.19,4.43-4.36,4.63-4.16,4.2-6,6.16-7,7.38-5,6.26-5.38,6.46-7.68,4L189.57,170l.17-2.49C190,165,190,165,189,164a3.45,3.45,0,0,1-.9-1.67,4.7,4.7,0,0,1,1.22-1.94c.67-.69,1.13-1.38,1-1.51-.44-.49-2.53.59-3.93,2a12.34,12.34,0,0,0-2.09,3c-.7,1.74-.59,2.39.9,4.72a21.14,21.14,0,0,1,1.54,3.22,24,24,0,0,0,1.92,4c2.18,3.67,2.41,5.05,1.57,9.35s-1.8,8.52-2.42,11.18c-.9,3.71-2.53,12.34-3.37,17.72a84.2,84.2,0,0,1-3.25,14.27,19.81,19.81,0,0,0-1,3.64,2.35,2.35,0,0,1-.64,1.24l-.67.73-.9-2.07c-.47-1.15-1-2.43-1.08-2.85-.49-1.78-1.54-3.15-4.24-5.48-3.17-2.76-3.7-3.51-8.09-11.45-5.81-10.57-7-12.5-10.15-17.32-1.8-2.76-4.07-5.88-5-7a50,50,0,0,1-6.71-10.33c-.47-1.18-1-2.33-1.11-2.59-.2-.46-1.48-1.05-6-2.86a82.48,82.48,0,0,0-9.3-2.75c-9.08-2.17-12.45-4-17-9.45-2.56-3-5-6.53-5.47-8-.23-.65-.49-.88-1.1-.88s-2.71-.4-5-.82a67.54,67.54,0,0,0-10.91-1.15c-11.14-.49-13.58-1.41-23.49-8.6-5.18-3.77-9.83-6.59-10.18-6.2s1.37,5.55,3.43,9.45c2.65,5,4.22,8.6,4.22,9.65,0,2.46-3.23,2.59-7,.26-.7-.4-.81-.36-.81.16,0,.86,1.19,2.13,3.43,3.61a43.89,43.89,0,0,1,5,4.2c1.54,1.51,6,5.38,9.83,8.63,7,5.84,7,5.9,6.89,7a8.45,8.45,0,0,0,1.42,5.08,11.59,11.59,0,0,0,2.56,1.9c1,.59,2.71,1.68,3.84,2.43s3,1.94,4.07,2.62c2.68,1.64,3.55,2.46,9.36,8.76,8.09,8.8,11.92,13.36,14.57,17.29l5.29,7.71a132.92,132.92,0,0,1,8.2,13c3.52,6.17,5.18,9.35,5.18,9.88a13.6,13.6,0,0,1-1,2.65,57.15,57.15,0,0,0-2.3,6.53c-1.25,4.3-1.28,4.33-2.38,4.76-1.89.75-1.86.79-1.86-2.66,0-1.84-.12-3.12-.29-3.12-.53,0-2,2.66-2.62,4.76-.78,2.69-1.54,3.05-2.3,1.05a21.53,21.53,0,0,1-.87-3.12c-.2-.91-.49-1.7-.67-1.7-.52,0-1.19,2.49-1.34,5.18a12.15,12.15,0,0,1-.37,2.89c-.15.1-.5,0-.79-.17-.49-.29-.52-.55-.29-2.39a18,18,0,0,1,.38-2.49c.06-.2,0-.4-.23-.4-.56,0-2.33,2.23-3.26,4-.58,1.14-1,1.57-1.45,1.57s-.7-.23-1-2.23c-.56-3.45-.61-3.67-.93-3.67-.47,0-1.66,3.24-1.89,5.11-.18,1.61-.73,2.5-1.14,1.77a.83.83,0,0,0-.7-.32c-.58,0-1-1.55-.72-2.43a.58.58,0,0,0-.15-.66c-.32-.23-1.42,1.25-1.66,2.3-.17.79-.87,1.28-1.13.79s4.25-5.45,5.06-5.74c.35-.1.61-.37.61-.53,0-.46-3.55,1.18-5.76,2.66s-3.69,1.8-2.93.75a5.67,5.67,0,0,1,1.42-1l1-.52-1.22-.1a4,4,0,0,0-2.39.59c-.93.52-1.33.59-1.77.33s-.58-.46-.58-.59a6.3,6.3,0,0,1,1.45-2.27c.38-.36.35-.39-.29-.42a2.94,2.94,0,0,0-1.6.95c-.84.92-.9.92-1.89.46l-1-.49,1-1a3.45,3.45,0,0,1,1.37-.95c.23,0,.44-.16.44-.33,0-.59-2-.36-3.35.4l-1.31.72-.78-.85c-.76-.86-.76-.89-.23-1.81a7.62,7.62,0,0,1,1-1.31c.4-.36.37-.39-.18-.43a3.6,3.6,0,0,0-1.69,1c-1,1-1,1-1.77.46s-.73-.69-.55-2.07A6.23,6.23,0,0,1,87,248c.64-.59.58-1-.08-1s-2.27,1.5-2.94,3-1,1.77-2,1.28c-.69-.33-.87-.66-1-1.87a13.82,13.82,0,0,1,.58-6c.38-.82.41-1,.09-1-1.08,0-2.36,2.66-2.68,5.65a10.38,10.38,0,0,1-.29,1.9s-.67-.3-1.4-.66c-1.16-.59-1.39-.88-1.92-2.49a12,12,0,0,1-.61-3.08c0-.73-.11-1.32-.29-1.32-.46,0-.67,1.54-.52,3.74l.15,2.07L72.71,248a6.91,6.91,0,0,1-1.83-.43c-.64-.39-.93-2.2-.73-4.27.12-.95.06-1.6-.12-1.6-.52,0-1.36,2-1.57,3.8l-.2,1.81-1.05-.23a9.62,9.62,0,0,1-1.28-.36c-.38-.23-.26-1.38.21-2.4l.43-1-.7.39a3.88,3.88,0,0,0-1.3,1.77c-.47,1.12-.7,1.35-1.2,1.22-.66-.2-.81-1.64-.26-2.79.18-.36.26-.72.18-.79-.29-.33-1.92,1.61-2.24,2.62s-.47,1.12-1.51,1.25c-1.31.13-1.52-.13-1.52-2,0-1.47-.52-1.15-1,.63-.24.78-.44,1.64-.53,1.83s-.58.43-1.28.43a4.64,4.64,0,0,0-1.77.33c-.52.33-.55.19-.55-3.35,0-5.15.37-7.38,1.94-11.18,1.89-4.63,2-6.63.76-11.22a7.46,7.46,0,0,0-2-3.28,10.66,10.66,0,0,1-2.32-3.94,9.75,9.75,0,0,1-.67-2.86c.08-.32.06-.59-.09-.59-.79,0-1.08,6.79-.32,7.65a2.28,2.28,0,0,1,.32,1.24,1.84,1.84,0,0,0,.29,1.12.88.88,0,0,1,.12.89,2.42,2.42,0,0,0,.17,1.41c.32.65.26.91-.41,2a5.41,5.41,0,0,0-.75,2,3.2,3.2,0,0,1-1.16,1.73c-.85.76-1.17,1.28-1.17,1.94a2.38,2.38,0,0,1-1,1.8c-.84.76-1,1-.84,1.84a1.58,1.58,0,0,1-.61,1.74,1.59,1.59,0,0,0-.58,1.8c.09.59.06,1.09-.09,1.09s-.49.36-.75.82a1.34,1.34,0,0,0-.15,1.51c.26.59.2.82-.44,1.57s-.72,1-.46,1.84.2,1.05-.55,1.93a2.76,2.76,0,0,0-.82,2.43,2.72,2.72,0,0,1-1,2.56,4.17,4.17,0,0,0-1.08,1.64c0,.26-.12.46-.26.46-.32,0-.5-.53-.79-2.46-.17-1.18-.23-1.22-.46-.53a21.93,21.93,0,0,0-.38,3c-.49,7.05-.47,7-1.6,4A35.9,35.9,0,0,0,34,254.87a17.38,17.38,0,0,1-2-5.71,28.92,28.92,0,0,0-4.77-9c-1.37-1.61-4.68-3.93-5-3.54-.09.1.23.72.73,1.41a18.46,18.46,0,0,1,2.24,4.92c.08.43.32.76.46.76s.26.29.26.62.09.72.24.79.17.65-.06,4.06a6.06,6.06,0,0,1-.41,1.94c-.26.56-.26.79.09,1.11s.35.53,0,1.38-.41,1,0,1.51.38.69.17,1.31a1.24,1.24,0,0,0,.15,1.35,1.92,1.92,0,0,1,.26,1.38,1.57,1.57,0,0,0,.35,1.37,1.56,1.56,0,0,1,.29,1.51,1.68,1.68,0,0,0,.26,1.45c.41.46.41.62,0,1.67-.52,1.38-.55,2.39-.11,2.56.2.06,0,.62-.44,1.38-1,1.57-1,2.06,0,2.56.64.32.73.52.55,1.37a9.39,9.39,0,0,1-.58,1.91c-.41.85-.38.91.47,1.41.58.32.81.65.67.91a23.79,23.79,0,0,0-2.13,4.37,4,4,0,0,0,.76,1.41,2.52,2.52,0,0,1,.55,2.43,14.59,14.59,0,0,0,.18,5.38,2.79,2.79,0,0,1,.17,1.31c-.35.36-1.69-2.56-2.3-5.05a10.53,10.53,0,0,0-.87-2.73,12.54,12.54,0,0,0-.23,3.45,13.32,13.32,0,0,0,.73,5.51,10.93,10.93,0,0,0,1.74,3.18c.55.59.93,1.18.87,1.31s.41.79,1,1.48A5,5,0,0,1,29.35,301a4.79,4.79,0,0,0,1,1.74,5.61,5.61,0,0,1,1.22,4.66,34.15,34.15,0,0,0-.37,3.41L31,313.2l1.4.1,1.42.1.93,2.46c.9,2.42.93,2.46,2.56,3.11,1.4.56,1.66.59,1.89.17s.29-.27.44.39a2.45,2.45,0,0,1,0,1.21c-.11.2.32,1,1,1.74a19.09,19.09,0,0,1,3.41,6.92c.55,2.33.17,2.76-1.34,1.55-.44-.36-.87-.56-1-.46-.23.26,1.13,4.43,2.3,7.08a24.06,24.06,0,0,1,1,2.4c0,.52-.82-.07-2.3-1.64a16.55,16.55,0,0,0-1.86-1.81c-.41,0-.18,1,.87,4,2.73,7.84,6.8,12,14.86,15.15,3.11,1.22,4.42,1.45,4.42.82a10.17,10.17,0,0,0-1.83-2.39c-2.39-2.63-2.74-3.58-2.24-6a6,6,0,0,1,.78-2.17c.29-.26.29-.42.09-.59s-.12-1.31.26-1.31a5.63,5.63,0,0,1,1.19,2.39,2.39,2.39,0,0,0,.44,1c.38.56.52.59,1.16.2s.93-.33,2.3.26a4.09,4.09,0,0,0,1.72.49,12.87,12.87,0,0,1,2.2,2.13,17.32,17.32,0,0,1,4.25,8.37c.9,3.51,1.43,1.54.58-2.17a23.5,23.5,0,0,0-3.52-7.8,9.25,9.25,0,0,1-1.28-2.2,7.17,7.17,0,0,0-.58-1.74,3.06,3.06,0,0,1-.43-1.61,2.88,2.88,0,0,1,1.25-.65,11.14,11.14,0,0,0,1.74-.76c1.63-.88,7.5,1.68,9.89,4.3s1.92.85-.41-2.17a20.59,20.59,0,0,0-6.8-5.31,5.78,5.78,0,0,1-1.66-.85,10.45,10.45,0,0,0-1.34-1.09c-1.51-1.05-2.76-4.26-3-7.67-.73-9.61.35-16.08,3.66-22.37a31.63,31.63,0,0,1,2.85-4.6,29.81,29.81,0,0,0,3.81-5.74c1-2.1,1.83-4.59,1.48-4.59-.14,0-.26.16-.26.36,0,.52-3.26,4.26-4.8,5.51-.72.59-1.31,1-1.31.85a26.24,26.24,0,0,1,2.36-4.13,4.58,4.58,0,0,0,.84-2.1,27.39,27.39,0,0,1,2.82-6.07c.29-.36,2.24,2.59,3.35,5.09.64,1.44,1.8,3.74,2.56,5.08S85,300,85.68,301.26a27.92,27.92,0,0,0,6.28,8.2c3.63,3.54,8.69,7.38,11.66,8.82,2.47,1.22,2.59,1.32,5.55,4.79a43.86,43.86,0,0,0,3.17,3.35c1.43,1.18,2,2.07,4.19,7.05,2.41,5.48,5.38,9.61,7.24,10.14,1,.29.81.69-.7,1.28-2.59,1-10.15,7.05-15.73,12.56-4.33,4.3-11.43,9.52-14.92,11-1,.46-2.24,1-2.61,1.25s-.85.49-1,.59-1.11.82-2,1.57a81.27,81.27,0,0,0-8.69,7.62c-1.8,1.93-4.65,3.64-6.08,3.64a3,3,0,0,0-1.28.29,23.65,23.65,0,0,1-4,.82,23.36,23.36,0,0,0-4.28.89c-1.19.62-1.94,2.06-2.12,4.13a21.64,21.64,0,0,1-.43,2.86c-.38,1.31-.32,4.36,0,4.65.21.14.24.73.12,1.74-.49,3.51.15,6,1.74,6.86a3.3,3.3,0,0,0,2.59.2c.67-.3.58-.79-.11-.79-.93,0-2-1.44-2-2.63s.47-2.29,1-2.29c.84,0,2.44-2.73,2.44-4.2a2.58,2.58,0,0,0-.58-1.31c-.76-.89-.73-.95.26-1.22.64-.16,1,0,1.63.63a3.3,3.3,0,0,0,4.65-.14,5.35,5.35,0,0,1,1.34-1c.35,0-.18,1.44-1.72,4.59s-2.12,5-1.92,6a23.22,23.22,0,0,1,.15,3.15c0,2.29,0,2.46.93,3.37A9.53,9.53,0,0,1,72,412.07a4.78,4.78,0,0,0,1,1.64c.81.56,1.86,0,2.56-1.41.78-1.6.61-2.06-.41-1-.52.56-.73.62-.76.29a2.77,2.77,0,0,1,.59-2.09c1.3-1.71,1.33-3.65,0-4.43-1-.59-.46-2.82,2.1-8.8,1.37-3.24,1.92-3.44,2.47-.88a12.54,12.54,0,0,1-.78,6.89c-1.84,4.53-2.36,6.62-2,8.3a4.08,4.08,0,0,0,.78,1.74,2.63,2.63,0,0,1,.76,1.21c.29,1,1.22.92,1.57-.2a6.79,6.79,0,0,1,1.19-1.93,4.7,4.7,0,0,0,.93-1.48c0-.23.06-1.24.12-2.23a25.31,25.31,0,0,1,1.48-6.92c.21-.49.55-1.44.79-2.17.35-1.18,3.66-6.07,6.8-10,1.16-1.51,1.69-2.46,4.07-7.35,1-2,1-2.07,3-2.73a17,17,0,0,1,2.32-.65c.79,0-.17,5.51-1.57,9.09-1.28,3.21-.84,3.57,1.28,1.08,1.28-1.51,2.3-3.51,4.8-9.58.64-1.51.93-1.9,1.66-2.07a1.29,1.29,0,0,1,1.22.17c.58.62.35,8.49-.35,12.36-1,5.25-.81,5.94.82,3.87,1.8-2.32,3.28-6.59,4.68-13.45,1.1-5.47,1.1-5.41,2.26-6,1-.46,1.08-.42,1.4.07.49.79.81,4.95.55,7.87-.23,2.76.06,3.15,1,1.41.73-1.37,1.4-4.69,1.63-8.23l.2-2.79,2-.62,2-.66.17.69a10.76,10.76,0,0,1,.18,2c0,1.67.26,1.34.87-1.18l.49-2,2.45-.88c1.68-.59,2.5-.79,2.64-.53s.38.1.73-.39c.46-.66.78-.76,2.64-.72a11.13,11.13,0,0,0,6.4-1.9,3.39,3.39,0,0,1,1.51-.69,3.59,3.59,0,0,0,1.49-.53c.49-.26.93-.46,1-.39s.37.75.72,1.57c1,2.27,6,8.43,8.2,10.07.61.46,1.11,1,1.11,1.09s-.53,1.54-1.19,3.15a67.16,67.16,0,0,0-3.12,8.33c-.35,1.18-1.13,4.26-1.77,6.89-2,8.07-3.78,14.1-5.29,17.48a24.43,24.43,0,0,0-1.43,3.71,17,17,0,0,1-1.48,3.08c-2.67,4.76-3.69,8.56-4.19,15.91-.11,2-.11,2-2.24,4.24a19.1,19.1,0,0,1-3.43,2.91,11.78,11.78,0,0,0-2.27,1.55c-1,.95-1,.95-4.15,0a3.91,3.91,0,0,0-2.5-.06,2.16,2.16,0,0,1-1.72,0c-1.69-1.05-4.74-.79-6.57.59-1.37,1-2.85,3.28-2.85,4.33,0,.75.06.72,1.45-.59a4.21,4.21,0,0,1,2.88-1.54c2.36-.23,2.71.13,1,1.11s-3.61,3.12-3.61,4.07.15.82,1,0a7.25,7.25,0,0,1,1.52-1.18c.93-.56,3.46-.92,3.22-.46s.9,1.93,1.86,2.49a11,11,0,0,0,3.67.66,9.89,9.89,0,0,1,3.08.42c.17.2.73.2,1.34,0,1.51-.4,1.51-.4,1.13.72-.32.92-.29,1.08.35,1.64a3.2,3.2,0,0,0,3.17.33c.29-.2.15-.4-.58-.66-.9-.36-.93-.43-.41-.85a4.53,4.53,0,0,1,2.39-.46c1.86,0,1.89,0,4.1-2,3.17-2.89,3.22-2.92,5.61-3.09a5.49,5.49,0,0,0,2.91-.79c.75-.62,2-4.1,1.83-5-.06-.26.23,0,.7.52,1,1.28,1.86,1.77,2.58,1.58s1.28.26,1.69,1.67a4.14,4.14,0,0,1-1.05,4.33l-.93,1.08h.93c1.11,0,3.06-1.83,3.46-3.21a9.84,9.84,0,0,0-1.28-7c-.67-.82-.84-4.86-.23-4.86a.45.45,0,0,1,.44.4c0,.52,1.6,1.57,2.41,1.57.47,0,.52.1.26.4-.7.78-.26,3.87.55,3.87.18,0,.24-.13.12-.33-.38-.66.67-2.53,1.6-2.92,1.31-.49,1.66-.46,2.3.26,1.34,1.51,3.43,2.1,4.71,1.35a4.72,4.72,0,0,0,1.13-1.74c.47-1.08.76-1.41,1.37-1.48.84-.06,1.86,1,2.41,2.49.41,1.09,1.22.79,1.83-.68.27-.66.64-1.22.79-1.22.49,0,1.28-2.1,1.19-3.21a4.66,4.66,0,0,1,2-4.3,25,25,0,0,0,3.17-3.18,13.14,13.14,0,0,1,1.92-2.1,2.76,2.76,0,0,0,.75-.82c.32-.46.76-.82,1-.82.47,0,1.95,3.15,2.41,5.18.18.76.47,2,.61,2.69.38,1.58.67,1.64,1.2.26s.46-5.44-.18-8.89l-.52-2.88.73-.86c.72-.82.75-.82,1.51-.23,1.39,1,3.81,4.89,5.7,9.16,1.1,2.46,1.57,2.92,1.89,1.77.69-2.4-.18-6.79-2.36-12.07-.7-1.71-1.28-3.19-1.28-3.29a5.69,5.69,0,0,1,1.31-1.14c1.31-.92,1.34-.92,1.92-.33.32.33,1.25,1.61,2.09,2.82,1,1.44,1.6,2.1,1.78,1.9.43-.49-.26-3.15-1.43-5.34l-1-1.91,1.14-1.15a5.39,5.39,0,0,0,.7-6.85c-.67-1.05-.5-1.58,1.48-4.92a28.58,28.58,0,0,0,1.89-3.48c0-.92-2,.1-4.39,2.2l-1.66,1.41-.17-1c-.41-2.33-.21-3.34,1.13-5.58,1.22-2.06,1.6-3.21,1.1-3.21a8,8,0,0,0-1.65.82,4.7,4.7,0,0,1-1.54.69,5.51,5.51,0,0,1-.27-1.25c-.14-.92,0-1.44,1-3a9.08,9.08,0,0,1,1.34-1.87c.64,0,3,2.33,4.28,4.26a27.11,27.11,0,0,0,10.9,9.58l2.62,1.18.78,4.2c1.48,8.17,1.25,9.68-2.85,17.39a88,88,0,0,0-3.92,8.13,15.55,15.55,0,0,1-1.95,3.61c-.58.76-1.4,1.87-1.77,2.5a9.52,9.52,0,0,1-2,2.23c-.73.59-1.89,1.54-2.56,2.1-1.25,1.05-1.77,1.18-6.43,1.9a8.69,8.69,0,0,0-3.4,1.15,4.92,4.92,0,0,1-2.09.82c-.79,0-3.14,1.21-4.83,2.46s-2.5,4.85-1.36,6.95c.64,1.18,1.3,1.48,1,.43a4.27,4.27,0,0,1,2.85-4.76c.93-.26.93-.26.35,1.25-.81,2.2-.32,2.52,1.19.85l.93-1,1.28,1a6.47,6.47,0,0,0,2.21,1.21c1,.23,1,.23.41.92a4.3,4.3,0,0,0-.64,3.84c.5,1.31.76,1.22,1.05-.43a2.27,2.27,0,0,1,1.34-2c1.25-.76,2.73-.56,3,.36.2.75,1.95,1.67,3.23,1.67.75,0,1.31-.29,2.27-1.31a4.51,4.51,0,0,1,1.77-1.31,3.22,3.22,0,0,0,1.48-.82,2.86,2.86,0,0,1,2.07-.79c2.93.1,3.54.82,2.29,2.69-1.68,2.49-.23,4.49,2.65,3.64.76-.23.61-.79-.2-.79s-1.05-.65-.56-1a4.89,4.89,0,0,1,2-.3,2.39,2.39,0,0,0,2.53-1.18,4.73,4.73,0,0,0,1-1.48c0-.16.32-.29.7-.29s1.36-.72,2.73-2.23c1.63-1.77,2.09-2.46,2.24-3.51.47-3,2.21-9.19,2.73-9.78.35-.39,2.62.89,4.05,2.26s1.8,1.42,1.8.2c0-1.74-.58-3.21-2.18-5.44a17.48,17.48,0,0,1-1.6-2.56,4.34,4.34,0,0,1,1-2c.75-.59,4.91.88,7,2.52,1.46,1.12,1.86,1.08,1.86-.1,0-1.44-1.65-3.87-4.12-6.07a13.91,13.91,0,0,1-2.42-2.59,2.22,2.22,0,0,1,.29-1.44c.41-.69.64-.79,1.49-.66a11.41,11.41,0,0,1,2.64,1.05,5.46,5.46,0,0,0,1.75.69,1.37,1.37,0,0,0-.06-.85c-.18-.59-1.05-1.48-3.61-3.61-.55-.46-.58-.62-.29-2,.35-1.7.15-4.43-.38-5.18s0-.39,3.26,2.36a60.56,60.56,0,0,0,9,6.14l4.07,2.55c2.64,1.71,3.22,2,11.1,6,6.75,3.41,16.29,6.66,22,7.45,1.45.19,2.82.42,3.05.49s12.39,2,16.87,2.62c.87.14,6.25.27,11.92.33s11.08.23,12,.33c3.69.46,14.91-.95,22.18-2.79,13.18-3.28,14-3.61,19.81-7.28,4.68-3,6.39-4.43,8.92-7.51,3.06-3.74,3.84-5.65,3.75-9.42,0-2-.23-3-1.36-6.2a21.38,21.38,0,0,0-3.52-6.76c-2.94-4-5.47-5.8-9.39-6.82a8.47,8.47,0,0,1-3.06-1.21c-.2-.4-.29-.4-.49,0s-.35.33-.7-.16-.43-.46-.43-.26c0,.62-1.11.46-1.26-.2s-.14-.52-.17,0c0,.82-.76.72-1.13-.16l-.32-.73v.79c0,.92-.47.62-.7-.46-.15-.62-.15-.62-.35.07-.29,1-.55.95-.93-.17l-.32-.88,0,.92c0,1.11-.64,1-.93-.13-.2-.76-.2-.76-.23-.07,0,1.08-.47.92-.85-.33l-.29-1.05,0,1.05c0,.72-.17,1.08-.43,1.08s-.47-.42-.55-1.08l-.12-1.05,0,1.05c-.09,1.64-.87,1.41-1.13-.33l-.24-1.37-.14,1.24c-.18,1.58-.67,1.58-.9,0l-.18-1.24-.06,1.24c-.05,1.74-.69,1.41-.93-.46l-.14-1.44-.15,1.25c-.14,1.57-.67,1.74-.78.23-.09-1.09-.61-2.23-.55-1.28,0,1.28-.12,2.26-.38,2.26s-.29-.69-.32-1.57l0-1.55-.29,1.38c-.38,1.9-1.11,1.58-1.14-.52l0-1.51-.29,1.41c-.37,1.9-1,1.61-.9-.46l.06-1.61-.32,1.54c-.41,2.07-.81,2-.84-.16,0-1.8-.12-1.77-.41.16s-.73,1.51-.76-.49l0-1.7-.35,1.44c-.5,2.1-1,2.07-.88,0,.09-1.68.09-1.71-.2-.59-.58,2.13-.67,2.13-.84.16-.12-1.08-.21-1.61-.24-1.15-.17,2.63-.9,3.09-1,.56l0-1.71-.3,1.58c-.37,2-.95,1.87-1-.2,0-1.54-.41-2.66-.41-1.18,0,1.12-.32,2.26-.61,2.26s-.29-.78-.29-1.74-.09-1.41-.18-1-.17,1-.26,1.41-.26.72-.43.72-.21-.63-.09-1.71.11-1.61-.15-1.44a1.52,1.52,0,0,0-.32,1c0,1-.29,1.8-.64,1.8-.14,0-.23-.72-.2-1.64a4.72,4.72,0,0,0-.12-1.87c-.11-.1-.2.16-.2.59,0,1.12-.32,2.26-.61,2.26s-.26-.78-.29-1.74l0-1.7-.26,1.31c-.47,2.23-.9,2.23-.73,0,.18-2-.14-1.8-.52.26-.32,1.64-.82,1-.61-.78.26-2-.26-2-.56,0-.26,1.84-.75,1.34-.78-.76l0-1.7-.32,1.38c-.38,1.9-.73,1.77-.84-.33l-.12-1.71-.23,1.41c-.38,2.07-.87,2.17-.64.13s-.23-2.32-.52-.39-.76,1.64-.79-.26c0-1.58-.09-1.58-.38,0s-.84,1.11-.67-.36a4.16,4.16,0,0,0-.11-1.71c-.18-.33-.26-.2-.26.43,0,1-.27,1.9-.59,1.9a3.76,3.76,0,0,1-.11-1.74l.11-1.7-.37,1.37c-.53,2-.79,2.07-.82.07l0-1.77-.32,1.34c-.49,1.91-1.1,1.54-.87-.46.17-1.7-.15-1.7-.47,0s-.75,1.15-.69-.65l.06-1.54-.32,1.21c-.47,1.74-.91,1.54-.64-.26.14-1.12.11-1.48-.15-1.31a1.23,1.23,0,0,0-.32.85c0,.88-.32,1.67-.58,1.47a3.23,3.23,0,0,1-.12-1.57c.12-1.38,0-1.25-.64.59-.17.49-.29.2-.4-1.15-.12-1-.21-1.47-.24-1.08-.08,1-.35,1.74-.67,1.74-.14,0-.2-.63-.08-1.41.11-1,.08-1.25-.15-.89a2.38,2.38,0,0,0-.32,1.05c0,.33-.11.59-.29.59s-.32-.69-.32-1.57c0-1.28-.06-1.38-.23-.56-.23,1.31-.73,1.11-.93-.39-.09-.69-.21-.92-.23-.53s-.15.76-.32.76-.41-.86-.32-2c0-.36,0-.36-.27.1s-.4.45-1.36-.66a37.14,37.14,0,0,1-4.07-8.46c-1-3.06-1.63-9-2-17.23a20,20,0,0,1,.29-5.9c.23-1,.76-3.41,1.16-5.35a20.91,20.91,0,0,1,1.92-5.84c1.83-3.54,3.38-5.71,4.86-6.82.75-.56,1.86-1.38,2.44-1.84,2-1.54,6.78-3.31,8.52-3.18,2.21.16,9.28-1.51,13.87-3.25,2.09-.79,6.63-3.54,6.63-4,0-.17-.35-.23-.78-.13-2.83.65-8.84,1.61-9,1.41s.23-.69.73-1.28a3.93,3.93,0,0,0,.93-1.51c0-.92,3.05-2.95,6-3.94,2.3-.78,4.19-1.74,4.33-2.19.21-.6,0-.69-2.06-1a5.38,5.38,0,0,1-1.83-.39,11.33,11.33,0,0,1,1.3-1.8,10.58,10.58,0,0,0,1.31-1.87c0-.17.7-.69,1.54-1.18,1.75-1,3.7-2.73,3.7-3.12,0-.17-.61-.33-1.37-.39-1.16-.07-1.42-.23-1.48-.79a60,60,0,0,1,1.25-6.76c1.89-8.79,2.24-12.07,1.33-12.07a28.92,28.92,0,0,0-2.47,4.59q-7.28,15.15-14.86,20.54a51.61,51.61,0,0,1-5.9,3.93,9.43,9.43,0,0,1,.38-1.51,12.78,12.78,0,0,0,.44-1.67c0-.66-.85-.2-2.68,1.44-1.07.92-3,2.56-4.22,3.58a25.22,25.22,0,0,0-5,5l-.67,1-.81-1.15c-.7-.95-3.23-2.92-3.23-2.49a6.38,6.38,0,0,0,1.19,1.05c1.57,1.25,2.53,2.75,2,3.15-.75.52-1.31.29-3.49-1.31a16.76,16.76,0,0,0-3.84-2.17c-1.89-.62-2.61-.46-.87.16a15.26,15.26,0,0,1,4.89,3.06l1.13,1.11-1.13.66-1.11.65-1.89-.95a20.16,20.16,0,0,0-8.26-2.23c-2.7,0-2.26.53.56.72a16.44,16.44,0,0,1,7.29,2.63l1,.65-1,.76c-.75.59-1.13.69-1.8.46a26.65,26.65,0,0,0-8.46-1.15c-2,.23-6,1.44-6,1.87a3.77,3.77,0,0,0,1.69-.26,17.46,17.46,0,0,1,8.92.23,13.1,13.1,0,0,1,2.56,1c.15.13-.14.56-.61.95-.76.59-1.28.69-3.63.69a17.07,17.07,0,0,0-9.13,2.36c-2.65,1.45-3.32,2.33-.88,1.12a15.36,15.36,0,0,1,8-1.87,25.55,25.55,0,0,1,3.17.16c.09.07-.18.66-.55,1.31a2.55,2.55,0,0,1-1.54,1.35c-5.3,1.21-8.64,2.79-11.05,5.28-1.6,1.61-1.43,1.58,1.1-.29a14,14,0,0,1,6.89-3,14.53,14.53,0,0,1,2.56-.33,3.77,3.77,0,0,1-.41,1.21c-.34.86-.9,1.38-2.23,2.1a18.39,18.39,0,0,0-6.26,5,11.34,11.34,0,0,0-1.22,1.87,12.47,12.47,0,0,0,1.78-1.78,15.61,15.61,0,0,1,6-4.1l.66-.19-.61,1.9a5,5,0,0,1-2.06,3,17.59,17.59,0,0,0-4.39,5.31l-.52,1.12.66-1a22.35,22.35,0,0,1,4.28-4.59c.84-.46.9-.46.9.07a12.48,12.48,0,0,1-.38,2.1,4.59,4.59,0,0,1-1.86,2.85c-1.42,1.28-3,3.28-3,3.84,0,.13.52-.36,1.13-1.08,1.08-1.25,2.85-2.56,3.08-2.3a5.49,5.49,0,0,1-.06,1.51,2.22,2.22,0,0,1-1.07,2c-.93.66-2.76,2.66-2.42,2.66a6,6,0,0,0,1.26-.82c1.48-1.12,1.65-1.05,1.42.55a4.7,4.7,0,0,1-1.37,2.66c-1.36,1.48-1.28,2,.12.72l1-.92.09,1.22a2.33,2.33,0,0,1-.82,2.2c-.93,1.08-1,1.8-.06.85a1.64,1.64,0,0,1,.88-.56c.55,0,.4,1.64-.24,2.53-.78,1.15-.72,1.54.15.88l.73-.52v1.41a6.8,6.8,0,0,1-.44,2.26c-.58,1.12-.58,2,0,1.12.38-.56.44-.56.47-.07a9.34,9.34,0,0,1-.18,3.35c-.17.46-.14.56.09.39.43-.29.75,1.18.52,2.43-.09.56,0,1,.12,1,.38,0,.93,2.53.72,3.28-.11.46-.05.66.27.66s1,2,.61,2.59c-.09.2,0,.36.23.36.46,0,.87,1.68.58,2.53-.12.33-.09.46.15.29.46-.32,1.07,1.09.67,1.55s-.38,1,.14.52c.38-.33.49-.33.73.07.93,1.67-.18,2.59-3.11,2.59a15.2,15.2,0,0,0-3.46.36,7.64,7.64,0,0,1-6-.36c-2.71-1.71-3-4.59-.76-8.47,1.22-2.16,1.86-2.69,4-3.47.26-.1.5-.3.5-.46,0-.36-2.3,0-7.07,1-4.13,1-5.58.85-7.33-.49a6.14,6.14,0,0,1-1.89-4.24,9.56,9.56,0,0,1,2-5.28,8.2,8.2,0,0,1,3.84-3.48c2.41-1.37,2.44-1.41,1.31-1.37a21.38,21.38,0,0,0-2.91.33c-1,.16-3.11.42-4.8.59l-5.09.49-2,.19-1.08-1.57c-1.72-2.56-1.86-3.08-1.42-5.41a11,11,0,0,1,5.11-7.45,20.2,20.2,0,0,1,2.71-1.15c.9-.19,1.31-.82.55-.82a45.48,45.48,0,0,0-6.16,1,13.19,13.19,0,0,1-6,.29c-2.15-.33-2.21-.39-2.82-1.64-.34-.69-.49-1.28-.34-1.28.49,0,0-.65-.56-.69a6.29,6.29,0,0,1-1.89-1.77l-1.39-1.74.43-1.93a6.06,6.06,0,0,1,1.2-2.66c.4-.39.66-.85.58-1.05-.38-.69,4.56-3.28,6.25-3.28.32,0,.58-.16.58-.36,0-.59-5.2-.1-7.07.65a8.5,8.5,0,0,1-2.55.66,7.13,7.13,0,0,0-2.33.53c-1.83.68-2,.65-3.32-.86A39.46,39.46,0,0,0,245.6,321a16.09,16.09,0,0,1-2.73-2.43c-.23-.69.73-3.41,1.54-4.39a10.62,10.62,0,0,1,2.3-1.81c2.53-1.54,2-1.74-1.83-.65l-1.52.42.7-1.51a43.64,43.64,0,0,0,3.69-15.25c.15-2.2.59-5.84.91-8.1a85.28,85.28,0,0,0,.55-15.26,49.86,49.86,0,0,1,1.57-12.53,42.28,42.28,0,0,1,8.81-14.76c6.45-7.35,19.92-16.44,30.15-20.34,8.43-3.22,8-3.15,18.7-3.25,8.52-.06,10.35,0,11.69.66a1,1,0,0,0,.81-.07c.82-.59-.43-2.33-6.66-9.35-3.49-3.93-6.83-7.81-7.38-8.56a10.11,10.11,0,0,1-2.18-6.2c0-4.63,3-7.81,10.17-10.83,5.91-2.49,11.58-3.08,19.49-2,2,.23,4.94.49,6.54.56,2.76.1,2.91.06,3-.59s-.32-1-1.74-2.1c-1-.79-2.59-2-3.49-2.82a78.1,78.1,0,0,0-10.85-7.35c-1.6-.95-3.81-2.3-4.88-3s-2.07-1.25-2.12-1.25a33.38,33.38,0,0,1-5-4.06,30.29,30.29,0,0,1-4.71-6.76c-2.79-6.24-3.69-15.19-2.06-21a18.78,18.78,0,0,1,6.57-9.35c.55-.39,2.33-1.51,4-2.43s3.2-1.83,3.44-2a10,10,0,0,1,1-.59,5.3,5.3,0,0,0,1.28-1.11l.67-.82-.87-.53C324.05,118.93,321.12,118.93,316.78,119.52ZM81.37,178.7c.93.85,1,1.67.24,1.67-.53,0-2-1.57-2-2.13C79.66,177.48,80.27,177.68,81.37,178.7Zm53,70.63c.09.23.47,1.31.87,2.43l.7,2-.64.69a7.53,7.53,0,0,0-1.31,3.8c0,.3-.08.53-.23.53a12.1,12.1,0,0,1-.29-3.06c0-1.64-.15-3.41-.23-3.93C133,250,133.89,248,134.41,249.33Zm-61.3,32.44c.41.59.64,1.15.53,1.28-1.51,1.44-2.79,2.33-3.11,2.2a6.68,6.68,0,0,0-2.24.1c-2.18.36-2.33.19-2.24-2.13l.09-1.64,1.3-.4a14.28,14.28,0,0,1,3.12-.39C72.21,280.75,72.39,280.82,73.11,281.77Zm-14.39,60.3c0,.39-.58.82-.78.59s.17-.89.52-.89A.28.28,0,0,1,58.72,342.07Zm243.67,38.31a4.25,4.25,0,0,1-.78,1.19c-.82,1-.59.95.84-.17l.76-.59,1,1.54a33.93,33.93,0,0,0,2.5,3.22,9.7,9.7,0,0,1,1.49,1.87c0,.13-.29.26-.64.26a6.4,6.4,0,0,0-2,.69,7.62,7.62,0,0,1-2.33.69c-2.38,0-4.94-2.07-4.94-4,0-1.34,1.45-4.16,2.33-4.52S302.39,380.09,302.39,380.38Zm8.23,9,2.12,1.8.85.72h-1.66c-1.86,0-3-.33-3.23-1.08-.17-.46.29-2.49.55-2.49A15.57,15.57,0,0,1,310.62,389.41Zm-133.32.65c.78,1.28,1.83,3.91,3.75,9.29a7.14,7.14,0,0,1,.49,3.74c-.17,1.64-.4,2-3,5.57-1.57,2.1-3.49,4.59-4.3,5.58l-1.43,1.8-.49-1.64a40.63,40.63,0,0,0-2.65-5.51L167.5,405l.47-1a18.64,18.64,0,0,1,1-1.93l.58-1,1.72,1.94,1.74,1.9-.49-1.31a24.9,24.9,0,0,0-1.19-2.69,8.23,8.23,0,0,1-.7-1.67,39.12,39.12,0,0,1,2.53-5c.06-.1.26.1.41.43.49.95.81.62.49-.53s-.2-1.31.93-3.28a19.43,19.43,0,0,1,1.31-2.2A8.82,8.82,0,0,1,177.3,390.06ZM68,389.57a3.48,3.48,0,0,0-.88.59,9.12,9.12,0,0,1-1.65.92l-1.22.56.32-.82a2,2,0,0,1,1.22-1.12C66.78,389.37,68.75,389.27,68,389.57Zm99.64,21.49a32,32,0,0,1,2.94,3.8l1.31,2.1-1.72,1.94a16.66,16.66,0,0,1-1.86,1.93c-.32,0-3.78-8.33-3.78-9.08,0-1.05.61-2.4,1.08-2.4A7.85,7.85,0,0,1,167.67,411.06Zm-4.44,10.1c.69,1,1.3,2,1.42,2.17s-.44.88-1.37,1.6c-2.23,1.74-2.79,1.51-3.46-1.37s-.61-3.51,0-4.53c.47-.79.5-.82,1.34-.23A9.87,9.87,0,0,1,163.23,421.16Zm-6.69,4.4c.41.72.38.78-.76,1.51-.64.39-1.25.59-1.39.46a3.12,3.12,0,0,1,.32-1.68C155.29,424.31,155.75,424.24,156.54,425.56Zm43.15,24.8a1.39,1.39,0,0,1-1.16.65,4,4,0,0,0-1.52.33c-.69.3-.72.26-.37-.36a1.62,1.62,0,0,1,.93-.79c.32-.06.84-.19,1.16-.26C200,449.6,200.07,449.67,199.69,450.36Z" transform="translate(-22.16 -119.08)" style="fill: #3f51b5"/>
</svg>
