<svg id="Слой_1" data-name="Слой 1" xmlns="http://www.w3.org/2000/svg" viewBox="0 0 571.29 501.36">
  <title>heart</title>
  <g>
    <path d="M423.69,187.59c-7.25,2.35-11.25,6.75-12.55,13.8-.55,2.85-.8,3.3-2.85,4.85-7.05,5.35-6.9,13.2.4,20.8a128.93,128.93,0,0,0,17.2,13.2l2.85,1.7-10.2-.2c-15.2-.35-25.6,1-36.65,4.7-17.45,5.85-30.3,16.65-35.6,29.85a32.91,32.91,0,0,0-1.5,4.2,15.07,15.07,0,0,1-2.05,2.9,96.72,96.72,0,0,0-7.1,10.5c-1.45,2.45-1.4,2.4,3.25-2l4.65-4.45.3,4.5c.85,11.65,5.35,21.2,14.25,30,11.9,11.85,27.55,17.05,34.45,11.5,1.45-1.15,1.5-1.4,1.45-4.9a13.45,13.45,0,0,0-1.5-6.9c-2-4.3-3.65-6.15-6.8-7.7-3.5-1.75-5.6-1.7-7.45.15a4.27,4.27,0,0,0-1.45,3.8c0,2.8,1,4.85,2.75,5.65s1.75.75,1.75-.3c0-1.4.55-1.7,1.6-.75,1.85,1.65.8,3.65-2,3.65-5.35,0-11.45-6.95-12.35-14.15-.75-5.9,1.9-13.15,6.2-16.95,1.25-1.1,5.45-4.1,9.3-6.65,6.95-4.55,7.15-4.8,15.45-14.2,14.15-16.15,22.3-22.3,33.25-25.1,6.55-1.65,8.45-1.4,16.1,2.25,3.7,1.75,8.35,3.8,10.3,4.6a16.75,16.75,0,0,1,3.65,1.75,21,21,0,0,1-4.6-.4c-7.05-1.05-21.65-1.05-27.15,0-8.8,1.7-14.8,4-20.25,7.55-7,4.65-10.5,10.15-10.9,17.05-.25,5,.6,8.2,3.8,14.45,5.25,10.05,14.35,15.95,20.1,13,2.25-1.15,3.3-4.55,2.65-8.45-1.25-7.35-7.05-14.9-10.75-13.9-1.1.25-2.9,2.9-2.9,4.25,0,.45.75,1.3,1.65,1.85,2.25,1.3,2.9,2,2.6,2.55-.6.95-2.3.4-4.25-1.35-4-3.55-4.3-9.3-1-15.95,6.1-12.45,26.2-21.45,43.75-19.7,4.8.5,10.1,1.8,10.6,2.6.2.3-.15.4-.95.2a33.1,33.1,0,0,0-6.5.15c-16.25,1.55-28.4,8.85-32.4,19.4a25,25,0,0,0-.55,13.1c2.55,10.45,10.7,20.35,15.45,18.7,1.95-.7,3.8-4.65,4-8.75.15-2.75,0-3.85-.9-5.75-1.9-3.85-5.9-5.5-7.1-2.9-.55,1.15-.45,1.4.6,2.25s1.15,1.05.7,1.8c-1,1.65-2.35,1.05-3.7-1.6-1.1-2.2-1.25-3.15-1.25-8,0-6.05.65-8.7,3.4-13.95,3.45-6.5,11.25-12,19.05-13.35,6.85-1.15,15.05.2,20.05,3.3l2,1.25-2.75-.35a88.81,88.81,0,0,0-9.75-.4c-6.3.05-7.4.2-11,1.45-10,3.45-15.25,9.55-15.25,17.65,0,5.1,2.6,8.95,6.85,10.1,4.4,1.25,9.35-3.6,10.65-10.4.9-4.7-1-7.8-4.5-7.7-4.05.2-5,1.9-2.75,4.85,1.45,1.9,1.55,2.45.55,3.25-1.15,1-2.7-.15-3.35-2.45-.8-2.7.35-5.75,3.35-8.5,3.75-3.45,6.45-4,10.1-2.05,2.2,1.2,3.35,4.55,1.55,4.55-.3,0-.45-.35-.25-.75.45-1.2-1.1-.9-1.95.45-1.4,2.15.85,5.3,3.25,4.55,1.5-.45,3-2.7,3-4.45a6.6,6.6,0,0,0-4.05-5.65l-2.1-1,3.45-.35c5.7-.55,8.85.2,12.15,3a3.51,3.51,0,0,1,1.55,2.7c0,1.6-1.15,2.75-2.25,2.3-.85-.3-1.05-2.3-.2-2.3.25,0,.35-.25.2-.5-.65-1.05-2.85-.5-4.55,1.2-1.45,1.45-1.7,2.05-1.7,4,0,3.85,3.45,6.6,6.8,5.35,5.05-1.95,7.4-8.85,4.45-13.2-1.4-2.05-1.6-2,4.5-1.3,28.55,3.3,61.5,22.75,76.15,44.95a113.94,113.94,0,0,1,17.95,45c1.25,7.35,1.2,25,0,33.05-4.1,26.6-10,46.7-18.75,64.75l-3.9,8-6.9,7.15a170,170,0,0,1-23,20.1c-4.6,3.25-16.85,10.6-17.15,10.25s2.3-4.1,5.15-7.75c1.4-1.8,4.4-5.8,6.65-8.85,3.8-5.25,4-5.65,3-5.85-3.85-.8-3.9-.75-8.85,2.6-10.2,6.9-31.15,23-45,34.55l-5.75,4.75,2,.85,2,.85L464.29,527l-4.3,1.9c-.6.3-3.4,3.25-6.2,6.6a62.35,62.35,0,0,1-11.25,10.85,54.28,54.28,0,0,0-8.8,8.15c-5.4,6.9-14.35,15.25-35.3,32.85-10.25,8.55-13,11.15-8.55,7.85,1.15-.85,2.2-1.45,2.3-1.3.45.45-4.2,6.1-9.15,11-9.15,9.15-28.25,24.65-36,29.15-1.25.75,4.75-5.8,18.25-19.9,31.5-32.9,50.95-51.7,72-69.55,6-5.15,10.75-9.8,26.5-26.15,5.55-5.85,5.45-5.75-6,3.65-33.6,27.75-52.75,45.95-85.5,81.3-20.9,22.5-24.15,26.3-25.7,29.6-.55,1.1-2.95,3.7-5.8,6.25l-4.9,4.4-1.4-1.85a15.76,15.76,0,0,1-2-3.7,48.39,48.39,0,0,0-4.3-7,38.82,38.82,0,0,1-3.7-5.8c-.25-1.65-2.95-4.85-12.5-14.9-12.9-13.5-15.7-16.6-15.4-17,.2-.15-16.75-15.8-20.3-18.7-.1-.1,0-.4.45-.6,1.15-.75-28.9-27.5-44.75-39.85-4.9-3.8-9.25-7.25-9.7-7.6-2-1.75,1.25.5,7.75,5.3s7,5.05,7.2,4c.2-1.4-.45-1.95-14.2-12.55-13.15-10-23.7-18.6-29.35-23.7-2.4-2.15-5.45-4.75-6.75-5.85-3.15-2.55-19.3-17.5-27.05-25.05-17.5-17-28.55-33.9-38.35-58.75-4.4-11.05-11-31.5-12.5-38.5-2.05-9.45-2.2-9.8-2-4,.7,15.15,4.6,31.35,12.5,51.85,10.4,26.95,21.65,44.6,41.85,65.45a59.2,59.2,0,0,1,5.6,6.2c-.55,0-12.7-10.15-18.1-15.15-2.75-2.5-5.65-5.15-6.5-5.85s-1.15-1.05-.75-.75c1,.65.75.25-3.45-5.8a186.76,186.76,0,0,1-23.4-47.35c-4.15-12.6-8-28.8-9.1-38.1a114.87,114.87,0,0,1,.4-22c.3-1.95.4-2.05.65-1s.4.7.7-1.5c2.65-19.4,12.3-39.15,26.4-54.25,11.5-12.3,33.7-24.35,55.65-30.1,4.75-1.25,5.6-1.35,17.75-1.35,9.4,0,14.4.25,19,.85,27.9,3.9,49.65,14.1,67.3,31.6,5.25,5.2,11.9,13.8,14.3,18.4,1.55,3,1.5,1.9-.1-2.6l-1.5-4.15,1-3.25a39.07,39.07,0,0,0,1.3-6c.2-1.5.5-2.7.75-2.7a64.25,64.25,0,0,1,6.05,4.55c10.95,8.75,16.1,9.6,13.65,2.2-2.4-7.15-10.1-16.55-19.6-23.95-1.9-1.45-3.2-2.9-3.4-3.7a48.89,48.89,0,0,0-2.75-6.35c-15.1-31.2-50.55-53.45-94.1-59-6.25-.8-6.5-.75-11.5.3A216.45,216.45,0,0,0,163,224.89c-31.95,13.6-58.65,33.8-82.75,62.75-5.3,6.35-14.5,18.25-14.5,18.7,0,.75,2.5.15,4-.95,1-.7,6.55-6.15,12.45-12.15C93.44,282,101.49,274.89,110,268.79c5-3.6,12.95-8.65,13.55-8.65a37.67,37.67,0,0,1-3.75,4.3c-2.2,2.35-5.55,6.2-7.4,8.6s-6,7.15-9.4,10.6-7.55,8.2-9.4,10.5A202.45,202.45,0,0,0,81,312.49c-.8,1.45-1.7,2.65-2,2.65-.9,0-2.8,2.7-5.1,7.25-1.9,3.7-3.25,6.9-7.55,18.1-1.6,4.3-2.25,4.95-3,3.05-.3-.8-.75.3-2,4.9-1.55,5.85-3.6,16.65-3.6,19,0,1.8-2.95,10.65-4.2,12.5-2.05,3.15-4.3,2.65-10-2.25-1.85-1.65-4.05-3.15-4.9-3.3-4.7-1.05-7.5,7-8.2,23.4-.25,6.3-.15,8.95.25,9.75.75,1.4,1.3,1.1,2.55-1.45.55-1,1.35-1.95,1.75-1.95,1.6,0,4,7.55,4.65,14.75.35,4.05.45,4.3.8,2.5,1.75-9.65,2.95-12.35,5.45-12.65,3.2-.4,6.2,5.6,13.35,26.65,2.8,8.25,7.85,21.85,11.15,30.25s7.75,20.6,10,27.15c4.4,13.25,6,17.7,8.7,23,2,3.8,5.7,10.35,6,10.35.1,0-1.6-3.45-3.8-7.65-4.3-8.3-6.65-13.95-6.4-15.55.1-.7,1.2.85,3.6,4.95,3.25,5.75,12.7,20.15,14.85,22.75,1.3,1.55-.4-1.6-7.85-14.5-6.3-11-8.7-15.65-11.6-22.5-2.3-5.5-4.3-11.45-4-11.8a28.35,28.35,0,0,1,2.4,4.9c2,4.65,2.4,5.25,4.3,6.3,1.65.9,3,2.4,5.85,6.8,10.55,16.1,25.85,35.3,50.8,63.8,11.7,13.35,16.1,18.1,11.1,12a258.66,258.66,0,0,1-19.9-28.15c-3.75-6.1-4.4-7.6-2.8-6.25.45.4,3.1,2.15,5.85,3.9,4.35,2.75,6.8,5,18.9,17.2,13.6,13.75,13.8,13.95,10.2,9-6.45-8.85-7.35-10.15-7.35-10.45,0-1.05,5.4,2.9,14.2,10.35,5.5,4.75,10.5,9,11,9.35s-3.3-3.85-8.6-9.5c-13.7-14.7-33.15-36.75-33.15-37.6,0-.15.9-.1,2,.1,1.6.3,2.9,1.2,6.15,4.3,8.75,8.35,18.1,16.45,16.65,14.45-1.1-1.5-.45-1,2.45,1.75l3.9,3.75-5.4-6.5c-7.5-9-7.65-9.3-1.6-3,2.9,3,5.55,5.45,5.85,5.35s4.05,3.35,8.4,7.55,9.2,8.6,10.9,9.65c2.1,1.35,5.75,4.9,11.7,11.45,4.8,5.2,10,10.4,11.45,11.55,4.95,3.6,10.7,6.7,11.95,6.35,1-.25.25-1.15-6.5-8.35-7.25-7.65-8.15-8.8-3.65-4.85,1.1,1,.55.2-1.25-1.7s-4-4.4-5-5.5c-1.55-1.8-1.45-1.75,1,.5,1.5,1.35,5.4,5.05,8.6,8.15,3.55,3.45,6.05,5.55,6.4,5.35,1-.6-4.55-5.85-24-23.15-17.3-15.45-29.65-27-25-23.55,6.4,4.85,24.5,20,46.5,38.95,15.35,13.2,19,16.25,19,15.85,0-.15-6.15-6-13.65-12.9-15.25-14.2-29.9-28.45-34.5-33.65-3.85-4.35-3.2-4,4.55,2.6,9.25,7.85,17.15,15.1,35.6,32.8,17.85,17.15,20.4,19.55,28.25,26.55,7.7,7,3.25,2-13.85-15.55-8-8.25-16.05-16.5-17.85-18.45-2.8-2.95-2.6-2.8,1.4,1,7.15,6.85,31.25,31.4,40.75,41.5,4.65,5,13.4,13.75,19.5,19.55s18.3,17.75,27.2,26.55l16.15,16,6.85-6.55a1261.78,1261.78,0,0,1,118.1-99.8c9.7-7.25,9.55-7.15-7.6,4-7.1,4.6-12.9,8.2-12.9,7.95a85.69,85.69,0,0,1,6.9-7c6.6-6.4,13.9-12.9,37-33,12.05-10.45,15.2-13.3,14.1-12.7-.4.2-4.1,2.6-8.25,5.3-6,4-7,4.45-4.75,2.55,7.75-6.85,23.15-20.25,26.25-22.95,4.75-4.15,20.45-20.25,26.2-26.9,12-13.9,22-29.9,28.3-44.8a82.55,82.55,0,0,1,4.5-8.5c4.3-7.25,6.35-11,6.1-11a7.71,7.71,0,0,0-1.4,1.85c-2.25,3.85-5.1,8.15-5.25,8.05a50.94,50.94,0,0,1,1.85-6.15c5.3-16.15,10-39.85,10.9-54.35,1.5-25.75-5.2-49.35-20.5-72.1-5.3-7.9-9.55-12.95-17.4-20.8a161.51,161.51,0,0,0-46.25-32c-6.85-3.2-9.8-4.2-16.55-5.5s-10.85-3.6-13.5-7.6c-2.1-3.2-2.25-6.4-.25-6.4,1.35,0,1.8,1.05.8,1.75-.75.6-.75.65,0,1a5.47,5.47,0,0,0,4.6-.5c1.6-1.1,1.55-4.55-.1-6.35a7.52,7.52,0,0,0-7.4-1.9c-3.15.95-4.9,3-4.9,5.65,0,3.75,1.9,6.65,7,10.9l1.25,1-1.5-.3c-10.55-2.1-22.75-7.7-27.45-12.65-1.35-1.4-1.35-1.5-.6-2.95,1.2-2.35,4.15-2.9,5.5-1.05.9,1.3.55,2.3-.85,2.75-1,.3-1,.35-.05,1.05,1.35,1,6.45.65,9-.65a7.42,7.42,0,0,0,3.55-9.9c-1.4-3.4-6.2-5.8-11.5-5.8-4.6,0-7.45,1.15-10.6,4.3l-2.7,2.7-1.5-2.6a64.14,64.14,0,0,1-6.85-21.4c-.25-3-.15-3.4,1.05-4.85,2.25-2.7,6.1-2.65,5.7.05-.1.8-.45,1-1.5.9s-1.45.1-1.7,1.15c-.4,1.6-.25,1.75,2.2,2.1a12.82,12.82,0,0,0,9.55-3.3c2.6-2.6,3.1-5.2,1.5-8.05C438.84,187.49,430.94,185.29,423.69,187.59Zm-306,324.8c6.1,7.4,15.8,18,26.05,28.4,4.25,4.35,7.6,8,7.5,8.15-.5.45-23.4-22.45-28-28a159.87,159.87,0,0,1-11.1-14.6C110.64,504.14,112,505.59,117.64,512.39Zm175.3,78.2c1.85,1.45,3.3,2.8,3.15,2.9s-10.8-8.25-10.8-8.7c0-.15.95.5,2.15,1.45S291.09,589.14,292.94,590.59Z" transform="translate(-30.36 -186.68)" style="fill: #3f51b5"/>
    <path d="M542,323.54a84.33,84.33,0,0,1,8.3,35.3c0,9.5-1.25,17.55-4.8,30.8a65.29,65.29,0,0,0-1.75,8.25c0,.8-.35,3.5-.75,5.95a27.28,27.28,0,0,0-.55,4.65c.15.1.5-1.35.85-3.2s1.8-8,3.3-13.65c2.95-11.4,5.7-27,5.7-32.6a77.52,77.52,0,0,0-.75-8.75,70.59,70.59,0,0,1-.7-7.75c0-3.8-2.05-8.9-7.15-17.55C541.24,320.94,540.19,320,542,323.54Z" transform="translate(-30.36 -186.68)" style="fill: #3f51b5"/>
    <path d="M593.54,344.59c2.35,19.35.85,35.4-5.3,57.5a63.71,63.71,0,0,0-1.8,7.4,31.36,31.36,0,0,0,1.75-5.2c4.5-15.65,6.4-26.05,6.95-38.4.3-6.25.4-7.15.8-5.25.7,3.75,0,21.55-1.1,27.5-3.85,20.7-13,47.55-22.8,67.05a14.34,14.34,0,0,0-1.55,3.45,40.83,40.83,0,0,0,2.7-3.9c9.55-14.7,16.65-33.45,22-58.4,1.4-6.45,1.7-9,2.25-18.7.45-8.35-1.4-25.65-3.45-32.75l-.75-2.5Z" transform="translate(-30.36 -186.68)" style="fill: #3f51b5"/>
    <path d="M541.14,404.54c-.8,2.4-2.2,6.4-3.15,8.95s-1.55,4.9-1.4,5.4c.45,1.05,1.85-2.7,4.5-11.6C543.19,400.14,543.19,398.14,541.14,404.54Z" transform="translate(-30.36 -186.68)" style="fill: #3f51b5"/>
    <path d="M595.39,401c-.4,4.5-5.4,23.55-8.6,32.85-4.15,12-11.8,28.65-17.5,38-1.15,1.9-2.2,3.65-2.35,3.85s-.1.4,0,.4a82.32,82.32,0,0,0,4.8-6.9,181.41,181.41,0,0,0,15.2-29.4c3.55-9.2,9.75-28.4,9.3-28.7-.25-.15-.55-2.75-.65-5.75S595.44,400.39,595.39,401Z" transform="translate(-30.36 -186.68)" style="fill: #3f51b5"/>
    <path d="M599.89,409.29c-1.2,1.25-2,3.1-3.65,8.35-1.15,3.7-2.7,8.4-3.55,10.45-2.4,6.1-1.2,4.55,1.55-2,2.2-5.2,2.9-6.25,1.75-2.55-.2.7-.2.75.2.15.65-1,5.65-15.6,5.45-15.8S600.74,408.39,599.89,409.29Z" transform="translate(-30.36 -186.68)" style="fill: #3f51b5"/>
    <path d="M508.24,454.84c-6.15,8.4-13,16-28.9,31.8-10.65,10.6-14,14.2-10.4,11,3-2.6,6.5-5.75,7.8-7s4.75-4.35,7.7-6.95c8.75-7.65,21.1-21.1,27.2-29.65,1.5-2.15,1.55-2.3.75-3S511.29,450.64,508.24,454.84Z" transform="translate(-30.36 -186.68)" style="fill: #3f51b5"/>
    <path d="M515.64,452.74c-4,5.6-5.3,7.5-3.85,5.9,1.85-2.1,5.65-7.5,5.3-7.5A6.93,6.93,0,0,0,515.64,452.74Z" transform="translate(-30.36 -186.68)" style="fill: #3f51b5"/>
    <path d="M583.19,465.64a41.83,41.83,0,0,0-2.65,4.5c.3,0,4-5.5,5-7.4C586.94,459.89,586,461,583.19,465.64Z" transform="translate(-30.36 -186.68)" style="fill: #3f51b5"/>
    <path d="M580.59,471.94c-1.65,2.4-5,6.5-12.85,15.95l-2.1,2.5,2.45-2.5c7.9-8.1,11.95-12.8,13.3-15.45a14,14,0,0,0,1.3-3.05A10.66,10.66,0,0,0,580.59,471.94Z" transform="translate(-30.36 -186.68)" style="fill: #3f51b5"/>
    <path d="M575.14,481.79c-2.95,4-3,4.25-1,1.9s5-6.55,4.55-6.55C578.59,477.14,577,479.24,575.14,481.79Z" transform="translate(-30.36 -186.68)" style="fill: #3f51b5"/>
    <path d="M564,508.49c-7.65,8-20,19.4-30,27.9-7.75,6.5-9.3,8-6,5.6,10.1-7.15,25.05-20.5,34.2-30.55,6.3-6.9,9.3-10.35,9-10.25C571.14,501.19,567.89,504.49,564,508.49Z" transform="translate(-30.36 -186.68)" style="fill: #3f51b5"/>
    <path d="M173.74,555.49a105.09,105.09,0,0,0,10,9.9c.7.55-1.45-1.8-4.75-5.15s-6-6.1-6.15-6.1S173.19,554.74,173.74,555.49Z" transform="translate(-30.36 -186.68)" style="fill: #3f51b5"/>
    <path d="M297.29,593.84a2.87,2.87,0,0,0,.9.85c.75.65.8.6.15-.2S297.29,593.44,297.29,593.84Z" transform="translate(-30.36 -186.68)" style="fill: #3f51b5"/>
    <path d="M212.29,610.64c4.55,5.05,5.2,5.5,2.25,1.45-1.95-2.6-4.85-5.45-5.65-5.45A42.61,42.61,0,0,0,212.29,610.64Z" transform="translate(-30.36 -186.68)" style="fill: #3f51b5"/>
    <path d="M358.49,685.74l-.95,1.15,1.15-.95c1.05-.9,1.35-1.3.95-1.3A6.08,6.08,0,0,0,358.49,685.74Z" transform="translate(-30.36 -186.68)" style="fill: #3f51b5"/>
  </g>
</svg>
