<?xml version="1.0" encoding="UTF-8" standalone="no"?>
<svg
   xmlns:dc="http://purl.org/dc/elements/1.1/"
   xmlns:cc="http://creativecommons.org/ns#"
   xmlns:rdf="http://www.w3.org/1999/02/22-rdf-syntax-ns#"
   xmlns:svg="http://www.w3.org/2000/svg"
   xmlns="http://www.w3.org/2000/svg"
   id="svg8"
   version="1.1"
   viewBox="0 0 210 297"
   height="297mm"
   width="210mm">
  <defs
     id="defs2" />
  <metadata
     id="metadata5">
    <rdf:RDF>
      <cc:Work
         rdf:about="">
        <dc:format>image/svg+xml</dc:format>
        <dc:type
           rdf:resource="http://purl.org/dc/dcmitype/StillImage" />
        <dc:title></dc:title>
      </cc:Work>
    </rdf:RDF>
  </metadata>
  <g
     id="layer1">
    <path
       id="path839"
       d="m 56.310246,289.7596 c -0.289816,0.46961 -0.594135,4.3597 -0.668467,4.12554 -0.51921,-1.63557 0.668467,-2.99154 0.668467,-4.12554 0,-0.86448 -0.54053,-1.64611 -0.716214,-2.49254 -0.286398,-1.3798 -0.364132,-2.93071 -0.572971,-4.34041 -0.609229,-4.11247 -0.646448,-8.60218 -0.429725,-12.76342 0.220734,-4.23828 1.206193,-8.60272 1.766657,-12.80637 0.4894,-3.67064 0.193873,-7.47537 0.525222,-11.17336 0.355941,-3.97247 1.153411,-7.87346 1.71891,-11.81797 1.186633,-8.27708 0.709941,-16.50463 1.241436,-24.79626 0.831254,-12.96809 2.145162,-25.85228 2.578364,-38.8489 0.455459,-13.66429 -4.587771,-28.29917 2.196386,-41.08357 1.537166,-2.89671 3.733215,-6.15979 6.350418,-8.20812 10.204164,-7.98618 32.158191,-9.77617 44.739411,-8.12217 6.12441,0.80515 14.34218,1.46553 19.0035,6.01642 6.61877,6.46197 8.70338,16.50005 9.97923,25.26898 1.64775,11.32498 1.59047,22.5887 1.9099,33.99279 0.0998,3.56205 0.7946,7.09906 1.0027,10.65766 0.45936,7.85548 -0.0255,15.94159 -0.71621,23.76487 -1.02013,11.55338 -3.8823,22.93383 -4.58376,34.50848 -0.21033,3.47048 -0.0478,6.96695 -0.0478,10.44279 0,13.16483 0.66846,26.29792 0.66846,39.45055"
       style="fill:none;stroke:#000000;stroke-width:0.264583px;stroke-linecap:butt;stroke-linejoin:miter;stroke-opacity:1" />
    <path
       id="path841"
       d="m 82.18939,138.70441 c -2.302716,-0.62169 -4.712977,0.0428 -5.872943,2.32062 -3.69426,7.25447 -2.074092,17.01788 7.591854,17.01788 1.522532,0 3.007458,-0.0182 4.440518,-0.64462 6.188017,-2.70515 8.387487,-13.56654 3.103586,-17.96332 -2.944841,-2.45042 -6.447491,-2.23582 -10.170215,-2.70739"
       style="fill:none;stroke:#000000;stroke-width:0.264583px;stroke-linecap:butt;stroke-linejoin:miter;stroke-opacity:1" />
    <path
       id="path843"
       d="m 117.85677,138.57548 c -3.09477,0.0278 -4.75131,2.32486 -5.87294,4.89909 -1.36506,3.13293 -2.28418,6.82156 -1.62341,10.2709 0.79552,4.15277 9.81347,4.92051 12.79633,3.82472 3.47444,-1.27637 7.44688,-9.02657 5.87294,-12.46259 -1.7782,-3.88192 -3.8649,-5.48641 -7.06663,-8.16514"
       style="fill:none;stroke:#000000;stroke-width:0.264583px;stroke-linecap:butt;stroke-linejoin:miter;stroke-opacity:1" />
    <path
       id="path845"
       d="m 90.927183,139.43497 c -1.681374,4.34451 -5.130601,8.97438 -4.345021,13.92372 0.183208,1.15427 0.620717,1.78914 0.620717,3.05119"
       style="fill:none;stroke:#000000;stroke-width:0.264583px;stroke-linecap:butt;stroke-linejoin:miter;stroke-opacity:1" />
    <path
       id="path847"
       d="m 125.1144,144.29109 c -3.88766,0.92378 -6.60529,11.23835 -1.33693,11.6031"
       style="fill:none;stroke:#000000;stroke-width:0.264583px;stroke-linecap:butt;stroke-linejoin:miter;stroke-opacity:1" />
    <path
       id="path849"
       d="m 101.00191,169.56006 c -0.56139,4.95766 1.80681,10.16559 -0.52523,14.78321 -1.224652,2.42492 -4.516272,5.87718 -5.156725,7.60648"
       style="fill:none;stroke:#000000;stroke-width:0.264583px;stroke-linecap:butt;stroke-linejoin:miter;stroke-opacity:1" />
    <path
       id="path851"
       d="m 102.76857,181.54993 c 0.0637,0.91679 -0.10046,1.87881 0.19098,2.75037 0.854,2.55383 6.79699,6.88036 8.92879,8.72381 0.48935,0.42316 1.51615,1.59711 2.10089,1.24626"
       style="fill:none;stroke:#000000;stroke-width:0.264583px;stroke-linecap:butt;stroke-linejoin:miter;stroke-opacity:1" />
    <path
       id="path853"
       d="m 119.67118,178.88552 c 7.02341,0.0797 15.24438,-3.22076 22.15484,-1.97683"
       style="fill:none;stroke:#000000;stroke-width:0.264583px;stroke-linecap:butt;stroke-linejoin:miter;stroke-opacity:1" />
    <path
       id="path855"
       d="m 121.1991,187.56636 c 5.00901,-0.2878 9.94877,-1.24626 14.99272,-1.24626"
       style="fill:none;stroke:#000000;stroke-width:0.264583px;stroke-linecap:butt;stroke-linejoin:miter;stroke-opacity:1" />
    <path
       id="path857"
       d="m 121.92673,195.78227 c 6.91427,2.46468 6.07194,-0.65241 13.16689,-0.65241"
       style="fill:none;stroke:#000000;stroke-width:0.264583px;stroke-linecap:butt;stroke-linejoin:miter;stroke-opacity:1" />
    <path
       id="path859"
       d="m 71.732689,173.42776 c 5.540812,0.57875 14.807465,-2.60425 19.815212,-0.64461"
       style="fill:none;stroke:#000000;stroke-width:0.264583px;stroke-linecap:butt;stroke-linejoin:miter;stroke-opacity:1" />
    <path
       id="path861"
       d="m 69.77504,183.13999 c 5.625817,-0.53917 11.357414,-1.67291 17.045858,-1.24626"
       style="fill:none;stroke:#000000;stroke-width:0.264583px;stroke-linecap:butt;stroke-linejoin:miter;stroke-opacity:1" />
    <path
       id="path863"
       d="m 69.679547,191.77785 c 5.020561,0.21684 9.86016,-1.24898 14.801725,-1.80493"
       style="fill:none;stroke:#000000;stroke-width:0.264583px;stroke-linecap:butt;stroke-linejoin:miter;stroke-opacity:1" />
    <path
       id="path865"
       d="m 64.188583,127.70295 c -0.749369,-2.92541 -0.716212,-6.01613 -0.716212,-9.02463 0,-12.6232 0.393833,-25.240283 0.09549,-37.860493 -0.129641,-5.484084 -1.850237,-10.63998 -2.339629,-16.072445 -0.641196,-7.117585 0.43053,-12.768463 1.527922,-19.682295 1.316288,-8.292944 2.962957,-16.714187 13.655786,-15.298904 3.027423,0.400703 5.749985,3.585802 7.353114,5.930474 1.614464,2.361244 3.165401,4.853307 3.915296,7.64945 2.233637,8.328605 0.370674,23.201664 -0.811707,31.715144 -0.325292,2.342187 -1.028131,4.61229 -1.289182,6.961859 -0.598141,5.38348 -0.238739,11.010553 -0.238739,16.41624 0,2.82491 -0.389935,5.53649 -0.525222,8.33704 -0.08333,1.72488 0.19099,3.41807 0.19099,5.11396"
       style="fill:none;stroke:#000000;stroke-width:0.264583px;stroke-linecap:butt;stroke-linejoin:miter;stroke-opacity:1" />
    <path
       id="path867"
       d="m 70.777739,121.04191 c 0.30969,-4.56482 0.1807,-9.13881 0.286483,-13.70885 0.05034,-2.17467 0.757143,-4.28521 0.907204,-6.44617 0.249465,-3.59244 0.0955,-7.228992 0.0955,-10.829559 0,-1.256217 -0.168027,-6.740096 2.673858,-5.887497 1.323591,0.397092 1.380939,4.802534 1.480174,5.844524 0.394936,4.146994 0.0072,8.423055 0.238736,12.591512 0.138142,2.48664 0.204272,5.04491 0.429729,7.52053 0.16711,1.83495 0.572971,3.4445 0.572971,5.32883"
       style="fill:none;stroke:#000000;stroke-width:0.264583px;stroke-linecap:butt;stroke-linejoin:miter;stroke-opacity:1" />
    <path
       id="path869"
       d="m 120.67388,110.04045 c 2.87306,-8.43023 2.90909,-17.093271 3.34232,-25.827643 0.20108,-4.05394 0.78605,-8.055438 0.85946,-12.118795 0.0913,-5.053875 0.28648,-10.11611 0.28648,-15.169977 0,-4.429168 -0.80485,-8.982091 1.33693,-13.064234 1.4371,-2.739048 6.5125,-4.040063 9.21527,-4.469341 3.87378,-0.615273 7.74788,-0.799899 10.31346,2.535491 5.58426,7.259831 4.14193,19.401996 2.67386,27.71852 -0.769,4.356319 -1.16742,8.770514 -2.00539,13.107207 -0.84153,4.355073 -2.11936,8.578114 -2.72161,12.978283 -0.69377,5.068809 -1.84703,10.195459 -2.14864,15.298899 -0.14458,2.44645 0.0889,11.12266 -1.05045,12.76341"
       style="fill:none;stroke:#000000;stroke-width:0.264583px;stroke-linecap:butt;stroke-linejoin:miter;stroke-opacity:1" />
    <path
       id="path873"
       d="m 128.36122,113.60733 c 0.23953,-3.45101 1.85652,-6.5844 2.29189,-10.01305 0.37664,-2.96618 1.49356,-14.289524 4.53601,-15.384849 2.64039,-0.950576 4.77843,-0.718399 5.6342,2.105747 2.08922,6.894677 -1.25462,18.033472 -2.48287,25.140052 -0.15577,0.9013 -1.2858,4.3283 -0.62072,5.11396 0.95656,1.12997 2.03723,2.14872 3.05584,3.22308"
       style="fill:none;stroke:#000000;stroke-width:0.264583px;stroke-linecap:butt;stroke-linejoin:miter;stroke-opacity:1" />
    <path
       id="path875"
       d="m 128.55222,294.31488 c 0.5205,-9.4841 -0.69706,-18.90618 -0.90721,-28.36313 -0.0844,-3.79817 0.31361,-7.69189 0,-11.47418 -0.24492,-2.95388 -0.78359,-5.84481 -1.24143,-8.76679 -0.30556,-1.95011 -0.42407,-3.88321 -1.0982,-5.75857 -0.48516,-1.34969 -1.21212,-2.59163 -1.76665,-3.91068 -2.78249,-6.6186 -3.52665,-9.32925 -9.5495,-13.66587 -2.73247,-1.96745 -4.81097,-3.71661 -8.11708,-4.72719 -3.56735,-1.09044 -8.996099,-2.02785 -12.414349,-0.043 -5.477674,3.18072 -7.942013,16.56671 -9.358511,22.30374 -0.432644,1.75228 -1.2906,3.33849 -1.766657,5.07099 -1.258451,4.57985 -2.333688,9.1943 -3.485568,13.79479 -0.572635,2.28706 -1.39338,4.46946 -1.86215,6.78998 -0.624936,3.09353 -0.52028,6.11563 -0.716214,9.23949 -0.308518,4.91886 -0.719532,9.70766 -0.572971,14.65429 0.07914,2.67094 0.477475,5.31328 0.477475,7.99324"
       style="fill:none;stroke:#000000;stroke-width:0.264583px;stroke-linecap:butt;stroke-linejoin:miter;stroke-opacity:1" />
  </g>
</svg>
