{
    "tracks": [
        {
            "startTime": 0,
            "duration": 72.80895600000197,
            "length": 154,
            "notes": [
                {
                    "name": "D5",
                    "midi": 74,
                    "time": 0,
                    "velocity": 0.8267716535433071,
                    "duration": 0.140449375
                },
                {
                    "name": "F4",
                    "midi": 65,
                    "time": 0,
                    "velocity": 0.8267716535433071,
                    "duration": 0.140449375
                },
                {
                    "name": "D4",
                    "midi": 62,
                    "time": 0,
                    "velocity": 0.8267716535433071,
                    "duration": 0.140449375
                },
                {
                    "name": "A5",
                    "midi": 81,
                    "time": 0.33707849999999995,
                    "velocity": 0.8267716535433071,
                    "duration": 0.16853924999999992
                },
                {
                    "name": "D5",
                    "midi": 74,
                    "time": 0.33707849999999995,
                    "velocity": 0.8267716535433071,
                    "duration": 0.16853924999999992
                },
                {
                    "name": "G5",
                    "midi": 79,
                    "time": 0.5056177499999999,
                    "velocity": 0.8267716535433071,
                    "duration": 0.16853925000000003
                },
                {
                    "name": "F5",
                    "midi": 77,
                    "time": 0.6741569999999999,
                    "velocity": 0.8267716535433071,
                    "duration": 0.16853925000000003
                },
                {
                    "name": "E5",
                    "midi": 76,
                    "time": 1.0112355,
                    "velocity": 0.8267716535433071,
                    "duration": 0.140449375
                },
                {
                    "name": "G4",
                    "midi": 67,
                    "time": 1.0112355,
                    "velocity": 0.8267716535433071,
                    "duration": 0.140449375
                },
                {
                    "name": "F5",
                    "midi": 77,
                    "time": 1.348314,
                    "velocity": 0.8267716535433071,
                    "duration": 0.6741570000000008
                },
                {
                    "name": "A4",
                    "midi": 69,
                    "time": 1.348314,
                    "velocity": 0.8267716535433071,
                    "duration": 0.6741570000000008
                },
                {
                    "name": "F5",
                    "midi": 77,
                    "time": 2.359549500000001,
                    "velocity": 0.8267716535433071,
                    "duration": 0.1685392499999998
                },
                {
                    "name": "A4",
                    "midi": 69,
                    "time": 2.359549500000001,
                    "velocity": 0.8267716535433071,
                    "duration": 0.1685392499999998
                },
                {
                    "name": "E5",
                    "midi": 76,
                    "time": 2.6966280000000005,
                    "velocity": 0.8267716535433071,
                    "duration": 0.12640443749999974
                },
                {
                    "name": "G4",
                    "midi": 67,
                    "time": 2.6966280000000005,
                    "velocity": 0.8267716535433071,
                    "duration": 0.12640443749999974
                },
                {
                    "name": "C5",
                    "midi": 72,
                    "time": 3.0337065,
                    "velocity": 0.8267716535433071,
                    "duration": 0.1404493750000002
                },
                {
                    "name": "D5",
                    "midi": 74,
                    "time": 3.370785,
                    "velocity": 0.8267716535433071,
                    "duration": 0.5056177499999999
                },
                {
                    "name": "F4",
                    "midi": 65,
                    "time": 3.370785,
                    "velocity": 0.8267716535433071,
                    "duration": 0.5056177499999999
                },
                {
                    "name": "D5",
                    "midi": 74,
                    "time": 3.87640275,
                    "velocity": 0.8267716535433071,
                    "duration": 0.11235950000000017
                },
                {
                    "name": "E5",
                    "midi": 76,
                    "time": 4.044942,
                    "velocity": 0.8267716535433071,
                    "duration": 0.16853925000000025
                },
                {
                    "name": "F4",
                    "midi": 65,
                    "time": 4.044942,
                    "velocity": 0.8267716535433071,
                    "duration": 0.16853925000000025
                },
                {
                    "name": "D5",
                    "midi": 74,
                    "time": 4.21348125,
                    "velocity": 0.8267716535433071,
                    "duration": 0.16853925000000025
                },
                {
                    "name": "C5",
                    "midi": 72,
                    "time": 4.3820205,
                    "velocity": 0.8267716535433071,
                    "duration": 0.16853925000000025
                },
                {
                    "name": "E4",
                    "midi": 64,
                    "time": 4.3820205,
                    "velocity": 0.8267716535433071,
                    "duration": 0.16853925000000025
                },
                {
                    "name": "D5",
                    "midi": 74,
                    "time": 4.719099000000001,
                    "velocity": 0.8267716535433071,
                    "duration": 0.6741569999999797
                },
                {
                    "name": "F4",
                    "midi": 65,
                    "time": 4.719099000000001,
                    "velocity": 0.7086614173228346,
                    "duration": 0.6741569999999797
                },
                {
                    "name": "D5",
                    "midi": 74,
                    "time": 5.3932559999999805,
                    "velocity": 0.8267716535433071,
                    "duration": 0.1404493750000002
                },
                {
                    "name": "F4",
                    "midi": 65,
                    "time": 5.3932559999999805,
                    "velocity": 0.8267716535433071,
                    "duration": 0.1404493750000002
                },
                {
                    "name": "D4",
                    "midi": 62,
                    "time": 5.3932559999999805,
                    "velocity": 0.8267716535433071,
                    "duration": 0.1404493750000002
                },
                {
                    "name": "A5",
                    "midi": 81,
                    "time": 5.730334499999981,
                    "velocity": 0.8267716535433071,
                    "duration": 0.16853925000000025
                },
                {
                    "name": "D5",
                    "midi": 74,
                    "time": 5.730334499999981,
                    "velocity": 0.8267716535433071,
                    "duration": 0.16853925000000025
                },
                {
                    "name": "G5",
                    "midi": 79,
                    "time": 5.898873749999981,
                    "velocity": 0.8267716535433071,
                    "duration": 0.16853925000000025
                },
                {
                    "name": "F5",
                    "midi": 77,
                    "time": 6.0674129999999815,
                    "velocity": 0.8267716535433071,
                    "duration": 0.16853925000000025
                },
                {
                    "name": "E5",
                    "midi": 76,
                    "time": 6.404491499999982,
                    "velocity": 0.8267716535433071,
                    "duration": 0.1404493750000002
                },
                {
                    "name": "G4",
                    "midi": 67,
                    "time": 6.404491499999982,
                    "velocity": 0.8267716535433071,
                    "duration": 0.1404493750000002
                },
                {
                    "name": "F5",
                    "midi": 77,
                    "time": 6.7415699999999825,
                    "velocity": 0.8267716535433071,
                    "duration": 0.6741569999999797
                },
                {
                    "name": "A4",
                    "midi": 69,
                    "time": 6.7415699999999825,
                    "velocity": 0.8267716535433071,
                    "duration": 0.6741569999999797
                },
                {
                    "name": "F5",
                    "midi": 77,
                    "time": 7.752805499999962,
                    "velocity": 0.8267716535433071,
                    "duration": 0.16853925000000025
                },
                {
                    "name": "A4",
                    "midi": 69,
                    "time": 7.752805499999962,
                    "velocity": 0.8267716535433071,
                    "duration": 0.16853925000000025
                },
                {
                    "name": "E5",
                    "midi": 76,
                    "time": 8.089883999999962,
                    "velocity": 0.8267716535433071,
                    "duration": 0.12640443749999974
                },
                {
                    "name": "G4",
                    "midi": 67,
                    "time": 8.089883999999962,
                    "velocity": 0.7086614173228346,
                    "duration": 0.12640443749999974
                },
                {
                    "name": "C5",
                    "midi": 72,
                    "time": 8.426962499999963,
                    "velocity": 0.8267716535433071,
                    "duration": 0.14044937499999932
                },
                {
                    "name": "D5",
                    "midi": 74,
                    "time": 8.764040999999962,
                    "velocity": 0.8267716535433071,
                    "duration": 0.5056177500000008
                },
                {
                    "name": "F4",
                    "midi": 65,
                    "time": 8.764040999999962,
                    "velocity": 0.7086614173228346,
                    "duration": 0.5056177500000008
                },
                {
                    "name": "D5",
                    "midi": 74,
                    "time": 9.269658749999962,
                    "velocity": 0.8267716535433071,
                    "duration": 0.11235950000000017
                },
                {
                    "name": "E5",
                    "midi": 76,
                    "time": 9.438197999999963,
                    "velocity": 0.8267716535433071,
                    "duration": 0.16853925000000025
                },
                {
                    "name": "F4",
                    "midi": 65,
                    "time": 9.438197999999963,
                    "velocity": 0.7086614173228346,
                    "duration": 0.16853925000000025
                },
                {
                    "name": "F5",
                    "midi": 77,
                    "time": 9.606737249999963,
                    "velocity": 0.8267716535433071,
                    "duration": 0.16853925000000025
                },
                {
                    "name": "E5",
                    "midi": 76,
                    "time": 9.775276499999963,
                    "velocity": 0.8267716535433071,
                    "duration": 0.16853925000000025
                },
                {
                    "name": "D5",
                    "midi": 74,
                    "time": 10.112354999999964,
                    "velocity": 0.8267716535433071,
                    "duration": 1.34831399999997
                },
                {
                    "name": "F4",
                    "midi": 65,
                    "time": 10.112354999999964,
                    "velocity": 0.7086614173228346,
                    "duration": 1.34831399999997
                },
                {
                    "name": "F5",
                    "midi": 77,
                    "time": 14.831453999999933,
                    "velocity": 0.8267716535433071,
                    "duration": 1.0112354999999695
                },
                {
                    "name": "E5",
                    "midi": 76,
                    "time": 15.842689499999903,
                    "velocity": 0.8267716535433071,
                    "duration": 0.14044937499999932
                },
                {
                    "name": "D5",
                    "midi": 74,
                    "time": 16.0112287499999,
                    "velocity": 0.8267716535433071,
                    "duration": 0.14044937499999932
                },
                {
                    "name": "E5",
                    "midi": 76,
                    "time": 16.1797679999999,
                    "velocity": 0.8267716535433071,
                    "duration": 0.6460671249999983
                },
                {
                    "name": "A4",
                    "midi": 69,
                    "time": 16.853924999999897,
                    "velocity": 0.8267716535433071,
                    "duration": 0.6460671249999983
                },
                {
                    "name": "F5",
                    "midi": 77,
                    "time": 17.528081999999895,
                    "velocity": 0.8267716535433071,
                    "duration": 1.0112354999999695
                },
                {
                    "name": "E5",
                    "midi": 76,
                    "time": 18.539317499999864,
                    "velocity": 0.8267716535433071,
                    "duration": 0.14044937499999932
                },
                {
                    "name": "D5",
                    "midi": 74,
                    "time": 18.707856749999863,
                    "velocity": 0.8267716535433071,
                    "duration": 0.14044937499999932
                },
                {
                    "name": "E5",
                    "midi": 76,
                    "time": 18.87639599999986,
                    "velocity": 0.8267716535433071,
                    "duration": 1.320224124999978
                },
                {
                    "name": "F5",
                    "midi": 77,
                    "time": 20.22470999999984,
                    "velocity": 0.8267716535433071,
                    "duration": 1.6853924999999776
                },
                {
                    "name": "G5",
                    "midi": 79,
                    "time": 21.910102499999816,
                    "velocity": 0.8267716535433071,
                    "duration": 0.3370785000000005
                },
                {
                    "name": "A5",
                    "midi": 81,
                    "time": 22.247180999999816,
                    "velocity": 0.8267716535433071,
                    "duration": 0.3370785000000005
                },
                {
                    "name": "A#5",
                    "midi": 82,
                    "time": 22.584259499999817,
                    "velocity": 0.8267716535433071,
                    "duration": 0.3370785000000005
                },
                {
                    "name": "E5",
                    "midi": 76,
                    "time": 22.921337999999817,
                    "velocity": 0.8267716535433071,
                    "duration": 1.6853924999999812
                },
                {
                    "name": "F5",
                    "midi": 77,
                    "time": 24.6067304999998,
                    "velocity": 0.8267716535433071,
                    "duration": 0.3370785000000005
                },
                {
                    "name": "G5",
                    "midi": 79,
                    "time": 24.9438089999998,
                    "velocity": 0.8267716535433071,
                    "duration": 0.3370785000000005
                },
                {
                    "name": "A5",
                    "midi": 81,
                    "time": 25.2808874999998,
                    "velocity": 0.8267716535433071,
                    "duration": 0.3370785000000005
                },
                {
                    "name": "D5",
                    "midi": 74,
                    "time": 25.6179659999998,
                    "velocity": 0.8267716535433071,
                    "duration": 1.6853924999999812
                },
                {
                    "name": "E5",
                    "midi": 76,
                    "time": 27.30335849999978,
                    "velocity": 0.8267716535433071,
                    "duration": 0.3370785000000005
                },
                {
                    "name": "F5",
                    "midi": 77,
                    "time": 27.640436999999782,
                    "velocity": 0.8267716535433071,
                    "duration": 0.3370785000000005
                },
                {
                    "name": "G5",
                    "midi": 79,
                    "time": 27.977515499999782,
                    "velocity": 0.8267716535433071,
                    "duration": 0.3370785000000005
                },
                {
                    "name": "C#5",
                    "midi": 73,
                    "time": 28.314593999999783,
                    "velocity": 0.8267716535433071,
                    "duration": 0.6320221874999845
                },
                {
                    "name": "G5",
                    "midi": 79,
                    "time": 28.988750999999766,
                    "velocity": 0.8267716535433071,
                    "duration": 1.0112354999999802
                },
                {
                    "name": "F5",
                    "midi": 77,
                    "time": 29.999986499999746,
                    "velocity": 0.8267716535433071,
                    "duration": 0.16853924999999848
                },
                {
                    "name": "E5",
                    "midi": 76,
                    "time": 30.168525749999745,
                    "velocity": 0.8267716535433071,
                    "duration": 0.16853924999999848
                },
                {
                    "name": "F5",
                    "midi": 77,
                    "time": 30.337064999999743,
                    "velocity": 0.8267716535433071,
                    "duration": 0.6741569999999797
                },
                {
                    "name": "D5",
                    "midi": 74,
                    "time": 41.797733999999714,
                    "velocity": 0.8267716535433071,
                    "duration": 0.14044937500000287
                },
                {
                    "name": "F4",
                    "midi": 65,
                    "time": 41.797733999999714,
                    "velocity": 0.8267716535433071,
                    "duration": 0.14044937500000287
                },
                {
                    "name": "D4",
                    "midi": 62,
                    "time": 41.797733999999714,
                    "velocity": 0.8267716535433071,
                    "duration": 0.14044937500000287
                },
                {
                    "name": "A5",
                    "midi": 81,
                    "time": 42.13481249999972,
                    "velocity": 0.8267716535433071,
                    "duration": 0.16853925000000203
                },
                {
                    "name": "D5",
                    "midi": 74,
                    "time": 42.13481249999972,
                    "velocity": 0.8267716535433071,
                    "duration": 0.16853925000000203
                },
                {
                    "name": "G5",
                    "midi": 79,
                    "time": 42.30335174999972,
                    "velocity": 0.8267716535433071,
                    "duration": 0.16853925000000203
                },
                {
                    "name": "F5",
                    "midi": 77,
                    "time": 42.47189099999972,
                    "velocity": 0.8267716535433071,
                    "duration": 0.16853925000000203
                },
                {
                    "name": "E5",
                    "midi": 76,
                    "time": 42.808969499999726,
                    "velocity": 0.8267716535433071,
                    "duration": 0.14044937500000287
                },
                {
                    "name": "G4",
                    "midi": 67,
                    "time": 42.808969499999726,
                    "velocity": 0.8267716535433071,
                    "duration": 0.14044937500000287
                },
                {
                    "name": "F5",
                    "midi": 77,
                    "time": 43.14604799999973,
                    "velocity": 0.8267716535433071,
                    "duration": 0.6741570000001502
                },
                {
                    "name": "A4",
                    "midi": 69,
                    "time": 43.14604799999973,
                    "velocity": 0.8267716535433071,
                    "duration": 0.6741570000001502
                },
                {
                    "name": "F5",
                    "midi": 77,
                    "time": 44.15728349999988,
                    "velocity": 0.8267716535433071,
                    "duration": 0.16853925000000203
                },
                {
                    "name": "A4",
                    "midi": 69,
                    "time": 44.15728349999988,
                    "velocity": 0.8267716535433071,
                    "duration": 0.16853925000000203
                },
                {
                    "name": "E5",
                    "midi": 76,
                    "time": 44.49436199999988,
                    "velocity": 0.8267716535433071,
                    "duration": 0.12640443749999974
                },
                {
                    "name": "G4",
                    "midi": 67,
                    "time": 44.49436199999988,
                    "velocity": 0.8267716535433071,
                    "duration": 0.12640443749999974
                },
                {
                    "name": "C5",
                    "midi": 72,
                    "time": 44.83144049999988,
                    "velocity": 0.8267716535433071,
                    "duration": 0.14044937500000287
                },
                {
                    "name": "D5",
                    "midi": 74,
                    "time": 45.16851899999988,
                    "velocity": 0.8267716535433071,
                    "duration": 0.505617749999999
                },
                {
                    "name": "F4",
                    "midi": 65,
                    "time": 45.16851899999988,
                    "velocity": 0.8267716535433071,
                    "duration": 0.505617749999999
                },
                {
                    "name": "D5",
                    "midi": 74,
                    "time": 45.67413674999988,
                    "velocity": 0.8267716535433071,
                    "duration": 0.11235949999999661
                },
                {
                    "name": "E5",
                    "midi": 76,
                    "time": 45.84267599999988,
                    "velocity": 0.8267716535433071,
                    "duration": 0.16853925000000203
                },
                {
                    "name": "F4",
                    "midi": 65,
                    "time": 45.84267599999988,
                    "velocity": 0.8267716535433071,
                    "duration": 0.16853925000000203
                },
                {
                    "name": "D5",
                    "midi": 74,
                    "time": 46.01121524999988,
                    "velocity": 0.8267716535433071,
                    "duration": 0.16853925000000203
                },
                {
                    "name": "C5",
                    "midi": 72,
                    "time": 46.17975449999988,
                    "velocity": 0.8267716535433071,
                    "duration": 0.16853925000000203
                },
                {
                    "name": "E4",
                    "midi": 64,
                    "time": 46.17975449999988,
                    "velocity": 0.8267716535433071,
                    "duration": 0.16853925000000203
                },
                {
                    "name": "D5",
                    "midi": 74,
                    "time": 46.516832999999885,
                    "velocity": 0.8267716535433071,
                    "duration": 0.6741570000001502
                },
                {
                    "name": "F4",
                    "midi": 65,
                    "time": 46.516832999999885,
                    "velocity": 0.7086614173228346,
                    "duration": 0.6741570000001502
                },
                {
                    "name": "D5",
                    "midi": 74,
                    "time": 47.190990000000035,
                    "velocity": 0.8267716535433071,
                    "duration": 0.14044937500000287
                },
                {
                    "name": "F4",
                    "midi": 65,
                    "time": 47.190990000000035,
                    "velocity": 0.8267716535433071,
                    "duration": 0.14044937500000287
                },
                {
                    "name": "D4",
                    "midi": 62,
                    "time": 47.190990000000035,
                    "velocity": 0.8267716535433071,
                    "duration": 0.14044937500000287
                },
                {
                    "name": "A5",
                    "midi": 81,
                    "time": 47.52806850000004,
                    "velocity": 0.8267716535433071,
                    "duration": 0.16853925000000203
                },
                {
                    "name": "D5",
                    "midi": 74,
                    "time": 47.52806850000004,
                    "velocity": 0.8267716535433071,
                    "duration": 0.16853925000000203
                },
                {
                    "name": "G5",
                    "midi": 79,
                    "time": 47.69660775000004,
                    "velocity": 0.8267716535433071,
                    "duration": 0.16853925000000203
                },
                {
                    "name": "F5",
                    "midi": 77,
                    "time": 47.86514700000004,
                    "velocity": 0.8267716535433071,
                    "duration": 0.16853925000000203
                },
                {
                    "name": "E5",
                    "midi": 76,
                    "time": 48.20222550000005,
                    "velocity": 0.8267716535433071,
                    "duration": 0.14044937500000287
                },
                {
                    "name": "G4",
                    "midi": 67,
                    "time": 48.20222550000005,
                    "velocity": 0.8267716535433071,
                    "duration": 0.14044937500000287
                },
                {
                    "name": "F5",
                    "midi": 77,
                    "time": 48.53930400000005,
                    "velocity": 0.8267716535433071,
                    "duration": 0.6741570000001502
                },
                {
                    "name": "A4",
                    "midi": 69,
                    "time": 48.53930400000005,
                    "velocity": 0.8267716535433071,
                    "duration": 0.6741570000001502
                },
                {
                    "name": "F5",
                    "midi": 77,
                    "time": 49.5505395000002,
                    "velocity": 0.8267716535433071,
                    "duration": 0.16853925000000203
                },
                {
                    "name": "A4",
                    "midi": 69,
                    "time": 49.5505395000002,
                    "velocity": 0.8267716535433071,
                    "duration": 0.16853925000000203
                },
                {
                    "name": "E5",
                    "midi": 76,
                    "time": 49.8876180000002,
                    "velocity": 0.8267716535433071,
                    "duration": 0.12640443749999974
                },
                {
                    "name": "G4",
                    "midi": 67,
                    "time": 49.8876180000002,
                    "velocity": 0.7086614173228346,
                    "duration": 0.12640443749999974
                },
                {
                    "name": "C5",
                    "midi": 72,
                    "time": 50.2246965000002,
                    "velocity": 0.8267716535433071,
                    "duration": 0.14044937500000287
                },
                {
                    "name": "D5",
                    "midi": 74,
                    "time": 50.5617750000002,
                    "velocity": 0.8267716535433071,
                    "duration": 0.505617749999999
                },
                {
                    "name": "F4",
                    "midi": 65,
                    "time": 50.5617750000002,
                    "velocity": 0.7086614173228346,
                    "duration": 0.505617749999999
                },
                {
                    "name": "D5",
                    "midi": 74,
                    "time": 51.0673927500002,
                    "velocity": 0.8267716535433071,
                    "duration": 0.11235949999999661
                },
                {
                    "name": "E5",
                    "midi": 76,
                    "time": 51.2359320000002,
                    "velocity": 0.8267716535433071,
                    "duration": 0.16853925000000203
                },
                {
                    "name": "F4",
                    "midi": 65,
                    "time": 51.2359320000002,
                    "velocity": 0.7086614173228346,
                    "duration": 0.16853925000000203
                },
                {
                    "name": "F5",
                    "midi": 77,
                    "time": 51.4044712500002,
                    "velocity": 0.8267716535433071,
                    "duration": 0.16853925000000203
                },
                {
                    "name": "E5",
                    "midi": 76,
                    "time": 51.5730105000002,
                    "velocity": 0.8267716535433071,
                    "duration": 0.16853925000000203
                },
                {
                    "name": "D5",
                    "midi": 74,
                    "time": 51.910089000000205,
                    "velocity": 0.8267716535433071,
                    "duration": 1.3483140000002223
                },
                {
                    "name": "F4",
                    "midi": 65,
                    "time": 51.910089000000205,
                    "velocity": 0.7086614173228346,
                    "duration": 1.3483140000002223
                },
                {
                    "name": "F5",
                    "midi": 77,
                    "time": 56.629188000000426,
                    "velocity": 0.8267716535433071,
                    "duration": 1.0112355000002253
                },
                {
                    "name": "E5",
                    "midi": 76,
                    "time": 57.64042350000065,
                    "velocity": 0.8267716535433071,
                    "duration": 0.14044937500000287
                },
                {
                    "name": "D5",
                    "midi": 74,
                    "time": 57.80896275000065,
                    "velocity": 0.8267716535433071,
                    "duration": 0.14044937500000287
                },
                {
                    "name": "E5",
                    "midi": 76,
                    "time": 57.977502000000655,
                    "velocity": 0.8267716535433071,
                    "duration": 0.6460671250000019
                },
                {
                    "name": "A4",
                    "midi": 69,
                    "time": 58.651659000000656,
                    "velocity": 0.8267716535433071,
                    "duration": 0.6460671250000019
                },
                {
                    "name": "F5",
                    "midi": 77,
                    "time": 59.32581600000066,
                    "velocity": 0.8267716535433071,
                    "duration": 1.0112355000002253
                },
                {
                    "name": "E5",
                    "midi": 76,
                    "time": 60.33705150000088,
                    "velocity": 0.8267716535433071,
                    "duration": 0.14044937500000287
                },
                {
                    "name": "D5",
                    "midi": 74,
                    "time": 60.505590750000884,
                    "velocity": 0.8267716535433071,
                    "duration": 0.14044937500000287
                },
                {
                    "name": "E5",
                    "midi": 76,
                    "time": 60.674130000000886,
                    "velocity": 0.8267716535433071,
                    "duration": 1.3202241250001734
                },
                {
                    "name": "F5",
                    "midi": 77,
                    "time": 62.02244400000106,
                    "velocity": 0.8267716535433071,
                    "duration": 1.6853925000001695
                },
                {
                    "name": "G5",
                    "midi": 79,
                    "time": 63.70783650000123,
                    "velocity": 0.8267716535433071,
                    "duration": 0.33707849999999695
                },
                {
                    "name": "A5",
                    "midi": 81,
                    "time": 64.04491500000123,
                    "velocity": 0.8267716535433071,
                    "duration": 0.33707850000000406
                },
                {
                    "name": "A#5",
                    "midi": 82,
                    "time": 64.38199350000123,
                    "velocity": 0.8267716535433071,
                    "duration": 0.33707850000000406
                },
                {
                    "name": "E5",
                    "midi": 76,
                    "time": 64.71907200000123,
                    "velocity": 0.8267716535433071,
                    "duration": 1.6853925000001482
                },
                {
                    "name": "F5",
                    "midi": 77,
                    "time": 66.40446450000138,
                    "velocity": 0.8267716535433071,
                    "duration": 0.33707850000000406
                },
                {
                    "name": "G5",
                    "midi": 79,
                    "time": 66.74154300000139,
                    "velocity": 0.8267716535433071,
                    "duration": 0.33707850000000406
                },
                {
                    "name": "A5",
                    "midi": 81,
                    "time": 67.07862150000139,
                    "velocity": 0.8267716535433071,
                    "duration": 0.33707850000000406
                },
                {
                    "name": "D5",
                    "midi": 74,
                    "time": 67.4157000000014,
                    "velocity": 0.8267716535433071,
                    "duration": 1.6853925000001482
                },
                {
                    "name": "E5",
                    "midi": 76,
                    "time": 69.10109250000154,
                    "velocity": 0.8267716535433071,
                    "duration": 0.33707850000000406
                },
                {
                    "name": "F5",
                    "midi": 77,
                    "time": 69.43817100000155,
                    "velocity": 0.8267716535433071,
                    "duration": 0.33707850000000406
                },
                {
                    "name": "G5",
                    "midi": 79,
                    "time": 69.77524950000155,
                    "velocity": 0.8267716535433071,
                    "duration": 0.33707850000000406
                },
                {
                    "name": "C#5",
                    "midi": 73,
                    "time": 70.11232800000155,
                    "velocity": 0.8267716535433071,
                    "duration": 0.6320221875001266
                },
                {
                    "name": "G5",
                    "midi": 79,
                    "time": 70.78648500000168,
                    "velocity": 0.8267716535433071,
                    "duration": 1.0112355000001543
                },
                {
                    "name": "F5",
                    "midi": 77,
                    "time": 71.79772050000183,
                    "velocity": 0.8267716535433071,
                    "duration": 0.16853924999999492
                },
                {
                    "name": "E5",
                    "midi": 76,
                    "time": 71.96625975000183,
                    "velocity": 0.8267716535433071,
                    "duration": 0.16853924999999492
                },
                {
                    "name": "F5",
                    "midi": 77,
                    "time": 72.13479900000182,
                    "velocity": 0.8267716535433071,
                    "duration": 0.6741570000001502
                }
            ],
            "controlChanges": {
                "1": [
                    {
                        "number": 1,
                        "time": 1.348314,
                        "value": 0
                    },
                    {
                        "number": 1,
                        "time": 1.3623589375,
                        "value": 0.015748031496062992
                    },
                    {
                        "number": 1,
                        "time": 1.376403875,
                        "value": 0.031496062992125984
                    },
                    {
                        "number": 1,
                        "time": 1.3904488125,
                        "value": 0.047244094488188976
                    },
                    {
                        "number": 1,
                        "time": 1.40449375,
                        "value": 0.06299212598425197
                    },
                    {
                        "number": 1,
                        "time": 1.4185386875000001,
                        "value": 0.08661417322834646
                    },
                    {
                        "number": 1,
                        "time": 1.4325836250000001,
                        "value": 0.10236220472440945
                    },
                    {
                        "number": 1,
                        "time": 1.4466285625000002,
                        "value": 0.11811023622047244
                    },
                    {
                        "number": 1,
                        "time": 1.4606735000000002,
                        "value": 0.13385826771653545
                    },
                    {
                        "number": 1,
                        "time": 1.4747184375000002,
                        "value": 0.14960629921259844
                    },
                    {
                        "number": 1,
                        "time": 1.4887633750000002,
                        "value": 0.1732283464566929
                    },
                    {
                        "number": 1,
                        "time": 1.5028083125000002,
                        "value": 0.1889763779527559
                    },
                    {
                        "number": 1,
                        "time": 1.5168532500000003,
                        "value": 0.2047244094488189
                    },
                    {
                        "number": 1,
                        "time": 1.5308981875000003,
                        "value": 0.2204724409448819
                    },
                    {
                        "number": 1,
                        "time": 1.5449431250000003,
                        "value": 0.23622047244094488
                    },
                    {
                        "number": 1,
                        "time": 1.5589880625000003,
                        "value": 0.25984251968503935
                    },
                    {
                        "number": 1,
                        "time": 1.5730330000000003,
                        "value": 0.2755905511811024
                    },
                    {
                        "number": 1,
                        "time": 1.5870779375000004,
                        "value": 0.29133858267716534
                    },
                    {
                        "number": 1,
                        "time": 1.6011228750000004,
                        "value": 0.30708661417322836
                    },
                    {
                        "number": 1,
                        "time": 1.6151678125000004,
                        "value": 0.33070866141732286
                    },
                    {
                        "number": 1,
                        "time": 1.6292127500000004,
                        "value": 0.3464566929133858
                    },
                    {
                        "number": 1,
                        "time": 1.6432576875000005,
                        "value": 0.36220472440944884
                    },
                    {
                        "number": 1,
                        "time": 1.6573026250000005,
                        "value": 0.3779527559055118
                    },
                    {
                        "number": 1,
                        "time": 1.6713475625000005,
                        "value": 0.3937007874015748
                    },
                    {
                        "number": 1,
                        "time": 1.6853925000000005,
                        "value": 0.41732283464566927
                    },
                    {
                        "number": 1,
                        "time": 1.6994374375000005,
                        "value": 0.4330708661417323
                    },
                    {
                        "number": 1,
                        "time": 1.7134823750000006,
                        "value": 0.44881889763779526
                    },
                    {
                        "number": 1,
                        "time": 1.7275273125000006,
                        "value": 0.4645669291338583
                    },
                    {
                        "number": 1,
                        "time": 1.7415722500000006,
                        "value": 0.48031496062992124
                    },
                    {
                        "number": 1,
                        "time": 1.7556171875000006,
                        "value": 0.5039370078740157
                    },
                    {
                        "number": 1,
                        "time": 1.7696621250000006,
                        "value": 0.5196850393700787
                    },
                    {
                        "number": 1,
                        "time": 1.7837070625000007,
                        "value": 0.5354330708661418
                    },
                    {
                        "number": 1,
                        "time": 1.7977520000000007,
                        "value": 0.5511811023622047
                    },
                    {
                        "number": 1,
                        "time": 1.8117969375000007,
                        "value": 0.5748031496062992
                    },
                    {
                        "number": 1,
                        "time": 1.8258418750000007,
                        "value": 0.5905511811023622
                    },
                    {
                        "number": 1,
                        "time": 1.8398868125000007,
                        "value": 0.6062992125984252
                    },
                    {
                        "number": 1,
                        "time": 1.8539317500000008,
                        "value": 0.6220472440944882
                    },
                    {
                        "number": 1,
                        "time": 1.8679766875000008,
                        "value": 0.6377952755905512
                    },
                    {
                        "number": 1,
                        "time": 1.8820216250000008,
                        "value": 0.6614173228346457
                    },
                    {
                        "number": 1,
                        "time": 1.8960665625000008,
                        "value": 0.6771653543307087
                    },
                    {
                        "number": 1,
                        "time": 1.9101115000000009,
                        "value": 0.6929133858267716
                    },
                    {
                        "number": 1,
                        "time": 1.9241564375000009,
                        "value": 0.7086614173228346
                    },
                    {
                        "number": 1,
                        "time": 1.938201375000001,
                        "value": 0.7244094488188977
                    },
                    {
                        "number": 1,
                        "time": 1.952246312500001,
                        "value": 0.7480314960629921
                    },
                    {
                        "number": 1,
                        "time": 1.966291250000001,
                        "value": 0.7637795275590551
                    },
                    {
                        "number": 1,
                        "time": 1.980336187500001,
                        "value": 0.7795275590551181
                    },
                    {
                        "number": 1,
                        "time": 1.994381125000001,
                        "value": 0.7952755905511811
                    },
                    {
                        "number": 1,
                        "time": 2.0084260625000008,
                        "value": 0.8188976377952756
                    },
                    {
                        "number": 1,
                        "time": 2.359549500000001,
                        "value": 0
                    },
                    {
                        "number": 1,
                        "time": 4.719099000000001,
                        "value": 0
                    },
                    {
                        "number": 1,
                        "time": 4.7331439375,
                        "value": 0.015748031496062992
                    },
                    {
                        "number": 1,
                        "time": 4.747188875,
                        "value": 0.031496062992125984
                    },
                    {
                        "number": 1,
                        "time": 4.7612338124999996,
                        "value": 0.047244094488188976
                    },
                    {
                        "number": 1,
                        "time": 4.775278749999999,
                        "value": 0.06299212598425197
                    },
                    {
                        "number": 1,
                        "time": 4.789323687499999,
                        "value": 0.08661417322834646
                    },
                    {
                        "number": 1,
                        "time": 4.803368624999998,
                        "value": 0.10236220472440945
                    },
                    {
                        "number": 1,
                        "time": 4.817413562499998,
                        "value": 0.11811023622047244
                    },
                    {
                        "number": 1,
                        "time": 4.831458499999997,
                        "value": 0.13385826771653545
                    },
                    {
                        "number": 1,
                        "time": 4.845503437499997,
                        "value": 0.14960629921259844
                    },
                    {
                        "number": 1,
                        "time": 4.859548374999997,
                        "value": 0.1732283464566929
                    },
                    {
                        "number": 1,
                        "time": 4.873593312499996,
                        "value": 0.1889763779527559
                    },
                    {
                        "number": 1,
                        "time": 4.887638249999996,
                        "value": 0.2047244094488189
                    },
                    {
                        "number": 1,
                        "time": 4.901683187499995,
                        "value": 0.2204724409448819
                    },
                    {
                        "number": 1,
                        "time": 4.915728124999995,
                        "value": 0.23622047244094488
                    },
                    {
                        "number": 1,
                        "time": 4.9297730624999945,
                        "value": 0.25984251968503935
                    },
                    {
                        "number": 1,
                        "time": 4.943817999999994,
                        "value": 0.2755905511811024
                    },
                    {
                        "number": 1,
                        "time": 4.957862937499994,
                        "value": 0.29133858267716534
                    },
                    {
                        "number": 1,
                        "time": 4.971907874999993,
                        "value": 0.30708661417322836
                    },
                    {
                        "number": 1,
                        "time": 4.985952812499993,
                        "value": 0.33070866141732286
                    },
                    {
                        "number": 1,
                        "time": 4.999997749999992,
                        "value": 0.3464566929133858
                    },
                    {
                        "number": 1,
                        "time": 5.014042687499992,
                        "value": 0.36220472440944884
                    },
                    {
                        "number": 1,
                        "time": 5.0280876249999915,
                        "value": 0.3779527559055118
                    },
                    {
                        "number": 1,
                        "time": 5.042132562499991,
                        "value": 0.3937007874015748
                    },
                    {
                        "number": 1,
                        "time": 5.056177499999991,
                        "value": 0.41732283464566927
                    },
                    {
                        "number": 1,
                        "time": 5.07022243749999,
                        "value": 0.4330708661417323
                    },
                    {
                        "number": 1,
                        "time": 5.08426737499999,
                        "value": 0.44881889763779526
                    },
                    {
                        "number": 1,
                        "time": 5.098312312499989,
                        "value": 0.4645669291338583
                    },
                    {
                        "number": 1,
                        "time": 5.112357249999989,
                        "value": 0.48031496062992124
                    },
                    {
                        "number": 1,
                        "time": 5.1264021874999885,
                        "value": 0.5039370078740157
                    },
                    {
                        "number": 1,
                        "time": 5.140447124999988,
                        "value": 0.5196850393700787
                    },
                    {
                        "number": 1,
                        "time": 5.154492062499988,
                        "value": 0.5354330708661418
                    },
                    {
                        "number": 1,
                        "time": 5.168536999999987,
                        "value": 0.5511811023622047
                    },
                    {
                        "number": 1,
                        "time": 5.182581937499987,
                        "value": 0.5748031496062992
                    },
                    {
                        "number": 1,
                        "time": 5.196626874999986,
                        "value": 0.5905511811023622
                    },
                    {
                        "number": 1,
                        "time": 5.210671812499986,
                        "value": 0.6062992125984252
                    },
                    {
                        "number": 1,
                        "time": 5.224716749999986,
                        "value": 0.6220472440944882
                    },
                    {
                        "number": 1,
                        "time": 5.238761687499985,
                        "value": 0.6377952755905512
                    },
                    {
                        "number": 1,
                        "time": 5.252806624999985,
                        "value": 0.6614173228346457
                    },
                    {
                        "number": 1,
                        "time": 5.266851562499984,
                        "value": 0.6771653543307087
                    },
                    {
                        "number": 1,
                        "time": 5.280896499999984,
                        "value": 0.6929133858267716
                    },
                    {
                        "number": 1,
                        "time": 5.2949414374999835,
                        "value": 0.7086614173228346
                    },
                    {
                        "number": 1,
                        "time": 5.308986374999983,
                        "value": 0.7244094488188977
                    },
                    {
                        "number": 1,
                        "time": 5.323031312499983,
                        "value": 0.7480314960629921
                    },
                    {
                        "number": 1,
                        "time": 5.337076249999982,
                        "value": 0.7637795275590551
                    },
                    {
                        "number": 1,
                        "time": 5.351121187499982,
                        "value": 0.7795275590551181
                    },
                    {
                        "number": 1,
                        "time": 5.365166124999981,
                        "value": 0.7952755905511811
                    },
                    {
                        "number": 1,
                        "time": 5.379211062499981,
                        "value": 0.8188976377952756
                    },
                    {
                        "number": 1,
                        "time": 5.3932559999999805,
                        "value": 0
                    },
                    {
                        "number": 1,
                        "time": 6.7415699999999825,
                        "value": 0
                    },
                    {
                        "number": 1,
                        "time": 6.755614937499982,
                        "value": 0.015748031496062992
                    },
                    {
                        "number": 1,
                        "time": 6.769659874999982,
                        "value": 0.031496062992125984
                    },
                    {
                        "number": 1,
                        "time": 6.783704812499981,
                        "value": 0.047244094488188976
                    },
                    {
                        "number": 1,
                        "time": 6.797749749999981,
                        "value": 0.06299212598425197
                    },
                    {
                        "number": 1,
                        "time": 6.81179468749998,
                        "value": 0.08661417322834646
                    },
                    {
                        "number": 1,
                        "time": 6.82583962499998,
                        "value": 0.10236220472440945
                    },
                    {
                        "number": 1,
                        "time": 6.83988456249998,
                        "value": 0.11811023622047244
                    },
                    {
                        "number": 1,
                        "time": 6.853929499999979,
                        "value": 0.13385826771653545
                    },
                    {
                        "number": 1,
                        "time": 6.867974437499979,
                        "value": 0.14960629921259844
                    },
                    {
                        "number": 1,
                        "time": 6.882019374999978,
                        "value": 0.1732283464566929
                    },
                    {
                        "number": 1,
                        "time": 6.896064312499978,
                        "value": 0.1889763779527559
                    },
                    {
                        "number": 1,
                        "time": 6.910109249999977,
                        "value": 0.2047244094488189
                    },
                    {
                        "number": 1,
                        "time": 6.924154187499977,
                        "value": 0.2204724409448819
                    },
                    {
                        "number": 1,
                        "time": 6.938199124999977,
                        "value": 0.23622047244094488
                    },
                    {
                        "number": 1,
                        "time": 6.952244062499976,
                        "value": 0.25984251968503935
                    },
                    {
                        "number": 1,
                        "time": 6.966288999999976,
                        "value": 0.2755905511811024
                    },
                    {
                        "number": 1,
                        "time": 6.980333937499975,
                        "value": 0.29133858267716534
                    },
                    {
                        "number": 1,
                        "time": 6.994378874999975,
                        "value": 0.30708661417322836
                    },
                    {
                        "number": 1,
                        "time": 7.0084238124999745,
                        "value": 0.33070866141732286
                    },
                    {
                        "number": 1,
                        "time": 7.022468749999974,
                        "value": 0.3464566929133858
                    },
                    {
                        "number": 1,
                        "time": 7.036513687499974,
                        "value": 0.36220472440944884
                    },
                    {
                        "number": 1,
                        "time": 7.050558624999973,
                        "value": 0.3779527559055118
                    },
                    {
                        "number": 1,
                        "time": 7.064603562499973,
                        "value": 0.3937007874015748
                    },
                    {
                        "number": 1,
                        "time": 7.078648499999972,
                        "value": 0.41732283464566927
                    },
                    {
                        "number": 1,
                        "time": 7.092693437499972,
                        "value": 0.4330708661417323
                    },
                    {
                        "number": 1,
                        "time": 7.1067383749999715,
                        "value": 0.44881889763779526
                    },
                    {
                        "number": 1,
                        "time": 7.120783312499971,
                        "value": 0.4645669291338583
                    },
                    {
                        "number": 1,
                        "time": 7.134828249999971,
                        "value": 0.48031496062992124
                    },
                    {
                        "number": 1,
                        "time": 7.14887318749997,
                        "value": 0.5039370078740157
                    },
                    {
                        "number": 1,
                        "time": 7.16291812499997,
                        "value": 0.5196850393700787
                    },
                    {
                        "number": 1,
                        "time": 7.176963062499969,
                        "value": 0.5354330708661418
                    },
                    {
                        "number": 1,
                        "time": 7.191007999999969,
                        "value": 0.5511811023622047
                    },
                    {
                        "number": 1,
                        "time": 7.205052937499969,
                        "value": 0.5748031496062992
                    },
                    {
                        "number": 1,
                        "time": 7.219097874999968,
                        "value": 0.5905511811023622
                    },
                    {
                        "number": 1,
                        "time": 7.233142812499968,
                        "value": 0.6062992125984252
                    },
                    {
                        "number": 1,
                        "time": 7.247187749999967,
                        "value": 0.6220472440944882
                    },
                    {
                        "number": 1,
                        "time": 7.261232687499967,
                        "value": 0.6377952755905512
                    },
                    {
                        "number": 1,
                        "time": 7.275277624999966,
                        "value": 0.6614173228346457
                    },
                    {
                        "number": 1,
                        "time": 7.289322562499966,
                        "value": 0.6771653543307087
                    },
                    {
                        "number": 1,
                        "time": 7.303367499999966,
                        "value": 0.6929133858267716
                    },
                    {
                        "number": 1,
                        "time": 7.317412437499965,
                        "value": 0.7086614173228346
                    },
                    {
                        "number": 1,
                        "time": 7.331457374999965,
                        "value": 0.7244094488188977
                    },
                    {
                        "number": 1,
                        "time": 7.345502312499964,
                        "value": 0.7480314960629921
                    },
                    {
                        "number": 1,
                        "time": 7.359547249999964,
                        "value": 0.7637795275590551
                    },
                    {
                        "number": 1,
                        "time": 7.3735921874999635,
                        "value": 0.7795275590551181
                    },
                    {
                        "number": 1,
                        "time": 7.387637124999963,
                        "value": 0.7952755905511811
                    },
                    {
                        "number": 1,
                        "time": 7.401682062499963,
                        "value": 0.8188976377952756
                    },
                    {
                        "number": 1,
                        "time": 7.752805499999962,
                        "value": 0
                    },
                    {
                        "number": 1,
                        "time": 10.112354999999964,
                        "value": 0
                    },
                    {
                        "number": 1,
                        "time": 10.126399937499963,
                        "value": 0.007874015748031496
                    },
                    {
                        "number": 1,
                        "time": 10.140444874999963,
                        "value": 0.015748031496062992
                    },
                    {
                        "number": 1,
                        "time": 10.154489812499962,
                        "value": 0.031496062992125984
                    },
                    {
                        "number": 1,
                        "time": 10.168534749999962,
                        "value": 0.03937007874015748
                    },
                    {
                        "number": 1,
                        "time": 10.182579687499961,
                        "value": 0.05511811023622047
                    },
                    {
                        "number": 1,
                        "time": 10.196624624999961,
                        "value": 0.06299212598425197
                    },
                    {
                        "number": 1,
                        "time": 10.21066956249996,
                        "value": 0.07874015748031496
                    },
                    {
                        "number": 1,
                        "time": 10.22471449999996,
                        "value": 0.08661417322834646
                    },
                    {
                        "number": 1,
                        "time": 10.23875943749996,
                        "value": 0.10236220472440945
                    },
                    {
                        "number": 1,
                        "time": 10.25280437499996,
                        "value": 0.11023622047244094
                    },
                    {
                        "number": 1,
                        "time": 10.266849312499959,
                        "value": 0.12598425196850394
                    },
                    {
                        "number": 1,
                        "time": 10.280894249999958,
                        "value": 0.13385826771653545
                    },
                    {
                        "number": 1,
                        "time": 10.294939187499958,
                        "value": 0.14960629921259844
                    },
                    {
                        "number": 1,
                        "time": 10.308984124999958,
                        "value": 0.15748031496062992
                    },
                    {
                        "number": 1,
                        "time": 10.323029062499957,
                        "value": 0.16535433070866143
                    },
                    {
                        "number": 1,
                        "time": 10.337073999999957,
                        "value": 0.18110236220472442
                    },
                    {
                        "number": 1,
                        "time": 10.351118937499956,
                        "value": 0.1889763779527559
                    },
                    {
                        "number": 1,
                        "time": 10.365163874999956,
                        "value": 0.2047244094488189
                    },
                    {
                        "number": 1,
                        "time": 10.379208812499956,
                        "value": 0.2125984251968504
                    },
                    {
                        "number": 1,
                        "time": 10.393253749999955,
                        "value": 0.2283464566929134
                    },
                    {
                        "number": 1,
                        "time": 10.407298687499955,
                        "value": 0.23622047244094488
                    },
                    {
                        "number": 1,
                        "time": 10.421343624999954,
                        "value": 0.25196850393700787
                    },
                    {
                        "number": 1,
                        "time": 10.435388562499954,
                        "value": 0.25984251968503935
                    },
                    {
                        "number": 1,
                        "time": 10.449433499999953,
                        "value": 0.2755905511811024
                    },
                    {
                        "number": 1,
                        "time": 10.463478437499953,
                        "value": 0.28346456692913385
                    },
                    {
                        "number": 1,
                        "time": 10.477523374999953,
                        "value": 0.2992125984251969
                    },
                    {
                        "number": 1,
                        "time": 10.491568312499952,
                        "value": 0.30708661417322836
                    },
                    {
                        "number": 1,
                        "time": 10.505613249999952,
                        "value": 0.3228346456692913
                    },
                    {
                        "number": 1,
                        "time": 10.519658187499951,
                        "value": 0.33070866141732286
                    },
                    {
                        "number": 1,
                        "time": 10.53370312499995,
                        "value": 0.33858267716535434
                    },
                    {
                        "number": 1,
                        "time": 10.54774806249995,
                        "value": 0.3543307086614173
                    },
                    {
                        "number": 1,
                        "time": 10.56179299999995,
                        "value": 0.36220472440944884
                    },
                    {
                        "number": 1,
                        "time": 10.57583793749995,
                        "value": 0.3779527559055118
                    },
                    {
                        "number": 1,
                        "time": 10.58988287499995,
                        "value": 0.3858267716535433
                    },
                    {
                        "number": 1,
                        "time": 10.603927812499949,
                        "value": 0.4015748031496063
                    },
                    {
                        "number": 1,
                        "time": 10.617972749999948,
                        "value": 0.4094488188976378
                    },
                    {
                        "number": 1,
                        "time": 10.632017687499948,
                        "value": 0.4251968503937008
                    },
                    {
                        "number": 1,
                        "time": 10.646062624999947,
                        "value": 0.4330708661417323
                    },
                    {
                        "number": 1,
                        "time": 10.660107562499947,
                        "value": 0.44881889763779526
                    },
                    {
                        "number": 1,
                        "time": 10.674152499999947,
                        "value": 0.4566929133858268
                    },
                    {
                        "number": 1,
                        "time": 10.688197437499946,
                        "value": 0.47244094488188976
                    },
                    {
                        "number": 1,
                        "time": 10.702242374999946,
                        "value": 0.48031496062992124
                    },
                    {
                        "number": 1,
                        "time": 10.716287312499945,
                        "value": 0.4881889763779528
                    },
                    {
                        "number": 1,
                        "time": 10.730332249999945,
                        "value": 0.5039370078740157
                    },
                    {
                        "number": 1,
                        "time": 10.744377187499945,
                        "value": 0.5118110236220472
                    },
                    {
                        "number": 1,
                        "time": 10.758422124999944,
                        "value": 0.5275590551181102
                    },
                    {
                        "number": 1,
                        "time": 10.772467062499944,
                        "value": 0.5354330708661418
                    },
                    {
                        "number": 1,
                        "time": 10.786511999999943,
                        "value": 0.5511811023622047
                    },
                    {
                        "number": 1,
                        "time": 10.800556937499943,
                        "value": 0.5590551181102362
                    },
                    {
                        "number": 1,
                        "time": 10.814601874999942,
                        "value": 0.5748031496062992
                    },
                    {
                        "number": 1,
                        "time": 10.828646812499942,
                        "value": 0.5826771653543307
                    },
                    {
                        "number": 1,
                        "time": 10.842691749999942,
                        "value": 0.5984251968503937
                    },
                    {
                        "number": 1,
                        "time": 10.856736687499941,
                        "value": 0.6062992125984252
                    },
                    {
                        "number": 1,
                        "time": 10.87078162499994,
                        "value": 0.6220472440944882
                    },
                    {
                        "number": 1,
                        "time": 10.88482656249994,
                        "value": 0.6299212598425197
                    },
                    {
                        "number": 1,
                        "time": 10.89887149999994,
                        "value": 0.6456692913385826
                    },
                    {
                        "number": 1,
                        "time": 10.91291643749994,
                        "value": 0.6535433070866141
                    },
                    {
                        "number": 1,
                        "time": 10.926961374999939,
                        "value": 0.6614173228346457
                    },
                    {
                        "number": 1,
                        "time": 10.941006312499939,
                        "value": 0.6771653543307087
                    },
                    {
                        "number": 1,
                        "time": 10.955051249999938,
                        "value": 0.6850393700787402
                    },
                    {
                        "number": 1,
                        "time": 10.969096187499938,
                        "value": 0.7007874015748031
                    },
                    {
                        "number": 1,
                        "time": 10.983141124999937,
                        "value": 0.7086614173228346
                    },
                    {
                        "number": 1,
                        "time": 10.997186062499937,
                        "value": 0.7244094488188977
                    },
                    {
                        "number": 1,
                        "time": 11.011230999999936,
                        "value": 0.7322834645669292
                    },
                    {
                        "number": 1,
                        "time": 11.025275937499936,
                        "value": 0.7480314960629921
                    },
                    {
                        "number": 1,
                        "time": 11.039320874999936,
                        "value": 0.7559055118110236
                    },
                    {
                        "number": 1,
                        "time": 11.053365812499935,
                        "value": 0.7716535433070866
                    },
                    {
                        "number": 1,
                        "time": 11.067410749999935,
                        "value": 0.7795275590551181
                    },
                    {
                        "number": 1,
                        "time": 11.081455687499934,
                        "value": 0.7952755905511811
                    },
                    {
                        "number": 1,
                        "time": 11.095500624999934,
                        "value": 0.8031496062992126
                    },
                    {
                        "number": 1,
                        "time": 11.109545562499934,
                        "value": 0.8188976377952756
                    },
                    {
                        "number": 1,
                        "time": 14.831453999999933,
                        "value": 0
                    },
                    {
                        "number": 1,
                        "time": 14.845498937499933,
                        "value": 0.007874015748031496
                    },
                    {
                        "number": 1,
                        "time": 14.859543874999932,
                        "value": 0.015748031496062992
                    },
                    {
                        "number": 1,
                        "time": 14.873588812499932,
                        "value": 0.031496062992125984
                    },
                    {
                        "number": 1,
                        "time": 14.887633749999932,
                        "value": 0.03937007874015748
                    },
                    {
                        "number": 1,
                        "time": 14.901678687499931,
                        "value": 0.05511811023622047
                    },
                    {
                        "number": 1,
                        "time": 14.91572362499993,
                        "value": 0.06299212598425197
                    },
                    {
                        "number": 1,
                        "time": 14.92976856249993,
                        "value": 0.07874015748031496
                    },
                    {
                        "number": 1,
                        "time": 14.94381349999993,
                        "value": 0.08661417322834646
                    },
                    {
                        "number": 1,
                        "time": 14.95785843749993,
                        "value": 0.10236220472440945
                    },
                    {
                        "number": 1,
                        "time": 14.971903374999929,
                        "value": 0.11023622047244094
                    },
                    {
                        "number": 1,
                        "time": 14.985948312499929,
                        "value": 0.12598425196850394
                    },
                    {
                        "number": 1,
                        "time": 14.999993249999928,
                        "value": 0.13385826771653545
                    },
                    {
                        "number": 1,
                        "time": 15.014038187499928,
                        "value": 0.14960629921259844
                    },
                    {
                        "number": 1,
                        "time": 15.028083124999927,
                        "value": 0.15748031496062992
                    },
                    {
                        "number": 1,
                        "time": 15.042128062499927,
                        "value": 0.16535433070866143
                    },
                    {
                        "number": 1,
                        "time": 15.056172999999927,
                        "value": 0.18110236220472442
                    },
                    {
                        "number": 1,
                        "time": 15.070217937499926,
                        "value": 0.1889763779527559
                    },
                    {
                        "number": 1,
                        "time": 15.084262874999926,
                        "value": 0.2047244094488189
                    },
                    {
                        "number": 1,
                        "time": 15.098307812499925,
                        "value": 0.2125984251968504
                    },
                    {
                        "number": 1,
                        "time": 15.112352749999925,
                        "value": 0.2283464566929134
                    },
                    {
                        "number": 1,
                        "time": 15.126397687499924,
                        "value": 0.23622047244094488
                    },
                    {
                        "number": 1,
                        "time": 15.140442624999924,
                        "value": 0.25196850393700787
                    },
                    {
                        "number": 1,
                        "time": 15.154487562499924,
                        "value": 0.25984251968503935
                    },
                    {
                        "number": 1,
                        "time": 15.168532499999923,
                        "value": 0.2755905511811024
                    },
                    {
                        "number": 1,
                        "time": 15.182577437499923,
                        "value": 0.28346456692913385
                    },
                    {
                        "number": 1,
                        "time": 15.196622374999922,
                        "value": 0.2992125984251969
                    },
                    {
                        "number": 1,
                        "time": 15.210667312499922,
                        "value": 0.30708661417322836
                    },
                    {
                        "number": 1,
                        "time": 15.224712249999921,
                        "value": 0.3228346456692913
                    },
                    {
                        "number": 1,
                        "time": 15.238757187499921,
                        "value": 0.33070866141732286
                    },
                    {
                        "number": 1,
                        "time": 15.25280212499992,
                        "value": 0.33858267716535434
                    },
                    {
                        "number": 1,
                        "time": 15.26684706249992,
                        "value": 0.3543307086614173
                    },
                    {
                        "number": 1,
                        "time": 15.28089199999992,
                        "value": 0.36220472440944884
                    },
                    {
                        "number": 1,
                        "time": 15.29493693749992,
                        "value": 0.3779527559055118
                    },
                    {
                        "number": 1,
                        "time": 15.308981874999919,
                        "value": 0.3858267716535433
                    },
                    {
                        "number": 1,
                        "time": 15.323026812499918,
                        "value": 0.4015748031496063
                    },
                    {
                        "number": 1,
                        "time": 15.337071749999918,
                        "value": 0.4094488188976378
                    },
                    {
                        "number": 1,
                        "time": 15.351116687499918,
                        "value": 0.4251968503937008
                    },
                    {
                        "number": 1,
                        "time": 15.365161624999917,
                        "value": 0.4330708661417323
                    },
                    {
                        "number": 1,
                        "time": 15.379206562499917,
                        "value": 0.44881889763779526
                    },
                    {
                        "number": 1,
                        "time": 15.393251499999916,
                        "value": 0.4566929133858268
                    },
                    {
                        "number": 1,
                        "time": 15.407296437499916,
                        "value": 0.47244094488188976
                    },
                    {
                        "number": 1,
                        "time": 15.421341374999916,
                        "value": 0.48031496062992124
                    },
                    {
                        "number": 1,
                        "time": 15.435386312499915,
                        "value": 0.4881889763779528
                    },
                    {
                        "number": 1,
                        "time": 15.449431249999915,
                        "value": 0.5039370078740157
                    },
                    {
                        "number": 1,
                        "time": 15.463476187499914,
                        "value": 0.5118110236220472
                    },
                    {
                        "number": 1,
                        "time": 15.477521124999914,
                        "value": 0.5275590551181102
                    },
                    {
                        "number": 1,
                        "time": 15.491566062499913,
                        "value": 0.5354330708661418
                    },
                    {
                        "number": 1,
                        "time": 15.505610999999913,
                        "value": 0.5511811023622047
                    },
                    {
                        "number": 1,
                        "time": 15.519655937499913,
                        "value": 0.5590551181102362
                    },
                    {
                        "number": 1,
                        "time": 15.533700874999912,
                        "value": 0.5748031496062992
                    },
                    {
                        "number": 1,
                        "time": 15.547745812499912,
                        "value": 0.5826771653543307
                    },
                    {
                        "number": 1,
                        "time": 15.561790749999911,
                        "value": 0.5984251968503937
                    },
                    {
                        "number": 1,
                        "time": 15.57583568749991,
                        "value": 0.6062992125984252
                    },
                    {
                        "number": 1,
                        "time": 15.58988062499991,
                        "value": 0.6220472440944882
                    },
                    {
                        "number": 1,
                        "time": 15.60392556249991,
                        "value": 0.6299212598425197
                    },
                    {
                        "number": 1,
                        "time": 15.61797049999991,
                        "value": 0.6456692913385826
                    },
                    {
                        "number": 1,
                        "time": 15.63201543749991,
                        "value": 0.6535433070866141
                    },
                    {
                        "number": 1,
                        "time": 15.646060374999909,
                        "value": 0.6614173228346457
                    },
                    {
                        "number": 1,
                        "time": 15.660105312499908,
                        "value": 0.6771653543307087
                    },
                    {
                        "number": 1,
                        "time": 15.674150249999908,
                        "value": 0.6850393700787402
                    },
                    {
                        "number": 1,
                        "time": 15.688195187499907,
                        "value": 0.7007874015748031
                    },
                    {
                        "number": 1,
                        "time": 15.702240124999907,
                        "value": 0.7086614173228346
                    },
                    {
                        "number": 1,
                        "time": 15.716285062499907,
                        "value": 0.7244094488188977
                    },
                    {
                        "number": 1,
                        "time": 15.730329999999906,
                        "value": 0.7322834645669292
                    },
                    {
                        "number": 1,
                        "time": 15.744374937499906,
                        "value": 0.7480314960629921
                    },
                    {
                        "number": 1,
                        "time": 15.758419874999905,
                        "value": 0.7559055118110236
                    },
                    {
                        "number": 1,
                        "time": 15.772464812499905,
                        "value": 0.7716535433070866
                    },
                    {
                        "number": 1,
                        "time": 15.786509749999905,
                        "value": 0.7795275590551181
                    },
                    {
                        "number": 1,
                        "time": 15.800554687499904,
                        "value": 0.7952755905511811
                    },
                    {
                        "number": 1,
                        "time": 15.814599624999904,
                        "value": 0.8031496062992126
                    },
                    {
                        "number": 1,
                        "time": 15.828644562499903,
                        "value": 0.8188976377952756
                    },
                    {
                        "number": 1,
                        "time": 15.842689499999903,
                        "value": 0
                    },
                    {
                        "number": 1,
                        "time": 17.528081999999895,
                        "value": 0
                    },
                    {
                        "number": 1,
                        "time": 17.542126937499894,
                        "value": 0.007874015748031496
                    },
                    {
                        "number": 1,
                        "time": 17.556171874999894,
                        "value": 0.015748031496062992
                    },
                    {
                        "number": 1,
                        "time": 17.570216812499893,
                        "value": 0.031496062992125984
                    },
                    {
                        "number": 1,
                        "time": 17.584261749999893,
                        "value": 0.03937007874015748
                    },
                    {
                        "number": 1,
                        "time": 17.598306687499893,
                        "value": 0.05511811023622047
                    },
                    {
                        "number": 1,
                        "time": 17.612351624999892,
                        "value": 0.06299212598425197
                    },
                    {
                        "number": 1,
                        "time": 17.62639656249989,
                        "value": 0.07874015748031496
                    },
                    {
                        "number": 1,
                        "time": 17.64044149999989,
                        "value": 0.08661417322834646
                    },
                    {
                        "number": 1,
                        "time": 17.65448643749989,
                        "value": 0.10236220472440945
                    },
                    {
                        "number": 1,
                        "time": 17.66853137499989,
                        "value": 0.11023622047244094
                    },
                    {
                        "number": 1,
                        "time": 17.68257631249989,
                        "value": 0.12598425196850394
                    },
                    {
                        "number": 1,
                        "time": 17.69662124999989,
                        "value": 0.13385826771653545
                    },
                    {
                        "number": 1,
                        "time": 17.71066618749989,
                        "value": 0.14960629921259844
                    },
                    {
                        "number": 1,
                        "time": 17.72471112499989,
                        "value": 0.15748031496062992
                    },
                    {
                        "number": 1,
                        "time": 17.73875606249989,
                        "value": 0.16535433070866143
                    },
                    {
                        "number": 1,
                        "time": 17.752800999999888,
                        "value": 0.18110236220472442
                    },
                    {
                        "number": 1,
                        "time": 17.766845937499887,
                        "value": 0.1889763779527559
                    },
                    {
                        "number": 1,
                        "time": 17.780890874999887,
                        "value": 0.2047244094488189
                    },
                    {
                        "number": 1,
                        "time": 17.794935812499887,
                        "value": 0.2125984251968504
                    },
                    {
                        "number": 1,
                        "time": 17.808980749999886,
                        "value": 0.2283464566929134
                    },
                    {
                        "number": 1,
                        "time": 17.823025687499886,
                        "value": 0.23622047244094488
                    },
                    {
                        "number": 1,
                        "time": 17.837070624999885,
                        "value": 0.25196850393700787
                    },
                    {
                        "number": 1,
                        "time": 17.851115562499885,
                        "value": 0.25984251968503935
                    },
                    {
                        "number": 1,
                        "time": 17.865160499999885,
                        "value": 0.2755905511811024
                    },
                    {
                        "number": 1,
                        "time": 17.879205437499884,
                        "value": 0.28346456692913385
                    },
                    {
                        "number": 1,
                        "time": 17.893250374999884,
                        "value": 0.2992125984251969
                    },
                    {
                        "number": 1,
                        "time": 17.907295312499883,
                        "value": 0.30708661417322836
                    },
                    {
                        "number": 1,
                        "time": 17.921340249999883,
                        "value": 0.3228346456692913
                    },
                    {
                        "number": 1,
                        "time": 17.935385187499882,
                        "value": 0.33070866141732286
                    },
                    {
                        "number": 1,
                        "time": 17.949430124999882,
                        "value": 0.33858267716535434
                    },
                    {
                        "number": 1,
                        "time": 17.96347506249988,
                        "value": 0.3543307086614173
                    },
                    {
                        "number": 1,
                        "time": 17.97751999999988,
                        "value": 0.36220472440944884
                    },
                    {
                        "number": 1,
                        "time": 17.99156493749988,
                        "value": 0.3779527559055118
                    },
                    {
                        "number": 1,
                        "time": 18.00560987499988,
                        "value": 0.3858267716535433
                    },
                    {
                        "number": 1,
                        "time": 18.01965481249988,
                        "value": 0.4015748031496063
                    },
                    {
                        "number": 1,
                        "time": 18.03369974999988,
                        "value": 0.4094488188976378
                    },
                    {
                        "number": 1,
                        "time": 18.04774468749988,
                        "value": 0.4251968503937008
                    },
                    {
                        "number": 1,
                        "time": 18.06178962499988,
                        "value": 0.4330708661417323
                    },
                    {
                        "number": 1,
                        "time": 18.075834562499878,
                        "value": 0.44881889763779526
                    },
                    {
                        "number": 1,
                        "time": 18.089879499999878,
                        "value": 0.4566929133858268
                    },
                    {
                        "number": 1,
                        "time": 18.103924437499877,
                        "value": 0.47244094488188976
                    },
                    {
                        "number": 1,
                        "time": 18.117969374999877,
                        "value": 0.48031496062992124
                    },
                    {
                        "number": 1,
                        "time": 18.132014312499876,
                        "value": 0.4881889763779528
                    },
                    {
                        "number": 1,
                        "time": 18.146059249999876,
                        "value": 0.5039370078740157
                    },
                    {
                        "number": 1,
                        "time": 18.160104187499876,
                        "value": 0.5118110236220472
                    },
                    {
                        "number": 1,
                        "time": 18.174149124999875,
                        "value": 0.5275590551181102
                    },
                    {
                        "number": 1,
                        "time": 18.188194062499875,
                        "value": 0.5354330708661418
                    },
                    {
                        "number": 1,
                        "time": 18.202238999999874,
                        "value": 0.5511811023622047
                    },
                    {
                        "number": 1,
                        "time": 18.216283937499874,
                        "value": 0.5590551181102362
                    },
                    {
                        "number": 1,
                        "time": 18.230328874999874,
                        "value": 0.5748031496062992
                    },
                    {
                        "number": 1,
                        "time": 18.244373812499873,
                        "value": 0.5826771653543307
                    },
                    {
                        "number": 1,
                        "time": 18.258418749999873,
                        "value": 0.5984251968503937
                    },
                    {
                        "number": 1,
                        "time": 18.272463687499872,
                        "value": 0.6062992125984252
                    },
                    {
                        "number": 1,
                        "time": 18.286508624999872,
                        "value": 0.6220472440944882
                    },
                    {
                        "number": 1,
                        "time": 18.30055356249987,
                        "value": 0.6299212598425197
                    },
                    {
                        "number": 1,
                        "time": 18.31459849999987,
                        "value": 0.6456692913385826
                    },
                    {
                        "number": 1,
                        "time": 18.32864343749987,
                        "value": 0.6535433070866141
                    },
                    {
                        "number": 1,
                        "time": 18.34268837499987,
                        "value": 0.6614173228346457
                    },
                    {
                        "number": 1,
                        "time": 18.35673331249987,
                        "value": 0.6771653543307087
                    },
                    {
                        "number": 1,
                        "time": 18.37077824999987,
                        "value": 0.6850393700787402
                    },
                    {
                        "number": 1,
                        "time": 18.38482318749987,
                        "value": 0.7007874015748031
                    },
                    {
                        "number": 1,
                        "time": 18.39886812499987,
                        "value": 0.7086614173228346
                    },
                    {
                        "number": 1,
                        "time": 18.412913062499868,
                        "value": 0.7244094488188977
                    },
                    {
                        "number": 1,
                        "time": 18.426957999999868,
                        "value": 0.7322834645669292
                    },
                    {
                        "number": 1,
                        "time": 18.441002937499867,
                        "value": 0.7480314960629921
                    },
                    {
                        "number": 1,
                        "time": 18.455047874999867,
                        "value": 0.7559055118110236
                    },
                    {
                        "number": 1,
                        "time": 18.469092812499866,
                        "value": 0.7716535433070866
                    },
                    {
                        "number": 1,
                        "time": 18.483137749999866,
                        "value": 0.7795275590551181
                    },
                    {
                        "number": 1,
                        "time": 18.497182687499865,
                        "value": 0.7952755905511811
                    },
                    {
                        "number": 1,
                        "time": 18.511227624999865,
                        "value": 0.8031496062992126
                    },
                    {
                        "number": 1,
                        "time": 18.525272562499865,
                        "value": 0.8188976377952756
                    },
                    {
                        "number": 1,
                        "time": 18.539317499999864,
                        "value": 0
                    },
                    {
                        "number": 1,
                        "time": 18.87639599999986,
                        "value": 0
                    },
                    {
                        "number": 1,
                        "time": 18.89044093749986,
                        "value": 0.007874015748031496
                    },
                    {
                        "number": 1,
                        "time": 18.90448587499986,
                        "value": 0.023622047244094488
                    },
                    {
                        "number": 1,
                        "time": 18.91853081249986,
                        "value": 0.03937007874015748
                    },
                    {
                        "number": 1,
                        "time": 18.93257574999986,
                        "value": 0.05511811023622047
                    },
                    {
                        "number": 1,
                        "time": 18.94662068749986,
                        "value": 0.07086614173228346
                    },
                    {
                        "number": 1,
                        "time": 18.96066562499986,
                        "value": 0.08661417322834646
                    },
                    {
                        "number": 1,
                        "time": 18.974710562499858,
                        "value": 0.10236220472440945
                    },
                    {
                        "number": 1,
                        "time": 18.988755499999858,
                        "value": 0.11811023622047244
                    },
                    {
                        "number": 1,
                        "time": 19.002800437499857,
                        "value": 0.13385826771653545
                    },
                    {
                        "number": 1,
                        "time": 19.016845374999857,
                        "value": 0.14173228346456693
                    },
                    {
                        "number": 1,
                        "time": 19.030890312499857,
                        "value": 0.15748031496062992
                    },
                    {
                        "number": 1,
                        "time": 19.044935249999856,
                        "value": 0.1732283464566929
                    },
                    {
                        "number": 1,
                        "time": 19.058980187499856,
                        "value": 0.1889763779527559
                    },
                    {
                        "number": 1,
                        "time": 19.073025124999855,
                        "value": 0.2047244094488189
                    },
                    {
                        "number": 1,
                        "time": 19.087070062499855,
                        "value": 0.2204724409448819
                    },
                    {
                        "number": 1,
                        "time": 19.101114999999854,
                        "value": 0.23622047244094488
                    },
                    {
                        "number": 1,
                        "time": 19.115159937499854,
                        "value": 0.25196850393700787
                    },
                    {
                        "number": 1,
                        "time": 19.129204874999854,
                        "value": 0.2677165354330709
                    },
                    {
                        "number": 1,
                        "time": 19.143249812499853,
                        "value": 0.2755905511811024
                    },
                    {
                        "number": 1,
                        "time": 19.157294749999853,
                        "value": 0.29133858267716534
                    },
                    {
                        "number": 1,
                        "time": 19.171339687499852,
                        "value": 0.30708661417322836
                    },
                    {
                        "number": 1,
                        "time": 19.185384624999852,
                        "value": 0.3228346456692913
                    },
                    {
                        "number": 1,
                        "time": 19.19942956249985,
                        "value": 0.33858267716535434
                    },
                    {
                        "number": 1,
                        "time": 19.21347449999985,
                        "value": 0.3543307086614173
                    },
                    {
                        "number": 1,
                        "time": 19.22751943749985,
                        "value": 0.3700787401574803
                    },
                    {
                        "number": 1,
                        "time": 19.24156437499985,
                        "value": 0.3858267716535433
                    },
                    {
                        "number": 1,
                        "time": 19.25560931249985,
                        "value": 0.4015748031496063
                    },
                    {
                        "number": 1,
                        "time": 19.26965424999985,
                        "value": 0.4094488188976378
                    },
                    {
                        "number": 1,
                        "time": 19.28369918749985,
                        "value": 0.4251968503937008
                    },
                    {
                        "number": 1,
                        "time": 19.29774412499985,
                        "value": 0.4409448818897638
                    },
                    {
                        "number": 1,
                        "time": 19.311789062499848,
                        "value": 0.4566929133858268
                    },
                    {
                        "number": 1,
                        "time": 19.325833999999848,
                        "value": 0.47244094488188976
                    },
                    {
                        "number": 1,
                        "time": 19.339878937499847,
                        "value": 0.4881889763779528
                    },
                    {
                        "number": 1,
                        "time": 19.353923874999847,
                        "value": 0.5039370078740157
                    },
                    {
                        "number": 1,
                        "time": 19.367968812499846,
                        "value": 0.5196850393700787
                    },
                    {
                        "number": 1,
                        "time": 19.382013749999846,
                        "value": 0.5354330708661418
                    },
                    {
                        "number": 1,
                        "time": 19.396058687499846,
                        "value": 0.5433070866141733
                    },
                    {
                        "number": 1,
                        "time": 19.410103624999845,
                        "value": 0.5590551181102362
                    },
                    {
                        "number": 1,
                        "time": 19.424148562499845,
                        "value": 0.5748031496062992
                    },
                    {
                        "number": 1,
                        "time": 19.438193499999844,
                        "value": 0.5905511811023622
                    },
                    {
                        "number": 1,
                        "time": 19.452238437499844,
                        "value": 0.6062992125984252
                    },
                    {
                        "number": 1,
                        "time": 19.466283374999843,
                        "value": 0.6220472440944882
                    },
                    {
                        "number": 1,
                        "time": 19.480328312499843,
                        "value": 0.6377952755905512
                    },
                    {
                        "number": 1,
                        "time": 19.494373249999843,
                        "value": 0.6535433070866141
                    },
                    {
                        "number": 1,
                        "time": 19.508418187499842,
                        "value": 0.6692913385826772
                    },
                    {
                        "number": 1,
                        "time": 19.52246312499984,
                        "value": 0.6771653543307087
                    },
                    {
                        "number": 1,
                        "time": 19.53650806249984,
                        "value": 0.6929133858267716
                    },
                    {
                        "number": 1,
                        "time": 19.55055299999984,
                        "value": 0.7086614173228346
                    },
                    {
                        "number": 1,
                        "time": 19.56459793749984,
                        "value": 0.7244094488188977
                    },
                    {
                        "number": 1,
                        "time": 19.57864287499984,
                        "value": 0.7401574803149606
                    },
                    {
                        "number": 1,
                        "time": 19.59268781249984,
                        "value": 0.7559055118110236
                    },
                    {
                        "number": 1,
                        "time": 19.60673274999984,
                        "value": 0.7716535433070866
                    },
                    {
                        "number": 1,
                        "time": 19.62077768749984,
                        "value": 0.7874015748031497
                    },
                    {
                        "number": 1,
                        "time": 19.63482262499984,
                        "value": 0.8031496062992126
                    },
                    {
                        "number": 1,
                        "time": 19.648867562499838,
                        "value": 0.8188976377952756
                    },
                    {
                        "number": 1,
                        "time": 20.22470999999984,
                        "value": 0
                    },
                    {
                        "number": 1,
                        "time": 20.238754937499838,
                        "value": 0.015748031496062992
                    },
                    {
                        "number": 1,
                        "time": 20.252799874999837,
                        "value": 0.031496062992125984
                    },
                    {
                        "number": 1,
                        "time": 20.266844812499837,
                        "value": 0.047244094488188976
                    },
                    {
                        "number": 1,
                        "time": 20.280889749999837,
                        "value": 0.06299212598425197
                    },
                    {
                        "number": 1,
                        "time": 20.294934687499836,
                        "value": 0.07874015748031496
                    },
                    {
                        "number": 1,
                        "time": 20.308979624999836,
                        "value": 0.10236220472440945
                    },
                    {
                        "number": 1,
                        "time": 20.323024562499835,
                        "value": 0.11811023622047244
                    },
                    {
                        "number": 1,
                        "time": 20.337069499999835,
                        "value": 0.13385826771653545
                    },
                    {
                        "number": 1,
                        "time": 20.351114437499835,
                        "value": 0.14960629921259844
                    },
                    {
                        "number": 1,
                        "time": 20.365159374999834,
                        "value": 0.16535433070866143
                    },
                    {
                        "number": 1,
                        "time": 20.379204312499834,
                        "value": 0.1889763779527559
                    },
                    {
                        "number": 1,
                        "time": 20.393249249999833,
                        "value": 0.2047244094488189
                    },
                    {
                        "number": 1,
                        "time": 20.407294187499833,
                        "value": 0.2204724409448819
                    },
                    {
                        "number": 1,
                        "time": 20.421339124999832,
                        "value": 0.23622047244094488
                    },
                    {
                        "number": 1,
                        "time": 20.435384062499832,
                        "value": 0.25196850393700787
                    },
                    {
                        "number": 1,
                        "time": 20.44942899999983,
                        "value": 0.2677165354330709
                    },
                    {
                        "number": 1,
                        "time": 20.46347393749983,
                        "value": 0.29133858267716534
                    },
                    {
                        "number": 1,
                        "time": 20.47751887499983,
                        "value": 0.30708661417322836
                    },
                    {
                        "number": 1,
                        "time": 20.49156381249983,
                        "value": 0.3228346456692913
                    },
                    {
                        "number": 1,
                        "time": 20.50560874999983,
                        "value": 0.33858267716535434
                    },
                    {
                        "number": 1,
                        "time": 20.51965368749983,
                        "value": 0.3543307086614173
                    },
                    {
                        "number": 1,
                        "time": 20.53369862499983,
                        "value": 0.3779527559055118
                    },
                    {
                        "number": 1,
                        "time": 20.54774356249983,
                        "value": 0.3937007874015748
                    },
                    {
                        "number": 1,
                        "time": 20.561788499999828,
                        "value": 0.4094488188976378
                    },
                    {
                        "number": 1,
                        "time": 20.575833437499828,
                        "value": 0.4251968503937008
                    },
                    {
                        "number": 1,
                        "time": 20.589878374999827,
                        "value": 0.4409448818897638
                    },
                    {
                        "number": 1,
                        "time": 20.603923312499827,
                        "value": 0.4566929133858268
                    },
                    {
                        "number": 1,
                        "time": 20.617968249999826,
                        "value": 0.48031496062992124
                    },
                    {
                        "number": 1,
                        "time": 20.632013187499826,
                        "value": 0.49606299212598426
                    },
                    {
                        "number": 1,
                        "time": 20.646058124999826,
                        "value": 0.5118110236220472
                    },
                    {
                        "number": 1,
                        "time": 20.660103062499825,
                        "value": 0.5275590551181102
                    },
                    {
                        "number": 1,
                        "time": 20.674147999999825,
                        "value": 0.5433070866141733
                    },
                    {
                        "number": 1,
                        "time": 20.688192937499824,
                        "value": 0.5669291338582677
                    },
                    {
                        "number": 1,
                        "time": 20.702237874999824,
                        "value": 0.5826771653543307
                    },
                    {
                        "number": 1,
                        "time": 20.716282812499824,
                        "value": 0.5984251968503937
                    },
                    {
                        "number": 1,
                        "time": 20.730327749999823,
                        "value": 0.6141732283464567
                    },
                    {
                        "number": 1,
                        "time": 20.744372687499823,
                        "value": 0.6299212598425197
                    },
                    {
                        "number": 1,
                        "time": 20.758417624999822,
                        "value": 0.6456692913385826
                    },
                    {
                        "number": 1,
                        "time": 20.772462562499822,
                        "value": 0.6692913385826772
                    },
                    {
                        "number": 1,
                        "time": 20.78650749999982,
                        "value": 0.6850393700787402
                    },
                    {
                        "number": 1,
                        "time": 20.80055243749982,
                        "value": 0.7007874015748031
                    },
                    {
                        "number": 1,
                        "time": 20.81459737499982,
                        "value": 0.7165354330708661
                    },
                    {
                        "number": 1,
                        "time": 20.82864231249982,
                        "value": 0.7322834645669292
                    },
                    {
                        "number": 1,
                        "time": 20.84268724999982,
                        "value": 0.7559055118110236
                    },
                    {
                        "number": 1,
                        "time": 20.85673218749982,
                        "value": 0.7716535433070866
                    },
                    {
                        "number": 1,
                        "time": 20.87077712499982,
                        "value": 0.7874015748031497
                    },
                    {
                        "number": 1,
                        "time": 20.88482206249982,
                        "value": 0.8031496062992126
                    },
                    {
                        "number": 1,
                        "time": 20.898866999999818,
                        "value": 0.8188976377952756
                    },
                    {
                        "number": 1,
                        "time": 20.912911937499818,
                        "value": 0.8346456692913385
                    },
                    {
                        "number": 1,
                        "time": 20.926956874999817,
                        "value": 0.8582677165354331
                    },
                    {
                        "number": 1,
                        "time": 20.941001812499817,
                        "value": 0.8740157480314961
                    },
                    {
                        "number": 1,
                        "time": 20.955046749999816,
                        "value": 0.889763779527559
                    },
                    {
                        "number": 1,
                        "time": 20.969091687499816,
                        "value": 0.905511811023622
                    },
                    {
                        "number": 1,
                        "time": 20.983136624999815,
                        "value": 0.9212598425196851
                    },
                    {
                        "number": 1,
                        "time": 20.997181562499815,
                        "value": 0.9448818897637795
                    },
                    {
                        "number": 1,
                        "time": 21.573023999999815,
                        "value": 0
                    },
                    {
                        "number": 1,
                        "time": 22.921337999999817,
                        "value": 0
                    },
                    {
                        "number": 1,
                        "time": 22.935382937499817,
                        "value": 0.015748031496062992
                    },
                    {
                        "number": 1,
                        "time": 22.949427874999817,
                        "value": 0.03937007874015748
                    },
                    {
                        "number": 1,
                        "time": 22.963472812499816,
                        "value": 0.05511811023622047
                    },
                    {
                        "number": 1,
                        "time": 22.977517749999816,
                        "value": 0.07874015748031496
                    },
                    {
                        "number": 1,
                        "time": 22.991562687499815,
                        "value": 0.09448818897637795
                    },
                    {
                        "number": 1,
                        "time": 23.005607624999815,
                        "value": 0.11811023622047244
                    },
                    {
                        "number": 1,
                        "time": 23.019652562499815,
                        "value": 0.13385826771653545
                    },
                    {
                        "number": 1,
                        "time": 23.033697499999814,
                        "value": 0.15748031496062992
                    },
                    {
                        "number": 1,
                        "time": 23.047742437499814,
                        "value": 0.1732283464566929
                    },
                    {
                        "number": 1,
                        "time": 23.061787374999813,
                        "value": 0.1968503937007874
                    },
                    {
                        "number": 1,
                        "time": 23.075832312499813,
                        "value": 0.2204724409448819
                    },
                    {
                        "number": 1,
                        "time": 23.089877249999812,
                        "value": 0.23622047244094488
                    },
                    {
                        "number": 1,
                        "time": 23.103922187499812,
                        "value": 0.25984251968503935
                    },
                    {
                        "number": 1,
                        "time": 23.11796712499981,
                        "value": 0.2755905511811024
                    },
                    {
                        "number": 1,
                        "time": 23.13201206249981,
                        "value": 0.2992125984251969
                    },
                    {
                        "number": 1,
                        "time": 23.14605699999981,
                        "value": 0.31496062992125984
                    },
                    {
                        "number": 1,
                        "time": 23.16010193749981,
                        "value": 0.33858267716535434
                    },
                    {
                        "number": 1,
                        "time": 23.17414687499981,
                        "value": 0.3543307086614173
                    },
                    {
                        "number": 1,
                        "time": 23.18819181249981,
                        "value": 0.3779527559055118
                    },
                    {
                        "number": 1,
                        "time": 23.20223674999981,
                        "value": 0.4015748031496063
                    },
                    {
                        "number": 1,
                        "time": 23.21628168749981,
                        "value": 0.41732283464566927
                    },
                    {
                        "number": 1,
                        "time": 23.230326624999808,
                        "value": 0.4409448818897638
                    },
                    {
                        "number": 1,
                        "time": 23.244371562499808,
                        "value": 0.4566929133858268
                    },
                    {
                        "number": 1,
                        "time": 23.258416499999807,
                        "value": 0.48031496062992124
                    },
                    {
                        "number": 1,
                        "time": 23.272461437499807,
                        "value": 0.49606299212598426
                    },
                    {
                        "number": 1,
                        "time": 23.286506374999806,
                        "value": 0.5196850393700787
                    },
                    {
                        "number": 1,
                        "time": 23.300551312499806,
                        "value": 0.5354330708661418
                    },
                    {
                        "number": 1,
                        "time": 23.314596249999806,
                        "value": 0.5590551181102362
                    },
                    {
                        "number": 1,
                        "time": 23.328641187499805,
                        "value": 0.5826771653543307
                    },
                    {
                        "number": 1,
                        "time": 23.342686124999805,
                        "value": 0.5984251968503937
                    },
                    {
                        "number": 1,
                        "time": 23.356731062499804,
                        "value": 0.6220472440944882
                    },
                    {
                        "number": 1,
                        "time": 23.370775999999804,
                        "value": 0.6377952755905512
                    },
                    {
                        "number": 1,
                        "time": 23.384820937499804,
                        "value": 0.6614173228346457
                    },
                    {
                        "number": 1,
                        "time": 23.398865874999803,
                        "value": 0.6771653543307087
                    },
                    {
                        "number": 1,
                        "time": 23.412910812499803,
                        "value": 0.7007874015748031
                    },
                    {
                        "number": 1,
                        "time": 23.426955749999802,
                        "value": 0.7165354330708661
                    },
                    {
                        "number": 1,
                        "time": 23.441000687499802,
                        "value": 0.7401574803149606
                    },
                    {
                        "number": 1,
                        "time": 23.4550456249998,
                        "value": 0.7637795275590551
                    },
                    {
                        "number": 1,
                        "time": 23.4690905624998,
                        "value": 0.7795275590551181
                    },
                    {
                        "number": 1,
                        "time": 23.4831354999998,
                        "value": 0.8031496062992126
                    },
                    {
                        "number": 1,
                        "time": 23.4971804374998,
                        "value": 0.8188976377952756
                    },
                    {
                        "number": 1,
                        "time": 23.5112253749998,
                        "value": 0.84251968503937
                    },
                    {
                        "number": 1,
                        "time": 23.5252703124998,
                        "value": 0.8582677165354331
                    },
                    {
                        "number": 1,
                        "time": 23.5393152499998,
                        "value": 0.8818897637795275
                    },
                    {
                        "number": 1,
                        "time": 23.5533601874998,
                        "value": 0.8976377952755905
                    },
                    {
                        "number": 1,
                        "time": 23.567405124999798,
                        "value": 0.9212598425196851
                    },
                    {
                        "number": 1,
                        "time": 23.581450062499798,
                        "value": 0.9448818897637795
                    },
                    {
                        "number": 1,
                        "time": 24.269651999999798,
                        "value": 0
                    },
                    {
                        "number": 1,
                        "time": 25.6179659999998,
                        "value": 0
                    },
                    {
                        "number": 1,
                        "time": 25.6320109374998,
                        "value": 0.015748031496062992
                    },
                    {
                        "number": 1,
                        "time": 25.6460558749998,
                        "value": 0.03937007874015748
                    },
                    {
                        "number": 1,
                        "time": 25.6601008124998,
                        "value": 0.05511811023622047
                    },
                    {
                        "number": 1,
                        "time": 25.6741457499998,
                        "value": 0.07874015748031496
                    },
                    {
                        "number": 1,
                        "time": 25.688190687499798,
                        "value": 0.09448818897637795
                    },
                    {
                        "number": 1,
                        "time": 25.702235624999798,
                        "value": 0.11811023622047244
                    },
                    {
                        "number": 1,
                        "time": 25.716280562499797,
                        "value": 0.13385826771653545
                    },
                    {
                        "number": 1,
                        "time": 25.730325499999797,
                        "value": 0.15748031496062992
                    },
                    {
                        "number": 1,
                        "time": 25.744370437499796,
                        "value": 0.1732283464566929
                    },
                    {
                        "number": 1,
                        "time": 25.758415374999796,
                        "value": 0.1968503937007874
                    },
                    {
                        "number": 1,
                        "time": 25.772460312499796,
                        "value": 0.2204724409448819
                    },
                    {
                        "number": 1,
                        "time": 25.786505249999795,
                        "value": 0.23622047244094488
                    },
                    {
                        "number": 1,
                        "time": 25.800550187499795,
                        "value": 0.25984251968503935
                    },
                    {
                        "number": 1,
                        "time": 25.814595124999794,
                        "value": 0.2755905511811024
                    },
                    {
                        "number": 1,
                        "time": 25.828640062499794,
                        "value": 0.2992125984251969
                    },
                    {
                        "number": 1,
                        "time": 25.842684999999793,
                        "value": 0.31496062992125984
                    },
                    {
                        "number": 1,
                        "time": 25.856729937499793,
                        "value": 0.33858267716535434
                    },
                    {
                        "number": 1,
                        "time": 25.870774874999793,
                        "value": 0.3543307086614173
                    },
                    {
                        "number": 1,
                        "time": 25.884819812499792,
                        "value": 0.3779527559055118
                    },
                    {
                        "number": 1,
                        "time": 25.89886474999979,
                        "value": 0.4015748031496063
                    },
                    {
                        "number": 1,
                        "time": 25.91290968749979,
                        "value": 0.41732283464566927
                    },
                    {
                        "number": 1,
                        "time": 25.92695462499979,
                        "value": 0.4409448818897638
                    },
                    {
                        "number": 1,
                        "time": 25.94099956249979,
                        "value": 0.4566929133858268
                    },
                    {
                        "number": 1,
                        "time": 25.95504449999979,
                        "value": 0.48031496062992124
                    },
                    {
                        "number": 1,
                        "time": 25.96908943749979,
                        "value": 0.49606299212598426
                    },
                    {
                        "number": 1,
                        "time": 25.98313437499979,
                        "value": 0.5196850393700787
                    },
                    {
                        "number": 1,
                        "time": 25.99717931249979,
                        "value": 0.5354330708661418
                    },
                    {
                        "number": 1,
                        "time": 26.01122424999979,
                        "value": 0.5590551181102362
                    },
                    {
                        "number": 1,
                        "time": 26.025269187499788,
                        "value": 0.5826771653543307
                    },
                    {
                        "number": 1,
                        "time": 26.039314124999787,
                        "value": 0.5984251968503937
                    },
                    {
                        "number": 1,
                        "time": 26.053359062499787,
                        "value": 0.6220472440944882
                    },
                    {
                        "number": 1,
                        "time": 26.067403999999787,
                        "value": 0.6377952755905512
                    },
                    {
                        "number": 1,
                        "time": 26.081448937499786,
                        "value": 0.6614173228346457
                    },
                    {
                        "number": 1,
                        "time": 26.095493874999786,
                        "value": 0.6771653543307087
                    },
                    {
                        "number": 1,
                        "time": 26.109538812499785,
                        "value": 0.7007874015748031
                    },
                    {
                        "number": 1,
                        "time": 26.123583749999785,
                        "value": 0.7165354330708661
                    },
                    {
                        "number": 1,
                        "time": 26.137628687499785,
                        "value": 0.7401574803149606
                    },
                    {
                        "number": 1,
                        "time": 26.151673624999784,
                        "value": 0.7637795275590551
                    },
                    {
                        "number": 1,
                        "time": 26.165718562499784,
                        "value": 0.7795275590551181
                    },
                    {
                        "number": 1,
                        "time": 26.179763499999783,
                        "value": 0.8031496062992126
                    },
                    {
                        "number": 1,
                        "time": 26.193808437499783,
                        "value": 0.8188976377952756
                    },
                    {
                        "number": 1,
                        "time": 26.207853374999782,
                        "value": 0.84251968503937
                    },
                    {
                        "number": 1,
                        "time": 26.221898312499782,
                        "value": 0.8582677165354331
                    },
                    {
                        "number": 1,
                        "time": 26.23594324999978,
                        "value": 0.8818897637795275
                    },
                    {
                        "number": 1,
                        "time": 26.24998818749978,
                        "value": 0.8976377952755905
                    },
                    {
                        "number": 1,
                        "time": 26.26403312499978,
                        "value": 0.9212598425196851
                    },
                    {
                        "number": 1,
                        "time": 26.27807806249978,
                        "value": 0.9448818897637795
                    },
                    {
                        "number": 1,
                        "time": 26.96627999999978,
                        "value": 0
                    },
                    {
                        "number": 1,
                        "time": 28.314593999999783,
                        "value": 0
                    },
                    {
                        "number": 1,
                        "time": 28.328638937499782,
                        "value": 0.015748031496062992
                    },
                    {
                        "number": 1,
                        "time": 28.342683874999782,
                        "value": 0.03937007874015748
                    },
                    {
                        "number": 1,
                        "time": 28.35672881249978,
                        "value": 0.06299212598425197
                    },
                    {
                        "number": 1,
                        "time": 28.37077374999978,
                        "value": 0.07874015748031496
                    },
                    {
                        "number": 1,
                        "time": 28.38481868749978,
                        "value": 0.10236220472440945
                    },
                    {
                        "number": 1,
                        "time": 28.39886362499978,
                        "value": 0.12598425196850394
                    },
                    {
                        "number": 1,
                        "time": 28.41290856249978,
                        "value": 0.14173228346456693
                    },
                    {
                        "number": 1,
                        "time": 28.42695349999978,
                        "value": 0.16535433070866143
                    },
                    {
                        "number": 1,
                        "time": 28.44099843749978,
                        "value": 0.1889763779527559
                    },
                    {
                        "number": 1,
                        "time": 28.45504337499978,
                        "value": 0.2047244094488189
                    },
                    {
                        "number": 1,
                        "time": 28.46908831249978,
                        "value": 0.2283464566929134
                    },
                    {
                        "number": 1,
                        "time": 28.483133249999778,
                        "value": 0.25196850393700787
                    },
                    {
                        "number": 1,
                        "time": 28.497178187499777,
                        "value": 0.2677165354330709
                    },
                    {
                        "number": 1,
                        "time": 28.511223124999777,
                        "value": 0.29133858267716534
                    },
                    {
                        "number": 1,
                        "time": 28.525268062499777,
                        "value": 0.31496062992125984
                    },
                    {
                        "number": 1,
                        "time": 28.539312999999776,
                        "value": 0.33070866141732286
                    },
                    {
                        "number": 1,
                        "time": 28.553357937499776,
                        "value": 0.3543307086614173
                    },
                    {
                        "number": 1,
                        "time": 28.567402874999775,
                        "value": 0.3779527559055118
                    },
                    {
                        "number": 1,
                        "time": 28.581447812499775,
                        "value": 0.3937007874015748
                    },
                    {
                        "number": 1,
                        "time": 28.595492749999774,
                        "value": 0.41732283464566927
                    },
                    {
                        "number": 1,
                        "time": 28.609537687499774,
                        "value": 0.4409448818897638
                    },
                    {
                        "number": 1,
                        "time": 28.623582624999774,
                        "value": 0.4566929133858268
                    },
                    {
                        "number": 1,
                        "time": 28.637627562499773,
                        "value": 0.48031496062992124
                    },
                    {
                        "number": 1,
                        "time": 28.651672499999773,
                        "value": 0.5039370078740157
                    },
                    {
                        "number": 1,
                        "time": 28.665717437499772,
                        "value": 0.5196850393700787
                    },
                    {
                        "number": 1,
                        "time": 28.679762374999772,
                        "value": 0.5433070866141733
                    },
                    {
                        "number": 1,
                        "time": 28.69380731249977,
                        "value": 0.5669291338582677
                    },
                    {
                        "number": 1,
                        "time": 28.70785224999977,
                        "value": 0.5826771653543307
                    },
                    {
                        "number": 1,
                        "time": 28.72189718749977,
                        "value": 0.6062992125984252
                    },
                    {
                        "number": 1,
                        "time": 28.73594212499977,
                        "value": 0.6299212598425197
                    },
                    {
                        "number": 1,
                        "time": 28.74998706249977,
                        "value": 0.6456692913385826
                    },
                    {
                        "number": 1,
                        "time": 28.76403199999977,
                        "value": 0.6692913385826772
                    },
                    {
                        "number": 1,
                        "time": 28.77807693749977,
                        "value": 0.6929133858267716
                    },
                    {
                        "number": 1,
                        "time": 28.79212187499977,
                        "value": 0.7086614173228346
                    },
                    {
                        "number": 1,
                        "time": 28.806166812499768,
                        "value": 0.7322834645669292
                    },
                    {
                        "number": 1,
                        "time": 28.820211749999768,
                        "value": 0.7559055118110236
                    },
                    {
                        "number": 1,
                        "time": 28.834256687499767,
                        "value": 0.7716535433070866
                    },
                    {
                        "number": 1,
                        "time": 28.848301624999767,
                        "value": 0.7952755905511811
                    },
                    {
                        "number": 1,
                        "time": 28.862346562499766,
                        "value": 0.8188976377952756
                    },
                    {
                        "number": 1,
                        "time": 28.988750999999766,
                        "value": 0
                    },
                    {
                        "number": 1,
                        "time": 29.002795937499766,
                        "value": 0.015748031496062992
                    },
                    {
                        "number": 1,
                        "time": 29.016840874999765,
                        "value": 0.031496062992125984
                    },
                    {
                        "number": 1,
                        "time": 29.030885812499765,
                        "value": 0.047244094488188976
                    },
                    {
                        "number": 1,
                        "time": 29.044930749999764,
                        "value": 0.06299212598425197
                    },
                    {
                        "number": 1,
                        "time": 29.058975687499764,
                        "value": 0.08661417322834646
                    },
                    {
                        "number": 1,
                        "time": 29.073020624999764,
                        "value": 0.10236220472440945
                    },
                    {
                        "number": 1,
                        "time": 29.087065562499763,
                        "value": 0.11811023622047244
                    },
                    {
                        "number": 1,
                        "time": 29.101110499999763,
                        "value": 0.13385826771653545
                    },
                    {
                        "number": 1,
                        "time": 29.115155437499762,
                        "value": 0.14960629921259844
                    },
                    {
                        "number": 1,
                        "time": 29.129200374999762,
                        "value": 0.1732283464566929
                    },
                    {
                        "number": 1,
                        "time": 29.14324531249976,
                        "value": 0.1889763779527559
                    },
                    {
                        "number": 1,
                        "time": 29.15729024999976,
                        "value": 0.2047244094488189
                    },
                    {
                        "number": 1,
                        "time": 29.17133518749976,
                        "value": 0.2204724409448819
                    },
                    {
                        "number": 1,
                        "time": 29.18538012499976,
                        "value": 0.23622047244094488
                    },
                    {
                        "number": 1,
                        "time": 29.19942506249976,
                        "value": 0.25984251968503935
                    },
                    {
                        "number": 1,
                        "time": 29.21346999999976,
                        "value": 0.2755905511811024
                    },
                    {
                        "number": 1,
                        "time": 29.22751493749976,
                        "value": 0.29133858267716534
                    },
                    {
                        "number": 1,
                        "time": 29.24155987499976,
                        "value": 0.30708661417322836
                    },
                    {
                        "number": 1,
                        "time": 29.255604812499758,
                        "value": 0.33070866141732286
                    },
                    {
                        "number": 1,
                        "time": 29.269649749999758,
                        "value": 0.3464566929133858
                    },
                    {
                        "number": 1,
                        "time": 29.283694687499757,
                        "value": 0.36220472440944884
                    },
                    {
                        "number": 1,
                        "time": 29.297739624999757,
                        "value": 0.3779527559055118
                    },
                    {
                        "number": 1,
                        "time": 29.311784562499756,
                        "value": 0.3937007874015748
                    },
                    {
                        "number": 1,
                        "time": 29.325829499999756,
                        "value": 0.41732283464566927
                    },
                    {
                        "number": 1,
                        "time": 29.339874437499756,
                        "value": 0.4330708661417323
                    },
                    {
                        "number": 1,
                        "time": 29.353919374999755,
                        "value": 0.44881889763779526
                    },
                    {
                        "number": 1,
                        "time": 29.367964312499755,
                        "value": 0.4645669291338583
                    },
                    {
                        "number": 1,
                        "time": 29.382009249999754,
                        "value": 0.48031496062992124
                    },
                    {
                        "number": 1,
                        "time": 29.396054187499754,
                        "value": 0.5039370078740157
                    },
                    {
                        "number": 1,
                        "time": 29.410099124999753,
                        "value": 0.5196850393700787
                    },
                    {
                        "number": 1,
                        "time": 29.424144062499753,
                        "value": 0.5354330708661418
                    },
                    {
                        "number": 1,
                        "time": 29.438188999999753,
                        "value": 0.5511811023622047
                    },
                    {
                        "number": 1,
                        "time": 29.452233937499752,
                        "value": 0.5748031496062992
                    },
                    {
                        "number": 1,
                        "time": 29.46627887499975,
                        "value": 0.5905511811023622
                    },
                    {
                        "number": 1,
                        "time": 29.48032381249975,
                        "value": 0.6062992125984252
                    },
                    {
                        "number": 1,
                        "time": 29.49436874999975,
                        "value": 0.6220472440944882
                    },
                    {
                        "number": 1,
                        "time": 29.50841368749975,
                        "value": 0.6377952755905512
                    },
                    {
                        "number": 1,
                        "time": 29.52245862499975,
                        "value": 0.6614173228346457
                    },
                    {
                        "number": 1,
                        "time": 29.53650356249975,
                        "value": 0.6771653543307087
                    },
                    {
                        "number": 1,
                        "time": 29.55054849999975,
                        "value": 0.6929133858267716
                    },
                    {
                        "number": 1,
                        "time": 29.56459343749975,
                        "value": 0.7086614173228346
                    },
                    {
                        "number": 1,
                        "time": 29.57863837499975,
                        "value": 0.7244094488188977
                    },
                    {
                        "number": 1,
                        "time": 29.592683312499748,
                        "value": 0.7480314960629921
                    },
                    {
                        "number": 1,
                        "time": 29.606728249999748,
                        "value": 0.7637795275590551
                    },
                    {
                        "number": 1,
                        "time": 29.620773187499747,
                        "value": 0.7795275590551181
                    },
                    {
                        "number": 1,
                        "time": 29.634818124999747,
                        "value": 0.7952755905511811
                    },
                    {
                        "number": 1,
                        "time": 29.648863062499746,
                        "value": 0.8188976377952756
                    },
                    {
                        "number": 1,
                        "time": 29.662907999999746,
                        "value": 0
                    },
                    {
                        "number": 1,
                        "time": 30.337064999999743,
                        "value": 0
                    },
                    {
                        "number": 1,
                        "time": 30.351109937499743,
                        "value": 0.015748031496062992
                    },
                    {
                        "number": 1,
                        "time": 30.365154874999742,
                        "value": 0.031496062992125984
                    },
                    {
                        "number": 1,
                        "time": 30.379199812499742,
                        "value": 0.047244094488188976
                    },
                    {
                        "number": 1,
                        "time": 30.39324474999974,
                        "value": 0.06299212598425197
                    },
                    {
                        "number": 1,
                        "time": 30.40728968749974,
                        "value": 0.08661417322834646
                    },
                    {
                        "number": 1,
                        "time": 30.42133462499974,
                        "value": 0.10236220472440945
                    },
                    {
                        "number": 1,
                        "time": 30.43537956249974,
                        "value": 0.11811023622047244
                    },
                    {
                        "number": 1,
                        "time": 30.44942449999974,
                        "value": 0.13385826771653545
                    },
                    {
                        "number": 1,
                        "time": 30.46346943749974,
                        "value": 0.14960629921259844
                    },
                    {
                        "number": 1,
                        "time": 30.47751437499974,
                        "value": 0.1732283464566929
                    },
                    {
                        "number": 1,
                        "time": 30.49155931249974,
                        "value": 0.1889763779527559
                    },
                    {
                        "number": 1,
                        "time": 30.505604249999738,
                        "value": 0.2047244094488189
                    },
                    {
                        "number": 1,
                        "time": 30.519649187499738,
                        "value": 0.2204724409448819
                    },
                    {
                        "number": 1,
                        "time": 30.533694124999737,
                        "value": 0.23622047244094488
                    },
                    {
                        "number": 1,
                        "time": 30.547739062499737,
                        "value": 0.25984251968503935
                    },
                    {
                        "number": 1,
                        "time": 30.561783999999736,
                        "value": 0.2755905511811024
                    },
                    {
                        "number": 1,
                        "time": 30.575828937499736,
                        "value": 0.29133858267716534
                    },
                    {
                        "number": 1,
                        "time": 30.589873874999736,
                        "value": 0.30708661417322836
                    },
                    {
                        "number": 1,
                        "time": 30.603918812499735,
                        "value": 0.33070866141732286
                    },
                    {
                        "number": 1,
                        "time": 30.617963749999735,
                        "value": 0.3464566929133858
                    },
                    {
                        "number": 1,
                        "time": 30.632008687499734,
                        "value": 0.36220472440944884
                    },
                    {
                        "number": 1,
                        "time": 30.646053624999734,
                        "value": 0.3779527559055118
                    },
                    {
                        "number": 1,
                        "time": 30.660098562499734,
                        "value": 0.3937007874015748
                    },
                    {
                        "number": 1,
                        "time": 30.674143499999733,
                        "value": 0.41732283464566927
                    },
                    {
                        "number": 1,
                        "time": 30.688188437499733,
                        "value": 0.4330708661417323
                    },
                    {
                        "number": 1,
                        "time": 30.702233374999732,
                        "value": 0.44881889763779526
                    },
                    {
                        "number": 1,
                        "time": 30.716278312499732,
                        "value": 0.4645669291338583
                    },
                    {
                        "number": 1,
                        "time": 30.73032324999973,
                        "value": 0.48031496062992124
                    },
                    {
                        "number": 1,
                        "time": 30.74436818749973,
                        "value": 0.5039370078740157
                    },
                    {
                        "number": 1,
                        "time": 30.75841312499973,
                        "value": 0.5196850393700787
                    },
                    {
                        "number": 1,
                        "time": 30.77245806249973,
                        "value": 0.5354330708661418
                    },
                    {
                        "number": 1,
                        "time": 30.78650299999973,
                        "value": 0.5511811023622047
                    },
                    {
                        "number": 1,
                        "time": 30.80054793749973,
                        "value": 0.5748031496062992
                    },
                    {
                        "number": 1,
                        "time": 30.81459287499973,
                        "value": 0.5905511811023622
                    },
                    {
                        "number": 1,
                        "time": 30.82863781249973,
                        "value": 0.6062992125984252
                    },
                    {
                        "number": 1,
                        "time": 30.842682749999728,
                        "value": 0.6220472440944882
                    },
                    {
                        "number": 1,
                        "time": 30.856727687499728,
                        "value": 0.6377952755905512
                    },
                    {
                        "number": 1,
                        "time": 30.870772624999727,
                        "value": 0.6614173228346457
                    },
                    {
                        "number": 1,
                        "time": 30.884817562499727,
                        "value": 0.6771653543307087
                    },
                    {
                        "number": 1,
                        "time": 30.898862499999726,
                        "value": 0.6929133858267716
                    },
                    {
                        "number": 1,
                        "time": 30.912907437499726,
                        "value": 0.7086614173228346
                    },
                    {
                        "number": 1,
                        "time": 30.926952374999725,
                        "value": 0.7244094488188977
                    },
                    {
                        "number": 1,
                        "time": 30.940997312499725,
                        "value": 0.7480314960629921
                    },
                    {
                        "number": 1,
                        "time": 30.955042249999725,
                        "value": 0.7637795275590551
                    },
                    {
                        "number": 1,
                        "time": 30.969087187499724,
                        "value": 0.7795275590551181
                    },
                    {
                        "number": 1,
                        "time": 30.983132124999724,
                        "value": 0.7952755905511811
                    },
                    {
                        "number": 1,
                        "time": 30.997177062499723,
                        "value": 0.8188976377952756
                    },
                    {
                        "number": 1,
                        "time": 39.10110599999972,
                        "value": 0
                    },
                    {
                        "number": 1,
                        "time": 43.14604799999973,
                        "value": 0
                    },
                    {
                        "number": 1,
                        "time": 43.16009293749973,
                        "value": 0.015748031496062992
                    },
                    {
                        "number": 1,
                        "time": 43.17413787499974,
                        "value": 0.031496062992125984
                    },
                    {
                        "number": 1,
                        "time": 43.18818281249974,
                        "value": 0.047244094488188976
                    },
                    {
                        "number": 1,
                        "time": 43.20222774999974,
                        "value": 0.06299212598425197
                    },
                    {
                        "number": 1,
                        "time": 43.216272687499746,
                        "value": 0.08661417322834646
                    },
                    {
                        "number": 1,
                        "time": 43.23031762499975,
                        "value": 0.10236220472440945
                    },
                    {
                        "number": 1,
                        "time": 43.24436256249975,
                        "value": 0.11811023622047244
                    },
                    {
                        "number": 1,
                        "time": 43.258407499999755,
                        "value": 0.13385826771653545
                    },
                    {
                        "number": 1,
                        "time": 43.27245243749976,
                        "value": 0.14960629921259844
                    },
                    {
                        "number": 1,
                        "time": 43.28649737499976,
                        "value": 0.1732283464566929
                    },
                    {
                        "number": 1,
                        "time": 43.300542312499765,
                        "value": 0.1889763779527559
                    },
                    {
                        "number": 1,
                        "time": 43.31458724999977,
                        "value": 0.2047244094488189
                    },
                    {
                        "number": 1,
                        "time": 43.32863218749977,
                        "value": 0.2204724409448819
                    },
                    {
                        "number": 1,
                        "time": 43.342677124999774,
                        "value": 0.23622047244094488
                    },
                    {
                        "number": 1,
                        "time": 43.35672206249978,
                        "value": 0.25984251968503935
                    },
                    {
                        "number": 1,
                        "time": 43.37076699999978,
                        "value": 0.2755905511811024
                    },
                    {
                        "number": 1,
                        "time": 43.384811937499784,
                        "value": 0.29133858267716534
                    },
                    {
                        "number": 1,
                        "time": 43.39885687499979,
                        "value": 0.30708661417322836
                    },
                    {
                        "number": 1,
                        "time": 43.41290181249979,
                        "value": 0.33070866141732286
                    },
                    {
                        "number": 1,
                        "time": 43.42694674999979,
                        "value": 0.3464566929133858
                    },
                    {
                        "number": 1,
                        "time": 43.440991687499796,
                        "value": 0.36220472440944884
                    },
                    {
                        "number": 1,
                        "time": 43.4550366249998,
                        "value": 0.3779527559055118
                    },
                    {
                        "number": 1,
                        "time": 43.4690815624998,
                        "value": 0.3937007874015748
                    },
                    {
                        "number": 1,
                        "time": 43.483126499999806,
                        "value": 0.41732283464566927
                    },
                    {
                        "number": 1,
                        "time": 43.49717143749981,
                        "value": 0.4330708661417323
                    },
                    {
                        "number": 1,
                        "time": 43.51121637499981,
                        "value": 0.44881889763779526
                    },
                    {
                        "number": 1,
                        "time": 43.525261312499815,
                        "value": 0.4645669291338583
                    },
                    {
                        "number": 1,
                        "time": 43.53930624999982,
                        "value": 0.48031496062992124
                    },
                    {
                        "number": 1,
                        "time": 43.55335118749982,
                        "value": 0.5039370078740157
                    },
                    {
                        "number": 1,
                        "time": 43.567396124999824,
                        "value": 0.5196850393700787
                    },
                    {
                        "number": 1,
                        "time": 43.58144106249983,
                        "value": 0.5354330708661418
                    },
                    {
                        "number": 1,
                        "time": 43.59548599999983,
                        "value": 0.5511811023622047
                    },
                    {
                        "number": 1,
                        "time": 43.609530937499834,
                        "value": 0.5748031496062992
                    },
                    {
                        "number": 1,
                        "time": 43.62357587499984,
                        "value": 0.5905511811023622
                    },
                    {
                        "number": 1,
                        "time": 43.63762081249984,
                        "value": 0.6062992125984252
                    },
                    {
                        "number": 1,
                        "time": 43.65166574999984,
                        "value": 0.6220472440944882
                    },
                    {
                        "number": 1,
                        "time": 43.665710687499846,
                        "value": 0.6377952755905512
                    },
                    {
                        "number": 1,
                        "time": 43.67975562499985,
                        "value": 0.6614173228346457
                    },
                    {
                        "number": 1,
                        "time": 43.69380056249985,
                        "value": 0.6771653543307087
                    },
                    {
                        "number": 1,
                        "time": 43.707845499999856,
                        "value": 0.6929133858267716
                    },
                    {
                        "number": 1,
                        "time": 43.72189043749986,
                        "value": 0.7086614173228346
                    },
                    {
                        "number": 1,
                        "time": 43.73593537499986,
                        "value": 0.7244094488188977
                    },
                    {
                        "number": 1,
                        "time": 43.749980312499865,
                        "value": 0.7480314960629921
                    },
                    {
                        "number": 1,
                        "time": 43.76402524999987,
                        "value": 0.7637795275590551
                    },
                    {
                        "number": 1,
                        "time": 43.77807018749987,
                        "value": 0.7795275590551181
                    },
                    {
                        "number": 1,
                        "time": 43.792115124999874,
                        "value": 0.7952755905511811
                    },
                    {
                        "number": 1,
                        "time": 43.80616006249988,
                        "value": 0.8188976377952756
                    },
                    {
                        "number": 1,
                        "time": 44.15728349999988,
                        "value": 0
                    },
                    {
                        "number": 1,
                        "time": 46.516832999999885,
                        "value": 0
                    },
                    {
                        "number": 1,
                        "time": 46.53087793749989,
                        "value": 0.015748031496062992
                    },
                    {
                        "number": 1,
                        "time": 46.54492287499989,
                        "value": 0.031496062992125984
                    },
                    {
                        "number": 1,
                        "time": 46.558967812499894,
                        "value": 0.047244094488188976
                    },
                    {
                        "number": 1,
                        "time": 46.5730127499999,
                        "value": 0.06299212598425197
                    },
                    {
                        "number": 1,
                        "time": 46.5870576874999,
                        "value": 0.08661417322834646
                    },
                    {
                        "number": 1,
                        "time": 46.6011026249999,
                        "value": 0.10236220472440945
                    },
                    {
                        "number": 1,
                        "time": 46.61514756249991,
                        "value": 0.11811023622047244
                    },
                    {
                        "number": 1,
                        "time": 46.62919249999991,
                        "value": 0.13385826771653545
                    },
                    {
                        "number": 1,
                        "time": 46.64323743749991,
                        "value": 0.14960629921259844
                    },
                    {
                        "number": 1,
                        "time": 46.657282374999916,
                        "value": 0.1732283464566929
                    },
                    {
                        "number": 1,
                        "time": 46.67132731249992,
                        "value": 0.1889763779527559
                    },
                    {
                        "number": 1,
                        "time": 46.68537224999992,
                        "value": 0.2047244094488189
                    },
                    {
                        "number": 1,
                        "time": 46.699417187499925,
                        "value": 0.2204724409448819
                    },
                    {
                        "number": 1,
                        "time": 46.71346212499993,
                        "value": 0.23622047244094488
                    },
                    {
                        "number": 1,
                        "time": 46.72750706249993,
                        "value": 0.25984251968503935
                    },
                    {
                        "number": 1,
                        "time": 46.741551999999935,
                        "value": 0.2755905511811024
                    },
                    {
                        "number": 1,
                        "time": 46.75559693749994,
                        "value": 0.29133858267716534
                    },
                    {
                        "number": 1,
                        "time": 46.76964187499994,
                        "value": 0.30708661417322836
                    },
                    {
                        "number": 1,
                        "time": 46.783686812499944,
                        "value": 0.33070866141732286
                    },
                    {
                        "number": 1,
                        "time": 46.79773174999995,
                        "value": 0.3464566929133858
                    },
                    {
                        "number": 1,
                        "time": 46.81177668749995,
                        "value": 0.36220472440944884
                    },
                    {
                        "number": 1,
                        "time": 46.82582162499995,
                        "value": 0.3779527559055118
                    },
                    {
                        "number": 1,
                        "time": 46.83986656249996,
                        "value": 0.3937007874015748
                    },
                    {
                        "number": 1,
                        "time": 46.85391149999996,
                        "value": 0.41732283464566927
                    },
                    {
                        "number": 1,
                        "time": 46.86795643749996,
                        "value": 0.4330708661417323
                    },
                    {
                        "number": 1,
                        "time": 46.882001374999966,
                        "value": 0.44881889763779526
                    },
                    {
                        "number": 1,
                        "time": 46.89604631249997,
                        "value": 0.4645669291338583
                    },
                    {
                        "number": 1,
                        "time": 46.91009124999997,
                        "value": 0.48031496062992124
                    },
                    {
                        "number": 1,
                        "time": 46.924136187499975,
                        "value": 0.5039370078740157
                    },
                    {
                        "number": 1,
                        "time": 46.93818112499998,
                        "value": 0.5196850393700787
                    },
                    {
                        "number": 1,
                        "time": 46.95222606249998,
                        "value": 0.5354330708661418
                    },
                    {
                        "number": 1,
                        "time": 46.966270999999985,
                        "value": 0.5511811023622047
                    },
                    {
                        "number": 1,
                        "time": 46.98031593749999,
                        "value": 0.5748031496062992
                    },
                    {
                        "number": 1,
                        "time": 46.99436087499999,
                        "value": 0.5905511811023622
                    },
                    {
                        "number": 1,
                        "time": 47.008405812499994,
                        "value": 0.6062992125984252
                    },
                    {
                        "number": 1,
                        "time": 47.02245075,
                        "value": 0.6220472440944882
                    },
                    {
                        "number": 1,
                        "time": 47.0364956875,
                        "value": 0.6377952755905512
                    },
                    {
                        "number": 1,
                        "time": 47.050540625000004,
                        "value": 0.6614173228346457
                    },
                    {
                        "number": 1,
                        "time": 47.06458556250001,
                        "value": 0.6771653543307087
                    },
                    {
                        "number": 1,
                        "time": 47.07863050000001,
                        "value": 0.6929133858267716
                    },
                    {
                        "number": 1,
                        "time": 47.09267543750001,
                        "value": 0.7086614173228346
                    },
                    {
                        "number": 1,
                        "time": 47.106720375000016,
                        "value": 0.7244094488188977
                    },
                    {
                        "number": 1,
                        "time": 47.12076531250002,
                        "value": 0.7480314960629921
                    },
                    {
                        "number": 1,
                        "time": 47.13481025000002,
                        "value": 0.7637795275590551
                    },
                    {
                        "number": 1,
                        "time": 47.148855187500025,
                        "value": 0.7795275590551181
                    },
                    {
                        "number": 1,
                        "time": 47.16290012500003,
                        "value": 0.7952755905511811
                    },
                    {
                        "number": 1,
                        "time": 47.17694506250003,
                        "value": 0.8188976377952756
                    },
                    {
                        "number": 1,
                        "time": 47.190990000000035,
                        "value": 0
                    },
                    {
                        "number": 1,
                        "time": 48.53930400000005,
                        "value": 0
                    },
                    {
                        "number": 1,
                        "time": 48.553348937500054,
                        "value": 0.015748031496062992
                    },
                    {
                        "number": 1,
                        "time": 48.56739387500006,
                        "value": 0.031496062992125984
                    },
                    {
                        "number": 1,
                        "time": 48.58143881250006,
                        "value": 0.047244094488188976
                    },
                    {
                        "number": 1,
                        "time": 48.595483750000064,
                        "value": 0.06299212598425197
                    },
                    {
                        "number": 1,
                        "time": 48.60952868750007,
                        "value": 0.08661417322834646
                    },
                    {
                        "number": 1,
                        "time": 48.62357362500007,
                        "value": 0.10236220472440945
                    },
                    {
                        "number": 1,
                        "time": 48.63761856250007,
                        "value": 0.11811023622047244
                    },
                    {
                        "number": 1,
                        "time": 48.651663500000076,
                        "value": 0.13385826771653545
                    },
                    {
                        "number": 1,
                        "time": 48.66570843750008,
                        "value": 0.14960629921259844
                    },
                    {
                        "number": 1,
                        "time": 48.67975337500008,
                        "value": 0.1732283464566929
                    },
                    {
                        "number": 1,
                        "time": 48.693798312500086,
                        "value": 0.1889763779527559
                    },
                    {
                        "number": 1,
                        "time": 48.70784325000009,
                        "value": 0.2047244094488189
                    },
                    {
                        "number": 1,
                        "time": 48.72188818750009,
                        "value": 0.2204724409448819
                    },
                    {
                        "number": 1,
                        "time": 48.735933125000095,
                        "value": 0.23622047244094488
                    },
                    {
                        "number": 1,
                        "time": 48.7499780625001,
                        "value": 0.25984251968503935
                    },
                    {
                        "number": 1,
                        "time": 48.7640230000001,
                        "value": 0.2755905511811024
                    },
                    {
                        "number": 1,
                        "time": 48.778067937500104,
                        "value": 0.29133858267716534
                    },
                    {
                        "number": 1,
                        "time": 48.79211287500011,
                        "value": 0.30708661417322836
                    },
                    {
                        "number": 1,
                        "time": 48.80615781250011,
                        "value": 0.33070866141732286
                    },
                    {
                        "number": 1,
                        "time": 48.820202750000114,
                        "value": 0.3464566929133858
                    },
                    {
                        "number": 1,
                        "time": 48.83424768750012,
                        "value": 0.36220472440944884
                    },
                    {
                        "number": 1,
                        "time": 48.84829262500012,
                        "value": 0.3779527559055118
                    },
                    {
                        "number": 1,
                        "time": 48.86233756250012,
                        "value": 0.3937007874015748
                    },
                    {
                        "number": 1,
                        "time": 48.876382500000126,
                        "value": 0.41732283464566927
                    },
                    {
                        "number": 1,
                        "time": 48.89042743750013,
                        "value": 0.4330708661417323
                    },
                    {
                        "number": 1,
                        "time": 48.90447237500013,
                        "value": 0.44881889763779526
                    },
                    {
                        "number": 1,
                        "time": 48.918517312500136,
                        "value": 0.4645669291338583
                    },
                    {
                        "number": 1,
                        "time": 48.93256225000014,
                        "value": 0.48031496062992124
                    },
                    {
                        "number": 1,
                        "time": 48.94660718750014,
                        "value": 0.5039370078740157
                    },
                    {
                        "number": 1,
                        "time": 48.960652125000145,
                        "value": 0.5196850393700787
                    },
                    {
                        "number": 1,
                        "time": 48.97469706250015,
                        "value": 0.5354330708661418
                    },
                    {
                        "number": 1,
                        "time": 48.98874200000015,
                        "value": 0.5511811023622047
                    },
                    {
                        "number": 1,
                        "time": 49.002786937500154,
                        "value": 0.5748031496062992
                    },
                    {
                        "number": 1,
                        "time": 49.01683187500016,
                        "value": 0.5905511811023622
                    },
                    {
                        "number": 1,
                        "time": 49.03087681250016,
                        "value": 0.6062992125984252
                    },
                    {
                        "number": 1,
                        "time": 49.044921750000164,
                        "value": 0.6220472440944882
                    },
                    {
                        "number": 1,
                        "time": 49.05896668750017,
                        "value": 0.6377952755905512
                    },
                    {
                        "number": 1,
                        "time": 49.07301162500017,
                        "value": 0.6614173228346457
                    },
                    {
                        "number": 1,
                        "time": 49.08705656250017,
                        "value": 0.6771653543307087
                    },
                    {
                        "number": 1,
                        "time": 49.101101500000176,
                        "value": 0.6929133858267716
                    },
                    {
                        "number": 1,
                        "time": 49.11514643750018,
                        "value": 0.7086614173228346
                    },
                    {
                        "number": 1,
                        "time": 49.12919137500018,
                        "value": 0.7244094488188977
                    },
                    {
                        "number": 1,
                        "time": 49.143236312500186,
                        "value": 0.7480314960629921
                    },
                    {
                        "number": 1,
                        "time": 49.15728125000019,
                        "value": 0.7637795275590551
                    },
                    {
                        "number": 1,
                        "time": 49.17132618750019,
                        "value": 0.7795275590551181
                    },
                    {
                        "number": 1,
                        "time": 49.185371125000195,
                        "value": 0.7952755905511811
                    },
                    {
                        "number": 1,
                        "time": 49.1994160625002,
                        "value": 0.8188976377952756
                    },
                    {
                        "number": 1,
                        "time": 49.5505395000002,
                        "value": 0
                    },
                    {
                        "number": 1,
                        "time": 51.910089000000205,
                        "value": 0
                    },
                    {
                        "number": 1,
                        "time": 51.92413393750021,
                        "value": 0.007874015748031496
                    },
                    {
                        "number": 1,
                        "time": 51.93817887500021,
                        "value": 0.015748031496062992
                    },
                    {
                        "number": 1,
                        "time": 51.952223812500215,
                        "value": 0.031496062992125984
                    },
                    {
                        "number": 1,
                        "time": 51.96626875000022,
                        "value": 0.03937007874015748
                    },
                    {
                        "number": 1,
                        "time": 51.98031368750022,
                        "value": 0.05511811023622047
                    },
                    {
                        "number": 1,
                        "time": 51.994358625000224,
                        "value": 0.06299212598425197
                    },
                    {
                        "number": 1,
                        "time": 52.00840356250023,
                        "value": 0.07874015748031496
                    },
                    {
                        "number": 1,
                        "time": 52.02244850000023,
                        "value": 0.08661417322834646
                    },
                    {
                        "number": 1,
                        "time": 52.03649343750023,
                        "value": 0.10236220472440945
                    },
                    {
                        "number": 1,
                        "time": 52.05053837500024,
                        "value": 0.11023622047244094
                    },
                    {
                        "number": 1,
                        "time": 52.06458331250024,
                        "value": 0.12598425196850394
                    },
                    {
                        "number": 1,
                        "time": 52.07862825000024,
                        "value": 0.13385826771653545
                    },
                    {
                        "number": 1,
                        "time": 52.092673187500246,
                        "value": 0.14960629921259844
                    },
                    {
                        "number": 1,
                        "time": 52.10671812500025,
                        "value": 0.15748031496062992
                    },
                    {
                        "number": 1,
                        "time": 52.12076306250025,
                        "value": 0.16535433070866143
                    },
                    {
                        "number": 1,
                        "time": 52.134808000000255,
                        "value": 0.18110236220472442
                    },
                    {
                        "number": 1,
                        "time": 52.14885293750026,
                        "value": 0.1889763779527559
                    },
                    {
                        "number": 1,
                        "time": 52.16289787500026,
                        "value": 0.2047244094488189
                    },
                    {
                        "number": 1,
                        "time": 52.176942812500265,
                        "value": 0.2125984251968504
                    },
                    {
                        "number": 1,
                        "time": 52.19098775000027,
                        "value": 0.2283464566929134
                    },
                    {
                        "number": 1,
                        "time": 52.20503268750027,
                        "value": 0.23622047244094488
                    },
                    {
                        "number": 1,
                        "time": 52.219077625000274,
                        "value": 0.25196850393700787
                    },
                    {
                        "number": 1,
                        "time": 52.23312256250028,
                        "value": 0.25984251968503935
                    },
                    {
                        "number": 1,
                        "time": 52.24716750000028,
                        "value": 0.2755905511811024
                    },
                    {
                        "number": 1,
                        "time": 52.261212437500284,
                        "value": 0.28346456692913385
                    },
                    {
                        "number": 1,
                        "time": 52.27525737500029,
                        "value": 0.2992125984251969
                    },
                    {
                        "number": 1,
                        "time": 52.28930231250029,
                        "value": 0.30708661417322836
                    },
                    {
                        "number": 1,
                        "time": 52.30334725000029,
                        "value": 0.3228346456692913
                    },
                    {
                        "number": 1,
                        "time": 52.317392187500296,
                        "value": 0.33070866141732286
                    },
                    {
                        "number": 1,
                        "time": 52.3314371250003,
                        "value": 0.33858267716535434
                    },
                    {
                        "number": 1,
                        "time": 52.3454820625003,
                        "value": 0.3543307086614173
                    },
                    {
                        "number": 1,
                        "time": 52.359527000000305,
                        "value": 0.36220472440944884
                    },
                    {
                        "number": 1,
                        "time": 52.37357193750031,
                        "value": 0.3779527559055118
                    },
                    {
                        "number": 1,
                        "time": 52.38761687500031,
                        "value": 0.3858267716535433
                    },
                    {
                        "number": 1,
                        "time": 52.401661812500315,
                        "value": 0.4015748031496063
                    },
                    {
                        "number": 1,
                        "time": 52.41570675000032,
                        "value": 0.4094488188976378
                    },
                    {
                        "number": 1,
                        "time": 52.42975168750032,
                        "value": 0.4251968503937008
                    },
                    {
                        "number": 1,
                        "time": 52.443796625000324,
                        "value": 0.4330708661417323
                    },
                    {
                        "number": 1,
                        "time": 52.45784156250033,
                        "value": 0.44881889763779526
                    },
                    {
                        "number": 1,
                        "time": 52.47188650000033,
                        "value": 0.4566929133858268
                    },
                    {
                        "number": 1,
                        "time": 52.485931437500334,
                        "value": 0.47244094488188976
                    },
                    {
                        "number": 1,
                        "time": 52.49997637500034,
                        "value": 0.48031496062992124
                    },
                    {
                        "number": 1,
                        "time": 52.51402131250034,
                        "value": 0.4881889763779528
                    },
                    {
                        "number": 1,
                        "time": 52.52806625000034,
                        "value": 0.5039370078740157
                    },
                    {
                        "number": 1,
                        "time": 52.542111187500346,
                        "value": 0.5118110236220472
                    },
                    {
                        "number": 1,
                        "time": 52.55615612500035,
                        "value": 0.5275590551181102
                    },
                    {
                        "number": 1,
                        "time": 52.57020106250035,
                        "value": 0.5354330708661418
                    },
                    {
                        "number": 1,
                        "time": 52.584246000000356,
                        "value": 0.5511811023622047
                    },
                    {
                        "number": 1,
                        "time": 52.59829093750036,
                        "value": 0.5590551181102362
                    },
                    {
                        "number": 1,
                        "time": 52.61233587500036,
                        "value": 0.5748031496062992
                    },
                    {
                        "number": 1,
                        "time": 52.626380812500365,
                        "value": 0.5826771653543307
                    },
                    {
                        "number": 1,
                        "time": 52.64042575000037,
                        "value": 0.5984251968503937
                    },
                    {
                        "number": 1,
                        "time": 52.65447068750037,
                        "value": 0.6062992125984252
                    },
                    {
                        "number": 1,
                        "time": 52.668515625000374,
                        "value": 0.6220472440944882
                    },
                    {
                        "number": 1,
                        "time": 52.68256056250038,
                        "value": 0.6299212598425197
                    },
                    {
                        "number": 1,
                        "time": 52.69660550000038,
                        "value": 0.6456692913385826
                    },
                    {
                        "number": 1,
                        "time": 52.710650437500384,
                        "value": 0.6535433070866141
                    },
                    {
                        "number": 1,
                        "time": 52.72469537500039,
                        "value": 0.6614173228346457
                    },
                    {
                        "number": 1,
                        "time": 52.73874031250039,
                        "value": 0.6771653543307087
                    },
                    {
                        "number": 1,
                        "time": 52.75278525000039,
                        "value": 0.6850393700787402
                    },
                    {
                        "number": 1,
                        "time": 52.766830187500396,
                        "value": 0.7007874015748031
                    },
                    {
                        "number": 1,
                        "time": 52.7808751250004,
                        "value": 0.7086614173228346
                    },
                    {
                        "number": 1,
                        "time": 52.7949200625004,
                        "value": 0.7244094488188977
                    },
                    {
                        "number": 1,
                        "time": 52.808965000000406,
                        "value": 0.7322834645669292
                    },
                    {
                        "number": 1,
                        "time": 52.82300993750041,
                        "value": 0.7480314960629921
                    },
                    {
                        "number": 1,
                        "time": 52.83705487500041,
                        "value": 0.7559055118110236
                    },
                    {
                        "number": 1,
                        "time": 52.851099812500415,
                        "value": 0.7716535433070866
                    },
                    {
                        "number": 1,
                        "time": 52.86514475000042,
                        "value": 0.7795275590551181
                    },
                    {
                        "number": 1,
                        "time": 52.87918968750042,
                        "value": 0.7952755905511811
                    },
                    {
                        "number": 1,
                        "time": 52.893234625000424,
                        "value": 0.8031496062992126
                    },
                    {
                        "number": 1,
                        "time": 52.90727956250043,
                        "value": 0.8188976377952756
                    },
                    {
                        "number": 1,
                        "time": 56.629188000000426,
                        "value": 0
                    },
                    {
                        "number": 1,
                        "time": 56.64323293750043,
                        "value": 0.007874015748031496
                    },
                    {
                        "number": 1,
                        "time": 56.65727787500043,
                        "value": 0.015748031496062992
                    },
                    {
                        "number": 1,
                        "time": 56.671322812500435,
                        "value": 0.031496062992125984
                    },
                    {
                        "number": 1,
                        "time": 56.68536775000044,
                        "value": 0.03937007874015748
                    },
                    {
                        "number": 1,
                        "time": 56.69941268750044,
                        "value": 0.05511811023622047
                    },
                    {
                        "number": 1,
                        "time": 56.713457625000444,
                        "value": 0.06299212598425197
                    },
                    {
                        "number": 1,
                        "time": 56.72750256250045,
                        "value": 0.07874015748031496
                    },
                    {
                        "number": 1,
                        "time": 56.74154750000045,
                        "value": 0.08661417322834646
                    },
                    {
                        "number": 1,
                        "time": 56.755592437500454,
                        "value": 0.10236220472440945
                    },
                    {
                        "number": 1,
                        "time": 56.76963737500046,
                        "value": 0.11023622047244094
                    },
                    {
                        "number": 1,
                        "time": 56.78368231250046,
                        "value": 0.12598425196850394
                    },
                    {
                        "number": 1,
                        "time": 56.79772725000046,
                        "value": 0.13385826771653545
                    },
                    {
                        "number": 1,
                        "time": 56.811772187500466,
                        "value": 0.14960629921259844
                    },
                    {
                        "number": 1,
                        "time": 56.82581712500047,
                        "value": 0.15748031496062992
                    },
                    {
                        "number": 1,
                        "time": 56.83986206250047,
                        "value": 0.16535433070866143
                    },
                    {
                        "number": 1,
                        "time": 56.853907000000476,
                        "value": 0.18110236220472442
                    },
                    {
                        "number": 1,
                        "time": 56.86795193750048,
                        "value": 0.1889763779527559
                    },
                    {
                        "number": 1,
                        "time": 56.88199687500048,
                        "value": 0.2047244094488189
                    },
                    {
                        "number": 1,
                        "time": 56.896041812500485,
                        "value": 0.2125984251968504
                    },
                    {
                        "number": 1,
                        "time": 56.91008675000049,
                        "value": 0.2283464566929134
                    },
                    {
                        "number": 1,
                        "time": 56.92413168750049,
                        "value": 0.23622047244094488
                    },
                    {
                        "number": 1,
                        "time": 56.938176625000494,
                        "value": 0.25196850393700787
                    },
                    {
                        "number": 1,
                        "time": 56.9522215625005,
                        "value": 0.25984251968503935
                    },
                    {
                        "number": 1,
                        "time": 56.9662665000005,
                        "value": 0.2755905511811024
                    },
                    {
                        "number": 1,
                        "time": 56.980311437500504,
                        "value": 0.28346456692913385
                    },
                    {
                        "number": 1,
                        "time": 56.99435637500051,
                        "value": 0.2992125984251969
                    },
                    {
                        "number": 1,
                        "time": 57.00840131250051,
                        "value": 0.30708661417322836
                    },
                    {
                        "number": 1,
                        "time": 57.02244625000051,
                        "value": 0.3228346456692913
                    },
                    {
                        "number": 1,
                        "time": 57.036491187500516,
                        "value": 0.33070866141732286
                    },
                    {
                        "number": 1,
                        "time": 57.05053612500052,
                        "value": 0.33858267716535434
                    },
                    {
                        "number": 1,
                        "time": 57.06458106250052,
                        "value": 0.3543307086614173
                    },
                    {
                        "number": 1,
                        "time": 57.078626000000526,
                        "value": 0.36220472440944884
                    },
                    {
                        "number": 1,
                        "time": 57.09267093750053,
                        "value": 0.3779527559055118
                    },
                    {
                        "number": 1,
                        "time": 57.10671587500053,
                        "value": 0.3858267716535433
                    },
                    {
                        "number": 1,
                        "time": 57.120760812500535,
                        "value": 0.4015748031496063
                    },
                    {
                        "number": 1,
                        "time": 57.13480575000054,
                        "value": 0.4094488188976378
                    },
                    {
                        "number": 1,
                        "time": 57.14885068750054,
                        "value": 0.4251968503937008
                    },
                    {
                        "number": 1,
                        "time": 57.162895625000544,
                        "value": 0.4330708661417323
                    },
                    {
                        "number": 1,
                        "time": 57.17694056250055,
                        "value": 0.44881889763779526
                    },
                    {
                        "number": 1,
                        "time": 57.19098550000055,
                        "value": 0.4566929133858268
                    },
                    {
                        "number": 1,
                        "time": 57.205030437500554,
                        "value": 0.47244094488188976
                    },
                    {
                        "number": 1,
                        "time": 57.21907537500056,
                        "value": 0.48031496062992124
                    },
                    {
                        "number": 1,
                        "time": 57.23312031250056,
                        "value": 0.4881889763779528
                    },
                    {
                        "number": 1,
                        "time": 57.24716525000056,
                        "value": 0.5039370078740157
                    },
                    {
                        "number": 1,
                        "time": 57.261210187500566,
                        "value": 0.5118110236220472
                    },
                    {
                        "number": 1,
                        "time": 57.27525512500057,
                        "value": 0.5275590551181102
                    },
                    {
                        "number": 1,
                        "time": 57.28930006250057,
                        "value": 0.5354330708661418
                    },
                    {
                        "number": 1,
                        "time": 57.303345000000576,
                        "value": 0.5511811023622047
                    },
                    {
                        "number": 1,
                        "time": 57.31738993750058,
                        "value": 0.5590551181102362
                    },
                    {
                        "number": 1,
                        "time": 57.33143487500058,
                        "value": 0.5748031496062992
                    },
                    {
                        "number": 1,
                        "time": 57.345479812500585,
                        "value": 0.5826771653543307
                    },
                    {
                        "number": 1,
                        "time": 57.35952475000059,
                        "value": 0.5984251968503937
                    },
                    {
                        "number": 1,
                        "time": 57.37356968750059,
                        "value": 0.6062992125984252
                    },
                    {
                        "number": 1,
                        "time": 57.387614625000595,
                        "value": 0.6220472440944882
                    },
                    {
                        "number": 1,
                        "time": 57.4016595625006,
                        "value": 0.6299212598425197
                    },
                    {
                        "number": 1,
                        "time": 57.4157045000006,
                        "value": 0.6456692913385826
                    },
                    {
                        "number": 1,
                        "time": 57.429749437500604,
                        "value": 0.6535433070866141
                    },
                    {
                        "number": 1,
                        "time": 57.44379437500061,
                        "value": 0.6614173228346457
                    },
                    {
                        "number": 1,
                        "time": 57.45783931250061,
                        "value": 0.6771653543307087
                    },
                    {
                        "number": 1,
                        "time": 57.47188425000061,
                        "value": 0.6850393700787402
                    },
                    {
                        "number": 1,
                        "time": 57.485929187500616,
                        "value": 0.7007874015748031
                    },
                    {
                        "number": 1,
                        "time": 57.49997412500062,
                        "value": 0.7086614173228346
                    },
                    {
                        "number": 1,
                        "time": 57.51401906250062,
                        "value": 0.7244094488188977
                    },
                    {
                        "number": 1,
                        "time": 57.528064000000626,
                        "value": 0.7322834645669292
                    },
                    {
                        "number": 1,
                        "time": 57.54210893750063,
                        "value": 0.7480314960629921
                    },
                    {
                        "number": 1,
                        "time": 57.55615387500063,
                        "value": 0.7559055118110236
                    },
                    {
                        "number": 1,
                        "time": 57.570198812500635,
                        "value": 0.7716535433070866
                    },
                    {
                        "number": 1,
                        "time": 57.58424375000064,
                        "value": 0.7795275590551181
                    },
                    {
                        "number": 1,
                        "time": 57.59828868750064,
                        "value": 0.7952755905511811
                    },
                    {
                        "number": 1,
                        "time": 57.612333625000645,
                        "value": 0.8031496062992126
                    },
                    {
                        "number": 1,
                        "time": 57.62637856250065,
                        "value": 0.8188976377952756
                    },
                    {
                        "number": 1,
                        "time": 57.64042350000065,
                        "value": 0
                    },
                    {
                        "number": 1,
                        "time": 59.32581600000066,
                        "value": 0
                    },
                    {
                        "number": 1,
                        "time": 59.33986093750066,
                        "value": 0.007874015748031496
                    },
                    {
                        "number": 1,
                        "time": 59.35390587500066,
                        "value": 0.015748031496062992
                    },
                    {
                        "number": 1,
                        "time": 59.367950812500666,
                        "value": 0.031496062992125984
                    },
                    {
                        "number": 1,
                        "time": 59.38199575000067,
                        "value": 0.03937007874015748
                    },
                    {
                        "number": 1,
                        "time": 59.39604068750067,
                        "value": 0.05511811023622047
                    },
                    {
                        "number": 1,
                        "time": 59.410085625000676,
                        "value": 0.06299212598425197
                    },
                    {
                        "number": 1,
                        "time": 59.42413056250068,
                        "value": 0.07874015748031496
                    },
                    {
                        "number": 1,
                        "time": 59.43817550000068,
                        "value": 0.08661417322834646
                    },
                    {
                        "number": 1,
                        "time": 59.452220437500685,
                        "value": 0.10236220472440945
                    },
                    {
                        "number": 1,
                        "time": 59.46626537500069,
                        "value": 0.11023622047244094
                    },
                    {
                        "number": 1,
                        "time": 59.48031031250069,
                        "value": 0.12598425196850394
                    },
                    {
                        "number": 1,
                        "time": 59.494355250000694,
                        "value": 0.13385826771653545
                    },
                    {
                        "number": 1,
                        "time": 59.5084001875007,
                        "value": 0.14960629921259844
                    },
                    {
                        "number": 1,
                        "time": 59.5224451250007,
                        "value": 0.15748031496062992
                    },
                    {
                        "number": 1,
                        "time": 59.536490062500704,
                        "value": 0.16535433070866143
                    },
                    {
                        "number": 1,
                        "time": 59.55053500000071,
                        "value": 0.18110236220472442
                    },
                    {
                        "number": 1,
                        "time": 59.56457993750071,
                        "value": 0.1889763779527559
                    },
                    {
                        "number": 1,
                        "time": 59.57862487500071,
                        "value": 0.2047244094488189
                    },
                    {
                        "number": 1,
                        "time": 59.592669812500716,
                        "value": 0.2125984251968504
                    },
                    {
                        "number": 1,
                        "time": 59.60671475000072,
                        "value": 0.2283464566929134
                    },
                    {
                        "number": 1,
                        "time": 59.62075968750072,
                        "value": 0.23622047244094488
                    },
                    {
                        "number": 1,
                        "time": 59.634804625000726,
                        "value": 0.25196850393700787
                    },
                    {
                        "number": 1,
                        "time": 59.64884956250073,
                        "value": 0.25984251968503935
                    },
                    {
                        "number": 1,
                        "time": 59.66289450000073,
                        "value": 0.2755905511811024
                    },
                    {
                        "number": 1,
                        "time": 59.676939437500735,
                        "value": 0.28346456692913385
                    },
                    {
                        "number": 1,
                        "time": 59.69098437500074,
                        "value": 0.2992125984251969
                    },
                    {
                        "number": 1,
                        "time": 59.70502931250074,
                        "value": 0.30708661417322836
                    },
                    {
                        "number": 1,
                        "time": 59.719074250000745,
                        "value": 0.3228346456692913
                    },
                    {
                        "number": 1,
                        "time": 59.73311918750075,
                        "value": 0.33070866141732286
                    },
                    {
                        "number": 1,
                        "time": 59.74716412500075,
                        "value": 0.33858267716535434
                    },
                    {
                        "number": 1,
                        "time": 59.761209062500754,
                        "value": 0.3543307086614173
                    },
                    {
                        "number": 1,
                        "time": 59.77525400000076,
                        "value": 0.36220472440944884
                    },
                    {
                        "number": 1,
                        "time": 59.78929893750076,
                        "value": 0.3779527559055118
                    },
                    {
                        "number": 1,
                        "time": 59.80334387500076,
                        "value": 0.3858267716535433
                    },
                    {
                        "number": 1,
                        "time": 59.81738881250077,
                        "value": 0.4015748031496063
                    },
                    {
                        "number": 1,
                        "time": 59.83143375000077,
                        "value": 0.4094488188976378
                    },
                    {
                        "number": 1,
                        "time": 59.84547868750077,
                        "value": 0.4251968503937008
                    },
                    {
                        "number": 1,
                        "time": 59.859523625000776,
                        "value": 0.4330708661417323
                    },
                    {
                        "number": 1,
                        "time": 59.87356856250078,
                        "value": 0.44881889763779526
                    },
                    {
                        "number": 1,
                        "time": 59.88761350000078,
                        "value": 0.4566929133858268
                    },
                    {
                        "number": 1,
                        "time": 59.901658437500785,
                        "value": 0.47244094488188976
                    },
                    {
                        "number": 1,
                        "time": 59.91570337500079,
                        "value": 0.48031496062992124
                    },
                    {
                        "number": 1,
                        "time": 59.92974831250079,
                        "value": 0.4881889763779528
                    },
                    {
                        "number": 1,
                        "time": 59.943793250000795,
                        "value": 0.5039370078740157
                    },
                    {
                        "number": 1,
                        "time": 59.9578381875008,
                        "value": 0.5118110236220472
                    },
                    {
                        "number": 1,
                        "time": 59.9718831250008,
                        "value": 0.5275590551181102
                    },
                    {
                        "number": 1,
                        "time": 59.985928062500804,
                        "value": 0.5354330708661418
                    },
                    {
                        "number": 1,
                        "time": 59.99997300000081,
                        "value": 0.5511811023622047
                    },
                    {
                        "number": 1,
                        "time": 60.01401793750081,
                        "value": 0.5590551181102362
                    },
                    {
                        "number": 1,
                        "time": 60.02806287500081,
                        "value": 0.5748031496062992
                    },
                    {
                        "number": 1,
                        "time": 60.04210781250082,
                        "value": 0.5826771653543307
                    },
                    {
                        "number": 1,
                        "time": 60.05615275000082,
                        "value": 0.5984251968503937
                    },
                    {
                        "number": 1,
                        "time": 60.07019768750082,
                        "value": 0.6062992125984252
                    },
                    {
                        "number": 1,
                        "time": 60.084242625000826,
                        "value": 0.6220472440944882
                    },
                    {
                        "number": 1,
                        "time": 60.09828756250083,
                        "value": 0.6299212598425197
                    },
                    {
                        "number": 1,
                        "time": 60.11233250000083,
                        "value": 0.6456692913385826
                    },
                    {
                        "number": 1,
                        "time": 60.126377437500835,
                        "value": 0.6535433070866141
                    },
                    {
                        "number": 1,
                        "time": 60.14042237500084,
                        "value": 0.6614173228346457
                    },
                    {
                        "number": 1,
                        "time": 60.15446731250084,
                        "value": 0.6771653543307087
                    },
                    {
                        "number": 1,
                        "time": 60.168512250000845,
                        "value": 0.6850393700787402
                    },
                    {
                        "number": 1,
                        "time": 60.18255718750085,
                        "value": 0.7007874015748031
                    },
                    {
                        "number": 1,
                        "time": 60.19660212500085,
                        "value": 0.7086614173228346
                    },
                    {
                        "number": 1,
                        "time": 60.210647062500854,
                        "value": 0.7244094488188977
                    },
                    {
                        "number": 1,
                        "time": 60.22469200000086,
                        "value": 0.7322834645669292
                    },
                    {
                        "number": 1,
                        "time": 60.23873693750086,
                        "value": 0.7480314960629921
                    },
                    {
                        "number": 1,
                        "time": 60.25278187500086,
                        "value": 0.7559055118110236
                    },
                    {
                        "number": 1,
                        "time": 60.26682681250087,
                        "value": 0.7716535433070866
                    },
                    {
                        "number": 1,
                        "time": 60.28087175000087,
                        "value": 0.7795275590551181
                    },
                    {
                        "number": 1,
                        "time": 60.29491668750087,
                        "value": 0.7952755905511811
                    },
                    {
                        "number": 1,
                        "time": 60.308961625000876,
                        "value": 0.8031496062992126
                    },
                    {
                        "number": 1,
                        "time": 60.32300656250088,
                        "value": 0.8188976377952756
                    },
                    {
                        "number": 1,
                        "time": 60.33705150000088,
                        "value": 0
                    },
                    {
                        "number": 1,
                        "time": 60.674130000000886,
                        "value": 0
                    },
                    {
                        "number": 1,
                        "time": 60.68817493750089,
                        "value": 0.007874015748031496
                    },
                    {
                        "number": 1,
                        "time": 60.70221987500089,
                        "value": 0.023622047244094488
                    },
                    {
                        "number": 1,
                        "time": 60.716264812500896,
                        "value": 0.03937007874015748
                    },
                    {
                        "number": 1,
                        "time": 60.7303097500009,
                        "value": 0.05511811023622047
                    },
                    {
                        "number": 1,
                        "time": 60.7443546875009,
                        "value": 0.07086614173228346
                    },
                    {
                        "number": 1,
                        "time": 60.758399625000905,
                        "value": 0.08661417322834646
                    },
                    {
                        "number": 1,
                        "time": 60.77244456250091,
                        "value": 0.10236220472440945
                    },
                    {
                        "number": 1,
                        "time": 60.78648950000091,
                        "value": 0.11811023622047244
                    },
                    {
                        "number": 1,
                        "time": 60.800534437500914,
                        "value": 0.13385826771653545
                    },
                    {
                        "number": 1,
                        "time": 60.81457937500092,
                        "value": 0.14173228346456693
                    },
                    {
                        "number": 1,
                        "time": 60.82862431250092,
                        "value": 0.15748031496062992
                    },
                    {
                        "number": 1,
                        "time": 60.842669250000924,
                        "value": 0.1732283464566929
                    },
                    {
                        "number": 1,
                        "time": 60.85671418750093,
                        "value": 0.1889763779527559
                    },
                    {
                        "number": 1,
                        "time": 60.87075912500093,
                        "value": 0.2047244094488189
                    },
                    {
                        "number": 1,
                        "time": 60.88480406250093,
                        "value": 0.2204724409448819
                    },
                    {
                        "number": 1,
                        "time": 60.898849000000936,
                        "value": 0.23622047244094488
                    },
                    {
                        "number": 1,
                        "time": 60.91289393750094,
                        "value": 0.25196850393700787
                    },
                    {
                        "number": 1,
                        "time": 60.92693887500094,
                        "value": 0.2677165354330709
                    },
                    {
                        "number": 1,
                        "time": 60.940983812500946,
                        "value": 0.2755905511811024
                    },
                    {
                        "number": 1,
                        "time": 60.95502875000095,
                        "value": 0.29133858267716534
                    },
                    {
                        "number": 1,
                        "time": 60.96907368750095,
                        "value": 0.30708661417322836
                    },
                    {
                        "number": 1,
                        "time": 60.983118625000955,
                        "value": 0.3228346456692913
                    },
                    {
                        "number": 1,
                        "time": 60.99716356250096,
                        "value": 0.33858267716535434
                    },
                    {
                        "number": 1,
                        "time": 61.01120850000096,
                        "value": 0.3543307086614173
                    },
                    {
                        "number": 1,
                        "time": 61.025253437500965,
                        "value": 0.3700787401574803
                    },
                    {
                        "number": 1,
                        "time": 61.03929837500097,
                        "value": 0.3858267716535433
                    },
                    {
                        "number": 1,
                        "time": 61.05334331250097,
                        "value": 0.4015748031496063
                    },
                    {
                        "number": 1,
                        "time": 61.067388250000974,
                        "value": 0.4094488188976378
                    },
                    {
                        "number": 1,
                        "time": 61.08143318750098,
                        "value": 0.4251968503937008
                    },
                    {
                        "number": 1,
                        "time": 61.09547812500098,
                        "value": 0.4409448818897638
                    },
                    {
                        "number": 1,
                        "time": 61.10952306250098,
                        "value": 0.4566929133858268
                    },
                    {
                        "number": 1,
                        "time": 61.123568000000986,
                        "value": 0.47244094488188976
                    },
                    {
                        "number": 1,
                        "time": 61.13761293750099,
                        "value": 0.4881889763779528
                    },
                    {
                        "number": 1,
                        "time": 61.15165787500099,
                        "value": 0.5039370078740157
                    },
                    {
                        "number": 1,
                        "time": 61.165702812500996,
                        "value": 0.5196850393700787
                    },
                    {
                        "number": 1,
                        "time": 61.179747750001,
                        "value": 0.5354330708661418
                    },
                    {
                        "number": 1,
                        "time": 61.193792687501,
                        "value": 0.5433070866141733
                    },
                    {
                        "number": 1,
                        "time": 61.207837625001005,
                        "value": 0.5590551181102362
                    },
                    {
                        "number": 1,
                        "time": 61.22188256250101,
                        "value": 0.5748031496062992
                    },
                    {
                        "number": 1,
                        "time": 61.23592750000101,
                        "value": 0.5905511811023622
                    },
                    {
                        "number": 1,
                        "time": 61.249972437501015,
                        "value": 0.6062992125984252
                    },
                    {
                        "number": 1,
                        "time": 61.26401737500102,
                        "value": 0.6220472440944882
                    },
                    {
                        "number": 1,
                        "time": 61.27806231250102,
                        "value": 0.6377952755905512
                    },
                    {
                        "number": 1,
                        "time": 61.292107250001024,
                        "value": 0.6535433070866141
                    },
                    {
                        "number": 1,
                        "time": 61.30615218750103,
                        "value": 0.6692913385826772
                    },
                    {
                        "number": 1,
                        "time": 61.32019712500103,
                        "value": 0.6771653543307087
                    },
                    {
                        "number": 1,
                        "time": 61.33424206250103,
                        "value": 0.6929133858267716
                    },
                    {
                        "number": 1,
                        "time": 61.34828700000104,
                        "value": 0.7086614173228346
                    },
                    {
                        "number": 1,
                        "time": 61.36233193750104,
                        "value": 0.7244094488188977
                    },
                    {
                        "number": 1,
                        "time": 61.37637687500104,
                        "value": 0.7401574803149606
                    },
                    {
                        "number": 1,
                        "time": 61.390421812501046,
                        "value": 0.7559055118110236
                    },
                    {
                        "number": 1,
                        "time": 61.40446675000105,
                        "value": 0.7716535433070866
                    },
                    {
                        "number": 1,
                        "time": 61.41851168750105,
                        "value": 0.7874015748031497
                    },
                    {
                        "number": 1,
                        "time": 61.432556625001055,
                        "value": 0.8031496062992126
                    },
                    {
                        "number": 1,
                        "time": 61.44660156250106,
                        "value": 0.8188976377952756
                    },
                    {
                        "number": 1,
                        "time": 62.02244400000106,
                        "value": 0
                    },
                    {
                        "number": 1,
                        "time": 62.03648893750106,
                        "value": 0.015748031496062992
                    },
                    {
                        "number": 1,
                        "time": 62.050533875001065,
                        "value": 0.031496062992125984
                    },
                    {
                        "number": 1,
                        "time": 62.06457881250107,
                        "value": 0.047244094488188976
                    },
                    {
                        "number": 1,
                        "time": 62.07862375000107,
                        "value": 0.06299212598425197
                    },
                    {
                        "number": 1,
                        "time": 62.092668687501074,
                        "value": 0.07874015748031496
                    },
                    {
                        "number": 1,
                        "time": 62.10671362500108,
                        "value": 0.10236220472440945
                    },
                    {
                        "number": 1,
                        "time": 62.12075856250108,
                        "value": 0.11811023622047244
                    },
                    {
                        "number": 1,
                        "time": 62.134803500001084,
                        "value": 0.13385826771653545
                    },
                    {
                        "number": 1,
                        "time": 62.14884843750109,
                        "value": 0.14960629921259844
                    },
                    {
                        "number": 1,
                        "time": 62.16289337500109,
                        "value": 0.16535433070866143
                    },
                    {
                        "number": 1,
                        "time": 62.17693831250109,
                        "value": 0.1889763779527559
                    },
                    {
                        "number": 1,
                        "time": 62.190983250001096,
                        "value": 0.2047244094488189
                    },
                    {
                        "number": 1,
                        "time": 62.2050281875011,
                        "value": 0.2204724409448819
                    },
                    {
                        "number": 1,
                        "time": 62.2190731250011,
                        "value": 0.23622047244094488
                    },
                    {
                        "number": 1,
                        "time": 62.233118062501106,
                        "value": 0.25196850393700787
                    },
                    {
                        "number": 1,
                        "time": 62.24716300000111,
                        "value": 0.2677165354330709
                    },
                    {
                        "number": 1,
                        "time": 62.26120793750111,
                        "value": 0.29133858267716534
                    },
                    {
                        "number": 1,
                        "time": 62.275252875001115,
                        "value": 0.30708661417322836
                    },
                    {
                        "number": 1,
                        "time": 62.28929781250112,
                        "value": 0.3228346456692913
                    },
                    {
                        "number": 1,
                        "time": 62.30334275000112,
                        "value": 0.33858267716535434
                    },
                    {
                        "number": 1,
                        "time": 62.317387687501125,
                        "value": 0.3543307086614173
                    },
                    {
                        "number": 1,
                        "time": 62.33143262500113,
                        "value": 0.3779527559055118
                    },
                    {
                        "number": 1,
                        "time": 62.34547756250113,
                        "value": 0.3937007874015748
                    },
                    {
                        "number": 1,
                        "time": 62.359522500001134,
                        "value": 0.4094488188976378
                    },
                    {
                        "number": 1,
                        "time": 62.37356743750114,
                        "value": 0.4251968503937008
                    },
                    {
                        "number": 1,
                        "time": 62.38761237500114,
                        "value": 0.4409448818897638
                    },
                    {
                        "number": 1,
                        "time": 62.40165731250114,
                        "value": 0.4566929133858268
                    },
                    {
                        "number": 1,
                        "time": 62.41570225000115,
                        "value": 0.48031496062992124
                    },
                    {
                        "number": 1,
                        "time": 62.42974718750115,
                        "value": 0.49606299212598426
                    },
                    {
                        "number": 1,
                        "time": 62.44379212500115,
                        "value": 0.5118110236220472
                    },
                    {
                        "number": 1,
                        "time": 62.457837062501156,
                        "value": 0.5275590551181102
                    },
                    {
                        "number": 1,
                        "time": 62.47188200000116,
                        "value": 0.5433070866141733
                    },
                    {
                        "number": 1,
                        "time": 62.48592693750116,
                        "value": 0.5669291338582677
                    },
                    {
                        "number": 1,
                        "time": 62.499971875001165,
                        "value": 0.5826771653543307
                    },
                    {
                        "number": 1,
                        "time": 62.51401681250117,
                        "value": 0.5984251968503937
                    },
                    {
                        "number": 1,
                        "time": 62.52806175000117,
                        "value": 0.6141732283464567
                    },
                    {
                        "number": 1,
                        "time": 62.542106687501175,
                        "value": 0.6299212598425197
                    },
                    {
                        "number": 1,
                        "time": 62.55615162500118,
                        "value": 0.6456692913385826
                    },
                    {
                        "number": 1,
                        "time": 62.57019656250118,
                        "value": 0.6692913385826772
                    },
                    {
                        "number": 1,
                        "time": 62.584241500001184,
                        "value": 0.6850393700787402
                    },
                    {
                        "number": 1,
                        "time": 62.59828643750119,
                        "value": 0.7007874015748031
                    },
                    {
                        "number": 1,
                        "time": 62.61233137500119,
                        "value": 0.7165354330708661
                    },
                    {
                        "number": 1,
                        "time": 62.62637631250119,
                        "value": 0.7322834645669292
                    },
                    {
                        "number": 1,
                        "time": 62.6404212500012,
                        "value": 0.7559055118110236
                    },
                    {
                        "number": 1,
                        "time": 62.6544661875012,
                        "value": 0.7716535433070866
                    },
                    {
                        "number": 1,
                        "time": 62.6685111250012,
                        "value": 0.7874015748031497
                    },
                    {
                        "number": 1,
                        "time": 62.682556062501206,
                        "value": 0.8031496062992126
                    },
                    {
                        "number": 1,
                        "time": 62.69660100000121,
                        "value": 0.8188976377952756
                    },
                    {
                        "number": 1,
                        "time": 62.71064593750121,
                        "value": 0.8346456692913385
                    },
                    {
                        "number": 1,
                        "time": 62.724690875001215,
                        "value": 0.8582677165354331
                    },
                    {
                        "number": 1,
                        "time": 62.73873581250122,
                        "value": 0.8740157480314961
                    },
                    {
                        "number": 1,
                        "time": 62.75278075000122,
                        "value": 0.889763779527559
                    },
                    {
                        "number": 1,
                        "time": 62.766825687501225,
                        "value": 0.905511811023622
                    },
                    {
                        "number": 1,
                        "time": 62.78087062500123,
                        "value": 0.9212598425196851
                    },
                    {
                        "number": 1,
                        "time": 62.79491556250123,
                        "value": 0.9448818897637795
                    },
                    {
                        "number": 1,
                        "time": 63.37075800000123,
                        "value": 0
                    },
                    {
                        "number": 1,
                        "time": 64.71907200000123,
                        "value": 0
                    },
                    {
                        "number": 1,
                        "time": 64.73311693750124,
                        "value": 0.015748031496062992
                    },
                    {
                        "number": 1,
                        "time": 64.74716187500124,
                        "value": 0.03937007874015748
                    },
                    {
                        "number": 1,
                        "time": 64.76120681250124,
                        "value": 0.05511811023622047
                    },
                    {
                        "number": 1,
                        "time": 64.77525175000125,
                        "value": 0.07874015748031496
                    },
                    {
                        "number": 1,
                        "time": 64.78929668750125,
                        "value": 0.09448818897637795
                    },
                    {
                        "number": 1,
                        "time": 64.80334162500125,
                        "value": 0.11811023622047244
                    },
                    {
                        "number": 1,
                        "time": 64.81738656250126,
                        "value": 0.13385826771653545
                    },
                    {
                        "number": 1,
                        "time": 64.83143150000126,
                        "value": 0.15748031496062992
                    },
                    {
                        "number": 1,
                        "time": 64.84547643750126,
                        "value": 0.1732283464566929
                    },
                    {
                        "number": 1,
                        "time": 64.85952137500126,
                        "value": 0.1968503937007874
                    },
                    {
                        "number": 1,
                        "time": 64.87356631250127,
                        "value": 0.2204724409448819
                    },
                    {
                        "number": 1,
                        "time": 64.88761125000127,
                        "value": 0.23622047244094488
                    },
                    {
                        "number": 1,
                        "time": 64.90165618750127,
                        "value": 0.25984251968503935
                    },
                    {
                        "number": 1,
                        "time": 64.91570112500128,
                        "value": 0.2755905511811024
                    },
                    {
                        "number": 1,
                        "time": 64.92974606250128,
                        "value": 0.2992125984251969
                    },
                    {
                        "number": 1,
                        "time": 64.94379100000128,
                        "value": 0.31496062992125984
                    },
                    {
                        "number": 1,
                        "time": 64.95783593750129,
                        "value": 0.33858267716535434
                    },
                    {
                        "number": 1,
                        "time": 64.97188087500129,
                        "value": 0.3543307086614173
                    },
                    {
                        "number": 1,
                        "time": 64.98592581250129,
                        "value": 0.3779527559055118
                    },
                    {
                        "number": 1,
                        "time": 64.9999707500013,
                        "value": 0.4015748031496063
                    },
                    {
                        "number": 1,
                        "time": 65.0140156875013,
                        "value": 0.41732283464566927
                    },
                    {
                        "number": 1,
                        "time": 65.0280606250013,
                        "value": 0.4409448818897638
                    },
                    {
                        "number": 1,
                        "time": 65.0421055625013,
                        "value": 0.4566929133858268
                    },
                    {
                        "number": 1,
                        "time": 65.05615050000131,
                        "value": 0.48031496062992124
                    },
                    {
                        "number": 1,
                        "time": 65.07019543750131,
                        "value": 0.49606299212598426
                    },
                    {
                        "number": 1,
                        "time": 65.08424037500131,
                        "value": 0.5196850393700787
                    },
                    {
                        "number": 1,
                        "time": 65.09828531250132,
                        "value": 0.5354330708661418
                    },
                    {
                        "number": 1,
                        "time": 65.11233025000132,
                        "value": 0.5590551181102362
                    },
                    {
                        "number": 1,
                        "time": 65.12637518750132,
                        "value": 0.5826771653543307
                    },
                    {
                        "number": 1,
                        "time": 65.14042012500133,
                        "value": 0.5984251968503937
                    },
                    {
                        "number": 1,
                        "time": 65.15446506250133,
                        "value": 0.6220472440944882
                    },
                    {
                        "number": 1,
                        "time": 65.16851000000133,
                        "value": 0.6377952755905512
                    },
                    {
                        "number": 1,
                        "time": 65.18255493750134,
                        "value": 0.6614173228346457
                    },
                    {
                        "number": 1,
                        "time": 65.19659987500134,
                        "value": 0.6771653543307087
                    },
                    {
                        "number": 1,
                        "time": 65.21064481250134,
                        "value": 0.7007874015748031
                    },
                    {
                        "number": 1,
                        "time": 65.22468975000135,
                        "value": 0.7165354330708661
                    },
                    {
                        "number": 1,
                        "time": 65.23873468750135,
                        "value": 0.7401574803149606
                    },
                    {
                        "number": 1,
                        "time": 65.25277962500135,
                        "value": 0.7637795275590551
                    },
                    {
                        "number": 1,
                        "time": 65.26682456250136,
                        "value": 0.7795275590551181
                    },
                    {
                        "number": 1,
                        "time": 65.28086950000136,
                        "value": 0.8031496062992126
                    },
                    {
                        "number": 1,
                        "time": 65.29491443750136,
                        "value": 0.8188976377952756
                    },
                    {
                        "number": 1,
                        "time": 65.30895937500136,
                        "value": 0.84251968503937
                    },
                    {
                        "number": 1,
                        "time": 65.32300431250137,
                        "value": 0.8582677165354331
                    },
                    {
                        "number": 1,
                        "time": 65.33704925000137,
                        "value": 0.8818897637795275
                    },
                    {
                        "number": 1,
                        "time": 65.35109418750137,
                        "value": 0.8976377952755905
                    },
                    {
                        "number": 1,
                        "time": 65.36513912500138,
                        "value": 0.9212598425196851
                    },
                    {
                        "number": 1,
                        "time": 65.37918406250138,
                        "value": 0.9448818897637795
                    },
                    {
                        "number": 1,
                        "time": 66.06738600000138,
                        "value": 0
                    },
                    {
                        "number": 1,
                        "time": 67.4157000000014,
                        "value": 0
                    },
                    {
                        "number": 1,
                        "time": 67.4297449375014,
                        "value": 0.015748031496062992
                    },
                    {
                        "number": 1,
                        "time": 67.4437898750014,
                        "value": 0.03937007874015748
                    },
                    {
                        "number": 1,
                        "time": 67.4578348125014,
                        "value": 0.05511811023622047
                    },
                    {
                        "number": 1,
                        "time": 67.4718797500014,
                        "value": 0.07874015748031496
                    },
                    {
                        "number": 1,
                        "time": 67.48592468750141,
                        "value": 0.09448818897637795
                    },
                    {
                        "number": 1,
                        "time": 67.49996962500141,
                        "value": 0.11811023622047244
                    },
                    {
                        "number": 1,
                        "time": 67.51401456250142,
                        "value": 0.13385826771653545
                    },
                    {
                        "number": 1,
                        "time": 67.52805950000142,
                        "value": 0.15748031496062992
                    },
                    {
                        "number": 1,
                        "time": 67.54210443750142,
                        "value": 0.1732283464566929
                    },
                    {
                        "number": 1,
                        "time": 67.55614937500143,
                        "value": 0.1968503937007874
                    },
                    {
                        "number": 1,
                        "time": 67.57019431250143,
                        "value": 0.2204724409448819
                    },
                    {
                        "number": 1,
                        "time": 67.58423925000143,
                        "value": 0.23622047244094488
                    },
                    {
                        "number": 1,
                        "time": 67.59828418750143,
                        "value": 0.25984251968503935
                    },
                    {
                        "number": 1,
                        "time": 67.61232912500144,
                        "value": 0.2755905511811024
                    },
                    {
                        "number": 1,
                        "time": 67.62637406250144,
                        "value": 0.2992125984251969
                    },
                    {
                        "number": 1,
                        "time": 67.64041900000144,
                        "value": 0.31496062992125984
                    },
                    {
                        "number": 1,
                        "time": 67.65446393750145,
                        "value": 0.33858267716535434
                    },
                    {
                        "number": 1,
                        "time": 67.66850887500145,
                        "value": 0.3543307086614173
                    },
                    {
                        "number": 1,
                        "time": 67.68255381250145,
                        "value": 0.3779527559055118
                    },
                    {
                        "number": 1,
                        "time": 67.69659875000146,
                        "value": 0.4015748031496063
                    },
                    {
                        "number": 1,
                        "time": 67.71064368750146,
                        "value": 0.41732283464566927
                    },
                    {
                        "number": 1,
                        "time": 67.72468862500146,
                        "value": 0.4409448818897638
                    },
                    {
                        "number": 1,
                        "time": 67.73873356250147,
                        "value": 0.4566929133858268
                    },
                    {
                        "number": 1,
                        "time": 67.75277850000147,
                        "value": 0.48031496062992124
                    },
                    {
                        "number": 1,
                        "time": 67.76682343750147,
                        "value": 0.49606299212598426
                    },
                    {
                        "number": 1,
                        "time": 67.78086837500148,
                        "value": 0.5196850393700787
                    },
                    {
                        "number": 1,
                        "time": 67.79491331250148,
                        "value": 0.5354330708661418
                    },
                    {
                        "number": 1,
                        "time": 67.80895825000148,
                        "value": 0.5590551181102362
                    },
                    {
                        "number": 1,
                        "time": 67.82300318750148,
                        "value": 0.5826771653543307
                    },
                    {
                        "number": 1,
                        "time": 67.83704812500149,
                        "value": 0.5984251968503937
                    },
                    {
                        "number": 1,
                        "time": 67.85109306250149,
                        "value": 0.6220472440944882
                    },
                    {
                        "number": 1,
                        "time": 67.8651380000015,
                        "value": 0.6377952755905512
                    },
                    {
                        "number": 1,
                        "time": 67.8791829375015,
                        "value": 0.6614173228346457
                    },
                    {
                        "number": 1,
                        "time": 67.8932278750015,
                        "value": 0.6771653543307087
                    },
                    {
                        "number": 1,
                        "time": 67.9072728125015,
                        "value": 0.7007874015748031
                    },
                    {
                        "number": 1,
                        "time": 67.9213177500015,
                        "value": 0.7165354330708661
                    },
                    {
                        "number": 1,
                        "time": 67.93536268750151,
                        "value": 0.7401574803149606
                    },
                    {
                        "number": 1,
                        "time": 67.94940762500151,
                        "value": 0.7637795275590551
                    },
                    {
                        "number": 1,
                        "time": 67.96345256250152,
                        "value": 0.7795275590551181
                    },
                    {
                        "number": 1,
                        "time": 67.97749750000152,
                        "value": 0.8031496062992126
                    },
                    {
                        "number": 1,
                        "time": 67.99154243750152,
                        "value": 0.8188976377952756
                    },
                    {
                        "number": 1,
                        "time": 68.00558737500153,
                        "value": 0.84251968503937
                    },
                    {
                        "number": 1,
                        "time": 68.01963231250153,
                        "value": 0.8582677165354331
                    },
                    {
                        "number": 1,
                        "time": 68.03367725000153,
                        "value": 0.8818897637795275
                    },
                    {
                        "number": 1,
                        "time": 68.04772218750153,
                        "value": 0.8976377952755905
                    },
                    {
                        "number": 1,
                        "time": 68.06176712500154,
                        "value": 0.9212598425196851
                    },
                    {
                        "number": 1,
                        "time": 68.07581206250154,
                        "value": 0.9448818897637795
                    },
                    {
                        "number": 1,
                        "time": 68.76401400000154,
                        "value": 0
                    },
                    {
                        "number": 1,
                        "time": 70.11232800000155,
                        "value": 0
                    },
                    {
                        "number": 1,
                        "time": 70.12637293750156,
                        "value": 0.015748031496062992
                    },
                    {
                        "number": 1,
                        "time": 70.14041787500156,
                        "value": 0.03937007874015748
                    },
                    {
                        "number": 1,
                        "time": 70.15446281250156,
                        "value": 0.06299212598425197
                    },
                    {
                        "number": 1,
                        "time": 70.16850775000157,
                        "value": 0.07874015748031496
                    },
                    {
                        "number": 1,
                        "time": 70.18255268750157,
                        "value": 0.10236220472440945
                    },
                    {
                        "number": 1,
                        "time": 70.19659762500157,
                        "value": 0.12598425196850394
                    },
                    {
                        "number": 1,
                        "time": 70.21064256250158,
                        "value": 0.14173228346456693
                    },
                    {
                        "number": 1,
                        "time": 70.22468750000158,
                        "value": 0.16535433070866143
                    },
                    {
                        "number": 1,
                        "time": 70.23873243750158,
                        "value": 0.1889763779527559
                    },
                    {
                        "number": 1,
                        "time": 70.25277737500159,
                        "value": 0.2047244094488189
                    },
                    {
                        "number": 1,
                        "time": 70.26682231250159,
                        "value": 0.2283464566929134
                    },
                    {
                        "number": 1,
                        "time": 70.28086725000159,
                        "value": 0.25196850393700787
                    },
                    {
                        "number": 1,
                        "time": 70.2949121875016,
                        "value": 0.2677165354330709
                    },
                    {
                        "number": 1,
                        "time": 70.3089571250016,
                        "value": 0.29133858267716534
                    },
                    {
                        "number": 1,
                        "time": 70.3230020625016,
                        "value": 0.31496062992125984
                    },
                    {
                        "number": 1,
                        "time": 70.3370470000016,
                        "value": 0.33070866141732286
                    },
                    {
                        "number": 1,
                        "time": 70.35109193750161,
                        "value": 0.3543307086614173
                    },
                    {
                        "number": 1,
                        "time": 70.36513687500161,
                        "value": 0.3779527559055118
                    },
                    {
                        "number": 1,
                        "time": 70.37918181250161,
                        "value": 0.3937007874015748
                    },
                    {
                        "number": 1,
                        "time": 70.39322675000162,
                        "value": 0.41732283464566927
                    },
                    {
                        "number": 1,
                        "time": 70.40727168750162,
                        "value": 0.4409448818897638
                    },
                    {
                        "number": 1,
                        "time": 70.42131662500162,
                        "value": 0.4566929133858268
                    },
                    {
                        "number": 1,
                        "time": 70.43536156250163,
                        "value": 0.48031496062992124
                    },
                    {
                        "number": 1,
                        "time": 70.44940650000163,
                        "value": 0.5039370078740157
                    },
                    {
                        "number": 1,
                        "time": 70.46345143750163,
                        "value": 0.5196850393700787
                    },
                    {
                        "number": 1,
                        "time": 70.47749637500164,
                        "value": 0.5433070866141733
                    },
                    {
                        "number": 1,
                        "time": 70.49154131250164,
                        "value": 0.5669291338582677
                    },
                    {
                        "number": 1,
                        "time": 70.50558625000164,
                        "value": 0.5826771653543307
                    },
                    {
                        "number": 1,
                        "time": 70.51963118750164,
                        "value": 0.6062992125984252
                    },
                    {
                        "number": 1,
                        "time": 70.53367612500165,
                        "value": 0.6299212598425197
                    },
                    {
                        "number": 1,
                        "time": 70.54772106250165,
                        "value": 0.6456692913385826
                    },
                    {
                        "number": 1,
                        "time": 70.56176600000165,
                        "value": 0.6692913385826772
                    },
                    {
                        "number": 1,
                        "time": 70.57581093750166,
                        "value": 0.6929133858267716
                    },
                    {
                        "number": 1,
                        "time": 70.58985587500166,
                        "value": 0.7086614173228346
                    },
                    {
                        "number": 1,
                        "time": 70.60390081250166,
                        "value": 0.7322834645669292
                    },
                    {
                        "number": 1,
                        "time": 70.61794575000167,
                        "value": 0.7559055118110236
                    },
                    {
                        "number": 1,
                        "time": 70.63199068750167,
                        "value": 0.7716535433070866
                    },
                    {
                        "number": 1,
                        "time": 70.64603562500167,
                        "value": 0.7952755905511811
                    },
                    {
                        "number": 1,
                        "time": 70.66008056250168,
                        "value": 0.8188976377952756
                    },
                    {
                        "number": 1,
                        "time": 70.78648500000168,
                        "value": 0
                    },
                    {
                        "number": 1,
                        "time": 70.80052993750168,
                        "value": 0.015748031496062992
                    },
                    {
                        "number": 1,
                        "time": 70.81457487500168,
                        "value": 0.031496062992125984
                    },
                    {
                        "number": 1,
                        "time": 70.82861981250169,
                        "value": 0.047244094488188976
                    },
                    {
                        "number": 1,
                        "time": 70.84266475000169,
                        "value": 0.06299212598425197
                    },
                    {
                        "number": 1,
                        "time": 70.85670968750169,
                        "value": 0.08661417322834646
                    },
                    {
                        "number": 1,
                        "time": 70.8707546250017,
                        "value": 0.10236220472440945
                    },
                    {
                        "number": 1,
                        "time": 70.8847995625017,
                        "value": 0.11811023622047244
                    },
                    {
                        "number": 1,
                        "time": 70.8988445000017,
                        "value": 0.13385826771653545
                    },
                    {
                        "number": 1,
                        "time": 70.9128894375017,
                        "value": 0.14960629921259844
                    },
                    {
                        "number": 1,
                        "time": 70.92693437500171,
                        "value": 0.1732283464566929
                    },
                    {
                        "number": 1,
                        "time": 70.94097931250171,
                        "value": 0.1889763779527559
                    },
                    {
                        "number": 1,
                        "time": 70.95502425000171,
                        "value": 0.2047244094488189
                    },
                    {
                        "number": 1,
                        "time": 70.96906918750172,
                        "value": 0.2204724409448819
                    },
                    {
                        "number": 1,
                        "time": 70.98311412500172,
                        "value": 0.23622047244094488
                    },
                    {
                        "number": 1,
                        "time": 70.99715906250172,
                        "value": 0.25984251968503935
                    },
                    {
                        "number": 1,
                        "time": 71.01120400000173,
                        "value": 0.2755905511811024
                    },
                    {
                        "number": 1,
                        "time": 71.02524893750173,
                        "value": 0.29133858267716534
                    },
                    {
                        "number": 1,
                        "time": 71.03929387500173,
                        "value": 0.30708661417322836
                    },
                    {
                        "number": 1,
                        "time": 71.05333881250174,
                        "value": 0.33070866141732286
                    },
                    {
                        "number": 1,
                        "time": 71.06738375000174,
                        "value": 0.3464566929133858
                    },
                    {
                        "number": 1,
                        "time": 71.08142868750174,
                        "value": 0.36220472440944884
                    },
                    {
                        "number": 1,
                        "time": 71.09547362500174,
                        "value": 0.3779527559055118
                    },
                    {
                        "number": 1,
                        "time": 71.10951856250175,
                        "value": 0.3937007874015748
                    },
                    {
                        "number": 1,
                        "time": 71.12356350000175,
                        "value": 0.41732283464566927
                    },
                    {
                        "number": 1,
                        "time": 71.13760843750175,
                        "value": 0.4330708661417323
                    },
                    {
                        "number": 1,
                        "time": 71.15165337500176,
                        "value": 0.44881889763779526
                    },
                    {
                        "number": 1,
                        "time": 71.16569831250176,
                        "value": 0.4645669291338583
                    },
                    {
                        "number": 1,
                        "time": 71.17974325000176,
                        "value": 0.48031496062992124
                    },
                    {
                        "number": 1,
                        "time": 71.19378818750177,
                        "value": 0.5039370078740157
                    },
                    {
                        "number": 1,
                        "time": 71.20783312500177,
                        "value": 0.5196850393700787
                    },
                    {
                        "number": 1,
                        "time": 71.22187806250177,
                        "value": 0.5354330708661418
                    },
                    {
                        "number": 1,
                        "time": 71.23592300000178,
                        "value": 0.5511811023622047
                    },
                    {
                        "number": 1,
                        "time": 71.24996793750178,
                        "value": 0.5748031496062992
                    },
                    {
                        "number": 1,
                        "time": 71.26401287500178,
                        "value": 0.5905511811023622
                    },
                    {
                        "number": 1,
                        "time": 71.27805781250179,
                        "value": 0.6062992125984252
                    },
                    {
                        "number": 1,
                        "time": 71.29210275000179,
                        "value": 0.6220472440944882
                    },
                    {
                        "number": 1,
                        "time": 71.30614768750179,
                        "value": 0.6377952755905512
                    },
                    {
                        "number": 1,
                        "time": 71.3201926250018,
                        "value": 0.6614173228346457
                    },
                    {
                        "number": 1,
                        "time": 71.3342375625018,
                        "value": 0.6771653543307087
                    },
                    {
                        "number": 1,
                        "time": 71.3482825000018,
                        "value": 0.6929133858267716
                    },
                    {
                        "number": 1,
                        "time": 71.3623274375018,
                        "value": 0.7086614173228346
                    },
                    {
                        "number": 1,
                        "time": 71.37637237500181,
                        "value": 0.7244094488188977
                    },
                    {
                        "number": 1,
                        "time": 71.39041731250181,
                        "value": 0.7480314960629921
                    },
                    {
                        "number": 1,
                        "time": 71.40446225000181,
                        "value": 0.7637795275590551
                    },
                    {
                        "number": 1,
                        "time": 71.41850718750182,
                        "value": 0.7795275590551181
                    },
                    {
                        "number": 1,
                        "time": 71.43255212500182,
                        "value": 0.7952755905511811
                    },
                    {
                        "number": 1,
                        "time": 71.44659706250182,
                        "value": 0.8188976377952756
                    },
                    {
                        "number": 1,
                        "time": 71.46064200000183,
                        "value": 0
                    },
                    {
                        "number": 1,
                        "time": 72.13479900000182,
                        "value": 0
                    },
                    {
                        "number": 1,
                        "time": 72.14884393750182,
                        "value": 0.015748031496062992
                    },
                    {
                        "number": 1,
                        "time": 72.16288887500183,
                        "value": 0.031496062992125984
                    },
                    {
                        "number": 1,
                        "time": 72.17693381250183,
                        "value": 0.047244094488188976
                    },
                    {
                        "number": 1,
                        "time": 72.19097875000183,
                        "value": 0.06299212598425197
                    },
                    {
                        "number": 1,
                        "time": 72.20502368750184,
                        "value": 0.08661417322834646
                    },
                    {
                        "number": 1,
                        "time": 72.21906862500184,
                        "value": 0.10236220472440945
                    },
                    {
                        "number": 1,
                        "time": 72.23311356250184,
                        "value": 0.11811023622047244
                    },
                    {
                        "number": 1,
                        "time": 72.24715850000185,
                        "value": 0.13385826771653545
                    },
                    {
                        "number": 1,
                        "time": 72.26120343750185,
                        "value": 0.14960629921259844
                    },
                    {
                        "number": 1,
                        "time": 72.27524837500185,
                        "value": 0.1732283464566929
                    },
                    {
                        "number": 1,
                        "time": 72.28929331250185,
                        "value": 0.1889763779527559
                    },
                    {
                        "number": 1,
                        "time": 72.30333825000186,
                        "value": 0.2047244094488189
                    },
                    {
                        "number": 1,
                        "time": 72.31738318750186,
                        "value": 0.2204724409448819
                    },
                    {
                        "number": 1,
                        "time": 72.33142812500186,
                        "value": 0.23622047244094488
                    },
                    {
                        "number": 1,
                        "time": 72.34547306250187,
                        "value": 0.25984251968503935
                    },
                    {
                        "number": 1,
                        "time": 72.35951800000187,
                        "value": 0.2755905511811024
                    },
                    {
                        "number": 1,
                        "time": 72.37356293750187,
                        "value": 0.29133858267716534
                    },
                    {
                        "number": 1,
                        "time": 72.38760787500188,
                        "value": 0.30708661417322836
                    },
                    {
                        "number": 1,
                        "time": 72.40165281250188,
                        "value": 0.33070866141732286
                    },
                    {
                        "number": 1,
                        "time": 72.41569775000188,
                        "value": 0.3464566929133858
                    },
                    {
                        "number": 1,
                        "time": 72.42974268750189,
                        "value": 0.36220472440944884
                    },
                    {
                        "number": 1,
                        "time": 72.44378762500189,
                        "value": 0.3779527559055118
                    },
                    {
                        "number": 1,
                        "time": 72.45783256250189,
                        "value": 0.3937007874015748
                    },
                    {
                        "number": 1,
                        "time": 72.4718775000019,
                        "value": 0.41732283464566927
                    },
                    {
                        "number": 1,
                        "time": 72.4859224375019,
                        "value": 0.4330708661417323
                    },
                    {
                        "number": 1,
                        "time": 72.4999673750019,
                        "value": 0.44881889763779526
                    },
                    {
                        "number": 1,
                        "time": 72.5140123125019,
                        "value": 0.4645669291338583
                    },
                    {
                        "number": 1,
                        "time": 72.52805725000191,
                        "value": 0.48031496062992124
                    },
                    {
                        "number": 1,
                        "time": 72.54210218750191,
                        "value": 0.5039370078740157
                    },
                    {
                        "number": 1,
                        "time": 72.55614712500191,
                        "value": 0.5196850393700787
                    },
                    {
                        "number": 1,
                        "time": 72.57019206250192,
                        "value": 0.5354330708661418
                    },
                    {
                        "number": 1,
                        "time": 72.58423700000192,
                        "value": 0.5511811023622047
                    },
                    {
                        "number": 1,
                        "time": 72.59828193750192,
                        "value": 0.5748031496062992
                    },
                    {
                        "number": 1,
                        "time": 72.61232687500193,
                        "value": 0.5905511811023622
                    },
                    {
                        "number": 1,
                        "time": 72.62637181250193,
                        "value": 0.6062992125984252
                    },
                    {
                        "number": 1,
                        "time": 72.64041675000193,
                        "value": 0.6220472440944882
                    },
                    {
                        "number": 1,
                        "time": 72.65446168750194,
                        "value": 0.6377952755905512
                    },
                    {
                        "number": 1,
                        "time": 72.66850662500194,
                        "value": 0.6614173228346457
                    },
                    {
                        "number": 1,
                        "time": 72.68255156250194,
                        "value": 0.6771653543307087
                    },
                    {
                        "number": 1,
                        "time": 72.69659650000195,
                        "value": 0.6929133858267716
                    },
                    {
                        "number": 1,
                        "time": 72.71064143750195,
                        "value": 0.7086614173228346
                    },
                    {
                        "number": 1,
                        "time": 72.72468637500195,
                        "value": 0.7244094488188977
                    },
                    {
                        "number": 1,
                        "time": 72.73873131250195,
                        "value": 0.7480314960629921
                    },
                    {
                        "number": 1,
                        "time": 72.75277625000196,
                        "value": 0.7637795275590551
                    },
                    {
                        "number": 1,
                        "time": 72.76682118750196,
                        "value": 0.7795275590551181
                    },
                    {
                        "number": 1,
                        "time": 72.78086612500196,
                        "value": 0.7952755905511811
                    },
                    {
                        "number": 1,
                        "time": 72.79491106250197,
                        "value": 0.8188976377952756
                    },
                    {
                        "number": 1,
                        "time": 80.89884000000197,
                        "value": 0
                    }
                ]
            },
            "id": 1,
            "name": "Renix nade by: GenesisX",
            "instrumentNumber": 16,
            "instrument": "drawbar organ",
            "instrumentFamily": "organ",
            "channelNumber": 0,
            "isPercussion": false
        },
        {
            "startTime": 1.0112354999999997,
            "duration": 53.258403000000555,
            "length": 32,
            "notes": [
                {
                    "name": "C4",
                    "midi": 60,
                    "time": 1.0112354999999997,
                    "velocity": 1,
                    "duration": 0.16853925000000003
                },
                {
                    "name": "E3",
                    "midi": 52,
                    "time": 1.0112354999999997,
                    "velocity": 1,
                    "duration": 0.16853925000000003
                },
                {
                    "name": "F3",
                    "midi": 53,
                    "time": 1.3483139999999998,
                    "velocity": 1,
                    "duration": 0.674157000000001
                },
                {
                    "name": "F3",
                    "midi": 53,
                    "time": 2.359549500000001,
                    "velocity": 1,
                    "duration": 0.1685392499999998
                },
                {
                    "name": "C4",
                    "midi": 60,
                    "time": 2.6966280000000005,
                    "velocity": 1,
                    "duration": 0.1685392499999998
                },
                {
                    "name": "A#3",
                    "midi": 58,
                    "time": 3.370785,
                    "velocity": 1,
                    "duration": 0.5617975
                },
                {
                    "name": "C4",
                    "midi": 60,
                    "time": 4.044942,
                    "velocity": 1,
                    "duration": 0.16853925000000025
                },
                {
                    "name": "D4",
                    "midi": 62,
                    "time": 4.719099,
                    "velocity": 1,
                    "duration": 0.5617975
                },
                {
                    "name": "C4",
                    "midi": 60,
                    "time": 6.4044915,
                    "velocity": 1,
                    "duration": 0.16853925000000025
                },
                {
                    "name": "F3",
                    "midi": 53,
                    "time": 6.74157,
                    "velocity": 1,
                    "duration": 0.6741569999999797
                },
                {
                    "name": "F3",
                    "midi": 53,
                    "time": 7.75280549999998,
                    "velocity": 1,
                    "duration": 0.16853925000000025
                },
                {
                    "name": "C4",
                    "midi": 60,
                    "time": 8.08988399999998,
                    "velocity": 1,
                    "duration": 0.16853925000000025
                },
                {
                    "name": "A#3",
                    "midi": 58,
                    "time": 8.764040999999981,
                    "velocity": 1,
                    "duration": 0.6741569999999797
                },
                {
                    "name": "C4",
                    "midi": 60,
                    "time": 9.43819799999996,
                    "velocity": 1,
                    "duration": 0.16853925000000025
                },
                {
                    "name": "C4",
                    "midi": 60,
                    "time": 9.775276499999961,
                    "velocity": 1,
                    "duration": 0.16853925000000025
                },
                {
                    "name": "D4",
                    "midi": 62,
                    "time": 10.112354999999962,
                    "velocity": 1,
                    "duration": 1.348313999999979
                },
                {
                    "name": "C4",
                    "midi": 60,
                    "time": 42.80896949999993,
                    "velocity": 1,
                    "duration": 0.16853925000000203
                },
                {
                    "name": "E3",
                    "midi": 52,
                    "time": 42.80896949999993,
                    "velocity": 1,
                    "duration": 0.16853925000000203
                },
                {
                    "name": "F3",
                    "midi": 53,
                    "time": 43.14604799999994,
                    "velocity": 1,
                    "duration": 0.6741570000001502
                },
                {
                    "name": "F3",
                    "midi": 53,
                    "time": 44.157283500000084,
                    "velocity": 1,
                    "duration": 0.16853925000000203
                },
                {
                    "name": "C4",
                    "midi": 60,
                    "time": 44.49436200000009,
                    "velocity": 1,
                    "duration": 0.16853925000000203
                },
                {
                    "name": "A#3",
                    "midi": 58,
                    "time": 45.16851900000009,
                    "velocity": 1,
                    "duration": 0.5617974999999973
                },
                {
                    "name": "C4",
                    "midi": 60,
                    "time": 45.84267600000008,
                    "velocity": 1,
                    "duration": 0.16853925000000203
                },
                {
                    "name": "D4",
                    "midi": 62,
                    "time": 46.516833000000084,
                    "velocity": 1,
                    "duration": 0.5617974999999973
                },
                {
                    "name": "C4",
                    "midi": 60,
                    "time": 48.20222550000008,
                    "velocity": 1,
                    "duration": 0.16853925000000203
                },
                {
                    "name": "F3",
                    "midi": 53,
                    "time": 48.53930400000009,
                    "velocity": 1,
                    "duration": 0.6741570000001502
                },
                {
                    "name": "F3",
                    "midi": 53,
                    "time": 49.550539500000234,
                    "velocity": 1,
                    "duration": 0.16853925000000203
                },
                {
                    "name": "C4",
                    "midi": 60,
                    "time": 49.88761800000024,
                    "velocity": 1,
                    "duration": 0.16853925000000203
                },
                {
                    "name": "A#3",
                    "midi": 58,
                    "time": 50.56177500000024,
                    "velocity": 1,
                    "duration": 0.6741570000001502
                },
                {
                    "name": "C4",
                    "midi": 60,
                    "time": 51.23593200000039,
                    "velocity": 1,
                    "duration": 0.16853925000000203
                },
                {
                    "name": "C4",
                    "midi": 60,
                    "time": 51.57301050000039,
                    "velocity": 1,
                    "duration": 0.16853925000000203
                },
                {
                    "name": "D4",
                    "midi": 62,
                    "time": 51.9100890000004,
                    "velocity": 1,
                    "duration": 1.3483140000001583
                }
            ],
            "controlChanges": {
                "1": [
                    {
                        "number": 1,
                        "time": 1.3483139999999998,
                        "value": 0
                    },
                    {
                        "number": 1,
                        "time": 1.3623589374999998,
                        "value": 0.007874015748031496
                    },
                    {
                        "number": 1,
                        "time": 1.3764038749999998,
                        "value": 0.015748031496062992
                    },
                    {
                        "number": 1,
                        "time": 1.3904488124999999,
                        "value": 0.031496062992125984
                    },
                    {
                        "number": 1,
                        "time": 1.4044937499999999,
                        "value": 0.03937007874015748
                    },
                    {
                        "number": 1,
                        "time": 1.4185386875,
                        "value": 0.047244094488188976
                    },
                    {
                        "number": 1,
                        "time": 1.432583625,
                        "value": 0.06299212598425197
                    },
                    {
                        "number": 1,
                        "time": 1.4466285625,
                        "value": 0.07086614173228346
                    },
                    {
                        "number": 1,
                        "time": 1.4606735,
                        "value": 0.07874015748031496
                    },
                    {
                        "number": 1,
                        "time": 1.4747184375,
                        "value": 0.09448818897637795
                    },
                    {
                        "number": 1,
                        "time": 1.488763375,
                        "value": 0.10236220472440945
                    },
                    {
                        "number": 1,
                        "time": 1.5028083125,
                        "value": 0.11023622047244094
                    },
                    {
                        "number": 1,
                        "time": 1.51685325,
                        "value": 0.12598425196850394
                    },
                    {
                        "number": 1,
                        "time": 1.5308981875,
                        "value": 0.13385826771653545
                    },
                    {
                        "number": 1,
                        "time": 1.544943125,
                        "value": 0.14960629921259844
                    },
                    {
                        "number": 1,
                        "time": 1.5589880625,
                        "value": 0.15748031496062992
                    },
                    {
                        "number": 1,
                        "time": 1.5730330000000001,
                        "value": 0.16535433070866143
                    },
                    {
                        "number": 1,
                        "time": 1.5870779375000001,
                        "value": 0.18110236220472442
                    },
                    {
                        "number": 1,
                        "time": 1.6011228750000002,
                        "value": 0.1889763779527559
                    },
                    {
                        "number": 1,
                        "time": 1.6151678125000002,
                        "value": 0.1968503937007874
                    },
                    {
                        "number": 1,
                        "time": 1.6292127500000002,
                        "value": 0.2125984251968504
                    },
                    {
                        "number": 1,
                        "time": 1.6432576875000002,
                        "value": 0.2204724409448819
                    },
                    {
                        "number": 1,
                        "time": 1.6573026250000003,
                        "value": 0.2283464566929134
                    },
                    {
                        "number": 1,
                        "time": 1.6713475625000003,
                        "value": 0.2440944881889764
                    },
                    {
                        "number": 1,
                        "time": 1.6853925000000003,
                        "value": 0.25196850393700787
                    },
                    {
                        "number": 1,
                        "time": 1.6994374375000003,
                        "value": 0.2677165354330709
                    },
                    {
                        "number": 1,
                        "time": 1.7134823750000003,
                        "value": 0.2755905511811024
                    },
                    {
                        "number": 1,
                        "time": 1.7275273125000004,
                        "value": 0.28346456692913385
                    },
                    {
                        "number": 1,
                        "time": 1.7415722500000004,
                        "value": 0.2992125984251969
                    },
                    {
                        "number": 1,
                        "time": 1.7556171875000004,
                        "value": 0.30708661417322836
                    },
                    {
                        "number": 1,
                        "time": 1.7696621250000004,
                        "value": 0.31496062992125984
                    },
                    {
                        "number": 1,
                        "time": 1.7837070625000004,
                        "value": 0.33070866141732286
                    },
                    {
                        "number": 1,
                        "time": 1.7977520000000005,
                        "value": 0.33858267716535434
                    },
                    {
                        "number": 1,
                        "time": 1.8117969375000005,
                        "value": 0.3464566929133858
                    },
                    {
                        "number": 1,
                        "time": 1.8258418750000005,
                        "value": 0.36220472440944884
                    },
                    {
                        "number": 1,
                        "time": 1.8398868125000005,
                        "value": 0.3700787401574803
                    },
                    {
                        "number": 1,
                        "time": 1.8539317500000005,
                        "value": 0.3858267716535433
                    },
                    {
                        "number": 1,
                        "time": 1.8679766875000006,
                        "value": 0.3937007874015748
                    },
                    {
                        "number": 1,
                        "time": 1.8820216250000006,
                        "value": 0.4015748031496063
                    },
                    {
                        "number": 1,
                        "time": 1.8960665625000006,
                        "value": 0.41732283464566927
                    },
                    {
                        "number": 1,
                        "time": 1.9101115000000006,
                        "value": 0.4251968503937008
                    },
                    {
                        "number": 1,
                        "time": 1.9241564375000006,
                        "value": 0.4330708661417323
                    },
                    {
                        "number": 1,
                        "time": 1.9382013750000007,
                        "value": 0.44881889763779526
                    },
                    {
                        "number": 1,
                        "time": 1.9522463125000007,
                        "value": 0.4566929133858268
                    },
                    {
                        "number": 1,
                        "time": 1.9662912500000007,
                        "value": 0.4645669291338583
                    },
                    {
                        "number": 1,
                        "time": 1.9803361875000007,
                        "value": 0.48031496062992124
                    },
                    {
                        "number": 1,
                        "time": 1.9943811250000008,
                        "value": 0.4881889763779528
                    },
                    {
                        "number": 1,
                        "time": 2.0084260625000008,
                        "value": 0.5039370078740157
                    },
                    {
                        "number": 1,
                        "time": 2.359549500000001,
                        "value": 0
                    },
                    {
                        "number": 1,
                        "time": 6.74157,
                        "value": 0
                    },
                    {
                        "number": 1,
                        "time": 6.7556149375,
                        "value": 0.015748031496062992
                    },
                    {
                        "number": 1,
                        "time": 6.769659874999999,
                        "value": 0.031496062992125984
                    },
                    {
                        "number": 1,
                        "time": 6.783704812499999,
                        "value": 0.047244094488188976
                    },
                    {
                        "number": 1,
                        "time": 6.797749749999999,
                        "value": 0.06299212598425197
                    },
                    {
                        "number": 1,
                        "time": 6.811794687499998,
                        "value": 0.08661417322834646
                    },
                    {
                        "number": 1,
                        "time": 6.825839624999998,
                        "value": 0.10236220472440945
                    },
                    {
                        "number": 1,
                        "time": 6.839884562499997,
                        "value": 0.11811023622047244
                    },
                    {
                        "number": 1,
                        "time": 6.853929499999997,
                        "value": 0.13385826771653545
                    },
                    {
                        "number": 1,
                        "time": 6.8679744374999965,
                        "value": 0.14960629921259844
                    },
                    {
                        "number": 1,
                        "time": 6.882019374999996,
                        "value": 0.1732283464566929
                    },
                    {
                        "number": 1,
                        "time": 6.896064312499996,
                        "value": 0.1889763779527559
                    },
                    {
                        "number": 1,
                        "time": 6.910109249999995,
                        "value": 0.2047244094488189
                    },
                    {
                        "number": 1,
                        "time": 6.924154187499995,
                        "value": 0.2204724409448819
                    },
                    {
                        "number": 1,
                        "time": 6.938199124999994,
                        "value": 0.23622047244094488
                    },
                    {
                        "number": 1,
                        "time": 6.952244062499994,
                        "value": 0.25984251968503935
                    },
                    {
                        "number": 1,
                        "time": 6.9662889999999935,
                        "value": 0.2755905511811024
                    },
                    {
                        "number": 1,
                        "time": 6.980333937499993,
                        "value": 0.29133858267716534
                    },
                    {
                        "number": 1,
                        "time": 6.994378874999993,
                        "value": 0.30708661417322836
                    },
                    {
                        "number": 1,
                        "time": 7.008423812499992,
                        "value": 0.33070866141732286
                    },
                    {
                        "number": 1,
                        "time": 7.022468749999992,
                        "value": 0.3464566929133858
                    },
                    {
                        "number": 1,
                        "time": 7.036513687499991,
                        "value": 0.36220472440944884
                    },
                    {
                        "number": 1,
                        "time": 7.050558624999991,
                        "value": 0.3779527559055118
                    },
                    {
                        "number": 1,
                        "time": 7.0646035624999906,
                        "value": 0.3937007874015748
                    },
                    {
                        "number": 1,
                        "time": 7.07864849999999,
                        "value": 0.41732283464566927
                    },
                    {
                        "number": 1,
                        "time": 7.09269343749999,
                        "value": 0.4330708661417323
                    },
                    {
                        "number": 1,
                        "time": 7.106738374999989,
                        "value": 0.44881889763779526
                    },
                    {
                        "number": 1,
                        "time": 7.120783312499989,
                        "value": 0.4645669291338583
                    },
                    {
                        "number": 1,
                        "time": 7.134828249999988,
                        "value": 0.48031496062992124
                    },
                    {
                        "number": 1,
                        "time": 7.148873187499988,
                        "value": 0.5039370078740157
                    },
                    {
                        "number": 1,
                        "time": 7.162918124999988,
                        "value": 0.5196850393700787
                    },
                    {
                        "number": 1,
                        "time": 7.176963062499987,
                        "value": 0.5354330708661418
                    },
                    {
                        "number": 1,
                        "time": 7.191007999999987,
                        "value": 0.5511811023622047
                    },
                    {
                        "number": 1,
                        "time": 7.205052937499986,
                        "value": 0.5748031496062992
                    },
                    {
                        "number": 1,
                        "time": 7.219097874999986,
                        "value": 0.5905511811023622
                    },
                    {
                        "number": 1,
                        "time": 7.2331428124999855,
                        "value": 0.6062992125984252
                    },
                    {
                        "number": 1,
                        "time": 7.247187749999985,
                        "value": 0.6220472440944882
                    },
                    {
                        "number": 1,
                        "time": 7.261232687499985,
                        "value": 0.6377952755905512
                    },
                    {
                        "number": 1,
                        "time": 7.275277624999984,
                        "value": 0.6614173228346457
                    },
                    {
                        "number": 1,
                        "time": 7.289322562499984,
                        "value": 0.6771653543307087
                    },
                    {
                        "number": 1,
                        "time": 7.303367499999983,
                        "value": 0.6929133858267716
                    },
                    {
                        "number": 1,
                        "time": 7.317412437499983,
                        "value": 0.7086614173228346
                    },
                    {
                        "number": 1,
                        "time": 7.3314573749999825,
                        "value": 0.7244094488188977
                    },
                    {
                        "number": 1,
                        "time": 7.345502312499982,
                        "value": 0.7480314960629921
                    },
                    {
                        "number": 1,
                        "time": 7.359547249999982,
                        "value": 0.7637795275590551
                    },
                    {
                        "number": 1,
                        "time": 7.373592187499981,
                        "value": 0.7795275590551181
                    },
                    {
                        "number": 1,
                        "time": 7.387637124999981,
                        "value": 0.7952755905511811
                    },
                    {
                        "number": 1,
                        "time": 7.40168206249998,
                        "value": 0.8188976377952756
                    },
                    {
                        "number": 1,
                        "time": 7.41572699999998,
                        "value": 0
                    },
                    {
                        "number": 1,
                        "time": 8.764040999999981,
                        "value": 0
                    },
                    {
                        "number": 1,
                        "time": 8.77808593749998,
                        "value": 0.015748031496062992
                    },
                    {
                        "number": 1,
                        "time": 8.79213087499998,
                        "value": 0.031496062992125984
                    },
                    {
                        "number": 1,
                        "time": 8.80617581249998,
                        "value": 0.047244094488188976
                    },
                    {
                        "number": 1,
                        "time": 8.82022074999998,
                        "value": 0.06299212598425197
                    },
                    {
                        "number": 1,
                        "time": 8.834265687499979,
                        "value": 0.08661417322834646
                    },
                    {
                        "number": 1,
                        "time": 8.848310624999979,
                        "value": 0.10236220472440945
                    },
                    {
                        "number": 1,
                        "time": 8.862355562499978,
                        "value": 0.11811023622047244
                    },
                    {
                        "number": 1,
                        "time": 8.876400499999978,
                        "value": 0.13385826771653545
                    },
                    {
                        "number": 1,
                        "time": 8.890445437499977,
                        "value": 0.14960629921259844
                    },
                    {
                        "number": 1,
                        "time": 8.904490374999977,
                        "value": 0.1732283464566929
                    },
                    {
                        "number": 1,
                        "time": 8.918535312499976,
                        "value": 0.1889763779527559
                    },
                    {
                        "number": 1,
                        "time": 8.932580249999976,
                        "value": 0.2047244094488189
                    },
                    {
                        "number": 1,
                        "time": 8.946625187499976,
                        "value": 0.2204724409448819
                    },
                    {
                        "number": 1,
                        "time": 8.960670124999975,
                        "value": 0.23622047244094488
                    },
                    {
                        "number": 1,
                        "time": 8.974715062499975,
                        "value": 0.25984251968503935
                    },
                    {
                        "number": 1,
                        "time": 8.988759999999974,
                        "value": 0.2755905511811024
                    },
                    {
                        "number": 1,
                        "time": 9.002804937499974,
                        "value": 0.29133858267716534
                    },
                    {
                        "number": 1,
                        "time": 9.016849874999973,
                        "value": 0.30708661417322836
                    },
                    {
                        "number": 1,
                        "time": 9.030894812499973,
                        "value": 0.33070866141732286
                    },
                    {
                        "number": 1,
                        "time": 9.044939749999973,
                        "value": 0.3464566929133858
                    },
                    {
                        "number": 1,
                        "time": 9.058984687499972,
                        "value": 0.36220472440944884
                    },
                    {
                        "number": 1,
                        "time": 9.073029624999972,
                        "value": 0.3779527559055118
                    },
                    {
                        "number": 1,
                        "time": 9.087074562499971,
                        "value": 0.3937007874015748
                    },
                    {
                        "number": 1,
                        "time": 9.101119499999971,
                        "value": 0.41732283464566927
                    },
                    {
                        "number": 1,
                        "time": 9.11516443749997,
                        "value": 0.4330708661417323
                    },
                    {
                        "number": 1,
                        "time": 9.12920937499997,
                        "value": 0.44881889763779526
                    },
                    {
                        "number": 1,
                        "time": 9.14325431249997,
                        "value": 0.4645669291338583
                    },
                    {
                        "number": 1,
                        "time": 9.15729924999997,
                        "value": 0.48031496062992124
                    },
                    {
                        "number": 1,
                        "time": 9.171344187499969,
                        "value": 0.5039370078740157
                    },
                    {
                        "number": 1,
                        "time": 9.185389124999968,
                        "value": 0.5196850393700787
                    },
                    {
                        "number": 1,
                        "time": 9.199434062499968,
                        "value": 0.5354330708661418
                    },
                    {
                        "number": 1,
                        "time": 9.213478999999968,
                        "value": 0.5511811023622047
                    },
                    {
                        "number": 1,
                        "time": 9.227523937499967,
                        "value": 0.5748031496062992
                    },
                    {
                        "number": 1,
                        "time": 9.241568874999967,
                        "value": 0.5905511811023622
                    },
                    {
                        "number": 1,
                        "time": 9.255613812499966,
                        "value": 0.6062992125984252
                    },
                    {
                        "number": 1,
                        "time": 9.269658749999966,
                        "value": 0.6220472440944882
                    },
                    {
                        "number": 1,
                        "time": 9.283703687499965,
                        "value": 0.6377952755905512
                    },
                    {
                        "number": 1,
                        "time": 9.297748624999965,
                        "value": 0.6614173228346457
                    },
                    {
                        "number": 1,
                        "time": 9.311793562499965,
                        "value": 0.6771653543307087
                    },
                    {
                        "number": 1,
                        "time": 9.325838499999964,
                        "value": 0.6929133858267716
                    },
                    {
                        "number": 1,
                        "time": 9.339883437499964,
                        "value": 0.7086614173228346
                    },
                    {
                        "number": 1,
                        "time": 9.353928374999963,
                        "value": 0.7244094488188977
                    },
                    {
                        "number": 1,
                        "time": 9.367973312499963,
                        "value": 0.7480314960629921
                    },
                    {
                        "number": 1,
                        "time": 9.382018249999962,
                        "value": 0.7637795275590551
                    },
                    {
                        "number": 1,
                        "time": 9.396063187499962,
                        "value": 0.7795275590551181
                    },
                    {
                        "number": 1,
                        "time": 9.410108124999962,
                        "value": 0.7952755905511811
                    },
                    {
                        "number": 1,
                        "time": 9.424153062499961,
                        "value": 0.8188976377952756
                    },
                    {
                        "number": 1,
                        "time": 9.43819799999996,
                        "value": 0
                    },
                    {
                        "number": 1,
                        "time": 10.112354999999962,
                        "value": 0
                    },
                    {
                        "number": 1,
                        "time": 10.126399937499961,
                        "value": 0.015748031496062992
                    },
                    {
                        "number": 1,
                        "time": 10.140444874999961,
                        "value": 0.031496062992125984
                    },
                    {
                        "number": 1,
                        "time": 10.15448981249996,
                        "value": 0.047244094488188976
                    },
                    {
                        "number": 1,
                        "time": 10.16853474999996,
                        "value": 0.06299212598425197
                    },
                    {
                        "number": 1,
                        "time": 10.18257968749996,
                        "value": 0.07874015748031496
                    },
                    {
                        "number": 1,
                        "time": 10.19662462499996,
                        "value": 0.09448818897637795
                    },
                    {
                        "number": 1,
                        "time": 10.210669562499959,
                        "value": 0.11023622047244094
                    },
                    {
                        "number": 1,
                        "time": 10.224714499999958,
                        "value": 0.12598425196850394
                    },
                    {
                        "number": 1,
                        "time": 10.238759437499958,
                        "value": 0.14173228346456693
                    },
                    {
                        "number": 1,
                        "time": 10.252804374999958,
                        "value": 0.15748031496062992
                    },
                    {
                        "number": 1,
                        "time": 10.266849312499957,
                        "value": 0.1732283464566929
                    },
                    {
                        "number": 1,
                        "time": 10.280894249999957,
                        "value": 0.1889763779527559
                    },
                    {
                        "number": 1,
                        "time": 10.294939187499956,
                        "value": 0.2125984251968504
                    },
                    {
                        "number": 1,
                        "time": 10.308984124999956,
                        "value": 0.2283464566929134
                    },
                    {
                        "number": 1,
                        "time": 10.323029062499955,
                        "value": 0.2440944881889764
                    },
                    {
                        "number": 1,
                        "time": 10.337073999999955,
                        "value": 0.25984251968503935
                    },
                    {
                        "number": 1,
                        "time": 10.351118937499955,
                        "value": 0.2755905511811024
                    },
                    {
                        "number": 1,
                        "time": 10.365163874999954,
                        "value": 0.29133858267716534
                    },
                    {
                        "number": 1,
                        "time": 10.379208812499954,
                        "value": 0.30708661417322836
                    },
                    {
                        "number": 1,
                        "time": 10.393253749999953,
                        "value": 0.3228346456692913
                    },
                    {
                        "number": 1,
                        "time": 10.407298687499953,
                        "value": 0.33858267716535434
                    },
                    {
                        "number": 1,
                        "time": 10.421343624999952,
                        "value": 0.3543307086614173
                    },
                    {
                        "number": 1,
                        "time": 10.435388562499952,
                        "value": 0.3700787401574803
                    },
                    {
                        "number": 1,
                        "time": 10.449433499999952,
                        "value": 0.3858267716535433
                    },
                    {
                        "number": 1,
                        "time": 10.463478437499951,
                        "value": 0.4094488188976378
                    },
                    {
                        "number": 1,
                        "time": 10.47752337499995,
                        "value": 0.4251968503937008
                    },
                    {
                        "number": 1,
                        "time": 10.49156831249995,
                        "value": 0.4409448818897638
                    },
                    {
                        "number": 1,
                        "time": 10.50561324999995,
                        "value": 0.4566929133858268
                    },
                    {
                        "number": 1,
                        "time": 10.51965818749995,
                        "value": 0.47244094488188976
                    },
                    {
                        "number": 1,
                        "time": 10.533703124999949,
                        "value": 0.4881889763779528
                    },
                    {
                        "number": 1,
                        "time": 10.547748062499949,
                        "value": 0.5039370078740157
                    },
                    {
                        "number": 1,
                        "time": 10.561792999999948,
                        "value": 0.5196850393700787
                    },
                    {
                        "number": 1,
                        "time": 10.575837937499948,
                        "value": 0.5354330708661418
                    },
                    {
                        "number": 1,
                        "time": 10.589882874999947,
                        "value": 0.5511811023622047
                    },
                    {
                        "number": 1,
                        "time": 10.603927812499947,
                        "value": 0.5669291338582677
                    },
                    {
                        "number": 1,
                        "time": 10.617972749999947,
                        "value": 0.5826771653543307
                    },
                    {
                        "number": 1,
                        "time": 10.632017687499946,
                        "value": 0.5984251968503937
                    },
                    {
                        "number": 1,
                        "time": 10.646062624999946,
                        "value": 0.6220472440944882
                    },
                    {
                        "number": 1,
                        "time": 10.660107562499945,
                        "value": 0.6377952755905512
                    },
                    {
                        "number": 1,
                        "time": 10.674152499999945,
                        "value": 0.6535433070866141
                    },
                    {
                        "number": 1,
                        "time": 10.688197437499944,
                        "value": 0.6692913385826772
                    },
                    {
                        "number": 1,
                        "time": 10.702242374999944,
                        "value": 0.6850393700787402
                    },
                    {
                        "number": 1,
                        "time": 10.716287312499944,
                        "value": 0.7007874015748031
                    },
                    {
                        "number": 1,
                        "time": 10.730332249999943,
                        "value": 0.7165354330708661
                    },
                    {
                        "number": 1,
                        "time": 10.744377187499943,
                        "value": 0.7322834645669292
                    },
                    {
                        "number": 1,
                        "time": 10.758422124999942,
                        "value": 0.7480314960629921
                    },
                    {
                        "number": 1,
                        "time": 10.772467062499942,
                        "value": 0.7637795275590551
                    },
                    {
                        "number": 1,
                        "time": 10.786511999999941,
                        "value": 0.7795275590551181
                    },
                    {
                        "number": 1,
                        "time": 10.800556937499941,
                        "value": 0.7952755905511811
                    },
                    {
                        "number": 1,
                        "time": 10.81460187499994,
                        "value": 0.8188976377952756
                    },
                    {
                        "number": 1,
                        "time": 12.13482599999994,
                        "value": 0
                    },
                    {
                        "number": 1,
                        "time": 43.14604799999994,
                        "value": 0
                    },
                    {
                        "number": 1,
                        "time": 43.16009293749994,
                        "value": 0.007874015748031496
                    },
                    {
                        "number": 1,
                        "time": 43.17413787499994,
                        "value": 0.015748031496062992
                    },
                    {
                        "number": 1,
                        "time": 43.188182812499946,
                        "value": 0.031496062992125984
                    },
                    {
                        "number": 1,
                        "time": 43.20222774999995,
                        "value": 0.03937007874015748
                    },
                    {
                        "number": 1,
                        "time": 43.21627268749995,
                        "value": 0.047244094488188976
                    },
                    {
                        "number": 1,
                        "time": 43.230317624999955,
                        "value": 0.06299212598425197
                    },
                    {
                        "number": 1,
                        "time": 43.24436256249996,
                        "value": 0.07086614173228346
                    },
                    {
                        "number": 1,
                        "time": 43.25840749999996,
                        "value": 0.07874015748031496
                    },
                    {
                        "number": 1,
                        "time": 43.272452437499965,
                        "value": 0.09448818897637795
                    },
                    {
                        "number": 1,
                        "time": 43.28649737499997,
                        "value": 0.10236220472440945
                    },
                    {
                        "number": 1,
                        "time": 43.30054231249997,
                        "value": 0.11023622047244094
                    },
                    {
                        "number": 1,
                        "time": 43.314587249999974,
                        "value": 0.12598425196850394
                    },
                    {
                        "number": 1,
                        "time": 43.32863218749998,
                        "value": 0.13385826771653545
                    },
                    {
                        "number": 1,
                        "time": 43.34267712499998,
                        "value": 0.14960629921259844
                    },
                    {
                        "number": 1,
                        "time": 43.35672206249998,
                        "value": 0.15748031496062992
                    },
                    {
                        "number": 1,
                        "time": 43.37076699999999,
                        "value": 0.16535433070866143
                    },
                    {
                        "number": 1,
                        "time": 43.38481193749999,
                        "value": 0.18110236220472442
                    },
                    {
                        "number": 1,
                        "time": 43.39885687499999,
                        "value": 0.1889763779527559
                    },
                    {
                        "number": 1,
                        "time": 43.412901812499996,
                        "value": 0.1968503937007874
                    },
                    {
                        "number": 1,
                        "time": 43.42694675,
                        "value": 0.2125984251968504
                    },
                    {
                        "number": 1,
                        "time": 43.4409916875,
                        "value": 0.2204724409448819
                    },
                    {
                        "number": 1,
                        "time": 43.455036625000005,
                        "value": 0.2283464566929134
                    },
                    {
                        "number": 1,
                        "time": 43.46908156250001,
                        "value": 0.2440944881889764
                    },
                    {
                        "number": 1,
                        "time": 43.48312650000001,
                        "value": 0.25196850393700787
                    },
                    {
                        "number": 1,
                        "time": 43.497171437500015,
                        "value": 0.2677165354330709
                    },
                    {
                        "number": 1,
                        "time": 43.51121637500002,
                        "value": 0.2755905511811024
                    },
                    {
                        "number": 1,
                        "time": 43.52526131250002,
                        "value": 0.28346456692913385
                    },
                    {
                        "number": 1,
                        "time": 43.539306250000024,
                        "value": 0.2992125984251969
                    },
                    {
                        "number": 1,
                        "time": 43.55335118750003,
                        "value": 0.30708661417322836
                    },
                    {
                        "number": 1,
                        "time": 43.56739612500003,
                        "value": 0.31496062992125984
                    },
                    {
                        "number": 1,
                        "time": 43.58144106250003,
                        "value": 0.33070866141732286
                    },
                    {
                        "number": 1,
                        "time": 43.59548600000004,
                        "value": 0.33858267716535434
                    },
                    {
                        "number": 1,
                        "time": 43.60953093750004,
                        "value": 0.3464566929133858
                    },
                    {
                        "number": 1,
                        "time": 43.62357587500004,
                        "value": 0.36220472440944884
                    },
                    {
                        "number": 1,
                        "time": 43.637620812500046,
                        "value": 0.3700787401574803
                    },
                    {
                        "number": 1,
                        "time": 43.65166575000005,
                        "value": 0.3858267716535433
                    },
                    {
                        "number": 1,
                        "time": 43.66571068750005,
                        "value": 0.3937007874015748
                    },
                    {
                        "number": 1,
                        "time": 43.679755625000055,
                        "value": 0.4015748031496063
                    },
                    {
                        "number": 1,
                        "time": 43.69380056250006,
                        "value": 0.41732283464566927
                    },
                    {
                        "number": 1,
                        "time": 43.70784550000006,
                        "value": 0.4251968503937008
                    },
                    {
                        "number": 1,
                        "time": 43.721890437500065,
                        "value": 0.4330708661417323
                    },
                    {
                        "number": 1,
                        "time": 43.73593537500007,
                        "value": 0.44881889763779526
                    },
                    {
                        "number": 1,
                        "time": 43.74998031250007,
                        "value": 0.4566929133858268
                    },
                    {
                        "number": 1,
                        "time": 43.764025250000074,
                        "value": 0.4645669291338583
                    },
                    {
                        "number": 1,
                        "time": 43.77807018750008,
                        "value": 0.48031496062992124
                    },
                    {
                        "number": 1,
                        "time": 43.79211512500008,
                        "value": 0.4881889763779528
                    },
                    {
                        "number": 1,
                        "time": 43.80616006250008,
                        "value": 0.5039370078740157
                    },
                    {
                        "number": 1,
                        "time": 44.157283500000084,
                        "value": 0
                    },
                    {
                        "number": 1,
                        "time": 48.53930400000009,
                        "value": 0
                    },
                    {
                        "number": 1,
                        "time": 48.55334893750009,
                        "value": 0.015748031496062992
                    },
                    {
                        "number": 1,
                        "time": 48.56739387500009,
                        "value": 0.031496062992125984
                    },
                    {
                        "number": 1,
                        "time": 48.581438812500096,
                        "value": 0.047244094488188976
                    },
                    {
                        "number": 1,
                        "time": 48.5954837500001,
                        "value": 0.06299212598425197
                    },
                    {
                        "number": 1,
                        "time": 48.6095286875001,
                        "value": 0.08661417322834646
                    },
                    {
                        "number": 1,
                        "time": 48.623573625000105,
                        "value": 0.10236220472440945
                    },
                    {
                        "number": 1,
                        "time": 48.63761856250011,
                        "value": 0.11811023622047244
                    },
                    {
                        "number": 1,
                        "time": 48.65166350000011,
                        "value": 0.13385826771653545
                    },
                    {
                        "number": 1,
                        "time": 48.665708437500115,
                        "value": 0.14960629921259844
                    },
                    {
                        "number": 1,
                        "time": 48.67975337500012,
                        "value": 0.1732283464566929
                    },
                    {
                        "number": 1,
                        "time": 48.69379831250012,
                        "value": 0.1889763779527559
                    },
                    {
                        "number": 1,
                        "time": 48.707843250000124,
                        "value": 0.2047244094488189
                    },
                    {
                        "number": 1,
                        "time": 48.72188818750013,
                        "value": 0.2204724409448819
                    },
                    {
                        "number": 1,
                        "time": 48.73593312500013,
                        "value": 0.23622047244094488
                    },
                    {
                        "number": 1,
                        "time": 48.74997806250013,
                        "value": 0.25984251968503935
                    },
                    {
                        "number": 1,
                        "time": 48.76402300000014,
                        "value": 0.2755905511811024
                    },
                    {
                        "number": 1,
                        "time": 48.77806793750014,
                        "value": 0.29133858267716534
                    },
                    {
                        "number": 1,
                        "time": 48.79211287500014,
                        "value": 0.30708661417322836
                    },
                    {
                        "number": 1,
                        "time": 48.806157812500146,
                        "value": 0.33070866141732286
                    },
                    {
                        "number": 1,
                        "time": 48.82020275000015,
                        "value": 0.3464566929133858
                    },
                    {
                        "number": 1,
                        "time": 48.83424768750015,
                        "value": 0.36220472440944884
                    },
                    {
                        "number": 1,
                        "time": 48.848292625000155,
                        "value": 0.3779527559055118
                    },
                    {
                        "number": 1,
                        "time": 48.86233756250016,
                        "value": 0.3937007874015748
                    },
                    {
                        "number": 1,
                        "time": 48.87638250000016,
                        "value": 0.41732283464566927
                    },
                    {
                        "number": 1,
                        "time": 48.890427437500165,
                        "value": 0.4330708661417323
                    },
                    {
                        "number": 1,
                        "time": 48.90447237500017,
                        "value": 0.44881889763779526
                    },
                    {
                        "number": 1,
                        "time": 48.91851731250017,
                        "value": 0.4645669291338583
                    },
                    {
                        "number": 1,
                        "time": 48.932562250000174,
                        "value": 0.48031496062992124
                    },
                    {
                        "number": 1,
                        "time": 48.94660718750018,
                        "value": 0.5039370078740157
                    },
                    {
                        "number": 1,
                        "time": 48.96065212500018,
                        "value": 0.5196850393700787
                    },
                    {
                        "number": 1,
                        "time": 48.974697062500184,
                        "value": 0.5354330708661418
                    },
                    {
                        "number": 1,
                        "time": 48.98874200000019,
                        "value": 0.5511811023622047
                    },
                    {
                        "number": 1,
                        "time": 49.00278693750019,
                        "value": 0.5748031496062992
                    },
                    {
                        "number": 1,
                        "time": 49.01683187500019,
                        "value": 0.5905511811023622
                    },
                    {
                        "number": 1,
                        "time": 49.030876812500196,
                        "value": 0.6062992125984252
                    },
                    {
                        "number": 1,
                        "time": 49.0449217500002,
                        "value": 0.6220472440944882
                    },
                    {
                        "number": 1,
                        "time": 49.0589666875002,
                        "value": 0.6377952755905512
                    },
                    {
                        "number": 1,
                        "time": 49.073011625000206,
                        "value": 0.6614173228346457
                    },
                    {
                        "number": 1,
                        "time": 49.08705656250021,
                        "value": 0.6771653543307087
                    },
                    {
                        "number": 1,
                        "time": 49.10110150000021,
                        "value": 0.6929133858267716
                    },
                    {
                        "number": 1,
                        "time": 49.115146437500215,
                        "value": 0.7086614173228346
                    },
                    {
                        "number": 1,
                        "time": 49.12919137500022,
                        "value": 0.7244094488188977
                    },
                    {
                        "number": 1,
                        "time": 49.14323631250022,
                        "value": 0.7480314960629921
                    },
                    {
                        "number": 1,
                        "time": 49.157281250000224,
                        "value": 0.7637795275590551
                    },
                    {
                        "number": 1,
                        "time": 49.17132618750023,
                        "value": 0.7795275590551181
                    },
                    {
                        "number": 1,
                        "time": 49.18537112500023,
                        "value": 0.7952755905511811
                    },
                    {
                        "number": 1,
                        "time": 49.199416062500234,
                        "value": 0.8188976377952756
                    },
                    {
                        "number": 1,
                        "time": 49.21346100000024,
                        "value": 0
                    },
                    {
                        "number": 1,
                        "time": 50.56177500000024,
                        "value": 0
                    },
                    {
                        "number": 1,
                        "time": 50.57581993750024,
                        "value": 0.015748031496062992
                    },
                    {
                        "number": 1,
                        "time": 50.589864875000245,
                        "value": 0.031496062992125984
                    },
                    {
                        "number": 1,
                        "time": 50.60390981250025,
                        "value": 0.047244094488188976
                    },
                    {
                        "number": 1,
                        "time": 50.61795475000025,
                        "value": 0.06299212598425197
                    },
                    {
                        "number": 1,
                        "time": 50.631999687500254,
                        "value": 0.08661417322834646
                    },
                    {
                        "number": 1,
                        "time": 50.64604462500026,
                        "value": 0.10236220472440945
                    },
                    {
                        "number": 1,
                        "time": 50.66008956250026,
                        "value": 0.11811023622047244
                    },
                    {
                        "number": 1,
                        "time": 50.674134500000264,
                        "value": 0.13385826771653545
                    },
                    {
                        "number": 1,
                        "time": 50.68817943750027,
                        "value": 0.14960629921259844
                    },
                    {
                        "number": 1,
                        "time": 50.70222437500027,
                        "value": 0.1732283464566929
                    },
                    {
                        "number": 1,
                        "time": 50.71626931250027,
                        "value": 0.1889763779527559
                    },
                    {
                        "number": 1,
                        "time": 50.730314250000276,
                        "value": 0.2047244094488189
                    },
                    {
                        "number": 1,
                        "time": 50.74435918750028,
                        "value": 0.2204724409448819
                    },
                    {
                        "number": 1,
                        "time": 50.75840412500028,
                        "value": 0.23622047244094488
                    },
                    {
                        "number": 1,
                        "time": 50.772449062500286,
                        "value": 0.25984251968503935
                    },
                    {
                        "number": 1,
                        "time": 50.78649400000029,
                        "value": 0.2755905511811024
                    },
                    {
                        "number": 1,
                        "time": 50.80053893750029,
                        "value": 0.29133858267716534
                    },
                    {
                        "number": 1,
                        "time": 50.814583875000295,
                        "value": 0.30708661417322836
                    },
                    {
                        "number": 1,
                        "time": 50.8286288125003,
                        "value": 0.33070866141732286
                    },
                    {
                        "number": 1,
                        "time": 50.8426737500003,
                        "value": 0.3464566929133858
                    },
                    {
                        "number": 1,
                        "time": 50.856718687500305,
                        "value": 0.36220472440944884
                    },
                    {
                        "number": 1,
                        "time": 50.87076362500031,
                        "value": 0.3779527559055118
                    },
                    {
                        "number": 1,
                        "time": 50.88480856250031,
                        "value": 0.3937007874015748
                    },
                    {
                        "number": 1,
                        "time": 50.898853500000314,
                        "value": 0.41732283464566927
                    },
                    {
                        "number": 1,
                        "time": 50.91289843750032,
                        "value": 0.4330708661417323
                    },
                    {
                        "number": 1,
                        "time": 50.92694337500032,
                        "value": 0.44881889763779526
                    },
                    {
                        "number": 1,
                        "time": 50.94098831250032,
                        "value": 0.4645669291338583
                    },
                    {
                        "number": 1,
                        "time": 50.95503325000033,
                        "value": 0.48031496062992124
                    },
                    {
                        "number": 1,
                        "time": 50.96907818750033,
                        "value": 0.5039370078740157
                    },
                    {
                        "number": 1,
                        "time": 50.98312312500033,
                        "value": 0.5196850393700787
                    },
                    {
                        "number": 1,
                        "time": 50.997168062500336,
                        "value": 0.5354330708661418
                    },
                    {
                        "number": 1,
                        "time": 51.01121300000034,
                        "value": 0.5511811023622047
                    },
                    {
                        "number": 1,
                        "time": 51.02525793750034,
                        "value": 0.5748031496062992
                    },
                    {
                        "number": 1,
                        "time": 51.039302875000345,
                        "value": 0.5905511811023622
                    },
                    {
                        "number": 1,
                        "time": 51.05334781250035,
                        "value": 0.6062992125984252
                    },
                    {
                        "number": 1,
                        "time": 51.06739275000035,
                        "value": 0.6220472440944882
                    },
                    {
                        "number": 1,
                        "time": 51.081437687500355,
                        "value": 0.6377952755905512
                    },
                    {
                        "number": 1,
                        "time": 51.09548262500036,
                        "value": 0.6614173228346457
                    },
                    {
                        "number": 1,
                        "time": 51.10952756250036,
                        "value": 0.6771653543307087
                    },
                    {
                        "number": 1,
                        "time": 51.123572500000364,
                        "value": 0.6929133858267716
                    },
                    {
                        "number": 1,
                        "time": 51.13761743750037,
                        "value": 0.7086614173228346
                    },
                    {
                        "number": 1,
                        "time": 51.15166237500037,
                        "value": 0.7244094488188977
                    },
                    {
                        "number": 1,
                        "time": 51.16570731250037,
                        "value": 0.7480314960629921
                    },
                    {
                        "number": 1,
                        "time": 51.17975225000038,
                        "value": 0.7637795275590551
                    },
                    {
                        "number": 1,
                        "time": 51.19379718750038,
                        "value": 0.7795275590551181
                    },
                    {
                        "number": 1,
                        "time": 51.20784212500038,
                        "value": 0.7952755905511811
                    },
                    {
                        "number": 1,
                        "time": 51.221887062500386,
                        "value": 0.8188976377952756
                    },
                    {
                        "number": 1,
                        "time": 51.23593200000039,
                        "value": 0
                    },
                    {
                        "number": 1,
                        "time": 51.9100890000004,
                        "value": 0
                    },
                    {
                        "number": 1,
                        "time": 51.9241339375004,
                        "value": 0.015748031496062992
                    },
                    {
                        "number": 1,
                        "time": 51.9381788750004,
                        "value": 0.031496062992125984
                    },
                    {
                        "number": 1,
                        "time": 51.95222381250041,
                        "value": 0.047244094488188976
                    },
                    {
                        "number": 1,
                        "time": 51.96626875000041,
                        "value": 0.06299212598425197
                    },
                    {
                        "number": 1,
                        "time": 51.98031368750041,
                        "value": 0.07874015748031496
                    },
                    {
                        "number": 1,
                        "time": 51.994358625000416,
                        "value": 0.09448818897637795
                    },
                    {
                        "number": 1,
                        "time": 52.00840356250042,
                        "value": 0.11023622047244094
                    },
                    {
                        "number": 1,
                        "time": 52.02244850000042,
                        "value": 0.12598425196850394
                    },
                    {
                        "number": 1,
                        "time": 52.036493437500425,
                        "value": 0.14173228346456693
                    },
                    {
                        "number": 1,
                        "time": 52.05053837500043,
                        "value": 0.15748031496062992
                    },
                    {
                        "number": 1,
                        "time": 52.06458331250043,
                        "value": 0.1732283464566929
                    },
                    {
                        "number": 1,
                        "time": 52.078628250000435,
                        "value": 0.1889763779527559
                    },
                    {
                        "number": 1,
                        "time": 52.09267318750044,
                        "value": 0.2125984251968504
                    },
                    {
                        "number": 1,
                        "time": 52.10671812500044,
                        "value": 0.2283464566929134
                    },
                    {
                        "number": 1,
                        "time": 52.120763062500444,
                        "value": 0.2440944881889764
                    },
                    {
                        "number": 1,
                        "time": 52.13480800000045,
                        "value": 0.25984251968503935
                    },
                    {
                        "number": 1,
                        "time": 52.14885293750045,
                        "value": 0.2755905511811024
                    },
                    {
                        "number": 1,
                        "time": 52.16289787500045,
                        "value": 0.29133858267716534
                    },
                    {
                        "number": 1,
                        "time": 52.17694281250046,
                        "value": 0.30708661417322836
                    },
                    {
                        "number": 1,
                        "time": 52.19098775000046,
                        "value": 0.3228346456692913
                    },
                    {
                        "number": 1,
                        "time": 52.20503268750046,
                        "value": 0.33858267716535434
                    },
                    {
                        "number": 1,
                        "time": 52.219077625000466,
                        "value": 0.3543307086614173
                    },
                    {
                        "number": 1,
                        "time": 52.23312256250047,
                        "value": 0.3700787401574803
                    },
                    {
                        "number": 1,
                        "time": 52.24716750000047,
                        "value": 0.3858267716535433
                    },
                    {
                        "number": 1,
                        "time": 52.261212437500475,
                        "value": 0.4094488188976378
                    },
                    {
                        "number": 1,
                        "time": 52.27525737500048,
                        "value": 0.4251968503937008
                    },
                    {
                        "number": 1,
                        "time": 52.28930231250048,
                        "value": 0.4409448818897638
                    },
                    {
                        "number": 1,
                        "time": 52.303347250000485,
                        "value": 0.4566929133858268
                    },
                    {
                        "number": 1,
                        "time": 52.31739218750049,
                        "value": 0.47244094488188976
                    },
                    {
                        "number": 1,
                        "time": 52.33143712500049,
                        "value": 0.4881889763779528
                    },
                    {
                        "number": 1,
                        "time": 52.345482062500494,
                        "value": 0.5039370078740157
                    },
                    {
                        "number": 1,
                        "time": 52.3595270000005,
                        "value": 0.5196850393700787
                    },
                    {
                        "number": 1,
                        "time": 52.3735719375005,
                        "value": 0.5354330708661418
                    },
                    {
                        "number": 1,
                        "time": 52.387616875000504,
                        "value": 0.5511811023622047
                    },
                    {
                        "number": 1,
                        "time": 52.40166181250051,
                        "value": 0.5669291338582677
                    },
                    {
                        "number": 1,
                        "time": 52.41570675000051,
                        "value": 0.5826771653543307
                    },
                    {
                        "number": 1,
                        "time": 52.42975168750051,
                        "value": 0.5984251968503937
                    },
                    {
                        "number": 1,
                        "time": 52.443796625000516,
                        "value": 0.6220472440944882
                    },
                    {
                        "number": 1,
                        "time": 52.45784156250052,
                        "value": 0.6377952755905512
                    },
                    {
                        "number": 1,
                        "time": 52.47188650000052,
                        "value": 0.6535433070866141
                    },
                    {
                        "number": 1,
                        "time": 52.485931437500525,
                        "value": 0.6692913385826772
                    },
                    {
                        "number": 1,
                        "time": 52.49997637500053,
                        "value": 0.6850393700787402
                    },
                    {
                        "number": 1,
                        "time": 52.51402131250053,
                        "value": 0.7007874015748031
                    },
                    {
                        "number": 1,
                        "time": 52.528066250000535,
                        "value": 0.7165354330708661
                    },
                    {
                        "number": 1,
                        "time": 52.54211118750054,
                        "value": 0.7322834645669292
                    },
                    {
                        "number": 1,
                        "time": 52.55615612500054,
                        "value": 0.7480314960629921
                    },
                    {
                        "number": 1,
                        "time": 52.570201062500544,
                        "value": 0.7637795275590551
                    },
                    {
                        "number": 1,
                        "time": 52.58424600000055,
                        "value": 0.7795275590551181
                    },
                    {
                        "number": 1,
                        "time": 52.59829093750055,
                        "value": 0.7952755905511811
                    },
                    {
                        "number": 1,
                        "time": 52.612335875000554,
                        "value": 0.8188976377952756
                    },
                    {
                        "number": 1,
                        "time": 53.93256000000056,
                        "value": 0
                    }
                ]
            },
            "id": 2,
            "name": "genesisx@c-com.net",
            "instrumentNumber": 18,
            "instrument": "rock organ",
            "instrumentFamily": "organ",
            "channelNumber": 1,
            "isPercussion": false
        },
        {
            "startTime": 11.797747499999998,
            "duration": 83.55333318749997,
            "length": 326,
            "notes": [
                {
                    "name": "D4",
                    "midi": 62,
                    "time": 11.797747499999998,
                    "velocity": 0.6299212598425197,
                    "duration": 0.11235950000000017
                },
                {
                    "name": "D5",
                    "midi": 74,
                    "time": 11.797747499999998,
                    "velocity": 0.8267716535433071,
                    "duration": 0.11235950000000017
                },
                {
                    "name": "C#4",
                    "midi": 61,
                    "time": 11.966286749999998,
                    "velocity": 0.6299212598425197,
                    "duration": 0.11235950000000017
                },
                {
                    "name": "C#5",
                    "midi": 73,
                    "time": 11.966286749999998,
                    "velocity": 0.8267716535433071,
                    "duration": 0.11235950000000017
                },
                {
                    "name": "D4",
                    "midi": 62,
                    "time": 12.134825999999999,
                    "velocity": 0.6299212598425197,
                    "duration": 0.11235950000000017
                },
                {
                    "name": "D5",
                    "midi": 74,
                    "time": 12.134825999999999,
                    "velocity": 0.8267716535433071,
                    "duration": 0.11235950000000017
                },
                {
                    "name": "A3",
                    "midi": 57,
                    "time": 12.471904499999999,
                    "velocity": 0.6299212598425197,
                    "duration": 0.11235950000000017
                },
                {
                    "name": "A4",
                    "midi": 69,
                    "time": 12.471904499999999,
                    "velocity": 0.8267716535433071,
                    "duration": 0.11235950000000017
                },
                {
                    "name": "G#3",
                    "midi": 56,
                    "time": 12.64044375,
                    "velocity": 0.6299212598425197,
                    "duration": 0.11235950000000017
                },
                {
                    "name": "G#4",
                    "midi": 68,
                    "time": 12.64044375,
                    "velocity": 0.8267716535433071,
                    "duration": 0.11235950000000017
                },
                {
                    "name": "A3",
                    "midi": 57,
                    "time": 12.808983,
                    "velocity": 0.6299212598425197,
                    "duration": 0.11235950000000017
                },
                {
                    "name": "A4",
                    "midi": 69,
                    "time": 12.808983,
                    "velocity": 0.8267716535433071,
                    "duration": 0.11235950000000017
                },
                {
                    "name": "F3",
                    "midi": 53,
                    "time": 13.1460615,
                    "velocity": 0.6299212598425197,
                    "duration": 0.11235950000000017
                },
                {
                    "name": "F4",
                    "midi": 65,
                    "time": 13.1460615,
                    "velocity": 0.8267716535433071,
                    "duration": 0.11235950000000017
                },
                {
                    "name": "E3",
                    "midi": 52,
                    "time": 13.31460075,
                    "velocity": 0.6299212598425197,
                    "duration": 0.11235950000000017
                },
                {
                    "name": "E4",
                    "midi": 64,
                    "time": 13.31460075,
                    "velocity": 0.8267716535433071,
                    "duration": 0.11235950000000017
                },
                {
                    "name": "F3",
                    "midi": 53,
                    "time": 13.48314,
                    "velocity": 0.6299212598425197,
                    "duration": 0.11235950000000017
                },
                {
                    "name": "F4",
                    "midi": 65,
                    "time": 13.48314,
                    "velocity": 0.8267716535433071,
                    "duration": 0.11235950000000017
                },
                {
                    "name": "D3",
                    "midi": 50,
                    "time": 13.820218500000001,
                    "velocity": 0.6299212598425197,
                    "duration": 0.11235950000000017
                },
                {
                    "name": "D4",
                    "midi": 62,
                    "time": 13.820218500000001,
                    "velocity": 0.8267716535433071,
                    "duration": 0.11235950000000017
                },
                {
                    "name": "C#3",
                    "midi": 49,
                    "time": 13.988757750000001,
                    "velocity": 0.6299212598425197,
                    "duration": 0.11235950000000017
                },
                {
                    "name": "C#4",
                    "midi": 61,
                    "time": 13.988757750000001,
                    "velocity": 0.8267716535433071,
                    "duration": 0.11235950000000017
                },
                {
                    "name": "D3",
                    "midi": 50,
                    "time": 14.157297000000002,
                    "velocity": 0.6299212598425197,
                    "duration": 0.11235950000000017
                },
                {
                    "name": "D4",
                    "midi": 62,
                    "time": 14.157297000000002,
                    "velocity": 0.8267716535433071,
                    "duration": 0.11235950000000017
                },
                {
                    "name": "D4",
                    "midi": 62,
                    "time": 14.831454,
                    "velocity": 0.7716535433070866,
                    "duration": 0.14044937499999932
                },
                {
                    "name": "A3",
                    "midi": 57,
                    "time": 14.99999325,
                    "velocity": 0.7716535433070866,
                    "duration": 0.14044937499999932
                },
                {
                    "name": "D4",
                    "midi": 62,
                    "time": 15.168532499999998,
                    "velocity": 0.7716535433070866,
                    "duration": 0.14044937499999932
                },
                {
                    "name": "F4",
                    "midi": 65,
                    "time": 15.337071749999996,
                    "velocity": 0.7716535433070866,
                    "duration": 0.14044937499999932
                },
                {
                    "name": "A4",
                    "midi": 69,
                    "time": 15.505610999999995,
                    "velocity": 0.7716535433070866,
                    "duration": 0.14044937499999932
                },
                {
                    "name": "A3",
                    "midi": 57,
                    "time": 15.674150249999993,
                    "velocity": 0.7716535433070866,
                    "duration": 0.14044937499999932
                },
                {
                    "name": "F4",
                    "midi": 65,
                    "time": 15.842689499999992,
                    "velocity": 0.7716535433070866,
                    "duration": 0.14044937499999932
                },
                {
                    "name": "A3",
                    "midi": 57,
                    "time": 16.01122874999999,
                    "velocity": 0.7716535433070866,
                    "duration": 0.14044937499999932
                },
                {
                    "name": "G4",
                    "midi": 67,
                    "time": 16.17976799999999,
                    "velocity": 0.7716535433070866,
                    "duration": 0.14044937499999932
                },
                {
                    "name": "A3",
                    "midi": 57,
                    "time": 16.348307249999987,
                    "velocity": 0.7716535433070866,
                    "duration": 0.14044937499999932
                },
                {
                    "name": "C#4",
                    "midi": 61,
                    "time": 16.516846499999986,
                    "velocity": 0.7716535433070866,
                    "duration": 0.14044937499999932
                },
                {
                    "name": "E4",
                    "midi": 64,
                    "time": 16.516846499999986,
                    "velocity": 0.7716535433070866,
                    "duration": 0.14044937499999932
                },
                {
                    "name": "A3",
                    "midi": 57,
                    "time": 16.685385749999984,
                    "velocity": 0.7716535433070866,
                    "duration": 0.14044937499999932
                },
                {
                    "name": "G4",
                    "midi": 67,
                    "time": 16.853924999999983,
                    "velocity": 0.7716535433070866,
                    "duration": 0.14044937499999932
                },
                {
                    "name": "A3",
                    "midi": 57,
                    "time": 17.02246424999998,
                    "velocity": 0.7716535433070866,
                    "duration": 0.14044937499999932
                },
                {
                    "name": "E4",
                    "midi": 64,
                    "time": 17.19100349999998,
                    "velocity": 0.7716535433070866,
                    "duration": 0.14044937499999932
                },
                {
                    "name": "A3",
                    "midi": 57,
                    "time": 17.359542749999978,
                    "velocity": 0.7716535433070866,
                    "duration": 0.14044937499999932
                },
                {
                    "name": "F4",
                    "midi": 65,
                    "time": 17.528081999999976,
                    "velocity": 0.7716535433070866,
                    "duration": 0.14044937499999932
                },
                {
                    "name": "A3",
                    "midi": 57,
                    "time": 17.696621249999975,
                    "velocity": 0.7716535433070866,
                    "duration": 0.14044937499999932
                },
                {
                    "name": "D4",
                    "midi": 62,
                    "time": 17.865160499999973,
                    "velocity": 0.7716535433070866,
                    "duration": 0.14044937499999932
                },
                {
                    "name": "A3",
                    "midi": 57,
                    "time": 18.033699749999972,
                    "velocity": 0.7716535433070866,
                    "duration": 0.14044937499999932
                },
                {
                    "name": "A4",
                    "midi": 69,
                    "time": 18.20223899999997,
                    "velocity": 0.7716535433070866,
                    "duration": 0.14044937499999932
                },
                {
                    "name": "A3",
                    "midi": 57,
                    "time": 18.37077824999997,
                    "velocity": 0.7716535433070866,
                    "duration": 0.14044937499999932
                },
                {
                    "name": "F4",
                    "midi": 65,
                    "time": 18.539317499999967,
                    "velocity": 0.7716535433070866,
                    "duration": 0.14044937499999932
                },
                {
                    "name": "A3",
                    "midi": 57,
                    "time": 18.707856749999966,
                    "velocity": 0.7716535433070866,
                    "duration": 0.14044937499999932
                },
                {
                    "name": "G4",
                    "midi": 67,
                    "time": 18.876395999999964,
                    "velocity": 0.7716535433070866,
                    "duration": 0.14044937499999932
                },
                {
                    "name": "A3",
                    "midi": 57,
                    "time": 19.044935249999963,
                    "velocity": 0.7716535433070866,
                    "duration": 0.14044937499999932
                },
                {
                    "name": "C#4",
                    "midi": 61,
                    "time": 19.21347449999996,
                    "velocity": 0.7716535433070866,
                    "duration": 0.14044937499999932
                },
                {
                    "name": "A3",
                    "midi": 57,
                    "time": 19.38201374999996,
                    "velocity": 0.7716535433070866,
                    "duration": 0.14044937499999932
                },
                {
                    "name": "G4",
                    "midi": 67,
                    "time": 19.550552999999958,
                    "velocity": 0.7716535433070866,
                    "duration": 0.14044937499999932
                },
                {
                    "name": "A3",
                    "midi": 57,
                    "time": 19.719092249999957,
                    "velocity": 0.7716535433070866,
                    "duration": 0.14044937499999932
                },
                {
                    "name": "E4",
                    "midi": 64,
                    "time": 19.887631499999955,
                    "velocity": 0.7716535433070866,
                    "duration": 0.14044937499999932
                },
                {
                    "name": "A3",
                    "midi": 57,
                    "time": 20.056170749999954,
                    "velocity": 0.7716535433070866,
                    "duration": 0.14044937499999932
                },
                {
                    "name": "F4",
                    "midi": 65,
                    "time": 20.224709999999952,
                    "velocity": 0.7716535433070866,
                    "duration": 0.16853924999999848
                },
                {
                    "name": "A3",
                    "midi": 57,
                    "time": 20.56178849999995,
                    "velocity": 0.7716535433070866,
                    "duration": 0.16853924999999848
                },
                {
                    "name": "A4",
                    "midi": 69,
                    "time": 20.898866999999946,
                    "velocity": 0.7716535433070866,
                    "duration": 1.011235499999998
                },
                {
                    "name": "G4",
                    "midi": 67,
                    "time": 21.910102499999944,
                    "velocity": 0.7716535433070866,
                    "duration": 0.16853924999999848
                },
                {
                    "name": "A4",
                    "midi": 69,
                    "time": 22.078641749999942,
                    "velocity": 0.7716535433070866,
                    "duration": 0.16853924999999848
                },
                {
                    "name": "A#4",
                    "midi": 70,
                    "time": 22.24718099999994,
                    "velocity": 0.7716535433070866,
                    "duration": 0.16853924999999848
                },
                {
                    "name": "A4",
                    "midi": 69,
                    "time": 22.41572024999994,
                    "velocity": 0.7716535433070866,
                    "duration": 0.16853924999999848
                },
                {
                    "name": "G4",
                    "midi": 67,
                    "time": 22.584259499999938,
                    "velocity": 0.7716535433070866,
                    "duration": 0.16853924999999848
                },
                {
                    "name": "F4",
                    "midi": 65,
                    "time": 22.752798749999936,
                    "velocity": 0.7716535433070866,
                    "duration": 0.16853924999999848
                },
                {
                    "name": "E4",
                    "midi": 64,
                    "time": 22.921337999999935,
                    "velocity": 0.7716535433070866,
                    "duration": 0.16853924999999848
                },
                {
                    "name": "G3",
                    "midi": 55,
                    "time": 23.25841649999993,
                    "velocity": 0.7716535433070866,
                    "duration": 0.16853924999999848
                },
                {
                    "name": "G4",
                    "midi": 67,
                    "time": 23.59549499999993,
                    "velocity": 0.7716535433070866,
                    "duration": 1.011235499999998
                },
                {
                    "name": "F4",
                    "midi": 65,
                    "time": 24.606730499999927,
                    "velocity": 0.7716535433070866,
                    "duration": 0.16853924999999848
                },
                {
                    "name": "G4",
                    "midi": 67,
                    "time": 24.775269749999925,
                    "velocity": 0.7716535433070866,
                    "duration": 0.16853924999999848
                },
                {
                    "name": "A4",
                    "midi": 69,
                    "time": 24.943808999999924,
                    "velocity": 0.7716535433070866,
                    "duration": 0.16853924999999848
                },
                {
                    "name": "G4",
                    "midi": 67,
                    "time": 25.112348249999922,
                    "velocity": 0.7716535433070866,
                    "duration": 0.16853924999999848
                },
                {
                    "name": "F4",
                    "midi": 65,
                    "time": 25.28088749999992,
                    "velocity": 0.7716535433070866,
                    "duration": 0.16853924999999848
                },
                {
                    "name": "E4",
                    "midi": 64,
                    "time": 25.44942674999992,
                    "velocity": 0.7716535433070866,
                    "duration": 0.16853924999999848
                },
                {
                    "name": "D4",
                    "midi": 62,
                    "time": 25.617965999999917,
                    "velocity": 0.7716535433070866,
                    "duration": 0.16853924999999848
                },
                {
                    "name": "F3",
                    "midi": 53,
                    "time": 25.955044499999914,
                    "velocity": 0.7716535433070866,
                    "duration": 0.16853924999999848
                },
                {
                    "name": "F4",
                    "midi": 65,
                    "time": 26.29212299999991,
                    "velocity": 0.7716535433070866,
                    "duration": 1.011235499999998
                },
                {
                    "name": "E4",
                    "midi": 64,
                    "time": 27.30335849999991,
                    "velocity": 0.7716535433070866,
                    "duration": 0.16853924999999848
                },
                {
                    "name": "F4",
                    "midi": 65,
                    "time": 27.471897749999908,
                    "velocity": 0.7716535433070866,
                    "duration": 0.16853924999999848
                },
                {
                    "name": "G4",
                    "midi": 67,
                    "time": 27.640436999999906,
                    "velocity": 0.7716535433070866,
                    "duration": 0.16853924999999848
                },
                {
                    "name": "F4",
                    "midi": 65,
                    "time": 27.808976249999905,
                    "velocity": 0.7716535433070866,
                    "duration": 0.16853924999999848
                },
                {
                    "name": "E4",
                    "midi": 64,
                    "time": 27.977515499999903,
                    "velocity": 0.7716535433070866,
                    "duration": 0.16853924999999848
                },
                {
                    "name": "D4",
                    "midi": 62,
                    "time": 28.1460547499999,
                    "velocity": 0.7716535433070866,
                    "duration": 0.16853924999999848
                },
                {
                    "name": "C#4",
                    "midi": 61,
                    "time": 28.3145939999999,
                    "velocity": 0.7716535433070866,
                    "duration": 0.16853924999999848
                },
                {
                    "name": "E3",
                    "midi": 52,
                    "time": 28.651672499999897,
                    "velocity": 0.7716535433070866,
                    "duration": 0.16853924999999848
                },
                {
                    "name": "E4",
                    "midi": 64,
                    "time": 28.988750999999894,
                    "velocity": 0.7716535433070866,
                    "duration": 1.011235499999998
                },
                {
                    "name": "D4",
                    "midi": 62,
                    "time": 29.999986499999892,
                    "velocity": 0.7716535433070866,
                    "duration": 0.16853924999999848
                },
                {
                    "name": "C#4",
                    "midi": 61,
                    "time": 30.16852574999989,
                    "velocity": 0.7716535433070866,
                    "duration": 0.16853924999999848
                },
                {
                    "name": "D4",
                    "midi": 62,
                    "time": 30.33706499999989,
                    "velocity": 0.7716535433070866,
                    "duration": 0.6320221874999987
                },
                {
                    "name": "A4",
                    "midi": 69,
                    "time": 31.011221999999886,
                    "velocity": 0.7716535433070866,
                    "duration": 0.30898862500000135
                },
                {
                    "name": "F#4",
                    "midi": 66,
                    "time": 31.011221999999886,
                    "velocity": 0.7716535433070866,
                    "duration": 0.30898862500000135
                },
                {
                    "name": "F#4",
                    "midi": 66,
                    "time": 31.348300499999887,
                    "velocity": 0.7716535433070866,
                    "duration": 0.30898862500000135
                },
                {
                    "name": "D4",
                    "midi": 62,
                    "time": 31.348300499999887,
                    "velocity": 0.7716535433070866,
                    "duration": 0.30898862500000135
                },
                {
                    "name": "F#4",
                    "midi": 66,
                    "time": 31.685378999999887,
                    "velocity": 0.7716535433070866,
                    "duration": 0.9831456250000024
                },
                {
                    "name": "C5",
                    "midi": 72,
                    "time": 31.685378999999887,
                    "velocity": 0.7716535433070866,
                    "duration": 0.9831456250000024
                },
                {
                    "name": "A4",
                    "midi": 69,
                    "time": 31.685378999999887,
                    "velocity": 0.7716535433070866,
                    "duration": 0.9831456250000024
                },
                {
                    "name": "A#4",
                    "midi": 70,
                    "time": 32.69661449999989,
                    "velocity": 0.7716535433070866,
                    "duration": 0.14044937500000287
                },
                {
                    "name": "G4",
                    "midi": 67,
                    "time": 32.69661449999989,
                    "velocity": 0.7716535433070866,
                    "duration": 0.14044937500000287
                },
                {
                    "name": "A4",
                    "midi": 69,
                    "time": 32.86515374999989,
                    "velocity": 0.7716535433070866,
                    "duration": 0.14044937500000287
                },
                {
                    "name": "F#4",
                    "midi": 66,
                    "time": 32.86515374999989,
                    "velocity": 0.7716535433070866,
                    "duration": 0.14044937500000287
                },
                {
                    "name": "A#4",
                    "midi": 70,
                    "time": 33.03369299999989,
                    "velocity": 0.7716535433070866,
                    "duration": 0.14044937500000287
                },
                {
                    "name": "G4",
                    "midi": 67,
                    "time": 33.03369299999989,
                    "velocity": 0.7716535433070866,
                    "duration": 0.14044937500000287
                },
                {
                    "name": "D4",
                    "midi": 62,
                    "time": 33.03369299999989,
                    "velocity": 0.7716535433070866,
                    "duration": 0.14044937500000287
                },
                {
                    "name": "C5",
                    "midi": 72,
                    "time": 33.202232249999895,
                    "velocity": 0.7716535433070866,
                    "duration": 0.14044937500000287
                },
                {
                    "name": "A4",
                    "midi": 69,
                    "time": 33.202232249999895,
                    "velocity": 0.7716535433070866,
                    "duration": 0.14044937500000287
                },
                {
                    "name": "A#4",
                    "midi": 70,
                    "time": 33.3707714999999,
                    "velocity": 0.7716535433070866,
                    "duration": 0.14044937500000287
                },
                {
                    "name": "G4",
                    "midi": 67,
                    "time": 33.3707714999999,
                    "velocity": 0.7716535433070866,
                    "duration": 0.14044937500000287
                },
                {
                    "name": "A4",
                    "midi": 69,
                    "time": 33.5393107499999,
                    "velocity": 0.7716535433070866,
                    "duration": 0.14044937500000287
                },
                {
                    "name": "F#4",
                    "midi": 66,
                    "time": 33.5393107499999,
                    "velocity": 0.7716535433070866,
                    "duration": 0.14044937500000287
                },
                {
                    "name": "G4",
                    "midi": 67,
                    "time": 33.7078499999999,
                    "velocity": 0.7716535433070866,
                    "duration": 0.3089886249999978
                },
                {
                    "name": "E4",
                    "midi": 64,
                    "time": 33.7078499999999,
                    "velocity": 0.7716535433070866,
                    "duration": 0.3089886249999978
                },
                {
                    "name": "E4",
                    "midi": 64,
                    "time": 34.0449284999999,
                    "velocity": 0.7716535433070866,
                    "duration": 0.3089886249999978
                },
                {
                    "name": "C4",
                    "midi": 60,
                    "time": 34.0449284999999,
                    "velocity": 0.7716535433070866,
                    "duration": 0.3089886249999978
                },
                {
                    "name": "E4",
                    "midi": 64,
                    "time": 34.382006999999895,
                    "velocity": 0.7716535433070866,
                    "duration": 0.9831456249999988
                },
                {
                    "name": "A#4",
                    "midi": 70,
                    "time": 34.382006999999895,
                    "velocity": 0.7716535433070866,
                    "duration": 0.9831456249999988
                },
                {
                    "name": "G4",
                    "midi": 67,
                    "time": 34.382006999999895,
                    "velocity": 0.7716535433070866,
                    "duration": 0.9831456249999988
                },
                {
                    "name": "A4",
                    "midi": 69,
                    "time": 35.39324249999989,
                    "velocity": 0.7716535433070866,
                    "duration": 0.14044937500000287
                },
                {
                    "name": "F4",
                    "midi": 65,
                    "time": 35.39324249999989,
                    "velocity": 0.7716535433070866,
                    "duration": 0.14044937500000287
                },
                {
                    "name": "C4",
                    "midi": 60,
                    "time": 35.39324249999989,
                    "velocity": 0.7716535433070866,
                    "duration": 0.14044937500000287
                },
                {
                    "name": "G4",
                    "midi": 67,
                    "time": 35.561781749999895,
                    "velocity": 0.7716535433070866,
                    "duration": 0.14044937500000287
                },
                {
                    "name": "E4",
                    "midi": 64,
                    "time": 35.561781749999895,
                    "velocity": 0.7716535433070866,
                    "duration": 0.14044937500000287
                },
                {
                    "name": "C4",
                    "midi": 60,
                    "time": 35.7303209999999,
                    "velocity": 0.7716535433070866,
                    "duration": 0.3089886249999978
                },
                {
                    "name": "C5",
                    "midi": 72,
                    "time": 35.7303209999999,
                    "velocity": 0.7716535433070866,
                    "duration": 0.3089886249999978
                },
                {
                    "name": "A4",
                    "midi": 69,
                    "time": 35.7303209999999,
                    "velocity": 0.7716535433070866,
                    "duration": 0.3089886249999978
                },
                {
                    "name": "C4",
                    "midi": 60,
                    "time": 36.067399499999894,
                    "velocity": 0.7716535433070866,
                    "duration": 0.3089886249999978
                },
                {
                    "name": "F4",
                    "midi": 65,
                    "time": 36.067399499999894,
                    "velocity": 0.7716535433070866,
                    "duration": 0.3089886249999978
                },
                {
                    "name": "A#3",
                    "midi": 58,
                    "time": 36.40447799999989,
                    "velocity": 0.7716535433070866,
                    "duration": 0.3089886249999978
                },
                {
                    "name": "F4",
                    "midi": 65,
                    "time": 36.40447799999989,
                    "velocity": 0.7716535433070866,
                    "duration": 0.3089886249999978
                },
                {
                    "name": "D4",
                    "midi": 62,
                    "time": 36.40447799999989,
                    "velocity": 0.7716535433070866,
                    "duration": 0.3089886249999978
                },
                {
                    "name": "A#3",
                    "midi": 58,
                    "time": 36.74155649999989,
                    "velocity": 0.7716535433070866,
                    "duration": 0.3089886249999978
                },
                {
                    "name": "D4",
                    "midi": 62,
                    "time": 36.74155649999989,
                    "velocity": 0.7716535433070866,
                    "duration": 0.3089886249999978
                },
                {
                    "name": "D4",
                    "midi": 62,
                    "time": 37.078634999999885,
                    "velocity": 0.7716535433070866,
                    "duration": 0.9831456249999988
                },
                {
                    "name": "A4",
                    "midi": 69,
                    "time": 37.078634999999885,
                    "velocity": 0.7716535433070866,
                    "duration": 0.9831456249999988
                },
                {
                    "name": "F4",
                    "midi": 65,
                    "time": 37.078634999999885,
                    "velocity": 0.7716535433070866,
                    "duration": 0.9831456249999988
                },
                {
                    "name": "A#3",
                    "midi": 58,
                    "time": 38.08987049999988,
                    "velocity": 0.7716535433070866,
                    "duration": 0.14044937500000287
                },
                {
                    "name": "G4",
                    "midi": 67,
                    "time": 38.08987049999988,
                    "velocity": 0.7716535433070866,
                    "duration": 0.14044937500000287
                },
                {
                    "name": "E4",
                    "midi": 64,
                    "time": 38.08987049999988,
                    "velocity": 0.7716535433070866,
                    "duration": 0.14044937500000287
                },
                {
                    "name": "F4",
                    "midi": 65,
                    "time": 38.258409749999885,
                    "velocity": 0.7716535433070866,
                    "duration": 0.14044937500000287
                },
                {
                    "name": "D4",
                    "midi": 62,
                    "time": 38.258409749999885,
                    "velocity": 0.7716535433070866,
                    "duration": 0.14044937500000287
                },
                {
                    "name": "G4",
                    "midi": 67,
                    "time": 38.42694899999989,
                    "velocity": 0.7716535433070866,
                    "duration": 0.14044937500000287
                },
                {
                    "name": "E4",
                    "midi": 64,
                    "time": 38.42694899999989,
                    "velocity": 0.7716535433070866,
                    "duration": 0.14044937500000287
                },
                {
                    "name": "E4",
                    "midi": 64,
                    "time": 38.59548824999989,
                    "velocity": 0.7716535433070866,
                    "duration": 0.14044937500000287
                },
                {
                    "name": "A#3",
                    "midi": 58,
                    "time": 38.59548824999989,
                    "velocity": 0.7716535433070866,
                    "duration": 0.14044937500000287
                },
                {
                    "name": "F4",
                    "midi": 65,
                    "time": 38.76402749999989,
                    "velocity": 0.7716535433070866,
                    "duration": 0.14044937500000287
                },
                {
                    "name": "D4",
                    "midi": 62,
                    "time": 38.76402749999989,
                    "velocity": 0.7716535433070866,
                    "duration": 0.14044937500000287
                },
                {
                    "name": "G4",
                    "midi": 67,
                    "time": 38.93256674999989,
                    "velocity": 0.7716535433070866,
                    "duration": 0.14044937500000287
                },
                {
                    "name": "E4",
                    "midi": 64,
                    "time": 38.93256674999989,
                    "velocity": 0.7716535433070866,
                    "duration": 0.14044937500000287
                },
                {
                    "name": "C#4",
                    "midi": 61,
                    "time": 39.101105999999895,
                    "velocity": 0.7716535433070866,
                    "duration": 0.3089886249999978
                },
                {
                    "name": "A3",
                    "midi": 57,
                    "time": 39.101105999999895,
                    "velocity": 0.7716535433070866,
                    "duration": 0.3089886249999978
                },
                {
                    "name": "E4",
                    "midi": 64,
                    "time": 39.101105999999895,
                    "velocity": 0.7716535433070866,
                    "duration": 0.3089886249999978
                },
                {
                    "name": "A3",
                    "midi": 57,
                    "time": 39.43818449999989,
                    "velocity": 0.7716535433070866,
                    "duration": 0.3089886249999978
                },
                {
                    "name": "C#4",
                    "midi": 61,
                    "time": 39.43818449999989,
                    "velocity": 0.7716535433070866,
                    "duration": 0.3089886249999978
                },
                {
                    "name": "C#4",
                    "midi": 61,
                    "time": 39.77526299999989,
                    "velocity": 0.7716535433070866,
                    "duration": 0.9831456249999988
                },
                {
                    "name": "G4",
                    "midi": 67,
                    "time": 39.77526299999989,
                    "velocity": 0.7716535433070866,
                    "duration": 0.9831456249999988
                },
                {
                    "name": "E4",
                    "midi": 64,
                    "time": 39.77526299999989,
                    "velocity": 0.7716535433070866,
                    "duration": 0.9831456249999988
                },
                {
                    "name": "F#4",
                    "midi": 66,
                    "time": 40.78649849999989,
                    "velocity": 0.7716535433070866,
                    "duration": 0.14044937500000287
                },
                {
                    "name": "D4",
                    "midi": 62,
                    "time": 40.78649849999989,
                    "velocity": 0.7716535433070866,
                    "duration": 0.14044937500000287
                },
                {
                    "name": "A3",
                    "midi": 57,
                    "time": 40.78649849999989,
                    "velocity": 0.5511811023622047,
                    "duration": 0.14044937500000287
                },
                {
                    "name": "E4",
                    "midi": 64,
                    "time": 40.95503774999989,
                    "velocity": 0.7716535433070866,
                    "duration": 0.14044937500000287
                },
                {
                    "name": "C#4",
                    "midi": 61,
                    "time": 40.95503774999989,
                    "velocity": 0.7716535433070866,
                    "duration": 0.14044937500000287
                },
                {
                    "name": "D4",
                    "midi": 62,
                    "time": 41.12357699999989,
                    "velocity": 0.7716535433070866,
                    "duration": 0.6320221874999987
                },
                {
                    "name": "F#4",
                    "midi": 66,
                    "time": 41.12357699999989,
                    "velocity": 0.7716535433070866,
                    "duration": 0.6320221874999987
                },
                {
                    "name": "D4",
                    "midi": 62,
                    "time": 53.59548149999989,
                    "velocity": 0.6299212598425197,
                    "duration": 0.11235949999999661
                },
                {
                    "name": "D5",
                    "midi": 74,
                    "time": 53.59548149999989,
                    "velocity": 0.8267716535433071,
                    "duration": 0.11235949999999661
                },
                {
                    "name": "C#4",
                    "midi": 61,
                    "time": 53.76402074999989,
                    "velocity": 0.6299212598425197,
                    "duration": 0.11235949999999661
                },
                {
                    "name": "C#5",
                    "midi": 73,
                    "time": 53.76402074999989,
                    "velocity": 0.8267716535433071,
                    "duration": 0.11235949999999661
                },
                {
                    "name": "D4",
                    "midi": 62,
                    "time": 53.93255999999988,
                    "velocity": 0.6299212598425197,
                    "duration": 0.11235949999999661
                },
                {
                    "name": "D5",
                    "midi": 74,
                    "time": 53.93255999999988,
                    "velocity": 0.8267716535433071,
                    "duration": 0.11235949999999661
                },
                {
                    "name": "A3",
                    "midi": 57,
                    "time": 54.26963849999988,
                    "velocity": 0.6299212598425197,
                    "duration": 0.11235949999999661
                },
                {
                    "name": "A4",
                    "midi": 69,
                    "time": 54.26963849999988,
                    "velocity": 0.8267716535433071,
                    "duration": 0.11235949999999661
                },
                {
                    "name": "G#3",
                    "midi": 56,
                    "time": 54.43817774999987,
                    "velocity": 0.6299212598425197,
                    "duration": 0.11235949999999661
                },
                {
                    "name": "G#4",
                    "midi": 68,
                    "time": 54.43817774999987,
                    "velocity": 0.8267716535433071,
                    "duration": 0.11235949999999661
                },
                {
                    "name": "A3",
                    "midi": 57,
                    "time": 54.60671699999987,
                    "velocity": 0.6299212598425197,
                    "duration": 0.11235949999999661
                },
                {
                    "name": "A4",
                    "midi": 69,
                    "time": 54.60671699999987,
                    "velocity": 0.8267716535433071,
                    "duration": 0.11235949999999661
                },
                {
                    "name": "F3",
                    "midi": 53,
                    "time": 54.943795499999865,
                    "velocity": 0.6299212598425197,
                    "duration": 0.11235949999999661
                },
                {
                    "name": "F4",
                    "midi": 65,
                    "time": 54.943795499999865,
                    "velocity": 0.8267716535433071,
                    "duration": 0.11235949999999661
                },
                {
                    "name": "E3",
                    "midi": 52,
                    "time": 55.11233474999986,
                    "velocity": 0.6299212598425197,
                    "duration": 0.11235949999999661
                },
                {
                    "name": "E4",
                    "midi": 64,
                    "time": 55.11233474999986,
                    "velocity": 0.8267716535433071,
                    "duration": 0.11235949999999661
                },
                {
                    "name": "F3",
                    "midi": 53,
                    "time": 55.280873999999855,
                    "velocity": 0.6299212598425197,
                    "duration": 0.11235949999999661
                },
                {
                    "name": "F4",
                    "midi": 65,
                    "time": 55.280873999999855,
                    "velocity": 0.8267716535433071,
                    "duration": 0.11235949999999661
                },
                {
                    "name": "D3",
                    "midi": 50,
                    "time": 55.61795249999985,
                    "velocity": 0.6299212598425197,
                    "duration": 0.11235949999999661
                },
                {
                    "name": "D4",
                    "midi": 62,
                    "time": 55.61795249999985,
                    "velocity": 0.8267716535433071,
                    "duration": 0.11235949999999661
                },
                {
                    "name": "C#3",
                    "midi": 49,
                    "time": 55.78649174999985,
                    "velocity": 0.6299212598425197,
                    "duration": 0.11235949999999661
                },
                {
                    "name": "C#4",
                    "midi": 61,
                    "time": 55.78649174999985,
                    "velocity": 0.8267716535433071,
                    "duration": 0.11235949999999661
                },
                {
                    "name": "D3",
                    "midi": 50,
                    "time": 55.95503099999984,
                    "velocity": 0.6299212598425197,
                    "duration": 0.11235949999999661
                },
                {
                    "name": "D4",
                    "midi": 62,
                    "time": 55.95503099999984,
                    "velocity": 0.8267716535433071,
                    "duration": 0.11235949999999661
                },
                {
                    "name": "D4",
                    "midi": 62,
                    "time": 56.629187999999836,
                    "velocity": 0.7716535433070866,
                    "duration": 0.14044937500000287
                },
                {
                    "name": "A3",
                    "midi": 57,
                    "time": 56.79772724999984,
                    "velocity": 0.7716535433070866,
                    "duration": 0.14044937500000287
                },
                {
                    "name": "D4",
                    "midi": 62,
                    "time": 56.96626649999984,
                    "velocity": 0.7716535433070866,
                    "duration": 0.14044937500000287
                },
                {
                    "name": "F4",
                    "midi": 65,
                    "time": 57.13480574999984,
                    "velocity": 0.7716535433070866,
                    "duration": 0.14044937500000287
                },
                {
                    "name": "A4",
                    "midi": 69,
                    "time": 57.303344999999844,
                    "velocity": 0.7716535433070866,
                    "duration": 0.14044937500000287
                },
                {
                    "name": "A3",
                    "midi": 57,
                    "time": 57.471884249999846,
                    "velocity": 0.7716535433070866,
                    "duration": 0.14044937500000287
                },
                {
                    "name": "F4",
                    "midi": 65,
                    "time": 57.64042349999985,
                    "velocity": 0.7716535433070866,
                    "duration": 0.14044937500000287
                },
                {
                    "name": "A3",
                    "midi": 57,
                    "time": 57.80896274999985,
                    "velocity": 0.7716535433070866,
                    "duration": 0.14044937500000287
                },
                {
                    "name": "G4",
                    "midi": 67,
                    "time": 57.97750199999985,
                    "velocity": 0.7716535433070866,
                    "duration": 0.14044937500000287
                },
                {
                    "name": "A3",
                    "midi": 57,
                    "time": 58.146041249999854,
                    "velocity": 0.7716535433070866,
                    "duration": 0.14044937500000287
                },
                {
                    "name": "C#4",
                    "midi": 61,
                    "time": 58.314580499999856,
                    "velocity": 0.7716535433070866,
                    "duration": 0.14044937500000287
                },
                {
                    "name": "E4",
                    "midi": 64,
                    "time": 58.314580499999856,
                    "velocity": 0.7716535433070866,
                    "duration": 0.14044937500000287
                },
                {
                    "name": "A3",
                    "midi": 57,
                    "time": 58.48311974999986,
                    "velocity": 0.7716535433070866,
                    "duration": 0.14044937500000287
                },
                {
                    "name": "G4",
                    "midi": 67,
                    "time": 58.65165899999986,
                    "velocity": 0.7716535433070866,
                    "duration": 0.14044937500000287
                },
                {
                    "name": "A3",
                    "midi": 57,
                    "time": 58.82019824999986,
                    "velocity": 0.7716535433070866,
                    "duration": 0.14044937500000287
                },
                {
                    "name": "E4",
                    "midi": 64,
                    "time": 58.988737499999864,
                    "velocity": 0.7716535433070866,
                    "duration": 0.14044937500000287
                },
                {
                    "name": "A3",
                    "midi": 57,
                    "time": 59.157276749999866,
                    "velocity": 0.7716535433070866,
                    "duration": 0.14044937500000287
                },
                {
                    "name": "F4",
                    "midi": 65,
                    "time": 59.32581599999987,
                    "velocity": 0.7716535433070866,
                    "duration": 0.14044937500000287
                },
                {
                    "name": "A3",
                    "midi": 57,
                    "time": 59.49435524999987,
                    "velocity": 0.7716535433070866,
                    "duration": 0.14044937500000287
                },
                {
                    "name": "D4",
                    "midi": 62,
                    "time": 59.66289449999987,
                    "velocity": 0.7716535433070866,
                    "duration": 0.14044937500000287
                },
                {
                    "name": "A3",
                    "midi": 57,
                    "time": 59.831433749999874,
                    "velocity": 0.7716535433070866,
                    "duration": 0.14044937500000287
                },
                {
                    "name": "A4",
                    "midi": 69,
                    "time": 59.999972999999876,
                    "velocity": 0.7716535433070866,
                    "duration": 0.14044937500000287
                },
                {
                    "name": "A3",
                    "midi": 57,
                    "time": 60.16851224999988,
                    "velocity": 0.7716535433070866,
                    "duration": 0.14044937500000287
                },
                {
                    "name": "F4",
                    "midi": 65,
                    "time": 60.33705149999988,
                    "velocity": 0.7716535433070866,
                    "duration": 0.14044937500000287
                },
                {
                    "name": "A3",
                    "midi": 57,
                    "time": 60.50559074999988,
                    "velocity": 0.7716535433070866,
                    "duration": 0.14044937500000287
                },
                {
                    "name": "G4",
                    "midi": 67,
                    "time": 60.674129999999884,
                    "velocity": 0.7716535433070866,
                    "duration": 0.14044937500000287
                },
                {
                    "name": "A3",
                    "midi": 57,
                    "time": 60.84266924999989,
                    "velocity": 0.7716535433070866,
                    "duration": 0.14044937500000287
                },
                {
                    "name": "C#4",
                    "midi": 61,
                    "time": 61.01120849999989,
                    "velocity": 0.7716535433070866,
                    "duration": 0.14044937500000287
                },
                {
                    "name": "A3",
                    "midi": 57,
                    "time": 61.17974774999989,
                    "velocity": 0.7716535433070866,
                    "duration": 0.14044937500000287
                },
                {
                    "name": "G4",
                    "midi": 67,
                    "time": 61.34828699999989,
                    "velocity": 0.7716535433070866,
                    "duration": 0.14044937500000287
                },
                {
                    "name": "A3",
                    "midi": 57,
                    "time": 61.516826249999895,
                    "velocity": 0.7716535433070866,
                    "duration": 0.14044937500000287
                },
                {
                    "name": "E4",
                    "midi": 64,
                    "time": 61.6853654999999,
                    "velocity": 0.7716535433070866,
                    "duration": 0.14044937500000287
                },
                {
                    "name": "A3",
                    "midi": 57,
                    "time": 61.8539047499999,
                    "velocity": 0.7716535433070866,
                    "duration": 0.14044937500000287
                },
                {
                    "name": "F4",
                    "midi": 65,
                    "time": 62.0224439999999,
                    "velocity": 0.7716535433070866,
                    "duration": 0.16853925000000203
                },
                {
                    "name": "A3",
                    "midi": 57,
                    "time": 62.359522499999905,
                    "velocity": 0.7716535433070866,
                    "duration": 0.16853925000000203
                },
                {
                    "name": "A4",
                    "midi": 69,
                    "time": 62.69660099999991,
                    "velocity": 0.7716535433070866,
                    "duration": 1.011235499999998
                },
                {
                    "name": "G4",
                    "midi": 67,
                    "time": 63.70783649999991,
                    "velocity": 0.7716535433070866,
                    "duration": 0.16853925000000203
                },
                {
                    "name": "A4",
                    "midi": 69,
                    "time": 63.87637574999991,
                    "velocity": 0.7716535433070866,
                    "duration": 0.16853924999999492
                },
                {
                    "name": "A#4",
                    "midi": 70,
                    "time": 64.0449149999999,
                    "velocity": 0.7716535433070866,
                    "duration": 0.16853924999999492
                },
                {
                    "name": "A4",
                    "midi": 69,
                    "time": 64.2134542499999,
                    "velocity": 0.7716535433070866,
                    "duration": 0.16853924999999492
                },
                {
                    "name": "G4",
                    "midi": 67,
                    "time": 64.3819934999999,
                    "velocity": 0.7716535433070866,
                    "duration": 0.16853924999999492
                },
                {
                    "name": "F4",
                    "midi": 65,
                    "time": 64.55053274999989,
                    "velocity": 0.7716535433070866,
                    "duration": 0.16853924999999492
                },
                {
                    "name": "E4",
                    "midi": 64,
                    "time": 64.71907199999988,
                    "velocity": 0.7716535433070866,
                    "duration": 0.16853924999999492
                },
                {
                    "name": "G3",
                    "midi": 55,
                    "time": 65.05615049999987,
                    "velocity": 0.7716535433070866,
                    "duration": 0.16853924999999492
                },
                {
                    "name": "G4",
                    "midi": 67,
                    "time": 65.39322899999986,
                    "velocity": 0.7716535433070866,
                    "duration": 1.011235499999998
                },
                {
                    "name": "F4",
                    "midi": 65,
                    "time": 66.40446449999986,
                    "velocity": 0.7716535433070866,
                    "duration": 0.16853924999999492
                },
                {
                    "name": "G4",
                    "midi": 67,
                    "time": 66.57300374999986,
                    "velocity": 0.7716535433070866,
                    "duration": 0.16853924999999492
                },
                {
                    "name": "A4",
                    "midi": 69,
                    "time": 66.74154299999985,
                    "velocity": 0.7716535433070866,
                    "duration": 0.16853924999999492
                },
                {
                    "name": "G4",
                    "midi": 67,
                    "time": 66.91008224999985,
                    "velocity": 0.7716535433070866,
                    "duration": 0.16853924999999492
                },
                {
                    "name": "F4",
                    "midi": 65,
                    "time": 67.07862149999984,
                    "velocity": 0.7716535433070866,
                    "duration": 0.16853924999999492
                },
                {
                    "name": "E4",
                    "midi": 64,
                    "time": 67.24716074999984,
                    "velocity": 0.7716535433070866,
                    "duration": 0.16853924999999492
                },
                {
                    "name": "D4",
                    "midi": 62,
                    "time": 67.41569999999983,
                    "velocity": 0.7716535433070866,
                    "duration": 0.16853924999999492
                },
                {
                    "name": "F3",
                    "midi": 53,
                    "time": 67.75277849999982,
                    "velocity": 0.7716535433070866,
                    "duration": 0.16853924999999492
                },
                {
                    "name": "F4",
                    "midi": 65,
                    "time": 68.08985699999981,
                    "velocity": 0.7716535433070866,
                    "duration": 1.011235499999998
                },
                {
                    "name": "E4",
                    "midi": 64,
                    "time": 69.10109249999981,
                    "velocity": 0.7716535433070866,
                    "duration": 0.16853924999999492
                },
                {
                    "name": "F4",
                    "midi": 65,
                    "time": 69.2696317499998,
                    "velocity": 0.7716535433070866,
                    "duration": 0.16853924999999492
                },
                {
                    "name": "G4",
                    "midi": 67,
                    "time": 69.4381709999998,
                    "velocity": 0.7716535433070866,
                    "duration": 0.16853924999999492
                },
                {
                    "name": "F4",
                    "midi": 65,
                    "time": 69.6067102499998,
                    "velocity": 0.7716535433070866,
                    "duration": 0.16853924999999492
                },
                {
                    "name": "E4",
                    "midi": 64,
                    "time": 69.77524949999979,
                    "velocity": 0.7716535433070866,
                    "duration": 0.16853924999999492
                },
                {
                    "name": "D4",
                    "midi": 62,
                    "time": 69.94378874999978,
                    "velocity": 0.7716535433070866,
                    "duration": 0.16853924999999492
                },
                {
                    "name": "C#4",
                    "midi": 61,
                    "time": 70.11232799999978,
                    "velocity": 0.7716535433070866,
                    "duration": 0.16853924999999492
                },
                {
                    "name": "E3",
                    "midi": 52,
                    "time": 70.44940649999977,
                    "velocity": 0.7716535433070866,
                    "duration": 0.16853924999999492
                },
                {
                    "name": "E4",
                    "midi": 64,
                    "time": 70.78648499999976,
                    "velocity": 0.7716535433070866,
                    "duration": 1.011235499999998
                },
                {
                    "name": "D4",
                    "midi": 62,
                    "time": 71.79772049999976,
                    "velocity": 0.7716535433070866,
                    "duration": 0.16853924999999492
                },
                {
                    "name": "C#4",
                    "midi": 61,
                    "time": 71.96625974999975,
                    "velocity": 0.7716535433070866,
                    "duration": 0.16853924999999492
                },
                {
                    "name": "D4",
                    "midi": 62,
                    "time": 72.13479899999975,
                    "velocity": 0.7716535433070866,
                    "duration": 0.6320221874999987
                },
                {
                    "name": "A4",
                    "midi": 69,
                    "time": 72.80895599999974,
                    "velocity": 0.7716535433070866,
                    "duration": 0.3089886249999978
                },
                {
                    "name": "F#4",
                    "midi": 66,
                    "time": 72.80895599999974,
                    "velocity": 0.7716535433070866,
                    "duration": 0.3089886249999978
                },
                {
                    "name": "F#4",
                    "midi": 66,
                    "time": 73.14603449999974,
                    "velocity": 0.7716535433070866,
                    "duration": 0.3089886249999978
                },
                {
                    "name": "D4",
                    "midi": 62,
                    "time": 73.14603449999974,
                    "velocity": 0.7716535433070866,
                    "duration": 0.3089886249999978
                },
                {
                    "name": "F#4",
                    "midi": 66,
                    "time": 73.48311299999975,
                    "velocity": 0.7716535433070866,
                    "duration": 0.9831456250000059
                },
                {
                    "name": "C5",
                    "midi": 72,
                    "time": 73.48311299999975,
                    "velocity": 0.7716535433070866,
                    "duration": 0.9831456250000059
                },
                {
                    "name": "A4",
                    "midi": 69,
                    "time": 73.48311299999975,
                    "velocity": 0.7716535433070866,
                    "duration": 0.9831456250000059
                },
                {
                    "name": "A#4",
                    "midi": 70,
                    "time": 74.49434849999976,
                    "velocity": 0.7716535433070866,
                    "duration": 0.14044937500000287
                },
                {
                    "name": "G4",
                    "midi": 67,
                    "time": 74.49434849999976,
                    "velocity": 0.7716535433070866,
                    "duration": 0.14044937500000287
                },
                {
                    "name": "A4",
                    "midi": 69,
                    "time": 74.66288774999977,
                    "velocity": 0.7716535433070866,
                    "duration": 0.14044937500000287
                },
                {
                    "name": "F#4",
                    "midi": 66,
                    "time": 74.66288774999977,
                    "velocity": 0.7716535433070866,
                    "duration": 0.14044937500000287
                },
                {
                    "name": "A#4",
                    "midi": 70,
                    "time": 74.83142699999978,
                    "velocity": 0.7716535433070866,
                    "duration": 0.14044937500000287
                },
                {
                    "name": "G4",
                    "midi": 67,
                    "time": 74.83142699999978,
                    "velocity": 0.7716535433070866,
                    "duration": 0.14044937500000287
                },
                {
                    "name": "D4",
                    "midi": 62,
                    "time": 74.83142699999978,
                    "velocity": 0.7716535433070866,
                    "duration": 0.14044937500000287
                },
                {
                    "name": "C5",
                    "midi": 72,
                    "time": 74.99996624999979,
                    "velocity": 0.7716535433070866,
                    "duration": 0.14044937500000287
                },
                {
                    "name": "A4",
                    "midi": 69,
                    "time": 74.99996624999979,
                    "velocity": 0.7716535433070866,
                    "duration": 0.14044937500000287
                },
                {
                    "name": "A#4",
                    "midi": 70,
                    "time": 75.1685054999998,
                    "velocity": 0.7716535433070866,
                    "duration": 0.14044937500000287
                },
                {
                    "name": "G4",
                    "midi": 67,
                    "time": 75.1685054999998,
                    "velocity": 0.7716535433070866,
                    "duration": 0.14044937500000287
                },
                {
                    "name": "A4",
                    "midi": 69,
                    "time": 75.3370447499998,
                    "velocity": 0.7716535433070866,
                    "duration": 0.14044937500000287
                },
                {
                    "name": "F#4",
                    "midi": 66,
                    "time": 75.3370447499998,
                    "velocity": 0.7716535433070866,
                    "duration": 0.14044937500000287
                },
                {
                    "name": "G4",
                    "midi": 67,
                    "time": 75.50558399999981,
                    "velocity": 0.7716535433070866,
                    "duration": 0.3089886249999978
                },
                {
                    "name": "E4",
                    "midi": 64,
                    "time": 75.50558399999981,
                    "velocity": 0.7716535433070866,
                    "duration": 0.3089886249999978
                },
                {
                    "name": "E4",
                    "midi": 64,
                    "time": 75.84266249999982,
                    "velocity": 0.7716535433070866,
                    "duration": 0.3089886249999978
                },
                {
                    "name": "C4",
                    "midi": 60,
                    "time": 75.84266249999982,
                    "velocity": 0.7716535433070866,
                    "duration": 0.3089886249999978
                },
                {
                    "name": "E4",
                    "midi": 64,
                    "time": 76.17974099999982,
                    "velocity": 0.7716535433070866,
                    "duration": 0.9831456250000059
                },
                {
                    "name": "A#4",
                    "midi": 70,
                    "time": 76.17974099999982,
                    "velocity": 0.7716535433070866,
                    "duration": 0.9831456250000059
                },
                {
                    "name": "G4",
                    "midi": 67,
                    "time": 76.17974099999982,
                    "velocity": 0.7716535433070866,
                    "duration": 0.9831456250000059
                },
                {
                    "name": "A4",
                    "midi": 69,
                    "time": 77.19097649999983,
                    "velocity": 0.7716535433070866,
                    "duration": 0.14044937500000287
                },
                {
                    "name": "F4",
                    "midi": 65,
                    "time": 77.19097649999983,
                    "velocity": 0.7716535433070866,
                    "duration": 0.14044937500000287
                },
                {
                    "name": "C4",
                    "midi": 60,
                    "time": 77.19097649999983,
                    "velocity": 0.7716535433070866,
                    "duration": 0.14044937500000287
                },
                {
                    "name": "G4",
                    "midi": 67,
                    "time": 77.35951574999984,
                    "velocity": 0.7716535433070866,
                    "duration": 0.14044937500000287
                },
                {
                    "name": "E4",
                    "midi": 64,
                    "time": 77.35951574999984,
                    "velocity": 0.7716535433070866,
                    "duration": 0.14044937500000287
                },
                {
                    "name": "C4",
                    "midi": 60,
                    "time": 77.52805499999985,
                    "velocity": 0.7716535433070866,
                    "duration": 0.3089886249999978
                },
                {
                    "name": "C5",
                    "midi": 72,
                    "time": 77.52805499999985,
                    "velocity": 0.7716535433070866,
                    "duration": 0.3089886249999978
                },
                {
                    "name": "A4",
                    "midi": 69,
                    "time": 77.52805499999985,
                    "velocity": 0.7716535433070866,
                    "duration": 0.3089886249999978
                },
                {
                    "name": "C4",
                    "midi": 60,
                    "time": 77.86513349999986,
                    "velocity": 0.7716535433070866,
                    "duration": 0.3089886249999978
                },
                {
                    "name": "F4",
                    "midi": 65,
                    "time": 77.86513349999986,
                    "velocity": 0.7716535433070866,
                    "duration": 0.3089886249999978
                },
                {
                    "name": "A#3",
                    "midi": 58,
                    "time": 78.20221199999986,
                    "velocity": 0.7716535433070866,
                    "duration": 0.3089886249999978
                },
                {
                    "name": "F4",
                    "midi": 65,
                    "time": 78.20221199999986,
                    "velocity": 0.7716535433070866,
                    "duration": 0.3089886249999978
                },
                {
                    "name": "D4",
                    "midi": 62,
                    "time": 78.20221199999986,
                    "velocity": 0.7716535433070866,
                    "duration": 0.3089886249999978
                },
                {
                    "name": "A#3",
                    "midi": 58,
                    "time": 78.53929049999986,
                    "velocity": 0.7716535433070866,
                    "duration": 0.3089886249999978
                },
                {
                    "name": "D4",
                    "midi": 62,
                    "time": 78.53929049999986,
                    "velocity": 0.7716535433070866,
                    "duration": 0.3089886249999978
                },
                {
                    "name": "D4",
                    "midi": 62,
                    "time": 78.87636899999987,
                    "velocity": 0.7716535433070866,
                    "duration": 0.9831456250000059
                },
                {
                    "name": "A4",
                    "midi": 69,
                    "time": 78.87636899999987,
                    "velocity": 0.7716535433070866,
                    "duration": 0.9831456250000059
                },
                {
                    "name": "F4",
                    "midi": 65,
                    "time": 78.87636899999987,
                    "velocity": 0.7716535433070866,
                    "duration": 0.9831456250000059
                },
                {
                    "name": "A#3",
                    "midi": 58,
                    "time": 79.88760449999988,
                    "velocity": 0.7716535433070866,
                    "duration": 0.14044937500000287
                },
                {
                    "name": "G4",
                    "midi": 67,
                    "time": 79.88760449999988,
                    "velocity": 0.7716535433070866,
                    "duration": 0.14044937500000287
                },
                {
                    "name": "E4",
                    "midi": 64,
                    "time": 79.88760449999988,
                    "velocity": 0.7716535433070866,
                    "duration": 0.14044937500000287
                },
                {
                    "name": "F4",
                    "midi": 65,
                    "time": 80.05614374999989,
                    "velocity": 0.7716535433070866,
                    "duration": 0.14044937500000287
                },
                {
                    "name": "D4",
                    "midi": 62,
                    "time": 80.05614374999989,
                    "velocity": 0.7716535433070866,
                    "duration": 0.14044937500000287
                },
                {
                    "name": "G4",
                    "midi": 67,
                    "time": 80.2246829999999,
                    "velocity": 0.7716535433070866,
                    "duration": 0.14044937500000287
                },
                {
                    "name": "E4",
                    "midi": 64,
                    "time": 80.2246829999999,
                    "velocity": 0.7716535433070866,
                    "duration": 0.14044937500000287
                },
                {
                    "name": "E4",
                    "midi": 64,
                    "time": 80.39322224999991,
                    "velocity": 0.7716535433070866,
                    "duration": 0.14044937500000287
                },
                {
                    "name": "A#3",
                    "midi": 58,
                    "time": 80.39322224999991,
                    "velocity": 0.7716535433070866,
                    "duration": 0.14044937500000287
                },
                {
                    "name": "F4",
                    "midi": 65,
                    "time": 80.56176149999992,
                    "velocity": 0.7716535433070866,
                    "duration": 0.14044937500000287
                },
                {
                    "name": "D4",
                    "midi": 62,
                    "time": 80.56176149999992,
                    "velocity": 0.7716535433070866,
                    "duration": 0.14044937500000287
                },
                {
                    "name": "G4",
                    "midi": 67,
                    "time": 80.73030074999993,
                    "velocity": 0.7716535433070866,
                    "duration": 0.14044937500000287
                },
                {
                    "name": "E4",
                    "midi": 64,
                    "time": 80.73030074999993,
                    "velocity": 0.7716535433070866,
                    "duration": 0.14044937500000287
                },
                {
                    "name": "C#4",
                    "midi": 61,
                    "time": 80.89883999999994,
                    "velocity": 0.7716535433070866,
                    "duration": 0.3089886249999978
                },
                {
                    "name": "A3",
                    "midi": 57,
                    "time": 80.89883999999994,
                    "velocity": 0.7716535433070866,
                    "duration": 0.3089886249999978
                },
                {
                    "name": "E4",
                    "midi": 64,
                    "time": 80.89883999999994,
                    "velocity": 0.7716535433070866,
                    "duration": 0.3089886249999978
                },
                {
                    "name": "A3",
                    "midi": 57,
                    "time": 81.23591849999994,
                    "velocity": 0.7716535433070866,
                    "duration": 0.3089886249999978
                },
                {
                    "name": "C#4",
                    "midi": 61,
                    "time": 81.23591849999994,
                    "velocity": 0.7716535433070866,
                    "duration": 0.3089886249999978
                },
                {
                    "name": "C#4",
                    "midi": 61,
                    "time": 81.57299699999994,
                    "velocity": 0.7716535433070866,
                    "duration": 0.9831456250000059
                },
                {
                    "name": "G4",
                    "midi": 67,
                    "time": 81.57299699999994,
                    "velocity": 0.7716535433070866,
                    "duration": 0.9831456250000059
                },
                {
                    "name": "E4",
                    "midi": 64,
                    "time": 81.57299699999994,
                    "velocity": 0.7716535433070866,
                    "duration": 0.9831456250000059
                },
                {
                    "name": "F#4",
                    "midi": 66,
                    "time": 82.58423249999996,
                    "velocity": 0.7716535433070866,
                    "duration": 0.14044937500000287
                },
                {
                    "name": "D4",
                    "midi": 62,
                    "time": 82.58423249999996,
                    "velocity": 0.7716535433070866,
                    "duration": 0.14044937500000287
                },
                {
                    "name": "A3",
                    "midi": 57,
                    "time": 82.58423249999996,
                    "velocity": 0.5511811023622047,
                    "duration": 0.14044937500000287
                },
                {
                    "name": "E4",
                    "midi": 64,
                    "time": 82.75277174999997,
                    "velocity": 0.7716535433070866,
                    "duration": 0.14044937500000287
                },
                {
                    "name": "C#4",
                    "midi": 61,
                    "time": 82.75277174999997,
                    "velocity": 0.7716535433070866,
                    "duration": 0.14044937500000287
                },
                {
                    "name": "D4",
                    "midi": 62,
                    "time": 82.92131099999997,
                    "velocity": 0.7716535433070866,
                    "duration": 0.6320221874999987
                },
                {
                    "name": "F#4",
                    "midi": 66,
                    "time": 82.92131099999997,
                    "velocity": 0.7716535433070866,
                    "duration": 0.6320221874999987
                }
            ],
            "controlChanges": {},
            "id": 3,
            "name": "best with SB64",
            "instrumentNumber": 15,
            "instrument": "dulcimer",
            "instrumentFamily": "chromatic percussion",
            "channelNumber": 2,
            "isPercussion": false
        },
        {
            "startTime": 14.831453999999997,
            "duration": 83.59546799999991,
            "length": 202,
            "notes": [
                {
                    "name": "D3",
                    "midi": 50,
                    "time": 14.831453999999997,
                    "velocity": 0.984251968503937,
                    "duration": 0.6741569999999992
                },
                {
                    "name": "A2",
                    "midi": 45,
                    "time": 15.505610999999996,
                    "velocity": 0.984251968503937,
                    "duration": 0.6741569999999992
                },
                {
                    "name": "E3",
                    "midi": 52,
                    "time": 16.179767999999996,
                    "velocity": 0.984251968503937,
                    "duration": 0.674157000000001
                },
                {
                    "name": "A2",
                    "midi": 45,
                    "time": 16.853924999999997,
                    "velocity": 0.984251968503937,
                    "duration": 0.674157000000001
                },
                {
                    "name": "D3",
                    "midi": 50,
                    "time": 17.528081999999998,
                    "velocity": 0.984251968503937,
                    "duration": 0.674157000000001
                },
                {
                    "name": "A2",
                    "midi": 45,
                    "time": 18.202239,
                    "velocity": 0.984251968503937,
                    "duration": 0.674157000000001
                },
                {
                    "name": "E3",
                    "midi": 52,
                    "time": 18.876396,
                    "velocity": 0.984251968503937,
                    "duration": 0.674157000000001
                },
                {
                    "name": "A2",
                    "midi": 45,
                    "time": 19.550553,
                    "velocity": 0.984251968503937,
                    "duration": 0.674157000000001
                },
                {
                    "name": "D3",
                    "midi": 50,
                    "time": 20.22471,
                    "velocity": 0.984251968503937,
                    "duration": 0.14044937499999932
                },
                {
                    "name": "D3",
                    "midi": 50,
                    "time": 20.561788500000002,
                    "velocity": 0.984251968503937,
                    "duration": 0.14044937499999932
                },
                {
                    "name": "E3",
                    "midi": 52,
                    "time": 20.73032775,
                    "velocity": 0.984251968503937,
                    "duration": 0.14044937499999932
                },
                {
                    "name": "F3",
                    "midi": 53,
                    "time": 20.898867,
                    "velocity": 0.984251968503937,
                    "duration": 0.14044937499999932
                },
                {
                    "name": "E3",
                    "midi": 52,
                    "time": 21.067406249999998,
                    "velocity": 0.984251968503937,
                    "duration": 0.14044937499999932
                },
                {
                    "name": "D3",
                    "midi": 50,
                    "time": 21.235945499999996,
                    "velocity": 0.984251968503937,
                    "duration": 0.14044937499999932
                },
                {
                    "name": "C3",
                    "midi": 48,
                    "time": 21.404484749999995,
                    "velocity": 0.984251968503937,
                    "duration": 0.14044937499999932
                },
                {
                    "name": "A#2",
                    "midi": 46,
                    "time": 21.573023999999993,
                    "velocity": 0.984251968503937,
                    "duration": 0.6320221874999987
                },
                {
                    "name": "G2",
                    "midi": 43,
                    "time": 22.24718099999999,
                    "velocity": 0.984251968503937,
                    "duration": 0.6320221874999987
                },
                {
                    "name": "C3",
                    "midi": 48,
                    "time": 22.921337999999988,
                    "velocity": 0.984251968503937,
                    "duration": 0.14044937499999932
                },
                {
                    "name": "C3",
                    "midi": 48,
                    "time": 23.25841649999999,
                    "velocity": 0.984251968503937,
                    "duration": 0.14044937499999932
                },
                {
                    "name": "D3",
                    "midi": 50,
                    "time": 23.426955749999987,
                    "velocity": 0.984251968503937,
                    "duration": 0.14044937499999932
                },
                {
                    "name": "E3",
                    "midi": 52,
                    "time": 23.595494999999985,
                    "velocity": 0.984251968503937,
                    "duration": 0.14044937499999932
                },
                {
                    "name": "D3",
                    "midi": 50,
                    "time": 23.764034249999984,
                    "velocity": 0.984251968503937,
                    "duration": 0.14044937499999932
                },
                {
                    "name": "C3",
                    "midi": 48,
                    "time": 23.932573499999982,
                    "velocity": 0.984251968503937,
                    "duration": 0.14044937499999932
                },
                {
                    "name": "A#2",
                    "midi": 46,
                    "time": 24.10111274999998,
                    "velocity": 0.984251968503937,
                    "duration": 0.14044937499999932
                },
                {
                    "name": "A2",
                    "midi": 45,
                    "time": 24.26965199999998,
                    "velocity": 0.984251968503937,
                    "duration": 0.6320221874999987
                },
                {
                    "name": "F2",
                    "midi": 41,
                    "time": 24.943808999999977,
                    "velocity": 0.984251968503937,
                    "duration": 0.6320221874999987
                },
                {
                    "name": "A#2",
                    "midi": 46,
                    "time": 25.617965999999974,
                    "velocity": 0.984251968503937,
                    "duration": 0.14044937499999932
                },
                {
                    "name": "A#2",
                    "midi": 46,
                    "time": 25.955044499999975,
                    "velocity": 0.984251968503937,
                    "duration": 0.14044937499999932
                },
                {
                    "name": "C3",
                    "midi": 48,
                    "time": 26.123583749999973,
                    "velocity": 0.984251968503937,
                    "duration": 0.14044937499999932
                },
                {
                    "name": "D3",
                    "midi": 50,
                    "time": 26.29212299999997,
                    "velocity": 0.984251968503937,
                    "duration": 0.14044937499999932
                },
                {
                    "name": "C3",
                    "midi": 48,
                    "time": 26.46066224999997,
                    "velocity": 0.984251968503937,
                    "duration": 0.14044937499999932
                },
                {
                    "name": "A#2",
                    "midi": 46,
                    "time": 26.62920149999997,
                    "velocity": 0.984251968503937,
                    "duration": 0.14044937499999932
                },
                {
                    "name": "A2",
                    "midi": 45,
                    "time": 26.797740749999967,
                    "velocity": 0.984251968503937,
                    "duration": 0.14044937499999932
                },
                {
                    "name": "G2",
                    "midi": 43,
                    "time": 26.966279999999966,
                    "velocity": 0.984251968503937,
                    "duration": 0.6320221874999987
                },
                {
                    "name": "E2",
                    "midi": 40,
                    "time": 27.640436999999963,
                    "velocity": 0.984251968503937,
                    "duration": 0.6320221874999987
                },
                {
                    "name": "A2",
                    "midi": 45,
                    "time": 28.31459399999996,
                    "velocity": 0.984251968503937,
                    "duration": 0.14044937499999932
                },
                {
                    "name": "A2",
                    "midi": 45,
                    "time": 28.65167249999996,
                    "velocity": 0.984251968503937,
                    "duration": 0.14044937499999932
                },
                {
                    "name": "A#2",
                    "midi": 46,
                    "time": 28.82021174999996,
                    "velocity": 0.984251968503937,
                    "duration": 0.14044937499999932
                },
                {
                    "name": "C#3",
                    "midi": 49,
                    "time": 28.988750999999958,
                    "velocity": 0.984251968503937,
                    "duration": 0.14044937499999932
                },
                {
                    "name": "A#2",
                    "midi": 46,
                    "time": 29.157290249999956,
                    "velocity": 0.984251968503937,
                    "duration": 0.14044937499999932
                },
                {
                    "name": "A2",
                    "midi": 45,
                    "time": 29.325829499999955,
                    "velocity": 0.984251968503937,
                    "duration": 0.14044937499999932
                },
                {
                    "name": "G2",
                    "midi": 43,
                    "time": 29.494368749999953,
                    "velocity": 0.984251968503937,
                    "duration": 0.14044937499999932
                },
                {
                    "name": "F2",
                    "midi": 41,
                    "time": 29.662907999999952,
                    "velocity": 0.984251968503937,
                    "duration": 0.6320221874999987
                },
                {
                    "name": "D2",
                    "midi": 38,
                    "time": 30.33706499999995,
                    "velocity": 0.984251968503937,
                    "duration": 0.6320221874999987
                },
                {
                    "name": "F#2",
                    "midi": 42,
                    "time": 31.011221999999947,
                    "velocity": 0.984251968503937,
                    "duration": 0.16853924999999848
                },
                {
                    "name": "G2",
                    "midi": 43,
                    "time": 31.179761249999945,
                    "velocity": 0.984251968503937,
                    "duration": 0.16853924999999848
                },
                {
                    "name": "A2",
                    "midi": 45,
                    "time": 31.348300499999944,
                    "velocity": 0.984251968503937,
                    "duration": 0.16853924999999848
                },
                {
                    "name": "G2",
                    "midi": 43,
                    "time": 31.516839749999942,
                    "velocity": 0.984251968503937,
                    "duration": 0.16853924999999848
                },
                {
                    "name": "F#2",
                    "midi": 42,
                    "time": 31.68537899999994,
                    "velocity": 0.984251968503937,
                    "duration": 0.16853924999999848
                },
                {
                    "name": "D2",
                    "midi": 38,
                    "time": 31.85391824999994,
                    "velocity": 0.984251968503937,
                    "duration": 0.16853924999999848
                },
                {
                    "name": "E2",
                    "midi": 40,
                    "time": 32.02245749999994,
                    "velocity": 0.984251968503937,
                    "duration": 0.16853925000000203
                },
                {
                    "name": "F#2",
                    "midi": 42,
                    "time": 32.19099674999994,
                    "velocity": 0.984251968503937,
                    "duration": 0.16853925000000203
                },
                {
                    "name": "G2",
                    "midi": 43,
                    "time": 32.35953599999994,
                    "velocity": 0.984251968503937,
                    "duration": 0.16853925000000203
                },
                {
                    "name": "F#2",
                    "midi": 42,
                    "time": 32.528075249999944,
                    "velocity": 0.984251968503937,
                    "duration": 0.16853925000000203
                },
                {
                    "name": "G2",
                    "midi": 43,
                    "time": 32.696614499999946,
                    "velocity": 0.984251968503937,
                    "duration": 0.16853925000000203
                },
                {
                    "name": "A2",
                    "midi": 45,
                    "time": 32.86515374999995,
                    "velocity": 0.984251968503937,
                    "duration": 0.16853925000000203
                },
                {
                    "name": "A#2",
                    "midi": 46,
                    "time": 33.03369299999995,
                    "velocity": 0.984251968503937,
                    "duration": 0.16853925000000203
                },
                {
                    "name": "A2",
                    "midi": 45,
                    "time": 33.20223224999995,
                    "velocity": 0.984251968503937,
                    "duration": 0.16853925000000203
                },
                {
                    "name": "G2",
                    "midi": 43,
                    "time": 33.370771499999954,
                    "velocity": 0.984251968503937,
                    "duration": 0.16853925000000203
                },
                {
                    "name": "F2",
                    "midi": 41,
                    "time": 33.539310749999956,
                    "velocity": 0.984251968503937,
                    "duration": 0.16853925000000203
                },
                {
                    "name": "E2",
                    "midi": 40,
                    "time": 33.70784999999996,
                    "velocity": 0.984251968503937,
                    "duration": 0.16853925000000203
                },
                {
                    "name": "F2",
                    "midi": 41,
                    "time": 33.87638924999996,
                    "velocity": 0.984251968503937,
                    "duration": 0.16853925000000203
                },
                {
                    "name": "G2",
                    "midi": 43,
                    "time": 34.04492849999996,
                    "velocity": 0.984251968503937,
                    "duration": 0.16853925000000203
                },
                {
                    "name": "F2",
                    "midi": 41,
                    "time": 34.213467749999964,
                    "velocity": 0.984251968503937,
                    "duration": 0.16853925000000203
                },
                {
                    "name": "E2",
                    "midi": 40,
                    "time": 34.382006999999966,
                    "velocity": 0.984251968503937,
                    "duration": 0.16853925000000203
                },
                {
                    "name": "C2",
                    "midi": 36,
                    "time": 34.55054624999997,
                    "velocity": 0.984251968503937,
                    "duration": 0.16853925000000203
                },
                {
                    "name": "D2",
                    "midi": 38,
                    "time": 34.71908549999997,
                    "velocity": 0.984251968503937,
                    "duration": 0.16853925000000203
                },
                {
                    "name": "E2",
                    "midi": 40,
                    "time": 34.88762474999997,
                    "velocity": 0.984251968503937,
                    "duration": 0.16853925000000203
                },
                {
                    "name": "F2",
                    "midi": 41,
                    "time": 35.056163999999974,
                    "velocity": 0.984251968503937,
                    "duration": 0.16853925000000203
                },
                {
                    "name": "E2",
                    "midi": 40,
                    "time": 35.224703249999976,
                    "velocity": 0.984251968503937,
                    "duration": 0.16853925000000203
                },
                {
                    "name": "F2",
                    "midi": 41,
                    "time": 35.39324249999998,
                    "velocity": 0.984251968503937,
                    "duration": 0.16853925000000203
                },
                {
                    "name": "G2",
                    "midi": 43,
                    "time": 35.56178174999998,
                    "velocity": 0.984251968503937,
                    "duration": 0.16853925000000203
                },
                {
                    "name": "A2",
                    "midi": 45,
                    "time": 35.73032099999998,
                    "velocity": 0.984251968503937,
                    "duration": 0.16853925000000203
                },
                {
                    "name": "G2",
                    "midi": 43,
                    "time": 35.898860249999984,
                    "velocity": 0.984251968503937,
                    "duration": 0.16853925000000203
                },
                {
                    "name": "F2",
                    "midi": 41,
                    "time": 36.067399499999986,
                    "velocity": 0.984251968503937,
                    "duration": 0.16853925000000203
                },
                {
                    "name": "E2",
                    "midi": 40,
                    "time": 36.23593874999999,
                    "velocity": 0.984251968503937,
                    "duration": 0.16853925000000203
                },
                {
                    "name": "D2",
                    "midi": 38,
                    "time": 36.40447799999999,
                    "velocity": 0.984251968503937,
                    "duration": 0.16853925000000203
                },
                {
                    "name": "E2",
                    "midi": 40,
                    "time": 36.57301724999999,
                    "velocity": 0.984251968503937,
                    "duration": 0.16853925000000203
                },
                {
                    "name": "F2",
                    "midi": 41,
                    "time": 36.741556499999994,
                    "velocity": 0.984251968503937,
                    "duration": 0.16853925000000203
                },
                {
                    "name": "E2",
                    "midi": 40,
                    "time": 36.910095749999996,
                    "velocity": 0.984251968503937,
                    "duration": 0.16853925000000203
                },
                {
                    "name": "D2",
                    "midi": 38,
                    "time": 37.078635,
                    "velocity": 0.984251968503937,
                    "duration": 0.16853925000000203
                },
                {
                    "name": "A#1",
                    "midi": 34,
                    "time": 37.24717425,
                    "velocity": 0.984251968503937,
                    "duration": 0.16853925000000203
                },
                {
                    "name": "C2",
                    "midi": 36,
                    "time": 37.4157135,
                    "velocity": 0.984251968503937,
                    "duration": 0.16853925000000203
                },
                {
                    "name": "D2",
                    "midi": 38,
                    "time": 37.584252750000005,
                    "velocity": 0.984251968503937,
                    "duration": 0.16853925000000203
                },
                {
                    "name": "E2",
                    "midi": 40,
                    "time": 37.75279200000001,
                    "velocity": 0.984251968503937,
                    "duration": 0.16853925000000203
                },
                {
                    "name": "D2",
                    "midi": 38,
                    "time": 37.92133125000001,
                    "velocity": 0.984251968503937,
                    "duration": 0.16853925000000203
                },
                {
                    "name": "E2",
                    "midi": 40,
                    "time": 38.08987050000001,
                    "velocity": 0.984251968503937,
                    "duration": 0.16853925000000203
                },
                {
                    "name": "F2",
                    "midi": 41,
                    "time": 38.25840975000001,
                    "velocity": 0.984251968503937,
                    "duration": 0.16853925000000203
                },
                {
                    "name": "G2",
                    "midi": 43,
                    "time": 38.426949000000015,
                    "velocity": 0.984251968503937,
                    "duration": 0.16853925000000203
                },
                {
                    "name": "F2",
                    "midi": 41,
                    "time": 38.59548825000002,
                    "velocity": 0.984251968503937,
                    "duration": 0.16853925000000203
                },
                {
                    "name": "E2",
                    "midi": 40,
                    "time": 38.76402750000002,
                    "velocity": 0.984251968503937,
                    "duration": 0.16853925000000203
                },
                {
                    "name": "D2",
                    "midi": 38,
                    "time": 38.93256675000002,
                    "velocity": 0.984251968503937,
                    "duration": 0.16853925000000203
                },
                {
                    "name": "C#2",
                    "midi": 37,
                    "time": 39.10110600000002,
                    "velocity": 0.984251968503937,
                    "duration": 0.16853925000000203
                },
                {
                    "name": "D2",
                    "midi": 38,
                    "time": 39.269645250000025,
                    "velocity": 0.984251968503937,
                    "duration": 0.16853925000000203
                },
                {
                    "name": "E2",
                    "midi": 40,
                    "time": 39.43818450000003,
                    "velocity": 0.984251968503937,
                    "duration": 0.16853925000000203
                },
                {
                    "name": "D2",
                    "midi": 38,
                    "time": 39.60672375000003,
                    "velocity": 0.984251968503937,
                    "duration": 0.16853925000000203
                },
                {
                    "name": "C#2",
                    "midi": 37,
                    "time": 39.77526300000003,
                    "velocity": 0.984251968503937,
                    "duration": 0.16853925000000203
                },
                {
                    "name": "A1",
                    "midi": 33,
                    "time": 39.94380225000003,
                    "velocity": 0.984251968503937,
                    "duration": 0.16853925000000203
                },
                {
                    "name": "A#1",
                    "midi": 34,
                    "time": 40.112341500000035,
                    "velocity": 0.984251968503937,
                    "duration": 0.16853925000000203
                },
                {
                    "name": "C#2",
                    "midi": 37,
                    "time": 40.28088075000004,
                    "velocity": 0.984251968503937,
                    "duration": 0.16853925000000203
                },
                {
                    "name": "D2",
                    "midi": 38,
                    "time": 40.44942000000004,
                    "velocity": 0.984251968503937,
                    "duration": 1.348314000000002
                },
                {
                    "name": "D3",
                    "midi": 50,
                    "time": 56.62918800000004,
                    "velocity": 0.984251968503937,
                    "duration": 0.674157000000001
                },
                {
                    "name": "A2",
                    "midi": 45,
                    "time": 57.30334500000004,
                    "velocity": 0.984251968503937,
                    "duration": 0.674157000000001
                },
                {
                    "name": "E3",
                    "midi": 52,
                    "time": 57.977502000000044,
                    "velocity": 0.984251968503937,
                    "duration": 0.674157000000001
                },
                {
                    "name": "A2",
                    "midi": 45,
                    "time": 58.651659000000045,
                    "velocity": 0.984251968503937,
                    "duration": 0.674157000000001
                },
                {
                    "name": "D3",
                    "midi": 50,
                    "time": 59.325816000000046,
                    "velocity": 0.984251968503937,
                    "duration": 0.674157000000001
                },
                {
                    "name": "A2",
                    "midi": 45,
                    "time": 59.99997300000005,
                    "velocity": 0.984251968503937,
                    "duration": 0.674157000000001
                },
                {
                    "name": "E3",
                    "midi": 52,
                    "time": 60.67413000000005,
                    "velocity": 0.984251968503937,
                    "duration": 0.674157000000001
                },
                {
                    "name": "A2",
                    "midi": 45,
                    "time": 61.34828700000005,
                    "velocity": 0.984251968503937,
                    "duration": 0.674157000000001
                },
                {
                    "name": "D3",
                    "midi": 50,
                    "time": 62.02244400000005,
                    "velocity": 0.984251968503937,
                    "duration": 0.14044937500000287
                },
                {
                    "name": "D3",
                    "midi": 50,
                    "time": 62.359522500000054,
                    "velocity": 0.984251968503937,
                    "duration": 0.14044937500000287
                },
                {
                    "name": "E3",
                    "midi": 52,
                    "time": 62.528061750000056,
                    "velocity": 0.984251968503937,
                    "duration": 0.14044937500000287
                },
                {
                    "name": "F3",
                    "midi": 53,
                    "time": 62.69660100000006,
                    "velocity": 0.984251968503937,
                    "duration": 0.14044937500000287
                },
                {
                    "name": "E3",
                    "midi": 52,
                    "time": 62.86514025000006,
                    "velocity": 0.984251968503937,
                    "duration": 0.14044937500000287
                },
                {
                    "name": "D3",
                    "midi": 50,
                    "time": 63.03367950000006,
                    "velocity": 0.984251968503937,
                    "duration": 0.14044937500000287
                },
                {
                    "name": "C3",
                    "midi": 48,
                    "time": 63.202218750000064,
                    "velocity": 0.984251968503937,
                    "duration": 0.14044937500000287
                },
                {
                    "name": "A#2",
                    "midi": 46,
                    "time": 63.370758000000066,
                    "velocity": 0.984251968503937,
                    "duration": 0.6320221874999987
                },
                {
                    "name": "G2",
                    "midi": 43,
                    "time": 64.04491500000006,
                    "velocity": 0.984251968503937,
                    "duration": 0.6320221874999987
                },
                {
                    "name": "C3",
                    "midi": 48,
                    "time": 64.71907200000005,
                    "velocity": 0.984251968503937,
                    "duration": 0.14044937500000287
                },
                {
                    "name": "C3",
                    "midi": 48,
                    "time": 65.05615050000006,
                    "velocity": 0.984251968503937,
                    "duration": 0.14044937500000287
                },
                {
                    "name": "D3",
                    "midi": 50,
                    "time": 65.22468975000007,
                    "velocity": 0.984251968503937,
                    "duration": 0.14044937500000287
                },
                {
                    "name": "E3",
                    "midi": 52,
                    "time": 65.39322900000008,
                    "velocity": 0.984251968503937,
                    "duration": 0.14044937500000287
                },
                {
                    "name": "D3",
                    "midi": 50,
                    "time": 65.56176825000009,
                    "velocity": 0.984251968503937,
                    "duration": 0.14044937500000287
                },
                {
                    "name": "C3",
                    "midi": 48,
                    "time": 65.7303075000001,
                    "velocity": 0.984251968503937,
                    "duration": 0.14044937500000287
                },
                {
                    "name": "A#2",
                    "midi": 46,
                    "time": 65.8988467500001,
                    "velocity": 0.984251968503937,
                    "duration": 0.14044937500000287
                },
                {
                    "name": "A2",
                    "midi": 45,
                    "time": 66.06738600000011,
                    "velocity": 0.984251968503937,
                    "duration": 0.6320221874999987
                },
                {
                    "name": "F2",
                    "midi": 41,
                    "time": 66.7415430000001,
                    "velocity": 0.984251968503937,
                    "duration": 0.6320221874999987
                },
                {
                    "name": "A#2",
                    "midi": 46,
                    "time": 67.4157000000001,
                    "velocity": 0.984251968503937,
                    "duration": 0.14044937500000287
                },
                {
                    "name": "A#2",
                    "midi": 46,
                    "time": 67.7527785000001,
                    "velocity": 0.984251968503937,
                    "duration": 0.14044937500000287
                },
                {
                    "name": "C3",
                    "midi": 48,
                    "time": 67.92131775000011,
                    "velocity": 0.984251968503937,
                    "duration": 0.14044937500000287
                },
                {
                    "name": "D3",
                    "midi": 50,
                    "time": 68.08985700000012,
                    "velocity": 0.984251968503937,
                    "duration": 0.14044937500000287
                },
                {
                    "name": "C3",
                    "midi": 48,
                    "time": 68.25839625000013,
                    "velocity": 0.984251968503937,
                    "duration": 0.14044937500000287
                },
                {
                    "name": "A#2",
                    "midi": 46,
                    "time": 68.42693550000014,
                    "velocity": 0.984251968503937,
                    "duration": 0.14044937500000287
                },
                {
                    "name": "A2",
                    "midi": 45,
                    "time": 68.59547475000015,
                    "velocity": 0.984251968503937,
                    "duration": 0.14044937500000287
                },
                {
                    "name": "G2",
                    "midi": 43,
                    "time": 68.76401400000016,
                    "velocity": 0.984251968503937,
                    "duration": 0.6320221874999987
                },
                {
                    "name": "E2",
                    "midi": 40,
                    "time": 69.43817100000015,
                    "velocity": 0.984251968503937,
                    "duration": 0.6320221874999987
                },
                {
                    "name": "A2",
                    "midi": 45,
                    "time": 70.11232800000015,
                    "velocity": 0.984251968503937,
                    "duration": 0.14044937500000287
                },
                {
                    "name": "A2",
                    "midi": 45,
                    "time": 70.44940650000015,
                    "velocity": 0.984251968503937,
                    "duration": 0.14044937500000287
                },
                {
                    "name": "A#2",
                    "midi": 46,
                    "time": 70.61794575000016,
                    "velocity": 0.984251968503937,
                    "duration": 0.14044937500000287
                },
                {
                    "name": "C#3",
                    "midi": 49,
                    "time": 70.78648500000017,
                    "velocity": 0.984251968503937,
                    "duration": 0.14044937500000287
                },
                {
                    "name": "A#2",
                    "midi": 46,
                    "time": 70.95502425000018,
                    "velocity": 0.984251968503937,
                    "duration": 0.14044937500000287
                },
                {
                    "name": "A2",
                    "midi": 45,
                    "time": 71.12356350000019,
                    "velocity": 0.984251968503937,
                    "duration": 0.14044937500000287
                },
                {
                    "name": "G2",
                    "midi": 43,
                    "time": 71.2921027500002,
                    "velocity": 0.984251968503937,
                    "duration": 0.14044937500000287
                },
                {
                    "name": "F2",
                    "midi": 41,
                    "time": 71.4606420000002,
                    "velocity": 0.984251968503937,
                    "duration": 0.6320221874999987
                },
                {
                    "name": "D2",
                    "midi": 38,
                    "time": 72.1347990000002,
                    "velocity": 0.984251968503937,
                    "duration": 0.6320221874999987
                },
                {
                    "name": "F#2",
                    "midi": 42,
                    "time": 72.8089560000002,
                    "velocity": 0.984251968503937,
                    "duration": 0.16853924999999492
                },
                {
                    "name": "G2",
                    "midi": 43,
                    "time": 72.97749525000019,
                    "velocity": 0.984251968503937,
                    "duration": 0.16853924999999492
                },
                {
                    "name": "A2",
                    "midi": 45,
                    "time": 73.14603450000018,
                    "velocity": 0.984251968503937,
                    "duration": 0.16853924999999492
                },
                {
                    "name": "G2",
                    "midi": 43,
                    "time": 73.31457375000018,
                    "velocity": 0.984251968503937,
                    "duration": 0.16853924999999492
                },
                {
                    "name": "F#2",
                    "midi": 42,
                    "time": 73.48311300000017,
                    "velocity": 0.984251968503937,
                    "duration": 0.16853924999999492
                },
                {
                    "name": "D2",
                    "midi": 38,
                    "time": 73.65165225000017,
                    "velocity": 0.984251968503937,
                    "duration": 0.16853924999999492
                },
                {
                    "name": "E2",
                    "midi": 40,
                    "time": 73.82019150000016,
                    "velocity": 0.984251968503937,
                    "duration": 0.16853924999999492
                },
                {
                    "name": "F#2",
                    "midi": 42,
                    "time": 73.98873075000016,
                    "velocity": 0.984251968503937,
                    "duration": 0.16853924999999492
                },
                {
                    "name": "G2",
                    "midi": 43,
                    "time": 74.15727000000015,
                    "velocity": 0.984251968503937,
                    "duration": 0.16853924999999492
                },
                {
                    "name": "F#2",
                    "midi": 42,
                    "time": 74.32580925000015,
                    "velocity": 0.984251968503937,
                    "duration": 0.16853924999999492
                },
                {
                    "name": "G2",
                    "midi": 43,
                    "time": 74.49434850000014,
                    "velocity": 0.984251968503937,
                    "duration": 0.16853924999999492
                },
                {
                    "name": "A2",
                    "midi": 45,
                    "time": 74.66288775000014,
                    "velocity": 0.984251968503937,
                    "duration": 0.16853924999999492
                },
                {
                    "name": "A#2",
                    "midi": 46,
                    "time": 74.83142700000013,
                    "velocity": 0.984251968503937,
                    "duration": 0.16853924999999492
                },
                {
                    "name": "A2",
                    "midi": 45,
                    "time": 74.99996625000013,
                    "velocity": 0.984251968503937,
                    "duration": 0.16853924999999492
                },
                {
                    "name": "G2",
                    "midi": 43,
                    "time": 75.16850550000012,
                    "velocity": 0.984251968503937,
                    "duration": 0.16853924999999492
                },
                {
                    "name": "F2",
                    "midi": 41,
                    "time": 75.33704475000012,
                    "velocity": 0.984251968503937,
                    "duration": 0.16853924999999492
                },
                {
                    "name": "E2",
                    "midi": 40,
                    "time": 75.50558400000011,
                    "velocity": 0.984251968503937,
                    "duration": 0.16853924999999492
                },
                {
                    "name": "F2",
                    "midi": 41,
                    "time": 75.67412325000011,
                    "velocity": 0.984251968503937,
                    "duration": 0.16853924999999492
                },
                {
                    "name": "G2",
                    "midi": 43,
                    "time": 75.8426625000001,
                    "velocity": 0.984251968503937,
                    "duration": 0.16853924999999492
                },
                {
                    "name": "F2",
                    "midi": 41,
                    "time": 76.0112017500001,
                    "velocity": 0.984251968503937,
                    "duration": 0.16853924999999492
                },
                {
                    "name": "E2",
                    "midi": 40,
                    "time": 76.17974100000009,
                    "velocity": 0.984251968503937,
                    "duration": 0.16853924999999492
                },
                {
                    "name": "C2",
                    "midi": 36,
                    "time": 76.34828025000009,
                    "velocity": 0.984251968503937,
                    "duration": 0.16853924999999492
                },
                {
                    "name": "D2",
                    "midi": 38,
                    "time": 76.51681950000008,
                    "velocity": 0.984251968503937,
                    "duration": 0.16853924999999492
                },
                {
                    "name": "E2",
                    "midi": 40,
                    "time": 76.68535875000008,
                    "velocity": 0.984251968503937,
                    "duration": 0.16853924999999492
                },
                {
                    "name": "F2",
                    "midi": 41,
                    "time": 76.85389800000007,
                    "velocity": 0.984251968503937,
                    "duration": 0.16853924999999492
                },
                {
                    "name": "E2",
                    "midi": 40,
                    "time": 77.02243725000007,
                    "velocity": 0.984251968503937,
                    "duration": 0.16853924999999492
                },
                {
                    "name": "F2",
                    "midi": 41,
                    "time": 77.19097650000006,
                    "velocity": 0.984251968503937,
                    "duration": 0.16853924999999492
                },
                {
                    "name": "G2",
                    "midi": 43,
                    "time": 77.35951575000006,
                    "velocity": 0.984251968503937,
                    "duration": 0.16853924999999492
                },
                {
                    "name": "A2",
                    "midi": 45,
                    "time": 77.52805500000005,
                    "velocity": 0.984251968503937,
                    "duration": 0.16853924999999492
                },
                {
                    "name": "G2",
                    "midi": 43,
                    "time": 77.69659425000005,
                    "velocity": 0.984251968503937,
                    "duration": 0.16853924999999492
                },
                {
                    "name": "F2",
                    "midi": 41,
                    "time": 77.86513350000004,
                    "velocity": 0.984251968503937,
                    "duration": 0.16853924999999492
                },
                {
                    "name": "E2",
                    "midi": 40,
                    "time": 78.03367275000004,
                    "velocity": 0.984251968503937,
                    "duration": 0.16853924999999492
                },
                {
                    "name": "D2",
                    "midi": 38,
                    "time": 78.20221200000003,
                    "velocity": 0.984251968503937,
                    "duration": 0.16853924999999492
                },
                {
                    "name": "E2",
                    "midi": 40,
                    "time": 78.37075125000003,
                    "velocity": 0.984251968503937,
                    "duration": 0.16853924999999492
                },
                {
                    "name": "F2",
                    "midi": 41,
                    "time": 78.53929050000002,
                    "velocity": 0.984251968503937,
                    "duration": 0.16853924999999492
                },
                {
                    "name": "E2",
                    "midi": 40,
                    "time": 78.70782975000002,
                    "velocity": 0.984251968503937,
                    "duration": 0.16853924999999492
                },
                {
                    "name": "D2",
                    "midi": 38,
                    "time": 78.87636900000001,
                    "velocity": 0.984251968503937,
                    "duration": 0.16853924999999492
                },
                {
                    "name": "A#1",
                    "midi": 34,
                    "time": 79.04490825,
                    "velocity": 0.984251968503937,
                    "duration": 0.16853924999999492
                },
                {
                    "name": "C2",
                    "midi": 36,
                    "time": 79.2134475,
                    "velocity": 0.984251968503937,
                    "duration": 0.16853924999999492
                },
                {
                    "name": "D2",
                    "midi": 38,
                    "time": 79.38198675,
                    "velocity": 0.984251968503937,
                    "duration": 0.16853924999999492
                },
                {
                    "name": "E2",
                    "midi": 40,
                    "time": 79.55052599999999,
                    "velocity": 0.984251968503937,
                    "duration": 0.16853924999999492
                },
                {
                    "name": "D2",
                    "midi": 38,
                    "time": 79.71906524999999,
                    "velocity": 0.984251968503937,
                    "duration": 0.16853924999999492
                },
                {
                    "name": "E2",
                    "midi": 40,
                    "time": 79.88760449999998,
                    "velocity": 0.984251968503937,
                    "duration": 0.16853924999999492
                },
                {
                    "name": "F2",
                    "midi": 41,
                    "time": 80.05614374999998,
                    "velocity": 0.984251968503937,
                    "duration": 0.16853924999999492
                },
                {
                    "name": "G2",
                    "midi": 43,
                    "time": 80.22468299999997,
                    "velocity": 0.984251968503937,
                    "duration": 0.16853924999999492
                },
                {
                    "name": "F2",
                    "midi": 41,
                    "time": 80.39322224999997,
                    "velocity": 0.984251968503937,
                    "duration": 0.16853924999999492
                },
                {
                    "name": "E2",
                    "midi": 40,
                    "time": 80.56176149999996,
                    "velocity": 0.984251968503937,
                    "duration": 0.16853924999999492
                },
                {
                    "name": "D2",
                    "midi": 38,
                    "time": 80.73030074999996,
                    "velocity": 0.984251968503937,
                    "duration": 0.16853924999999492
                },
                {
                    "name": "C#2",
                    "midi": 37,
                    "time": 80.89883999999995,
                    "velocity": 0.984251968503937,
                    "duration": 0.16853924999999492
                },
                {
                    "name": "D2",
                    "midi": 38,
                    "time": 81.06737924999995,
                    "velocity": 0.984251968503937,
                    "duration": 0.16853924999999492
                },
                {
                    "name": "E2",
                    "midi": 40,
                    "time": 81.23591849999994,
                    "velocity": 0.984251968503937,
                    "duration": 0.16853924999999492
                },
                {
                    "name": "D2",
                    "midi": 38,
                    "time": 81.40445774999993,
                    "velocity": 0.984251968503937,
                    "duration": 0.16853924999999492
                },
                {
                    "name": "C#2",
                    "midi": 37,
                    "time": 81.57299699999993,
                    "velocity": 0.984251968503937,
                    "duration": 0.16853924999999492
                },
                {
                    "name": "A1",
                    "midi": 33,
                    "time": 81.74153624999992,
                    "velocity": 0.984251968503937,
                    "duration": 0.16853924999999492
                },
                {
                    "name": "A#1",
                    "midi": 34,
                    "time": 81.91007549999992,
                    "velocity": 0.984251968503937,
                    "duration": 0.16853924999999492
                },
                {
                    "name": "C#2",
                    "midi": 37,
                    "time": 82.07861474999991,
                    "velocity": 0.984251968503937,
                    "duration": 0.16853924999999492
                },
                {
                    "name": "D2",
                    "midi": 38,
                    "time": 82.24715399999991,
                    "velocity": 0.984251968503937,
                    "duration": 1.348314000000002
                }
            ],
            "controlChanges": {},
            "id": 4,
            "instrumentNumber": 19,
            "instrument": "church organ",
            "instrumentFamily": "organ",
            "channelNumber": 3,
            "isPercussion": false
        },
        {
            "startTime": 14.831453999999997,
            "duration": 82.92131100000002,
            "length": 130,
            "notes": [
                {
                    "name": "D4",
                    "midi": 62,
                    "time": 14.831453999999997,
                    "velocity": 0.7086614173228346,
                    "duration": 1.095505124999999
                },
                {
                    "name": "E4",
                    "midi": 64,
                    "time": 16.179767999999996,
                    "velocity": 0.7086614173228346,
                    "duration": 1.095505124999999
                },
                {
                    "name": "D4",
                    "midi": 62,
                    "time": 17.528081999999994,
                    "velocity": 0.7086614173228346,
                    "duration": 0.674157000000001
                },
                {
                    "name": "F4",
                    "midi": 65,
                    "time": 18.202238999999995,
                    "velocity": 0.7086614173228346,
                    "duration": 0.674157000000001
                },
                {
                    "name": "E4",
                    "midi": 64,
                    "time": 18.876395999999996,
                    "velocity": 0.7086614173228346,
                    "duration": 1.095505124999999
                },
                {
                    "name": "A4",
                    "midi": 69,
                    "time": 31.011221999999993,
                    "velocity": 0.7086614173228346,
                    "duration": 0.3370785000000005
                },
                {
                    "name": "F#4",
                    "midi": 66,
                    "time": 31.011221999999993,
                    "velocity": 0.7086614173228346,
                    "duration": 0.3370785000000005
                },
                {
                    "name": "F#4",
                    "midi": 66,
                    "time": 31.348300499999993,
                    "velocity": 0.7086614173228346,
                    "duration": 0.3370785000000005
                },
                {
                    "name": "D4",
                    "midi": 62,
                    "time": 31.348300499999993,
                    "velocity": 0.7086614173228346,
                    "duration": 0.3370785000000005
                },
                {
                    "name": "C5",
                    "midi": 72,
                    "time": 31.685378999999994,
                    "velocity": 0.7086614173228346,
                    "duration": 0.9831456250000024
                },
                {
                    "name": "A4",
                    "midi": 69,
                    "time": 31.685378999999994,
                    "velocity": 0.7086614173228346,
                    "duration": 0.9831456250000024
                },
                {
                    "name": "A#4",
                    "midi": 70,
                    "time": 32.696614499999995,
                    "velocity": 0.7086614173228346,
                    "duration": 0.16853925000000203
                },
                {
                    "name": "G4",
                    "midi": 67,
                    "time": 32.696614499999995,
                    "velocity": 0.7086614173228346,
                    "duration": 0.16853925000000203
                },
                {
                    "name": "A4",
                    "midi": 69,
                    "time": 32.86515375,
                    "velocity": 0.7086614173228346,
                    "duration": 0.16853925000000203
                },
                {
                    "name": "F#4",
                    "midi": 66,
                    "time": 32.86515375,
                    "velocity": 0.7086614173228346,
                    "duration": 0.16853925000000203
                },
                {
                    "name": "A#4",
                    "midi": 70,
                    "time": 33.033693,
                    "velocity": 0.7086614173228346,
                    "duration": 0.16853925000000203
                },
                {
                    "name": "G4",
                    "midi": 67,
                    "time": 33.033693,
                    "velocity": 0.7086614173228346,
                    "duration": 0.16853925000000203
                },
                {
                    "name": "C5",
                    "midi": 72,
                    "time": 33.20223225,
                    "velocity": 0.7086614173228346,
                    "duration": 0.16853925000000203
                },
                {
                    "name": "A4",
                    "midi": 69,
                    "time": 33.20223225,
                    "velocity": 0.7086614173228346,
                    "duration": 0.16853925000000203
                },
                {
                    "name": "A#4",
                    "midi": 70,
                    "time": 33.370771500000004,
                    "velocity": 0.7086614173228346,
                    "duration": 0.16853925000000203
                },
                {
                    "name": "G4",
                    "midi": 67,
                    "time": 33.370771500000004,
                    "velocity": 0.7086614173228346,
                    "duration": 0.16853925000000203
                },
                {
                    "name": "A4",
                    "midi": 69,
                    "time": 33.539310750000006,
                    "velocity": 0.7086614173228346,
                    "duration": 0.16853925000000203
                },
                {
                    "name": "F#4",
                    "midi": 66,
                    "time": 33.539310750000006,
                    "velocity": 0.7086614173228346,
                    "duration": 0.16853925000000203
                },
                {
                    "name": "G4",
                    "midi": 67,
                    "time": 33.70785000000001,
                    "velocity": 0.7086614173228346,
                    "duration": 0.33707849999999695
                },
                {
                    "name": "E4",
                    "midi": 64,
                    "time": 33.70785000000001,
                    "velocity": 0.7086614173228346,
                    "duration": 0.33707849999999695
                },
                {
                    "name": "E4",
                    "midi": 64,
                    "time": 34.044928500000005,
                    "velocity": 0.7086614173228346,
                    "duration": 0.33707849999999695
                },
                {
                    "name": "C4",
                    "midi": 60,
                    "time": 34.044928500000005,
                    "velocity": 0.7086614173228346,
                    "duration": 0.33707849999999695
                },
                {
                    "name": "G4",
                    "midi": 67,
                    "time": 34.382007,
                    "velocity": 0.7086614173228346,
                    "duration": 0.33707849999999695
                },
                {
                    "name": "E4",
                    "midi": 64,
                    "time": 34.382007,
                    "velocity": 0.7086614173228346,
                    "duration": 0.33707849999999695
                },
                {
                    "name": "G4",
                    "midi": 67,
                    "time": 34.7190855,
                    "velocity": 0.3543307086614173,
                    "duration": 0.6460671250000019
                },
                {
                    "name": "A#4",
                    "midi": 70,
                    "time": 34.7190855,
                    "velocity": 0.3543307086614173,
                    "duration": 0.6460671250000019
                },
                {
                    "name": "A4",
                    "midi": 69,
                    "time": 35.3932425,
                    "velocity": 0.5669291338582677,
                    "duration": 0.16853925000000203
                },
                {
                    "name": "F4",
                    "midi": 65,
                    "time": 35.3932425,
                    "velocity": 0.5669291338582677,
                    "duration": 0.16853925000000203
                },
                {
                    "name": "G4",
                    "midi": 67,
                    "time": 35.56178175,
                    "velocity": 0.5669291338582677,
                    "duration": 0.16853925000000203
                },
                {
                    "name": "E4",
                    "midi": 64,
                    "time": 35.56178175,
                    "velocity": 0.5669291338582677,
                    "duration": 0.16853925000000203
                },
                {
                    "name": "A4",
                    "midi": 69,
                    "time": 35.730321,
                    "velocity": 0.5669291338582677,
                    "duration": 0.3089886249999978
                },
                {
                    "name": "F4",
                    "midi": 65,
                    "time": 35.730321,
                    "velocity": 0.5669291338582677,
                    "duration": 0.3089886249999978
                },
                {
                    "name": "F4",
                    "midi": 65,
                    "time": 36.0673995,
                    "velocity": 0.7086614173228346,
                    "duration": 0.3089886249999978
                },
                {
                    "name": "C4",
                    "midi": 60,
                    "time": 36.0673995,
                    "velocity": 0.7086614173228346,
                    "duration": 0.3089886249999978
                },
                {
                    "name": "F4",
                    "midi": 65,
                    "time": 36.404478,
                    "velocity": 0.7086614173228346,
                    "duration": 0.33707849999999695
                },
                {
                    "name": "D4",
                    "midi": 62,
                    "time": 36.404478,
                    "velocity": 0.7086614173228346,
                    "duration": 0.33707849999999695
                },
                {
                    "name": "D4",
                    "midi": 62,
                    "time": 36.741556499999994,
                    "velocity": 0.7086614173228346,
                    "duration": 0.33707849999999695
                },
                {
                    "name": "A#3",
                    "midi": 58,
                    "time": 36.741556499999994,
                    "velocity": 0.7086614173228346,
                    "duration": 0.33707849999999695
                },
                {
                    "name": "A4",
                    "midi": 69,
                    "time": 37.07863499999999,
                    "velocity": 0.7086614173228346,
                    "duration": 0.9831456249999988
                },
                {
                    "name": "F4",
                    "midi": 65,
                    "time": 37.07863499999999,
                    "velocity": 0.7086614173228346,
                    "duration": 0.9831456249999988
                },
                {
                    "name": "E4",
                    "midi": 64,
                    "time": 38.08987049999999,
                    "velocity": 0.7086614173228346,
                    "duration": 0.16853925000000203
                },
                {
                    "name": "G4",
                    "midi": 67,
                    "time": 38.08987049999999,
                    "velocity": 0.7086614173228346,
                    "duration": 0.16853925000000203
                },
                {
                    "name": "F4",
                    "midi": 65,
                    "time": 38.25840974999999,
                    "velocity": 0.7086614173228346,
                    "duration": 0.16853925000000203
                },
                {
                    "name": "D4",
                    "midi": 62,
                    "time": 38.25840974999999,
                    "velocity": 0.7086614173228346,
                    "duration": 0.16853925000000203
                },
                {
                    "name": "G4",
                    "midi": 67,
                    "time": 38.42694899999999,
                    "velocity": 0.7086614173228346,
                    "duration": 0.16853925000000203
                },
                {
                    "name": "E4",
                    "midi": 64,
                    "time": 38.42694899999999,
                    "velocity": 0.7086614173228346,
                    "duration": 0.16853925000000203
                },
                {
                    "name": "E4",
                    "midi": 64,
                    "time": 38.595488249999995,
                    "velocity": 0.7086614173228346,
                    "duration": 0.16853925000000203
                },
                {
                    "name": "A#3",
                    "midi": 58,
                    "time": 38.595488249999995,
                    "velocity": 0.7086614173228346,
                    "duration": 0.16853925000000203
                },
                {
                    "name": "D4",
                    "midi": 62,
                    "time": 38.7640275,
                    "velocity": 0.7086614173228346,
                    "duration": 0.16853925000000203
                },
                {
                    "name": "F4",
                    "midi": 65,
                    "time": 38.7640275,
                    "velocity": 0.7086614173228346,
                    "duration": 0.16853925000000203
                },
                {
                    "name": "G4",
                    "midi": 67,
                    "time": 38.93256675,
                    "velocity": 0.7086614173228346,
                    "duration": 0.16853925000000203
                },
                {
                    "name": "E4",
                    "midi": 64,
                    "time": 38.93256675,
                    "velocity": 0.7086614173228346,
                    "duration": 0.16853925000000203
                },
                {
                    "name": "E4",
                    "midi": 64,
                    "time": 39.101106,
                    "velocity": 0.7086614173228346,
                    "duration": 0.33707849999999695
                },
                {
                    "name": "C#4",
                    "midi": 61,
                    "time": 39.101106,
                    "velocity": 0.7086614173228346,
                    "duration": 0.33707849999999695
                },
                {
                    "name": "A3",
                    "midi": 57,
                    "time": 39.4381845,
                    "velocity": 0.7086614173228346,
                    "duration": 0.33707849999999695
                },
                {
                    "name": "C#4",
                    "midi": 61,
                    "time": 39.4381845,
                    "velocity": 0.7086614173228346,
                    "duration": 0.33707849999999695
                },
                {
                    "name": "E4",
                    "midi": 64,
                    "time": 39.775262999999995,
                    "velocity": 0.47244094488188976,
                    "duration": 0.9831456249999988
                },
                {
                    "name": "C#4",
                    "midi": 61,
                    "time": 39.775262999999995,
                    "velocity": 0.47244094488188976,
                    "duration": 0.9831456249999988
                },
                {
                    "name": "D5",
                    "midi": 74,
                    "time": 40.78649849999999,
                    "velocity": 0.3543307086614173,
                    "duration": 0.33707849999999695
                },
                {
                    "name": "F4",
                    "midi": 65,
                    "time": 40.78649849999999,
                    "velocity": 0.3543307086614173,
                    "duration": 0.33707849999999695
                },
                {
                    "name": "D4",
                    "midi": 62,
                    "time": 56.629187999999985,
                    "velocity": 0.7086614173228346,
                    "duration": 1.0955051250000025
                },
                {
                    "name": "E4",
                    "midi": 64,
                    "time": 57.97750199999999,
                    "velocity": 0.7086614173228346,
                    "duration": 1.0955051250000025
                },
                {
                    "name": "D4",
                    "midi": 62,
                    "time": 59.32581599999999,
                    "velocity": 0.7086614173228346,
                    "duration": 0.674157000000001
                },
                {
                    "name": "F4",
                    "midi": 65,
                    "time": 59.99997299999999,
                    "velocity": 0.7086614173228346,
                    "duration": 0.674157000000001
                },
                {
                    "name": "E4",
                    "midi": 64,
                    "time": 60.67412999999999,
                    "velocity": 0.7086614173228346,
                    "duration": 1.0955051250000025
                },
                {
                    "name": "A4",
                    "midi": 69,
                    "time": 72.808956,
                    "velocity": 0.7086614173228346,
                    "duration": 0.33707850000000406
                },
                {
                    "name": "F#4",
                    "midi": 66,
                    "time": 72.808956,
                    "velocity": 0.7086614173228346,
                    "duration": 0.33707850000000406
                },
                {
                    "name": "F#4",
                    "midi": 66,
                    "time": 73.1460345,
                    "velocity": 0.7086614173228346,
                    "duration": 0.33707850000000406
                },
                {
                    "name": "D4",
                    "midi": 62,
                    "time": 73.1460345,
                    "velocity": 0.7086614173228346,
                    "duration": 0.33707850000000406
                },
                {
                    "name": "C5",
                    "midi": 72,
                    "time": 73.483113,
                    "velocity": 0.7086614173228346,
                    "duration": 0.9831456250000059
                },
                {
                    "name": "A4",
                    "midi": 69,
                    "time": 73.483113,
                    "velocity": 0.7086614173228346,
                    "duration": 0.9831456250000059
                },
                {
                    "name": "A#4",
                    "midi": 70,
                    "time": 74.49434850000002,
                    "velocity": 0.7086614173228346,
                    "duration": 0.16853924999999492
                },
                {
                    "name": "G4",
                    "midi": 67,
                    "time": 74.49434850000002,
                    "velocity": 0.7086614173228346,
                    "duration": 0.16853924999999492
                },
                {
                    "name": "A4",
                    "midi": 69,
                    "time": 74.66288775000001,
                    "velocity": 0.7086614173228346,
                    "duration": 0.16853924999999492
                },
                {
                    "name": "F#4",
                    "midi": 66,
                    "time": 74.66288775000001,
                    "velocity": 0.7086614173228346,
                    "duration": 0.16853924999999492
                },
                {
                    "name": "A#4",
                    "midi": 70,
                    "time": 74.831427,
                    "velocity": 0.7086614173228346,
                    "duration": 0.16853924999999492
                },
                {
                    "name": "G4",
                    "midi": 67,
                    "time": 74.831427,
                    "velocity": 0.7086614173228346,
                    "duration": 0.16853924999999492
                },
                {
                    "name": "C5",
                    "midi": 72,
                    "time": 74.99996625,
                    "velocity": 0.7086614173228346,
                    "duration": 0.16853924999999492
                },
                {
                    "name": "A4",
                    "midi": 69,
                    "time": 74.99996625,
                    "velocity": 0.7086614173228346,
                    "duration": 0.16853924999999492
                },
                {
                    "name": "A#4",
                    "midi": 70,
                    "time": 75.1685055,
                    "velocity": 0.7086614173228346,
                    "duration": 0.16853924999999492
                },
                {
                    "name": "G4",
                    "midi": 67,
                    "time": 75.1685055,
                    "velocity": 0.7086614173228346,
                    "duration": 0.16853924999999492
                },
                {
                    "name": "A4",
                    "midi": 69,
                    "time": 75.33704474999999,
                    "velocity": 0.7086614173228346,
                    "duration": 0.16853924999999492
                },
                {
                    "name": "F#4",
                    "midi": 66,
                    "time": 75.33704474999999,
                    "velocity": 0.7086614173228346,
                    "duration": 0.16853924999999492
                },
                {
                    "name": "G4",
                    "midi": 67,
                    "time": 75.50558399999998,
                    "velocity": 0.7086614173228346,
                    "duration": 0.33707850000000406
                },
                {
                    "name": "E4",
                    "midi": 64,
                    "time": 75.50558399999998,
                    "velocity": 0.7086614173228346,
                    "duration": 0.33707850000000406
                },
                {
                    "name": "E4",
                    "midi": 64,
                    "time": 75.84266249999999,
                    "velocity": 0.7086614173228346,
                    "duration": 0.33707850000000406
                },
                {
                    "name": "C4",
                    "midi": 60,
                    "time": 75.84266249999999,
                    "velocity": 0.7086614173228346,
                    "duration": 0.33707850000000406
                },
                {
                    "name": "G4",
                    "midi": 67,
                    "time": 76.17974099999999,
                    "velocity": 0.7086614173228346,
                    "duration": 0.33707850000000406
                },
                {
                    "name": "E4",
                    "midi": 64,
                    "time": 76.17974099999999,
                    "velocity": 0.7086614173228346,
                    "duration": 0.33707850000000406
                },
                {
                    "name": "G4",
                    "midi": 67,
                    "time": 76.5168195,
                    "velocity": 0.3543307086614173,
                    "duration": 0.6460671250000019
                },
                {
                    "name": "A#4",
                    "midi": 70,
                    "time": 76.5168195,
                    "velocity": 0.3543307086614173,
                    "duration": 0.6460671250000019
                },
                {
                    "name": "A4",
                    "midi": 69,
                    "time": 77.1909765,
                    "velocity": 0.5669291338582677,
                    "duration": 0.16853924999999492
                },
                {
                    "name": "F4",
                    "midi": 65,
                    "time": 77.1909765,
                    "velocity": 0.5669291338582677,
                    "duration": 0.16853924999999492
                },
                {
                    "name": "G4",
                    "midi": 67,
                    "time": 77.35951575,
                    "velocity": 0.5669291338582677,
                    "duration": 0.16853924999999492
                },
                {
                    "name": "E4",
                    "midi": 64,
                    "time": 77.35951575,
                    "velocity": 0.5669291338582677,
                    "duration": 0.16853924999999492
                },
                {
                    "name": "A4",
                    "midi": 69,
                    "time": 77.528055,
                    "velocity": 0.5669291338582677,
                    "duration": 0.3089886249999978
                },
                {
                    "name": "F4",
                    "midi": 65,
                    "time": 77.528055,
                    "velocity": 0.5669291338582677,
                    "duration": 0.3089886249999978
                },
                {
                    "name": "F4",
                    "midi": 65,
                    "time": 77.8651335,
                    "velocity": 0.7086614173228346,
                    "duration": 0.3089886249999978
                },
                {
                    "name": "C4",
                    "midi": 60,
                    "time": 77.8651335,
                    "velocity": 0.7086614173228346,
                    "duration": 0.3089886249999978
                },
                {
                    "name": "F4",
                    "midi": 65,
                    "time": 78.202212,
                    "velocity": 0.7086614173228346,
                    "duration": 0.33707850000000406
                },
                {
                    "name": "D4",
                    "midi": 62,
                    "time": 78.202212,
                    "velocity": 0.7086614173228346,
                    "duration": 0.33707850000000406
                },
                {
                    "name": "D4",
                    "midi": 62,
                    "time": 78.5392905,
                    "velocity": 0.7086614173228346,
                    "duration": 0.33707850000000406
                },
                {
                    "name": "A#3",
                    "midi": 58,
                    "time": 78.5392905,
                    "velocity": 0.7086614173228346,
                    "duration": 0.33707850000000406
                },
                {
                    "name": "A4",
                    "midi": 69,
                    "time": 78.87636900000001,
                    "velocity": 0.7086614173228346,
                    "duration": 0.9831456250000059
                },
                {
                    "name": "F4",
                    "midi": 65,
                    "time": 78.87636900000001,
                    "velocity": 0.7086614173228346,
                    "duration": 0.9831456250000059
                },
                {
                    "name": "E4",
                    "midi": 64,
                    "time": 79.88760450000002,
                    "velocity": 0.7086614173228346,
                    "duration": 0.16853924999999492
                },
                {
                    "name": "G4",
                    "midi": 67,
                    "time": 79.88760450000002,
                    "velocity": 0.7086614173228346,
                    "duration": 0.16853924999999492
                },
                {
                    "name": "F4",
                    "midi": 65,
                    "time": 80.05614375000002,
                    "velocity": 0.7086614173228346,
                    "duration": 0.16853924999999492
                },
                {
                    "name": "D4",
                    "midi": 62,
                    "time": 80.05614375000002,
                    "velocity": 0.7086614173228346,
                    "duration": 0.16853924999999492
                },
                {
                    "name": "G4",
                    "midi": 67,
                    "time": 80.22468300000001,
                    "velocity": 0.7086614173228346,
                    "duration": 0.16853924999999492
                },
                {
                    "name": "E4",
                    "midi": 64,
                    "time": 80.22468300000001,
                    "velocity": 0.7086614173228346,
                    "duration": 0.16853924999999492
                },
                {
                    "name": "E4",
                    "midi": 64,
                    "time": 80.39322225000001,
                    "velocity": 0.7086614173228346,
                    "duration": 0.16853924999999492
                },
                {
                    "name": "A#3",
                    "midi": 58,
                    "time": 80.39322225000001,
                    "velocity": 0.7086614173228346,
                    "duration": 0.16853924999999492
                },
                {
                    "name": "D4",
                    "midi": 62,
                    "time": 80.5617615,
                    "velocity": 0.7086614173228346,
                    "duration": 0.16853924999999492
                },
                {
                    "name": "F4",
                    "midi": 65,
                    "time": 80.5617615,
                    "velocity": 0.7086614173228346,
                    "duration": 0.16853924999999492
                },
                {
                    "name": "G4",
                    "midi": 67,
                    "time": 80.73030075,
                    "velocity": 0.7086614173228346,
                    "duration": 0.16853924999999492
                },
                {
                    "name": "E4",
                    "midi": 64,
                    "time": 80.73030075,
                    "velocity": 0.7086614173228346,
                    "duration": 0.16853924999999492
                },
                {
                    "name": "E4",
                    "midi": 64,
                    "time": 80.89883999999999,
                    "velocity": 0.7086614173228346,
                    "duration": 0.33707850000000406
                },
                {
                    "name": "C#4",
                    "midi": 61,
                    "time": 80.89883999999999,
                    "velocity": 0.7086614173228346,
                    "duration": 0.33707850000000406
                },
                {
                    "name": "A3",
                    "midi": 57,
                    "time": 81.2359185,
                    "velocity": 0.7086614173228346,
                    "duration": 0.33707850000000406
                },
                {
                    "name": "C#4",
                    "midi": 61,
                    "time": 81.2359185,
                    "velocity": 0.7086614173228346,
                    "duration": 0.33707850000000406
                },
                {
                    "name": "E4",
                    "midi": 64,
                    "time": 81.572997,
                    "velocity": 0.47244094488188976,
                    "duration": 0.9831456250000059
                },
                {
                    "name": "C#4",
                    "midi": 61,
                    "time": 81.572997,
                    "velocity": 0.47244094488188976,
                    "duration": 0.9831456250000059
                },
                {
                    "name": "D5",
                    "midi": 74,
                    "time": 82.58423250000001,
                    "velocity": 0.3543307086614173,
                    "duration": 0.33707850000000406
                },
                {
                    "name": "F4",
                    "midi": 65,
                    "time": 82.58423250000001,
                    "velocity": 0.3543307086614173,
                    "duration": 0.33707850000000406
                }
            ],
            "controlChanges": {},
            "id": 5,
            "instrumentNumber": 52,
            "instrument": "choir aahs",
            "instrumentFamily": "ensemble",
            "channelNumber": 4,
            "isPercussion": false
        },
        {
            "startTime": 14.831453999999997,
            "duration": 82.92131100000002,
            "length": 138,
            "notes": [
                {
                    "name": "D4",
                    "midi": 62,
                    "time": 14.831453999999997,
                    "velocity": 0.7086614173228346,
                    "duration": 1.095505124999999
                },
                {
                    "name": "E4",
                    "midi": 64,
                    "time": 16.179767999999996,
                    "velocity": 0.7086614173228346,
                    "duration": 1.095505124999999
                },
                {
                    "name": "D4",
                    "midi": 62,
                    "time": 17.528081999999994,
                    "velocity": 0.7086614173228346,
                    "duration": 0.674157000000001
                },
                {
                    "name": "F4",
                    "midi": 65,
                    "time": 18.202238999999995,
                    "velocity": 0.7086614173228346,
                    "duration": 0.674157000000001
                },
                {
                    "name": "E4",
                    "midi": 64,
                    "time": 18.876395999999996,
                    "velocity": 0.7086614173228346,
                    "duration": 1.095505124999999
                },
                {
                    "name": "A4",
                    "midi": 69,
                    "time": 31.011221999999993,
                    "velocity": 0.7086614173228346,
                    "duration": 0.3370785000000005
                },
                {
                    "name": "F#4",
                    "midi": 66,
                    "time": 31.011221999999993,
                    "velocity": 0.7086614173228346,
                    "duration": 0.3370785000000005
                },
                {
                    "name": "F#4",
                    "midi": 66,
                    "time": 31.348300499999993,
                    "velocity": 0.7086614173228346,
                    "duration": 0.3370785000000005
                },
                {
                    "name": "D4",
                    "midi": 62,
                    "time": 31.348300499999993,
                    "velocity": 0.7086614173228346,
                    "duration": 0.3370785000000005
                },
                {
                    "name": "C5",
                    "midi": 72,
                    "time": 31.685378999999994,
                    "velocity": 0.7086614173228346,
                    "duration": 0.6741569999999975
                },
                {
                    "name": "A4",
                    "midi": 69,
                    "time": 31.685378999999994,
                    "velocity": 0.7086614173228346,
                    "duration": 0.6741569999999975
                },
                {
                    "name": "A5",
                    "midi": 81,
                    "time": 32.022457499999994,
                    "velocity": 0.3543307086614173,
                    "duration": 0.6460671249999947
                },
                {
                    "name": "C6",
                    "midi": 84,
                    "time": 32.022457499999994,
                    "velocity": 0.3543307086614173,
                    "duration": 0.6460671249999947
                },
                {
                    "name": "A#4",
                    "midi": 70,
                    "time": 32.69661449999999,
                    "velocity": 0.7086614173228346,
                    "duration": 0.16853925000000203
                },
                {
                    "name": "G4",
                    "midi": 67,
                    "time": 32.69661449999999,
                    "velocity": 0.7086614173228346,
                    "duration": 0.16853925000000203
                },
                {
                    "name": "A4",
                    "midi": 69,
                    "time": 32.86515374999999,
                    "velocity": 0.7086614173228346,
                    "duration": 0.16853925000000203
                },
                {
                    "name": "F#4",
                    "midi": 66,
                    "time": 32.86515374999999,
                    "velocity": 0.7086614173228346,
                    "duration": 0.16853925000000203
                },
                {
                    "name": "A#4",
                    "midi": 70,
                    "time": 33.03369299999999,
                    "velocity": 0.7086614173228346,
                    "duration": 0.16853925000000203
                },
                {
                    "name": "G4",
                    "midi": 67,
                    "time": 33.03369299999999,
                    "velocity": 0.7086614173228346,
                    "duration": 0.16853925000000203
                },
                {
                    "name": "C5",
                    "midi": 72,
                    "time": 33.202232249999994,
                    "velocity": 0.7086614173228346,
                    "duration": 0.16853925000000203
                },
                {
                    "name": "A4",
                    "midi": 69,
                    "time": 33.202232249999994,
                    "velocity": 0.7086614173228346,
                    "duration": 0.16853925000000203
                },
                {
                    "name": "A#4",
                    "midi": 70,
                    "time": 33.3707715,
                    "velocity": 0.7086614173228346,
                    "duration": 0.16853925000000203
                },
                {
                    "name": "G4",
                    "midi": 67,
                    "time": 33.3707715,
                    "velocity": 0.7086614173228346,
                    "duration": 0.16853925000000203
                },
                {
                    "name": "A4",
                    "midi": 69,
                    "time": 33.53931075,
                    "velocity": 0.7086614173228346,
                    "duration": 0.16853925000000203
                },
                {
                    "name": "F#4",
                    "midi": 66,
                    "time": 33.53931075,
                    "velocity": 0.7086614173228346,
                    "duration": 0.16853925000000203
                },
                {
                    "name": "G4",
                    "midi": 67,
                    "time": 33.70785,
                    "velocity": 0.7086614173228346,
                    "duration": 0.33707849999999695
                },
                {
                    "name": "E4",
                    "midi": 64,
                    "time": 33.70785,
                    "velocity": 0.7086614173228346,
                    "duration": 0.33707849999999695
                },
                {
                    "name": "E4",
                    "midi": 64,
                    "time": 34.0449285,
                    "velocity": 0.7086614173228346,
                    "duration": 0.33707849999999695
                },
                {
                    "name": "C4",
                    "midi": 60,
                    "time": 34.0449285,
                    "velocity": 0.7086614173228346,
                    "duration": 0.33707849999999695
                },
                {
                    "name": "G4",
                    "midi": 67,
                    "time": 34.382006999999994,
                    "velocity": 0.7086614173228346,
                    "duration": 0.33707849999999695
                },
                {
                    "name": "E4",
                    "midi": 64,
                    "time": 34.382006999999994,
                    "velocity": 0.7086614173228346,
                    "duration": 0.33707849999999695
                },
                {
                    "name": "G5",
                    "midi": 79,
                    "time": 34.71908549999999,
                    "velocity": 0.3543307086614173,
                    "duration": 0.6460671250000019
                },
                {
                    "name": "A#5",
                    "midi": 82,
                    "time": 34.71908549999999,
                    "velocity": 0.3543307086614173,
                    "duration": 0.6460671250000019
                },
                {
                    "name": "A5",
                    "midi": 81,
                    "time": 35.39324249999999,
                    "velocity": 0.5669291338582677,
                    "duration": 0.16853925000000203
                },
                {
                    "name": "F5",
                    "midi": 77,
                    "time": 35.39324249999999,
                    "velocity": 0.5669291338582677,
                    "duration": 0.16853925000000203
                },
                {
                    "name": "G5",
                    "midi": 79,
                    "time": 35.561781749999994,
                    "velocity": 0.5669291338582677,
                    "duration": 0.16853925000000203
                },
                {
                    "name": "E5",
                    "midi": 76,
                    "time": 35.561781749999994,
                    "velocity": 0.5669291338582677,
                    "duration": 0.16853925000000203
                },
                {
                    "name": "A5",
                    "midi": 81,
                    "time": 35.730320999999996,
                    "velocity": 0.5669291338582677,
                    "duration": 0.3089886249999978
                },
                {
                    "name": "F5",
                    "midi": 77,
                    "time": 35.730320999999996,
                    "velocity": 0.5669291338582677,
                    "duration": 0.3089886249999978
                },
                {
                    "name": "F4",
                    "midi": 65,
                    "time": 36.06739949999999,
                    "velocity": 0.7086614173228346,
                    "duration": 0.3089886249999978
                },
                {
                    "name": "C4",
                    "midi": 60,
                    "time": 36.06739949999999,
                    "velocity": 0.7086614173228346,
                    "duration": 0.3089886249999978
                },
                {
                    "name": "F4",
                    "midi": 65,
                    "time": 36.40447799999999,
                    "velocity": 0.7086614173228346,
                    "duration": 0.33707849999999695
                },
                {
                    "name": "D4",
                    "midi": 62,
                    "time": 36.40447799999999,
                    "velocity": 0.7086614173228346,
                    "duration": 0.33707849999999695
                },
                {
                    "name": "D4",
                    "midi": 62,
                    "time": 36.74155649999999,
                    "velocity": 0.7086614173228346,
                    "duration": 0.33707849999999695
                },
                {
                    "name": "A#3",
                    "midi": 58,
                    "time": 36.74155649999999,
                    "velocity": 0.7086614173228346,
                    "duration": 0.33707849999999695
                },
                {
                    "name": "A4",
                    "midi": 69,
                    "time": 37.078634999999984,
                    "velocity": 0.7086614173228346,
                    "duration": 0.3511234375000001
                },
                {
                    "name": "F4",
                    "midi": 65,
                    "time": 37.078634999999984,
                    "velocity": 0.7086614173228346,
                    "duration": 0.3511234375000001
                },
                {
                    "name": "F5",
                    "midi": 77,
                    "time": 37.41571349999998,
                    "velocity": 0.47244094488188976,
                    "duration": 0.6460671250000019
                },
                {
                    "name": "A5",
                    "midi": 81,
                    "time": 37.41571349999998,
                    "velocity": 0.47244094488188976,
                    "duration": 0.6460671250000019
                },
                {
                    "name": "E4",
                    "midi": 64,
                    "time": 38.08987049999998,
                    "velocity": 0.7086614173228346,
                    "duration": 0.16853925000000203
                },
                {
                    "name": "G4",
                    "midi": 67,
                    "time": 38.08987049999998,
                    "velocity": 0.7086614173228346,
                    "duration": 0.16853925000000203
                },
                {
                    "name": "F4",
                    "midi": 65,
                    "time": 38.258409749999984,
                    "velocity": 0.7086614173228346,
                    "duration": 0.16853925000000203
                },
                {
                    "name": "D4",
                    "midi": 62,
                    "time": 38.258409749999984,
                    "velocity": 0.7086614173228346,
                    "duration": 0.16853925000000203
                },
                {
                    "name": "G4",
                    "midi": 67,
                    "time": 38.426948999999986,
                    "velocity": 0.7086614173228346,
                    "duration": 0.16853925000000203
                },
                {
                    "name": "E4",
                    "midi": 64,
                    "time": 38.426948999999986,
                    "velocity": 0.7086614173228346,
                    "duration": 0.16853925000000203
                },
                {
                    "name": "E4",
                    "midi": 64,
                    "time": 38.59548824999999,
                    "velocity": 0.7086614173228346,
                    "duration": 0.16853925000000203
                },
                {
                    "name": "A#3",
                    "midi": 58,
                    "time": 38.59548824999999,
                    "velocity": 0.7086614173228346,
                    "duration": 0.16853925000000203
                },
                {
                    "name": "D4",
                    "midi": 62,
                    "time": 38.76402749999999,
                    "velocity": 0.7086614173228346,
                    "duration": 0.16853925000000203
                },
                {
                    "name": "F4",
                    "midi": 65,
                    "time": 38.76402749999999,
                    "velocity": 0.7086614173228346,
                    "duration": 0.16853925000000203
                },
                {
                    "name": "G4",
                    "midi": 67,
                    "time": 38.93256674999999,
                    "velocity": 0.7086614173228346,
                    "duration": 0.16853925000000203
                },
                {
                    "name": "E4",
                    "midi": 64,
                    "time": 38.93256674999999,
                    "velocity": 0.7086614173228346,
                    "duration": 0.16853925000000203
                },
                {
                    "name": "E4",
                    "midi": 64,
                    "time": 39.101105999999994,
                    "velocity": 0.7086614173228346,
                    "duration": 0.33707849999999695
                },
                {
                    "name": "C#4",
                    "midi": 61,
                    "time": 39.101105999999994,
                    "velocity": 0.7086614173228346,
                    "duration": 0.33707849999999695
                },
                {
                    "name": "A3",
                    "midi": 57,
                    "time": 39.43818449999999,
                    "velocity": 0.7086614173228346,
                    "duration": 0.33707849999999695
                },
                {
                    "name": "C#4",
                    "midi": 61,
                    "time": 39.43818449999999,
                    "velocity": 0.7086614173228346,
                    "duration": 0.33707849999999695
                },
                {
                    "name": "E5",
                    "midi": 76,
                    "time": 39.77526299999999,
                    "velocity": 0.47244094488188976,
                    "duration": 0.9831456249999988
                },
                {
                    "name": "C#5",
                    "midi": 73,
                    "time": 39.77526299999999,
                    "velocity": 0.47244094488188976,
                    "duration": 0.9831456249999988
                },
                {
                    "name": "D5",
                    "midi": 74,
                    "time": 40.786498499999986,
                    "velocity": 0.3543307086614173,
                    "duration": 0.33707849999999695
                },
                {
                    "name": "F4",
                    "midi": 65,
                    "time": 40.786498499999986,
                    "velocity": 0.3543307086614173,
                    "duration": 0.33707849999999695
                },
                {
                    "name": "D4",
                    "midi": 62,
                    "time": 56.629187999999985,
                    "velocity": 0.7086614173228346,
                    "duration": 1.0955051250000025
                },
                {
                    "name": "E4",
                    "midi": 64,
                    "time": 57.97750199999999,
                    "velocity": 0.7086614173228346,
                    "duration": 1.0955051250000025
                },
                {
                    "name": "D4",
                    "midi": 62,
                    "time": 59.32581599999999,
                    "velocity": 0.7086614173228346,
                    "duration": 0.674157000000001
                },
                {
                    "name": "F4",
                    "midi": 65,
                    "time": 59.99997299999999,
                    "velocity": 0.7086614173228346,
                    "duration": 0.674157000000001
                },
                {
                    "name": "E4",
                    "midi": 64,
                    "time": 60.67412999999999,
                    "velocity": 0.7086614173228346,
                    "duration": 1.0955051250000025
                },
                {
                    "name": "A4",
                    "midi": 69,
                    "time": 72.808956,
                    "velocity": 0.7086614173228346,
                    "duration": 0.33707850000000406
                },
                {
                    "name": "F#4",
                    "midi": 66,
                    "time": 72.808956,
                    "velocity": 0.7086614173228346,
                    "duration": 0.33707850000000406
                },
                {
                    "name": "F#4",
                    "midi": 66,
                    "time": 73.1460345,
                    "velocity": 0.7086614173228346,
                    "duration": 0.33707850000000406
                },
                {
                    "name": "D4",
                    "midi": 62,
                    "time": 73.1460345,
                    "velocity": 0.7086614173228346,
                    "duration": 0.33707850000000406
                },
                {
                    "name": "C5",
                    "midi": 72,
                    "time": 73.483113,
                    "velocity": 0.7086614173228346,
                    "duration": 0.6741570000000081
                },
                {
                    "name": "A4",
                    "midi": 69,
                    "time": 73.483113,
                    "velocity": 0.7086614173228346,
                    "duration": 0.6741570000000081
                },
                {
                    "name": "A5",
                    "midi": 81,
                    "time": 73.8201915,
                    "velocity": 0.3543307086614173,
                    "duration": 0.6460671250000019
                },
                {
                    "name": "C6",
                    "midi": 84,
                    "time": 73.8201915,
                    "velocity": 0.3543307086614173,
                    "duration": 0.6460671250000019
                },
                {
                    "name": "A#4",
                    "midi": 70,
                    "time": 74.49434850000002,
                    "velocity": 0.7086614173228346,
                    "duration": 0.16853924999999492
                },
                {
                    "name": "G4",
                    "midi": 67,
                    "time": 74.49434850000002,
                    "velocity": 0.7086614173228346,
                    "duration": 0.16853924999999492
                },
                {
                    "name": "A4",
                    "midi": 69,
                    "time": 74.66288775000001,
                    "velocity": 0.7086614173228346,
                    "duration": 0.16853924999999492
                },
                {
                    "name": "F#4",
                    "midi": 66,
                    "time": 74.66288775000001,
                    "velocity": 0.7086614173228346,
                    "duration": 0.16853924999999492
                },
                {
                    "name": "A#4",
                    "midi": 70,
                    "time": 74.831427,
                    "velocity": 0.7086614173228346,
                    "duration": 0.16853924999999492
                },
                {
                    "name": "G4",
                    "midi": 67,
                    "time": 74.831427,
                    "velocity": 0.7086614173228346,
                    "duration": 0.16853924999999492
                },
                {
                    "name": "C5",
                    "midi": 72,
                    "time": 74.99996625,
                    "velocity": 0.7086614173228346,
                    "duration": 0.16853924999999492
                },
                {
                    "name": "A4",
                    "midi": 69,
                    "time": 74.99996625,
                    "velocity": 0.7086614173228346,
                    "duration": 0.16853924999999492
                },
                {
                    "name": "A#4",
                    "midi": 70,
                    "time": 75.1685055,
                    "velocity": 0.7086614173228346,
                    "duration": 0.16853924999999492
                },
                {
                    "name": "G4",
                    "midi": 67,
                    "time": 75.1685055,
                    "velocity": 0.7086614173228346,
                    "duration": 0.16853924999999492
                },
                {
                    "name": "A4",
                    "midi": 69,
                    "time": 75.33704474999999,
                    "velocity": 0.7086614173228346,
                    "duration": 0.16853924999999492
                },
                {
                    "name": "F#4",
                    "midi": 66,
                    "time": 75.33704474999999,
                    "velocity": 0.7086614173228346,
                    "duration": 0.16853924999999492
                },
                {
                    "name": "G4",
                    "midi": 67,
                    "time": 75.50558399999998,
                    "velocity": 0.7086614173228346,
                    "duration": 0.33707850000000406
                },
                {
                    "name": "E4",
                    "midi": 64,
                    "time": 75.50558399999998,
                    "velocity": 0.7086614173228346,
                    "duration": 0.33707850000000406
                },
                {
                    "name": "E4",
                    "midi": 64,
                    "time": 75.84266249999999,
                    "velocity": 0.7086614173228346,
                    "duration": 0.33707850000000406
                },
                {
                    "name": "C4",
                    "midi": 60,
                    "time": 75.84266249999999,
                    "velocity": 0.7086614173228346,
                    "duration": 0.33707850000000406
                },
                {
                    "name": "G4",
                    "midi": 67,
                    "time": 76.17974099999999,
                    "velocity": 0.7086614173228346,
                    "duration": 0.33707850000000406
                },
                {
                    "name": "E4",
                    "midi": 64,
                    "time": 76.17974099999999,
                    "velocity": 0.7086614173228346,
                    "duration": 0.33707850000000406
                },
                {
                    "name": "G5",
                    "midi": 79,
                    "time": 76.5168195,
                    "velocity": 0.3543307086614173,
                    "duration": 0.6460671250000019
                },
                {
                    "name": "A#5",
                    "midi": 82,
                    "time": 76.5168195,
                    "velocity": 0.3543307086614173,
                    "duration": 0.6460671250000019
                },
                {
                    "name": "A5",
                    "midi": 81,
                    "time": 77.1909765,
                    "velocity": 0.5669291338582677,
                    "duration": 0.16853924999999492
                },
                {
                    "name": "F5",
                    "midi": 77,
                    "time": 77.1909765,
                    "velocity": 0.5669291338582677,
                    "duration": 0.16853924999999492
                },
                {
                    "name": "G5",
                    "midi": 79,
                    "time": 77.35951575,
                    "velocity": 0.5669291338582677,
                    "duration": 0.16853924999999492
                },
                {
                    "name": "E5",
                    "midi": 76,
                    "time": 77.35951575,
                    "velocity": 0.5669291338582677,
                    "duration": 0.16853924999999492
                },
                {
                    "name": "A5",
                    "midi": 81,
                    "time": 77.528055,
                    "velocity": 0.5669291338582677,
                    "duration": 0.3089886249999978
                },
                {
                    "name": "F5",
                    "midi": 77,
                    "time": 77.528055,
                    "velocity": 0.5669291338582677,
                    "duration": 0.3089886249999978
                },
                {
                    "name": "F4",
                    "midi": 65,
                    "time": 77.8651335,
                    "velocity": 0.7086614173228346,
                    "duration": 0.3089886249999978
                },
                {
                    "name": "C4",
                    "midi": 60,
                    "time": 77.8651335,
                    "velocity": 0.7086614173228346,
                    "duration": 0.3089886249999978
                },
                {
                    "name": "F4",
                    "midi": 65,
                    "time": 78.202212,
                    "velocity": 0.7086614173228346,
                    "duration": 0.33707850000000406
                },
                {
                    "name": "D4",
                    "midi": 62,
                    "time": 78.202212,
                    "velocity": 0.7086614173228346,
                    "duration": 0.33707850000000406
                },
                {
                    "name": "D4",
                    "midi": 62,
                    "time": 78.5392905,
                    "velocity": 0.7086614173228346,
                    "duration": 0.33707850000000406
                },
                {
                    "name": "A#3",
                    "midi": 58,
                    "time": 78.5392905,
                    "velocity": 0.7086614173228346,
                    "duration": 0.33707850000000406
                },
                {
                    "name": "A4",
                    "midi": 69,
                    "time": 78.87636900000001,
                    "velocity": 0.7086614173228346,
                    "duration": 0.3511234375000072
                },
                {
                    "name": "F4",
                    "midi": 65,
                    "time": 78.87636900000001,
                    "velocity": 0.7086614173228346,
                    "duration": 0.3511234375000072
                },
                {
                    "name": "F5",
                    "midi": 77,
                    "time": 79.21344750000002,
                    "velocity": 0.47244094488188976,
                    "duration": 0.6460671250000019
                },
                {
                    "name": "A5",
                    "midi": 81,
                    "time": 79.21344750000002,
                    "velocity": 0.47244094488188976,
                    "duration": 0.6460671250000019
                },
                {
                    "name": "E4",
                    "midi": 64,
                    "time": 79.88760450000002,
                    "velocity": 0.7086614173228346,
                    "duration": 0.16853924999999492
                },
                {
                    "name": "G4",
                    "midi": 67,
                    "time": 79.88760450000002,
                    "velocity": 0.7086614173228346,
                    "duration": 0.16853924999999492
                },
                {
                    "name": "F4",
                    "midi": 65,
                    "time": 80.05614375000002,
                    "velocity": 0.7086614173228346,
                    "duration": 0.16853924999999492
                },
                {
                    "name": "D4",
                    "midi": 62,
                    "time": 80.05614375000002,
                    "velocity": 0.7086614173228346,
                    "duration": 0.16853924999999492
                },
                {
                    "name": "G4",
                    "midi": 67,
                    "time": 80.22468300000001,
                    "velocity": 0.7086614173228346,
                    "duration": 0.16853924999999492
                },
                {
                    "name": "E4",
                    "midi": 64,
                    "time": 80.22468300000001,
                    "velocity": 0.7086614173228346,
                    "duration": 0.16853924999999492
                },
                {
                    "name": "E4",
                    "midi": 64,
                    "time": 80.39322225000001,
                    "velocity": 0.7086614173228346,
                    "duration": 0.16853924999999492
                },
                {
                    "name": "A#3",
                    "midi": 58,
                    "time": 80.39322225000001,
                    "velocity": 0.7086614173228346,
                    "duration": 0.16853924999999492
                },
                {
                    "name": "D4",
                    "midi": 62,
                    "time": 80.5617615,
                    "velocity": 0.7086614173228346,
                    "duration": 0.16853924999999492
                },
                {
                    "name": "F4",
                    "midi": 65,
                    "time": 80.5617615,
                    "velocity": 0.7086614173228346,
                    "duration": 0.16853924999999492
                },
                {
                    "name": "G4",
                    "midi": 67,
                    "time": 80.73030075,
                    "velocity": 0.7086614173228346,
                    "duration": 0.16853924999999492
                },
                {
                    "name": "E4",
                    "midi": 64,
                    "time": 80.73030075,
                    "velocity": 0.7086614173228346,
                    "duration": 0.16853924999999492
                },
                {
                    "name": "E4",
                    "midi": 64,
                    "time": 80.89883999999999,
                    "velocity": 0.7086614173228346,
                    "duration": 0.33707850000000406
                },
                {
                    "name": "C#4",
                    "midi": 61,
                    "time": 80.89883999999999,
                    "velocity": 0.7086614173228346,
                    "duration": 0.33707850000000406
                },
                {
                    "name": "A3",
                    "midi": 57,
                    "time": 81.2359185,
                    "velocity": 0.7086614173228346,
                    "duration": 0.33707850000000406
                },
                {
                    "name": "C#4",
                    "midi": 61,
                    "time": 81.2359185,
                    "velocity": 0.7086614173228346,
                    "duration": 0.33707850000000406
                },
                {
                    "name": "E5",
                    "midi": 76,
                    "time": 81.572997,
                    "velocity": 0.47244094488188976,
                    "duration": 0.9831456250000059
                },
                {
                    "name": "C#5",
                    "midi": 73,
                    "time": 81.572997,
                    "velocity": 0.47244094488188976,
                    "duration": 0.9831456250000059
                },
                {
                    "name": "D5",
                    "midi": 74,
                    "time": 82.58423250000001,
                    "velocity": 0.3543307086614173,
                    "duration": 0.33707850000000406
                },
                {
                    "name": "F4",
                    "midi": 65,
                    "time": 82.58423250000001,
                    "velocity": 0.3543307086614173,
                    "duration": 0.33707850000000406
                }
            ],
            "controlChanges": {},
            "id": 6,
            "instrumentNumber": 49,
            "instrument": "string ensemble 2",
            "instrumentFamily": "ensemble",
            "channelNumber": 5,
            "isPercussion": false
        },
        {
            "startTime": 11.797747499999998,
            "duration": 83.55333318749997,
            "length": 326,
            "notes": [
                {
                    "name": "D4",
                    "midi": 62,
                    "time": 11.797747499999998,
                    "velocity": 0.6299212598425197,
                    "duration": 0.11235950000000017
                },
                {
                    "name": "D5",
                    "midi": 74,
                    "time": 11.797747499999998,
                    "velocity": 0.8267716535433071,
                    "duration": 0.11235950000000017
                },
                {
                    "name": "C#4",
                    "midi": 61,
                    "time": 11.966286749999998,
                    "velocity": 0.6299212598425197,
                    "duration": 0.11235950000000017
                },
                {
                    "name": "C#5",
                    "midi": 73,
                    "time": 11.966286749999998,
                    "velocity": 0.8267716535433071,
                    "duration": 0.11235950000000017
                },
                {
                    "name": "D4",
                    "midi": 62,
                    "time": 12.134825999999999,
                    "velocity": 0.6299212598425197,
                    "duration": 0.11235950000000017
                },
                {
                    "name": "D5",
                    "midi": 74,
                    "time": 12.134825999999999,
                    "velocity": 0.8267716535433071,
                    "duration": 0.11235950000000017
                },
                {
                    "name": "A3",
                    "midi": 57,
                    "time": 12.471904499999999,
                    "velocity": 0.6299212598425197,
                    "duration": 0.11235950000000017
                },
                {
                    "name": "A4",
                    "midi": 69,
                    "time": 12.471904499999999,
                    "velocity": 0.8267716535433071,
                    "duration": 0.11235950000000017
                },
                {
                    "name": "G#3",
                    "midi": 56,
                    "time": 12.64044375,
                    "velocity": 0.6299212598425197,
                    "duration": 0.11235950000000017
                },
                {
                    "name": "G#4",
                    "midi": 68,
                    "time": 12.64044375,
                    "velocity": 0.8267716535433071,
                    "duration": 0.11235950000000017
                },
                {
                    "name": "A3",
                    "midi": 57,
                    "time": 12.808983,
                    "velocity": 0.6299212598425197,
                    "duration": 0.11235950000000017
                },
                {
                    "name": "A4",
                    "midi": 69,
                    "time": 12.808983,
                    "velocity": 0.8267716535433071,
                    "duration": 0.11235950000000017
                },
                {
                    "name": "F3",
                    "midi": 53,
                    "time": 13.1460615,
                    "velocity": 0.6299212598425197,
                    "duration": 0.11235950000000017
                },
                {
                    "name": "F4",
                    "midi": 65,
                    "time": 13.1460615,
                    "velocity": 0.8267716535433071,
                    "duration": 0.11235950000000017
                },
                {
                    "name": "E3",
                    "midi": 52,
                    "time": 13.31460075,
                    "velocity": 0.6299212598425197,
                    "duration": 0.11235950000000017
                },
                {
                    "name": "E4",
                    "midi": 64,
                    "time": 13.31460075,
                    "velocity": 0.8267716535433071,
                    "duration": 0.11235950000000017
                },
                {
                    "name": "F3",
                    "midi": 53,
                    "time": 13.48314,
                    "velocity": 0.6299212598425197,
                    "duration": 0.11235950000000017
                },
                {
                    "name": "F4",
                    "midi": 65,
                    "time": 13.48314,
                    "velocity": 0.8267716535433071,
                    "duration": 0.11235950000000017
                },
                {
                    "name": "D3",
                    "midi": 50,
                    "time": 13.820218500000001,
                    "velocity": 0.6299212598425197,
                    "duration": 0.11235950000000017
                },
                {
                    "name": "D4",
                    "midi": 62,
                    "time": 13.820218500000001,
                    "velocity": 0.8267716535433071,
                    "duration": 0.11235950000000017
                },
                {
                    "name": "C#3",
                    "midi": 49,
                    "time": 13.988757750000001,
                    "velocity": 0.6299212598425197,
                    "duration": 0.11235950000000017
                },
                {
                    "name": "C#4",
                    "midi": 61,
                    "time": 13.988757750000001,
                    "velocity": 0.8267716535433071,
                    "duration": 0.11235950000000017
                },
                {
                    "name": "D3",
                    "midi": 50,
                    "time": 14.157297000000002,
                    "velocity": 0.6299212598425197,
                    "duration": 0.11235950000000017
                },
                {
                    "name": "D4",
                    "midi": 62,
                    "time": 14.157297000000002,
                    "velocity": 0.8267716535433071,
                    "duration": 0.11235950000000017
                },
                {
                    "name": "D4",
                    "midi": 62,
                    "time": 14.831454,
                    "velocity": 0.7716535433070866,
                    "duration": 0.14044937499999932
                },
                {
                    "name": "A3",
                    "midi": 57,
                    "time": 14.99999325,
                    "velocity": 0.7716535433070866,
                    "duration": 0.14044937499999932
                },
                {
                    "name": "D4",
                    "midi": 62,
                    "time": 15.168532499999998,
                    "velocity": 0.7716535433070866,
                    "duration": 0.14044937499999932
                },
                {
                    "name": "F4",
                    "midi": 65,
                    "time": 15.337071749999996,
                    "velocity": 0.7716535433070866,
                    "duration": 0.14044937499999932
                },
                {
                    "name": "A4",
                    "midi": 69,
                    "time": 15.505610999999995,
                    "velocity": 0.7716535433070866,
                    "duration": 0.14044937499999932
                },
                {
                    "name": "A3",
                    "midi": 57,
                    "time": 15.674150249999993,
                    "velocity": 0.7716535433070866,
                    "duration": 0.14044937499999932
                },
                {
                    "name": "F4",
                    "midi": 65,
                    "time": 15.842689499999992,
                    "velocity": 0.7716535433070866,
                    "duration": 0.14044937499999932
                },
                {
                    "name": "A3",
                    "midi": 57,
                    "time": 16.01122874999999,
                    "velocity": 0.7716535433070866,
                    "duration": 0.14044937499999932
                },
                {
                    "name": "G4",
                    "midi": 67,
                    "time": 16.17976799999999,
                    "velocity": 0.7716535433070866,
                    "duration": 0.14044937499999932
                },
                {
                    "name": "A3",
                    "midi": 57,
                    "time": 16.348307249999987,
                    "velocity": 0.7716535433070866,
                    "duration": 0.14044937499999932
                },
                {
                    "name": "C#4",
                    "midi": 61,
                    "time": 16.516846499999986,
                    "velocity": 0.7716535433070866,
                    "duration": 0.14044937499999932
                },
                {
                    "name": "E4",
                    "midi": 64,
                    "time": 16.516846499999986,
                    "velocity": 0.7716535433070866,
                    "duration": 0.14044937499999932
                },
                {
                    "name": "A3",
                    "midi": 57,
                    "time": 16.685385749999984,
                    "velocity": 0.7716535433070866,
                    "duration": 0.14044937499999932
                },
                {
                    "name": "G4",
                    "midi": 67,
                    "time": 16.853924999999983,
                    "velocity": 0.7716535433070866,
                    "duration": 0.14044937499999932
                },
                {
                    "name": "A3",
                    "midi": 57,
                    "time": 17.02246424999998,
                    "velocity": 0.7716535433070866,
                    "duration": 0.14044937499999932
                },
                {
                    "name": "E4",
                    "midi": 64,
                    "time": 17.19100349999998,
                    "velocity": 0.7716535433070866,
                    "duration": 0.14044937499999932
                },
                {
                    "name": "A3",
                    "midi": 57,
                    "time": 17.359542749999978,
                    "velocity": 0.7716535433070866,
                    "duration": 0.14044937499999932
                },
                {
                    "name": "F4",
                    "midi": 65,
                    "time": 17.528081999999976,
                    "velocity": 0.7716535433070866,
                    "duration": 0.14044937499999932
                },
                {
                    "name": "A3",
                    "midi": 57,
                    "time": 17.696621249999975,
                    "velocity": 0.7716535433070866,
                    "duration": 0.14044937499999932
                },
                {
                    "name": "D4",
                    "midi": 62,
                    "time": 17.865160499999973,
                    "velocity": 0.7716535433070866,
                    "duration": 0.14044937499999932
                },
                {
                    "name": "A3",
                    "midi": 57,
                    "time": 18.033699749999972,
                    "velocity": 0.7716535433070866,
                    "duration": 0.14044937499999932
                },
                {
                    "name": "A4",
                    "midi": 69,
                    "time": 18.20223899999997,
                    "velocity": 0.7716535433070866,
                    "duration": 0.14044937499999932
                },
                {
                    "name": "A3",
                    "midi": 57,
                    "time": 18.37077824999997,
                    "velocity": 0.7716535433070866,
                    "duration": 0.14044937499999932
                },
                {
                    "name": "F4",
                    "midi": 65,
                    "time": 18.539317499999967,
                    "velocity": 0.7716535433070866,
                    "duration": 0.14044937499999932
                },
                {
                    "name": "A3",
                    "midi": 57,
                    "time": 18.707856749999966,
                    "velocity": 0.7716535433070866,
                    "duration": 0.14044937499999932
                },
                {
                    "name": "G4",
                    "midi": 67,
                    "time": 18.876395999999964,
                    "velocity": 0.7716535433070866,
                    "duration": 0.14044937499999932
                },
                {
                    "name": "A3",
                    "midi": 57,
                    "time": 19.044935249999963,
                    "velocity": 0.7716535433070866,
                    "duration": 0.14044937499999932
                },
                {
                    "name": "C#4",
                    "midi": 61,
                    "time": 19.21347449999996,
                    "velocity": 0.7716535433070866,
                    "duration": 0.14044937499999932
                },
                {
                    "name": "A3",
                    "midi": 57,
                    "time": 19.38201374999996,
                    "velocity": 0.7716535433070866,
                    "duration": 0.14044937499999932
                },
                {
                    "name": "G4",
                    "midi": 67,
                    "time": 19.550552999999958,
                    "velocity": 0.7716535433070866,
                    "duration": 0.14044937499999932
                },
                {
                    "name": "A3",
                    "midi": 57,
                    "time": 19.719092249999957,
                    "velocity": 0.7716535433070866,
                    "duration": 0.14044937499999932
                },
                {
                    "name": "E4",
                    "midi": 64,
                    "time": 19.887631499999955,
                    "velocity": 0.7716535433070866,
                    "duration": 0.14044937499999932
                },
                {
                    "name": "A3",
                    "midi": 57,
                    "time": 20.056170749999954,
                    "velocity": 0.7716535433070866,
                    "duration": 0.14044937499999932
                },
                {
                    "name": "F4",
                    "midi": 65,
                    "time": 20.224709999999952,
                    "velocity": 0.7716535433070866,
                    "duration": 0.16853924999999848
                },
                {
                    "name": "A3",
                    "midi": 57,
                    "time": 20.56178849999995,
                    "velocity": 0.7716535433070866,
                    "duration": 0.16853924999999848
                },
                {
                    "name": "A4",
                    "midi": 69,
                    "time": 20.898866999999946,
                    "velocity": 0.7716535433070866,
                    "duration": 1.011235499999998
                },
                {
                    "name": "G4",
                    "midi": 67,
                    "time": 21.910102499999944,
                    "velocity": 0.7716535433070866,
                    "duration": 0.16853924999999848
                },
                {
                    "name": "A4",
                    "midi": 69,
                    "time": 22.078641749999942,
                    "velocity": 0.7716535433070866,
                    "duration": 0.16853924999999848
                },
                {
                    "name": "A#4",
                    "midi": 70,
                    "time": 22.24718099999994,
                    "velocity": 0.7716535433070866,
                    "duration": 0.16853924999999848
                },
                {
                    "name": "A4",
                    "midi": 69,
                    "time": 22.41572024999994,
                    "velocity": 0.7716535433070866,
                    "duration": 0.16853924999999848
                },
                {
                    "name": "G4",
                    "midi": 67,
                    "time": 22.584259499999938,
                    "velocity": 0.7716535433070866,
                    "duration": 0.16853924999999848
                },
                {
                    "name": "F4",
                    "midi": 65,
                    "time": 22.752798749999936,
                    "velocity": 0.7716535433070866,
                    "duration": 0.16853924999999848
                },
                {
                    "name": "E4",
                    "midi": 64,
                    "time": 22.921337999999935,
                    "velocity": 0.7716535433070866,
                    "duration": 0.16853924999999848
                },
                {
                    "name": "G3",
                    "midi": 55,
                    "time": 23.25841649999993,
                    "velocity": 0.7716535433070866,
                    "duration": 0.16853924999999848
                },
                {
                    "name": "G4",
                    "midi": 67,
                    "time": 23.59549499999993,
                    "velocity": 0.7716535433070866,
                    "duration": 1.011235499999998
                },
                {
                    "name": "F4",
                    "midi": 65,
                    "time": 24.606730499999927,
                    "velocity": 0.7716535433070866,
                    "duration": 0.16853924999999848
                },
                {
                    "name": "G4",
                    "midi": 67,
                    "time": 24.775269749999925,
                    "velocity": 0.7716535433070866,
                    "duration": 0.16853924999999848
                },
                {
                    "name": "A4",
                    "midi": 69,
                    "time": 24.943808999999924,
                    "velocity": 0.7716535433070866,
                    "duration": 0.16853924999999848
                },
                {
                    "name": "G4",
                    "midi": 67,
                    "time": 25.112348249999922,
                    "velocity": 0.7716535433070866,
                    "duration": 0.16853924999999848
                },
                {
                    "name": "F4",
                    "midi": 65,
                    "time": 25.28088749999992,
                    "velocity": 0.7716535433070866,
                    "duration": 0.16853924999999848
                },
                {
                    "name": "E4",
                    "midi": 64,
                    "time": 25.44942674999992,
                    "velocity": 0.7716535433070866,
                    "duration": 0.16853924999999848
                },
                {
                    "name": "D4",
                    "midi": 62,
                    "time": 25.617965999999917,
                    "velocity": 0.7716535433070866,
                    "duration": 0.16853924999999848
                },
                {
                    "name": "F3",
                    "midi": 53,
                    "time": 25.955044499999914,
                    "velocity": 0.7716535433070866,
                    "duration": 0.16853924999999848
                },
                {
                    "name": "F4",
                    "midi": 65,
                    "time": 26.29212299999991,
                    "velocity": 0.7716535433070866,
                    "duration": 1.011235499999998
                },
                {
                    "name": "E4",
                    "midi": 64,
                    "time": 27.30335849999991,
                    "velocity": 0.7716535433070866,
                    "duration": 0.16853924999999848
                },
                {
                    "name": "F4",
                    "midi": 65,
                    "time": 27.471897749999908,
                    "velocity": 0.7716535433070866,
                    "duration": 0.16853924999999848
                },
                {
                    "name": "G4",
                    "midi": 67,
                    "time": 27.640436999999906,
                    "velocity": 0.7716535433070866,
                    "duration": 0.16853924999999848
                },
                {
                    "name": "F4",
                    "midi": 65,
                    "time": 27.808976249999905,
                    "velocity": 0.7716535433070866,
                    "duration": 0.16853924999999848
                },
                {
                    "name": "E4",
                    "midi": 64,
                    "time": 27.977515499999903,
                    "velocity": 0.7716535433070866,
                    "duration": 0.16853924999999848
                },
                {
                    "name": "D4",
                    "midi": 62,
                    "time": 28.1460547499999,
                    "velocity": 0.7716535433070866,
                    "duration": 0.16853924999999848
                },
                {
                    "name": "C#4",
                    "midi": 61,
                    "time": 28.3145939999999,
                    "velocity": 0.7716535433070866,
                    "duration": 0.16853924999999848
                },
                {
                    "name": "E3",
                    "midi": 52,
                    "time": 28.651672499999897,
                    "velocity": 0.7716535433070866,
                    "duration": 0.16853924999999848
                },
                {
                    "name": "E4",
                    "midi": 64,
                    "time": 28.988750999999894,
                    "velocity": 0.7716535433070866,
                    "duration": 1.011235499999998
                },
                {
                    "name": "D4",
                    "midi": 62,
                    "time": 29.999986499999892,
                    "velocity": 0.7716535433070866,
                    "duration": 0.16853924999999848
                },
                {
                    "name": "C#4",
                    "midi": 61,
                    "time": 30.16852574999989,
                    "velocity": 0.7716535433070866,
                    "duration": 0.16853924999999848
                },
                {
                    "name": "D4",
                    "midi": 62,
                    "time": 30.33706499999989,
                    "velocity": 0.7716535433070866,
                    "duration": 0.6320221874999987
                },
                {
                    "name": "A4",
                    "midi": 69,
                    "time": 31.011221999999886,
                    "velocity": 0.7716535433070866,
                    "duration": 0.30898862500000135
                },
                {
                    "name": "F#4",
                    "midi": 66,
                    "time": 31.011221999999886,
                    "velocity": 0.7716535433070866,
                    "duration": 0.30898862500000135
                },
                {
                    "name": "F#4",
                    "midi": 66,
                    "time": 31.348300499999887,
                    "velocity": 0.7716535433070866,
                    "duration": 0.30898862500000135
                },
                {
                    "name": "D4",
                    "midi": 62,
                    "time": 31.348300499999887,
                    "velocity": 0.7716535433070866,
                    "duration": 0.30898862500000135
                },
                {
                    "name": "F#4",
                    "midi": 66,
                    "time": 31.685378999999887,
                    "velocity": 0.7716535433070866,
                    "duration": 0.9831456250000024
                },
                {
                    "name": "C5",
                    "midi": 72,
                    "time": 31.685378999999887,
                    "velocity": 0.7716535433070866,
                    "duration": 0.9831456250000024
                },
                {
                    "name": "A4",
                    "midi": 69,
                    "time": 31.685378999999887,
                    "velocity": 0.7716535433070866,
                    "duration": 0.9831456250000024
                },
                {
                    "name": "A#4",
                    "midi": 70,
                    "time": 32.69661449999989,
                    "velocity": 0.7716535433070866,
                    "duration": 0.14044937500000287
                },
                {
                    "name": "G4",
                    "midi": 67,
                    "time": 32.69661449999989,
                    "velocity": 0.7716535433070866,
                    "duration": 0.14044937500000287
                },
                {
                    "name": "A4",
                    "midi": 69,
                    "time": 32.86515374999989,
                    "velocity": 0.7716535433070866,
                    "duration": 0.14044937500000287
                },
                {
                    "name": "F#4",
                    "midi": 66,
                    "time": 32.86515374999989,
                    "velocity": 0.7716535433070866,
                    "duration": 0.14044937500000287
                },
                {
                    "name": "A#4",
                    "midi": 70,
                    "time": 33.03369299999989,
                    "velocity": 0.7716535433070866,
                    "duration": 0.14044937500000287
                },
                {
                    "name": "G4",
                    "midi": 67,
                    "time": 33.03369299999989,
                    "velocity": 0.7716535433070866,
                    "duration": 0.14044937500000287
                },
                {
                    "name": "D4",
                    "midi": 62,
                    "time": 33.03369299999989,
                    "velocity": 0.7716535433070866,
                    "duration": 0.14044937500000287
                },
                {
                    "name": "C5",
                    "midi": 72,
                    "time": 33.202232249999895,
                    "velocity": 0.7716535433070866,
                    "duration": 0.14044937500000287
                },
                {
                    "name": "A4",
                    "midi": 69,
                    "time": 33.202232249999895,
                    "velocity": 0.7716535433070866,
                    "duration": 0.14044937500000287
                },
                {
                    "name": "A#4",
                    "midi": 70,
                    "time": 33.3707714999999,
                    "velocity": 0.7716535433070866,
                    "duration": 0.14044937500000287
                },
                {
                    "name": "G4",
                    "midi": 67,
                    "time": 33.3707714999999,
                    "velocity": 0.7716535433070866,
                    "duration": 0.14044937500000287
                },
                {
                    "name": "A4",
                    "midi": 69,
                    "time": 33.5393107499999,
                    "velocity": 0.7716535433070866,
                    "duration": 0.14044937500000287
                },
                {
                    "name": "F#4",
                    "midi": 66,
                    "time": 33.5393107499999,
                    "velocity": 0.7716535433070866,
                    "duration": 0.14044937500000287
                },
                {
                    "name": "G4",
                    "midi": 67,
                    "time": 33.7078499999999,
                    "velocity": 0.7716535433070866,
                    "duration": 0.3089886249999978
                },
                {
                    "name": "E4",
                    "midi": 64,
                    "time": 33.7078499999999,
                    "velocity": 0.7716535433070866,
                    "duration": 0.3089886249999978
                },
                {
                    "name": "E4",
                    "midi": 64,
                    "time": 34.0449284999999,
                    "velocity": 0.7716535433070866,
                    "duration": 0.3089886249999978
                },
                {
                    "name": "C4",
                    "midi": 60,
                    "time": 34.0449284999999,
                    "velocity": 0.7716535433070866,
                    "duration": 0.3089886249999978
                },
                {
                    "name": "E4",
                    "midi": 64,
                    "time": 34.382006999999895,
                    "velocity": 0.7716535433070866,
                    "duration": 0.9831456249999988
                },
                {
                    "name": "A#4",
                    "midi": 70,
                    "time": 34.382006999999895,
                    "velocity": 0.7716535433070866,
                    "duration": 0.9831456249999988
                },
                {
                    "name": "G4",
                    "midi": 67,
                    "time": 34.382006999999895,
                    "velocity": 0.7716535433070866,
                    "duration": 0.9831456249999988
                },
                {
                    "name": "A4",
                    "midi": 69,
                    "time": 35.39324249999989,
                    "velocity": 0.7716535433070866,
                    "duration": 0.14044937500000287
                },
                {
                    "name": "F4",
                    "midi": 65,
                    "time": 35.39324249999989,
                    "velocity": 0.7716535433070866,
                    "duration": 0.14044937500000287
                },
                {
                    "name": "C4",
                    "midi": 60,
                    "time": 35.39324249999989,
                    "velocity": 0.7716535433070866,
                    "duration": 0.14044937500000287
                },
                {
                    "name": "G4",
                    "midi": 67,
                    "time": 35.561781749999895,
                    "velocity": 0.7716535433070866,
                    "duration": 0.14044937500000287
                },
                {
                    "name": "E4",
                    "midi": 64,
                    "time": 35.561781749999895,
                    "velocity": 0.7716535433070866,
                    "duration": 0.14044937500000287
                },
                {
                    "name": "C4",
                    "midi": 60,
                    "time": 35.7303209999999,
                    "velocity": 0.7716535433070866,
                    "duration": 0.3089886249999978
                },
                {
                    "name": "C5",
                    "midi": 72,
                    "time": 35.7303209999999,
                    "velocity": 0.7716535433070866,
                    "duration": 0.3089886249999978
                },
                {
                    "name": "A4",
                    "midi": 69,
                    "time": 35.7303209999999,
                    "velocity": 0.7716535433070866,
                    "duration": 0.3089886249999978
                },
                {
                    "name": "C4",
                    "midi": 60,
                    "time": 36.067399499999894,
                    "velocity": 0.7716535433070866,
                    "duration": 0.3089886249999978
                },
                {
                    "name": "F4",
                    "midi": 65,
                    "time": 36.067399499999894,
                    "velocity": 0.7716535433070866,
                    "duration": 0.3089886249999978
                },
                {
                    "name": "A#3",
                    "midi": 58,
                    "time": 36.40447799999989,
                    "velocity": 0.7716535433070866,
                    "duration": 0.3089886249999978
                },
                {
                    "name": "F4",
                    "midi": 65,
                    "time": 36.40447799999989,
                    "velocity": 0.7716535433070866,
                    "duration": 0.3089886249999978
                },
                {
                    "name": "D4",
                    "midi": 62,
                    "time": 36.40447799999989,
                    "velocity": 0.7716535433070866,
                    "duration": 0.3089886249999978
                },
                {
                    "name": "A#3",
                    "midi": 58,
                    "time": 36.74155649999989,
                    "velocity": 0.7716535433070866,
                    "duration": 0.3089886249999978
                },
                {
                    "name": "D4",
                    "midi": 62,
                    "time": 36.74155649999989,
                    "velocity": 0.7716535433070866,
                    "duration": 0.3089886249999978
                },
                {
                    "name": "D4",
                    "midi": 62,
                    "time": 37.078634999999885,
                    "velocity": 0.7716535433070866,
                    "duration": 0.9831456249999988
                },
                {
                    "name": "A4",
                    "midi": 69,
                    "time": 37.078634999999885,
                    "velocity": 0.7716535433070866,
                    "duration": 0.9831456249999988
                },
                {
                    "name": "F4",
                    "midi": 65,
                    "time": 37.078634999999885,
                    "velocity": 0.7716535433070866,
                    "duration": 0.9831456249999988
                },
                {
                    "name": "A#3",
                    "midi": 58,
                    "time": 38.08987049999988,
                    "velocity": 0.7716535433070866,
                    "duration": 0.14044937500000287
                },
                {
                    "name": "G4",
                    "midi": 67,
                    "time": 38.08987049999988,
                    "velocity": 0.7716535433070866,
                    "duration": 0.14044937500000287
                },
                {
                    "name": "E4",
                    "midi": 64,
                    "time": 38.08987049999988,
                    "velocity": 0.7716535433070866,
                    "duration": 0.14044937500000287
                },
                {
                    "name": "F4",
                    "midi": 65,
                    "time": 38.258409749999885,
                    "velocity": 0.7716535433070866,
                    "duration": 0.14044937500000287
                },
                {
                    "name": "D4",
                    "midi": 62,
                    "time": 38.258409749999885,
                    "velocity": 0.7716535433070866,
                    "duration": 0.14044937500000287
                },
                {
                    "name": "G4",
                    "midi": 67,
                    "time": 38.42694899999989,
                    "velocity": 0.7716535433070866,
                    "duration": 0.14044937500000287
                },
                {
                    "name": "E4",
                    "midi": 64,
                    "time": 38.42694899999989,
                    "velocity": 0.7716535433070866,
                    "duration": 0.14044937500000287
                },
                {
                    "name": "E4",
                    "midi": 64,
                    "time": 38.59548824999989,
                    "velocity": 0.7716535433070866,
                    "duration": 0.14044937500000287
                },
                {
                    "name": "A#3",
                    "midi": 58,
                    "time": 38.59548824999989,
                    "velocity": 0.7716535433070866,
                    "duration": 0.14044937500000287
                },
                {
                    "name": "F4",
                    "midi": 65,
                    "time": 38.76402749999989,
                    "velocity": 0.7716535433070866,
                    "duration": 0.14044937500000287
                },
                {
                    "name": "D4",
                    "midi": 62,
                    "time": 38.76402749999989,
                    "velocity": 0.7716535433070866,
                    "duration": 0.14044937500000287
                },
                {
                    "name": "G4",
                    "midi": 67,
                    "time": 38.93256674999989,
                    "velocity": 0.7716535433070866,
                    "duration": 0.14044937500000287
                },
                {
                    "name": "E4",
                    "midi": 64,
                    "time": 38.93256674999989,
                    "velocity": 0.7716535433070866,
                    "duration": 0.14044937500000287
                },
                {
                    "name": "C#4",
                    "midi": 61,
                    "time": 39.101105999999895,
                    "velocity": 0.7716535433070866,
                    "duration": 0.3089886249999978
                },
                {
                    "name": "A3",
                    "midi": 57,
                    "time": 39.101105999999895,
                    "velocity": 0.7716535433070866,
                    "duration": 0.3089886249999978
                },
                {
                    "name": "E4",
                    "midi": 64,
                    "time": 39.101105999999895,
                    "velocity": 0.7716535433070866,
                    "duration": 0.3089886249999978
                },
                {
                    "name": "A3",
                    "midi": 57,
                    "time": 39.43818449999989,
                    "velocity": 0.7716535433070866,
                    "duration": 0.3089886249999978
                },
                {
                    "name": "C#4",
                    "midi": 61,
                    "time": 39.43818449999989,
                    "velocity": 0.7716535433070866,
                    "duration": 0.3089886249999978
                },
                {
                    "name": "C#4",
                    "midi": 61,
                    "time": 39.77526299999989,
                    "velocity": 0.7716535433070866,
                    "duration": 0.9831456249999988
                },
                {
                    "name": "G4",
                    "midi": 67,
                    "time": 39.77526299999989,
                    "velocity": 0.7716535433070866,
                    "duration": 0.9831456249999988
                },
                {
                    "name": "E4",
                    "midi": 64,
                    "time": 39.77526299999989,
                    "velocity": 0.7716535433070866,
                    "duration": 0.9831456249999988
                },
                {
                    "name": "F#4",
                    "midi": 66,
                    "time": 40.78649849999989,
                    "velocity": 0.7716535433070866,
                    "duration": 0.14044937500000287
                },
                {
                    "name": "D4",
                    "midi": 62,
                    "time": 40.78649849999989,
                    "velocity": 0.7716535433070866,
                    "duration": 0.14044937500000287
                },
                {
                    "name": "A3",
                    "midi": 57,
                    "time": 40.78649849999989,
                    "velocity": 0.5511811023622047,
                    "duration": 0.14044937500000287
                },
                {
                    "name": "E4",
                    "midi": 64,
                    "time": 40.95503774999989,
                    "velocity": 0.7716535433070866,
                    "duration": 0.14044937500000287
                },
                {
                    "name": "C#4",
                    "midi": 61,
                    "time": 40.95503774999989,
                    "velocity": 0.7716535433070866,
                    "duration": 0.14044937500000287
                },
                {
                    "name": "D4",
                    "midi": 62,
                    "time": 41.12357699999989,
                    "velocity": 0.7716535433070866,
                    "duration": 0.6320221874999987
                },
                {
                    "name": "F#4",
                    "midi": 66,
                    "time": 41.12357699999989,
                    "velocity": 0.7716535433070866,
                    "duration": 0.6320221874999987
                },
                {
                    "name": "D4",
                    "midi": 62,
                    "time": 53.59548149999989,
                    "velocity": 0.6299212598425197,
                    "duration": 0.11235949999999661
                },
                {
                    "name": "D5",
                    "midi": 74,
                    "time": 53.59548149999989,
                    "velocity": 0.8267716535433071,
                    "duration": 0.11235949999999661
                },
                {
                    "name": "C#4",
                    "midi": 61,
                    "time": 53.76402074999989,
                    "velocity": 0.6299212598425197,
                    "duration": 0.11235949999999661
                },
                {
                    "name": "C#5",
                    "midi": 73,
                    "time": 53.76402074999989,
                    "velocity": 0.8267716535433071,
                    "duration": 0.11235949999999661
                },
                {
                    "name": "D4",
                    "midi": 62,
                    "time": 53.93255999999988,
                    "velocity": 0.6299212598425197,
                    "duration": 0.11235949999999661
                },
                {
                    "name": "D5",
                    "midi": 74,
                    "time": 53.93255999999988,
                    "velocity": 0.8267716535433071,
                    "duration": 0.11235949999999661
                },
                {
                    "name": "A3",
                    "midi": 57,
                    "time": 54.26963849999988,
                    "velocity": 0.6299212598425197,
                    "duration": 0.11235949999999661
                },
                {
                    "name": "A4",
                    "midi": 69,
                    "time": 54.26963849999988,
                    "velocity": 0.8267716535433071,
                    "duration": 0.11235949999999661
                },
                {
                    "name": "G#3",
                    "midi": 56,
                    "time": 54.43817774999987,
                    "velocity": 0.6299212598425197,
                    "duration": 0.11235949999999661
                },
                {
                    "name": "G#4",
                    "midi": 68,
                    "time": 54.43817774999987,
                    "velocity": 0.8267716535433071,
                    "duration": 0.11235949999999661
                },
                {
                    "name": "A3",
                    "midi": 57,
                    "time": 54.60671699999987,
                    "velocity": 0.6299212598425197,
                    "duration": 0.11235949999999661
                },
                {
                    "name": "A4",
                    "midi": 69,
                    "time": 54.60671699999987,
                    "velocity": 0.8267716535433071,
                    "duration": 0.11235949999999661
                },
                {
                    "name": "F3",
                    "midi": 53,
                    "time": 54.943795499999865,
                    "velocity": 0.6299212598425197,
                    "duration": 0.11235949999999661
                },
                {
                    "name": "F4",
                    "midi": 65,
                    "time": 54.943795499999865,
                    "velocity": 0.8267716535433071,
                    "duration": 0.11235949999999661
                },
                {
                    "name": "E3",
                    "midi": 52,
                    "time": 55.11233474999986,
                    "velocity": 0.6299212598425197,
                    "duration": 0.11235949999999661
                },
                {
                    "name": "E4",
                    "midi": 64,
                    "time": 55.11233474999986,
                    "velocity": 0.8267716535433071,
                    "duration": 0.11235949999999661
                },
                {
                    "name": "F3",
                    "midi": 53,
                    "time": 55.280873999999855,
                    "velocity": 0.6299212598425197,
                    "duration": 0.11235949999999661
                },
                {
                    "name": "F4",
                    "midi": 65,
                    "time": 55.280873999999855,
                    "velocity": 0.8267716535433071,
                    "duration": 0.11235949999999661
                },
                {
                    "name": "D3",
                    "midi": 50,
                    "time": 55.61795249999985,
                    "velocity": 0.6299212598425197,
                    "duration": 0.11235949999999661
                },
                {
                    "name": "D4",
                    "midi": 62,
                    "time": 55.61795249999985,
                    "velocity": 0.8267716535433071,
                    "duration": 0.11235949999999661
                },
                {
                    "name": "C#3",
                    "midi": 49,
                    "time": 55.78649174999985,
                    "velocity": 0.6299212598425197,
                    "duration": 0.11235949999999661
                },
                {
                    "name": "C#4",
                    "midi": 61,
                    "time": 55.78649174999985,
                    "velocity": 0.8267716535433071,
                    "duration": 0.11235949999999661
                },
                {
                    "name": "D3",
                    "midi": 50,
                    "time": 55.95503099999984,
                    "velocity": 0.6299212598425197,
                    "duration": 0.11235949999999661
                },
                {
                    "name": "D4",
                    "midi": 62,
                    "time": 55.95503099999984,
                    "velocity": 0.8267716535433071,
                    "duration": 0.11235949999999661
                },
                {
                    "name": "D4",
                    "midi": 62,
                    "time": 56.629187999999836,
                    "velocity": 0.7716535433070866,
                    "duration": 0.14044937500000287
                },
                {
                    "name": "A3",
                    "midi": 57,
                    "time": 56.79772724999984,
                    "velocity": 0.7716535433070866,
                    "duration": 0.14044937500000287
                },
                {
                    "name": "D4",
                    "midi": 62,
                    "time": 56.96626649999984,
                    "velocity": 0.7716535433070866,
                    "duration": 0.14044937500000287
                },
                {
                    "name": "F4",
                    "midi": 65,
                    "time": 57.13480574999984,
                    "velocity": 0.7716535433070866,
                    "duration": 0.14044937500000287
                },
                {
                    "name": "A4",
                    "midi": 69,
                    "time": 57.303344999999844,
                    "velocity": 0.7716535433070866,
                    "duration": 0.14044937500000287
                },
                {
                    "name": "A3",
                    "midi": 57,
                    "time": 57.471884249999846,
                    "velocity": 0.7716535433070866,
                    "duration": 0.14044937500000287
                },
                {
                    "name": "F4",
                    "midi": 65,
                    "time": 57.64042349999985,
                    "velocity": 0.7716535433070866,
                    "duration": 0.14044937500000287
                },
                {
                    "name": "A3",
                    "midi": 57,
                    "time": 57.80896274999985,
                    "velocity": 0.7716535433070866,
                    "duration": 0.14044937500000287
                },
                {
                    "name": "G4",
                    "midi": 67,
                    "time": 57.97750199999985,
                    "velocity": 0.7716535433070866,
                    "duration": 0.14044937500000287
                },
                {
                    "name": "A3",
                    "midi": 57,
                    "time": 58.146041249999854,
                    "velocity": 0.7716535433070866,
                    "duration": 0.14044937500000287
                },
                {
                    "name": "C#4",
                    "midi": 61,
                    "time": 58.314580499999856,
                    "velocity": 0.7716535433070866,
                    "duration": 0.14044937500000287
                },
                {
                    "name": "E4",
                    "midi": 64,
                    "time": 58.314580499999856,
                    "velocity": 0.7716535433070866,
                    "duration": 0.14044937500000287
                },
                {
                    "name": "A3",
                    "midi": 57,
                    "time": 58.48311974999986,
                    "velocity": 0.7716535433070866,
                    "duration": 0.14044937500000287
                },
                {
                    "name": "G4",
                    "midi": 67,
                    "time": 58.65165899999986,
                    "velocity": 0.7716535433070866,
                    "duration": 0.14044937500000287
                },
                {
                    "name": "A3",
                    "midi": 57,
                    "time": 58.82019824999986,
                    "velocity": 0.7716535433070866,
                    "duration": 0.14044937500000287
                },
                {
                    "name": "E4",
                    "midi": 64,
                    "time": 58.988737499999864,
                    "velocity": 0.7716535433070866,
                    "duration": 0.14044937500000287
                },
                {
                    "name": "A3",
                    "midi": 57,
                    "time": 59.157276749999866,
                    "velocity": 0.7716535433070866,
                    "duration": 0.14044937500000287
                },
                {
                    "name": "F4",
                    "midi": 65,
                    "time": 59.32581599999987,
                    "velocity": 0.7716535433070866,
                    "duration": 0.14044937500000287
                },
                {
                    "name": "A3",
                    "midi": 57,
                    "time": 59.49435524999987,
                    "velocity": 0.7716535433070866,
                    "duration": 0.14044937500000287
                },
                {
                    "name": "D4",
                    "midi": 62,
                    "time": 59.66289449999987,
                    "velocity": 0.7716535433070866,
                    "duration": 0.14044937500000287
                },
                {
                    "name": "A3",
                    "midi": 57,
                    "time": 59.831433749999874,
                    "velocity": 0.7716535433070866,
                    "duration": 0.14044937500000287
                },
                {
                    "name": "A4",
                    "midi": 69,
                    "time": 59.999972999999876,
                    "velocity": 0.7716535433070866,
                    "duration": 0.14044937500000287
                },
                {
                    "name": "A3",
                    "midi": 57,
                    "time": 60.16851224999988,
                    "velocity": 0.7716535433070866,
                    "duration": 0.14044937500000287
                },
                {
                    "name": "F4",
                    "midi": 65,
                    "time": 60.33705149999988,
                    "velocity": 0.7716535433070866,
                    "duration": 0.14044937500000287
                },
                {
                    "name": "A3",
                    "midi": 57,
                    "time": 60.50559074999988,
                    "velocity": 0.7716535433070866,
                    "duration": 0.14044937500000287
                },
                {
                    "name": "G4",
                    "midi": 67,
                    "time": 60.674129999999884,
                    "velocity": 0.7716535433070866,
                    "duration": 0.14044937500000287
                },
                {
                    "name": "A3",
                    "midi": 57,
                    "time": 60.84266924999989,
                    "velocity": 0.7716535433070866,
                    "duration": 0.14044937500000287
                },
                {
                    "name": "C#4",
                    "midi": 61,
                    "time": 61.01120849999989,
                    "velocity": 0.7716535433070866,
                    "duration": 0.14044937500000287
                },
                {
                    "name": "A3",
                    "midi": 57,
                    "time": 61.17974774999989,
                    "velocity": 0.7716535433070866,
                    "duration": 0.14044937500000287
                },
                {
                    "name": "G4",
                    "midi": 67,
                    "time": 61.34828699999989,
                    "velocity": 0.7716535433070866,
                    "duration": 0.14044937500000287
                },
                {
                    "name": "A3",
                    "midi": 57,
                    "time": 61.516826249999895,
                    "velocity": 0.7716535433070866,
                    "duration": 0.14044937500000287
                },
                {
                    "name": "E4",
                    "midi": 64,
                    "time": 61.6853654999999,
                    "velocity": 0.7716535433070866,
                    "duration": 0.14044937500000287
                },
                {
                    "name": "A3",
                    "midi": 57,
                    "time": 61.8539047499999,
                    "velocity": 0.7716535433070866,
                    "duration": 0.14044937500000287
                },
                {
                    "name": "F4",
                    "midi": 65,
                    "time": 62.0224439999999,
                    "velocity": 0.7716535433070866,
                    "duration": 0.16853925000000203
                },
                {
                    "name": "A3",
                    "midi": 57,
                    "time": 62.359522499999905,
                    "velocity": 0.7716535433070866,
                    "duration": 0.16853925000000203
                },
                {
                    "name": "A4",
                    "midi": 69,
                    "time": 62.69660099999991,
                    "velocity": 0.7716535433070866,
                    "duration": 1.011235499999998
                },
                {
                    "name": "G4",
                    "midi": 67,
                    "time": 63.70783649999991,
                    "velocity": 0.7716535433070866,
                    "duration": 0.16853925000000203
                },
                {
                    "name": "A4",
                    "midi": 69,
                    "time": 63.87637574999991,
                    "velocity": 0.7716535433070866,
                    "duration": 0.16853924999999492
                },
                {
                    "name": "A#4",
                    "midi": 70,
                    "time": 64.0449149999999,
                    "velocity": 0.7716535433070866,
                    "duration": 0.16853924999999492
                },
                {
                    "name": "A4",
                    "midi": 69,
                    "time": 64.2134542499999,
                    "velocity": 0.7716535433070866,
                    "duration": 0.16853924999999492
                },
                {
                    "name": "G4",
                    "midi": 67,
                    "time": 64.3819934999999,
                    "velocity": 0.7716535433070866,
                    "duration": 0.16853924999999492
                },
                {
                    "name": "F4",
                    "midi": 65,
                    "time": 64.55053274999989,
                    "velocity": 0.7716535433070866,
                    "duration": 0.16853924999999492
                },
                {
                    "name": "E4",
                    "midi": 64,
                    "time": 64.71907199999988,
                    "velocity": 0.7716535433070866,
                    "duration": 0.16853924999999492
                },
                {
                    "name": "G3",
                    "midi": 55,
                    "time": 65.05615049999987,
                    "velocity": 0.7716535433070866,
                    "duration": 0.16853924999999492
                },
                {
                    "name": "G4",
                    "midi": 67,
                    "time": 65.39322899999986,
                    "velocity": 0.7716535433070866,
                    "duration": 1.011235499999998
                },
                {
                    "name": "F4",
                    "midi": 65,
                    "time": 66.40446449999986,
                    "velocity": 0.7716535433070866,
                    "duration": 0.16853924999999492
                },
                {
                    "name": "G4",
                    "midi": 67,
                    "time": 66.57300374999986,
                    "velocity": 0.7716535433070866,
                    "duration": 0.16853924999999492
                },
                {
                    "name": "A4",
                    "midi": 69,
                    "time": 66.74154299999985,
                    "velocity": 0.7716535433070866,
                    "duration": 0.16853924999999492
                },
                {
                    "name": "G4",
                    "midi": 67,
                    "time": 66.91008224999985,
                    "velocity": 0.7716535433070866,
                    "duration": 0.16853924999999492
                },
                {
                    "name": "F4",
                    "midi": 65,
                    "time": 67.07862149999984,
                    "velocity": 0.7716535433070866,
                    "duration": 0.16853924999999492
                },
                {
                    "name": "E4",
                    "midi": 64,
                    "time": 67.24716074999984,
                    "velocity": 0.7716535433070866,
                    "duration": 0.16853924999999492
                },
                {
                    "name": "D4",
                    "midi": 62,
                    "time": 67.41569999999983,
                    "velocity": 0.7716535433070866,
                    "duration": 0.16853924999999492
                },
                {
                    "name": "F3",
                    "midi": 53,
                    "time": 67.75277849999982,
                    "velocity": 0.7716535433070866,
                    "duration": 0.16853924999999492
                },
                {
                    "name": "F4",
                    "midi": 65,
                    "time": 68.08985699999981,
                    "velocity": 0.7716535433070866,
                    "duration": 1.011235499999998
                },
                {
                    "name": "E4",
                    "midi": 64,
                    "time": 69.10109249999981,
                    "velocity": 0.7716535433070866,
                    "duration": 0.16853924999999492
                },
                {
                    "name": "F4",
                    "midi": 65,
                    "time": 69.2696317499998,
                    "velocity": 0.7716535433070866,
                    "duration": 0.16853924999999492
                },
                {
                    "name": "G4",
                    "midi": 67,
                    "time": 69.4381709999998,
                    "velocity": 0.7716535433070866,
                    "duration": 0.16853924999999492
                },
                {
                    "name": "F4",
                    "midi": 65,
                    "time": 69.6067102499998,
                    "velocity": 0.7716535433070866,
                    "duration": 0.16853924999999492
                },
                {
                    "name": "E4",
                    "midi": 64,
                    "time": 69.77524949999979,
                    "velocity": 0.7716535433070866,
                    "duration": 0.16853924999999492
                },
                {
                    "name": "D4",
                    "midi": 62,
                    "time": 69.94378874999978,
                    "velocity": 0.7716535433070866,
                    "duration": 0.16853924999999492
                },
                {
                    "name": "C#4",
                    "midi": 61,
                    "time": 70.11232799999978,
                    "velocity": 0.7716535433070866,
                    "duration": 0.16853924999999492
                },
                {
                    "name": "E3",
                    "midi": 52,
                    "time": 70.44940649999977,
                    "velocity": 0.7716535433070866,
                    "duration": 0.16853924999999492
                },
                {
                    "name": "E4",
                    "midi": 64,
                    "time": 70.78648499999976,
                    "velocity": 0.7716535433070866,
                    "duration": 1.011235499999998
                },
                {
                    "name": "D4",
                    "midi": 62,
                    "time": 71.79772049999976,
                    "velocity": 0.7716535433070866,
                    "duration": 0.16853924999999492
                },
                {
                    "name": "C#4",
                    "midi": 61,
                    "time": 71.96625974999975,
                    "velocity": 0.7716535433070866,
                    "duration": 0.16853924999999492
                },
                {
                    "name": "D4",
                    "midi": 62,
                    "time": 72.13479899999975,
                    "velocity": 0.7716535433070866,
                    "duration": 0.6320221874999987
                },
                {
                    "name": "A4",
                    "midi": 69,
                    "time": 72.80895599999974,
                    "velocity": 0.7716535433070866,
                    "duration": 0.3089886249999978
                },
                {
                    "name": "F#4",
                    "midi": 66,
                    "time": 72.80895599999974,
                    "velocity": 0.7716535433070866,
                    "duration": 0.3089886249999978
                },
                {
                    "name": "F#4",
                    "midi": 66,
                    "time": 73.14603449999974,
                    "velocity": 0.7716535433070866,
                    "duration": 0.3089886249999978
                },
                {
                    "name": "D4",
                    "midi": 62,
                    "time": 73.14603449999974,
                    "velocity": 0.7716535433070866,
                    "duration": 0.3089886249999978
                },
                {
                    "name": "F#4",
                    "midi": 66,
                    "time": 73.48311299999975,
                    "velocity": 0.7716535433070866,
                    "duration": 0.9831456250000059
                },
                {
                    "name": "C5",
                    "midi": 72,
                    "time": 73.48311299999975,
                    "velocity": 0.7716535433070866,
                    "duration": 0.9831456250000059
                },
                {
                    "name": "A4",
                    "midi": 69,
                    "time": 73.48311299999975,
                    "velocity": 0.7716535433070866,
                    "duration": 0.9831456250000059
                },
                {
                    "name": "A#4",
                    "midi": 70,
                    "time": 74.49434849999976,
                    "velocity": 0.7716535433070866,
                    "duration": 0.14044937500000287
                },
                {
                    "name": "G4",
                    "midi": 67,
                    "time": 74.49434849999976,
                    "velocity": 0.7716535433070866,
                    "duration": 0.14044937500000287
                },
                {
                    "name": "A4",
                    "midi": 69,
                    "time": 74.66288774999977,
                    "velocity": 0.7716535433070866,
                    "duration": 0.14044937500000287
                },
                {
                    "name": "F#4",
                    "midi": 66,
                    "time": 74.66288774999977,
                    "velocity": 0.7716535433070866,
                    "duration": 0.14044937500000287
                },
                {
                    "name": "A#4",
                    "midi": 70,
                    "time": 74.83142699999978,
                    "velocity": 0.7716535433070866,
                    "duration": 0.14044937500000287
                },
                {
                    "name": "G4",
                    "midi": 67,
                    "time": 74.83142699999978,
                    "velocity": 0.7716535433070866,
                    "duration": 0.14044937500000287
                },
                {
                    "name": "D4",
                    "midi": 62,
                    "time": 74.83142699999978,
                    "velocity": 0.7716535433070866,
                    "duration": 0.14044937500000287
                },
                {
                    "name": "C5",
                    "midi": 72,
                    "time": 74.99996624999979,
                    "velocity": 0.7716535433070866,
                    "duration": 0.14044937500000287
                },
                {
                    "name": "A4",
                    "midi": 69,
                    "time": 74.99996624999979,
                    "velocity": 0.7716535433070866,
                    "duration": 0.14044937500000287
                },
                {
                    "name": "A#4",
                    "midi": 70,
                    "time": 75.1685054999998,
                    "velocity": 0.7716535433070866,
                    "duration": 0.14044937500000287
                },
                {
                    "name": "G4",
                    "midi": 67,
                    "time": 75.1685054999998,
                    "velocity": 0.7716535433070866,
                    "duration": 0.14044937500000287
                },
                {
                    "name": "A4",
                    "midi": 69,
                    "time": 75.3370447499998,
                    "velocity": 0.7716535433070866,
                    "duration": 0.14044937500000287
                },
                {
                    "name": "F#4",
                    "midi": 66,
                    "time": 75.3370447499998,
                    "velocity": 0.7716535433070866,
                    "duration": 0.14044937500000287
                },
                {
                    "name": "G4",
                    "midi": 67,
                    "time": 75.50558399999981,
                    "velocity": 0.7716535433070866,
                    "duration": 0.3089886249999978
                },
                {
                    "name": "E4",
                    "midi": 64,
                    "time": 75.50558399999981,
                    "velocity": 0.7716535433070866,
                    "duration": 0.3089886249999978
                },
                {
                    "name": "E4",
                    "midi": 64,
                    "time": 75.84266249999982,
                    "velocity": 0.7716535433070866,
                    "duration": 0.3089886249999978
                },
                {
                    "name": "C4",
                    "midi": 60,
                    "time": 75.84266249999982,
                    "velocity": 0.7716535433070866,
                    "duration": 0.3089886249999978
                },
                {
                    "name": "E4",
                    "midi": 64,
                    "time": 76.17974099999982,
                    "velocity": 0.7716535433070866,
                    "duration": 0.9831456250000059
                },
                {
                    "name": "A#4",
                    "midi": 70,
                    "time": 76.17974099999982,
                    "velocity": 0.7716535433070866,
                    "duration": 0.9831456250000059
                },
                {
                    "name": "G4",
                    "midi": 67,
                    "time": 76.17974099999982,
                    "velocity": 0.7716535433070866,
                    "duration": 0.9831456250000059
                },
                {
                    "name": "A4",
                    "midi": 69,
                    "time": 77.19097649999983,
                    "velocity": 0.7716535433070866,
                    "duration": 0.14044937500000287
                },
                {
                    "name": "F4",
                    "midi": 65,
                    "time": 77.19097649999983,
                    "velocity": 0.7716535433070866,
                    "duration": 0.14044937500000287
                },
                {
                    "name": "C4",
                    "midi": 60,
                    "time": 77.19097649999983,
                    "velocity": 0.7716535433070866,
                    "duration": 0.14044937500000287
                },
                {
                    "name": "G4",
                    "midi": 67,
                    "time": 77.35951574999984,
                    "velocity": 0.7716535433070866,
                    "duration": 0.14044937500000287
                },
                {
                    "name": "E4",
                    "midi": 64,
                    "time": 77.35951574999984,
                    "velocity": 0.7716535433070866,
                    "duration": 0.14044937500000287
                },
                {
                    "name": "C4",
                    "midi": 60,
                    "time": 77.52805499999985,
                    "velocity": 0.7716535433070866,
                    "duration": 0.3089886249999978
                },
                {
                    "name": "C5",
                    "midi": 72,
                    "time": 77.52805499999985,
                    "velocity": 0.7716535433070866,
                    "duration": 0.3089886249999978
                },
                {
                    "name": "A4",
                    "midi": 69,
                    "time": 77.52805499999985,
                    "velocity": 0.7716535433070866,
                    "duration": 0.3089886249999978
                },
                {
                    "name": "C4",
                    "midi": 60,
                    "time": 77.86513349999986,
                    "velocity": 0.7716535433070866,
                    "duration": 0.3089886249999978
                },
                {
                    "name": "F4",
                    "midi": 65,
                    "time": 77.86513349999986,
                    "velocity": 0.7716535433070866,
                    "duration": 0.3089886249999978
                },
                {
                    "name": "A#3",
                    "midi": 58,
                    "time": 78.20221199999986,
                    "velocity": 0.7716535433070866,
                    "duration": 0.3089886249999978
                },
                {
                    "name": "F4",
                    "midi": 65,
                    "time": 78.20221199999986,
                    "velocity": 0.7716535433070866,
                    "duration": 0.3089886249999978
                },
                {
                    "name": "D4",
                    "midi": 62,
                    "time": 78.20221199999986,
                    "velocity": 0.7716535433070866,
                    "duration": 0.3089886249999978
                },
                {
                    "name": "A#3",
                    "midi": 58,
                    "time": 78.53929049999986,
                    "velocity": 0.7716535433070866,
                    "duration": 0.3089886249999978
                },
                {
                    "name": "D4",
                    "midi": 62,
                    "time": 78.53929049999986,
                    "velocity": 0.7716535433070866,
                    "duration": 0.3089886249999978
                },
                {
                    "name": "D4",
                    "midi": 62,
                    "time": 78.87636899999987,
                    "velocity": 0.7716535433070866,
                    "duration": 0.9831456250000059
                },
                {
                    "name": "A4",
                    "midi": 69,
                    "time": 78.87636899999987,
                    "velocity": 0.7716535433070866,
                    "duration": 0.9831456250000059
                },
                {
                    "name": "F4",
                    "midi": 65,
                    "time": 78.87636899999987,
                    "velocity": 0.7716535433070866,
                    "duration": 0.9831456250000059
                },
                {
                    "name": "A#3",
                    "midi": 58,
                    "time": 79.88760449999988,
                    "velocity": 0.7716535433070866,
                    "duration": 0.14044937500000287
                },
                {
                    "name": "G4",
                    "midi": 67,
                    "time": 79.88760449999988,
                    "velocity": 0.7716535433070866,
                    "duration": 0.14044937500000287
                },
                {
                    "name": "E4",
                    "midi": 64,
                    "time": 79.88760449999988,
                    "velocity": 0.7716535433070866,
                    "duration": 0.14044937500000287
                },
                {
                    "name": "F4",
                    "midi": 65,
                    "time": 80.05614374999989,
                    "velocity": 0.7716535433070866,
                    "duration": 0.14044937500000287
                },
                {
                    "name": "D4",
                    "midi": 62,
                    "time": 80.05614374999989,
                    "velocity": 0.7716535433070866,
                    "duration": 0.14044937500000287
                },
                {
                    "name": "G4",
                    "midi": 67,
                    "time": 80.2246829999999,
                    "velocity": 0.7716535433070866,
                    "duration": 0.14044937500000287
                },
                {
                    "name": "E4",
                    "midi": 64,
                    "time": 80.2246829999999,
                    "velocity": 0.7716535433070866,
                    "duration": 0.14044937500000287
                },
                {
                    "name": "E4",
                    "midi": 64,
                    "time": 80.39322224999991,
                    "velocity": 0.7716535433070866,
                    "duration": 0.14044937500000287
                },
                {
                    "name": "A#3",
                    "midi": 58,
                    "time": 80.39322224999991,
                    "velocity": 0.7716535433070866,
                    "duration": 0.14044937500000287
                },
                {
                    "name": "F4",
                    "midi": 65,
                    "time": 80.56176149999992,
                    "velocity": 0.7716535433070866,
                    "duration": 0.14044937500000287
                },
                {
                    "name": "D4",
                    "midi": 62,
                    "time": 80.56176149999992,
                    "velocity": 0.7716535433070866,
                    "duration": 0.14044937500000287
                },
                {
                    "name": "G4",
                    "midi": 67,
                    "time": 80.73030074999993,
                    "velocity": 0.7716535433070866,
                    "duration": 0.14044937500000287
                },
                {
                    "name": "E4",
                    "midi": 64,
                    "time": 80.73030074999993,
                    "velocity": 0.7716535433070866,
                    "duration": 0.14044937500000287
                },
                {
                    "name": "C#4",
                    "midi": 61,
                    "time": 80.89883999999994,
                    "velocity": 0.7716535433070866,
                    "duration": 0.3089886249999978
                },
                {
                    "name": "A3",
                    "midi": 57,
                    "time": 80.89883999999994,
                    "velocity": 0.7716535433070866,
                    "duration": 0.3089886249999978
                },
                {
                    "name": "E4",
                    "midi": 64,
                    "time": 80.89883999999994,
                    "velocity": 0.7716535433070866,
                    "duration": 0.3089886249999978
                },
                {
                    "name": "A3",
                    "midi": 57,
                    "time": 81.23591849999994,
                    "velocity": 0.7716535433070866,
                    "duration": 0.3089886249999978
                },
                {
                    "name": "C#4",
                    "midi": 61,
                    "time": 81.23591849999994,
                    "velocity": 0.7716535433070866,
                    "duration": 0.3089886249999978
                },
                {
                    "name": "C#4",
                    "midi": 61,
                    "time": 81.57299699999994,
                    "velocity": 0.7716535433070866,
                    "duration": 0.9831456250000059
                },
                {
                    "name": "G4",
                    "midi": 67,
                    "time": 81.57299699999994,
                    "velocity": 0.7716535433070866,
                    "duration": 0.9831456250000059
                },
                {
                    "name": "E4",
                    "midi": 64,
                    "time": 81.57299699999994,
                    "velocity": 0.7716535433070866,
                    "duration": 0.9831456250000059
                },
                {
                    "name": "F#4",
                    "midi": 66,
                    "time": 82.58423249999996,
                    "velocity": 0.7716535433070866,
                    "duration": 0.14044937500000287
                },
                {
                    "name": "D4",
                    "midi": 62,
                    "time": 82.58423249999996,
                    "velocity": 0.7716535433070866,
                    "duration": 0.14044937500000287
                },
                {
                    "name": "A3",
                    "midi": 57,
                    "time": 82.58423249999996,
                    "velocity": 0.5511811023622047,
                    "duration": 0.14044937500000287
                },
                {
                    "name": "E4",
                    "midi": 64,
                    "time": 82.75277174999997,
                    "velocity": 0.7716535433070866,
                    "duration": 0.14044937500000287
                },
                {
                    "name": "C#4",
                    "midi": 61,
                    "time": 82.75277174999997,
                    "velocity": 0.7716535433070866,
                    "duration": 0.14044937500000287
                },
                {
                    "name": "D4",
                    "midi": 62,
                    "time": 82.92131099999997,
                    "velocity": 0.7716535433070866,
                    "duration": 0.6320221874999987
                },
                {
                    "name": "F#4",
                    "midi": 66,
                    "time": 82.92131099999997,
                    "velocity": 0.7716535433070866,
                    "duration": 0.6320221874999987
                }
            ],
            "controlChanges": {},
            "id": 7,
            "instrumentNumber": 10,
            "instrument": "music box",
            "instrumentFamily": "chromatic percussion",
            "channelNumber": 6,
            "isPercussion": false
        }
    ]
}