{
    "header": {
        "PPQ": 240,
        "timeSignature": [
            3,
            4
        ],
        "bpm": 112.00005973336519,
        "name": "Flibbit@aol.com"
    },
    "startTime": 0,
    "duration": 78.82808295833337,
    "tracks": [
        {
            "startTime": 0,
            "duration": 0,
            "length": 0,
            "notes": [],
            "controlChanges": {},
            "id": 0
        },
        {
            "startTime": 0,
            "duration": 78.73879729166667,
            "length": 32,
            "notes": [
                {
                    "name": "D2",
                    "midi": 38,
                    "time": 0,
                    "velocity": 1,
                    "duration": 1.6294634166666668
                },
                {
                    "name": "A2",
                    "midi": 45,
                    "time": 1.607142,
                    "velocity": 1,
                    "duration": 1.6964276666666667
                },
                {
                    "name": "A#1",
                    "midi": 34,
                    "time": 3.214284,
                    "velocity": 1,
                    "duration": 1.6964276666666676
                },
                {
                    "name": "F1",
                    "midi": 29,
                    "time": 4.821426000000001,
                    "velocity": 1,
                    "duration": 1.4620527916666672
                },
                {
                    "name": "G1",
                    "midi": 31,
                    "time": 6.428568000000001,
                    "velocity": 1,
                    "duration": 1.5736598749999997
                },
                {
                    "name": "D2",
                    "midi": 38,
                    "time": 8.035710000000002,
                    "velocity": 1,
                    "duration": 1.5066956250000008
                },
                {
                    "name": "G1",
                    "midi": 31,
                    "time": 9.642852000000003,
                    "velocity": 1,
                    "duration": 1.5178563333333326
                },
                {
                    "name": "A1",
                    "midi": 33,
                    "time": 11.249994000000003,
                    "velocity": 1,
                    "duration": 1.2611600416666668
                },
                {
                    "name": "D2",
                    "midi": 38,
                    "time": 12.857136000000002,
                    "velocity": 1,
                    "duration": 1.6294634166666668
                },
                {
                    "name": "A2",
                    "midi": 45,
                    "time": 14.464278000000002,
                    "velocity": 1,
                    "duration": 1.6964276666666667
                },
                {
                    "name": "A#1",
                    "midi": 34,
                    "time": 16.071420000000003,
                    "velocity": 1,
                    "duration": 1.696427666666665
                },
                {
                    "name": "F1",
                    "midi": 29,
                    "time": 17.678562000000003,
                    "velocity": 1,
                    "duration": 1.4620527916666646
                },
                {
                    "name": "G1",
                    "midi": 31,
                    "time": 19.285704000000003,
                    "velocity": 1,
                    "duration": 1.4732135
                },
                {
                    "name": "D2",
                    "midi": 38,
                    "time": 20.892846000000002,
                    "velocity": 1,
                    "duration": 1.5959812916666678
                },
                {
                    "name": "A1",
                    "midi": 33,
                    "time": 22.499988000000002,
                    "velocity": 1,
                    "duration": 1.696427666666665
                },
                {
                    "name": "D2",
                    "midi": 38,
                    "time": 24.10713,
                    "velocity": 1,
                    "duration": 1.4174099583333337
                },
                {
                    "name": "D2",
                    "midi": 38,
                    "time": 51.428544,
                    "velocity": 1,
                    "duration": 1.6294634166666668
                },
                {
                    "name": "A2",
                    "midi": 45,
                    "time": 53.035686000000005,
                    "velocity": 1,
                    "duration": 1.696427666666665
                },
                {
                    "name": "A#1",
                    "midi": 34,
                    "time": 54.642828,
                    "velocity": 1,
                    "duration": 1.696427666666672
                },
                {
                    "name": "F1",
                    "midi": 29,
                    "time": 56.249970000000005,
                    "velocity": 1,
                    "duration": 1.4620527916666717
                },
                {
                    "name": "G1",
                    "midi": 31,
                    "time": 57.85711200000001,
                    "velocity": 1,
                    "duration": 1.573659874999997
                },
                {
                    "name": "D2",
                    "midi": 38,
                    "time": 59.464254000000004,
                    "velocity": 1,
                    "duration": 1.506695624999999
                },
                {
                    "name": "G1",
                    "midi": 31,
                    "time": 61.071396,
                    "velocity": 1,
                    "duration": 1.5178563333333344
                },
                {
                    "name": "A1",
                    "midi": 33,
                    "time": 62.678538,
                    "velocity": 1,
                    "duration": 1.2611600416666633
                },
                {
                    "name": "D2",
                    "midi": 38,
                    "time": 64.28568,
                    "velocity": 1,
                    "duration": 1.6294634166666668
                },
                {
                    "name": "A2",
                    "midi": 45,
                    "time": 65.892822,
                    "velocity": 1,
                    "duration": 1.696427666666679
                },
                {
                    "name": "A#1",
                    "midi": 34,
                    "time": 67.499964,
                    "velocity": 1,
                    "duration": 1.696427666666665
                },
                {
                    "name": "F1",
                    "midi": 29,
                    "time": 69.107106,
                    "velocity": 1,
                    "duration": 1.4620527916666646
                },
                {
                    "name": "G1",
                    "midi": 31,
                    "time": 70.714248,
                    "velocity": 1,
                    "duration": 1.4732135
                },
                {
                    "name": "D2",
                    "midi": 38,
                    "time": 72.32139,
                    "velocity": 1,
                    "duration": 1.5959812916666607
                },
                {
                    "name": "A1",
                    "midi": 33,
                    "time": 73.92853199999999,
                    "velocity": 1,
                    "duration": 1.2611600416666704
                },
                {
                    "name": "D2",
                    "midi": 38,
                    "time": 75.535674,
                    "velocity": 1,
                    "duration": 3.203123291666671
                }
            ],
            "controlChanges": {},
            "id": 1,
            "name": "TremStrings",
            "instrumentNumber": 44,
            "instrument": "tremolo strings",
            "instrumentFamily": "strings",
            "channelNumber": 0,
            "isPercussion": false
        },
        {
            "startTime": 0,
            "duration": 78.7611187083334,
            "length": 112,
            "notes": [
                {
                    "name": "A4",
                    "midi": 69,
                    "time": 0,
                    "velocity": 0.7086614173228346,
                    "duration": 0.33482125
                },
                {
                    "name": "A4",
                    "midi": 69,
                    "time": 0.535714,
                    "velocity": 0.7086614173228346,
                    "duration": 0.267857
                },
                {
                    "name": "A4",
                    "midi": 69,
                    "time": 1.071428,
                    "velocity": 0.7086614173228346,
                    "duration": 0.2790177083333334
                },
                {
                    "name": "A4",
                    "midi": 69,
                    "time": 1.607142,
                    "velocity": 0.7086614173228346,
                    "duration": 0.25669629166666663
                },
                {
                    "name": "A4",
                    "midi": 69,
                    "time": 2.142856,
                    "velocity": 0.7086614173228346,
                    "duration": 0.24553558333333347
                },
                {
                    "name": "A4",
                    "midi": 69,
                    "time": 2.67857,
                    "velocity": 0.7086614173228346,
                    "duration": 0.2678569999999998
                },
                {
                    "name": "F4",
                    "midi": 65,
                    "time": 3.214284,
                    "velocity": 0.7086614173228346,
                    "duration": 0.26785700000000023
                },
                {
                    "name": "F4",
                    "midi": 65,
                    "time": 3.7499980000000006,
                    "velocity": 0.7086614173228346,
                    "duration": 0.2232141666666667
                },
                {
                    "name": "F4",
                    "midi": 65,
                    "time": 4.285712000000001,
                    "velocity": 0.7086614173228346,
                    "duration": 0.23437487500000032
                },
                {
                    "name": "F4",
                    "midi": 65,
                    "time": 4.8214260000000015,
                    "velocity": 0.7086614173228346,
                    "duration": 0.25669629166666663
                },
                {
                    "name": "F4",
                    "midi": 65,
                    "time": 5.357140000000001,
                    "velocity": 0.7086614173228346,
                    "duration": 0.24553558333333303
                },
                {
                    "name": "F4",
                    "midi": 65,
                    "time": 5.892854000000001,
                    "velocity": 0.7086614173228346,
                    "duration": 0.25669629166666663
                },
                {
                    "name": "D4",
                    "midi": 62,
                    "time": 6.428568,
                    "velocity": 0.7086614173228346,
                    "duration": 0.26785700000000023
                },
                {
                    "name": "D4",
                    "midi": 62,
                    "time": 6.964282000000001,
                    "velocity": 0.7086614173228346,
                    "duration": 0.23437487500000032
                },
                {
                    "name": "D4",
                    "midi": 62,
                    "time": 7.499996000000001,
                    "velocity": 0.7086614173228346,
                    "duration": 0.25669629166666663
                },
                {
                    "name": "D4",
                    "midi": 62,
                    "time": 8.035710000000002,
                    "velocity": 0.7086614173228346,
                    "duration": 0.27901770833333295
                },
                {
                    "name": "D4",
                    "midi": 62,
                    "time": 8.571424000000002,
                    "velocity": 0.7086614173228346,
                    "duration": 0.26785699999999935
                },
                {
                    "name": "D4",
                    "midi": 62,
                    "time": 9.107138,
                    "velocity": 0.7086614173228346,
                    "duration": 0.29017841666666655
                },
                {
                    "name": "D4",
                    "midi": 62,
                    "time": 9.642852000000001,
                    "velocity": 0.7086614173228346,
                    "duration": 0.29017841666666655
                },
                {
                    "name": "D4",
                    "midi": 62,
                    "time": 10.178566000000002,
                    "velocity": 0.7086614173228346,
                    "duration": 0.26785699999999935
                },
                {
                    "name": "D4",
                    "midi": 62,
                    "time": 10.71428,
                    "velocity": 0.7086614173228346,
                    "duration": 0.23437487500000032
                },
                {
                    "name": "D4",
                    "midi": 62,
                    "time": 11.249994000000001,
                    "velocity": 0.7086614173228346,
                    "duration": 0.4017855000000008
                },
                {
                    "name": "E4",
                    "midi": 64,
                    "time": 11.785708000000001,
                    "velocity": 0.7086614173228346,
                    "duration": 0.3794640833333336
                },
                {
                    "name": "E4",
                    "midi": 64,
                    "time": 12.321422000000002,
                    "velocity": 0.7086614173228346,
                    "duration": 0.3348212499999992
                },
                {
                    "name": "A4",
                    "midi": 69,
                    "time": 12.857136,
                    "velocity": 0.7086614173228346,
                    "duration": 0.3348212499999992
                },
                {
                    "name": "A4",
                    "midi": 69,
                    "time": 13.39285,
                    "velocity": 0.7086614173228346,
                    "duration": 0.26785699999999935
                },
                {
                    "name": "A4",
                    "midi": 69,
                    "time": 13.928563999999998,
                    "velocity": 0.7086614173228346,
                    "duration": 0.27901770833333295
                },
                {
                    "name": "A4",
                    "midi": 69,
                    "time": 14.464277999999998,
                    "velocity": 0.7086614173228346,
                    "duration": 0.2566962916666675
                },
                {
                    "name": "A4",
                    "midi": 69,
                    "time": 14.999991999999999,
                    "velocity": 0.7086614173228346,
                    "duration": 0.24553558333333392
                },
                {
                    "name": "A4",
                    "midi": 69,
                    "time": 15.535706,
                    "velocity": 0.7086614173228346,
                    "duration": 0.26785699999999935
                },
                {
                    "name": "F4",
                    "midi": 65,
                    "time": 16.07142,
                    "velocity": 0.7086614173228346,
                    "duration": 0.26785699999999935
                },
                {
                    "name": "F4",
                    "midi": 65,
                    "time": 16.607134,
                    "velocity": 0.7086614173228346,
                    "duration": 0.22321416666666494
                },
                {
                    "name": "F4",
                    "midi": 65,
                    "time": 17.142847999999997,
                    "velocity": 0.7086614173228346,
                    "duration": 0.23437487500000032
                },
                {
                    "name": "F4",
                    "midi": 65,
                    "time": 17.678561999999996,
                    "velocity": 0.7086614173228346,
                    "duration": 0.22321416666666494
                },
                {
                    "name": "F4",
                    "midi": 65,
                    "time": 18.214275999999995,
                    "velocity": 0.7086614173228346,
                    "duration": 0.23437487500000032
                },
                {
                    "name": "F4",
                    "midi": 65,
                    "time": 18.749989999999993,
                    "velocity": 0.7086614173228346,
                    "duration": 0.3236605416666656
                },
                {
                    "name": "D4",
                    "midi": 62,
                    "time": 19.285703999999992,
                    "velocity": 0.7086614173228346,
                    "duration": 0.31249983333333375
                },
                {
                    "name": "D4",
                    "midi": 62,
                    "time": 19.82141799999999,
                    "velocity": 0.7086614173228346,
                    "duration": 0.29017841666666655
                },
                {
                    "name": "D4",
                    "midi": 62,
                    "time": 20.35713199999999,
                    "velocity": 0.7086614173228346,
                    "duration": 0.26785699999999935
                },
                {
                    "name": "D4",
                    "midi": 62,
                    "time": 20.892845999999988,
                    "velocity": 0.7086614173228346,
                    "duration": 0.26785699999999935
                },
                {
                    "name": "D4",
                    "midi": 62,
                    "time": 21.428559999999987,
                    "velocity": 0.7086614173228346,
                    "duration": 0.2566962916666675
                },
                {
                    "name": "D4",
                    "midi": 62,
                    "time": 21.96427399999999,
                    "velocity": 0.7086614173228346,
                    "duration": 0.31249983333333375
                },
                {
                    "name": "C4",
                    "midi": 60,
                    "time": 22.499987999999988,
                    "velocity": 0.7086614173228346,
                    "duration": 0.35714266666666816
                },
                {
                    "name": "C4",
                    "midi": 60,
                    "time": 23.03570199999999,
                    "velocity": 0.7086614173228346,
                    "duration": 0.31249983333333375
                },
                {
                    "name": "C4",
                    "midi": 60,
                    "time": 23.57141599999999,
                    "velocity": 0.7086614173228346,
                    "duration": 0.3013391249999984
                },
                {
                    "name": "D4",
                    "midi": 62,
                    "time": 24.107129999999987,
                    "velocity": 0.7086614173228346,
                    "duration": 1.3950885416666665
                },
                {
                    "name": "E4",
                    "midi": 64,
                    "time": 27.321413999999987,
                    "velocity": 0.7086614173228346,
                    "duration": 1.6183027083333315
                },
                {
                    "name": "G4",
                    "midi": 67,
                    "time": 28.928555999999986,
                    "velocity": 0.7086614173228346,
                    "duration": 1.5959812916666642
                },
                {
                    "name": "F4",
                    "midi": 65,
                    "time": 30.535697999999982,
                    "velocity": 0.7086614173228346,
                    "duration": 1.5513384583333334
                },
                {
                    "name": "A4",
                    "midi": 69,
                    "time": 32.142839999999985,
                    "velocity": 0.7086614173228346,
                    "duration": 1.6071420000000032
                },
                {
                    "name": "G4",
                    "midi": 67,
                    "time": 33.74998199999999,
                    "velocity": 0.7086614173228346,
                    "duration": 1.7745526250000054
                },
                {
                    "name": "A4",
                    "midi": 69,
                    "time": 35.35712399999999,
                    "velocity": 0.7086614173228346,
                    "duration": 1.6071420000000032
                },
                {
                    "name": "G4",
                    "midi": 67,
                    "time": 36.964265999999995,
                    "velocity": 0.7086614173228346,
                    "duration": 1.5290170416666697
                },
                {
                    "name": "F4",
                    "midi": 65,
                    "time": 38.571408,
                    "velocity": 0.7086614173228346,
                    "duration": 1.8303561666666681
                },
                {
                    "name": "E4",
                    "midi": 64,
                    "time": 40.17855,
                    "velocity": 0.7086614173228346,
                    "duration": 1.607141999999996
                },
                {
                    "name": "G4",
                    "midi": 67,
                    "time": 41.785692,
                    "velocity": 0.7086614173228346,
                    "duration": 1.6071420000000032
                },
                {
                    "name": "F4",
                    "midi": 65,
                    "time": 43.392834,
                    "velocity": 0.7086614173228346,
                    "duration": 1.6071420000000032
                },
                {
                    "name": "A4",
                    "midi": 69,
                    "time": 44.999976000000004,
                    "velocity": 0.7086614173228346,
                    "duration": 1.350445708333332
                },
                {
                    "name": "A#4",
                    "midi": 70,
                    "time": 46.607118,
                    "velocity": 0.7086614173228346,
                    "duration": 1.4843742083333353
                },
                {
                    "name": "G#4",
                    "midi": 68,
                    "time": 48.21426,
                    "velocity": 0.7086614173228346,
                    "duration": 1.7187490833333356
                },
                {
                    "name": "A4",
                    "midi": 69,
                    "time": 49.821402000000006,
                    "velocity": 0.7086614173228346,
                    "duration": 1.2946421666666623
                },
                {
                    "name": "A4",
                    "midi": 69,
                    "time": 51.428544,
                    "velocity": 0.7086614173228346,
                    "duration": 0.803570999999998
                },
                {
                    "name": "A4",
                    "midi": 69,
                    "time": 51.964258,
                    "velocity": 0.7086614173228346,
                    "duration": 0.8147317083333334
                },
                {
                    "name": "A4",
                    "midi": 69,
                    "time": 52.499972,
                    "velocity": 0.7086614173228346,
                    "duration": 0.7924102916666627
                },
                {
                    "name": "A4",
                    "midi": 69,
                    "time": 53.035686,
                    "velocity": 0.7086614173228346,
                    "duration": 0.7812495833333344
                },
                {
                    "name": "A4",
                    "midi": 69,
                    "time": 53.5714,
                    "velocity": 0.7086614173228346,
                    "duration": 0.8035710000000051
                },
                {
                    "name": "A4",
                    "midi": 69,
                    "time": 54.107114,
                    "velocity": 0.7086614173228346,
                    "duration": 0.803570999999998
                },
                {
                    "name": "F4",
                    "midi": 65,
                    "time": 54.642828,
                    "velocity": 0.7086614173228346,
                    "duration": 0.26785699999999935
                },
                {
                    "name": "F4",
                    "midi": 65,
                    "time": 55.178542,
                    "velocity": 0.7086614173228346,
                    "duration": 0.22321416666666494
                },
                {
                    "name": "F4",
                    "midi": 65,
                    "time": 55.714256,
                    "velocity": 0.7086614173228346,
                    "duration": 0.23437487500000032
                },
                {
                    "name": "F4",
                    "midi": 65,
                    "time": 56.24997,
                    "velocity": 0.7086614173228346,
                    "duration": 0.25669629166666397
                },
                {
                    "name": "F4",
                    "midi": 65,
                    "time": 56.785683999999996,
                    "velocity": 0.7086614173228346,
                    "duration": 0.2455355833333357
                },
                {
                    "name": "F4",
                    "midi": 65,
                    "time": 57.321398,
                    "velocity": 0.7086614173228346,
                    "duration": 0.25669629166666397
                },
                {
                    "name": "D4",
                    "midi": 62,
                    "time": 57.857112,
                    "velocity": 0.7086614173228346,
                    "duration": 0.26785699999999935
                },
                {
                    "name": "D4",
                    "midi": 62,
                    "time": 58.392826,
                    "velocity": 0.7086614173228346,
                    "duration": 0.23437487500000032
                },
                {
                    "name": "D4",
                    "midi": 62,
                    "time": 58.92854,
                    "velocity": 0.7086614173228346,
                    "duration": 0.25669629166666397
                },
                {
                    "name": "D4",
                    "midi": 62,
                    "time": 59.464254,
                    "velocity": 0.7086614173228346,
                    "duration": 0.2790177083333347
                },
                {
                    "name": "D4",
                    "midi": 62,
                    "time": 59.999967999999996,
                    "velocity": 0.7086614173228346,
                    "duration": 0.26785699999999935
                },
                {
                    "name": "D4",
                    "midi": 62,
                    "time": 60.535681999999994,
                    "velocity": 0.7086614173228346,
                    "duration": 0.2901784166666701
                },
                {
                    "name": "D4",
                    "midi": 62,
                    "time": 61.071396,
                    "velocity": 0.7086614173228346,
                    "duration": 0.2901784166666701
                },
                {
                    "name": "D4",
                    "midi": 62,
                    "time": 61.607110000000006,
                    "velocity": 0.7086614173228346,
                    "duration": 0.26785699999999935
                },
                {
                    "name": "D4",
                    "midi": 62,
                    "time": 62.142824000000005,
                    "velocity": 0.7086614173228346,
                    "duration": 0.23437487500000032
                },
                {
                    "name": "D4",
                    "midi": 62,
                    "time": 62.678538,
                    "velocity": 0.7086614173228346,
                    "duration": 0.40178550000000257
                },
                {
                    "name": "E4",
                    "midi": 64,
                    "time": 63.21425200000001,
                    "velocity": 0.7086614173228346,
                    "duration": 0.3794640833333318
                },
                {
                    "name": "E4",
                    "midi": 64,
                    "time": 63.74996600000001,
                    "velocity": 0.7086614173228346,
                    "duration": 0.3348212499999974
                },
                {
                    "name": "A4",
                    "midi": 69,
                    "time": 64.28568,
                    "velocity": 0.7086614173228346,
                    "duration": 0.8035710000000051
                },
                {
                    "name": "A4",
                    "midi": 69,
                    "time": 64.821394,
                    "velocity": 0.7086614173228346,
                    "duration": 0.8147317083333405
                },
                {
                    "name": "A4",
                    "midi": 69,
                    "time": 65.35710800000001,
                    "velocity": 0.7086614173228346,
                    "duration": 0.7924102916666698
                },
                {
                    "name": "A4",
                    "midi": 69,
                    "time": 65.89282200000001,
                    "velocity": 0.7086614173228346,
                    "duration": 0.7812495833333344
                },
                {
                    "name": "A4",
                    "midi": 69,
                    "time": 66.42853600000001,
                    "velocity": 0.7086614173228346,
                    "duration": 0.8035710000000051
                },
                {
                    "name": "A4",
                    "midi": 69,
                    "time": 66.96425,
                    "velocity": 0.7086614173228346,
                    "duration": 0.35714266666667527
                },
                {
                    "name": "F4",
                    "midi": 65,
                    "time": 67.49996400000002,
                    "velocity": 0.7086614173228346,
                    "duration": 0.26785700000000645
                },
                {
                    "name": "F4",
                    "midi": 65,
                    "time": 68.03567800000003,
                    "velocity": 0.7086614173228346,
                    "duration": 0.22321416666666494
                },
                {
                    "name": "F4",
                    "midi": 65,
                    "time": 68.57139200000003,
                    "velocity": 0.7086614173228346,
                    "duration": 0.23437487500000032
                },
                {
                    "name": "F4",
                    "midi": 65,
                    "time": 69.10710600000003,
                    "velocity": 0.7086614173228346,
                    "duration": 0.22321416666666494
                },
                {
                    "name": "F4",
                    "midi": 65,
                    "time": 69.64282000000003,
                    "velocity": 0.7086614173228346,
                    "duration": 0.23437487500000032
                },
                {
                    "name": "F4",
                    "midi": 65,
                    "time": 70.17853400000003,
                    "velocity": 0.7086614173228346,
                    "duration": 0.32366054166666913
                },
                {
                    "name": "D4",
                    "midi": 62,
                    "time": 70.71424800000003,
                    "velocity": 0.7086614173228346,
                    "duration": 0.31249983333333375
                },
                {
                    "name": "D4",
                    "midi": 62,
                    "time": 71.24996200000002,
                    "velocity": 0.7086614173228346,
                    "duration": 0.290178416666663
                },
                {
                    "name": "D4",
                    "midi": 62,
                    "time": 71.78567600000002,
                    "velocity": 0.7086614173228346,
                    "duration": 0.26785700000000645
                },
                {
                    "name": "D4",
                    "midi": 62,
                    "time": 72.32139000000004,
                    "velocity": 0.7086614173228346,
                    "duration": 0.26785700000000645
                },
                {
                    "name": "D4",
                    "midi": 62,
                    "time": 72.85710400000005,
                    "velocity": 0.7086614173228346,
                    "duration": 0.2566962916666711
                },
                {
                    "name": "D4",
                    "midi": 62,
                    "time": 73.39281800000005,
                    "velocity": 0.7086614173228346,
                    "duration": 0.31249983333333375
                },
                {
                    "name": "C4",
                    "midi": 60,
                    "time": 73.92853200000005,
                    "velocity": 0.7086614173228346,
                    "duration": 0.35714266666666106
                },
                {
                    "name": "C4",
                    "midi": 60,
                    "time": 74.46424600000005,
                    "velocity": 0.7086614173228346,
                    "duration": 0.31249983333333375
                },
                {
                    "name": "C4",
                    "midi": 60,
                    "time": 74.99996000000004,
                    "velocity": 0.7086614173228346,
                    "duration": 0.3013391249999984
                },
                {
                    "name": "A3",
                    "midi": 57,
                    "time": 75.53567400000004,
                    "velocity": 0.7086614173228346,
                    "duration": 0.5691961250000048
                },
                {
                    "name": "F3",
                    "midi": 53,
                    "time": 76.07138800000004,
                    "velocity": 0.7086614173228346,
                    "duration": 0.2455355833333357
                },
                {
                    "name": "A3",
                    "midi": 57,
                    "time": 76.33924500000005,
                    "velocity": 0.7086614173228346,
                    "duration": 0.23437487500000032
                },
                {
                    "name": "F3",
                    "midi": 53,
                    "time": 76.60710200000005,
                    "velocity": 0.7086614173228346,
                    "duration": 0.26785700000000645
                },
                {
                    "name": "A3",
                    "midi": 57,
                    "time": 76.87495900000006,
                    "velocity": 0.7086614173228346,
                    "duration": 0.3348212500000045
                },
                {
                    "name": "D3",
                    "midi": 50,
                    "time": 77.14281600000007,
                    "velocity": 0.7086614173228346,
                    "duration": 1.6183027083333315
                }
            ],
            "controlChanges": {
                "91": [
                    {
                        "number": 91,
                        "time": 0,
                        "value": 0.6614173228346457
                    }
                ]
            },
            "id": 2,
            "name": "StringEns1",
            "instrumentNumber": 48,
            "instrument": "string ensemble 1",
            "instrumentFamily": "ensemble",
            "channelNumber": 1,
            "isPercussion": false
        },
        {
            "startTime": 0,
            "duration": 78.82808295833337,
            "length": 61,
            "notes": [
                {
                    "name": "D6",
                    "midi": 86,
                    "time": 0,
                    "velocity": 0.8346456692913385,
                    "duration": 1.6183027083333335
                },
                {
                    "name": "C6",
                    "midi": 84,
                    "time": 1.607142,
                    "velocity": 0.8346456692913385,
                    "duration": 1.607142
                },
                {
                    "name": "A#5",
                    "midi": 82,
                    "time": 3.214284,
                    "velocity": 0.8346456692913385,
                    "duration": 1.0825887083333336
                },
                {
                    "name": "A5",
                    "midi": 81,
                    "time": 4.285712,
                    "velocity": 0.8346456692913385,
                    "duration": 0.24553558333333392
                },
                {
                    "name": "G5",
                    "midi": 79,
                    "time": 4.553569,
                    "velocity": 0.8346456692913385,
                    "duration": 0.31249983333333375
                },
                {
                    "name": "A5",
                    "midi": 81,
                    "time": 4.821426000000001,
                    "velocity": 0.8346456692913385,
                    "duration": 1.0044637500000002
                },
                {
                    "name": "F5",
                    "midi": 77,
                    "time": 5.892854000000001,
                    "velocity": 0.8346456692913385,
                    "duration": 0.5022318749999997
                },
                {
                    "name": "G5",
                    "midi": 79,
                    "time": 6.428568,
                    "velocity": 0.8346456692913385,
                    "duration": 1.1718743749999998
                },
                {
                    "name": "E5",
                    "midi": 76,
                    "time": 7.499996,
                    "velocity": 0.8346456692913385,
                    "duration": 0.4464283333333334
                },
                {
                    "name": "F5",
                    "midi": 77,
                    "time": 8.03571,
                    "velocity": 0.8346456692913385,
                    "duration": 1.0491065833333337
                },
                {
                    "name": "D5",
                    "midi": 74,
                    "time": 9.107138,
                    "velocity": 0.8346456692913385,
                    "duration": 0.5245532916666669
                },
                {
                    "name": "G5",
                    "midi": 79,
                    "time": 9.642852000000001,
                    "velocity": 0.8346456692913385,
                    "duration": 1.0602672916666673
                },
                {
                    "name": "F5",
                    "midi": 77,
                    "time": 10.714280000000002,
                    "velocity": 0.8346456692913385,
                    "duration": 0.2566962916666675
                },
                {
                    "name": "G5",
                    "midi": 79,
                    "time": 10.982137000000003,
                    "velocity": 0.8346456692913385,
                    "duration": 0.29017841666666655
                },
                {
                    "name": "A5",
                    "midi": 81,
                    "time": 11.249994000000003,
                    "velocity": 0.8346456692913385,
                    "duration": 1.3950885416666665
                },
                {
                    "name": "D6",
                    "midi": 86,
                    "time": 12.857136000000002,
                    "velocity": 0.8346456692913385,
                    "duration": 1.5066956250000008
                },
                {
                    "name": "C6",
                    "midi": 84,
                    "time": 14.464278000000004,
                    "velocity": 0.8346456692913385,
                    "duration": 1.5066956250000008
                },
                {
                    "name": "A#5",
                    "midi": 82,
                    "time": 16.071420000000003,
                    "velocity": 0.8346456692913385,
                    "duration": 1.0379458749999984
                },
                {
                    "name": "A5",
                    "midi": 81,
                    "time": 17.142848,
                    "velocity": 0.8346456692913385,
                    "duration": 0.2566962916666675
                },
                {
                    "name": "G5",
                    "midi": 79,
                    "time": 17.410705,
                    "velocity": 0.8346456692913385,
                    "duration": 0.33482125000000096
                },
                {
                    "name": "A5",
                    "midi": 81,
                    "time": 17.678562,
                    "velocity": 0.8346456692913385,
                    "duration": 1.1272315416666672
                },
                {
                    "name": "F5",
                    "midi": 77,
                    "time": 18.74999,
                    "velocity": 0.8346456692913385,
                    "duration": 0.5245532916666669
                },
                {
                    "name": "G5",
                    "midi": 79,
                    "time": 19.285704,
                    "velocity": 0.8346456692913385,
                    "duration": 1.1383922500000025
                },
                {
                    "name": "E5",
                    "midi": 76,
                    "time": 20.357132,
                    "velocity": 0.8346456692913385,
                    "duration": 0.5245532916666669
                },
                {
                    "name": "F5",
                    "midi": 77,
                    "time": 20.892846,
                    "velocity": 0.8346456692913385,
                    "duration": 0.9263387916666659
                },
                {
                    "name": "G5",
                    "midi": 79,
                    "time": 21.964274,
                    "velocity": 0.8346456692913385,
                    "duration": 0.45758904166666525
                },
                {
                    "name": "E5",
                    "midi": 76,
                    "time": 22.499988,
                    "velocity": 0.8346456692913385,
                    "duration": 0.49107116666666784
                },
                {
                    "name": "D5",
                    "midi": 74,
                    "time": 23.035702,
                    "velocity": 0.8346456692913385,
                    "duration": 0.513392583333335
                },
                {
                    "name": "C5",
                    "midi": 72,
                    "time": 23.571416000000003,
                    "velocity": 0.8346456692913385,
                    "duration": 0.5468747083333305
                },
                {
                    "name": "D5",
                    "midi": 74,
                    "time": 24.10713,
                    "velocity": 0.8346456692913385,
                    "duration": 1.5513384583333334
                },
                {
                    "name": "A5",
                    "midi": 81,
                    "time": 50.892830000000004,
                    "velocity": 0.8346456692913385,
                    "duration": 0.5022318749999997
                },
                {
                    "name": "D6",
                    "midi": 86,
                    "time": 51.428544,
                    "velocity": 0.8346456692913385,
                    "duration": 1.6183027083333386
                },
                {
                    "name": "C6",
                    "midi": 84,
                    "time": 53.035686000000005,
                    "velocity": 0.8346456692913385,
                    "duration": 1.6071420000000032
                },
                {
                    "name": "A#5",
                    "midi": 82,
                    "time": 54.64282800000001,
                    "velocity": 0.8346456692913385,
                    "duration": 1.0825887083333328
                },
                {
                    "name": "A5",
                    "midi": 81,
                    "time": 55.714256000000006,
                    "velocity": 0.8346456692913385,
                    "duration": 0.2566962916666711
                },
                {
                    "name": "G5",
                    "midi": 79,
                    "time": 55.98211300000001,
                    "velocity": 0.8346456692913385,
                    "duration": 0.31249983333333375
                },
                {
                    "name": "A5",
                    "midi": 81,
                    "time": 56.24997000000001,
                    "velocity": 0.8346456692913385,
                    "duration": 1.0044637499999993
                },
                {
                    "name": "F5",
                    "midi": 77,
                    "time": 57.32139800000001,
                    "velocity": 0.8346456692913385,
                    "duration": 0.5022318749999997
                },
                {
                    "name": "G5",
                    "midi": 79,
                    "time": 57.85711200000001,
                    "velocity": 0.8346456692913385,
                    "duration": 1.1718743749999945
                },
                {
                    "name": "E5",
                    "midi": 76,
                    "time": 58.928540000000005,
                    "velocity": 0.8346456692913385,
                    "duration": 0.4464283333333299
                },
                {
                    "name": "F5",
                    "midi": 77,
                    "time": 59.464254000000004,
                    "velocity": 0.8346456692913385,
                    "duration": 1.0491065833333337
                },
                {
                    "name": "D5",
                    "midi": 74,
                    "time": 60.535682,
                    "velocity": 0.8346456692913385,
                    "duration": 0.5245532916666633
                },
                {
                    "name": "G5",
                    "midi": 79,
                    "time": 61.071396,
                    "velocity": 0.8346456692913385,
                    "duration": 1.060267291666669
                },
                {
                    "name": "F5",
                    "midi": 77,
                    "time": 62.142824000000005,
                    "velocity": 0.8346456692913385,
                    "duration": 0.25669629166666397
                },
                {
                    "name": "G5",
                    "midi": 79,
                    "time": 62.410681000000004,
                    "velocity": 0.8346456692913385,
                    "duration": 0.290178416666663
                },
                {
                    "name": "A5",
                    "midi": 81,
                    "time": 62.678538,
                    "velocity": 0.8346456692913385,
                    "duration": 1.3950885416666665
                },
                {
                    "name": "D6",
                    "midi": 86,
                    "time": 64.28568,
                    "velocity": 0.8346456692913385,
                    "duration": 1.506695625000006
                },
                {
                    "name": "C6",
                    "midi": 84,
                    "time": 65.89282200000001,
                    "velocity": 0.8346456692913385,
                    "duration": 1.506695625000006
                },
                {
                    "name": "A#5",
                    "midi": 82,
                    "time": 67.49996400000002,
                    "velocity": 0.8346456692913385,
                    "duration": 1.0379458750000055
                },
                {
                    "name": "A5",
                    "midi": 81,
                    "time": 68.57139200000003,
                    "velocity": 0.8346456692913385,
                    "duration": 0.2566962916666711
                },
                {
                    "name": "G5",
                    "midi": 79,
                    "time": 68.83924900000004,
                    "velocity": 0.8346456692913385,
                    "duration": 0.3348212500000045
                },
                {
                    "name": "A5",
                    "midi": 81,
                    "time": 69.10710600000004,
                    "velocity": 0.8346456692913385,
                    "duration": 1.12723154166666
                },
                {
                    "name": "F5",
                    "midi": 77,
                    "time": 70.17853400000004,
                    "velocity": 0.8346456692913385,
                    "duration": 0.5245532916666633
                },
                {
                    "name": "G5",
                    "midi": 79,
                    "time": 70.71424800000004,
                    "velocity": 0.8346456692913385,
                    "duration": 1.1383922499999954
                },
                {
                    "name": "E5",
                    "midi": 76,
                    "time": 71.78567600000004,
                    "velocity": 0.8346456692913385,
                    "duration": 0.5245532916666633
                },
                {
                    "name": "F5",
                    "midi": 77,
                    "time": 72.32139000000004,
                    "velocity": 0.8346456692913385,
                    "duration": 0.9263387916666659
                },
                {
                    "name": "G5",
                    "midi": 79,
                    "time": 73.39281800000003,
                    "velocity": 0.8346456692913385,
                    "duration": 0.45758904166666525
                },
                {
                    "name": "E5",
                    "midi": 76,
                    "time": 73.92853200000003,
                    "velocity": 0.8346456692913385,
                    "duration": 0.4910711666666714
                },
                {
                    "name": "D5",
                    "midi": 74,
                    "time": 74.46424600000003,
                    "velocity": 0.8346456692913385,
                    "duration": 0.5133925833333279
                },
                {
                    "name": "C5",
                    "midi": 72,
                    "time": 74.99996000000003,
                    "velocity": 0.8346456692913385,
                    "duration": 0.5468747083333341
                },
                {
                    "name": "D5",
                    "midi": 74,
                    "time": 75.53567400000003,
                    "velocity": 0.8346456692913385,
                    "duration": 3.29240895833334
                }
            ],
            "controlChanges": {
                "91": [
                    {
                        "number": 91,
                        "time": 0,
                        "value": 0.8267716535433071
                    }
                ]
            },
            "id": 3,
            "name": "VoiceOohs",
            "instrumentNumber": 53,
            "instrument": "voice oohs",
            "instrumentFamily": "ensemble",
            "channelNumber": 2,
            "isPercussion": false
        },
        {
            "startTime": 0.267857,
            "duration": 78.51558312500009,
            "length": 98,
            "notes": [
                {
                    "name": "F4",
                    "midi": 65,
                    "time": 0.267857,
                    "velocity": 0.6062992125984252,
                    "duration": 0.3124998333333333
                },
                {
                    "name": "F4",
                    "midi": 65,
                    "time": 0.803571,
                    "velocity": 0.6062992125984252,
                    "duration": 0.30133912499999993
                },
                {
                    "name": "F4",
                    "midi": 65,
                    "time": 1.339285,
                    "velocity": 0.6062992125984252,
                    "duration": 0.2790177083333334
                },
                {
                    "name": "F4",
                    "midi": 65,
                    "time": 1.874999,
                    "velocity": 0.6062992125984252,
                    "duration": 0.2790177083333336
                },
                {
                    "name": "F4",
                    "midi": 65,
                    "time": 2.4107130000000003,
                    "velocity": 0.6062992125984252,
                    "duration": 0.24553558333333347
                },
                {
                    "name": "F4",
                    "midi": 65,
                    "time": 2.9464270000000004,
                    "velocity": 0.6062992125984252,
                    "duration": 0.2232141666666667
                },
                {
                    "name": "D4",
                    "midi": 62,
                    "time": 3.4821410000000004,
                    "velocity": 0.6062992125984252,
                    "duration": 0.25669629166666663
                },
                {
                    "name": "D4",
                    "midi": 62,
                    "time": 4.017855000000001,
                    "velocity": 0.6062992125984252,
                    "duration": 0.26785700000000023
                },
                {
                    "name": "D4",
                    "midi": 62,
                    "time": 4.553569000000001,
                    "velocity": 0.6062992125984252,
                    "duration": 0.26785700000000023
                },
                {
                    "name": "C4",
                    "midi": 60,
                    "time": 5.089283000000002,
                    "velocity": 0.6062992125984252,
                    "duration": 0.31249983333333375
                },
                {
                    "name": "C4",
                    "midi": 60,
                    "time": 5.624997000000002,
                    "velocity": 0.6062992125984252,
                    "duration": 0.25669629166666663
                },
                {
                    "name": "C4",
                    "midi": 60,
                    "time": 6.160711000000003,
                    "velocity": 0.6062992125984252,
                    "duration": 0.26785700000000023
                },
                {
                    "name": "A#3",
                    "midi": 58,
                    "time": 6.696425000000003,
                    "velocity": 0.6062992125984252,
                    "duration": 0.27901770833333295
                },
                {
                    "name": "A#3",
                    "midi": 58,
                    "time": 7.232139000000003,
                    "velocity": 0.6062992125984252,
                    "duration": 0.26785700000000023
                },
                {
                    "name": "A#3",
                    "midi": 58,
                    "time": 7.767853000000003,
                    "velocity": 0.6062992125984252,
                    "duration": 0.26785700000000023
                },
                {
                    "name": "A3",
                    "midi": 57,
                    "time": 8.303567000000003,
                    "velocity": 0.6062992125984252,
                    "duration": 0.26785699999999935
                },
                {
                    "name": "A3",
                    "midi": 57,
                    "time": 8.839281000000001,
                    "velocity": 0.6062992125984252,
                    "duration": 0.29017841666666655
                },
                {
                    "name": "A3",
                    "midi": 57,
                    "time": 9.374995000000002,
                    "velocity": 0.6062992125984252,
                    "duration": 0.27901770833333295
                },
                {
                    "name": "A#3",
                    "midi": 58,
                    "time": 9.910709000000002,
                    "velocity": 0.6062992125984252,
                    "duration": 0.3348212499999992
                },
                {
                    "name": "A#3",
                    "midi": 58,
                    "time": 10.446423000000001,
                    "velocity": 0.6062992125984252,
                    "duration": 0.24553558333333392
                },
                {
                    "name": "A#3",
                    "midi": 58,
                    "time": 10.982137000000002,
                    "velocity": 0.6062992125984252,
                    "duration": 0.2566962916666675
                },
                {
                    "name": "D4",
                    "midi": 62,
                    "time": 11.249994000000003,
                    "velocity": 0.6062992125984252,
                    "duration": 0.47991045833333423
                },
                {
                    "name": "E4",
                    "midi": 64,
                    "time": 11.785708000000003,
                    "velocity": 0.6062992125984252,
                    "duration": 0.5468747083333341
                },
                {
                    "name": "C#4",
                    "midi": 61,
                    "time": 12.321422000000004,
                    "velocity": 0.6062992125984252,
                    "duration": 0.5357140000000005
                },
                {
                    "name": "F4",
                    "midi": 65,
                    "time": 13.124993000000003,
                    "velocity": 0.6062992125984252,
                    "duration": 0.31249983333333375
                },
                {
                    "name": "F4",
                    "midi": 65,
                    "time": 13.660707000000004,
                    "velocity": 0.6062992125984252,
                    "duration": 0.30133912500000015
                },
                {
                    "name": "F4",
                    "midi": 65,
                    "time": 14.196421000000004,
                    "velocity": 0.6062992125984252,
                    "duration": 0.27901770833333295
                },
                {
                    "name": "F4",
                    "midi": 65,
                    "time": 14.732135000000005,
                    "velocity": 0.6062992125984252,
                    "duration": 0.27901770833333295
                },
                {
                    "name": "F4",
                    "midi": 65,
                    "time": 15.267849000000005,
                    "velocity": 0.6062992125984252,
                    "duration": 0.24553558333333392
                },
                {
                    "name": "F4",
                    "midi": 65,
                    "time": 15.803563000000006,
                    "velocity": 0.6062992125984252,
                    "duration": 0.2232141666666667
                },
                {
                    "name": "D4",
                    "midi": 62,
                    "time": 16.339277000000006,
                    "velocity": 0.6062992125984252,
                    "duration": 0.2566962916666675
                },
                {
                    "name": "D4",
                    "midi": 62,
                    "time": 16.87499100000001,
                    "velocity": 0.6062992125984252,
                    "duration": 0.26785699999999935
                },
                {
                    "name": "D4",
                    "midi": 62,
                    "time": 17.410705000000007,
                    "velocity": 0.6062992125984252,
                    "duration": 0.26785699999999935
                },
                {
                    "name": "C4",
                    "midi": 60,
                    "time": 17.946419000000006,
                    "velocity": 0.6062992125984252,
                    "duration": 0.31249983333333375
                },
                {
                    "name": "C4",
                    "midi": 60,
                    "time": 18.482133000000005,
                    "velocity": 0.6062992125984252,
                    "duration": 0.2566962916666675
                },
                {
                    "name": "C4",
                    "midi": 60,
                    "time": 19.017847000000007,
                    "velocity": 0.6062992125984252,
                    "duration": 0.26785699999999935
                },
                {
                    "name": "A#3",
                    "midi": 58,
                    "time": 19.553561000000006,
                    "velocity": 0.6062992125984252,
                    "duration": 0.2790177083333347
                },
                {
                    "name": "A#3",
                    "midi": 58,
                    "time": 20.089275000000008,
                    "velocity": 0.6062992125984252,
                    "duration": 0.26785699999999935
                },
                {
                    "name": "A#3",
                    "midi": 58,
                    "time": 20.624989000000006,
                    "velocity": 0.6062992125984252,
                    "duration": 0.26785699999999935
                },
                {
                    "name": "A3",
                    "midi": 57,
                    "time": 21.160703000000005,
                    "velocity": 0.6062992125984252,
                    "duration": 0.26785699999999935
                },
                {
                    "name": "A3",
                    "midi": 57,
                    "time": 21.696417000000004,
                    "velocity": 0.6062992125984252,
                    "duration": 0.29017841666666655
                },
                {
                    "name": "A3",
                    "midi": 57,
                    "time": 22.232131000000003,
                    "velocity": 0.6062992125984252,
                    "duration": 0.2790177083333347
                },
                {
                    "name": "A3",
                    "midi": 57,
                    "time": 22.767845000000005,
                    "velocity": 0.6062992125984252,
                    "duration": 0.31249983333333375
                },
                {
                    "name": "A3",
                    "midi": 57,
                    "time": 23.303559000000003,
                    "velocity": 0.6062992125984252,
                    "duration": 0.33482125000000096
                },
                {
                    "name": "A3",
                    "midi": 57,
                    "time": 23.839273000000006,
                    "velocity": 0.6062992125984252,
                    "duration": 0.22321416666666494
                },
                {
                    "name": "A3",
                    "midi": 57,
                    "time": 24.642844000000004,
                    "velocity": 0.6062992125984252,
                    "duration": 0.5580354166666659
                },
                {
                    "name": "D3",
                    "midi": 50,
                    "time": 25.178558000000002,
                    "velocity": 0.6062992125984252,
                    "duration": 0.35714266666666816
                },
                {
                    "name": "F4",
                    "midi": 65,
                    "time": 51.69640100000001,
                    "velocity": 0.6062992125984252,
                    "duration": 0.31249983333333375
                },
                {
                    "name": "F4",
                    "midi": 65,
                    "time": 52.23211500000001,
                    "velocity": 0.6062992125984252,
                    "duration": 0.3013391249999984
                },
                {
                    "name": "F4",
                    "midi": 65,
                    "time": 52.767829000000006,
                    "velocity": 0.6062992125984252,
                    "duration": 0.2790177083333347
                },
                {
                    "name": "F4",
                    "midi": 65,
                    "time": 53.303543000000005,
                    "velocity": 0.6062992125984252,
                    "duration": 0.2790177083333347
                },
                {
                    "name": "F4",
                    "midi": 65,
                    "time": 53.839257,
                    "velocity": 0.6062992125984252,
                    "duration": 0.2455355833333357
                },
                {
                    "name": "F4",
                    "midi": 65,
                    "time": 54.37497100000001,
                    "velocity": 0.6062992125984252,
                    "duration": 0.22321416666666494
                },
                {
                    "name": "D4",
                    "midi": 62,
                    "time": 54.91068500000001,
                    "velocity": 0.6062992125984252,
                    "duration": 0.25669629166666397
                },
                {
                    "name": "D4",
                    "midi": 62,
                    "time": 55.44639900000001,
                    "velocity": 0.6062992125984252,
                    "duration": 0.26785699999999935
                },
                {
                    "name": "D4",
                    "midi": 62,
                    "time": 55.982113000000005,
                    "velocity": 0.6062992125984252,
                    "duration": 0.26785699999999935
                },
                {
                    "name": "C4",
                    "midi": 60,
                    "time": 56.517827000000004,
                    "velocity": 0.6062992125984252,
                    "duration": 0.31249983333333375
                },
                {
                    "name": "C4",
                    "midi": 60,
                    "time": 57.053541,
                    "velocity": 0.6062992125984252,
                    "duration": 0.25669629166666397
                },
                {
                    "name": "C4",
                    "midi": 60,
                    "time": 57.589255,
                    "velocity": 0.6062992125984252,
                    "duration": 0.26785699999999935
                },
                {
                    "name": "A#3",
                    "midi": 58,
                    "time": 58.124969,
                    "velocity": 0.6062992125984252,
                    "duration": 0.2790177083333347
                },
                {
                    "name": "A#3",
                    "midi": 58,
                    "time": 58.660683,
                    "velocity": 0.6062992125984252,
                    "duration": 0.26785699999999935
                },
                {
                    "name": "A#3",
                    "midi": 58,
                    "time": 59.196397,
                    "velocity": 0.6062992125984252,
                    "duration": 0.26785699999999935
                },
                {
                    "name": "A3",
                    "midi": 57,
                    "time": 59.732110999999996,
                    "velocity": 0.6062992125984252,
                    "duration": 0.26785699999999935
                },
                {
                    "name": "A3",
                    "midi": 57,
                    "time": 60.267824999999995,
                    "velocity": 0.6062992125984252,
                    "duration": 0.2901784166666701
                },
                {
                    "name": "A3",
                    "midi": 57,
                    "time": 60.803539,
                    "velocity": 0.6062992125984252,
                    "duration": 0.2790177083333347
                },
                {
                    "name": "A#3",
                    "midi": 58,
                    "time": 61.339253,
                    "velocity": 0.6062992125984252,
                    "duration": 0.3348212499999974
                },
                {
                    "name": "A#3",
                    "midi": 58,
                    "time": 61.874967,
                    "velocity": 0.6062992125984252,
                    "duration": 0.2455355833333357
                },
                {
                    "name": "A#3",
                    "midi": 58,
                    "time": 62.410681000000004,
                    "velocity": 0.6062992125984252,
                    "duration": 0.25669629166666397
                },
                {
                    "name": "D4",
                    "midi": 62,
                    "time": 62.678538,
                    "velocity": 0.6062992125984252,
                    "duration": 0.479910458333336
                },
                {
                    "name": "E4",
                    "midi": 64,
                    "time": 63.21425200000001,
                    "velocity": 0.6062992125984252,
                    "duration": 0.5468747083333341
                },
                {
                    "name": "C#4",
                    "midi": 61,
                    "time": 63.74996600000001,
                    "velocity": 0.6062992125984252,
                    "duration": 0.5357140000000058
                },
                {
                    "name": "F4",
                    "midi": 65,
                    "time": 64.55353700000002,
                    "velocity": 0.6062992125984252,
                    "duration": 0.31249983333333375
                },
                {
                    "name": "F4",
                    "midi": 65,
                    "time": 65.08925100000002,
                    "velocity": 0.6062992125984252,
                    "duration": 0.3013391249999984
                },
                {
                    "name": "F4",
                    "midi": 65,
                    "time": 65.62496500000002,
                    "velocity": 0.6062992125984252,
                    "duration": 0.2790177083333276
                },
                {
                    "name": "F4",
                    "midi": 65,
                    "time": 66.16067900000002,
                    "velocity": 0.6062992125984252,
                    "duration": 0.2790177083333276
                },
                {
                    "name": "F4",
                    "midi": 65,
                    "time": 66.69639300000001,
                    "velocity": 0.6062992125984252,
                    "duration": 0.2455355833333357
                },
                {
                    "name": "F4",
                    "midi": 65,
                    "time": 67.23210700000001,
                    "velocity": 0.6062992125984252,
                    "duration": 0.22321416666666494
                },
                {
                    "name": "D4",
                    "midi": 62,
                    "time": 67.76782100000001,
                    "velocity": 0.6062992125984252,
                    "duration": 0.2566962916666711
                },
                {
                    "name": "D4",
                    "midi": 62,
                    "time": 68.30353500000001,
                    "velocity": 0.6062992125984252,
                    "duration": 0.26785700000000645
                },
                {
                    "name": "D4",
                    "midi": 62,
                    "time": 68.83924900000002,
                    "velocity": 0.6062992125984252,
                    "duration": 0.26785700000000645
                },
                {
                    "name": "C4",
                    "midi": 60,
                    "time": 69.37496300000004,
                    "velocity": 0.6062992125984252,
                    "duration": 0.31249983333333375
                },
                {
                    "name": "C4",
                    "midi": 60,
                    "time": 69.91067700000004,
                    "velocity": 0.6062992125984252,
                    "duration": 0.2566962916666711
                },
                {
                    "name": "C4",
                    "midi": 60,
                    "time": 70.44639100000003,
                    "velocity": 0.6062992125984252,
                    "duration": 0.26785700000000645
                },
                {
                    "name": "A#3",
                    "midi": 58,
                    "time": 70.98210500000005,
                    "velocity": 0.6062992125984252,
                    "duration": 0.2790177083333276
                },
                {
                    "name": "A#3",
                    "midi": 58,
                    "time": 71.51781900000005,
                    "velocity": 0.6062992125984252,
                    "duration": 0.26785700000000645
                },
                {
                    "name": "A#3",
                    "midi": 58,
                    "time": 72.05353300000006,
                    "velocity": 0.6062992125984252,
                    "duration": 0.26785700000000645
                },
                {
                    "name": "A3",
                    "midi": 57,
                    "time": 72.58924700000007,
                    "velocity": 0.6062992125984252,
                    "duration": 0.26785700000000645
                },
                {
                    "name": "A3",
                    "midi": 57,
                    "time": 73.12496100000008,
                    "velocity": 0.6062992125984252,
                    "duration": 0.290178416666663
                },
                {
                    "name": "A3",
                    "midi": 57,
                    "time": 73.66067500000008,
                    "velocity": 0.6062992125984252,
                    "duration": 0.2790177083333276
                },
                {
                    "name": "A3",
                    "midi": 57,
                    "time": 74.19638900000008,
                    "velocity": 0.6062992125984252,
                    "duration": 0.31249983333333375
                },
                {
                    "name": "A3",
                    "midi": 57,
                    "time": 74.73210300000008,
                    "velocity": 0.6062992125984252,
                    "duration": 0.3348212500000045
                },
                {
                    "name": "A3",
                    "midi": 57,
                    "time": 75.26781700000008,
                    "velocity": 0.6062992125984252,
                    "duration": 0.22321416666666494
                },
                {
                    "name": "D4",
                    "midi": 62,
                    "time": 75.53567400000007,
                    "velocity": 0.6062992125984252,
                    "duration": 0.3348212500000045
                },
                {
                    "name": "D4",
                    "midi": 62,
                    "time": 76.07138800000007,
                    "velocity": 0.6062992125984252,
                    "duration": 0.3459819583333399
                },
                {
                    "name": "D4",
                    "midi": 62,
                    "time": 76.60710200000008,
                    "velocity": 0.6062992125984252,
                    "duration": 0.40178550000000257
                },
                {
                    "name": "D4",
                    "midi": 62,
                    "time": 77.14281600000008,
                    "velocity": 0.6062992125984252,
                    "duration": 0.3348212500000045
                },
                {
                    "name": "D4",
                    "midi": 62,
                    "time": 77.67853000000008,
                    "velocity": 0.6062992125984252,
                    "duration": 0.3459819583333399
                },
                {
                    "name": "D4",
                    "midi": 62,
                    "time": 78.2142440000001,
                    "velocity": 0.6062992125984252,
                    "duration": 0.3013391249999984
                }
            ],
            "controlChanges": {
                "91": [
                    {
                        "number": 91,
                        "time": 0,
                        "value": 0.6614173228346457
                    }
                ]
            },
            "id": 4,
            "name": "StringEns1",
            "instrumentNumber": 48,
            "instrument": "string ensemble 1",
            "instrumentFamily": "ensemble",
            "channelNumber": 3,
            "isPercussion": false
        },
        {
            "startTime": 13.392850000000001,
            "duration": 73.87272845833343,
            "length": 82,
            "notes": [
                {
                    "name": "D5",
                    "midi": 74,
                    "time": 13.392850000000001,
                    "velocity": 0.7480314960629921,
                    "duration": 0.24553558333333392
                },
                {
                    "name": "E5",
                    "midi": 76,
                    "time": 13.660707000000002,
                    "velocity": 0.7480314960629921,
                    "duration": 0.2008927499999995
                },
                {
                    "name": "F5",
                    "midi": 77,
                    "time": 13.928564000000001,
                    "velocity": 0.7480314960629921,
                    "duration": 0.30133912500000015
                },
                {
                    "name": "G5",
                    "midi": 79,
                    "time": 14.196421,
                    "velocity": 0.7480314960629921,
                    "duration": 0.18973204166666768
                },
                {
                    "name": "A5",
                    "midi": 81,
                    "time": 14.464278000000002,
                    "velocity": 0.7480314960629921,
                    "duration": 0.24553558333333392
                },
                {
                    "name": "A5",
                    "midi": 81,
                    "time": 14.464278000000002,
                    "velocity": 0.7480314960629921,
                    "duration": 0.24553558333333392
                },
                {
                    "name": "F5",
                    "midi": 77,
                    "time": 14.732135000000003,
                    "velocity": 0.7480314960629921,
                    "duration": 0.24553558333333392
                },
                {
                    "name": "C5",
                    "midi": 72,
                    "time": 14.999992000000004,
                    "velocity": 0.7480314960629921,
                    "duration": 0.17857133333333408
                },
                {
                    "name": "F5",
                    "midi": 77,
                    "time": 15.267849000000005,
                    "velocity": 0.7480314960629921,
                    "duration": 0.2566962916666675
                },
                {
                    "name": "A4",
                    "midi": 69,
                    "time": 15.535706000000006,
                    "velocity": 0.7480314960629921,
                    "duration": 0.26785699999999935
                },
                {
                    "name": "C5",
                    "midi": 72,
                    "time": 15.803563000000006,
                    "velocity": 0.7480314960629921,
                    "duration": 0.2232141666666667
                },
                {
                    "name": "A#4",
                    "midi": 70,
                    "time": 16.071420000000007,
                    "velocity": 0.7480314960629921,
                    "duration": 0.14508920833333505
                },
                {
                    "name": "A#4",
                    "midi": 70,
                    "time": 16.60713400000001,
                    "velocity": 0.7480314960629921,
                    "duration": 0.23437487500000032
                },
                {
                    "name": "C5",
                    "midi": 72,
                    "time": 16.87499100000001,
                    "velocity": 0.7480314960629921,
                    "duration": 0.26785699999999935
                },
                {
                    "name": "D5",
                    "midi": 74,
                    "time": 17.142848000000008,
                    "velocity": 0.7480314960629921,
                    "duration": 0.24553558333333214
                },
                {
                    "name": "E5",
                    "midi": 76,
                    "time": 17.410705000000007,
                    "velocity": 0.7480314960629921,
                    "duration": 0.26785699999999935
                },
                {
                    "name": "F5",
                    "midi": 77,
                    "time": 17.678562000000007,
                    "velocity": 0.7480314960629921,
                    "duration": 0.1674106249999987
                },
                {
                    "name": "C5",
                    "midi": 72,
                    "time": 17.946419000000006,
                    "velocity": 0.7480314960629921,
                    "duration": 0.24553558333333214
                },
                {
                    "name": "A4",
                    "midi": 69,
                    "time": 18.214276000000005,
                    "velocity": 0.7480314960629921,
                    "duration": 0.22321416666666494
                },
                {
                    "name": "C5",
                    "midi": 72,
                    "time": 18.482133000000005,
                    "velocity": 0.7480314960629921,
                    "duration": 0.2566962916666675
                },
                {
                    "name": "F4",
                    "midi": 65,
                    "time": 18.749990000000004,
                    "velocity": 0.7480314960629921,
                    "duration": 0.27901770833333117
                },
                {
                    "name": "A4",
                    "midi": 69,
                    "time": 19.017847000000003,
                    "velocity": 0.7480314960629921,
                    "duration": 0.22321416666666494
                },
                {
                    "name": "G4",
                    "midi": 67,
                    "time": 19.285704000000003,
                    "velocity": 0.7480314960629921,
                    "duration": 0.14508920833333505
                },
                {
                    "name": "A#4",
                    "midi": 70,
                    "time": 19.821418000000005,
                    "velocity": 0.7480314960629921,
                    "duration": 0.2566962916666675
                },
                {
                    "name": "C5",
                    "midi": 72,
                    "time": 20.089275000000004,
                    "velocity": 0.7480314960629921,
                    "duration": 0.26785699999999935
                },
                {
                    "name": "D5",
                    "midi": 74,
                    "time": 20.357132000000004,
                    "velocity": 0.7480314960629921,
                    "duration": 0.29017841666666655
                },
                {
                    "name": "E5",
                    "midi": 76,
                    "time": 20.624989000000003,
                    "velocity": 0.7480314960629921,
                    "duration": 0.15624991666666688
                },
                {
                    "name": "F5",
                    "midi": 77,
                    "time": 20.892846000000002,
                    "velocity": 0.7480314960629921,
                    "duration": 0.22321416666666494
                },
                {
                    "name": "D5",
                    "midi": 74,
                    "time": 21.160703,
                    "velocity": 0.7480314960629921,
                    "duration": 0.2566962916666675
                },
                {
                    "name": "A4",
                    "midi": 69,
                    "time": 21.42856,
                    "velocity": 0.7480314960629921,
                    "duration": 0.2566962916666675
                },
                {
                    "name": "D5",
                    "midi": 74,
                    "time": 21.696417,
                    "velocity": 0.7480314960629921,
                    "duration": 0.22321416666666494
                },
                {
                    "name": "A4",
                    "midi": 69,
                    "time": 21.964274,
                    "velocity": 0.7480314960629921,
                    "duration": 0.29017841666666655
                },
                {
                    "name": "D4",
                    "midi": 62,
                    "time": 25.714272,
                    "velocity": 0.7480314960629921,
                    "duration": 1.7075883750000003
                },
                {
                    "name": "C#4",
                    "midi": 61,
                    "time": 27.321414,
                    "velocity": 0.7480314960629921,
                    "duration": 1.4732135
                },
                {
                    "name": "C#4",
                    "midi": 61,
                    "time": 28.928556,
                    "velocity": 0.7480314960629921,
                    "duration": 1.6071419999999996
                },
                {
                    "name": "D4",
                    "midi": 62,
                    "time": 30.535698,
                    "velocity": 0.7480314960629921,
                    "duration": 1.4620527916666681
                },
                {
                    "name": "C4",
                    "midi": 60,
                    "time": 32.14284,
                    "velocity": 0.7480314960629921,
                    "duration": 1.4620527916666646
                },
                {
                    "name": "C4",
                    "midi": 60,
                    "time": 33.749981999999996,
                    "velocity": 0.7480314960629921,
                    "duration": 1.4620527916666646
                },
                {
                    "name": "C4",
                    "midi": 60,
                    "time": 35.35712399999999,
                    "velocity": 0.7480314960629921,
                    "duration": 1.3616064166666675
                },
                {
                    "name": "C4",
                    "midi": 60,
                    "time": 36.964265999999995,
                    "velocity": 0.7480314960629921,
                    "duration": 0.9598209166666649
                },
                {
                    "name": "C#4",
                    "midi": 61,
                    "time": 38.03569399999999,
                    "velocity": 0.7480314960629921,
                    "duration": 0.46874975000000063
                },
                {
                    "name": "D4",
                    "midi": 62,
                    "time": 38.57140799999999,
                    "velocity": 0.7480314960629921,
                    "duration": 1.7187490833333356
                },
                {
                    "name": "C#4",
                    "midi": 61,
                    "time": 40.178549999999994,
                    "velocity": 0.7480314960629921,
                    "duration": 1.350445708333332
                },
                {
                    "name": "C#4",
                    "midi": 61,
                    "time": 41.78569199999999,
                    "velocity": 0.7480314960629921,
                    "duration": 1.5959812916666678
                },
                {
                    "name": "D4",
                    "midi": 62,
                    "time": 43.39283399999999,
                    "velocity": 0.7480314960629921,
                    "duration": 1.3616064166666675
                },
                {
                    "name": "D4",
                    "midi": 62,
                    "time": 44.999976,
                    "velocity": 0.7480314960629921,
                    "duration": 1.4174099583333302
                },
                {
                    "name": "D4",
                    "midi": 62,
                    "time": 46.60711799999999,
                    "velocity": 0.7480314960629921,
                    "duration": 1.439731375000001
                },
                {
                    "name": "D4",
                    "midi": 62,
                    "time": 48.214259999999996,
                    "velocity": 0.7480314960629921,
                    "duration": 1.6183027083333386
                },
                {
                    "name": "C#4",
                    "midi": 61,
                    "time": 49.821402,
                    "velocity": 0.7480314960629921,
                    "duration": 1.1272315416666672
                },
                {
                    "name": "D5",
                    "midi": 74,
                    "time": 64.821394,
                    "velocity": 0.7480314960629921,
                    "duration": 0.2455355833333357
                },
                {
                    "name": "E5",
                    "midi": 76,
                    "time": 65.089251,
                    "velocity": 0.7480314960629921,
                    "duration": 0.20089274999999418
                },
                {
                    "name": "F5",
                    "midi": 77,
                    "time": 65.357108,
                    "velocity": 0.7480314960629921,
                    "duration": 0.3013391250000126
                },
                {
                    "name": "G5",
                    "midi": 79,
                    "time": 65.624965,
                    "velocity": 0.7480314960629921,
                    "duration": 0.189732041666673
                },
                {
                    "name": "A5",
                    "midi": 81,
                    "time": 65.89282200000001,
                    "velocity": 0.7480314960629921,
                    "duration": 0.20089274999999418
                },
                {
                    "name": "A5",
                    "midi": 81,
                    "time": 65.89282200000001,
                    "velocity": 0.7480314960629921,
                    "duration": 0.24553558333332148
                },
                {
                    "name": "F5",
                    "midi": 77,
                    "time": 66.160679,
                    "velocity": 0.7480314960629921,
                    "duration": 0.2455355833333357
                },
                {
                    "name": "C5",
                    "midi": 72,
                    "time": 66.42853600000001,
                    "velocity": 0.7480314960629921,
                    "duration": 0.17857133333333763
                },
                {
                    "name": "F5",
                    "midi": 77,
                    "time": 66.69639300000001,
                    "velocity": 0.7480314960629921,
                    "duration": 0.2566962916666711
                },
                {
                    "name": "A4",
                    "midi": 69,
                    "time": 66.96425000000002,
                    "velocity": 0.7480314960629921,
                    "duration": 0.26785700000000645
                },
                {
                    "name": "C5",
                    "midi": 72,
                    "time": 67.23210700000003,
                    "velocity": 0.7480314960629921,
                    "duration": 0.22321416666666494
                },
                {
                    "name": "A#4",
                    "midi": 70,
                    "time": 67.49996400000002,
                    "velocity": 0.7480314960629921,
                    "duration": 0.1450892083333315
                },
                {
                    "name": "A#4",
                    "midi": 70,
                    "time": 68.03567800000002,
                    "velocity": 0.7480314960629921,
                    "duration": 0.23437487500000032
                },
                {
                    "name": "C5",
                    "midi": 72,
                    "time": 68.30353500000002,
                    "velocity": 0.7480314960629921,
                    "duration": 0.26785700000000645
                },
                {
                    "name": "D5",
                    "midi": 74,
                    "time": 68.57139200000003,
                    "velocity": 0.7480314960629921,
                    "duration": 0.2455355833333357
                },
                {
                    "name": "E5",
                    "midi": 76,
                    "time": 68.83924900000004,
                    "velocity": 0.7480314960629921,
                    "duration": 0.26785700000000645
                },
                {
                    "name": "F5",
                    "midi": 77,
                    "time": 69.10710600000004,
                    "velocity": 0.7480314960629921,
                    "duration": 0.16741062500000226
                },
                {
                    "name": "C5",
                    "midi": 72,
                    "time": 69.37496300000005,
                    "velocity": 0.7480314960629921,
                    "duration": 0.2455355833333357
                },
                {
                    "name": "A4",
                    "midi": 69,
                    "time": 69.64282000000006,
                    "velocity": 0.7480314960629921,
                    "duration": 0.22321416666666494
                },
                {
                    "name": "C5",
                    "midi": 72,
                    "time": 69.91067700000005,
                    "velocity": 0.7480314960629921,
                    "duration": 0.2566962916666711
                },
                {
                    "name": "F4",
                    "midi": 65,
                    "time": 70.17853400000006,
                    "velocity": 0.7480314960629921,
                    "duration": 0.27901770833334183
                },
                {
                    "name": "A4",
                    "midi": 69,
                    "time": 70.44639100000006,
                    "velocity": 0.7480314960629921,
                    "duration": 0.22321416666666494
                },
                {
                    "name": "G4",
                    "midi": 67,
                    "time": 70.71424800000005,
                    "velocity": 0.7480314960629921,
                    "duration": 0.1450892083333315
                },
                {
                    "name": "A#4",
                    "midi": 70,
                    "time": 71.24996200000005,
                    "velocity": 0.7480314960629921,
                    "duration": 0.2566962916666711
                },
                {
                    "name": "C5",
                    "midi": 72,
                    "time": 71.51781900000006,
                    "velocity": 0.7480314960629921,
                    "duration": 0.26785700000000645
                },
                {
                    "name": "D5",
                    "midi": 74,
                    "time": 71.78567600000007,
                    "velocity": 0.7480314960629921,
                    "duration": 0.2901784166666772
                },
                {
                    "name": "E5",
                    "midi": 76,
                    "time": 72.05353300000007,
                    "velocity": 0.7480314960629921,
                    "duration": 0.15624991666666688
                },
                {
                    "name": "F5",
                    "midi": 77,
                    "time": 72.32139000000008,
                    "velocity": 0.7480314960629921,
                    "duration": 0.22321416666666494
                },
                {
                    "name": "D5",
                    "midi": 74,
                    "time": 72.58924700000007,
                    "velocity": 0.7480314960629921,
                    "duration": 0.2566962916666711
                },
                {
                    "name": "A4",
                    "midi": 69,
                    "time": 72.85710400000008,
                    "velocity": 0.7480314960629921,
                    "duration": 0.2566962916666711
                },
                {
                    "name": "D5",
                    "midi": 74,
                    "time": 73.12496100000008,
                    "velocity": 0.7480314960629921,
                    "duration": 0.22321416666666494
                },
                {
                    "name": "A4",
                    "midi": 69,
                    "time": 73.39281800000008,
                    "velocity": 0.7480314960629921,
                    "duration": 0.2901784166666772
                },
                {
                    "name": "D5",
                    "midi": 74,
                    "time": 73.66067500000008,
                    "velocity": 0.7480314960629921,
                    "duration": 0.21205345833334377
                }
            ],
            "controlChanges": {
                "91": [
                    {
                        "number": 91,
                        "time": 0,
                        "value": 0.7401574803149606
                    }
                ]
            },
            "id": 5,
            "name": "StringEns1",
            "instrumentNumber": 48,
            "instrument": "string ensemble 1",
            "instrumentFamily": "ensemble",
            "channelNumber": 4,
            "isPercussion": false
        },
        {
            "startTime": 25.714272,
            "duration": 50.948633541666645,
            "length": 43,
            "notes": [
                {
                    "name": "F5",
                    "midi": 77,
                    "time": 25.714272,
                    "velocity": 0.7952755905511811,
                    "duration": 1.0491065833333337
                },
                {
                    "name": "E5",
                    "midi": 76,
                    "time": 26.785700000000002,
                    "velocity": 0.7952755905511811,
                    "duration": 0.27901770833333117
                },
                {
                    "name": "D5",
                    "midi": 74,
                    "time": 27.053557,
                    "velocity": 0.7952755905511811,
                    "duration": 0.26785699999999935
                },
                {
                    "name": "E5",
                    "midi": 76,
                    "time": 27.321414,
                    "velocity": 0.7952755905511811,
                    "duration": 0.5915175416666649
                },
                {
                    "name": "C#5",
                    "midi": 73,
                    "time": 27.857128,
                    "velocity": 0.7952755905511811,
                    "duration": 0.5022318749999997
                },
                {
                    "name": "A4",
                    "midi": 69,
                    "time": 28.392841999999998,
                    "velocity": 0.7952755905511811,
                    "duration": 0.5245532916666669
                },
                {
                    "name": "G5",
                    "midi": 79,
                    "time": 28.928555999999997,
                    "velocity": 0.7952755905511811,
                    "duration": 1.0602672916666656
                },
                {
                    "name": "F5",
                    "midi": 77,
                    "time": 29.999983999999994,
                    "velocity": 0.7952755905511811,
                    "duration": 0.27901770833333117
                },
                {
                    "name": "E5",
                    "midi": 76,
                    "time": 30.267840999999994,
                    "velocity": 0.7952755905511811,
                    "duration": 0.25669629166666397
                },
                {
                    "name": "F5",
                    "midi": 77,
                    "time": 30.53569799999999,
                    "velocity": 0.7952755905511811,
                    "duration": 0.5245532916666669
                },
                {
                    "name": "D5",
                    "midi": 74,
                    "time": 31.071411999999988,
                    "velocity": 0.7952755905511811,
                    "duration": 0.513392583333335
                },
                {
                    "name": "A4",
                    "midi": 69,
                    "time": 31.60712599999999,
                    "velocity": 0.7952755905511811,
                    "duration": 0.5691961250000013
                },
                {
                    "name": "A5",
                    "midi": 81,
                    "time": 32.14283999999999,
                    "velocity": 0.7952755905511811,
                    "duration": 1.1049101249999964
                },
                {
                    "name": "G5",
                    "midi": 79,
                    "time": 33.21426799999999,
                    "velocity": 0.7952755905511811,
                    "duration": 0.3013391249999984
                },
                {
                    "name": "F5",
                    "midi": 77,
                    "time": 33.48212499999999,
                    "velocity": 0.7952755905511811,
                    "duration": 0.25669629166666397
                },
                {
                    "name": "G5",
                    "midi": 79,
                    "time": 33.74998199999999,
                    "velocity": 0.7952755905511811,
                    "duration": 1.1160708333333318
                },
                {
                    "name": "A#5",
                    "midi": 82,
                    "time": 34.821409999999986,
                    "velocity": 0.7952755905511811,
                    "duration": 0.5803568333333331
                },
                {
                    "name": "A5",
                    "midi": 81,
                    "time": 35.357123999999985,
                    "velocity": 0.7952755905511811,
                    "duration": 1.0379458749999984
                },
                {
                    "name": "F5",
                    "midi": 77,
                    "time": 36.42855199999998,
                    "velocity": 0.7952755905511811,
                    "duration": 0.5691961249999977
                },
                {
                    "name": "G5",
                    "midi": 79,
                    "time": 36.96426599999998,
                    "velocity": 0.7952755905511811,
                    "duration": 1.5290170416666626
                },
                {
                    "name": "G5",
                    "midi": 79,
                    "time": 36.96426599999998,
                    "velocity": 0.7952755905511811,
                    "duration": 1.540177749999998
                },
                {
                    "name": "F5",
                    "midi": 77,
                    "time": 38.57140799999998,
                    "velocity": 0.7952755905511811,
                    "duration": 1.1718743749999945
                },
                {
                    "name": "E5",
                    "midi": 76,
                    "time": 39.642835999999974,
                    "velocity": 0.7952755905511811,
                    "duration": 0.3013391249999984
                },
                {
                    "name": "D5",
                    "midi": 74,
                    "time": 39.91069299999997,
                    "velocity": 0.7952755905511811,
                    "duration": 0.3348212499999974
                },
                {
                    "name": "E5",
                    "midi": 76,
                    "time": 40.17854999999997,
                    "velocity": 0.7952755905511811,
                    "duration": 0.4464283333333299
                },
                {
                    "name": "C#5",
                    "midi": 73,
                    "time": 40.71426399999997,
                    "velocity": 0.7952755905511811,
                    "duration": 0.4910711666666643
                },
                {
                    "name": "A4",
                    "midi": 69,
                    "time": 41.24997799999997,
                    "velocity": 0.7952755905511811,
                    "duration": 0.5468747083333341
                },
                {
                    "name": "G5",
                    "midi": 79,
                    "time": 41.78569199999997,
                    "velocity": 0.7952755905511811,
                    "duration": 1.0937494166666681
                },
                {
                    "name": "F5",
                    "midi": 77,
                    "time": 42.85711999999997,
                    "velocity": 0.7952755905511811,
                    "duration": 0.26785699999999935
                },
                {
                    "name": "E5",
                    "midi": 76,
                    "time": 43.12497699999997,
                    "velocity": 0.7952755905511811,
                    "duration": 0.3459819583333328
                },
                {
                    "name": "F5",
                    "midi": 77,
                    "time": 43.39283399999997,
                    "velocity": 0.7952755905511811,
                    "duration": 0.5468747083333341
                },
                {
                    "name": "D5",
                    "midi": 74,
                    "time": 43.92854799999997,
                    "velocity": 0.7952755905511811,
                    "duration": 0.479910458333336
                },
                {
                    "name": "A4",
                    "midi": 69,
                    "time": 44.46426199999998,
                    "velocity": 0.7952755905511811,
                    "duration": 0.4464283333333299
                },
                {
                    "name": "A5",
                    "midi": 81,
                    "time": 44.999975999999975,
                    "velocity": 0.7952755905511811,
                    "duration": 1.093749416666661
                },
                {
                    "name": "A#5",
                    "midi": 82,
                    "time": 46.07140399999997,
                    "velocity": 0.7952755905511811,
                    "duration": 0.25669629166666397
                },
                {
                    "name": "C6",
                    "midi": 84,
                    "time": 46.33926099999997,
                    "velocity": 0.7952755905511811,
                    "duration": 0.36830337499999644
                },
                {
                    "name": "D6",
                    "midi": 86,
                    "time": 46.60711799999997,
                    "velocity": 0.7952755905511811,
                    "duration": 0.5915175416666685
                },
                {
                    "name": "A#5",
                    "midi": 82,
                    "time": 47.14283199999997,
                    "velocity": 0.7952755905511811,
                    "duration": 0.5468747083333412
                },
                {
                    "name": "G5",
                    "midi": 79,
                    "time": 47.678545999999976,
                    "velocity": 0.7952755905511811,
                    "duration": 0.6138389583333321
                },
                {
                    "name": "F5",
                    "midi": 77,
                    "time": 48.214259999999975,
                    "velocity": 0.7952755905511811,
                    "duration": 0.7812495833333344
                },
                {
                    "name": "E5",
                    "midi": 76,
                    "time": 49.28568799999998,
                    "velocity": 0.7952755905511811,
                    "duration": 0.35714266666666816
                },
                {
                    "name": "D5",
                    "midi": 74,
                    "time": 49.55354499999998,
                    "velocity": 0.7952755905511811,
                    "duration": 0.3906247916666672
                },
                {
                    "name": "E5",
                    "midi": 76,
                    "time": 49.82140199999998,
                    "velocity": 0.7952755905511811,
                    "duration": 1.1272315416666672
                }
            ],
            "controlChanges": {
                "91": [
                    {
                        "number": 91,
                        "time": 0,
                        "value": 0.7637795275590551
                    }
                ]
            },
            "id": 6,
            "name": "TremStrings",
            "instrumentNumber": 44,
            "instrument": "tremolo strings",
            "instrumentFamily": "strings",
            "channelNumber": 5,
            "isPercussion": false
        },
        {
            "startTime": 25.714272,
            "duration": 51.26113337500001,
            "length": 11,
            "notes": [
                {
                    "name": "A3",
                    "midi": 57,
                    "time": 25.714272,
                    "velocity": 0.5669291338582677,
                    "duration": 3.0357126666666687
                },
                {
                    "name": "A3",
                    "midi": 57,
                    "time": 28.928556000000004,
                    "velocity": 0.5669291338582677,
                    "duration": 3.0133912500000015
                },
                {
                    "name": "C4",
                    "midi": 60,
                    "time": 31.607126000000004,
                    "velocity": 0.5669291338582677,
                    "duration": 3.3370517916666707
                },
                {
                    "name": "C4",
                    "midi": 60,
                    "time": 35.357124000000006,
                    "velocity": 0.5669291338582677,
                    "duration": 2.6116057500000025
                },
                {
                    "name": "A3",
                    "midi": 57,
                    "time": 38.03569400000001,
                    "velocity": 0.5669291338582677,
                    "duration": 0.3906247916666672
                },
                {
                    "name": "A3",
                    "midi": 57,
                    "time": 38.571408000000005,
                    "velocity": 0.5669291338582677,
                    "duration": 3.0245519583333333
                },
                {
                    "name": "A3",
                    "midi": 57,
                    "time": 41.785692000000004,
                    "velocity": 0.5669291338582677,
                    "duration": 2.9910698333333343
                },
                {
                    "name": "F3",
                    "midi": 53,
                    "time": 44.999976000000004,
                    "velocity": 0.5669291338582677,
                    "duration": 1.7075883750000003
                },
                {
                    "name": "G3",
                    "midi": 55,
                    "time": 46.60711800000001,
                    "velocity": 0.5669291338582677,
                    "duration": 1.6183027083333315
                },
                {
                    "name": "F3",
                    "midi": 53,
                    "time": 48.21426,
                    "velocity": 0.5669291338582677,
                    "duration": 1.6071420000000032
                },
                {
                    "name": "E3",
                    "midi": 52,
                    "time": 49.821402000000006,
                    "velocity": 0.5669291338582677,
                    "duration": 1.439731375000001
                }
            ],
            "controlChanges": {
                "91": [
                    {
                        "number": 91,
                        "time": 0,
                        "value": 0.8267716535433071
                    }
                ]
            },
            "id": 7,
            "name": "StringEns1",
            "instrumentNumber": 48,
            "instrument": "string ensemble 1",
            "instrumentFamily": "ensemble",
            "channelNumber": 6,
            "isPercussion": false
        },
        {
            "startTime": 25.714272,
            "duration": 51.50666895833332,
            "length": 56,
            "notes": [
                {
                    "name": "D2",
                    "midi": 38,
                    "time": 25.714272,
                    "velocity": 0.8818897637795275,
                    "duration": 0.5580354166666659
                },
                {
                    "name": "A1",
                    "midi": 33,
                    "time": 26.249986,
                    "velocity": 0.8818897637795275,
                    "duration": 0.5803568333333367
                },
                {
                    "name": "F1",
                    "midi": 29,
                    "time": 26.785700000000002,
                    "velocity": 0.8818897637795275,
                    "duration": 0.6584817916666701
                },
                {
                    "name": "A2",
                    "midi": 45,
                    "time": 27.321414000000004,
                    "velocity": 0.8818897637795275,
                    "duration": 0.5245532916666669
                },
                {
                    "name": "E2",
                    "midi": 40,
                    "time": 27.857128000000003,
                    "velocity": 0.8818897637795275,
                    "duration": 0.46874975000000063
                },
                {
                    "name": "D2",
                    "midi": 38,
                    "time": 28.392842000000005,
                    "velocity": 0.8818897637795275,
                    "duration": 0.513392583333335
                },
                {
                    "name": "A1",
                    "midi": 33,
                    "time": 28.928556000000007,
                    "velocity": 0.8818897637795275,
                    "duration": 0.5357139999999987
                },
                {
                    "name": "B1",
                    "midi": 35,
                    "time": 29.464270000000006,
                    "velocity": 0.8818897637795275,
                    "duration": 0.5468747083333305
                },
                {
                    "name": "C#2",
                    "midi": 37,
                    "time": 29.999984000000005,
                    "velocity": 0.8818897637795275,
                    "duration": 0.47991045833333246
                },
                {
                    "name": "D2",
                    "midi": 38,
                    "time": 30.535698000000004,
                    "velocity": 0.8818897637795275,
                    "duration": 0.2566962916666675
                },
                {
                    "name": "C#2",
                    "midi": 37,
                    "time": 30.803555000000003,
                    "velocity": 0.8818897637795275,
                    "duration": 0.2566962916666675
                },
                {
                    "name": "D2",
                    "midi": 38,
                    "time": 31.071412000000002,
                    "velocity": 0.8818897637795275,
                    "duration": 0.24553558333333214
                },
                {
                    "name": "E2",
                    "midi": 40,
                    "time": 31.339269,
                    "velocity": 0.8818897637795275,
                    "duration": 0.27901770833333117
                },
                {
                    "name": "F2",
                    "midi": 41,
                    "time": 31.607126,
                    "velocity": 0.8818897637795275,
                    "duration": 0.1227677916666643
                },
                {
                    "name": "G2",
                    "midi": 43,
                    "time": 31.874983,
                    "velocity": 0.8818897637795275,
                    "duration": 0.3013391249999984
                },
                {
                    "name": "F2",
                    "midi": 41,
                    "time": 32.14284,
                    "velocity": 0.8818897637795275,
                    "duration": 0.5803568333333331
                },
                {
                    "name": "F2",
                    "midi": 41,
                    "time": 32.14284,
                    "velocity": 0.8818897637795275,
                    "duration": 0.5803568333333331
                },
                {
                    "name": "C2",
                    "midi": 36,
                    "time": 32.678554,
                    "velocity": 0.8818897637795275,
                    "duration": 0.513392583333335
                },
                {
                    "name": "A1",
                    "midi": 33,
                    "time": 33.214268,
                    "velocity": 0.8818897637795275,
                    "duration": 0.6473210833333312
                },
                {
                    "name": "C2",
                    "midi": 36,
                    "time": 33.749981999999996,
                    "velocity": 0.8818897637795275,
                    "duration": 0.6138389583333321
                },
                {
                    "name": "D2",
                    "midi": 38,
                    "time": 34.285695999999994,
                    "velocity": 0.8818897637795275,
                    "duration": 0.5357139999999987
                },
                {
                    "name": "E2",
                    "midi": 40,
                    "time": 34.82140999999999,
                    "velocity": 0.8818897637795275,
                    "duration": 0.5468747083333341
                },
                {
                    "name": "F2",
                    "midi": 41,
                    "time": 35.35712399999999,
                    "velocity": 0.8818897637795275,
                    "duration": 0.22321416666667204
                },
                {
                    "name": "C2",
                    "midi": 36,
                    "time": 35.892838,
                    "velocity": 0.8818897637795275,
                    "duration": 0.5022318749999997
                },
                {
                    "name": "A1",
                    "midi": 33,
                    "time": 36.428551999999996,
                    "velocity": 0.8818897637795275,
                    "duration": 0.5245532916666633
                },
                {
                    "name": "C2",
                    "midi": 36,
                    "time": 36.964265999999995,
                    "velocity": 0.8818897637795275,
                    "duration": 0.513392583333335
                },
                {
                    "name": "D2",
                    "midi": 38,
                    "time": 37.499979999999994,
                    "velocity": 0.8818897637795275,
                    "duration": 0.4910711666666643
                },
                {
                    "name": "E2",
                    "midi": 40,
                    "time": 38.03569399999999,
                    "velocity": 0.8818897637795275,
                    "duration": 0.5468747083333341
                },
                {
                    "name": "D2",
                    "midi": 38,
                    "time": 38.57140799999999,
                    "velocity": 0.8818897637795275,
                    "duration": 0.5580354166666623
                },
                {
                    "name": "A1",
                    "midi": 33,
                    "time": 39.10712199999999,
                    "velocity": 0.8818897637795275,
                    "duration": 0.5803568333333331
                },
                {
                    "name": "F1",
                    "midi": 29,
                    "time": 39.64283599999999,
                    "velocity": 0.8818897637795275,
                    "duration": 0.6584817916666665
                },
                {
                    "name": "A2",
                    "midi": 45,
                    "time": 40.17854999999999,
                    "velocity": 0.8818897637795275,
                    "duration": 0.5245532916666704
                },
                {
                    "name": "E2",
                    "midi": 40,
                    "time": 40.71426399999999,
                    "velocity": 0.8818897637795275,
                    "duration": 0.46874975000000063
                },
                {
                    "name": "D2",
                    "midi": 38,
                    "time": 41.24997799999999,
                    "velocity": 0.8818897637795275,
                    "duration": 0.513392583333335
                },
                {
                    "name": "A1",
                    "midi": 33,
                    "time": 41.78569199999999,
                    "velocity": 0.8818897637795275,
                    "duration": 0.5357139999999987
                },
                {
                    "name": "B1",
                    "midi": 35,
                    "time": 42.32140599999999,
                    "velocity": 0.8818897637795275,
                    "duration": 0.5468747083333341
                },
                {
                    "name": "C#2",
                    "midi": 37,
                    "time": 42.85711999999999,
                    "velocity": 0.8818897637795275,
                    "duration": 0.479910458333336
                },
                {
                    "name": "D2",
                    "midi": 38,
                    "time": 43.39283399999999,
                    "velocity": 0.8818897637795275,
                    "duration": 0.23437487500000032
                },
                {
                    "name": "D2",
                    "midi": 38,
                    "time": 43.39283399999999,
                    "velocity": 0.8818897637795275,
                    "duration": 0.23437487500000032
                },
                {
                    "name": "C#2",
                    "midi": 37,
                    "time": 43.66069099999999,
                    "velocity": 0.8818897637795275,
                    "duration": 0.23437487500000032
                },
                {
                    "name": "D2",
                    "midi": 38,
                    "time": 43.92854799999999,
                    "velocity": 0.8818897637795275,
                    "duration": 0.26785699999999935
                },
                {
                    "name": "E2",
                    "midi": 40,
                    "time": 44.19640499999999,
                    "velocity": 0.8818897637795275,
                    "duration": 0.23437487500000032
                },
                {
                    "name": "F2",
                    "midi": 41,
                    "time": 44.46426199999999,
                    "velocity": 0.8818897637795275,
                    "duration": 0.2790177083333347
                },
                {
                    "name": "G2",
                    "midi": 43,
                    "time": 44.73211899999999,
                    "velocity": 0.8818897637795275,
                    "duration": 0.21205345833333666
                },
                {
                    "name": "A2",
                    "midi": 45,
                    "time": 44.999976,
                    "velocity": 0.8818897637795275,
                    "duration": 0.5022318749999997
                },
                {
                    "name": "F2",
                    "midi": 41,
                    "time": 45.535689999999995,
                    "velocity": 0.8818897637795275,
                    "duration": 0.5468747083333341
                },
                {
                    "name": "D2",
                    "midi": 38,
                    "time": 46.071403999999994,
                    "velocity": 0.8818897637795275,
                    "duration": 0.5357139999999987
                },
                {
                    "name": "F1",
                    "midi": 29,
                    "time": 46.60711799999999,
                    "velocity": 0.8818897637795275,
                    "duration": 0.5468747083333341
                },
                {
                    "name": "G1",
                    "midi": 31,
                    "time": 47.14283199999999,
                    "velocity": 0.8818897637795275,
                    "duration": 0.5357139999999987
                },
                {
                    "name": "A1",
                    "midi": 33,
                    "time": 47.67854599999999,
                    "velocity": 0.8818897637795275,
                    "duration": 0.6361603749999958
                },
                {
                    "name": "A#1",
                    "midi": 34,
                    "time": 48.21425999999999,
                    "velocity": 0.8818897637795275,
                    "duration": 0.5245532916666633
                },
                {
                    "name": "D2",
                    "midi": 38,
                    "time": 48.74997399999999,
                    "velocity": 0.8818897637795275,
                    "duration": 0.5691961249999977
                },
                {
                    "name": "F2",
                    "midi": 41,
                    "time": 49.285687999999986,
                    "velocity": 0.8818897637795275,
                    "duration": 0.4352676250000016
                },
                {
                    "name": "A2",
                    "midi": 45,
                    "time": 49.821401999999985,
                    "velocity": 0.8818897637795275,
                    "duration": 0.5468747083333341
                },
                {
                    "name": "E2",
                    "midi": 40,
                    "time": 50.357115999999984,
                    "velocity": 0.8818897637795275,
                    "duration": 0.5245532916666704
                },
                {
                    "name": "A1",
                    "midi": 33,
                    "time": 50.89282999999999,
                    "velocity": 0.8818897637795275,
                    "duration": 0.6138389583333321
                }
            ],
            "controlChanges": {},
            "id": 8,
            "name": "StringEns1",
            "instrumentNumber": 48,
            "instrument": "string ensemble 1",
            "instrumentFamily": "ensemble",
            "channelNumber": 7,
            "isPercussion": false
        },
        {
            "startTime": 0,
            "duration": 0,
            "length": 0,
            "notes": [],
            "controlChanges": {},
            "id": 9,
            "name": "Flibbit@aol.com"
        }
    ]
}