{
    "header": {
        "PPQ": 480,
        "bpm": 140.00014000014,
        "timeSignature": [
            4,
            4
        ],
        "name": "Chega de Saudade"
    },
    "startTime": 0,
    "duration": 133.71415200000015,
    "tracks": [
        {
            "startTime": 0,
            "duration": 0,
            "length": 0,
            "notes": [],
            "controlChanges": {},
            "id": 0
        },
        {
            "startTime": 0,
            "duration": 0,
            "length": 0,
            "notes": [],
            "controlChanges": {},
            "id": 1,
            "name": "Chega de Saudade"
        },
        {
            "startTime": 0,
            "duration": 0,
            "length": 0,
            "notes": [],
            "controlChanges": {},
            "id": 2,
            "name": "Jobim / Moraes"
        },
        {
            "startTime": 58.285656,
            "duration": 133.71415200000015,
            "length": 100,
            "notes": [
                {
                    "name": "C#6",
                    "midi": 85,
                    "time": 58.285656,
                    "velocity": 0.1732283464566929,
                    "duration": 1.7142839999999993
                },
                {
                    "name": "F#6",
                    "midi": 90,
                    "time": 58.285656,
                    "velocity": 0.2992125984251969,
                    "duration": 1.7142839999999993
                },
                {
                    "name": "A5",
                    "midi": 81,
                    "time": 59.99994,
                    "velocity": 0.1732283464566929,
                    "duration": 1.7142839999999993
                },
                {
                    "name": "D#6",
                    "midi": 87,
                    "time": 59.99994,
                    "velocity": 0.2992125984251969,
                    "duration": 1.7142839999999993
                },
                {
                    "name": "G#6",
                    "midi": 92,
                    "time": 61.714224,
                    "velocity": 0.25196850393700787,
                    "duration": 1.7142839999999993
                },
                {
                    "name": "D6",
                    "midi": 86,
                    "time": 61.714224,
                    "velocity": 0.2204724409448819,
                    "duration": 1.7142839999999993
                },
                {
                    "name": "E6",
                    "midi": 88,
                    "time": 63.428508,
                    "velocity": 0.29133858267716534,
                    "duration": 1.7142839999999993
                },
                {
                    "name": "D6",
                    "midi": 86,
                    "time": 63.428508,
                    "velocity": 0.1889763779527559,
                    "duration": 1.7142839999999993
                },
                {
                    "name": "G#5",
                    "midi": 80,
                    "time": 65.142792,
                    "velocity": 0.1732283464566929,
                    "duration": 1.7142840000000064
                },
                {
                    "name": "D6",
                    "midi": 86,
                    "time": 65.142792,
                    "velocity": 0.2992125984251969,
                    "duration": 1.7142840000000064
                },
                {
                    "name": "E6",
                    "midi": 88,
                    "time": 66.857076,
                    "velocity": 0.29133858267716534,
                    "duration": 1.7142840000000064
                },
                {
                    "name": "C#6",
                    "midi": 85,
                    "time": 66.857076,
                    "velocity": 0.1889763779527559,
                    "duration": 1.7142840000000064
                },
                {
                    "name": "G#6",
                    "midi": 92,
                    "time": 68.57136000000001,
                    "velocity": 0.29133858267716534,
                    "duration": 1.7142840000000064
                },
                {
                    "name": "F6",
                    "midi": 89,
                    "time": 68.57136000000001,
                    "velocity": 0.1889763779527559,
                    "duration": 1.7142840000000064
                },
                {
                    "name": "F#6",
                    "midi": 90,
                    "time": 70.28564400000002,
                    "velocity": 0.25196850393700787,
                    "duration": 1.678569749999994
                },
                {
                    "name": "B5",
                    "midi": 83,
                    "time": 70.28564400000002,
                    "velocity": 0.2440944881889764,
                    "duration": 0.8928562499999941
                },
                {
                    "name": "D6",
                    "midi": 86,
                    "time": 71.14278600000002,
                    "velocity": 0.2204724409448819,
                    "duration": 0.821427749999998
                },
                {
                    "name": "A6",
                    "midi": 93,
                    "time": 71.99992800000001,
                    "velocity": 0.29133858267716534,
                    "duration": 1.7142840000000064
                },
                {
                    "name": "F#6",
                    "midi": 90,
                    "time": 71.99992800000001,
                    "velocity": 0.1889763779527559,
                    "duration": 1.7142840000000064
                },
                {
                    "name": "B6",
                    "midi": 95,
                    "time": 73.71421200000002,
                    "velocity": 0.25196850393700787,
                    "duration": 1.7142840000000064
                },
                {
                    "name": "F6",
                    "midi": 89,
                    "time": 73.71421200000002,
                    "velocity": 0.2204724409448819,
                    "duration": 1.7142840000000064
                },
                {
                    "name": "D6",
                    "midi": 86,
                    "time": 75.42849600000002,
                    "velocity": 0.30708661417322836,
                    "duration": 3.4285679999999985
                },
                {
                    "name": "G5",
                    "midi": 79,
                    "time": 75.42849600000002,
                    "velocity": 0.2047244094488189,
                    "duration": 1.7142840000000064
                },
                {
                    "name": "B5",
                    "midi": 83,
                    "time": 77.14278000000003,
                    "velocity": 0.2125984251968504,
                    "duration": 1.7035697249999942
                },
                {
                    "name": "G#6",
                    "midi": 92,
                    "time": 78.85706400000002,
                    "velocity": 0.2283464566929134,
                    "duration": 1.7678553750000106
                },
                {
                    "name": "D6",
                    "midi": 86,
                    "time": 78.85706400000002,
                    "velocity": 0.2440944881889764,
                    "duration": 3.4214251500000046
                },
                {
                    "name": "E6",
                    "midi": 88,
                    "time": 80.57134800000003,
                    "velocity": 0.25196850393700787,
                    "duration": 1.7071411499999982
                },
                {
                    "name": "A#6",
                    "midi": 94,
                    "time": 82.28563200000002,
                    "velocity": 0.25196850393700787,
                    "duration": 1.7142840000000064
                },
                {
                    "name": "E6",
                    "midi": 88,
                    "time": 82.28563200000002,
                    "velocity": 0.2204724409448819,
                    "duration": 1.7142840000000064
                },
                {
                    "name": "G5",
                    "midi": 79,
                    "time": 83.99991600000003,
                    "velocity": 0.1732283464566929,
                    "duration": 1.7142840000000064
                },
                {
                    "name": "C#6",
                    "midi": 85,
                    "time": 83.99991600000003,
                    "velocity": 0.2992125984251969,
                    "duration": 1.7142840000000064
                },
                {
                    "name": "A6",
                    "midi": 93,
                    "time": 85.71420000000003,
                    "velocity": 0.29133858267716534,
                    "duration": 1.7142840000000064
                },
                {
                    "name": "F#6",
                    "midi": 90,
                    "time": 85.71420000000003,
                    "velocity": 0.1889763779527559,
                    "duration": 1.7142840000000064
                },
                {
                    "name": "A5",
                    "midi": 81,
                    "time": 87.42848400000004,
                    "velocity": 0.1732283464566929,
                    "duration": 1.7142840000000064
                },
                {
                    "name": "D6",
                    "midi": 86,
                    "time": 87.42848400000004,
                    "velocity": 0.2992125984251969,
                    "duration": 1.7142840000000064
                },
                {
                    "name": "D6",
                    "midi": 86,
                    "time": 89.14276800000005,
                    "velocity": 0.25196850393700787,
                    "duration": 3.4107108749999924
                },
                {
                    "name": "G#5",
                    "midi": 80,
                    "time": 89.14276800000005,
                    "velocity": 0.2204724409448819,
                    "duration": 3.4035680249999984
                },
                {
                    "name": "F#6",
                    "midi": 90,
                    "time": 92.57133600000004,
                    "velocity": 0.25984251968503935,
                    "duration": 3.4285680000000127
                },
                {
                    "name": "A#5",
                    "midi": 82,
                    "time": 92.57133600000004,
                    "velocity": 0.2204724409448819,
                    "duration": 1.6964268750000002
                },
                {
                    "name": "C#6",
                    "midi": 85,
                    "time": 94.28562000000005,
                    "velocity": 0.2440944881889764,
                    "duration": 1.7142840000000064
                },
                {
                    "name": "A5",
                    "midi": 81,
                    "time": 95.99990400000006,
                    "velocity": 0.1732283464566929,
                    "duration": 0.8571419999999961
                },
                {
                    "name": "D6",
                    "midi": 86,
                    "time": 95.99990400000006,
                    "velocity": 0.2992125984251969,
                    "duration": 0.8571419999999961
                },
                {
                    "name": "F6",
                    "midi": 89,
                    "time": 96.85704600000005,
                    "velocity": 0.25196850393700787,
                    "duration": 0.8571419999999961
                },
                {
                    "name": "C#6",
                    "midi": 85,
                    "time": 96.85704600000005,
                    "velocity": 0.2283464566929134,
                    "duration": 0.8571419999999961
                },
                {
                    "name": "C6",
                    "midi": 84,
                    "time": 97.73918797500005,
                    "velocity": 0.2755905511811024,
                    "duration": 0.8321420250000102
                },
                {
                    "name": "G6",
                    "midi": 91,
                    "time": 97.74275940000005,
                    "velocity": 0.2047244094488189,
                    "duration": 0.8285706000000062
                },
                {
                    "name": "F#6",
                    "midi": 90,
                    "time": 98.59632997500006,
                    "velocity": 0.2755905511811024,
                    "duration": 0.8321420250000102
                },
                {
                    "name": "C7",
                    "midi": 96,
                    "time": 98.59990140000006,
                    "velocity": 0.2047244094488189,
                    "duration": 0.8285706000000062
                },
                {
                    "name": "B5",
                    "midi": 83,
                    "time": 99.42847200000007,
                    "velocity": 0.1732283464566929,
                    "duration": 1.7142840000000064
                },
                {
                    "name": "F#6",
                    "midi": 90,
                    "time": 99.42847200000007,
                    "velocity": 0.2992125984251969,
                    "duration": 1.7142840000000064
                },
                {
                    "name": "G6",
                    "midi": 91,
                    "time": 101.14275600000008,
                    "velocity": 0.29133858267716534,
                    "duration": 1.7142840000000064
                },
                {
                    "name": "F6",
                    "midi": 89,
                    "time": 101.14275600000008,
                    "velocity": 0.1889763779527559,
                    "duration": 1.7142840000000064
                },
                {
                    "name": "A5",
                    "midi": 81,
                    "time": 102.85704000000008,
                    "velocity": 0.1732283464566929,
                    "duration": 1.7142840000000064
                },
                {
                    "name": "E6",
                    "midi": 88,
                    "time": 102.85704000000008,
                    "velocity": 0.2992125984251969,
                    "duration": 1.7142840000000064
                },
                {
                    "name": "D#6",
                    "midi": 87,
                    "time": 104.59632397500009,
                    "velocity": 0.2755905511811024,
                    "duration": 0.8321420250000102
                },
                {
                    "name": "A6",
                    "midi": 93,
                    "time": 104.5998954000001,
                    "velocity": 0.2047244094488189,
                    "duration": 0.8285706000000062
                },
                {
                    "name": "F#6",
                    "midi": 90,
                    "time": 105.4284660000001,
                    "velocity": 0.25196850393700787,
                    "duration": 0.8571419999999961
                },
                {
                    "name": "D#6",
                    "midi": 87,
                    "time": 105.4284660000001,
                    "velocity": 0.2283464566929134,
                    "duration": 0.8571419999999961
                },
                {
                    "name": "G#6",
                    "midi": 92,
                    "time": 106.2856080000001,
                    "velocity": 0.25196850393700787,
                    "duration": 1.7142840000000064
                },
                {
                    "name": "D6",
                    "midi": 86,
                    "time": 106.2856080000001,
                    "velocity": 0.2204724409448819,
                    "duration": 1.7142840000000064
                },
                {
                    "name": "E6",
                    "midi": 88,
                    "time": 107.9998920000001,
                    "velocity": 0.29133858267716534,
                    "duration": 1.7142840000000064
                },
                {
                    "name": "C#6",
                    "midi": 85,
                    "time": 107.9998920000001,
                    "velocity": 0.1889763779527559,
                    "duration": 1.7142840000000064
                },
                {
                    "name": "G#6",
                    "midi": 92,
                    "time": 109.71417600000011,
                    "velocity": 0.25196850393700787,
                    "duration": 0.8571419999999961
                },
                {
                    "name": "E6",
                    "midi": 88,
                    "time": 109.71417600000011,
                    "velocity": 0.2283464566929134,
                    "duration": 0.8571419999999961
                },
                {
                    "name": "E6",
                    "midi": 88,
                    "time": 110.5963179750001,
                    "velocity": 0.2755905511811024,
                    "duration": 0.8321420250000102
                },
                {
                    "name": "A#6",
                    "midi": 94,
                    "time": 110.59988940000011,
                    "velocity": 0.2047244094488189,
                    "duration": 0.8285706000000062
                },
                {
                    "name": "F#6",
                    "midi": 90,
                    "time": 111.42846000000011,
                    "velocity": 0.29133858267716534,
                    "duration": 1.7142840000000064
                },
                {
                    "name": "D#6",
                    "midi": 87,
                    "time": 111.42846000000011,
                    "velocity": 0.1889763779527559,
                    "duration": 1.7142840000000064
                },
                {
                    "name": "G#6",
                    "midi": 92,
                    "time": 113.14274400000012,
                    "velocity": 0.25196850393700787,
                    "duration": 1.7142840000000064
                },
                {
                    "name": "D6",
                    "midi": 86,
                    "time": 113.14274400000012,
                    "velocity": 0.2204724409448819,
                    "duration": 1.7142840000000064
                },
                {
                    "name": "C#6",
                    "midi": 85,
                    "time": 114.85702800000013,
                    "velocity": 0.25196850393700787,
                    "duration": 1.678569749999994
                },
                {
                    "name": "G5",
                    "midi": 79,
                    "time": 114.85702800000013,
                    "velocity": 0.2440944881889764,
                    "duration": 0.8928562499999941
                },
                {
                    "name": "B5",
                    "midi": 83,
                    "time": 115.71417000000012,
                    "velocity": 0.2204724409448819,
                    "duration": 0.821427749999998
                },
                {
                    "name": "F#6",
                    "midi": 90,
                    "time": 116.59631197500012,
                    "velocity": 0.2755905511811024,
                    "duration": 0.8321420250000102
                },
                {
                    "name": "B6",
                    "midi": 95,
                    "time": 116.59988340000012,
                    "velocity": 0.2047244094488189,
                    "duration": 0.8285706000000062
                },
                {
                    "name": "G6",
                    "midi": 91,
                    "time": 117.42845400000013,
                    "velocity": 0.25196850393700787,
                    "duration": 0.8571419999999961
                },
                {
                    "name": "E6",
                    "midi": 88,
                    "time": 117.42845400000013,
                    "velocity": 0.2283464566929134,
                    "duration": 0.8571419999999961
                },
                {
                    "name": "D#6",
                    "midi": 87,
                    "time": 118.28559600000013,
                    "velocity": 0.25196850393700787,
                    "duration": 1.678569749999994
                },
                {
                    "name": "A5",
                    "midi": 81,
                    "time": 118.28559600000013,
                    "velocity": 0.2440944881889764,
                    "duration": 0.8928562499999941
                },
                {
                    "name": "C6",
                    "midi": 84,
                    "time": 119.14273800000012,
                    "velocity": 0.2204724409448819,
                    "duration": 0.821427749999998
                },
                {
                    "name": "G#6",
                    "midi": 92,
                    "time": 119.99988000000012,
                    "velocity": 0.25196850393700787,
                    "duration": 1.7142840000000064
                },
                {
                    "name": "D6",
                    "midi": 86,
                    "time": 119.99988000000012,
                    "velocity": 0.2204724409448819,
                    "duration": 1.7142840000000064
                },
                {
                    "name": "G5",
                    "midi": 79,
                    "time": 121.71416400000012,
                    "velocity": 0.1732283464566929,
                    "duration": 1.7142840000000064
                },
                {
                    "name": "C#6",
                    "midi": 85,
                    "time": 121.71416400000012,
                    "velocity": 0.2992125984251969,
                    "duration": 1.7142840000000064
                },
                {
                    "name": "F#6",
                    "midi": 90,
                    "time": 123.45344797500013,
                    "velocity": 0.2755905511811024,
                    "duration": 0.8321420250000102
                },
                {
                    "name": "B6",
                    "midi": 95,
                    "time": 123.45701940000014,
                    "velocity": 0.2047244094488189,
                    "duration": 0.8285706000000062
                },
                {
                    "name": "G6",
                    "midi": 91,
                    "time": 124.28559000000014,
                    "velocity": 0.25196850393700787,
                    "duration": 0.8571419999999961
                },
                {
                    "name": "E6",
                    "midi": 88,
                    "time": 124.28559000000014,
                    "velocity": 0.2283464566929134,
                    "duration": 0.8571419999999961
                },
                {
                    "name": "D#6",
                    "midi": 87,
                    "time": 125.14273200000014,
                    "velocity": 0.25196850393700787,
                    "duration": 1.678569749999994
                },
                {
                    "name": "A5",
                    "midi": 81,
                    "time": 125.14273200000014,
                    "velocity": 0.2440944881889764,
                    "duration": 0.8928562499999941
                },
                {
                    "name": "C6",
                    "midi": 84,
                    "time": 125.99987400000013,
                    "velocity": 0.2204724409448819,
                    "duration": 0.821427749999998
                },
                {
                    "name": "F#6",
                    "midi": 90,
                    "time": 126.85701600000013,
                    "velocity": 0.29133858267716534,
                    "duration": 1.7142839999999921
                },
                {
                    "name": "D6",
                    "midi": 86,
                    "time": 126.85701600000013,
                    "velocity": 0.1889763779527559,
                    "duration": 1.7142839999999921
                },
                {
                    "name": "C#6",
                    "midi": 85,
                    "time": 128.57130000000012,
                    "velocity": 0.25196850393700787,
                    "duration": 1.6785697500000367
                },
                {
                    "name": "G5",
                    "midi": 79,
                    "time": 128.57130000000012,
                    "velocity": 0.2440944881889764,
                    "duration": 0.8928562500000226
                },
                {
                    "name": "B5",
                    "midi": 83,
                    "time": 129.42844200000013,
                    "velocity": 0.2204724409448819,
                    "duration": 0.8214277500000264
                },
                {
                    "name": "B6",
                    "midi": 95,
                    "time": 130.28558400000017,
                    "velocity": 0.25196850393700787,
                    "duration": 1.7142839999999921
                },
                {
                    "name": "F#6",
                    "midi": 90,
                    "time": 130.28558400000017,
                    "velocity": 0.2204724409448819,
                    "duration": 1.7142839999999921
                },
                {
                    "name": "A6",
                    "midi": 93,
                    "time": 131.99986800000016,
                    "velocity": 0.29133858267716534,
                    "duration": 1.7142839999999921
                },
                {
                    "name": "F#6",
                    "midi": 90,
                    "time": 131.99986800000016,
                    "velocity": 0.1889763779527559,
                    "duration": 1.7142839999999921
                }
            ],
            "controlChanges": {
                "7": [
                    {
                        "number": 7,
                        "time": 0,
                        "value": 0.905511811023622
                    }
                ],
                "10": [
                    {
                        "number": 10,
                        "time": 0,
                        "value": 0.5039370078740157
                    }
                ],
                "64": [
                    {
                        "number": 64,
                        "time": 0,
                        "value": 0
                    },
                    {
                        "number": 64,
                        "time": 133.71415200000015,
                        "value": 0
                    }
                ],
                "121": [
                    {
                        "number": 121,
                        "time": 0,
                        "value": 0
                    }
                ],
                "123": [
                    {
                        "number": 123,
                        "time": 0,
                        "value": 0
                    }
                ]
            },
            "id": 3,
            "name": "Strings ",
            "instrumentNumber": 48,
            "instrument": "string ensemble 1",
            "instrumentFamily": "ensemble",
            "channelNumber": 6,
            "isPercussion": false
        },
        {
            "startTime": 3.6428535,
            "duration": 133.46772367499997,
            "length": 500,
            "notes": [
                {
                    "name": "F4",
                    "midi": 65,
                    "time": 3.6428535,
                    "velocity": 0.6141732283464567,
                    "duration": 0.49642807499999986
                },
                {
                    "name": "A3",
                    "midi": 57,
                    "time": 3.6428535,
                    "velocity": 0.5984251968503937,
                    "duration": 0.49642807499999986
                },
                {
                    "name": "A3",
                    "midi": 57,
                    "time": 4.28571,
                    "velocity": 0.48031496062992124,
                    "duration": 0.19999979999999962
                },
                {
                    "name": "F4",
                    "midi": 65,
                    "time": 4.28571,
                    "velocity": 0.5984251968503937,
                    "duration": 0.22142835000000005
                },
                {
                    "name": "A3",
                    "midi": 57,
                    "time": 4.714281,
                    "velocity": 0.4881889763779528,
                    "duration": 0.16428554999999978
                },
                {
                    "name": "F4",
                    "midi": 65,
                    "time": 4.714281,
                    "velocity": 0.6299212598425197,
                    "duration": 0.1821426749999997
                },
                {
                    "name": "A3",
                    "midi": 57,
                    "time": 5.357137499999999,
                    "velocity": 0.5039370078740157,
                    "duration": 0.9749990249999989
                },
                {
                    "name": "F4",
                    "midi": 65,
                    "time": 5.571422999999999,
                    "velocity": 0.4645669291338583,
                    "duration": 0.20714264999999976
                },
                {
                    "name": "A4",
                    "midi": 69,
                    "time": 5.785708499999999,
                    "velocity": 0.6456692913385826,
                    "duration": 0.4571423999999995
                },
                {
                    "name": "F4",
                    "midi": 65,
                    "time": 6.214279499999999,
                    "velocity": 0.4881889763779528,
                    "duration": 0.2892854249999992
                },
                {
                    "name": "D4",
                    "midi": 62,
                    "time": 6.428564999999998,
                    "velocity": 0.6456692913385826,
                    "duration": 0.4142852999999995
                },
                {
                    "name": "A3",
                    "midi": 57,
                    "time": 6.642850499999998,
                    "velocity": 0.5039370078740157,
                    "duration": 0.2142854999999999
                },
                {
                    "name": "E3",
                    "midi": 52,
                    "time": 6.857135999999998,
                    "velocity": 0.6692913385826772,
                    "duration": 1.13571315
                },
                {
                    "name": "G#3",
                    "midi": 56,
                    "time": 7.071421499999998,
                    "velocity": 0.44881889763779526,
                    "duration": 1.1142846000000013
                },
                {
                    "name": "B3",
                    "midi": 59,
                    "time": 7.285706999999998,
                    "velocity": 0.5196850393700787,
                    "duration": 0.8928562500000021
                },
                {
                    "name": "D4",
                    "midi": 62,
                    "time": 7.499992499999998,
                    "velocity": 0.6692913385826772,
                    "duration": 0.6607136250000014
                },
                {
                    "name": "B1",
                    "midi": 35,
                    "time": 7.928563499999997,
                    "velocity": 0.5984251968503937,
                    "duration": 0.9607133250000022
                },
                {
                    "name": "E3",
                    "midi": 52,
                    "time": 8.142848999999998,
                    "velocity": 0.6299212598425197,
                    "duration": 0.7964277750000015
                },
                {
                    "name": "B3",
                    "midi": 59,
                    "time": 8.357134499999999,
                    "velocity": 0.48031496062992124,
                    "duration": 0.15357127499999912
                },
                {
                    "name": "G#3",
                    "midi": 56,
                    "time": 8.357134499999999,
                    "velocity": 0.44881889763779526,
                    "duration": 0.1678569749999994
                },
                {
                    "name": "D4",
                    "midi": 62,
                    "time": 8.357134499999999,
                    "velocity": 0.4881889763779528,
                    "duration": 0.18571410000000022
                },
                {
                    "name": "D4",
                    "midi": 62,
                    "time": 8.785705499999999,
                    "velocity": 0.5354330708661418,
                    "duration": 0.45714240000000217
                },
                {
                    "name": "G#3",
                    "midi": 56,
                    "time": 8.785705499999999,
                    "velocity": 0.47244094488188976,
                    "duration": 0.4642852500000014
                },
                {
                    "name": "B3",
                    "midi": 59,
                    "time": 8.785705499999999,
                    "velocity": 0.5826771653543307,
                    "duration": 0.45714240000000217
                },
                {
                    "name": "E3",
                    "midi": 52,
                    "time": 9.2142765,
                    "velocity": 0.5196850393700787,
                    "duration": 0.31428539999999927
                },
                {
                    "name": "G#3",
                    "midi": 56,
                    "time": 9.428562,
                    "velocity": 0.44881889763779526,
                    "duration": 0.1999998000000005
                },
                {
                    "name": "B3",
                    "midi": 59,
                    "time": 9.428562,
                    "velocity": 0.6299212598425197,
                    "duration": 0.20714264999999976
                },
                {
                    "name": "D4",
                    "midi": 62,
                    "time": 9.428562,
                    "velocity": 0.5354330708661418,
                    "duration": 0.21428549999999902
                },
                {
                    "name": "E3",
                    "midi": 52,
                    "time": 9.642847499999998,
                    "velocity": 0.33070866141732286,
                    "duration": 0.18571410000000022
                },
                {
                    "name": "D4",
                    "midi": 62,
                    "time": 9.857133,
                    "velocity": 0.5354330708661418,
                    "duration": 0.2142855000000008
                },
                {
                    "name": "B3",
                    "midi": 59,
                    "time": 9.857133,
                    "velocity": 0.5984251968503937,
                    "duration": 0.196428375
                },
                {
                    "name": "G#3",
                    "midi": 56,
                    "time": 9.857133,
                    "velocity": 0.5354330708661418,
                    "duration": 0.18928552500000073
                },
                {
                    "name": "G3",
                    "midi": 55,
                    "time": 10.285704,
                    "velocity": 0.5354330708661418,
                    "duration": 0.1999998000000005
                },
                {
                    "name": "C#4",
                    "midi": 61,
                    "time": 10.285704,
                    "velocity": 0.6692913385826772,
                    "duration": 0.22142835000000005
                },
                {
                    "name": "G3",
                    "midi": 55,
                    "time": 10.714275,
                    "velocity": 0.49606299212598426,
                    "duration": 0.17499982500000044
                },
                {
                    "name": "C#4",
                    "midi": 61,
                    "time": 10.714275,
                    "velocity": 0.5669291338582677,
                    "duration": 0.1999998000000005
                },
                {
                    "name": "C#4",
                    "midi": 61,
                    "time": 11.357131500000001,
                    "velocity": 0.6299212598425197,
                    "duration": 0.196428375
                },
                {
                    "name": "G3",
                    "midi": 55,
                    "time": 11.357131500000001,
                    "velocity": 0.5826771653543307,
                    "duration": 0.16428555000000067
                },
                {
                    "name": "C#4",
                    "midi": 61,
                    "time": 12.010702275000002,
                    "velocity": 0.6692913385826772,
                    "duration": 0.22142835000000005
                },
                {
                    "name": "G3",
                    "midi": 55,
                    "time": 12.014273700000002,
                    "velocity": 0.5196850393700787,
                    "duration": 0.20714264999999976
                },
                {
                    "name": "G3",
                    "midi": 55,
                    "time": 12.453558975000002,
                    "velocity": 0.6456692913385826,
                    "duration": 0.22142835000000005
                },
                {
                    "name": "C#4",
                    "midi": 61,
                    "time": 12.457130400000002,
                    "velocity": 0.7007874015748031,
                    "duration": 0.22142835000000005
                },
                {
                    "name": "C#4",
                    "midi": 61,
                    "time": 13.096415475000002,
                    "velocity": 0.6850393700787402,
                    "duration": 0.1999998000000005
                },
                {
                    "name": "G3",
                    "midi": 55,
                    "time": 13.099986900000003,
                    "velocity": 0.5196850393700787,
                    "duration": 0.20357122499999925
                },
                {
                    "name": "F4",
                    "midi": 65,
                    "time": 13.724986275000003,
                    "velocity": 0.6692913385826772,
                    "duration": 0.22142835000000005
                },
                {
                    "name": "C4",
                    "midi": 60,
                    "time": 13.728557700000003,
                    "velocity": 0.5196850393700787,
                    "duration": 0.20714264999999976
                },
                {
                    "name": "C4",
                    "midi": 60,
                    "time": 14.167842975000003,
                    "velocity": 0.6456692913385826,
                    "duration": 0.22142835000000005
                },
                {
                    "name": "F4",
                    "midi": 65,
                    "time": 14.171414400000003,
                    "velocity": 0.7007874015748031,
                    "duration": 0.22142835000000005
                },
                {
                    "name": "F4",
                    "midi": 65,
                    "time": 14.810699475000003,
                    "velocity": 0.6850393700787402,
                    "duration": 0.1999998000000005
                },
                {
                    "name": "C4",
                    "midi": 60,
                    "time": 14.814270900000004,
                    "velocity": 0.5196850393700787,
                    "duration": 0.20357122499999925
                },
                {
                    "name": "C#4",
                    "midi": 61,
                    "time": 15.439270275000004,
                    "velocity": 0.6692913385826772,
                    "duration": 0.22142835000000005
                },
                {
                    "name": "G3",
                    "midi": 55,
                    "time": 15.442841700000004,
                    "velocity": 0.5196850393700787,
                    "duration": 0.20714264999999976
                },
                {
                    "name": "G3",
                    "midi": 55,
                    "time": 15.882126975000004,
                    "velocity": 0.6456692913385826,
                    "duration": 0.22142835000000183
                },
                {
                    "name": "C#4",
                    "midi": 61,
                    "time": 15.885698400000004,
                    "velocity": 0.7007874015748031,
                    "duration": 0.22142835000000183
                },
                {
                    "name": "C#4",
                    "midi": 61,
                    "time": 16.524983475000006,
                    "velocity": 0.6850393700787402,
                    "duration": 0.1999998000000005
                },
                {
                    "name": "G3",
                    "midi": 55,
                    "time": 16.528554900000007,
                    "velocity": 0.5196850393700787,
                    "duration": 0.20357122500000102
                },
                {
                    "name": "F4",
                    "midi": 65,
                    "time": 17.15355427500001,
                    "velocity": 0.6692913385826772,
                    "duration": 0.2214283500000036
                },
                {
                    "name": "C4",
                    "midi": 60,
                    "time": 17.15712570000001,
                    "velocity": 0.5196850393700787,
                    "duration": 0.20714265000000154
                },
                {
                    "name": "C4",
                    "midi": 60,
                    "time": 17.596410975000012,
                    "velocity": 0.6456692913385826,
                    "duration": 0.22142835000000005
                },
                {
                    "name": "F4",
                    "midi": 65,
                    "time": 17.599982400000012,
                    "velocity": 0.7007874015748031,
                    "duration": 0.22142835000000005
                },
                {
                    "name": "F4",
                    "midi": 65,
                    "time": 18.239267475000013,
                    "velocity": 0.6850393700787402,
                    "duration": 0.1999998000000005
                },
                {
                    "name": "C4",
                    "midi": 60,
                    "time": 18.242838900000013,
                    "velocity": 0.5196850393700787,
                    "duration": 0.20357122500000102
                },
                {
                    "name": "F4",
                    "midi": 65,
                    "time": 19.071409500000016,
                    "velocity": 0.6141732283464567,
                    "duration": 0.49642807500000075
                },
                {
                    "name": "B3",
                    "midi": 59,
                    "time": 19.071409500000016,
                    "velocity": 0.5984251968503937,
                    "duration": 0.49642807500000075
                },
                {
                    "name": "B3",
                    "midi": 59,
                    "time": 19.714266000000016,
                    "velocity": 0.48031496062992124,
                    "duration": 0.1999998000000005
                },
                {
                    "name": "F4",
                    "midi": 65,
                    "time": 19.714266000000016,
                    "velocity": 0.5984251968503937,
                    "duration": 0.22142835000000005
                },
                {
                    "name": "B3",
                    "midi": 59,
                    "time": 20.142837000000018,
                    "velocity": 0.4881889763779528,
                    "duration": 0.1642855499999989
                },
                {
                    "name": "F4",
                    "midi": 65,
                    "time": 20.142837000000018,
                    "velocity": 0.6299212598425197,
                    "duration": 0.18214267499999792
                },
                {
                    "name": "E3",
                    "midi": 52,
                    "time": 20.571408000000016,
                    "velocity": 0.6692913385826772,
                    "duration": 1.1357131499999973
                },
                {
                    "name": "G3",
                    "midi": 55,
                    "time": 20.785693500000015,
                    "velocity": 0.44881889763779526,
                    "duration": 1.1142845999999977
                },
                {
                    "name": "A3",
                    "midi": 57,
                    "time": 20.999979000000014,
                    "velocity": 0.5196850393700787,
                    "duration": 0.8928562499999977
                },
                {
                    "name": "C4",
                    "midi": 60,
                    "time": 21.214264500000013,
                    "velocity": 0.6692913385826772,
                    "duration": 0.6607136249999996
                },
                {
                    "name": "A2",
                    "midi": 45,
                    "time": 21.642835500000015,
                    "velocity": 0.5984251968503937,
                    "duration": 0.9607133249999968
                },
                {
                    "name": "E3",
                    "midi": 52,
                    "time": 21.857121000000014,
                    "velocity": 0.6299212598425197,
                    "duration": 0.796427774999998
                },
                {
                    "name": "A3",
                    "midi": 57,
                    "time": 22.071406500000013,
                    "velocity": 0.48031496062992124,
                    "duration": 0.1535712750000009
                },
                {
                    "name": "G3",
                    "midi": 55,
                    "time": 22.071406500000013,
                    "velocity": 0.44881889763779526,
                    "duration": 0.1678569749999994
                },
                {
                    "name": "C4",
                    "midi": 60,
                    "time": 22.071406500000013,
                    "velocity": 0.4881889763779528,
                    "duration": 0.18571409999999844
                },
                {
                    "name": "C4",
                    "midi": 60,
                    "time": 22.49997750000001,
                    "velocity": 0.5354330708661418,
                    "duration": 0.45714240000000217
                },
                {
                    "name": "G3",
                    "midi": 55,
                    "time": 22.49997750000001,
                    "velocity": 0.47244094488188976,
                    "duration": 0.4642852500000032
                },
                {
                    "name": "A3",
                    "midi": 57,
                    "time": 22.49997750000001,
                    "velocity": 0.5826771653543307,
                    "duration": 0.45714240000000217
                },
                {
                    "name": "E3",
                    "midi": 52,
                    "time": 22.928548500000012,
                    "velocity": 0.5196850393700787,
                    "duration": 0.3142854000000028
                },
                {
                    "name": "G3",
                    "midi": 55,
                    "time": 23.142834000000015,
                    "velocity": 0.44881889763779526,
                    "duration": 0.1999998000000005
                },
                {
                    "name": "A3",
                    "midi": 57,
                    "time": 23.142834000000015,
                    "velocity": 0.6299212598425197,
                    "duration": 0.20714265000000154
                },
                {
                    "name": "C4",
                    "midi": 60,
                    "time": 23.142834000000015,
                    "velocity": 0.5354330708661418,
                    "duration": 0.21428550000000257
                },
                {
                    "name": "E3",
                    "midi": 52,
                    "time": 23.357119500000017,
                    "velocity": 0.33070866141732286,
                    "duration": 0.18571409999999844
                },
                {
                    "name": "C4",
                    "midi": 60,
                    "time": 23.571405000000016,
                    "velocity": 0.5354330708661418,
                    "duration": 0.21428549999999902
                },
                {
                    "name": "A3",
                    "midi": 57,
                    "time": 23.571405000000016,
                    "velocity": 0.5984251968503937,
                    "duration": 0.196428375
                },
                {
                    "name": "G3",
                    "midi": 55,
                    "time": 23.571405000000016,
                    "velocity": 0.5354330708661418,
                    "duration": 0.18928552499999896
                },
                {
                    "name": "D4",
                    "midi": 62,
                    "time": 23.999976000000014,
                    "velocity": 0.47244094488188976,
                    "duration": 0.2428568999999996
                },
                {
                    "name": "G3",
                    "midi": 55,
                    "time": 23.999976000000014,
                    "velocity": 0.5354330708661418,
                    "duration": 0.17857125000000096
                },
                {
                    "name": "D4",
                    "midi": 62,
                    "time": 24.428547000000012,
                    "velocity": 0.6141732283464567,
                    "duration": 0.1999998000000005
                },
                {
                    "name": "G3",
                    "midi": 55,
                    "time": 24.428547000000012,
                    "velocity": 0.5669291338582677,
                    "duration": 0.17499982500000044
                },
                {
                    "name": "A#2",
                    "midi": 46,
                    "time": 25.071403500000013,
                    "velocity": 0.5354330708661418,
                    "duration": 0.26071402499999863
                },
                {
                    "name": "F3",
                    "midi": 53,
                    "time": 25.285689000000012,
                    "velocity": 0.5669291338582677,
                    "duration": 0.23571404999999856
                },
                {
                    "name": "D4",
                    "midi": 62,
                    "time": 25.52140305000001,
                    "velocity": 0.5826771653543307,
                    "duration": 0.2714283000000002
                },
                {
                    "name": "G3",
                    "midi": 55,
                    "time": 25.52140305000001,
                    "velocity": 0.5669291338582677,
                    "duration": 0.25357117500000115
                },
                {
                    "name": "A#2",
                    "midi": 46,
                    "time": 25.92854550000001,
                    "velocity": 0.5511811023622047,
                    "duration": 0.20714265000000154
                },
                {
                    "name": "F3",
                    "midi": 53,
                    "time": 26.14283100000001,
                    "velocity": 0.5196850393700787,
                    "duration": 0.26428544999999914
                },
                {
                    "name": "D4",
                    "midi": 62,
                    "time": 26.35711650000001,
                    "velocity": 0.5511811023622047,
                    "duration": 0.38928532499999946
                },
                {
                    "name": "G3",
                    "midi": 55,
                    "time": 26.35711650000001,
                    "velocity": 0.5039370078740157,
                    "duration": 0.38571389999999894
                },
                {
                    "name": "A#2",
                    "midi": 46,
                    "time": 26.78568750000001,
                    "velocity": 0.48031496062992124,
                    "duration": 0.21428549999999902
                },
                {
                    "name": "F3",
                    "midi": 53,
                    "time": 26.999973000000008,
                    "velocity": 0.4645669291338583,
                    "duration": 0.09999990000000025
                },
                {
                    "name": "G3",
                    "midi": 55,
                    "time": 26.999973000000008,
                    "velocity": 0.5196850393700787,
                    "duration": 0.2321426250000016
                },
                {
                    "name": "D4",
                    "midi": 62,
                    "time": 26.999973000000008,
                    "velocity": 0.4645669291338583,
                    "duration": 0.2642854500000027
                },
                {
                    "name": "C#4",
                    "midi": 61,
                    "time": 27.642829500000012,
                    "velocity": 0.6141732283464567,
                    "duration": 0.49642807500000075
                },
                {
                    "name": "G3",
                    "midi": 55,
                    "time": 27.642829500000012,
                    "velocity": 0.5984251968503937,
                    "duration": 0.49642807500000075
                },
                {
                    "name": "G3",
                    "midi": 55,
                    "time": 28.285686000000013,
                    "velocity": 0.48031496062992124,
                    "duration": 0.1999998000000005
                },
                {
                    "name": "C#4",
                    "midi": 61,
                    "time": 28.285686000000013,
                    "velocity": 0.5984251968503937,
                    "duration": 0.22142835000000005
                },
                {
                    "name": "G3",
                    "midi": 55,
                    "time": 28.714257000000014,
                    "velocity": 0.4881889763779528,
                    "duration": 0.1642855499999989
                },
                {
                    "name": "C#4",
                    "midi": 61,
                    "time": 28.714257000000014,
                    "velocity": 0.6299212598425197,
                    "duration": 0.18214267499999792
                },
                {
                    "name": "G3",
                    "midi": 55,
                    "time": 29.35711350000001,
                    "velocity": 0.5039370078740157,
                    "duration": 0.9749990250000025
                },
                {
                    "name": "C#4",
                    "midi": 61,
                    "time": 29.57139900000001,
                    "velocity": 0.4645669291338583,
                    "duration": 0.20714265000000154
                },
                {
                    "name": "E4",
                    "midi": 64,
                    "time": 29.785684500000013,
                    "velocity": 0.6456692913385826,
                    "duration": 0.45714240000000217
                },
                {
                    "name": "C#4",
                    "midi": 61,
                    "time": 30.214255500000014,
                    "velocity": 0.4881889763779528,
                    "duration": 0.2892854249999992
                },
                {
                    "name": "B3",
                    "midi": 59,
                    "time": 30.428541000000013,
                    "velocity": 0.6456692913385826,
                    "duration": 0.4142852999999995
                },
                {
                    "name": "G3",
                    "midi": 55,
                    "time": 30.642826500000012,
                    "velocity": 0.5039370078740157,
                    "duration": 0.21428549999999902
                },
                {
                    "name": "A3",
                    "midi": 57,
                    "time": 30.85711200000001,
                    "velocity": 0.5354330708661418,
                    "duration": 0.1999998000000005
                },
                {
                    "name": "F4",
                    "midi": 65,
                    "time": 30.85711200000001,
                    "velocity": 0.6692913385826772,
                    "duration": 0.22142835000000005
                },
                {
                    "name": "A3",
                    "midi": 57,
                    "time": 31.285683000000013,
                    "velocity": 0.49606299212598426,
                    "duration": 0.17499982500000044
                },
                {
                    "name": "F4",
                    "midi": 65,
                    "time": 31.285683000000013,
                    "velocity": 0.5669291338582677,
                    "duration": 0.1999998000000005
                },
                {
                    "name": "F4",
                    "midi": 65,
                    "time": 31.928539500000014,
                    "velocity": 0.6299212598425197,
                    "duration": 0.19642837500000354
                },
                {
                    "name": "A3",
                    "midi": 57,
                    "time": 31.928539500000014,
                    "velocity": 0.5826771653543307,
                    "duration": 0.16428555000000244
                },
                {
                    "name": "A3",
                    "midi": 57,
                    "time": 32.78568150000002,
                    "velocity": 0.5039370078740157,
                    "duration": 0.9749990250000025
                },
                {
                    "name": "F4",
                    "midi": 65,
                    "time": 32.99996700000002,
                    "velocity": 0.4645669291338583,
                    "duration": 0.20714265000000154
                },
                {
                    "name": "A4",
                    "midi": 69,
                    "time": 33.21425250000002,
                    "velocity": 0.6456692913385826,
                    "duration": 0.45714239999999506
                },
                {
                    "name": "F4",
                    "midi": 65,
                    "time": 33.64282350000002,
                    "velocity": 0.4881889763779528,
                    "duration": 0.28928542500000276
                },
                {
                    "name": "D4",
                    "midi": 62,
                    "time": 33.85710900000002,
                    "velocity": 0.6456692913385826,
                    "duration": 0.4142853000000031
                },
                {
                    "name": "A3",
                    "midi": 57,
                    "time": 34.071394500000025,
                    "velocity": 0.5039370078740157,
                    "duration": 0.21428550000000257
                },
                {
                    "name": "D4",
                    "midi": 62,
                    "time": 34.28568000000003,
                    "velocity": 0.47244094488188976,
                    "duration": 0.2428568999999996
                },
                {
                    "name": "G#3",
                    "midi": 56,
                    "time": 34.28568000000003,
                    "velocity": 0.5354330708661418,
                    "duration": 0.1785712499999974
                },
                {
                    "name": "D4",
                    "midi": 62,
                    "time": 34.714251000000026,
                    "velocity": 0.6141732283464567,
                    "duration": 0.1999998000000005
                },
                {
                    "name": "G#3",
                    "midi": 56,
                    "time": 34.714251000000026,
                    "velocity": 0.5669291338582677,
                    "duration": 0.17499982500000044
                },
                {
                    "name": "B1",
                    "midi": 35,
                    "time": 35.357107500000026,
                    "velocity": 0.5354330708661418,
                    "duration": 0.26071402500000573
                },
                {
                    "name": "E3",
                    "midi": 52,
                    "time": 35.57139300000003,
                    "velocity": 0.5669291338582677,
                    "duration": 0.23571405000000567
                },
                {
                    "name": "D4",
                    "midi": 62,
                    "time": 35.807107050000035,
                    "velocity": 0.5826771653543307,
                    "duration": 0.2714282999999966
                },
                {
                    "name": "G#3",
                    "midi": 56,
                    "time": 35.807107050000035,
                    "velocity": 0.5669291338582677,
                    "duration": 0.2535711749999976
                },
                {
                    "name": "B1",
                    "midi": 35,
                    "time": 36.21424950000003,
                    "velocity": 0.5511811023622047,
                    "duration": 0.20714265000000154
                },
                {
                    "name": "E3",
                    "midi": 52,
                    "time": 36.42853500000003,
                    "velocity": 0.5196850393700787,
                    "duration": 0.2642854500000027
                },
                {
                    "name": "D4",
                    "midi": 62,
                    "time": 36.642820500000035,
                    "velocity": 0.5511811023622047,
                    "duration": 0.3892853249999959
                },
                {
                    "name": "G#3",
                    "midi": 56,
                    "time": 36.642820500000035,
                    "velocity": 0.5039370078740157,
                    "duration": 0.38571389999999894
                },
                {
                    "name": "B1",
                    "midi": 35,
                    "time": 37.07139150000003,
                    "velocity": 0.48031496062992124,
                    "duration": 0.21428550000000257
                },
                {
                    "name": "E3",
                    "midi": 52,
                    "time": 37.285677000000035,
                    "velocity": 0.4645669291338583,
                    "duration": 0.09999990000000025
                },
                {
                    "name": "G#3",
                    "midi": 56,
                    "time": 37.285677000000035,
                    "velocity": 0.5196850393700787,
                    "duration": 0.2321426250000016
                },
                {
                    "name": "D4",
                    "midi": 62,
                    "time": 37.285677000000035,
                    "velocity": 0.4645669291338583,
                    "duration": 0.2642854500000027
                },
                {
                    "name": "C#4",
                    "midi": 61,
                    "time": 37.928533500000036,
                    "velocity": 0.6141732283464567,
                    "duration": 0.4964280749999972
                },
                {
                    "name": "G3",
                    "midi": 55,
                    "time": 37.928533500000036,
                    "velocity": 0.5984251968503937,
                    "duration": 0.4964280749999972
                },
                {
                    "name": "G3",
                    "midi": 55,
                    "time": 38.57139000000004,
                    "velocity": 0.48031496062992124,
                    "duration": 0.1999998000000005
                },
                {
                    "name": "C#4",
                    "midi": 61,
                    "time": 38.57139000000004,
                    "velocity": 0.5984251968503937,
                    "duration": 0.2214283500000036
                },
                {
                    "name": "G3",
                    "midi": 55,
                    "time": 38.99996100000004,
                    "velocity": 0.4881889763779528,
                    "duration": 0.16428555000000244
                },
                {
                    "name": "C#4",
                    "midi": 61,
                    "time": 38.99996100000004,
                    "velocity": 0.6299212598425197,
                    "duration": 0.18214267500000147
                },
                {
                    "name": "C#4",
                    "midi": 61,
                    "time": 39.439246275000045,
                    "velocity": 0.6692913385826772,
                    "duration": 0.2214283499999965
                },
                {
                    "name": "G3",
                    "midi": 55,
                    "time": 39.44281770000004,
                    "velocity": 0.5196850393700787,
                    "duration": 0.20714265000000154
                },
                {
                    "name": "G3",
                    "midi": 55,
                    "time": 39.88210297500004,
                    "velocity": 0.6456692913385826,
                    "duration": 0.2214283499999965
                },
                {
                    "name": "C#4",
                    "midi": 61,
                    "time": 39.885674400000035,
                    "velocity": 0.7007874015748031,
                    "duration": 0.2214283499999965
                },
                {
                    "name": "C#4",
                    "midi": 61,
                    "time": 40.52495947500003,
                    "velocity": 0.6850393700787402,
                    "duration": 0.1999998000000005
                },
                {
                    "name": "G3",
                    "midi": 55,
                    "time": 40.52853090000003,
                    "velocity": 0.5196850393700787,
                    "duration": 0.20357122500000457
                },
                {
                    "name": "F#4",
                    "midi": 66,
                    "time": 41.357101500000034,
                    "velocity": 0.6141732283464567,
                    "duration": 0.4964280749999972
                },
                {
                    "name": "C#4",
                    "midi": 61,
                    "time": 41.357101500000034,
                    "velocity": 0.5984251968503937,
                    "duration": 0.4964280749999972
                },
                {
                    "name": "C#4",
                    "midi": 61,
                    "time": 41.999958000000035,
                    "velocity": 0.48031496062992124,
                    "duration": 0.1999998000000005
                },
                {
                    "name": "F#4",
                    "midi": 66,
                    "time": 41.999958000000035,
                    "velocity": 0.5984251968503937,
                    "duration": 0.2214283500000036
                },
                {
                    "name": "C#4",
                    "midi": 61,
                    "time": 42.42852900000004,
                    "velocity": 0.4881889763779528,
                    "duration": 0.16428555000000244
                },
                {
                    "name": "F#4",
                    "midi": 66,
                    "time": 42.42852900000004,
                    "velocity": 0.6299212598425197,
                    "duration": 0.18214267500000147
                },
                {
                    "name": "F#4",
                    "midi": 66,
                    "time": 43.07138550000004,
                    "velocity": 0.6141732283464567,
                    "duration": 0.4964280749999972
                },
                {
                    "name": "C4",
                    "midi": 60,
                    "time": 43.07138550000004,
                    "velocity": 0.5984251968503937,
                    "duration": 0.4964280749999972
                },
                {
                    "name": "C4",
                    "midi": 60,
                    "time": 43.71424200000004,
                    "velocity": 0.48031496062992124,
                    "duration": 0.1999998000000005
                },
                {
                    "name": "F#4",
                    "midi": 66,
                    "time": 43.71424200000004,
                    "velocity": 0.5984251968503937,
                    "duration": 0.2214283500000036
                },
                {
                    "name": "C4",
                    "midi": 60,
                    "time": 44.14281300000005,
                    "velocity": 0.4881889763779528,
                    "duration": 0.16428555000000244
                },
                {
                    "name": "F#4",
                    "midi": 66,
                    "time": 44.14281300000005,
                    "velocity": 0.6299212598425197,
                    "duration": 0.18214267500000147
                },
                {
                    "name": "F4",
                    "midi": 65,
                    "time": 44.58209827500005,
                    "velocity": 0.6692913385826772,
                    "duration": 0.2214283499999965
                },
                {
                    "name": "A#3",
                    "midi": 58,
                    "time": 44.58566970000005,
                    "velocity": 0.5196850393700787,
                    "duration": 0.20714265000000154
                },
                {
                    "name": "A#3",
                    "midi": 58,
                    "time": 45.02495497500004,
                    "velocity": 0.6456692913385826,
                    "duration": 0.2214283499999965
                },
                {
                    "name": "F4",
                    "midi": 65,
                    "time": 45.02852640000004,
                    "velocity": 0.7007874015748031,
                    "duration": 0.2214283499999965
                },
                {
                    "name": "F4",
                    "midi": 65,
                    "time": 45.667811475000036,
                    "velocity": 0.6850393700787402,
                    "duration": 0.1999998000000005
                },
                {
                    "name": "A#3",
                    "midi": 58,
                    "time": 45.67138290000003,
                    "velocity": 0.5196850393700787,
                    "duration": 0.20357122500000457
                },
                {
                    "name": "G3",
                    "midi": 55,
                    "time": 46.49995350000004,
                    "velocity": 0.5039370078740157,
                    "duration": 0.9749990250000025
                },
                {
                    "name": "C#4",
                    "midi": 61,
                    "time": 46.71423900000004,
                    "velocity": 0.4645669291338583,
                    "duration": 0.20714265000000154
                },
                {
                    "name": "E4",
                    "midi": 64,
                    "time": 46.928524500000044,
                    "velocity": 0.6456692913385826,
                    "duration": 0.45714239999999506
                },
                {
                    "name": "C#4",
                    "midi": 61,
                    "time": 47.35709550000004,
                    "velocity": 0.4881889763779528,
                    "duration": 0.28928542500000276
                },
                {
                    "name": "B3",
                    "midi": 59,
                    "time": 47.571381000000045,
                    "velocity": 0.6456692913385826,
                    "duration": 0.4142853000000031
                },
                {
                    "name": "G3",
                    "midi": 55,
                    "time": 47.78566650000005,
                    "velocity": 0.5039370078740157,
                    "duration": 0.21428550000000257
                },
                {
                    "name": "F4",
                    "midi": 65,
                    "time": 48.01066627500005,
                    "velocity": 0.6692913385826772,
                    "duration": 0.2214283499999965
                },
                {
                    "name": "A3",
                    "midi": 57,
                    "time": 48.014237700000045,
                    "velocity": 0.5196850393700787,
                    "duration": 0.20714265000000154
                },
                {
                    "name": "A3",
                    "midi": 57,
                    "time": 48.45352297500004,
                    "velocity": 0.6456692913385826,
                    "duration": 0.2214283499999965
                },
                {
                    "name": "F4",
                    "midi": 65,
                    "time": 48.45709440000004,
                    "velocity": 0.7007874015748031,
                    "duration": 0.2214283499999965
                },
                {
                    "name": "F4",
                    "midi": 65,
                    "time": 49.096379475000035,
                    "velocity": 0.6850393700787402,
                    "duration": 0.1999998000000005
                },
                {
                    "name": "A3",
                    "midi": 57,
                    "time": 49.09995090000003,
                    "velocity": 0.5196850393700787,
                    "duration": 0.20357122500000457
                },
                {
                    "name": "C4",
                    "midi": 60,
                    "time": 49.72495027500003,
                    "velocity": 0.6692913385826772,
                    "duration": 0.2214283499999965
                },
                {
                    "name": "E3",
                    "midi": 52,
                    "time": 49.72852170000003,
                    "velocity": 0.5196850393700787,
                    "duration": 0.20714265000000154
                },
                {
                    "name": "E3",
                    "midi": 52,
                    "time": 50.16780697500003,
                    "velocity": 0.6456692913385826,
                    "duration": 0.2214283499999965
                },
                {
                    "name": "C4",
                    "midi": 60,
                    "time": 50.17137840000003,
                    "velocity": 0.7007874015748031,
                    "duration": 0.2214283499999965
                },
                {
                    "name": "C4",
                    "midi": 60,
                    "time": 50.81066347500003,
                    "velocity": 0.6850393700787402,
                    "duration": 0.1999998000000005
                },
                {
                    "name": "E3",
                    "midi": 52,
                    "time": 50.814234900000024,
                    "velocity": 0.5196850393700787,
                    "duration": 0.20357122500000457
                },
                {
                    "name": "D4",
                    "midi": 62,
                    "time": 51.439234275000025,
                    "velocity": 0.6692913385826772,
                    "duration": 0.2214283499999965
                },
                {
                    "name": "G#3",
                    "midi": 56,
                    "time": 51.44280570000002,
                    "velocity": 0.5196850393700787,
                    "duration": 0.20714265000000154
                },
                {
                    "name": "G#3",
                    "midi": 56,
                    "time": 51.882090975000025,
                    "velocity": 0.6456692913385826,
                    "duration": 0.2214283499999965
                },
                {
                    "name": "D4",
                    "midi": 62,
                    "time": 51.88566240000002,
                    "velocity": 0.7007874015748031,
                    "duration": 0.2214283499999965
                },
                {
                    "name": "D4",
                    "midi": 62,
                    "time": 52.52494747500002,
                    "velocity": 0.6850393700787402,
                    "duration": 0.1999998000000005
                },
                {
                    "name": "G#3",
                    "midi": 56,
                    "time": 52.528518900000016,
                    "velocity": 0.5196850393700787,
                    "duration": 0.20357122500000457
                },
                {
                    "name": "G3",
                    "midi": 55,
                    "time": 53.14280400000002,
                    "velocity": 0.48031496062992124,
                    "duration": 0.1785712499999974
                },
                {
                    "name": "C#4",
                    "midi": 61,
                    "time": 53.14280400000002,
                    "velocity": 0.5039370078740157,
                    "duration": 0.20357122499999747
                },
                {
                    "name": "A#2",
                    "midi": 46,
                    "time": 53.357089500000015,
                    "velocity": 0.5039370078740157,
                    "duration": 0.1785712499999974
                },
                {
                    "name": "C#4",
                    "midi": 61,
                    "time": 53.57137500000001,
                    "velocity": 0.5826771653543307,
                    "duration": 0.31071397499999875
                },
                {
                    "name": "G3",
                    "midi": 55,
                    "time": 53.57137500000001,
                    "velocity": 0.44881889763779526,
                    "duration": 0.29999970000000076
                },
                {
                    "name": "G3",
                    "midi": 55,
                    "time": 53.99994600000001,
                    "velocity": 0.48031496062992124,
                    "duration": 0.1785712499999974
                },
                {
                    "name": "C#4",
                    "midi": 61,
                    "time": 53.99994600000001,
                    "velocity": 0.5039370078740157,
                    "duration": 0.20357122499999747
                },
                {
                    "name": "A2",
                    "midi": 45,
                    "time": 54.214231500000004,
                    "velocity": 0.5039370078740157,
                    "duration": 0.1785712499999974
                },
                {
                    "name": "C#4",
                    "midi": 61,
                    "time": 54.428517,
                    "velocity": 0.5826771653543307,
                    "duration": 0.31071397499999875
                },
                {
                    "name": "G3",
                    "midi": 55,
                    "time": 54.428517,
                    "velocity": 0.44881889763779526,
                    "duration": 0.29999970000000076
                },
                {
                    "name": "F4",
                    "midi": 65,
                    "time": 55.0713735,
                    "velocity": 0.6141732283464567,
                    "duration": 0.4964280749999972
                },
                {
                    "name": "C4",
                    "midi": 60,
                    "time": 55.0713735,
                    "velocity": 0.5984251968503937,
                    "duration": 0.4964280749999972
                },
                {
                    "name": "C4",
                    "midi": 60,
                    "time": 55.71423,
                    "velocity": 0.48031496062992124,
                    "duration": 0.1999998000000005
                },
                {
                    "name": "F4",
                    "midi": 65,
                    "time": 55.71423,
                    "velocity": 0.5984251968503937,
                    "duration": 0.2214283500000036
                },
                {
                    "name": "C4",
                    "midi": 60,
                    "time": 56.142801000000006,
                    "velocity": 0.4881889763779528,
                    "duration": 0.16428555000000244
                },
                {
                    "name": "F4",
                    "midi": 65,
                    "time": 56.142801000000006,
                    "velocity": 0.6299212598425197,
                    "duration": 0.18214267500000147
                },
                {
                    "name": "G3",
                    "midi": 55,
                    "time": 56.785657500000006,
                    "velocity": 0.4645669291338583,
                    "duration": 0.6428565000000006
                },
                {
                    "name": "D4",
                    "midi": 62,
                    "time": 56.785657500000006,
                    "velocity": 0.5354330708661418,
                    "duration": 0.6428565000000006
                },
                {
                    "name": "G3",
                    "midi": 55,
                    "time": 57.42851400000001,
                    "velocity": 0.48031496062992124,
                    "duration": 0.1785712499999974
                },
                {
                    "name": "C#4",
                    "midi": 61,
                    "time": 57.42851400000001,
                    "velocity": 0.5039370078740157,
                    "duration": 0.20357122499999747
                },
                {
                    "name": "A2",
                    "midi": 45,
                    "time": 57.6427995,
                    "velocity": 0.5039370078740157,
                    "duration": 0.1785712499999974
                },
                {
                    "name": "C#4",
                    "midi": 61,
                    "time": 57.857085,
                    "velocity": 0.5826771653543307,
                    "duration": 0.31071397499999875
                },
                {
                    "name": "G3",
                    "midi": 55,
                    "time": 57.857085,
                    "velocity": 0.44881889763779526,
                    "duration": 0.29999970000000076
                },
                {
                    "name": "C#4",
                    "midi": 61,
                    "time": 58.285655999999996,
                    "velocity": 0.5354330708661418,
                    "duration": 0.1999998000000005
                },
                {
                    "name": "F#4",
                    "midi": 66,
                    "time": 58.285655999999996,
                    "velocity": 0.6692913385826772,
                    "duration": 0.2214283500000036
                },
                {
                    "name": "C#4",
                    "midi": 61,
                    "time": 58.714227,
                    "velocity": 0.49606299212598426,
                    "duration": 0.17499982500000044
                },
                {
                    "name": "F#4",
                    "midi": 66,
                    "time": 58.714227,
                    "velocity": 0.5669291338582677,
                    "duration": 0.1999998000000005
                },
                {
                    "name": "F#4",
                    "midi": 66,
                    "time": 59.3570835,
                    "velocity": 0.6299212598425197,
                    "duration": 0.19642837500000354
                },
                {
                    "name": "C#4",
                    "midi": 61,
                    "time": 59.3570835,
                    "velocity": 0.5826771653543307,
                    "duration": 0.16428555000000244
                },
                {
                    "name": "D#4",
                    "midi": 63,
                    "time": 60.214225500000005,
                    "velocity": 0.6141732283464567,
                    "duration": 0.4964280749999972
                },
                {
                    "name": "A3",
                    "midi": 57,
                    "time": 60.214225500000005,
                    "velocity": 0.5984251968503937,
                    "duration": 0.4964280749999972
                },
                {
                    "name": "A3",
                    "midi": 57,
                    "time": 60.857082000000005,
                    "velocity": 0.48031496062992124,
                    "duration": 0.1999998000000005
                },
                {
                    "name": "D#4",
                    "midi": 63,
                    "time": 60.857082000000005,
                    "velocity": 0.5984251968503937,
                    "duration": 0.2214283500000036
                },
                {
                    "name": "A3",
                    "midi": 57,
                    "time": 61.28565300000001,
                    "velocity": 0.4881889763779528,
                    "duration": 0.16428555000000244
                },
                {
                    "name": "D#4",
                    "midi": 63,
                    "time": 61.28565300000001,
                    "velocity": 0.6299212598425197,
                    "duration": 0.18214267500000147
                },
                {
                    "name": "G#3",
                    "midi": 56,
                    "time": 61.71422400000001,
                    "velocity": 0.5354330708661418,
                    "duration": 0.1999998000000005
                },
                {
                    "name": "D4",
                    "midi": 62,
                    "time": 61.71422400000001,
                    "velocity": 0.6692913385826772,
                    "duration": 0.2214283500000036
                },
                {
                    "name": "G#3",
                    "midi": 56,
                    "time": 62.142795000000014,
                    "velocity": 0.49606299212598426,
                    "duration": 0.17499982500000044
                },
                {
                    "name": "D4",
                    "midi": 62,
                    "time": 62.142795000000014,
                    "velocity": 0.5669291338582677,
                    "duration": 0.1999998000000005
                },
                {
                    "name": "D4",
                    "midi": 62,
                    "time": 62.785651500000014,
                    "velocity": 0.6299212598425197,
                    "duration": 0.19642837500000354
                },
                {
                    "name": "G#3",
                    "midi": 56,
                    "time": 62.785651500000014,
                    "velocity": 0.5826771653543307,
                    "duration": 0.16428555000000244
                },
                {
                    "name": "G#3",
                    "midi": 56,
                    "time": 63.64279350000002,
                    "velocity": 0.5039370078740157,
                    "duration": 0.9749990250000096
                },
                {
                    "name": "D4",
                    "midi": 62,
                    "time": 63.85707900000002,
                    "velocity": 0.4645669291338583,
                    "duration": 0.20714265000000154
                },
                {
                    "name": "E4",
                    "midi": 64,
                    "time": 64.07136450000002,
                    "velocity": 0.6456692913385826,
                    "duration": 0.4571424000000093
                },
                {
                    "name": "D4",
                    "midi": 62,
                    "time": 64.49993550000002,
                    "velocity": 0.4881889763779528,
                    "duration": 0.28928542500000276
                },
                {
                    "name": "B3",
                    "midi": 59,
                    "time": 64.71422100000002,
                    "velocity": 0.6456692913385826,
                    "duration": 0.4142853000000031
                },
                {
                    "name": "G#3",
                    "midi": 56,
                    "time": 64.92850650000003,
                    "velocity": 0.5039370078740157,
                    "duration": 0.21428550000000257
                },
                {
                    "name": "D4",
                    "midi": 62,
                    "time": 65.15350627500003,
                    "velocity": 0.6692913385826772,
                    "duration": 0.2214283499999965
                },
                {
                    "name": "G#3",
                    "midi": 56,
                    "time": 65.15707770000003,
                    "velocity": 0.5196850393700787,
                    "duration": 0.20714264999999443
                },
                {
                    "name": "G#3",
                    "midi": 56,
                    "time": 65.59636297500002,
                    "velocity": 0.6456692913385826,
                    "duration": 0.2214283500000107
                },
                {
                    "name": "D4",
                    "midi": 62,
                    "time": 65.59993440000002,
                    "velocity": 0.7007874015748031,
                    "duration": 0.2214283500000107
                },
                {
                    "name": "D4",
                    "midi": 62,
                    "time": 66.23921947500003,
                    "velocity": 0.6850393700787402,
                    "duration": 0.1999998000000005
                },
                {
                    "name": "G#3",
                    "midi": 56,
                    "time": 66.24279090000003,
                    "velocity": 0.5196850393700787,
                    "duration": 0.20357122499999036
                },
                {
                    "name": "G3",
                    "midi": 55,
                    "time": 67.07136150000002,
                    "velocity": 0.5039370078740157,
                    "duration": 0.9749990250000025
                },
                {
                    "name": "C#4",
                    "midi": 61,
                    "time": 67.28564700000003,
                    "velocity": 0.4645669291338583,
                    "duration": 0.20714264999999443
                },
                {
                    "name": "E4",
                    "midi": 64,
                    "time": 67.49993250000001,
                    "velocity": 0.6456692913385826,
                    "duration": 0.4571424000000093
                },
                {
                    "name": "C#4",
                    "midi": 61,
                    "time": 67.92850350000002,
                    "velocity": 0.4881889763779528,
                    "duration": 0.28928542500000276
                },
                {
                    "name": "A3",
                    "midi": 57,
                    "time": 68.14278900000002,
                    "velocity": 0.6456692913385826,
                    "duration": 0.4142853000000031
                },
                {
                    "name": "G3",
                    "midi": 55,
                    "time": 68.35707450000002,
                    "velocity": 0.5039370078740157,
                    "duration": 0.21428550000000257
                },
                {
                    "name": "F4",
                    "midi": 65,
                    "time": 68.58207427500002,
                    "velocity": 0.6692913385826772,
                    "duration": 0.2214283499999965
                },
                {
                    "name": "B3",
                    "midi": 59,
                    "time": 68.58564570000003,
                    "velocity": 0.5196850393700787,
                    "duration": 0.20714264999999443
                },
                {
                    "name": "B3",
                    "midi": 59,
                    "time": 69.02493097500002,
                    "velocity": 0.6456692913385826,
                    "duration": 0.2214283500000107
                },
                {
                    "name": "F4",
                    "midi": 65,
                    "time": 69.02850240000002,
                    "velocity": 0.7007874015748031,
                    "duration": 0.2214283500000107
                },
                {
                    "name": "F4",
                    "midi": 65,
                    "time": 69.66778747500004,
                    "velocity": 0.6850393700787402,
                    "duration": 0.1999998000000005
                },
                {
                    "name": "B3",
                    "midi": 59,
                    "time": 69.67135890000004,
                    "velocity": 0.5196850393700787,
                    "duration": 0.20357122499999036
                },
                {
                    "name": "F#4",
                    "midi": 66,
                    "time": 70.29635827500003,
                    "velocity": 0.6692913385826772,
                    "duration": 0.2214283499999965
                },
                {
                    "name": "B3",
                    "midi": 59,
                    "time": 70.29992970000004,
                    "velocity": 0.5196850393700787,
                    "duration": 0.20714264999999443
                },
                {
                    "name": "B3",
                    "midi": 59,
                    "time": 70.73921497500002,
                    "velocity": 0.6456692913385826,
                    "duration": 0.2214283500000107
                },
                {
                    "name": "F#4",
                    "midi": 66,
                    "time": 70.74278640000003,
                    "velocity": 0.7007874015748031,
                    "duration": 0.2214283500000107
                },
                {
                    "name": "F#4",
                    "midi": 66,
                    "time": 71.38207147500003,
                    "velocity": 0.6850393700787402,
                    "duration": 0.1999998000000005
                },
                {
                    "name": "B3",
                    "midi": 59,
                    "time": 71.38564290000004,
                    "velocity": 0.5196850393700787,
                    "duration": 0.20357122499999036
                },
                {
                    "name": "C#4",
                    "midi": 61,
                    "time": 71.99992800000003,
                    "velocity": 0.5354330708661418,
                    "duration": 0.1999998000000005
                },
                {
                    "name": "F#4",
                    "midi": 66,
                    "time": 71.99992800000003,
                    "velocity": 0.6692913385826772,
                    "duration": 0.2214283499999965
                },
                {
                    "name": "C#4",
                    "midi": 61,
                    "time": 72.42849900000002,
                    "velocity": 0.49606299212598426,
                    "duration": 0.17499982500000044
                },
                {
                    "name": "F#4",
                    "midi": 66,
                    "time": 72.42849900000002,
                    "velocity": 0.5669291338582677,
                    "duration": 0.1999998000000005
                },
                {
                    "name": "F#4",
                    "midi": 66,
                    "time": 73.07135550000001,
                    "velocity": 0.6299212598425197,
                    "duration": 0.19642837499999644
                },
                {
                    "name": "C#4",
                    "midi": 61,
                    "time": 73.07135550000001,
                    "velocity": 0.5826771653543307,
                    "duration": 0.16428555000000244
                },
                {
                    "name": "F4",
                    "midi": 65,
                    "time": 73.724926275,
                    "velocity": 0.6692913385826772,
                    "duration": 0.2214283499999965
                },
                {
                    "name": "B3",
                    "midi": 59,
                    "time": 73.7284977,
                    "velocity": 0.5196850393700787,
                    "duration": 0.20714264999999443
                },
                {
                    "name": "B3",
                    "midi": 59,
                    "time": 74.167782975,
                    "velocity": 0.6456692913385826,
                    "duration": 0.2214283500000107
                },
                {
                    "name": "F4",
                    "midi": 65,
                    "time": 74.1713544,
                    "velocity": 0.7007874015748031,
                    "duration": 0.2214283500000107
                },
                {
                    "name": "F4",
                    "midi": 65,
                    "time": 74.81063947500002,
                    "velocity": 0.6850393700787402,
                    "duration": 0.1999998000000005
                },
                {
                    "name": "B3",
                    "midi": 59,
                    "time": 74.81421090000002,
                    "velocity": 0.5196850393700787,
                    "duration": 0.20357122499999036
                },
                {
                    "name": "G3",
                    "midi": 55,
                    "time": 75.42849600000001,
                    "velocity": 0.5984251968503937,
                    "duration": 0.1785712500000045
                },
                {
                    "name": "D4",
                    "midi": 62,
                    "time": 75.42849600000001,
                    "velocity": 0.6692913385826772,
                    "duration": 0.19285695000000658
                },
                {
                    "name": "D4",
                    "midi": 62,
                    "time": 75.85706700000001,
                    "velocity": 0.6850393700787402,
                    "duration": 0.20357122500000457
                },
                {
                    "name": "G3",
                    "midi": 55,
                    "time": 75.85706700000001,
                    "velocity": 0.5669291338582677,
                    "duration": 0.1785712500000045
                },
                {
                    "name": "D4",
                    "midi": 62,
                    "time": 76.49992350000002,
                    "velocity": 0.6456692913385826,
                    "duration": 0.18571409999999844
                },
                {
                    "name": "G3",
                    "midi": 55,
                    "time": 76.49992350000002,
                    "velocity": 0.5826771653543307,
                    "duration": 0.1785712500000045
                },
                {
                    "name": "G3",
                    "midi": 55,
                    "time": 76.92849450000003,
                    "velocity": 0.5669291338582677,
                    "duration": 0.1785712500000045
                },
                {
                    "name": "D4",
                    "midi": 62,
                    "time": 76.92849450000003,
                    "velocity": 0.6692913385826772,
                    "duration": 0.1785712500000045
                },
                {
                    "name": "G3",
                    "midi": 55,
                    "time": 77.99992200000003,
                    "velocity": 0.5354330708661418,
                    "duration": 0.11785702500000639
                },
                {
                    "name": "D4",
                    "midi": 62,
                    "time": 77.99992200000003,
                    "velocity": 0.5354330708661418,
                    "duration": 0.13214272500000845
                },
                {
                    "name": "E2",
                    "midi": 40,
                    "time": 78.21420750000003,
                    "velocity": 0.48031496062992124,
                    "duration": 0.1357141499999983
                },
                {
                    "name": "D4",
                    "midi": 62,
                    "time": 78.42849300000003,
                    "velocity": 0.6141732283464567,
                    "duration": 0.16071412499999838
                },
                {
                    "name": "G3",
                    "midi": 55,
                    "time": 78.42849300000003,
                    "velocity": 0.5669291338582677,
                    "duration": 0.1464284249999963
                },
                {
                    "name": "E3",
                    "midi": 52,
                    "time": 78.85706400000004,
                    "velocity": 0.6692913385826772,
                    "duration": 1.135713150000015
                },
                {
                    "name": "G#3",
                    "midi": 56,
                    "time": 79.07134950000004,
                    "velocity": 0.44881889763779526,
                    "duration": 1.114284600000019
                },
                {
                    "name": "B3",
                    "midi": 59,
                    "time": 79.28563500000004,
                    "velocity": 0.5196850393700787,
                    "duration": 0.8928562500000226
                },
                {
                    "name": "D4",
                    "midi": 62,
                    "time": 79.49992050000004,
                    "velocity": 0.6692913385826772,
                    "duration": 0.6607136250000138
                },
                {
                    "name": "E2",
                    "midi": 40,
                    "time": 79.92849150000005,
                    "velocity": 0.5984251968503937,
                    "duration": 0.9607133250000288
                },
                {
                    "name": "E3",
                    "midi": 52,
                    "time": 80.14277700000005,
                    "velocity": 0.6299212598425197,
                    "duration": 0.7964277750000264
                },
                {
                    "name": "B3",
                    "midi": 59,
                    "time": 80.35706250000005,
                    "velocity": 0.48031496062992124,
                    "duration": 0.15357127500000445
                },
                {
                    "name": "G#3",
                    "midi": 56,
                    "time": 80.35706250000005,
                    "velocity": 0.44881889763779526,
                    "duration": 0.16785697500000651
                },
                {
                    "name": "D4",
                    "midi": 62,
                    "time": 80.35706250000005,
                    "velocity": 0.4881889763779528,
                    "duration": 0.18571410000001265
                },
                {
                    "name": "D4",
                    "midi": 62,
                    "time": 80.78563350000007,
                    "velocity": 0.5354330708661418,
                    "duration": 0.4571424000000093
                },
                {
                    "name": "G#3",
                    "midi": 56,
                    "time": 80.78563350000007,
                    "velocity": 0.47244094488188976,
                    "duration": 0.4642852500000032
                },
                {
                    "name": "B3",
                    "midi": 59,
                    "time": 80.78563350000007,
                    "velocity": 0.5826771653543307,
                    "duration": 0.4571424000000093
                },
                {
                    "name": "E3",
                    "midi": 52,
                    "time": 81.21420450000008,
                    "velocity": 0.5196850393700787,
                    "duration": 0.3142854000000028
                },
                {
                    "name": "G#3",
                    "midi": 56,
                    "time": 81.42849000000008,
                    "velocity": 0.44881889763779526,
                    "duration": 0.1999998000000005
                },
                {
                    "name": "B3",
                    "midi": 59,
                    "time": 81.42849000000008,
                    "velocity": 0.6299212598425197,
                    "duration": 0.20714264999999443
                },
                {
                    "name": "D4",
                    "midi": 62,
                    "time": 81.42849000000008,
                    "velocity": 0.5354330708661418,
                    "duration": 0.21428549999998836
                },
                {
                    "name": "E3",
                    "midi": 52,
                    "time": 81.64277550000007,
                    "velocity": 0.33070866141732286,
                    "duration": 0.18571409999999844
                },
                {
                    "name": "D4",
                    "midi": 62,
                    "time": 81.85706100000007,
                    "velocity": 0.5354330708661418,
                    "duration": 0.21428550000000257
                },
                {
                    "name": "B3",
                    "midi": 59,
                    "time": 81.85706100000007,
                    "velocity": 0.5984251968503937,
                    "duration": 0.19642837499999644
                },
                {
                    "name": "G#3",
                    "midi": 56,
                    "time": 81.85706100000007,
                    "velocity": 0.5354330708661418,
                    "duration": 0.1892855250000025
                },
                {
                    "name": "A#3",
                    "midi": 58,
                    "time": 82.28563200000008,
                    "velocity": 0.5354330708661418,
                    "duration": 0.1999998000000005
                },
                {
                    "name": "E4",
                    "midi": 64,
                    "time": 82.28563200000008,
                    "velocity": 0.6692913385826772,
                    "duration": 0.2214283499999965
                },
                {
                    "name": "A#3",
                    "midi": 58,
                    "time": 82.71420300000007,
                    "velocity": 0.49606299212598426,
                    "duration": 0.17499982500000044
                },
                {
                    "name": "E4",
                    "midi": 64,
                    "time": 82.71420300000007,
                    "velocity": 0.5669291338582677,
                    "duration": 0.1999998000000005
                },
                {
                    "name": "E4",
                    "midi": 64,
                    "time": 83.35705950000008,
                    "velocity": 0.6299212598425197,
                    "duration": 0.19642837499999644
                },
                {
                    "name": "A#3",
                    "midi": 58,
                    "time": 83.35705950000008,
                    "velocity": 0.5826771653543307,
                    "duration": 0.16428555000000244
                },
                {
                    "name": "C#4",
                    "midi": 61,
                    "time": 84.01063027500007,
                    "velocity": 0.6692913385826772,
                    "duration": 0.2214283499999965
                },
                {
                    "name": "G3",
                    "midi": 55,
                    "time": 84.01420170000007,
                    "velocity": 0.5196850393700787,
                    "duration": 0.20714264999999443
                },
                {
                    "name": "G3",
                    "midi": 55,
                    "time": 84.45348697500006,
                    "velocity": 0.6456692913385826,
                    "duration": 0.2214283500000107
                },
                {
                    "name": "C#4",
                    "midi": 61,
                    "time": 84.45705840000007,
                    "velocity": 0.7007874015748031,
                    "duration": 0.2214283500000107
                },
                {
                    "name": "C#4",
                    "midi": 61,
                    "time": 85.09634347500008,
                    "velocity": 0.6850393700787402,
                    "duration": 0.1999998000000005
                },
                {
                    "name": "G3",
                    "midi": 55,
                    "time": 85.09991490000009,
                    "velocity": 0.5196850393700787,
                    "duration": 0.20357122499999036
                },
                {
                    "name": "F#4",
                    "midi": 66,
                    "time": 85.92848550000008,
                    "velocity": 0.6141732283464567,
                    "duration": 0.4964280749999972
                },
                {
                    "name": "C#4",
                    "midi": 61,
                    "time": 85.92848550000008,
                    "velocity": 0.5984251968503937,
                    "duration": 0.4964280749999972
                },
                {
                    "name": "C#4",
                    "midi": 61,
                    "time": 86.57134200000007,
                    "velocity": 0.48031496062992124,
                    "duration": 0.1999998000000005
                },
                {
                    "name": "F#4",
                    "midi": 66,
                    "time": 86.57134200000007,
                    "velocity": 0.5984251968503937,
                    "duration": 0.2214283499999965
                },
                {
                    "name": "C#4",
                    "midi": 61,
                    "time": 86.99991300000006,
                    "velocity": 0.4881889763779528,
                    "duration": 0.16428555000000244
                },
                {
                    "name": "F#4",
                    "midi": 66,
                    "time": 86.99991300000006,
                    "velocity": 0.6299212598425197,
                    "duration": 0.18214267500000858
                },
                {
                    "name": "D4",
                    "midi": 62,
                    "time": 87.64276950000007,
                    "velocity": 0.6141732283464567,
                    "duration": 0.4964280749999972
                },
                {
                    "name": "A3",
                    "midi": 57,
                    "time": 87.64276950000007,
                    "velocity": 0.5984251968503937,
                    "duration": 0.4964280749999972
                },
                {
                    "name": "A3",
                    "midi": 57,
                    "time": 88.28562600000006,
                    "velocity": 0.48031496062992124,
                    "duration": 0.1999998000000005
                },
                {
                    "name": "D4",
                    "midi": 62,
                    "time": 88.28562600000006,
                    "velocity": 0.5984251968503937,
                    "duration": 0.2214283499999965
                },
                {
                    "name": "A3",
                    "midi": 57,
                    "time": 88.71419700000006,
                    "velocity": 0.4881889763779528,
                    "duration": 0.16428555000000244
                },
                {
                    "name": "D4",
                    "midi": 62,
                    "time": 88.71419700000006,
                    "velocity": 0.6299212598425197,
                    "duration": 0.18214267500000858
                },
                {
                    "name": "D4",
                    "midi": 62,
                    "time": 89.14276800000006,
                    "velocity": 0.6456692913385826,
                    "duration": 0.1999998000000005
                },
                {
                    "name": "G#3",
                    "midi": 56,
                    "time": 89.14276800000006,
                    "velocity": 0.5039370078740157,
                    "duration": 0.18571409999999844
                },
                {
                    "name": "G#3",
                    "midi": 56,
                    "time": 89.57133900000007,
                    "velocity": 0.49606299212598426,
                    "duration": 0.17142839999999637
                },
                {
                    "name": "D4",
                    "midi": 62,
                    "time": 89.57133900000007,
                    "velocity": 0.5826771653543307,
                    "duration": 0.1892855250000025
                },
                {
                    "name": "D4",
                    "midi": 62,
                    "time": 90.21419550000007,
                    "velocity": 0.6456692913385826,
                    "duration": 0.2428569000000067
                },
                {
                    "name": "G#3",
                    "midi": 56,
                    "time": 90.21419550000007,
                    "velocity": 0.5039370078740157,
                    "duration": 0.22499977500000057
                },
                {
                    "name": "G#3",
                    "midi": 56,
                    "time": 90.64276650000008,
                    "velocity": 0.4645669291338583,
                    "duration": 0.778570650000006
                },
                {
                    "name": "D4",
                    "midi": 62,
                    "time": 90.64276650000008,
                    "velocity": 0.5511811023622047,
                    "duration": 0.7964277750000122
                },
                {
                    "name": "E3",
                    "midi": 52,
                    "time": 91.49990850000009,
                    "velocity": 0.4566929133858268,
                    "duration": 0.24642832499999656
                },
                {
                    "name": "D4",
                    "midi": 62,
                    "time": 91.71419400000009,
                    "velocity": 0.44881889763779526,
                    "duration": 0.22499977499998636
                },
                {
                    "name": "G#3",
                    "midi": 56,
                    "time": 91.71419400000009,
                    "velocity": 0.41732283464566927,
                    "duration": 0.21428549999998836
                },
                {
                    "name": "E3",
                    "midi": 52,
                    "time": 91.92847950000008,
                    "velocity": 0.49606299212598426,
                    "duration": 0.24642832499999656
                },
                {
                    "name": "D4",
                    "midi": 62,
                    "time": 92.14276500000008,
                    "velocity": 0.6299212598425197,
                    "duration": 0.18214267499999437
                },
                {
                    "name": "G#3",
                    "midi": 56,
                    "time": 92.14276500000008,
                    "velocity": 0.4881889763779528,
                    "duration": 0.1678569749999923
                },
                {
                    "name": "A#3",
                    "midi": 58,
                    "time": 92.57133600000007,
                    "velocity": 0.5984251968503937,
                    "duration": 0.1785712500000045
                },
                {
                    "name": "E4",
                    "midi": 64,
                    "time": 92.57133600000007,
                    "velocity": 0.6692913385826772,
                    "duration": 0.19285695000000658
                },
                {
                    "name": "E4",
                    "midi": 64,
                    "time": 92.99990700000008,
                    "velocity": 0.6850393700787402,
                    "duration": 0.20357122500000457
                },
                {
                    "name": "A#3",
                    "midi": 58,
                    "time": 92.99990700000008,
                    "velocity": 0.5669291338582677,
                    "duration": 0.1785712500000045
                },
                {
                    "name": "E4",
                    "midi": 64,
                    "time": 93.64276350000009,
                    "velocity": 0.6456692913385826,
                    "duration": 0.18571409999999844
                },
                {
                    "name": "A#3",
                    "midi": 58,
                    "time": 93.64276350000009,
                    "velocity": 0.5826771653543307,
                    "duration": 0.1785712500000045
                },
                {
                    "name": "A#3",
                    "midi": 58,
                    "time": 94.07133450000009,
                    "velocity": 0.5669291338582677,
                    "duration": 0.1785712500000045
                },
                {
                    "name": "E4",
                    "midi": 64,
                    "time": 94.07133450000009,
                    "velocity": 0.6692913385826772,
                    "duration": 0.1785712500000045
                },
                {
                    "name": "A#3",
                    "midi": 58,
                    "time": 95.14276200000009,
                    "velocity": 0.5354330708661418,
                    "duration": 0.11785702500000639
                },
                {
                    "name": "E4",
                    "midi": 64,
                    "time": 95.14276200000009,
                    "velocity": 0.5354330708661418,
                    "duration": 0.13214272500000845
                },
                {
                    "name": "F#2",
                    "midi": 42,
                    "time": 95.35704750000009,
                    "velocity": 0.48031496062992124,
                    "duration": 0.1357141499999983
                },
                {
                    "name": "E4",
                    "midi": 64,
                    "time": 95.5713330000001,
                    "velocity": 0.6141732283464567,
                    "duration": 0.16071412499999838
                },
                {
                    "name": "A#3",
                    "midi": 58,
                    "time": 95.5713330000001,
                    "velocity": 0.5669291338582677,
                    "duration": 0.1464284249999963
                },
                {
                    "name": "A3",
                    "midi": 57,
                    "time": 96.21418950000009,
                    "velocity": 0.4645669291338583,
                    "duration": 0.6428564999999935
                },
                {
                    "name": "D4",
                    "midi": 62,
                    "time": 96.21418950000009,
                    "velocity": 0.5354330708661418,
                    "duration": 0.6428564999999935
                },
                {
                    "name": "G#3",
                    "midi": 56,
                    "time": 97.07133150000008,
                    "velocity": 0.49606299212598426,
                    "duration": 0.6428564999999935
                },
                {
                    "name": "C#4",
                    "midi": 61,
                    "time": 97.07133150000008,
                    "velocity": 0.6062992125984252,
                    "duration": 0.6428564999999935
                },
                {
                    "name": "G3",
                    "midi": 55,
                    "time": 97.71418800000008,
                    "velocity": 0.48031496062992124,
                    "duration": 0.1785712500000045
                },
                {
                    "name": "C4",
                    "midi": 60,
                    "time": 97.71418800000008,
                    "velocity": 0.5039370078740157,
                    "duration": 0.20357122500000457
                },
                {
                    "name": "A2",
                    "midi": 45,
                    "time": 97.92847350000008,
                    "velocity": 0.5039370078740157,
                    "duration": 0.1785712500000045
                },
                {
                    "name": "C4",
                    "midi": 60,
                    "time": 98.14275900000008,
                    "velocity": 0.5826771653543307,
                    "duration": 0.31071397499999875
                },
                {
                    "name": "G3",
                    "midi": 55,
                    "time": 98.14275900000008,
                    "velocity": 0.44881889763779526,
                    "duration": 0.29999970000000076
                },
                {
                    "name": "C4",
                    "midi": 60,
                    "time": 98.57133000000009,
                    "velocity": 0.48031496062992124,
                    "duration": 0.1785712500000045
                },
                {
                    "name": "F#4",
                    "midi": 66,
                    "time": 98.57133000000009,
                    "velocity": 0.5039370078740157,
                    "duration": 0.20357122500000457
                },
                {
                    "name": "D3",
                    "midi": 50,
                    "time": 98.78561550000009,
                    "velocity": 0.5039370078740157,
                    "duration": 0.1785712500000045
                },
                {
                    "name": "F#4",
                    "midi": 66,
                    "time": 98.9999010000001,
                    "velocity": 0.5826771653543307,
                    "duration": 0.31071397499999875
                },
                {
                    "name": "C4",
                    "midi": 60,
                    "time": 98.9999010000001,
                    "velocity": 0.44881889763779526,
                    "duration": 0.29999970000000076
                },
                {
                    "name": "F#4",
                    "midi": 66,
                    "time": 99.64275750000009,
                    "velocity": 0.6141732283464567,
                    "duration": 0.4964280749999972
                },
                {
                    "name": "B3",
                    "midi": 59,
                    "time": 99.64275750000009,
                    "velocity": 0.5984251968503937,
                    "duration": 0.4964280749999972
                },
                {
                    "name": "B3",
                    "midi": 59,
                    "time": 100.28561400000008,
                    "velocity": 0.48031496062992124,
                    "duration": 0.1999998000000005
                },
                {
                    "name": "F#4",
                    "midi": 66,
                    "time": 100.28561400000008,
                    "velocity": 0.5984251968503937,
                    "duration": 0.2214283499999965
                },
                {
                    "name": "B3",
                    "midi": 59,
                    "time": 100.71418500000007,
                    "velocity": 0.4881889763779528,
                    "duration": 0.16428555000000244
                },
                {
                    "name": "F#4",
                    "midi": 66,
                    "time": 100.71418500000007,
                    "velocity": 0.6299212598425197,
                    "duration": 0.18214267500000858
                },
                {
                    "name": "F4",
                    "midi": 65,
                    "time": 101.35704150000008,
                    "velocity": 0.6141732283464567,
                    "duration": 0.4964280749999972
                },
                {
                    "name": "A#3",
                    "midi": 58,
                    "time": 101.35704150000008,
                    "velocity": 0.5984251968503937,
                    "duration": 0.4964280749999972
                },
                {
                    "name": "A#3",
                    "midi": 58,
                    "time": 101.99989800000007,
                    "velocity": 0.48031496062992124,
                    "duration": 0.1999998000000005
                },
                {
                    "name": "F4",
                    "midi": 65,
                    "time": 101.99989800000007,
                    "velocity": 0.5984251968503937,
                    "duration": 0.2214283499999965
                },
                {
                    "name": "A#3",
                    "midi": 58,
                    "time": 102.42846900000006,
                    "velocity": 0.4881889763779528,
                    "duration": 0.16428555000000244
                },
                {
                    "name": "F4",
                    "midi": 65,
                    "time": 102.42846900000006,
                    "velocity": 0.6299212598425197,
                    "duration": 0.18214267500000858
                },
                {
                    "name": "A3",
                    "midi": 57,
                    "time": 102.85704000000007,
                    "velocity": 0.5354330708661418,
                    "duration": 0.1999998000000005
                },
                {
                    "name": "E4",
                    "midi": 64,
                    "time": 102.85704000000007,
                    "velocity": 0.6692913385826772,
                    "duration": 0.2214283499999965
                },
                {
                    "name": "A3",
                    "midi": 57,
                    "time": 103.28561100000006,
                    "velocity": 0.49606299212598426,
                    "duration": 0.17499982500000044
                },
                {
                    "name": "E4",
                    "midi": 64,
                    "time": 103.28561100000006,
                    "velocity": 0.5669291338582677,
                    "duration": 0.1999998000000005
                },
                {
                    "name": "E4",
                    "midi": 64,
                    "time": 103.92846750000007,
                    "velocity": 0.6299212598425197,
                    "duration": 0.19642837499999644
                },
                {
                    "name": "A3",
                    "midi": 57,
                    "time": 103.92846750000007,
                    "velocity": 0.5826771653543307,
                    "duration": 0.16428555000000244
                },
                {
                    "name": "A3",
                    "midi": 57,
                    "time": 104.57132400000006,
                    "velocity": 0.48031496062992124,
                    "duration": 0.1785712500000045
                },
                {
                    "name": "D#4",
                    "midi": 63,
                    "time": 104.57132400000006,
                    "velocity": 0.5039370078740157,
                    "duration": 0.20357122500000457
                },
                {
                    "name": "B2",
                    "midi": 47,
                    "time": 104.78560950000006,
                    "velocity": 0.5039370078740157,
                    "duration": 0.1785712500000045
                },
                {
                    "name": "D#4",
                    "midi": 63,
                    "time": 104.99989500000007,
                    "velocity": 0.5826771653543307,
                    "duration": 0.31071397499999875
                },
                {
                    "name": "A3",
                    "midi": 57,
                    "time": 104.99989500000007,
                    "velocity": 0.44881889763779526,
                    "duration": 0.29999970000000076
                },
                {
                    "name": "A3",
                    "midi": 57,
                    "time": 105.42846600000007,
                    "velocity": 0.48031496062992124,
                    "duration": 0.1785712500000045
                },
                {
                    "name": "D#4",
                    "midi": 63,
                    "time": 105.42846600000007,
                    "velocity": 0.5039370078740157,
                    "duration": 0.20357122500000457
                },
                {
                    "name": "B2",
                    "midi": 47,
                    "time": 105.64275150000007,
                    "velocity": 0.5039370078740157,
                    "duration": 0.1785712500000045
                },
                {
                    "name": "D#4",
                    "midi": 63,
                    "time": 105.85703700000008,
                    "velocity": 0.5826771653543307,
                    "duration": 0.31071397499999875
                },
                {
                    "name": "A3",
                    "midi": 57,
                    "time": 105.85703700000008,
                    "velocity": 0.44881889763779526,
                    "duration": 0.29999970000000076
                },
                {
                    "name": "D4",
                    "midi": 62,
                    "time": 106.49989350000007,
                    "velocity": 0.6141732283464567,
                    "duration": 0.4964280749999972
                },
                {
                    "name": "G#3",
                    "midi": 56,
                    "time": 106.49989350000007,
                    "velocity": 0.5984251968503937,
                    "duration": 0.4964280749999972
                },
                {
                    "name": "G#3",
                    "midi": 56,
                    "time": 107.14275000000006,
                    "velocity": 0.48031496062992124,
                    "duration": 0.1999998000000005
                },
                {
                    "name": "D4",
                    "midi": 62,
                    "time": 107.14275000000006,
                    "velocity": 0.5984251968503937,
                    "duration": 0.2214283499999965
                },
                {
                    "name": "G#3",
                    "midi": 56,
                    "time": 107.57132100000005,
                    "velocity": 0.4881889763779528,
                    "duration": 0.16428555000000244
                },
                {
                    "name": "D4",
                    "midi": 62,
                    "time": 107.57132100000005,
                    "velocity": 0.6299212598425197,
                    "duration": 0.18214267500000858
                },
                {
                    "name": "C#4",
                    "midi": 61,
                    "time": 108.01060627500006,
                    "velocity": 0.6692913385826772,
                    "duration": 0.2214283499999965
                },
                {
                    "name": "G3",
                    "midi": 55,
                    "time": 108.01417770000006,
                    "velocity": 0.5196850393700787,
                    "duration": 0.20714264999999443
                },
                {
                    "name": "G3",
                    "midi": 55,
                    "time": 108.45346297500005,
                    "velocity": 0.6456692913385826,
                    "duration": 0.2214283500000107
                },
                {
                    "name": "C#4",
                    "midi": 61,
                    "time": 108.45703440000005,
                    "velocity": 0.7007874015748031,
                    "duration": 0.2214283500000107
                },
                {
                    "name": "C#4",
                    "midi": 61,
                    "time": 109.09631947500006,
                    "velocity": 0.6850393700787402,
                    "duration": 0.1999998000000005
                },
                {
                    "name": "G3",
                    "midi": 55,
                    "time": 109.09989090000006,
                    "velocity": 0.5196850393700787,
                    "duration": 0.20357122499999036
                },
                {
                    "name": "A#3",
                    "midi": 58,
                    "time": 109.92846150000005,
                    "velocity": 0.4645669291338583,
                    "duration": 0.6428564999999935
                },
                {
                    "name": "E4",
                    "midi": 64,
                    "time": 109.92846150000005,
                    "velocity": 0.5354330708661418,
                    "duration": 0.6428564999999935
                },
                {
                    "name": "A#3",
                    "midi": 58,
                    "time": 110.78560350000005,
                    "velocity": 0.49606299212598426,
                    "duration": 0.6428564999999935
                },
                {
                    "name": "E4",
                    "midi": 64,
                    "time": 110.78560350000005,
                    "velocity": 0.6062992125984252,
                    "duration": 0.6428564999999935
                },
                {
                    "name": "A3",
                    "midi": 57,
                    "time": 111.64274550000005,
                    "velocity": 0.5039370078740157,
                    "duration": 0.9749990250000025
                },
                {
                    "name": "D#4",
                    "midi": 63,
                    "time": 111.85703100000005,
                    "velocity": 0.4645669291338583,
                    "duration": 0.20714264999999443
                },
                {
                    "name": "F#4",
                    "midi": 66,
                    "time": 112.07131650000004,
                    "velocity": 0.6456692913385826,
                    "duration": 0.4571424000000093
                },
                {
                    "name": "D#4",
                    "midi": 63,
                    "time": 112.49988750000004,
                    "velocity": 0.4881889763779528,
                    "duration": 0.28928542500000276
                },
                {
                    "name": "C4",
                    "midi": 60,
                    "time": 112.71417300000005,
                    "velocity": 0.6456692913385826,
                    "duration": 0.4142853000000031
                },
                {
                    "name": "A3",
                    "midi": 57,
                    "time": 112.92845850000005,
                    "velocity": 0.5039370078740157,
                    "duration": 0.21428550000000257
                },
                {
                    "name": "D4",
                    "midi": 62,
                    "time": 113.15345827500005,
                    "velocity": 0.6692913385826772,
                    "duration": 0.2214283499999965
                },
                {
                    "name": "G#3",
                    "midi": 56,
                    "time": 113.15702970000005,
                    "velocity": 0.5196850393700787,
                    "duration": 0.20714264999999443
                },
                {
                    "name": "G#3",
                    "midi": 56,
                    "time": 113.59631497500004,
                    "velocity": 0.6456692913385826,
                    "duration": 0.2214283500000107
                },
                {
                    "name": "D4",
                    "midi": 62,
                    "time": 113.59988640000005,
                    "velocity": 0.7007874015748031,
                    "duration": 0.2214283500000107
                },
                {
                    "name": "D4",
                    "midi": 62,
                    "time": 114.23917147500006,
                    "velocity": 0.6850393700787402,
                    "duration": 0.1999998000000005
                },
                {
                    "name": "G#3",
                    "midi": 56,
                    "time": 114.24274290000007,
                    "velocity": 0.5196850393700787,
                    "duration": 0.20357122499999036
                },
                {
                    "name": "C#4",
                    "midi": 61,
                    "time": 115.07131350000006,
                    "velocity": 0.6141732283464567,
                    "duration": 0.4964280749999972
                },
                {
                    "name": "G3",
                    "midi": 55,
                    "time": 115.07131350000006,
                    "velocity": 0.5984251968503937,
                    "duration": 0.4964280749999972
                },
                {
                    "name": "G3",
                    "midi": 55,
                    "time": 115.71417000000005,
                    "velocity": 0.48031496062992124,
                    "duration": 0.1999998000000005
                },
                {
                    "name": "C#4",
                    "midi": 61,
                    "time": 115.71417000000005,
                    "velocity": 0.5984251968503937,
                    "duration": 0.2214283499999965
                },
                {
                    "name": "G3",
                    "midi": 55,
                    "time": 116.14274100000004,
                    "velocity": 0.4881889763779528,
                    "duration": 0.16428555000000244
                },
                {
                    "name": "C#4",
                    "midi": 61,
                    "time": 116.14274100000004,
                    "velocity": 0.6299212598425197,
                    "duration": 0.18214267500000858
                },
                {
                    "name": "B3",
                    "midi": 59,
                    "time": 116.78559750000005,
                    "velocity": 0.4645669291338583,
                    "duration": 0.6428564999999935
                },
                {
                    "name": "F#4",
                    "midi": 66,
                    "time": 116.78559750000005,
                    "velocity": 0.5354330708661418,
                    "duration": 0.6428564999999935
                },
                {
                    "name": "A#3",
                    "midi": 58,
                    "time": 117.64273950000005,
                    "velocity": 0.4645669291338583,
                    "duration": 0.6428564999999935
                },
                {
                    "name": "E4",
                    "midi": 64,
                    "time": 117.64273950000005,
                    "velocity": 0.5354330708661418,
                    "duration": 0.6428564999999935
                },
                {
                    "name": "D#4",
                    "midi": 63,
                    "time": 118.29631027500004,
                    "velocity": 0.6692913385826772,
                    "duration": 0.2214283499999965
                },
                {
                    "name": "A3",
                    "midi": 57,
                    "time": 118.29988170000004,
                    "velocity": 0.5196850393700787,
                    "duration": 0.20714264999999443
                },
                {
                    "name": "A3",
                    "midi": 57,
                    "time": 118.73916697500003,
                    "velocity": 0.6456692913385826,
                    "duration": 0.2214283500000107
                },
                {
                    "name": "D#4",
                    "midi": 63,
                    "time": 118.74273840000004,
                    "velocity": 0.7007874015748031,
                    "duration": 0.2214283500000107
                },
                {
                    "name": "D#4",
                    "midi": 63,
                    "time": 119.38202347500004,
                    "velocity": 0.6850393700787402,
                    "duration": 0.1999998000000005
                },
                {
                    "name": "A3",
                    "midi": 57,
                    "time": 119.38559490000004,
                    "velocity": 0.5196850393700787,
                    "duration": 0.20357122499999036
                },
                {
                    "name": "G#3",
                    "midi": 56,
                    "time": 119.99988000000003,
                    "velocity": 0.5354330708661418,
                    "duration": 0.1999998000000005
                },
                {
                    "name": "D4",
                    "midi": 62,
                    "time": 119.99988000000003,
                    "velocity": 0.6692913385826772,
                    "duration": 0.2214283499999965
                },
                {
                    "name": "G#3",
                    "midi": 56,
                    "time": 120.42845100000002,
                    "velocity": 0.49606299212598426,
                    "duration": 0.17499982500000044
                },
                {
                    "name": "D4",
                    "midi": 62,
                    "time": 120.42845100000002,
                    "velocity": 0.5669291338582677,
                    "duration": 0.1999998000000005
                },
                {
                    "name": "D4",
                    "midi": 62,
                    "time": 121.07130750000002,
                    "velocity": 0.6299212598425197,
                    "duration": 0.19642837499999644
                },
                {
                    "name": "G#3",
                    "midi": 56,
                    "time": 121.07130750000002,
                    "velocity": 0.5826771653543307,
                    "duration": 0.16428555000000244
                },
                {
                    "name": "C#4",
                    "midi": 61,
                    "time": 121.92844950000001,
                    "velocity": 0.6141732283464567,
                    "duration": 0.4964280749999972
                },
                {
                    "name": "G3",
                    "midi": 55,
                    "time": 121.92844950000001,
                    "velocity": 0.5984251968503937,
                    "duration": 0.4964280749999972
                },
                {
                    "name": "G3",
                    "midi": 55,
                    "time": 122.571306,
                    "velocity": 0.48031496062992124,
                    "duration": 0.1999998000000005
                },
                {
                    "name": "C#4",
                    "midi": 61,
                    "time": 122.571306,
                    "velocity": 0.5984251968503937,
                    "duration": 0.2214283499999965
                },
                {
                    "name": "G3",
                    "midi": 55,
                    "time": 122.999877,
                    "velocity": 0.4881889763779528,
                    "duration": 0.16428555000000244
                },
                {
                    "name": "C#4",
                    "midi": 61,
                    "time": 122.999877,
                    "velocity": 0.6299212598425197,
                    "duration": 0.18214267500000858
                },
                {
                    "name": "B3",
                    "midi": 59,
                    "time": 123.428448,
                    "velocity": 0.48031496062992124,
                    "duration": 0.1785712500000045
                },
                {
                    "name": "F#4",
                    "midi": 66,
                    "time": 123.428448,
                    "velocity": 0.5039370078740157,
                    "duration": 0.20357122500000457
                },
                {
                    "name": "D3",
                    "midi": 50,
                    "time": 123.6427335,
                    "velocity": 0.5039370078740157,
                    "duration": 0.1785712500000045
                },
                {
                    "name": "F#4",
                    "midi": 66,
                    "time": 123.85701900000001,
                    "velocity": 0.5826771653543307,
                    "duration": 0.31071397499999875
                },
                {
                    "name": "B3",
                    "midi": 59,
                    "time": 123.85701900000001,
                    "velocity": 0.44881889763779526,
                    "duration": 0.29999970000000076
                },
                {
                    "name": "A#3",
                    "midi": 58,
                    "time": 124.4998755,
                    "velocity": 0.49606299212598426,
                    "duration": 0.6428564999999935
                },
                {
                    "name": "E4",
                    "midi": 64,
                    "time": 124.4998755,
                    "velocity": 0.6062992125984252,
                    "duration": 0.6428564999999935
                },
                {
                    "name": "D#4",
                    "midi": 63,
                    "time": 125.153446275,
                    "velocity": 0.6692913385826772,
                    "duration": 0.2214283499999965
                },
                {
                    "name": "A3",
                    "midi": 57,
                    "time": 125.1570177,
                    "velocity": 0.5196850393700787,
                    "duration": 0.20714264999999443
                },
                {
                    "name": "A3",
                    "midi": 57,
                    "time": 125.59630297499999,
                    "velocity": 0.6456692913385826,
                    "duration": 0.2214283500000107
                },
                {
                    "name": "D#4",
                    "midi": 63,
                    "time": 125.59987439999999,
                    "velocity": 0.7007874015748031,
                    "duration": 0.2214283500000107
                },
                {
                    "name": "D#4",
                    "midi": 63,
                    "time": 126.23915947500001,
                    "velocity": 0.6850393700787402,
                    "duration": 0.1999998000000005
                },
                {
                    "name": "A3",
                    "midi": 57,
                    "time": 126.24273090000001,
                    "velocity": 0.5196850393700787,
                    "duration": 0.20357122499999036
                },
                {
                    "name": "G#3",
                    "midi": 56,
                    "time": 126.857016,
                    "velocity": 0.5354330708661418,
                    "duration": 0.1999998000000005
                },
                {
                    "name": "D4",
                    "midi": 62,
                    "time": 126.857016,
                    "velocity": 0.6692913385826772,
                    "duration": 0.2214283499999965
                },
                {
                    "name": "G#3",
                    "midi": 56,
                    "time": 127.28558699999999,
                    "velocity": 0.49606299212598426,
                    "duration": 0.17499982500000044
                },
                {
                    "name": "D4",
                    "midi": 62,
                    "time": 127.28558699999999,
                    "velocity": 0.5669291338582677,
                    "duration": 0.1999998000000005
                },
                {
                    "name": "D4",
                    "midi": 62,
                    "time": 127.92844349999999,
                    "velocity": 0.6299212598425197,
                    "duration": 0.19642837499998222
                },
                {
                    "name": "G#3",
                    "midi": 56,
                    "time": 127.92844349999999,
                    "velocity": 0.5826771653543307,
                    "duration": 0.16428554999998823
                },
                {
                    "name": "C#4",
                    "midi": 61,
                    "time": 128.58201427499998,
                    "velocity": 0.6692913385826772,
                    "duration": 0.2214283499999965
                },
                {
                    "name": "G3",
                    "midi": 55,
                    "time": 128.58558569999997,
                    "velocity": 0.5196850393700787,
                    "duration": 0.20714265000000864
                },
                {
                    "name": "G3",
                    "midi": 55,
                    "time": 129.02487097499997,
                    "velocity": 0.6456692913385826,
                    "duration": 0.2214283499999965
                },
                {
                    "name": "C#4",
                    "midi": 61,
                    "time": 129.02844239999996,
                    "velocity": 0.7007874015748031,
                    "duration": 0.2214283499999965
                },
                {
                    "name": "C#4",
                    "midi": 61,
                    "time": 129.66772747499996,
                    "velocity": 0.6850393700787402,
                    "duration": 0.1999998000000005
                },
                {
                    "name": "G3",
                    "midi": 55,
                    "time": 129.67129889999995,
                    "velocity": 0.5196850393700787,
                    "duration": 0.20357122500001879
                },
                {
                    "name": "F#4",
                    "midi": 66,
                    "time": 130.29629827499997,
                    "velocity": 0.6692913385826772,
                    "duration": 0.2214283499999965
                },
                {
                    "name": "B3",
                    "midi": 59,
                    "time": 130.29986969999996,
                    "velocity": 0.5196850393700787,
                    "duration": 0.20714265000000864
                },
                {
                    "name": "B3",
                    "midi": 59,
                    "time": 130.73915497499996,
                    "velocity": 0.6456692913385826,
                    "duration": 0.2214283499999965
                },
                {
                    "name": "F#4",
                    "midi": 66,
                    "time": 130.74272639999995,
                    "velocity": 0.7007874015748031,
                    "duration": 0.2214283499999965
                },
                {
                    "name": "F#4",
                    "midi": 66,
                    "time": 131.38201147499996,
                    "velocity": 0.6850393700787402,
                    "duration": 0.1999998000000005
                },
                {
                    "name": "B3",
                    "midi": 59,
                    "time": 131.38558289999995,
                    "velocity": 0.5196850393700787,
                    "duration": 0.20357122500001879
                },
                {
                    "name": "F#4",
                    "midi": 66,
                    "time": 132.21415349999995,
                    "velocity": 0.6141732283464567,
                    "duration": 0.4964280750000114
                },
                {
                    "name": "B3",
                    "midi": 59,
                    "time": 132.21415349999995,
                    "velocity": 0.5984251968503937,
                    "duration": 0.4964280750000114
                },
                {
                    "name": "B3",
                    "midi": 59,
                    "time": 132.85700999999997,
                    "velocity": 0.48031496062992124,
                    "duration": 0.1999998000000005
                },
                {
                    "name": "F#4",
                    "midi": 66,
                    "time": 132.85700999999997,
                    "velocity": 0.5984251968503937,
                    "duration": 0.2214283499999965
                },
                {
                    "name": "B3",
                    "midi": 59,
                    "time": 133.28558099999998,
                    "velocity": 0.4881889763779528,
                    "duration": 0.16428554999998823
                },
                {
                    "name": "F#4",
                    "midi": 66,
                    "time": 133.28558099999998,
                    "velocity": 0.6299212598425197,
                    "duration": 0.18214267499999437
                }
            ],
            "controlChanges": {
                "7": [
                    {
                        "number": 7,
                        "time": 0,
                        "value": 1
                    }
                ],
                "10": [
                    {
                        "number": 10,
                        "time": 0,
                        "value": 0.5039370078740157
                    }
                ],
                "64": [
                    {
                        "number": 64,
                        "time": 0,
                        "value": 0
                    },
                    {
                        "number": 64,
                        "time": 133.71415199999998,
                        "value": 0
                    }
                ],
                "121": [
                    {
                        "number": 121,
                        "time": 0,
                        "value": 0
                    }
                ],
                "123": [
                    {
                        "number": 123,
                        "time": 0,
                        "value": 0
                    }
                ]
            },
            "id": 4,
            "name": "Guitar  ",
            "instrumentNumber": 24,
            "instrument": "acoustic guitar (nylon)",
            "instrumentFamily": "guitar",
            "channelNumber": 5,
            "isPercussion": false
        },
        {
            "startTime": 3.4285680000000003,
            "duration": 133.24986674999997,
            "length": 430,
            "notes": [
                {
                    "name": "A3",
                    "midi": 57,
                    "time": 3.4285680000000003,
                    "velocity": 0.4881889763779528,
                    "duration": 0.8749991249999995
                },
                {
                    "name": "F4",
                    "midi": 65,
                    "time": 3.6428535,
                    "velocity": 0.3700787401574803,
                    "duration": 0.7071421499999992
                },
                {
                    "name": "A4",
                    "midi": 69,
                    "time": 3.857139,
                    "velocity": 0.4094488188976378,
                    "duration": 0.4571423999999995
                },
                {
                    "name": "D5",
                    "midi": 74,
                    "time": 4.0714245,
                    "velocity": 0.5354330708661418,
                    "duration": 0.29999969999999987
                },
                {
                    "name": "A3",
                    "midi": 57,
                    "time": 4.4999955,
                    "velocity": 0.5039370078740157,
                    "duration": 0.15714269999999964
                },
                {
                    "name": "D5",
                    "midi": 74,
                    "time": 4.4999955,
                    "velocity": 0.5354330708661418,
                    "duration": 0.17857125000000007
                },
                {
                    "name": "A4",
                    "midi": 69,
                    "time": 4.4999955,
                    "velocity": 0.5511811023622047,
                    "duration": 0.15714269999999964
                },
                {
                    "name": "F4",
                    "midi": 65,
                    "time": 4.4999955,
                    "velocity": 0.4566929133858268,
                    "duration": 0.17857125000000007
                },
                {
                    "name": "D4",
                    "midi": 62,
                    "time": 5.1428519999999995,
                    "velocity": 0.47244094488188976,
                    "duration": 1.4571414000000003
                },
                {
                    "name": "F3",
                    "midi": 53,
                    "time": 5.1428519999999995,
                    "velocity": 0.47244094488188976,
                    "duration": 1.4571414000000003
                },
                {
                    "name": "A4",
                    "midi": 69,
                    "time": 5.1428519999999995,
                    "velocity": 0.47244094488188976,
                    "duration": 1.4571414000000003
                },
                {
                    "name": "D4",
                    "midi": 62,
                    "time": 6.857136,
                    "velocity": 0.4881889763779528,
                    "duration": 0.2428568999999996
                },
                {
                    "name": "G#4",
                    "midi": 68,
                    "time": 7.0714215,
                    "velocity": 0.4566929133858268,
                    "duration": 1.5749984250000004
                },
                {
                    "name": "B4",
                    "midi": 71,
                    "time": 7.2857069999999995,
                    "velocity": 0.5354330708661418,
                    "duration": 1.3928557499999998
                },
                {
                    "name": "E5",
                    "midi": 76,
                    "time": 7.499992499999999,
                    "velocity": 0.5354330708661418,
                    "duration": 1.289284425
                },
                {
                    "name": "D#4",
                    "midi": 63,
                    "time": 8.785705499999999,
                    "velocity": 0.5511811023622047,
                    "duration": 0.1821426749999997
                },
                {
                    "name": "F4",
                    "midi": 65,
                    "time": 8.785705499999999,
                    "velocity": 0.5511811023622047,
                    "duration": 0.1821426749999997
                },
                {
                    "name": "A3",
                    "midi": 57,
                    "time": 8.785705499999999,
                    "velocity": 0.5511811023622047,
                    "duration": 0.1821426749999997
                },
                {
                    "name": "C5",
                    "midi": 72,
                    "time": 8.785705499999999,
                    "velocity": 0.5511811023622047,
                    "duration": 0.1821426749999997
                },
                {
                    "name": "D4",
                    "midi": 62,
                    "time": 8.999990999999998,
                    "velocity": 0.6141732283464567,
                    "duration": 0.9178562249999995
                },
                {
                    "name": "E4",
                    "midi": 64,
                    "time": 8.999990999999998,
                    "velocity": 0.6141732283464567,
                    "duration": 0.9178562249999995
                },
                {
                    "name": "G#3",
                    "midi": 56,
                    "time": 8.999990999999998,
                    "velocity": 0.6141732283464567,
                    "duration": 0.9178562249999995
                },
                {
                    "name": "B4",
                    "midi": 71,
                    "time": 8.999990999999998,
                    "velocity": 0.6141732283464567,
                    "duration": 0.9178562249999995
                },
                {
                    "name": "G3",
                    "midi": 55,
                    "time": 10.285703999999997,
                    "velocity": 0.47244094488188976,
                    "duration": 1.4571413999999994
                },
                {
                    "name": "A#4",
                    "midi": 70,
                    "time": 10.285703999999997,
                    "velocity": 0.47244094488188976,
                    "duration": 1.4571413999999994
                },
                {
                    "name": "C#4",
                    "midi": 61,
                    "time": 10.285703999999997,
                    "velocity": 0.47244094488188976,
                    "duration": 1.4571413999999994
                },
                {
                    "name": "F4",
                    "midi": 65,
                    "time": 10.285703999999997,
                    "velocity": 0.47244094488188976,
                    "duration": 1.4571413999999994
                },
                {
                    "name": "B4",
                    "midi": 71,
                    "time": 11.999987999999997,
                    "velocity": 0.48031496062992124,
                    "duration": 1.5107127750000018
                },
                {
                    "name": "G3",
                    "midi": 55,
                    "time": 11.999987999999997,
                    "velocity": 0.4645669291338583,
                    "duration": 1.5214270500000016
                },
                {
                    "name": "C#4",
                    "midi": 61,
                    "time": 11.999987999999997,
                    "velocity": 0.4409448818897638,
                    "duration": 1.5071413500000013
                },
                {
                    "name": "E4",
                    "midi": 64,
                    "time": 11.999987999999997,
                    "velocity": 0.5196850393700787,
                    "duration": 1.4892842250000005
                },
                {
                    "name": "C4",
                    "midi": 60,
                    "time": 13.714271999999998,
                    "velocity": 0.4881889763779528,
                    "duration": 0.8749991250000022
                },
                {
                    "name": "F4",
                    "midi": 65,
                    "time": 13.928557499999998,
                    "velocity": 0.3700787401574803,
                    "duration": 0.707142150000001
                },
                {
                    "name": "A4",
                    "midi": 69,
                    "time": 14.142843,
                    "velocity": 0.4094488188976378,
                    "duration": 0.4571424000000004
                },
                {
                    "name": "D5",
                    "midi": 74,
                    "time": 14.3571285,
                    "velocity": 0.5354330708661418,
                    "duration": 0.299999699999999
                },
                {
                    "name": "C4",
                    "midi": 60,
                    "time": 14.7856995,
                    "velocity": 0.5039370078740157,
                    "duration": 0.15714269999999964
                },
                {
                    "name": "D5",
                    "midi": 74,
                    "time": 14.7856995,
                    "velocity": 0.5354330708661418,
                    "duration": 0.17857124999999918
                },
                {
                    "name": "A4",
                    "midi": 69,
                    "time": 14.7856995,
                    "velocity": 0.5511811023622047,
                    "duration": 0.15714269999999964
                },
                {
                    "name": "F4",
                    "midi": 65,
                    "time": 14.7856995,
                    "velocity": 0.4566929133858268,
                    "duration": 0.17857124999999918
                },
                {
                    "name": "G3",
                    "midi": 55,
                    "time": 15.428555999999999,
                    "velocity": 0.4881889763779528,
                    "duration": 0.874999125000004
                },
                {
                    "name": "C#4",
                    "midi": 61,
                    "time": 15.6428415,
                    "velocity": 0.3700787401574803,
                    "duration": 0.7071421500000064
                },
                {
                    "name": "D#4",
                    "midi": 63,
                    "time": 15.857127,
                    "velocity": 0.4094488188976378,
                    "duration": 0.45714240000000395
                },
                {
                    "name": "A#4",
                    "midi": 70,
                    "time": 16.0714125,
                    "velocity": 0.5354330708661418,
                    "duration": 0.2999997000000043
                },
                {
                    "name": "G3",
                    "midi": 55,
                    "time": 16.499983500000006,
                    "velocity": 0.5039370078740157,
                    "duration": 0.1571427000000014
                },
                {
                    "name": "A#4",
                    "midi": 70,
                    "time": 16.499983500000006,
                    "velocity": 0.5354330708661418,
                    "duration": 0.17857125000000096
                },
                {
                    "name": "D#4",
                    "midi": 63,
                    "time": 16.499983500000006,
                    "velocity": 0.5511811023622047,
                    "duration": 0.1571427000000014
                },
                {
                    "name": "C#4",
                    "midi": 61,
                    "time": 16.499983500000006,
                    "velocity": 0.4566929133858268,
                    "duration": 0.17857125000000096
                },
                {
                    "name": "C4",
                    "midi": 60,
                    "time": 17.142840000000007,
                    "velocity": 0.47244094488188976,
                    "duration": 1.4571414000000011
                },
                {
                    "name": "D4",
                    "midi": 62,
                    "time": 17.142840000000007,
                    "velocity": 0.47244094488188976,
                    "duration": 1.4571414000000011
                },
                {
                    "name": "F3",
                    "midi": 53,
                    "time": 17.142840000000007,
                    "velocity": 0.47244094488188976,
                    "duration": 1.4571414000000011
                },
                {
                    "name": "A4",
                    "midi": 69,
                    "time": 17.142840000000007,
                    "velocity": 0.47244094488188976,
                    "duration": 1.4571414000000011
                },
                {
                    "name": "B3",
                    "midi": 59,
                    "time": 18.85712400000001,
                    "velocity": 0.47244094488188976,
                    "duration": 1.4571414000000011
                },
                {
                    "name": "D4",
                    "midi": 62,
                    "time": 18.85712400000001,
                    "velocity": 0.47244094488188976,
                    "duration": 1.4571414000000011
                },
                {
                    "name": "F3",
                    "midi": 53,
                    "time": 18.85712400000001,
                    "velocity": 0.47244094488188976,
                    "duration": 1.4571414000000011
                },
                {
                    "name": "A4",
                    "midi": 69,
                    "time": 18.85712400000001,
                    "velocity": 0.47244094488188976,
                    "duration": 1.4571414000000011
                },
                {
                    "name": "G3",
                    "midi": 55,
                    "time": 20.571408000000012,
                    "velocity": 0.33070866141732286,
                    "duration": 0.2321426250000016
                },
                {
                    "name": "A4",
                    "midi": 69,
                    "time": 20.571408000000012,
                    "velocity": 0.33070866141732286,
                    "duration": 0.2321426250000016
                },
                {
                    "name": "C4",
                    "midi": 60,
                    "time": 20.571408000000012,
                    "velocity": 0.33070866141732286,
                    "duration": 0.2321426250000016
                },
                {
                    "name": "E4",
                    "midi": 64,
                    "time": 20.571408000000012,
                    "velocity": 0.33070866141732286,
                    "duration": 0.2321426250000016
                },
                {
                    "name": "G3",
                    "midi": 55,
                    "time": 21.214264500000013,
                    "velocity": 0.4881889763779528,
                    "duration": 2.2821405749999997
                },
                {
                    "name": "A4",
                    "midi": 69,
                    "time": 21.214264500000013,
                    "velocity": 0.4881889763779528,
                    "duration": 2.2821405749999997
                },
                {
                    "name": "C4",
                    "midi": 60,
                    "time": 21.214264500000013,
                    "velocity": 0.4881889763779528,
                    "duration": 2.2821405749999997
                },
                {
                    "name": "E4",
                    "midi": 64,
                    "time": 21.214264500000013,
                    "velocity": 0.4881889763779528,
                    "duration": 2.2821405749999997
                },
                {
                    "name": "G3",
                    "midi": 55,
                    "time": 23.999976000000014,
                    "velocity": 0.5354330708661418,
                    "duration": 2.757140100000001
                },
                {
                    "name": "A#3",
                    "midi": 58,
                    "time": 23.999976000000014,
                    "velocity": 0.5354330708661418,
                    "duration": 2.757140100000001
                },
                {
                    "name": "D4",
                    "midi": 62,
                    "time": 23.999976000000014,
                    "velocity": 0.5354330708661418,
                    "duration": 2.757140100000001
                },
                {
                    "name": "F4",
                    "midi": 65,
                    "time": 23.999976000000014,
                    "velocity": 0.5354330708661418,
                    "duration": 2.757140100000001
                },
                {
                    "name": "G3",
                    "midi": 55,
                    "time": 26.785687500000016,
                    "velocity": 0.44881889763779526,
                    "duration": 0.21428549999999902
                },
                {
                    "name": "D4",
                    "midi": 62,
                    "time": 26.999973000000015,
                    "velocity": 0.5196850393700787,
                    "duration": 0.22142835000000005
                },
                {
                    "name": "F4",
                    "midi": 65,
                    "time": 27.107115750000016,
                    "velocity": 0.47244094488188976,
                    "duration": 0.18214267499999792
                },
                {
                    "name": "A#4",
                    "midi": 70,
                    "time": 27.221401350000015,
                    "velocity": 0.5669291338582677,
                    "duration": 0.15714269999999786
                },
                {
                    "name": "A4",
                    "midi": 69,
                    "time": 27.428544000000013,
                    "velocity": 0.48031496062992124,
                    "duration": 1.5107127749999982
                },
                {
                    "name": "G3",
                    "midi": 55,
                    "time": 27.428544000000013,
                    "velocity": 0.4645669291338583,
                    "duration": 1.5214270499999998
                },
                {
                    "name": "C#4",
                    "midi": 61,
                    "time": 27.428544000000013,
                    "velocity": 0.4409448818897638,
                    "duration": 1.5071413499999977
                },
                {
                    "name": "E4",
                    "midi": 64,
                    "time": 27.428544000000013,
                    "velocity": 0.5196850393700787,
                    "duration": 1.4892842249999987
                },
                {
                    "name": "G3",
                    "midi": 55,
                    "time": 29.142828000000012,
                    "velocity": 0.4881889763779528,
                    "duration": 0.8749991249999987
                },
                {
                    "name": "C#4",
                    "midi": 61,
                    "time": 29.35711350000001,
                    "velocity": 0.3700787401574803,
                    "duration": 0.7071421500000028
                },
                {
                    "name": "E4",
                    "midi": 64,
                    "time": 29.57139900000001,
                    "velocity": 0.4094488188976378,
                    "duration": 0.45714240000000217
                },
                {
                    "name": "B4",
                    "midi": 71,
                    "time": 29.78568450000001,
                    "velocity": 0.5354330708661418,
                    "duration": 0.2999997000000043
                },
                {
                    "name": "G3",
                    "midi": 55,
                    "time": 30.214255500000014,
                    "velocity": 0.5039370078740157,
                    "duration": 0.1571427000000014
                },
                {
                    "name": "B4",
                    "midi": 71,
                    "time": 30.214255500000014,
                    "velocity": 0.5354330708661418,
                    "duration": 0.17857125000000096
                },
                {
                    "name": "E4",
                    "midi": 64,
                    "time": 30.214255500000014,
                    "velocity": 0.5511811023622047,
                    "duration": 0.1571427000000014
                },
                {
                    "name": "C#4",
                    "midi": 61,
                    "time": 30.214255500000014,
                    "velocity": 0.4566929133858268,
                    "duration": 0.17857125000000096
                },
                {
                    "name": "A3",
                    "midi": 57,
                    "time": 30.857112000000015,
                    "velocity": 0.4881889763779528,
                    "duration": 0.8749991249999987
                },
                {
                    "name": "F4",
                    "midi": 65,
                    "time": 31.071397500000014,
                    "velocity": 0.3700787401574803,
                    "duration": 0.7071421500000028
                },
                {
                    "name": "A4",
                    "midi": 69,
                    "time": 31.285683000000013,
                    "velocity": 0.4094488188976378,
                    "duration": 0.45714240000000217
                },
                {
                    "name": "D5",
                    "midi": 74,
                    "time": 31.499968500000012,
                    "velocity": 0.5354330708661418,
                    "duration": 0.2999997000000043
                },
                {
                    "name": "A3",
                    "midi": 57,
                    "time": 31.928539500000017,
                    "velocity": 0.5039370078740157,
                    "duration": 0.15714269999999786
                },
                {
                    "name": "D5",
                    "midi": 74,
                    "time": 31.928539500000017,
                    "velocity": 0.5354330708661418,
                    "duration": 0.17857125000000096
                },
                {
                    "name": "A4",
                    "midi": 69,
                    "time": 31.928539500000017,
                    "velocity": 0.5511811023622047,
                    "duration": 0.15714269999999786
                },
                {
                    "name": "F4",
                    "midi": 65,
                    "time": 31.928539500000017,
                    "velocity": 0.4566929133858268,
                    "duration": 0.17857125000000096
                },
                {
                    "name": "A3",
                    "midi": 57,
                    "time": 32.57139600000002,
                    "velocity": 0.4881889763779528,
                    "duration": 0.8749991250000093
                },
                {
                    "name": "F4",
                    "midi": 65,
                    "time": 32.785681500000024,
                    "velocity": 0.3700787401574803,
                    "duration": 0.7071421500000028
                },
                {
                    "name": "A4",
                    "midi": 69,
                    "time": 32.99996700000003,
                    "velocity": 0.4094488188976378,
                    "duration": 0.45714240000000217
                },
                {
                    "name": "D5",
                    "midi": 74,
                    "time": 33.21425250000003,
                    "velocity": 0.5354330708661418,
                    "duration": 0.29999970000000076
                },
                {
                    "name": "A3",
                    "midi": 57,
                    "time": 33.64282350000003,
                    "velocity": 0.5039370078740157,
                    "duration": 0.1571427000000014
                },
                {
                    "name": "D5",
                    "midi": 74,
                    "time": 33.64282350000003,
                    "velocity": 0.5354330708661418,
                    "duration": 0.1785712500000045
                },
                {
                    "name": "A4",
                    "midi": 69,
                    "time": 33.64282350000003,
                    "velocity": 0.5511811023622047,
                    "duration": 0.1571427000000014
                },
                {
                    "name": "F4",
                    "midi": 65,
                    "time": 33.64282350000003,
                    "velocity": 0.4566929133858268,
                    "duration": 0.1785712500000045
                },
                {
                    "name": "D4",
                    "midi": 62,
                    "time": 34.285680000000035,
                    "velocity": 0.4881889763779528,
                    "duration": 0.2428568999999996
                },
                {
                    "name": "G#4",
                    "midi": 68,
                    "time": 34.49996550000004,
                    "velocity": 0.4566929133858268,
                    "duration": 1.5749984249999969
                },
                {
                    "name": "B4",
                    "midi": 71,
                    "time": 34.71425100000003,
                    "velocity": 0.5354330708661418,
                    "duration": 1.3928557500000025
                },
                {
                    "name": "E5",
                    "midi": 76,
                    "time": 34.928536500000035,
                    "velocity": 0.5354330708661418,
                    "duration": 1.2892844249999982
                },
                {
                    "name": "D#4",
                    "midi": 63,
                    "time": 36.21424950000004,
                    "velocity": 0.5511811023622047,
                    "duration": 0.18214267499999437
                },
                {
                    "name": "F4",
                    "midi": 65,
                    "time": 36.21424950000004,
                    "velocity": 0.5511811023622047,
                    "duration": 0.18214267499999437
                },
                {
                    "name": "A3",
                    "midi": 57,
                    "time": 36.21424950000004,
                    "velocity": 0.5511811023622047,
                    "duration": 0.18214267499999437
                },
                {
                    "name": "C4",
                    "midi": 60,
                    "time": 36.21424950000004,
                    "velocity": 0.5511811023622047,
                    "duration": 0.18214267499999437
                },
                {
                    "name": "D4",
                    "midi": 62,
                    "time": 36.42853500000003,
                    "velocity": 0.6141732283464567,
                    "duration": 0.9178562250000013
                },
                {
                    "name": "E4",
                    "midi": 64,
                    "time": 36.42853500000003,
                    "velocity": 0.6141732283464567,
                    "duration": 0.9178562250000013
                },
                {
                    "name": "G#3",
                    "midi": 56,
                    "time": 36.42853500000003,
                    "velocity": 0.6141732283464567,
                    "duration": 0.9178562250000013
                },
                {
                    "name": "B3",
                    "midi": 59,
                    "time": 36.42853500000003,
                    "velocity": 0.6141732283464567,
                    "duration": 0.9178562250000013
                },
                {
                    "name": "A#4",
                    "midi": 70,
                    "time": 37.71424800000003,
                    "velocity": 0.48031496062992124,
                    "duration": 1.5107127749999947
                },
                {
                    "name": "G3",
                    "midi": 55,
                    "time": 37.71424800000003,
                    "velocity": 0.4645669291338583,
                    "duration": 1.5214270499999927
                },
                {
                    "name": "C#4",
                    "midi": 61,
                    "time": 37.71424800000003,
                    "velocity": 0.4409448818897638,
                    "duration": 1.5071413499999977
                },
                {
                    "name": "F4",
                    "midi": 65,
                    "time": 37.71424800000003,
                    "velocity": 0.5196850393700787,
                    "duration": 1.4892842249999987
                },
                {
                    "name": "G3",
                    "midi": 55,
                    "time": 39.428532000000025,
                    "velocity": 0.4881889763779528,
                    "duration": 0.8749991250000093
                },
                {
                    "name": "C#4",
                    "midi": 61,
                    "time": 39.64281750000003,
                    "velocity": 0.3700787401574803,
                    "duration": 0.7071421500000028
                },
                {
                    "name": "E4",
                    "midi": 64,
                    "time": 39.85710300000003,
                    "velocity": 0.4094488188976378,
                    "duration": 0.45714240000000217
                },
                {
                    "name": "B4",
                    "midi": 71,
                    "time": 40.07138850000003,
                    "velocity": 0.5354330708661418,
                    "duration": 0.29999970000000076
                },
                {
                    "name": "G3",
                    "midi": 55,
                    "time": 40.49995950000003,
                    "velocity": 0.5039370078740157,
                    "duration": 0.1571427000000014
                },
                {
                    "name": "B4",
                    "midi": 71,
                    "time": 40.49995950000003,
                    "velocity": 0.5354330708661418,
                    "duration": 0.1785712500000045
                },
                {
                    "name": "E4",
                    "midi": 64,
                    "time": 40.49995950000003,
                    "velocity": 0.5511811023622047,
                    "duration": 0.1571427000000014
                },
                {
                    "name": "C#4",
                    "midi": 61,
                    "time": 40.49995950000003,
                    "velocity": 0.4566929133858268,
                    "duration": 0.1785712500000045
                },
                {
                    "name": "E5",
                    "midi": 76,
                    "time": 41.14281600000004,
                    "velocity": 0.48031496062992124,
                    "duration": 1.5107127749999947
                },
                {
                    "name": "C#4",
                    "midi": 61,
                    "time": 41.14281600000004,
                    "velocity": 0.4645669291338583,
                    "duration": 1.5214270499999927
                },
                {
                    "name": "F#4",
                    "midi": 66,
                    "time": 41.14281600000004,
                    "velocity": 0.4409448818897638,
                    "duration": 1.5071413499999977
                },
                {
                    "name": "A4",
                    "midi": 69,
                    "time": 41.14281600000004,
                    "velocity": 0.5196850393700787,
                    "duration": 1.4892842249999987
                },
                {
                    "name": "C4",
                    "midi": 60,
                    "time": 42.85710000000003,
                    "velocity": 0.47244094488188976,
                    "duration": 1.4571413999999976
                },
                {
                    "name": "D#4",
                    "midi": 63,
                    "time": 42.85710000000003,
                    "velocity": 0.47244094488188976,
                    "duration": 1.4571413999999976
                },
                {
                    "name": "F#3",
                    "midi": 54,
                    "time": 42.85710000000003,
                    "velocity": 0.47244094488188976,
                    "duration": 1.4571413999999976
                },
                {
                    "name": "A4",
                    "midi": 69,
                    "time": 42.85710000000003,
                    "velocity": 0.47244094488188976,
                    "duration": 1.4571413999999976
                },
                {
                    "name": "A#3",
                    "midi": 58,
                    "time": 44.57138400000003,
                    "velocity": 0.4881889763779528,
                    "duration": 0.8749991250000093
                },
                {
                    "name": "F4",
                    "midi": 65,
                    "time": 44.78566950000003,
                    "velocity": 0.3700787401574803,
                    "duration": 0.7071421500000028
                },
                {
                    "name": "G4",
                    "midi": 67,
                    "time": 44.999955000000035,
                    "velocity": 0.4094488188976378,
                    "duration": 0.45714240000000217
                },
                {
                    "name": "D5",
                    "midi": 74,
                    "time": 45.21424050000004,
                    "velocity": 0.5354330708661418,
                    "duration": 0.29999970000000076
                },
                {
                    "name": "A#3",
                    "midi": 58,
                    "time": 45.642811500000036,
                    "velocity": 0.5039370078740157,
                    "duration": 0.1571427000000014
                },
                {
                    "name": "D5",
                    "midi": 74,
                    "time": 45.642811500000036,
                    "velocity": 0.5354330708661418,
                    "duration": 0.1785712500000045
                },
                {
                    "name": "G4",
                    "midi": 67,
                    "time": 45.642811500000036,
                    "velocity": 0.5511811023622047,
                    "duration": 0.1571427000000014
                },
                {
                    "name": "F4",
                    "midi": 65,
                    "time": 45.642811500000036,
                    "velocity": 0.4566929133858268,
                    "duration": 0.1785712500000045
                },
                {
                    "name": "B4",
                    "midi": 71,
                    "time": 46.285668000000044,
                    "velocity": 0.48031496062992124,
                    "duration": 1.5107127749999947
                },
                {
                    "name": "G3",
                    "midi": 55,
                    "time": 46.285668000000044,
                    "velocity": 0.4645669291338583,
                    "duration": 1.5214270499999927
                },
                {
                    "name": "C#4",
                    "midi": 61,
                    "time": 46.285668000000044,
                    "velocity": 0.4409448818897638,
                    "duration": 1.5071413499999977
                },
                {
                    "name": "E4",
                    "midi": 64,
                    "time": 46.285668000000044,
                    "velocity": 0.5196850393700787,
                    "duration": 1.4892842249999987
                },
                {
                    "name": "D4",
                    "midi": 62,
                    "time": 47.999952000000036,
                    "velocity": 0.47244094488188976,
                    "duration": 1.4571413999999976
                },
                {
                    "name": "F3",
                    "midi": 53,
                    "time": 47.999952000000036,
                    "velocity": 0.47244094488188976,
                    "duration": 1.4571413999999976
                },
                {
                    "name": "A4",
                    "midi": 69,
                    "time": 47.999952000000036,
                    "velocity": 0.47244094488188976,
                    "duration": 1.4571413999999976
                },
                {
                    "name": "A3",
                    "midi": 57,
                    "time": 49.714236000000035,
                    "velocity": 0.47244094488188976,
                    "duration": 1.4571413999999976
                },
                {
                    "name": "A4",
                    "midi": 69,
                    "time": 49.714236000000035,
                    "velocity": 0.47244094488188976,
                    "duration": 1.4571413999999976
                },
                {
                    "name": "C4",
                    "midi": 60,
                    "time": 49.714236000000035,
                    "velocity": 0.47244094488188976,
                    "duration": 1.4571413999999976
                },
                {
                    "name": "E4",
                    "midi": 64,
                    "time": 49.714236000000035,
                    "velocity": 0.47244094488188976,
                    "duration": 1.4571413999999976
                },
                {
                    "name": "D4",
                    "midi": 62,
                    "time": 51.428520000000034,
                    "velocity": 0.47244094488188976,
                    "duration": 1.4571413999999976
                },
                {
                    "name": "E4",
                    "midi": 64,
                    "time": 51.428520000000034,
                    "velocity": 0.47244094488188976,
                    "duration": 1.4571413999999976
                },
                {
                    "name": "G#3",
                    "midi": 56,
                    "time": 51.428520000000034,
                    "velocity": 0.47244094488188976,
                    "duration": 1.4571413999999976
                },
                {
                    "name": "B4",
                    "midi": 71,
                    "time": 51.428520000000034,
                    "velocity": 0.47244094488188976,
                    "duration": 1.4571413999999976
                },
                {
                    "name": "G3",
                    "midi": 55,
                    "time": 53.142804000000034,
                    "velocity": 0.5354330708661418,
                    "duration": 0.6928564500000007
                },
                {
                    "name": "A#4",
                    "midi": 70,
                    "time": 53.142804000000034,
                    "velocity": 0.5354330708661418,
                    "duration": 0.6928564500000007
                },
                {
                    "name": "C#4",
                    "midi": 61,
                    "time": 53.142804000000034,
                    "velocity": 0.5354330708661418,
                    "duration": 0.6928564500000007
                },
                {
                    "name": "F4",
                    "midi": 65,
                    "time": 53.142804000000034,
                    "velocity": 0.5354330708661418,
                    "duration": 0.6928564500000007
                },
                {
                    "name": "G3",
                    "midi": 55,
                    "time": 53.99994600000004,
                    "velocity": 0.5354330708661418,
                    "duration": 0.6928564500000007
                },
                {
                    "name": "B4",
                    "midi": 71,
                    "time": 53.99994600000004,
                    "velocity": 0.5354330708661418,
                    "duration": 0.6928564500000007
                },
                {
                    "name": "C#4",
                    "midi": 61,
                    "time": 53.99994600000004,
                    "velocity": 0.5354330708661418,
                    "duration": 0.6928564500000007
                },
                {
                    "name": "F4",
                    "midi": 65,
                    "time": 53.99994600000004,
                    "velocity": 0.5354330708661418,
                    "duration": 0.6928564500000007
                },
                {
                    "name": "C4",
                    "midi": 60,
                    "time": 54.85708800000004,
                    "velocity": 0.47244094488188976,
                    "duration": 1.4571413999999976
                },
                {
                    "name": "D4",
                    "midi": 62,
                    "time": 54.85708800000004,
                    "velocity": 0.47244094488188976,
                    "duration": 1.4571413999999976
                },
                {
                    "name": "F3",
                    "midi": 53,
                    "time": 54.85708800000004,
                    "velocity": 0.47244094488188976,
                    "duration": 1.4571413999999976
                },
                {
                    "name": "A4",
                    "midi": 69,
                    "time": 54.85708800000004,
                    "velocity": 0.47244094488188976,
                    "duration": 1.4571413999999976
                },
                {
                    "name": "D4",
                    "midi": 62,
                    "time": 56.57137200000004,
                    "velocity": 0.5354330708661418,
                    "duration": 0.6928564500000007
                },
                {
                    "name": "E4",
                    "midi": 64,
                    "time": 56.57137200000004,
                    "velocity": 0.5354330708661418,
                    "duration": 0.6928564500000007
                },
                {
                    "name": "G3",
                    "midi": 55,
                    "time": 56.57137200000004,
                    "velocity": 0.5354330708661418,
                    "duration": 0.6928564500000007
                },
                {
                    "name": "B4",
                    "midi": 71,
                    "time": 56.57137200000004,
                    "velocity": 0.5354330708661418,
                    "duration": 0.6928564500000007
                },
                {
                    "name": "G3",
                    "midi": 55,
                    "time": 57.64279950000004,
                    "velocity": 0.5511811023622047,
                    "duration": 0.5035709249999982
                },
                {
                    "name": "B4",
                    "midi": 71,
                    "time": 57.64279950000004,
                    "velocity": 0.5511811023622047,
                    "duration": 0.5035709249999982
                },
                {
                    "name": "C#4",
                    "midi": 61,
                    "time": 57.64279950000004,
                    "velocity": 0.5511811023622047,
                    "duration": 0.5035709249999982
                },
                {
                    "name": "F#4",
                    "midi": 66,
                    "time": 57.64279950000004,
                    "velocity": 0.5511811023622047,
                    "duration": 0.5035709249999982
                },
                {
                    "name": "C#4",
                    "midi": 61,
                    "time": 58.28565600000004,
                    "velocity": 0.4881889763779528,
                    "duration": 0.8749991250000093
                },
                {
                    "name": "F#4",
                    "midi": 66,
                    "time": 58.49994150000004,
                    "velocity": 0.3700787401574803,
                    "duration": 0.7071421500000028
                },
                {
                    "name": "A4",
                    "midi": 69,
                    "time": 58.714227000000044,
                    "velocity": 0.4094488188976378,
                    "duration": 0.45714240000000217
                },
                {
                    "name": "E5",
                    "midi": 76,
                    "time": 58.928512500000046,
                    "velocity": 0.5354330708661418,
                    "duration": 0.29999970000000076
                },
                {
                    "name": "C#4",
                    "midi": 61,
                    "time": 59.357083500000044,
                    "velocity": 0.5039370078740157,
                    "duration": 0.1571427000000014
                },
                {
                    "name": "E5",
                    "midi": 76,
                    "time": 59.357083500000044,
                    "velocity": 0.5354330708661418,
                    "duration": 0.1785712500000045
                },
                {
                    "name": "A4",
                    "midi": 69,
                    "time": 59.357083500000044,
                    "velocity": 0.5511811023622047,
                    "duration": 0.1571427000000014
                },
                {
                    "name": "F#4",
                    "midi": 66,
                    "time": 59.357083500000044,
                    "velocity": 0.4566929133858268,
                    "duration": 0.1785712500000045
                },
                {
                    "name": "A3",
                    "midi": 57,
                    "time": 59.99994000000005,
                    "velocity": 0.47244094488188976,
                    "duration": 1.4571413999999976
                },
                {
                    "name": "C5",
                    "midi": 72,
                    "time": 59.99994000000005,
                    "velocity": 0.47244094488188976,
                    "duration": 1.4571413999999976
                },
                {
                    "name": "D#4",
                    "midi": 63,
                    "time": 59.99994000000005,
                    "velocity": 0.47244094488188976,
                    "duration": 1.4571413999999976
                },
                {
                    "name": "G4",
                    "midi": 67,
                    "time": 59.99994000000005,
                    "velocity": 0.47244094488188976,
                    "duration": 1.4571413999999976
                },
                {
                    "name": "F#5",
                    "midi": 78,
                    "time": 61.71422400000005,
                    "velocity": 0.48031496062992124,
                    "duration": 1.5107127749999947
                },
                {
                    "name": "D4",
                    "midi": 62,
                    "time": 61.71422400000005,
                    "velocity": 0.4645669291338583,
                    "duration": 1.5214270499999927
                },
                {
                    "name": "G#4",
                    "midi": 68,
                    "time": 61.71422400000005,
                    "velocity": 0.4409448818897638,
                    "duration": 1.5071413499999977
                },
                {
                    "name": "B4",
                    "midi": 71,
                    "time": 61.71422400000005,
                    "velocity": 0.5196850393700787,
                    "duration": 1.4892842249999987
                },
                {
                    "name": "E5",
                    "midi": 76,
                    "time": 63.42850800000004,
                    "velocity": 0.48031496062992124,
                    "duration": 1.510712775000009
                },
                {
                    "name": "D4",
                    "midi": 62,
                    "time": 63.42850800000004,
                    "velocity": 0.4645669291338583,
                    "duration": 1.5214270500000069
                },
                {
                    "name": "G#4",
                    "midi": 68,
                    "time": 63.42850800000004,
                    "velocity": 0.4409448818897638,
                    "duration": 1.5071413500000048
                },
                {
                    "name": "B4",
                    "midi": 71,
                    "time": 63.42850800000004,
                    "velocity": 0.5196850393700787,
                    "duration": 1.4892842249999987
                },
                {
                    "name": "D4",
                    "midi": 62,
                    "time": 65.14279200000006,
                    "velocity": 0.47244094488188976,
                    "duration": 1.4571413999999976
                },
                {
                    "name": "E4",
                    "midi": 64,
                    "time": 65.14279200000006,
                    "velocity": 0.47244094488188976,
                    "duration": 1.4571413999999976
                },
                {
                    "name": "G#3",
                    "midi": 56,
                    "time": 65.14279200000006,
                    "velocity": 0.47244094488188976,
                    "duration": 1.4571413999999976
                },
                {
                    "name": "B4",
                    "midi": 71,
                    "time": 65.14279200000006,
                    "velocity": 0.47244094488188976,
                    "duration": 1.4571413999999976
                },
                {
                    "name": "G3",
                    "midi": 55,
                    "time": 66.85707600000005,
                    "velocity": 0.47244094488188976,
                    "duration": 1.4571413999999976
                },
                {
                    "name": "A4",
                    "midi": 69,
                    "time": 66.85707600000005,
                    "velocity": 0.47244094488188976,
                    "duration": 1.4571413999999976
                },
                {
                    "name": "C#4",
                    "midi": 61,
                    "time": 66.85707600000005,
                    "velocity": 0.47244094488188976,
                    "duration": 1.4571413999999976
                },
                {
                    "name": "E4",
                    "midi": 64,
                    "time": 66.85707600000005,
                    "velocity": 0.47244094488188976,
                    "duration": 1.4571413999999976
                },
                {
                    "name": "D5",
                    "midi": 74,
                    "time": 68.57136000000004,
                    "velocity": 0.48031496062992124,
                    "duration": 1.510712775000016
                },
                {
                    "name": "B3",
                    "midi": 59,
                    "time": 68.57136000000004,
                    "velocity": 0.4645669291338583,
                    "duration": 1.521427050000014
                },
                {
                    "name": "F4",
                    "midi": 65,
                    "time": 68.57136000000004,
                    "velocity": 0.4409448818897638,
                    "duration": 1.507141350000012
                },
                {
                    "name": "G#4",
                    "midi": 68,
                    "time": 68.57136000000004,
                    "velocity": 0.5196850393700787,
                    "duration": 1.4892842250000058
                },
                {
                    "name": "B3",
                    "midi": 59,
                    "time": 70.28564400000006,
                    "velocity": 0.4881889763779528,
                    "duration": 0.8749991250000022
                },
                {
                    "name": "F#4",
                    "midi": 66,
                    "time": 70.49992950000006,
                    "velocity": 0.3700787401574803,
                    "duration": 0.7071421499999957
                },
                {
                    "name": "A4",
                    "midi": 69,
                    "time": 70.71421500000007,
                    "velocity": 0.4094488188976378,
                    "duration": 0.45714239999999506
                },
                {
                    "name": "D5",
                    "midi": 74,
                    "time": 70.92850050000007,
                    "velocity": 0.5354330708661418,
                    "duration": 0.29999969999998655
                },
                {
                    "name": "B3",
                    "midi": 59,
                    "time": 71.35707150000006,
                    "velocity": 0.5039370078740157,
                    "duration": 0.1571426999999943
                },
                {
                    "name": "D5",
                    "midi": 74,
                    "time": 71.35707150000006,
                    "velocity": 0.5354330708661418,
                    "duration": 0.1785712499999903
                },
                {
                    "name": "A4",
                    "midi": 69,
                    "time": 71.35707150000006,
                    "velocity": 0.5511811023622047,
                    "duration": 0.1571426999999943
                },
                {
                    "name": "F#4",
                    "midi": 66,
                    "time": 71.35707150000006,
                    "velocity": 0.4566929133858268,
                    "duration": 0.1785712499999903
                },
                {
                    "name": "C#4",
                    "midi": 61,
                    "time": 71.99992800000005,
                    "velocity": 0.47244094488188976,
                    "duration": 1.4571413999999976
                },
                {
                    "name": "E4",
                    "midi": 64,
                    "time": 71.99992800000005,
                    "velocity": 0.47244094488188976,
                    "duration": 1.4571413999999976
                },
                {
                    "name": "F#3",
                    "midi": 54,
                    "time": 71.99992800000005,
                    "velocity": 0.47244094488188976,
                    "duration": 1.4571413999999976
                },
                {
                    "name": "A4",
                    "midi": 69,
                    "time": 71.99992800000005,
                    "velocity": 0.47244094488188976,
                    "duration": 1.4571413999999976
                },
                {
                    "name": "D5",
                    "midi": 74,
                    "time": 73.71421200000005,
                    "velocity": 0.48031496062992124,
                    "duration": 1.510712775000016
                },
                {
                    "name": "B3",
                    "midi": 59,
                    "time": 73.71421200000005,
                    "velocity": 0.4645669291338583,
                    "duration": 1.521427050000014
                },
                {
                    "name": "F4",
                    "midi": 65,
                    "time": 73.71421200000005,
                    "velocity": 0.4409448818897638,
                    "duration": 1.507141350000012
                },
                {
                    "name": "G#4",
                    "midi": 68,
                    "time": 73.71421200000005,
                    "velocity": 0.5196850393700787,
                    "duration": 1.4892842250000058
                },
                {
                    "name": "D4",
                    "midi": 62,
                    "time": 75.42849600000007,
                    "velocity": 0.33070866141732286,
                    "duration": 0.2321426249999945
                },
                {
                    "name": "E4",
                    "midi": 64,
                    "time": 75.42849600000007,
                    "velocity": 0.33070866141732286,
                    "duration": 0.2321426249999945
                },
                {
                    "name": "G3",
                    "midi": 55,
                    "time": 75.42849600000007,
                    "velocity": 0.33070866141732286,
                    "duration": 0.2321426249999945
                },
                {
                    "name": "B3",
                    "midi": 59,
                    "time": 75.42849600000007,
                    "velocity": 0.33070866141732286,
                    "duration": 0.2321426249999945
                },
                {
                    "name": "D4",
                    "midi": 62,
                    "time": 76.07135250000006,
                    "velocity": 0.4881889763779528,
                    "duration": 2.2821405749999997
                },
                {
                    "name": "E4",
                    "midi": 64,
                    "time": 76.07135250000006,
                    "velocity": 0.4881889763779528,
                    "duration": 2.2821405749999997
                },
                {
                    "name": "G3",
                    "midi": 55,
                    "time": 76.07135250000006,
                    "velocity": 0.4881889763779528,
                    "duration": 2.2821405749999997
                },
                {
                    "name": "B3",
                    "midi": 59,
                    "time": 76.07135250000006,
                    "velocity": 0.4881889763779528,
                    "duration": 2.2821405749999997
                },
                {
                    "name": "D4",
                    "midi": 62,
                    "time": 78.85706400000007,
                    "velocity": 0.4881889763779528,
                    "duration": 0.2428569000000067
                },
                {
                    "name": "G#4",
                    "midi": 68,
                    "time": 79.07134950000007,
                    "velocity": 0.4566929133858268,
                    "duration": 1.574998425000004
                },
                {
                    "name": "B4",
                    "midi": 71,
                    "time": 79.28563500000007,
                    "velocity": 0.5354330708661418,
                    "duration": 1.3928557499999954
                },
                {
                    "name": "E5",
                    "midi": 76,
                    "time": 79.49992050000007,
                    "velocity": 0.5354330708661418,
                    "duration": 1.289284424999991
                },
                {
                    "name": "D#4",
                    "midi": 63,
                    "time": 80.78563350000006,
                    "velocity": 0.5511811023622047,
                    "duration": 0.18214267500000858
                },
                {
                    "name": "F4",
                    "midi": 65,
                    "time": 80.78563350000006,
                    "velocity": 0.5511811023622047,
                    "duration": 0.18214267500000858
                },
                {
                    "name": "A3",
                    "midi": 57,
                    "time": 80.78563350000006,
                    "velocity": 0.5511811023622047,
                    "duration": 0.18214267500000858
                },
                {
                    "name": "C5",
                    "midi": 72,
                    "time": 80.78563350000006,
                    "velocity": 0.5511811023622047,
                    "duration": 0.18214267500000858
                },
                {
                    "name": "D4",
                    "midi": 62,
                    "time": 80.99991900000006,
                    "velocity": 0.6141732283464567,
                    "duration": 0.9178562249999942
                },
                {
                    "name": "E4",
                    "midi": 64,
                    "time": 80.99991900000006,
                    "velocity": 0.6141732283464567,
                    "duration": 0.9178562249999942
                },
                {
                    "name": "G#3",
                    "midi": 56,
                    "time": 80.99991900000006,
                    "velocity": 0.6141732283464567,
                    "duration": 0.9178562249999942
                },
                {
                    "name": "B4",
                    "midi": 71,
                    "time": 80.99991900000006,
                    "velocity": 0.6141732283464567,
                    "duration": 0.9178562249999942
                },
                {
                    "name": "E3",
                    "midi": 52,
                    "time": 82.28563200000006,
                    "velocity": 0.47244094488188976,
                    "duration": 1.4571413999999976
                },
                {
                    "name": "G4",
                    "midi": 67,
                    "time": 82.28563200000006,
                    "velocity": 0.47244094488188976,
                    "duration": 1.4571413999999976
                },
                {
                    "name": "A#3",
                    "midi": 58,
                    "time": 82.28563200000006,
                    "velocity": 0.47244094488188976,
                    "duration": 1.4571413999999976
                },
                {
                    "name": "D4",
                    "midi": 62,
                    "time": 82.28563200000006,
                    "velocity": 0.47244094488188976,
                    "duration": 1.4571413999999976
                },
                {
                    "name": "A#4",
                    "midi": 70,
                    "time": 83.99991600000006,
                    "velocity": 0.48031496062992124,
                    "duration": 1.510712775000016
                },
                {
                    "name": "G3",
                    "midi": 55,
                    "time": 83.99991600000006,
                    "velocity": 0.4645669291338583,
                    "duration": 1.521427050000014
                },
                {
                    "name": "C#4",
                    "midi": 61,
                    "time": 83.99991600000006,
                    "velocity": 0.4409448818897638,
                    "duration": 1.507141350000012
                },
                {
                    "name": "E4",
                    "midi": 64,
                    "time": 83.99991600000006,
                    "velocity": 0.5196850393700787,
                    "duration": 1.4892842250000058
                },
                {
                    "name": "C#4",
                    "midi": 61,
                    "time": 85.71420000000008,
                    "velocity": 0.47244094488188976,
                    "duration": 1.4571413999999976
                },
                {
                    "name": "E4",
                    "midi": 64,
                    "time": 85.71420000000008,
                    "velocity": 0.47244094488188976,
                    "duration": 1.4571413999999976
                },
                {
                    "name": "F#3",
                    "midi": 54,
                    "time": 85.71420000000008,
                    "velocity": 0.47244094488188976,
                    "duration": 1.4571413999999976
                },
                {
                    "name": "A3",
                    "midi": 57,
                    "time": 85.71420000000008,
                    "velocity": 0.47244094488188976,
                    "duration": 1.4571413999999976
                },
                {
                    "name": "A3",
                    "midi": 57,
                    "time": 87.42848400000007,
                    "velocity": 0.47244094488188976,
                    "duration": 1.4571413999999976
                },
                {
                    "name": "B4",
                    "midi": 71,
                    "time": 87.42848400000007,
                    "velocity": 0.47244094488188976,
                    "duration": 1.4571413999999976
                },
                {
                    "name": "D4",
                    "midi": 62,
                    "time": 87.42848400000007,
                    "velocity": 0.47244094488188976,
                    "duration": 1.4571413999999976
                },
                {
                    "name": "F#4",
                    "midi": 66,
                    "time": 87.42848400000007,
                    "velocity": 0.47244094488188976,
                    "duration": 1.4571413999999976
                },
                {
                    "name": "D4",
                    "midi": 62,
                    "time": 89.14276800000006,
                    "velocity": 0.5354330708661418,
                    "duration": 2.757140100000001
                },
                {
                    "name": "E4",
                    "midi": 64,
                    "time": 89.14276800000006,
                    "velocity": 0.5354330708661418,
                    "duration": 2.757140100000001
                },
                {
                    "name": "G#3",
                    "midi": 56,
                    "time": 89.14276800000006,
                    "velocity": 0.5354330708661418,
                    "duration": 2.757140100000001
                },
                {
                    "name": "B4",
                    "midi": 71,
                    "time": 89.14276800000006,
                    "velocity": 0.5354330708661418,
                    "duration": 2.757140100000001
                },
                {
                    "name": "D4",
                    "midi": 62,
                    "time": 91.92847950000007,
                    "velocity": 0.44881889763779526,
                    "duration": 0.21428550000000257
                },
                {
                    "name": "G#4",
                    "midi": 68,
                    "time": 92.14276500000007,
                    "velocity": 0.5196850393700787,
                    "duration": 0.2214283499999965
                },
                {
                    "name": "B4",
                    "midi": 71,
                    "time": 92.24990775000006,
                    "velocity": 0.47244094488188976,
                    "duration": 0.18214267500000858
                },
                {
                    "name": "E5",
                    "midi": 76,
                    "time": 92.36419335000006,
                    "velocity": 0.5669291338582677,
                    "duration": 0.15714270000000852
                },
                {
                    "name": "E3",
                    "midi": 52,
                    "time": 92.57133600000007,
                    "velocity": 0.4881889763779528,
                    "duration": 0.2428569000000067
                },
                {
                    "name": "A#3",
                    "midi": 58,
                    "time": 92.78562150000008,
                    "velocity": 0.4566929133858268,
                    "duration": 1.574998425000004
                },
                {
                    "name": "C#4",
                    "midi": 61,
                    "time": 92.99990700000008,
                    "velocity": 0.5354330708661418,
                    "duration": 1.3928557499999954
                },
                {
                    "name": "F#4",
                    "midi": 66,
                    "time": 93.21419250000008,
                    "velocity": 0.5354330708661418,
                    "duration": 1.289284424999991
                },
                {
                    "name": "F4",
                    "midi": 65,
                    "time": 94.49990550000007,
                    "velocity": 0.5511811023622047,
                    "duration": 0.18214267500000858
                },
                {
                    "name": "G4",
                    "midi": 67,
                    "time": 94.49990550000007,
                    "velocity": 0.5511811023622047,
                    "duration": 0.18214267500000858
                },
                {
                    "name": "B3",
                    "midi": 59,
                    "time": 94.49990550000007,
                    "velocity": 0.5511811023622047,
                    "duration": 0.18214267500000858
                },
                {
                    "name": "D5",
                    "midi": 74,
                    "time": 94.49990550000007,
                    "velocity": 0.5511811023622047,
                    "duration": 0.18214267500000858
                },
                {
                    "name": "E4",
                    "midi": 64,
                    "time": 94.71419100000007,
                    "velocity": 0.6141732283464567,
                    "duration": 0.9178562249999942
                },
                {
                    "name": "F#4",
                    "midi": 66,
                    "time": 94.71419100000007,
                    "velocity": 0.6141732283464567,
                    "duration": 0.9178562249999942
                },
                {
                    "name": "A#3",
                    "midi": 58,
                    "time": 94.71419100000007,
                    "velocity": 0.6141732283464567,
                    "duration": 0.9178562249999942
                },
                {
                    "name": "C#5",
                    "midi": 73,
                    "time": 94.71419100000007,
                    "velocity": 0.6141732283464567,
                    "duration": 0.9178562249999942
                },
                {
                    "name": "A3",
                    "midi": 57,
                    "time": 95.99990400000007,
                    "velocity": 0.5354330708661418,
                    "duration": 0.6928564499999936
                },
                {
                    "name": "B3",
                    "midi": 59,
                    "time": 95.99990400000007,
                    "velocity": 0.5354330708661418,
                    "duration": 0.6928564499999936
                },
                {
                    "name": "D4",
                    "midi": 62,
                    "time": 95.99990400000007,
                    "velocity": 0.5354330708661418,
                    "duration": 0.6928564499999936
                },
                {
                    "name": "F#4",
                    "midi": 66,
                    "time": 95.99990400000007,
                    "velocity": 0.5354330708661418,
                    "duration": 0.6928564499999936
                },
                {
                    "name": "G#3",
                    "midi": 56,
                    "time": 97.07133150000007,
                    "velocity": 0.5511811023622047,
                    "duration": 0.5035709250000053
                },
                {
                    "name": "A#4",
                    "midi": 70,
                    "time": 97.07133150000007,
                    "velocity": 0.5511811023622047,
                    "duration": 0.5035709250000053
                },
                {
                    "name": "C#4",
                    "midi": 61,
                    "time": 97.07133150000007,
                    "velocity": 0.5511811023622047,
                    "duration": 0.5035709250000053
                },
                {
                    "name": "F4",
                    "midi": 65,
                    "time": 97.07133150000007,
                    "velocity": 0.5511811023622047,
                    "duration": 0.5035709250000053
                },
                {
                    "name": "G3",
                    "midi": 55,
                    "time": 97.71418800000008,
                    "velocity": 0.5354330708661418,
                    "duration": 0.6928564499999936
                },
                {
                    "name": "A4",
                    "midi": 69,
                    "time": 97.71418800000008,
                    "velocity": 0.5354330708661418,
                    "duration": 0.6928564499999936
                },
                {
                    "name": "C4",
                    "midi": 60,
                    "time": 97.71418800000008,
                    "velocity": 0.5354330708661418,
                    "duration": 0.6928564499999936
                },
                {
                    "name": "E4",
                    "midi": 64,
                    "time": 97.71418800000008,
                    "velocity": 0.5354330708661418,
                    "duration": 0.6928564499999936
                },
                {
                    "name": "C4",
                    "midi": 60,
                    "time": 98.57133000000007,
                    "velocity": 0.5354330708661418,
                    "duration": 0.6928564499999936
                },
                {
                    "name": "D#4",
                    "midi": 63,
                    "time": 98.57133000000007,
                    "velocity": 0.5354330708661418,
                    "duration": 0.6928564499999936
                },
                {
                    "name": "F#3",
                    "midi": 54,
                    "time": 98.57133000000007,
                    "velocity": 0.5354330708661418,
                    "duration": 0.6928564499999936
                },
                {
                    "name": "A4",
                    "midi": 69,
                    "time": 98.57133000000007,
                    "velocity": 0.5354330708661418,
                    "duration": 0.6928564499999936
                },
                {
                    "name": "A4",
                    "midi": 69,
                    "time": 99.42847200000007,
                    "velocity": 0.48031496062992124,
                    "duration": 1.510712775000016
                },
                {
                    "name": "F#3",
                    "midi": 54,
                    "time": 99.42847200000007,
                    "velocity": 0.4645669291338583,
                    "duration": 1.521427050000014
                },
                {
                    "name": "B3",
                    "midi": 59,
                    "time": 99.42847200000007,
                    "velocity": 0.4409448818897638,
                    "duration": 1.507141350000012
                },
                {
                    "name": "D4",
                    "midi": 62,
                    "time": 99.42847200000007,
                    "velocity": 0.5196850393700787,
                    "duration": 1.4892842250000058
                },
                {
                    "name": "F3",
                    "midi": 53,
                    "time": 101.14275600000009,
                    "velocity": 0.47244094488188976,
                    "duration": 1.4571413999999976
                },
                {
                    "name": "G4",
                    "midi": 67,
                    "time": 101.14275600000009,
                    "velocity": 0.47244094488188976,
                    "duration": 1.4571413999999976
                },
                {
                    "name": "A#3",
                    "midi": 58,
                    "time": 101.14275600000009,
                    "velocity": 0.47244094488188976,
                    "duration": 1.4571413999999976
                },
                {
                    "name": "D4",
                    "midi": 62,
                    "time": 101.14275600000009,
                    "velocity": 0.47244094488188976,
                    "duration": 1.4571413999999976
                },
                {
                    "name": "A3",
                    "midi": 57,
                    "time": 102.85704000000008,
                    "velocity": 0.4881889763779528,
                    "duration": 0.8749991250000022
                },
                {
                    "name": "E4",
                    "midi": 64,
                    "time": 103.07132550000009,
                    "velocity": 0.3700787401574803,
                    "duration": 0.7071421499999957
                },
                {
                    "name": "F#4",
                    "midi": 66,
                    "time": 103.28561100000009,
                    "velocity": 0.4094488188976378,
                    "duration": 0.45714239999999506
                },
                {
                    "name": "C#5",
                    "midi": 73,
                    "time": 103.49989650000009,
                    "velocity": 0.5354330708661418,
                    "duration": 0.29999969999998655
                },
                {
                    "name": "A3",
                    "midi": 57,
                    "time": 103.92846750000008,
                    "velocity": 0.5039370078740157,
                    "duration": 0.1571426999999943
                },
                {
                    "name": "C#5",
                    "midi": 73,
                    "time": 103.92846750000008,
                    "velocity": 0.5354330708661418,
                    "duration": 0.1785712499999903
                },
                {
                    "name": "F#4",
                    "midi": 66,
                    "time": 103.92846750000008,
                    "velocity": 0.5511811023622047,
                    "duration": 0.1571426999999943
                },
                {
                    "name": "E4",
                    "midi": 64,
                    "time": 103.92846750000008,
                    "velocity": 0.4566929133858268,
                    "duration": 0.1785712499999903
                },
                {
                    "name": "A3",
                    "midi": 57,
                    "time": 104.57132400000008,
                    "velocity": 0.5354330708661418,
                    "duration": 0.6928564499999936
                },
                {
                    "name": "C#4",
                    "midi": 61,
                    "time": 104.57132400000008,
                    "velocity": 0.5354330708661418,
                    "duration": 0.6928564499999936
                },
                {
                    "name": "D#4",
                    "midi": 63,
                    "time": 104.57132400000008,
                    "velocity": 0.5354330708661418,
                    "duration": 0.6928564499999936
                },
                {
                    "name": "G#4",
                    "midi": 68,
                    "time": 104.57132400000008,
                    "velocity": 0.5354330708661418,
                    "duration": 0.6928564499999936
                },
                {
                    "name": "A3",
                    "midi": 57,
                    "time": 105.64275150000007,
                    "velocity": 0.5511811023622047,
                    "duration": 0.5035709250000053
                },
                {
                    "name": "C#4",
                    "midi": 61,
                    "time": 105.64275150000007,
                    "velocity": 0.5511811023622047,
                    "duration": 0.5035709250000053
                },
                {
                    "name": "D#4",
                    "midi": 63,
                    "time": 105.64275150000007,
                    "velocity": 0.5511811023622047,
                    "duration": 0.5035709250000053
                },
                {
                    "name": "G4",
                    "midi": 67,
                    "time": 105.64275150000007,
                    "velocity": 0.5511811023622047,
                    "duration": 0.5035709250000053
                },
                {
                    "name": "G#3",
                    "midi": 56,
                    "time": 106.28560800000008,
                    "velocity": 0.4881889763779528,
                    "duration": 0.8749991250000022
                },
                {
                    "name": "D4",
                    "midi": 62,
                    "time": 106.49989350000008,
                    "velocity": 0.3700787401574803,
                    "duration": 0.7071421499999957
                },
                {
                    "name": "E4",
                    "midi": 64,
                    "time": 106.71417900000009,
                    "velocity": 0.4094488188976378,
                    "duration": 0.45714239999999506
                },
                {
                    "name": "B4",
                    "midi": 71,
                    "time": 106.92846450000009,
                    "velocity": 0.5354330708661418,
                    "duration": 0.29999969999998655
                },
                {
                    "name": "G#3",
                    "midi": 56,
                    "time": 107.35703550000008,
                    "velocity": 0.5039370078740157,
                    "duration": 0.1571426999999943
                },
                {
                    "name": "B4",
                    "midi": 71,
                    "time": 107.35703550000008,
                    "velocity": 0.5354330708661418,
                    "duration": 0.1785712499999903
                },
                {
                    "name": "E4",
                    "midi": 64,
                    "time": 107.35703550000008,
                    "velocity": 0.5511811023622047,
                    "duration": 0.1571426999999943
                },
                {
                    "name": "D4",
                    "midi": 62,
                    "time": 107.35703550000008,
                    "velocity": 0.4566929133858268,
                    "duration": 0.1785712499999903
                },
                {
                    "name": "G3",
                    "midi": 55,
                    "time": 107.99989200000007,
                    "velocity": 0.4881889763779528,
                    "duration": 0.8749991250000022
                },
                {
                    "name": "C#4",
                    "midi": 61,
                    "time": 108.21417750000008,
                    "velocity": 0.3700787401574803,
                    "duration": 0.7071421499999957
                },
                {
                    "name": "E4",
                    "midi": 64,
                    "time": 108.42846300000008,
                    "velocity": 0.4094488188976378,
                    "duration": 0.45714239999999506
                },
                {
                    "name": "B4",
                    "midi": 71,
                    "time": 108.64274850000008,
                    "velocity": 0.5354330708661418,
                    "duration": 0.29999969999998655
                },
                {
                    "name": "G3",
                    "midi": 55,
                    "time": 109.07131950000007,
                    "velocity": 0.5039370078740157,
                    "duration": 0.1571426999999943
                },
                {
                    "name": "B4",
                    "midi": 71,
                    "time": 109.07131950000007,
                    "velocity": 0.5354330708661418,
                    "duration": 0.1785712499999903
                },
                {
                    "name": "E4",
                    "midi": 64,
                    "time": 109.07131950000007,
                    "velocity": 0.5511811023622047,
                    "duration": 0.1571426999999943
                },
                {
                    "name": "C#4",
                    "midi": 61,
                    "time": 109.07131950000007,
                    "velocity": 0.4566929133858268,
                    "duration": 0.1785712499999903
                },
                {
                    "name": "E3",
                    "midi": 52,
                    "time": 109.71417600000007,
                    "velocity": 0.5354330708661418,
                    "duration": 0.6928564499999936
                },
                {
                    "name": "G#3",
                    "midi": 56,
                    "time": 109.71417600000007,
                    "velocity": 0.5354330708661418,
                    "duration": 0.6928564499999936
                },
                {
                    "name": "A#3",
                    "midi": 58,
                    "time": 109.71417600000007,
                    "velocity": 0.5354330708661418,
                    "duration": 0.6928564499999936
                },
                {
                    "name": "D#4",
                    "midi": 63,
                    "time": 109.71417600000007,
                    "velocity": 0.5354330708661418,
                    "duration": 0.6928564499999936
                },
                {
                    "name": "E3",
                    "midi": 52,
                    "time": 110.57131800000006,
                    "velocity": 0.5354330708661418,
                    "duration": 0.6928564499999936
                },
                {
                    "name": "G#4",
                    "midi": 68,
                    "time": 110.57131800000006,
                    "velocity": 0.5354330708661418,
                    "duration": 0.6928564499999936
                },
                {
                    "name": "A#3",
                    "midi": 58,
                    "time": 110.57131800000006,
                    "velocity": 0.5354330708661418,
                    "duration": 0.6928564499999936
                },
                {
                    "name": "D4",
                    "midi": 62,
                    "time": 110.57131800000006,
                    "velocity": 0.5354330708661418,
                    "duration": 0.6928564499999936
                },
                {
                    "name": "A3",
                    "midi": 57,
                    "time": 111.42846000000006,
                    "velocity": 0.4881889763779528,
                    "duration": 0.8749991250000022
                },
                {
                    "name": "D#4",
                    "midi": 63,
                    "time": 111.64274550000006,
                    "velocity": 0.3700787401574803,
                    "duration": 0.7071421499999957
                },
                {
                    "name": "F#4",
                    "midi": 66,
                    "time": 111.85703100000006,
                    "velocity": 0.4094488188976378,
                    "duration": 0.45714239999999506
                },
                {
                    "name": "C5",
                    "midi": 72,
                    "time": 112.07131650000007,
                    "velocity": 0.5354330708661418,
                    "duration": 0.29999969999998655
                },
                {
                    "name": "A3",
                    "midi": 57,
                    "time": 112.49988750000006,
                    "velocity": 0.5039370078740157,
                    "duration": 0.1571426999999943
                },
                {
                    "name": "C5",
                    "midi": 72,
                    "time": 112.49988750000006,
                    "velocity": 0.5354330708661418,
                    "duration": 0.1785712499999903
                },
                {
                    "name": "F#4",
                    "midi": 66,
                    "time": 112.49988750000006,
                    "velocity": 0.5511811023622047,
                    "duration": 0.1571426999999943
                },
                {
                    "name": "D#4",
                    "midi": 63,
                    "time": 112.49988750000006,
                    "velocity": 0.4566929133858268,
                    "duration": 0.1785712499999903
                },
                {
                    "name": "D4",
                    "midi": 62,
                    "time": 113.14274400000005,
                    "velocity": 0.47244094488188976,
                    "duration": 1.4571413999999976
                },
                {
                    "name": "F#4",
                    "midi": 66,
                    "time": 113.14274400000005,
                    "velocity": 0.47244094488188976,
                    "duration": 1.4571413999999976
                },
                {
                    "name": "G#3",
                    "midi": 56,
                    "time": 113.14274400000005,
                    "velocity": 0.47244094488188976,
                    "duration": 1.4571413999999976
                },
                {
                    "name": "B4",
                    "midi": 71,
                    "time": 113.14274400000005,
                    "velocity": 0.47244094488188976,
                    "duration": 1.4571413999999976
                },
                {
                    "name": "G3",
                    "midi": 55,
                    "time": 114.85702800000004,
                    "velocity": 0.4881889763779528,
                    "duration": 0.8749991250000022
                },
                {
                    "name": "C#4",
                    "midi": 61,
                    "time": 115.07131350000004,
                    "velocity": 0.3700787401574803,
                    "duration": 0.7071421499999957
                },
                {
                    "name": "E4",
                    "midi": 64,
                    "time": 115.28559900000005,
                    "velocity": 0.4094488188976378,
                    "duration": 0.45714239999999506
                },
                {
                    "name": "B4",
                    "midi": 71,
                    "time": 115.49988450000005,
                    "velocity": 0.5354330708661418,
                    "duration": 0.29999969999998655
                },
                {
                    "name": "G3",
                    "midi": 55,
                    "time": 115.92845550000004,
                    "velocity": 0.5039370078740157,
                    "duration": 0.1571426999999943
                },
                {
                    "name": "B4",
                    "midi": 71,
                    "time": 115.92845550000004,
                    "velocity": 0.5354330708661418,
                    "duration": 0.1785712499999903
                },
                {
                    "name": "E4",
                    "midi": 64,
                    "time": 115.92845550000004,
                    "velocity": 0.5511811023622047,
                    "duration": 0.1571426999999943
                },
                {
                    "name": "C#4",
                    "midi": 61,
                    "time": 115.92845550000004,
                    "velocity": 0.4566929133858268,
                    "duration": 0.1785712499999903
                },
                {
                    "name": "B3",
                    "midi": 59,
                    "time": 116.57131200000003,
                    "velocity": 0.5354330708661418,
                    "duration": 0.6928564499999936
                },
                {
                    "name": "D4",
                    "midi": 62,
                    "time": 116.57131200000003,
                    "velocity": 0.5354330708661418,
                    "duration": 0.6928564499999936
                },
                {
                    "name": "F#3",
                    "midi": 54,
                    "time": 116.57131200000003,
                    "velocity": 0.5354330708661418,
                    "duration": 0.6928564499999936
                },
                {
                    "name": "A4",
                    "midi": 69,
                    "time": 116.57131200000003,
                    "velocity": 0.5354330708661418,
                    "duration": 0.6928564499999936
                },
                {
                    "name": "A#3",
                    "midi": 58,
                    "time": 117.42845400000003,
                    "velocity": 0.5354330708661418,
                    "duration": 0.6928564499999936
                },
                {
                    "name": "C4",
                    "midi": 60,
                    "time": 117.42845400000003,
                    "velocity": 0.5354330708661418,
                    "duration": 0.6928564499999936
                },
                {
                    "name": "E3",
                    "midi": 52,
                    "time": 117.42845400000003,
                    "velocity": 0.5354330708661418,
                    "duration": 0.6928564499999936
                },
                {
                    "name": "G4",
                    "midi": 67,
                    "time": 117.42845400000003,
                    "velocity": 0.5354330708661418,
                    "duration": 0.6928564499999936
                },
                {
                    "name": "A3",
                    "midi": 57,
                    "time": 118.28559600000003,
                    "velocity": 0.4881889763779528,
                    "duration": 0.8749991250000022
                },
                {
                    "name": "D#4",
                    "midi": 63,
                    "time": 118.49988150000003,
                    "velocity": 0.3700787401574803,
                    "duration": 0.7071421499999957
                },
                {
                    "name": "F#4",
                    "midi": 66,
                    "time": 118.71416700000003,
                    "velocity": 0.4094488188976378,
                    "duration": 0.45714239999999506
                },
                {
                    "name": "C5",
                    "midi": 72,
                    "time": 118.92845250000003,
                    "velocity": 0.5354330708661418,
                    "duration": 0.29999969999998655
                },
                {
                    "name": "A3",
                    "midi": 57,
                    "time": 119.35702350000003,
                    "velocity": 0.5039370078740157,
                    "duration": 0.1571426999999943
                },
                {
                    "name": "C5",
                    "midi": 72,
                    "time": 119.35702350000003,
                    "velocity": 0.5354330708661418,
                    "duration": 0.1785712499999903
                },
                {
                    "name": "F#4",
                    "midi": 66,
                    "time": 119.35702350000003,
                    "velocity": 0.5511811023622047,
                    "duration": 0.1571426999999943
                },
                {
                    "name": "D#4",
                    "midi": 63,
                    "time": 119.35702350000003,
                    "velocity": 0.4566929133858268,
                    "duration": 0.1785712499999903
                },
                {
                    "name": "F#5",
                    "midi": 78,
                    "time": 119.99988000000002,
                    "velocity": 0.48031496062992124,
                    "duration": 1.510712775000016
                },
                {
                    "name": "D4",
                    "midi": 62,
                    "time": 119.99988000000002,
                    "velocity": 0.4645669291338583,
                    "duration": 1.521427050000014
                },
                {
                    "name": "G#4",
                    "midi": 68,
                    "time": 119.99988000000002,
                    "velocity": 0.4409448818897638,
                    "duration": 1.507141350000012
                },
                {
                    "name": "B4",
                    "midi": 71,
                    "time": 119.99988000000002,
                    "velocity": 0.5196850393700787,
                    "duration": 1.4892842250000058
                },
                {
                    "name": "G3",
                    "midi": 55,
                    "time": 121.71416400000004,
                    "velocity": 0.4881889763779528,
                    "duration": 0.8749991250000022
                },
                {
                    "name": "C#4",
                    "midi": 61,
                    "time": 121.92844950000004,
                    "velocity": 0.3700787401574803,
                    "duration": 0.7071421499999957
                },
                {
                    "name": "E4",
                    "midi": 64,
                    "time": 122.14273500000004,
                    "velocity": 0.4094488188976378,
                    "duration": 0.45714239999999506
                },
                {
                    "name": "B4",
                    "midi": 71,
                    "time": 122.35702050000005,
                    "velocity": 0.5354330708661418,
                    "duration": 0.29999969999998655
                },
                {
                    "name": "G3",
                    "midi": 55,
                    "time": 122.78559150000004,
                    "velocity": 0.5039370078740157,
                    "duration": 0.1571426999999943
                },
                {
                    "name": "B4",
                    "midi": 71,
                    "time": 122.78559150000004,
                    "velocity": 0.5354330708661418,
                    "duration": 0.1785712499999903
                },
                {
                    "name": "E4",
                    "midi": 64,
                    "time": 122.78559150000004,
                    "velocity": 0.5511811023622047,
                    "duration": 0.1571426999999943
                },
                {
                    "name": "C#4",
                    "midi": 61,
                    "time": 122.78559150000004,
                    "velocity": 0.4566929133858268,
                    "duration": 0.1785712499999903
                },
                {
                    "name": "B3",
                    "midi": 59,
                    "time": 123.42844800000003,
                    "velocity": 0.5354330708661418,
                    "duration": 0.6928564499999936
                },
                {
                    "name": "D4",
                    "midi": 62,
                    "time": 123.42844800000003,
                    "velocity": 0.5354330708661418,
                    "duration": 0.6928564499999936
                },
                {
                    "name": "F#3",
                    "midi": 54,
                    "time": 123.42844800000003,
                    "velocity": 0.5354330708661418,
                    "duration": 0.6928564499999936
                },
                {
                    "name": "A3",
                    "midi": 57,
                    "time": 123.42844800000003,
                    "velocity": 0.5354330708661418,
                    "duration": 0.6928564499999936
                },
                {
                    "name": "A#3",
                    "midi": 58,
                    "time": 124.28559000000003,
                    "velocity": 0.5354330708661418,
                    "duration": 0.6928564499999936
                },
                {
                    "name": "C4",
                    "midi": 60,
                    "time": 124.28559000000003,
                    "velocity": 0.5354330708661418,
                    "duration": 0.6928564499999936
                },
                {
                    "name": "E3",
                    "midi": 52,
                    "time": 124.28559000000003,
                    "velocity": 0.5354330708661418,
                    "duration": 0.6928564499999936
                },
                {
                    "name": "G4",
                    "midi": 67,
                    "time": 124.28559000000003,
                    "velocity": 0.5354330708661418,
                    "duration": 0.6928564499999936
                },
                {
                    "name": "A3",
                    "midi": 57,
                    "time": 125.14273200000002,
                    "velocity": 0.4881889763779528,
                    "duration": 0.8749991250000022
                },
                {
                    "name": "D#4",
                    "midi": 63,
                    "time": 125.35701750000003,
                    "velocity": 0.3700787401574803,
                    "duration": 0.7071421499999957
                },
                {
                    "name": "F#4",
                    "midi": 66,
                    "time": 125.57130300000003,
                    "velocity": 0.4094488188976378,
                    "duration": 0.45714239999999506
                },
                {
                    "name": "C5",
                    "midi": 72,
                    "time": 125.78558850000003,
                    "velocity": 0.5354330708661418,
                    "duration": 0.29999969999998655
                },
                {
                    "name": "A3",
                    "midi": 57,
                    "time": 126.21415950000002,
                    "velocity": 0.5039370078740157,
                    "duration": 0.1571426999999943
                },
                {
                    "name": "C5",
                    "midi": 72,
                    "time": 126.21415950000002,
                    "velocity": 0.5354330708661418,
                    "duration": 0.1785712499999903
                },
                {
                    "name": "F#4",
                    "midi": 66,
                    "time": 126.21415950000002,
                    "velocity": 0.5511811023622047,
                    "duration": 0.1571426999999943
                },
                {
                    "name": "D#4",
                    "midi": 63,
                    "time": 126.21415950000002,
                    "velocity": 0.4566929133858268,
                    "duration": 0.1785712499999903
                },
                {
                    "name": "D4",
                    "midi": 62,
                    "time": 126.85701600000002,
                    "velocity": 0.47244094488188976,
                    "duration": 1.4571414000000118
                },
                {
                    "name": "F#4",
                    "midi": 66,
                    "time": 126.85701600000002,
                    "velocity": 0.47244094488188976,
                    "duration": 1.4571414000000118
                },
                {
                    "name": "G#3",
                    "midi": 56,
                    "time": 126.85701600000002,
                    "velocity": 0.47244094488188976,
                    "duration": 1.4571414000000118
                },
                {
                    "name": "B4",
                    "midi": 71,
                    "time": 126.85701600000002,
                    "velocity": 0.47244094488188976,
                    "duration": 1.4571414000000118
                },
                {
                    "name": "G3",
                    "midi": 55,
                    "time": 128.57130000000004,
                    "velocity": 0.4881889763779528,
                    "duration": 0.8749991249999596
                },
                {
                    "name": "C#4",
                    "midi": 61,
                    "time": 128.78558550000002,
                    "velocity": 0.3700787401574803,
                    "duration": 0.7071421499999815
                },
                {
                    "name": "E4",
                    "midi": 64,
                    "time": 128.999871,
                    "velocity": 0.4094488188976378,
                    "duration": 0.45714239999998085
                },
                {
                    "name": "B4",
                    "midi": 71,
                    "time": 129.2141565,
                    "velocity": 0.5354330708661418,
                    "duration": 0.29999970000000076
                },
                {
                    "name": "G3",
                    "midi": 55,
                    "time": 129.6427275,
                    "velocity": 0.5039370078740157,
                    "duration": 0.15714270000000852
                },
                {
                    "name": "B4",
                    "midi": 71,
                    "time": 129.6427275,
                    "velocity": 0.5354330708661418,
                    "duration": 0.1785712500000045
                },
                {
                    "name": "E4",
                    "midi": 64,
                    "time": 129.6427275,
                    "velocity": 0.5511811023622047,
                    "duration": 0.15714270000000852
                },
                {
                    "name": "C#4",
                    "midi": 61,
                    "time": 129.6427275,
                    "velocity": 0.4566929133858268,
                    "duration": 0.1785712500000045
                },
                {
                    "name": "D5",
                    "midi": 74,
                    "time": 130.285584,
                    "velocity": 0.48031496062992124,
                    "duration": 1.5107127750000018
                },
                {
                    "name": "B3",
                    "midi": 59,
                    "time": 130.285584,
                    "velocity": 0.4645669291338583,
                    "duration": 1.5214270499999998
                },
                {
                    "name": "F#4",
                    "midi": 66,
                    "time": 130.285584,
                    "velocity": 0.4409448818897638,
                    "duration": 1.507141350000012
                },
                {
                    "name": "A4",
                    "midi": 69,
                    "time": 130.285584,
                    "velocity": 0.5196850393700787,
                    "duration": 1.4892842250000058
                },
                {
                    "name": "B3",
                    "midi": 59,
                    "time": 131.999868,
                    "velocity": 0.4881889763779528,
                    "duration": 0.8749991249999596
                },
                {
                    "name": "F#4",
                    "midi": 66,
                    "time": 132.21415349999998,
                    "velocity": 0.3700787401574803,
                    "duration": 0.7071421499999815
                },
                {
                    "name": "A4",
                    "midi": 69,
                    "time": 132.42843899999997,
                    "velocity": 0.4094488188976378,
                    "duration": 0.45714239999998085
                },
                {
                    "name": "D5",
                    "midi": 74,
                    "time": 132.64272449999996,
                    "velocity": 0.5354330708661418,
                    "duration": 0.29999970000000076
                },
                {
                    "name": "B3",
                    "midi": 59,
                    "time": 133.07129549999996,
                    "velocity": 0.5039370078740157,
                    "duration": 0.15714270000000852
                },
                {
                    "name": "D5",
                    "midi": 74,
                    "time": 133.07129549999996,
                    "velocity": 0.5354330708661418,
                    "duration": 0.1785712500000045
                },
                {
                    "name": "A4",
                    "midi": 69,
                    "time": 133.07129549999996,
                    "velocity": 0.5511811023622047,
                    "duration": 0.15714270000000852
                },
                {
                    "name": "F#4",
                    "midi": 66,
                    "time": 133.07129549999996,
                    "velocity": 0.4566929133858268,
                    "duration": 0.1785712500000045
                }
            ],
            "controlChanges": {
                "7": [
                    {
                        "number": 7,
                        "time": 0,
                        "value": 0.7480314960629921
                    }
                ],
                "10": [
                    {
                        "number": 10,
                        "time": 0,
                        "value": 0.5039370078740157
                    }
                ],
                "64": [
                    {
                        "number": 64,
                        "time": 0,
                        "value": 0
                    },
                    {
                        "number": 64,
                        "time": 133.71415199999996,
                        "value": 0
                    }
                ],
                "121": [
                    {
                        "number": 121,
                        "time": 0,
                        "value": 0
                    }
                ],
                "123": [
                    {
                        "number": 123,
                        "time": 0,
                        "value": 0
                    }
                ]
            },
            "id": 5,
            "name": "Piano   ",
            "instrumentNumber": 4,
            "instrument": "electric piano 1",
            "instrumentFamily": "piano",
            "channelNumber": 2,
            "isPercussion": false
        },
        {
            "startTime": 3.4285680000000003,
            "duration": 131.89272524999916,
            "length": 216,
            "notes": [
                {
                    "name": "F6",
                    "midi": 89,
                    "time": 3.4285680000000003,
                    "velocity": 0.9448818897637795,
                    "duration": 0.7499992500000001
                },
                {
                    "name": "A5",
                    "midi": 81,
                    "time": 4.285710000000001,
                    "velocity": 0.9448818897637795,
                    "duration": 0.7499992500000001
                },
                {
                    "name": "D6",
                    "midi": 86,
                    "time": 5.142852000000001,
                    "velocity": 0.9448818897637795,
                    "duration": 1.0642846500000003
                },
                {
                    "name": "F6",
                    "midi": 89,
                    "time": 6.214279500000002,
                    "velocity": 0.9448818897637795,
                    "duration": 0.35714250000000014
                },
                {
                    "name": "E6",
                    "midi": 88,
                    "time": 6.6428505000000015,
                    "velocity": 0.9448818897637795,
                    "duration": 0.96428475
                },
                {
                    "name": "B5",
                    "midi": 83,
                    "time": 7.714278000000002,
                    "velocity": 0.9448818897637795,
                    "duration": 0.7499992500000001
                },
                {
                    "name": "D6",
                    "midi": 86,
                    "time": 8.571420000000002,
                    "velocity": 0.9448818897637795,
                    "duration": 1.0642846499999994
                },
                {
                    "name": "E6",
                    "midi": 88,
                    "time": 9.6428475,
                    "velocity": 0.9448818897637795,
                    "duration": 0.35714250000000014
                },
                {
                    "name": "F6",
                    "midi": 89,
                    "time": 10.0714185,
                    "velocity": 0.9448818897637795,
                    "duration": 0.9642847500000009
                },
                {
                    "name": "A#5",
                    "midi": 82,
                    "time": 11.142846,
                    "velocity": 0.9448818897637795,
                    "duration": 0.7499992500000001
                },
                {
                    "name": "C#6",
                    "midi": 85,
                    "time": 11.999988,
                    "velocity": 0.9448818897637795,
                    "duration": 0.7499992500000001
                },
                {
                    "name": "F6",
                    "midi": 89,
                    "time": 13.0714155,
                    "velocity": 0.9448818897637795,
                    "duration": 0.35714250000000014
                },
                {
                    "name": "E6",
                    "midi": 88,
                    "time": 13.4999865,
                    "velocity": 0.9448818897637795,
                    "duration": 0.42142815000000056
                },
                {
                    "name": "D6",
                    "midi": 86,
                    "time": 13.9285575,
                    "velocity": 0.9448818897637795,
                    "duration": 0.35714250000000014
                },
                {
                    "name": "F6",
                    "midi": 89,
                    "time": 14.3571285,
                    "velocity": 0.9448818897637795,
                    "duration": 0.49285665000000023
                },
                {
                    "name": "E6",
                    "midi": 88,
                    "time": 14.857128,
                    "velocity": 0.9448818897637795,
                    "duration": 0.27857114999999943
                },
                {
                    "name": "D6",
                    "midi": 86,
                    "time": 15.142841999999998,
                    "velocity": 0.9448818897637795,
                    "duration": 0.27857114999999943
                },
                {
                    "name": "A5",
                    "midi": 81,
                    "time": 15.428555999999997,
                    "velocity": 0.9448818897637795,
                    "duration": 1.6071412500000015
                },
                {
                    "name": "F6",
                    "midi": 89,
                    "time": 17.14284,
                    "velocity": 0.9448818897637795,
                    "duration": 0.7499992500000019
                },
                {
                    "name": "A5",
                    "midi": 81,
                    "time": 17.999982000000003,
                    "velocity": 0.9448818897637795,
                    "duration": 0.7499992500000019
                },
                {
                    "name": "B5",
                    "midi": 83,
                    "time": 18.857124000000006,
                    "velocity": 0.9448818897637795,
                    "duration": 1.0642846500000012
                },
                {
                    "name": "D6",
                    "midi": 86,
                    "time": 19.928551500000008,
                    "velocity": 0.9448818897637795,
                    "duration": 0.35714249999999836
                },
                {
                    "name": "C6",
                    "midi": 84,
                    "time": 20.357122500000006,
                    "velocity": 0.9448818897637795,
                    "duration": 0.7857135
                },
                {
                    "name": "E6",
                    "midi": 88,
                    "time": 21.214264500000006,
                    "velocity": 0.9448818897637795,
                    "duration": 0.9642847500000009
                },
                {
                    "name": "E6",
                    "midi": 88,
                    "time": 22.714263000000006,
                    "velocity": 0.9448818897637795,
                    "duration": 0.20714265000000154
                },
                {
                    "name": "D6",
                    "midi": 86,
                    "time": 22.92854850000001,
                    "velocity": 0.9448818897637795,
                    "duration": 0.42142815000000056
                },
                {
                    "name": "C6",
                    "midi": 84,
                    "time": 23.35711950000001,
                    "velocity": 0.9448818897637795,
                    "duration": 0.35714249999999836
                },
                {
                    "name": "C6",
                    "midi": 84,
                    "time": 23.78569050000001,
                    "velocity": 0.9448818897637795,
                    "duration": 0.7857135
                },
                {
                    "name": "A#5",
                    "midi": 82,
                    "time": 24.642832500000008,
                    "velocity": 0.9448818897637795,
                    "duration": 0.9642847500000009
                },
                {
                    "name": "F6",
                    "midi": 89,
                    "time": 26.142831000000008,
                    "velocity": 0.9448818897637795,
                    "duration": 0.20714265000000154
                },
                {
                    "name": "E6",
                    "midi": 88,
                    "time": 26.35711650000001,
                    "velocity": 0.9448818897637795,
                    "duration": 0.42142815000000056
                },
                {
                    "name": "D6",
                    "midi": 86,
                    "time": 26.785687500000012,
                    "velocity": 0.9448818897637795,
                    "duration": 0.35714249999999836
                },
                {
                    "name": "D6",
                    "midi": 86,
                    "time": 27.21425850000001,
                    "velocity": 0.9448818897637795,
                    "duration": 0.42142815000000056
                },
                {
                    "name": "C#6",
                    "midi": 85,
                    "time": 27.642829500000012,
                    "velocity": 0.9448818897637795,
                    "duration": 0.35714249999999836
                },
                {
                    "name": "E6",
                    "midi": 88,
                    "time": 28.07140050000001,
                    "velocity": 0.9448818897637795,
                    "duration": 0.35714249999999836
                },
                {
                    "name": "C#6",
                    "midi": 85,
                    "time": 28.499971500000008,
                    "velocity": 0.9448818897637795,
                    "duration": 0.35714249999999836
                },
                {
                    "name": "A#5",
                    "midi": 82,
                    "time": 28.928542500000006,
                    "velocity": 0.9448818897637795,
                    "duration": 1.8214267500000005
                },
                {
                    "name": "F6",
                    "midi": 89,
                    "time": 30.857112000000008,
                    "velocity": 0.9448818897637795,
                    "duration": 0.7499992500000019
                },
                {
                    "name": "A5",
                    "midi": 81,
                    "time": 31.71425400000001,
                    "velocity": 0.9448818897637795,
                    "duration": 0.7499992500000019
                },
                {
                    "name": "D6",
                    "midi": 86,
                    "time": 32.571396000000014,
                    "velocity": 0.9448818897637795,
                    "duration": 1.0642846499999976
                },
                {
                    "name": "F6",
                    "midi": 89,
                    "time": 33.64282350000001,
                    "velocity": 0.9448818897637795,
                    "duration": 0.3571425000000019
                },
                {
                    "name": "E6",
                    "midi": 88,
                    "time": 34.07139450000002,
                    "velocity": 0.9448818897637795,
                    "duration": 0.9642847499999974
                },
                {
                    "name": "B5",
                    "midi": 83,
                    "time": 35.14282200000002,
                    "velocity": 0.9448818897637795,
                    "duration": 0.7499992500000019
                },
                {
                    "name": "D6",
                    "midi": 86,
                    "time": 35.99996400000002,
                    "velocity": 0.9448818897637795,
                    "duration": 1.0642846499999976
                },
                {
                    "name": "E6",
                    "midi": 88,
                    "time": 37.07139150000002,
                    "velocity": 0.9448818897637795,
                    "duration": 0.3571425000000019
                },
                {
                    "name": "F6",
                    "midi": 89,
                    "time": 37.499962500000024,
                    "velocity": 0.9448818897637795,
                    "duration": 0.9642847499999974
                },
                {
                    "name": "A#5",
                    "midi": 82,
                    "time": 38.57139000000002,
                    "velocity": 0.9448818897637795,
                    "duration": 0.7499992500000019
                },
                {
                    "name": "C#6",
                    "midi": 85,
                    "time": 39.428532000000025,
                    "velocity": 0.9448818897637795,
                    "duration": 0.7499992500000019
                },
                {
                    "name": "F6",
                    "midi": 89,
                    "time": 40.499959500000024,
                    "velocity": 0.9448818897637795,
                    "duration": 0.3571425000000019
                },
                {
                    "name": "E6",
                    "midi": 88,
                    "time": 40.92853050000003,
                    "velocity": 0.9448818897637795,
                    "duration": 0.421428149999997
                },
                {
                    "name": "D6",
                    "midi": 86,
                    "time": 41.35710150000003,
                    "velocity": 0.9448818897637795,
                    "duration": 0.3571425000000019
                },
                {
                    "name": "C#6",
                    "midi": 85,
                    "time": 41.78567250000003,
                    "velocity": 0.9448818897637795,
                    "duration": 0.20714265000000154
                },
                {
                    "name": "D6",
                    "midi": 86,
                    "time": 41.999958000000035,
                    "velocity": 0.9448818897637795,
                    "duration": 0.3571425000000019
                },
                {
                    "name": "D#6",
                    "midi": 87,
                    "time": 42.42852900000004,
                    "velocity": 0.9448818897637795,
                    "duration": 0.7857135
                },
                {
                    "name": "C6",
                    "midi": 84,
                    "time": 43.28567100000004,
                    "velocity": 0.9448818897637795,
                    "duration": 0.20714265000000154
                },
                {
                    "name": "F#6",
                    "midi": 90,
                    "time": 43.499956500000046,
                    "velocity": 0.9448818897637795,
                    "duration": 0.421428149999997
                },
                {
                    "name": "A6",
                    "midi": 93,
                    "time": 43.928527500000044,
                    "velocity": 0.9448818897637795,
                    "duration": 0.3571425000000019
                },
                {
                    "name": "G6",
                    "midi": 91,
                    "time": 44.35709850000005,
                    "velocity": 0.9448818897637795,
                    "duration": 0.7857135
                },
                {
                    "name": "A#6",
                    "midi": 94,
                    "time": 45.21424050000005,
                    "velocity": 0.9448818897637795,
                    "duration": 0.7857135
                },
                {
                    "name": "C#6",
                    "midi": 85,
                    "time": 46.071382500000055,
                    "velocity": 0.9448818897637795,
                    "duration": 1.2785701500000002
                },
                {
                    "name": "A6",
                    "midi": 93,
                    "time": 47.35709550000006,
                    "velocity": 0.9448818897637795,
                    "duration": 0.3571425000000019
                },
                {
                    "name": "G6",
                    "midi": 91,
                    "time": 47.78566650000006,
                    "velocity": 0.9448818897637795,
                    "duration": 0.421428149999997
                },
                {
                    "name": "F6",
                    "midi": 89,
                    "time": 48.21423750000006,
                    "velocity": 0.9448818897637795,
                    "duration": 0.3571425000000019
                },
                {
                    "name": "A6",
                    "midi": 93,
                    "time": 48.642808500000065,
                    "velocity": 0.9448818897637795,
                    "duration": 0.3571425000000019
                },
                {
                    "name": "F6",
                    "midi": 89,
                    "time": 49.07137950000007,
                    "velocity": 0.9448818897637795,
                    "duration": 0.3571425000000019
                },
                {
                    "name": "D6",
                    "midi": 86,
                    "time": 49.499950500000075,
                    "velocity": 0.9448818897637795,
                    "duration": 0.20714265000000154
                },
                {
                    "name": "E6",
                    "midi": 88,
                    "time": 49.71423600000008,
                    "velocity": 0.9448818897637795,
                    "duration": 0.20714265000000154
                },
                {
                    "name": "C6",
                    "midi": 84,
                    "time": 49.92852150000008,
                    "velocity": 0.9448818897637795,
                    "duration": 0.3571425000000019
                },
                {
                    "name": "A5",
                    "midi": 81,
                    "time": 50.357092500000086,
                    "velocity": 0.9448818897637795,
                    "duration": 0.3571425000000019
                },
                {
                    "name": "E6",
                    "midi": 88,
                    "time": 50.78566350000009,
                    "velocity": 0.9448818897637795,
                    "duration": 0.3571425000000019
                },
                {
                    "name": "F6",
                    "midi": 89,
                    "time": 51.214234500000096,
                    "velocity": 0.9448818897637795,
                    "duration": 0.421428149999997
                },
                {
                    "name": "D6",
                    "midi": 86,
                    "time": 51.642805500000094,
                    "velocity": 0.9448818897637795,
                    "duration": 0.3571425000000019
                },
                {
                    "name": "B5",
                    "midi": 83,
                    "time": 52.0713765000001,
                    "velocity": 0.9448818897637795,
                    "duration": 0.3571425000000019
                },
                {
                    "name": "E6",
                    "midi": 88,
                    "time": 52.499947500000104,
                    "velocity": 0.9448818897637795,
                    "duration": 0.3571425000000019
                },
                {
                    "name": "F6",
                    "midi": 89,
                    "time": 52.92851850000011,
                    "velocity": 0.9448818897637795,
                    "duration": 0.421428149999997
                },
                {
                    "name": "C#6",
                    "midi": 85,
                    "time": 53.35708950000011,
                    "velocity": 0.9448818897637795,
                    "duration": 0.3571425000000019
                },
                {
                    "name": "A#5",
                    "midi": 82,
                    "time": 53.78566050000011,
                    "velocity": 0.9448818897637795,
                    "duration": 0.3571425000000019
                },
                {
                    "name": "F6",
                    "midi": 89,
                    "time": 54.21423150000012,
                    "velocity": 0.9448818897637795,
                    "duration": 0.3571425000000019
                },
                {
                    "name": "D6",
                    "midi": 86,
                    "time": 54.64280250000012,
                    "velocity": 0.9448818897637795,
                    "duration": 1.8214267500000005
                },
                {
                    "name": "F#6",
                    "midi": 90,
                    "time": 58.285656000000124,
                    "velocity": 0.9448818897637795,
                    "duration": 1.607141249999998
                },
                {
                    "name": "A6",
                    "midi": 93,
                    "time": 59.99994000000012,
                    "velocity": 0.9448818897637795,
                    "duration": 0.5714279999999974
                },
                {
                    "name": "G6",
                    "midi": 91,
                    "time": 60.642796500000124,
                    "velocity": 0.9448818897637795,
                    "duration": 0.421428149999997
                },
                {
                    "name": "D#6",
                    "midi": 87,
                    "time": 61.07136750000012,
                    "velocity": 0.9448818897637795,
                    "duration": 0.3571425000000019
                },
                {
                    "name": "F#6",
                    "midi": 90,
                    "time": 61.49993850000013,
                    "velocity": 0.9448818897637795,
                    "duration": 0.9642847499999974
                },
                {
                    "name": "E6",
                    "midi": 88,
                    "time": 62.571366000000125,
                    "velocity": 0.9448818897637795,
                    "duration": 0.20714265000000154
                },
                {
                    "name": "D#6",
                    "midi": 87,
                    "time": 62.78565150000013,
                    "velocity": 0.9448818897637795,
                    "duration": 0.3571425000000019
                },
                {
                    "name": "E6",
                    "midi": 88,
                    "time": 63.21422250000013,
                    "velocity": 0.9448818897637795,
                    "duration": 0.20714265000000154
                },
                {
                    "name": "B6",
                    "midi": 95,
                    "time": 63.428508000000136,
                    "velocity": 0.9448818897637795,
                    "duration": 0.3571425000000019
                },
                {
                    "name": "G6",
                    "midi": 91,
                    "time": 63.85707900000014,
                    "velocity": 0.9448818897637795,
                    "duration": 0.20714264999999443
                },
                {
                    "name": "E6",
                    "midi": 88,
                    "time": 64.07136450000013,
                    "velocity": 0.9448818897637795,
                    "duration": 0.421428149999997
                },
                {
                    "name": "B5",
                    "midi": 83,
                    "time": 64.49993550000012,
                    "velocity": 0.9448818897637795,
                    "duration": 0.3571424999999948
                },
                {
                    "name": "D6",
                    "midi": 86,
                    "time": 64.92850650000011,
                    "velocity": 0.9448818897637795,
                    "duration": 0.7857135
                },
                {
                    "name": "C#6",
                    "midi": 85,
                    "time": 65.78564850000011,
                    "velocity": 0.9448818897637795,
                    "duration": 0.9642847500000045
                },
                {
                    "name": "E6",
                    "midi": 88,
                    "time": 67.28564700000011,
                    "velocity": 0.9448818897637795,
                    "duration": 0.20714264999999443
                },
                {
                    "name": "C#6",
                    "midi": 85,
                    "time": 67.4999325000001,
                    "velocity": 0.9448818897637795,
                    "duration": 0.421428149999997
                },
                {
                    "name": "A5",
                    "midi": 81,
                    "time": 67.92850350000009,
                    "velocity": 0.9448818897637795,
                    "duration": 0.3571424999999948
                },
                {
                    "name": "B5",
                    "midi": 83,
                    "time": 68.35707450000008,
                    "velocity": 0.9448818897637795,
                    "duration": 1.7071411499999982
                },
                {
                    "name": "A5",
                    "midi": 81,
                    "time": 70.07135850000007,
                    "velocity": 0.9448818897637795,
                    "duration": 0.9642847500000045
                },
                {
                    "name": "C#6",
                    "midi": 85,
                    "time": 71.35707150000007,
                    "velocity": 0.9448818897637795,
                    "duration": 0.3571424999999948
                },
                {
                    "name": "E6",
                    "midi": 88,
                    "time": 71.78564250000007,
                    "velocity": 0.9448818897637795,
                    "duration": 0.421428149999997
                },
                {
                    "name": "D6",
                    "midi": 86,
                    "time": 72.21421350000006,
                    "velocity": 0.9448818897637795,
                    "duration": 0.3571424999999948
                },
                {
                    "name": "C#6",
                    "midi": 85,
                    "time": 72.64278450000005,
                    "velocity": 0.9448818897637795,
                    "duration": 0.3571424999999948
                },
                {
                    "name": "D6",
                    "midi": 86,
                    "time": 73.07135550000004,
                    "velocity": 0.9448818897637795,
                    "duration": 0.3571424999999948
                },
                {
                    "name": "F6",
                    "midi": 89,
                    "time": 73.49992650000003,
                    "velocity": 0.9448818897637795,
                    "duration": 0.421428149999997
                },
                {
                    "name": "G#6",
                    "midi": 92,
                    "time": 73.92849750000002,
                    "velocity": 0.9448818897637795,
                    "duration": 0.3571424999999948
                },
                {
                    "name": "C#7",
                    "midi": 97,
                    "time": 74.35706850000001,
                    "velocity": 0.9448818897637795,
                    "duration": 0.3571424999999948
                },
                {
                    "name": "B6",
                    "midi": 95,
                    "time": 74.7856395,
                    "velocity": 0.9448818897637795,
                    "duration": 0.3571424999999948
                },
                {
                    "name": "A6",
                    "midi": 93,
                    "time": 75.2142105,
                    "velocity": 0.9448818897637795,
                    "duration": 0.421428149999997
                },
                {
                    "name": "G6",
                    "midi": 91,
                    "time": 75.64278149999998,
                    "velocity": 0.9448818897637795,
                    "duration": 0.3571424999999948
                },
                {
                    "name": "B5",
                    "midi": 83,
                    "time": 76.07135249999997,
                    "velocity": 0.9448818897637795,
                    "duration": 0.9642847500000045
                },
                {
                    "name": "B5",
                    "midi": 83,
                    "time": 77.57135099999998,
                    "velocity": 0.9448818897637795,
                    "duration": 0.20714264999999443
                },
                {
                    "name": "C#6",
                    "midi": 85,
                    "time": 77.78563649999997,
                    "velocity": 0.9448818897637795,
                    "duration": 0.421428149999997
                },
                {
                    "name": "D6",
                    "midi": 86,
                    "time": 78.21420749999996,
                    "velocity": 0.9448818897637795,
                    "duration": 0.3571424999999948
                },
                {
                    "name": "F#6",
                    "midi": 90,
                    "time": 78.64277849999995,
                    "velocity": 0.9448818897637795,
                    "duration": 0.421428149999997
                },
                {
                    "name": "E6",
                    "midi": 88,
                    "time": 79.07134949999994,
                    "velocity": 0.9448818897637795,
                    "duration": 0.3571424999999948
                },
                {
                    "name": "D6",
                    "midi": 86,
                    "time": 79.49992049999993,
                    "velocity": 0.9448818897637795,
                    "duration": 0.3571424999999948
                },
                {
                    "name": "B5",
                    "midi": 83,
                    "time": 79.92849149999992,
                    "velocity": 0.9448818897637795,
                    "duration": 0.3571424999999948
                },
                {
                    "name": "G#5",
                    "midi": 80,
                    "time": 80.35706249999991,
                    "velocity": 0.9448818897637795,
                    "duration": 0.5714279999999974
                },
                {
                    "name": "B5",
                    "midi": 83,
                    "time": 80.9999189999999,
                    "velocity": 0.9448818897637795,
                    "duration": 0.20714264999999443
                },
                {
                    "name": "C#6",
                    "midi": 85,
                    "time": 81.2142044999999,
                    "velocity": 0.9448818897637795,
                    "duration": 0.421428149999997
                },
                {
                    "name": "E6",
                    "midi": 88,
                    "time": 81.64277549999989,
                    "velocity": 0.9448818897637795,
                    "duration": 0.3571424999999948
                },
                {
                    "name": "D6",
                    "midi": 86,
                    "time": 82.07134649999988,
                    "velocity": 0.9448818897637795,
                    "duration": 1.8214267500000005
                },
                {
                    "name": "C#6",
                    "midi": 85,
                    "time": 83.99991599999987,
                    "velocity": 0.9448818897637795,
                    "duration": 1.607141249999998
                },
                {
                    "name": "F#6",
                    "midi": 90,
                    "time": 85.71419999999986,
                    "velocity": 0.9448818897637795,
                    "duration": 0.7499992500000019
                },
                {
                    "name": "A5",
                    "midi": 81,
                    "time": 86.57134199999986,
                    "velocity": 0.9448818897637795,
                    "duration": 0.7499992500000019
                },
                {
                    "name": "B5",
                    "midi": 83,
                    "time": 87.42848399999986,
                    "velocity": 0.9448818897637795,
                    "duration": 1.0642846500000047
                },
                {
                    "name": "F#6",
                    "midi": 90,
                    "time": 88.49991149999985,
                    "velocity": 0.9448818897637795,
                    "duration": 0.3571424999999948
                },
                {
                    "name": "E6",
                    "midi": 88,
                    "time": 88.92848249999984,
                    "velocity": 0.9448818897637795,
                    "duration": 0.9642847500000045
                },
                {
                    "name": "B5",
                    "midi": 83,
                    "time": 89.99990999999984,
                    "velocity": 0.9448818897637795,
                    "duration": 0.7499992500000019
                },
                {
                    "name": "D6",
                    "midi": 86,
                    "time": 90.85705199999984,
                    "velocity": 0.9448818897637795,
                    "duration": 1.0642846500000047
                },
                {
                    "name": "E6",
                    "midi": 88,
                    "time": 91.92847949999984,
                    "velocity": 0.9448818897637795,
                    "duration": 0.3571424999999948
                },
                {
                    "name": "F#6",
                    "midi": 90,
                    "time": 92.35705049999983,
                    "velocity": 0.9448818897637795,
                    "duration": 0.9642847500000045
                },
                {
                    "name": "A#5",
                    "midi": 82,
                    "time": 93.42847799999983,
                    "velocity": 0.9448818897637795,
                    "duration": 0.7499992500000019
                },
                {
                    "name": "C#6",
                    "midi": 85,
                    "time": 94.28561999999982,
                    "velocity": 0.9448818897637795,
                    "duration": 0.7499992500000019
                },
                {
                    "name": "F#6",
                    "midi": 90,
                    "time": 95.35704749999982,
                    "velocity": 0.9448818897637795,
                    "duration": 0.3571424999999948
                },
                {
                    "name": "E6",
                    "midi": 88,
                    "time": 95.78561849999981,
                    "velocity": 0.9448818897637795,
                    "duration": 0.421428149999997
                },
                {
                    "name": "D6",
                    "midi": 86,
                    "time": 96.2141894999998,
                    "velocity": 0.9448818897637795,
                    "duration": 0.3571424999999948
                },
                {
                    "name": "C#6",
                    "midi": 85,
                    "time": 96.6427604999998,
                    "velocity": 0.9448818897637795,
                    "duration": 0.3571424999999948
                },
                {
                    "name": "D6",
                    "midi": 86,
                    "time": 97.07133149999979,
                    "velocity": 0.9448818897637795,
                    "duration": 0.3571424999999948
                },
                {
                    "name": "E6",
                    "midi": 88,
                    "time": 97.49990249999978,
                    "velocity": 0.9448818897637795,
                    "duration": 0.421428149999997
                },
                {
                    "name": "D6",
                    "midi": 86,
                    "time": 97.92847349999977,
                    "velocity": 0.9448818897637795,
                    "duration": 0.3571424999999948
                },
                {
                    "name": "F#6",
                    "midi": 90,
                    "time": 98.35704449999976,
                    "velocity": 0.9448818897637795,
                    "duration": 0.421428149999997
                },
                {
                    "name": "B6",
                    "midi": 95,
                    "time": 98.78561549999975,
                    "velocity": 0.9448818897637795,
                    "duration": 0.3571424999999948
                },
                {
                    "name": "A6",
                    "midi": 93,
                    "time": 99.21418649999974,
                    "velocity": 0.9448818897637795,
                    "duration": 0.421428149999997
                },
                {
                    "name": "F#6",
                    "midi": 90,
                    "time": 99.64275749999973,
                    "velocity": 0.9448818897637795,
                    "duration": 0.3571424999999948
                },
                {
                    "name": "D6",
                    "midi": 86,
                    "time": 100.07132849999972,
                    "velocity": 0.9448818897637795,
                    "duration": 0.3571424999999948
                },
                {
                    "name": "B5",
                    "midi": 83,
                    "time": 100.49989949999971,
                    "velocity": 0.9448818897637795,
                    "duration": 0.3571424999999948
                },
                {
                    "name": "A6",
                    "midi": 93,
                    "time": 100.9284704999997,
                    "velocity": 0.9448818897637795,
                    "duration": 0.421428149999997
                },
                {
                    "name": "F6",
                    "midi": 89,
                    "time": 101.3570414999997,
                    "velocity": 0.9448818897637795,
                    "duration": 0.3571424999999948
                },
                {
                    "name": "D6",
                    "midi": 86,
                    "time": 101.78561249999969,
                    "velocity": 0.9448818897637795,
                    "duration": 0.3571424999999948
                },
                {
                    "name": "A#5",
                    "midi": 82,
                    "time": 102.21418349999968,
                    "velocity": 0.9448818897637795,
                    "duration": 0.3571424999999948
                },
                {
                    "name": "A6",
                    "midi": 93,
                    "time": 102.64275449999967,
                    "velocity": 0.9448818897637795,
                    "duration": 0.421428149999997
                },
                {
                    "name": "E6",
                    "midi": 88,
                    "time": 103.07132549999966,
                    "velocity": 0.9448818897637795,
                    "duration": 0.3571424999999948
                },
                {
                    "name": "C#6",
                    "midi": 85,
                    "time": 103.49989649999965,
                    "velocity": 0.9448818897637795,
                    "duration": 0.5714279999999974
                },
                {
                    "name": "A5",
                    "midi": 81,
                    "time": 104.14275299999964,
                    "velocity": 0.9448818897637795,
                    "duration": 0.3571424999999948
                },
                {
                    "name": "G#6",
                    "midi": 92,
                    "time": 104.57132399999963,
                    "velocity": 0.9448818897637795,
                    "duration": 0.3571424999999948
                },
                {
                    "name": "B6",
                    "midi": 95,
                    "time": 104.99989499999963,
                    "velocity": 0.9448818897637795,
                    "duration": 0.20714264999999443
                },
                {
                    "name": "G6",
                    "midi": 91,
                    "time": 105.21418049999961,
                    "velocity": 0.9448818897637795,
                    "duration": 0.421428149999997
                },
                {
                    "name": "B6",
                    "midi": 95,
                    "time": 105.6427514999996,
                    "velocity": 0.9448818897637795,
                    "duration": 0.3571424999999948
                },
                {
                    "name": "F#6",
                    "midi": 90,
                    "time": 106.0713224999996,
                    "velocity": 0.9448818897637795,
                    "duration": 0.421428149999997
                },
                {
                    "name": "D6",
                    "midi": 86,
                    "time": 106.49989349999959,
                    "velocity": 0.9448818897637795,
                    "duration": 0.3571424999999948
                },
                {
                    "name": "B5",
                    "midi": 83,
                    "time": 106.92846449999958,
                    "velocity": 0.9448818897637795,
                    "duration": 0.20714264999999443
                },
                {
                    "name": "D6",
                    "midi": 86,
                    "time": 107.14274999999957,
                    "velocity": 0.9448818897637795,
                    "duration": 0.3571424999999948
                },
                {
                    "name": "F#6",
                    "midi": 90,
                    "time": 107.57132099999956,
                    "velocity": 0.9448818897637795,
                    "duration": 0.7857135
                },
                {
                    "name": "D6",
                    "midi": 86,
                    "time": 108.42846299999955,
                    "velocity": 0.9448818897637795,
                    "duration": 0.20714264999999443
                },
                {
                    "name": "B5",
                    "midi": 83,
                    "time": 108.64274849999954,
                    "velocity": 0.9448818897637795,
                    "duration": 0.421428149999997
                },
                {
                    "name": "D6",
                    "midi": 86,
                    "time": 109.07131949999953,
                    "velocity": 0.9448818897637795,
                    "duration": 0.3571424999999948
                },
                {
                    "name": "F#6",
                    "midi": 90,
                    "time": 109.49989049999952,
                    "velocity": 0.9448818897637795,
                    "duration": 0.9642847500000045
                },
                {
                    "name": "F#6",
                    "midi": 90,
                    "time": 110.78560349999952,
                    "velocity": 0.9448818897637795,
                    "duration": 0.20714264999999443
                },
                {
                    "name": "G6",
                    "midi": 91,
                    "time": 110.99988899999951,
                    "velocity": 0.9448818897637795,
                    "duration": 0.20714264999999443
                },
                {
                    "name": "A6",
                    "midi": 93,
                    "time": 111.2141744999995,
                    "velocity": 0.9448818897637795,
                    "duration": 0.20714264999999443
                },
                {
                    "name": "B6",
                    "midi": 95,
                    "time": 111.42845999999949,
                    "velocity": 0.9448818897637795,
                    "duration": 0.3571424999999948
                },
                {
                    "name": "A6",
                    "midi": 93,
                    "time": 111.85703099999948,
                    "velocity": 0.9448818897637795,
                    "duration": 0.20714264999999443
                },
                {
                    "name": "G6",
                    "midi": 91,
                    "time": 112.07131649999947,
                    "velocity": 0.9448818897637795,
                    "duration": 0.421428149999997
                },
                {
                    "name": "F#6",
                    "midi": 90,
                    "time": 112.49988749999946,
                    "velocity": 0.9448818897637795,
                    "duration": 0.3571424999999948
                },
                {
                    "name": "D6",
                    "midi": 86,
                    "time": 112.92845849999945,
                    "velocity": 0.9448818897637795,
                    "duration": 0.421428149999997
                },
                {
                    "name": "B5",
                    "midi": 83,
                    "time": 113.35702949999944,
                    "velocity": 0.9448818897637795,
                    "duration": 0.3571424999999948
                },
                {
                    "name": "D6",
                    "midi": 86,
                    "time": 113.78560049999943,
                    "velocity": 0.9448818897637795,
                    "duration": 0.20714264999999443
                },
                {
                    "name": "F#6",
                    "midi": 90,
                    "time": 113.99988599999942,
                    "velocity": 0.9448818897637795,
                    "duration": 0.3571424999999948
                },
                {
                    "name": "D6",
                    "midi": 86,
                    "time": 114.42845699999941,
                    "velocity": 0.9448818897637795,
                    "duration": 0.7857135
                },
                {
                    "name": "B5",
                    "midi": 83,
                    "time": 115.28559899999941,
                    "velocity": 0.9448818897637795,
                    "duration": 0.20714264999999443
                },
                {
                    "name": "D6",
                    "midi": 86,
                    "time": 115.4998844999994,
                    "velocity": 0.9448818897637795,
                    "duration": 0.421428149999997
                },
                {
                    "name": "F#6",
                    "midi": 90,
                    "time": 115.92845549999939,
                    "velocity": 0.9448818897637795,
                    "duration": 0.3571424999999948
                },
                {
                    "name": "D6",
                    "midi": 86,
                    "time": 116.35702649999938,
                    "velocity": 0.9448818897637795,
                    "duration": 0.9642847500000045
                },
                {
                    "name": "F#6",
                    "midi": 90,
                    "time": 117.64273949999938,
                    "velocity": 0.9448818897637795,
                    "duration": 0.20714264999999443
                },
                {
                    "name": "G6",
                    "midi": 91,
                    "time": 117.85702499999937,
                    "velocity": 0.9448818897637795,
                    "duration": 0.20714264999999443
                },
                {
                    "name": "A6",
                    "midi": 93,
                    "time": 118.07131049999936,
                    "velocity": 0.9448818897637795,
                    "duration": 0.20714264999999443
                },
                {
                    "name": "B6",
                    "midi": 95,
                    "time": 118.28559599999934,
                    "velocity": 0.9448818897637795,
                    "duration": 0.20714264999999443
                },
                {
                    "name": "A6",
                    "midi": 93,
                    "time": 118.49988149999933,
                    "velocity": 0.9448818897637795,
                    "duration": 0.3571424999999948
                },
                {
                    "name": "G6",
                    "midi": 91,
                    "time": 118.92845249999932,
                    "velocity": 0.9448818897637795,
                    "duration": 0.3571424999999948
                },
                {
                    "name": "F#6",
                    "midi": 90,
                    "time": 119.35702349999931,
                    "velocity": 0.9448818897637795,
                    "duration": 0.3571424999999948
                },
                {
                    "name": "D6",
                    "midi": 86,
                    "time": 119.7855944999993,
                    "velocity": 0.9448818897637795,
                    "duration": 0.421428149999997
                },
                {
                    "name": "B5",
                    "midi": 83,
                    "time": 120.2141654999993,
                    "velocity": 0.9448818897637795,
                    "duration": 0.3571424999999948
                },
                {
                    "name": "D6",
                    "midi": 86,
                    "time": 120.64273649999929,
                    "velocity": 0.9448818897637795,
                    "duration": 0.3571424999999948
                },
                {
                    "name": "F#6",
                    "midi": 90,
                    "time": 121.07130749999928,
                    "velocity": 0.9448818897637795,
                    "duration": 0.3571424999999948
                },
                {
                    "name": "D6",
                    "midi": 86,
                    "time": 121.49987849999927,
                    "velocity": 0.9448818897637795,
                    "duration": 0.5714279999999974
                },
                {
                    "name": "B5",
                    "midi": 83,
                    "time": 122.14273499999926,
                    "velocity": 0.9448818897637795,
                    "duration": 0.20714264999999443
                },
                {
                    "name": "D6",
                    "midi": 86,
                    "time": 122.35702049999925,
                    "velocity": 0.9448818897637795,
                    "duration": 0.421428149999997
                },
                {
                    "name": "F#6",
                    "midi": 90,
                    "time": 122.78559149999924,
                    "velocity": 0.9448818897637795,
                    "duration": 0.3571424999999948
                },
                {
                    "name": "D6",
                    "midi": 86,
                    "time": 123.21416249999923,
                    "velocity": 0.9448818897637795,
                    "duration": 0.421428149999997
                },
                {
                    "name": "F#6",
                    "midi": 90,
                    "time": 123.64273349999922,
                    "velocity": 0.9448818897637795,
                    "duration": 0.3571424999999948
                },
                {
                    "name": "G6",
                    "midi": 91,
                    "time": 124.07130449999921,
                    "velocity": 0.9448818897637795,
                    "duration": 0.3571424999999948
                },
                {
                    "name": "A6",
                    "midi": 93,
                    "time": 124.4998754999992,
                    "velocity": 0.9448818897637795,
                    "duration": 0.3571424999999948
                },
                {
                    "name": "B6",
                    "midi": 95,
                    "time": 124.9284464999992,
                    "velocity": 0.9448818897637795,
                    "duration": 0.421428149999997
                },
                {
                    "name": "A6",
                    "midi": 93,
                    "time": 125.35701749999919,
                    "velocity": 0.9448818897637795,
                    "duration": 0.3571424999999948
                },
                {
                    "name": "G6",
                    "midi": 91,
                    "time": 125.78558849999918,
                    "velocity": 0.9448818897637795,
                    "duration": 0.3571424999999948
                },
                {
                    "name": "F#6",
                    "midi": 90,
                    "time": 126.21415949999917,
                    "velocity": 0.9448818897637795,
                    "duration": 0.3571424999999948
                },
                {
                    "name": "D6",
                    "midi": 86,
                    "time": 126.64273049999916,
                    "velocity": 0.9448818897637795,
                    "duration": 0.421428149999997
                },
                {
                    "name": "B5",
                    "midi": 83,
                    "time": 127.07130149999915,
                    "velocity": 0.9448818897637795,
                    "duration": 0.3571424999999948
                },
                {
                    "name": "D6",
                    "midi": 86,
                    "time": 127.49987249999914,
                    "velocity": 0.9448818897637795,
                    "duration": 0.20714264999999443
                },
                {
                    "name": "F#6",
                    "midi": 90,
                    "time": 127.71415799999913,
                    "velocity": 0.9448818897637795,
                    "duration": 0.3571424999999948
                },
                {
                    "name": "D6",
                    "midi": 86,
                    "time": 128.14272899999912,
                    "velocity": 0.9448818897637795,
                    "duration": 0.7857135000000142
                },
                {
                    "name": "B5",
                    "midi": 83,
                    "time": 128.99987099999913,
                    "velocity": 0.9448818897637795,
                    "duration": 0.20714265000000864
                },
                {
                    "name": "D6",
                    "midi": 86,
                    "time": 129.21415649999915,
                    "velocity": 0.9448818897637795,
                    "duration": 0.421428149999997
                },
                {
                    "name": "F#6",
                    "midi": 90,
                    "time": 129.64272749999915,
                    "velocity": 0.9448818897637795,
                    "duration": 0.357142500000009
                },
                {
                    "name": "D6",
                    "midi": 86,
                    "time": 130.07129849999916,
                    "velocity": 0.9448818897637795,
                    "duration": 1.8214267500000005
                }
            ],
            "controlChanges": {
                "7": [
                    {
                        "number": 7,
                        "time": 0,
                        "value": 1
                    }
                ],
                "10": [
                    {
                        "number": 10,
                        "time": 0,
                        "value": 0.5039370078740157
                    }
                ],
                "121": [
                    {
                        "number": 121,
                        "time": 0,
                        "value": 0
                    }
                ],
                "123": [
                    {
                        "number": 123,
                        "time": 0,
                        "value": 0
                    }
                ]
            },
            "id": 6,
            "name": "Melody 1",
            "instrumentNumber": 0,
            "instrument": "acoustic grand piano",
            "instrumentFamily": "piano",
            "channelNumber": 3,
            "isPercussion": false
        },
        {
            "startTime": 3.4285680000000003,
            "duration": 131.89272524999916,
            "length": 216,
            "notes": [
                {
                    "name": "F4",
                    "midi": 65,
                    "time": 3.4285680000000003,
                    "velocity": 0.9448818897637795,
                    "duration": 0.7499992500000001
                },
                {
                    "name": "A3",
                    "midi": 57,
                    "time": 4.285710000000001,
                    "velocity": 0.9448818897637795,
                    "duration": 0.7499992500000001
                },
                {
                    "name": "D4",
                    "midi": 62,
                    "time": 5.142852000000001,
                    "velocity": 0.9448818897637795,
                    "duration": 1.0642846500000003
                },
                {
                    "name": "F4",
                    "midi": 65,
                    "time": 6.214279500000002,
                    "velocity": 0.9448818897637795,
                    "duration": 0.35714250000000014
                },
                {
                    "name": "E4",
                    "midi": 64,
                    "time": 6.6428505000000015,
                    "velocity": 0.9448818897637795,
                    "duration": 0.96428475
                },
                {
                    "name": "B3",
                    "midi": 59,
                    "time": 7.714278000000002,
                    "velocity": 0.9448818897637795,
                    "duration": 0.7499992500000001
                },
                {
                    "name": "D4",
                    "midi": 62,
                    "time": 8.571420000000002,
                    "velocity": 0.9448818897637795,
                    "duration": 1.0642846499999994
                },
                {
                    "name": "E4",
                    "midi": 64,
                    "time": 9.6428475,
                    "velocity": 0.9448818897637795,
                    "duration": 0.35714250000000014
                },
                {
                    "name": "F4",
                    "midi": 65,
                    "time": 10.0714185,
                    "velocity": 0.9448818897637795,
                    "duration": 0.9642847500000009
                },
                {
                    "name": "A#3",
                    "midi": 58,
                    "time": 11.142846,
                    "velocity": 0.9448818897637795,
                    "duration": 0.7499992500000001
                },
                {
                    "name": "C#4",
                    "midi": 61,
                    "time": 11.999988,
                    "velocity": 0.9448818897637795,
                    "duration": 0.7499992500000001
                },
                {
                    "name": "F4",
                    "midi": 65,
                    "time": 13.0714155,
                    "velocity": 0.9448818897637795,
                    "duration": 0.35714250000000014
                },
                {
                    "name": "E4",
                    "midi": 64,
                    "time": 13.4999865,
                    "velocity": 0.9448818897637795,
                    "duration": 0.42142815000000056
                },
                {
                    "name": "D4",
                    "midi": 62,
                    "time": 13.9285575,
                    "velocity": 0.9448818897637795,
                    "duration": 0.35714250000000014
                },
                {
                    "name": "F4",
                    "midi": 65,
                    "time": 14.3571285,
                    "velocity": 0.9448818897637795,
                    "duration": 0.49285665000000023
                },
                {
                    "name": "E4",
                    "midi": 64,
                    "time": 14.857128,
                    "velocity": 0.9448818897637795,
                    "duration": 0.27857114999999943
                },
                {
                    "name": "D4",
                    "midi": 62,
                    "time": 15.142841999999998,
                    "velocity": 0.9448818897637795,
                    "duration": 0.27857114999999943
                },
                {
                    "name": "A3",
                    "midi": 57,
                    "time": 15.428555999999997,
                    "velocity": 0.9448818897637795,
                    "duration": 1.6071412500000015
                },
                {
                    "name": "F4",
                    "midi": 65,
                    "time": 17.14284,
                    "velocity": 0.9448818897637795,
                    "duration": 0.7499992500000019
                },
                {
                    "name": "A3",
                    "midi": 57,
                    "time": 17.999982000000003,
                    "velocity": 0.9448818897637795,
                    "duration": 0.7499992500000019
                },
                {
                    "name": "B3",
                    "midi": 59,
                    "time": 18.857124000000006,
                    "velocity": 0.9448818897637795,
                    "duration": 1.0642846500000012
                },
                {
                    "name": "D4",
                    "midi": 62,
                    "time": 19.928551500000008,
                    "velocity": 0.9448818897637795,
                    "duration": 0.35714249999999836
                },
                {
                    "name": "C4",
                    "midi": 60,
                    "time": 20.357122500000006,
                    "velocity": 0.9448818897637795,
                    "duration": 0.7857135
                },
                {
                    "name": "E4",
                    "midi": 64,
                    "time": 21.214264500000006,
                    "velocity": 0.9448818897637795,
                    "duration": 0.9642847500000009
                },
                {
                    "name": "E4",
                    "midi": 64,
                    "time": 22.714263000000006,
                    "velocity": 0.9448818897637795,
                    "duration": 0.20714265000000154
                },
                {
                    "name": "D4",
                    "midi": 62,
                    "time": 22.92854850000001,
                    "velocity": 0.9448818897637795,
                    "duration": 0.42142815000000056
                },
                {
                    "name": "C4",
                    "midi": 60,
                    "time": 23.35711950000001,
                    "velocity": 0.9448818897637795,
                    "duration": 0.35714249999999836
                },
                {
                    "name": "C4",
                    "midi": 60,
                    "time": 23.78569050000001,
                    "velocity": 0.9448818897637795,
                    "duration": 0.7857135
                },
                {
                    "name": "A#3",
                    "midi": 58,
                    "time": 24.642832500000008,
                    "velocity": 0.9448818897637795,
                    "duration": 0.9642847500000009
                },
                {
                    "name": "F4",
                    "midi": 65,
                    "time": 26.142831000000008,
                    "velocity": 0.9448818897637795,
                    "duration": 0.20714265000000154
                },
                {
                    "name": "E4",
                    "midi": 64,
                    "time": 26.35711650000001,
                    "velocity": 0.9448818897637795,
                    "duration": 0.42142815000000056
                },
                {
                    "name": "D4",
                    "midi": 62,
                    "time": 26.785687500000012,
                    "velocity": 0.9448818897637795,
                    "duration": 0.35714249999999836
                },
                {
                    "name": "D4",
                    "midi": 62,
                    "time": 27.21425850000001,
                    "velocity": 0.9448818897637795,
                    "duration": 0.42142815000000056
                },
                {
                    "name": "C#4",
                    "midi": 61,
                    "time": 27.642829500000012,
                    "velocity": 0.9448818897637795,
                    "duration": 0.35714249999999836
                },
                {
                    "name": "E4",
                    "midi": 64,
                    "time": 28.07140050000001,
                    "velocity": 0.9448818897637795,
                    "duration": 0.35714249999999836
                },
                {
                    "name": "C#4",
                    "midi": 61,
                    "time": 28.499971500000008,
                    "velocity": 0.9448818897637795,
                    "duration": 0.35714249999999836
                },
                {
                    "name": "A#3",
                    "midi": 58,
                    "time": 28.928542500000006,
                    "velocity": 0.9448818897637795,
                    "duration": 1.8214267500000005
                },
                {
                    "name": "F4",
                    "midi": 65,
                    "time": 30.857112000000008,
                    "velocity": 0.9448818897637795,
                    "duration": 0.7499992500000019
                },
                {
                    "name": "A3",
                    "midi": 57,
                    "time": 31.71425400000001,
                    "velocity": 0.9448818897637795,
                    "duration": 0.7499992500000019
                },
                {
                    "name": "D4",
                    "midi": 62,
                    "time": 32.571396000000014,
                    "velocity": 0.9448818897637795,
                    "duration": 1.0642846499999976
                },
                {
                    "name": "F4",
                    "midi": 65,
                    "time": 33.64282350000001,
                    "velocity": 0.9448818897637795,
                    "duration": 0.3571425000000019
                },
                {
                    "name": "E4",
                    "midi": 64,
                    "time": 34.07139450000002,
                    "velocity": 0.9448818897637795,
                    "duration": 0.9642847499999974
                },
                {
                    "name": "B3",
                    "midi": 59,
                    "time": 35.14282200000002,
                    "velocity": 0.9448818897637795,
                    "duration": 0.7499992500000019
                },
                {
                    "name": "D4",
                    "midi": 62,
                    "time": 35.99996400000002,
                    "velocity": 0.9448818897637795,
                    "duration": 1.0642846499999976
                },
                {
                    "name": "E4",
                    "midi": 64,
                    "time": 37.07139150000002,
                    "velocity": 0.9448818897637795,
                    "duration": 0.3571425000000019
                },
                {
                    "name": "F4",
                    "midi": 65,
                    "time": 37.499962500000024,
                    "velocity": 0.9448818897637795,
                    "duration": 0.9642847499999974
                },
                {
                    "name": "A#3",
                    "midi": 58,
                    "time": 38.57139000000002,
                    "velocity": 0.9448818897637795,
                    "duration": 0.7499992500000019
                },
                {
                    "name": "C#4",
                    "midi": 61,
                    "time": 39.428532000000025,
                    "velocity": 0.9448818897637795,
                    "duration": 0.7499992500000019
                },
                {
                    "name": "F4",
                    "midi": 65,
                    "time": 40.499959500000024,
                    "velocity": 0.9448818897637795,
                    "duration": 0.3571425000000019
                },
                {
                    "name": "E4",
                    "midi": 64,
                    "time": 40.92853050000003,
                    "velocity": 0.9448818897637795,
                    "duration": 0.421428149999997
                },
                {
                    "name": "D4",
                    "midi": 62,
                    "time": 41.35710150000003,
                    "velocity": 0.9448818897637795,
                    "duration": 0.3571425000000019
                },
                {
                    "name": "C#4",
                    "midi": 61,
                    "time": 41.78567250000003,
                    "velocity": 0.9448818897637795,
                    "duration": 0.20714265000000154
                },
                {
                    "name": "D4",
                    "midi": 62,
                    "time": 41.999958000000035,
                    "velocity": 0.9448818897637795,
                    "duration": 0.3571425000000019
                },
                {
                    "name": "D#4",
                    "midi": 63,
                    "time": 42.42852900000004,
                    "velocity": 0.9448818897637795,
                    "duration": 0.7857135
                },
                {
                    "name": "C4",
                    "midi": 60,
                    "time": 43.28567100000004,
                    "velocity": 0.9448818897637795,
                    "duration": 0.20714265000000154
                },
                {
                    "name": "F#4",
                    "midi": 66,
                    "time": 43.499956500000046,
                    "velocity": 0.9448818897637795,
                    "duration": 0.421428149999997
                },
                {
                    "name": "A4",
                    "midi": 69,
                    "time": 43.928527500000044,
                    "velocity": 0.9448818897637795,
                    "duration": 0.3571425000000019
                },
                {
                    "name": "G4",
                    "midi": 67,
                    "time": 44.35709850000005,
                    "velocity": 0.9448818897637795,
                    "duration": 0.7857135
                },
                {
                    "name": "A#4",
                    "midi": 70,
                    "time": 45.21424050000005,
                    "velocity": 0.9448818897637795,
                    "duration": 0.7857135
                },
                {
                    "name": "C#4",
                    "midi": 61,
                    "time": 46.071382500000055,
                    "velocity": 0.9448818897637795,
                    "duration": 1.2785701500000002
                },
                {
                    "name": "A4",
                    "midi": 69,
                    "time": 47.35709550000006,
                    "velocity": 0.9448818897637795,
                    "duration": 0.3571425000000019
                },
                {
                    "name": "G4",
                    "midi": 67,
                    "time": 47.78566650000006,
                    "velocity": 0.9448818897637795,
                    "duration": 0.421428149999997
                },
                {
                    "name": "F4",
                    "midi": 65,
                    "time": 48.21423750000006,
                    "velocity": 0.9448818897637795,
                    "duration": 0.3571425000000019
                },
                {
                    "name": "A4",
                    "midi": 69,
                    "time": 48.642808500000065,
                    "velocity": 0.9448818897637795,
                    "duration": 0.3571425000000019
                },
                {
                    "name": "F4",
                    "midi": 65,
                    "time": 49.07137950000007,
                    "velocity": 0.9448818897637795,
                    "duration": 0.3571425000000019
                },
                {
                    "name": "D4",
                    "midi": 62,
                    "time": 49.499950500000075,
                    "velocity": 0.9448818897637795,
                    "duration": 0.20714265000000154
                },
                {
                    "name": "E4",
                    "midi": 64,
                    "time": 49.71423600000008,
                    "velocity": 0.9448818897637795,
                    "duration": 0.20714265000000154
                },
                {
                    "name": "C4",
                    "midi": 60,
                    "time": 49.92852150000008,
                    "velocity": 0.9448818897637795,
                    "duration": 0.3571425000000019
                },
                {
                    "name": "A3",
                    "midi": 57,
                    "time": 50.357092500000086,
                    "velocity": 0.9448818897637795,
                    "duration": 0.3571425000000019
                },
                {
                    "name": "E4",
                    "midi": 64,
                    "time": 50.78566350000009,
                    "velocity": 0.9448818897637795,
                    "duration": 0.3571425000000019
                },
                {
                    "name": "F4",
                    "midi": 65,
                    "time": 51.214234500000096,
                    "velocity": 0.9448818897637795,
                    "duration": 0.421428149999997
                },
                {
                    "name": "D4",
                    "midi": 62,
                    "time": 51.642805500000094,
                    "velocity": 0.9448818897637795,
                    "duration": 0.3571425000000019
                },
                {
                    "name": "B3",
                    "midi": 59,
                    "time": 52.0713765000001,
                    "velocity": 0.9448818897637795,
                    "duration": 0.3571425000000019
                },
                {
                    "name": "E4",
                    "midi": 64,
                    "time": 52.499947500000104,
                    "velocity": 0.9448818897637795,
                    "duration": 0.3571425000000019
                },
                {
                    "name": "F4",
                    "midi": 65,
                    "time": 52.92851850000011,
                    "velocity": 0.9448818897637795,
                    "duration": 0.421428149999997
                },
                {
                    "name": "C#4",
                    "midi": 61,
                    "time": 53.35708950000011,
                    "velocity": 0.9448818897637795,
                    "duration": 0.3571425000000019
                },
                {
                    "name": "A#3",
                    "midi": 58,
                    "time": 53.78566050000011,
                    "velocity": 0.9448818897637795,
                    "duration": 0.3571425000000019
                },
                {
                    "name": "F4",
                    "midi": 65,
                    "time": 54.21423150000012,
                    "velocity": 0.9448818897637795,
                    "duration": 0.3571425000000019
                },
                {
                    "name": "D4",
                    "midi": 62,
                    "time": 54.64280250000012,
                    "velocity": 0.9448818897637795,
                    "duration": 1.8214267500000005
                },
                {
                    "name": "F#4",
                    "midi": 66,
                    "time": 58.285656000000124,
                    "velocity": 0.9448818897637795,
                    "duration": 1.607141249999998
                },
                {
                    "name": "A4",
                    "midi": 69,
                    "time": 59.99994000000012,
                    "velocity": 0.9448818897637795,
                    "duration": 0.5714279999999974
                },
                {
                    "name": "G4",
                    "midi": 67,
                    "time": 60.642796500000124,
                    "velocity": 0.9448818897637795,
                    "duration": 0.421428149999997
                },
                {
                    "name": "D#4",
                    "midi": 63,
                    "time": 61.07136750000012,
                    "velocity": 0.9448818897637795,
                    "duration": 0.3571425000000019
                },
                {
                    "name": "F#4",
                    "midi": 66,
                    "time": 61.49993850000013,
                    "velocity": 0.9448818897637795,
                    "duration": 0.9642847499999974
                },
                {
                    "name": "E4",
                    "midi": 64,
                    "time": 62.571366000000125,
                    "velocity": 0.9448818897637795,
                    "duration": 0.20714265000000154
                },
                {
                    "name": "D#4",
                    "midi": 63,
                    "time": 62.78565150000013,
                    "velocity": 0.9448818897637795,
                    "duration": 0.3571425000000019
                },
                {
                    "name": "E4",
                    "midi": 64,
                    "time": 63.21422250000013,
                    "velocity": 0.9448818897637795,
                    "duration": 0.20714265000000154
                },
                {
                    "name": "B4",
                    "midi": 71,
                    "time": 63.428508000000136,
                    "velocity": 0.9448818897637795,
                    "duration": 0.3571425000000019
                },
                {
                    "name": "G4",
                    "midi": 67,
                    "time": 63.85707900000014,
                    "velocity": 0.9448818897637795,
                    "duration": 0.20714264999999443
                },
                {
                    "name": "E4",
                    "midi": 64,
                    "time": 64.07136450000013,
                    "velocity": 0.9448818897637795,
                    "duration": 0.421428149999997
                },
                {
                    "name": "B3",
                    "midi": 59,
                    "time": 64.49993550000012,
                    "velocity": 0.9448818897637795,
                    "duration": 0.3571424999999948
                },
                {
                    "name": "D4",
                    "midi": 62,
                    "time": 64.92850650000011,
                    "velocity": 0.9448818897637795,
                    "duration": 0.7857135
                },
                {
                    "name": "C#4",
                    "midi": 61,
                    "time": 65.78564850000011,
                    "velocity": 0.9448818897637795,
                    "duration": 0.9642847500000045
                },
                {
                    "name": "E4",
                    "midi": 64,
                    "time": 67.28564700000011,
                    "velocity": 0.9448818897637795,
                    "duration": 0.20714264999999443
                },
                {
                    "name": "C#4",
                    "midi": 61,
                    "time": 67.4999325000001,
                    "velocity": 0.9448818897637795,
                    "duration": 0.421428149999997
                },
                {
                    "name": "A3",
                    "midi": 57,
                    "time": 67.92850350000009,
                    "velocity": 0.9448818897637795,
                    "duration": 0.3571424999999948
                },
                {
                    "name": "B3",
                    "midi": 59,
                    "time": 68.35707450000008,
                    "velocity": 0.9448818897637795,
                    "duration": 1.7071411499999982
                },
                {
                    "name": "A3",
                    "midi": 57,
                    "time": 70.07135850000007,
                    "velocity": 0.9448818897637795,
                    "duration": 0.9642847500000045
                },
                {
                    "name": "C#4",
                    "midi": 61,
                    "time": 71.35707150000007,
                    "velocity": 0.9448818897637795,
                    "duration": 0.3571424999999948
                },
                {
                    "name": "E4",
                    "midi": 64,
                    "time": 71.78564250000007,
                    "velocity": 0.9448818897637795,
                    "duration": 0.421428149999997
                },
                {
                    "name": "D4",
                    "midi": 62,
                    "time": 72.21421350000006,
                    "velocity": 0.9448818897637795,
                    "duration": 0.3571424999999948
                },
                {
                    "name": "C#4",
                    "midi": 61,
                    "time": 72.64278450000005,
                    "velocity": 0.9448818897637795,
                    "duration": 0.3571424999999948
                },
                {
                    "name": "D4",
                    "midi": 62,
                    "time": 73.07135550000004,
                    "velocity": 0.9448818897637795,
                    "duration": 0.3571424999999948
                },
                {
                    "name": "F4",
                    "midi": 65,
                    "time": 73.49992650000003,
                    "velocity": 0.9448818897637795,
                    "duration": 0.421428149999997
                },
                {
                    "name": "G#4",
                    "midi": 68,
                    "time": 73.92849750000002,
                    "velocity": 0.9448818897637795,
                    "duration": 0.3571424999999948
                },
                {
                    "name": "C#5",
                    "midi": 73,
                    "time": 74.35706850000001,
                    "velocity": 0.9448818897637795,
                    "duration": 0.3571424999999948
                },
                {
                    "name": "B4",
                    "midi": 71,
                    "time": 74.7856395,
                    "velocity": 0.9448818897637795,
                    "duration": 0.3571424999999948
                },
                {
                    "name": "A4",
                    "midi": 69,
                    "time": 75.2142105,
                    "velocity": 0.9448818897637795,
                    "duration": 0.421428149999997
                },
                {
                    "name": "G4",
                    "midi": 67,
                    "time": 75.64278149999998,
                    "velocity": 0.9448818897637795,
                    "duration": 0.3571424999999948
                },
                {
                    "name": "B3",
                    "midi": 59,
                    "time": 76.07135249999997,
                    "velocity": 0.9448818897637795,
                    "duration": 0.9642847500000045
                },
                {
                    "name": "B3",
                    "midi": 59,
                    "time": 77.57135099999998,
                    "velocity": 0.9448818897637795,
                    "duration": 0.20714264999999443
                },
                {
                    "name": "C#4",
                    "midi": 61,
                    "time": 77.78563649999997,
                    "velocity": 0.9448818897637795,
                    "duration": 0.421428149999997
                },
                {
                    "name": "D4",
                    "midi": 62,
                    "time": 78.21420749999996,
                    "velocity": 0.9448818897637795,
                    "duration": 0.3571424999999948
                },
                {
                    "name": "F#4",
                    "midi": 66,
                    "time": 78.64277849999995,
                    "velocity": 0.9448818897637795,
                    "duration": 0.421428149999997
                },
                {
                    "name": "E4",
                    "midi": 64,
                    "time": 79.07134949999994,
                    "velocity": 0.9448818897637795,
                    "duration": 0.3571424999999948
                },
                {
                    "name": "D4",
                    "midi": 62,
                    "time": 79.49992049999993,
                    "velocity": 0.9448818897637795,
                    "duration": 0.3571424999999948
                },
                {
                    "name": "B3",
                    "midi": 59,
                    "time": 79.92849149999992,
                    "velocity": 0.9448818897637795,
                    "duration": 0.3571424999999948
                },
                {
                    "name": "G#3",
                    "midi": 56,
                    "time": 80.35706249999991,
                    "velocity": 0.9448818897637795,
                    "duration": 0.5714279999999974
                },
                {
                    "name": "B3",
                    "midi": 59,
                    "time": 80.9999189999999,
                    "velocity": 0.9448818897637795,
                    "duration": 0.20714264999999443
                },
                {
                    "name": "C#4",
                    "midi": 61,
                    "time": 81.2142044999999,
                    "velocity": 0.9448818897637795,
                    "duration": 0.421428149999997
                },
                {
                    "name": "E4",
                    "midi": 64,
                    "time": 81.64277549999989,
                    "velocity": 0.9448818897637795,
                    "duration": 0.3571424999999948
                },
                {
                    "name": "D4",
                    "midi": 62,
                    "time": 82.07134649999988,
                    "velocity": 0.9448818897637795,
                    "duration": 1.8214267500000005
                },
                {
                    "name": "C#4",
                    "midi": 61,
                    "time": 83.99991599999987,
                    "velocity": 0.9448818897637795,
                    "duration": 1.607141249999998
                },
                {
                    "name": "F#4",
                    "midi": 66,
                    "time": 85.71419999999986,
                    "velocity": 0.9448818897637795,
                    "duration": 0.7499992500000019
                },
                {
                    "name": "A3",
                    "midi": 57,
                    "time": 86.57134199999986,
                    "velocity": 0.9448818897637795,
                    "duration": 0.7499992500000019
                },
                {
                    "name": "B3",
                    "midi": 59,
                    "time": 87.42848399999986,
                    "velocity": 0.9448818897637795,
                    "duration": 1.0642846500000047
                },
                {
                    "name": "F#4",
                    "midi": 66,
                    "time": 88.49991149999985,
                    "velocity": 0.9448818897637795,
                    "duration": 0.3571424999999948
                },
                {
                    "name": "E4",
                    "midi": 64,
                    "time": 88.92848249999984,
                    "velocity": 0.9448818897637795,
                    "duration": 0.9642847500000045
                },
                {
                    "name": "B3",
                    "midi": 59,
                    "time": 89.99990999999984,
                    "velocity": 0.9448818897637795,
                    "duration": 0.7499992500000019
                },
                {
                    "name": "D4",
                    "midi": 62,
                    "time": 90.85705199999984,
                    "velocity": 0.9448818897637795,
                    "duration": 1.0642846500000047
                },
                {
                    "name": "E4",
                    "midi": 64,
                    "time": 91.92847949999984,
                    "velocity": 0.9448818897637795,
                    "duration": 0.3571424999999948
                },
                {
                    "name": "F#4",
                    "midi": 66,
                    "time": 92.35705049999983,
                    "velocity": 0.9448818897637795,
                    "duration": 0.9642847500000045
                },
                {
                    "name": "A#3",
                    "midi": 58,
                    "time": 93.42847799999983,
                    "velocity": 0.9448818897637795,
                    "duration": 0.7499992500000019
                },
                {
                    "name": "C#4",
                    "midi": 61,
                    "time": 94.28561999999982,
                    "velocity": 0.9448818897637795,
                    "duration": 0.7499992500000019
                },
                {
                    "name": "F#4",
                    "midi": 66,
                    "time": 95.35704749999982,
                    "velocity": 0.9448818897637795,
                    "duration": 0.3571424999999948
                },
                {
                    "name": "E4",
                    "midi": 64,
                    "time": 95.78561849999981,
                    "velocity": 0.9448818897637795,
                    "duration": 0.421428149999997
                },
                {
                    "name": "D4",
                    "midi": 62,
                    "time": 96.2141894999998,
                    "velocity": 0.9448818897637795,
                    "duration": 0.3571424999999948
                },
                {
                    "name": "C#4",
                    "midi": 61,
                    "time": 96.6427604999998,
                    "velocity": 0.9448818897637795,
                    "duration": 0.3571424999999948
                },
                {
                    "name": "D4",
                    "midi": 62,
                    "time": 97.07133149999979,
                    "velocity": 0.9448818897637795,
                    "duration": 0.3571424999999948
                },
                {
                    "name": "E4",
                    "midi": 64,
                    "time": 97.49990249999978,
                    "velocity": 0.9448818897637795,
                    "duration": 0.421428149999997
                },
                {
                    "name": "D4",
                    "midi": 62,
                    "time": 97.92847349999977,
                    "velocity": 0.9448818897637795,
                    "duration": 0.3571424999999948
                },
                {
                    "name": "F#4",
                    "midi": 66,
                    "time": 98.35704449999976,
                    "velocity": 0.9448818897637795,
                    "duration": 0.421428149999997
                },
                {
                    "name": "B4",
                    "midi": 71,
                    "time": 98.78561549999975,
                    "velocity": 0.9448818897637795,
                    "duration": 0.3571424999999948
                },
                {
                    "name": "A4",
                    "midi": 69,
                    "time": 99.21418649999974,
                    "velocity": 0.9448818897637795,
                    "duration": 0.421428149999997
                },
                {
                    "name": "F#4",
                    "midi": 66,
                    "time": 99.64275749999973,
                    "velocity": 0.9448818897637795,
                    "duration": 0.3571424999999948
                },
                {
                    "name": "D4",
                    "midi": 62,
                    "time": 100.07132849999972,
                    "velocity": 0.9448818897637795,
                    "duration": 0.3571424999999948
                },
                {
                    "name": "B3",
                    "midi": 59,
                    "time": 100.49989949999971,
                    "velocity": 0.9448818897637795,
                    "duration": 0.3571424999999948
                },
                {
                    "name": "A4",
                    "midi": 69,
                    "time": 100.9284704999997,
                    "velocity": 0.9448818897637795,
                    "duration": 0.421428149999997
                },
                {
                    "name": "F4",
                    "midi": 65,
                    "time": 101.3570414999997,
                    "velocity": 0.9448818897637795,
                    "duration": 0.3571424999999948
                },
                {
                    "name": "D4",
                    "midi": 62,
                    "time": 101.78561249999969,
                    "velocity": 0.9448818897637795,
                    "duration": 0.3571424999999948
                },
                {
                    "name": "A#3",
                    "midi": 58,
                    "time": 102.21418349999968,
                    "velocity": 0.9448818897637795,
                    "duration": 0.3571424999999948
                },
                {
                    "name": "A4",
                    "midi": 69,
                    "time": 102.64275449999967,
                    "velocity": 0.9448818897637795,
                    "duration": 0.421428149999997
                },
                {
                    "name": "E4",
                    "midi": 64,
                    "time": 103.07132549999966,
                    "velocity": 0.9448818897637795,
                    "duration": 0.3571424999999948
                },
                {
                    "name": "C#4",
                    "midi": 61,
                    "time": 103.49989649999965,
                    "velocity": 0.9448818897637795,
                    "duration": 0.5714279999999974
                },
                {
                    "name": "A3",
                    "midi": 57,
                    "time": 104.14275299999964,
                    "velocity": 0.9448818897637795,
                    "duration": 0.3571424999999948
                },
                {
                    "name": "G#4",
                    "midi": 68,
                    "time": 104.57132399999963,
                    "velocity": 0.9448818897637795,
                    "duration": 0.3571424999999948
                },
                {
                    "name": "B4",
                    "midi": 71,
                    "time": 104.99989499999963,
                    "velocity": 0.9448818897637795,
                    "duration": 0.20714264999999443
                },
                {
                    "name": "G4",
                    "midi": 67,
                    "time": 105.21418049999961,
                    "velocity": 0.9448818897637795,
                    "duration": 0.421428149999997
                },
                {
                    "name": "B4",
                    "midi": 71,
                    "time": 105.6427514999996,
                    "velocity": 0.9448818897637795,
                    "duration": 0.3571424999999948
                },
                {
                    "name": "F#4",
                    "midi": 66,
                    "time": 106.0713224999996,
                    "velocity": 0.9448818897637795,
                    "duration": 0.421428149999997
                },
                {
                    "name": "D4",
                    "midi": 62,
                    "time": 106.49989349999959,
                    "velocity": 0.9448818897637795,
                    "duration": 0.3571424999999948
                },
                {
                    "name": "B3",
                    "midi": 59,
                    "time": 106.92846449999958,
                    "velocity": 0.9448818897637795,
                    "duration": 0.20714264999999443
                },
                {
                    "name": "D4",
                    "midi": 62,
                    "time": 107.14274999999957,
                    "velocity": 0.9448818897637795,
                    "duration": 0.3571424999999948
                },
                {
                    "name": "F#4",
                    "midi": 66,
                    "time": 107.57132099999956,
                    "velocity": 0.9448818897637795,
                    "duration": 0.7857135
                },
                {
                    "name": "D4",
                    "midi": 62,
                    "time": 108.42846299999955,
                    "velocity": 0.9448818897637795,
                    "duration": 0.20714264999999443
                },
                {
                    "name": "B3",
                    "midi": 59,
                    "time": 108.64274849999954,
                    "velocity": 0.9448818897637795,
                    "duration": 0.421428149999997
                },
                {
                    "name": "D4",
                    "midi": 62,
                    "time": 109.07131949999953,
                    "velocity": 0.9448818897637795,
                    "duration": 0.3571424999999948
                },
                {
                    "name": "F#4",
                    "midi": 66,
                    "time": 109.49989049999952,
                    "velocity": 0.9448818897637795,
                    "duration": 0.9642847500000045
                },
                {
                    "name": "F#4",
                    "midi": 66,
                    "time": 110.78560349999952,
                    "velocity": 0.9448818897637795,
                    "duration": 0.20714264999999443
                },
                {
                    "name": "G4",
                    "midi": 67,
                    "time": 110.99988899999951,
                    "velocity": 0.9448818897637795,
                    "duration": 0.20714264999999443
                },
                {
                    "name": "A4",
                    "midi": 69,
                    "time": 111.2141744999995,
                    "velocity": 0.9448818897637795,
                    "duration": 0.20714264999999443
                },
                {
                    "name": "B4",
                    "midi": 71,
                    "time": 111.42845999999949,
                    "velocity": 0.9448818897637795,
                    "duration": 0.3571424999999948
                },
                {
                    "name": "A4",
                    "midi": 69,
                    "time": 111.85703099999948,
                    "velocity": 0.9448818897637795,
                    "duration": 0.20714264999999443
                },
                {
                    "name": "G4",
                    "midi": 67,
                    "time": 112.07131649999947,
                    "velocity": 0.9448818897637795,
                    "duration": 0.421428149999997
                },
                {
                    "name": "F#4",
                    "midi": 66,
                    "time": 112.49988749999946,
                    "velocity": 0.9448818897637795,
                    "duration": 0.3571424999999948
                },
                {
                    "name": "D4",
                    "midi": 62,
                    "time": 112.92845849999945,
                    "velocity": 0.9448818897637795,
                    "duration": 0.421428149999997
                },
                {
                    "name": "B3",
                    "midi": 59,
                    "time": 113.35702949999944,
                    "velocity": 0.9448818897637795,
                    "duration": 0.3571424999999948
                },
                {
                    "name": "D4",
                    "midi": 62,
                    "time": 113.78560049999943,
                    "velocity": 0.9448818897637795,
                    "duration": 0.20714264999999443
                },
                {
                    "name": "F#4",
                    "midi": 66,
                    "time": 113.99988599999942,
                    "velocity": 0.9448818897637795,
                    "duration": 0.3571424999999948
                },
                {
                    "name": "D4",
                    "midi": 62,
                    "time": 114.42845699999941,
                    "velocity": 0.9448818897637795,
                    "duration": 0.7857135
                },
                {
                    "name": "B3",
                    "midi": 59,
                    "time": 115.28559899999941,
                    "velocity": 0.9448818897637795,
                    "duration": 0.20714264999999443
                },
                {
                    "name": "D4",
                    "midi": 62,
                    "time": 115.4998844999994,
                    "velocity": 0.9448818897637795,
                    "duration": 0.421428149999997
                },
                {
                    "name": "F#4",
                    "midi": 66,
                    "time": 115.92845549999939,
                    "velocity": 0.9448818897637795,
                    "duration": 0.3571424999999948
                },
                {
                    "name": "D4",
                    "midi": 62,
                    "time": 116.35702649999938,
                    "velocity": 0.9448818897637795,
                    "duration": 0.9642847500000045
                },
                {
                    "name": "F#4",
                    "midi": 66,
                    "time": 117.64273949999938,
                    "velocity": 0.9448818897637795,
                    "duration": 0.20714264999999443
                },
                {
                    "name": "G4",
                    "midi": 67,
                    "time": 117.85702499999937,
                    "velocity": 0.9448818897637795,
                    "duration": 0.20714264999999443
                },
                {
                    "name": "A4",
                    "midi": 69,
                    "time": 118.07131049999936,
                    "velocity": 0.9448818897637795,
                    "duration": 0.20714264999999443
                },
                {
                    "name": "B4",
                    "midi": 71,
                    "time": 118.28559599999934,
                    "velocity": 0.9448818897637795,
                    "duration": 0.20714264999999443
                },
                {
                    "name": "A4",
                    "midi": 69,
                    "time": 118.49988149999933,
                    "velocity": 0.9448818897637795,
                    "duration": 0.3571424999999948
                },
                {
                    "name": "G4",
                    "midi": 67,
                    "time": 118.92845249999932,
                    "velocity": 0.9448818897637795,
                    "duration": 0.3571424999999948
                },
                {
                    "name": "F#4",
                    "midi": 66,
                    "time": 119.35702349999931,
                    "velocity": 0.9448818897637795,
                    "duration": 0.3571424999999948
                },
                {
                    "name": "D4",
                    "midi": 62,
                    "time": 119.7855944999993,
                    "velocity": 0.9448818897637795,
                    "duration": 0.421428149999997
                },
                {
                    "name": "B3",
                    "midi": 59,
                    "time": 120.2141654999993,
                    "velocity": 0.9448818897637795,
                    "duration": 0.3571424999999948
                },
                {
                    "name": "D4",
                    "midi": 62,
                    "time": 120.64273649999929,
                    "velocity": 0.9448818897637795,
                    "duration": 0.3571424999999948
                },
                {
                    "name": "F#4",
                    "midi": 66,
                    "time": 121.07130749999928,
                    "velocity": 0.9448818897637795,
                    "duration": 0.3571424999999948
                },
                {
                    "name": "D4",
                    "midi": 62,
                    "time": 121.49987849999927,
                    "velocity": 0.9448818897637795,
                    "duration": 0.5714279999999974
                },
                {
                    "name": "B3",
                    "midi": 59,
                    "time": 122.14273499999926,
                    "velocity": 0.9448818897637795,
                    "duration": 0.20714264999999443
                },
                {
                    "name": "D4",
                    "midi": 62,
                    "time": 122.35702049999925,
                    "velocity": 0.9448818897637795,
                    "duration": 0.421428149999997
                },
                {
                    "name": "F#4",
                    "midi": 66,
                    "time": 122.78559149999924,
                    "velocity": 0.9448818897637795,
                    "duration": 0.3571424999999948
                },
                {
                    "name": "D4",
                    "midi": 62,
                    "time": 123.21416249999923,
                    "velocity": 0.9448818897637795,
                    "duration": 0.421428149999997
                },
                {
                    "name": "F#4",
                    "midi": 66,
                    "time": 123.64273349999922,
                    "velocity": 0.9448818897637795,
                    "duration": 0.3571424999999948
                },
                {
                    "name": "G4",
                    "midi": 67,
                    "time": 124.07130449999921,
                    "velocity": 0.9448818897637795,
                    "duration": 0.3571424999999948
                },
                {
                    "name": "A4",
                    "midi": 69,
                    "time": 124.4998754999992,
                    "velocity": 0.9448818897637795,
                    "duration": 0.3571424999999948
                },
                {
                    "name": "B4",
                    "midi": 71,
                    "time": 124.9284464999992,
                    "velocity": 0.9448818897637795,
                    "duration": 0.421428149999997
                },
                {
                    "name": "A4",
                    "midi": 69,
                    "time": 125.35701749999919,
                    "velocity": 0.9448818897637795,
                    "duration": 0.3571424999999948
                },
                {
                    "name": "G4",
                    "midi": 67,
                    "time": 125.78558849999918,
                    "velocity": 0.9448818897637795,
                    "duration": 0.3571424999999948
                },
                {
                    "name": "F#4",
                    "midi": 66,
                    "time": 126.21415949999917,
                    "velocity": 0.9448818897637795,
                    "duration": 0.3571424999999948
                },
                {
                    "name": "D4",
                    "midi": 62,
                    "time": 126.64273049999916,
                    "velocity": 0.9448818897637795,
                    "duration": 0.421428149999997
                },
                {
                    "name": "B3",
                    "midi": 59,
                    "time": 127.07130149999915,
                    "velocity": 0.9448818897637795,
                    "duration": 0.3571424999999948
                },
                {
                    "name": "D4",
                    "midi": 62,
                    "time": 127.49987249999914,
                    "velocity": 0.9448818897637795,
                    "duration": 0.20714264999999443
                },
                {
                    "name": "F#4",
                    "midi": 66,
                    "time": 127.71415799999913,
                    "velocity": 0.9448818897637795,
                    "duration": 0.3571424999999948
                },
                {
                    "name": "D4",
                    "midi": 62,
                    "time": 128.14272899999912,
                    "velocity": 0.9448818897637795,
                    "duration": 0.7857135000000142
                },
                {
                    "name": "B3",
                    "midi": 59,
                    "time": 128.99987099999913,
                    "velocity": 0.9448818897637795,
                    "duration": 0.20714265000000864
                },
                {
                    "name": "D4",
                    "midi": 62,
                    "time": 129.21415649999915,
                    "velocity": 0.9448818897637795,
                    "duration": 0.421428149999997
                },
                {
                    "name": "F#4",
                    "midi": 66,
                    "time": 129.64272749999915,
                    "velocity": 0.9448818897637795,
                    "duration": 0.357142500000009
                },
                {
                    "name": "D4",
                    "midi": 62,
                    "time": 130.07129849999916,
                    "velocity": 0.9448818897637795,
                    "duration": 1.8214267500000005
                }
            ],
            "controlChanges": {
                "7": [
                    {
                        "number": 7,
                        "time": 0,
                        "value": 1
                    }
                ],
                "10": [
                    {
                        "number": 10,
                        "time": 0,
                        "value": 0.5039370078740157
                    }
                ],
                "121": [
                    {
                        "number": 121,
                        "time": 0,
                        "value": 0
                    }
                ],
                "123": [
                    {
                        "number": 123,
                        "time": 0,
                        "value": 0
                    }
                ]
            },
            "id": 7,
            "name": "Melody 2",
            "instrumentNumber": 0,
            "instrument": "acoustic grand piano",
            "instrumentFamily": "piano",
            "channelNumber": 4,
            "isPercussion": false
        },
        {
            "startTime": 3.4285680000000003,
            "duration": 133.6320092249999,
            "length": 306,
            "notes": [
                {
                    "name": "D2",
                    "midi": 38,
                    "time": 3.4285680000000003,
                    "velocity": 0.6850393700787402,
                    "duration": 0.6857135999999997
                },
                {
                    "name": "A2",
                    "midi": 45,
                    "time": 4.0714245,
                    "velocity": 0.6456692913385826,
                    "duration": 0.1071427500000004
                },
                {
                    "name": "A2",
                    "midi": 45,
                    "time": 4.285710000000001,
                    "velocity": 0.7322834645669292,
                    "duration": 0.6071422499999999
                },
                {
                    "name": "D#2",
                    "midi": 39,
                    "time": 4.9285665000000005,
                    "velocity": 0.6456692913385826,
                    "duration": 0.08571419999999996
                },
                {
                    "name": "C2",
                    "midi": 36,
                    "time": 5.142852,
                    "velocity": 0.6456692913385826,
                    "duration": 0.5214280499999999
                },
                {
                    "name": "C2",
                    "midi": 36,
                    "time": 5.7857085,
                    "velocity": 0.6692913385826772,
                    "duration": 0.11428559999999965
                },
                {
                    "name": "C2",
                    "midi": 36,
                    "time": 5.999994,
                    "velocity": 0.6456692913385826,
                    "duration": 0.5928565499999996
                },
                {
                    "name": "C2",
                    "midi": 36,
                    "time": 6.6428505,
                    "velocity": 0.6850393700787402,
                    "duration": 0.13214272499999957
                },
                {
                    "name": "B1",
                    "midi": 35,
                    "time": 6.857136,
                    "velocity": 0.6850393700787402,
                    "duration": 0.6892850249999993
                },
                {
                    "name": "B2",
                    "midi": 47,
                    "time": 7.499992499999999,
                    "velocity": 0.6692913385826772,
                    "duration": 0.8999991000000005
                },
                {
                    "name": "B1",
                    "midi": 35,
                    "time": 8.357134499999999,
                    "velocity": 0.5826771653543307,
                    "duration": 0.22142835000000005
                },
                {
                    "name": "B1",
                    "midi": 35,
                    "time": 8.578562849999999,
                    "velocity": 0.6456692913385826,
                    "duration": 0.6428565000000006
                },
                {
                    "name": "B2",
                    "midi": 47,
                    "time": 9.22141935,
                    "velocity": 0.7480314960629921,
                    "duration": 0.1214284499999998
                },
                {
                    "name": "B2",
                    "midi": 47,
                    "time": 9.428562,
                    "velocity": 0.6456692913385826,
                    "duration": 0.44999954999999936
                },
                {
                    "name": "B1",
                    "midi": 35,
                    "time": 9.857133,
                    "velocity": 0.6850393700787402,
                    "duration": 0.2249997749999988
                },
                {
                    "name": "A#1",
                    "midi": 34,
                    "time": 10.285703999999997,
                    "velocity": 0.6850393700787402,
                    "duration": 0.46785667500000017
                },
                {
                    "name": "A#1",
                    "midi": 34,
                    "time": 10.928560499999998,
                    "velocity": 0.6456692913385826,
                    "duration": 0.196428375
                },
                {
                    "name": "F2",
                    "midi": 41,
                    "time": 11.142845999999999,
                    "velocity": 0.6456692913385826,
                    "duration": 0.6249993749999998
                },
                {
                    "name": "A#1",
                    "midi": 34,
                    "time": 11.7857025,
                    "velocity": 0.7007874015748031,
                    "duration": 0.13214272499999957
                },
                {
                    "name": "A1",
                    "midi": 33,
                    "time": 11.999987999999998,
                    "velocity": 0.6456692913385826,
                    "duration": 0.5214280500000008
                },
                {
                    "name": "A1",
                    "midi": 33,
                    "time": 12.642844499999999,
                    "velocity": 0.6692913385826772,
                    "duration": 0.11428560000000054
                },
                {
                    "name": "A1",
                    "midi": 33,
                    "time": 12.85713,
                    "velocity": 0.6456692913385826,
                    "duration": 0.5928565500000005
                },
                {
                    "name": "A1",
                    "midi": 33,
                    "time": 13.4999865,
                    "velocity": 0.6850393700787402,
                    "duration": 0.13214272499999957
                },
                {
                    "name": "D2",
                    "midi": 38,
                    "time": 13.714272,
                    "velocity": 0.6850393700787402,
                    "duration": 0.6928564500000007
                },
                {
                    "name": "A2",
                    "midi": 45,
                    "time": 14.3571285,
                    "velocity": 0.6456692913385826,
                    "duration": 0.09999990000000025
                },
                {
                    "name": "A2",
                    "midi": 45,
                    "time": 14.571414,
                    "velocity": 0.6850393700787402,
                    "duration": 0.6178565250000005
                },
                {
                    "name": "D2",
                    "midi": 38,
                    "time": 15.214270500000001,
                    "velocity": 0.5984251968503937,
                    "duration": 0.049999950000000126
                },
                {
                    "name": "D#2",
                    "midi": 39,
                    "time": 15.428556000000002,
                    "velocity": 0.6850393700787402,
                    "duration": 0.6857135999999979
                },
                {
                    "name": "A#2",
                    "midi": 46,
                    "time": 16.0714125,
                    "velocity": 0.6456692913385826,
                    "duration": 0.10714274999999773
                },
                {
                    "name": "A#2",
                    "midi": 46,
                    "time": 16.285698,
                    "velocity": 0.7322834645669292,
                    "duration": 0.607142249999999
                },
                {
                    "name": "D#2",
                    "midi": 39,
                    "time": 16.9285545,
                    "velocity": 0.6456692913385826,
                    "duration": 0.08571420000000174
                },
                {
                    "name": "D2",
                    "midi": 38,
                    "time": 17.142840000000003,
                    "velocity": 0.6692913385826772,
                    "duration": 0.49285665000000023
                },
                {
                    "name": "D2",
                    "midi": 38,
                    "time": 17.785696500000004,
                    "velocity": 0.6456692913385826,
                    "duration": 0.17499982500000044
                },
                {
                    "name": "A2",
                    "midi": 45,
                    "time": 17.999982000000003,
                    "velocity": 0.6456692913385826,
                    "duration": 0.6464279250000011
                },
                {
                    "name": "D2",
                    "midi": 38,
                    "time": 18.646409925000004,
                    "velocity": 0.7874015748031497,
                    "duration": 0.1214284499999998
                },
                {
                    "name": "D2",
                    "midi": 38,
                    "time": 18.857124000000002,
                    "velocity": 0.6692913385826772,
                    "duration": 0.7464278250000014
                },
                {
                    "name": "A2",
                    "midi": 45,
                    "time": 19.499980500000003,
                    "velocity": 0.7716535433070866,
                    "duration": 0.1678569749999994
                },
                {
                    "name": "A2",
                    "midi": 45,
                    "time": 19.714266000000002,
                    "velocity": 0.6456692913385826,
                    "duration": 0.7142850000000003
                },
                {
                    "name": "D2",
                    "midi": 38,
                    "time": 20.357122500000003,
                    "velocity": 0.6850393700787402,
                    "duration": 0.17142839999999993
                },
                {
                    "name": "A1",
                    "midi": 33,
                    "time": 20.571408,
                    "velocity": 0.6850393700787402,
                    "duration": 0.6892850250000002
                },
                {
                    "name": "E2",
                    "midi": 40,
                    "time": 21.214264500000002,
                    "velocity": 0.6692913385826772,
                    "duration": 0.8999990999999987
                },
                {
                    "name": "E1",
                    "midi": 28,
                    "time": 22.071406500000002,
                    "velocity": 0.5826771653543307,
                    "duration": 0.22142835000000005
                },
                {
                    "name": "A1",
                    "midi": 33,
                    "time": 22.292834850000002,
                    "velocity": 0.6456692913385826,
                    "duration": 0.6428565000000006
                },
                {
                    "name": "E2",
                    "midi": 40,
                    "time": 22.935691350000003,
                    "velocity": 0.7480314960629921,
                    "duration": 0.1214284499999998
                },
                {
                    "name": "E2",
                    "midi": 40,
                    "time": 23.142834000000004,
                    "velocity": 0.6456692913385826,
                    "duration": 0.44999955000000114
                },
                {
                    "name": "E1",
                    "midi": 28,
                    "time": 23.571405000000006,
                    "velocity": 0.6850393700787402,
                    "duration": 0.22499977500000057
                },
                {
                    "name": "A#1",
                    "midi": 34,
                    "time": 23.999976000000007,
                    "velocity": 0.6692913385826772,
                    "duration": 0.6392850750000001
                },
                {
                    "name": "F2",
                    "midi": 41,
                    "time": 24.642832500000008,
                    "velocity": 0.7165354330708661,
                    "duration": 0.8642848500000007
                },
                {
                    "name": "D3",
                    "midi": 50,
                    "time": 25.499974500000008,
                    "velocity": 0.6299212598425197,
                    "duration": 0.8499991500000021
                },
                {
                    "name": "F2",
                    "midi": 41,
                    "time": 26.35711650000001,
                    "velocity": 0.7007874015748031,
                    "duration": 0.43928527500000314
                },
                {
                    "name": "A#2",
                    "midi": 46,
                    "time": 26.785687500000012,
                    "velocity": 0.7007874015748031,
                    "duration": 0.25357117500000115
                },
                {
                    "name": "F2",
                    "midi": 41,
                    "time": 26.999973000000015,
                    "velocity": 0.49606299212598426,
                    "duration": 0.2107140749999985
                },
                {
                    "name": "A#1",
                    "midi": 34,
                    "time": 27.214258500000014,
                    "velocity": 0.6299212598425197,
                    "duration": 0.12857130000000083
                },
                {
                    "name": "A1",
                    "midi": 33,
                    "time": 27.428544000000016,
                    "velocity": 0.6456692913385826,
                    "duration": 0.5214280500000008
                },
                {
                    "name": "A1",
                    "midi": 33,
                    "time": 28.071400500000017,
                    "velocity": 0.6692913385826772,
                    "duration": 0.11428559999999877
                },
                {
                    "name": "A1",
                    "midi": 33,
                    "time": 28.285686000000016,
                    "velocity": 0.6456692913385826,
                    "duration": 0.5928565500000005
                },
                {
                    "name": "A1",
                    "midi": 33,
                    "time": 28.928542500000017,
                    "velocity": 0.6850393700787402,
                    "duration": 0.13214272500000135
                },
                {
                    "name": "A1",
                    "midi": 33,
                    "time": 29.14282800000002,
                    "velocity": 0.6850393700787402,
                    "duration": 0.46785667500000017
                },
                {
                    "name": "A1",
                    "midi": 33,
                    "time": 29.78568450000002,
                    "velocity": 0.6456692913385826,
                    "duration": 0.196428375
                },
                {
                    "name": "E2",
                    "midi": 40,
                    "time": 29.99997000000002,
                    "velocity": 0.6456692913385826,
                    "duration": 0.6249993750000016
                },
                {
                    "name": "A1",
                    "midi": 33,
                    "time": 30.64282650000002,
                    "velocity": 0.7007874015748031,
                    "duration": 0.13214272500000135
                },
                {
                    "name": "D2",
                    "midi": 38,
                    "time": 30.857112000000022,
                    "velocity": 0.6692913385826772,
                    "duration": 0.7464278250000014
                },
                {
                    "name": "A2",
                    "midi": 45,
                    "time": 31.499968500000023,
                    "velocity": 0.7716535433070866,
                    "duration": 0.1678569749999994
                },
                {
                    "name": "A2",
                    "midi": 45,
                    "time": 31.71425400000002,
                    "velocity": 0.6456692913385826,
                    "duration": 0.7142850000000003
                },
                {
                    "name": "D2",
                    "midi": 38,
                    "time": 32.35711050000002,
                    "velocity": 0.6850393700787402,
                    "duration": 0.17142840000000348
                },
                {
                    "name": "C2",
                    "midi": 36,
                    "time": 32.57139600000002,
                    "velocity": 0.6692913385826772,
                    "duration": 0.49285665000000023
                },
                {
                    "name": "C2",
                    "midi": 36,
                    "time": 33.21425250000002,
                    "velocity": 0.6456692913385826,
                    "duration": 0.17499982500000044
                },
                {
                    "name": "A2",
                    "midi": 45,
                    "time": 33.428538000000025,
                    "velocity": 0.6456692913385826,
                    "duration": 0.6464279249999976
                },
                {
                    "name": "C2",
                    "midi": 36,
                    "time": 34.07496592500002,
                    "velocity": 0.7874015748031497,
                    "duration": 0.12142845000000335
                },
                {
                    "name": "B1",
                    "midi": 35,
                    "time": 34.28568000000003,
                    "velocity": 0.6692913385826772,
                    "duration": 0.6821421750000027
                },
                {
                    "name": "B2",
                    "midi": 47,
                    "time": 34.92853650000003,
                    "velocity": 0.6456692913385826,
                    "duration": 0.09642847500000329
                },
                {
                    "name": "B2",
                    "midi": 47,
                    "time": 35.14282200000003,
                    "velocity": 0.7322834645669292,
                    "duration": 0.6642850500000037
                },
                {
                    "name": "B1",
                    "midi": 35,
                    "time": 35.78567850000003,
                    "velocity": 0.6299212598425197,
                    "duration": 0.08571420000000529
                },
                {
                    "name": "B1",
                    "midi": 35,
                    "time": 35.999964000000034,
                    "velocity": 0.6850393700787402,
                    "duration": 0.6678564750000007
                },
                {
                    "name": "B2",
                    "midi": 47,
                    "time": 36.642820500000035,
                    "velocity": 0.5511811023622047,
                    "duration": 0.07857134999999715
                },
                {
                    "name": "B2",
                    "midi": 47,
                    "time": 36.85710600000003,
                    "velocity": 0.6692913385826772,
                    "duration": 0.46785667500000017
                },
                {
                    "name": "B1",
                    "midi": 35,
                    "time": 37.28567700000003,
                    "velocity": 0.6456692913385826,
                    "duration": 0.2428568999999996
                },
                {
                    "name": "A#1",
                    "midi": 34,
                    "time": 37.714248000000026,
                    "velocity": 0.6456692913385826,
                    "duration": 0.5214280499999973
                },
                {
                    "name": "A#1",
                    "midi": 34,
                    "time": 38.35710450000003,
                    "velocity": 0.6692913385826772,
                    "duration": 0.11428560000000232
                },
                {
                    "name": "A#1",
                    "midi": 34,
                    "time": 38.57139000000003,
                    "velocity": 0.6456692913385826,
                    "duration": 0.5928565500000005
                },
                {
                    "name": "A#1",
                    "midi": 34,
                    "time": 39.21424650000003,
                    "velocity": 0.6850393700787402,
                    "duration": 0.13214272500000135
                },
                {
                    "name": "A1",
                    "midi": 33,
                    "time": 39.42853200000003,
                    "velocity": 0.6456692913385826,
                    "duration": 0.5214280499999973
                },
                {
                    "name": "A1",
                    "midi": 33,
                    "time": 40.07138850000003,
                    "velocity": 0.6692913385826772,
                    "duration": 0.11428560000000232
                },
                {
                    "name": "A1",
                    "midi": 33,
                    "time": 40.285674000000036,
                    "velocity": 0.6456692913385826,
                    "duration": 0.5928565500000005
                },
                {
                    "name": "A1",
                    "midi": 33,
                    "time": 40.928530500000036,
                    "velocity": 0.6850393700787402,
                    "duration": 0.13214272500000135
                },
                {
                    "name": "D2",
                    "midi": 38,
                    "time": 41.14281600000004,
                    "velocity": 0.6692913385826772,
                    "duration": 0.49285665000000023
                },
                {
                    "name": "D2",
                    "midi": 38,
                    "time": 41.78567250000004,
                    "velocity": 0.6456692913385826,
                    "duration": 0.17499982500000044
                },
                {
                    "name": "A2",
                    "midi": 45,
                    "time": 41.99995800000004,
                    "velocity": 0.6456692913385826,
                    "duration": 0.6464279249999976
                },
                {
                    "name": "D2",
                    "midi": 38,
                    "time": 42.64638592500004,
                    "velocity": 0.7874015748031497,
                    "duration": 0.12142845000000335
                },
                {
                    "name": "D2",
                    "midi": 38,
                    "time": 42.857100000000045,
                    "velocity": 0.6850393700787402,
                    "duration": 0.6857135999999997
                },
                {
                    "name": "A2",
                    "midi": 45,
                    "time": 43.499956500000046,
                    "velocity": 0.6456692913385826,
                    "duration": 0.10714275000000129
                },
                {
                    "name": "A2",
                    "midi": 45,
                    "time": 43.71424200000005,
                    "velocity": 0.7322834645669292,
                    "duration": 0.6071422500000025
                },
                {
                    "name": "G#2",
                    "midi": 44,
                    "time": 44.35709850000005,
                    "velocity": 0.6456692913385826,
                    "duration": 0.08571419999999819
                },
                {
                    "name": "G2",
                    "midi": 43,
                    "time": 44.571384000000045,
                    "velocity": 0.6850393700787402,
                    "duration": 0.46785667500000017
                },
                {
                    "name": "G2",
                    "midi": 43,
                    "time": 45.214240500000045,
                    "velocity": 0.6456692913385826,
                    "duration": 0.19642837500000354
                },
                {
                    "name": "D3",
                    "midi": 50,
                    "time": 45.42852600000005,
                    "velocity": 0.6456692913385826,
                    "duration": 0.6249993750000016
                },
                {
                    "name": "G2",
                    "midi": 43,
                    "time": 46.07138250000005,
                    "velocity": 0.7007874015748031,
                    "duration": 0.13214272500000135
                },
                {
                    "name": "A1",
                    "midi": 33,
                    "time": 46.28566800000005,
                    "velocity": 0.6850393700787402,
                    "duration": 0.46785667500000017
                },
                {
                    "name": "A1",
                    "midi": 33,
                    "time": 46.92852450000005,
                    "velocity": 0.6456692913385826,
                    "duration": 0.19642837500000354
                },
                {
                    "name": "E2",
                    "midi": 40,
                    "time": 47.142810000000054,
                    "velocity": 0.6456692913385826,
                    "duration": 0.6249993750000016
                },
                {
                    "name": "A1",
                    "midi": 33,
                    "time": 47.785666500000055,
                    "velocity": 0.7007874015748031,
                    "duration": 0.13214272500000135
                },
                {
                    "name": "D2",
                    "midi": 38,
                    "time": 47.99995200000006,
                    "velocity": 0.6850393700787402,
                    "duration": 0.6928564500000007
                },
                {
                    "name": "A2",
                    "midi": 45,
                    "time": 48.64280850000006,
                    "velocity": 0.6456692913385826,
                    "duration": 0.09999990000000025
                },
                {
                    "name": "A2",
                    "midi": 45,
                    "time": 48.85709400000006,
                    "velocity": 0.6850393700787402,
                    "duration": 0.6178565250000005
                },
                {
                    "name": "G#1",
                    "midi": 32,
                    "time": 49.49995050000006,
                    "velocity": 0.5984251968503937,
                    "duration": 0.049999950000000126
                },
                {
                    "name": "C2",
                    "midi": 36,
                    "time": 49.714236000000064,
                    "velocity": 0.6456692913385826,
                    "duration": 0.5214280499999973
                },
                {
                    "name": "C2",
                    "midi": 36,
                    "time": 50.357092500000064,
                    "velocity": 0.6692913385826772,
                    "duration": 0.11428560000000232
                },
                {
                    "name": "C2",
                    "midi": 36,
                    "time": 50.57137800000007,
                    "velocity": 0.6456692913385826,
                    "duration": 0.5928565500000005
                },
                {
                    "name": "C2",
                    "midi": 36,
                    "time": 51.21423450000007,
                    "velocity": 0.6850393700787402,
                    "duration": 0.13214272500000135
                },
                {
                    "name": "B1",
                    "midi": 35,
                    "time": 51.42852000000007,
                    "velocity": 0.6850393700787402,
                    "duration": 0.6928564500000007
                },
                {
                    "name": "B2",
                    "midi": 47,
                    "time": 52.07137650000007,
                    "velocity": 0.6456692913385826,
                    "duration": 0.09999990000000025
                },
                {
                    "name": "B2",
                    "midi": 47,
                    "time": 52.28566200000007,
                    "velocity": 0.6850393700787402,
                    "duration": 0.6178565250000005
                },
                {
                    "name": "A1",
                    "midi": 33,
                    "time": 52.928518500000074,
                    "velocity": 0.5984251968503937,
                    "duration": 0.049999950000000126
                },
                {
                    "name": "A#1",
                    "midi": 34,
                    "time": 53.142804000000076,
                    "velocity": 0.6850393700787402,
                    "duration": 0.7142850000000038
                },
                {
                    "name": "A#1",
                    "midi": 34,
                    "time": 53.78566050000008,
                    "velocity": 0.5039370078740157,
                    "duration": 0.16428555000000244
                },
                {
                    "name": "A1",
                    "midi": 33,
                    "time": 53.99994600000008,
                    "velocity": 0.6850393700787402,
                    "duration": 0.7142850000000038
                },
                {
                    "name": "D#2",
                    "midi": 39,
                    "time": 54.64280250000008,
                    "velocity": 0.5039370078740157,
                    "duration": 0.16428555000000244
                },
                {
                    "name": "D2",
                    "midi": 38,
                    "time": 54.85708800000008,
                    "velocity": 0.6850393700787402,
                    "duration": 0.46785667500000017
                },
                {
                    "name": "D2",
                    "midi": 38,
                    "time": 55.49994450000008,
                    "velocity": 0.6456692913385826,
                    "duration": 0.19642837500000354
                },
                {
                    "name": "A2",
                    "midi": 45,
                    "time": 55.714230000000086,
                    "velocity": 0.6456692913385826,
                    "duration": 0.6249993750000016
                },
                {
                    "name": "D2",
                    "midi": 38,
                    "time": 56.35708650000009,
                    "velocity": 0.7007874015748031,
                    "duration": 0.13214272500000135
                },
                {
                    "name": "E2",
                    "midi": 40,
                    "time": 56.57137200000009,
                    "velocity": 0.6850393700787402,
                    "duration": 0.7142850000000038
                },
                {
                    "name": "A#1",
                    "midi": 34,
                    "time": 57.21422850000009,
                    "velocity": 0.5039370078740157,
                    "duration": 0.16428555000000244
                },
                {
                    "name": "A1",
                    "midi": 33,
                    "time": 57.42851400000009,
                    "velocity": 0.6850393700787402,
                    "duration": 0.5892851250000035
                },
                {
                    "name": "A1",
                    "midi": 33,
                    "time": 58.07137050000009,
                    "velocity": 0.6850393700787402,
                    "duration": 0.21428550000000257
                },
                {
                    "name": "D2",
                    "midi": 38,
                    "time": 58.285656000000095,
                    "velocity": 0.6692913385826772,
                    "duration": 0.7464278249999978
                },
                {
                    "name": "A2",
                    "midi": 45,
                    "time": 58.928512500000096,
                    "velocity": 0.7716535433070866,
                    "duration": 0.1678569749999994
                },
                {
                    "name": "A2",
                    "midi": 45,
                    "time": 59.1427980000001,
                    "velocity": 0.6456692913385826,
                    "duration": 0.7142850000000038
                },
                {
                    "name": "D2",
                    "midi": 38,
                    "time": 59.7856545000001,
                    "velocity": 0.6850393700787402,
                    "duration": 0.17142840000000348
                },
                {
                    "name": "B1",
                    "midi": 35,
                    "time": 59.9999400000001,
                    "velocity": 0.6692913385826772,
                    "duration": 0.49285665000000023
                },
                {
                    "name": "B1",
                    "midi": 35,
                    "time": 60.6427965000001,
                    "velocity": 0.6456692913385826,
                    "duration": 0.17499982500000044
                },
                {
                    "name": "F#2",
                    "midi": 42,
                    "time": 60.857082000000105,
                    "velocity": 0.6456692913385826,
                    "duration": 0.6464279249999976
                },
                {
                    "name": "B1",
                    "midi": 35,
                    "time": 61.5035099250001,
                    "velocity": 0.7874015748031497,
                    "duration": 0.12142845000000335
                },
                {
                    "name": "E2",
                    "midi": 40,
                    "time": 61.71422400000011,
                    "velocity": 0.6692913385826772,
                    "duration": 0.49285665000000023
                },
                {
                    "name": "E2",
                    "midi": 40,
                    "time": 62.35708050000011,
                    "velocity": 0.6456692913385826,
                    "duration": 0.17499982500000044
                },
                {
                    "name": "B2",
                    "midi": 47,
                    "time": 62.57136600000011,
                    "velocity": 0.6456692913385826,
                    "duration": 0.6464279249999976
                },
                {
                    "name": "E2",
                    "midi": 40,
                    "time": 63.21779392500011,
                    "velocity": 0.7874015748031497,
                    "duration": 0.12142845000000335
                },
                {
                    "name": "E2",
                    "midi": 40,
                    "time": 63.428508000000114,
                    "velocity": 0.6850393700787402,
                    "duration": 0.6928564500000007
                },
                {
                    "name": "B2",
                    "midi": 47,
                    "time": 64.07136450000012,
                    "velocity": 0.6456692913385826,
                    "duration": 0.09999990000000025
                },
                {
                    "name": "B2",
                    "midi": 47,
                    "time": 64.28565000000012,
                    "velocity": 0.6850393700787402,
                    "duration": 0.6178565249999934
                },
                {
                    "name": "D#2",
                    "midi": 39,
                    "time": 64.92850650000011,
                    "velocity": 0.5984251968503937,
                    "duration": 0.049999950000000126
                },
                {
                    "name": "E2",
                    "midi": 40,
                    "time": 65.14279200000011,
                    "velocity": 0.6692913385826772,
                    "duration": 0.4928566499999931
                },
                {
                    "name": "E2",
                    "midi": 40,
                    "time": 65.78564850000011,
                    "velocity": 0.6456692913385826,
                    "duration": 0.17499982500000044
                },
                {
                    "name": "B2",
                    "midi": 47,
                    "time": 65.99993400000011,
                    "velocity": 0.6456692913385826,
                    "duration": 0.6464279249999976
                },
                {
                    "name": "E2",
                    "midi": 40,
                    "time": 66.64636192500011,
                    "velocity": 0.7874015748031497,
                    "duration": 0.12142844999999625
                },
                {
                    "name": "A1",
                    "midi": 33,
                    "time": 66.8570760000001,
                    "velocity": 0.6692913385826772,
                    "duration": 0.4928566499999931
                },
                {
                    "name": "A1",
                    "midi": 33,
                    "time": 67.4999325000001,
                    "velocity": 0.6456692913385826,
                    "duration": 0.17499982500000044
                },
                {
                    "name": "E2",
                    "midi": 40,
                    "time": 67.7142180000001,
                    "velocity": 0.6456692913385826,
                    "duration": 0.6464279249999976
                },
                {
                    "name": "A1",
                    "midi": 33,
                    "time": 68.3606459250001,
                    "velocity": 0.7874015748031497,
                    "duration": 0.12142844999999625
                },
                {
                    "name": "D2",
                    "midi": 38,
                    "time": 68.5713600000001,
                    "velocity": 0.6850393700787402,
                    "duration": 0.46785667499999306
                },
                {
                    "name": "D2",
                    "midi": 38,
                    "time": 69.21421650000009,
                    "velocity": 0.6456692913385826,
                    "duration": 0.19642837499999644
                },
                {
                    "name": "G#2",
                    "midi": 44,
                    "time": 69.4285020000001,
                    "velocity": 0.6456692913385826,
                    "duration": 0.6249993750000016
                },
                {
                    "name": "D2",
                    "midi": 38,
                    "time": 70.0713585000001,
                    "velocity": 0.7007874015748031,
                    "duration": 0.13214272499999424
                },
                {
                    "name": "D2",
                    "midi": 38,
                    "time": 70.28564400000009,
                    "velocity": 0.6850393700787402,
                    "duration": 0.6928564499999936
                },
                {
                    "name": "A2",
                    "midi": 45,
                    "time": 70.92850050000008,
                    "velocity": 0.6456692913385826,
                    "duration": 0.09999990000000025
                },
                {
                    "name": "A2",
                    "midi": 45,
                    "time": 71.14278600000009,
                    "velocity": 0.6850393700787402,
                    "duration": 0.6178565249999934
                },
                {
                    "name": "C#2",
                    "midi": 37,
                    "time": 71.78564250000008,
                    "velocity": 0.5984251968503937,
                    "duration": 0.049999950000000126
                },
                {
                    "name": "D2",
                    "midi": 38,
                    "time": 71.99992800000008,
                    "velocity": 0.6850393700787402,
                    "duration": 0.6857135999999997
                },
                {
                    "name": "A2",
                    "midi": 45,
                    "time": 72.64278450000008,
                    "velocity": 0.6456692913385826,
                    "duration": 0.10714275000000839
                },
                {
                    "name": "A2",
                    "midi": 45,
                    "time": 72.85707000000008,
                    "velocity": 0.7322834645669292,
                    "duration": 0.6071422499999954
                },
                {
                    "name": "D#2",
                    "midi": 39,
                    "time": 73.49992650000007,
                    "velocity": 0.6456692913385826,
                    "duration": 0.08571419999999819
                },
                {
                    "name": "D2",
                    "midi": 38,
                    "time": 73.71421200000007,
                    "velocity": 0.6850393700787402,
                    "duration": 0.46785667499999306
                },
                {
                    "name": "D2",
                    "midi": 38,
                    "time": 74.35706850000007,
                    "velocity": 0.6456692913385826,
                    "duration": 0.19642837499999644
                },
                {
                    "name": "G#2",
                    "midi": 44,
                    "time": 74.57135400000007,
                    "velocity": 0.6456692913385826,
                    "duration": 0.6249993750000016
                },
                {
                    "name": "D2",
                    "midi": 38,
                    "time": 75.21421050000008,
                    "velocity": 0.7007874015748031,
                    "duration": 0.13214272499999424
                },
                {
                    "name": "E3",
                    "midi": 52,
                    "time": 75.42849600000007,
                    "velocity": 0.7716535433070866,
                    "duration": 0.5571422999999953
                },
                {
                    "name": "A#2",
                    "midi": 46,
                    "time": 76.07135250000006,
                    "velocity": 0.7716535433070866,
                    "duration": 0.21785692500000664
                },
                {
                    "name": "B2",
                    "midi": 47,
                    "time": 76.28920942500007,
                    "velocity": 0.6299212598425197,
                    "duration": 0.6535707750000057
                },
                {
                    "name": "D#2",
                    "midi": 39,
                    "time": 76.92849450000007,
                    "velocity": 0.6141732283464567,
                    "duration": 0.21785692500000664
                },
                {
                    "name": "E2",
                    "midi": 40,
                    "time": 77.14635142500008,
                    "velocity": 0.5984251968503937,
                    "duration": 0.6142851000000036
                },
                {
                    "name": "A#1",
                    "midi": 34,
                    "time": 77.78563650000008,
                    "velocity": 0.7007874015748031,
                    "duration": 0.2214283499999965
                },
                {
                    "name": "B1",
                    "midi": 35,
                    "time": 78.00706485000008,
                    "velocity": 0.6850393700787402,
                    "duration": 0.5964279749999974
                },
                {
                    "name": "A1",
                    "midi": 33,
                    "time": 78.00706485000008,
                    "velocity": 0.5196850393700787,
                    "duration": 0.024999975000000063
                },
                {
                    "name": "E2",
                    "midi": 40,
                    "time": 78.64277850000008,
                    "velocity": 0.6692913385826772,
                    "duration": 0.13928557500000238
                },
                {
                    "name": "E3",
                    "midi": 52,
                    "time": 78.85706400000008,
                    "velocity": 0.7716535433070866,
                    "duration": 0.5571422999999953
                },
                {
                    "name": "A#2",
                    "midi": 46,
                    "time": 79.49992050000007,
                    "velocity": 0.7716535433070866,
                    "duration": 0.21785692500000664
                },
                {
                    "name": "B2",
                    "midi": 47,
                    "time": 79.71777742500008,
                    "velocity": 0.6299212598425197,
                    "duration": 0.6535707750000057
                },
                {
                    "name": "D#2",
                    "midi": 39,
                    "time": 80.35706250000008,
                    "velocity": 0.6141732283464567,
                    "duration": 0.21785692500000664
                },
                {
                    "name": "E2",
                    "midi": 40,
                    "time": 80.57491942500009,
                    "velocity": 0.5984251968503937,
                    "duration": 0.6142851000000036
                },
                {
                    "name": "A#1",
                    "midi": 34,
                    "time": 81.2142045000001,
                    "velocity": 0.7007874015748031,
                    "duration": 0.2214283499999965
                },
                {
                    "name": "B1",
                    "midi": 35,
                    "time": 81.43563285000009,
                    "velocity": 0.6850393700787402,
                    "duration": 0.5964279749999974
                },
                {
                    "name": "A1",
                    "midi": 33,
                    "time": 81.43563285000009,
                    "velocity": 0.5196850393700787,
                    "duration": 0.024999975000000063
                },
                {
                    "name": "E2",
                    "midi": 40,
                    "time": 82.07134650000009,
                    "velocity": 0.6692913385826772,
                    "duration": 0.13928557500000238
                },
                {
                    "name": "A#1",
                    "midi": 34,
                    "time": 82.28563200000009,
                    "velocity": 0.6850393700787402,
                    "duration": 0.6928564499999936
                },
                {
                    "name": "D3",
                    "midi": 50,
                    "time": 82.92848850000009,
                    "velocity": 0.6456692913385826,
                    "duration": 0.09999990000000025
                },
                {
                    "name": "D3",
                    "midi": 50,
                    "time": 83.14277400000009,
                    "velocity": 0.6850393700787402,
                    "duration": 0.6178565249999934
                },
                {
                    "name": "G#1",
                    "midi": 32,
                    "time": 83.78563050000008,
                    "velocity": 0.5984251968503937,
                    "duration": 0.049999950000000126
                },
                {
                    "name": "A1",
                    "midi": 33,
                    "time": 83.99991600000008,
                    "velocity": 0.6850393700787402,
                    "duration": 0.6857135999999997
                },
                {
                    "name": "E2",
                    "midi": 40,
                    "time": 84.64277250000008,
                    "velocity": 0.6456692913385826,
                    "duration": 0.10714275000000839
                },
                {
                    "name": "E2",
                    "midi": 40,
                    "time": 84.85705800000008,
                    "velocity": 0.7322834645669292,
                    "duration": 0.6071422499999954
                },
                {
                    "name": "D#2",
                    "midi": 39,
                    "time": 85.49991450000007,
                    "velocity": 0.6456692913385826,
                    "duration": 0.08571419999999819
                },
                {
                    "name": "D2",
                    "midi": 38,
                    "time": 85.71420000000008,
                    "velocity": 0.6850393700787402,
                    "duration": 0.46785667499999306
                },
                {
                    "name": "D2",
                    "midi": 38,
                    "time": 86.35705650000007,
                    "velocity": 0.6456692913385826,
                    "duration": 0.19642837499999644
                },
                {
                    "name": "A2",
                    "midi": 45,
                    "time": 86.57134200000007,
                    "velocity": 0.6456692913385826,
                    "duration": 0.6249993750000016
                },
                {
                    "name": "D2",
                    "midi": 38,
                    "time": 87.21419850000008,
                    "velocity": 0.7007874015748031,
                    "duration": 0.13214272499999424
                },
                {
                    "name": "B1",
                    "midi": 35,
                    "time": 87.42848400000007,
                    "velocity": 0.6850393700787402,
                    "duration": 0.46785667499999306
                },
                {
                    "name": "B1",
                    "midi": 35,
                    "time": 88.07134050000006,
                    "velocity": 0.6456692913385826,
                    "duration": 0.19642837499999644
                },
                {
                    "name": "F#2",
                    "midi": 42,
                    "time": 88.28562600000006,
                    "velocity": 0.6456692913385826,
                    "duration": 0.6249993750000016
                },
                {
                    "name": "B1",
                    "midi": 35,
                    "time": 88.92848250000007,
                    "velocity": 0.7007874015748031,
                    "duration": 0.13214272499999424
                },
                {
                    "name": "E2",
                    "midi": 40,
                    "time": 89.14276800000006,
                    "velocity": 0.6692913385826772,
                    "duration": 0.5464280249999973
                },
                {
                    "name": "A#2",
                    "midi": 46,
                    "time": 89.78562450000005,
                    "velocity": 0.7874015748031497,
                    "duration": 0.21428550000000257
                },
                {
                    "name": "B2",
                    "midi": 47,
                    "time": 89.99991000000006,
                    "velocity": 0.6850393700787402,
                    "duration": 0.6178565249999934
                },
                {
                    "name": "D#3",
                    "midi": 51,
                    "time": 90.64276650000005,
                    "velocity": 0.7007874015748031,
                    "duration": 0.14285700000000645
                },
                {
                    "name": "E3",
                    "midi": 52,
                    "time": 90.85705200000005,
                    "velocity": 0.7165354330708661,
                    "duration": 0.6285708000000056
                },
                {
                    "name": "A#2",
                    "midi": 46,
                    "time": 91.49990850000006,
                    "velocity": 0.6299212598425197,
                    "duration": 0.2107140749999985
                },
                {
                    "name": "B2",
                    "midi": 47,
                    "time": 91.71419400000006,
                    "velocity": 0.6456692913385826,
                    "duration": 0.4428567000000072
                },
                {
                    "name": "B1",
                    "midi": 35,
                    "time": 92.14276500000007,
                    "velocity": 0.6456692913385826,
                    "duration": 0.2321426250000087
                },
                {
                    "name": "F#3",
                    "midi": 54,
                    "time": 92.57133600000007,
                    "velocity": 0.7716535433070866,
                    "duration": 0.5571422999999953
                },
                {
                    "name": "C3",
                    "midi": 48,
                    "time": 93.21419250000007,
                    "velocity": 0.7716535433070866,
                    "duration": 0.21785692500000664
                },
                {
                    "name": "C#3",
                    "midi": 49,
                    "time": 93.43204942500007,
                    "velocity": 0.6299212598425197,
                    "duration": 0.6535707750000057
                },
                {
                    "name": "F2",
                    "midi": 41,
                    "time": 94.07133450000008,
                    "velocity": 0.6141732283464567,
                    "duration": 0.21785692500000664
                },
                {
                    "name": "F#2",
                    "midi": 42,
                    "time": 94.28919142500008,
                    "velocity": 0.5984251968503937,
                    "duration": 0.6142851000000036
                },
                {
                    "name": "C2",
                    "midi": 36,
                    "time": 94.92847650000009,
                    "velocity": 0.7007874015748031,
                    "duration": 0.2214283499999965
                },
                {
                    "name": "C#2",
                    "midi": 37,
                    "time": 95.14990485000008,
                    "velocity": 0.6850393700787402,
                    "duration": 0.5964279749999974
                },
                {
                    "name": "B1",
                    "midi": 35,
                    "time": 95.14990485000008,
                    "velocity": 0.5196850393700787,
                    "duration": 0.024999975000000063
                },
                {
                    "name": "F#2",
                    "midi": 42,
                    "time": 95.78561850000008,
                    "velocity": 0.6692913385826772,
                    "duration": 0.13928557500000238
                },
                {
                    "name": "B1",
                    "midi": 35,
                    "time": 95.99990400000009,
                    "velocity": 0.6850393700787402,
                    "duration": 0.5892851250000035
                },
                {
                    "name": "B1",
                    "midi": 35,
                    "time": 96.6427605000001,
                    "velocity": 0.6850393700787402,
                    "duration": 0.21428550000000257
                },
                {
                    "name": "A#1",
                    "midi": 34,
                    "time": 96.8570460000001,
                    "velocity": 0.7716535433070866,
                    "duration": 0.43571384999999907
                },
                {
                    "name": "F2",
                    "midi": 41,
                    "time": 97.2856170000001,
                    "velocity": 0.7007874015748031,
                    "duration": 0.22857119999999043
                },
                {
                    "name": "F1",
                    "midi": 29,
                    "time": 97.49990250000009,
                    "velocity": 0.6299212598425197,
                    "duration": 0.15714270000000852
                },
                {
                    "name": "A1",
                    "midi": 33,
                    "time": 97.71418800000009,
                    "velocity": 0.6850393700787402,
                    "duration": 0.7142849999999896
                },
                {
                    "name": "D#2",
                    "midi": 39,
                    "time": 98.35704450000009,
                    "velocity": 0.5039370078740157,
                    "duration": 0.16428555000000244
                },
                {
                    "name": "D2",
                    "midi": 38,
                    "time": 98.59275855000008,
                    "velocity": 0.6692913385826772,
                    "duration": 0.5642851500000035
                },
                {
                    "name": "D2",
                    "midi": 38,
                    "time": 99.22847220000008,
                    "velocity": 0.6692913385826772,
                    "duration": 0.1999998000000005
                },
                {
                    "name": "G2",
                    "midi": 43,
                    "time": 99.42847200000008,
                    "velocity": 0.6850393700787402,
                    "duration": 0.6928564499999936
                },
                {
                    "name": "D3",
                    "midi": 50,
                    "time": 100.07132850000008,
                    "velocity": 0.6456692913385826,
                    "duration": 0.09999990000000025
                },
                {
                    "name": "D3",
                    "midi": 50,
                    "time": 100.28561400000008,
                    "velocity": 0.6850393700787402,
                    "duration": 0.6178565249999934
                },
                {
                    "name": "F#2",
                    "midi": 42,
                    "time": 100.92847050000007,
                    "velocity": 0.5984251968503937,
                    "duration": 0.049999950000000126
                },
                {
                    "name": "G2",
                    "midi": 43,
                    "time": 101.14275600000008,
                    "velocity": 0.6692913385826772,
                    "duration": 0.4928566499999931
                },
                {
                    "name": "G2",
                    "midi": 43,
                    "time": 101.78561250000007,
                    "velocity": 0.6456692913385826,
                    "duration": 0.17499982500000044
                },
                {
                    "name": "D3",
                    "midi": 50,
                    "time": 101.99989800000007,
                    "velocity": 0.6456692913385826,
                    "duration": 0.6464279249999976
                },
                {
                    "name": "G2",
                    "midi": 43,
                    "time": 102.64632592500007,
                    "velocity": 0.7874015748031497,
                    "duration": 0.12142844999999625
                },
                {
                    "name": "F#2",
                    "midi": 42,
                    "time": 102.85704000000007,
                    "velocity": 0.6850393700787402,
                    "duration": 0.46785667499999306
                },
                {
                    "name": "F#2",
                    "midi": 42,
                    "time": 103.49989650000006,
                    "velocity": 0.6456692913385826,
                    "duration": 0.19642837499999644
                },
                {
                    "name": "C#3",
                    "midi": 49,
                    "time": 103.71418200000006,
                    "velocity": 0.6456692913385826,
                    "duration": 0.6249993750000016
                },
                {
                    "name": "F#2",
                    "midi": 42,
                    "time": 104.35703850000007,
                    "velocity": 0.7007874015748031,
                    "duration": 0.13214272499999424
                },
                {
                    "name": "B1",
                    "midi": 35,
                    "time": 104.57132400000006,
                    "velocity": 0.6850393700787402,
                    "duration": 0.5892851250000035
                },
                {
                    "name": "B1",
                    "midi": 35,
                    "time": 105.21418050000007,
                    "velocity": 0.6850393700787402,
                    "duration": 0.21428550000000257
                },
                {
                    "name": "B1",
                    "midi": 35,
                    "time": 105.42846600000007,
                    "velocity": 0.6850393700787402,
                    "duration": 0.5892851250000035
                },
                {
                    "name": "B1",
                    "midi": 35,
                    "time": 106.07132250000008,
                    "velocity": 0.6850393700787402,
                    "duration": 0.21428550000000257
                },
                {
                    "name": "E2",
                    "midi": 40,
                    "time": 106.28560800000008,
                    "velocity": 0.6850393700787402,
                    "duration": 0.6857135999999997
                },
                {
                    "name": "B2",
                    "midi": 47,
                    "time": 106.92846450000008,
                    "velocity": 0.6456692913385826,
                    "duration": 0.10714275000000839
                },
                {
                    "name": "B2",
                    "midi": 47,
                    "time": 107.14275000000008,
                    "velocity": 0.7322834645669292,
                    "duration": 0.6071422499999954
                },
                {
                    "name": "A#1",
                    "midi": 34,
                    "time": 107.78560650000007,
                    "velocity": 0.6456692913385826,
                    "duration": 0.08571419999999819
                },
                {
                    "name": "A1",
                    "midi": 33,
                    "time": 107.99989200000007,
                    "velocity": 0.6692913385826772,
                    "duration": 0.4928566499999931
                },
                {
                    "name": "A1",
                    "midi": 33,
                    "time": 108.64274850000007,
                    "velocity": 0.6456692913385826,
                    "duration": 0.17499982500000044
                },
                {
                    "name": "E2",
                    "midi": 40,
                    "time": 108.85703400000007,
                    "velocity": 0.6456692913385826,
                    "duration": 0.6464279249999976
                },
                {
                    "name": "A1",
                    "midi": 33,
                    "time": 109.50346192500007,
                    "velocity": 0.7874015748031497,
                    "duration": 0.12142844999999625
                },
                {
                    "name": "F#2",
                    "midi": 42,
                    "time": 109.71417600000007,
                    "velocity": 0.6850393700787402,
                    "duration": 0.7142849999999896
                },
                {
                    "name": "G2",
                    "midi": 43,
                    "time": 110.35703250000006,
                    "velocity": 0.5039370078740157,
                    "duration": 0.16428555000000244
                },
                {
                    "name": "F#2",
                    "midi": 42,
                    "time": 110.57131800000006,
                    "velocity": 0.6850393700787402,
                    "duration": 0.5892851250000035
                },
                {
                    "name": "F#2",
                    "midi": 42,
                    "time": 111.21417450000007,
                    "velocity": 0.6850393700787402,
                    "duration": 0.21428550000000257
                },
                {
                    "name": "B1",
                    "midi": 35,
                    "time": 111.42846000000007,
                    "velocity": 0.6850393700787402,
                    "duration": 0.6928564499999936
                },
                {
                    "name": "F#2",
                    "midi": 42,
                    "time": 112.07131650000007,
                    "velocity": 0.6456692913385826,
                    "duration": 0.09999990000000025
                },
                {
                    "name": "F#2",
                    "midi": 42,
                    "time": 112.28560200000007,
                    "velocity": 0.6850393700787402,
                    "duration": 0.6178565249999934
                },
                {
                    "name": "D#2",
                    "midi": 39,
                    "time": 112.92845850000006,
                    "velocity": 0.5984251968503937,
                    "duration": 0.049999950000000126
                },
                {
                    "name": "E2",
                    "midi": 40,
                    "time": 113.14274400000006,
                    "velocity": 0.6456692913385826,
                    "duration": 0.5214280499999973
                },
                {
                    "name": "E2",
                    "midi": 40,
                    "time": 113.78560050000006,
                    "velocity": 0.6692913385826772,
                    "duration": 0.11428560000000232
                },
                {
                    "name": "E2",
                    "midi": 40,
                    "time": 113.99988600000006,
                    "velocity": 0.6456692913385826,
                    "duration": 0.5928565499999934
                },
                {
                    "name": "E2",
                    "midi": 40,
                    "time": 114.64274250000005,
                    "velocity": 0.6850393700787402,
                    "duration": 0.13214272499999424
                },
                {
                    "name": "A1",
                    "midi": 33,
                    "time": 114.85702800000004,
                    "velocity": 0.6456692913385826,
                    "duration": 0.5214280499999973
                },
                {
                    "name": "A1",
                    "midi": 33,
                    "time": 115.49988450000004,
                    "velocity": 0.6692913385826772,
                    "duration": 0.11428560000000232
                },
                {
                    "name": "A1",
                    "midi": 33,
                    "time": 115.71417000000004,
                    "velocity": 0.6456692913385826,
                    "duration": 0.5928565499999934
                },
                {
                    "name": "A1",
                    "midi": 33,
                    "time": 116.35702650000003,
                    "velocity": 0.6850393700787402,
                    "duration": 0.13214272499999424
                },
                {
                    "name": "D2",
                    "midi": 38,
                    "time": 116.59274055000003,
                    "velocity": 0.6692913385826772,
                    "duration": 0.5642851500000035
                },
                {
                    "name": "D2",
                    "midi": 38,
                    "time": 117.22845420000003,
                    "velocity": 0.6692913385826772,
                    "duration": 0.1999998000000005
                },
                {
                    "name": "C2",
                    "midi": 36,
                    "time": 117.42845400000003,
                    "velocity": 0.6850393700787402,
                    "duration": 0.7142849999999896
                },
                {
                    "name": "C2",
                    "midi": 36,
                    "time": 118.07131050000002,
                    "velocity": 0.5039370078740157,
                    "duration": 0.16428555000000244
                },
                {
                    "name": "B1",
                    "midi": 35,
                    "time": 118.28559600000003,
                    "velocity": 0.6692913385826772,
                    "duration": 0.4928566499999931
                },
                {
                    "name": "B1",
                    "midi": 35,
                    "time": 118.92845250000002,
                    "velocity": 0.6456692913385826,
                    "duration": 0.17499982500000044
                },
                {
                    "name": "F#2",
                    "midi": 42,
                    "time": 119.14273800000002,
                    "velocity": 0.6456692913385826,
                    "duration": 0.6464279249999976
                },
                {
                    "name": "B1",
                    "midi": 35,
                    "time": 119.78916592500002,
                    "velocity": 0.7874015748031497,
                    "duration": 0.12142844999999625
                },
                {
                    "name": "E2",
                    "midi": 40,
                    "time": 119.99988000000002,
                    "velocity": 0.6850393700787402,
                    "duration": 0.6857135999999997
                },
                {
                    "name": "B2",
                    "midi": 47,
                    "time": 120.64273650000001,
                    "velocity": 0.6456692913385826,
                    "duration": 0.10714275000000839
                },
                {
                    "name": "B2",
                    "midi": 47,
                    "time": 120.85702200000001,
                    "velocity": 0.7322834645669292,
                    "duration": 0.6071422499999954
                },
                {
                    "name": "A#1",
                    "midi": 34,
                    "time": 121.49987850000001,
                    "velocity": 0.6456692913385826,
                    "duration": 0.08571419999999819
                },
                {
                    "name": "A1",
                    "midi": 33,
                    "time": 121.71416400000001,
                    "velocity": 0.6692913385826772,
                    "duration": 0.4928566499999931
                },
                {
                    "name": "A1",
                    "midi": 33,
                    "time": 122.3570205,
                    "velocity": 0.6456692913385826,
                    "duration": 0.17499982500000044
                },
                {
                    "name": "E2",
                    "midi": 40,
                    "time": 122.571306,
                    "velocity": 0.6456692913385826,
                    "duration": 0.6464279249999976
                },
                {
                    "name": "A1",
                    "midi": 33,
                    "time": 123.217733925,
                    "velocity": 0.7874015748031497,
                    "duration": 0.12142844999999625
                },
                {
                    "name": "D2",
                    "midi": 38,
                    "time": 123.428448,
                    "velocity": 0.7716535433070866,
                    "duration": 0.43571384999999907
                },
                {
                    "name": "A2",
                    "midi": 45,
                    "time": 123.85701900000001,
                    "velocity": 0.7007874015748031,
                    "duration": 0.22857119999999043
                },
                {
                    "name": "A1",
                    "midi": 33,
                    "time": 124.0713045,
                    "velocity": 0.6299212598425197,
                    "duration": 0.15714270000000852
                },
                {
                    "name": "C2",
                    "midi": 36,
                    "time": 124.28559,
                    "velocity": 0.6850393700787402,
                    "duration": 0.7142849999999896
                },
                {
                    "name": "C2",
                    "midi": 36,
                    "time": 124.92844649999999,
                    "velocity": 0.5039370078740157,
                    "duration": 0.16428555000000244
                },
                {
                    "name": "B1",
                    "midi": 35,
                    "time": 125.142732,
                    "velocity": 0.6850393700787402,
                    "duration": 0.6928564499999936
                },
                {
                    "name": "F#2",
                    "midi": 42,
                    "time": 125.78558849999999,
                    "velocity": 0.6456692913385826,
                    "duration": 0.09999990000000025
                },
                {
                    "name": "F#2",
                    "midi": 42,
                    "time": 125.99987399999999,
                    "velocity": 0.6850393700787402,
                    "duration": 0.6178565249999934
                },
                {
                    "name": "D#2",
                    "midi": 39,
                    "time": 126.64273049999998,
                    "velocity": 0.5984251968503937,
                    "duration": 0.049999950000000126
                },
                {
                    "name": "E2",
                    "midi": 40,
                    "time": 126.85701599999999,
                    "velocity": 0.6850393700787402,
                    "duration": 0.6857135999999997
                },
                {
                    "name": "B2",
                    "midi": 47,
                    "time": 127.49987249999998,
                    "velocity": 0.6456692913385826,
                    "duration": 0.10714275000000839
                },
                {
                    "name": "B2",
                    "midi": 47,
                    "time": 127.71415799999998,
                    "velocity": 0.7322834645669292,
                    "duration": 0.6071422499999954
                },
                {
                    "name": "A#1",
                    "midi": 34,
                    "time": 128.3570145,
                    "velocity": 0.6456692913385826,
                    "duration": 0.0857142000000124
                },
                {
                    "name": "A1",
                    "midi": 33,
                    "time": 128.5713,
                    "velocity": 0.6850393700787402,
                    "duration": 0.6928564499999936
                },
                {
                    "name": "E2",
                    "midi": 40,
                    "time": 129.2141565,
                    "velocity": 0.6456692913385826,
                    "duration": 0.09999990000000025
                },
                {
                    "name": "E2",
                    "midi": 40,
                    "time": 129.428442,
                    "velocity": 0.6850393700787402,
                    "duration": 0.6178565250000077
                },
                {
                    "name": "C#2",
                    "midi": 37,
                    "time": 130.07129849999998,
                    "velocity": 0.5984251968503937,
                    "duration": 0.049999950000000126
                },
                {
                    "name": "D2",
                    "midi": 38,
                    "time": 130.28558399999997,
                    "velocity": 0.6692913385826772,
                    "duration": 0.7464278249999836
                },
                {
                    "name": "A2",
                    "midi": 45,
                    "time": 130.92844049999997,
                    "velocity": 0.7716535433070866,
                    "duration": 0.1678569749999781
                },
                {
                    "name": "A2",
                    "midi": 45,
                    "time": 131.14272599999995,
                    "velocity": 0.6456692913385826,
                    "duration": 0.7142849999999896
                },
                {
                    "name": "D2",
                    "midi": 38,
                    "time": 131.78558249999995,
                    "velocity": 0.6850393700787402,
                    "duration": 0.17142839999999637
                },
                {
                    "name": "D2",
                    "midi": 38,
                    "time": 131.99986799999994,
                    "velocity": 0.6456692913385826,
                    "duration": 0.5214280499999973
                },
                {
                    "name": "D2",
                    "midi": 38,
                    "time": 132.64272449999993,
                    "velocity": 0.6692913385826772,
                    "duration": 0.11428559999998811
                },
                {
                    "name": "D2",
                    "midi": 38,
                    "time": 132.85700999999992,
                    "velocity": 0.6456692913385826,
                    "duration": 0.5928565499999934
                },
                {
                    "name": "D2",
                    "midi": 38,
                    "time": 133.4998664999999,
                    "velocity": 0.6850393700787402,
                    "duration": 0.13214272499999424
                }
            ],
            "controlChanges": {
                "7": [
                    {
                        "number": 7,
                        "time": 0,
                        "value": 1
                    }
                ],
                "10": [
                    {
                        "number": 10,
                        "time": 0,
                        "value": 0.5039370078740157
                    }
                ],
                "64": [
                    {
                        "number": 64,
                        "time": 0,
                        "value": 0
                    }
                ],
                "121": [
                    {
                        "number": 121,
                        "time": 0,
                        "value": 0
                    }
                ],
                "123": [
                    {
                        "number": 123,
                        "time": 0,
                        "value": 0
                    }
                ]
            },
            "id": 8,
            "name": "Bass  ",
            "instrumentNumber": 35,
            "instrument": "fretless bass",
            "instrumentFamily": "bass",
            "channelNumber": 1,
            "isPercussion": false
        },
        {
            "startTime": 0,
            "duration": 133.5891521250008,
            "length": 1958,
            "notes": [
                {
                    "name": "C#2",
                    "midi": 37,
                    "time": 0,
                    "velocity": 0.6614173228346457,
                    "duration": 0.42857100000000004
                },
                {
                    "name": "C#2",
                    "midi": 37,
                    "time": 0.8571420000000001,
                    "velocity": 0.6614173228346457,
                    "duration": 0.42857100000000004
                },
                {
                    "name": "C#2",
                    "midi": 37,
                    "time": 1.7142840000000001,
                    "velocity": 0.5039370078740157,
                    "duration": 0.4285709999999998
                },
                {
                    "name": "C#2",
                    "midi": 37,
                    "time": 2.142855,
                    "velocity": 0.6614173228346457,
                    "duration": 0.4285709999999998
                },
                {
                    "name": "C#2",
                    "midi": 37,
                    "time": 2.5714259999999998,
                    "velocity": 0.5039370078740157,
                    "duration": 0.4285709999999998
                },
                {
                    "name": "C#2",
                    "midi": 37,
                    "time": 2.9999969999999996,
                    "velocity": 0.6614173228346457,
                    "duration": 0.4285709999999998
                },
                {
                    "name": "B1",
                    "midi": 35,
                    "time": 3.4285679999999994,
                    "velocity": 0.7874015748031497,
                    "duration": 0.08928562500000004
                },
                {
                    "name": "C#2",
                    "midi": 37,
                    "time": 3.4285679999999994,
                    "velocity": 0.7086614173228346,
                    "duration": 0.08928562500000004
                },
                {
                    "name": "C#3",
                    "midi": 49,
                    "time": 3.4285679999999994,
                    "velocity": 0.3937007874015748,
                    "duration": 0.08928562500000004
                },
                {
                    "name": "A#4",
                    "midi": 70,
                    "time": 3.4285679999999994,
                    "velocity": 0.6299212598425197,
                    "duration": 0.08928562500000004
                },
                {
                    "name": "F#2",
                    "midi": 42,
                    "time": 3.6428534999999993,
                    "velocity": 0.5511811023622047,
                    "duration": 0.08928562500000004
                },
                {
                    "name": "A4",
                    "midi": 69,
                    "time": 3.6428534999999993,
                    "velocity": 0.3937007874015748,
                    "duration": 0.08928562500000004
                },
                {
                    "name": "F#2",
                    "midi": 42,
                    "time": 3.857138999999999,
                    "velocity": 0.5511811023622047,
                    "duration": 0.08928562500000004
                },
                {
                    "name": "A#4",
                    "midi": 70,
                    "time": 3.857138999999999,
                    "velocity": 0.6299212598425197,
                    "duration": 0.08928562500000004
                },
                {
                    "name": "B1",
                    "midi": 35,
                    "time": 4.071424499999999,
                    "velocity": 0.5511811023622047,
                    "duration": 0.08928562499999959
                },
                {
                    "name": "F#2",
                    "midi": 42,
                    "time": 4.071424499999999,
                    "velocity": 0.5511811023622047,
                    "duration": 0.08928562499999959
                },
                {
                    "name": "C#2",
                    "midi": 37,
                    "time": 4.071424499999999,
                    "velocity": 0.7086614173228346,
                    "duration": 0.08928562499999959
                },
                {
                    "name": "A4",
                    "midi": 69,
                    "time": 4.071424499999999,
                    "velocity": 0.3937007874015748,
                    "duration": 0.08928562499999959
                },
                {
                    "name": "B1",
                    "midi": 35,
                    "time": 4.285709999999999,
                    "velocity": 0.7874015748031497,
                    "duration": 0.08928562499999959
                },
                {
                    "name": "F#2",
                    "midi": 42,
                    "time": 4.285709999999999,
                    "velocity": 0.7086614173228346,
                    "duration": 0.08928562499999959
                },
                {
                    "name": "A#4",
                    "midi": 70,
                    "time": 4.285709999999999,
                    "velocity": 0.6299212598425197,
                    "duration": 0.08928562499999959
                },
                {
                    "name": "F#2",
                    "midi": 42,
                    "time": 4.499995499999999,
                    "velocity": 0.5511811023622047,
                    "duration": 0.08928562499999959
                },
                {
                    "name": "A4",
                    "midi": 69,
                    "time": 4.499995499999999,
                    "velocity": 0.3937007874015748,
                    "duration": 0.08928562499999959
                },
                {
                    "name": "F#2",
                    "midi": 42,
                    "time": 4.714280999999999,
                    "velocity": 0.5511811023622047,
                    "duration": 0.08928562499999959
                },
                {
                    "name": "C#2",
                    "midi": 37,
                    "time": 4.714280999999999,
                    "velocity": 0.7086614173228346,
                    "duration": 0.08928562499999959
                },
                {
                    "name": "A#4",
                    "midi": 70,
                    "time": 4.714280999999999,
                    "velocity": 0.6299212598425197,
                    "duration": 0.08928562499999959
                },
                {
                    "name": "B1",
                    "midi": 35,
                    "time": 4.928566499999999,
                    "velocity": 0.5511811023622047,
                    "duration": 0.08928562499999959
                },
                {
                    "name": "F#2",
                    "midi": 42,
                    "time": 4.928566499999999,
                    "velocity": 0.5511811023622047,
                    "duration": 0.08928562499999959
                },
                {
                    "name": "A4",
                    "midi": 69,
                    "time": 4.928566499999999,
                    "velocity": 0.3937007874015748,
                    "duration": 0.08928562499999959
                },
                {
                    "name": "B1",
                    "midi": 35,
                    "time": 5.142851999999999,
                    "velocity": 0.7874015748031497,
                    "duration": 0.08928562499999959
                },
                {
                    "name": "F#2",
                    "midi": 42,
                    "time": 5.142851999999999,
                    "velocity": 0.7086614173228346,
                    "duration": 0.08928562499999959
                },
                {
                    "name": "A#4",
                    "midi": 70,
                    "time": 5.142851999999999,
                    "velocity": 0.6299212598425197,
                    "duration": 0.08928562499999959
                },
                {
                    "name": "F#2",
                    "midi": 42,
                    "time": 5.3571374999999986,
                    "velocity": 0.5511811023622047,
                    "duration": 0.08928562499999959
                },
                {
                    "name": "A4",
                    "midi": 69,
                    "time": 5.3571374999999986,
                    "velocity": 0.3937007874015748,
                    "duration": 0.08928562499999959
                },
                {
                    "name": "F#2",
                    "midi": 42,
                    "time": 5.5714229999999985,
                    "velocity": 0.5511811023622047,
                    "duration": 0.08928562499999959
                },
                {
                    "name": "C#2",
                    "midi": 37,
                    "time": 5.5714229999999985,
                    "velocity": 0.7086614173228346,
                    "duration": 0.08928562499999959
                },
                {
                    "name": "A#4",
                    "midi": 70,
                    "time": 5.5714229999999985,
                    "velocity": 0.6299212598425197,
                    "duration": 0.08928562499999959
                },
                {
                    "name": "B1",
                    "midi": 35,
                    "time": 5.785708499999998,
                    "velocity": 0.5511811023622047,
                    "duration": 0.08928562499999959
                },
                {
                    "name": "F#2",
                    "midi": 42,
                    "time": 5.785708499999998,
                    "velocity": 0.5511811023622047,
                    "duration": 0.08928562499999959
                },
                {
                    "name": "A4",
                    "midi": 69,
                    "time": 5.785708499999998,
                    "velocity": 0.3937007874015748,
                    "duration": 0.08928562499999959
                },
                {
                    "name": "B1",
                    "midi": 35,
                    "time": 5.999993999999998,
                    "velocity": 0.7874015748031497,
                    "duration": 0.08928562499999959
                },
                {
                    "name": "F#2",
                    "midi": 42,
                    "time": 5.999993999999998,
                    "velocity": 0.7086614173228346,
                    "duration": 0.08928562499999959
                },
                {
                    "name": "A#4",
                    "midi": 70,
                    "time": 5.999993999999998,
                    "velocity": 0.6299212598425197,
                    "duration": 0.08928562499999959
                },
                {
                    "name": "F#2",
                    "midi": 42,
                    "time": 6.214279499999998,
                    "velocity": 0.5511811023622047,
                    "duration": 0.08928562499999959
                },
                {
                    "name": "C#2",
                    "midi": 37,
                    "time": 6.214279499999998,
                    "velocity": 0.7086614173228346,
                    "duration": 0.08928562499999959
                },
                {
                    "name": "A4",
                    "midi": 69,
                    "time": 6.214279499999998,
                    "velocity": 0.3937007874015748,
                    "duration": 0.08928562499999959
                },
                {
                    "name": "F#2",
                    "midi": 42,
                    "time": 6.428564999999998,
                    "velocity": 0.5511811023622047,
                    "duration": 0.08928562499999959
                },
                {
                    "name": "A#4",
                    "midi": 70,
                    "time": 6.428564999999998,
                    "velocity": 0.6299212598425197,
                    "duration": 0.08928562499999959
                },
                {
                    "name": "B1",
                    "midi": 35,
                    "time": 6.642850499999998,
                    "velocity": 0.5511811023622047,
                    "duration": 0.08928562499999959
                },
                {
                    "name": "F#2",
                    "midi": 42,
                    "time": 6.642850499999998,
                    "velocity": 0.5511811023622047,
                    "duration": 0.08928562499999959
                },
                {
                    "name": "A4",
                    "midi": 69,
                    "time": 6.642850499999998,
                    "velocity": 0.3937007874015748,
                    "duration": 0.08928562499999959
                },
                {
                    "name": "B1",
                    "midi": 35,
                    "time": 6.857135999999998,
                    "velocity": 0.7874015748031497,
                    "duration": 0.08928562499999959
                },
                {
                    "name": "F#2",
                    "midi": 42,
                    "time": 6.857135999999998,
                    "velocity": 0.7086614173228346,
                    "duration": 0.08928562499999959
                },
                {
                    "name": "C#2",
                    "midi": 37,
                    "time": 6.857135999999998,
                    "velocity": 0.7086614173228346,
                    "duration": 0.08928562499999959
                },
                {
                    "name": "A#4",
                    "midi": 70,
                    "time": 6.857135999999998,
                    "velocity": 0.6299212598425197,
                    "duration": 0.08928562499999959
                },
                {
                    "name": "F#2",
                    "midi": 42,
                    "time": 7.071421499999998,
                    "velocity": 0.5511811023622047,
                    "duration": 0.08928562499999959
                },
                {
                    "name": "A4",
                    "midi": 69,
                    "time": 7.071421499999998,
                    "velocity": 0.3937007874015748,
                    "duration": 0.08928562499999959
                },
                {
                    "name": "F#2",
                    "midi": 42,
                    "time": 7.285706999999998,
                    "velocity": 0.5511811023622047,
                    "duration": 0.08928562499999959
                },
                {
                    "name": "A#4",
                    "midi": 70,
                    "time": 7.285706999999998,
                    "velocity": 0.6299212598425197,
                    "duration": 0.08928562499999959
                },
                {
                    "name": "B1",
                    "midi": 35,
                    "time": 7.499992499999998,
                    "velocity": 0.5511811023622047,
                    "duration": 0.08928562499999959
                },
                {
                    "name": "F#2",
                    "midi": 42,
                    "time": 7.499992499999998,
                    "velocity": 0.5511811023622047,
                    "duration": 0.08928562499999959
                },
                {
                    "name": "C#2",
                    "midi": 37,
                    "time": 7.499992499999998,
                    "velocity": 0.7086614173228346,
                    "duration": 0.08928562499999959
                },
                {
                    "name": "A4",
                    "midi": 69,
                    "time": 7.499992499999998,
                    "velocity": 0.3937007874015748,
                    "duration": 0.08928562499999959
                },
                {
                    "name": "B1",
                    "midi": 35,
                    "time": 7.7142779999999975,
                    "velocity": 0.7874015748031497,
                    "duration": 0.08928562499999959
                },
                {
                    "name": "F#2",
                    "midi": 42,
                    "time": 7.7142779999999975,
                    "velocity": 0.7086614173228346,
                    "duration": 0.08928562499999959
                },
                {
                    "name": "A#4",
                    "midi": 70,
                    "time": 7.7142779999999975,
                    "velocity": 0.6299212598425197,
                    "duration": 0.08928562499999959
                },
                {
                    "name": "F#2",
                    "midi": 42,
                    "time": 7.928563499999997,
                    "velocity": 0.5511811023622047,
                    "duration": 0.08928562500000048
                },
                {
                    "name": "A4",
                    "midi": 69,
                    "time": 7.928563499999997,
                    "velocity": 0.3937007874015748,
                    "duration": 0.08928562500000048
                },
                {
                    "name": "F#2",
                    "midi": 42,
                    "time": 8.142848999999998,
                    "velocity": 0.5511811023622047,
                    "duration": 0.08928562500000048
                },
                {
                    "name": "C#2",
                    "midi": 37,
                    "time": 8.142848999999998,
                    "velocity": 0.7086614173228346,
                    "duration": 0.08928562500000048
                },
                {
                    "name": "A#4",
                    "midi": 70,
                    "time": 8.142848999999998,
                    "velocity": 0.6299212598425197,
                    "duration": 0.08928562500000048
                },
                {
                    "name": "B1",
                    "midi": 35,
                    "time": 8.357134499999999,
                    "velocity": 0.5511811023622047,
                    "duration": 0.08928562500000048
                },
                {
                    "name": "F#2",
                    "midi": 42,
                    "time": 8.357134499999999,
                    "velocity": 0.5511811023622047,
                    "duration": 0.08928562500000048
                },
                {
                    "name": "A4",
                    "midi": 69,
                    "time": 8.357134499999999,
                    "velocity": 0.3937007874015748,
                    "duration": 0.08928562500000048
                },
                {
                    "name": "B1",
                    "midi": 35,
                    "time": 8.57142,
                    "velocity": 0.7874015748031497,
                    "duration": 0.08928562500000048
                },
                {
                    "name": "F#2",
                    "midi": 42,
                    "time": 8.57142,
                    "velocity": 0.7086614173228346,
                    "duration": 0.08928562500000048
                },
                {
                    "name": "A#4",
                    "midi": 70,
                    "time": 8.57142,
                    "velocity": 0.6299212598425197,
                    "duration": 0.08928562500000048
                },
                {
                    "name": "F#2",
                    "midi": 42,
                    "time": 8.7857055,
                    "velocity": 0.5511811023622047,
                    "duration": 0.08928562500000048
                },
                {
                    "name": "A4",
                    "midi": 69,
                    "time": 8.7857055,
                    "velocity": 0.3937007874015748,
                    "duration": 0.08928562500000048
                },
                {
                    "name": "F#2",
                    "midi": 42,
                    "time": 8.999991000000001,
                    "velocity": 0.5511811023622047,
                    "duration": 0.08928562500000048
                },
                {
                    "name": "C#2",
                    "midi": 37,
                    "time": 8.999991000000001,
                    "velocity": 0.7086614173228346,
                    "duration": 0.08928562500000048
                },
                {
                    "name": "A#4",
                    "midi": 70,
                    "time": 8.999991000000001,
                    "velocity": 0.6299212598425197,
                    "duration": 0.08928562500000048
                },
                {
                    "name": "B1",
                    "midi": 35,
                    "time": 9.214276500000002,
                    "velocity": 0.5511811023622047,
                    "duration": 0.08928562500000048
                },
                {
                    "name": "F#2",
                    "midi": 42,
                    "time": 9.214276500000002,
                    "velocity": 0.5511811023622047,
                    "duration": 0.08928562500000048
                },
                {
                    "name": "A4",
                    "midi": 69,
                    "time": 9.214276500000002,
                    "velocity": 0.3937007874015748,
                    "duration": 0.08928562500000048
                },
                {
                    "name": "B1",
                    "midi": 35,
                    "time": 9.428562000000003,
                    "velocity": 0.7874015748031497,
                    "duration": 0.08928562500000048
                },
                {
                    "name": "F#2",
                    "midi": 42,
                    "time": 9.428562000000003,
                    "velocity": 0.7086614173228346,
                    "duration": 0.08928562500000048
                },
                {
                    "name": "A#4",
                    "midi": 70,
                    "time": 9.428562000000003,
                    "velocity": 0.6299212598425197,
                    "duration": 0.08928562500000048
                },
                {
                    "name": "F#2",
                    "midi": 42,
                    "time": 9.642847500000004,
                    "velocity": 0.5511811023622047,
                    "duration": 0.08928562500000048
                },
                {
                    "name": "C#2",
                    "midi": 37,
                    "time": 9.642847500000004,
                    "velocity": 0.7086614173228346,
                    "duration": 0.08928562500000048
                },
                {
                    "name": "A4",
                    "midi": 69,
                    "time": 9.642847500000004,
                    "velocity": 0.3937007874015748,
                    "duration": 0.08928562500000048
                },
                {
                    "name": "F#2",
                    "midi": 42,
                    "time": 9.857133000000005,
                    "velocity": 0.5511811023622047,
                    "duration": 0.08928562500000048
                },
                {
                    "name": "A#4",
                    "midi": 70,
                    "time": 9.857133000000005,
                    "velocity": 0.6299212598425197,
                    "duration": 0.08928562500000048
                },
                {
                    "name": "B1",
                    "midi": 35,
                    "time": 10.071418500000005,
                    "velocity": 0.5511811023622047,
                    "duration": 0.08928562500000048
                },
                {
                    "name": "A#2",
                    "midi": 46,
                    "time": 10.071418500000005,
                    "velocity": 0.5669291338582677,
                    "duration": 0.08928562500000048
                },
                {
                    "name": "A4",
                    "midi": 69,
                    "time": 10.071418500000005,
                    "velocity": 0.3937007874015748,
                    "duration": 0.08928562500000048
                },
                {
                    "name": "B1",
                    "midi": 35,
                    "time": 10.285704000000006,
                    "velocity": 0.7874015748031497,
                    "duration": 0.08928562500000048
                },
                {
                    "name": "F#2",
                    "midi": 42,
                    "time": 10.285704000000006,
                    "velocity": 0.7086614173228346,
                    "duration": 0.08928562500000048
                },
                {
                    "name": "C#2",
                    "midi": 37,
                    "time": 10.285704000000006,
                    "velocity": 0.7086614173228346,
                    "duration": 0.08928562500000048
                },
                {
                    "name": "A#4",
                    "midi": 70,
                    "time": 10.285704000000006,
                    "velocity": 0.6299212598425197,
                    "duration": 0.08928562500000048
                },
                {
                    "name": "F#2",
                    "midi": 42,
                    "time": 10.499989500000007,
                    "velocity": 0.5511811023622047,
                    "duration": 0.08928562500000048
                },
                {
                    "name": "A4",
                    "midi": 69,
                    "time": 10.499989500000007,
                    "velocity": 0.3937007874015748,
                    "duration": 0.08928562500000048
                },
                {
                    "name": "F#2",
                    "midi": 42,
                    "time": 10.714275000000008,
                    "velocity": 0.5511811023622047,
                    "duration": 0.08928562500000048
                },
                {
                    "name": "A#4",
                    "midi": 70,
                    "time": 10.714275000000008,
                    "velocity": 0.6299212598425197,
                    "duration": 0.08928562500000048
                },
                {
                    "name": "B1",
                    "midi": 35,
                    "time": 10.928560500000009,
                    "velocity": 0.5511811023622047,
                    "duration": 0.08928562500000048
                },
                {
                    "name": "F#2",
                    "midi": 42,
                    "time": 10.928560500000009,
                    "velocity": 0.5511811023622047,
                    "duration": 0.08928562500000048
                },
                {
                    "name": "C#2",
                    "midi": 37,
                    "time": 10.928560500000009,
                    "velocity": 0.7086614173228346,
                    "duration": 0.08928562500000048
                },
                {
                    "name": "A4",
                    "midi": 69,
                    "time": 10.928560500000009,
                    "velocity": 0.3937007874015748,
                    "duration": 0.08928562500000048
                },
                {
                    "name": "B1",
                    "midi": 35,
                    "time": 11.14284600000001,
                    "velocity": 0.7874015748031497,
                    "duration": 0.08928562500000048
                },
                {
                    "name": "F#2",
                    "midi": 42,
                    "time": 11.14284600000001,
                    "velocity": 0.7086614173228346,
                    "duration": 0.08928562500000048
                },
                {
                    "name": "A#4",
                    "midi": 70,
                    "time": 11.14284600000001,
                    "velocity": 0.6299212598425197,
                    "duration": 0.08928562500000048
                },
                {
                    "name": "A#2",
                    "midi": 46,
                    "time": 11.35713150000001,
                    "velocity": 0.5669291338582677,
                    "duration": 0.08928562500000048
                },
                {
                    "name": "A4",
                    "midi": 69,
                    "time": 11.35713150000001,
                    "velocity": 0.3937007874015748,
                    "duration": 0.08928562500000048
                },
                {
                    "name": "F#2",
                    "midi": 42,
                    "time": 11.571417000000011,
                    "velocity": 0.5511811023622047,
                    "duration": 0.08928562500000048
                },
                {
                    "name": "C#2",
                    "midi": 37,
                    "time": 11.571417000000011,
                    "velocity": 0.7086614173228346,
                    "duration": 0.08928562500000048
                },
                {
                    "name": "A#4",
                    "midi": 70,
                    "time": 11.571417000000011,
                    "velocity": 0.6299212598425197,
                    "duration": 0.08928562500000048
                },
                {
                    "name": "B1",
                    "midi": 35,
                    "time": 11.785702500000012,
                    "velocity": 0.5511811023622047,
                    "duration": 0.08928562500000048
                },
                {
                    "name": "F#2",
                    "midi": 42,
                    "time": 11.785702500000012,
                    "velocity": 0.5511811023622047,
                    "duration": 0.08928562500000048
                },
                {
                    "name": "A4",
                    "midi": 69,
                    "time": 11.785702500000012,
                    "velocity": 0.3937007874015748,
                    "duration": 0.08928562500000048
                },
                {
                    "name": "B1",
                    "midi": 35,
                    "time": 11.999988000000013,
                    "velocity": 0.7874015748031497,
                    "duration": 0.08928562500000048
                },
                {
                    "name": "F#2",
                    "midi": 42,
                    "time": 11.999988000000013,
                    "velocity": 0.7086614173228346,
                    "duration": 0.08928562500000048
                },
                {
                    "name": "A#4",
                    "midi": 70,
                    "time": 11.999988000000013,
                    "velocity": 0.6299212598425197,
                    "duration": 0.08928562500000048
                },
                {
                    "name": "F#2",
                    "midi": 42,
                    "time": 12.214273500000013,
                    "velocity": 0.5511811023622047,
                    "duration": 0.08928562500000048
                },
                {
                    "name": "A4",
                    "midi": 69,
                    "time": 12.214273500000013,
                    "velocity": 0.3937007874015748,
                    "duration": 0.08928562500000048
                },
                {
                    "name": "F#2",
                    "midi": 42,
                    "time": 12.428559000000014,
                    "velocity": 0.5511811023622047,
                    "duration": 0.08928562500000048
                },
                {
                    "name": "C#2",
                    "midi": 37,
                    "time": 12.428559000000014,
                    "velocity": 0.7086614173228346,
                    "duration": 0.08928562500000048
                },
                {
                    "name": "A#4",
                    "midi": 70,
                    "time": 12.428559000000014,
                    "velocity": 0.6299212598425197,
                    "duration": 0.08928562500000048
                },
                {
                    "name": "B1",
                    "midi": 35,
                    "time": 12.642844500000015,
                    "velocity": 0.5511811023622047,
                    "duration": 0.08928562500000048
                },
                {
                    "name": "F#2",
                    "midi": 42,
                    "time": 12.642844500000015,
                    "velocity": 0.5511811023622047,
                    "duration": 0.08928562500000048
                },
                {
                    "name": "A4",
                    "midi": 69,
                    "time": 12.642844500000015,
                    "velocity": 0.3937007874015748,
                    "duration": 0.08928562500000048
                },
                {
                    "name": "B1",
                    "midi": 35,
                    "time": 12.857130000000016,
                    "velocity": 0.7874015748031497,
                    "duration": 0.08928562500000048
                },
                {
                    "name": "F#2",
                    "midi": 42,
                    "time": 12.857130000000016,
                    "velocity": 0.7086614173228346,
                    "duration": 0.08928562500000048
                },
                {
                    "name": "A#4",
                    "midi": 70,
                    "time": 12.857130000000016,
                    "velocity": 0.6299212598425197,
                    "duration": 0.08928562500000048
                },
                {
                    "name": "F#2",
                    "midi": 42,
                    "time": 13.071415500000017,
                    "velocity": 0.5511811023622047,
                    "duration": 0.08928562500000048
                },
                {
                    "name": "C#2",
                    "midi": 37,
                    "time": 13.071415500000017,
                    "velocity": 0.7086614173228346,
                    "duration": 0.08928562500000048
                },
                {
                    "name": "A4",
                    "midi": 69,
                    "time": 13.071415500000017,
                    "velocity": 0.3937007874015748,
                    "duration": 0.08928562500000048
                },
                {
                    "name": "F#2",
                    "midi": 42,
                    "time": 13.285701000000017,
                    "velocity": 0.5511811023622047,
                    "duration": 0.08928562500000048
                },
                {
                    "name": "A2",
                    "midi": 45,
                    "time": 13.285701000000017,
                    "velocity": 0.5511811023622047,
                    "duration": 0.08928562500000048
                },
                {
                    "name": "A#4",
                    "midi": 70,
                    "time": 13.285701000000017,
                    "velocity": 0.6299212598425197,
                    "duration": 0.08928562500000048
                },
                {
                    "name": "B1",
                    "midi": 35,
                    "time": 13.499986500000018,
                    "velocity": 0.5511811023622047,
                    "duration": 0.08928562500000048
                },
                {
                    "name": "F#2",
                    "midi": 42,
                    "time": 13.499986500000018,
                    "velocity": 0.5511811023622047,
                    "duration": 0.08928562500000048
                },
                {
                    "name": "A4",
                    "midi": 69,
                    "time": 13.499986500000018,
                    "velocity": 0.3937007874015748,
                    "duration": 0.08928562500000048
                },
                {
                    "name": "B1",
                    "midi": 35,
                    "time": 13.714272000000019,
                    "velocity": 0.7874015748031497,
                    "duration": 0.08928562500000048
                },
                {
                    "name": "F#2",
                    "midi": 42,
                    "time": 13.714272000000019,
                    "velocity": 0.7086614173228346,
                    "duration": 0.08928562500000048
                },
                {
                    "name": "C#2",
                    "midi": 37,
                    "time": 13.714272000000019,
                    "velocity": 0.7086614173228346,
                    "duration": 0.08928562500000048
                },
                {
                    "name": "A#4",
                    "midi": 70,
                    "time": 13.714272000000019,
                    "velocity": 0.6299212598425197,
                    "duration": 0.08928562500000048
                },
                {
                    "name": "F#2",
                    "midi": 42,
                    "time": 13.92855750000002,
                    "velocity": 0.5511811023622047,
                    "duration": 0.08928562500000048
                },
                {
                    "name": "A4",
                    "midi": 69,
                    "time": 13.92855750000002,
                    "velocity": 0.3937007874015748,
                    "duration": 0.08928562500000048
                },
                {
                    "name": "F#2",
                    "midi": 42,
                    "time": 14.14284300000002,
                    "velocity": 0.5511811023622047,
                    "duration": 0.08928562500000048
                },
                {
                    "name": "A#4",
                    "midi": 70,
                    "time": 14.14284300000002,
                    "velocity": 0.6299212598425197,
                    "duration": 0.08928562500000048
                },
                {
                    "name": "B1",
                    "midi": 35,
                    "time": 14.357128500000021,
                    "velocity": 0.5511811023622047,
                    "duration": 0.08928562500000048
                },
                {
                    "name": "F#2",
                    "midi": 42,
                    "time": 14.357128500000021,
                    "velocity": 0.5511811023622047,
                    "duration": 0.08928562500000048
                },
                {
                    "name": "C#2",
                    "midi": 37,
                    "time": 14.357128500000021,
                    "velocity": 0.7086614173228346,
                    "duration": 0.08928562500000048
                },
                {
                    "name": "A4",
                    "midi": 69,
                    "time": 14.357128500000021,
                    "velocity": 0.3937007874015748,
                    "duration": 0.08928562500000048
                },
                {
                    "name": "B1",
                    "midi": 35,
                    "time": 14.571414000000022,
                    "velocity": 0.7874015748031497,
                    "duration": 0.08928562500000048
                },
                {
                    "name": "F#2",
                    "midi": 42,
                    "time": 14.571414000000022,
                    "velocity": 0.7086614173228346,
                    "duration": 0.08928562500000048
                },
                {
                    "name": "A#4",
                    "midi": 70,
                    "time": 14.571414000000022,
                    "velocity": 0.6299212598425197,
                    "duration": 0.08928562500000048
                },
                {
                    "name": "F#2",
                    "midi": 42,
                    "time": 14.785699500000023,
                    "velocity": 0.5511811023622047,
                    "duration": 0.08928562500000048
                },
                {
                    "name": "A4",
                    "midi": 69,
                    "time": 14.785699500000023,
                    "velocity": 0.3937007874015748,
                    "duration": 0.08928562500000048
                },
                {
                    "name": "F#2",
                    "midi": 42,
                    "time": 14.999985000000024,
                    "velocity": 0.5511811023622047,
                    "duration": 0.08928562500000048
                },
                {
                    "name": "C#2",
                    "midi": 37,
                    "time": 14.999985000000024,
                    "velocity": 0.7086614173228346,
                    "duration": 0.08928562500000048
                },
                {
                    "name": "A#4",
                    "midi": 70,
                    "time": 14.999985000000024,
                    "velocity": 0.6299212598425197,
                    "duration": 0.08928562500000048
                },
                {
                    "name": "B1",
                    "midi": 35,
                    "time": 15.214270500000024,
                    "velocity": 0.5511811023622047,
                    "duration": 0.08928562500000048
                },
                {
                    "name": "F#2",
                    "midi": 42,
                    "time": 15.214270500000024,
                    "velocity": 0.5511811023622047,
                    "duration": 0.08928562500000048
                },
                {
                    "name": "A4",
                    "midi": 69,
                    "time": 15.214270500000024,
                    "velocity": 0.3937007874015748,
                    "duration": 0.08928562500000048
                },
                {
                    "name": "B1",
                    "midi": 35,
                    "time": 15.428556000000025,
                    "velocity": 0.7874015748031497,
                    "duration": 0.08928562500000048
                },
                {
                    "name": "F#2",
                    "midi": 42,
                    "time": 15.428556000000025,
                    "velocity": 0.7086614173228346,
                    "duration": 0.08928562500000048
                },
                {
                    "name": "A#4",
                    "midi": 70,
                    "time": 15.428556000000025,
                    "velocity": 0.6299212598425197,
                    "duration": 0.08928562500000048
                },
                {
                    "name": "F#2",
                    "midi": 42,
                    "time": 15.642841500000026,
                    "velocity": 0.5511811023622047,
                    "duration": 0.08928562500000048
                },
                {
                    "name": "A4",
                    "midi": 69,
                    "time": 15.642841500000026,
                    "velocity": 0.3937007874015748,
                    "duration": 0.08928562500000048
                },
                {
                    "name": "F#2",
                    "midi": 42,
                    "time": 15.857127000000027,
                    "velocity": 0.5511811023622047,
                    "duration": 0.08928562500000048
                },
                {
                    "name": "C#2",
                    "midi": 37,
                    "time": 15.857127000000027,
                    "velocity": 0.7086614173228346,
                    "duration": 0.08928562500000048
                },
                {
                    "name": "A#4",
                    "midi": 70,
                    "time": 15.857127000000027,
                    "velocity": 0.6299212598425197,
                    "duration": 0.08928562500000048
                },
                {
                    "name": "B1",
                    "midi": 35,
                    "time": 16.071412500000026,
                    "velocity": 0.5511811023622047,
                    "duration": 0.0892856249999987
                },
                {
                    "name": "F#2",
                    "midi": 42,
                    "time": 16.071412500000026,
                    "velocity": 0.5511811023622047,
                    "duration": 0.0892856249999987
                },
                {
                    "name": "C3",
                    "midi": 48,
                    "time": 16.071412500000026,
                    "velocity": 0.3937007874015748,
                    "duration": 0.0892856249999987
                },
                {
                    "name": "A4",
                    "midi": 69,
                    "time": 16.071412500000026,
                    "velocity": 0.3937007874015748,
                    "duration": 0.0892856249999987
                },
                {
                    "name": "B1",
                    "midi": 35,
                    "time": 16.285698000000025,
                    "velocity": 0.7874015748031497,
                    "duration": 0.0892856249999987
                },
                {
                    "name": "F#2",
                    "midi": 42,
                    "time": 16.285698000000025,
                    "velocity": 0.7086614173228346,
                    "duration": 0.0892856249999987
                },
                {
                    "name": "A#4",
                    "midi": 70,
                    "time": 16.285698000000025,
                    "velocity": 0.6299212598425197,
                    "duration": 0.0892856249999987
                },
                {
                    "name": "F#2",
                    "midi": 42,
                    "time": 16.499983500000024,
                    "velocity": 0.5511811023622047,
                    "duration": 0.0892856249999987
                },
                {
                    "name": "C#2",
                    "midi": 37,
                    "time": 16.499983500000024,
                    "velocity": 0.7086614173228346,
                    "duration": 0.0892856249999987
                },
                {
                    "name": "A4",
                    "midi": 69,
                    "time": 16.499983500000024,
                    "velocity": 0.3937007874015748,
                    "duration": 0.0892856249999987
                },
                {
                    "name": "F#2",
                    "midi": 42,
                    "time": 16.714269000000023,
                    "velocity": 0.5511811023622047,
                    "duration": 0.0892856249999987
                },
                {
                    "name": "A2",
                    "midi": 45,
                    "time": 16.714269000000023,
                    "velocity": 0.5511811023622047,
                    "duration": 0.0892856249999987
                },
                {
                    "name": "A#4",
                    "midi": 70,
                    "time": 16.714269000000023,
                    "velocity": 0.6299212598425197,
                    "duration": 0.0892856249999987
                },
                {
                    "name": "B1",
                    "midi": 35,
                    "time": 16.928554500000022,
                    "velocity": 0.5511811023622047,
                    "duration": 0.0892856249999987
                },
                {
                    "name": "F#2",
                    "midi": 42,
                    "time": 16.928554500000022,
                    "velocity": 0.5511811023622047,
                    "duration": 0.0892856249999987
                },
                {
                    "name": "A4",
                    "midi": 69,
                    "time": 16.928554500000022,
                    "velocity": 0.3937007874015748,
                    "duration": 0.0892856249999987
                },
                {
                    "name": "B1",
                    "midi": 35,
                    "time": 17.14284000000002,
                    "velocity": 0.7874015748031497,
                    "duration": 0.0892856249999987
                },
                {
                    "name": "F#2",
                    "midi": 42,
                    "time": 17.14284000000002,
                    "velocity": 0.7086614173228346,
                    "duration": 0.0892856249999987
                },
                {
                    "name": "C#2",
                    "midi": 37,
                    "time": 17.14284000000002,
                    "velocity": 0.7086614173228346,
                    "duration": 0.0892856249999987
                },
                {
                    "name": "A#4",
                    "midi": 70,
                    "time": 17.14284000000002,
                    "velocity": 0.6299212598425197,
                    "duration": 0.0892856249999987
                },
                {
                    "name": "F#2",
                    "midi": 42,
                    "time": 17.35712550000002,
                    "velocity": 0.5511811023622047,
                    "duration": 0.0892856249999987
                },
                {
                    "name": "A4",
                    "midi": 69,
                    "time": 17.35712550000002,
                    "velocity": 0.3937007874015748,
                    "duration": 0.0892856249999987
                },
                {
                    "name": "F#2",
                    "midi": 42,
                    "time": 17.57141100000002,
                    "velocity": 0.5511811023622047,
                    "duration": 0.0892856249999987
                },
                {
                    "name": "A#4",
                    "midi": 70,
                    "time": 17.57141100000002,
                    "velocity": 0.6299212598425197,
                    "duration": 0.0892856249999987
                },
                {
                    "name": "B1",
                    "midi": 35,
                    "time": 17.785696500000018,
                    "velocity": 0.5511811023622047,
                    "duration": 0.0892856249999987
                },
                {
                    "name": "F#2",
                    "midi": 42,
                    "time": 17.785696500000018,
                    "velocity": 0.5511811023622047,
                    "duration": 0.0892856249999987
                },
                {
                    "name": "C#2",
                    "midi": 37,
                    "time": 17.785696500000018,
                    "velocity": 0.7086614173228346,
                    "duration": 0.0892856249999987
                },
                {
                    "name": "A4",
                    "midi": 69,
                    "time": 17.785696500000018,
                    "velocity": 0.3937007874015748,
                    "duration": 0.0892856249999987
                },
                {
                    "name": "B1",
                    "midi": 35,
                    "time": 17.999982000000017,
                    "velocity": 0.7874015748031497,
                    "duration": 0.0892856249999987
                },
                {
                    "name": "F#2",
                    "midi": 42,
                    "time": 17.999982000000017,
                    "velocity": 0.7086614173228346,
                    "duration": 0.0892856249999987
                },
                {
                    "name": "A#4",
                    "midi": 70,
                    "time": 17.999982000000017,
                    "velocity": 0.6299212598425197,
                    "duration": 0.0892856249999987
                },
                {
                    "name": "A#2",
                    "midi": 46,
                    "time": 18.214267500000016,
                    "velocity": 0.5669291338582677,
                    "duration": 0.0892856249999987
                },
                {
                    "name": "A4",
                    "midi": 69,
                    "time": 18.214267500000016,
                    "velocity": 0.3937007874015748,
                    "duration": 0.0892856249999987
                },
                {
                    "name": "F#2",
                    "midi": 42,
                    "time": 18.428553000000015,
                    "velocity": 0.5511811023622047,
                    "duration": 0.0892856249999987
                },
                {
                    "name": "C#2",
                    "midi": 37,
                    "time": 18.428553000000015,
                    "velocity": 0.7086614173228346,
                    "duration": 0.0892856249999987
                },
                {
                    "name": "A#4",
                    "midi": 70,
                    "time": 18.428553000000015,
                    "velocity": 0.6299212598425197,
                    "duration": 0.0892856249999987
                },
                {
                    "name": "B1",
                    "midi": 35,
                    "time": 18.642838500000014,
                    "velocity": 0.5511811023622047,
                    "duration": 0.0892856249999987
                },
                {
                    "name": "F#2",
                    "midi": 42,
                    "time": 18.642838500000014,
                    "velocity": 0.5511811023622047,
                    "duration": 0.0892856249999987
                },
                {
                    "name": "A4",
                    "midi": 69,
                    "time": 18.642838500000014,
                    "velocity": 0.3937007874015748,
                    "duration": 0.0892856249999987
                },
                {
                    "name": "B1",
                    "midi": 35,
                    "time": 18.857124000000013,
                    "velocity": 0.7874015748031497,
                    "duration": 0.0892856249999987
                },
                {
                    "name": "F#2",
                    "midi": 42,
                    "time": 18.857124000000013,
                    "velocity": 0.7086614173228346,
                    "duration": 0.0892856249999987
                },
                {
                    "name": "A#4",
                    "midi": 70,
                    "time": 18.857124000000013,
                    "velocity": 0.6299212598425197,
                    "duration": 0.0892856249999987
                },
                {
                    "name": "F#2",
                    "midi": 42,
                    "time": 19.071409500000012,
                    "velocity": 0.5511811023622047,
                    "duration": 0.0892856249999987
                },
                {
                    "name": "A4",
                    "midi": 69,
                    "time": 19.071409500000012,
                    "velocity": 0.3937007874015748,
                    "duration": 0.0892856249999987
                },
                {
                    "name": "F#2",
                    "midi": 42,
                    "time": 19.28569500000001,
                    "velocity": 0.5511811023622047,
                    "duration": 0.0892856249999987
                },
                {
                    "name": "C#2",
                    "midi": 37,
                    "time": 19.28569500000001,
                    "velocity": 0.7086614173228346,
                    "duration": 0.0892856249999987
                },
                {
                    "name": "A#4",
                    "midi": 70,
                    "time": 19.28569500000001,
                    "velocity": 0.6299212598425197,
                    "duration": 0.0892856249999987
                },
                {
                    "name": "B1",
                    "midi": 35,
                    "time": 19.49998050000001,
                    "velocity": 0.5511811023622047,
                    "duration": 0.0892856249999987
                },
                {
                    "name": "F#2",
                    "midi": 42,
                    "time": 19.49998050000001,
                    "velocity": 0.5511811023622047,
                    "duration": 0.0892856249999987
                },
                {
                    "name": "C3",
                    "midi": 48,
                    "time": 19.49998050000001,
                    "velocity": 0.3937007874015748,
                    "duration": 0.0892856249999987
                },
                {
                    "name": "A4",
                    "midi": 69,
                    "time": 19.49998050000001,
                    "velocity": 0.3937007874015748,
                    "duration": 0.0892856249999987
                },
                {
                    "name": "B1",
                    "midi": 35,
                    "time": 19.71426600000001,
                    "velocity": 0.7874015748031497,
                    "duration": 0.0892856249999987
                },
                {
                    "name": "F#2",
                    "midi": 42,
                    "time": 19.71426600000001,
                    "velocity": 0.7086614173228346,
                    "duration": 0.0892856249999987
                },
                {
                    "name": "A#4",
                    "midi": 70,
                    "time": 19.71426600000001,
                    "velocity": 0.6299212598425197,
                    "duration": 0.0892856249999987
                },
                {
                    "name": "F#2",
                    "midi": 42,
                    "time": 19.928551500000008,
                    "velocity": 0.5511811023622047,
                    "duration": 0.0892856249999987
                },
                {
                    "name": "C#2",
                    "midi": 37,
                    "time": 19.928551500000008,
                    "velocity": 0.7086614173228346,
                    "duration": 0.0892856249999987
                },
                {
                    "name": "A4",
                    "midi": 69,
                    "time": 19.928551500000008,
                    "velocity": 0.3937007874015748,
                    "duration": 0.0892856249999987
                },
                {
                    "name": "F#2",
                    "midi": 42,
                    "time": 20.142837000000007,
                    "velocity": 0.5511811023622047,
                    "duration": 0.0892856249999987
                },
                {
                    "name": "A#4",
                    "midi": 70,
                    "time": 20.142837000000007,
                    "velocity": 0.6299212598425197,
                    "duration": 0.0892856249999987
                },
                {
                    "name": "B1",
                    "midi": 35,
                    "time": 20.357122500000006,
                    "velocity": 0.5511811023622047,
                    "duration": 0.0892856249999987
                },
                {
                    "name": "F#2",
                    "midi": 42,
                    "time": 20.357122500000006,
                    "velocity": 0.5511811023622047,
                    "duration": 0.0892856249999987
                },
                {
                    "name": "A2",
                    "midi": 45,
                    "time": 20.357122500000006,
                    "velocity": 0.3937007874015748,
                    "duration": 0.0892856249999987
                },
                {
                    "name": "A4",
                    "midi": 69,
                    "time": 20.357122500000006,
                    "velocity": 0.3937007874015748,
                    "duration": 0.0892856249999987
                },
                {
                    "name": "B1",
                    "midi": 35,
                    "time": 20.571408000000005,
                    "velocity": 0.7874015748031497,
                    "duration": 0.0892856249999987
                },
                {
                    "name": "F#2",
                    "midi": 42,
                    "time": 20.571408000000005,
                    "velocity": 0.7086614173228346,
                    "duration": 0.0892856249999987
                },
                {
                    "name": "C#2",
                    "midi": 37,
                    "time": 20.571408000000005,
                    "velocity": 0.7086614173228346,
                    "duration": 0.0892856249999987
                },
                {
                    "name": "A#4",
                    "midi": 70,
                    "time": 20.571408000000005,
                    "velocity": 0.6299212598425197,
                    "duration": 0.0892856249999987
                },
                {
                    "name": "F#2",
                    "midi": 42,
                    "time": 20.785693500000004,
                    "velocity": 0.5511811023622047,
                    "duration": 0.0892856249999987
                },
                {
                    "name": "A4",
                    "midi": 69,
                    "time": 20.785693500000004,
                    "velocity": 0.3937007874015748,
                    "duration": 0.0892856249999987
                },
                {
                    "name": "F#2",
                    "midi": 42,
                    "time": 20.999979000000003,
                    "velocity": 0.5511811023622047,
                    "duration": 0.0892856249999987
                },
                {
                    "name": "A#4",
                    "midi": 70,
                    "time": 20.999979000000003,
                    "velocity": 0.6299212598425197,
                    "duration": 0.0892856249999987
                },
                {
                    "name": "B1",
                    "midi": 35,
                    "time": 21.214264500000002,
                    "velocity": 0.5511811023622047,
                    "duration": 0.0892856249999987
                },
                {
                    "name": "F#2",
                    "midi": 42,
                    "time": 21.214264500000002,
                    "velocity": 0.5511811023622047,
                    "duration": 0.0892856249999987
                },
                {
                    "name": "C#2",
                    "midi": 37,
                    "time": 21.214264500000002,
                    "velocity": 0.7086614173228346,
                    "duration": 0.0892856249999987
                },
                {
                    "name": "A4",
                    "midi": 69,
                    "time": 21.214264500000002,
                    "velocity": 0.3937007874015748,
                    "duration": 0.0892856249999987
                },
                {
                    "name": "B1",
                    "midi": 35,
                    "time": 21.42855,
                    "velocity": 0.7874015748031497,
                    "duration": 0.0892856249999987
                },
                {
                    "name": "F#2",
                    "midi": 42,
                    "time": 21.42855,
                    "velocity": 0.7086614173228346,
                    "duration": 0.0892856249999987
                },
                {
                    "name": "A#4",
                    "midi": 70,
                    "time": 21.42855,
                    "velocity": 0.6299212598425197,
                    "duration": 0.0892856249999987
                },
                {
                    "name": "A#2",
                    "midi": 46,
                    "time": 21.6428355,
                    "velocity": 0.5669291338582677,
                    "duration": 0.0892856249999987
                },
                {
                    "name": "A4",
                    "midi": 69,
                    "time": 21.6428355,
                    "velocity": 0.3937007874015748,
                    "duration": 0.0892856249999987
                },
                {
                    "name": "F#2",
                    "midi": 42,
                    "time": 21.857121,
                    "velocity": 0.5511811023622047,
                    "duration": 0.0892856249999987
                },
                {
                    "name": "C#2",
                    "midi": 37,
                    "time": 21.857121,
                    "velocity": 0.7086614173228346,
                    "duration": 0.0892856249999987
                },
                {
                    "name": "A#4",
                    "midi": 70,
                    "time": 21.857121,
                    "velocity": 0.6299212598425197,
                    "duration": 0.0892856249999987
                },
                {
                    "name": "B1",
                    "midi": 35,
                    "time": 22.0714065,
                    "velocity": 0.5511811023622047,
                    "duration": 0.0892856249999987
                },
                {
                    "name": "F#2",
                    "midi": 42,
                    "time": 22.0714065,
                    "velocity": 0.5511811023622047,
                    "duration": 0.0892856249999987
                },
                {
                    "name": "A4",
                    "midi": 69,
                    "time": 22.0714065,
                    "velocity": 0.3937007874015748,
                    "duration": 0.0892856249999987
                },
                {
                    "name": "B1",
                    "midi": 35,
                    "time": 22.285691999999997,
                    "velocity": 0.7874015748031497,
                    "duration": 0.0892856249999987
                },
                {
                    "name": "F#2",
                    "midi": 42,
                    "time": 22.285691999999997,
                    "velocity": 0.7086614173228346,
                    "duration": 0.0892856249999987
                },
                {
                    "name": "A#4",
                    "midi": 70,
                    "time": 22.285691999999997,
                    "velocity": 0.6299212598425197,
                    "duration": 0.0892856249999987
                },
                {
                    "name": "F#2",
                    "midi": 42,
                    "time": 22.499977499999996,
                    "velocity": 0.5511811023622047,
                    "duration": 0.0892856249999987
                },
                {
                    "name": "A4",
                    "midi": 69,
                    "time": 22.499977499999996,
                    "velocity": 0.3937007874015748,
                    "duration": 0.0892856249999987
                },
                {
                    "name": "F#2",
                    "midi": 42,
                    "time": 22.714262999999995,
                    "velocity": 0.5511811023622047,
                    "duration": 0.0892856249999987
                },
                {
                    "name": "C#2",
                    "midi": 37,
                    "time": 22.714262999999995,
                    "velocity": 0.7086614173228346,
                    "duration": 0.0892856249999987
                },
                {
                    "name": "A#4",
                    "midi": 70,
                    "time": 22.714262999999995,
                    "velocity": 0.6299212598425197,
                    "duration": 0.0892856249999987
                },
                {
                    "name": "B1",
                    "midi": 35,
                    "time": 22.928548499999994,
                    "velocity": 0.5511811023622047,
                    "duration": 0.0892856249999987
                },
                {
                    "name": "F#2",
                    "midi": 42,
                    "time": 22.928548499999994,
                    "velocity": 0.5511811023622047,
                    "duration": 0.0892856249999987
                },
                {
                    "name": "A4",
                    "midi": 69,
                    "time": 22.928548499999994,
                    "velocity": 0.3937007874015748,
                    "duration": 0.0892856249999987
                },
                {
                    "name": "B1",
                    "midi": 35,
                    "time": 23.142833999999993,
                    "velocity": 0.7874015748031497,
                    "duration": 0.0892856249999987
                },
                {
                    "name": "F#2",
                    "midi": 42,
                    "time": 23.142833999999993,
                    "velocity": 0.7086614173228346,
                    "duration": 0.0892856249999987
                },
                {
                    "name": "A#4",
                    "midi": 70,
                    "time": 23.142833999999993,
                    "velocity": 0.6299212598425197,
                    "duration": 0.0892856249999987
                },
                {
                    "name": "F#2",
                    "midi": 42,
                    "time": 23.357119499999992,
                    "velocity": 0.5511811023622047,
                    "duration": 0.0892856249999987
                },
                {
                    "name": "C#2",
                    "midi": 37,
                    "time": 23.357119499999992,
                    "velocity": 0.7086614173228346,
                    "duration": 0.0892856249999987
                },
                {
                    "name": "A4",
                    "midi": 69,
                    "time": 23.357119499999992,
                    "velocity": 0.3937007874015748,
                    "duration": 0.0892856249999987
                },
                {
                    "name": "F#2",
                    "midi": 42,
                    "time": 23.57140499999999,
                    "velocity": 0.5511811023622047,
                    "duration": 0.0892856249999987
                },
                {
                    "name": "A2",
                    "midi": 45,
                    "time": 23.57140499999999,
                    "velocity": 0.5511811023622047,
                    "duration": 0.0892856249999987
                },
                {
                    "name": "A#4",
                    "midi": 70,
                    "time": 23.57140499999999,
                    "velocity": 0.6299212598425197,
                    "duration": 0.0892856249999987
                },
                {
                    "name": "B1",
                    "midi": 35,
                    "time": 23.78569049999999,
                    "velocity": 0.5511811023622047,
                    "duration": 0.0892856249999987
                },
                {
                    "name": "F#2",
                    "midi": 42,
                    "time": 23.78569049999999,
                    "velocity": 0.5511811023622047,
                    "duration": 0.0892856249999987
                },
                {
                    "name": "A2",
                    "midi": 45,
                    "time": 23.78569049999999,
                    "velocity": 0.3937007874015748,
                    "duration": 0.0892856249999987
                },
                {
                    "name": "A4",
                    "midi": 69,
                    "time": 23.78569049999999,
                    "velocity": 0.3937007874015748,
                    "duration": 0.0892856249999987
                },
                {
                    "name": "B1",
                    "midi": 35,
                    "time": 23.99997599999999,
                    "velocity": 0.7874015748031497,
                    "duration": 0.0892856249999987
                },
                {
                    "name": "F#2",
                    "midi": 42,
                    "time": 23.99997599999999,
                    "velocity": 0.7086614173228346,
                    "duration": 0.0892856249999987
                },
                {
                    "name": "C#2",
                    "midi": 37,
                    "time": 23.99997599999999,
                    "velocity": 0.7086614173228346,
                    "duration": 0.0892856249999987
                },
                {
                    "name": "A#4",
                    "midi": 70,
                    "time": 23.99997599999999,
                    "velocity": 0.6299212598425197,
                    "duration": 0.0892856249999987
                },
                {
                    "name": "F#2",
                    "midi": 42,
                    "time": 24.21426149999999,
                    "velocity": 0.5511811023622047,
                    "duration": 0.0892856249999987
                },
                {
                    "name": "A4",
                    "midi": 69,
                    "time": 24.21426149999999,
                    "velocity": 0.3937007874015748,
                    "duration": 0.0892856249999987
                },
                {
                    "name": "F#2",
                    "midi": 42,
                    "time": 24.428546999999988,
                    "velocity": 0.5511811023622047,
                    "duration": 0.0892856249999987
                },
                {
                    "name": "A#4",
                    "midi": 70,
                    "time": 24.428546999999988,
                    "velocity": 0.6299212598425197,
                    "duration": 0.0892856249999987
                },
                {
                    "name": "B1",
                    "midi": 35,
                    "time": 24.642832499999987,
                    "velocity": 0.5511811023622047,
                    "duration": 0.0892856249999987
                },
                {
                    "name": "F#2",
                    "midi": 42,
                    "time": 24.642832499999987,
                    "velocity": 0.5511811023622047,
                    "duration": 0.0892856249999987
                },
                {
                    "name": "C#2",
                    "midi": 37,
                    "time": 24.642832499999987,
                    "velocity": 0.7086614173228346,
                    "duration": 0.0892856249999987
                },
                {
                    "name": "A4",
                    "midi": 69,
                    "time": 24.642832499999987,
                    "velocity": 0.3937007874015748,
                    "duration": 0.0892856249999987
                },
                {
                    "name": "B1",
                    "midi": 35,
                    "time": 24.857117999999986,
                    "velocity": 0.7874015748031497,
                    "duration": 0.0892856249999987
                },
                {
                    "name": "F#2",
                    "midi": 42,
                    "time": 24.857117999999986,
                    "velocity": 0.7086614173228346,
                    "duration": 0.0892856249999987
                },
                {
                    "name": "A#4",
                    "midi": 70,
                    "time": 24.857117999999986,
                    "velocity": 0.6299212598425197,
                    "duration": 0.0892856249999987
                },
                {
                    "name": "F#2",
                    "midi": 42,
                    "time": 25.071403499999985,
                    "velocity": 0.5511811023622047,
                    "duration": 0.0892856249999987
                },
                {
                    "name": "A4",
                    "midi": 69,
                    "time": 25.071403499999985,
                    "velocity": 0.3937007874015748,
                    "duration": 0.0892856249999987
                },
                {
                    "name": "F#2",
                    "midi": 42,
                    "time": 25.285688999999984,
                    "velocity": 0.5511811023622047,
                    "duration": 0.0892856249999987
                },
                {
                    "name": "C#2",
                    "midi": 37,
                    "time": 25.285688999999984,
                    "velocity": 0.7086614173228346,
                    "duration": 0.0892856249999987
                },
                {
                    "name": "A#4",
                    "midi": 70,
                    "time": 25.285688999999984,
                    "velocity": 0.6299212598425197,
                    "duration": 0.0892856249999987
                },
                {
                    "name": "B1",
                    "midi": 35,
                    "time": 25.499974499999983,
                    "velocity": 0.5511811023622047,
                    "duration": 0.0892856249999987
                },
                {
                    "name": "F#2",
                    "midi": 42,
                    "time": 25.499974499999983,
                    "velocity": 0.5511811023622047,
                    "duration": 0.0892856249999987
                },
                {
                    "name": "A4",
                    "midi": 69,
                    "time": 25.499974499999983,
                    "velocity": 0.3937007874015748,
                    "duration": 0.0892856249999987
                },
                {
                    "name": "B1",
                    "midi": 35,
                    "time": 25.71425999999998,
                    "velocity": 0.7874015748031497,
                    "duration": 0.0892856249999987
                },
                {
                    "name": "F#2",
                    "midi": 42,
                    "time": 25.71425999999998,
                    "velocity": 0.7086614173228346,
                    "duration": 0.0892856249999987
                },
                {
                    "name": "A#4",
                    "midi": 70,
                    "time": 25.71425999999998,
                    "velocity": 0.6299212598425197,
                    "duration": 0.0892856249999987
                },
                {
                    "name": "F#2",
                    "midi": 42,
                    "time": 25.92854549999998,
                    "velocity": 0.5511811023622047,
                    "duration": 0.0892856249999987
                },
                {
                    "name": "A4",
                    "midi": 69,
                    "time": 25.92854549999998,
                    "velocity": 0.3937007874015748,
                    "duration": 0.0892856249999987
                },
                {
                    "name": "F#2",
                    "midi": 42,
                    "time": 26.14283099999998,
                    "velocity": 0.5511811023622047,
                    "duration": 0.0892856249999987
                },
                {
                    "name": "C#2",
                    "midi": 37,
                    "time": 26.14283099999998,
                    "velocity": 0.7086614173228346,
                    "duration": 0.0892856249999987
                },
                {
                    "name": "A#4",
                    "midi": 70,
                    "time": 26.14283099999998,
                    "velocity": 0.6299212598425197,
                    "duration": 0.0892856249999987
                },
                {
                    "name": "B1",
                    "midi": 35,
                    "time": 26.35711649999998,
                    "velocity": 0.5511811023622047,
                    "duration": 0.0892856249999987
                },
                {
                    "name": "F#2",
                    "midi": 42,
                    "time": 26.35711649999998,
                    "velocity": 0.5511811023622047,
                    "duration": 0.0892856249999987
                },
                {
                    "name": "A4",
                    "midi": 69,
                    "time": 26.35711649999998,
                    "velocity": 0.3937007874015748,
                    "duration": 0.0892856249999987
                },
                {
                    "name": "B1",
                    "midi": 35,
                    "time": 26.571401999999978,
                    "velocity": 0.7874015748031497,
                    "duration": 0.0892856249999987
                },
                {
                    "name": "F#2",
                    "midi": 42,
                    "time": 26.571401999999978,
                    "velocity": 0.7086614173228346,
                    "duration": 0.0892856249999987
                },
                {
                    "name": "A#4",
                    "midi": 70,
                    "time": 26.571401999999978,
                    "velocity": 0.6299212598425197,
                    "duration": 0.0892856249999987
                },
                {
                    "name": "F#2",
                    "midi": 42,
                    "time": 26.785687499999977,
                    "velocity": 0.5511811023622047,
                    "duration": 0.0892856249999987
                },
                {
                    "name": "C#2",
                    "midi": 37,
                    "time": 26.785687499999977,
                    "velocity": 0.7086614173228346,
                    "duration": 0.0892856249999987
                },
                {
                    "name": "A4",
                    "midi": 69,
                    "time": 26.785687499999977,
                    "velocity": 0.3937007874015748,
                    "duration": 0.0892856249999987
                },
                {
                    "name": "F#2",
                    "midi": 42,
                    "time": 26.999972999999976,
                    "velocity": 0.5511811023622047,
                    "duration": 0.0892856249999987
                },
                {
                    "name": "A#4",
                    "midi": 70,
                    "time": 26.999972999999976,
                    "velocity": 0.6299212598425197,
                    "duration": 0.0892856249999987
                },
                {
                    "name": "B1",
                    "midi": 35,
                    "time": 27.214258499999975,
                    "velocity": 0.5511811023622047,
                    "duration": 0.0892856249999987
                },
                {
                    "name": "F#2",
                    "midi": 42,
                    "time": 27.214258499999975,
                    "velocity": 0.5511811023622047,
                    "duration": 0.0892856249999987
                },
                {
                    "name": "A4",
                    "midi": 69,
                    "time": 27.214258499999975,
                    "velocity": 0.3937007874015748,
                    "duration": 0.0892856249999987
                },
                {
                    "name": "B1",
                    "midi": 35,
                    "time": 27.428543999999974,
                    "velocity": 0.7874015748031497,
                    "duration": 0.0892856249999987
                },
                {
                    "name": "F#2",
                    "midi": 42,
                    "time": 27.428543999999974,
                    "velocity": 0.7086614173228346,
                    "duration": 0.0892856249999987
                },
                {
                    "name": "C#2",
                    "midi": 37,
                    "time": 27.428543999999974,
                    "velocity": 0.7086614173228346,
                    "duration": 0.0892856249999987
                },
                {
                    "name": "A#4",
                    "midi": 70,
                    "time": 27.428543999999974,
                    "velocity": 0.6299212598425197,
                    "duration": 0.0892856249999987
                },
                {
                    "name": "F#2",
                    "midi": 42,
                    "time": 27.642829499999973,
                    "velocity": 0.5511811023622047,
                    "duration": 0.0892856249999987
                },
                {
                    "name": "A4",
                    "midi": 69,
                    "time": 27.642829499999973,
                    "velocity": 0.3937007874015748,
                    "duration": 0.0892856249999987
                },
                {
                    "name": "F#2",
                    "midi": 42,
                    "time": 27.857114999999972,
                    "velocity": 0.5511811023622047,
                    "duration": 0.0892856249999987
                },
                {
                    "name": "A#4",
                    "midi": 70,
                    "time": 27.857114999999972,
                    "velocity": 0.6299212598425197,
                    "duration": 0.0892856249999987
                },
                {
                    "name": "F#2",
                    "midi": 42,
                    "time": 27.96425774999997,
                    "velocity": 0.6299212598425197,
                    "duration": 0.0892856249999987
                },
                {
                    "name": "B1",
                    "midi": 35,
                    "time": 28.071400499999967,
                    "velocity": 0.5511811023622047,
                    "duration": 0.0892856249999987
                },
                {
                    "name": "F#2",
                    "midi": 42,
                    "time": 28.071400499999967,
                    "velocity": 0.5511811023622047,
                    "duration": 0.0892856249999987
                },
                {
                    "name": "C#2",
                    "midi": 37,
                    "time": 28.071400499999967,
                    "velocity": 0.7086614173228346,
                    "duration": 0.0892856249999987
                },
                {
                    "name": "A4",
                    "midi": 69,
                    "time": 28.071400499999967,
                    "velocity": 0.3937007874015748,
                    "duration": 0.0892856249999987
                },
                {
                    "name": "B1",
                    "midi": 35,
                    "time": 28.285685999999966,
                    "velocity": 0.7874015748031497,
                    "duration": 0.0892856249999987
                },
                {
                    "name": "F#2",
                    "midi": 42,
                    "time": 28.285685999999966,
                    "velocity": 0.7086614173228346,
                    "duration": 0.0892856249999987
                },
                {
                    "name": "A#4",
                    "midi": 70,
                    "time": 28.285685999999966,
                    "velocity": 0.6299212598425197,
                    "duration": 0.0892856249999987
                },
                {
                    "name": "A#2",
                    "midi": 46,
                    "time": 28.499971499999965,
                    "velocity": 0.5669291338582677,
                    "duration": 0.0892856249999987
                },
                {
                    "name": "A4",
                    "midi": 69,
                    "time": 28.499971499999965,
                    "velocity": 0.3937007874015748,
                    "duration": 0.0892856249999987
                },
                {
                    "name": "F#2",
                    "midi": 42,
                    "time": 28.714256999999964,
                    "velocity": 0.5511811023622047,
                    "duration": 0.0892856249999987
                },
                {
                    "name": "C#2",
                    "midi": 37,
                    "time": 28.714256999999964,
                    "velocity": 0.7086614173228346,
                    "duration": 0.0892856249999987
                },
                {
                    "name": "A#4",
                    "midi": 70,
                    "time": 28.714256999999964,
                    "velocity": 0.6299212598425197,
                    "duration": 0.0892856249999987
                },
                {
                    "name": "B1",
                    "midi": 35,
                    "time": 28.928542499999963,
                    "velocity": 0.5511811023622047,
                    "duration": 0.0892856249999987
                },
                {
                    "name": "F#2",
                    "midi": 42,
                    "time": 28.928542499999963,
                    "velocity": 0.5511811023622047,
                    "duration": 0.0892856249999987
                },
                {
                    "name": "A4",
                    "midi": 69,
                    "time": 28.928542499999963,
                    "velocity": 0.3937007874015748,
                    "duration": 0.0892856249999987
                },
                {
                    "name": "B1",
                    "midi": 35,
                    "time": 29.142827999999962,
                    "velocity": 0.7874015748031497,
                    "duration": 0.0892856249999987
                },
                {
                    "name": "F#2",
                    "midi": 42,
                    "time": 29.142827999999962,
                    "velocity": 0.7086614173228346,
                    "duration": 0.0892856249999987
                },
                {
                    "name": "A#4",
                    "midi": 70,
                    "time": 29.142827999999962,
                    "velocity": 0.6299212598425197,
                    "duration": 0.0892856249999987
                },
                {
                    "name": "F#2",
                    "midi": 42,
                    "time": 29.35711349999996,
                    "velocity": 0.5511811023622047,
                    "duration": 0.0892856249999987
                },
                {
                    "name": "A4",
                    "midi": 69,
                    "time": 29.35711349999996,
                    "velocity": 0.3937007874015748,
                    "duration": 0.0892856249999987
                },
                {
                    "name": "F#2",
                    "midi": 42,
                    "time": 29.57139899999996,
                    "velocity": 0.5511811023622047,
                    "duration": 0.0892856249999987
                },
                {
                    "name": "C#2",
                    "midi": 37,
                    "time": 29.57139899999996,
                    "velocity": 0.7086614173228346,
                    "duration": 0.0892856249999987
                },
                {
                    "name": "A#4",
                    "midi": 70,
                    "time": 29.57139899999996,
                    "velocity": 0.6299212598425197,
                    "duration": 0.0892856249999987
                },
                {
                    "name": "B1",
                    "midi": 35,
                    "time": 29.78568449999996,
                    "velocity": 0.5511811023622047,
                    "duration": 0.0892856249999987
                },
                {
                    "name": "F#2",
                    "midi": 42,
                    "time": 29.78568449999996,
                    "velocity": 0.5511811023622047,
                    "duration": 0.0892856249999987
                },
                {
                    "name": "A4",
                    "midi": 69,
                    "time": 29.78568449999996,
                    "velocity": 0.3937007874015748,
                    "duration": 0.0892856249999987
                },
                {
                    "name": "B1",
                    "midi": 35,
                    "time": 29.99996999999996,
                    "velocity": 0.7874015748031497,
                    "duration": 0.0892856249999987
                },
                {
                    "name": "F#2",
                    "midi": 42,
                    "time": 29.99996999999996,
                    "velocity": 0.7086614173228346,
                    "duration": 0.0892856249999987
                },
                {
                    "name": "A#4",
                    "midi": 70,
                    "time": 29.99996999999996,
                    "velocity": 0.6299212598425197,
                    "duration": 0.0892856249999987
                },
                {
                    "name": "F#2",
                    "midi": 42,
                    "time": 30.214255499999958,
                    "velocity": 0.5511811023622047,
                    "duration": 0.0892856249999987
                },
                {
                    "name": "C#2",
                    "midi": 37,
                    "time": 30.214255499999958,
                    "velocity": 0.7086614173228346,
                    "duration": 0.0892856249999987
                },
                {
                    "name": "A4",
                    "midi": 69,
                    "time": 30.214255499999958,
                    "velocity": 0.3937007874015748,
                    "duration": 0.0892856249999987
                },
                {
                    "name": "F#2",
                    "midi": 42,
                    "time": 30.428540999999957,
                    "velocity": 0.5511811023622047,
                    "duration": 0.0892856249999987
                },
                {
                    "name": "A#4",
                    "midi": 70,
                    "time": 30.428540999999957,
                    "velocity": 0.6299212598425197,
                    "duration": 0.0892856249999987
                },
                {
                    "name": "B1",
                    "midi": 35,
                    "time": 30.642826499999956,
                    "velocity": 0.5511811023622047,
                    "duration": 0.0892856249999987
                },
                {
                    "name": "F#2",
                    "midi": 42,
                    "time": 30.642826499999956,
                    "velocity": 0.5511811023622047,
                    "duration": 0.0892856249999987
                },
                {
                    "name": "A2",
                    "midi": 45,
                    "time": 30.642826499999956,
                    "velocity": 0.3937007874015748,
                    "duration": 0.0892856249999987
                },
                {
                    "name": "A4",
                    "midi": 69,
                    "time": 30.642826499999956,
                    "velocity": 0.3937007874015748,
                    "duration": 0.0892856249999987
                },
                {
                    "name": "B1",
                    "midi": 35,
                    "time": 30.857111999999955,
                    "velocity": 0.7874015748031497,
                    "duration": 0.0892856249999987
                },
                {
                    "name": "F#2",
                    "midi": 42,
                    "time": 30.857111999999955,
                    "velocity": 0.7086614173228346,
                    "duration": 0.0892856249999987
                },
                {
                    "name": "C#2",
                    "midi": 37,
                    "time": 30.857111999999955,
                    "velocity": 0.7086614173228346,
                    "duration": 0.0892856249999987
                },
                {
                    "name": "A#4",
                    "midi": 70,
                    "time": 30.857111999999955,
                    "velocity": 0.6299212598425197,
                    "duration": 0.0892856249999987
                },
                {
                    "name": "F#2",
                    "midi": 42,
                    "time": 31.071397499999954,
                    "velocity": 0.5511811023622047,
                    "duration": 0.0892856249999987
                },
                {
                    "name": "A4",
                    "midi": 69,
                    "time": 31.071397499999954,
                    "velocity": 0.3937007874015748,
                    "duration": 0.0892856249999987
                },
                {
                    "name": "F#2",
                    "midi": 42,
                    "time": 31.285682999999953,
                    "velocity": 0.5511811023622047,
                    "duration": 0.0892856249999987
                },
                {
                    "name": "A#4",
                    "midi": 70,
                    "time": 31.285682999999953,
                    "velocity": 0.6299212598425197,
                    "duration": 0.0892856249999987
                },
                {
                    "name": "B1",
                    "midi": 35,
                    "time": 31.49996849999995,
                    "velocity": 0.5511811023622047,
                    "duration": 0.0892856249999987
                },
                {
                    "name": "F#2",
                    "midi": 42,
                    "time": 31.49996849999995,
                    "velocity": 0.5511811023622047,
                    "duration": 0.0892856249999987
                },
                {
                    "name": "C#2",
                    "midi": 37,
                    "time": 31.49996849999995,
                    "velocity": 0.7086614173228346,
                    "duration": 0.0892856249999987
                },
                {
                    "name": "A4",
                    "midi": 69,
                    "time": 31.49996849999995,
                    "velocity": 0.3937007874015748,
                    "duration": 0.0892856249999987
                },
                {
                    "name": "B1",
                    "midi": 35,
                    "time": 31.71425399999995,
                    "velocity": 0.7874015748031497,
                    "duration": 0.0892856249999987
                },
                {
                    "name": "F#2",
                    "midi": 42,
                    "time": 31.71425399999995,
                    "velocity": 0.7086614173228346,
                    "duration": 0.0892856249999987
                },
                {
                    "name": "A#4",
                    "midi": 70,
                    "time": 31.71425399999995,
                    "velocity": 0.6299212598425197,
                    "duration": 0.0892856249999987
                },
                {
                    "name": "F#2",
                    "midi": 42,
                    "time": 31.92853949999995,
                    "velocity": 0.5511811023622047,
                    "duration": 0.08928562500000226
                },
                {
                    "name": "A4",
                    "midi": 69,
                    "time": 31.92853949999995,
                    "velocity": 0.3937007874015748,
                    "duration": 0.08928562500000226
                },
                {
                    "name": "F#2",
                    "midi": 42,
                    "time": 32.14282499999995,
                    "velocity": 0.5511811023622047,
                    "duration": 0.08928562500000226
                },
                {
                    "name": "C#2",
                    "midi": 37,
                    "time": 32.14282499999995,
                    "velocity": 0.7086614173228346,
                    "duration": 0.08928562500000226
                },
                {
                    "name": "A#4",
                    "midi": 70,
                    "time": 32.14282499999995,
                    "velocity": 0.6299212598425197,
                    "duration": 0.08928562500000226
                },
                {
                    "name": "B1",
                    "midi": 35,
                    "time": 32.357110499999955,
                    "velocity": 0.5511811023622047,
                    "duration": 0.08928562500000226
                },
                {
                    "name": "F#2",
                    "midi": 42,
                    "time": 32.357110499999955,
                    "velocity": 0.5511811023622047,
                    "duration": 0.08928562500000226
                },
                {
                    "name": "A4",
                    "midi": 69,
                    "time": 32.357110499999955,
                    "velocity": 0.3937007874015748,
                    "duration": 0.08928562500000226
                },
                {
                    "name": "B1",
                    "midi": 35,
                    "time": 32.57139599999996,
                    "velocity": 0.7874015748031497,
                    "duration": 0.08928562500000226
                },
                {
                    "name": "F#2",
                    "midi": 42,
                    "time": 32.57139599999996,
                    "velocity": 0.7086614173228346,
                    "duration": 0.08928562500000226
                },
                {
                    "name": "A#4",
                    "midi": 70,
                    "time": 32.57139599999996,
                    "velocity": 0.6299212598425197,
                    "duration": 0.08928562500000226
                },
                {
                    "name": "F#2",
                    "midi": 42,
                    "time": 32.78568149999996,
                    "velocity": 0.5511811023622047,
                    "duration": 0.08928562500000226
                },
                {
                    "name": "A4",
                    "midi": 69,
                    "time": 32.78568149999996,
                    "velocity": 0.3937007874015748,
                    "duration": 0.08928562500000226
                },
                {
                    "name": "F#2",
                    "midi": 42,
                    "time": 32.99996699999996,
                    "velocity": 0.5511811023622047,
                    "duration": 0.08928562500000226
                },
                {
                    "name": "C#2",
                    "midi": 37,
                    "time": 32.99996699999996,
                    "velocity": 0.7086614173228346,
                    "duration": 0.08928562500000226
                },
                {
                    "name": "A#4",
                    "midi": 70,
                    "time": 32.99996699999996,
                    "velocity": 0.6299212598425197,
                    "duration": 0.08928562500000226
                },
                {
                    "name": "B1",
                    "midi": 35,
                    "time": 33.214252499999965,
                    "velocity": 0.5511811023622047,
                    "duration": 0.08928562500000226
                },
                {
                    "name": "F#2",
                    "midi": 42,
                    "time": 33.214252499999965,
                    "velocity": 0.5511811023622047,
                    "duration": 0.08928562500000226
                },
                {
                    "name": "A4",
                    "midi": 69,
                    "time": 33.214252499999965,
                    "velocity": 0.3937007874015748,
                    "duration": 0.08928562500000226
                },
                {
                    "name": "B1",
                    "midi": 35,
                    "time": 33.42853799999997,
                    "velocity": 0.7874015748031497,
                    "duration": 0.08928562500000226
                },
                {
                    "name": "F#2",
                    "midi": 42,
                    "time": 33.42853799999997,
                    "velocity": 0.7086614173228346,
                    "duration": 0.08928562500000226
                },
                {
                    "name": "A#4",
                    "midi": 70,
                    "time": 33.42853799999997,
                    "velocity": 0.6299212598425197,
                    "duration": 0.08928562500000226
                },
                {
                    "name": "F#2",
                    "midi": 42,
                    "time": 33.64282349999997,
                    "velocity": 0.5511811023622047,
                    "duration": 0.08928562500000226
                },
                {
                    "name": "C#2",
                    "midi": 37,
                    "time": 33.64282349999997,
                    "velocity": 0.7086614173228346,
                    "duration": 0.08928562500000226
                },
                {
                    "name": "A4",
                    "midi": 69,
                    "time": 33.64282349999997,
                    "velocity": 0.3937007874015748,
                    "duration": 0.08928562500000226
                },
                {
                    "name": "F#2",
                    "midi": 42,
                    "time": 33.85710899999997,
                    "velocity": 0.5511811023622047,
                    "duration": 0.08928562500000226
                },
                {
                    "name": "A#4",
                    "midi": 70,
                    "time": 33.85710899999997,
                    "velocity": 0.6299212598425197,
                    "duration": 0.08928562500000226
                },
                {
                    "name": "B1",
                    "midi": 35,
                    "time": 34.071394499999975,
                    "velocity": 0.5511811023622047,
                    "duration": 0.08928562500000226
                },
                {
                    "name": "F#2",
                    "midi": 42,
                    "time": 34.071394499999975,
                    "velocity": 0.5511811023622047,
                    "duration": 0.08928562500000226
                },
                {
                    "name": "A4",
                    "midi": 69,
                    "time": 34.071394499999975,
                    "velocity": 0.3937007874015748,
                    "duration": 0.08928562500000226
                },
                {
                    "name": "B1",
                    "midi": 35,
                    "time": 34.28567999999998,
                    "velocity": 0.7874015748031497,
                    "duration": 0.08928562500000226
                },
                {
                    "name": "F#2",
                    "midi": 42,
                    "time": 34.28567999999998,
                    "velocity": 0.7086614173228346,
                    "duration": 0.08928562500000226
                },
                {
                    "name": "C#2",
                    "midi": 37,
                    "time": 34.28567999999998,
                    "velocity": 0.7086614173228346,
                    "duration": 0.08928562500000226
                },
                {
                    "name": "A#4",
                    "midi": 70,
                    "time": 34.28567999999998,
                    "velocity": 0.6299212598425197,
                    "duration": 0.08928562500000226
                },
                {
                    "name": "F#2",
                    "midi": 42,
                    "time": 34.49996549999998,
                    "velocity": 0.5511811023622047,
                    "duration": 0.08928562500000226
                },
                {
                    "name": "A4",
                    "midi": 69,
                    "time": 34.49996549999998,
                    "velocity": 0.3937007874015748,
                    "duration": 0.08928562500000226
                },
                {
                    "name": "F#2",
                    "midi": 42,
                    "time": 34.71425099999998,
                    "velocity": 0.5511811023622047,
                    "duration": 0.08928562500000226
                },
                {
                    "name": "A#4",
                    "midi": 70,
                    "time": 34.71425099999998,
                    "velocity": 0.6299212598425197,
                    "duration": 0.08928562500000226
                },
                {
                    "name": "B1",
                    "midi": 35,
                    "time": 34.928536499999986,
                    "velocity": 0.5511811023622047,
                    "duration": 0.08928562500000226
                },
                {
                    "name": "F#2",
                    "midi": 42,
                    "time": 34.928536499999986,
                    "velocity": 0.5511811023622047,
                    "duration": 0.08928562500000226
                },
                {
                    "name": "C#2",
                    "midi": 37,
                    "time": 34.928536499999986,
                    "velocity": 0.7086614173228346,
                    "duration": 0.08928562500000226
                },
                {
                    "name": "A4",
                    "midi": 69,
                    "time": 34.928536499999986,
                    "velocity": 0.3937007874015748,
                    "duration": 0.08928562500000226
                },
                {
                    "name": "B1",
                    "midi": 35,
                    "time": 35.14282199999999,
                    "velocity": 0.7874015748031497,
                    "duration": 0.08928562500000226
                },
                {
                    "name": "F#2",
                    "midi": 42,
                    "time": 35.14282199999999,
                    "velocity": 0.7086614173228346,
                    "duration": 0.08928562500000226
                },
                {
                    "name": "A#4",
                    "midi": 70,
                    "time": 35.14282199999999,
                    "velocity": 0.6299212598425197,
                    "duration": 0.08928562500000226
                },
                {
                    "name": "A#2",
                    "midi": 46,
                    "time": 35.35710749999999,
                    "velocity": 0.5669291338582677,
                    "duration": 0.08928562500000226
                },
                {
                    "name": "A4",
                    "midi": 69,
                    "time": 35.35710749999999,
                    "velocity": 0.3937007874015748,
                    "duration": 0.08928562500000226
                },
                {
                    "name": "F#2",
                    "midi": 42,
                    "time": 35.57139299999999,
                    "velocity": 0.5511811023622047,
                    "duration": 0.08928562500000226
                },
                {
                    "name": "C#2",
                    "midi": 37,
                    "time": 35.57139299999999,
                    "velocity": 0.7086614173228346,
                    "duration": 0.08928562500000226
                },
                {
                    "name": "A#4",
                    "midi": 70,
                    "time": 35.57139299999999,
                    "velocity": 0.6299212598425197,
                    "duration": 0.08928562500000226
                },
                {
                    "name": "B1",
                    "midi": 35,
                    "time": 35.785678499999996,
                    "velocity": 0.5511811023622047,
                    "duration": 0.08928562500000226
                },
                {
                    "name": "F#2",
                    "midi": 42,
                    "time": 35.785678499999996,
                    "velocity": 0.5511811023622047,
                    "duration": 0.08928562500000226
                },
                {
                    "name": "A4",
                    "midi": 69,
                    "time": 35.785678499999996,
                    "velocity": 0.3937007874015748,
                    "duration": 0.08928562500000226
                },
                {
                    "name": "B1",
                    "midi": 35,
                    "time": 35.999964,
                    "velocity": 0.7874015748031497,
                    "duration": 0.08928562500000226
                },
                {
                    "name": "F#2",
                    "midi": 42,
                    "time": 35.999964,
                    "velocity": 0.7086614173228346,
                    "duration": 0.08928562500000226
                },
                {
                    "name": "A#4",
                    "midi": 70,
                    "time": 35.999964,
                    "velocity": 0.6299212598425197,
                    "duration": 0.08928562500000226
                },
                {
                    "name": "F#2",
                    "midi": 42,
                    "time": 36.2142495,
                    "velocity": 0.5511811023622047,
                    "duration": 0.08928562500000226
                },
                {
                    "name": "A4",
                    "midi": 69,
                    "time": 36.2142495,
                    "velocity": 0.3937007874015748,
                    "duration": 0.08928562500000226
                },
                {
                    "name": "F#2",
                    "midi": 42,
                    "time": 36.428535000000004,
                    "velocity": 0.5511811023622047,
                    "duration": 0.08928562500000226
                },
                {
                    "name": "C#2",
                    "midi": 37,
                    "time": 36.428535000000004,
                    "velocity": 0.7086614173228346,
                    "duration": 0.08928562500000226
                },
                {
                    "name": "A#4",
                    "midi": 70,
                    "time": 36.428535000000004,
                    "velocity": 0.6299212598425197,
                    "duration": 0.08928562500000226
                },
                {
                    "name": "B1",
                    "midi": 35,
                    "time": 36.642820500000006,
                    "velocity": 0.5511811023622047,
                    "duration": 0.08928562500000226
                },
                {
                    "name": "F#2",
                    "midi": 42,
                    "time": 36.642820500000006,
                    "velocity": 0.5511811023622047,
                    "duration": 0.08928562500000226
                },
                {
                    "name": "A4",
                    "midi": 69,
                    "time": 36.642820500000006,
                    "velocity": 0.3937007874015748,
                    "duration": 0.08928562500000226
                },
                {
                    "name": "B1",
                    "midi": 35,
                    "time": 36.85710600000001,
                    "velocity": 0.7874015748031497,
                    "duration": 0.08928562500000226
                },
                {
                    "name": "F#2",
                    "midi": 42,
                    "time": 36.85710600000001,
                    "velocity": 0.7086614173228346,
                    "duration": 0.08928562500000226
                },
                {
                    "name": "A#4",
                    "midi": 70,
                    "time": 36.85710600000001,
                    "velocity": 0.6299212598425197,
                    "duration": 0.08928562500000226
                },
                {
                    "name": "F#2",
                    "midi": 42,
                    "time": 37.07139150000001,
                    "velocity": 0.5511811023622047,
                    "duration": 0.08928562500000226
                },
                {
                    "name": "C#2",
                    "midi": 37,
                    "time": 37.07139150000001,
                    "velocity": 0.7086614173228346,
                    "duration": 0.08928562500000226
                },
                {
                    "name": "A4",
                    "midi": 69,
                    "time": 37.07139150000001,
                    "velocity": 0.3937007874015748,
                    "duration": 0.08928562500000226
                },
                {
                    "name": "F#2",
                    "midi": 42,
                    "time": 37.285677000000014,
                    "velocity": 0.5511811023622047,
                    "duration": 0.08928562500000226
                },
                {
                    "name": "A#4",
                    "midi": 70,
                    "time": 37.285677000000014,
                    "velocity": 0.6299212598425197,
                    "duration": 0.08928562500000226
                },
                {
                    "name": "B1",
                    "midi": 35,
                    "time": 37.49996250000002,
                    "velocity": 0.5511811023622047,
                    "duration": 0.08928562500000226
                },
                {
                    "name": "F#2",
                    "midi": 42,
                    "time": 37.49996250000002,
                    "velocity": 0.5511811023622047,
                    "duration": 0.08928562500000226
                },
                {
                    "name": "A4",
                    "midi": 69,
                    "time": 37.49996250000002,
                    "velocity": 0.3937007874015748,
                    "duration": 0.08928562500000226
                },
                {
                    "name": "B1",
                    "midi": 35,
                    "time": 37.71424800000002,
                    "velocity": 0.7874015748031497,
                    "duration": 0.08928562500000226
                },
                {
                    "name": "F#2",
                    "midi": 42,
                    "time": 37.71424800000002,
                    "velocity": 0.7086614173228346,
                    "duration": 0.08928562500000226
                },
                {
                    "name": "C#2",
                    "midi": 37,
                    "time": 37.71424800000002,
                    "velocity": 0.7086614173228346,
                    "duration": 0.08928562500000226
                },
                {
                    "name": "A#4",
                    "midi": 70,
                    "time": 37.71424800000002,
                    "velocity": 0.6299212598425197,
                    "duration": 0.08928562500000226
                },
                {
                    "name": "F#2",
                    "midi": 42,
                    "time": 37.92853350000002,
                    "velocity": 0.5511811023622047,
                    "duration": 0.08928562500000226
                },
                {
                    "name": "A4",
                    "midi": 69,
                    "time": 37.92853350000002,
                    "velocity": 0.3937007874015748,
                    "duration": 0.08928562500000226
                },
                {
                    "name": "F#2",
                    "midi": 42,
                    "time": 38.142819000000024,
                    "velocity": 0.5511811023622047,
                    "duration": 0.08928562500000226
                },
                {
                    "name": "A#4",
                    "midi": 70,
                    "time": 38.142819000000024,
                    "velocity": 0.6299212598425197,
                    "duration": 0.08928562500000226
                },
                {
                    "name": "B1",
                    "midi": 35,
                    "time": 38.35710450000003,
                    "velocity": 0.5511811023622047,
                    "duration": 0.08928562500000226
                },
                {
                    "name": "F#2",
                    "midi": 42,
                    "time": 38.35710450000003,
                    "velocity": 0.5511811023622047,
                    "duration": 0.08928562500000226
                },
                {
                    "name": "C#2",
                    "midi": 37,
                    "time": 38.35710450000003,
                    "velocity": 0.7086614173228346,
                    "duration": 0.08928562500000226
                },
                {
                    "name": "A4",
                    "midi": 69,
                    "time": 38.35710450000003,
                    "velocity": 0.3937007874015748,
                    "duration": 0.08928562500000226
                },
                {
                    "name": "B1",
                    "midi": 35,
                    "time": 38.57139000000003,
                    "velocity": 0.7874015748031497,
                    "duration": 0.08928562500000226
                },
                {
                    "name": "F#2",
                    "midi": 42,
                    "time": 38.57139000000003,
                    "velocity": 0.7086614173228346,
                    "duration": 0.08928562500000226
                },
                {
                    "name": "A#4",
                    "midi": 70,
                    "time": 38.57139000000003,
                    "velocity": 0.6299212598425197,
                    "duration": 0.08928562500000226
                },
                {
                    "name": "A#2",
                    "midi": 46,
                    "time": 38.78567550000003,
                    "velocity": 0.5669291338582677,
                    "duration": 0.08928562500000226
                },
                {
                    "name": "A4",
                    "midi": 69,
                    "time": 38.78567550000003,
                    "velocity": 0.3937007874015748,
                    "duration": 0.08928562500000226
                },
                {
                    "name": "F#2",
                    "midi": 42,
                    "time": 38.999961000000035,
                    "velocity": 0.5511811023622047,
                    "duration": 0.08928562500000226
                },
                {
                    "name": "C#2",
                    "midi": 37,
                    "time": 38.999961000000035,
                    "velocity": 0.7086614173228346,
                    "duration": 0.08928562500000226
                },
                {
                    "name": "A#4",
                    "midi": 70,
                    "time": 38.999961000000035,
                    "velocity": 0.6299212598425197,
                    "duration": 0.08928562500000226
                },
                {
                    "name": "B1",
                    "midi": 35,
                    "time": 39.21424650000004,
                    "velocity": 0.5511811023622047,
                    "duration": 0.08928562500000226
                },
                {
                    "name": "F#2",
                    "midi": 42,
                    "time": 39.21424650000004,
                    "velocity": 0.5511811023622047,
                    "duration": 0.08928562500000226
                },
                {
                    "name": "A4",
                    "midi": 69,
                    "time": 39.21424650000004,
                    "velocity": 0.3937007874015748,
                    "duration": 0.08928562500000226
                },
                {
                    "name": "B1",
                    "midi": 35,
                    "time": 39.42853200000004,
                    "velocity": 0.7874015748031497,
                    "duration": 0.08928562500000226
                },
                {
                    "name": "F#2",
                    "midi": 42,
                    "time": 39.42853200000004,
                    "velocity": 0.7086614173228346,
                    "duration": 0.08928562500000226
                },
                {
                    "name": "A#4",
                    "midi": 70,
                    "time": 39.42853200000004,
                    "velocity": 0.6299212598425197,
                    "duration": 0.08928562500000226
                },
                {
                    "name": "F#2",
                    "midi": 42,
                    "time": 39.64281750000004,
                    "velocity": 0.5511811023622047,
                    "duration": 0.08928562500000226
                },
                {
                    "name": "A4",
                    "midi": 69,
                    "time": 39.64281750000004,
                    "velocity": 0.3937007874015748,
                    "duration": 0.08928562500000226
                },
                {
                    "name": "F#2",
                    "midi": 42,
                    "time": 39.857103000000045,
                    "velocity": 0.5511811023622047,
                    "duration": 0.08928562500000226
                },
                {
                    "name": "C#2",
                    "midi": 37,
                    "time": 39.857103000000045,
                    "velocity": 0.7086614173228346,
                    "duration": 0.08928562500000226
                },
                {
                    "name": "A#4",
                    "midi": 70,
                    "time": 39.857103000000045,
                    "velocity": 0.6299212598425197,
                    "duration": 0.08928562500000226
                },
                {
                    "name": "B1",
                    "midi": 35,
                    "time": 40.07138850000005,
                    "velocity": 0.5511811023622047,
                    "duration": 0.08928562500000226
                },
                {
                    "name": "F#2",
                    "midi": 42,
                    "time": 40.07138850000005,
                    "velocity": 0.5511811023622047,
                    "duration": 0.08928562500000226
                },
                {
                    "name": "A4",
                    "midi": 69,
                    "time": 40.07138850000005,
                    "velocity": 0.3937007874015748,
                    "duration": 0.08928562500000226
                },
                {
                    "name": "B1",
                    "midi": 35,
                    "time": 40.28567400000005,
                    "velocity": 0.7874015748031497,
                    "duration": 0.08928562500000226
                },
                {
                    "name": "F#2",
                    "midi": 42,
                    "time": 40.28567400000005,
                    "velocity": 0.7086614173228346,
                    "duration": 0.08928562500000226
                },
                {
                    "name": "A#4",
                    "midi": 70,
                    "time": 40.28567400000005,
                    "velocity": 0.6299212598425197,
                    "duration": 0.08928562500000226
                },
                {
                    "name": "F#2",
                    "midi": 42,
                    "time": 40.49995950000005,
                    "velocity": 0.5511811023622047,
                    "duration": 0.08928562500000226
                },
                {
                    "name": "C#2",
                    "midi": 37,
                    "time": 40.49995950000005,
                    "velocity": 0.7086614173228346,
                    "duration": 0.08928562500000226
                },
                {
                    "name": "A4",
                    "midi": 69,
                    "time": 40.49995950000005,
                    "velocity": 0.3937007874015748,
                    "duration": 0.08928562500000226
                },
                {
                    "name": "F#2",
                    "midi": 42,
                    "time": 40.714245000000055,
                    "velocity": 0.5511811023622047,
                    "duration": 0.08928562500000226
                },
                {
                    "name": "A#4",
                    "midi": 70,
                    "time": 40.714245000000055,
                    "velocity": 0.6299212598425197,
                    "duration": 0.08928562500000226
                },
                {
                    "name": "B1",
                    "midi": 35,
                    "time": 40.92853050000006,
                    "velocity": 0.5511811023622047,
                    "duration": 0.08928562500000226
                },
                {
                    "name": "A#2",
                    "midi": 46,
                    "time": 40.92853050000006,
                    "velocity": 0.5669291338582677,
                    "duration": 0.08928562500000226
                },
                {
                    "name": "A4",
                    "midi": 69,
                    "time": 40.92853050000006,
                    "velocity": 0.3937007874015748,
                    "duration": 0.08928562500000226
                },
                {
                    "name": "B1",
                    "midi": 35,
                    "time": 41.14281600000006,
                    "velocity": 0.7874015748031497,
                    "duration": 0.08928562500000226
                },
                {
                    "name": "F#2",
                    "midi": 42,
                    "time": 41.14281600000006,
                    "velocity": 0.7086614173228346,
                    "duration": 0.08928562500000226
                },
                {
                    "name": "C#2",
                    "midi": 37,
                    "time": 41.14281600000006,
                    "velocity": 0.7086614173228346,
                    "duration": 0.08928562500000226
                },
                {
                    "name": "A#4",
                    "midi": 70,
                    "time": 41.14281600000006,
                    "velocity": 0.6299212598425197,
                    "duration": 0.08928562500000226
                },
                {
                    "name": "F#2",
                    "midi": 42,
                    "time": 41.35710150000006,
                    "velocity": 0.5511811023622047,
                    "duration": 0.08928562500000226
                },
                {
                    "name": "A4",
                    "midi": 69,
                    "time": 41.35710150000006,
                    "velocity": 0.3937007874015748,
                    "duration": 0.08928562500000226
                },
                {
                    "name": "F#2",
                    "midi": 42,
                    "time": 41.571387000000065,
                    "velocity": 0.5511811023622047,
                    "duration": 0.08928562500000226
                },
                {
                    "name": "A#4",
                    "midi": 70,
                    "time": 41.571387000000065,
                    "velocity": 0.6299212598425197,
                    "duration": 0.08928562500000226
                },
                {
                    "name": "B1",
                    "midi": 35,
                    "time": 41.78567250000007,
                    "velocity": 0.5511811023622047,
                    "duration": 0.08928562500000226
                },
                {
                    "name": "F#2",
                    "midi": 42,
                    "time": 41.78567250000007,
                    "velocity": 0.5511811023622047,
                    "duration": 0.08928562500000226
                },
                {
                    "name": "C#2",
                    "midi": 37,
                    "time": 41.78567250000007,
                    "velocity": 0.7086614173228346,
                    "duration": 0.08928562500000226
                },
                {
                    "name": "A4",
                    "midi": 69,
                    "time": 41.78567250000007,
                    "velocity": 0.3937007874015748,
                    "duration": 0.08928562500000226
                },
                {
                    "name": "B1",
                    "midi": 35,
                    "time": 41.99995800000007,
                    "velocity": 0.7874015748031497,
                    "duration": 0.08928562500000226
                },
                {
                    "name": "F#2",
                    "midi": 42,
                    "time": 41.99995800000007,
                    "velocity": 0.7086614173228346,
                    "duration": 0.08928562500000226
                },
                {
                    "name": "A#4",
                    "midi": 70,
                    "time": 41.99995800000007,
                    "velocity": 0.6299212598425197,
                    "duration": 0.08928562500000226
                },
                {
                    "name": "A#2",
                    "midi": 46,
                    "time": 42.21424350000007,
                    "velocity": 0.5669291338582677,
                    "duration": 0.08928562500000226
                },
                {
                    "name": "A4",
                    "midi": 69,
                    "time": 42.21424350000007,
                    "velocity": 0.3937007874015748,
                    "duration": 0.08928562500000226
                },
                {
                    "name": "F#2",
                    "midi": 42,
                    "time": 42.428529000000076,
                    "velocity": 0.5511811023622047,
                    "duration": 0.08928562500000226
                },
                {
                    "name": "C#2",
                    "midi": 37,
                    "time": 42.428529000000076,
                    "velocity": 0.7086614173228346,
                    "duration": 0.08928562500000226
                },
                {
                    "name": "A#4",
                    "midi": 70,
                    "time": 42.428529000000076,
                    "velocity": 0.6299212598425197,
                    "duration": 0.08928562500000226
                },
                {
                    "name": "B1",
                    "midi": 35,
                    "time": 42.64281450000008,
                    "velocity": 0.5511811023622047,
                    "duration": 0.08928562500000226
                },
                {
                    "name": "F#2",
                    "midi": 42,
                    "time": 42.64281450000008,
                    "velocity": 0.5511811023622047,
                    "duration": 0.08928562500000226
                },
                {
                    "name": "A4",
                    "midi": 69,
                    "time": 42.64281450000008,
                    "velocity": 0.3937007874015748,
                    "duration": 0.08928562500000226
                },
                {
                    "name": "B1",
                    "midi": 35,
                    "time": 42.85710000000008,
                    "velocity": 0.7874015748031497,
                    "duration": 0.08928562500000226
                },
                {
                    "name": "F#2",
                    "midi": 42,
                    "time": 42.85710000000008,
                    "velocity": 0.7086614173228346,
                    "duration": 0.08928562500000226
                },
                {
                    "name": "A#4",
                    "midi": 70,
                    "time": 42.85710000000008,
                    "velocity": 0.6299212598425197,
                    "duration": 0.08928562500000226
                },
                {
                    "name": "F#2",
                    "midi": 42,
                    "time": 43.07138550000008,
                    "velocity": 0.5511811023622047,
                    "duration": 0.08928562500000226
                },
                {
                    "name": "A4",
                    "midi": 69,
                    "time": 43.07138550000008,
                    "velocity": 0.3937007874015748,
                    "duration": 0.08928562500000226
                },
                {
                    "name": "F#2",
                    "midi": 42,
                    "time": 43.285671000000086,
                    "velocity": 0.5511811023622047,
                    "duration": 0.08928562500000226
                },
                {
                    "name": "C#2",
                    "midi": 37,
                    "time": 43.285671000000086,
                    "velocity": 0.7086614173228346,
                    "duration": 0.08928562500000226
                },
                {
                    "name": "A#4",
                    "midi": 70,
                    "time": 43.285671000000086,
                    "velocity": 0.6299212598425197,
                    "duration": 0.08928562500000226
                },
                {
                    "name": "B1",
                    "midi": 35,
                    "time": 43.49995650000009,
                    "velocity": 0.5511811023622047,
                    "duration": 0.08928562500000226
                },
                {
                    "name": "F#2",
                    "midi": 42,
                    "time": 43.49995650000009,
                    "velocity": 0.5511811023622047,
                    "duration": 0.08928562500000226
                },
                {
                    "name": "A4",
                    "midi": 69,
                    "time": 43.49995650000009,
                    "velocity": 0.3937007874015748,
                    "duration": 0.08928562500000226
                },
                {
                    "name": "B1",
                    "midi": 35,
                    "time": 43.71424200000009,
                    "velocity": 0.7874015748031497,
                    "duration": 0.08928562500000226
                },
                {
                    "name": "F#2",
                    "midi": 42,
                    "time": 43.71424200000009,
                    "velocity": 0.7086614173228346,
                    "duration": 0.08928562500000226
                },
                {
                    "name": "A#4",
                    "midi": 70,
                    "time": 43.71424200000009,
                    "velocity": 0.6299212598425197,
                    "duration": 0.08928562500000226
                },
                {
                    "name": "F#2",
                    "midi": 42,
                    "time": 43.928527500000094,
                    "velocity": 0.5511811023622047,
                    "duration": 0.08928562500000226
                },
                {
                    "name": "C#2",
                    "midi": 37,
                    "time": 43.928527500000094,
                    "velocity": 0.7086614173228346,
                    "duration": 0.08928562500000226
                },
                {
                    "name": "A4",
                    "midi": 69,
                    "time": 43.928527500000094,
                    "velocity": 0.3937007874015748,
                    "duration": 0.08928562500000226
                },
                {
                    "name": "F#2",
                    "midi": 42,
                    "time": 44.142813000000096,
                    "velocity": 0.5511811023622047,
                    "duration": 0.08928562500000226
                },
                {
                    "name": "A#4",
                    "midi": 70,
                    "time": 44.142813000000096,
                    "velocity": 0.6299212598425197,
                    "duration": 0.08928562500000226
                },
                {
                    "name": "B1",
                    "midi": 35,
                    "time": 44.3570985000001,
                    "velocity": 0.5511811023622047,
                    "duration": 0.08928562500000226
                },
                {
                    "name": "F#2",
                    "midi": 42,
                    "time": 44.3570985000001,
                    "velocity": 0.5511811023622047,
                    "duration": 0.08928562500000226
                },
                {
                    "name": "A4",
                    "midi": 69,
                    "time": 44.3570985000001,
                    "velocity": 0.3937007874015748,
                    "duration": 0.08928562500000226
                },
                {
                    "name": "B1",
                    "midi": 35,
                    "time": 44.5713840000001,
                    "velocity": 0.7874015748031497,
                    "duration": 0.08928562500000226
                },
                {
                    "name": "F#2",
                    "midi": 42,
                    "time": 44.5713840000001,
                    "velocity": 0.7086614173228346,
                    "duration": 0.08928562500000226
                },
                {
                    "name": "C#2",
                    "midi": 37,
                    "time": 44.5713840000001,
                    "velocity": 0.7086614173228346,
                    "duration": 0.08928562500000226
                },
                {
                    "name": "A#4",
                    "midi": 70,
                    "time": 44.5713840000001,
                    "velocity": 0.6299212598425197,
                    "duration": 0.08928562500000226
                },
                {
                    "name": "F#2",
                    "midi": 42,
                    "time": 44.785669500000104,
                    "velocity": 0.5511811023622047,
                    "duration": 0.08928562500000226
                },
                {
                    "name": "A4",
                    "midi": 69,
                    "time": 44.785669500000104,
                    "velocity": 0.3937007874015748,
                    "duration": 0.08928562500000226
                },
                {
                    "name": "F#2",
                    "midi": 42,
                    "time": 44.99995500000011,
                    "velocity": 0.5511811023622047,
                    "duration": 0.08928562500000226
                },
                {
                    "name": "A#4",
                    "midi": 70,
                    "time": 44.99995500000011,
                    "velocity": 0.6299212598425197,
                    "duration": 0.08928562500000226
                },
                {
                    "name": "F#2",
                    "midi": 42,
                    "time": 45.10709775000011,
                    "velocity": 0.6299212598425197,
                    "duration": 0.08928562500000226
                },
                {
                    "name": "B1",
                    "midi": 35,
                    "time": 45.21424050000011,
                    "velocity": 0.5511811023622047,
                    "duration": 0.08928562500000226
                },
                {
                    "name": "F#2",
                    "midi": 42,
                    "time": 45.21424050000011,
                    "velocity": 0.5511811023622047,
                    "duration": 0.08928562500000226
                },
                {
                    "name": "C#2",
                    "midi": 37,
                    "time": 45.21424050000011,
                    "velocity": 0.7086614173228346,
                    "duration": 0.08928562500000226
                },
                {
                    "name": "A4",
                    "midi": 69,
                    "time": 45.21424050000011,
                    "velocity": 0.3937007874015748,
                    "duration": 0.08928562500000226
                },
                {
                    "name": "B1",
                    "midi": 35,
                    "time": 45.42852600000011,
                    "velocity": 0.7874015748031497,
                    "duration": 0.08928562500000226
                },
                {
                    "name": "F#2",
                    "midi": 42,
                    "time": 45.42852600000011,
                    "velocity": 0.7086614173228346,
                    "duration": 0.08928562500000226
                },
                {
                    "name": "A#4",
                    "midi": 70,
                    "time": 45.42852600000011,
                    "velocity": 0.6299212598425197,
                    "duration": 0.08928562500000226
                },
                {
                    "name": "F#2",
                    "midi": 42,
                    "time": 45.642811500000114,
                    "velocity": 0.5511811023622047,
                    "duration": 0.08928562500000226
                },
                {
                    "name": "A4",
                    "midi": 69,
                    "time": 45.642811500000114,
                    "velocity": 0.3937007874015748,
                    "duration": 0.08928562500000226
                },
                {
                    "name": "F#2",
                    "midi": 42,
                    "time": 45.85709700000012,
                    "velocity": 0.5511811023622047,
                    "duration": 0.08928562500000226
                },
                {
                    "name": "C#2",
                    "midi": 37,
                    "time": 45.85709700000012,
                    "velocity": 0.7086614173228346,
                    "duration": 0.08928562500000226
                },
                {
                    "name": "A#4",
                    "midi": 70,
                    "time": 45.85709700000012,
                    "velocity": 0.6299212598425197,
                    "duration": 0.08928562500000226
                },
                {
                    "name": "B1",
                    "midi": 35,
                    "time": 46.07138250000012,
                    "velocity": 0.5511811023622047,
                    "duration": 0.08928562500000226
                },
                {
                    "name": "F#2",
                    "midi": 42,
                    "time": 46.07138250000012,
                    "velocity": 0.5511811023622047,
                    "duration": 0.08928562500000226
                },
                {
                    "name": "A4",
                    "midi": 69,
                    "time": 46.07138250000012,
                    "velocity": 0.3937007874015748,
                    "duration": 0.08928562500000226
                },
                {
                    "name": "B1",
                    "midi": 35,
                    "time": 46.28566800000012,
                    "velocity": 0.7874015748031497,
                    "duration": 0.08928562500000226
                },
                {
                    "name": "F#2",
                    "midi": 42,
                    "time": 46.28566800000012,
                    "velocity": 0.7086614173228346,
                    "duration": 0.08928562500000226
                },
                {
                    "name": "A#4",
                    "midi": 70,
                    "time": 46.28566800000012,
                    "velocity": 0.6299212598425197,
                    "duration": 0.08928562500000226
                },
                {
                    "name": "F#2",
                    "midi": 42,
                    "time": 46.499953500000125,
                    "velocity": 0.5511811023622047,
                    "duration": 0.08928562500000226
                },
                {
                    "name": "A4",
                    "midi": 69,
                    "time": 46.499953500000125,
                    "velocity": 0.3937007874015748,
                    "duration": 0.08928562500000226
                },
                {
                    "name": "F#2",
                    "midi": 42,
                    "time": 46.71423900000013,
                    "velocity": 0.5511811023622047,
                    "duration": 0.08928562500000226
                },
                {
                    "name": "C#2",
                    "midi": 37,
                    "time": 46.71423900000013,
                    "velocity": 0.7086614173228346,
                    "duration": 0.08928562500000226
                },
                {
                    "name": "A#4",
                    "midi": 70,
                    "time": 46.71423900000013,
                    "velocity": 0.6299212598425197,
                    "duration": 0.08928562500000226
                },
                {
                    "name": "B1",
                    "midi": 35,
                    "time": 46.92852450000013,
                    "velocity": 0.5511811023622047,
                    "duration": 0.08928562500000226
                },
                {
                    "name": "F#2",
                    "midi": 42,
                    "time": 46.92852450000013,
                    "velocity": 0.5511811023622047,
                    "duration": 0.08928562500000226
                },
                {
                    "name": "A4",
                    "midi": 69,
                    "time": 46.92852450000013,
                    "velocity": 0.3937007874015748,
                    "duration": 0.08928562500000226
                },
                {
                    "name": "B1",
                    "midi": 35,
                    "time": 47.14281000000013,
                    "velocity": 0.7874015748031497,
                    "duration": 0.08928562500000226
                },
                {
                    "name": "F#2",
                    "midi": 42,
                    "time": 47.14281000000013,
                    "velocity": 0.7086614173228346,
                    "duration": 0.08928562500000226
                },
                {
                    "name": "A#4",
                    "midi": 70,
                    "time": 47.14281000000013,
                    "velocity": 0.6299212598425197,
                    "duration": 0.08928562500000226
                },
                {
                    "name": "F#2",
                    "midi": 42,
                    "time": 47.357095500000135,
                    "velocity": 0.5511811023622047,
                    "duration": 0.08928562500000226
                },
                {
                    "name": "C#2",
                    "midi": 37,
                    "time": 47.357095500000135,
                    "velocity": 0.7086614173228346,
                    "duration": 0.08928562500000226
                },
                {
                    "name": "A4",
                    "midi": 69,
                    "time": 47.357095500000135,
                    "velocity": 0.3937007874015748,
                    "duration": 0.08928562500000226
                },
                {
                    "name": "F#2",
                    "midi": 42,
                    "time": 47.57138100000014,
                    "velocity": 0.5511811023622047,
                    "duration": 0.08928562500000226
                },
                {
                    "name": "A#4",
                    "midi": 70,
                    "time": 47.57138100000014,
                    "velocity": 0.6299212598425197,
                    "duration": 0.08928562500000226
                },
                {
                    "name": "B1",
                    "midi": 35,
                    "time": 47.78566650000014,
                    "velocity": 0.5511811023622047,
                    "duration": 0.08928562500000226
                },
                {
                    "name": "A#2",
                    "midi": 46,
                    "time": 47.78566650000014,
                    "velocity": 0.5669291338582677,
                    "duration": 0.08928562500000226
                },
                {
                    "name": "A4",
                    "midi": 69,
                    "time": 47.78566650000014,
                    "velocity": 0.3937007874015748,
                    "duration": 0.08928562500000226
                },
                {
                    "name": "B1",
                    "midi": 35,
                    "time": 47.99995200000014,
                    "velocity": 0.7874015748031497,
                    "duration": 0.08928562500000226
                },
                {
                    "name": "F#2",
                    "midi": 42,
                    "time": 47.99995200000014,
                    "velocity": 0.7086614173228346,
                    "duration": 0.08928562500000226
                },
                {
                    "name": "C#2",
                    "midi": 37,
                    "time": 47.99995200000014,
                    "velocity": 0.7086614173228346,
                    "duration": 0.08928562500000226
                },
                {
                    "name": "A#4",
                    "midi": 70,
                    "time": 47.99995200000014,
                    "velocity": 0.6299212598425197,
                    "duration": 0.08928562500000226
                },
                {
                    "name": "F#2",
                    "midi": 42,
                    "time": 48.214237500000145,
                    "velocity": 0.5511811023622047,
                    "duration": 0.08928562500000226
                },
                {
                    "name": "A4",
                    "midi": 69,
                    "time": 48.214237500000145,
                    "velocity": 0.3937007874015748,
                    "duration": 0.08928562500000226
                },
                {
                    "name": "F#2",
                    "midi": 42,
                    "time": 48.42852300000015,
                    "velocity": 0.5511811023622047,
                    "duration": 0.08928562500000226
                },
                {
                    "name": "A#4",
                    "midi": 70,
                    "time": 48.42852300000015,
                    "velocity": 0.6299212598425197,
                    "duration": 0.08928562500000226
                },
                {
                    "name": "B1",
                    "midi": 35,
                    "time": 48.64280850000015,
                    "velocity": 0.5511811023622047,
                    "duration": 0.08928562500000226
                },
                {
                    "name": "F#2",
                    "midi": 42,
                    "time": 48.64280850000015,
                    "velocity": 0.5511811023622047,
                    "duration": 0.08928562500000226
                },
                {
                    "name": "C#2",
                    "midi": 37,
                    "time": 48.64280850000015,
                    "velocity": 0.7086614173228346,
                    "duration": 0.08928562500000226
                },
                {
                    "name": "A4",
                    "midi": 69,
                    "time": 48.64280850000015,
                    "velocity": 0.3937007874015748,
                    "duration": 0.08928562500000226
                },
                {
                    "name": "B1",
                    "midi": 35,
                    "time": 48.85709400000015,
                    "velocity": 0.7874015748031497,
                    "duration": 0.08928562500000226
                },
                {
                    "name": "F#2",
                    "midi": 42,
                    "time": 48.85709400000015,
                    "velocity": 0.7086614173228346,
                    "duration": 0.08928562500000226
                },
                {
                    "name": "A#4",
                    "midi": 70,
                    "time": 48.85709400000015,
                    "velocity": 0.6299212598425197,
                    "duration": 0.08928562500000226
                },
                {
                    "name": "F#2",
                    "midi": 42,
                    "time": 49.071379500000155,
                    "velocity": 0.5511811023622047,
                    "duration": 0.08928562500000226
                },
                {
                    "name": "A4",
                    "midi": 69,
                    "time": 49.071379500000155,
                    "velocity": 0.3937007874015748,
                    "duration": 0.08928562500000226
                },
                {
                    "name": "F#2",
                    "midi": 42,
                    "time": 49.28566500000016,
                    "velocity": 0.5511811023622047,
                    "duration": 0.08928562500000226
                },
                {
                    "name": "C#2",
                    "midi": 37,
                    "time": 49.28566500000016,
                    "velocity": 0.7086614173228346,
                    "duration": 0.08928562500000226
                },
                {
                    "name": "A#4",
                    "midi": 70,
                    "time": 49.28566500000016,
                    "velocity": 0.6299212598425197,
                    "duration": 0.08928562500000226
                },
                {
                    "name": "B1",
                    "midi": 35,
                    "time": 49.49995050000016,
                    "velocity": 0.5511811023622047,
                    "duration": 0.08928562500000226
                },
                {
                    "name": "F#2",
                    "midi": 42,
                    "time": 49.49995050000016,
                    "velocity": 0.5511811023622047,
                    "duration": 0.08928562500000226
                },
                {
                    "name": "A4",
                    "midi": 69,
                    "time": 49.49995050000016,
                    "velocity": 0.3937007874015748,
                    "duration": 0.08928562500000226
                },
                {
                    "name": "B1",
                    "midi": 35,
                    "time": 49.71423600000016,
                    "velocity": 0.7874015748031497,
                    "duration": 0.08928562500000226
                },
                {
                    "name": "F#2",
                    "midi": 42,
                    "time": 49.71423600000016,
                    "velocity": 0.7086614173228346,
                    "duration": 0.08928562500000226
                },
                {
                    "name": "A#4",
                    "midi": 70,
                    "time": 49.71423600000016,
                    "velocity": 0.6299212598425197,
                    "duration": 0.08928562500000226
                },
                {
                    "name": "F#2",
                    "midi": 42,
                    "time": 49.928521500000166,
                    "velocity": 0.5511811023622047,
                    "duration": 0.08928562500000226
                },
                {
                    "name": "A4",
                    "midi": 69,
                    "time": 49.928521500000166,
                    "velocity": 0.3937007874015748,
                    "duration": 0.08928562500000226
                },
                {
                    "name": "F#2",
                    "midi": 42,
                    "time": 50.14280700000017,
                    "velocity": 0.5511811023622047,
                    "duration": 0.08928562500000226
                },
                {
                    "name": "C#2",
                    "midi": 37,
                    "time": 50.14280700000017,
                    "velocity": 0.7086614173228346,
                    "duration": 0.08928562500000226
                },
                {
                    "name": "A#4",
                    "midi": 70,
                    "time": 50.14280700000017,
                    "velocity": 0.6299212598425197,
                    "duration": 0.08928562500000226
                },
                {
                    "name": "B1",
                    "midi": 35,
                    "time": 50.35709250000017,
                    "velocity": 0.5511811023622047,
                    "duration": 0.08928562500000226
                },
                {
                    "name": "F#2",
                    "midi": 42,
                    "time": 50.35709250000017,
                    "velocity": 0.5511811023622047,
                    "duration": 0.08928562500000226
                },
                {
                    "name": "A4",
                    "midi": 69,
                    "time": 50.35709250000017,
                    "velocity": 0.3937007874015748,
                    "duration": 0.08928562500000226
                },
                {
                    "name": "B1",
                    "midi": 35,
                    "time": 50.57137800000017,
                    "velocity": 0.7874015748031497,
                    "duration": 0.08928562500000226
                },
                {
                    "name": "F#2",
                    "midi": 42,
                    "time": 50.57137800000017,
                    "velocity": 0.7086614173228346,
                    "duration": 0.08928562500000226
                },
                {
                    "name": "A#4",
                    "midi": 70,
                    "time": 50.57137800000017,
                    "velocity": 0.6299212598425197,
                    "duration": 0.08928562500000226
                },
                {
                    "name": "F#2",
                    "midi": 42,
                    "time": 50.785663500000176,
                    "velocity": 0.5511811023622047,
                    "duration": 0.08928562500000226
                },
                {
                    "name": "C#2",
                    "midi": 37,
                    "time": 50.785663500000176,
                    "velocity": 0.7086614173228346,
                    "duration": 0.08928562500000226
                },
                {
                    "name": "A4",
                    "midi": 69,
                    "time": 50.785663500000176,
                    "velocity": 0.3937007874015748,
                    "duration": 0.08928562500000226
                },
                {
                    "name": "F#2",
                    "midi": 42,
                    "time": 50.99994900000018,
                    "velocity": 0.5511811023622047,
                    "duration": 0.08928562500000226
                },
                {
                    "name": "A#4",
                    "midi": 70,
                    "time": 50.99994900000018,
                    "velocity": 0.6299212598425197,
                    "duration": 0.08928562500000226
                },
                {
                    "name": "B1",
                    "midi": 35,
                    "time": 51.21423450000018,
                    "velocity": 0.5511811023622047,
                    "duration": 0.08928562500000226
                },
                {
                    "name": "F#2",
                    "midi": 42,
                    "time": 51.21423450000018,
                    "velocity": 0.5511811023622047,
                    "duration": 0.08928562500000226
                },
                {
                    "name": "A4",
                    "midi": 69,
                    "time": 51.21423450000018,
                    "velocity": 0.3937007874015748,
                    "duration": 0.08928562500000226
                },
                {
                    "name": "B1",
                    "midi": 35,
                    "time": 51.428520000000184,
                    "velocity": 0.7874015748031497,
                    "duration": 0.08928562500000226
                },
                {
                    "name": "F#2",
                    "midi": 42,
                    "time": 51.428520000000184,
                    "velocity": 0.7086614173228346,
                    "duration": 0.08928562500000226
                },
                {
                    "name": "C#2",
                    "midi": 37,
                    "time": 51.428520000000184,
                    "velocity": 0.7086614173228346,
                    "duration": 0.08928562500000226
                },
                {
                    "name": "A#4",
                    "midi": 70,
                    "time": 51.428520000000184,
                    "velocity": 0.6299212598425197,
                    "duration": 0.08928562500000226
                },
                {
                    "name": "F#2",
                    "midi": 42,
                    "time": 51.642805500000186,
                    "velocity": 0.5511811023622047,
                    "duration": 0.08928562500000226
                },
                {
                    "name": "A4",
                    "midi": 69,
                    "time": 51.642805500000186,
                    "velocity": 0.3937007874015748,
                    "duration": 0.08928562500000226
                },
                {
                    "name": "F#2",
                    "midi": 42,
                    "time": 51.85709100000019,
                    "velocity": 0.5511811023622047,
                    "duration": 0.08928562500000226
                },
                {
                    "name": "A#4",
                    "midi": 70,
                    "time": 51.85709100000019,
                    "velocity": 0.6299212598425197,
                    "duration": 0.08928562500000226
                },
                {
                    "name": "F#2",
                    "midi": 42,
                    "time": 51.96423375000019,
                    "velocity": 0.6299212598425197,
                    "duration": 0.08928562500000226
                },
                {
                    "name": "B1",
                    "midi": 35,
                    "time": 52.07137650000019,
                    "velocity": 0.5511811023622047,
                    "duration": 0.08928562500000226
                },
                {
                    "name": "F#2",
                    "midi": 42,
                    "time": 52.07137650000019,
                    "velocity": 0.5511811023622047,
                    "duration": 0.08928562500000226
                },
                {
                    "name": "C#2",
                    "midi": 37,
                    "time": 52.07137650000019,
                    "velocity": 0.7086614173228346,
                    "duration": 0.08928562500000226
                },
                {
                    "name": "A4",
                    "midi": 69,
                    "time": 52.07137650000019,
                    "velocity": 0.3937007874015748,
                    "duration": 0.08928562500000226
                },
                {
                    "name": "B1",
                    "midi": 35,
                    "time": 52.285662000000194,
                    "velocity": 0.7874015748031497,
                    "duration": 0.08928562500000226
                },
                {
                    "name": "F#2",
                    "midi": 42,
                    "time": 52.285662000000194,
                    "velocity": 0.7086614173228346,
                    "duration": 0.08928562500000226
                },
                {
                    "name": "A#4",
                    "midi": 70,
                    "time": 52.285662000000194,
                    "velocity": 0.6299212598425197,
                    "duration": 0.08928562500000226
                },
                {
                    "name": "F#2",
                    "midi": 42,
                    "time": 52.4999475000002,
                    "velocity": 0.5511811023622047,
                    "duration": 0.08928562500000226
                },
                {
                    "name": "A4",
                    "midi": 69,
                    "time": 52.4999475000002,
                    "velocity": 0.3937007874015748,
                    "duration": 0.08928562500000226
                },
                {
                    "name": "F#2",
                    "midi": 42,
                    "time": 52.7142330000002,
                    "velocity": 0.5511811023622047,
                    "duration": 0.08928562500000226
                },
                {
                    "name": "C#2",
                    "midi": 37,
                    "time": 52.7142330000002,
                    "velocity": 0.7086614173228346,
                    "duration": 0.08928562500000226
                },
                {
                    "name": "A#4",
                    "midi": 70,
                    "time": 52.7142330000002,
                    "velocity": 0.6299212598425197,
                    "duration": 0.08928562500000226
                },
                {
                    "name": "B1",
                    "midi": 35,
                    "time": 52.9285185000002,
                    "velocity": 0.5511811023622047,
                    "duration": 0.08928562500000226
                },
                {
                    "name": "F#2",
                    "midi": 42,
                    "time": 52.9285185000002,
                    "velocity": 0.5511811023622047,
                    "duration": 0.08928562500000226
                },
                {
                    "name": "A4",
                    "midi": 69,
                    "time": 52.9285185000002,
                    "velocity": 0.3937007874015748,
                    "duration": 0.08928562500000226
                },
                {
                    "name": "B1",
                    "midi": 35,
                    "time": 53.142804000000204,
                    "velocity": 0.7874015748031497,
                    "duration": 0.08928562500000226
                },
                {
                    "name": "F#2",
                    "midi": 42,
                    "time": 53.142804000000204,
                    "velocity": 0.7086614173228346,
                    "duration": 0.08928562500000226
                },
                {
                    "name": "A#4",
                    "midi": 70,
                    "time": 53.142804000000204,
                    "velocity": 0.6299212598425197,
                    "duration": 0.08928562500000226
                },
                {
                    "name": "F#2",
                    "midi": 42,
                    "time": 53.35708950000021,
                    "velocity": 0.5511811023622047,
                    "duration": 0.08928562500000226
                },
                {
                    "name": "A4",
                    "midi": 69,
                    "time": 53.35708950000021,
                    "velocity": 0.3937007874015748,
                    "duration": 0.08928562500000226
                },
                {
                    "name": "F#2",
                    "midi": 42,
                    "time": 53.57137500000021,
                    "velocity": 0.5511811023622047,
                    "duration": 0.08928562500000226
                },
                {
                    "name": "C#2",
                    "midi": 37,
                    "time": 53.57137500000021,
                    "velocity": 0.7086614173228346,
                    "duration": 0.08928562500000226
                },
                {
                    "name": "A#4",
                    "midi": 70,
                    "time": 53.57137500000021,
                    "velocity": 0.6299212598425197,
                    "duration": 0.08928562500000226
                },
                {
                    "name": "B1",
                    "midi": 35,
                    "time": 53.78566050000021,
                    "velocity": 0.5511811023622047,
                    "duration": 0.08928562500000226
                },
                {
                    "name": "F#2",
                    "midi": 42,
                    "time": 53.78566050000021,
                    "velocity": 0.5511811023622047,
                    "duration": 0.08928562500000226
                },
                {
                    "name": "C3",
                    "midi": 48,
                    "time": 53.78566050000021,
                    "velocity": 0.3937007874015748,
                    "duration": 0.08928562500000226
                },
                {
                    "name": "A4",
                    "midi": 69,
                    "time": 53.78566050000021,
                    "velocity": 0.3937007874015748,
                    "duration": 0.08928562500000226
                },
                {
                    "name": "B1",
                    "midi": 35,
                    "time": 53.999946000000214,
                    "velocity": 0.7874015748031497,
                    "duration": 0.08928562500000226
                },
                {
                    "name": "F#2",
                    "midi": 42,
                    "time": 53.999946000000214,
                    "velocity": 0.7086614173228346,
                    "duration": 0.08928562500000226
                },
                {
                    "name": "A#4",
                    "midi": 70,
                    "time": 53.999946000000214,
                    "velocity": 0.6299212598425197,
                    "duration": 0.08928562500000226
                },
                {
                    "name": "F#2",
                    "midi": 42,
                    "time": 54.21423150000022,
                    "velocity": 0.5511811023622047,
                    "duration": 0.08928562500000226
                },
                {
                    "name": "C#2",
                    "midi": 37,
                    "time": 54.21423150000022,
                    "velocity": 0.7086614173228346,
                    "duration": 0.08928562500000226
                },
                {
                    "name": "A4",
                    "midi": 69,
                    "time": 54.21423150000022,
                    "velocity": 0.3937007874015748,
                    "duration": 0.08928562500000226
                },
                {
                    "name": "F#2",
                    "midi": 42,
                    "time": 54.42851700000022,
                    "velocity": 0.5511811023622047,
                    "duration": 0.08928562500000226
                },
                {
                    "name": "A2",
                    "midi": 45,
                    "time": 54.42851700000022,
                    "velocity": 0.5511811023622047,
                    "duration": 0.08928562500000226
                },
                {
                    "name": "A#4",
                    "midi": 70,
                    "time": 54.42851700000022,
                    "velocity": 0.6299212598425197,
                    "duration": 0.08928562500000226
                },
                {
                    "name": "B1",
                    "midi": 35,
                    "time": 54.64280250000022,
                    "velocity": 0.5511811023622047,
                    "duration": 0.08928562500000226
                },
                {
                    "name": "F#2",
                    "midi": 42,
                    "time": 54.64280250000022,
                    "velocity": 0.5511811023622047,
                    "duration": 0.08928562500000226
                },
                {
                    "name": "A4",
                    "midi": 69,
                    "time": 54.64280250000022,
                    "velocity": 0.3937007874015748,
                    "duration": 0.08928562500000226
                },
                {
                    "name": "B1",
                    "midi": 35,
                    "time": 54.857088000000225,
                    "velocity": 0.7874015748031497,
                    "duration": 0.08928562500000226
                },
                {
                    "name": "F#2",
                    "midi": 42,
                    "time": 54.857088000000225,
                    "velocity": 0.7086614173228346,
                    "duration": 0.08928562500000226
                },
                {
                    "name": "C#2",
                    "midi": 37,
                    "time": 54.857088000000225,
                    "velocity": 0.7086614173228346,
                    "duration": 0.08928562500000226
                },
                {
                    "name": "A#4",
                    "midi": 70,
                    "time": 54.857088000000225,
                    "velocity": 0.6299212598425197,
                    "duration": 0.08928562500000226
                },
                {
                    "name": "F#2",
                    "midi": 42,
                    "time": 55.07137350000023,
                    "velocity": 0.5511811023622047,
                    "duration": 0.08928562500000226
                },
                {
                    "name": "A4",
                    "midi": 69,
                    "time": 55.07137350000023,
                    "velocity": 0.3937007874015748,
                    "duration": 0.08928562500000226
                },
                {
                    "name": "F#2",
                    "midi": 42,
                    "time": 55.28565900000023,
                    "velocity": 0.5511811023622047,
                    "duration": 0.08928562500000226
                },
                {
                    "name": "A#4",
                    "midi": 70,
                    "time": 55.28565900000023,
                    "velocity": 0.6299212598425197,
                    "duration": 0.08928562500000226
                },
                {
                    "name": "F#2",
                    "midi": 42,
                    "time": 55.39280175000023,
                    "velocity": 0.6299212598425197,
                    "duration": 0.08928562500000226
                },
                {
                    "name": "B1",
                    "midi": 35,
                    "time": 55.49994450000023,
                    "velocity": 0.5511811023622047,
                    "duration": 0.08928562500000226
                },
                {
                    "name": "F#2",
                    "midi": 42,
                    "time": 55.49994450000023,
                    "velocity": 0.5511811023622047,
                    "duration": 0.08928562500000226
                },
                {
                    "name": "C#2",
                    "midi": 37,
                    "time": 55.49994450000023,
                    "velocity": 0.7086614173228346,
                    "duration": 0.08928562500000226
                },
                {
                    "name": "A4",
                    "midi": 69,
                    "time": 55.49994450000023,
                    "velocity": 0.3937007874015748,
                    "duration": 0.08928562500000226
                },
                {
                    "name": "B1",
                    "midi": 35,
                    "time": 55.714230000000235,
                    "velocity": 0.7874015748031497,
                    "duration": 0.08928562500000226
                },
                {
                    "name": "F#2",
                    "midi": 42,
                    "time": 55.714230000000235,
                    "velocity": 0.7086614173228346,
                    "duration": 0.08928562500000226
                },
                {
                    "name": "A#4",
                    "midi": 70,
                    "time": 55.714230000000235,
                    "velocity": 0.6299212598425197,
                    "duration": 0.08928562500000226
                },
                {
                    "name": "A#2",
                    "midi": 46,
                    "time": 55.92851550000024,
                    "velocity": 0.5669291338582677,
                    "duration": 0.08928562500000226
                },
                {
                    "name": "A4",
                    "midi": 69,
                    "time": 55.92851550000024,
                    "velocity": 0.3937007874015748,
                    "duration": 0.08928562500000226
                },
                {
                    "name": "F#2",
                    "midi": 42,
                    "time": 56.14280100000024,
                    "velocity": 0.5511811023622047,
                    "duration": 0.08928562500000226
                },
                {
                    "name": "C#2",
                    "midi": 37,
                    "time": 56.14280100000024,
                    "velocity": 0.7086614173228346,
                    "duration": 0.08928562500000226
                },
                {
                    "name": "A#4",
                    "midi": 70,
                    "time": 56.14280100000024,
                    "velocity": 0.6299212598425197,
                    "duration": 0.08928562500000226
                },
                {
                    "name": "B1",
                    "midi": 35,
                    "time": 56.35708650000024,
                    "velocity": 0.5511811023622047,
                    "duration": 0.08928562500000226
                },
                {
                    "name": "F#2",
                    "midi": 42,
                    "time": 56.35708650000024,
                    "velocity": 0.5511811023622047,
                    "duration": 0.08928562500000226
                },
                {
                    "name": "A4",
                    "midi": 69,
                    "time": 56.35708650000024,
                    "velocity": 0.3937007874015748,
                    "duration": 0.08928562500000226
                },
                {
                    "name": "B1",
                    "midi": 35,
                    "time": 56.571372000000245,
                    "velocity": 0.7874015748031497,
                    "duration": 0.08928562500000226
                },
                {
                    "name": "C#3",
                    "midi": 49,
                    "time": 56.571372000000245,
                    "velocity": 0.5511811023622047,
                    "duration": 0.08928562500000226
                },
                {
                    "name": "A#4",
                    "midi": 70,
                    "time": 56.571372000000245,
                    "velocity": 0.6299212598425197,
                    "duration": 0.08928562500000226
                },
                {
                    "name": "A4",
                    "midi": 69,
                    "time": 56.78565750000025,
                    "velocity": 0.3937007874015748,
                    "duration": 0.08928562500000226
                },
                {
                    "name": "A#4",
                    "midi": 70,
                    "time": 56.99994300000025,
                    "velocity": 0.6299212598425197,
                    "duration": 0.08928562500000226
                },
                {
                    "name": "D2",
                    "midi": 38,
                    "time": 57.21422850000025,
                    "velocity": 0.31496062992125984,
                    "duration": 0.08928562500000226
                },
                {
                    "name": "A4",
                    "midi": 69,
                    "time": 57.21422850000025,
                    "velocity": 0.3937007874015748,
                    "duration": 0.08928562500000226
                },
                {
                    "name": "D2",
                    "midi": 38,
                    "time": 57.321371250000254,
                    "velocity": 0.31496062992125984,
                    "duration": 0.08928562500000226
                },
                {
                    "name": "D2",
                    "midi": 38,
                    "time": 57.428514000000256,
                    "velocity": 0.6299212598425197,
                    "duration": 0.08928562500000226
                },
                {
                    "name": "A#4",
                    "midi": 70,
                    "time": 57.428514000000256,
                    "velocity": 0.6299212598425197,
                    "duration": 0.08928562500000226
                },
                {
                    "name": "D2",
                    "midi": 38,
                    "time": 57.64279950000026,
                    "velocity": 0.7086614173228346,
                    "duration": 0.08928562500000226
                },
                {
                    "name": "A4",
                    "midi": 69,
                    "time": 57.64279950000026,
                    "velocity": 0.3937007874015748,
                    "duration": 0.08928562500000226
                },
                {
                    "name": "A#4",
                    "midi": 70,
                    "time": 57.85708500000026,
                    "velocity": 0.6299212598425197,
                    "duration": 0.08928562500000226
                },
                {
                    "name": "D2",
                    "midi": 38,
                    "time": 58.07137050000026,
                    "velocity": 0.7874015748031497,
                    "duration": 0.08928562500000226
                },
                {
                    "name": "A4",
                    "midi": 69,
                    "time": 58.07137050000026,
                    "velocity": 0.3937007874015748,
                    "duration": 0.08928562500000226
                },
                {
                    "name": "B1",
                    "midi": 35,
                    "time": 58.285656000000266,
                    "velocity": 0.7874015748031497,
                    "duration": 0.08928562500000226
                },
                {
                    "name": "C#2",
                    "midi": 37,
                    "time": 58.285656000000266,
                    "velocity": 0.7086614173228346,
                    "duration": 0.08928562500000226
                },
                {
                    "name": "G#3",
                    "midi": 56,
                    "time": 58.285656000000266,
                    "velocity": 0.31496062992125984,
                    "duration": 0.08928562500000226
                },
                {
                    "name": "C#3",
                    "midi": 49,
                    "time": 58.285656000000266,
                    "velocity": 0.5511811023622047,
                    "duration": 0.08928562500000226
                },
                {
                    "name": "A#4",
                    "midi": 70,
                    "time": 58.285656000000266,
                    "velocity": 0.6299212598425197,
                    "duration": 0.08928562500000226
                },
                {
                    "name": "D#3",
                    "midi": 51,
                    "time": 58.49994150000027,
                    "velocity": 0.5511811023622047,
                    "duration": 0.08928562500000226
                },
                {
                    "name": "D#4",
                    "midi": 63,
                    "time": 58.49994150000027,
                    "velocity": 0.31496062992125984,
                    "duration": 0.08928562500000226
                },
                {
                    "name": "A4",
                    "midi": 69,
                    "time": 58.49994150000027,
                    "velocity": 0.3937007874015748,
                    "duration": 0.08928562500000226
                },
                {
                    "name": "D#3",
                    "midi": 51,
                    "time": 58.71422700000027,
                    "velocity": 0.7086614173228346,
                    "duration": 0.08928562500000226
                },
                {
                    "name": "D#4",
                    "midi": 63,
                    "time": 58.71422700000027,
                    "velocity": 0.47244094488188976,
                    "duration": 0.08928562500000226
                },
                {
                    "name": "A#4",
                    "midi": 70,
                    "time": 58.71422700000027,
                    "velocity": 0.6299212598425197,
                    "duration": 0.08928562500000226
                },
                {
                    "name": "B1",
                    "midi": 35,
                    "time": 58.928512500000274,
                    "velocity": 0.5511811023622047,
                    "duration": 0.08928562500000226
                },
                {
                    "name": "C#2",
                    "midi": 37,
                    "time": 58.928512500000274,
                    "velocity": 0.7086614173228346,
                    "duration": 0.08928562500000226
                },
                {
                    "name": "G#3",
                    "midi": 56,
                    "time": 58.928512500000274,
                    "velocity": 0.31496062992125984,
                    "duration": 0.08928562500000226
                },
                {
                    "name": "D#3",
                    "midi": 51,
                    "time": 58.928512500000274,
                    "velocity": 0.5511811023622047,
                    "duration": 0.08928562500000226
                },
                {
                    "name": "D4",
                    "midi": 62,
                    "time": 58.928512500000274,
                    "velocity": 0.5511811023622047,
                    "duration": 0.08928562500000226
                },
                {
                    "name": "A4",
                    "midi": 69,
                    "time": 58.928512500000274,
                    "velocity": 0.3937007874015748,
                    "duration": 0.08928562500000226
                },
                {
                    "name": "B1",
                    "midi": 35,
                    "time": 59.142798000000276,
                    "velocity": 0.7874015748031497,
                    "duration": 0.08928562500000226
                },
                {
                    "name": "D#3",
                    "midi": 51,
                    "time": 59.142798000000276,
                    "velocity": 0.7086614173228346,
                    "duration": 0.08928562500000226
                },
                {
                    "name": "A#4",
                    "midi": 70,
                    "time": 59.142798000000276,
                    "velocity": 0.6299212598425197,
                    "duration": 0.08928562500000226
                },
                {
                    "name": "D#3",
                    "midi": 51,
                    "time": 59.35708350000028,
                    "velocity": 0.5511811023622047,
                    "duration": 0.08928562500000226
                },
                {
                    "name": "A4",
                    "midi": 69,
                    "time": 59.35708350000028,
                    "velocity": 0.3937007874015748,
                    "duration": 0.08928562500000226
                },
                {
                    "name": "C#2",
                    "midi": 37,
                    "time": 59.57136900000028,
                    "velocity": 0.7086614173228346,
                    "duration": 0.08928562500000226
                },
                {
                    "name": "D#3",
                    "midi": 51,
                    "time": 59.57136900000028,
                    "velocity": 0.7086614173228346,
                    "duration": 0.08928562500000226
                },
                {
                    "name": "D4",
                    "midi": 62,
                    "time": 59.57136900000028,
                    "velocity": 0.5511811023622047,
                    "duration": 0.08928562500000226
                },
                {
                    "name": "A#4",
                    "midi": 70,
                    "time": 59.57136900000028,
                    "velocity": 0.6299212598425197,
                    "duration": 0.08928562500000226
                },
                {
                    "name": "B1",
                    "midi": 35,
                    "time": 59.785654500000284,
                    "velocity": 0.5511811023622047,
                    "duration": 0.08928562500000226
                },
                {
                    "name": "D#3",
                    "midi": 51,
                    "time": 59.785654500000284,
                    "velocity": 0.5511811023622047,
                    "duration": 0.08928562500000226
                },
                {
                    "name": "A4",
                    "midi": 69,
                    "time": 59.785654500000284,
                    "velocity": 0.3937007874015748,
                    "duration": 0.08928562500000226
                },
                {
                    "name": "B1",
                    "midi": 35,
                    "time": 59.99994000000029,
                    "velocity": 0.7874015748031497,
                    "duration": 0.08928562500000226
                },
                {
                    "name": "G#3",
                    "midi": 56,
                    "time": 59.99994000000029,
                    "velocity": 0.31496062992125984,
                    "duration": 0.08928562500000226
                },
                {
                    "name": "D#3",
                    "midi": 51,
                    "time": 59.99994000000029,
                    "velocity": 0.7086614173228346,
                    "duration": 0.08928562500000226
                },
                {
                    "name": "D#4",
                    "midi": 63,
                    "time": 59.99994000000029,
                    "velocity": 0.31496062992125984,
                    "duration": 0.08928562500000226
                },
                {
                    "name": "A#4",
                    "midi": 70,
                    "time": 59.99994000000029,
                    "velocity": 0.6299212598425197,
                    "duration": 0.08928562500000226
                },
                {
                    "name": "D#3",
                    "midi": 51,
                    "time": 60.21422550000029,
                    "velocity": 0.5511811023622047,
                    "duration": 0.08928562500000226
                },
                {
                    "name": "D#4",
                    "midi": 63,
                    "time": 60.21422550000029,
                    "velocity": 0.31496062992125984,
                    "duration": 0.08928562500000226
                },
                {
                    "name": "A4",
                    "midi": 69,
                    "time": 60.21422550000029,
                    "velocity": 0.3937007874015748,
                    "duration": 0.08928562500000226
                },
                {
                    "name": "C#2",
                    "midi": 37,
                    "time": 60.42851100000029,
                    "velocity": 0.7086614173228346,
                    "duration": 0.08928562500000226
                },
                {
                    "name": "D#3",
                    "midi": 51,
                    "time": 60.42851100000029,
                    "velocity": 0.7086614173228346,
                    "duration": 0.08928562500000226
                },
                {
                    "name": "A#4",
                    "midi": 70,
                    "time": 60.42851100000029,
                    "velocity": 0.6299212598425197,
                    "duration": 0.08928562500000226
                },
                {
                    "name": "B1",
                    "midi": 35,
                    "time": 60.642796500000294,
                    "velocity": 0.5511811023622047,
                    "duration": 0.08928562500000226
                },
                {
                    "name": "G#3",
                    "midi": 56,
                    "time": 60.642796500000294,
                    "velocity": 0.31496062992125984,
                    "duration": 0.08928562500000226
                },
                {
                    "name": "D#3",
                    "midi": 51,
                    "time": 60.642796500000294,
                    "velocity": 0.5511811023622047,
                    "duration": 0.08928562500000226
                },
                {
                    "name": "A4",
                    "midi": 69,
                    "time": 60.642796500000294,
                    "velocity": 0.3937007874015748,
                    "duration": 0.08928562500000226
                },
                {
                    "name": "B1",
                    "midi": 35,
                    "time": 60.8570820000003,
                    "velocity": 0.7874015748031497,
                    "duration": 0.08928562500000226
                },
                {
                    "name": "D#3",
                    "midi": 51,
                    "time": 60.8570820000003,
                    "velocity": 0.7086614173228346,
                    "duration": 0.08928562500000226
                },
                {
                    "name": "A#4",
                    "midi": 70,
                    "time": 60.8570820000003,
                    "velocity": 0.6299212598425197,
                    "duration": 0.08928562500000226
                },
                {
                    "name": "C#2",
                    "midi": 37,
                    "time": 61.0713675000003,
                    "velocity": 0.7086614173228346,
                    "duration": 0.08928562500000226
                },
                {
                    "name": "D#3",
                    "midi": 51,
                    "time": 61.0713675000003,
                    "velocity": 0.5511811023622047,
                    "duration": 0.08928562500000226
                },
                {
                    "name": "A4",
                    "midi": 69,
                    "time": 61.0713675000003,
                    "velocity": 0.3937007874015748,
                    "duration": 0.08928562500000226
                },
                {
                    "name": "G#3",
                    "midi": 56,
                    "time": 61.2856530000003,
                    "velocity": 0.31496062992125984,
                    "duration": 0.08928562500000226
                },
                {
                    "name": "D#3",
                    "midi": 51,
                    "time": 61.2856530000003,
                    "velocity": 0.7086614173228346,
                    "duration": 0.08928562500000226
                },
                {
                    "name": "A#4",
                    "midi": 70,
                    "time": 61.2856530000003,
                    "velocity": 0.6299212598425197,
                    "duration": 0.08928562500000226
                },
                {
                    "name": "B1",
                    "midi": 35,
                    "time": 61.499938500000304,
                    "velocity": 0.5511811023622047,
                    "duration": 0.08928562500000226
                },
                {
                    "name": "D#3",
                    "midi": 51,
                    "time": 61.499938500000304,
                    "velocity": 0.5511811023622047,
                    "duration": 0.08928562500000226
                },
                {
                    "name": "A4",
                    "midi": 69,
                    "time": 61.499938500000304,
                    "velocity": 0.3937007874015748,
                    "duration": 0.08928562500000226
                },
                {
                    "name": "B1",
                    "midi": 35,
                    "time": 61.71422400000031,
                    "velocity": 0.7874015748031497,
                    "duration": 0.08928562500000226
                },
                {
                    "name": "C#2",
                    "midi": 37,
                    "time": 61.71422400000031,
                    "velocity": 0.7086614173228346,
                    "duration": 0.08928562500000226
                },
                {
                    "name": "D#3",
                    "midi": 51,
                    "time": 61.71422400000031,
                    "velocity": 0.7086614173228346,
                    "duration": 0.08928562500000226
                },
                {
                    "name": "A#4",
                    "midi": 70,
                    "time": 61.71422400000031,
                    "velocity": 0.6299212598425197,
                    "duration": 0.08928562500000226
                },
                {
                    "name": "D#3",
                    "midi": 51,
                    "time": 61.92850950000031,
                    "velocity": 0.5511811023622047,
                    "duration": 0.08928562500000226
                },
                {
                    "name": "D#4",
                    "midi": 63,
                    "time": 61.92850950000031,
                    "velocity": 0.31496062992125984,
                    "duration": 0.08928562500000226
                },
                {
                    "name": "A4",
                    "midi": 69,
                    "time": 61.92850950000031,
                    "velocity": 0.3937007874015748,
                    "duration": 0.08928562500000226
                },
                {
                    "name": "D#3",
                    "midi": 51,
                    "time": 62.14279500000031,
                    "velocity": 0.7086614173228346,
                    "duration": 0.08928562500000226
                },
                {
                    "name": "C3",
                    "midi": 48,
                    "time": 62.14279500000031,
                    "velocity": 0.47244094488188976,
                    "duration": 0.08928562500000226
                },
                {
                    "name": "D#4",
                    "midi": 63,
                    "time": 62.14279500000031,
                    "velocity": 0.47244094488188976,
                    "duration": 0.08928562500000226
                },
                {
                    "name": "A#4",
                    "midi": 70,
                    "time": 62.14279500000031,
                    "velocity": 0.6299212598425197,
                    "duration": 0.08928562500000226
                },
                {
                    "name": "B1",
                    "midi": 35,
                    "time": 62.357080500000315,
                    "velocity": 0.5511811023622047,
                    "duration": 0.08928562500000226
                },
                {
                    "name": "C#2",
                    "midi": 37,
                    "time": 62.357080500000315,
                    "velocity": 0.7086614173228346,
                    "duration": 0.08928562500000226
                },
                {
                    "name": "G#3",
                    "midi": 56,
                    "time": 62.357080500000315,
                    "velocity": 0.31496062992125984,
                    "duration": 0.08928562500000226
                },
                {
                    "name": "D#3",
                    "midi": 51,
                    "time": 62.357080500000315,
                    "velocity": 0.5511811023622047,
                    "duration": 0.08928562500000226
                },
                {
                    "name": "D4",
                    "midi": 62,
                    "time": 62.357080500000315,
                    "velocity": 0.5511811023622047,
                    "duration": 0.08928562500000226
                },
                {
                    "name": "A4",
                    "midi": 69,
                    "time": 62.357080500000315,
                    "velocity": 0.3937007874015748,
                    "duration": 0.08928562500000226
                },
                {
                    "name": "B1",
                    "midi": 35,
                    "time": 62.57136600000032,
                    "velocity": 0.7874015748031497,
                    "duration": 0.08928562500000226
                },
                {
                    "name": "D#3",
                    "midi": 51,
                    "time": 62.57136600000032,
                    "velocity": 0.7086614173228346,
                    "duration": 0.08928562500000226
                },
                {
                    "name": "A#4",
                    "midi": 70,
                    "time": 62.57136600000032,
                    "velocity": 0.6299212598425197,
                    "duration": 0.08928562500000226
                },
                {
                    "name": "D#3",
                    "midi": 51,
                    "time": 62.78565150000032,
                    "velocity": 0.5511811023622047,
                    "duration": 0.08928562500000226
                },
                {
                    "name": "D#4",
                    "midi": 63,
                    "time": 62.78565150000032,
                    "velocity": 0.3937007874015748,
                    "duration": 0.08928562500000226
                },
                {
                    "name": "A4",
                    "midi": 69,
                    "time": 62.78565150000032,
                    "velocity": 0.3937007874015748,
                    "duration": 0.08928562500000226
                },
                {
                    "name": "C#2",
                    "midi": 37,
                    "time": 62.99993700000032,
                    "velocity": 0.7086614173228346,
                    "duration": 0.08928562500000226
                },
                {
                    "name": "G#3",
                    "midi": 56,
                    "time": 62.99993700000032,
                    "velocity": 0.31496062992125984,
                    "duration": 0.08928562500000226
                },
                {
                    "name": "D#3",
                    "midi": 51,
                    "time": 62.99993700000032,
                    "velocity": 0.7086614173228346,
                    "duration": 0.08928562500000226
                },
                {
                    "name": "D4",
                    "midi": 62,
                    "time": 62.99993700000032,
                    "velocity": 0.5511811023622047,
                    "duration": 0.08928562500000226
                },
                {
                    "name": "A#4",
                    "midi": 70,
                    "time": 62.99993700000032,
                    "velocity": 0.6299212598425197,
                    "duration": 0.08928562500000226
                },
                {
                    "name": "B1",
                    "midi": 35,
                    "time": 63.214222500000325,
                    "velocity": 0.5511811023622047,
                    "duration": 0.08928562500000226
                },
                {
                    "name": "D#3",
                    "midi": 51,
                    "time": 63.214222500000325,
                    "velocity": 0.5511811023622047,
                    "duration": 0.08928562500000226
                },
                {
                    "name": "A4",
                    "midi": 69,
                    "time": 63.214222500000325,
                    "velocity": 0.3937007874015748,
                    "duration": 0.08928562500000226
                },
                {
                    "name": "B1",
                    "midi": 35,
                    "time": 63.42850800000033,
                    "velocity": 0.7874015748031497,
                    "duration": 0.08928562500000226
                },
                {
                    "name": "D#3",
                    "midi": 51,
                    "time": 63.42850800000033,
                    "velocity": 0.7086614173228346,
                    "duration": 0.08928562500000226
                },
                {
                    "name": "D#4",
                    "midi": 63,
                    "time": 63.42850800000033,
                    "velocity": 0.31496062992125984,
                    "duration": 0.08928562500000226
                },
                {
                    "name": "A#4",
                    "midi": 70,
                    "time": 63.42850800000033,
                    "velocity": 0.6299212598425197,
                    "duration": 0.08928562500000226
                },
                {
                    "name": "D#3",
                    "midi": 51,
                    "time": 63.64279350000033,
                    "velocity": 0.5511811023622047,
                    "duration": 0.08928562500000226
                },
                {
                    "name": "D#4",
                    "midi": 63,
                    "time": 63.64279350000033,
                    "velocity": 0.31496062992125984,
                    "duration": 0.08928562500000226
                },
                {
                    "name": "A4",
                    "midi": 69,
                    "time": 63.64279350000033,
                    "velocity": 0.3937007874015748,
                    "duration": 0.08928562500000226
                },
                {
                    "name": "C#2",
                    "midi": 37,
                    "time": 63.85707900000033,
                    "velocity": 0.7086614173228346,
                    "duration": 0.08928562500000226
                },
                {
                    "name": "D#3",
                    "midi": 51,
                    "time": 63.85707900000033,
                    "velocity": 0.7086614173228346,
                    "duration": 0.08928562500000226
                },
                {
                    "name": "A#4",
                    "midi": 70,
                    "time": 63.85707900000033,
                    "velocity": 0.6299212598425197,
                    "duration": 0.08928562500000226
                },
                {
                    "name": "B1",
                    "midi": 35,
                    "time": 64.07136450000033,
                    "velocity": 0.5511811023622047,
                    "duration": 0.08928562500000226
                },
                {
                    "name": "G#3",
                    "midi": 56,
                    "time": 64.07136450000033,
                    "velocity": 0.31496062992125984,
                    "duration": 0.08928562500000226
                },
                {
                    "name": "D#3",
                    "midi": 51,
                    "time": 64.07136450000033,
                    "velocity": 0.5511811023622047,
                    "duration": 0.08928562500000226
                },
                {
                    "name": "A4",
                    "midi": 69,
                    "time": 64.07136450000033,
                    "velocity": 0.3937007874015748,
                    "duration": 0.08928562500000226
                },
                {
                    "name": "B1",
                    "midi": 35,
                    "time": 64.28565000000033,
                    "velocity": 0.7874015748031497,
                    "duration": 0.08928562500000226
                },
                {
                    "name": "D#3",
                    "midi": 51,
                    "time": 64.28565000000033,
                    "velocity": 0.7086614173228346,
                    "duration": 0.08928562500000226
                },
                {
                    "name": "A#4",
                    "midi": 70,
                    "time": 64.28565000000033,
                    "velocity": 0.6299212598425197,
                    "duration": 0.08928562500000226
                },
                {
                    "name": "C#2",
                    "midi": 37,
                    "time": 64.49993550000033,
                    "velocity": 0.7086614173228346,
                    "duration": 0.08928562500000226
                },
                {
                    "name": "D#3",
                    "midi": 51,
                    "time": 64.49993550000033,
                    "velocity": 0.5511811023622047,
                    "duration": 0.08928562500000226
                },
                {
                    "name": "A4",
                    "midi": 69,
                    "time": 64.49993550000033,
                    "velocity": 0.3937007874015748,
                    "duration": 0.08928562500000226
                },
                {
                    "name": "G#3",
                    "midi": 56,
                    "time": 64.71422100000034,
                    "velocity": 0.31496062992125984,
                    "duration": 0.08928562500000226
                },
                {
                    "name": "D#3",
                    "midi": 51,
                    "time": 64.71422100000034,
                    "velocity": 0.7086614173228346,
                    "duration": 0.08928562500000226
                },
                {
                    "name": "A2",
                    "midi": 45,
                    "time": 64.71422100000034,
                    "velocity": 0.5511811023622047,
                    "duration": 0.08928562500000226
                },
                {
                    "name": "A#4",
                    "midi": 70,
                    "time": 64.71422100000034,
                    "velocity": 0.6299212598425197,
                    "duration": 0.08928562500000226
                },
                {
                    "name": "B1",
                    "midi": 35,
                    "time": 64.92850650000034,
                    "velocity": 0.5511811023622047,
                    "duration": 0.08928562500000226
                },
                {
                    "name": "D#3",
                    "midi": 51,
                    "time": 64.92850650000034,
                    "velocity": 0.5511811023622047,
                    "duration": 0.08928562500000226
                },
                {
                    "name": "A4",
                    "midi": 69,
                    "time": 64.92850650000034,
                    "velocity": 0.3937007874015748,
                    "duration": 0.08928562500000226
                },
                {
                    "name": "B1",
                    "midi": 35,
                    "time": 65.14279200000034,
                    "velocity": 0.7874015748031497,
                    "duration": 0.08928562500000226
                },
                {
                    "name": "C#2",
                    "midi": 37,
                    "time": 65.14279200000034,
                    "velocity": 0.7086614173228346,
                    "duration": 0.08928562500000226
                },
                {
                    "name": "G#3",
                    "midi": 56,
                    "time": 65.14279200000034,
                    "velocity": 0.31496062992125984,
                    "duration": 0.08928562500000226
                },
                {
                    "name": "D#3",
                    "midi": 51,
                    "time": 65.14279200000034,
                    "velocity": 0.7086614173228346,
                    "duration": 0.08928562500000226
                },
                {
                    "name": "A#4",
                    "midi": 70,
                    "time": 65.14279200000034,
                    "velocity": 0.6299212598425197,
                    "duration": 0.08928562500000226
                },
                {
                    "name": "D#3",
                    "midi": 51,
                    "time": 65.35707750000034,
                    "velocity": 0.5511811023622047,
                    "duration": 0.08928562500000226
                },
                {
                    "name": "D#4",
                    "midi": 63,
                    "time": 65.35707750000034,
                    "velocity": 0.31496062992125984,
                    "duration": 0.08928562500000226
                },
                {
                    "name": "A4",
                    "midi": 69,
                    "time": 65.35707750000034,
                    "velocity": 0.3937007874015748,
                    "duration": 0.08928562500000226
                },
                {
                    "name": "D#3",
                    "midi": 51,
                    "time": 65.57136300000035,
                    "velocity": 0.7086614173228346,
                    "duration": 0.08928562500000226
                },
                {
                    "name": "C3",
                    "midi": 48,
                    "time": 65.57136300000035,
                    "velocity": 0.47244094488188976,
                    "duration": 0.08928562500000226
                },
                {
                    "name": "D#4",
                    "midi": 63,
                    "time": 65.57136300000035,
                    "velocity": 0.47244094488188976,
                    "duration": 0.08928562500000226
                },
                {
                    "name": "A#4",
                    "midi": 70,
                    "time": 65.57136300000035,
                    "velocity": 0.6299212598425197,
                    "duration": 0.08928562500000226
                },
                {
                    "name": "B1",
                    "midi": 35,
                    "time": 65.78564850000035,
                    "velocity": 0.5511811023622047,
                    "duration": 0.08928562500000226
                },
                {
                    "name": "C#2",
                    "midi": 37,
                    "time": 65.78564850000035,
                    "velocity": 0.7086614173228346,
                    "duration": 0.08928562500000226
                },
                {
                    "name": "D#3",
                    "midi": 51,
                    "time": 65.78564850000035,
                    "velocity": 0.5511811023622047,
                    "duration": 0.08928562500000226
                },
                {
                    "name": "D4",
                    "midi": 62,
                    "time": 65.78564850000035,
                    "velocity": 0.5511811023622047,
                    "duration": 0.08928562500000226
                },
                {
                    "name": "A4",
                    "midi": 69,
                    "time": 65.78564850000035,
                    "velocity": 0.3937007874015748,
                    "duration": 0.08928562500000226
                },
                {
                    "name": "B1",
                    "midi": 35,
                    "time": 65.99993400000035,
                    "velocity": 0.7874015748031497,
                    "duration": 0.08928562500000226
                },
                {
                    "name": "D#3",
                    "midi": 51,
                    "time": 65.99993400000035,
                    "velocity": 0.7086614173228346,
                    "duration": 0.08928562500000226
                },
                {
                    "name": "A#4",
                    "midi": 70,
                    "time": 65.99993400000035,
                    "velocity": 0.6299212598425197,
                    "duration": 0.08928562500000226
                },
                {
                    "name": "D#3",
                    "midi": 51,
                    "time": 66.21421950000035,
                    "velocity": 0.5511811023622047,
                    "duration": 0.08928562500000226
                },
                {
                    "name": "A4",
                    "midi": 69,
                    "time": 66.21421950000035,
                    "velocity": 0.3937007874015748,
                    "duration": 0.08928562500000226
                },
                {
                    "name": "C#2",
                    "midi": 37,
                    "time": 66.42850500000036,
                    "velocity": 0.7086614173228346,
                    "duration": 0.08928562500000226
                },
                {
                    "name": "G#3",
                    "midi": 56,
                    "time": 66.42850500000036,
                    "velocity": 0.31496062992125984,
                    "duration": 0.08928562500000226
                },
                {
                    "name": "D#3",
                    "midi": 51,
                    "time": 66.42850500000036,
                    "velocity": 0.7086614173228346,
                    "duration": 0.08928562500000226
                },
                {
                    "name": "D4",
                    "midi": 62,
                    "time": 66.42850500000036,
                    "velocity": 0.5511811023622047,
                    "duration": 0.08928562500000226
                },
                {
                    "name": "A#4",
                    "midi": 70,
                    "time": 66.42850500000036,
                    "velocity": 0.6299212598425197,
                    "duration": 0.08928562500000226
                },
                {
                    "name": "B1",
                    "midi": 35,
                    "time": 66.64279050000036,
                    "velocity": 0.5511811023622047,
                    "duration": 0.08928562500000226
                },
                {
                    "name": "D#3",
                    "midi": 51,
                    "time": 66.64279050000036,
                    "velocity": 0.5511811023622047,
                    "duration": 0.08928562500000226
                },
                {
                    "name": "A2",
                    "midi": 45,
                    "time": 66.64279050000036,
                    "velocity": 0.5905511811023622,
                    "duration": 0.08928562500000226
                },
                {
                    "name": "A4",
                    "midi": 69,
                    "time": 66.64279050000036,
                    "velocity": 0.3937007874015748,
                    "duration": 0.08928562500000226
                },
                {
                    "name": "B1",
                    "midi": 35,
                    "time": 66.85707600000036,
                    "velocity": 0.7874015748031497,
                    "duration": 0.08928562500000226
                },
                {
                    "name": "G#3",
                    "midi": 56,
                    "time": 66.85707600000036,
                    "velocity": 0.31496062992125984,
                    "duration": 0.08928562500000226
                },
                {
                    "name": "D#3",
                    "midi": 51,
                    "time": 66.85707600000036,
                    "velocity": 0.7086614173228346,
                    "duration": 0.08928562500000226
                },
                {
                    "name": "D#4",
                    "midi": 63,
                    "time": 66.85707600000036,
                    "velocity": 0.31496062992125984,
                    "duration": 0.08928562500000226
                },
                {
                    "name": "A#4",
                    "midi": 70,
                    "time": 66.85707600000036,
                    "velocity": 0.6299212598425197,
                    "duration": 0.08928562500000226
                },
                {
                    "name": "D#3",
                    "midi": 51,
                    "time": 67.07136150000036,
                    "velocity": 0.5511811023622047,
                    "duration": 0.08928562500000226
                },
                {
                    "name": "D#4",
                    "midi": 63,
                    "time": 67.07136150000036,
                    "velocity": 0.31496062992125984,
                    "duration": 0.08928562500000226
                },
                {
                    "name": "A4",
                    "midi": 69,
                    "time": 67.07136150000036,
                    "velocity": 0.3937007874015748,
                    "duration": 0.08928562500000226
                },
                {
                    "name": "C#2",
                    "midi": 37,
                    "time": 67.28564700000037,
                    "velocity": 0.7086614173228346,
                    "duration": 0.08928562500000226
                },
                {
                    "name": "D#3",
                    "midi": 51,
                    "time": 67.28564700000037,
                    "velocity": 0.7086614173228346,
                    "duration": 0.08928562500000226
                },
                {
                    "name": "A#4",
                    "midi": 70,
                    "time": 67.28564700000037,
                    "velocity": 0.6299212598425197,
                    "duration": 0.08928562500000226
                },
                {
                    "name": "B1",
                    "midi": 35,
                    "time": 67.49993250000037,
                    "velocity": 0.5511811023622047,
                    "duration": 0.08928562500000226
                },
                {
                    "name": "D#3",
                    "midi": 51,
                    "time": 67.49993250000037,
                    "velocity": 0.5511811023622047,
                    "duration": 0.08928562500000226
                },
                {
                    "name": "A4",
                    "midi": 69,
                    "time": 67.49993250000037,
                    "velocity": 0.3937007874015748,
                    "duration": 0.08928562500000226
                },
                {
                    "name": "B1",
                    "midi": 35,
                    "time": 67.71421800000037,
                    "velocity": 0.7874015748031497,
                    "duration": 0.08928562500000226
                },
                {
                    "name": "D#3",
                    "midi": 51,
                    "time": 67.71421800000037,
                    "velocity": 0.7086614173228346,
                    "duration": 0.08928562500000226
                },
                {
                    "name": "A#4",
                    "midi": 70,
                    "time": 67.71421800000037,
                    "velocity": 0.6299212598425197,
                    "duration": 0.08928562500000226
                },
                {
                    "name": "C#2",
                    "midi": 37,
                    "time": 67.92850350000037,
                    "velocity": 0.7086614173228346,
                    "duration": 0.08928562500000226
                },
                {
                    "name": "D#3",
                    "midi": 51,
                    "time": 67.92850350000037,
                    "velocity": 0.5511811023622047,
                    "duration": 0.08928562500000226
                },
                {
                    "name": "A4",
                    "midi": 69,
                    "time": 67.92850350000037,
                    "velocity": 0.3937007874015748,
                    "duration": 0.08928562500000226
                },
                {
                    "name": "D#3",
                    "midi": 51,
                    "time": 68.14278900000038,
                    "velocity": 0.7086614173228346,
                    "duration": 0.08928562500000226
                },
                {
                    "name": "A2",
                    "midi": 45,
                    "time": 68.14278900000038,
                    "velocity": 0.5511811023622047,
                    "duration": 0.08928562500000226
                },
                {
                    "name": "A#4",
                    "midi": 70,
                    "time": 68.14278900000038,
                    "velocity": 0.6299212598425197,
                    "duration": 0.08928562500000226
                },
                {
                    "name": "B1",
                    "midi": 35,
                    "time": 68.35707450000038,
                    "velocity": 0.5511811023622047,
                    "duration": 0.08928562500000226
                },
                {
                    "name": "D#3",
                    "midi": 51,
                    "time": 68.35707450000038,
                    "velocity": 0.5511811023622047,
                    "duration": 0.08928562500000226
                },
                {
                    "name": "A4",
                    "midi": 69,
                    "time": 68.35707450000038,
                    "velocity": 0.3937007874015748,
                    "duration": 0.08928562500000226
                },
                {
                    "name": "B1",
                    "midi": 35,
                    "time": 68.57136000000038,
                    "velocity": 0.7874015748031497,
                    "duration": 0.08928562500000226
                },
                {
                    "name": "C#2",
                    "midi": 37,
                    "time": 68.57136000000038,
                    "velocity": 0.7086614173228346,
                    "duration": 0.08928562500000226
                },
                {
                    "name": "D#3",
                    "midi": 51,
                    "time": 68.57136000000038,
                    "velocity": 0.7086614173228346,
                    "duration": 0.08928562500000226
                },
                {
                    "name": "A#4",
                    "midi": 70,
                    "time": 68.57136000000038,
                    "velocity": 0.6299212598425197,
                    "duration": 0.08928562500000226
                },
                {
                    "name": "D#3",
                    "midi": 51,
                    "time": 68.78564550000038,
                    "velocity": 0.5511811023622047,
                    "duration": 0.08928562500000226
                },
                {
                    "name": "D#4",
                    "midi": 63,
                    "time": 68.78564550000038,
                    "velocity": 0.31496062992125984,
                    "duration": 0.08928562500000226
                },
                {
                    "name": "A4",
                    "midi": 69,
                    "time": 68.78564550000038,
                    "velocity": 0.3937007874015748,
                    "duration": 0.08928562500000226
                },
                {
                    "name": "D#3",
                    "midi": 51,
                    "time": 68.99993100000039,
                    "velocity": 0.7086614173228346,
                    "duration": 0.08928562500000226
                },
                {
                    "name": "C3",
                    "midi": 48,
                    "time": 68.99993100000039,
                    "velocity": 0.47244094488188976,
                    "duration": 0.08928562500000226
                },
                {
                    "name": "D#4",
                    "midi": 63,
                    "time": 68.99993100000039,
                    "velocity": 0.47244094488188976,
                    "duration": 0.08928562500000226
                },
                {
                    "name": "A#4",
                    "midi": 70,
                    "time": 68.99993100000039,
                    "velocity": 0.6299212598425197,
                    "duration": 0.08928562500000226
                },
                {
                    "name": "B1",
                    "midi": 35,
                    "time": 69.21421650000039,
                    "velocity": 0.5511811023622047,
                    "duration": 0.08928562500000226
                },
                {
                    "name": "C#2",
                    "midi": 37,
                    "time": 69.21421650000039,
                    "velocity": 0.7086614173228346,
                    "duration": 0.08928562500000226
                },
                {
                    "name": "D#3",
                    "midi": 51,
                    "time": 69.21421650000039,
                    "velocity": 0.5511811023622047,
                    "duration": 0.08928562500000226
                },
                {
                    "name": "D4",
                    "midi": 62,
                    "time": 69.21421650000039,
                    "velocity": 0.5511811023622047,
                    "duration": 0.08928562500000226
                },
                {
                    "name": "A4",
                    "midi": 69,
                    "time": 69.21421650000039,
                    "velocity": 0.3937007874015748,
                    "duration": 0.08928562500000226
                },
                {
                    "name": "B1",
                    "midi": 35,
                    "time": 69.42850200000039,
                    "velocity": 0.7874015748031497,
                    "duration": 0.08928562500000226
                },
                {
                    "name": "D#3",
                    "midi": 51,
                    "time": 69.42850200000039,
                    "velocity": 0.7086614173228346,
                    "duration": 0.08928562500000226
                },
                {
                    "name": "D#4",
                    "midi": 63,
                    "time": 69.42850200000039,
                    "velocity": 0.2755905511811024,
                    "duration": 0.08928562500000226
                },
                {
                    "name": "A#4",
                    "midi": 70,
                    "time": 69.42850200000039,
                    "velocity": 0.6299212598425197,
                    "duration": 0.08928562500000226
                },
                {
                    "name": "D#3",
                    "midi": 51,
                    "time": 69.6427875000004,
                    "velocity": 0.5511811023622047,
                    "duration": 0.08928562500000226
                },
                {
                    "name": "A4",
                    "midi": 69,
                    "time": 69.6427875000004,
                    "velocity": 0.3937007874015748,
                    "duration": 0.08928562500000226
                },
                {
                    "name": "C#2",
                    "midi": 37,
                    "time": 69.8570730000004,
                    "velocity": 0.7086614173228346,
                    "duration": 0.08928562500000226
                },
                {
                    "name": "D#3",
                    "midi": 51,
                    "time": 69.8570730000004,
                    "velocity": 0.7086614173228346,
                    "duration": 0.08928562500000226
                },
                {
                    "name": "D4",
                    "midi": 62,
                    "time": 69.8570730000004,
                    "velocity": 0.5511811023622047,
                    "duration": 0.08928562500000226
                },
                {
                    "name": "A#4",
                    "midi": 70,
                    "time": 69.8570730000004,
                    "velocity": 0.6299212598425197,
                    "duration": 0.08928562500000226
                },
                {
                    "name": "B1",
                    "midi": 35,
                    "time": 70.0713585000004,
                    "velocity": 0.5511811023622047,
                    "duration": 0.08928562500000226
                },
                {
                    "name": "D#3",
                    "midi": 51,
                    "time": 70.0713585000004,
                    "velocity": 0.5511811023622047,
                    "duration": 0.08928562500000226
                },
                {
                    "name": "A2",
                    "midi": 45,
                    "time": 70.0713585000004,
                    "velocity": 0.5511811023622047,
                    "duration": 0.08928562500000226
                },
                {
                    "name": "A4",
                    "midi": 69,
                    "time": 70.0713585000004,
                    "velocity": 0.3937007874015748,
                    "duration": 0.08928562500000226
                },
                {
                    "name": "B1",
                    "midi": 35,
                    "time": 70.2856440000004,
                    "velocity": 0.7874015748031497,
                    "duration": 0.08928562500000226
                },
                {
                    "name": "D#3",
                    "midi": 51,
                    "time": 70.2856440000004,
                    "velocity": 0.7086614173228346,
                    "duration": 0.08928562500000226
                },
                {
                    "name": "D#4",
                    "midi": 63,
                    "time": 70.2856440000004,
                    "velocity": 0.31496062992125984,
                    "duration": 0.08928562500000226
                },
                {
                    "name": "A#4",
                    "midi": 70,
                    "time": 70.2856440000004,
                    "velocity": 0.6299212598425197,
                    "duration": 0.08928562500000226
                },
                {
                    "name": "D#3",
                    "midi": 51,
                    "time": 70.4999295000004,
                    "velocity": 0.5511811023622047,
                    "duration": 0.08928562500000226
                },
                {
                    "name": "D#4",
                    "midi": 63,
                    "time": 70.4999295000004,
                    "velocity": 0.31496062992125984,
                    "duration": 0.08928562500000226
                },
                {
                    "name": "A4",
                    "midi": 69,
                    "time": 70.4999295000004,
                    "velocity": 0.3937007874015748,
                    "duration": 0.08928562500000226
                },
                {
                    "name": "C#2",
                    "midi": 37,
                    "time": 70.71421500000041,
                    "velocity": 0.7086614173228346,
                    "duration": 0.08928562500000226
                },
                {
                    "name": "D#3",
                    "midi": 51,
                    "time": 70.71421500000041,
                    "velocity": 0.7086614173228346,
                    "duration": 0.08928562500000226
                },
                {
                    "name": "A#4",
                    "midi": 70,
                    "time": 70.71421500000041,
                    "velocity": 0.6299212598425197,
                    "duration": 0.08928562500000226
                },
                {
                    "name": "B1",
                    "midi": 35,
                    "time": 70.92850050000041,
                    "velocity": 0.5511811023622047,
                    "duration": 0.08928562500000226
                },
                {
                    "name": "D#3",
                    "midi": 51,
                    "time": 70.92850050000041,
                    "velocity": 0.5511811023622047,
                    "duration": 0.08928562500000226
                },
                {
                    "name": "A4",
                    "midi": 69,
                    "time": 70.92850050000041,
                    "velocity": 0.3937007874015748,
                    "duration": 0.08928562500000226
                },
                {
                    "name": "B1",
                    "midi": 35,
                    "time": 71.14278600000041,
                    "velocity": 0.7874015748031497,
                    "duration": 0.08928562500000226
                },
                {
                    "name": "D#3",
                    "midi": 51,
                    "time": 71.14278600000041,
                    "velocity": 0.7086614173228346,
                    "duration": 0.08928562500000226
                },
                {
                    "name": "A#4",
                    "midi": 70,
                    "time": 71.14278600000041,
                    "velocity": 0.6299212598425197,
                    "duration": 0.08928562500000226
                },
                {
                    "name": "C#2",
                    "midi": 37,
                    "time": 71.35707150000042,
                    "velocity": 0.7086614173228346,
                    "duration": 0.08928562500000226
                },
                {
                    "name": "D#3",
                    "midi": 51,
                    "time": 71.35707150000042,
                    "velocity": 0.5511811023622047,
                    "duration": 0.08928562500000226
                },
                {
                    "name": "A4",
                    "midi": 69,
                    "time": 71.35707150000042,
                    "velocity": 0.3937007874015748,
                    "duration": 0.08928562500000226
                },
                {
                    "name": "D#3",
                    "midi": 51,
                    "time": 71.57135700000042,
                    "velocity": 0.7086614173228346,
                    "duration": 0.08928562500000226
                },
                {
                    "name": "A#4",
                    "midi": 70,
                    "time": 71.57135700000042,
                    "velocity": 0.6299212598425197,
                    "duration": 0.08928562500000226
                },
                {
                    "name": "B1",
                    "midi": 35,
                    "time": 71.78564250000042,
                    "velocity": 0.5511811023622047,
                    "duration": 0.08928562500000226
                },
                {
                    "name": "D#3",
                    "midi": 51,
                    "time": 71.78564250000042,
                    "velocity": 0.5511811023622047,
                    "duration": 0.08928562500000226
                },
                {
                    "name": "A4",
                    "midi": 69,
                    "time": 71.78564250000042,
                    "velocity": 0.3937007874015748,
                    "duration": 0.08928562500000226
                },
                {
                    "name": "B1",
                    "midi": 35,
                    "time": 71.99992800000042,
                    "velocity": 0.7874015748031497,
                    "duration": 0.08928562500000226
                },
                {
                    "name": "C#2",
                    "midi": 37,
                    "time": 71.99992800000042,
                    "velocity": 0.7086614173228346,
                    "duration": 0.08928562500000226
                },
                {
                    "name": "D#3",
                    "midi": 51,
                    "time": 71.99992800000042,
                    "velocity": 0.7086614173228346,
                    "duration": 0.08928562500000226
                },
                {
                    "name": "A#4",
                    "midi": 70,
                    "time": 71.99992800000042,
                    "velocity": 0.6299212598425197,
                    "duration": 0.08928562500000226
                },
                {
                    "name": "D#3",
                    "midi": 51,
                    "time": 72.21421350000043,
                    "velocity": 0.5511811023622047,
                    "duration": 0.08928562500000226
                },
                {
                    "name": "D#4",
                    "midi": 63,
                    "time": 72.21421350000043,
                    "velocity": 0.31496062992125984,
                    "duration": 0.08928562500000226
                },
                {
                    "name": "A4",
                    "midi": 69,
                    "time": 72.21421350000043,
                    "velocity": 0.3937007874015748,
                    "duration": 0.08928562500000226
                },
                {
                    "name": "D#3",
                    "midi": 51,
                    "time": 72.42849900000043,
                    "velocity": 0.7086614173228346,
                    "duration": 0.08928562500000226
                },
                {
                    "name": "D#4",
                    "midi": 63,
                    "time": 72.42849900000043,
                    "velocity": 0.47244094488188976,
                    "duration": 0.08928562500000226
                },
                {
                    "name": "A#4",
                    "midi": 70,
                    "time": 72.42849900000043,
                    "velocity": 0.6299212598425197,
                    "duration": 0.08928562500000226
                },
                {
                    "name": "B1",
                    "midi": 35,
                    "time": 72.64278450000043,
                    "velocity": 0.5511811023622047,
                    "duration": 0.08928562500000226
                },
                {
                    "name": "C#2",
                    "midi": 37,
                    "time": 72.64278450000043,
                    "velocity": 0.7086614173228346,
                    "duration": 0.08928562500000226
                },
                {
                    "name": "G#3",
                    "midi": 56,
                    "time": 72.64278450000043,
                    "velocity": 0.31496062992125984,
                    "duration": 0.08928562500000226
                },
                {
                    "name": "D#3",
                    "midi": 51,
                    "time": 72.64278450000043,
                    "velocity": 0.5511811023622047,
                    "duration": 0.08928562500000226
                },
                {
                    "name": "D4",
                    "midi": 62,
                    "time": 72.64278450000043,
                    "velocity": 0.5511811023622047,
                    "duration": 0.08928562500000226
                },
                {
                    "name": "A4",
                    "midi": 69,
                    "time": 72.64278450000043,
                    "velocity": 0.3937007874015748,
                    "duration": 0.08928562500000226
                },
                {
                    "name": "B1",
                    "midi": 35,
                    "time": 72.85707000000043,
                    "velocity": 0.7874015748031497,
                    "duration": 0.08928562500000226
                },
                {
                    "name": "D#3",
                    "midi": 51,
                    "time": 72.85707000000043,
                    "velocity": 0.7086614173228346,
                    "duration": 0.08928562500000226
                },
                {
                    "name": "A#4",
                    "midi": 70,
                    "time": 72.85707000000043,
                    "velocity": 0.6299212598425197,
                    "duration": 0.08928562500000226
                },
                {
                    "name": "D#3",
                    "midi": 51,
                    "time": 73.07135550000044,
                    "velocity": 0.5511811023622047,
                    "duration": 0.08928562500000226
                },
                {
                    "name": "A4",
                    "midi": 69,
                    "time": 73.07135550000044,
                    "velocity": 0.3937007874015748,
                    "duration": 0.08928562500000226
                },
                {
                    "name": "C#2",
                    "midi": 37,
                    "time": 73.28564100000044,
                    "velocity": 0.7086614173228346,
                    "duration": 0.08928562500000226
                },
                {
                    "name": "G#3",
                    "midi": 56,
                    "time": 73.28564100000044,
                    "velocity": 0.31496062992125984,
                    "duration": 0.08928562500000226
                },
                {
                    "name": "D#3",
                    "midi": 51,
                    "time": 73.28564100000044,
                    "velocity": 0.7086614173228346,
                    "duration": 0.08928562500000226
                },
                {
                    "name": "D4",
                    "midi": 62,
                    "time": 73.28564100000044,
                    "velocity": 0.5511811023622047,
                    "duration": 0.08928562500000226
                },
                {
                    "name": "A#4",
                    "midi": 70,
                    "time": 73.28564100000044,
                    "velocity": 0.6299212598425197,
                    "duration": 0.08928562500000226
                },
                {
                    "name": "B1",
                    "midi": 35,
                    "time": 73.49992650000044,
                    "velocity": 0.5511811023622047,
                    "duration": 0.08928562500000226
                },
                {
                    "name": "D#3",
                    "midi": 51,
                    "time": 73.49992650000044,
                    "velocity": 0.5511811023622047,
                    "duration": 0.08928562500000226
                },
                {
                    "name": "A4",
                    "midi": 69,
                    "time": 73.49992650000044,
                    "velocity": 0.3937007874015748,
                    "duration": 0.08928562500000226
                },
                {
                    "name": "B1",
                    "midi": 35,
                    "time": 73.71421200000044,
                    "velocity": 0.7874015748031497,
                    "duration": 0.08928562500000226
                },
                {
                    "name": "G#3",
                    "midi": 56,
                    "time": 73.71421200000044,
                    "velocity": 0.31496062992125984,
                    "duration": 0.08928562500000226
                },
                {
                    "name": "D#3",
                    "midi": 51,
                    "time": 73.71421200000044,
                    "velocity": 0.7086614173228346,
                    "duration": 0.08928562500000226
                },
                {
                    "name": "D#4",
                    "midi": 63,
                    "time": 73.71421200000044,
                    "velocity": 0.31496062992125984,
                    "duration": 0.08928562500000226
                },
                {
                    "name": "A#4",
                    "midi": 70,
                    "time": 73.71421200000044,
                    "velocity": 0.6299212598425197,
                    "duration": 0.08928562500000226
                },
                {
                    "name": "D#3",
                    "midi": 51,
                    "time": 73.92849750000045,
                    "velocity": 0.5511811023622047,
                    "duration": 0.08928562500000226
                },
                {
                    "name": "D#4",
                    "midi": 63,
                    "time": 73.92849750000045,
                    "velocity": 0.31496062992125984,
                    "duration": 0.08928562500000226
                },
                {
                    "name": "A4",
                    "midi": 69,
                    "time": 73.92849750000045,
                    "velocity": 0.3937007874015748,
                    "duration": 0.08928562500000226
                },
                {
                    "name": "C#2",
                    "midi": 37,
                    "time": 74.14278300000045,
                    "velocity": 0.7086614173228346,
                    "duration": 0.08928562500000226
                },
                {
                    "name": "D#3",
                    "midi": 51,
                    "time": 74.14278300000045,
                    "velocity": 0.7086614173228346,
                    "duration": 0.08928562500000226
                },
                {
                    "name": "A#4",
                    "midi": 70,
                    "time": 74.14278300000045,
                    "velocity": 0.6299212598425197,
                    "duration": 0.08928562500000226
                },
                {
                    "name": "B1",
                    "midi": 35,
                    "time": 74.35706850000045,
                    "velocity": 0.5511811023622047,
                    "duration": 0.08928562500000226
                },
                {
                    "name": "G#3",
                    "midi": 56,
                    "time": 74.35706850000045,
                    "velocity": 0.31496062992125984,
                    "duration": 0.08928562500000226
                },
                {
                    "name": "D#3",
                    "midi": 51,
                    "time": 74.35706850000045,
                    "velocity": 0.5511811023622047,
                    "duration": 0.08928562500000226
                },
                {
                    "name": "A4",
                    "midi": 69,
                    "time": 74.35706850000045,
                    "velocity": 0.3937007874015748,
                    "duration": 0.08928562500000226
                },
                {
                    "name": "B1",
                    "midi": 35,
                    "time": 74.57135400000045,
                    "velocity": 0.7874015748031497,
                    "duration": 0.08928562500000226
                },
                {
                    "name": "D#3",
                    "midi": 51,
                    "time": 74.57135400000045,
                    "velocity": 0.7086614173228346,
                    "duration": 0.08928562500000226
                },
                {
                    "name": "A#4",
                    "midi": 70,
                    "time": 74.57135400000045,
                    "velocity": 0.6299212598425197,
                    "duration": 0.08928562500000226
                },
                {
                    "name": "C#2",
                    "midi": 37,
                    "time": 74.78563950000046,
                    "velocity": 0.7086614173228346,
                    "duration": 0.08928562500000226
                },
                {
                    "name": "D#3",
                    "midi": 51,
                    "time": 74.78563950000046,
                    "velocity": 0.5511811023622047,
                    "duration": 0.08928562500000226
                },
                {
                    "name": "A4",
                    "midi": 69,
                    "time": 74.78563950000046,
                    "velocity": 0.3937007874015748,
                    "duration": 0.08928562500000226
                },
                {
                    "name": "G#3",
                    "midi": 56,
                    "time": 74.99992500000046,
                    "velocity": 0.31496062992125984,
                    "duration": 0.08928562500000226
                },
                {
                    "name": "D#3",
                    "midi": 51,
                    "time": 74.99992500000046,
                    "velocity": 0.7086614173228346,
                    "duration": 0.08928562500000226
                },
                {
                    "name": "A#4",
                    "midi": 70,
                    "time": 74.99992500000046,
                    "velocity": 0.6299212598425197,
                    "duration": 0.08928562500000226
                },
                {
                    "name": "B1",
                    "midi": 35,
                    "time": 75.21421050000046,
                    "velocity": 0.5511811023622047,
                    "duration": 0.08928562500000226
                },
                {
                    "name": "D#3",
                    "midi": 51,
                    "time": 75.21421050000046,
                    "velocity": 0.5511811023622047,
                    "duration": 0.08928562500000226
                },
                {
                    "name": "A4",
                    "midi": 69,
                    "time": 75.21421050000046,
                    "velocity": 0.3937007874015748,
                    "duration": 0.08928562500000226
                },
                {
                    "name": "B1",
                    "midi": 35,
                    "time": 75.42849600000046,
                    "velocity": 0.7874015748031497,
                    "duration": 0.08928562500000226
                },
                {
                    "name": "C#2",
                    "midi": 37,
                    "time": 75.42849600000046,
                    "velocity": 0.7086614173228346,
                    "duration": 0.08928562500000226
                },
                {
                    "name": "D#3",
                    "midi": 51,
                    "time": 75.42849600000046,
                    "velocity": 0.7086614173228346,
                    "duration": 0.08928562500000226
                },
                {
                    "name": "A#4",
                    "midi": 70,
                    "time": 75.42849600000046,
                    "velocity": 0.6299212598425197,
                    "duration": 0.08928562500000226
                },
                {
                    "name": "D#3",
                    "midi": 51,
                    "time": 75.64278150000047,
                    "velocity": 0.5511811023622047,
                    "duration": 0.08928562500000226
                },
                {
                    "name": "D#4",
                    "midi": 63,
                    "time": 75.64278150000047,
                    "velocity": 0.31496062992125984,
                    "duration": 0.08928562500000226
                },
                {
                    "name": "A4",
                    "midi": 69,
                    "time": 75.64278150000047,
                    "velocity": 0.3937007874015748,
                    "duration": 0.08928562500000226
                },
                {
                    "name": "D#3",
                    "midi": 51,
                    "time": 75.85706700000047,
                    "velocity": 0.7086614173228346,
                    "duration": 0.08928562500000226
                },
                {
                    "name": "D#4",
                    "midi": 63,
                    "time": 75.85706700000047,
                    "velocity": 0.47244094488188976,
                    "duration": 0.08928562500000226
                },
                {
                    "name": "A#4",
                    "midi": 70,
                    "time": 75.85706700000047,
                    "velocity": 0.6299212598425197,
                    "duration": 0.08928562500000226
                },
                {
                    "name": "B1",
                    "midi": 35,
                    "time": 76.07135250000047,
                    "velocity": 0.5511811023622047,
                    "duration": 0.08928562500000226
                },
                {
                    "name": "C#2",
                    "midi": 37,
                    "time": 76.07135250000047,
                    "velocity": 0.7086614173228346,
                    "duration": 0.08928562500000226
                },
                {
                    "name": "D#3",
                    "midi": 51,
                    "time": 76.07135250000047,
                    "velocity": 0.5511811023622047,
                    "duration": 0.08928562500000226
                },
                {
                    "name": "D4",
                    "midi": 62,
                    "time": 76.07135250000047,
                    "velocity": 0.5511811023622047,
                    "duration": 0.08928562500000226
                },
                {
                    "name": "A4",
                    "midi": 69,
                    "time": 76.07135250000047,
                    "velocity": 0.3937007874015748,
                    "duration": 0.08928562500000226
                },
                {
                    "name": "B1",
                    "midi": 35,
                    "time": 76.28563800000047,
                    "velocity": 0.7874015748031497,
                    "duration": 0.08928562500000226
                },
                {
                    "name": "D#3",
                    "midi": 51,
                    "time": 76.28563800000047,
                    "velocity": 0.7086614173228346,
                    "duration": 0.08928562500000226
                },
                {
                    "name": "D#4",
                    "midi": 63,
                    "time": 76.28563800000047,
                    "velocity": 0.2755905511811024,
                    "duration": 0.08928562500000226
                },
                {
                    "name": "A#4",
                    "midi": 70,
                    "time": 76.28563800000047,
                    "velocity": 0.6299212598425197,
                    "duration": 0.08928562500000226
                },
                {
                    "name": "D#3",
                    "midi": 51,
                    "time": 76.49992350000048,
                    "velocity": 0.5511811023622047,
                    "duration": 0.08928562500000226
                },
                {
                    "name": "A4",
                    "midi": 69,
                    "time": 76.49992350000048,
                    "velocity": 0.3937007874015748,
                    "duration": 0.08928562500000226
                },
                {
                    "name": "C#2",
                    "midi": 37,
                    "time": 76.71420900000048,
                    "velocity": 0.7086614173228346,
                    "duration": 0.08928562500000226
                },
                {
                    "name": "D#3",
                    "midi": 51,
                    "time": 76.71420900000048,
                    "velocity": 0.7086614173228346,
                    "duration": 0.08928562500000226
                },
                {
                    "name": "A2",
                    "midi": 45,
                    "time": 76.71420900000048,
                    "velocity": 0.5511811023622047,
                    "duration": 0.08928562500000226
                },
                {
                    "name": "D4",
                    "midi": 62,
                    "time": 76.71420900000048,
                    "velocity": 0.5511811023622047,
                    "duration": 0.08928562500000226
                },
                {
                    "name": "A#4",
                    "midi": 70,
                    "time": 76.71420900000048,
                    "velocity": 0.6299212598425197,
                    "duration": 0.08928562500000226
                },
                {
                    "name": "B1",
                    "midi": 35,
                    "time": 76.92849450000048,
                    "velocity": 0.5511811023622047,
                    "duration": 0.08928562500000226
                },
                {
                    "name": "D#3",
                    "midi": 51,
                    "time": 76.92849450000048,
                    "velocity": 0.5511811023622047,
                    "duration": 0.08928562500000226
                },
                {
                    "name": "A4",
                    "midi": 69,
                    "time": 76.92849450000048,
                    "velocity": 0.3937007874015748,
                    "duration": 0.08928562500000226
                },
                {
                    "name": "B1",
                    "midi": 35,
                    "time": 77.14278000000049,
                    "velocity": 0.7874015748031497,
                    "duration": 0.08928562500000226
                },
                {
                    "name": "G#3",
                    "midi": 56,
                    "time": 77.14278000000049,
                    "velocity": 0.31496062992125984,
                    "duration": 0.08928562500000226
                },
                {
                    "name": "D#3",
                    "midi": 51,
                    "time": 77.14278000000049,
                    "velocity": 0.7086614173228346,
                    "duration": 0.08928562500000226
                },
                {
                    "name": "D#4",
                    "midi": 63,
                    "time": 77.14278000000049,
                    "velocity": 0.31496062992125984,
                    "duration": 0.08928562500000226
                },
                {
                    "name": "A#4",
                    "midi": 70,
                    "time": 77.14278000000049,
                    "velocity": 0.6299212598425197,
                    "duration": 0.08928562500000226
                },
                {
                    "name": "D#3",
                    "midi": 51,
                    "time": 77.35706550000049,
                    "velocity": 0.5511811023622047,
                    "duration": 0.08928562500000226
                },
                {
                    "name": "D#4",
                    "midi": 63,
                    "time": 77.35706550000049,
                    "velocity": 0.31496062992125984,
                    "duration": 0.08928562500000226
                },
                {
                    "name": "A4",
                    "midi": 69,
                    "time": 77.35706550000049,
                    "velocity": 0.3937007874015748,
                    "duration": 0.08928562500000226
                },
                {
                    "name": "C#2",
                    "midi": 37,
                    "time": 77.57135100000049,
                    "velocity": 0.7086614173228346,
                    "duration": 0.08928562500000226
                },
                {
                    "name": "D#3",
                    "midi": 51,
                    "time": 77.57135100000049,
                    "velocity": 0.7086614173228346,
                    "duration": 0.08928562500000226
                },
                {
                    "name": "A#4",
                    "midi": 70,
                    "time": 77.57135100000049,
                    "velocity": 0.6299212598425197,
                    "duration": 0.08928562500000226
                },
                {
                    "name": "B1",
                    "midi": 35,
                    "time": 77.78563650000049,
                    "velocity": 0.5511811023622047,
                    "duration": 0.08928562500000226
                },
                {
                    "name": "G#3",
                    "midi": 56,
                    "time": 77.78563650000049,
                    "velocity": 0.31496062992125984,
                    "duration": 0.08928562500000226
                },
                {
                    "name": "D#3",
                    "midi": 51,
                    "time": 77.78563650000049,
                    "velocity": 0.5511811023622047,
                    "duration": 0.08928562500000226
                },
                {
                    "name": "A4",
                    "midi": 69,
                    "time": 77.78563650000049,
                    "velocity": 0.3937007874015748,
                    "duration": 0.08928562500000226
                },
                {
                    "name": "B1",
                    "midi": 35,
                    "time": 77.9999220000005,
                    "velocity": 0.7874015748031497,
                    "duration": 0.08928562500000226
                },
                {
                    "name": "D#3",
                    "midi": 51,
                    "time": 77.9999220000005,
                    "velocity": 0.7086614173228346,
                    "duration": 0.08928562500000226
                },
                {
                    "name": "A#4",
                    "midi": 70,
                    "time": 77.9999220000005,
                    "velocity": 0.6299212598425197,
                    "duration": 0.08928562500000226
                },
                {
                    "name": "C#2",
                    "midi": 37,
                    "time": 78.2142075000005,
                    "velocity": 0.7086614173228346,
                    "duration": 0.08928562500000226
                },
                {
                    "name": "D#3",
                    "midi": 51,
                    "time": 78.2142075000005,
                    "velocity": 0.5511811023622047,
                    "duration": 0.08928562500000226
                },
                {
                    "name": "A4",
                    "midi": 69,
                    "time": 78.2142075000005,
                    "velocity": 0.3937007874015748,
                    "duration": 0.08928562500000226
                },
                {
                    "name": "G#3",
                    "midi": 56,
                    "time": 78.4284930000005,
                    "velocity": 0.31496062992125984,
                    "duration": 0.08928562500000226
                },
                {
                    "name": "D#3",
                    "midi": 51,
                    "time": 78.4284930000005,
                    "velocity": 0.7086614173228346,
                    "duration": 0.08928562500000226
                },
                {
                    "name": "A2",
                    "midi": 45,
                    "time": 78.4284930000005,
                    "velocity": 0.5511811023622047,
                    "duration": 0.08928562500000226
                },
                {
                    "name": "A#4",
                    "midi": 70,
                    "time": 78.4284930000005,
                    "velocity": 0.6299212598425197,
                    "duration": 0.08928562500000226
                },
                {
                    "name": "B1",
                    "midi": 35,
                    "time": 78.6427785000005,
                    "velocity": 0.5511811023622047,
                    "duration": 0.08928562500000226
                },
                {
                    "name": "D#3",
                    "midi": 51,
                    "time": 78.6427785000005,
                    "velocity": 0.5511811023622047,
                    "duration": 0.08928562500000226
                },
                {
                    "name": "A4",
                    "midi": 69,
                    "time": 78.6427785000005,
                    "velocity": 0.3937007874015748,
                    "duration": 0.08928562500000226
                },
                {
                    "name": "B1",
                    "midi": 35,
                    "time": 78.8570640000005,
                    "velocity": 0.7874015748031497,
                    "duration": 0.08928562500000226
                },
                {
                    "name": "C#2",
                    "midi": 37,
                    "time": 78.8570640000005,
                    "velocity": 0.7086614173228346,
                    "duration": 0.08928562500000226
                },
                {
                    "name": "G#3",
                    "midi": 56,
                    "time": 78.8570640000005,
                    "velocity": 0.31496062992125984,
                    "duration": 0.08928562500000226
                },
                {
                    "name": "D#3",
                    "midi": 51,
                    "time": 78.8570640000005,
                    "velocity": 0.7086614173228346,
                    "duration": 0.08928562500000226
                },
                {
                    "name": "A#4",
                    "midi": 70,
                    "time": 78.8570640000005,
                    "velocity": 0.6299212598425197,
                    "duration": 0.08928562500000226
                },
                {
                    "name": "D#3",
                    "midi": 51,
                    "time": 79.07134950000051,
                    "velocity": 0.5511811023622047,
                    "duration": 0.08928562500000226
                },
                {
                    "name": "D#4",
                    "midi": 63,
                    "time": 79.07134950000051,
                    "velocity": 0.31496062992125984,
                    "duration": 0.08928562500000226
                },
                {
                    "name": "A4",
                    "midi": 69,
                    "time": 79.07134950000051,
                    "velocity": 0.3937007874015748,
                    "duration": 0.08928562500000226
                },
                {
                    "name": "D#3",
                    "midi": 51,
                    "time": 79.28563500000051,
                    "velocity": 0.7086614173228346,
                    "duration": 0.08928562500000226
                },
                {
                    "name": "D#4",
                    "midi": 63,
                    "time": 79.28563500000051,
                    "velocity": 0.47244094488188976,
                    "duration": 0.08928562500000226
                },
                {
                    "name": "A#4",
                    "midi": 70,
                    "time": 79.28563500000051,
                    "velocity": 0.6299212598425197,
                    "duration": 0.08928562500000226
                },
                {
                    "name": "B1",
                    "midi": 35,
                    "time": 79.49992050000051,
                    "velocity": 0.5511811023622047,
                    "duration": 0.08928562500000226
                },
                {
                    "name": "C#2",
                    "midi": 37,
                    "time": 79.49992050000051,
                    "velocity": 0.7086614173228346,
                    "duration": 0.08928562500000226
                },
                {
                    "name": "D#3",
                    "midi": 51,
                    "time": 79.49992050000051,
                    "velocity": 0.5511811023622047,
                    "duration": 0.08928562500000226
                },
                {
                    "name": "D4",
                    "midi": 62,
                    "time": 79.49992050000051,
                    "velocity": 0.5511811023622047,
                    "duration": 0.08928562500000226
                },
                {
                    "name": "A4",
                    "midi": 69,
                    "time": 79.49992050000051,
                    "velocity": 0.3937007874015748,
                    "duration": 0.08928562500000226
                },
                {
                    "name": "B1",
                    "midi": 35,
                    "time": 79.71420600000052,
                    "velocity": 0.7874015748031497,
                    "duration": 0.08928562500000226
                },
                {
                    "name": "D#3",
                    "midi": 51,
                    "time": 79.71420600000052,
                    "velocity": 0.7086614173228346,
                    "duration": 0.08928562500000226
                },
                {
                    "name": "A#4",
                    "midi": 70,
                    "time": 79.71420600000052,
                    "velocity": 0.6299212598425197,
                    "duration": 0.08928562500000226
                },
                {
                    "name": "D#3",
                    "midi": 51,
                    "time": 79.92849150000052,
                    "velocity": 0.5511811023622047,
                    "duration": 0.08928562500000226
                },
                {
                    "name": "A4",
                    "midi": 69,
                    "time": 79.92849150000052,
                    "velocity": 0.3937007874015748,
                    "duration": 0.08928562500000226
                },
                {
                    "name": "C#2",
                    "midi": 37,
                    "time": 80.14277700000052,
                    "velocity": 0.7086614173228346,
                    "duration": 0.08928562500000226
                },
                {
                    "name": "D#3",
                    "midi": 51,
                    "time": 80.14277700000052,
                    "velocity": 0.7086614173228346,
                    "duration": 0.08928562500000226
                },
                {
                    "name": "D4",
                    "midi": 62,
                    "time": 80.14277700000052,
                    "velocity": 0.5511811023622047,
                    "duration": 0.08928562500000226
                },
                {
                    "name": "A#4",
                    "midi": 70,
                    "time": 80.14277700000052,
                    "velocity": 0.6299212598425197,
                    "duration": 0.08928562500000226
                },
                {
                    "name": "B1",
                    "midi": 35,
                    "time": 80.35706250000052,
                    "velocity": 0.5511811023622047,
                    "duration": 0.08928562500000226
                },
                {
                    "name": "D#3",
                    "midi": 51,
                    "time": 80.35706250000052,
                    "velocity": 0.5511811023622047,
                    "duration": 0.08928562500000226
                },
                {
                    "name": "A2",
                    "midi": 45,
                    "time": 80.35706250000052,
                    "velocity": 0.5905511811023622,
                    "duration": 0.08928562500000226
                },
                {
                    "name": "A4",
                    "midi": 69,
                    "time": 80.35706250000052,
                    "velocity": 0.3937007874015748,
                    "duration": 0.08928562500000226
                },
                {
                    "name": "B1",
                    "midi": 35,
                    "time": 80.57134800000053,
                    "velocity": 0.7874015748031497,
                    "duration": 0.08928562500000226
                },
                {
                    "name": "G#3",
                    "midi": 56,
                    "time": 80.57134800000053,
                    "velocity": 0.31496062992125984,
                    "duration": 0.08928562500000226
                },
                {
                    "name": "D#3",
                    "midi": 51,
                    "time": 80.57134800000053,
                    "velocity": 0.7086614173228346,
                    "duration": 0.08928562500000226
                },
                {
                    "name": "D#4",
                    "midi": 63,
                    "time": 80.57134800000053,
                    "velocity": 0.31496062992125984,
                    "duration": 0.08928562500000226
                },
                {
                    "name": "A#4",
                    "midi": 70,
                    "time": 80.57134800000053,
                    "velocity": 0.6299212598425197,
                    "duration": 0.08928562500000226
                },
                {
                    "name": "D#3",
                    "midi": 51,
                    "time": 80.78563350000053,
                    "velocity": 0.5511811023622047,
                    "duration": 0.08928562500000226
                },
                {
                    "name": "D#4",
                    "midi": 63,
                    "time": 80.78563350000053,
                    "velocity": 0.31496062992125984,
                    "duration": 0.08928562500000226
                },
                {
                    "name": "A4",
                    "midi": 69,
                    "time": 80.78563350000053,
                    "velocity": 0.3937007874015748,
                    "duration": 0.08928562500000226
                },
                {
                    "name": "C#2",
                    "midi": 37,
                    "time": 80.99991900000053,
                    "velocity": 0.7086614173228346,
                    "duration": 0.08928562500000226
                },
                {
                    "name": "D#3",
                    "midi": 51,
                    "time": 80.99991900000053,
                    "velocity": 0.7086614173228346,
                    "duration": 0.08928562500000226
                },
                {
                    "name": "A#4",
                    "midi": 70,
                    "time": 80.99991900000053,
                    "velocity": 0.6299212598425197,
                    "duration": 0.08928562500000226
                },
                {
                    "name": "B1",
                    "midi": 35,
                    "time": 81.21420450000053,
                    "velocity": 0.5511811023622047,
                    "duration": 0.08928562500000226
                },
                {
                    "name": "D#3",
                    "midi": 51,
                    "time": 81.21420450000053,
                    "velocity": 0.5511811023622047,
                    "duration": 0.08928562500000226
                },
                {
                    "name": "A4",
                    "midi": 69,
                    "time": 81.21420450000053,
                    "velocity": 0.3937007874015748,
                    "duration": 0.08928562500000226
                },
                {
                    "name": "B1",
                    "midi": 35,
                    "time": 81.42849000000054,
                    "velocity": 0.7874015748031497,
                    "duration": 0.08928562500000226
                },
                {
                    "name": "D#3",
                    "midi": 51,
                    "time": 81.42849000000054,
                    "velocity": 0.7086614173228346,
                    "duration": 0.08928562500000226
                },
                {
                    "name": "A#4",
                    "midi": 70,
                    "time": 81.42849000000054,
                    "velocity": 0.6299212598425197,
                    "duration": 0.08928562500000226
                },
                {
                    "name": "C#2",
                    "midi": 37,
                    "time": 81.64277550000054,
                    "velocity": 0.7086614173228346,
                    "duration": 0.08928562500000226
                },
                {
                    "name": "D#3",
                    "midi": 51,
                    "time": 81.64277550000054,
                    "velocity": 0.5511811023622047,
                    "duration": 0.08928562500000226
                },
                {
                    "name": "A4",
                    "midi": 69,
                    "time": 81.64277550000054,
                    "velocity": 0.3937007874015748,
                    "duration": 0.08928562500000226
                },
                {
                    "name": "D#3",
                    "midi": 51,
                    "time": 81.85706100000054,
                    "velocity": 0.7086614173228346,
                    "duration": 0.08928562500000226
                },
                {
                    "name": "A#4",
                    "midi": 70,
                    "time": 81.85706100000054,
                    "velocity": 0.6299212598425197,
                    "duration": 0.08928562500000226
                },
                {
                    "name": "B1",
                    "midi": 35,
                    "time": 82.07134650000054,
                    "velocity": 0.5511811023622047,
                    "duration": 0.08928562500000226
                },
                {
                    "name": "D#3",
                    "midi": 51,
                    "time": 82.07134650000054,
                    "velocity": 0.5511811023622047,
                    "duration": 0.08928562500000226
                },
                {
                    "name": "A4",
                    "midi": 69,
                    "time": 82.07134650000054,
                    "velocity": 0.3937007874015748,
                    "duration": 0.08928562500000226
                },
                {
                    "name": "B1",
                    "midi": 35,
                    "time": 82.28563200000055,
                    "velocity": 0.7874015748031497,
                    "duration": 0.08928562500000226
                },
                {
                    "name": "C#2",
                    "midi": 37,
                    "time": 82.28563200000055,
                    "velocity": 0.7086614173228346,
                    "duration": 0.08928562500000226
                },
                {
                    "name": "G#3",
                    "midi": 56,
                    "time": 82.28563200000055,
                    "velocity": 0.31496062992125984,
                    "duration": 0.08928562500000226
                },
                {
                    "name": "D#3",
                    "midi": 51,
                    "time": 82.28563200000055,
                    "velocity": 0.7086614173228346,
                    "duration": 0.08928562500000226
                },
                {
                    "name": "A#4",
                    "midi": 70,
                    "time": 82.28563200000055,
                    "velocity": 0.6299212598425197,
                    "duration": 0.08928562500000226
                },
                {
                    "name": "D#3",
                    "midi": 51,
                    "time": 82.49991750000055,
                    "velocity": 0.5511811023622047,
                    "duration": 0.08928562500000226
                },
                {
                    "name": "D#4",
                    "midi": 63,
                    "time": 82.49991750000055,
                    "velocity": 0.31496062992125984,
                    "duration": 0.08928562500000226
                },
                {
                    "name": "A4",
                    "midi": 69,
                    "time": 82.49991750000055,
                    "velocity": 0.3937007874015748,
                    "duration": 0.08928562500000226
                },
                {
                    "name": "D#3",
                    "midi": 51,
                    "time": 82.71420300000055,
                    "velocity": 0.7086614173228346,
                    "duration": 0.08928562500000226
                },
                {
                    "name": "D#4",
                    "midi": 63,
                    "time": 82.71420300000055,
                    "velocity": 0.47244094488188976,
                    "duration": 0.08928562500000226
                },
                {
                    "name": "A#4",
                    "midi": 70,
                    "time": 82.71420300000055,
                    "velocity": 0.6299212598425197,
                    "duration": 0.08928562500000226
                },
                {
                    "name": "B1",
                    "midi": 35,
                    "time": 82.92848850000055,
                    "velocity": 0.5511811023622047,
                    "duration": 0.08928562500000226
                },
                {
                    "name": "C#2",
                    "midi": 37,
                    "time": 82.92848850000055,
                    "velocity": 0.7086614173228346,
                    "duration": 0.08928562500000226
                },
                {
                    "name": "G#3",
                    "midi": 56,
                    "time": 82.92848850000055,
                    "velocity": 0.31496062992125984,
                    "duration": 0.08928562500000226
                },
                {
                    "name": "D#3",
                    "midi": 51,
                    "time": 82.92848850000055,
                    "velocity": 0.5511811023622047,
                    "duration": 0.08928562500000226
                },
                {
                    "name": "D4",
                    "midi": 62,
                    "time": 82.92848850000055,
                    "velocity": 0.5511811023622047,
                    "duration": 0.08928562500000226
                },
                {
                    "name": "A4",
                    "midi": 69,
                    "time": 82.92848850000055,
                    "velocity": 0.3937007874015748,
                    "duration": 0.08928562500000226
                },
                {
                    "name": "B1",
                    "midi": 35,
                    "time": 83.14277400000056,
                    "velocity": 0.7874015748031497,
                    "duration": 0.08928562500000226
                },
                {
                    "name": "D#3",
                    "midi": 51,
                    "time": 83.14277400000056,
                    "velocity": 0.7086614173228346,
                    "duration": 0.08928562500000226
                },
                {
                    "name": "A#4",
                    "midi": 70,
                    "time": 83.14277400000056,
                    "velocity": 0.6299212598425197,
                    "duration": 0.08928562500000226
                },
                {
                    "name": "D#3",
                    "midi": 51,
                    "time": 83.35705950000056,
                    "velocity": 0.5511811023622047,
                    "duration": 0.08928562500000226
                },
                {
                    "name": "A4",
                    "midi": 69,
                    "time": 83.35705950000056,
                    "velocity": 0.3937007874015748,
                    "duration": 0.08928562500000226
                },
                {
                    "name": "C#2",
                    "midi": 37,
                    "time": 83.57134500000056,
                    "velocity": 0.7086614173228346,
                    "duration": 0.08928562500000226
                },
                {
                    "name": "G#3",
                    "midi": 56,
                    "time": 83.57134500000056,
                    "velocity": 0.31496062992125984,
                    "duration": 0.08928562500000226
                },
                {
                    "name": "D#3",
                    "midi": 51,
                    "time": 83.57134500000056,
                    "velocity": 0.7086614173228346,
                    "duration": 0.08928562500000226
                },
                {
                    "name": "A2",
                    "midi": 45,
                    "time": 83.57134500000056,
                    "velocity": 0.5511811023622047,
                    "duration": 0.08928562500000226
                },
                {
                    "name": "D4",
                    "midi": 62,
                    "time": 83.57134500000056,
                    "velocity": 0.5511811023622047,
                    "duration": 0.08928562500000226
                },
                {
                    "name": "A#4",
                    "midi": 70,
                    "time": 83.57134500000056,
                    "velocity": 0.6299212598425197,
                    "duration": 0.08928562500000226
                },
                {
                    "name": "B1",
                    "midi": 35,
                    "time": 83.78563050000056,
                    "velocity": 0.5511811023622047,
                    "duration": 0.08928562500000226
                },
                {
                    "name": "D#3",
                    "midi": 51,
                    "time": 83.78563050000056,
                    "velocity": 0.5511811023622047,
                    "duration": 0.08928562500000226
                },
                {
                    "name": "A4",
                    "midi": 69,
                    "time": 83.78563050000056,
                    "velocity": 0.3937007874015748,
                    "duration": 0.08928562500000226
                },
                {
                    "name": "B1",
                    "midi": 35,
                    "time": 83.99991600000057,
                    "velocity": 0.7874015748031497,
                    "duration": 0.08928562500000226
                },
                {
                    "name": "G#3",
                    "midi": 56,
                    "time": 83.99991600000057,
                    "velocity": 0.31496062992125984,
                    "duration": 0.08928562500000226
                },
                {
                    "name": "D#3",
                    "midi": 51,
                    "time": 83.99991600000057,
                    "velocity": 0.7086614173228346,
                    "duration": 0.08928562500000226
                },
                {
                    "name": "D#4",
                    "midi": 63,
                    "time": 83.99991600000057,
                    "velocity": 0.31496062992125984,
                    "duration": 0.08928562500000226
                },
                {
                    "name": "A#4",
                    "midi": 70,
                    "time": 83.99991600000057,
                    "velocity": 0.6299212598425197,
                    "duration": 0.08928562500000226
                },
                {
                    "name": "D#3",
                    "midi": 51,
                    "time": 84.21420150000057,
                    "velocity": 0.5511811023622047,
                    "duration": 0.08928562500000226
                },
                {
                    "name": "D#4",
                    "midi": 63,
                    "time": 84.21420150000057,
                    "velocity": 0.31496062992125984,
                    "duration": 0.08928562500000226
                },
                {
                    "name": "A4",
                    "midi": 69,
                    "time": 84.21420150000057,
                    "velocity": 0.3937007874015748,
                    "duration": 0.08928562500000226
                },
                {
                    "name": "C#2",
                    "midi": 37,
                    "time": 84.42848700000057,
                    "velocity": 0.7086614173228346,
                    "duration": 0.08928562500000226
                },
                {
                    "name": "D#3",
                    "midi": 51,
                    "time": 84.42848700000057,
                    "velocity": 0.7086614173228346,
                    "duration": 0.08928562500000226
                },
                {
                    "name": "A#4",
                    "midi": 70,
                    "time": 84.42848700000057,
                    "velocity": 0.6299212598425197,
                    "duration": 0.08928562500000226
                },
                {
                    "name": "B1",
                    "midi": 35,
                    "time": 84.64277250000058,
                    "velocity": 0.5511811023622047,
                    "duration": 0.08928562500000226
                },
                {
                    "name": "G#3",
                    "midi": 56,
                    "time": 84.64277250000058,
                    "velocity": 0.31496062992125984,
                    "duration": 0.08928562500000226
                },
                {
                    "name": "D#3",
                    "midi": 51,
                    "time": 84.64277250000058,
                    "velocity": 0.5511811023622047,
                    "duration": 0.08928562500000226
                },
                {
                    "name": "A4",
                    "midi": 69,
                    "time": 84.64277250000058,
                    "velocity": 0.3937007874015748,
                    "duration": 0.08928562500000226
                },
                {
                    "name": "B1",
                    "midi": 35,
                    "time": 84.85705800000058,
                    "velocity": 0.7874015748031497,
                    "duration": 0.08928562500000226
                },
                {
                    "name": "D#3",
                    "midi": 51,
                    "time": 84.85705800000058,
                    "velocity": 0.7086614173228346,
                    "duration": 0.08928562500000226
                },
                {
                    "name": "A#4",
                    "midi": 70,
                    "time": 84.85705800000058,
                    "velocity": 0.6299212598425197,
                    "duration": 0.08928562500000226
                },
                {
                    "name": "C#2",
                    "midi": 37,
                    "time": 85.07134350000058,
                    "velocity": 0.7086614173228346,
                    "duration": 0.08928562500000226
                },
                {
                    "name": "D#3",
                    "midi": 51,
                    "time": 85.07134350000058,
                    "velocity": 0.5511811023622047,
                    "duration": 0.08928562500000226
                },
                {
                    "name": "A4",
                    "midi": 69,
                    "time": 85.07134350000058,
                    "velocity": 0.3937007874015748,
                    "duration": 0.08928562500000226
                },
                {
                    "name": "G#3",
                    "midi": 56,
                    "time": 85.28562900000058,
                    "velocity": 0.31496062992125984,
                    "duration": 0.08928562500000226
                },
                {
                    "name": "D#3",
                    "midi": 51,
                    "time": 85.28562900000058,
                    "velocity": 0.7086614173228346,
                    "duration": 0.08928562500000226
                },
                {
                    "name": "A#4",
                    "midi": 70,
                    "time": 85.28562900000058,
                    "velocity": 0.6299212598425197,
                    "duration": 0.08928562500000226
                },
                {
                    "name": "B1",
                    "midi": 35,
                    "time": 85.49991450000059,
                    "velocity": 0.5511811023622047,
                    "duration": 0.08928562500000226
                },
                {
                    "name": "D#3",
                    "midi": 51,
                    "time": 85.49991450000059,
                    "velocity": 0.5511811023622047,
                    "duration": 0.08928562500000226
                },
                {
                    "name": "A4",
                    "midi": 69,
                    "time": 85.49991450000059,
                    "velocity": 0.3937007874015748,
                    "duration": 0.08928562500000226
                },
                {
                    "name": "B1",
                    "midi": 35,
                    "time": 85.71420000000059,
                    "velocity": 0.7874015748031497,
                    "duration": 0.08928562500000226
                },
                {
                    "name": "C#2",
                    "midi": 37,
                    "time": 85.71420000000059,
                    "velocity": 0.7086614173228346,
                    "duration": 0.08928562500000226
                },
                {
                    "name": "D#3",
                    "midi": 51,
                    "time": 85.71420000000059,
                    "velocity": 0.7086614173228346,
                    "duration": 0.08928562500000226
                },
                {
                    "name": "A#4",
                    "midi": 70,
                    "time": 85.71420000000059,
                    "velocity": 0.6299212598425197,
                    "duration": 0.08928562500000226
                },
                {
                    "name": "D#3",
                    "midi": 51,
                    "time": 85.92848550000059,
                    "velocity": 0.5511811023622047,
                    "duration": 0.08928562500000226
                },
                {
                    "name": "D#4",
                    "midi": 63,
                    "time": 85.92848550000059,
                    "velocity": 0.31496062992125984,
                    "duration": 0.08928562500000226
                },
                {
                    "name": "A4",
                    "midi": 69,
                    "time": 85.92848550000059,
                    "velocity": 0.3937007874015748,
                    "duration": 0.08928562500000226
                },
                {
                    "name": "D#3",
                    "midi": 51,
                    "time": 86.1427710000006,
                    "velocity": 0.7086614173228346,
                    "duration": 0.08928562500000226
                },
                {
                    "name": "D#4",
                    "midi": 63,
                    "time": 86.1427710000006,
                    "velocity": 0.47244094488188976,
                    "duration": 0.08928562500000226
                },
                {
                    "name": "A#4",
                    "midi": 70,
                    "time": 86.1427710000006,
                    "velocity": 0.6299212598425197,
                    "duration": 0.08928562500000226
                },
                {
                    "name": "B1",
                    "midi": 35,
                    "time": 86.3570565000006,
                    "velocity": 0.5511811023622047,
                    "duration": 0.08928562500000226
                },
                {
                    "name": "C#2",
                    "midi": 37,
                    "time": 86.3570565000006,
                    "velocity": 0.7086614173228346,
                    "duration": 0.08928562500000226
                },
                {
                    "name": "D#3",
                    "midi": 51,
                    "time": 86.3570565000006,
                    "velocity": 0.5511811023622047,
                    "duration": 0.08928562500000226
                },
                {
                    "name": "D4",
                    "midi": 62,
                    "time": 86.3570565000006,
                    "velocity": 0.5511811023622047,
                    "duration": 0.08928562500000226
                },
                {
                    "name": "A4",
                    "midi": 69,
                    "time": 86.3570565000006,
                    "velocity": 0.3937007874015748,
                    "duration": 0.08928562500000226
                },
                {
                    "name": "B1",
                    "midi": 35,
                    "time": 86.5713420000006,
                    "velocity": 0.7874015748031497,
                    "duration": 0.08928562500000226
                },
                {
                    "name": "D#3",
                    "midi": 51,
                    "time": 86.5713420000006,
                    "velocity": 0.7086614173228346,
                    "duration": 0.08928562500000226
                },
                {
                    "name": "D#4",
                    "midi": 63,
                    "time": 86.5713420000006,
                    "velocity": 0.2755905511811024,
                    "duration": 0.08928562500000226
                },
                {
                    "name": "A#4",
                    "midi": 70,
                    "time": 86.5713420000006,
                    "velocity": 0.6299212598425197,
                    "duration": 0.08928562500000226
                },
                {
                    "name": "D#3",
                    "midi": 51,
                    "time": 86.7856275000006,
                    "velocity": 0.5511811023622047,
                    "duration": 0.08928562500000226
                },
                {
                    "name": "A4",
                    "midi": 69,
                    "time": 86.7856275000006,
                    "velocity": 0.3937007874015748,
                    "duration": 0.08928562500000226
                },
                {
                    "name": "C#2",
                    "midi": 37,
                    "time": 86.9999130000006,
                    "velocity": 0.7086614173228346,
                    "duration": 0.08928562500000226
                },
                {
                    "name": "D#3",
                    "midi": 51,
                    "time": 86.9999130000006,
                    "velocity": 0.7086614173228346,
                    "duration": 0.08928562500000226
                },
                {
                    "name": "D4",
                    "midi": 62,
                    "time": 86.9999130000006,
                    "velocity": 0.5511811023622047,
                    "duration": 0.08928562500000226
                },
                {
                    "name": "A#4",
                    "midi": 70,
                    "time": 86.9999130000006,
                    "velocity": 0.6299212598425197,
                    "duration": 0.08928562500000226
                },
                {
                    "name": "B1",
                    "midi": 35,
                    "time": 87.2141985000006,
                    "velocity": 0.5511811023622047,
                    "duration": 0.08928562500000226
                },
                {
                    "name": "D#3",
                    "midi": 51,
                    "time": 87.2141985000006,
                    "velocity": 0.5511811023622047,
                    "duration": 0.08928562500000226
                },
                {
                    "name": "A4",
                    "midi": 69,
                    "time": 87.2141985000006,
                    "velocity": 0.3937007874015748,
                    "duration": 0.08928562500000226
                },
                {
                    "name": "B1",
                    "midi": 35,
                    "time": 87.42848400000061,
                    "velocity": 0.7874015748031497,
                    "duration": 0.08928562500000226
                },
                {
                    "name": "D#3",
                    "midi": 51,
                    "time": 87.42848400000061,
                    "velocity": 0.7086614173228346,
                    "duration": 0.08928562500000226
                },
                {
                    "name": "D#4",
                    "midi": 63,
                    "time": 87.42848400000061,
                    "velocity": 0.31496062992125984,
                    "duration": 0.08928562500000226
                },
                {
                    "name": "A#4",
                    "midi": 70,
                    "time": 87.42848400000061,
                    "velocity": 0.6299212598425197,
                    "duration": 0.08928562500000226
                },
                {
                    "name": "D#3",
                    "midi": 51,
                    "time": 87.64276950000061,
                    "velocity": 0.5511811023622047,
                    "duration": 0.08928562500000226
                },
                {
                    "name": "D#4",
                    "midi": 63,
                    "time": 87.64276950000061,
                    "velocity": 0.31496062992125984,
                    "duration": 0.08928562500000226
                },
                {
                    "name": "A4",
                    "midi": 69,
                    "time": 87.64276950000061,
                    "velocity": 0.3937007874015748,
                    "duration": 0.08928562500000226
                },
                {
                    "name": "C#2",
                    "midi": 37,
                    "time": 87.85705500000061,
                    "velocity": 0.7086614173228346,
                    "duration": 0.08928562500000226
                },
                {
                    "name": "D#3",
                    "midi": 51,
                    "time": 87.85705500000061,
                    "velocity": 0.7086614173228346,
                    "duration": 0.08928562500000226
                },
                {
                    "name": "A#4",
                    "midi": 70,
                    "time": 87.85705500000061,
                    "velocity": 0.6299212598425197,
                    "duration": 0.08928562500000226
                },
                {
                    "name": "B1",
                    "midi": 35,
                    "time": 88.07134050000062,
                    "velocity": 0.5511811023622047,
                    "duration": 0.08928562500000226
                },
                {
                    "name": "D#3",
                    "midi": 51,
                    "time": 88.07134050000062,
                    "velocity": 0.5511811023622047,
                    "duration": 0.08928562500000226
                },
                {
                    "name": "A4",
                    "midi": 69,
                    "time": 88.07134050000062,
                    "velocity": 0.3937007874015748,
                    "duration": 0.08928562500000226
                },
                {
                    "name": "B1",
                    "midi": 35,
                    "time": 88.28562600000062,
                    "velocity": 0.7874015748031497,
                    "duration": 0.08928562500000226
                },
                {
                    "name": "D#3",
                    "midi": 51,
                    "time": 88.28562600000062,
                    "velocity": 0.7086614173228346,
                    "duration": 0.08928562500000226
                },
                {
                    "name": "A#4",
                    "midi": 70,
                    "time": 88.28562600000062,
                    "velocity": 0.6299212598425197,
                    "duration": 0.08928562500000226
                },
                {
                    "name": "C#2",
                    "midi": 37,
                    "time": 88.49991150000062,
                    "velocity": 0.7086614173228346,
                    "duration": 0.08928562500000226
                },
                {
                    "name": "D#3",
                    "midi": 51,
                    "time": 88.49991150000062,
                    "velocity": 0.5511811023622047,
                    "duration": 0.08928562500000226
                },
                {
                    "name": "A4",
                    "midi": 69,
                    "time": 88.49991150000062,
                    "velocity": 0.3937007874015748,
                    "duration": 0.08928562500000226
                },
                {
                    "name": "D#3",
                    "midi": 51,
                    "time": 88.71419700000062,
                    "velocity": 0.7086614173228346,
                    "duration": 0.08928562500000226
                },
                {
                    "name": "A#4",
                    "midi": 70,
                    "time": 88.71419700000062,
                    "velocity": 0.6299212598425197,
                    "duration": 0.08928562500000226
                },
                {
                    "name": "B1",
                    "midi": 35,
                    "time": 88.92848250000063,
                    "velocity": 0.5511811023622047,
                    "duration": 0.08928562500000226
                },
                {
                    "name": "D#3",
                    "midi": 51,
                    "time": 88.92848250000063,
                    "velocity": 0.5511811023622047,
                    "duration": 0.08928562500000226
                },
                {
                    "name": "A4",
                    "midi": 69,
                    "time": 88.92848250000063,
                    "velocity": 0.3937007874015748,
                    "duration": 0.08928562500000226
                },
                {
                    "name": "B1",
                    "midi": 35,
                    "time": 89.14276800000063,
                    "velocity": 0.7874015748031497,
                    "duration": 0.08928562500000226
                },
                {
                    "name": "C#2",
                    "midi": 37,
                    "time": 89.14276800000063,
                    "velocity": 0.7086614173228346,
                    "duration": 0.08928562500000226
                },
                {
                    "name": "G#3",
                    "midi": 56,
                    "time": 89.14276800000063,
                    "velocity": 0.31496062992125984,
                    "duration": 0.08928562500000226
                },
                {
                    "name": "D#3",
                    "midi": 51,
                    "time": 89.14276800000063,
                    "velocity": 0.7086614173228346,
                    "duration": 0.08928562500000226
                },
                {
                    "name": "A#4",
                    "midi": 70,
                    "time": 89.14276800000063,
                    "velocity": 0.6299212598425197,
                    "duration": 0.08928562500000226
                },
                {
                    "name": "D#3",
                    "midi": 51,
                    "time": 89.35705350000063,
                    "velocity": 0.5511811023622047,
                    "duration": 0.08928562500000226
                },
                {
                    "name": "D#4",
                    "midi": 63,
                    "time": 89.35705350000063,
                    "velocity": 0.31496062992125984,
                    "duration": 0.08928562500000226
                },
                {
                    "name": "A4",
                    "midi": 69,
                    "time": 89.35705350000063,
                    "velocity": 0.3937007874015748,
                    "duration": 0.08928562500000226
                },
                {
                    "name": "D#3",
                    "midi": 51,
                    "time": 89.57133900000063,
                    "velocity": 0.7086614173228346,
                    "duration": 0.08928562500000226
                },
                {
                    "name": "D#4",
                    "midi": 63,
                    "time": 89.57133900000063,
                    "velocity": 0.47244094488188976,
                    "duration": 0.08928562500000226
                },
                {
                    "name": "A#4",
                    "midi": 70,
                    "time": 89.57133900000063,
                    "velocity": 0.6299212598425197,
                    "duration": 0.08928562500000226
                },
                {
                    "name": "B1",
                    "midi": 35,
                    "time": 89.78562450000064,
                    "velocity": 0.5511811023622047,
                    "duration": 0.08928562500000226
                },
                {
                    "name": "C#2",
                    "midi": 37,
                    "time": 89.78562450000064,
                    "velocity": 0.7086614173228346,
                    "duration": 0.08928562500000226
                },
                {
                    "name": "G#3",
                    "midi": 56,
                    "time": 89.78562450000064,
                    "velocity": 0.31496062992125984,
                    "duration": 0.08928562500000226
                },
                {
                    "name": "D#3",
                    "midi": 51,
                    "time": 89.78562450000064,
                    "velocity": 0.5511811023622047,
                    "duration": 0.08928562500000226
                },
                {
                    "name": "D4",
                    "midi": 62,
                    "time": 89.78562450000064,
                    "velocity": 0.5511811023622047,
                    "duration": 0.08928562500000226
                },
                {
                    "name": "A4",
                    "midi": 69,
                    "time": 89.78562450000064,
                    "velocity": 0.3937007874015748,
                    "duration": 0.08928562500000226
                },
                {
                    "name": "B1",
                    "midi": 35,
                    "time": 89.99991000000064,
                    "velocity": 0.7874015748031497,
                    "duration": 0.08928562500000226
                },
                {
                    "name": "D#3",
                    "midi": 51,
                    "time": 89.99991000000064,
                    "velocity": 0.7086614173228346,
                    "duration": 0.08928562500000226
                },
                {
                    "name": "A#4",
                    "midi": 70,
                    "time": 89.99991000000064,
                    "velocity": 0.6299212598425197,
                    "duration": 0.08928562500000226
                },
                {
                    "name": "D#3",
                    "midi": 51,
                    "time": 90.21419550000064,
                    "velocity": 0.5511811023622047,
                    "duration": 0.08928562500000226
                },
                {
                    "name": "A4",
                    "midi": 69,
                    "time": 90.21419550000064,
                    "velocity": 0.3937007874015748,
                    "duration": 0.08928562500000226
                },
                {
                    "name": "C#2",
                    "midi": 37,
                    "time": 90.42848100000064,
                    "velocity": 0.7086614173228346,
                    "duration": 0.08928562500000226
                },
                {
                    "name": "G#3",
                    "midi": 56,
                    "time": 90.42848100000064,
                    "velocity": 0.31496062992125984,
                    "duration": 0.08928562500000226
                },
                {
                    "name": "D#3",
                    "midi": 51,
                    "time": 90.42848100000064,
                    "velocity": 0.7086614173228346,
                    "duration": 0.08928562500000226
                },
                {
                    "name": "D4",
                    "midi": 62,
                    "time": 90.42848100000064,
                    "velocity": 0.5511811023622047,
                    "duration": 0.08928562500000226
                },
                {
                    "name": "A#4",
                    "midi": 70,
                    "time": 90.42848100000064,
                    "velocity": 0.6299212598425197,
                    "duration": 0.08928562500000226
                },
                {
                    "name": "B1",
                    "midi": 35,
                    "time": 90.64276650000065,
                    "velocity": 0.5511811023622047,
                    "duration": 0.08928562500000226
                },
                {
                    "name": "D#3",
                    "midi": 51,
                    "time": 90.64276650000065,
                    "velocity": 0.5511811023622047,
                    "duration": 0.08928562500000226
                },
                {
                    "name": "A2",
                    "midi": 45,
                    "time": 90.64276650000065,
                    "velocity": 0.5511811023622047,
                    "duration": 0.08928562500000226
                },
                {
                    "name": "A4",
                    "midi": 69,
                    "time": 90.64276650000065,
                    "velocity": 0.3937007874015748,
                    "duration": 0.08928562500000226
                },
                {
                    "name": "B1",
                    "midi": 35,
                    "time": 90.85705200000065,
                    "velocity": 0.7874015748031497,
                    "duration": 0.08928562500000226
                },
                {
                    "name": "D#3",
                    "midi": 51,
                    "time": 90.85705200000065,
                    "velocity": 0.7086614173228346,
                    "duration": 0.08928562500000226
                },
                {
                    "name": "D#4",
                    "midi": 63,
                    "time": 90.85705200000065,
                    "velocity": 0.31496062992125984,
                    "duration": 0.08928562500000226
                },
                {
                    "name": "A#4",
                    "midi": 70,
                    "time": 90.85705200000065,
                    "velocity": 0.6299212598425197,
                    "duration": 0.08928562500000226
                },
                {
                    "name": "D#3",
                    "midi": 51,
                    "time": 91.07133750000065,
                    "velocity": 0.5511811023622047,
                    "duration": 0.08928562500000226
                },
                {
                    "name": "D#4",
                    "midi": 63,
                    "time": 91.07133750000065,
                    "velocity": 0.31496062992125984,
                    "duration": 0.08928562500000226
                },
                {
                    "name": "A4",
                    "midi": 69,
                    "time": 91.07133750000065,
                    "velocity": 0.3937007874015748,
                    "duration": 0.08928562500000226
                },
                {
                    "name": "C#2",
                    "midi": 37,
                    "time": 91.28562300000065,
                    "velocity": 0.7086614173228346,
                    "duration": 0.08928562500000226
                },
                {
                    "name": "D#3",
                    "midi": 51,
                    "time": 91.28562300000065,
                    "velocity": 0.7086614173228346,
                    "duration": 0.08928562500000226
                },
                {
                    "name": "A#4",
                    "midi": 70,
                    "time": 91.28562300000065,
                    "velocity": 0.6299212598425197,
                    "duration": 0.08928562500000226
                },
                {
                    "name": "B1",
                    "midi": 35,
                    "time": 91.49990850000066,
                    "velocity": 0.5511811023622047,
                    "duration": 0.08928562500000226
                },
                {
                    "name": "D#3",
                    "midi": 51,
                    "time": 91.49990850000066,
                    "velocity": 0.5511811023622047,
                    "duration": 0.08928562500000226
                },
                {
                    "name": "A4",
                    "midi": 69,
                    "time": 91.49990850000066,
                    "velocity": 0.3937007874015748,
                    "duration": 0.08928562500000226
                },
                {
                    "name": "B1",
                    "midi": 35,
                    "time": 91.71419400000066,
                    "velocity": 0.7874015748031497,
                    "duration": 0.08928562500000226
                },
                {
                    "name": "D#3",
                    "midi": 51,
                    "time": 91.71419400000066,
                    "velocity": 0.7086614173228346,
                    "duration": 0.08928562500000226
                },
                {
                    "name": "A#4",
                    "midi": 70,
                    "time": 91.71419400000066,
                    "velocity": 0.6299212598425197,
                    "duration": 0.08928562500000226
                },
                {
                    "name": "C#2",
                    "midi": 37,
                    "time": 91.92847950000066,
                    "velocity": 0.7086614173228346,
                    "duration": 0.08928562500000226
                },
                {
                    "name": "D#3",
                    "midi": 51,
                    "time": 91.92847950000066,
                    "velocity": 0.5511811023622047,
                    "duration": 0.08928562500000226
                },
                {
                    "name": "A4",
                    "midi": 69,
                    "time": 91.92847950000066,
                    "velocity": 0.3937007874015748,
                    "duration": 0.08928562500000226
                },
                {
                    "name": "D#3",
                    "midi": 51,
                    "time": 92.14276500000067,
                    "velocity": 0.7086614173228346,
                    "duration": 0.08928562500000226
                },
                {
                    "name": "A#4",
                    "midi": 70,
                    "time": 92.14276500000067,
                    "velocity": 0.6299212598425197,
                    "duration": 0.08928562500000226
                },
                {
                    "name": "B1",
                    "midi": 35,
                    "time": 92.35705050000067,
                    "velocity": 0.5511811023622047,
                    "duration": 0.08928562500000226
                },
                {
                    "name": "D#3",
                    "midi": 51,
                    "time": 92.35705050000067,
                    "velocity": 0.5511811023622047,
                    "duration": 0.08928562500000226
                },
                {
                    "name": "A4",
                    "midi": 69,
                    "time": 92.35705050000067,
                    "velocity": 0.3937007874015748,
                    "duration": 0.08928562500000226
                },
                {
                    "name": "B1",
                    "midi": 35,
                    "time": 92.57133600000067,
                    "velocity": 0.7874015748031497,
                    "duration": 0.08928562500000226
                },
                {
                    "name": "C#2",
                    "midi": 37,
                    "time": 92.57133600000067,
                    "velocity": 0.7086614173228346,
                    "duration": 0.08928562500000226
                },
                {
                    "name": "D#3",
                    "midi": 51,
                    "time": 92.57133600000067,
                    "velocity": 0.7086614173228346,
                    "duration": 0.08928562500000226
                },
                {
                    "name": "A#4",
                    "midi": 70,
                    "time": 92.57133600000067,
                    "velocity": 0.6299212598425197,
                    "duration": 0.08928562500000226
                },
                {
                    "name": "D#3",
                    "midi": 51,
                    "time": 92.78562150000067,
                    "velocity": 0.5511811023622047,
                    "duration": 0.08928562500000226
                },
                {
                    "name": "D#4",
                    "midi": 63,
                    "time": 92.78562150000067,
                    "velocity": 0.31496062992125984,
                    "duration": 0.08928562500000226
                },
                {
                    "name": "A4",
                    "midi": 69,
                    "time": 92.78562150000067,
                    "velocity": 0.3937007874015748,
                    "duration": 0.08928562500000226
                },
                {
                    "name": "D#3",
                    "midi": 51,
                    "time": 92.99990700000068,
                    "velocity": 0.7086614173228346,
                    "duration": 0.08928562500000226
                },
                {
                    "name": "D#4",
                    "midi": 63,
                    "time": 92.99990700000068,
                    "velocity": 0.47244094488188976,
                    "duration": 0.08928562500000226
                },
                {
                    "name": "A#4",
                    "midi": 70,
                    "time": 92.99990700000068,
                    "velocity": 0.6299212598425197,
                    "duration": 0.08928562500000226
                },
                {
                    "name": "B1",
                    "midi": 35,
                    "time": 93.21419250000068,
                    "velocity": 0.5511811023622047,
                    "duration": 0.08928562500000226
                },
                {
                    "name": "C#2",
                    "midi": 37,
                    "time": 93.21419250000068,
                    "velocity": 0.7086614173228346,
                    "duration": 0.08928562500000226
                },
                {
                    "name": "G#3",
                    "midi": 56,
                    "time": 93.21419250000068,
                    "velocity": 0.31496062992125984,
                    "duration": 0.08928562500000226
                },
                {
                    "name": "D#3",
                    "midi": 51,
                    "time": 93.21419250000068,
                    "velocity": 0.5511811023622047,
                    "duration": 0.08928562500000226
                },
                {
                    "name": "D4",
                    "midi": 62,
                    "time": 93.21419250000068,
                    "velocity": 0.5511811023622047,
                    "duration": 0.08928562500000226
                },
                {
                    "name": "A4",
                    "midi": 69,
                    "time": 93.21419250000068,
                    "velocity": 0.3937007874015748,
                    "duration": 0.08928562500000226
                },
                {
                    "name": "B1",
                    "midi": 35,
                    "time": 93.42847800000068,
                    "velocity": 0.7874015748031497,
                    "duration": 0.08928562500000226
                },
                {
                    "name": "D#3",
                    "midi": 51,
                    "time": 93.42847800000068,
                    "velocity": 0.7086614173228346,
                    "duration": 0.08928562500000226
                },
                {
                    "name": "A#4",
                    "midi": 70,
                    "time": 93.42847800000068,
                    "velocity": 0.6299212598425197,
                    "duration": 0.08928562500000226
                },
                {
                    "name": "D#3",
                    "midi": 51,
                    "time": 93.64276350000068,
                    "velocity": 0.5511811023622047,
                    "duration": 0.08928562500000226
                },
                {
                    "name": "A4",
                    "midi": 69,
                    "time": 93.64276350000068,
                    "velocity": 0.3937007874015748,
                    "duration": 0.08928562500000226
                },
                {
                    "name": "C#2",
                    "midi": 37,
                    "time": 93.85704900000069,
                    "velocity": 0.7086614173228346,
                    "duration": 0.08928562500000226
                },
                {
                    "name": "G#3",
                    "midi": 56,
                    "time": 93.85704900000069,
                    "velocity": 0.31496062992125984,
                    "duration": 0.08928562500000226
                },
                {
                    "name": "D#3",
                    "midi": 51,
                    "time": 93.85704900000069,
                    "velocity": 0.7086614173228346,
                    "duration": 0.08928562500000226
                },
                {
                    "name": "D4",
                    "midi": 62,
                    "time": 93.85704900000069,
                    "velocity": 0.5511811023622047,
                    "duration": 0.08928562500000226
                },
                {
                    "name": "A#4",
                    "midi": 70,
                    "time": 93.85704900000069,
                    "velocity": 0.6299212598425197,
                    "duration": 0.08928562500000226
                },
                {
                    "name": "B1",
                    "midi": 35,
                    "time": 94.07133450000069,
                    "velocity": 0.5511811023622047,
                    "duration": 0.08928562500000226
                },
                {
                    "name": "D#3",
                    "midi": 51,
                    "time": 94.07133450000069,
                    "velocity": 0.5511811023622047,
                    "duration": 0.08928562500000226
                },
                {
                    "name": "A4",
                    "midi": 69,
                    "time": 94.07133450000069,
                    "velocity": 0.3937007874015748,
                    "duration": 0.08928562500000226
                },
                {
                    "name": "B1",
                    "midi": 35,
                    "time": 94.28562000000069,
                    "velocity": 0.7874015748031497,
                    "duration": 0.08928562500000226
                },
                {
                    "name": "D#3",
                    "midi": 51,
                    "time": 94.28562000000069,
                    "velocity": 0.7086614173228346,
                    "duration": 0.08928562500000226
                },
                {
                    "name": "D#4",
                    "midi": 63,
                    "time": 94.28562000000069,
                    "velocity": 0.31496062992125984,
                    "duration": 0.08928562500000226
                },
                {
                    "name": "A#4",
                    "midi": 70,
                    "time": 94.28562000000069,
                    "velocity": 0.6299212598425197,
                    "duration": 0.08928562500000226
                },
                {
                    "name": "D#3",
                    "midi": 51,
                    "time": 94.4999055000007,
                    "velocity": 0.5511811023622047,
                    "duration": 0.08928562500000226
                },
                {
                    "name": "D#4",
                    "midi": 63,
                    "time": 94.4999055000007,
                    "velocity": 0.31496062992125984,
                    "duration": 0.08928562500000226
                },
                {
                    "name": "A4",
                    "midi": 69,
                    "time": 94.4999055000007,
                    "velocity": 0.3937007874015748,
                    "duration": 0.08928562500000226
                },
                {
                    "name": "C#2",
                    "midi": 37,
                    "time": 94.7141910000007,
                    "velocity": 0.7086614173228346,
                    "duration": 0.08928562500000226
                },
                {
                    "name": "D#3",
                    "midi": 51,
                    "time": 94.7141910000007,
                    "velocity": 0.7086614173228346,
                    "duration": 0.08928562500000226
                },
                {
                    "name": "A#4",
                    "midi": 70,
                    "time": 94.7141910000007,
                    "velocity": 0.6299212598425197,
                    "duration": 0.08928562500000226
                },
                {
                    "name": "B1",
                    "midi": 35,
                    "time": 94.9284765000007,
                    "velocity": 0.5511811023622047,
                    "duration": 0.08928562500000226
                },
                {
                    "name": "D#3",
                    "midi": 51,
                    "time": 94.9284765000007,
                    "velocity": 0.5511811023622047,
                    "duration": 0.08928562500000226
                },
                {
                    "name": "A4",
                    "midi": 69,
                    "time": 94.9284765000007,
                    "velocity": 0.3937007874015748,
                    "duration": 0.08928562500000226
                },
                {
                    "name": "B1",
                    "midi": 35,
                    "time": 95.1427620000007,
                    "velocity": 0.7874015748031497,
                    "duration": 0.08928562500000226
                },
                {
                    "name": "D#3",
                    "midi": 51,
                    "time": 95.1427620000007,
                    "velocity": 0.7086614173228346,
                    "duration": 0.08928562500000226
                },
                {
                    "name": "A#4",
                    "midi": 70,
                    "time": 95.1427620000007,
                    "velocity": 0.6299212598425197,
                    "duration": 0.08928562500000226
                },
                {
                    "name": "C#2",
                    "midi": 37,
                    "time": 95.3570475000007,
                    "velocity": 0.7086614173228346,
                    "duration": 0.08928562500000226
                },
                {
                    "name": "D#3",
                    "midi": 51,
                    "time": 95.3570475000007,
                    "velocity": 0.5511811023622047,
                    "duration": 0.08928562500000226
                },
                {
                    "name": "A4",
                    "midi": 69,
                    "time": 95.3570475000007,
                    "velocity": 0.3937007874015748,
                    "duration": 0.08928562500000226
                },
                {
                    "name": "G#3",
                    "midi": 56,
                    "time": 95.5713330000007,
                    "velocity": 0.31496062992125984,
                    "duration": 0.08928562500000226
                },
                {
                    "name": "D#3",
                    "midi": 51,
                    "time": 95.5713330000007,
                    "velocity": 0.7086614173228346,
                    "duration": 0.08928562500000226
                },
                {
                    "name": "A#4",
                    "midi": 70,
                    "time": 95.5713330000007,
                    "velocity": 0.6299212598425197,
                    "duration": 0.08928562500000226
                },
                {
                    "name": "B1",
                    "midi": 35,
                    "time": 95.78561850000071,
                    "velocity": 0.5511811023622047,
                    "duration": 0.08928562500000226
                },
                {
                    "name": "D#3",
                    "midi": 51,
                    "time": 95.78561850000071,
                    "velocity": 0.5511811023622047,
                    "duration": 0.08928562500000226
                },
                {
                    "name": "A4",
                    "midi": 69,
                    "time": 95.78561850000071,
                    "velocity": 0.3937007874015748,
                    "duration": 0.08928562500000226
                },
                {
                    "name": "B1",
                    "midi": 35,
                    "time": 95.99990400000071,
                    "velocity": 0.7874015748031497,
                    "duration": 0.08928562500000226
                },
                {
                    "name": "C#2",
                    "midi": 37,
                    "time": 95.99990400000071,
                    "velocity": 0.7086614173228346,
                    "duration": 0.08928562500000226
                },
                {
                    "name": "G#3",
                    "midi": 56,
                    "time": 95.99990400000071,
                    "velocity": 0.31496062992125984,
                    "duration": 0.08928562500000226
                },
                {
                    "name": "D#3",
                    "midi": 51,
                    "time": 95.99990400000071,
                    "velocity": 0.7086614173228346,
                    "duration": 0.08928562500000226
                },
                {
                    "name": "A#4",
                    "midi": 70,
                    "time": 95.99990400000071,
                    "velocity": 0.6299212598425197,
                    "duration": 0.08928562500000226
                },
                {
                    "name": "D#3",
                    "midi": 51,
                    "time": 96.21418950000071,
                    "velocity": 0.5511811023622047,
                    "duration": 0.08928562500000226
                },
                {
                    "name": "D#4",
                    "midi": 63,
                    "time": 96.21418950000071,
                    "velocity": 0.31496062992125984,
                    "duration": 0.08928562500000226
                },
                {
                    "name": "A4",
                    "midi": 69,
                    "time": 96.21418950000071,
                    "velocity": 0.3937007874015748,
                    "duration": 0.08928562500000226
                },
                {
                    "name": "D#3",
                    "midi": 51,
                    "time": 96.42847500000072,
                    "velocity": 0.7086614173228346,
                    "duration": 0.08928562500000226
                },
                {
                    "name": "D#4",
                    "midi": 63,
                    "time": 96.42847500000072,
                    "velocity": 0.47244094488188976,
                    "duration": 0.08928562500000226
                },
                {
                    "name": "A#4",
                    "midi": 70,
                    "time": 96.42847500000072,
                    "velocity": 0.6299212598425197,
                    "duration": 0.08928562500000226
                },
                {
                    "name": "B1",
                    "midi": 35,
                    "time": 96.64276050000072,
                    "velocity": 0.5511811023622047,
                    "duration": 0.08928562500000226
                },
                {
                    "name": "C#2",
                    "midi": 37,
                    "time": 96.64276050000072,
                    "velocity": 0.7086614173228346,
                    "duration": 0.08928562500000226
                },
                {
                    "name": "D#3",
                    "midi": 51,
                    "time": 96.64276050000072,
                    "velocity": 0.5511811023622047,
                    "duration": 0.08928562500000226
                },
                {
                    "name": "D4",
                    "midi": 62,
                    "time": 96.64276050000072,
                    "velocity": 0.5511811023622047,
                    "duration": 0.08928562500000226
                },
                {
                    "name": "A4",
                    "midi": 69,
                    "time": 96.64276050000072,
                    "velocity": 0.3937007874015748,
                    "duration": 0.08928562500000226
                },
                {
                    "name": "B1",
                    "midi": 35,
                    "time": 96.85704600000072,
                    "velocity": 0.7874015748031497,
                    "duration": 0.08928562500000226
                },
                {
                    "name": "D#3",
                    "midi": 51,
                    "time": 96.85704600000072,
                    "velocity": 0.7086614173228346,
                    "duration": 0.08928562500000226
                },
                {
                    "name": "A#4",
                    "midi": 70,
                    "time": 96.85704600000072,
                    "velocity": 0.6299212598425197,
                    "duration": 0.08928562500000226
                },
                {
                    "name": "D#3",
                    "midi": 51,
                    "time": 97.07133150000072,
                    "velocity": 0.5511811023622047,
                    "duration": 0.08928562500000226
                },
                {
                    "name": "D#4",
                    "midi": 63,
                    "time": 97.07133150000072,
                    "velocity": 0.3937007874015748,
                    "duration": 0.08928562500000226
                },
                {
                    "name": "A4",
                    "midi": 69,
                    "time": 97.07133150000072,
                    "velocity": 0.3937007874015748,
                    "duration": 0.08928562500000226
                },
                {
                    "name": "C#2",
                    "midi": 37,
                    "time": 97.28561700000073,
                    "velocity": 0.7086614173228346,
                    "duration": 0.08928562500000226
                },
                {
                    "name": "G#3",
                    "midi": 56,
                    "time": 97.28561700000073,
                    "velocity": 0.31496062992125984,
                    "duration": 0.08928562500000226
                },
                {
                    "name": "D#3",
                    "midi": 51,
                    "time": 97.28561700000073,
                    "velocity": 0.7086614173228346,
                    "duration": 0.08928562500000226
                },
                {
                    "name": "A2",
                    "midi": 45,
                    "time": 97.28561700000073,
                    "velocity": 0.5511811023622047,
                    "duration": 0.08928562500000226
                },
                {
                    "name": "D4",
                    "midi": 62,
                    "time": 97.28561700000073,
                    "velocity": 0.5511811023622047,
                    "duration": 0.08928562500000226
                },
                {
                    "name": "A#4",
                    "midi": 70,
                    "time": 97.28561700000073,
                    "velocity": 0.6299212598425197,
                    "duration": 0.08928562500000226
                },
                {
                    "name": "B1",
                    "midi": 35,
                    "time": 97.49990250000073,
                    "velocity": 0.5511811023622047,
                    "duration": 0.08928562500000226
                },
                {
                    "name": "D#3",
                    "midi": 51,
                    "time": 97.49990250000073,
                    "velocity": 0.5511811023622047,
                    "duration": 0.08928562500000226
                },
                {
                    "name": "A4",
                    "midi": 69,
                    "time": 97.49990250000073,
                    "velocity": 0.3937007874015748,
                    "duration": 0.08928562500000226
                },
                {
                    "name": "B1",
                    "midi": 35,
                    "time": 97.71418800000073,
                    "velocity": 0.7874015748031497,
                    "duration": 0.08928562500000226
                },
                {
                    "name": "D#3",
                    "midi": 51,
                    "time": 97.71418800000073,
                    "velocity": 0.7086614173228346,
                    "duration": 0.08928562500000226
                },
                {
                    "name": "D#4",
                    "midi": 63,
                    "time": 97.71418800000073,
                    "velocity": 0.31496062992125984,
                    "duration": 0.08928562500000226
                },
                {
                    "name": "A#4",
                    "midi": 70,
                    "time": 97.71418800000073,
                    "velocity": 0.6299212598425197,
                    "duration": 0.08928562500000226
                },
                {
                    "name": "D#3",
                    "midi": 51,
                    "time": 97.92847350000073,
                    "velocity": 0.5511811023622047,
                    "duration": 0.08928562500000226
                },
                {
                    "name": "D#4",
                    "midi": 63,
                    "time": 97.92847350000073,
                    "velocity": 0.31496062992125984,
                    "duration": 0.08928562500000226
                },
                {
                    "name": "A4",
                    "midi": 69,
                    "time": 97.92847350000073,
                    "velocity": 0.3937007874015748,
                    "duration": 0.08928562500000226
                },
                {
                    "name": "C#2",
                    "midi": 37,
                    "time": 98.14275900000074,
                    "velocity": 0.7086614173228346,
                    "duration": 0.08928562500000226
                },
                {
                    "name": "D#3",
                    "midi": 51,
                    "time": 98.14275900000074,
                    "velocity": 0.7086614173228346,
                    "duration": 0.08928562500000226
                },
                {
                    "name": "A#4",
                    "midi": 70,
                    "time": 98.14275900000074,
                    "velocity": 0.6299212598425197,
                    "duration": 0.08928562500000226
                },
                {
                    "name": "B1",
                    "midi": 35,
                    "time": 98.35704450000074,
                    "velocity": 0.5511811023622047,
                    "duration": 0.08928562500000226
                },
                {
                    "name": "G#3",
                    "midi": 56,
                    "time": 98.35704450000074,
                    "velocity": 0.31496062992125984,
                    "duration": 0.08928562500000226
                },
                {
                    "name": "D#3",
                    "midi": 51,
                    "time": 98.35704450000074,
                    "velocity": 0.5511811023622047,
                    "duration": 0.08928562500000226
                },
                {
                    "name": "A4",
                    "midi": 69,
                    "time": 98.35704450000074,
                    "velocity": 0.3937007874015748,
                    "duration": 0.08928562500000226
                },
                {
                    "name": "B1",
                    "midi": 35,
                    "time": 98.57133000000074,
                    "velocity": 0.7874015748031497,
                    "duration": 0.08928562500000226
                },
                {
                    "name": "D#3",
                    "midi": 51,
                    "time": 98.57133000000074,
                    "velocity": 0.7086614173228346,
                    "duration": 0.08928562500000226
                },
                {
                    "name": "A#4",
                    "midi": 70,
                    "time": 98.57133000000074,
                    "velocity": 0.6299212598425197,
                    "duration": 0.08928562500000226
                },
                {
                    "name": "C#2",
                    "midi": 37,
                    "time": 98.78561550000074,
                    "velocity": 0.7086614173228346,
                    "duration": 0.08928562500000226
                },
                {
                    "name": "D#3",
                    "midi": 51,
                    "time": 98.78561550000074,
                    "velocity": 0.5511811023622047,
                    "duration": 0.08928562500000226
                },
                {
                    "name": "A4",
                    "midi": 69,
                    "time": 98.78561550000074,
                    "velocity": 0.3937007874015748,
                    "duration": 0.08928562500000226
                },
                {
                    "name": "G#3",
                    "midi": 56,
                    "time": 98.99990100000075,
                    "velocity": 0.31496062992125984,
                    "duration": 0.08928562500000226
                },
                {
                    "name": "D#3",
                    "midi": 51,
                    "time": 98.99990100000075,
                    "velocity": 0.7086614173228346,
                    "duration": 0.08928562500000226
                },
                {
                    "name": "A#4",
                    "midi": 70,
                    "time": 98.99990100000075,
                    "velocity": 0.6299212598425197,
                    "duration": 0.08928562500000226
                },
                {
                    "name": "B1",
                    "midi": 35,
                    "time": 99.21418650000075,
                    "velocity": 0.5511811023622047,
                    "duration": 0.08928562500000226
                },
                {
                    "name": "D#3",
                    "midi": 51,
                    "time": 99.21418650000075,
                    "velocity": 0.5511811023622047,
                    "duration": 0.08928562500000226
                },
                {
                    "name": "A4",
                    "midi": 69,
                    "time": 99.21418650000075,
                    "velocity": 0.3937007874015748,
                    "duration": 0.08928562500000226
                },
                {
                    "name": "B1",
                    "midi": 35,
                    "time": 99.42847200000075,
                    "velocity": 0.7874015748031497,
                    "duration": 0.08928562500000226
                },
                {
                    "name": "C#2",
                    "midi": 37,
                    "time": 99.42847200000075,
                    "velocity": 0.7086614173228346,
                    "duration": 0.08928562500000226
                },
                {
                    "name": "D#3",
                    "midi": 51,
                    "time": 99.42847200000075,
                    "velocity": 0.7086614173228346,
                    "duration": 0.08928562500000226
                },
                {
                    "name": "A#4",
                    "midi": 70,
                    "time": 99.42847200000075,
                    "velocity": 0.6299212598425197,
                    "duration": 0.08928562500000226
                },
                {
                    "name": "D#3",
                    "midi": 51,
                    "time": 99.64275750000076,
                    "velocity": 0.5511811023622047,
                    "duration": 0.08928562500000226
                },
                {
                    "name": "D#4",
                    "midi": 63,
                    "time": 99.64275750000076,
                    "velocity": 0.31496062992125984,
                    "duration": 0.08928562500000226
                },
                {
                    "name": "A4",
                    "midi": 69,
                    "time": 99.64275750000076,
                    "velocity": 0.3937007874015748,
                    "duration": 0.08928562500000226
                },
                {
                    "name": "D#3",
                    "midi": 51,
                    "time": 99.85704300000076,
                    "velocity": 0.7086614173228346,
                    "duration": 0.08928562500000226
                },
                {
                    "name": "C3",
                    "midi": 48,
                    "time": 99.85704300000076,
                    "velocity": 0.47244094488188976,
                    "duration": 0.08928562500000226
                },
                {
                    "name": "D#4",
                    "midi": 63,
                    "time": 99.85704300000076,
                    "velocity": 0.47244094488188976,
                    "duration": 0.08928562500000226
                },
                {
                    "name": "A#4",
                    "midi": 70,
                    "time": 99.85704300000076,
                    "velocity": 0.6299212598425197,
                    "duration": 0.08928562500000226
                },
                {
                    "name": "B1",
                    "midi": 35,
                    "time": 100.07132850000076,
                    "velocity": 0.5511811023622047,
                    "duration": 0.08928562500000226
                },
                {
                    "name": "C#2",
                    "midi": 37,
                    "time": 100.07132850000076,
                    "velocity": 0.7086614173228346,
                    "duration": 0.08928562500000226
                },
                {
                    "name": "G#3",
                    "midi": 56,
                    "time": 100.07132850000076,
                    "velocity": 0.31496062992125984,
                    "duration": 0.08928562500000226
                },
                {
                    "name": "D#3",
                    "midi": 51,
                    "time": 100.07132850000076,
                    "velocity": 0.5511811023622047,
                    "duration": 0.08928562500000226
                },
                {
                    "name": "D4",
                    "midi": 62,
                    "time": 100.07132850000076,
                    "velocity": 0.5511811023622047,
                    "duration": 0.08928562500000226
                },
                {
                    "name": "A4",
                    "midi": 69,
                    "time": 100.07132850000076,
                    "velocity": 0.3937007874015748,
                    "duration": 0.08928562500000226
                },
                {
                    "name": "B1",
                    "midi": 35,
                    "time": 100.28561400000076,
                    "velocity": 0.7874015748031497,
                    "duration": 0.08928562500000226
                },
                {
                    "name": "D#3",
                    "midi": 51,
                    "time": 100.28561400000076,
                    "velocity": 0.7086614173228346,
                    "duration": 0.08928562500000226
                },
                {
                    "name": "D#4",
                    "midi": 63,
                    "time": 100.28561400000076,
                    "velocity": 0.2755905511811024,
                    "duration": 0.08928562500000226
                },
                {
                    "name": "A#4",
                    "midi": 70,
                    "time": 100.28561400000076,
                    "velocity": 0.6299212598425197,
                    "duration": 0.08928562500000226
                },
                {
                    "name": "D#3",
                    "midi": 51,
                    "time": 100.49989950000077,
                    "velocity": 0.5511811023622047,
                    "duration": 0.08928562500000226
                },
                {
                    "name": "D#4",
                    "midi": 63,
                    "time": 100.49989950000077,
                    "velocity": 0.3937007874015748,
                    "duration": 0.08928562500000226
                },
                {
                    "name": "A4",
                    "midi": 69,
                    "time": 100.49989950000077,
                    "velocity": 0.3937007874015748,
                    "duration": 0.08928562500000226
                },
                {
                    "name": "C#2",
                    "midi": 37,
                    "time": 100.71418500000077,
                    "velocity": 0.7086614173228346,
                    "duration": 0.08928562500000226
                },
                {
                    "name": "D#3",
                    "midi": 51,
                    "time": 100.71418500000077,
                    "velocity": 0.7086614173228346,
                    "duration": 0.08928562500000226
                },
                {
                    "name": "A2",
                    "midi": 45,
                    "time": 100.71418500000077,
                    "velocity": 0.5511811023622047,
                    "duration": 0.08928562500000226
                },
                {
                    "name": "D4",
                    "midi": 62,
                    "time": 100.71418500000077,
                    "velocity": 0.5511811023622047,
                    "duration": 0.08928562500000226
                },
                {
                    "name": "A#4",
                    "midi": 70,
                    "time": 100.71418500000077,
                    "velocity": 0.6299212598425197,
                    "duration": 0.08928562500000226
                },
                {
                    "name": "B1",
                    "midi": 35,
                    "time": 100.92847050000077,
                    "velocity": 0.5511811023622047,
                    "duration": 0.08928562500000226
                },
                {
                    "name": "D#3",
                    "midi": 51,
                    "time": 100.92847050000077,
                    "velocity": 0.5511811023622047,
                    "duration": 0.08928562500000226
                },
                {
                    "name": "A2",
                    "midi": 45,
                    "time": 100.92847050000077,
                    "velocity": 0.5511811023622047,
                    "duration": 0.08928562500000226
                },
                {
                    "name": "A4",
                    "midi": 69,
                    "time": 100.92847050000077,
                    "velocity": 0.3937007874015748,
                    "duration": 0.08928562500000226
                },
                {
                    "name": "B1",
                    "midi": 35,
                    "time": 101.14275600000077,
                    "velocity": 0.7874015748031497,
                    "duration": 0.08928562500000226
                },
                {
                    "name": "G#3",
                    "midi": 56,
                    "time": 101.14275600000077,
                    "velocity": 0.31496062992125984,
                    "duration": 0.08928562500000226
                },
                {
                    "name": "D#3",
                    "midi": 51,
                    "time": 101.14275600000077,
                    "velocity": 0.7086614173228346,
                    "duration": 0.08928562500000226
                },
                {
                    "name": "D#4",
                    "midi": 63,
                    "time": 101.14275600000077,
                    "velocity": 0.31496062992125984,
                    "duration": 0.08928562500000226
                },
                {
                    "name": "A#4",
                    "midi": 70,
                    "time": 101.14275600000077,
                    "velocity": 0.6299212598425197,
                    "duration": 0.08928562500000226
                },
                {
                    "name": "D#3",
                    "midi": 51,
                    "time": 101.35704150000078,
                    "velocity": 0.5511811023622047,
                    "duration": 0.08928562500000226
                },
                {
                    "name": "D#4",
                    "midi": 63,
                    "time": 101.35704150000078,
                    "velocity": 0.31496062992125984,
                    "duration": 0.08928562500000226
                },
                {
                    "name": "A4",
                    "midi": 69,
                    "time": 101.35704150000078,
                    "velocity": 0.3937007874015748,
                    "duration": 0.08928562500000226
                },
                {
                    "name": "C#2",
                    "midi": 37,
                    "time": 101.57132700000078,
                    "velocity": 0.7086614173228346,
                    "duration": 0.08928562500000226
                },
                {
                    "name": "D#3",
                    "midi": 51,
                    "time": 101.57132700000078,
                    "velocity": 0.7086614173228346,
                    "duration": 0.08928562500000226
                },
                {
                    "name": "A#4",
                    "midi": 70,
                    "time": 101.57132700000078,
                    "velocity": 0.6299212598425197,
                    "duration": 0.08928562500000226
                },
                {
                    "name": "B1",
                    "midi": 35,
                    "time": 101.78561250000078,
                    "velocity": 0.5511811023622047,
                    "duration": 0.08928562500000226
                },
                {
                    "name": "G#3",
                    "midi": 56,
                    "time": 101.78561250000078,
                    "velocity": 0.31496062992125984,
                    "duration": 0.08928562500000226
                },
                {
                    "name": "D#3",
                    "midi": 51,
                    "time": 101.78561250000078,
                    "velocity": 0.5511811023622047,
                    "duration": 0.08928562500000226
                },
                {
                    "name": "A4",
                    "midi": 69,
                    "time": 101.78561250000078,
                    "velocity": 0.3937007874015748,
                    "duration": 0.08928562500000226
                },
                {
                    "name": "B1",
                    "midi": 35,
                    "time": 101.99989800000078,
                    "velocity": 0.7874015748031497,
                    "duration": 0.08928562500000226
                },
                {
                    "name": "D#3",
                    "midi": 51,
                    "time": 101.99989800000078,
                    "velocity": 0.7086614173228346,
                    "duration": 0.08928562500000226
                },
                {
                    "name": "A#4",
                    "midi": 70,
                    "time": 101.99989800000078,
                    "velocity": 0.6299212598425197,
                    "duration": 0.08928562500000226
                },
                {
                    "name": "C#2",
                    "midi": 37,
                    "time": 102.21418350000079,
                    "velocity": 0.7086614173228346,
                    "duration": 0.08928562500000226
                },
                {
                    "name": "D#3",
                    "midi": 51,
                    "time": 102.21418350000079,
                    "velocity": 0.5511811023622047,
                    "duration": 0.08928562500000226
                },
                {
                    "name": "A4",
                    "midi": 69,
                    "time": 102.21418350000079,
                    "velocity": 0.3937007874015748,
                    "duration": 0.08928562500000226
                },
                {
                    "name": "D#3",
                    "midi": 51,
                    "time": 102.42846900000079,
                    "velocity": 0.7086614173228346,
                    "duration": 0.08928562500000226
                },
                {
                    "name": "A2",
                    "midi": 45,
                    "time": 102.42846900000079,
                    "velocity": 0.5511811023622047,
                    "duration": 0.08928562500000226
                },
                {
                    "name": "A#4",
                    "midi": 70,
                    "time": 102.42846900000079,
                    "velocity": 0.6299212598425197,
                    "duration": 0.08928562500000226
                },
                {
                    "name": "B1",
                    "midi": 35,
                    "time": 102.64275450000079,
                    "velocity": 0.5511811023622047,
                    "duration": 0.08928562500000226
                },
                {
                    "name": "D#3",
                    "midi": 51,
                    "time": 102.64275450000079,
                    "velocity": 0.5511811023622047,
                    "duration": 0.08928562500000226
                },
                {
                    "name": "A4",
                    "midi": 69,
                    "time": 102.64275450000079,
                    "velocity": 0.3937007874015748,
                    "duration": 0.08928562500000226
                },
                {
                    "name": "B1",
                    "midi": 35,
                    "time": 102.8570400000008,
                    "velocity": 0.7874015748031497,
                    "duration": 0.08928562500000226
                },
                {
                    "name": "C#2",
                    "midi": 37,
                    "time": 102.8570400000008,
                    "velocity": 0.7086614173228346,
                    "duration": 0.08928562500000226
                },
                {
                    "name": "G#3",
                    "midi": 56,
                    "time": 102.8570400000008,
                    "velocity": 0.31496062992125984,
                    "duration": 0.08928562500000226
                },
                {
                    "name": "D#3",
                    "midi": 51,
                    "time": 102.8570400000008,
                    "velocity": 0.7086614173228346,
                    "duration": 0.08928562500000226
                },
                {
                    "name": "A#4",
                    "midi": 70,
                    "time": 102.8570400000008,
                    "velocity": 0.6299212598425197,
                    "duration": 0.08928562500000226
                },
                {
                    "name": "D#3",
                    "midi": 51,
                    "time": 103.0713255000008,
                    "velocity": 0.5511811023622047,
                    "duration": 0.08928562500000226
                },
                {
                    "name": "D#4",
                    "midi": 63,
                    "time": 103.0713255000008,
                    "velocity": 0.31496062992125984,
                    "duration": 0.08928562500000226
                },
                {
                    "name": "A4",
                    "midi": 69,
                    "time": 103.0713255000008,
                    "velocity": 0.3937007874015748,
                    "duration": 0.08928562500000226
                },
                {
                    "name": "D#3",
                    "midi": 51,
                    "time": 103.2856110000008,
                    "velocity": 0.7086614173228346,
                    "duration": 0.08928562500000226
                },
                {
                    "name": "C3",
                    "midi": 48,
                    "time": 103.2856110000008,
                    "velocity": 0.47244094488188976,
                    "duration": 0.08928562500000226
                },
                {
                    "name": "D#4",
                    "midi": 63,
                    "time": 103.2856110000008,
                    "velocity": 0.47244094488188976,
                    "duration": 0.08928562500000226
                },
                {
                    "name": "A#4",
                    "midi": 70,
                    "time": 103.2856110000008,
                    "velocity": 0.6299212598425197,
                    "duration": 0.08928562500000226
                },
                {
                    "name": "B1",
                    "midi": 35,
                    "time": 103.4998965000008,
                    "velocity": 0.5511811023622047,
                    "duration": 0.08928562500000226
                },
                {
                    "name": "C#2",
                    "midi": 37,
                    "time": 103.4998965000008,
                    "velocity": 0.7086614173228346,
                    "duration": 0.08928562500000226
                },
                {
                    "name": "G#3",
                    "midi": 56,
                    "time": 103.4998965000008,
                    "velocity": 0.31496062992125984,
                    "duration": 0.08928562500000226
                },
                {
                    "name": "D#3",
                    "midi": 51,
                    "time": 103.4998965000008,
                    "velocity": 0.5511811023622047,
                    "duration": 0.08928562500000226
                },
                {
                    "name": "D4",
                    "midi": 62,
                    "time": 103.4998965000008,
                    "velocity": 0.5511811023622047,
                    "duration": 0.08928562500000226
                },
                {
                    "name": "A4",
                    "midi": 69,
                    "time": 103.4998965000008,
                    "velocity": 0.3937007874015748,
                    "duration": 0.08928562500000226
                },
                {
                    "name": "B1",
                    "midi": 35,
                    "time": 103.7141820000008,
                    "velocity": 0.7874015748031497,
                    "duration": 0.08928562500000226
                },
                {
                    "name": "D#3",
                    "midi": 51,
                    "time": 103.7141820000008,
                    "velocity": 0.7086614173228346,
                    "duration": 0.08928562500000226
                },
                {
                    "name": "D#4",
                    "midi": 63,
                    "time": 103.7141820000008,
                    "velocity": 0.2755905511811024,
                    "duration": 0.08928562500000226
                },
                {
                    "name": "A#4",
                    "midi": 70,
                    "time": 103.7141820000008,
                    "velocity": 0.6299212598425197,
                    "duration": 0.08928562500000226
                },
                {
                    "name": "D#3",
                    "midi": 51,
                    "time": 103.9284675000008,
                    "velocity": 0.5511811023622047,
                    "duration": 0.08928562500000226
                },
                {
                    "name": "A4",
                    "midi": 69,
                    "time": 103.9284675000008,
                    "velocity": 0.3937007874015748,
                    "duration": 0.08928562500000226
                },
                {
                    "name": "C#2",
                    "midi": 37,
                    "time": 104.14275300000081,
                    "velocity": 0.7086614173228346,
                    "duration": 0.08928562500000226
                },
                {
                    "name": "D#3",
                    "midi": 51,
                    "time": 104.14275300000081,
                    "velocity": 0.7086614173228346,
                    "duration": 0.08928562500000226
                },
                {
                    "name": "A2",
                    "midi": 45,
                    "time": 104.14275300000081,
                    "velocity": 0.5511811023622047,
                    "duration": 0.08928562500000226
                },
                {
                    "name": "D4",
                    "midi": 62,
                    "time": 104.14275300000081,
                    "velocity": 0.5511811023622047,
                    "duration": 0.08928562500000226
                },
                {
                    "name": "A#4",
                    "midi": 70,
                    "time": 104.14275300000081,
                    "velocity": 0.6299212598425197,
                    "duration": 0.08928562500000226
                },
                {
                    "name": "B1",
                    "midi": 35,
                    "time": 104.35703850000081,
                    "velocity": 0.5511811023622047,
                    "duration": 0.08928562500000226
                },
                {
                    "name": "D#3",
                    "midi": 51,
                    "time": 104.35703850000081,
                    "velocity": 0.5511811023622047,
                    "duration": 0.08928562500000226
                },
                {
                    "name": "A2",
                    "midi": 45,
                    "time": 104.35703850000081,
                    "velocity": 0.5511811023622047,
                    "duration": 0.08928562500000226
                },
                {
                    "name": "A4",
                    "midi": 69,
                    "time": 104.35703850000081,
                    "velocity": 0.3937007874015748,
                    "duration": 0.08928562500000226
                },
                {
                    "name": "B1",
                    "midi": 35,
                    "time": 104.57132400000081,
                    "velocity": 0.7874015748031497,
                    "duration": 0.08928562500000226
                },
                {
                    "name": "D#3",
                    "midi": 51,
                    "time": 104.57132400000081,
                    "velocity": 0.7086614173228346,
                    "duration": 0.08928562500000226
                },
                {
                    "name": "D#4",
                    "midi": 63,
                    "time": 104.57132400000081,
                    "velocity": 0.31496062992125984,
                    "duration": 0.08928562500000226
                },
                {
                    "name": "A#4",
                    "midi": 70,
                    "time": 104.57132400000081,
                    "velocity": 0.6299212598425197,
                    "duration": 0.08928562500000226
                },
                {
                    "name": "D#3",
                    "midi": 51,
                    "time": 104.78560950000082,
                    "velocity": 0.5511811023622047,
                    "duration": 0.08928562500000226
                },
                {
                    "name": "D#4",
                    "midi": 63,
                    "time": 104.78560950000082,
                    "velocity": 0.31496062992125984,
                    "duration": 0.08928562500000226
                },
                {
                    "name": "A4",
                    "midi": 69,
                    "time": 104.78560950000082,
                    "velocity": 0.3937007874015748,
                    "duration": 0.08928562500000226
                },
                {
                    "name": "C#2",
                    "midi": 37,
                    "time": 104.99989500000082,
                    "velocity": 0.7086614173228346,
                    "duration": 0.08928562500000226
                },
                {
                    "name": "D#3",
                    "midi": 51,
                    "time": 104.99989500000082,
                    "velocity": 0.7086614173228346,
                    "duration": 0.08928562500000226
                },
                {
                    "name": "A#4",
                    "midi": 70,
                    "time": 104.99989500000082,
                    "velocity": 0.6299212598425197,
                    "duration": 0.08928562500000226
                },
                {
                    "name": "B1",
                    "midi": 35,
                    "time": 105.21418050000082,
                    "velocity": 0.5511811023622047,
                    "duration": 0.08928562500000226
                },
                {
                    "name": "D#3",
                    "midi": 51,
                    "time": 105.21418050000082,
                    "velocity": 0.5511811023622047,
                    "duration": 0.08928562500000226
                },
                {
                    "name": "A4",
                    "midi": 69,
                    "time": 105.21418050000082,
                    "velocity": 0.3937007874015748,
                    "duration": 0.08928562500000226
                },
                {
                    "name": "B1",
                    "midi": 35,
                    "time": 105.42846600000082,
                    "velocity": 0.7874015748031497,
                    "duration": 0.08928562500000226
                },
                {
                    "name": "D#3",
                    "midi": 51,
                    "time": 105.42846600000082,
                    "velocity": 0.7086614173228346,
                    "duration": 0.08928562500000226
                },
                {
                    "name": "A#4",
                    "midi": 70,
                    "time": 105.42846600000082,
                    "velocity": 0.6299212598425197,
                    "duration": 0.08928562500000226
                },
                {
                    "name": "C#2",
                    "midi": 37,
                    "time": 105.64275150000083,
                    "velocity": 0.7086614173228346,
                    "duration": 0.08928562500000226
                },
                {
                    "name": "D#3",
                    "midi": 51,
                    "time": 105.64275150000083,
                    "velocity": 0.5511811023622047,
                    "duration": 0.08928562500000226
                },
                {
                    "name": "A4",
                    "midi": 69,
                    "time": 105.64275150000083,
                    "velocity": 0.3937007874015748,
                    "duration": 0.08928562500000226
                },
                {
                    "name": "D#3",
                    "midi": 51,
                    "time": 105.85703700000083,
                    "velocity": 0.7086614173228346,
                    "duration": 0.08928562500000226
                },
                {
                    "name": "A#4",
                    "midi": 70,
                    "time": 105.85703700000083,
                    "velocity": 0.6299212598425197,
                    "duration": 0.08928562500000226
                },
                {
                    "name": "B1",
                    "midi": 35,
                    "time": 106.07132250000083,
                    "velocity": 0.5511811023622047,
                    "duration": 0.08928562500000226
                },
                {
                    "name": "D#3",
                    "midi": 51,
                    "time": 106.07132250000083,
                    "velocity": 0.5511811023622047,
                    "duration": 0.08928562500000226
                },
                {
                    "name": "A4",
                    "midi": 69,
                    "time": 106.07132250000083,
                    "velocity": 0.3937007874015748,
                    "duration": 0.08928562500000226
                },
                {
                    "name": "B1",
                    "midi": 35,
                    "time": 106.28560800000083,
                    "velocity": 0.7874015748031497,
                    "duration": 0.08928562500000226
                },
                {
                    "name": "C#2",
                    "midi": 37,
                    "time": 106.28560800000083,
                    "velocity": 0.7086614173228346,
                    "duration": 0.08928562500000226
                },
                {
                    "name": "D#3",
                    "midi": 51,
                    "time": 106.28560800000083,
                    "velocity": 0.7086614173228346,
                    "duration": 0.08928562500000226
                },
                {
                    "name": "A#4",
                    "midi": 70,
                    "time": 106.28560800000083,
                    "velocity": 0.6299212598425197,
                    "duration": 0.08928562500000226
                },
                {
                    "name": "D#3",
                    "midi": 51,
                    "time": 106.49989350000084,
                    "velocity": 0.5511811023622047,
                    "duration": 0.08928562500000226
                },
                {
                    "name": "D#4",
                    "midi": 63,
                    "time": 106.49989350000084,
                    "velocity": 0.31496062992125984,
                    "duration": 0.08928562500000226
                },
                {
                    "name": "A4",
                    "midi": 69,
                    "time": 106.49989350000084,
                    "velocity": 0.3937007874015748,
                    "duration": 0.08928562500000226
                },
                {
                    "name": "D#3",
                    "midi": 51,
                    "time": 106.71417900000084,
                    "velocity": 0.7086614173228346,
                    "duration": 0.08928562500000226
                },
                {
                    "name": "D#4",
                    "midi": 63,
                    "time": 106.71417900000084,
                    "velocity": 0.47244094488188976,
                    "duration": 0.08928562500000226
                },
                {
                    "name": "A#4",
                    "midi": 70,
                    "time": 106.71417900000084,
                    "velocity": 0.6299212598425197,
                    "duration": 0.08928562500000226
                },
                {
                    "name": "B1",
                    "midi": 35,
                    "time": 106.92846450000084,
                    "velocity": 0.5511811023622047,
                    "duration": 0.08928562500000226
                },
                {
                    "name": "C#2",
                    "midi": 37,
                    "time": 106.92846450000084,
                    "velocity": 0.7086614173228346,
                    "duration": 0.08928562500000226
                },
                {
                    "name": "G#3",
                    "midi": 56,
                    "time": 106.92846450000084,
                    "velocity": 0.31496062992125984,
                    "duration": 0.08928562500000226
                },
                {
                    "name": "D#3",
                    "midi": 51,
                    "time": 106.92846450000084,
                    "velocity": 0.5511811023622047,
                    "duration": 0.08928562500000226
                },
                {
                    "name": "D4",
                    "midi": 62,
                    "time": 106.92846450000084,
                    "velocity": 0.5511811023622047,
                    "duration": 0.08928562500000226
                },
                {
                    "name": "A4",
                    "midi": 69,
                    "time": 106.92846450000084,
                    "velocity": 0.3937007874015748,
                    "duration": 0.08928562500000226
                },
                {
                    "name": "B1",
                    "midi": 35,
                    "time": 107.14275000000085,
                    "velocity": 0.7874015748031497,
                    "duration": 0.08928562500000226
                },
                {
                    "name": "D#3",
                    "midi": 51,
                    "time": 107.14275000000085,
                    "velocity": 0.7086614173228346,
                    "duration": 0.08928562500000226
                },
                {
                    "name": "A#4",
                    "midi": 70,
                    "time": 107.14275000000085,
                    "velocity": 0.6299212598425197,
                    "duration": 0.08928562500000226
                },
                {
                    "name": "D#3",
                    "midi": 51,
                    "time": 107.35703550000085,
                    "velocity": 0.5511811023622047,
                    "duration": 0.08928562500000226
                },
                {
                    "name": "A4",
                    "midi": 69,
                    "time": 107.35703550000085,
                    "velocity": 0.3937007874015748,
                    "duration": 0.08928562500000226
                },
                {
                    "name": "C#2",
                    "midi": 37,
                    "time": 107.57132100000085,
                    "velocity": 0.7086614173228346,
                    "duration": 0.08928562500000226
                },
                {
                    "name": "D#3",
                    "midi": 51,
                    "time": 107.57132100000085,
                    "velocity": 0.7086614173228346,
                    "duration": 0.08928562500000226
                },
                {
                    "name": "D4",
                    "midi": 62,
                    "time": 107.57132100000085,
                    "velocity": 0.5511811023622047,
                    "duration": 0.08928562500000226
                },
                {
                    "name": "A#4",
                    "midi": 70,
                    "time": 107.57132100000085,
                    "velocity": 0.6299212598425197,
                    "duration": 0.08928562500000226
                },
                {
                    "name": "B1",
                    "midi": 35,
                    "time": 107.78560650000085,
                    "velocity": 0.5511811023622047,
                    "duration": 0.08928562500000226
                },
                {
                    "name": "D#3",
                    "midi": 51,
                    "time": 107.78560650000085,
                    "velocity": 0.5511811023622047,
                    "duration": 0.08928562500000226
                },
                {
                    "name": "A4",
                    "midi": 69,
                    "time": 107.78560650000085,
                    "velocity": 0.3937007874015748,
                    "duration": 0.08928562500000226
                },
                {
                    "name": "B1",
                    "midi": 35,
                    "time": 107.99989200000086,
                    "velocity": 0.7874015748031497,
                    "duration": 0.08928562500000226
                },
                {
                    "name": "D#3",
                    "midi": 51,
                    "time": 107.99989200000086,
                    "velocity": 0.7086614173228346,
                    "duration": 0.08928562500000226
                },
                {
                    "name": "D#4",
                    "midi": 63,
                    "time": 107.99989200000086,
                    "velocity": 0.31496062992125984,
                    "duration": 0.08928562500000226
                },
                {
                    "name": "A#4",
                    "midi": 70,
                    "time": 107.99989200000086,
                    "velocity": 0.6299212598425197,
                    "duration": 0.08928562500000226
                },
                {
                    "name": "D#3",
                    "midi": 51,
                    "time": 108.21417750000086,
                    "velocity": 0.5511811023622047,
                    "duration": 0.08928562500000226
                },
                {
                    "name": "D#4",
                    "midi": 63,
                    "time": 108.21417750000086,
                    "velocity": 0.31496062992125984,
                    "duration": 0.08928562500000226
                },
                {
                    "name": "A4",
                    "midi": 69,
                    "time": 108.21417750000086,
                    "velocity": 0.3937007874015748,
                    "duration": 0.08928562500000226
                },
                {
                    "name": "C#2",
                    "midi": 37,
                    "time": 108.42846300000086,
                    "velocity": 0.7086614173228346,
                    "duration": 0.08928562500000226
                },
                {
                    "name": "D#3",
                    "midi": 51,
                    "time": 108.42846300000086,
                    "velocity": 0.7086614173228346,
                    "duration": 0.08928562500000226
                },
                {
                    "name": "A#4",
                    "midi": 70,
                    "time": 108.42846300000086,
                    "velocity": 0.6299212598425197,
                    "duration": 0.08928562500000226
                },
                {
                    "name": "B1",
                    "midi": 35,
                    "time": 108.64274850000086,
                    "velocity": 0.5511811023622047,
                    "duration": 0.08928562500000226
                },
                {
                    "name": "D#3",
                    "midi": 51,
                    "time": 108.64274850000086,
                    "velocity": 0.5511811023622047,
                    "duration": 0.08928562500000226
                },
                {
                    "name": "A4",
                    "midi": 69,
                    "time": 108.64274850000086,
                    "velocity": 0.3937007874015748,
                    "duration": 0.08928562500000226
                },
                {
                    "name": "B1",
                    "midi": 35,
                    "time": 108.85703400000087,
                    "velocity": 0.7874015748031497,
                    "duration": 0.08928562500000226
                },
                {
                    "name": "D#3",
                    "midi": 51,
                    "time": 108.85703400000087,
                    "velocity": 0.7086614173228346,
                    "duration": 0.08928562500000226
                },
                {
                    "name": "A#4",
                    "midi": 70,
                    "time": 108.85703400000087,
                    "velocity": 0.6299212598425197,
                    "duration": 0.08928562500000226
                },
                {
                    "name": "C#2",
                    "midi": 37,
                    "time": 109.07131950000087,
                    "velocity": 0.7086614173228346,
                    "duration": 0.08928562500000226
                },
                {
                    "name": "D#3",
                    "midi": 51,
                    "time": 109.07131950000087,
                    "velocity": 0.5511811023622047,
                    "duration": 0.08928562500000226
                },
                {
                    "name": "A4",
                    "midi": 69,
                    "time": 109.07131950000087,
                    "velocity": 0.3937007874015748,
                    "duration": 0.08928562500000226
                },
                {
                    "name": "G#3",
                    "midi": 56,
                    "time": 109.28560500000087,
                    "velocity": 0.31496062992125984,
                    "duration": 0.08928562500000226
                },
                {
                    "name": "D#3",
                    "midi": 51,
                    "time": 109.28560500000087,
                    "velocity": 0.7086614173228346,
                    "duration": 0.08928562500000226
                },
                {
                    "name": "A#4",
                    "midi": 70,
                    "time": 109.28560500000087,
                    "velocity": 0.6299212598425197,
                    "duration": 0.08928562500000226
                },
                {
                    "name": "B1",
                    "midi": 35,
                    "time": 109.49989050000087,
                    "velocity": 0.5511811023622047,
                    "duration": 0.08928562500000226
                },
                {
                    "name": "D#3",
                    "midi": 51,
                    "time": 109.49989050000087,
                    "velocity": 0.5511811023622047,
                    "duration": 0.08928562500000226
                },
                {
                    "name": "A4",
                    "midi": 69,
                    "time": 109.49989050000087,
                    "velocity": 0.3937007874015748,
                    "duration": 0.08928562500000226
                },
                {
                    "name": "B1",
                    "midi": 35,
                    "time": 109.71417600000088,
                    "velocity": 0.7874015748031497,
                    "duration": 0.08928562500000226
                },
                {
                    "name": "C#2",
                    "midi": 37,
                    "time": 109.71417600000088,
                    "velocity": 0.7086614173228346,
                    "duration": 0.08928562500000226
                },
                {
                    "name": "D#3",
                    "midi": 51,
                    "time": 109.71417600000088,
                    "velocity": 0.7086614173228346,
                    "duration": 0.08928562500000226
                },
                {
                    "name": "A#4",
                    "midi": 70,
                    "time": 109.71417600000088,
                    "velocity": 0.6299212598425197,
                    "duration": 0.08928562500000226
                },
                {
                    "name": "D#3",
                    "midi": 51,
                    "time": 109.92846150000088,
                    "velocity": 0.5511811023622047,
                    "duration": 0.08928562500000226
                },
                {
                    "name": "D#4",
                    "midi": 63,
                    "time": 109.92846150000088,
                    "velocity": 0.31496062992125984,
                    "duration": 0.08928562500000226
                },
                {
                    "name": "A4",
                    "midi": 69,
                    "time": 109.92846150000088,
                    "velocity": 0.3937007874015748,
                    "duration": 0.08928562500000226
                },
                {
                    "name": "D#3",
                    "midi": 51,
                    "time": 110.14274700000088,
                    "velocity": 0.7086614173228346,
                    "duration": 0.08928562500000226
                },
                {
                    "name": "D#4",
                    "midi": 63,
                    "time": 110.14274700000088,
                    "velocity": 0.47244094488188976,
                    "duration": 0.08928562500000226
                },
                {
                    "name": "A#4",
                    "midi": 70,
                    "time": 110.14274700000088,
                    "velocity": 0.6299212598425197,
                    "duration": 0.08928562500000226
                },
                {
                    "name": "B1",
                    "midi": 35,
                    "time": 110.35703250000088,
                    "velocity": 0.5511811023622047,
                    "duration": 0.08928562500000226
                },
                {
                    "name": "C#2",
                    "midi": 37,
                    "time": 110.35703250000088,
                    "velocity": 0.7086614173228346,
                    "duration": 0.08928562500000226
                },
                {
                    "name": "G#3",
                    "midi": 56,
                    "time": 110.35703250000088,
                    "velocity": 0.31496062992125984,
                    "duration": 0.08928562500000226
                },
                {
                    "name": "D#3",
                    "midi": 51,
                    "time": 110.35703250000088,
                    "velocity": 0.5511811023622047,
                    "duration": 0.08928562500000226
                },
                {
                    "name": "D4",
                    "midi": 62,
                    "time": 110.35703250000088,
                    "velocity": 0.5511811023622047,
                    "duration": 0.08928562500000226
                },
                {
                    "name": "A4",
                    "midi": 69,
                    "time": 110.35703250000088,
                    "velocity": 0.3937007874015748,
                    "duration": 0.08928562500000226
                },
                {
                    "name": "B1",
                    "midi": 35,
                    "time": 110.57131800000089,
                    "velocity": 0.7874015748031497,
                    "duration": 0.08928562500000226
                },
                {
                    "name": "D#3",
                    "midi": 51,
                    "time": 110.57131800000089,
                    "velocity": 0.7086614173228346,
                    "duration": 0.08928562500000226
                },
                {
                    "name": "D#4",
                    "midi": 63,
                    "time": 110.57131800000089,
                    "velocity": 0.2755905511811024,
                    "duration": 0.08928562500000226
                },
                {
                    "name": "A#4",
                    "midi": 70,
                    "time": 110.57131800000089,
                    "velocity": 0.6299212598425197,
                    "duration": 0.08928562500000226
                },
                {
                    "name": "D#3",
                    "midi": 51,
                    "time": 110.78560350000089,
                    "velocity": 0.5511811023622047,
                    "duration": 0.08928562500000226
                },
                {
                    "name": "A4",
                    "midi": 69,
                    "time": 110.78560350000089,
                    "velocity": 0.3937007874015748,
                    "duration": 0.08928562500000226
                },
                {
                    "name": "C#2",
                    "midi": 37,
                    "time": 110.99988900000089,
                    "velocity": 0.7086614173228346,
                    "duration": 0.08928562500000226
                },
                {
                    "name": "G#3",
                    "midi": 56,
                    "time": 110.99988900000089,
                    "velocity": 0.31496062992125984,
                    "duration": 0.08928562500000226
                },
                {
                    "name": "D#3",
                    "midi": 51,
                    "time": 110.99988900000089,
                    "velocity": 0.7086614173228346,
                    "duration": 0.08928562500000226
                },
                {
                    "name": "A2",
                    "midi": 45,
                    "time": 110.99988900000089,
                    "velocity": 0.5511811023622047,
                    "duration": 0.08928562500000226
                },
                {
                    "name": "D4",
                    "midi": 62,
                    "time": 110.99988900000089,
                    "velocity": 0.5511811023622047,
                    "duration": 0.08928562500000226
                },
                {
                    "name": "A#4",
                    "midi": 70,
                    "time": 110.99988900000089,
                    "velocity": 0.6299212598425197,
                    "duration": 0.08928562500000226
                },
                {
                    "name": "B1",
                    "midi": 35,
                    "time": 111.2141745000009,
                    "velocity": 0.5511811023622047,
                    "duration": 0.08928562500000226
                },
                {
                    "name": "D#3",
                    "midi": 51,
                    "time": 111.2141745000009,
                    "velocity": 0.5511811023622047,
                    "duration": 0.08928562500000226
                },
                {
                    "name": "A2",
                    "midi": 45,
                    "time": 111.2141745000009,
                    "velocity": 0.5511811023622047,
                    "duration": 0.08928562500000226
                },
                {
                    "name": "A4",
                    "midi": 69,
                    "time": 111.2141745000009,
                    "velocity": 0.3937007874015748,
                    "duration": 0.08928562500000226
                },
                {
                    "name": "B1",
                    "midi": 35,
                    "time": 111.4284600000009,
                    "velocity": 0.7874015748031497,
                    "duration": 0.08928562500000226
                },
                {
                    "name": "G#3",
                    "midi": 56,
                    "time": 111.4284600000009,
                    "velocity": 0.31496062992125984,
                    "duration": 0.08928562500000226
                },
                {
                    "name": "D#3",
                    "midi": 51,
                    "time": 111.4284600000009,
                    "velocity": 0.7086614173228346,
                    "duration": 0.08928562500000226
                },
                {
                    "name": "D#4",
                    "midi": 63,
                    "time": 111.4284600000009,
                    "velocity": 0.31496062992125984,
                    "duration": 0.08928562500000226
                },
                {
                    "name": "A#4",
                    "midi": 70,
                    "time": 111.4284600000009,
                    "velocity": 0.6299212598425197,
                    "duration": 0.08928562500000226
                },
                {
                    "name": "D#3",
                    "midi": 51,
                    "time": 111.6427455000009,
                    "velocity": 0.5511811023622047,
                    "duration": 0.08928562500000226
                },
                {
                    "name": "D#4",
                    "midi": 63,
                    "time": 111.6427455000009,
                    "velocity": 0.31496062992125984,
                    "duration": 0.08928562500000226
                },
                {
                    "name": "A4",
                    "midi": 69,
                    "time": 111.6427455000009,
                    "velocity": 0.3937007874015748,
                    "duration": 0.08928562500000226
                },
                {
                    "name": "C#2",
                    "midi": 37,
                    "time": 111.8570310000009,
                    "velocity": 0.7086614173228346,
                    "duration": 0.08928562500000226
                },
                {
                    "name": "D#3",
                    "midi": 51,
                    "time": 111.8570310000009,
                    "velocity": 0.7086614173228346,
                    "duration": 0.08928562500000226
                },
                {
                    "name": "A#4",
                    "midi": 70,
                    "time": 111.8570310000009,
                    "velocity": 0.6299212598425197,
                    "duration": 0.08928562500000226
                },
                {
                    "name": "B1",
                    "midi": 35,
                    "time": 112.0713165000009,
                    "velocity": 0.5511811023622047,
                    "duration": 0.08928562500000226
                },
                {
                    "name": "D#3",
                    "midi": 51,
                    "time": 112.0713165000009,
                    "velocity": 0.5511811023622047,
                    "duration": 0.08928562500000226
                },
                {
                    "name": "A4",
                    "midi": 69,
                    "time": 112.0713165000009,
                    "velocity": 0.3937007874015748,
                    "duration": 0.08928562500000226
                },
                {
                    "name": "B1",
                    "midi": 35,
                    "time": 112.2856020000009,
                    "velocity": 0.7874015748031497,
                    "duration": 0.08928562500000226
                },
                {
                    "name": "D#3",
                    "midi": 51,
                    "time": 112.2856020000009,
                    "velocity": 0.7086614173228346,
                    "duration": 0.08928562500000226
                },
                {
                    "name": "A#4",
                    "midi": 70,
                    "time": 112.2856020000009,
                    "velocity": 0.6299212598425197,
                    "duration": 0.08928562500000226
                },
                {
                    "name": "C#2",
                    "midi": 37,
                    "time": 112.49988750000091,
                    "velocity": 0.7086614173228346,
                    "duration": 0.08928562500000226
                },
                {
                    "name": "D#3",
                    "midi": 51,
                    "time": 112.49988750000091,
                    "velocity": 0.5511811023622047,
                    "duration": 0.08928562500000226
                },
                {
                    "name": "A4",
                    "midi": 69,
                    "time": 112.49988750000091,
                    "velocity": 0.3937007874015748,
                    "duration": 0.08928562500000226
                },
                {
                    "name": "D#3",
                    "midi": 51,
                    "time": 112.71417300000091,
                    "velocity": 0.7086614173228346,
                    "duration": 0.08928562500000226
                },
                {
                    "name": "A#4",
                    "midi": 70,
                    "time": 112.71417300000091,
                    "velocity": 0.6299212598425197,
                    "duration": 0.08928562500000226
                },
                {
                    "name": "B1",
                    "midi": 35,
                    "time": 112.92845850000091,
                    "velocity": 0.5511811023622047,
                    "duration": 0.08928562500000226
                },
                {
                    "name": "D#3",
                    "midi": 51,
                    "time": 112.92845850000091,
                    "velocity": 0.5511811023622047,
                    "duration": 0.08928562500000226
                },
                {
                    "name": "A4",
                    "midi": 69,
                    "time": 112.92845850000091,
                    "velocity": 0.3937007874015748,
                    "duration": 0.08928562500000226
                },
                {
                    "name": "B1",
                    "midi": 35,
                    "time": 113.14274400000092,
                    "velocity": 0.7874015748031497,
                    "duration": 0.08928562500000226
                },
                {
                    "name": "C#2",
                    "midi": 37,
                    "time": 113.14274400000092,
                    "velocity": 0.7086614173228346,
                    "duration": 0.08928562500000226
                },
                {
                    "name": "G#3",
                    "midi": 56,
                    "time": 113.14274400000092,
                    "velocity": 0.31496062992125984,
                    "duration": 0.08928562500000226
                },
                {
                    "name": "D#3",
                    "midi": 51,
                    "time": 113.14274400000092,
                    "velocity": 0.7086614173228346,
                    "duration": 0.08928562500000226
                },
                {
                    "name": "A#4",
                    "midi": 70,
                    "time": 113.14274400000092,
                    "velocity": 0.6299212598425197,
                    "duration": 0.08928562500000226
                },
                {
                    "name": "D#3",
                    "midi": 51,
                    "time": 113.35702950000092,
                    "velocity": 0.5511811023622047,
                    "duration": 0.08928562500000226
                },
                {
                    "name": "D#4",
                    "midi": 63,
                    "time": 113.35702950000092,
                    "velocity": 0.31496062992125984,
                    "duration": 0.08928562500000226
                },
                {
                    "name": "A4",
                    "midi": 69,
                    "time": 113.35702950000092,
                    "velocity": 0.3937007874015748,
                    "duration": 0.08928562500000226
                },
                {
                    "name": "D#3",
                    "midi": 51,
                    "time": 113.57131500000092,
                    "velocity": 0.7086614173228346,
                    "duration": 0.08928562500000226
                },
                {
                    "name": "D#4",
                    "midi": 63,
                    "time": 113.57131500000092,
                    "velocity": 0.47244094488188976,
                    "duration": 0.08928562500000226
                },
                {
                    "name": "A#4",
                    "midi": 70,
                    "time": 113.57131500000092,
                    "velocity": 0.6299212598425197,
                    "duration": 0.08928562500000226
                },
                {
                    "name": "B1",
                    "midi": 35,
                    "time": 113.78560050000092,
                    "velocity": 0.5511811023622047,
                    "duration": 0.08928562500000226
                },
                {
                    "name": "C#2",
                    "midi": 37,
                    "time": 113.78560050000092,
                    "velocity": 0.7086614173228346,
                    "duration": 0.08928562500000226
                },
                {
                    "name": "D#3",
                    "midi": 51,
                    "time": 113.78560050000092,
                    "velocity": 0.5511811023622047,
                    "duration": 0.08928562500000226
                },
                {
                    "name": "D4",
                    "midi": 62,
                    "time": 113.78560050000092,
                    "velocity": 0.5511811023622047,
                    "duration": 0.08928562500000226
                },
                {
                    "name": "A4",
                    "midi": 69,
                    "time": 113.78560050000092,
                    "velocity": 0.3937007874015748,
                    "duration": 0.08928562500000226
                },
                {
                    "name": "B1",
                    "midi": 35,
                    "time": 113.99988600000093,
                    "velocity": 0.7874015748031497,
                    "duration": 0.08928562500000226
                },
                {
                    "name": "D#3",
                    "midi": 51,
                    "time": 113.99988600000093,
                    "velocity": 0.7086614173228346,
                    "duration": 0.08928562500000226
                },
                {
                    "name": "A#4",
                    "midi": 70,
                    "time": 113.99988600000093,
                    "velocity": 0.6299212598425197,
                    "duration": 0.08928562500000226
                },
                {
                    "name": "D#3",
                    "midi": 51,
                    "time": 114.21417150000093,
                    "velocity": 0.5511811023622047,
                    "duration": 0.08928562500000226
                },
                {
                    "name": "A4",
                    "midi": 69,
                    "time": 114.21417150000093,
                    "velocity": 0.3937007874015748,
                    "duration": 0.08928562500000226
                },
                {
                    "name": "C#2",
                    "midi": 37,
                    "time": 114.42845700000093,
                    "velocity": 0.7086614173228346,
                    "duration": 0.08928562500000226
                },
                {
                    "name": "D#3",
                    "midi": 51,
                    "time": 114.42845700000093,
                    "velocity": 0.7086614173228346,
                    "duration": 0.08928562500000226
                },
                {
                    "name": "D4",
                    "midi": 62,
                    "time": 114.42845700000093,
                    "velocity": 0.5511811023622047,
                    "duration": 0.08928562500000226
                },
                {
                    "name": "A#4",
                    "midi": 70,
                    "time": 114.42845700000093,
                    "velocity": 0.6299212598425197,
                    "duration": 0.08928562500000226
                },
                {
                    "name": "B1",
                    "midi": 35,
                    "time": 114.64274250000094,
                    "velocity": 0.5511811023622047,
                    "duration": 0.08928562500000226
                },
                {
                    "name": "D#3",
                    "midi": 51,
                    "time": 114.64274250000094,
                    "velocity": 0.5511811023622047,
                    "duration": 0.08928562500000226
                },
                {
                    "name": "A4",
                    "midi": 69,
                    "time": 114.64274250000094,
                    "velocity": 0.3937007874015748,
                    "duration": 0.08928562500000226
                },
                {
                    "name": "B1",
                    "midi": 35,
                    "time": 114.85702800000094,
                    "velocity": 0.7874015748031497,
                    "duration": 0.08928562500000226
                },
                {
                    "name": "D#3",
                    "midi": 51,
                    "time": 114.85702800000094,
                    "velocity": 0.7086614173228346,
                    "duration": 0.08928562500000226
                },
                {
                    "name": "D#4",
                    "midi": 63,
                    "time": 114.85702800000094,
                    "velocity": 0.31496062992125984,
                    "duration": 0.08928562500000226
                },
                {
                    "name": "A#4",
                    "midi": 70,
                    "time": 114.85702800000094,
                    "velocity": 0.6299212598425197,
                    "duration": 0.08928562500000226
                },
                {
                    "name": "D#3",
                    "midi": 51,
                    "time": 115.07131350000094,
                    "velocity": 0.5511811023622047,
                    "duration": 0.08928562500000226
                },
                {
                    "name": "D#4",
                    "midi": 63,
                    "time": 115.07131350000094,
                    "velocity": 0.31496062992125984,
                    "duration": 0.08928562500000226
                },
                {
                    "name": "A4",
                    "midi": 69,
                    "time": 115.07131350000094,
                    "velocity": 0.3937007874015748,
                    "duration": 0.08928562500000226
                },
                {
                    "name": "C#2",
                    "midi": 37,
                    "time": 115.28559900000094,
                    "velocity": 0.7086614173228346,
                    "duration": 0.08928562500000226
                },
                {
                    "name": "D#3",
                    "midi": 51,
                    "time": 115.28559900000094,
                    "velocity": 0.7086614173228346,
                    "duration": 0.08928562500000226
                },
                {
                    "name": "A#4",
                    "midi": 70,
                    "time": 115.28559900000094,
                    "velocity": 0.6299212598425197,
                    "duration": 0.08928562500000226
                },
                {
                    "name": "B1",
                    "midi": 35,
                    "time": 115.49988450000095,
                    "velocity": 0.5511811023622047,
                    "duration": 0.08928562500000226
                },
                {
                    "name": "G#3",
                    "midi": 56,
                    "time": 115.49988450000095,
                    "velocity": 0.31496062992125984,
                    "duration": 0.08928562500000226
                },
                {
                    "name": "D#3",
                    "midi": 51,
                    "time": 115.49988450000095,
                    "velocity": 0.5511811023622047,
                    "duration": 0.08928562500000226
                },
                {
                    "name": "A4",
                    "midi": 69,
                    "time": 115.49988450000095,
                    "velocity": 0.3937007874015748,
                    "duration": 0.08928562500000226
                },
                {
                    "name": "B1",
                    "midi": 35,
                    "time": 115.71417000000095,
                    "velocity": 0.7874015748031497,
                    "duration": 0.08928562500000226
                },
                {
                    "name": "D#3",
                    "midi": 51,
                    "time": 115.71417000000095,
                    "velocity": 0.7086614173228346,
                    "duration": 0.08928562500000226
                },
                {
                    "name": "F2",
                    "midi": 41,
                    "time": 115.71417000000095,
                    "velocity": 0.3937007874015748,
                    "duration": 0.08928562500000226
                },
                {
                    "name": "A#4",
                    "midi": 70,
                    "time": 115.71417000000095,
                    "velocity": 0.6299212598425197,
                    "duration": 0.08928562500000226
                },
                {
                    "name": "C#2",
                    "midi": 37,
                    "time": 115.92845550000095,
                    "velocity": 0.7086614173228346,
                    "duration": 0.08928562500000226
                },
                {
                    "name": "D#3",
                    "midi": 51,
                    "time": 115.92845550000095,
                    "velocity": 0.5511811023622047,
                    "duration": 0.08928562500000226
                },
                {
                    "name": "A4",
                    "midi": 69,
                    "time": 115.92845550000095,
                    "velocity": 0.3937007874015748,
                    "duration": 0.08928562500000226
                },
                {
                    "name": "G#3",
                    "midi": 56,
                    "time": 116.14274100000095,
                    "velocity": 0.31496062992125984,
                    "duration": 0.08928562500000226
                },
                {
                    "name": "D#3",
                    "midi": 51,
                    "time": 116.14274100000095,
                    "velocity": 0.7086614173228346,
                    "duration": 0.08928562500000226
                },
                {
                    "name": "A#4",
                    "midi": 70,
                    "time": 116.14274100000095,
                    "velocity": 0.6299212598425197,
                    "duration": 0.08928562500000226
                },
                {
                    "name": "B1",
                    "midi": 35,
                    "time": 116.35702650000096,
                    "velocity": 0.5511811023622047,
                    "duration": 0.08928562500000226
                },
                {
                    "name": "D#3",
                    "midi": 51,
                    "time": 116.35702650000096,
                    "velocity": 0.5511811023622047,
                    "duration": 0.08928562500000226
                },
                {
                    "name": "A4",
                    "midi": 69,
                    "time": 116.35702650000096,
                    "velocity": 0.3937007874015748,
                    "duration": 0.08928562500000226
                },
                {
                    "name": "B1",
                    "midi": 35,
                    "time": 116.57131200000096,
                    "velocity": 0.7874015748031497,
                    "duration": 0.08928562500000226
                },
                {
                    "name": "C#2",
                    "midi": 37,
                    "time": 116.57131200000096,
                    "velocity": 0.7086614173228346,
                    "duration": 0.08928562500000226
                },
                {
                    "name": "D#3",
                    "midi": 51,
                    "time": 116.57131200000096,
                    "velocity": 0.7086614173228346,
                    "duration": 0.08928562500000226
                },
                {
                    "name": "A#4",
                    "midi": 70,
                    "time": 116.57131200000096,
                    "velocity": 0.6299212598425197,
                    "duration": 0.08928562500000226
                },
                {
                    "name": "D#3",
                    "midi": 51,
                    "time": 116.78559750000096,
                    "velocity": 0.5511811023622047,
                    "duration": 0.08928562500000226
                },
                {
                    "name": "D#4",
                    "midi": 63,
                    "time": 116.78559750000096,
                    "velocity": 0.31496062992125984,
                    "duration": 0.08928562500000226
                },
                {
                    "name": "A4",
                    "midi": 69,
                    "time": 116.78559750000096,
                    "velocity": 0.3937007874015748,
                    "duration": 0.08928562500000226
                },
                {
                    "name": "D#3",
                    "midi": 51,
                    "time": 116.99988300000096,
                    "velocity": 0.7086614173228346,
                    "duration": 0.08928562500000226
                },
                {
                    "name": "D#4",
                    "midi": 63,
                    "time": 116.99988300000096,
                    "velocity": 0.47244094488188976,
                    "duration": 0.08928562500000226
                },
                {
                    "name": "A#4",
                    "midi": 70,
                    "time": 116.99988300000096,
                    "velocity": 0.6299212598425197,
                    "duration": 0.08928562500000226
                },
                {
                    "name": "B1",
                    "midi": 35,
                    "time": 117.21416850000097,
                    "velocity": 0.5511811023622047,
                    "duration": 0.08928562500000226
                },
                {
                    "name": "C#2",
                    "midi": 37,
                    "time": 117.21416850000097,
                    "velocity": 0.7086614173228346,
                    "duration": 0.08928562500000226
                },
                {
                    "name": "D#3",
                    "midi": 51,
                    "time": 117.21416850000097,
                    "velocity": 0.5511811023622047,
                    "duration": 0.08928562500000226
                },
                {
                    "name": "D4",
                    "midi": 62,
                    "time": 117.21416850000097,
                    "velocity": 0.5511811023622047,
                    "duration": 0.08928562500000226
                },
                {
                    "name": "A4",
                    "midi": 69,
                    "time": 117.21416850000097,
                    "velocity": 0.3937007874015748,
                    "duration": 0.08928562500000226
                },
                {
                    "name": "B1",
                    "midi": 35,
                    "time": 117.42845400000097,
                    "velocity": 0.7874015748031497,
                    "duration": 0.08928562500000226
                },
                {
                    "name": "D#3",
                    "midi": 51,
                    "time": 117.42845400000097,
                    "velocity": 0.7086614173228346,
                    "duration": 0.08928562500000226
                },
                {
                    "name": "A#4",
                    "midi": 70,
                    "time": 117.42845400000097,
                    "velocity": 0.6299212598425197,
                    "duration": 0.08928562500000226
                },
                {
                    "name": "D#3",
                    "midi": 51,
                    "time": 117.64273950000097,
                    "velocity": 0.5511811023622047,
                    "duration": 0.08928562500000226
                },
                {
                    "name": "A4",
                    "midi": 69,
                    "time": 117.64273950000097,
                    "velocity": 0.3937007874015748,
                    "duration": 0.08928562500000226
                },
                {
                    "name": "C#2",
                    "midi": 37,
                    "time": 117.85702500000097,
                    "velocity": 0.7086614173228346,
                    "duration": 0.08928562500000226
                },
                {
                    "name": "G#3",
                    "midi": 56,
                    "time": 117.85702500000097,
                    "velocity": 0.31496062992125984,
                    "duration": 0.08928562500000226
                },
                {
                    "name": "D#3",
                    "midi": 51,
                    "time": 117.85702500000097,
                    "velocity": 0.7086614173228346,
                    "duration": 0.08928562500000226
                },
                {
                    "name": "A2",
                    "midi": 45,
                    "time": 117.85702500000097,
                    "velocity": 0.5511811023622047,
                    "duration": 0.08928562500000226
                },
                {
                    "name": "D4",
                    "midi": 62,
                    "time": 117.85702500000097,
                    "velocity": 0.5511811023622047,
                    "duration": 0.08928562500000226
                },
                {
                    "name": "A#4",
                    "midi": 70,
                    "time": 117.85702500000097,
                    "velocity": 0.6299212598425197,
                    "duration": 0.08928562500000226
                },
                {
                    "name": "B1",
                    "midi": 35,
                    "time": 118.07131050000098,
                    "velocity": 0.5511811023622047,
                    "duration": 0.08928562500000226
                },
                {
                    "name": "D#3",
                    "midi": 51,
                    "time": 118.07131050000098,
                    "velocity": 0.5511811023622047,
                    "duration": 0.08928562500000226
                },
                {
                    "name": "A4",
                    "midi": 69,
                    "time": 118.07131050000098,
                    "velocity": 0.3937007874015748,
                    "duration": 0.08928562500000226
                },
                {
                    "name": "B1",
                    "midi": 35,
                    "time": 118.28559600000098,
                    "velocity": 0.7874015748031497,
                    "duration": 0.08928562500000226
                },
                {
                    "name": "G#3",
                    "midi": 56,
                    "time": 118.28559600000098,
                    "velocity": 0.31496062992125984,
                    "duration": 0.08928562500000226
                },
                {
                    "name": "D#3",
                    "midi": 51,
                    "time": 118.28559600000098,
                    "velocity": 0.7086614173228346,
                    "duration": 0.08928562500000226
                },
                {
                    "name": "D#4",
                    "midi": 63,
                    "time": 118.28559600000098,
                    "velocity": 0.31496062992125984,
                    "duration": 0.08928562500000226
                },
                {
                    "name": "A#4",
                    "midi": 70,
                    "time": 118.28559600000098,
                    "velocity": 0.6299212598425197,
                    "duration": 0.08928562500000226
                },
                {
                    "name": "D#3",
                    "midi": 51,
                    "time": 118.49988150000098,
                    "velocity": 0.5511811023622047,
                    "duration": 0.08928562500000226
                },
                {
                    "name": "F2",
                    "midi": 41,
                    "time": 118.49988150000098,
                    "velocity": 0.3937007874015748,
                    "duration": 0.08928562500000226
                },
                {
                    "name": "D#4",
                    "midi": 63,
                    "time": 118.49988150000098,
                    "velocity": 0.31496062992125984,
                    "duration": 0.08928562500000226
                },
                {
                    "name": "A4",
                    "midi": 69,
                    "time": 118.49988150000098,
                    "velocity": 0.3937007874015748,
                    "duration": 0.08928562500000226
                },
                {
                    "name": "C#2",
                    "midi": 37,
                    "time": 118.71416700000098,
                    "velocity": 0.7086614173228346,
                    "duration": 0.08928562500000226
                },
                {
                    "name": "D#3",
                    "midi": 51,
                    "time": 118.71416700000098,
                    "velocity": 0.7086614173228346,
                    "duration": 0.08928562500000226
                },
                {
                    "name": "A#4",
                    "midi": 70,
                    "time": 118.71416700000098,
                    "velocity": 0.6299212598425197,
                    "duration": 0.08928562500000226
                },
                {
                    "name": "B1",
                    "midi": 35,
                    "time": 118.92845250000099,
                    "velocity": 0.5511811023622047,
                    "duration": 0.08928562500000226
                },
                {
                    "name": "G#3",
                    "midi": 56,
                    "time": 118.92845250000099,
                    "velocity": 0.31496062992125984,
                    "duration": 0.08928562500000226
                },
                {
                    "name": "D#3",
                    "midi": 51,
                    "time": 118.92845250000099,
                    "velocity": 0.5511811023622047,
                    "duration": 0.08928562500000226
                },
                {
                    "name": "A4",
                    "midi": 69,
                    "time": 118.92845250000099,
                    "velocity": 0.3937007874015748,
                    "duration": 0.08928562500000226
                },
                {
                    "name": "B1",
                    "midi": 35,
                    "time": 119.14273800000099,
                    "velocity": 0.7874015748031497,
                    "duration": 0.08928562500000226
                },
                {
                    "name": "D#3",
                    "midi": 51,
                    "time": 119.14273800000099,
                    "velocity": 0.7086614173228346,
                    "duration": 0.08928562500000226
                },
                {
                    "name": "A#4",
                    "midi": 70,
                    "time": 119.14273800000099,
                    "velocity": 0.6299212598425197,
                    "duration": 0.08928562500000226
                },
                {
                    "name": "C#2",
                    "midi": 37,
                    "time": 119.35702350000099,
                    "velocity": 0.7086614173228346,
                    "duration": 0.08928562500000226
                },
                {
                    "name": "D#3",
                    "midi": 51,
                    "time": 119.35702350000099,
                    "velocity": 0.5511811023622047,
                    "duration": 0.08928562500000226
                },
                {
                    "name": "A4",
                    "midi": 69,
                    "time": 119.35702350000099,
                    "velocity": 0.3937007874015748,
                    "duration": 0.08928562500000226
                },
                {
                    "name": "D#3",
                    "midi": 51,
                    "time": 119.571309000001,
                    "velocity": 0.7086614173228346,
                    "duration": 0.08928562500000226
                },
                {
                    "name": "A#4",
                    "midi": 70,
                    "time": 119.571309000001,
                    "velocity": 0.6299212598425197,
                    "duration": 0.08928562500000226
                },
                {
                    "name": "B1",
                    "midi": 35,
                    "time": 119.785594500001,
                    "velocity": 0.5511811023622047,
                    "duration": 0.08928562500000226
                },
                {
                    "name": "D#3",
                    "midi": 51,
                    "time": 119.785594500001,
                    "velocity": 0.5511811023622047,
                    "duration": 0.08928562500000226
                },
                {
                    "name": "A4",
                    "midi": 69,
                    "time": 119.785594500001,
                    "velocity": 0.3937007874015748,
                    "duration": 0.08928562500000226
                },
                {
                    "name": "B1",
                    "midi": 35,
                    "time": 119.999880000001,
                    "velocity": 0.7874015748031497,
                    "duration": 0.08928562500000226
                },
                {
                    "name": "C#2",
                    "midi": 37,
                    "time": 119.999880000001,
                    "velocity": 0.7086614173228346,
                    "duration": 0.08928562500000226
                },
                {
                    "name": "G#3",
                    "midi": 56,
                    "time": 119.999880000001,
                    "velocity": 0.31496062992125984,
                    "duration": 0.08928562500000226
                },
                {
                    "name": "D#3",
                    "midi": 51,
                    "time": 119.999880000001,
                    "velocity": 0.7086614173228346,
                    "duration": 0.08928562500000226
                },
                {
                    "name": "A#4",
                    "midi": 70,
                    "time": 119.999880000001,
                    "velocity": 0.6299212598425197,
                    "duration": 0.08928562500000226
                },
                {
                    "name": "D#3",
                    "midi": 51,
                    "time": 120.214165500001,
                    "velocity": 0.5511811023622047,
                    "duration": 0.08928562500000226
                },
                {
                    "name": "D#4",
                    "midi": 63,
                    "time": 120.214165500001,
                    "velocity": 0.31496062992125984,
                    "duration": 0.08928562500000226
                },
                {
                    "name": "A4",
                    "midi": 69,
                    "time": 120.214165500001,
                    "velocity": 0.3937007874015748,
                    "duration": 0.08928562500000226
                },
                {
                    "name": "D#3",
                    "midi": 51,
                    "time": 120.428451000001,
                    "velocity": 0.7086614173228346,
                    "duration": 0.08928562500000226
                },
                {
                    "name": "C3",
                    "midi": 48,
                    "time": 120.428451000001,
                    "velocity": 0.47244094488188976,
                    "duration": 0.08928562500000226
                },
                {
                    "name": "D#4",
                    "midi": 63,
                    "time": 120.428451000001,
                    "velocity": 0.47244094488188976,
                    "duration": 0.08928562500000226
                },
                {
                    "name": "A#4",
                    "midi": 70,
                    "time": 120.428451000001,
                    "velocity": 0.6299212598425197,
                    "duration": 0.08928562500000226
                },
                {
                    "name": "B1",
                    "midi": 35,
                    "time": 120.642736500001,
                    "velocity": 0.5511811023622047,
                    "duration": 0.08928562500000226
                },
                {
                    "name": "C#2",
                    "midi": 37,
                    "time": 120.642736500001,
                    "velocity": 0.7086614173228346,
                    "duration": 0.08928562500000226
                },
                {
                    "name": "G#3",
                    "midi": 56,
                    "time": 120.642736500001,
                    "velocity": 0.31496062992125984,
                    "duration": 0.08928562500000226
                },
                {
                    "name": "D#3",
                    "midi": 51,
                    "time": 120.642736500001,
                    "velocity": 0.5511811023622047,
                    "duration": 0.08928562500000226
                },
                {
                    "name": "D4",
                    "midi": 62,
                    "time": 120.642736500001,
                    "velocity": 0.5511811023622047,
                    "duration": 0.08928562500000226
                },
                {
                    "name": "A4",
                    "midi": 69,
                    "time": 120.642736500001,
                    "velocity": 0.3937007874015748,
                    "duration": 0.08928562500000226
                },
                {
                    "name": "B1",
                    "midi": 35,
                    "time": 120.85702200000101,
                    "velocity": 0.7874015748031497,
                    "duration": 0.08928562500000226
                },
                {
                    "name": "D#3",
                    "midi": 51,
                    "time": 120.85702200000101,
                    "velocity": 0.7086614173228346,
                    "duration": 0.08928562500000226
                },
                {
                    "name": "A#4",
                    "midi": 70,
                    "time": 120.85702200000101,
                    "velocity": 0.6299212598425197,
                    "duration": 0.08928562500000226
                },
                {
                    "name": "D#3",
                    "midi": 51,
                    "time": 121.07130750000101,
                    "velocity": 0.5511811023622047,
                    "duration": 0.08928562500000226
                },
                {
                    "name": "A4",
                    "midi": 69,
                    "time": 121.07130750000101,
                    "velocity": 0.3937007874015748,
                    "duration": 0.08928562500000226
                },
                {
                    "name": "C#2",
                    "midi": 37,
                    "time": 121.28559300000101,
                    "velocity": 0.7086614173228346,
                    "duration": 0.08928562500000226
                },
                {
                    "name": "D#3",
                    "midi": 51,
                    "time": 121.28559300000101,
                    "velocity": 0.7086614173228346,
                    "duration": 0.08928562500000226
                },
                {
                    "name": "D4",
                    "midi": 62,
                    "time": 121.28559300000101,
                    "velocity": 0.5511811023622047,
                    "duration": 0.08928562500000226
                },
                {
                    "name": "A#4",
                    "midi": 70,
                    "time": 121.28559300000101,
                    "velocity": 0.6299212598425197,
                    "duration": 0.08928562500000226
                },
                {
                    "name": "B1",
                    "midi": 35,
                    "time": 121.49987850000102,
                    "velocity": 0.5511811023622047,
                    "duration": 0.08928562500000226
                },
                {
                    "name": "D#3",
                    "midi": 51,
                    "time": 121.49987850000102,
                    "velocity": 0.5511811023622047,
                    "duration": 0.08928562500000226
                },
                {
                    "name": "A4",
                    "midi": 69,
                    "time": 121.49987850000102,
                    "velocity": 0.3937007874015748,
                    "duration": 0.08928562500000226
                },
                {
                    "name": "B1",
                    "midi": 35,
                    "time": 121.71416400000102,
                    "velocity": 0.7874015748031497,
                    "duration": 0.08928562500000226
                },
                {
                    "name": "G#3",
                    "midi": 56,
                    "time": 121.71416400000102,
                    "velocity": 0.31496062992125984,
                    "duration": 0.08928562500000226
                },
                {
                    "name": "D#3",
                    "midi": 51,
                    "time": 121.71416400000102,
                    "velocity": 0.7086614173228346,
                    "duration": 0.08928562500000226
                },
                {
                    "name": "D#4",
                    "midi": 63,
                    "time": 121.71416400000102,
                    "velocity": 0.31496062992125984,
                    "duration": 0.08928562500000226
                },
                {
                    "name": "A#4",
                    "midi": 70,
                    "time": 121.71416400000102,
                    "velocity": 0.6299212598425197,
                    "duration": 0.08928562500000226
                },
                {
                    "name": "D#3",
                    "midi": 51,
                    "time": 121.92844950000102,
                    "velocity": 0.5511811023622047,
                    "duration": 0.08928562500000226
                },
                {
                    "name": "F2",
                    "midi": 41,
                    "time": 121.92844950000102,
                    "velocity": 0.3937007874015748,
                    "duration": 0.08928562500000226
                },
                {
                    "name": "D#4",
                    "midi": 63,
                    "time": 121.92844950000102,
                    "velocity": 0.31496062992125984,
                    "duration": 0.08928562500000226
                },
                {
                    "name": "A4",
                    "midi": 69,
                    "time": 121.92844950000102,
                    "velocity": 0.3937007874015748,
                    "duration": 0.08928562500000226
                },
                {
                    "name": "C#2",
                    "midi": 37,
                    "time": 122.14273500000103,
                    "velocity": 0.7086614173228346,
                    "duration": 0.08928562500000226
                },
                {
                    "name": "D#3",
                    "midi": 51,
                    "time": 122.14273500000103,
                    "velocity": 0.7086614173228346,
                    "duration": 0.08928562500000226
                },
                {
                    "name": "A#4",
                    "midi": 70,
                    "time": 122.14273500000103,
                    "velocity": 0.6299212598425197,
                    "duration": 0.08928562500000226
                },
                {
                    "name": "B1",
                    "midi": 35,
                    "time": 122.35702050000103,
                    "velocity": 0.5511811023622047,
                    "duration": 0.08928562500000226
                },
                {
                    "name": "D#3",
                    "midi": 51,
                    "time": 122.35702050000103,
                    "velocity": 0.5511811023622047,
                    "duration": 0.08928562500000226
                },
                {
                    "name": "A4",
                    "midi": 69,
                    "time": 122.35702050000103,
                    "velocity": 0.3937007874015748,
                    "duration": 0.08928562500000226
                },
                {
                    "name": "B1",
                    "midi": 35,
                    "time": 122.57130600000103,
                    "velocity": 0.7874015748031497,
                    "duration": 0.08928562500000226
                },
                {
                    "name": "D#3",
                    "midi": 51,
                    "time": 122.57130600000103,
                    "velocity": 0.7086614173228346,
                    "duration": 0.08928562500000226
                },
                {
                    "name": "A#4",
                    "midi": 70,
                    "time": 122.57130600000103,
                    "velocity": 0.6299212598425197,
                    "duration": 0.08928562500000226
                },
                {
                    "name": "C#2",
                    "midi": 37,
                    "time": 122.78559150000103,
                    "velocity": 0.7086614173228346,
                    "duration": 0.08928562500000226
                },
                {
                    "name": "D#3",
                    "midi": 51,
                    "time": 122.78559150000103,
                    "velocity": 0.5511811023622047,
                    "duration": 0.08928562500000226
                },
                {
                    "name": "A4",
                    "midi": 69,
                    "time": 122.78559150000103,
                    "velocity": 0.3937007874015748,
                    "duration": 0.08928562500000226
                },
                {
                    "name": "G#3",
                    "midi": 56,
                    "time": 122.99987700000104,
                    "velocity": 0.31496062992125984,
                    "duration": 0.08928562500000226
                },
                {
                    "name": "D#3",
                    "midi": 51,
                    "time": 122.99987700000104,
                    "velocity": 0.7086614173228346,
                    "duration": 0.08928562500000226
                },
                {
                    "name": "A#4",
                    "midi": 70,
                    "time": 122.99987700000104,
                    "velocity": 0.6299212598425197,
                    "duration": 0.08928562500000226
                },
                {
                    "name": "B1",
                    "midi": 35,
                    "time": 123.21416250000104,
                    "velocity": 0.5511811023622047,
                    "duration": 0.08928562500000226
                },
                {
                    "name": "D#3",
                    "midi": 51,
                    "time": 123.21416250000104,
                    "velocity": 0.5511811023622047,
                    "duration": 0.08928562500000226
                },
                {
                    "name": "A4",
                    "midi": 69,
                    "time": 123.21416250000104,
                    "velocity": 0.3937007874015748,
                    "duration": 0.08928562500000226
                },
                {
                    "name": "B1",
                    "midi": 35,
                    "time": 123.42844800000104,
                    "velocity": 0.7874015748031497,
                    "duration": 0.08928562500000226
                },
                {
                    "name": "C#2",
                    "midi": 37,
                    "time": 123.42844800000104,
                    "velocity": 0.7086614173228346,
                    "duration": 0.08928562500000226
                },
                {
                    "name": "G#3",
                    "midi": 56,
                    "time": 123.42844800000104,
                    "velocity": 0.31496062992125984,
                    "duration": 0.08928562500000226
                },
                {
                    "name": "D#3",
                    "midi": 51,
                    "time": 123.42844800000104,
                    "velocity": 0.7086614173228346,
                    "duration": 0.08928562500000226
                },
                {
                    "name": "A#4",
                    "midi": 70,
                    "time": 123.42844800000104,
                    "velocity": 0.6299212598425197,
                    "duration": 0.08928562500000226
                },
                {
                    "name": "D#3",
                    "midi": 51,
                    "time": 123.64273350000104,
                    "velocity": 0.5511811023622047,
                    "duration": 0.08928562500000226
                },
                {
                    "name": "D#4",
                    "midi": 63,
                    "time": 123.64273350000104,
                    "velocity": 0.31496062992125984,
                    "duration": 0.08928562500000226
                },
                {
                    "name": "A4",
                    "midi": 69,
                    "time": 123.64273350000104,
                    "velocity": 0.3937007874015748,
                    "duration": 0.08928562500000226
                },
                {
                    "name": "D#3",
                    "midi": 51,
                    "time": 123.85701900000105,
                    "velocity": 0.7086614173228346,
                    "duration": 0.08928562500000226
                },
                {
                    "name": "D#4",
                    "midi": 63,
                    "time": 123.85701900000105,
                    "velocity": 0.47244094488188976,
                    "duration": 0.08928562500000226
                },
                {
                    "name": "A#4",
                    "midi": 70,
                    "time": 123.85701900000105,
                    "velocity": 0.6299212598425197,
                    "duration": 0.08928562500000226
                },
                {
                    "name": "B1",
                    "midi": 35,
                    "time": 124.07130450000105,
                    "velocity": 0.5511811023622047,
                    "duration": 0.08928562500000226
                },
                {
                    "name": "C#2",
                    "midi": 37,
                    "time": 124.07130450000105,
                    "velocity": 0.7086614173228346,
                    "duration": 0.08928562500000226
                },
                {
                    "name": "D#3",
                    "midi": 51,
                    "time": 124.07130450000105,
                    "velocity": 0.5511811023622047,
                    "duration": 0.08928562500000226
                },
                {
                    "name": "D4",
                    "midi": 62,
                    "time": 124.07130450000105,
                    "velocity": 0.5511811023622047,
                    "duration": 0.08928562500000226
                },
                {
                    "name": "A4",
                    "midi": 69,
                    "time": 124.07130450000105,
                    "velocity": 0.3937007874015748,
                    "duration": 0.08928562500000226
                },
                {
                    "name": "B1",
                    "midi": 35,
                    "time": 124.28559000000105,
                    "velocity": 0.7874015748031497,
                    "duration": 0.08928562500000226
                },
                {
                    "name": "D#3",
                    "midi": 51,
                    "time": 124.28559000000105,
                    "velocity": 0.7086614173228346,
                    "duration": 0.08928562500000226
                },
                {
                    "name": "D#4",
                    "midi": 63,
                    "time": 124.28559000000105,
                    "velocity": 0.2755905511811024,
                    "duration": 0.08928562500000226
                },
                {
                    "name": "A#4",
                    "midi": 70,
                    "time": 124.28559000000105,
                    "velocity": 0.6299212598425197,
                    "duration": 0.08928562500000226
                },
                {
                    "name": "D#3",
                    "midi": 51,
                    "time": 124.49987550000105,
                    "velocity": 0.5511811023622047,
                    "duration": 0.08928562500000226
                },
                {
                    "name": "A4",
                    "midi": 69,
                    "time": 124.49987550000105,
                    "velocity": 0.3937007874015748,
                    "duration": 0.08928562500000226
                },
                {
                    "name": "C#2",
                    "midi": 37,
                    "time": 124.71416100000106,
                    "velocity": 0.7086614173228346,
                    "duration": 0.08928562500000226
                },
                {
                    "name": "G#3",
                    "midi": 56,
                    "time": 124.71416100000106,
                    "velocity": 0.31496062992125984,
                    "duration": 0.08928562500000226
                },
                {
                    "name": "D#3",
                    "midi": 51,
                    "time": 124.71416100000106,
                    "velocity": 0.7086614173228346,
                    "duration": 0.08928562500000226
                },
                {
                    "name": "A2",
                    "midi": 45,
                    "time": 124.71416100000106,
                    "velocity": 0.5511811023622047,
                    "duration": 0.08928562500000226
                },
                {
                    "name": "D4",
                    "midi": 62,
                    "time": 124.71416100000106,
                    "velocity": 0.5511811023622047,
                    "duration": 0.08928562500000226
                },
                {
                    "name": "A#4",
                    "midi": 70,
                    "time": 124.71416100000106,
                    "velocity": 0.6299212598425197,
                    "duration": 0.08928562500000226
                },
                {
                    "name": "B1",
                    "midi": 35,
                    "time": 124.92844650000106,
                    "velocity": 0.5511811023622047,
                    "duration": 0.08928562500000226
                },
                {
                    "name": "D#3",
                    "midi": 51,
                    "time": 124.92844650000106,
                    "velocity": 0.5511811023622047,
                    "duration": 0.08928562500000226
                },
                {
                    "name": "A2",
                    "midi": 45,
                    "time": 124.92844650000106,
                    "velocity": 0.5511811023622047,
                    "duration": 0.08928562500000226
                },
                {
                    "name": "A4",
                    "midi": 69,
                    "time": 124.92844650000106,
                    "velocity": 0.3937007874015748,
                    "duration": 0.08928562500000226
                },
                {
                    "name": "B1",
                    "midi": 35,
                    "time": 125.14273200000106,
                    "velocity": 0.7874015748031497,
                    "duration": 0.08928562500000226
                },
                {
                    "name": "G#3",
                    "midi": 56,
                    "time": 125.14273200000106,
                    "velocity": 0.31496062992125984,
                    "duration": 0.08928562500000226
                },
                {
                    "name": "D#3",
                    "midi": 51,
                    "time": 125.14273200000106,
                    "velocity": 0.7086614173228346,
                    "duration": 0.08928562500000226
                },
                {
                    "name": "D#4",
                    "midi": 63,
                    "time": 125.14273200000106,
                    "velocity": 0.31496062992125984,
                    "duration": 0.08928562500000226
                },
                {
                    "name": "A#4",
                    "midi": 70,
                    "time": 125.14273200000106,
                    "velocity": 0.6299212598425197,
                    "duration": 0.08928562500000226
                },
                {
                    "name": "D#3",
                    "midi": 51,
                    "time": 125.35701750000106,
                    "velocity": 0.5511811023622047,
                    "duration": 0.08928562500000226
                },
                {
                    "name": "D#4",
                    "midi": 63,
                    "time": 125.35701750000106,
                    "velocity": 0.31496062992125984,
                    "duration": 0.08928562500000226
                },
                {
                    "name": "A4",
                    "midi": 69,
                    "time": 125.35701750000106,
                    "velocity": 0.3937007874015748,
                    "duration": 0.08928562500000226
                },
                {
                    "name": "C#2",
                    "midi": 37,
                    "time": 125.57130300000107,
                    "velocity": 0.7086614173228346,
                    "duration": 0.08928562500000226
                },
                {
                    "name": "D#3",
                    "midi": 51,
                    "time": 125.57130300000107,
                    "velocity": 0.7086614173228346,
                    "duration": 0.08928562500000226
                },
                {
                    "name": "A#4",
                    "midi": 70,
                    "time": 125.57130300000107,
                    "velocity": 0.6299212598425197,
                    "duration": 0.08928562500000226
                },
                {
                    "name": "B1",
                    "midi": 35,
                    "time": 125.78558850000107,
                    "velocity": 0.5511811023622047,
                    "duration": 0.08928562500000226
                },
                {
                    "name": "D#3",
                    "midi": 51,
                    "time": 125.78558850000107,
                    "velocity": 0.5511811023622047,
                    "duration": 0.08928562500000226
                },
                {
                    "name": "A4",
                    "midi": 69,
                    "time": 125.78558850000107,
                    "velocity": 0.3937007874015748,
                    "duration": 0.08928562500000226
                },
                {
                    "name": "B1",
                    "midi": 35,
                    "time": 125.99987400000107,
                    "velocity": 0.7874015748031497,
                    "duration": 0.08928562500000226
                },
                {
                    "name": "D#3",
                    "midi": 51,
                    "time": 125.99987400000107,
                    "velocity": 0.7086614173228346,
                    "duration": 0.08928562500000226
                },
                {
                    "name": "A#4",
                    "midi": 70,
                    "time": 125.99987400000107,
                    "velocity": 0.6299212598425197,
                    "duration": 0.08928562500000226
                },
                {
                    "name": "C#2",
                    "midi": 37,
                    "time": 126.21415950000107,
                    "velocity": 0.7086614173228346,
                    "duration": 0.08928562500000226
                },
                {
                    "name": "D#3",
                    "midi": 51,
                    "time": 126.21415950000107,
                    "velocity": 0.5511811023622047,
                    "duration": 0.08928562500000226
                },
                {
                    "name": "A4",
                    "midi": 69,
                    "time": 126.21415950000107,
                    "velocity": 0.3937007874015748,
                    "duration": 0.08928562500000226
                },
                {
                    "name": "D#3",
                    "midi": 51,
                    "time": 126.42844500000108,
                    "velocity": 0.7086614173228346,
                    "duration": 0.08928562500000226
                },
                {
                    "name": "A#4",
                    "midi": 70,
                    "time": 126.42844500000108,
                    "velocity": 0.6299212598425197,
                    "duration": 0.08928562500000226
                },
                {
                    "name": "B1",
                    "midi": 35,
                    "time": 126.64273050000108,
                    "velocity": 0.5511811023622047,
                    "duration": 0.08928562500000226
                },
                {
                    "name": "D#3",
                    "midi": 51,
                    "time": 126.64273050000108,
                    "velocity": 0.5511811023622047,
                    "duration": 0.08928562500000226
                },
                {
                    "name": "A4",
                    "midi": 69,
                    "time": 126.64273050000108,
                    "velocity": 0.3937007874015748,
                    "duration": 0.08928562500000226
                },
                {
                    "name": "B1",
                    "midi": 35,
                    "time": 126.85701600000108,
                    "velocity": 0.7874015748031497,
                    "duration": 0.08928562500000226
                },
                {
                    "name": "C#2",
                    "midi": 37,
                    "time": 126.85701600000108,
                    "velocity": 0.7086614173228346,
                    "duration": 0.08928562500000226
                },
                {
                    "name": "D#3",
                    "midi": 51,
                    "time": 126.85701600000108,
                    "velocity": 0.7086614173228346,
                    "duration": 0.08928562500000226
                },
                {
                    "name": "A#4",
                    "midi": 70,
                    "time": 126.85701600000108,
                    "velocity": 0.6299212598425197,
                    "duration": 0.08928562500000226
                },
                {
                    "name": "D#3",
                    "midi": 51,
                    "time": 127.07130150000108,
                    "velocity": 0.5511811023622047,
                    "duration": 0.08928562500000226
                },
                {
                    "name": "D#4",
                    "midi": 63,
                    "time": 127.07130150000108,
                    "velocity": 0.31496062992125984,
                    "duration": 0.08928562500000226
                },
                {
                    "name": "A4",
                    "midi": 69,
                    "time": 127.07130150000108,
                    "velocity": 0.3937007874015748,
                    "duration": 0.08928562500000226
                },
                {
                    "name": "D#3",
                    "midi": 51,
                    "time": 127.28558700000109,
                    "velocity": 0.7086614173228346,
                    "duration": 0.08928562500000226
                },
                {
                    "name": "D#4",
                    "midi": 63,
                    "time": 127.28558700000109,
                    "velocity": 0.47244094488188976,
                    "duration": 0.08928562500000226
                },
                {
                    "name": "A#4",
                    "midi": 70,
                    "time": 127.28558700000109,
                    "velocity": 0.6299212598425197,
                    "duration": 0.08928562500000226
                },
                {
                    "name": "B1",
                    "midi": 35,
                    "time": 127.49987250000109,
                    "velocity": 0.5511811023622047,
                    "duration": 0.08928562500000226
                },
                {
                    "name": "C#2",
                    "midi": 37,
                    "time": 127.49987250000109,
                    "velocity": 0.7086614173228346,
                    "duration": 0.08928562500000226
                },
                {
                    "name": "D#3",
                    "midi": 51,
                    "time": 127.49987250000109,
                    "velocity": 0.5511811023622047,
                    "duration": 0.08928562500000226
                },
                {
                    "name": "D4",
                    "midi": 62,
                    "time": 127.49987250000109,
                    "velocity": 0.5511811023622047,
                    "duration": 0.08928562500000226
                },
                {
                    "name": "A4",
                    "midi": 69,
                    "time": 127.49987250000109,
                    "velocity": 0.3937007874015748,
                    "duration": 0.08928562500000226
                },
                {
                    "name": "B1",
                    "midi": 35,
                    "time": 127.71415800000109,
                    "velocity": 0.7874015748031497,
                    "duration": 0.08928562500000226
                },
                {
                    "name": "D#3",
                    "midi": 51,
                    "time": 127.71415800000109,
                    "velocity": 0.7086614173228346,
                    "duration": 0.08928562500000226
                },
                {
                    "name": "D#4",
                    "midi": 63,
                    "time": 127.71415800000109,
                    "velocity": 0.2755905511811024,
                    "duration": 0.08928562500000226
                },
                {
                    "name": "A#4",
                    "midi": 70,
                    "time": 127.71415800000109,
                    "velocity": 0.6299212598425197,
                    "duration": 0.08928562500000226
                },
                {
                    "name": "D#3",
                    "midi": 51,
                    "time": 127.9284435000011,
                    "velocity": 0.5511811023622047,
                    "duration": 0.08928562500000226
                },
                {
                    "name": "A4",
                    "midi": 69,
                    "time": 127.9284435000011,
                    "velocity": 0.3937007874015748,
                    "duration": 0.08928562500000226
                },
                {
                    "name": "C#2",
                    "midi": 37,
                    "time": 128.14272900000108,
                    "velocity": 0.7086614173228346,
                    "duration": 0.08928562500000226
                },
                {
                    "name": "G#3",
                    "midi": 56,
                    "time": 128.14272900000108,
                    "velocity": 0.31496062992125984,
                    "duration": 0.08928562500000226
                },
                {
                    "name": "D#3",
                    "midi": 51,
                    "time": 128.14272900000108,
                    "velocity": 0.7086614173228346,
                    "duration": 0.08928562500000226
                },
                {
                    "name": "A2",
                    "midi": 45,
                    "time": 128.14272900000108,
                    "velocity": 0.5511811023622047,
                    "duration": 0.08928562500000226
                },
                {
                    "name": "D4",
                    "midi": 62,
                    "time": 128.14272900000108,
                    "velocity": 0.5511811023622047,
                    "duration": 0.08928562500000226
                },
                {
                    "name": "A#4",
                    "midi": 70,
                    "time": 128.14272900000108,
                    "velocity": 0.6299212598425197,
                    "duration": 0.08928562500000226
                },
                {
                    "name": "B1",
                    "midi": 35,
                    "time": 128.35701450000107,
                    "velocity": 0.5511811023622047,
                    "duration": 0.08928562500000226
                },
                {
                    "name": "D#3",
                    "midi": 51,
                    "time": 128.35701450000107,
                    "velocity": 0.5511811023622047,
                    "duration": 0.08928562500000226
                },
                {
                    "name": "A4",
                    "midi": 69,
                    "time": 128.35701450000107,
                    "velocity": 0.3937007874015748,
                    "duration": 0.08928562500000226
                },
                {
                    "name": "B1",
                    "midi": 35,
                    "time": 128.57130000000106,
                    "velocity": 0.7874015748031497,
                    "duration": 0.08928562500000226
                },
                {
                    "name": "G#3",
                    "midi": 56,
                    "time": 128.57130000000106,
                    "velocity": 0.31496062992125984,
                    "duration": 0.08928562500000226
                },
                {
                    "name": "D#3",
                    "midi": 51,
                    "time": 128.57130000000106,
                    "velocity": 0.7086614173228346,
                    "duration": 0.08928562500000226
                },
                {
                    "name": "D#4",
                    "midi": 63,
                    "time": 128.57130000000106,
                    "velocity": 0.31496062992125984,
                    "duration": 0.08928562500000226
                },
                {
                    "name": "A#4",
                    "midi": 70,
                    "time": 128.57130000000106,
                    "velocity": 0.6299212598425197,
                    "duration": 0.08928562500000226
                },
                {
                    "name": "D#3",
                    "midi": 51,
                    "time": 128.78558550000105,
                    "velocity": 0.5511811023622047,
                    "duration": 0.08928562500000226
                },
                {
                    "name": "F2",
                    "midi": 41,
                    "time": 128.78558550000105,
                    "velocity": 0.3937007874015748,
                    "duration": 0.08928562500000226
                },
                {
                    "name": "D#4",
                    "midi": 63,
                    "time": 128.78558550000105,
                    "velocity": 0.31496062992125984,
                    "duration": 0.08928562500000226
                },
                {
                    "name": "A4",
                    "midi": 69,
                    "time": 128.78558550000105,
                    "velocity": 0.3937007874015748,
                    "duration": 0.08928562500000226
                },
                {
                    "name": "C#2",
                    "midi": 37,
                    "time": 128.99987100000104,
                    "velocity": 0.7086614173228346,
                    "duration": 0.08928562500000226
                },
                {
                    "name": "D#3",
                    "midi": 51,
                    "time": 128.99987100000104,
                    "velocity": 0.7086614173228346,
                    "duration": 0.08928562500000226
                },
                {
                    "name": "A#4",
                    "midi": 70,
                    "time": 128.99987100000104,
                    "velocity": 0.6299212598425197,
                    "duration": 0.08928562500000226
                },
                {
                    "name": "B1",
                    "midi": 35,
                    "time": 129.21415650000102,
                    "velocity": 0.5511811023622047,
                    "duration": 0.08928562500000226
                },
                {
                    "name": "D#3",
                    "midi": 51,
                    "time": 129.21415650000102,
                    "velocity": 0.5511811023622047,
                    "duration": 0.08928562500000226
                },
                {
                    "name": "A4",
                    "midi": 69,
                    "time": 129.21415650000102,
                    "velocity": 0.3937007874015748,
                    "duration": 0.08928562500000226
                },
                {
                    "name": "B1",
                    "midi": 35,
                    "time": 129.428442000001,
                    "velocity": 0.7874015748031497,
                    "duration": 0.08928562500000226
                },
                {
                    "name": "D#3",
                    "midi": 51,
                    "time": 129.428442000001,
                    "velocity": 0.7086614173228346,
                    "duration": 0.08928562500000226
                },
                {
                    "name": "A#4",
                    "midi": 70,
                    "time": 129.428442000001,
                    "velocity": 0.6299212598425197,
                    "duration": 0.08928562500000226
                },
                {
                    "name": "C#2",
                    "midi": 37,
                    "time": 129.642727500001,
                    "velocity": 0.7086614173228346,
                    "duration": 0.08928562500000226
                },
                {
                    "name": "D#3",
                    "midi": 51,
                    "time": 129.642727500001,
                    "velocity": 0.5511811023622047,
                    "duration": 0.08928562500000226
                },
                {
                    "name": "A4",
                    "midi": 69,
                    "time": 129.642727500001,
                    "velocity": 0.3937007874015748,
                    "duration": 0.08928562500000226
                },
                {
                    "name": "G#3",
                    "midi": 56,
                    "time": 129.857013000001,
                    "velocity": 0.31496062992125984,
                    "duration": 0.08928562500000226
                },
                {
                    "name": "D#3",
                    "midi": 51,
                    "time": 129.857013000001,
                    "velocity": 0.7086614173228346,
                    "duration": 0.08928562500000226
                },
                {
                    "name": "A2",
                    "midi": 45,
                    "time": 129.857013000001,
                    "velocity": 0.5511811023622047,
                    "duration": 0.08928562500000226
                },
                {
                    "name": "A#4",
                    "midi": 70,
                    "time": 129.857013000001,
                    "velocity": 0.6299212598425197,
                    "duration": 0.08928562500000226
                },
                {
                    "name": "B1",
                    "midi": 35,
                    "time": 130.07129850000098,
                    "velocity": 0.5511811023622047,
                    "duration": 0.08928562500000226
                },
                {
                    "name": "D#3",
                    "midi": 51,
                    "time": 130.07129850000098,
                    "velocity": 0.5511811023622047,
                    "duration": 0.08928562500000226
                },
                {
                    "name": "F2",
                    "midi": 41,
                    "time": 130.07129850000098,
                    "velocity": 0.47244094488188976,
                    "duration": 0.08928562500000226
                },
                {
                    "name": "A4",
                    "midi": 69,
                    "time": 130.07129850000098,
                    "velocity": 0.3937007874015748,
                    "duration": 0.08928562500000226
                },
                {
                    "name": "B1",
                    "midi": 35,
                    "time": 130.28558400000097,
                    "velocity": 0.7874015748031497,
                    "duration": 0.08928562500000226
                },
                {
                    "name": "C#2",
                    "midi": 37,
                    "time": 130.28558400000097,
                    "velocity": 0.7086614173228346,
                    "duration": 0.08928562500000226
                },
                {
                    "name": "G#3",
                    "midi": 56,
                    "time": 130.28558400000097,
                    "velocity": 0.31496062992125984,
                    "duration": 0.08928562500000226
                },
                {
                    "name": "D#3",
                    "midi": 51,
                    "time": 130.28558400000097,
                    "velocity": 0.7086614173228346,
                    "duration": 0.08928562500000226
                },
                {
                    "name": "A#4",
                    "midi": 70,
                    "time": 130.28558400000097,
                    "velocity": 0.6299212598425197,
                    "duration": 0.08928562500000226
                },
                {
                    "name": "D#3",
                    "midi": 51,
                    "time": 130.49986950000095,
                    "velocity": 0.5511811023622047,
                    "duration": 0.08928562500000226
                },
                {
                    "name": "D#4",
                    "midi": 63,
                    "time": 130.49986950000095,
                    "velocity": 0.31496062992125984,
                    "duration": 0.08928562500000226
                },
                {
                    "name": "A4",
                    "midi": 69,
                    "time": 130.49986950000095,
                    "velocity": 0.3937007874015748,
                    "duration": 0.08928562500000226
                },
                {
                    "name": "D#3",
                    "midi": 51,
                    "time": 130.71415500000094,
                    "velocity": 0.7086614173228346,
                    "duration": 0.08928562500000226
                },
                {
                    "name": "D#4",
                    "midi": 63,
                    "time": 130.71415500000094,
                    "velocity": 0.47244094488188976,
                    "duration": 0.08928562500000226
                },
                {
                    "name": "A#4",
                    "midi": 70,
                    "time": 130.71415500000094,
                    "velocity": 0.6299212598425197,
                    "duration": 0.08928562500000226
                },
                {
                    "name": "B1",
                    "midi": 35,
                    "time": 130.92844050000093,
                    "velocity": 0.5511811023622047,
                    "duration": 0.08928562500000226
                },
                {
                    "name": "C#2",
                    "midi": 37,
                    "time": 130.92844050000093,
                    "velocity": 0.7086614173228346,
                    "duration": 0.08928562500000226
                },
                {
                    "name": "D#3",
                    "midi": 51,
                    "time": 130.92844050000093,
                    "velocity": 0.5511811023622047,
                    "duration": 0.08928562500000226
                },
                {
                    "name": "D4",
                    "midi": 62,
                    "time": 130.92844050000093,
                    "velocity": 0.5511811023622047,
                    "duration": 0.08928562500000226
                },
                {
                    "name": "A4",
                    "midi": 69,
                    "time": 130.92844050000093,
                    "velocity": 0.3937007874015748,
                    "duration": 0.08928562500000226
                },
                {
                    "name": "B1",
                    "midi": 35,
                    "time": 131.14272600000092,
                    "velocity": 0.7874015748031497,
                    "duration": 0.08928562500000226
                },
                {
                    "name": "D#3",
                    "midi": 51,
                    "time": 131.14272600000092,
                    "velocity": 0.7086614173228346,
                    "duration": 0.08928562500000226
                },
                {
                    "name": "A#4",
                    "midi": 70,
                    "time": 131.14272600000092,
                    "velocity": 0.6299212598425197,
                    "duration": 0.08928562500000226
                },
                {
                    "name": "D#3",
                    "midi": 51,
                    "time": 131.3570115000009,
                    "velocity": 0.5511811023622047,
                    "duration": 0.08928562500000226
                },
                {
                    "name": "A4",
                    "midi": 69,
                    "time": 131.3570115000009,
                    "velocity": 0.3937007874015748,
                    "duration": 0.08928562500000226
                },
                {
                    "name": "C#2",
                    "midi": 37,
                    "time": 131.5712970000009,
                    "velocity": 0.7086614173228346,
                    "duration": 0.08928562500000226
                },
                {
                    "name": "D#3",
                    "midi": 51,
                    "time": 131.5712970000009,
                    "velocity": 0.7086614173228346,
                    "duration": 0.08928562500000226
                },
                {
                    "name": "A2",
                    "midi": 45,
                    "time": 131.5712970000009,
                    "velocity": 0.5511811023622047,
                    "duration": 0.08928562500000226
                },
                {
                    "name": "D4",
                    "midi": 62,
                    "time": 131.5712970000009,
                    "velocity": 0.5511811023622047,
                    "duration": 0.08928562500000226
                },
                {
                    "name": "A#4",
                    "midi": 70,
                    "time": 131.5712970000009,
                    "velocity": 0.6299212598425197,
                    "duration": 0.08928562500000226
                },
                {
                    "name": "B1",
                    "midi": 35,
                    "time": 131.78558250000088,
                    "velocity": 0.5511811023622047,
                    "duration": 0.08928562500000226
                },
                {
                    "name": "D#3",
                    "midi": 51,
                    "time": 131.78558250000088,
                    "velocity": 0.5511811023622047,
                    "duration": 0.08928562500000226
                },
                {
                    "name": "A4",
                    "midi": 69,
                    "time": 131.78558250000088,
                    "velocity": 0.3937007874015748,
                    "duration": 0.08928562500000226
                },
                {
                    "name": "B1",
                    "midi": 35,
                    "time": 131.99986800000087,
                    "velocity": 0.7874015748031497,
                    "duration": 0.08928562500000226
                },
                {
                    "name": "A#4",
                    "midi": 70,
                    "time": 131.99986800000087,
                    "velocity": 0.6299212598425197,
                    "duration": 0.08928562500000226
                },
                {
                    "name": "A4",
                    "midi": 69,
                    "time": 132.21415350000086,
                    "velocity": 0.3937007874015748,
                    "duration": 0.08928562500000226
                },
                {
                    "name": "F2",
                    "midi": 41,
                    "time": 132.42843900000085,
                    "velocity": 0.7086614173228346,
                    "duration": 0.08928562500000226
                },
                {
                    "name": "A#4",
                    "midi": 70,
                    "time": 132.42843900000085,
                    "velocity": 0.6299212598425197,
                    "duration": 0.08928562500000226
                },
                {
                    "name": "B1",
                    "midi": 35,
                    "time": 132.64272450000084,
                    "velocity": 0.5511811023622047,
                    "duration": 0.08928562500000226
                },
                {
                    "name": "A4",
                    "midi": 69,
                    "time": 132.64272450000084,
                    "velocity": 0.3937007874015748,
                    "duration": 0.08928562500000226
                },
                {
                    "name": "B1",
                    "midi": 35,
                    "time": 132.85701000000083,
                    "velocity": 0.7874015748031497,
                    "duration": 0.08928562500000226
                },
                {
                    "name": "D2",
                    "midi": 38,
                    "time": 132.85701000000083,
                    "velocity": 0.7086614173228346,
                    "duration": 0.08928562500000226
                },
                {
                    "name": "C3",
                    "midi": 48,
                    "time": 132.85701000000083,
                    "velocity": 0.6299212598425197,
                    "duration": 0.08928562500000226
                },
                {
                    "name": "A#4",
                    "midi": 70,
                    "time": 132.85701000000083,
                    "velocity": 0.6299212598425197,
                    "duration": 0.08928562500000226
                },
                {
                    "name": "A2",
                    "midi": 45,
                    "time": 133.07129550000082,
                    "velocity": 0.7086614173228346,
                    "duration": 0.08928562500000226
                },
                {
                    "name": "A4",
                    "midi": 69,
                    "time": 133.07129550000082,
                    "velocity": 0.3937007874015748,
                    "duration": 0.08928562500000226
                },
                {
                    "name": "A#4",
                    "midi": 70,
                    "time": 133.2855810000008,
                    "velocity": 0.6299212598425197,
                    "duration": 0.08928562500000226
                },
                {
                    "name": "B1",
                    "midi": 35,
                    "time": 133.4998665000008,
                    "velocity": 0.5511811023622047,
                    "duration": 0.08928562500000226
                },
                {
                    "name": "F2",
                    "midi": 41,
                    "time": 133.4998665000008,
                    "velocity": 0.7874015748031497,
                    "duration": 0.08928562500000226
                },
                {
                    "name": "A4",
                    "midi": 69,
                    "time": 133.4998665000008,
                    "velocity": 0.3937007874015748,
                    "duration": 0.08928562500000226
                }
            ],
            "controlChanges": {
                "7": [
                    {
                        "number": 7,
                        "time": 0,
                        "value": 0.7874015748031497
                    }
                ],
                "10": [
                    {
                        "number": 10,
                        "time": 0,
                        "value": 0.5039370078740157
                    }
                ],
                "121": [
                    {
                        "number": 121,
                        "time": 0,
                        "value": 0
                    }
                ],
                "123": [
                    {
                        "number": 123,
                        "time": 0,
                        "value": 0
                    }
                ]
            },
            "id": 9,
            "name": "Drums   ",
            "instrumentNumber": 32,
            "instrument": "jazz kit",
            "instrumentFamily": "drums",
            "channelNumber": 9,
            "isPercussion": true
        },
        {
            "startTime": 0,
            "duration": 0,
            "length": 0,
            "notes": [],
            "controlChanges": {},
            "id": 10,
            "name": "Copyright (c) 1996"
        },
        {
            "startTime": 0,
            "duration": 0,
            "length": 0,
            "notes": [],
            "controlChanges": {},
            "id": 11,
            "name": "Leandro Ramalho"
        },
        {
            "startTime": 0,
            "duration": 0,
            "length": 0,
            "notes": [],
            "controlChanges": {},
            "id": 12,
            "name": "Send me an E-Mail .:"
        },
        {
            "startTime": 0,
            "duration": 0,
            "length": 0,
            "notes": [],
            "controlChanges": {},
            "id": 13,
            "name": "Dr.Maybe@sti.com.br"
        }
    ]
}