{
    "header": {
        "keySignatures": [
            {
                "key": "G",
                "scale": "major",
                "ticks": 0
            }
        ],
        "meta": [],
        "name": "",
        "ppq": 120,
        "tempos": [
            {
                "bpm": 140.00014000014,
                "ticks": 0
            },
            {
                "bpm": 208.00038826739143,
                "ticks": 53760
            },
            {
                "bpm": 140.00014000014,
                "ticks": 78720
            }
        ],
        "timeSignatures": [
            {
                "ticks": 0,
                "timeSignature": [
                    4,
                    4
                ],
                "measures": 0
            },
            {
                "ticks": 121440,
                "timeSignature": [
                    5,
                    4
                ],
                "measures": 253
            },
            {
                "ticks": 122040,
                "timeSignature": [
                    4,
                    4
                ],
                "measures": 254
            }
        ]
    },
    "tracks": [
        {
            "channel": 0,
            "controlChanges": {
                "7": [
                    {
                        "number": 7,
                        "ticks": 0,
                        "time": 0,
                        "value": 0.7795275590551181
                    }
                ]
            },
            "pitchBends": [],
            "instrument": {
                "family": "piano",
                "number": 0,
                "name": "acoustic grand piano"
            },
            "name": "Voice",
            "notes": [],
            "endOfTrackTicks": 106441
        },
        {
            "channel": 0,
            "controlChanges": {},
            "pitchBends": [],
            "instrument": {
                "family": "synth lead",
                "number": 87,
                "name": "lead 8 (bass + lead)"
            },
            "name": "",
            "notes": [
                {
                    "duration": 0.21428550000000257,
                    "durationTicks": 60,
                    "midi": 76,
                    "name": "E5",
                    "ticks": 11941,
                    "time": 42.646385925000004,
                    "velocity": 1
                },
                {
                    "duration": 0.21428550000000257,
                    "durationTicks": 60,
                    "midi": 76,
                    "name": "E5",
                    "ticks": 12001,
                    "time": 42.86067142500001,
                    "velocity": 1
                },
                {
                    "duration": 0.21428549999998836,
                    "durationTicks": 60,
                    "midi": 76,
                    "name": "E5",
                    "ticks": 19681,
                    "time": 70.28921542500001,
                    "velocity": 1
                },
                {
                    "duration": 0.21428550000000257,
                    "durationTicks": 60,
                    "midi": 76,
                    "name": "E5",
                    "ticks": 19741,
                    "time": 70.503500925,
                    "velocity": 1
                },
                {
                    "duration": 0.21428550000000257,
                    "durationTicks": 60,
                    "midi": 76,
                    "name": "E5",
                    "ticks": 19801,
                    "time": 70.717786425,
                    "velocity": 1
                },
                {
                    "duration": 0.6428564999999935,
                    "durationTicks": 180,
                    "midi": 76,
                    "name": "E5",
                    "ticks": 19861,
                    "time": 70.932071925,
                    "velocity": 1
                },
                {
                    "duration": 0.21428550000000257,
                    "durationTicks": 60,
                    "midi": 76,
                    "name": "E5",
                    "ticks": 20041,
                    "time": 71.574928425,
                    "velocity": 1
                },
                {
                    "duration": 0.21428550000000257,
                    "durationTicks": 60,
                    "midi": 74,
                    "name": "D5",
                    "ticks": 20101,
                    "time": 71.789213925,
                    "velocity": 1
                },
                {
                    "duration": 0.21428550000000257,
                    "durationTicks": 60,
                    "midi": 76,
                    "name": "E5",
                    "ticks": 20161,
                    "time": 72.003499425,
                    "velocity": 1
                },
                {
                    "duration": 0.21428550000000257,
                    "durationTicks": 60,
                    "midi": 76,
                    "name": "E5",
                    "ticks": 20221,
                    "time": 72.217784925,
                    "velocity": 1
                },
                {
                    "duration": 0.21428550000000257,
                    "durationTicks": 60,
                    "midi": 79,
                    "name": "G5",
                    "ticks": 20281,
                    "time": 72.432070425,
                    "velocity": 1
                },
                {
                    "duration": 0.21428549999998836,
                    "durationTicks": 60,
                    "midi": 76,
                    "name": "E5",
                    "ticks": 20341,
                    "time": 72.64635592500001,
                    "velocity": 1
                },
                {
                    "duration": 0.21428550000000257,
                    "durationTicks": 60,
                    "midi": 74,
                    "name": "D5",
                    "ticks": 20581,
                    "time": 73.503497925,
                    "velocity": 1
                },
                {
                    "duration": 0.21428549999998836,
                    "durationTicks": 60,
                    "midi": 76,
                    "name": "E5",
                    "ticks": 20641,
                    "time": 73.71778342500001,
                    "velocity": 1
                },
                {
                    "duration": 0.21428550000000257,
                    "durationTicks": 60,
                    "midi": 76,
                    "name": "E5",
                    "ticks": 20701,
                    "time": 73.932068925,
                    "velocity": 1
                },
                {
                    "duration": 0.21428550000000257,
                    "durationTicks": 60,
                    "midi": 74,
                    "name": "D5",
                    "ticks": 20761,
                    "time": 74.146354425,
                    "velocity": 1
                },
                {
                    "duration": 0.8571419999999961,
                    "durationTicks": 240,
                    "midi": 76,
                    "name": "E5",
                    "ticks": 20821,
                    "time": 74.360639925,
                    "velocity": 1
                },
                {
                    "duration": 0.21428550000000257,
                    "durationTicks": 60,
                    "midi": 74,
                    "name": "D5",
                    "ticks": 21061,
                    "time": 75.217781925,
                    "velocity": 1
                },
                {
                    "duration": 0.21428550000000257,
                    "durationTicks": 60,
                    "midi": 76,
                    "name": "E5",
                    "ticks": 21121,
                    "time": 75.432067425,
                    "velocity": 1
                },
                {
                    "duration": 0.21428550000000257,
                    "durationTicks": 60,
                    "midi": 76,
                    "name": "E5",
                    "ticks": 21181,
                    "time": 75.646352925,
                    "velocity": 1
                },
                {
                    "duration": 0.21428550000000257,
                    "durationTicks": 60,
                    "midi": 76,
                    "name": "E5",
                    "ticks": 21241,
                    "time": 75.860638425,
                    "velocity": 1
                },
                {
                    "duration": 0.21428550000000257,
                    "durationTicks": 60,
                    "midi": 76,
                    "name": "E5",
                    "ticks": 21301,
                    "time": 76.07492392500001,
                    "velocity": 1
                },
                {
                    "duration": 0.21428550000000257,
                    "durationTicks": 60,
                    "midi": 76,
                    "name": "E5",
                    "ticks": 21721,
                    "time": 77.574922425,
                    "velocity": 1
                },
                {
                    "duration": 0.21428550000000257,
                    "durationTicks": 60,
                    "midi": 74,
                    "name": "D5",
                    "ticks": 21781,
                    "time": 77.789207925,
                    "velocity": 1
                },
                {
                    "duration": 0.21428550000000257,
                    "durationTicks": 60,
                    "midi": 76,
                    "name": "E5",
                    "ticks": 21841,
                    "time": 78.003493425,
                    "velocity": 1
                },
                {
                    "duration": 0.21428550000000257,
                    "durationTicks": 60,
                    "midi": 74,
                    "name": "D5",
                    "ticks": 21901,
                    "time": 78.217778925,
                    "velocity": 1
                },
                {
                    "duration": 0.21428550000000257,
                    "durationTicks": 60,
                    "midi": 76,
                    "name": "E5",
                    "ticks": 21961,
                    "time": 78.43206442500001,
                    "velocity": 1
                },
                {
                    "duration": 0.21428549999998836,
                    "durationTicks": 60,
                    "midi": 74,
                    "name": "D5",
                    "ticks": 22021,
                    "time": 78.64634992500001,
                    "velocity": 1
                },
                {
                    "duration": 0.21428550000000257,
                    "durationTicks": 60,
                    "midi": 76,
                    "name": "E5",
                    "ticks": 22081,
                    "time": 78.860635425,
                    "velocity": 1
                },
                {
                    "duration": 0.21428550000000257,
                    "durationTicks": 60,
                    "midi": 78,
                    "name": "F#5",
                    "ticks": 22141,
                    "time": 79.074920925,
                    "velocity": 1
                },
                {
                    "duration": 0.21428550000000257,
                    "durationTicks": 60,
                    "midi": 79,
                    "name": "G5",
                    "ticks": 22201,
                    "time": 79.289206425,
                    "velocity": 1
                },
                {
                    "duration": 0.21428550000000257,
                    "durationTicks": 60,
                    "midi": 76,
                    "name": "E5",
                    "ticks": 22261,
                    "time": 79.503491925,
                    "velocity": 1
                },
                {
                    "duration": 0.42857099999999093,
                    "durationTicks": 120,
                    "midi": 74,
                    "name": "D5",
                    "ticks": 22321,
                    "time": 79.71777742500001,
                    "velocity": 1
                },
                {
                    "duration": 0.21428550000000257,
                    "durationTicks": 60,
                    "midi": 74,
                    "name": "D5",
                    "ticks": 22441,
                    "time": 80.146348425,
                    "velocity": 1
                },
                {
                    "duration": 0.21428550000000257,
                    "durationTicks": 60,
                    "midi": 74,
                    "name": "D5",
                    "ticks": 22501,
                    "time": 80.360633925,
                    "velocity": 1
                },
                {
                    "duration": 0.21428550000000257,
                    "durationTicks": 60,
                    "midi": 76,
                    "name": "E5",
                    "ticks": 22561,
                    "time": 80.574919425,
                    "velocity": 1
                },
                {
                    "duration": 0.42857099999999093,
                    "durationTicks": 120,
                    "midi": 76,
                    "name": "E5",
                    "ticks": 22621,
                    "time": 80.789204925,
                    "velocity": 1
                },
                {
                    "duration": 0.21428550000000257,
                    "durationTicks": 60,
                    "midi": 76,
                    "name": "E5",
                    "ticks": 22741,
                    "time": 81.217775925,
                    "velocity": 1
                },
                {
                    "duration": 0.21428550000000257,
                    "durationTicks": 60,
                    "midi": 76,
                    "name": "E5",
                    "ticks": 22861,
                    "time": 81.646346925,
                    "velocity": 1
                },
                {
                    "duration": 0.21428550000000257,
                    "durationTicks": 60,
                    "midi": 76,
                    "name": "E5",
                    "ticks": 22921,
                    "time": 81.860632425,
                    "velocity": 1
                },
                {
                    "duration": 0.21428549999998836,
                    "durationTicks": 60,
                    "midi": 76,
                    "name": "E5",
                    "ticks": 22981,
                    "time": 82.07491792500001,
                    "velocity": 1
                },
                {
                    "duration": 0.21428550000000257,
                    "durationTicks": 60,
                    "midi": 76,
                    "name": "E5",
                    "ticks": 23041,
                    "time": 82.289203425,
                    "velocity": 1
                },
                {
                    "duration": 0.21428550000000257,
                    "durationTicks": 60,
                    "midi": 76,
                    "name": "E5",
                    "ticks": 23101,
                    "time": 82.503488925,
                    "velocity": 1
                },
                {
                    "duration": 0.21428550000000257,
                    "durationTicks": 60,
                    "midi": 76,
                    "name": "E5",
                    "ticks": 23161,
                    "time": 82.717774425,
                    "velocity": 1
                },
                {
                    "duration": 0.42857100000000514,
                    "durationTicks": 120,
                    "midi": 76,
                    "name": "E5",
                    "ticks": 23221,
                    "time": 82.932059925,
                    "velocity": 1
                },
                {
                    "duration": 0.21428550000000257,
                    "durationTicks": 60,
                    "midi": 76,
                    "name": "E5",
                    "ticks": 23521,
                    "time": 84.003487425,
                    "velocity": 1
                },
                {
                    "duration": 0.21428550000000257,
                    "durationTicks": 60,
                    "midi": 76,
                    "name": "E5",
                    "ticks": 23581,
                    "time": 84.217772925,
                    "velocity": 1
                },
                {
                    "duration": 0.21428550000000257,
                    "durationTicks": 60,
                    "midi": 76,
                    "name": "E5",
                    "ticks": 23761,
                    "time": 84.860629425,
                    "velocity": 1
                },
                {
                    "duration": 0.21428550000000257,
                    "durationTicks": 60,
                    "midi": 76,
                    "name": "E5",
                    "ticks": 23821,
                    "time": 85.074914925,
                    "velocity": 1
                },
                {
                    "duration": 0.42857100000000514,
                    "durationTicks": 120,
                    "midi": 76,
                    "name": "E5",
                    "ticks": 23881,
                    "time": 85.289200425,
                    "velocity": 1
                },
                {
                    "duration": 0.21428549999998836,
                    "durationTicks": 60,
                    "midi": 76,
                    "name": "E5",
                    "ticks": 24001,
                    "time": 85.71777142500001,
                    "velocity": 1
                },
                {
                    "duration": 0.21428550000000257,
                    "durationTicks": 60,
                    "midi": 76,
                    "name": "E5",
                    "ticks": 24061,
                    "time": 85.932056925,
                    "velocity": 1
                },
                {
                    "duration": 0.21428550000000257,
                    "durationTicks": 60,
                    "midi": 76,
                    "name": "E5",
                    "ticks": 24241,
                    "time": 86.574913425,
                    "velocity": 1
                },
                {
                    "duration": 0.21428550000000257,
                    "durationTicks": 60,
                    "midi": 76,
                    "name": "E5",
                    "ticks": 24301,
                    "time": 86.78919892500001,
                    "velocity": 1
                },
                {
                    "duration": 0.42857099999999093,
                    "durationTicks": 120,
                    "midi": 76,
                    "name": "E5",
                    "ticks": 24361,
                    "time": 87.00348442500001,
                    "velocity": 1
                },
                {
                    "duration": 0.21428550000000257,
                    "durationTicks": 60,
                    "midi": 76,
                    "name": "E5",
                    "ticks": 24481,
                    "time": 87.432055425,
                    "velocity": 1
                },
                {
                    "duration": 0.21428550000000257,
                    "durationTicks": 60,
                    "midi": 69,
                    "name": "A4",
                    "ticks": 24541,
                    "time": 87.646340925,
                    "velocity": 1
                },
                {
                    "duration": 0.21428549999998836,
                    "durationTicks": 60,
                    "midi": 76,
                    "name": "E5",
                    "ticks": 24661,
                    "time": 88.07491192500001,
                    "velocity": 1
                },
                {
                    "duration": 0.21428550000000257,
                    "durationTicks": 60,
                    "midi": 76,
                    "name": "E5",
                    "ticks": 24721,
                    "time": 88.289197425,
                    "velocity": 1
                },
                {
                    "duration": 0.21428550000000257,
                    "durationTicks": 60,
                    "midi": 76,
                    "name": "E5",
                    "ticks": 24781,
                    "time": 88.503482925,
                    "velocity": 1
                },
                {
                    "duration": 0.42857100000000514,
                    "durationTicks": 120,
                    "midi": 76,
                    "name": "E5",
                    "ticks": 24841,
                    "time": 88.717768425,
                    "velocity": 1
                },
                {
                    "duration": 0.21428550000000257,
                    "durationTicks": 60,
                    "midi": 76,
                    "name": "E5",
                    "ticks": 25441,
                    "time": 90.860623425,
                    "velocity": 1
                },
                {
                    "duration": 0.21428550000000257,
                    "durationTicks": 60,
                    "midi": 76,
                    "name": "E5",
                    "ticks": 25501,
                    "time": 91.074908925,
                    "velocity": 1
                },
                {
                    "duration": 0.21428549999998836,
                    "durationTicks": 60,
                    "midi": 76,
                    "name": "E5",
                    "ticks": 25681,
                    "time": 91.71776542500001,
                    "velocity": 1
                },
                {
                    "duration": 0.21428550000000257,
                    "durationTicks": 60,
                    "midi": 76,
                    "name": "E5",
                    "ticks": 25741,
                    "time": 91.932050925,
                    "velocity": 1
                },
                {
                    "duration": 0.42857100000000514,
                    "durationTicks": 120,
                    "midi": 76,
                    "name": "E5",
                    "ticks": 25801,
                    "time": 92.146336425,
                    "velocity": 1
                },
                {
                    "duration": 0.21428550000000257,
                    "durationTicks": 60,
                    "midi": 76,
                    "name": "E5",
                    "ticks": 25921,
                    "time": 92.574907425,
                    "velocity": 1
                },
                {
                    "duration": 0.21428550000000257,
                    "durationTicks": 60,
                    "midi": 76,
                    "name": "E5",
                    "ticks": 25981,
                    "time": 92.78919292500001,
                    "velocity": 1
                },
                {
                    "duration": 0.21428550000000257,
                    "durationTicks": 60,
                    "midi": 76,
                    "name": "E5",
                    "ticks": 26161,
                    "time": 93.432049425,
                    "velocity": 1
                },
                {
                    "duration": 0.21428550000000257,
                    "durationTicks": 60,
                    "midi": 76,
                    "name": "E5",
                    "ticks": 26221,
                    "time": 93.646334925,
                    "velocity": 1
                },
                {
                    "duration": 0.42857099999999093,
                    "durationTicks": 120,
                    "midi": 76,
                    "name": "E5",
                    "ticks": 26281,
                    "time": 93.86062042500001,
                    "velocity": 1
                },
                {
                    "duration": 0.21428550000000257,
                    "durationTicks": 60,
                    "midi": 76,
                    "name": "E5",
                    "ticks": 26401,
                    "time": 94.289191425,
                    "velocity": 1
                },
                {
                    "duration": 0.21428550000000257,
                    "durationTicks": 60,
                    "midi": 69,
                    "name": "A4",
                    "ticks": 26461,
                    "time": 94.503476925,
                    "velocity": 1
                },
                {
                    "duration": 0.21428550000000257,
                    "durationTicks": 60,
                    "midi": 76,
                    "name": "E5",
                    "ticks": 26581,
                    "time": 94.932047925,
                    "velocity": 1
                },
                {
                    "duration": 0.21428550000000257,
                    "durationTicks": 60,
                    "midi": 76,
                    "name": "E5",
                    "ticks": 26641,
                    "time": 95.14633342500001,
                    "velocity": 1
                },
                {
                    "duration": 0.21428549999998836,
                    "durationTicks": 60,
                    "midi": 76,
                    "name": "E5",
                    "ticks": 26701,
                    "time": 95.36061892500001,
                    "velocity": 1
                },
                {
                    "duration": 0.42857100000000514,
                    "durationTicks": 120,
                    "midi": 76,
                    "name": "E5",
                    "ticks": 26761,
                    "time": 95.574904425,
                    "velocity": 1
                },
                {
                    "duration": 0.21428550000000257,
                    "durationTicks": 60,
                    "midi": 74,
                    "name": "D5",
                    "ticks": 27841,
                    "time": 99.432043425,
                    "velocity": 1
                },
                {
                    "duration": 1.9285694999999947,
                    "durationTicks": 540,
                    "midi": 76,
                    "name": "E5",
                    "ticks": 27901,
                    "time": 99.646328925,
                    "velocity": 1
                },
                {
                    "duration": 0.2857140000000129,
                    "durationTicks": 80,
                    "midi": 77,
                    "name": "F5",
                    "ticks": 28561,
                    "time": 102.003469425,
                    "velocity": 1
                },
                {
                    "duration": 0.2857139999999845,
                    "durationTicks": 80,
                    "midi": 77,
                    "name": "F5",
                    "ticks": 28641,
                    "time": 102.28918342500002,
                    "velocity": 1
                },
                {
                    "duration": 0.2857139999999987,
                    "durationTicks": 80,
                    "midi": 77,
                    "name": "F5",
                    "ticks": 28721,
                    "time": 102.574897425,
                    "velocity": 1
                },
                {
                    "duration": 0.42857100000000514,
                    "durationTicks": 120,
                    "midi": 76,
                    "name": "E5",
                    "ticks": 28801,
                    "time": 102.860611425,
                    "velocity": 1
                },
                {
                    "duration": 0.21428550000000257,
                    "durationTicks": 60,
                    "midi": 74,
                    "name": "D5",
                    "ticks": 29761,
                    "time": 106.289179425,
                    "velocity": 1
                },
                {
                    "duration": 1.928569500000009,
                    "durationTicks": 540,
                    "midi": 76,
                    "name": "E5",
                    "ticks": 29821,
                    "time": 106.503464925,
                    "velocity": 1
                },
                {
                    "duration": 0.2857140000000129,
                    "durationTicks": 80,
                    "midi": 77,
                    "name": "F5",
                    "ticks": 30481,
                    "time": 108.860605425,
                    "velocity": 1
                },
                {
                    "duration": 0.2857139999999987,
                    "durationTicks": 80,
                    "midi": 77,
                    "name": "F5",
                    "ticks": 30561,
                    "time": 109.14631942500002,
                    "velocity": 1
                },
                {
                    "duration": 0.2857139999999845,
                    "durationTicks": 80,
                    "midi": 77,
                    "name": "F5",
                    "ticks": 30641,
                    "time": 109.43203342500001,
                    "velocity": 1
                },
                {
                    "duration": 0.8571420000000103,
                    "durationTicks": 240,
                    "midi": 83,
                    "name": "B5",
                    "ticks": 30721,
                    "time": 109.717747425,
                    "velocity": 1
                },
                {
                    "duration": 0.21428549999998836,
                    "durationTicks": 60,
                    "midi": 74,
                    "name": "D5",
                    "ticks": 31681,
                    "time": 113.14631542500001,
                    "velocity": 1
                },
                {
                    "duration": 1.928569500000009,
                    "durationTicks": 540,
                    "midi": 76,
                    "name": "E5",
                    "ticks": 31741,
                    "time": 113.360600925,
                    "velocity": 1
                },
                {
                    "duration": 0.2857140000000129,
                    "durationTicks": 80,
                    "midi": 77,
                    "name": "F5",
                    "ticks": 32401,
                    "time": 115.717741425,
                    "velocity": 1
                },
                {
                    "duration": 0.2857139999999845,
                    "durationTicks": 80,
                    "midi": 77,
                    "name": "F5",
                    "ticks": 32481,
                    "time": 116.00345542500001,
                    "velocity": 1
                },
                {
                    "duration": 0.2857140000000129,
                    "durationTicks": 80,
                    "midi": 77,
                    "name": "F5",
                    "ticks": 32561,
                    "time": 116.289169425,
                    "velocity": 1
                },
                {
                    "duration": 0.42857099999999093,
                    "durationTicks": 120,
                    "midi": 76,
                    "name": "E5",
                    "ticks": 32641,
                    "time": 116.57488342500001,
                    "velocity": 1
                },
                {
                    "duration": 0.21428550000000257,
                    "durationTicks": 60,
                    "midi": 74,
                    "name": "D5",
                    "ticks": 33601,
                    "time": 120.00345142500001,
                    "velocity": 1
                },
                {
                    "duration": 1.9285694999999947,
                    "durationTicks": 540,
                    "midi": 76,
                    "name": "E5",
                    "ticks": 33661,
                    "time": 120.21773692500001,
                    "velocity": 1
                },
                {
                    "duration": 0.2857139999999987,
                    "durationTicks": 80,
                    "midi": 77,
                    "name": "F5",
                    "ticks": 34321,
                    "time": 122.57487742500001,
                    "velocity": 1
                },
                {
                    "duration": 0.2857139999999845,
                    "durationTicks": 80,
                    "midi": 77,
                    "name": "F5",
                    "ticks": 34401,
                    "time": 122.86059142500001,
                    "velocity": 1
                },
                {
                    "duration": 0.2857140000000129,
                    "durationTicks": 80,
                    "midi": 77,
                    "name": "F5",
                    "ticks": 34481,
                    "time": 123.146305425,
                    "velocity": 1
                },
                {
                    "duration": 0.42857100000000514,
                    "durationTicks": 120,
                    "midi": 76,
                    "name": "E5",
                    "ticks": 34561,
                    "time": 123.43201942500001,
                    "velocity": 1
                },
                {
                    "duration": 0.21428549999998836,
                    "durationTicks": 60,
                    "midi": 76,
                    "name": "E5",
                    "ticks": 38281,
                    "time": 136.717720425,
                    "velocity": 1
                },
                {
                    "duration": 0.21428550000001678,
                    "durationTicks": 60,
                    "midi": 74,
                    "name": "D5",
                    "ticks": 38341,
                    "time": 136.932005925,
                    "velocity": 1
                },
                {
                    "duration": 0.21428549999998836,
                    "durationTicks": 60,
                    "midi": 76,
                    "name": "E5",
                    "ticks": 38401,
                    "time": 137.14629142500002,
                    "velocity": 1
                },
                {
                    "duration": 0.21428550000001678,
                    "durationTicks": 60,
                    "midi": 76,
                    "name": "E5",
                    "ticks": 38461,
                    "time": 137.360576925,
                    "velocity": 1
                },
                {
                    "duration": 0.21428549999998836,
                    "durationTicks": 60,
                    "midi": 76,
                    "name": "E5",
                    "ticks": 38521,
                    "time": 137.57486242500002,
                    "velocity": 1
                },
                {
                    "duration": 0.6428564999999935,
                    "durationTicks": 180,
                    "midi": 76,
                    "name": "E5",
                    "ticks": 38581,
                    "time": 137.789147925,
                    "velocity": 1
                },
                {
                    "duration": 0.21428550000001678,
                    "durationTicks": 60,
                    "midi": 76,
                    "name": "E5",
                    "ticks": 38761,
                    "time": 138.432004425,
                    "velocity": 1
                },
                {
                    "duration": 0.21428549999998836,
                    "durationTicks": 60,
                    "midi": 74,
                    "name": "D5",
                    "ticks": 38821,
                    "time": 138.64628992500002,
                    "velocity": 1
                },
                {
                    "duration": 0.21428549999998836,
                    "durationTicks": 60,
                    "midi": 76,
                    "name": "E5",
                    "ticks": 38881,
                    "time": 138.860575425,
                    "velocity": 1
                },
                {
                    "duration": 0.21428550000001678,
                    "durationTicks": 60,
                    "midi": 76,
                    "name": "E5",
                    "ticks": 38941,
                    "time": 139.074860925,
                    "velocity": 1
                },
                {
                    "duration": 0.21428549999998836,
                    "durationTicks": 60,
                    "midi": 79,
                    "name": "G5",
                    "ticks": 39001,
                    "time": 139.289146425,
                    "velocity": 1
                },
                {
                    "duration": 0.21428550000001678,
                    "durationTicks": 60,
                    "midi": 76,
                    "name": "E5",
                    "ticks": 39061,
                    "time": 139.503431925,
                    "velocity": 1
                },
                {
                    "duration": 0.21428549999998836,
                    "durationTicks": 60,
                    "midi": 74,
                    "name": "D5",
                    "ticks": 39301,
                    "time": 140.360573925,
                    "velocity": 1
                },
                {
                    "duration": 0.21428550000001678,
                    "durationTicks": 60,
                    "midi": 76,
                    "name": "E5",
                    "ticks": 39361,
                    "time": 140.574859425,
                    "velocity": 1
                },
                {
                    "duration": 0.21428549999998836,
                    "durationTicks": 60,
                    "midi": 76,
                    "name": "E5",
                    "ticks": 39421,
                    "time": 140.78914492500002,
                    "velocity": 1
                },
                {
                    "duration": 0.21428550000001678,
                    "durationTicks": 60,
                    "midi": 74,
                    "name": "D5",
                    "ticks": 39481,
                    "time": 141.003430425,
                    "velocity": 1
                },
                {
                    "duration": 0.8571419999999819,
                    "durationTicks": 240,
                    "midi": 76,
                    "name": "E5",
                    "ticks": 39541,
                    "time": 141.21771592500002,
                    "velocity": 1
                },
                {
                    "duration": 0.21428550000001678,
                    "durationTicks": 60,
                    "midi": 74,
                    "name": "D5",
                    "ticks": 39781,
                    "time": 142.074857925,
                    "velocity": 1
                },
                {
                    "duration": 0.21428549999998836,
                    "durationTicks": 60,
                    "midi": 76,
                    "name": "E5",
                    "ticks": 39841,
                    "time": 142.28914342500002,
                    "velocity": 1
                },
                {
                    "duration": 0.21428549999998836,
                    "durationTicks": 60,
                    "midi": 76,
                    "name": "E5",
                    "ticks": 39901,
                    "time": 142.503428925,
                    "velocity": 1
                },
                {
                    "duration": 0.21428550000001678,
                    "durationTicks": 60,
                    "midi": 76,
                    "name": "E5",
                    "ticks": 39961,
                    "time": 142.717714425,
                    "velocity": 1
                },
                {
                    "duration": 0.21428549999998836,
                    "durationTicks": 60,
                    "midi": 76,
                    "name": "E5",
                    "ticks": 40021,
                    "time": 142.931999925,
                    "velocity": 1
                },
                {
                    "duration": 0.21428549999998836,
                    "durationTicks": 60,
                    "midi": 76,
                    "name": "E5",
                    "ticks": 40441,
                    "time": 144.43199842500002,
                    "velocity": 1
                },
                {
                    "duration": 0.21428550000001678,
                    "durationTicks": 60,
                    "midi": 74,
                    "name": "D5",
                    "ticks": 40501,
                    "time": 144.646283925,
                    "velocity": 1
                },
                {
                    "duration": 0.21428549999998836,
                    "durationTicks": 60,
                    "midi": 76,
                    "name": "E5",
                    "ticks": 40561,
                    "time": 144.86056942500002,
                    "velocity": 1
                },
                {
                    "duration": 0.21428549999998836,
                    "durationTicks": 60,
                    "midi": 74,
                    "name": "D5",
                    "ticks": 40621,
                    "time": 145.074854925,
                    "velocity": 1
                },
                {
                    "duration": 0.21428550000001678,
                    "durationTicks": 60,
                    "midi": 76,
                    "name": "E5",
                    "ticks": 40681,
                    "time": 145.289140425,
                    "velocity": 1
                },
                {
                    "duration": 0.21428549999998836,
                    "durationTicks": 60,
                    "midi": 74,
                    "name": "D5",
                    "ticks": 40741,
                    "time": 145.50342592500002,
                    "velocity": 1
                },
                {
                    "duration": 0.21428550000001678,
                    "durationTicks": 60,
                    "midi": 76,
                    "name": "E5",
                    "ticks": 40801,
                    "time": 145.717711425,
                    "velocity": 1
                },
                {
                    "duration": 0.21428549999998836,
                    "durationTicks": 60,
                    "midi": 78,
                    "name": "F#5",
                    "ticks": 40861,
                    "time": 145.93199692500002,
                    "velocity": 1
                },
                {
                    "duration": 0.21428549999998836,
                    "durationTicks": 60,
                    "midi": 79,
                    "name": "G5",
                    "ticks": 40921,
                    "time": 146.146282425,
                    "velocity": 1
                },
                {
                    "duration": 0.21428550000001678,
                    "durationTicks": 60,
                    "midi": 76,
                    "name": "E5",
                    "ticks": 40981,
                    "time": 146.360567925,
                    "velocity": 1
                },
                {
                    "duration": 0.42857100000000514,
                    "durationTicks": 120,
                    "midi": 74,
                    "name": "D5",
                    "ticks": 41041,
                    "time": 146.57485342500001,
                    "velocity": 1
                },
                {
                    "duration": 0.21428549999998836,
                    "durationTicks": 60,
                    "midi": 74,
                    "name": "D5",
                    "ticks": 41161,
                    "time": 147.00342442500002,
                    "velocity": 1
                },
                {
                    "duration": 0.21428549999998836,
                    "durationTicks": 60,
                    "midi": 74,
                    "name": "D5",
                    "ticks": 41221,
                    "time": 147.217709925,
                    "velocity": 1
                },
                {
                    "duration": 0.21428550000001678,
                    "durationTicks": 60,
                    "midi": 76,
                    "name": "E5",
                    "ticks": 41281,
                    "time": 147.431995425,
                    "velocity": 1
                },
                {
                    "duration": 0.42857100000000514,
                    "durationTicks": 120,
                    "midi": 76,
                    "name": "E5",
                    "ticks": 41341,
                    "time": 147.646280925,
                    "velocity": 1
                },
                {
                    "duration": 0.21428549999998836,
                    "durationTicks": 60,
                    "midi": 76,
                    "name": "E5",
                    "ticks": 41461,
                    "time": 148.07485192500002,
                    "velocity": 1
                },
                {
                    "duration": 0.21428550000001678,
                    "durationTicks": 60,
                    "midi": 76,
                    "name": "E5",
                    "ticks": 41581,
                    "time": 148.503422925,
                    "velocity": 1
                },
                {
                    "duration": 0.21428549999998836,
                    "durationTicks": 60,
                    "midi": 76,
                    "name": "E5",
                    "ticks": 41641,
                    "time": 148.717708425,
                    "velocity": 1
                },
                {
                    "duration": 0.21428550000001678,
                    "durationTicks": 60,
                    "midi": 76,
                    "name": "E5",
                    "ticks": 41701,
                    "time": 148.931993925,
                    "velocity": 1
                },
                {
                    "duration": 0.21428549999998836,
                    "durationTicks": 60,
                    "midi": 76,
                    "name": "E5",
                    "ticks": 41761,
                    "time": 149.14627942500002,
                    "velocity": 1
                },
                {
                    "duration": 0.21428550000001678,
                    "durationTicks": 60,
                    "midi": 76,
                    "name": "E5",
                    "ticks": 41821,
                    "time": 149.360564925,
                    "velocity": 1
                },
                {
                    "duration": 0.21428549999998836,
                    "durationTicks": 60,
                    "midi": 76,
                    "name": "E5",
                    "ticks": 41881,
                    "time": 149.57485042500002,
                    "velocity": 1
                },
                {
                    "duration": 0.42857100000000514,
                    "durationTicks": 120,
                    "midi": 76,
                    "name": "E5",
                    "ticks": 41941,
                    "time": 149.789135925,
                    "velocity": 1
                },
                {
                    "duration": 0.21428549999998836,
                    "durationTicks": 60,
                    "midi": 76,
                    "name": "E5",
                    "ticks": 42241,
                    "time": 150.860563425,
                    "velocity": 1
                },
                {
                    "duration": 0.21428550000001678,
                    "durationTicks": 60,
                    "midi": 76,
                    "name": "E5",
                    "ticks": 42301,
                    "time": 151.074848925,
                    "velocity": 1
                },
                {
                    "duration": 0.21428549999998836,
                    "durationTicks": 60,
                    "midi": 76,
                    "name": "E5",
                    "ticks": 42481,
                    "time": 151.71770542500002,
                    "velocity": 1
                },
                {
                    "duration": 0.21428549999998836,
                    "durationTicks": 60,
                    "midi": 76,
                    "name": "E5",
                    "ticks": 42541,
                    "time": 151.931990925,
                    "velocity": 1
                },
                {
                    "duration": 0.42857100000000514,
                    "durationTicks": 120,
                    "midi": 76,
                    "name": "E5",
                    "ticks": 42601,
                    "time": 152.146276425,
                    "velocity": 1
                },
                {
                    "duration": 0.21428550000001678,
                    "durationTicks": 60,
                    "midi": 76,
                    "name": "E5",
                    "ticks": 42721,
                    "time": 152.574847425,
                    "velocity": 1
                },
                {
                    "duration": 0.21428549999998836,
                    "durationTicks": 60,
                    "midi": 76,
                    "name": "E5",
                    "ticks": 42781,
                    "time": 152.78913292500002,
                    "velocity": 1
                },
                {
                    "duration": 0.21428549999998836,
                    "durationTicks": 60,
                    "midi": 76,
                    "name": "E5",
                    "ticks": 42961,
                    "time": 153.431989425,
                    "velocity": 1
                },
                {
                    "duration": 0.21428550000001678,
                    "durationTicks": 60,
                    "midi": 76,
                    "name": "E5",
                    "ticks": 43021,
                    "time": 153.646274925,
                    "velocity": 1
                },
                {
                    "duration": 0.42857100000000514,
                    "durationTicks": 120,
                    "midi": 76,
                    "name": "E5",
                    "ticks": 43081,
                    "time": 153.86056042500002,
                    "velocity": 1
                },
                {
                    "duration": 0.21428549999998836,
                    "durationTicks": 60,
                    "midi": 76,
                    "name": "E5",
                    "ticks": 43201,
                    "time": 154.28913142500002,
                    "velocity": 1
                },
                {
                    "duration": 0.21428549999998836,
                    "durationTicks": 60,
                    "midi": 69,
                    "name": "A4",
                    "ticks": 43261,
                    "time": 154.503416925,
                    "velocity": 1
                },
                {
                    "duration": 0.21428549999998836,
                    "durationTicks": 60,
                    "midi": 76,
                    "name": "E5",
                    "ticks": 43381,
                    "time": 154.93198792500002,
                    "velocity": 1
                },
                {
                    "duration": 0.21428550000001678,
                    "durationTicks": 60,
                    "midi": 76,
                    "name": "E5",
                    "ticks": 43441,
                    "time": 155.146273425,
                    "velocity": 1
                },
                {
                    "duration": 0.21428549999998836,
                    "durationTicks": 60,
                    "midi": 76,
                    "name": "E5",
                    "ticks": 43501,
                    "time": 155.36055892500002,
                    "velocity": 1
                },
                {
                    "duration": 0.42857100000000514,
                    "durationTicks": 120,
                    "midi": 76,
                    "name": "E5",
                    "ticks": 43561,
                    "time": 155.574844425,
                    "velocity": 1
                },
                {
                    "duration": 0.21428550000001678,
                    "durationTicks": 60,
                    "midi": 76,
                    "name": "E5",
                    "ticks": 44161,
                    "time": 157.717699425,
                    "velocity": 1
                },
                {
                    "duration": 0.21428549999998836,
                    "durationTicks": 60,
                    "midi": 76,
                    "name": "E5",
                    "ticks": 44221,
                    "time": 157.93198492500002,
                    "velocity": 1
                },
                {
                    "duration": 0.21428549999998836,
                    "durationTicks": 60,
                    "midi": 76,
                    "name": "E5",
                    "ticks": 44401,
                    "time": 158.57484142500002,
                    "velocity": 1
                },
                {
                    "duration": 0.21428550000001678,
                    "durationTicks": 60,
                    "midi": 76,
                    "name": "E5",
                    "ticks": 44461,
                    "time": 158.789126925,
                    "velocity": 1
                },
                {
                    "duration": 0.4285709999999767,
                    "durationTicks": 120,
                    "midi": 76,
                    "name": "E5",
                    "ticks": 44521,
                    "time": 159.00341242500002,
                    "velocity": 1
                },
                {
                    "duration": 0.21428550000001678,
                    "durationTicks": 60,
                    "midi": 76,
                    "name": "E5",
                    "ticks": 44641,
                    "time": 159.431983425,
                    "velocity": 1
                },
                {
                    "duration": 0.21428549999998836,
                    "durationTicks": 60,
                    "midi": 76,
                    "name": "E5",
                    "ticks": 44701,
                    "time": 159.64626892500002,
                    "velocity": 1
                },
                {
                    "duration": 0.21428549999998836,
                    "durationTicks": 60,
                    "midi": 76,
                    "name": "E5",
                    "ticks": 44881,
                    "time": 160.289125425,
                    "velocity": 1
                },
                {
                    "duration": 0.21428550000001678,
                    "durationTicks": 60,
                    "midi": 76,
                    "name": "E5",
                    "ticks": 44941,
                    "time": 160.503410925,
                    "velocity": 1
                },
                {
                    "duration": 0.42857100000000514,
                    "durationTicks": 120,
                    "midi": 76,
                    "name": "E5",
                    "ticks": 45001,
                    "time": 160.717696425,
                    "velocity": 1
                },
                {
                    "duration": 0.21428549999998836,
                    "durationTicks": 60,
                    "midi": 76,
                    "name": "E5",
                    "ticks": 45121,
                    "time": 161.14626742500002,
                    "velocity": 1
                },
                {
                    "duration": 0.21428550000001678,
                    "durationTicks": 60,
                    "midi": 69,
                    "name": "A4",
                    "ticks": 45181,
                    "time": 161.360552925,
                    "velocity": 1
                },
                {
                    "duration": 0.21428549999998836,
                    "durationTicks": 60,
                    "midi": 76,
                    "name": "E5",
                    "ticks": 45301,
                    "time": 161.789123925,
                    "velocity": 1
                },
                {
                    "duration": 0.21428550000001678,
                    "durationTicks": 60,
                    "midi": 76,
                    "name": "E5",
                    "ticks": 45361,
                    "time": 162.003409425,
                    "velocity": 1
                },
                {
                    "duration": 0.21428549999998836,
                    "durationTicks": 60,
                    "midi": 76,
                    "name": "E5",
                    "ticks": 45421,
                    "time": 162.21769492500002,
                    "velocity": 1
                },
                {
                    "duration": 0.42857100000000514,
                    "durationTicks": 120,
                    "midi": 76,
                    "name": "E5",
                    "ticks": 45481,
                    "time": 162.431980425,
                    "velocity": 1
                },
                {
                    "duration": 0.21428549999998836,
                    "durationTicks": 60,
                    "midi": 74,
                    "name": "D5",
                    "ticks": 46561,
                    "time": 166.28911942500002,
                    "velocity": 1
                },
                {
                    "duration": 1.928569500000009,
                    "durationTicks": 540,
                    "midi": 76,
                    "name": "E5",
                    "ticks": 46621,
                    "time": 166.503404925,
                    "velocity": 1
                },
                {
                    "duration": 0.2857140000000129,
                    "durationTicks": 80,
                    "midi": 77,
                    "name": "F5",
                    "ticks": 47281,
                    "time": 168.860545425,
                    "velocity": 1
                },
                {
                    "duration": 0.2857139999999845,
                    "durationTicks": 80,
                    "midi": 77,
                    "name": "F5",
                    "ticks": 47361,
                    "time": 169.146259425,
                    "velocity": 1
                },
                {
                    "duration": 0.2857140000000129,
                    "durationTicks": 80,
                    "midi": 77,
                    "name": "F5",
                    "ticks": 47441,
                    "time": 169.431973425,
                    "velocity": 1
                },
                {
                    "duration": 0.42857100000000514,
                    "durationTicks": 120,
                    "midi": 76,
                    "name": "E5",
                    "ticks": 47521,
                    "time": 169.717687425,
                    "velocity": 1
                },
                {
                    "duration": 0.21428549999998836,
                    "durationTicks": 60,
                    "midi": 74,
                    "name": "D5",
                    "ticks": 48481,
                    "time": 173.14625542500002,
                    "velocity": 1
                },
                {
                    "duration": 1.928569500000009,
                    "durationTicks": 540,
                    "midi": 76,
                    "name": "E5",
                    "ticks": 48541,
                    "time": 173.360540925,
                    "velocity": 1
                },
                {
                    "duration": 0.2857139999999845,
                    "durationTicks": 80,
                    "midi": 77,
                    "name": "F5",
                    "ticks": 49201,
                    "time": 175.71768142500002,
                    "velocity": 1
                },
                {
                    "duration": 0.2857139999999845,
                    "durationTicks": 80,
                    "midi": 77,
                    "name": "F5",
                    "ticks": 49281,
                    "time": 176.003395425,
                    "velocity": 1
                },
                {
                    "duration": 0.2857140000000129,
                    "durationTicks": 80,
                    "midi": 77,
                    "name": "F5",
                    "ticks": 49361,
                    "time": 176.289109425,
                    "velocity": 1
                },
                {
                    "duration": 0.8571420000000103,
                    "durationTicks": 240,
                    "midi": 83,
                    "name": "B5",
                    "ticks": 49441,
                    "time": 176.574823425,
                    "velocity": 1
                },
                {
                    "duration": 0.21428549999998836,
                    "durationTicks": 60,
                    "midi": 74,
                    "name": "D5",
                    "ticks": 50401,
                    "time": 180.00339142500002,
                    "velocity": 1
                },
                {
                    "duration": 1.928569500000009,
                    "durationTicks": 540,
                    "midi": 76,
                    "name": "E5",
                    "ticks": 50461,
                    "time": 180.217676925,
                    "velocity": 1
                },
                {
                    "duration": 0.2857140000000129,
                    "durationTicks": 80,
                    "midi": 77,
                    "name": "F5",
                    "ticks": 51121,
                    "time": 182.57481742500002,
                    "velocity": 1
                },
                {
                    "duration": 0.2857139999999845,
                    "durationTicks": 80,
                    "midi": 77,
                    "name": "F5",
                    "ticks": 51201,
                    "time": 182.86053142500003,
                    "velocity": 1
                },
                {
                    "duration": 0.2857139999999845,
                    "durationTicks": 80,
                    "midi": 77,
                    "name": "F5",
                    "ticks": 51281,
                    "time": 183.14624542500002,
                    "velocity": 1
                },
                {
                    "duration": 0.42857100000000514,
                    "durationTicks": 120,
                    "midi": 76,
                    "name": "E5",
                    "ticks": 51361,
                    "time": 183.431959425,
                    "velocity": 1
                },
                {
                    "duration": 0.21428549999998836,
                    "durationTicks": 60,
                    "midi": 74,
                    "name": "D5",
                    "ticks": 52321,
                    "time": 186.86052742500002,
                    "velocity": 1
                },
                {
                    "duration": 1.928569500000009,
                    "durationTicks": 540,
                    "midi": 76,
                    "name": "E5",
                    "ticks": 52381,
                    "time": 187.074812925,
                    "velocity": 1
                },
                {
                    "duration": 0.2857140000000129,
                    "durationTicks": 80,
                    "midi": 77,
                    "name": "F5",
                    "ticks": 53041,
                    "time": 189.43195342500002,
                    "velocity": 1
                },
                {
                    "duration": 0.2857139999999845,
                    "durationTicks": 80,
                    "midi": 77,
                    "name": "F5",
                    "ticks": 53121,
                    "time": 189.71766742500003,
                    "velocity": 1
                },
                {
                    "duration": 0.2857139999999845,
                    "durationTicks": 80,
                    "midi": 77,
                    "name": "F5",
                    "ticks": 53201,
                    "time": 190.00338142500001,
                    "velocity": 1
                },
                {
                    "duration": 1.7131164166667077,
                    "durationTicks": 480,
                    "midi": 83,
                    "name": "B5",
                    "ticks": 53281,
                    "time": 190.289095425,
                    "velocity": 1
                },
                {
                    "duration": 0.21428550000001678,
                    "durationTicks": 60,
                    "midi": 74,
                    "name": "D5",
                    "ticks": 90661,
                    "time": 294.64608192500003,
                    "velocity": 1
                },
                {
                    "duration": 0.21428549999995994,
                    "durationTicks": 60,
                    "midi": 76,
                    "name": "E5",
                    "ticks": 90721,
                    "time": 294.86036742500005,
                    "velocity": 1
                },
                {
                    "duration": 0.21428550000001678,
                    "durationTicks": 60,
                    "midi": 76,
                    "name": "E5",
                    "ticks": 90781,
                    "time": 295.074652925,
                    "velocity": 1
                },
                {
                    "duration": 0.21428550000001678,
                    "durationTicks": 60,
                    "midi": 76,
                    "name": "E5",
                    "ticks": 90841,
                    "time": 295.288938425,
                    "velocity": 1
                },
                {
                    "duration": 0.6428564999999935,
                    "durationTicks": 180,
                    "midi": 76,
                    "name": "E5",
                    "ticks": 90901,
                    "time": 295.50322392500004,
                    "velocity": 1
                },
                {
                    "duration": 0.21428550000001678,
                    "durationTicks": 60,
                    "midi": 76,
                    "name": "E5",
                    "ticks": 91081,
                    "time": 296.14608042500004,
                    "velocity": 1
                },
                {
                    "duration": 0.21428549999995994,
                    "durationTicks": 60,
                    "midi": 74,
                    "name": "D5",
                    "ticks": 91141,
                    "time": 296.36036592500005,
                    "velocity": 1
                },
                {
                    "duration": 0.21428550000001678,
                    "durationTicks": 60,
                    "midi": 76,
                    "name": "E5",
                    "ticks": 91201,
                    "time": 296.574651425,
                    "velocity": 1
                },
                {
                    "duration": 0.21428550000001678,
                    "durationTicks": 60,
                    "midi": 76,
                    "name": "E5",
                    "ticks": 91261,
                    "time": 296.78893692500003,
                    "velocity": 1
                },
                {
                    "duration": 0.21428550000001678,
                    "durationTicks": 60,
                    "midi": 79,
                    "name": "G5",
                    "ticks": 91321,
                    "time": 297.00322242500005,
                    "velocity": 1
                },
                {
                    "duration": 0.21428549999995994,
                    "durationTicks": 60,
                    "midi": 76,
                    "name": "E5",
                    "ticks": 91381,
                    "time": 297.21750792500006,
                    "velocity": 1
                },
                {
                    "duration": 0.21428550000001678,
                    "durationTicks": 60,
                    "midi": 74,
                    "name": "D5",
                    "ticks": 91621,
                    "time": 298.074649925,
                    "velocity": 1
                },
                {
                    "duration": 0.21428550000001678,
                    "durationTicks": 60,
                    "midi": 76,
                    "name": "E5",
                    "ticks": 91681,
                    "time": 298.28893542500003,
                    "velocity": 1
                },
                {
                    "duration": 0.21428549999995994,
                    "durationTicks": 60,
                    "midi": 76,
                    "name": "E5",
                    "ticks": 91741,
                    "time": 298.50322092500005,
                    "velocity": 1
                },
                {
                    "duration": 0.21428550000001678,
                    "durationTicks": 60,
                    "midi": 74,
                    "name": "D5",
                    "ticks": 91801,
                    "time": 298.717506425,
                    "velocity": 1
                },
                {
                    "duration": 0.8571420000000103,
                    "durationTicks": 240,
                    "midi": 76,
                    "name": "E5",
                    "ticks": 91861,
                    "time": 298.931791925,
                    "velocity": 1
                },
                {
                    "duration": 0.21428550000001678,
                    "durationTicks": 60,
                    "midi": 74,
                    "name": "D5",
                    "ticks": 92101,
                    "time": 299.78893392500004,
                    "velocity": 1
                },
                {
                    "duration": 0.21428549999995994,
                    "durationTicks": 60,
                    "midi": 76,
                    "name": "E5",
                    "ticks": 92161,
                    "time": 300.00321942500005,
                    "velocity": 1
                },
                {
                    "duration": 0.21428550000001678,
                    "durationTicks": 60,
                    "midi": 76,
                    "name": "E5",
                    "ticks": 92221,
                    "time": 300.217504925,
                    "velocity": 1
                },
                {
                    "duration": 0.21428550000001678,
                    "durationTicks": 60,
                    "midi": 76,
                    "name": "E5",
                    "ticks": 92281,
                    "time": 300.43179042500003,
                    "velocity": 1
                },
                {
                    "duration": 0.21428550000001678,
                    "durationTicks": 60,
                    "midi": 76,
                    "name": "E5",
                    "ticks": 92341,
                    "time": 300.64607592500005,
                    "velocity": 1
                },
                {
                    "duration": 0.21428549999995994,
                    "durationTicks": 60,
                    "midi": 76,
                    "name": "E5",
                    "ticks": 92761,
                    "time": 302.14607442500005,
                    "velocity": 1
                },
                {
                    "duration": 0.21428550000001678,
                    "durationTicks": 60,
                    "midi": 74,
                    "name": "D5",
                    "ticks": 92821,
                    "time": 302.360359925,
                    "velocity": 1
                },
                {
                    "duration": 0.21428550000001678,
                    "durationTicks": 60,
                    "midi": 76,
                    "name": "E5",
                    "ticks": 92881,
                    "time": 302.574645425,
                    "velocity": 1
                },
                {
                    "duration": 0.21428549999995994,
                    "durationTicks": 60,
                    "midi": 74,
                    "name": "D5",
                    "ticks": 92941,
                    "time": 302.78893092500005,
                    "velocity": 1
                },
                {
                    "duration": 0.21428550000001678,
                    "durationTicks": 60,
                    "midi": 76,
                    "name": "E5",
                    "ticks": 93001,
                    "time": 303.003216425,
                    "velocity": 1
                },
                {
                    "duration": 0.21428550000001678,
                    "durationTicks": 60,
                    "midi": 74,
                    "name": "D5",
                    "ticks": 93061,
                    "time": 303.217501925,
                    "velocity": 1
                },
                {
                    "duration": 0.21428550000001678,
                    "durationTicks": 60,
                    "midi": 76,
                    "name": "E5",
                    "ticks": 93121,
                    "time": 303.43178742500004,
                    "velocity": 1
                },
                {
                    "duration": 0.21428549999995994,
                    "durationTicks": 60,
                    "midi": 78,
                    "name": "F#5",
                    "ticks": 93181,
                    "time": 303.64607292500006,
                    "velocity": 1
                },
                {
                    "duration": 0.21428550000001678,
                    "durationTicks": 60,
                    "midi": 79,
                    "name": "G5",
                    "ticks": 93241,
                    "time": 303.860358425,
                    "velocity": 1
                },
                {
                    "duration": 0.21428550000001678,
                    "durationTicks": 60,
                    "midi": 76,
                    "name": "E5",
                    "ticks": 93301,
                    "time": 304.07464392500003,
                    "velocity": 1
                },
                {
                    "duration": 0.4285709999999767,
                    "durationTicks": 120,
                    "midi": 74,
                    "name": "D5",
                    "ticks": 93361,
                    "time": 304.28892942500005,
                    "velocity": 1
                },
                {
                    "duration": 0.21428550000001678,
                    "durationTicks": 60,
                    "midi": 74,
                    "name": "D5",
                    "ticks": 93481,
                    "time": 304.717500425,
                    "velocity": 1
                },
                {
                    "duration": 0.21428550000001678,
                    "durationTicks": 60,
                    "midi": 74,
                    "name": "D5",
                    "ticks": 93541,
                    "time": 304.93178592500004,
                    "velocity": 1
                },
                {
                    "duration": 0.21428549999995994,
                    "durationTicks": 60,
                    "midi": 76,
                    "name": "E5",
                    "ticks": 93601,
                    "time": 305.14607142500006,
                    "velocity": 1
                },
                {
                    "duration": 0.42857100000003356,
                    "durationTicks": 120,
                    "midi": 76,
                    "name": "E5",
                    "ticks": 93661,
                    "time": 305.360356925,
                    "velocity": 1
                },
                {
                    "duration": 0.21428549999995994,
                    "durationTicks": 60,
                    "midi": 76,
                    "name": "E5",
                    "ticks": 93781,
                    "time": 305.78892792500005,
                    "velocity": 1
                },
                {
                    "duration": 0.21428550000001678,
                    "durationTicks": 60,
                    "midi": 76,
                    "name": "E5",
                    "ticks": 93901,
                    "time": 306.21749892500003,
                    "velocity": 1
                },
                {
                    "duration": 0.21428549999995994,
                    "durationTicks": 60,
                    "midi": 76,
                    "name": "E5",
                    "ticks": 93961,
                    "time": 306.43178442500005,
                    "velocity": 1
                },
                {
                    "duration": 0.21428550000001678,
                    "durationTicks": 60,
                    "midi": 76,
                    "name": "E5",
                    "ticks": 94021,
                    "time": 306.646069925,
                    "velocity": 1
                },
                {
                    "duration": 0.21428550000001678,
                    "durationTicks": 60,
                    "midi": 76,
                    "name": "E5",
                    "ticks": 94081,
                    "time": 306.860355425,
                    "velocity": 1
                },
                {
                    "duration": 0.21428549999995994,
                    "durationTicks": 60,
                    "midi": 76,
                    "name": "E5",
                    "ticks": 94141,
                    "time": 307.07464092500004,
                    "velocity": 1
                },
                {
                    "duration": 0.21428550000001678,
                    "durationTicks": 60,
                    "midi": 76,
                    "name": "E5",
                    "ticks": 94201,
                    "time": 307.288926425,
                    "velocity": 1
                },
                {
                    "duration": 0.42857100000003356,
                    "durationTicks": 120,
                    "midi": 76,
                    "name": "E5",
                    "ticks": 94261,
                    "time": 307.503211925,
                    "velocity": 1
                },
                {
                    "duration": 0.21428550000001678,
                    "durationTicks": 60,
                    "midi": 76,
                    "name": "E5",
                    "ticks": 94561,
                    "time": 308.57463942500004,
                    "velocity": 1
                },
                {
                    "duration": 0.21428549999995994,
                    "durationTicks": 60,
                    "midi": 76,
                    "name": "E5",
                    "ticks": 94621,
                    "time": 308.78892492500006,
                    "velocity": 1
                },
                {
                    "duration": 0.21428549999995994,
                    "durationTicks": 60,
                    "midi": 76,
                    "name": "E5",
                    "ticks": 94801,
                    "time": 309.43178142500005,
                    "velocity": 1
                },
                {
                    "duration": 0.21428550000001678,
                    "durationTicks": 60,
                    "midi": 76,
                    "name": "E5",
                    "ticks": 94861,
                    "time": 309.646066925,
                    "velocity": 1
                },
                {
                    "duration": 0.4285709999999767,
                    "durationTicks": 120,
                    "midi": 76,
                    "name": "E5",
                    "ticks": 94921,
                    "time": 309.86035242500003,
                    "velocity": 1
                },
                {
                    "duration": 0.21428550000001678,
                    "durationTicks": 60,
                    "midi": 76,
                    "name": "E5",
                    "ticks": 95041,
                    "time": 310.288923425,
                    "velocity": 1
                },
                {
                    "duration": 0.21428550000001678,
                    "durationTicks": 60,
                    "midi": 76,
                    "name": "E5",
                    "ticks": 95101,
                    "time": 310.503208925,
                    "velocity": 1
                },
                {
                    "duration": 0.21428550000001678,
                    "durationTicks": 60,
                    "midi": 76,
                    "name": "E5",
                    "ticks": 95281,
                    "time": 311.146065425,
                    "velocity": 1
                },
                {
                    "duration": 0.21428550000001678,
                    "durationTicks": 60,
                    "midi": 76,
                    "name": "E5",
                    "ticks": 95341,
                    "time": 311.36035092500003,
                    "velocity": 1
                },
                {
                    "duration": 0.4285709999999767,
                    "durationTicks": 120,
                    "midi": 76,
                    "name": "E5",
                    "ticks": 95401,
                    "time": 311.57463642500005,
                    "velocity": 1
                },
                {
                    "duration": 0.21428550000001678,
                    "durationTicks": 60,
                    "midi": 76,
                    "name": "E5",
                    "ticks": 95521,
                    "time": 312.003207425,
                    "velocity": 1
                },
                {
                    "duration": 0.21428550000001678,
                    "durationTicks": 60,
                    "midi": 69,
                    "name": "A4",
                    "ticks": 95581,
                    "time": 312.21749292500004,
                    "velocity": 1
                },
                {
                    "duration": 0.21428550000001678,
                    "durationTicks": 60,
                    "midi": 76,
                    "name": "E5",
                    "ticks": 95701,
                    "time": 312.646063925,
                    "velocity": 1
                },
                {
                    "duration": 0.21428550000001678,
                    "durationTicks": 60,
                    "midi": 76,
                    "name": "E5",
                    "ticks": 95761,
                    "time": 312.86034942500004,
                    "velocity": 1
                },
                {
                    "duration": 0.21428549999995994,
                    "durationTicks": 60,
                    "midi": 76,
                    "name": "E5",
                    "ticks": 95821,
                    "time": 313.07463492500005,
                    "velocity": 1
                },
                {
                    "duration": 0.42857100000003356,
                    "durationTicks": 120,
                    "midi": 76,
                    "name": "E5",
                    "ticks": 95881,
                    "time": 313.288920425,
                    "velocity": 1
                },
                {
                    "duration": 0.21428550000001678,
                    "durationTicks": 60,
                    "midi": 76,
                    "name": "E5",
                    "ticks": 96481,
                    "time": 315.431775425,
                    "velocity": 1
                },
                {
                    "duration": 0.21428550000001678,
                    "durationTicks": 60,
                    "midi": 76,
                    "name": "E5",
                    "ticks": 96541,
                    "time": 315.64606092500003,
                    "velocity": 1
                },
                {
                    "duration": 0.21428550000001678,
                    "durationTicks": 60,
                    "midi": 76,
                    "name": "E5",
                    "ticks": 96721,
                    "time": 316.288917425,
                    "velocity": 1
                },
                {
                    "duration": 0.21428550000001678,
                    "durationTicks": 60,
                    "midi": 76,
                    "name": "E5",
                    "ticks": 96781,
                    "time": 316.50320292500004,
                    "velocity": 1
                },
                {
                    "duration": 0.4285709999999767,
                    "durationTicks": 120,
                    "midi": 76,
                    "name": "E5",
                    "ticks": 96841,
                    "time": 316.71748842500006,
                    "velocity": 1
                },
                {
                    "duration": 0.21428550000001678,
                    "durationTicks": 60,
                    "midi": 76,
                    "name": "E5",
                    "ticks": 96961,
                    "time": 317.14605942500003,
                    "velocity": 1
                },
                {
                    "duration": 0.21428549999995994,
                    "durationTicks": 60,
                    "midi": 76,
                    "name": "E5",
                    "ticks": 97021,
                    "time": 317.36034492500005,
                    "velocity": 1
                },
                {
                    "duration": 0.21428549999995994,
                    "durationTicks": 60,
                    "midi": 76,
                    "name": "E5",
                    "ticks": 97201,
                    "time": 318.00320142500004,
                    "velocity": 1
                },
                {
                    "duration": 0.21428550000001678,
                    "durationTicks": 60,
                    "midi": 76,
                    "name": "E5",
                    "ticks": 97261,
                    "time": 318.217486925,
                    "velocity": 1
                },
                {
                    "duration": 0.4285709999999767,
                    "durationTicks": 120,
                    "midi": 76,
                    "name": "E5",
                    "ticks": 97321,
                    "time": 318.431772425,
                    "velocity": 1
                },
                {
                    "duration": 0.21428550000001678,
                    "durationTicks": 60,
                    "midi": 76,
                    "name": "E5",
                    "ticks": 97441,
                    "time": 318.860343425,
                    "velocity": 1
                },
                {
                    "duration": 0.21428550000001678,
                    "durationTicks": 60,
                    "midi": 69,
                    "name": "A4",
                    "ticks": 97501,
                    "time": 319.074628925,
                    "velocity": 1
                },
                {
                    "duration": 0.21428550000001678,
                    "durationTicks": 60,
                    "midi": 76,
                    "name": "E5",
                    "ticks": 97621,
                    "time": 319.50319992500005,
                    "velocity": 1
                },
                {
                    "duration": 0.21428549999995994,
                    "durationTicks": 60,
                    "midi": 76,
                    "name": "E5",
                    "ticks": 97681,
                    "time": 319.71748542500006,
                    "velocity": 1
                },
                {
                    "duration": 0.21428550000001678,
                    "durationTicks": 60,
                    "midi": 76,
                    "name": "E5",
                    "ticks": 97741,
                    "time": 319.931770925,
                    "velocity": 1
                },
                {
                    "duration": 0.4285709999999767,
                    "durationTicks": 120,
                    "midi": 76,
                    "name": "E5",
                    "ticks": 97801,
                    "time": 320.14605642500004,
                    "velocity": 1
                },
                {
                    "duration": 0.21428549999995994,
                    "durationTicks": 60,
                    "midi": 74,
                    "name": "D5",
                    "ticks": 98881,
                    "time": 324.00319542500006,
                    "velocity": 1
                },
                {
                    "duration": 1.9285694999999805,
                    "durationTicks": 540,
                    "midi": 76,
                    "name": "E5",
                    "ticks": 98941,
                    "time": 324.217480925,
                    "velocity": 1
                },
                {
                    "duration": 0.2857139999999845,
                    "durationTicks": 80,
                    "midi": 77,
                    "name": "F5",
                    "ticks": 99601,
                    "time": 326.57462142500003,
                    "velocity": 1
                },
                {
                    "duration": 0.2857139999999845,
                    "durationTicks": 80,
                    "midi": 77,
                    "name": "F5",
                    "ticks": 99681,
                    "time": 326.860335425,
                    "velocity": 1
                },
                {
                    "duration": 0.2857140000000413,
                    "durationTicks": 80,
                    "midi": 77,
                    "name": "F5",
                    "ticks": 99761,
                    "time": 327.146049425,
                    "velocity": 1
                },
                {
                    "duration": 0.4285709999999767,
                    "durationTicks": 120,
                    "midi": 76,
                    "name": "E5",
                    "ticks": 99841,
                    "time": 327.43176342500004,
                    "velocity": 1
                },
                {
                    "duration": 0.21428550000001678,
                    "durationTicks": 60,
                    "midi": 74,
                    "name": "D5",
                    "ticks": 100801,
                    "time": 330.860331425,
                    "velocity": 1
                },
                {
                    "duration": 1.9285694999999805,
                    "durationTicks": 540,
                    "midi": 76,
                    "name": "E5",
                    "ticks": 100861,
                    "time": 331.07461692500004,
                    "velocity": 1
                },
                {
                    "duration": 0.2857140000000413,
                    "durationTicks": 80,
                    "midi": 77,
                    "name": "F5",
                    "ticks": 101521,
                    "time": 333.431757425,
                    "velocity": 1
                },
                {
                    "duration": 0.2857139999999845,
                    "durationTicks": 80,
                    "midi": 77,
                    "name": "F5",
                    "ticks": 101601,
                    "time": 333.71747142500004,
                    "velocity": 1
                },
                {
                    "duration": 0.2857139999999845,
                    "durationTicks": 80,
                    "midi": 77,
                    "name": "F5",
                    "ticks": 101681,
                    "time": 334.003185425,
                    "velocity": 1
                },
                {
                    "duration": 0.8571420000000103,
                    "durationTicks": 240,
                    "midi": 83,
                    "name": "B5",
                    "ticks": 101761,
                    "time": 334.288899425,
                    "velocity": 1
                },
                {
                    "duration": 0.21428549999995994,
                    "durationTicks": 60,
                    "midi": 74,
                    "name": "D5",
                    "ticks": 102721,
                    "time": 337.71746742500005,
                    "velocity": 1
                },
                {
                    "duration": 1.9285695000000374,
                    "durationTicks": 540,
                    "midi": 76,
                    "name": "E5",
                    "ticks": 102781,
                    "time": 337.931752925,
                    "velocity": 1
                },
                {
                    "duration": 0.2857140000000413,
                    "durationTicks": 80,
                    "midi": 77,
                    "name": "F5",
                    "ticks": 103441,
                    "time": 340.288893425,
                    "velocity": 1
                },
                {
                    "duration": 0.2857139999999845,
                    "durationTicks": 80,
                    "midi": 77,
                    "name": "F5",
                    "ticks": 103521,
                    "time": 340.57460742500007,
                    "velocity": 1
                },
                {
                    "duration": 0.2857139999999845,
                    "durationTicks": 80,
                    "midi": 77,
                    "name": "F5",
                    "ticks": 103601,
                    "time": 340.86032142500005,
                    "velocity": 1
                },
                {
                    "duration": 0.4285709999999767,
                    "durationTicks": 120,
                    "midi": 76,
                    "name": "E5",
                    "ticks": 103681,
                    "time": 341.14603542500004,
                    "velocity": 1
                },
                {
                    "duration": 0.21428550000001678,
                    "durationTicks": 60,
                    "midi": 74,
                    "name": "D5",
                    "ticks": 104641,
                    "time": 344.574603425,
                    "velocity": 1
                },
                {
                    "duration": 1.9285694999999805,
                    "durationTicks": 540,
                    "midi": 76,
                    "name": "E5",
                    "ticks": 104701,
                    "time": 344.78888892500004,
                    "velocity": 1
                },
                {
                    "duration": 0.2857139999999845,
                    "durationTicks": 80,
                    "midi": 77,
                    "name": "F5",
                    "ticks": 105361,
                    "time": 347.14602942500005,
                    "velocity": 1
                },
                {
                    "duration": 0.2857139999999845,
                    "durationTicks": 80,
                    "midi": 77,
                    "name": "F5",
                    "ticks": 105441,
                    "time": 347.43174342500004,
                    "velocity": 1
                },
                {
                    "duration": 0.2857139999999845,
                    "durationTicks": 80,
                    "midi": 77,
                    "name": "F5",
                    "ticks": 105521,
                    "time": 347.717457425,
                    "velocity": 1
                },
                {
                    "duration": 1.9285695000000374,
                    "durationTicks": 540,
                    "midi": 76,
                    "name": "E5",
                    "ticks": 105601,
                    "time": 348.003171425,
                    "velocity": 1
                },
                {
                    "duration": 0.21428550000001678,
                    "durationTicks": 60,
                    "midi": 71,
                    "name": "B4",
                    "ticks": 106141,
                    "time": 349.93174092500004,
                    "velocity": 0.5905511811023622
                },
                {
                    "duration": 0.21428549999995994,
                    "durationTicks": 60,
                    "midi": 71,
                    "name": "B4",
                    "ticks": 106201,
                    "time": 350.14602642500006,
                    "velocity": 0.5905511811023622
                },
                {
                    "duration": 0.21428550000001678,
                    "durationTicks": 60,
                    "midi": 71,
                    "name": "B4",
                    "ticks": 106261,
                    "time": 350.360311925,
                    "velocity": 0.5905511811023622
                },
                {
                    "duration": 0.4285709999999767,
                    "durationTicks": 120,
                    "midi": 71,
                    "name": "B4",
                    "ticks": 106321,
                    "time": 350.57459742500004,
                    "velocity": 0.5905511811023622
                }
            ]
        },
        {
            "channel": 1,
            "controlChanges": {
                "7": [
                    {
                        "number": 7,
                        "ticks": 0,
                        "time": 0,
                        "value": 0.7795275590551181
                    },
                    {
                        "number": 7,
                        "ticks": 78720,
                        "time": 251.99969600000003,
                        "value": 0.7795275590551181
                    },
                    {
                        "number": 7,
                        "ticks": 79680,
                        "time": 255.42826400000004,
                        "value": 0.7795275590551181
                    },
                    {
                        "number": 7,
                        "ticks": 80640,
                        "time": 258.85683200000005,
                        "value": 0.7795275590551181
                    },
                    {
                        "number": 7,
                        "ticks": 81600,
                        "time": 262.28540000000004,
                        "value": 0.7795275590551181
                    },
                    {
                        "number": 7,
                        "ticks": 82560,
                        "time": 265.713968,
                        "value": 0.7795275590551181
                    },
                    {
                        "number": 7,
                        "ticks": 83520,
                        "time": 269.142536,
                        "value": 0.7795275590551181
                    },
                    {
                        "number": 7,
                        "ticks": 84480,
                        "time": 272.57110400000005,
                        "value": 0.7795275590551181
                    },
                    {
                        "number": 7,
                        "ticks": 85440,
                        "time": 275.99967200000003,
                        "value": 0.7795275590551181
                    }
                ],
                "10": [
                    {
                        "number": 10,
                        "ticks": 0,
                        "time": 0,
                        "value": 1
                    },
                    {
                        "number": 10,
                        "ticks": 123720,
                        "time": 412.71382100000005,
                        "value": 0.5039370078740157
                    }
                ]
            },
            "pitchBends": [],
            "instrument": {
                "family": "guitar",
                "number": 27,
                "name": "electric guitar (clean)"
            },
            "name": "Guitar 1",
            "notes": [
                {
                    "duration": 0.21428550000000002,
                    "durationTicks": 60,
                    "midi": 45,
                    "name": "A2",
                    "ticks": 0,
                    "time": 0,
                    "velocity": 1
                },
                {
                    "duration": 0.21428550000000002,
                    "durationTicks": 60,
                    "midi": 45,
                    "name": "A2",
                    "ticks": 60,
                    "time": 0.21428550000000002,
                    "velocity": 1
                },
                {
                    "duration": 0.10714274999999995,
                    "durationTicks": 30,
                    "midi": 62,
                    "name": "D4",
                    "ticks": 120,
                    "time": 0.42857100000000004,
                    "velocity": 1
                },
                {
                    "duration": 0.10714275000000006,
                    "durationTicks": 30,
                    "midi": 63,
                    "name": "D#4",
                    "ticks": 150,
                    "time": 0.53571375,
                    "velocity": 1
                },
                {
                    "duration": 0.4285709999999999,
                    "durationTicks": 120,
                    "midi": 62,
                    "name": "D4",
                    "ticks": 180,
                    "time": 0.6428565,
                    "velocity": 1
                },
                {
                    "duration": 0.21428550000000013,
                    "durationTicks": 60,
                    "midi": 45,
                    "name": "A2",
                    "ticks": 300,
                    "time": 1.0714275,
                    "velocity": 1
                },
                {
                    "duration": 0.10714274999999995,
                    "durationTicks": 30,
                    "midi": 57,
                    "name": "A3",
                    "ticks": 360,
                    "time": 1.285713,
                    "velocity": 1
                },
                {
                    "duration": 0.10714275000000018,
                    "durationTicks": 30,
                    "midi": 58,
                    "name": "A#3",
                    "ticks": 390,
                    "time": 1.39285575,
                    "velocity": 1
                },
                {
                    "duration": 0.4285709999999998,
                    "durationTicks": 120,
                    "midi": 57,
                    "name": "A3",
                    "ticks": 420,
                    "time": 1.4999985000000002,
                    "velocity": 1
                },
                {
                    "duration": 0.2142854999999999,
                    "durationTicks": 60,
                    "midi": 45,
                    "name": "A2",
                    "ticks": 540,
                    "time": 1.9285695,
                    "velocity": 1
                },
                {
                    "duration": 0.21428550000000035,
                    "durationTicks": 60,
                    "midi": 53,
                    "name": "F3",
                    "ticks": 600,
                    "time": 2.142855,
                    "velocity": 1
                },
                {
                    "duration": 0.2142854999999999,
                    "durationTicks": 60,
                    "midi": 52,
                    "name": "E3",
                    "ticks": 660,
                    "time": 2.3571405000000003,
                    "velocity": 1
                },
                {
                    "duration": 0.2142854999999999,
                    "durationTicks": 60,
                    "midi": 55,
                    "name": "G3",
                    "ticks": 720,
                    "time": 2.571426,
                    "velocity": 1
                },
                {
                    "duration": 0.21428550000000035,
                    "durationTicks": 60,
                    "midi": 52,
                    "name": "E3",
                    "ticks": 780,
                    "time": 2.7857115,
                    "velocity": 1
                },
                {
                    "duration": 0.2142854999999999,
                    "durationTicks": 60,
                    "midi": 60,
                    "name": "C4",
                    "ticks": 840,
                    "time": 2.9999970000000005,
                    "velocity": 1
                },
                {
                    "duration": 0.2142854999999999,
                    "durationTicks": 60,
                    "midi": 57,
                    "name": "A3",
                    "ticks": 900,
                    "time": 3.2142825000000004,
                    "velocity": 1
                },
                {
                    "duration": 0.2142854999999999,
                    "durationTicks": 60,
                    "midi": 45,
                    "name": "A2",
                    "ticks": 960,
                    "time": 3.4285680000000003,
                    "velocity": 1
                },
                {
                    "duration": 0.2142854999999999,
                    "durationTicks": 60,
                    "midi": 45,
                    "name": "A2",
                    "ticks": 1020,
                    "time": 3.6428535,
                    "velocity": 1
                },
                {
                    "duration": 0.1071427500000004,
                    "durationTicks": 30,
                    "midi": 62,
                    "name": "D4",
                    "ticks": 1080,
                    "time": 3.857139,
                    "velocity": 1
                },
                {
                    "duration": 0.10714274999999951,
                    "durationTicks": 30,
                    "midi": 63,
                    "name": "D#4",
                    "ticks": 1110,
                    "time": 3.9642817500000005,
                    "velocity": 1
                },
                {
                    "duration": 0.4285710000000007,
                    "durationTicks": 120,
                    "midi": 62,
                    "name": "D4",
                    "ticks": 1140,
                    "time": 4.0714245,
                    "velocity": 1
                },
                {
                    "duration": 0.2142854999999999,
                    "durationTicks": 60,
                    "midi": 45,
                    "name": "A2",
                    "ticks": 1260,
                    "time": 4.499995500000001,
                    "velocity": 1
                },
                {
                    "duration": 0.10714274999999951,
                    "durationTicks": 30,
                    "midi": 57,
                    "name": "A3",
                    "ticks": 1320,
                    "time": 4.714281000000001,
                    "velocity": 1
                },
                {
                    "duration": 0.1071427500000004,
                    "durationTicks": 30,
                    "midi": 58,
                    "name": "A#3",
                    "ticks": 1350,
                    "time": 4.82142375,
                    "velocity": 1
                },
                {
                    "duration": 0.4285709999999998,
                    "durationTicks": 120,
                    "midi": 57,
                    "name": "A3",
                    "ticks": 1380,
                    "time": 4.9285665000000005,
                    "velocity": 1
                },
                {
                    "duration": 0.2142854999999999,
                    "durationTicks": 60,
                    "midi": 45,
                    "name": "A2",
                    "ticks": 1500,
                    "time": 5.3571375,
                    "velocity": 1
                },
                {
                    "duration": 0.2142854999999999,
                    "durationTicks": 60,
                    "midi": 53,
                    "name": "F3",
                    "ticks": 1560,
                    "time": 5.571423,
                    "velocity": 1
                },
                {
                    "duration": 0.2142855000000008,
                    "durationTicks": 60,
                    "midi": 52,
                    "name": "E3",
                    "ticks": 1620,
                    "time": 5.7857085,
                    "velocity": 1
                },
                {
                    "duration": 0.2142854999999999,
                    "durationTicks": 60,
                    "midi": 55,
                    "name": "G3",
                    "ticks": 1680,
                    "time": 5.999994000000001,
                    "velocity": 1
                },
                {
                    "duration": 0.2142854999999999,
                    "durationTicks": 60,
                    "midi": 52,
                    "name": "E3",
                    "ticks": 1740,
                    "time": 6.214279500000001,
                    "velocity": 1
                },
                {
                    "duration": 0.2142854999999999,
                    "durationTicks": 60,
                    "midi": 60,
                    "name": "C4",
                    "ticks": 1800,
                    "time": 6.428565000000001,
                    "velocity": 1
                },
                {
                    "duration": 0.2142854999999999,
                    "durationTicks": 60,
                    "midi": 57,
                    "name": "A3",
                    "ticks": 1860,
                    "time": 6.642850500000001,
                    "velocity": 1
                },
                {
                    "duration": 0.2142854999999999,
                    "durationTicks": 60,
                    "midi": 45,
                    "name": "A2",
                    "ticks": 1920,
                    "time": 6.857136000000001,
                    "velocity": 1
                },
                {
                    "duration": 0.2142854999999999,
                    "durationTicks": 60,
                    "midi": 45,
                    "name": "A2",
                    "ticks": 1980,
                    "time": 7.0714215000000005,
                    "velocity": 1
                },
                {
                    "duration": 0.1071427500000004,
                    "durationTicks": 30,
                    "midi": 62,
                    "name": "D4",
                    "ticks": 2040,
                    "time": 7.285707,
                    "velocity": 1
                },
                {
                    "duration": 0.10714274999999951,
                    "durationTicks": 30,
                    "midi": 63,
                    "name": "D#4",
                    "ticks": 2070,
                    "time": 7.392849750000001,
                    "velocity": 1
                },
                {
                    "duration": 0.4285710000000007,
                    "durationTicks": 120,
                    "midi": 62,
                    "name": "D4",
                    "ticks": 2100,
                    "time": 7.4999925,
                    "velocity": 1
                },
                {
                    "duration": 0.21428549999999902,
                    "durationTicks": 60,
                    "midi": 45,
                    "name": "A2",
                    "ticks": 2220,
                    "time": 7.928563500000001,
                    "velocity": 1
                },
                {
                    "duration": 0.10714275000000129,
                    "durationTicks": 30,
                    "midi": 57,
                    "name": "A3",
                    "ticks": 2280,
                    "time": 8.142849,
                    "velocity": 1
                },
                {
                    "duration": 0.10714274999999951,
                    "durationTicks": 30,
                    "midi": 58,
                    "name": "A#3",
                    "ticks": 2310,
                    "time": 8.249991750000001,
                    "velocity": 1
                },
                {
                    "duration": 0.4285709999999998,
                    "durationTicks": 120,
                    "midi": 57,
                    "name": "A3",
                    "ticks": 2340,
                    "time": 8.3571345,
                    "velocity": 1
                },
                {
                    "duration": 0.2142855000000008,
                    "durationTicks": 60,
                    "midi": 45,
                    "name": "A2",
                    "ticks": 2460,
                    "time": 8.7857055,
                    "velocity": 1
                },
                {
                    "duration": 0.21428549999999902,
                    "durationTicks": 60,
                    "midi": 53,
                    "name": "F3",
                    "ticks": 2520,
                    "time": 8.999991000000001,
                    "velocity": 1
                },
                {
                    "duration": 0.2142855000000008,
                    "durationTicks": 60,
                    "midi": 52,
                    "name": "E3",
                    "ticks": 2580,
                    "time": 9.2142765,
                    "velocity": 1
                },
                {
                    "duration": 0.21428549999999902,
                    "durationTicks": 60,
                    "midi": 55,
                    "name": "G3",
                    "ticks": 2640,
                    "time": 9.428562000000001,
                    "velocity": 1
                },
                {
                    "duration": 0.2142855000000008,
                    "durationTicks": 60,
                    "midi": 52,
                    "name": "E3",
                    "ticks": 2700,
                    "time": 9.6428475,
                    "velocity": 1
                },
                {
                    "duration": 0.21428549999999902,
                    "durationTicks": 60,
                    "midi": 60,
                    "name": "C4",
                    "ticks": 2760,
                    "time": 9.857133000000001,
                    "velocity": 1
                },
                {
                    "duration": 0.2142855000000008,
                    "durationTicks": 60,
                    "midi": 57,
                    "name": "A3",
                    "ticks": 2820,
                    "time": 10.0714185,
                    "velocity": 1
                },
                {
                    "duration": 0.2142855000000008,
                    "durationTicks": 60,
                    "midi": 45,
                    "name": "A2",
                    "ticks": 2880,
                    "time": 10.285704,
                    "velocity": 1
                },
                {
                    "duration": 0.21428549999999902,
                    "durationTicks": 60,
                    "midi": 45,
                    "name": "A2",
                    "ticks": 2940,
                    "time": 10.499989500000002,
                    "velocity": 1
                },
                {
                    "duration": 0.10714274999999951,
                    "durationTicks": 30,
                    "midi": 62,
                    "name": "D4",
                    "ticks": 3000,
                    "time": 10.714275,
                    "velocity": 1
                },
                {
                    "duration": 0.10714275000000129,
                    "durationTicks": 30,
                    "midi": 63,
                    "name": "D#4",
                    "ticks": 3030,
                    "time": 10.82141775,
                    "velocity": 1
                },
                {
                    "duration": 0.4285709999999998,
                    "durationTicks": 120,
                    "midi": 62,
                    "name": "D4",
                    "ticks": 3060,
                    "time": 10.928560500000001,
                    "velocity": 1
                },
                {
                    "duration": 0.21428549999999902,
                    "durationTicks": 60,
                    "midi": 45,
                    "name": "A2",
                    "ticks": 3180,
                    "time": 11.357131500000001,
                    "velocity": 1
                },
                {
                    "duration": 0.10714275000000129,
                    "durationTicks": 30,
                    "midi": 57,
                    "name": "A3",
                    "ticks": 3240,
                    "time": 11.571417,
                    "velocity": 1
                },
                {
                    "duration": 0.10714274999999951,
                    "durationTicks": 30,
                    "midi": 58,
                    "name": "A#3",
                    "ticks": 3270,
                    "time": 11.678559750000002,
                    "velocity": 1
                },
                {
                    "duration": 0.4285709999999998,
                    "durationTicks": 120,
                    "midi": 57,
                    "name": "A3",
                    "ticks": 3300,
                    "time": 11.785702500000001,
                    "velocity": 1
                },
                {
                    "duration": 0.2142855000000008,
                    "durationTicks": 60,
                    "midi": 45,
                    "name": "A2",
                    "ticks": 3420,
                    "time": 12.214273500000001,
                    "velocity": 1
                },
                {
                    "duration": 0.21428549999999902,
                    "durationTicks": 60,
                    "midi": 53,
                    "name": "F3",
                    "ticks": 3480,
                    "time": 12.428559000000002,
                    "velocity": 1
                },
                {
                    "duration": 0.2142855000000008,
                    "durationTicks": 60,
                    "midi": 52,
                    "name": "E3",
                    "ticks": 3540,
                    "time": 12.6428445,
                    "velocity": 1
                },
                {
                    "duration": 0.21428549999999902,
                    "durationTicks": 60,
                    "midi": 55,
                    "name": "G3",
                    "ticks": 3600,
                    "time": 12.857130000000002,
                    "velocity": 1
                },
                {
                    "duration": 0.2142855000000008,
                    "durationTicks": 60,
                    "midi": 52,
                    "name": "E3",
                    "ticks": 3660,
                    "time": 13.0714155,
                    "velocity": 1
                },
                {
                    "duration": 0.21428549999999902,
                    "durationTicks": 60,
                    "midi": 60,
                    "name": "C4",
                    "ticks": 3720,
                    "time": 13.285701000000001,
                    "velocity": 1
                },
                {
                    "duration": 0.2142855000000008,
                    "durationTicks": 60,
                    "midi": 57,
                    "name": "A3",
                    "ticks": 3780,
                    "time": 13.4999865,
                    "velocity": 1
                },
                {
                    "duration": 0.2142855000000008,
                    "durationTicks": 60,
                    "midi": 45,
                    "name": "A2",
                    "ticks": 3840,
                    "time": 13.714272000000001,
                    "velocity": 1
                },
                {
                    "duration": 0.21428549999999902,
                    "durationTicks": 60,
                    "midi": 45,
                    "name": "A2",
                    "ticks": 3900,
                    "time": 13.928557500000002,
                    "velocity": 1
                },
                {
                    "duration": 0.10714274999999951,
                    "durationTicks": 30,
                    "midi": 62,
                    "name": "D4",
                    "ticks": 3960,
                    "time": 14.142843000000001,
                    "velocity": 1
                },
                {
                    "duration": 0.10714275000000129,
                    "durationTicks": 30,
                    "midi": 63,
                    "name": "D#4",
                    "ticks": 3990,
                    "time": 14.24998575,
                    "velocity": 1
                },
                {
                    "duration": 0.4285709999999998,
                    "durationTicks": 120,
                    "midi": 62,
                    "name": "D4",
                    "ticks": 4020,
                    "time": 14.357128500000002,
                    "velocity": 1
                },
                {
                    "duration": 0.21428549999999902,
                    "durationTicks": 60,
                    "midi": 45,
                    "name": "A2",
                    "ticks": 4140,
                    "time": 14.785699500000002,
                    "velocity": 1
                },
                {
                    "duration": 0.10714275000000129,
                    "durationTicks": 30,
                    "midi": 57,
                    "name": "A3",
                    "ticks": 4200,
                    "time": 14.999985,
                    "velocity": 1
                },
                {
                    "duration": 0.10714274999999951,
                    "durationTicks": 30,
                    "midi": 58,
                    "name": "A#3",
                    "ticks": 4230,
                    "time": 15.107127750000002,
                    "velocity": 1
                },
                {
                    "duration": 0.4285709999999998,
                    "durationTicks": 120,
                    "midi": 57,
                    "name": "A3",
                    "ticks": 4260,
                    "time": 15.214270500000001,
                    "velocity": 1
                },
                {
                    "duration": 0.2142855000000008,
                    "durationTicks": 60,
                    "midi": 45,
                    "name": "A2",
                    "ticks": 4380,
                    "time": 15.642841500000001,
                    "velocity": 1
                },
                {
                    "duration": 0.21428549999999902,
                    "durationTicks": 60,
                    "midi": 53,
                    "name": "F3",
                    "ticks": 4440,
                    "time": 15.857127000000002,
                    "velocity": 1
                },
                {
                    "duration": 0.21428549999999902,
                    "durationTicks": 60,
                    "midi": 52,
                    "name": "E3",
                    "ticks": 4500,
                    "time": 16.0714125,
                    "velocity": 1
                },
                {
                    "duration": 0.21428550000000257,
                    "durationTicks": 60,
                    "midi": 55,
                    "name": "G3",
                    "ticks": 4560,
                    "time": 16.285698,
                    "velocity": 1
                },
                {
                    "duration": 0.21428549999999902,
                    "durationTicks": 60,
                    "midi": 52,
                    "name": "E3",
                    "ticks": 4620,
                    "time": 16.499983500000003,
                    "velocity": 1
                },
                {
                    "duration": 0.21428549999999902,
                    "durationTicks": 60,
                    "midi": 60,
                    "name": "C4",
                    "ticks": 4680,
                    "time": 16.714269,
                    "velocity": 1
                },
                {
                    "duration": 0.21428549999999902,
                    "durationTicks": 60,
                    "midi": 57,
                    "name": "A3",
                    "ticks": 4740,
                    "time": 16.9285545,
                    "velocity": 1
                },
                {
                    "duration": 0.21428550000000257,
                    "durationTicks": 60,
                    "midi": 45,
                    "name": "A2",
                    "ticks": 4800,
                    "time": 17.14284,
                    "velocity": 1
                },
                {
                    "duration": 0.21428549999999902,
                    "durationTicks": 60,
                    "midi": 45,
                    "name": "A2",
                    "ticks": 4860,
                    "time": 17.357125500000002,
                    "velocity": 1
                },
                {
                    "duration": 0.10714275000000129,
                    "durationTicks": 30,
                    "midi": 62,
                    "name": "D4",
                    "ticks": 4920,
                    "time": 17.571411,
                    "velocity": 1
                },
                {
                    "duration": 0.10714274999999773,
                    "durationTicks": 30,
                    "midi": 63,
                    "name": "D#4",
                    "ticks": 4950,
                    "time": 17.678553750000003,
                    "velocity": 1
                },
                {
                    "duration": 0.4285710000000016,
                    "durationTicks": 120,
                    "midi": 62,
                    "name": "D4",
                    "ticks": 4980,
                    "time": 17.7856965,
                    "velocity": 1
                },
                {
                    "duration": 0.21428549999999902,
                    "durationTicks": 60,
                    "midi": 45,
                    "name": "A2",
                    "ticks": 5100,
                    "time": 18.214267500000002,
                    "velocity": 1
                },
                {
                    "duration": 0.10714275000000129,
                    "durationTicks": 30,
                    "midi": 57,
                    "name": "A3",
                    "ticks": 5160,
                    "time": 18.428553,
                    "velocity": 1
                },
                {
                    "duration": 0.10714274999999773,
                    "durationTicks": 30,
                    "midi": 58,
                    "name": "A#3",
                    "ticks": 5190,
                    "time": 18.535695750000002,
                    "velocity": 1
                },
                {
                    "duration": 0.4285710000000016,
                    "durationTicks": 120,
                    "midi": 57,
                    "name": "A3",
                    "ticks": 5220,
                    "time": 18.6428385,
                    "velocity": 1
                },
                {
                    "duration": 0.21428549999999902,
                    "durationTicks": 60,
                    "midi": 45,
                    "name": "A2",
                    "ticks": 5340,
                    "time": 19.0714095,
                    "velocity": 1
                },
                {
                    "duration": 0.21428550000000257,
                    "durationTicks": 60,
                    "midi": 53,
                    "name": "F3",
                    "ticks": 5400,
                    "time": 19.285695,
                    "velocity": 1
                },
                {
                    "duration": 0.21428549999999902,
                    "durationTicks": 60,
                    "midi": 52,
                    "name": "E3",
                    "ticks": 5460,
                    "time": 19.499980500000003,
                    "velocity": 1
                },
                {
                    "duration": 0.21428549999999902,
                    "durationTicks": 60,
                    "midi": 55,
                    "name": "G3",
                    "ticks": 5520,
                    "time": 19.714266000000002,
                    "velocity": 1
                },
                {
                    "duration": 0.21428549999999902,
                    "durationTicks": 60,
                    "midi": 52,
                    "name": "E3",
                    "ticks": 5580,
                    "time": 19.9285515,
                    "velocity": 1
                },
                {
                    "duration": 0.21428550000000257,
                    "durationTicks": 60,
                    "midi": 60,
                    "name": "C4",
                    "ticks": 5640,
                    "time": 20.142837,
                    "velocity": 1
                },
                {
                    "duration": 0.21428549999999902,
                    "durationTicks": 60,
                    "midi": 57,
                    "name": "A3",
                    "ticks": 5700,
                    "time": 20.357122500000003,
                    "velocity": 1
                },
                {
                    "duration": 0.21428549999999902,
                    "durationTicks": 60,
                    "midi": 45,
                    "name": "A2",
                    "ticks": 5760,
                    "time": 20.571408,
                    "velocity": 1
                },
                {
                    "duration": 0.21428550000000257,
                    "durationTicks": 60,
                    "midi": 45,
                    "name": "A2",
                    "ticks": 5820,
                    "time": 20.7856935,
                    "velocity": 1
                },
                {
                    "duration": 0.10714274999999773,
                    "durationTicks": 30,
                    "midi": 62,
                    "name": "D4",
                    "ticks": 5880,
                    "time": 20.999979000000003,
                    "velocity": 1
                },
                {
                    "duration": 0.10714275000000129,
                    "durationTicks": 30,
                    "midi": 63,
                    "name": "D#4",
                    "ticks": 5910,
                    "time": 21.10712175,
                    "velocity": 1
                },
                {
                    "duration": 0.42857099999999804,
                    "durationTicks": 120,
                    "midi": 62,
                    "name": "D4",
                    "ticks": 5940,
                    "time": 21.214264500000002,
                    "velocity": 1
                },
                {
                    "duration": 0.21428550000000257,
                    "durationTicks": 60,
                    "midi": 45,
                    "name": "A2",
                    "ticks": 6060,
                    "time": 21.6428355,
                    "velocity": 1
                },
                {
                    "duration": 0.10714274999999773,
                    "durationTicks": 30,
                    "midi": 57,
                    "name": "A3",
                    "ticks": 6120,
                    "time": 21.857121000000003,
                    "velocity": 1
                },
                {
                    "duration": 0.10714275000000129,
                    "durationTicks": 30,
                    "midi": 58,
                    "name": "A#3",
                    "ticks": 6150,
                    "time": 21.96426375,
                    "velocity": 1
                },
                {
                    "duration": 0.4285710000000016,
                    "durationTicks": 120,
                    "midi": 57,
                    "name": "A3",
                    "ticks": 6180,
                    "time": 22.071406500000002,
                    "velocity": 1
                },
                {
                    "duration": 0.21428549999999902,
                    "durationTicks": 60,
                    "midi": 45,
                    "name": "A2",
                    "ticks": 6300,
                    "time": 22.499977500000004,
                    "velocity": 1
                },
                {
                    "duration": 0.21428549999999902,
                    "durationTicks": 60,
                    "midi": 53,
                    "name": "F3",
                    "ticks": 6360,
                    "time": 22.714263000000003,
                    "velocity": 1
                },
                {
                    "duration": 0.21428549999999902,
                    "durationTicks": 60,
                    "midi": 52,
                    "name": "E3",
                    "ticks": 6420,
                    "time": 22.9285485,
                    "velocity": 1
                },
                {
                    "duration": 0.21428550000000257,
                    "durationTicks": 60,
                    "midi": 55,
                    "name": "G3",
                    "ticks": 6480,
                    "time": 23.142834,
                    "velocity": 1
                },
                {
                    "duration": 0.21428549999999902,
                    "durationTicks": 60,
                    "midi": 52,
                    "name": "E3",
                    "ticks": 6540,
                    "time": 23.357119500000003,
                    "velocity": 1
                },
                {
                    "duration": 0.21428549999999902,
                    "durationTicks": 60,
                    "midi": 60,
                    "name": "C4",
                    "ticks": 6600,
                    "time": 23.571405000000002,
                    "velocity": 1
                },
                {
                    "duration": 0.21428550000000257,
                    "durationTicks": 60,
                    "midi": 57,
                    "name": "A3",
                    "ticks": 6660,
                    "time": 23.7856905,
                    "velocity": 1
                },
                {
                    "duration": 0.21428549999999902,
                    "durationTicks": 60,
                    "midi": 45,
                    "name": "A2",
                    "ticks": 6720,
                    "time": 23.999976000000004,
                    "velocity": 1
                },
                {
                    "duration": 0.21428549999999902,
                    "durationTicks": 60,
                    "midi": 45,
                    "name": "A2",
                    "ticks": 6780,
                    "time": 24.214261500000003,
                    "velocity": 1
                },
                {
                    "duration": 0.10714275000000129,
                    "durationTicks": 30,
                    "midi": 62,
                    "name": "D4",
                    "ticks": 6840,
                    "time": 24.428547000000002,
                    "velocity": 1
                },
                {
                    "duration": 0.10714274999999773,
                    "durationTicks": 30,
                    "midi": 63,
                    "name": "D#4",
                    "ticks": 6870,
                    "time": 24.535689750000003,
                    "velocity": 1
                },
                {
                    "duration": 0.4285710000000016,
                    "durationTicks": 120,
                    "midi": 62,
                    "name": "D4",
                    "ticks": 6900,
                    "time": 24.6428325,
                    "velocity": 1
                },
                {
                    "duration": 0.21428549999999902,
                    "durationTicks": 60,
                    "midi": 45,
                    "name": "A2",
                    "ticks": 7020,
                    "time": 25.071403500000002,
                    "velocity": 1
                },
                {
                    "duration": 0.10714275000000129,
                    "durationTicks": 30,
                    "midi": 57,
                    "name": "A3",
                    "ticks": 7080,
                    "time": 25.285689,
                    "velocity": 1
                },
                {
                    "duration": 0.10714274999999773,
                    "durationTicks": 30,
                    "midi": 58,
                    "name": "A#3",
                    "ticks": 7110,
                    "time": 25.392831750000003,
                    "velocity": 1
                },
                {
                    "duration": 0.4285710000000016,
                    "durationTicks": 120,
                    "midi": 57,
                    "name": "A3",
                    "ticks": 7140,
                    "time": 25.4999745,
                    "velocity": 1
                },
                {
                    "duration": 0.21428549999999902,
                    "durationTicks": 60,
                    "midi": 45,
                    "name": "A2",
                    "ticks": 7260,
                    "time": 25.928545500000002,
                    "velocity": 1
                },
                {
                    "duration": 0.21428550000000257,
                    "durationTicks": 60,
                    "midi": 53,
                    "name": "F3",
                    "ticks": 7320,
                    "time": 26.142831,
                    "velocity": 1
                },
                {
                    "duration": 0.21428549999999902,
                    "durationTicks": 60,
                    "midi": 52,
                    "name": "E3",
                    "ticks": 7380,
                    "time": 26.357116500000004,
                    "velocity": 1
                },
                {
                    "duration": 0.21428549999999902,
                    "durationTicks": 60,
                    "midi": 55,
                    "name": "G3",
                    "ticks": 7440,
                    "time": 26.571402000000003,
                    "velocity": 1
                },
                {
                    "duration": 0.21428549999999902,
                    "durationTicks": 60,
                    "midi": 52,
                    "name": "E3",
                    "ticks": 7500,
                    "time": 26.7856875,
                    "velocity": 1
                },
                {
                    "duration": 0.21428550000000257,
                    "durationTicks": 60,
                    "midi": 60,
                    "name": "C4",
                    "ticks": 7560,
                    "time": 26.999973,
                    "velocity": 1
                },
                {
                    "duration": 0.21428549999999902,
                    "durationTicks": 60,
                    "midi": 57,
                    "name": "A3",
                    "ticks": 7620,
                    "time": 27.214258500000003,
                    "velocity": 1
                },
                {
                    "duration": 0.21428549999999902,
                    "durationTicks": 60,
                    "midi": 64,
                    "name": "E4",
                    "ticks": 7680,
                    "time": 27.428544000000002,
                    "velocity": 1
                },
                {
                    "duration": 0.21428550000000257,
                    "durationTicks": 60,
                    "midi": 62,
                    "name": "D4",
                    "ticks": 7740,
                    "time": 27.6428295,
                    "velocity": 1
                },
                {
                    "duration": 0.21428549999999902,
                    "durationTicks": 60,
                    "midi": 59,
                    "name": "B3",
                    "ticks": 7800,
                    "time": 27.857115000000004,
                    "velocity": 1
                },
                {
                    "duration": 0.21428549999999902,
                    "durationTicks": 60,
                    "midi": 62,
                    "name": "D4",
                    "ticks": 7860,
                    "time": 28.071400500000003,
                    "velocity": 1
                },
                {
                    "duration": 0.21428549999999902,
                    "durationTicks": 60,
                    "midi": 59,
                    "name": "B3",
                    "ticks": 7920,
                    "time": 28.285686000000002,
                    "velocity": 1
                },
                {
                    "duration": 0.21428550000000257,
                    "durationTicks": 60,
                    "midi": 58,
                    "name": "A#3",
                    "ticks": 7980,
                    "time": 28.4999715,
                    "velocity": 1
                },
                {
                    "duration": 0.21428549999999902,
                    "durationTicks": 60,
                    "midi": 57,
                    "name": "A3",
                    "ticks": 8040,
                    "time": 28.714257000000003,
                    "velocity": 1
                },
                {
                    "duration": 0.21428549999999902,
                    "durationTicks": 60,
                    "midi": 55,
                    "name": "G3",
                    "ticks": 8100,
                    "time": 28.928542500000002,
                    "velocity": 1
                },
                {
                    "duration": 0.21428550000000257,
                    "durationTicks": 60,
                    "midi": 40,
                    "name": "E2",
                    "ticks": 8160,
                    "time": 29.142828,
                    "velocity": 1
                },
                {
                    "duration": 0.21428549999999902,
                    "durationTicks": 60,
                    "midi": 40,
                    "name": "E2",
                    "ticks": 8220,
                    "time": 29.357113500000004,
                    "velocity": 1
                },
                {
                    "duration": 0.21428549999999902,
                    "durationTicks": 60,
                    "midi": 40,
                    "name": "E2",
                    "ticks": 8280,
                    "time": 29.571399000000003,
                    "velocity": 1
                },
                {
                    "duration": 0.21428549999999902,
                    "durationTicks": 60,
                    "midi": 40,
                    "name": "E2",
                    "ticks": 8340,
                    "time": 29.785684500000002,
                    "velocity": 1
                },
                {
                    "duration": 0.21428550000000257,
                    "durationTicks": 60,
                    "midi": 55,
                    "name": "G3",
                    "ticks": 8400,
                    "time": 29.99997,
                    "velocity": 1
                },
                {
                    "duration": 0.21428550000000257,
                    "durationTicks": 60,
                    "midi": 50,
                    "name": "D3",
                    "ticks": 8400,
                    "time": 29.99997,
                    "velocity": 1
                },
                {
                    "duration": 0.21428549999999902,
                    "durationTicks": 60,
                    "midi": 52,
                    "name": "E3",
                    "ticks": 8460,
                    "time": 30.214255500000004,
                    "velocity": 1
                },
                {
                    "duration": 0.21428549999999902,
                    "durationTicks": 60,
                    "midi": 57,
                    "name": "A3",
                    "ticks": 8460,
                    "time": 30.214255500000004,
                    "velocity": 1
                },
                {
                    "duration": 0.21428549999999902,
                    "durationTicks": 60,
                    "midi": 50,
                    "name": "D3",
                    "ticks": 8520,
                    "time": 30.428541000000003,
                    "velocity": 1
                },
                {
                    "duration": 0.21428549999999902,
                    "durationTicks": 60,
                    "midi": 55,
                    "name": "G3",
                    "ticks": 8520,
                    "time": 30.428541000000003,
                    "velocity": 1
                },
                {
                    "duration": 0.21428549999999902,
                    "durationTicks": 60,
                    "midi": 57,
                    "name": "A3",
                    "ticks": 8580,
                    "time": 30.6428265,
                    "velocity": 1
                },
                {
                    "duration": 0.21428549999999902,
                    "durationTicks": 60,
                    "midi": 52,
                    "name": "E3",
                    "ticks": 8580,
                    "time": 30.6428265,
                    "velocity": 1
                },
                {
                    "duration": 0.21428550000000257,
                    "durationTicks": 60,
                    "midi": 40,
                    "name": "E2",
                    "ticks": 8640,
                    "time": 30.857112,
                    "velocity": 1
                },
                {
                    "duration": 0.21428549999999902,
                    "durationTicks": 60,
                    "midi": 40,
                    "name": "E2",
                    "ticks": 8700,
                    "time": 31.071397500000003,
                    "velocity": 1
                },
                {
                    "duration": 0.21428549999999902,
                    "durationTicks": 60,
                    "midi": 40,
                    "name": "E2",
                    "ticks": 8760,
                    "time": 31.285683000000002,
                    "velocity": 1
                },
                {
                    "duration": 0.21428550000000257,
                    "durationTicks": 60,
                    "midi": 40,
                    "name": "E2",
                    "ticks": 8820,
                    "time": 31.4999685,
                    "velocity": 1
                },
                {
                    "duration": 0.21428549999999902,
                    "durationTicks": 60,
                    "midi": 52,
                    "name": "E3",
                    "ticks": 8880,
                    "time": 31.714254000000004,
                    "velocity": 1
                },
                {
                    "duration": 0.21428549999999902,
                    "durationTicks": 60,
                    "midi": 50,
                    "name": "D3",
                    "ticks": 8940,
                    "time": 31.928539500000003,
                    "velocity": 1
                },
                {
                    "duration": 0.21428550000000257,
                    "durationTicks": 60,
                    "midi": 47,
                    "name": "B2",
                    "ticks": 9000,
                    "time": 32.142825,
                    "velocity": 1
                },
                {
                    "duration": 0.21428549999999547,
                    "durationTicks": 60,
                    "midi": 46,
                    "name": "A#2",
                    "ticks": 9060,
                    "time": 32.357110500000005,
                    "velocity": 1
                },
                {
                    "duration": 0.21428550000000257,
                    "durationTicks": 60,
                    "midi": 40,
                    "name": "E2",
                    "ticks": 9120,
                    "time": 32.571396,
                    "velocity": 1
                },
                {
                    "duration": 0.21428550000000257,
                    "durationTicks": 60,
                    "midi": 40,
                    "name": "E2",
                    "ticks": 9180,
                    "time": 32.7856815,
                    "velocity": 1
                },
                {
                    "duration": 0.21428549999999547,
                    "durationTicks": 60,
                    "midi": 40,
                    "name": "E2",
                    "ticks": 9240,
                    "time": 32.999967000000005,
                    "velocity": 1
                },
                {
                    "duration": 0.21428550000000257,
                    "durationTicks": 60,
                    "midi": 40,
                    "name": "E2",
                    "ticks": 9300,
                    "time": 33.2142525,
                    "velocity": 1
                },
                {
                    "duration": 0.21428550000000257,
                    "durationTicks": 60,
                    "midi": 55,
                    "name": "G3",
                    "ticks": 9360,
                    "time": 33.428538,
                    "velocity": 1
                },
                {
                    "duration": 0.21428550000000257,
                    "durationTicks": 60,
                    "midi": 50,
                    "name": "D3",
                    "ticks": 9360,
                    "time": 33.428538,
                    "velocity": 1
                },
                {
                    "duration": 0.21428549999999547,
                    "durationTicks": 60,
                    "midi": 52,
                    "name": "E3",
                    "ticks": 9420,
                    "time": 33.642823500000006,
                    "velocity": 1
                },
                {
                    "duration": 0.21428549999999547,
                    "durationTicks": 60,
                    "midi": 57,
                    "name": "A3",
                    "ticks": 9420,
                    "time": 33.642823500000006,
                    "velocity": 1
                },
                {
                    "duration": 0.21428550000000257,
                    "durationTicks": 60,
                    "midi": 50,
                    "name": "D3",
                    "ticks": 9480,
                    "time": 33.857109,
                    "velocity": 1
                },
                {
                    "duration": 0.21428550000000257,
                    "durationTicks": 60,
                    "midi": 55,
                    "name": "G3",
                    "ticks": 9480,
                    "time": 33.857109,
                    "velocity": 1
                },
                {
                    "duration": 0.21428549999999547,
                    "durationTicks": 60,
                    "midi": 57,
                    "name": "A3",
                    "ticks": 9540,
                    "time": 34.071394500000004,
                    "velocity": 1
                },
                {
                    "duration": 0.21428549999999547,
                    "durationTicks": 60,
                    "midi": 52,
                    "name": "E3",
                    "ticks": 9540,
                    "time": 34.071394500000004,
                    "velocity": 1
                },
                {
                    "duration": 0.21428550000000257,
                    "durationTicks": 60,
                    "midi": 40,
                    "name": "E2",
                    "ticks": 9600,
                    "time": 34.28568,
                    "velocity": 1
                },
                {
                    "duration": 0.21428550000000257,
                    "durationTicks": 60,
                    "midi": 40,
                    "name": "E2",
                    "ticks": 9660,
                    "time": 34.4999655,
                    "velocity": 1
                },
                {
                    "duration": 0.21428549999999547,
                    "durationTicks": 60,
                    "midi": 40,
                    "name": "E2",
                    "ticks": 9720,
                    "time": 34.714251000000004,
                    "velocity": 1
                },
                {
                    "duration": 0.21428550000000257,
                    "durationTicks": 60,
                    "midi": 40,
                    "name": "E2",
                    "ticks": 9780,
                    "time": 34.9285365,
                    "velocity": 1
                },
                {
                    "duration": 0.21428550000000257,
                    "durationTicks": 60,
                    "midi": 52,
                    "name": "E3",
                    "ticks": 9840,
                    "time": 35.142822,
                    "velocity": 1
                },
                {
                    "duration": 0.21428549999999547,
                    "durationTicks": 60,
                    "midi": 50,
                    "name": "D3",
                    "ticks": 9900,
                    "time": 35.357107500000005,
                    "velocity": 1
                },
                {
                    "duration": 0.21428550000000257,
                    "durationTicks": 60,
                    "midi": 47,
                    "name": "B2",
                    "ticks": 9960,
                    "time": 35.571393,
                    "velocity": 1
                },
                {
                    "duration": 0.21428550000000257,
                    "durationTicks": 60,
                    "midi": 46,
                    "name": "A#2",
                    "ticks": 10020,
                    "time": 35.7856785,
                    "velocity": 1
                },
                {
                    "duration": 0.21428549999999547,
                    "durationTicks": 60,
                    "midi": 40,
                    "name": "E2",
                    "ticks": 10080,
                    "time": 35.999964000000006,
                    "velocity": 1
                },
                {
                    "duration": 0.21428550000000257,
                    "durationTicks": 60,
                    "midi": 40,
                    "name": "E2",
                    "ticks": 10140,
                    "time": 36.2142495,
                    "velocity": 1
                },
                {
                    "duration": 0.21428550000000257,
                    "durationTicks": 60,
                    "midi": 40,
                    "name": "E2",
                    "ticks": 10200,
                    "time": 36.428535000000004,
                    "velocity": 1
                },
                {
                    "duration": 0.21428549999999547,
                    "durationTicks": 60,
                    "midi": 40,
                    "name": "E2",
                    "ticks": 10260,
                    "time": 36.642820500000006,
                    "velocity": 1
                },
                {
                    "duration": 0.21428550000000257,
                    "durationTicks": 60,
                    "midi": 55,
                    "name": "G3",
                    "ticks": 10320,
                    "time": 36.857106,
                    "velocity": 1
                },
                {
                    "duration": 0.21428550000000257,
                    "durationTicks": 60,
                    "midi": 50,
                    "name": "D3",
                    "ticks": 10320,
                    "time": 36.857106,
                    "velocity": 1
                },
                {
                    "duration": 0.21428549999999547,
                    "durationTicks": 60,
                    "midi": 52,
                    "name": "E3",
                    "ticks": 10380,
                    "time": 37.071391500000004,
                    "velocity": 1
                },
                {
                    "duration": 0.21428549999999547,
                    "durationTicks": 60,
                    "midi": 57,
                    "name": "A3",
                    "ticks": 10380,
                    "time": 37.071391500000004,
                    "velocity": 1
                },
                {
                    "duration": 0.21428550000000257,
                    "durationTicks": 60,
                    "midi": 50,
                    "name": "D3",
                    "ticks": 10440,
                    "time": 37.285677,
                    "velocity": 1
                },
                {
                    "duration": 0.21428550000000257,
                    "durationTicks": 60,
                    "midi": 55,
                    "name": "G3",
                    "ticks": 10440,
                    "time": 37.285677,
                    "velocity": 1
                },
                {
                    "duration": 0.21428550000000257,
                    "durationTicks": 60,
                    "midi": 52,
                    "name": "E3",
                    "ticks": 10500,
                    "time": 37.4999625,
                    "velocity": 1
                },
                {
                    "duration": 0.21428550000000257,
                    "durationTicks": 60,
                    "midi": 57,
                    "name": "A3",
                    "ticks": 10500,
                    "time": 37.4999625,
                    "velocity": 1
                },
                {
                    "duration": 0.21428549999999547,
                    "durationTicks": 60,
                    "midi": 40,
                    "name": "E2",
                    "ticks": 10560,
                    "time": 37.714248000000005,
                    "velocity": 1
                },
                {
                    "duration": 0.21428550000000257,
                    "durationTicks": 60,
                    "midi": 40,
                    "name": "E2",
                    "ticks": 10620,
                    "time": 37.9285335,
                    "velocity": 1
                },
                {
                    "duration": 0.21428550000000257,
                    "durationTicks": 60,
                    "midi": 40,
                    "name": "E2",
                    "ticks": 10680,
                    "time": 38.142819,
                    "velocity": 1
                },
                {
                    "duration": 0.21428549999999547,
                    "durationTicks": 60,
                    "midi": 40,
                    "name": "E2",
                    "ticks": 10740,
                    "time": 38.357104500000005,
                    "velocity": 1
                },
                {
                    "duration": 0.21428550000000257,
                    "durationTicks": 60,
                    "midi": 52,
                    "name": "E3",
                    "ticks": 10800,
                    "time": 38.57139,
                    "velocity": 1
                },
                {
                    "duration": 0.21428550000000257,
                    "durationTicks": 60,
                    "midi": 50,
                    "name": "D3",
                    "ticks": 10860,
                    "time": 38.7856755,
                    "velocity": 1
                },
                {
                    "duration": 0.21428549999999547,
                    "durationTicks": 60,
                    "midi": 47,
                    "name": "B2",
                    "ticks": 10920,
                    "time": 38.999961000000006,
                    "velocity": 1
                },
                {
                    "duration": 0.21428550000000257,
                    "durationTicks": 60,
                    "midi": 46,
                    "name": "A#2",
                    "ticks": 10980,
                    "time": 39.2142465,
                    "velocity": 1
                },
                {
                    "duration": 0.21428550000000257,
                    "durationTicks": 60,
                    "midi": 40,
                    "name": "E2",
                    "ticks": 11040,
                    "time": 39.428532000000004,
                    "velocity": 1
                },
                {
                    "duration": 0.21428549999999547,
                    "durationTicks": 60,
                    "midi": 40,
                    "name": "E2",
                    "ticks": 11100,
                    "time": 39.64281750000001,
                    "velocity": 1
                },
                {
                    "duration": 0.21428550000000257,
                    "durationTicks": 60,
                    "midi": 40,
                    "name": "E2",
                    "ticks": 11160,
                    "time": 39.857103,
                    "velocity": 1
                },
                {
                    "duration": 0.21428549999999547,
                    "durationTicks": 60,
                    "midi": 40,
                    "name": "E2",
                    "ticks": 11220,
                    "time": 40.071388500000005,
                    "velocity": 1
                },
                {
                    "duration": 0.21428550000000257,
                    "durationTicks": 60,
                    "midi": 55,
                    "name": "G3",
                    "ticks": 11280,
                    "time": 40.285674,
                    "velocity": 1
                },
                {
                    "duration": 0.21428550000000257,
                    "durationTicks": 60,
                    "midi": 50,
                    "name": "D3",
                    "ticks": 11280,
                    "time": 40.285674,
                    "velocity": 1
                },
                {
                    "duration": 0.21428550000000257,
                    "durationTicks": 60,
                    "midi": 52,
                    "name": "E3",
                    "ticks": 11340,
                    "time": 40.4999595,
                    "velocity": 1
                },
                {
                    "duration": 0.21428550000000257,
                    "durationTicks": 60,
                    "midi": 57,
                    "name": "A3",
                    "ticks": 11340,
                    "time": 40.4999595,
                    "velocity": 1
                },
                {
                    "duration": 0.21428549999999547,
                    "durationTicks": 60,
                    "midi": 50,
                    "name": "D3",
                    "ticks": 11400,
                    "time": 40.714245000000005,
                    "velocity": 1
                },
                {
                    "duration": 0.21428549999999547,
                    "durationTicks": 60,
                    "midi": 55,
                    "name": "G3",
                    "ticks": 11400,
                    "time": 40.714245000000005,
                    "velocity": 1
                },
                {
                    "duration": 0.21428550000000257,
                    "durationTicks": 60,
                    "midi": 57,
                    "name": "A3",
                    "ticks": 11460,
                    "time": 40.9285305,
                    "velocity": 1
                },
                {
                    "duration": 0.21428550000000257,
                    "durationTicks": 60,
                    "midi": 52,
                    "name": "E3",
                    "ticks": 11460,
                    "time": 40.9285305,
                    "velocity": 1
                },
                {
                    "duration": 0.21428550000000257,
                    "durationTicks": 60,
                    "midi": 40,
                    "name": "E2",
                    "ticks": 11520,
                    "time": 41.142816,
                    "velocity": 1
                },
                {
                    "duration": 0.21428549999999547,
                    "durationTicks": 60,
                    "midi": 40,
                    "name": "E2",
                    "ticks": 11580,
                    "time": 41.357101500000006,
                    "velocity": 1
                },
                {
                    "duration": 0.21428550000000257,
                    "durationTicks": 60,
                    "midi": 40,
                    "name": "E2",
                    "ticks": 11640,
                    "time": 41.571387,
                    "velocity": 1
                },
                {
                    "duration": 0.21428550000000257,
                    "durationTicks": 60,
                    "midi": 40,
                    "name": "E2",
                    "ticks": 11700,
                    "time": 41.785672500000004,
                    "velocity": 1
                },
                {
                    "duration": 0.21428549999999547,
                    "durationTicks": 60,
                    "midi": 52,
                    "name": "E3",
                    "ticks": 11760,
                    "time": 41.99995800000001,
                    "velocity": 1
                },
                {
                    "duration": 0.21428550000000257,
                    "durationTicks": 60,
                    "midi": 50,
                    "name": "D3",
                    "ticks": 11820,
                    "time": 42.2142435,
                    "velocity": 1
                },
                {
                    "duration": 0.21428549999999547,
                    "durationTicks": 60,
                    "midi": 47,
                    "name": "B2",
                    "ticks": 11880,
                    "time": 42.428529000000005,
                    "velocity": 1
                },
                {
                    "duration": 0.21428550000000257,
                    "durationTicks": 60,
                    "midi": 46,
                    "name": "A#2",
                    "ticks": 11940,
                    "time": 42.6428145,
                    "velocity": 1
                },
                {
                    "duration": 0.21428550000000257,
                    "durationTicks": 60,
                    "midi": 40,
                    "name": "E2",
                    "ticks": 12000,
                    "time": 42.8571,
                    "velocity": 1
                },
                {
                    "duration": 0.21428549999999547,
                    "durationTicks": 60,
                    "midi": 40,
                    "name": "E2",
                    "ticks": 12060,
                    "time": 43.071385500000005,
                    "velocity": 1
                },
                {
                    "duration": 0.21428550000000257,
                    "durationTicks": 60,
                    "midi": 40,
                    "name": "E2",
                    "ticks": 12120,
                    "time": 43.285671,
                    "velocity": 1
                },
                {
                    "duration": 0.21428550000000257,
                    "durationTicks": 60,
                    "midi": 40,
                    "name": "E2",
                    "ticks": 12180,
                    "time": 43.4999565,
                    "velocity": 1
                },
                {
                    "duration": 0.21428549999999547,
                    "durationTicks": 60,
                    "midi": 55,
                    "name": "G3",
                    "ticks": 12240,
                    "time": 43.714242000000006,
                    "velocity": 1
                },
                {
                    "duration": 0.21428549999999547,
                    "durationTicks": 60,
                    "midi": 50,
                    "name": "D3",
                    "ticks": 12240,
                    "time": 43.714242000000006,
                    "velocity": 1
                },
                {
                    "duration": 0.21428550000000257,
                    "durationTicks": 60,
                    "midi": 52,
                    "name": "E3",
                    "ticks": 12300,
                    "time": 43.9285275,
                    "velocity": 1
                },
                {
                    "duration": 0.21428550000000257,
                    "durationTicks": 60,
                    "midi": 57,
                    "name": "A3",
                    "ticks": 12300,
                    "time": 43.9285275,
                    "velocity": 1
                },
                {
                    "duration": 0.21428550000000257,
                    "durationTicks": 60,
                    "midi": 50,
                    "name": "D3",
                    "ticks": 12360,
                    "time": 44.142813000000004,
                    "velocity": 1
                },
                {
                    "duration": 0.21428550000000257,
                    "durationTicks": 60,
                    "midi": 55,
                    "name": "G3",
                    "ticks": 12360,
                    "time": 44.142813000000004,
                    "velocity": 1
                },
                {
                    "duration": 0.21428549999999547,
                    "durationTicks": 60,
                    "midi": 57,
                    "name": "A3",
                    "ticks": 12420,
                    "time": 44.357098500000006,
                    "velocity": 1
                },
                {
                    "duration": 0.21428549999999547,
                    "durationTicks": 60,
                    "midi": 52,
                    "name": "E3",
                    "ticks": 12420,
                    "time": 44.357098500000006,
                    "velocity": 1
                },
                {
                    "duration": 0.21428550000000257,
                    "durationTicks": 60,
                    "midi": 40,
                    "name": "E2",
                    "ticks": 12480,
                    "time": 44.571384,
                    "velocity": 1
                },
                {
                    "duration": 0.21428550000000257,
                    "durationTicks": 60,
                    "midi": 40,
                    "name": "E2",
                    "ticks": 12540,
                    "time": 44.785669500000004,
                    "velocity": 1
                },
                {
                    "duration": 0.21428549999999547,
                    "durationTicks": 60,
                    "midi": 40,
                    "name": "E2",
                    "ticks": 12600,
                    "time": 44.99995500000001,
                    "velocity": 1
                },
                {
                    "duration": 0.21428550000000257,
                    "durationTicks": 60,
                    "midi": 40,
                    "name": "E2",
                    "ticks": 12660,
                    "time": 45.2142405,
                    "velocity": 1
                },
                {
                    "duration": 0.21428549999999547,
                    "durationTicks": 60,
                    "midi": 52,
                    "name": "E3",
                    "ticks": 12720,
                    "time": 45.428526000000005,
                    "velocity": 1
                },
                {
                    "duration": 0.21428550000000257,
                    "durationTicks": 60,
                    "midi": 50,
                    "name": "D3",
                    "ticks": 12780,
                    "time": 45.6428115,
                    "velocity": 1
                },
                {
                    "duration": 0.21428550000000257,
                    "durationTicks": 60,
                    "midi": 47,
                    "name": "B2",
                    "ticks": 12840,
                    "time": 45.857097,
                    "velocity": 1
                },
                {
                    "duration": 0.21428549999999547,
                    "durationTicks": 60,
                    "midi": 46,
                    "name": "A#2",
                    "ticks": 12900,
                    "time": 46.071382500000006,
                    "velocity": 1
                },
                {
                    "duration": 0.21428550000000257,
                    "durationTicks": 60,
                    "midi": 40,
                    "name": "E2",
                    "ticks": 12960,
                    "time": 46.285668,
                    "velocity": 1
                },
                {
                    "duration": 0.21428550000000257,
                    "durationTicks": 60,
                    "midi": 40,
                    "name": "E2",
                    "ticks": 13020,
                    "time": 46.499953500000004,
                    "velocity": 1
                },
                {
                    "duration": 0.21428549999999547,
                    "durationTicks": 60,
                    "midi": 40,
                    "name": "E2",
                    "ticks": 13080,
                    "time": 46.714239000000006,
                    "velocity": 1
                },
                {
                    "duration": 0.21428550000000257,
                    "durationTicks": 60,
                    "midi": 40,
                    "name": "E2",
                    "ticks": 13140,
                    "time": 46.9285245,
                    "velocity": 1
                },
                {
                    "duration": 0.21428550000000257,
                    "durationTicks": 60,
                    "midi": 55,
                    "name": "G3",
                    "ticks": 13200,
                    "time": 47.142810000000004,
                    "velocity": 1
                },
                {
                    "duration": 0.21428550000000257,
                    "durationTicks": 60,
                    "midi": 50,
                    "name": "D3",
                    "ticks": 13200,
                    "time": 47.142810000000004,
                    "velocity": 1
                },
                {
                    "duration": 0.21428549999999547,
                    "durationTicks": 60,
                    "midi": 52,
                    "name": "E3",
                    "ticks": 13260,
                    "time": 47.35709550000001,
                    "velocity": 1
                },
                {
                    "duration": 0.21428549999999547,
                    "durationTicks": 60,
                    "midi": 57,
                    "name": "A3",
                    "ticks": 13260,
                    "time": 47.35709550000001,
                    "velocity": 1
                },
                {
                    "duration": 0.21428550000000257,
                    "durationTicks": 60,
                    "midi": 50,
                    "name": "D3",
                    "ticks": 13320,
                    "time": 47.571381,
                    "velocity": 1
                },
                {
                    "duration": 0.21428550000000257,
                    "durationTicks": 60,
                    "midi": 55,
                    "name": "G3",
                    "ticks": 13320,
                    "time": 47.571381,
                    "velocity": 1
                },
                {
                    "duration": 0.21428550000000257,
                    "durationTicks": 60,
                    "midi": 57,
                    "name": "A3",
                    "ticks": 13380,
                    "time": 47.785666500000005,
                    "velocity": 1
                },
                {
                    "duration": 0.21428550000000257,
                    "durationTicks": 60,
                    "midi": 52,
                    "name": "E3",
                    "ticks": 13380,
                    "time": 47.785666500000005,
                    "velocity": 1
                },
                {
                    "duration": 0.21428549999999547,
                    "durationTicks": 60,
                    "midi": 40,
                    "name": "E2",
                    "ticks": 13440,
                    "time": 47.99995200000001,
                    "velocity": 1
                },
                {
                    "duration": 0.21428550000000257,
                    "durationTicks": 60,
                    "midi": 40,
                    "name": "E2",
                    "ticks": 13500,
                    "time": 48.2142375,
                    "velocity": 1
                },
                {
                    "duration": 0.21428549999999547,
                    "durationTicks": 60,
                    "midi": 40,
                    "name": "E2",
                    "ticks": 13560,
                    "time": 48.428523000000006,
                    "velocity": 1
                },
                {
                    "duration": 0.21428550000000257,
                    "durationTicks": 60,
                    "midi": 40,
                    "name": "E2",
                    "ticks": 13620,
                    "time": 48.6428085,
                    "velocity": 1
                },
                {
                    "duration": 0.21428550000000257,
                    "durationTicks": 60,
                    "midi": 52,
                    "name": "E3",
                    "ticks": 13680,
                    "time": 48.857094000000004,
                    "velocity": 1
                },
                {
                    "duration": 0.21428549999999547,
                    "durationTicks": 60,
                    "midi": 50,
                    "name": "D3",
                    "ticks": 13740,
                    "time": 49.071379500000006,
                    "velocity": 1
                },
                {
                    "duration": 0.21428550000000257,
                    "durationTicks": 60,
                    "midi": 47,
                    "name": "B2",
                    "ticks": 13800,
                    "time": 49.285665,
                    "velocity": 1
                },
                {
                    "duration": 0.21428550000000257,
                    "durationTicks": 60,
                    "midi": 46,
                    "name": "A#2",
                    "ticks": 13860,
                    "time": 49.499950500000004,
                    "velocity": 1
                },
                {
                    "duration": 0.21428549999999547,
                    "durationTicks": 60,
                    "midi": 40,
                    "name": "E2",
                    "ticks": 13920,
                    "time": 49.71423600000001,
                    "velocity": 1
                },
                {
                    "duration": 0.21428550000000257,
                    "durationTicks": 60,
                    "midi": 40,
                    "name": "E2",
                    "ticks": 13980,
                    "time": 49.9285215,
                    "velocity": 1
                },
                {
                    "duration": 0.21428550000000257,
                    "durationTicks": 60,
                    "midi": 40,
                    "name": "E2",
                    "ticks": 14040,
                    "time": 50.142807000000005,
                    "velocity": 1
                },
                {
                    "duration": 0.21428549999999547,
                    "durationTicks": 60,
                    "midi": 40,
                    "name": "E2",
                    "ticks": 14100,
                    "time": 50.35709250000001,
                    "velocity": 1
                },
                {
                    "duration": 0.21428550000000257,
                    "durationTicks": 60,
                    "midi": 55,
                    "name": "G3",
                    "ticks": 14160,
                    "time": 50.571378,
                    "velocity": 1
                },
                {
                    "duration": 0.21428550000000257,
                    "durationTicks": 60,
                    "midi": 50,
                    "name": "D3",
                    "ticks": 14160,
                    "time": 50.571378,
                    "velocity": 1
                },
                {
                    "duration": 0.21428549999999547,
                    "durationTicks": 60,
                    "midi": 52,
                    "name": "E3",
                    "ticks": 14220,
                    "time": 50.785663500000005,
                    "velocity": 1
                },
                {
                    "duration": 0.21428549999999547,
                    "durationTicks": 60,
                    "midi": 57,
                    "name": "A3",
                    "ticks": 14220,
                    "time": 50.785663500000005,
                    "velocity": 1
                },
                {
                    "duration": 0.21428550000000257,
                    "durationTicks": 60,
                    "midi": 50,
                    "name": "D3",
                    "ticks": 14280,
                    "time": 50.999949,
                    "velocity": 1
                },
                {
                    "duration": 0.21428550000000257,
                    "durationTicks": 60,
                    "midi": 55,
                    "name": "G3",
                    "ticks": 14280,
                    "time": 50.999949,
                    "velocity": 1
                },
                {
                    "duration": 0.21428550000000257,
                    "durationTicks": 60,
                    "midi": 57,
                    "name": "A3",
                    "ticks": 14340,
                    "time": 51.2142345,
                    "velocity": 1
                },
                {
                    "duration": 0.21428550000000257,
                    "durationTicks": 60,
                    "midi": 52,
                    "name": "E3",
                    "ticks": 14340,
                    "time": 51.2142345,
                    "velocity": 1
                },
                {
                    "duration": 0.21428549999999547,
                    "durationTicks": 60,
                    "midi": 40,
                    "name": "E2",
                    "ticks": 14400,
                    "time": 51.428520000000006,
                    "velocity": 1
                },
                {
                    "duration": 0.21428550000000257,
                    "durationTicks": 60,
                    "midi": 40,
                    "name": "E2",
                    "ticks": 14460,
                    "time": 51.6428055,
                    "velocity": 1
                },
                {
                    "duration": 0.21428550000000257,
                    "durationTicks": 60,
                    "midi": 40,
                    "name": "E2",
                    "ticks": 14520,
                    "time": 51.857091000000004,
                    "velocity": 1
                },
                {
                    "duration": 0.21428549999999547,
                    "durationTicks": 60,
                    "midi": 40,
                    "name": "E2",
                    "ticks": 14580,
                    "time": 52.07137650000001,
                    "velocity": 1
                },
                {
                    "duration": 0.21428550000000257,
                    "durationTicks": 60,
                    "midi": 52,
                    "name": "E3",
                    "ticks": 14640,
                    "time": 52.285662,
                    "velocity": 1
                },
                {
                    "duration": 0.21428550000000257,
                    "durationTicks": 60,
                    "midi": 50,
                    "name": "D3",
                    "ticks": 14700,
                    "time": 52.499947500000005,
                    "velocity": 1
                },
                {
                    "duration": 0.21428549999999547,
                    "durationTicks": 60,
                    "midi": 47,
                    "name": "B2",
                    "ticks": 14760,
                    "time": 52.71423300000001,
                    "velocity": 1
                },
                {
                    "duration": 0.21428550000000257,
                    "durationTicks": 60,
                    "midi": 46,
                    "name": "A#2",
                    "ticks": 14820,
                    "time": 52.9285185,
                    "velocity": 1
                },
                {
                    "duration": 0.21428550000000257,
                    "durationTicks": 60,
                    "midi": 40,
                    "name": "E2",
                    "ticks": 14880,
                    "time": 53.142804000000005,
                    "velocity": 1
                },
                {
                    "duration": 0.21428549999999547,
                    "durationTicks": 60,
                    "midi": 40,
                    "name": "E2",
                    "ticks": 14940,
                    "time": 53.35708950000001,
                    "velocity": 1
                },
                {
                    "duration": 0.21428550000000257,
                    "durationTicks": 60,
                    "midi": 40,
                    "name": "E2",
                    "ticks": 15000,
                    "time": 53.571375,
                    "velocity": 1
                },
                {
                    "duration": 0.21428549999999547,
                    "durationTicks": 60,
                    "midi": 40,
                    "name": "E2",
                    "ticks": 15060,
                    "time": 53.785660500000006,
                    "velocity": 1
                },
                {
                    "duration": 0.21428550000000257,
                    "durationTicks": 60,
                    "midi": 55,
                    "name": "G3",
                    "ticks": 15120,
                    "time": 53.999946,
                    "velocity": 1
                },
                {
                    "duration": 0.21428550000000257,
                    "durationTicks": 60,
                    "midi": 50,
                    "name": "D3",
                    "ticks": 15120,
                    "time": 53.999946,
                    "velocity": 1
                },
                {
                    "duration": 0.21428550000000257,
                    "durationTicks": 60,
                    "midi": 52,
                    "name": "E3",
                    "ticks": 15180,
                    "time": 54.214231500000004,
                    "velocity": 1
                },
                {
                    "duration": 0.21428550000000257,
                    "durationTicks": 60,
                    "midi": 57,
                    "name": "A3",
                    "ticks": 15180,
                    "time": 54.214231500000004,
                    "velocity": 1
                },
                {
                    "duration": 0.21428549999999547,
                    "durationTicks": 60,
                    "midi": 50,
                    "name": "D3",
                    "ticks": 15240,
                    "time": 54.42851700000001,
                    "velocity": 1
                },
                {
                    "duration": 0.21428549999999547,
                    "durationTicks": 60,
                    "midi": 55,
                    "name": "G3",
                    "ticks": 15240,
                    "time": 54.42851700000001,
                    "velocity": 1
                },
                {
                    "duration": 0.21428550000000257,
                    "durationTicks": 60,
                    "midi": 57,
                    "name": "A3",
                    "ticks": 15300,
                    "time": 54.6428025,
                    "velocity": 1
                },
                {
                    "duration": 0.21428550000000257,
                    "durationTicks": 60,
                    "midi": 52,
                    "name": "E3",
                    "ticks": 15300,
                    "time": 54.6428025,
                    "velocity": 1
                },
                {
                    "duration": 0.21428550000000257,
                    "durationTicks": 60,
                    "midi": 40,
                    "name": "E2",
                    "ticks": 15360,
                    "time": 54.857088000000005,
                    "velocity": 1
                },
                {
                    "duration": 0.21428549999999547,
                    "durationTicks": 60,
                    "midi": 40,
                    "name": "E2",
                    "ticks": 15420,
                    "time": 55.07137350000001,
                    "velocity": 1
                },
                {
                    "duration": 0.21428550000000257,
                    "durationTicks": 60,
                    "midi": 40,
                    "name": "E2",
                    "ticks": 15480,
                    "time": 55.285659,
                    "velocity": 1
                },
                {
                    "duration": 0.21428550000000257,
                    "durationTicks": 60,
                    "midi": 40,
                    "name": "E2",
                    "ticks": 15540,
                    "time": 55.499944500000005,
                    "velocity": 1
                },
                {
                    "duration": 0.21428549999999547,
                    "durationTicks": 60,
                    "midi": 52,
                    "name": "E3",
                    "ticks": 15600,
                    "time": 55.71423000000001,
                    "velocity": 1
                },
                {
                    "duration": 0.21428550000000257,
                    "durationTicks": 60,
                    "midi": 50,
                    "name": "D3",
                    "ticks": 15660,
                    "time": 55.9285155,
                    "velocity": 1
                },
                {
                    "duration": 0.21428549999999547,
                    "durationTicks": 60,
                    "midi": 47,
                    "name": "B2",
                    "ticks": 15720,
                    "time": 56.142801000000006,
                    "velocity": 1
                },
                {
                    "duration": 0.21428550000000257,
                    "durationTicks": 60,
                    "midi": 46,
                    "name": "A#2",
                    "ticks": 15780,
                    "time": 56.3570865,
                    "velocity": 1
                },
                {
                    "duration": 0.21428550000000257,
                    "durationTicks": 60,
                    "midi": 40,
                    "name": "E2",
                    "ticks": 15840,
                    "time": 56.571372000000004,
                    "velocity": 1
                },
                {
                    "duration": 0.21428549999999547,
                    "durationTicks": 60,
                    "midi": 40,
                    "name": "E2",
                    "ticks": 15900,
                    "time": 56.785657500000006,
                    "velocity": 1
                },
                {
                    "duration": 0.21428550000000257,
                    "durationTicks": 60,
                    "midi": 40,
                    "name": "E2",
                    "ticks": 15960,
                    "time": 56.999943,
                    "velocity": 1
                },
                {
                    "duration": 0.21428550000000257,
                    "durationTicks": 60,
                    "midi": 40,
                    "name": "E2",
                    "ticks": 16020,
                    "time": 57.214228500000004,
                    "velocity": 1
                },
                {
                    "duration": 0.21428549999999547,
                    "durationTicks": 60,
                    "midi": 40,
                    "name": "E2",
                    "ticks": 16080,
                    "time": 57.42851400000001,
                    "velocity": 1
                },
                {
                    "duration": 0.21428550000000257,
                    "durationTicks": 60,
                    "midi": 40,
                    "name": "E2",
                    "ticks": 16140,
                    "time": 57.6427995,
                    "velocity": 1
                },
                {
                    "duration": 0.21428550000000257,
                    "durationTicks": 60,
                    "midi": 40,
                    "name": "E2",
                    "ticks": 16200,
                    "time": 57.857085000000005,
                    "velocity": 1
                },
                {
                    "duration": 0.21428549999999547,
                    "durationTicks": 60,
                    "midi": 40,
                    "name": "E2",
                    "ticks": 16260,
                    "time": 58.07137050000001,
                    "velocity": 1
                },
                {
                    "duration": 0.21428550000000257,
                    "durationTicks": 60,
                    "midi": 40,
                    "name": "E2",
                    "ticks": 16320,
                    "time": 58.285656,
                    "velocity": 1
                },
                {
                    "duration": 0.21428550000000257,
                    "durationTicks": 60,
                    "midi": 40,
                    "name": "E2",
                    "ticks": 16380,
                    "time": 58.499941500000006,
                    "velocity": 1
                },
                {
                    "duration": 0.21428549999999547,
                    "durationTicks": 60,
                    "midi": 40,
                    "name": "E2",
                    "ticks": 16440,
                    "time": 58.71422700000001,
                    "velocity": 1
                },
                {
                    "duration": 0.21428550000000257,
                    "durationTicks": 60,
                    "midi": 40,
                    "name": "E2",
                    "ticks": 16500,
                    "time": 58.928512500000004,
                    "velocity": 1
                },
                {
                    "duration": 0.21428549999999547,
                    "durationTicks": 60,
                    "midi": 47,
                    "name": "B2",
                    "ticks": 16560,
                    "time": 59.142798000000006,
                    "velocity": 1
                },
                {
                    "duration": 0.21428550000000257,
                    "durationTicks": 60,
                    "midi": 46,
                    "name": "A#2",
                    "ticks": 16620,
                    "time": 59.3570835,
                    "velocity": 1
                },
                {
                    "duration": 0.21428550000000257,
                    "durationTicks": 60,
                    "midi": 55,
                    "name": "G3",
                    "ticks": 16680,
                    "time": 59.571369000000004,
                    "velocity": 1
                },
                {
                    "duration": 0.21428549999999547,
                    "durationTicks": 60,
                    "midi": 52,
                    "name": "E3",
                    "ticks": 16740,
                    "time": 59.78565450000001,
                    "velocity": 1
                },
                {
                    "duration": 0.21428550000000257,
                    "durationTicks": 60,
                    "midi": 40,
                    "name": "E2",
                    "ticks": 16800,
                    "time": 59.99994,
                    "velocity": 1
                },
                {
                    "duration": 0.21428550000000257,
                    "durationTicks": 60,
                    "midi": 40,
                    "name": "E2",
                    "ticks": 16860,
                    "time": 60.214225500000005,
                    "velocity": 1
                },
                {
                    "duration": 0.21428549999999547,
                    "durationTicks": 60,
                    "midi": 40,
                    "name": "E2",
                    "ticks": 16920,
                    "time": 60.42851100000001,
                    "velocity": 1
                },
                {
                    "duration": 0.21428550000000257,
                    "durationTicks": 60,
                    "midi": 40,
                    "name": "E2",
                    "ticks": 16980,
                    "time": 60.6427965,
                    "velocity": 1
                },
                {
                    "duration": 0.21428550000000257,
                    "durationTicks": 60,
                    "midi": 40,
                    "name": "E2",
                    "ticks": 17040,
                    "time": 60.857082000000005,
                    "velocity": 1
                },
                {
                    "duration": 0.21428549999999547,
                    "durationTicks": 60,
                    "midi": 40,
                    "name": "E2",
                    "ticks": 17100,
                    "time": 61.07136750000001,
                    "velocity": 1
                },
                {
                    "duration": 0.21428550000000257,
                    "durationTicks": 60,
                    "midi": 40,
                    "name": "E2",
                    "ticks": 17160,
                    "time": 61.285653,
                    "velocity": 1
                },
                {
                    "duration": 0.21428549999999547,
                    "durationTicks": 60,
                    "midi": 40,
                    "name": "E2",
                    "ticks": 17220,
                    "time": 61.499938500000006,
                    "velocity": 1
                },
                {
                    "duration": 0.21428550000000257,
                    "durationTicks": 60,
                    "midi": 40,
                    "name": "E2",
                    "ticks": 17280,
                    "time": 61.714224,
                    "velocity": 1
                },
                {
                    "duration": 0.21428550000000257,
                    "durationTicks": 60,
                    "midi": 40,
                    "name": "E2",
                    "ticks": 17340,
                    "time": 61.928509500000004,
                    "velocity": 1
                },
                {
                    "duration": 0.21428549999999547,
                    "durationTicks": 60,
                    "midi": 40,
                    "name": "E2",
                    "ticks": 17400,
                    "time": 62.14279500000001,
                    "velocity": 1
                },
                {
                    "duration": 0.21428550000000257,
                    "durationTicks": 60,
                    "midi": 40,
                    "name": "E2",
                    "ticks": 17460,
                    "time": 62.3570805,
                    "velocity": 1
                },
                {
                    "duration": 0.21428550000000257,
                    "durationTicks": 60,
                    "midi": 47,
                    "name": "B2",
                    "ticks": 17520,
                    "time": 62.571366000000005,
                    "velocity": 1
                },
                {
                    "duration": 0.21428549999999547,
                    "durationTicks": 60,
                    "midi": 46,
                    "name": "A#2",
                    "ticks": 17580,
                    "time": 62.78565150000001,
                    "velocity": 1
                },
                {
                    "duration": 0.21428550000000257,
                    "durationTicks": 60,
                    "midi": 55,
                    "name": "G3",
                    "ticks": 17640,
                    "time": 62.999937,
                    "velocity": 1
                },
                {
                    "duration": 0.21428550000000257,
                    "durationTicks": 60,
                    "midi": 52,
                    "name": "E3",
                    "ticks": 17700,
                    "time": 63.214222500000005,
                    "velocity": 1
                },
                {
                    "duration": 0.21428549999999547,
                    "durationTicks": 60,
                    "midi": 40,
                    "name": "E2",
                    "ticks": 17760,
                    "time": 63.42850800000001,
                    "velocity": 1
                },
                {
                    "duration": 0.21428550000000257,
                    "durationTicks": 60,
                    "midi": 40,
                    "name": "E2",
                    "ticks": 17820,
                    "time": 63.6427935,
                    "velocity": 1
                },
                {
                    "duration": 0.21428549999999547,
                    "durationTicks": 60,
                    "midi": 40,
                    "name": "E2",
                    "ticks": 17880,
                    "time": 63.857079000000006,
                    "velocity": 1
                },
                {
                    "duration": 0.21428550000000257,
                    "durationTicks": 60,
                    "midi": 40,
                    "name": "E2",
                    "ticks": 17940,
                    "time": 64.0713645,
                    "velocity": 1
                },
                {
                    "duration": 0.21428550000000257,
                    "durationTicks": 60,
                    "midi": 40,
                    "name": "E2",
                    "ticks": 18000,
                    "time": 64.28565,
                    "velocity": 1
                },
                {
                    "duration": 0.21428550000000257,
                    "durationTicks": 60,
                    "midi": 40,
                    "name": "E2",
                    "ticks": 18060,
                    "time": 64.4999355,
                    "velocity": 1
                },
                {
                    "duration": 0.21428550000000257,
                    "durationTicks": 60,
                    "midi": 40,
                    "name": "E2",
                    "ticks": 18120,
                    "time": 64.71422100000001,
                    "velocity": 1
                },
                {
                    "duration": 0.21428549999998836,
                    "durationTicks": 60,
                    "midi": 40,
                    "name": "E2",
                    "ticks": 18180,
                    "time": 64.92850650000001,
                    "velocity": 1
                },
                {
                    "duration": 0.21428550000000257,
                    "durationTicks": 60,
                    "midi": 40,
                    "name": "E2",
                    "ticks": 18240,
                    "time": 65.142792,
                    "velocity": 1
                },
                {
                    "duration": 0.21428550000000257,
                    "durationTicks": 60,
                    "midi": 40,
                    "name": "E2",
                    "ticks": 18300,
                    "time": 65.3570775,
                    "velocity": 1
                },
                {
                    "duration": 0.21428550000000257,
                    "durationTicks": 60,
                    "midi": 40,
                    "name": "E2",
                    "ticks": 18360,
                    "time": 65.571363,
                    "velocity": 1
                },
                {
                    "duration": 0.21428550000000257,
                    "durationTicks": 60,
                    "midi": 40,
                    "name": "E2",
                    "ticks": 18420,
                    "time": 65.78564850000001,
                    "velocity": 1
                },
                {
                    "duration": 0.21428549999998836,
                    "durationTicks": 60,
                    "midi": 47,
                    "name": "B2",
                    "ticks": 18480,
                    "time": 65.99993400000001,
                    "velocity": 1
                },
                {
                    "duration": 0.21428550000000257,
                    "durationTicks": 60,
                    "midi": 46,
                    "name": "A#2",
                    "ticks": 18540,
                    "time": 66.2142195,
                    "velocity": 1
                },
                {
                    "duration": 0.21428550000000257,
                    "durationTicks": 60,
                    "midi": 55,
                    "name": "G3",
                    "ticks": 18600,
                    "time": 66.428505,
                    "velocity": 1
                },
                {
                    "duration": 0.21428550000000257,
                    "durationTicks": 60,
                    "midi": 52,
                    "name": "E3",
                    "ticks": 18660,
                    "time": 66.6427905,
                    "velocity": 1
                },
                {
                    "duration": 0.21428550000000257,
                    "durationTicks": 60,
                    "midi": 40,
                    "name": "E2",
                    "ticks": 18720,
                    "time": 66.857076,
                    "velocity": 1
                },
                {
                    "duration": 0.21428550000000257,
                    "durationTicks": 60,
                    "midi": 40,
                    "name": "E2",
                    "ticks": 18780,
                    "time": 67.07136150000001,
                    "velocity": 1
                },
                {
                    "duration": 0.21428549999998836,
                    "durationTicks": 60,
                    "midi": 40,
                    "name": "E2",
                    "ticks": 18840,
                    "time": 67.28564700000001,
                    "velocity": 1
                },
                {
                    "duration": 0.21428550000000257,
                    "durationTicks": 60,
                    "midi": 40,
                    "name": "E2",
                    "ticks": 18900,
                    "time": 67.4999325,
                    "velocity": 1
                },
                {
                    "duration": 0.21428550000000257,
                    "durationTicks": 60,
                    "midi": 40,
                    "name": "E2",
                    "ticks": 18960,
                    "time": 67.714218,
                    "velocity": 1
                },
                {
                    "duration": 0.21428550000000257,
                    "durationTicks": 60,
                    "midi": 40,
                    "name": "E2",
                    "ticks": 19020,
                    "time": 67.9285035,
                    "velocity": 1
                },
                {
                    "duration": 0.21428550000000257,
                    "durationTicks": 60,
                    "midi": 40,
                    "name": "E2",
                    "ticks": 19080,
                    "time": 68.14278900000001,
                    "velocity": 1
                },
                {
                    "duration": 0.21428549999998836,
                    "durationTicks": 60,
                    "midi": 40,
                    "name": "E2",
                    "ticks": 19140,
                    "time": 68.35707450000001,
                    "velocity": 1
                },
                {
                    "duration": 0.21428550000000257,
                    "durationTicks": 60,
                    "midi": 40,
                    "name": "E2",
                    "ticks": 19200,
                    "time": 68.57136,
                    "velocity": 1
                },
                {
                    "duration": 0.21428550000000257,
                    "durationTicks": 60,
                    "midi": 40,
                    "name": "E2",
                    "ticks": 19260,
                    "time": 68.7856455,
                    "velocity": 1
                },
                {
                    "duration": 0.21428550000000257,
                    "durationTicks": 60,
                    "midi": 40,
                    "name": "E2",
                    "ticks": 19320,
                    "time": 68.999931,
                    "velocity": 1
                },
                {
                    "duration": 0.21428550000000257,
                    "durationTicks": 60,
                    "midi": 40,
                    "name": "E2",
                    "ticks": 19380,
                    "time": 69.2142165,
                    "velocity": 1
                },
                {
                    "duration": 0.21428550000000257,
                    "durationTicks": 60,
                    "midi": 47,
                    "name": "B2",
                    "ticks": 19440,
                    "time": 69.42850200000001,
                    "velocity": 1
                },
                {
                    "duration": 0.21428549999998836,
                    "durationTicks": 60,
                    "midi": 46,
                    "name": "A#2",
                    "ticks": 19500,
                    "time": 69.64278750000001,
                    "velocity": 1
                },
                {
                    "duration": 0.21428550000000257,
                    "durationTicks": 60,
                    "midi": 55,
                    "name": "G3",
                    "ticks": 19560,
                    "time": 69.857073,
                    "velocity": 1
                },
                {
                    "duration": 0.21428550000000257,
                    "durationTicks": 60,
                    "midi": 52,
                    "name": "E3",
                    "ticks": 19620,
                    "time": 70.0713585,
                    "velocity": 1
                },
                {
                    "duration": 0.21428550000000257,
                    "durationTicks": 60,
                    "midi": 40,
                    "name": "E2",
                    "ticks": 19680,
                    "time": 70.285644,
                    "velocity": 1
                },
                {
                    "duration": 0.21428550000000257,
                    "durationTicks": 60,
                    "midi": 40,
                    "name": "E2",
                    "ticks": 19740,
                    "time": 70.49992950000001,
                    "velocity": 1
                },
                {
                    "duration": 0.21428550000000257,
                    "durationTicks": 60,
                    "midi": 40,
                    "name": "E2",
                    "ticks": 19800,
                    "time": 70.71421500000001,
                    "velocity": 1
                },
                {
                    "duration": 0.21428549999998836,
                    "durationTicks": 60,
                    "midi": 40,
                    "name": "E2",
                    "ticks": 19860,
                    "time": 70.92850050000001,
                    "velocity": 1
                },
                {
                    "duration": 0.21428550000000257,
                    "durationTicks": 60,
                    "midi": 40,
                    "name": "E2",
                    "ticks": 19920,
                    "time": 71.142786,
                    "velocity": 1
                },
                {
                    "duration": 0.21428550000000257,
                    "durationTicks": 60,
                    "midi": 40,
                    "name": "E2",
                    "ticks": 19980,
                    "time": 71.3570715,
                    "velocity": 1
                },
                {
                    "duration": 0.21428550000000257,
                    "durationTicks": 60,
                    "midi": 40,
                    "name": "E2",
                    "ticks": 20040,
                    "time": 71.571357,
                    "velocity": 1
                },
                {
                    "duration": 0.21428550000000257,
                    "durationTicks": 60,
                    "midi": 40,
                    "name": "E2",
                    "ticks": 20100,
                    "time": 71.78564250000001,
                    "velocity": 1
                },
                {
                    "duration": 0.21428549999998836,
                    "durationTicks": 60,
                    "midi": 40,
                    "name": "E2",
                    "ticks": 20160,
                    "time": 71.99992800000001,
                    "velocity": 1
                },
                {
                    "duration": 0.21428550000000257,
                    "durationTicks": 60,
                    "midi": 40,
                    "name": "E2",
                    "ticks": 20220,
                    "time": 72.2142135,
                    "velocity": 1
                },
                {
                    "duration": 0.21428550000000257,
                    "durationTicks": 60,
                    "midi": 40,
                    "name": "E2",
                    "ticks": 20280,
                    "time": 72.428499,
                    "velocity": 1
                },
                {
                    "duration": 0.21428550000000257,
                    "durationTicks": 60,
                    "midi": 40,
                    "name": "E2",
                    "ticks": 20340,
                    "time": 72.6427845,
                    "velocity": 1
                },
                {
                    "duration": 0.21428550000000257,
                    "durationTicks": 60,
                    "midi": 47,
                    "name": "B2",
                    "ticks": 20400,
                    "time": 72.85707000000001,
                    "velocity": 1
                },
                {
                    "duration": 0.21428550000000257,
                    "durationTicks": 60,
                    "midi": 46,
                    "name": "A#2",
                    "ticks": 20460,
                    "time": 73.07135550000001,
                    "velocity": 1
                },
                {
                    "duration": 0.21428549999998836,
                    "durationTicks": 60,
                    "midi": 55,
                    "name": "G3",
                    "ticks": 20520,
                    "time": 73.28564100000001,
                    "velocity": 1
                },
                {
                    "duration": 0.21428550000000257,
                    "durationTicks": 60,
                    "midi": 52,
                    "name": "E3",
                    "ticks": 20580,
                    "time": 73.4999265,
                    "velocity": 1
                },
                {
                    "duration": 0.21428550000000257,
                    "durationTicks": 60,
                    "midi": 40,
                    "name": "E2",
                    "ticks": 20640,
                    "time": 73.714212,
                    "velocity": 1
                },
                {
                    "duration": 0.21428550000000257,
                    "durationTicks": 60,
                    "midi": 40,
                    "name": "E2",
                    "ticks": 20700,
                    "time": 73.9284975,
                    "velocity": 1
                },
                {
                    "duration": 0.21428550000000257,
                    "durationTicks": 60,
                    "midi": 40,
                    "name": "E2",
                    "ticks": 20760,
                    "time": 74.14278300000001,
                    "velocity": 1
                },
                {
                    "duration": 0.21428549999998836,
                    "durationTicks": 60,
                    "midi": 40,
                    "name": "E2",
                    "ticks": 20820,
                    "time": 74.35706850000001,
                    "velocity": 1
                },
                {
                    "duration": 0.21428550000000257,
                    "durationTicks": 60,
                    "midi": 40,
                    "name": "E2",
                    "ticks": 20880,
                    "time": 74.571354,
                    "velocity": 1
                },
                {
                    "duration": 0.21428550000000257,
                    "durationTicks": 60,
                    "midi": 40,
                    "name": "E2",
                    "ticks": 20940,
                    "time": 74.7856395,
                    "velocity": 1
                },
                {
                    "duration": 0.21428550000000257,
                    "durationTicks": 60,
                    "midi": 40,
                    "name": "E2",
                    "ticks": 21000,
                    "time": 74.999925,
                    "velocity": 1
                },
                {
                    "duration": 0.21428550000000257,
                    "durationTicks": 60,
                    "midi": 40,
                    "name": "E2",
                    "ticks": 21060,
                    "time": 75.21421050000001,
                    "velocity": 1
                },
                {
                    "duration": 0.21428550000000257,
                    "durationTicks": 60,
                    "midi": 40,
                    "name": "E2",
                    "ticks": 21120,
                    "time": 75.42849600000001,
                    "velocity": 1
                },
                {
                    "duration": 0.21428549999998836,
                    "durationTicks": 60,
                    "midi": 40,
                    "name": "E2",
                    "ticks": 21180,
                    "time": 75.64278150000001,
                    "velocity": 1
                },
                {
                    "duration": 0.21428550000000257,
                    "durationTicks": 60,
                    "midi": 40,
                    "name": "E2",
                    "ticks": 21240,
                    "time": 75.857067,
                    "velocity": 1
                },
                {
                    "duration": 0.21428550000000257,
                    "durationTicks": 60,
                    "midi": 40,
                    "name": "E2",
                    "ticks": 21300,
                    "time": 76.0713525,
                    "velocity": 1
                },
                {
                    "duration": 0.21428550000000257,
                    "durationTicks": 60,
                    "midi": 47,
                    "name": "B2",
                    "ticks": 21360,
                    "time": 76.285638,
                    "velocity": 1
                },
                {
                    "duration": 0.21428550000000257,
                    "durationTicks": 60,
                    "midi": 46,
                    "name": "A#2",
                    "ticks": 21420,
                    "time": 76.49992350000001,
                    "velocity": 1
                },
                {
                    "duration": 0.21428549999998836,
                    "durationTicks": 60,
                    "midi": 55,
                    "name": "G3",
                    "ticks": 21480,
                    "time": 76.71420900000001,
                    "velocity": 1
                },
                {
                    "duration": 0.21428550000000257,
                    "durationTicks": 60,
                    "midi": 52,
                    "name": "E3",
                    "ticks": 21540,
                    "time": 76.9284945,
                    "velocity": 1
                },
                {
                    "duration": 0.21428550000000257,
                    "durationTicks": 60,
                    "midi": 40,
                    "name": "E2",
                    "ticks": 21600,
                    "time": 77.14278,
                    "velocity": 1
                },
                {
                    "duration": 0.21428550000000257,
                    "durationTicks": 60,
                    "midi": 40,
                    "name": "E2",
                    "ticks": 21660,
                    "time": 77.3570655,
                    "velocity": 1
                },
                {
                    "duration": 0.21428550000000257,
                    "durationTicks": 60,
                    "midi": 40,
                    "name": "E2",
                    "ticks": 21720,
                    "time": 77.571351,
                    "velocity": 1
                },
                {
                    "duration": 0.21428550000000257,
                    "durationTicks": 60,
                    "midi": 40,
                    "name": "E2",
                    "ticks": 21780,
                    "time": 77.78563650000001,
                    "velocity": 1
                },
                {
                    "duration": 0.21428549999998836,
                    "durationTicks": 60,
                    "midi": 40,
                    "name": "E2",
                    "ticks": 21840,
                    "time": 77.99992200000001,
                    "velocity": 1
                },
                {
                    "duration": 0.21428550000000257,
                    "durationTicks": 60,
                    "midi": 40,
                    "name": "E2",
                    "ticks": 21900,
                    "time": 78.2142075,
                    "velocity": 1
                },
                {
                    "duration": 0.21428550000000257,
                    "durationTicks": 60,
                    "midi": 40,
                    "name": "E2",
                    "ticks": 21960,
                    "time": 78.428493,
                    "velocity": 1
                },
                {
                    "duration": 0.21428550000000257,
                    "durationTicks": 60,
                    "midi": 40,
                    "name": "E2",
                    "ticks": 22020,
                    "time": 78.6427785,
                    "velocity": 1
                },
                {
                    "duration": 0.21428550000000257,
                    "durationTicks": 60,
                    "midi": 40,
                    "name": "E2",
                    "ticks": 22080,
                    "time": 78.85706400000001,
                    "velocity": 1
                },
                {
                    "duration": 0.21428550000000257,
                    "durationTicks": 60,
                    "midi": 40,
                    "name": "E2",
                    "ticks": 22140,
                    "time": 79.07134950000001,
                    "velocity": 1
                },
                {
                    "duration": 0.21428549999998836,
                    "durationTicks": 60,
                    "midi": 40,
                    "name": "E2",
                    "ticks": 22200,
                    "time": 79.28563500000001,
                    "velocity": 1
                },
                {
                    "duration": 0.21428550000000257,
                    "durationTicks": 60,
                    "midi": 40,
                    "name": "E2",
                    "ticks": 22260,
                    "time": 79.4999205,
                    "velocity": 1
                },
                {
                    "duration": 0.21428550000000257,
                    "durationTicks": 60,
                    "midi": 47,
                    "name": "B2",
                    "ticks": 22320,
                    "time": 79.714206,
                    "velocity": 1
                },
                {
                    "duration": 0.21428550000000257,
                    "durationTicks": 60,
                    "midi": 46,
                    "name": "A#2",
                    "ticks": 22380,
                    "time": 79.9284915,
                    "velocity": 1
                },
                {
                    "duration": 0.21428550000000257,
                    "durationTicks": 60,
                    "midi": 55,
                    "name": "G3",
                    "ticks": 22440,
                    "time": 80.14277700000001,
                    "velocity": 1
                },
                {
                    "duration": 0.21428549999998836,
                    "durationTicks": 60,
                    "midi": 52,
                    "name": "E3",
                    "ticks": 22500,
                    "time": 80.35706250000001,
                    "velocity": 1
                },
                {
                    "duration": 0.21428550000000257,
                    "durationTicks": 60,
                    "midi": 40,
                    "name": "E2",
                    "ticks": 22560,
                    "time": 80.571348,
                    "velocity": 1
                },
                {
                    "duration": 0.21428550000000257,
                    "durationTicks": 60,
                    "midi": 40,
                    "name": "E2",
                    "ticks": 22620,
                    "time": 80.7856335,
                    "velocity": 1
                },
                {
                    "duration": 0.21428550000000257,
                    "durationTicks": 60,
                    "midi": 40,
                    "name": "E2",
                    "ticks": 22680,
                    "time": 80.999919,
                    "velocity": 1
                },
                {
                    "duration": 0.21428550000000257,
                    "durationTicks": 60,
                    "midi": 40,
                    "name": "E2",
                    "ticks": 22740,
                    "time": 81.21420450000001,
                    "velocity": 1
                },
                {
                    "duration": 0.21428550000000257,
                    "durationTicks": 60,
                    "midi": 40,
                    "name": "E2",
                    "ticks": 22800,
                    "time": 81.42849000000001,
                    "velocity": 1
                },
                {
                    "duration": 0.21428549999998836,
                    "durationTicks": 60,
                    "midi": 40,
                    "name": "E2",
                    "ticks": 22860,
                    "time": 81.64277550000001,
                    "velocity": 1
                },
                {
                    "duration": 0.21428550000000257,
                    "durationTicks": 60,
                    "midi": 40,
                    "name": "E2",
                    "ticks": 22920,
                    "time": 81.857061,
                    "velocity": 1
                },
                {
                    "duration": 0.21428550000000257,
                    "durationTicks": 60,
                    "midi": 40,
                    "name": "E2",
                    "ticks": 22980,
                    "time": 82.0713465,
                    "velocity": 1
                },
                {
                    "duration": 0.21428550000000257,
                    "durationTicks": 60,
                    "midi": 40,
                    "name": "E2",
                    "ticks": 23040,
                    "time": 82.285632,
                    "velocity": 1
                },
                {
                    "duration": 0.21428550000000257,
                    "durationTicks": 60,
                    "midi": 40,
                    "name": "E2",
                    "ticks": 23100,
                    "time": 82.49991750000001,
                    "velocity": 1
                },
                {
                    "duration": 0.21428549999998836,
                    "durationTicks": 60,
                    "midi": 40,
                    "name": "E2",
                    "ticks": 23160,
                    "time": 82.71420300000001,
                    "velocity": 1
                },
                {
                    "duration": 0.21428550000000257,
                    "durationTicks": 60,
                    "midi": 40,
                    "name": "E2",
                    "ticks": 23220,
                    "time": 82.9284885,
                    "velocity": 1
                },
                {
                    "duration": 0.21428550000000257,
                    "durationTicks": 60,
                    "midi": 47,
                    "name": "B2",
                    "ticks": 23280,
                    "time": 83.142774,
                    "velocity": 1
                },
                {
                    "duration": 0.21428550000000257,
                    "durationTicks": 60,
                    "midi": 46,
                    "name": "A#2",
                    "ticks": 23340,
                    "time": 83.3570595,
                    "velocity": 1
                },
                {
                    "duration": 0.21428550000000257,
                    "durationTicks": 60,
                    "midi": 55,
                    "name": "G3",
                    "ticks": 23400,
                    "time": 83.57134500000001,
                    "velocity": 1
                },
                {
                    "duration": 0.21428550000000257,
                    "durationTicks": 60,
                    "midi": 52,
                    "name": "E3",
                    "ticks": 23460,
                    "time": 83.78563050000001,
                    "velocity": 1
                },
                {
                    "duration": 0.21428549999998836,
                    "durationTicks": 60,
                    "midi": 60,
                    "name": "C4",
                    "ticks": 23520,
                    "time": 83.99991600000001,
                    "velocity": 1
                },
                {
                    "duration": 0.21428549999998836,
                    "durationTicks": 60,
                    "midi": 55,
                    "name": "G3",
                    "ticks": 23520,
                    "time": 83.99991600000001,
                    "velocity": 1
                },
                {
                    "duration": 0.21428550000000257,
                    "durationTicks": 60,
                    "midi": 40,
                    "name": "E2",
                    "ticks": 23580,
                    "time": 84.2142015,
                    "velocity": 1
                },
                {
                    "duration": 0.21428550000000257,
                    "durationTicks": 60,
                    "midi": 40,
                    "name": "E2",
                    "ticks": 23640,
                    "time": 84.428487,
                    "velocity": 1
                },
                {
                    "duration": 0.21428550000000257,
                    "durationTicks": 60,
                    "midi": 40,
                    "name": "E2",
                    "ticks": 23700,
                    "time": 84.6427725,
                    "velocity": 1
                },
                {
                    "duration": 0.21428550000000257,
                    "durationTicks": 60,
                    "midi": 55,
                    "name": "G3",
                    "ticks": 23760,
                    "time": 84.85705800000001,
                    "velocity": 1
                },
                {
                    "duration": 0.21428550000000257,
                    "durationTicks": 60,
                    "midi": 60,
                    "name": "C4",
                    "ticks": 23760,
                    "time": 84.85705800000001,
                    "velocity": 1
                },
                {
                    "duration": 0.21428549999998836,
                    "durationTicks": 60,
                    "midi": 62,
                    "name": "D4",
                    "ticks": 23820,
                    "time": 85.07134350000001,
                    "velocity": 1
                },
                {
                    "duration": 0.21428549999998836,
                    "durationTicks": 60,
                    "midi": 57,
                    "name": "A3",
                    "ticks": 23820,
                    "time": 85.07134350000001,
                    "velocity": 1
                },
                {
                    "duration": 0.42857100000000514,
                    "durationTicks": 120,
                    "midi": 55,
                    "name": "G3",
                    "ticks": 23880,
                    "time": 85.285629,
                    "velocity": 1
                },
                {
                    "duration": 0.42857100000000514,
                    "durationTicks": 120,
                    "midi": 60,
                    "name": "C4",
                    "ticks": 23880,
                    "time": 85.285629,
                    "velocity": 1
                },
                {
                    "duration": 0.21428550000000257,
                    "durationTicks": 60,
                    "midi": 60,
                    "name": "C4",
                    "ticks": 24000,
                    "time": 85.7142,
                    "velocity": 1
                },
                {
                    "duration": 0.21428550000000257,
                    "durationTicks": 60,
                    "midi": 55,
                    "name": "G3",
                    "ticks": 24000,
                    "time": 85.7142,
                    "velocity": 1
                },
                {
                    "duration": 0.21428550000000257,
                    "durationTicks": 60,
                    "midi": 40,
                    "name": "E2",
                    "ticks": 24060,
                    "time": 85.92848550000001,
                    "velocity": 1
                },
                {
                    "duration": 0.21428550000000257,
                    "durationTicks": 60,
                    "midi": 40,
                    "name": "E2",
                    "ticks": 24120,
                    "time": 86.14277100000001,
                    "velocity": 1
                },
                {
                    "duration": 0.21428549999998836,
                    "durationTicks": 60,
                    "midi": 40,
                    "name": "E2",
                    "ticks": 24180,
                    "time": 86.35705650000001,
                    "velocity": 1
                },
                {
                    "duration": 0.21428550000000257,
                    "durationTicks": 60,
                    "midi": 55,
                    "name": "G3",
                    "ticks": 24240,
                    "time": 86.571342,
                    "velocity": 1
                },
                {
                    "duration": 0.21428550000000257,
                    "durationTicks": 60,
                    "midi": 60,
                    "name": "C4",
                    "ticks": 24240,
                    "time": 86.571342,
                    "velocity": 1
                },
                {
                    "duration": 0.21428550000000257,
                    "durationTicks": 60,
                    "midi": 62,
                    "name": "D4",
                    "ticks": 24300,
                    "time": 86.7856275,
                    "velocity": 1
                },
                {
                    "duration": 0.21428550000000257,
                    "durationTicks": 60,
                    "midi": 57,
                    "name": "A3",
                    "ticks": 24300,
                    "time": 86.7856275,
                    "velocity": 1
                },
                {
                    "duration": 0.42857100000000514,
                    "durationTicks": 120,
                    "midi": 55,
                    "name": "G3",
                    "ticks": 24360,
                    "time": 86.999913,
                    "velocity": 1
                },
                {
                    "duration": 0.42857100000000514,
                    "durationTicks": 120,
                    "midi": 60,
                    "name": "C4",
                    "ticks": 24360,
                    "time": 86.999913,
                    "velocity": 1
                },
                {
                    "duration": 0.21428550000000257,
                    "durationTicks": 60,
                    "midi": 60,
                    "name": "C4",
                    "ticks": 24480,
                    "time": 87.42848400000001,
                    "velocity": 1
                },
                {
                    "duration": 0.21428550000000257,
                    "durationTicks": 60,
                    "midi": 55,
                    "name": "G3",
                    "ticks": 24480,
                    "time": 87.42848400000001,
                    "velocity": 1
                },
                {
                    "duration": 0.21428549999998836,
                    "durationTicks": 60,
                    "midi": 40,
                    "name": "E2",
                    "ticks": 24540,
                    "time": 87.64276950000001,
                    "velocity": 1
                },
                {
                    "duration": 0.21428550000000257,
                    "durationTicks": 60,
                    "midi": 40,
                    "name": "E2",
                    "ticks": 24600,
                    "time": 87.857055,
                    "velocity": 1
                },
                {
                    "duration": 0.21428550000000257,
                    "durationTicks": 60,
                    "midi": 40,
                    "name": "E2",
                    "ticks": 24660,
                    "time": 88.0713405,
                    "velocity": 1
                },
                {
                    "duration": 0.21428550000000257,
                    "durationTicks": 60,
                    "midi": 55,
                    "name": "G3",
                    "ticks": 24720,
                    "time": 88.28562600000001,
                    "velocity": 1
                },
                {
                    "duration": 0.21428550000000257,
                    "durationTicks": 60,
                    "midi": 60,
                    "name": "C4",
                    "ticks": 24720,
                    "time": 88.28562600000001,
                    "velocity": 1
                },
                {
                    "duration": 0.21428550000000257,
                    "durationTicks": 60,
                    "midi": 62,
                    "name": "D4",
                    "ticks": 24780,
                    "time": 88.49991150000001,
                    "velocity": 1
                },
                {
                    "duration": 0.21428550000000257,
                    "durationTicks": 60,
                    "midi": 57,
                    "name": "A3",
                    "ticks": 24780,
                    "time": 88.49991150000001,
                    "velocity": 1
                },
                {
                    "duration": 0.42857099999999093,
                    "durationTicks": 120,
                    "midi": 55,
                    "name": "G3",
                    "ticks": 24840,
                    "time": 88.71419700000001,
                    "velocity": 1
                },
                {
                    "duration": 0.42857099999999093,
                    "durationTicks": 120,
                    "midi": 60,
                    "name": "C4",
                    "ticks": 24840,
                    "time": 88.71419700000001,
                    "velocity": 1
                },
                {
                    "duration": 0.21428550000000257,
                    "durationTicks": 60,
                    "midi": 62,
                    "name": "D4",
                    "ticks": 24960,
                    "time": 89.142768,
                    "velocity": 1
                },
                {
                    "duration": 0.21428550000000257,
                    "durationTicks": 60,
                    "midi": 60,
                    "name": "C4",
                    "ticks": 25020,
                    "time": 89.3570535,
                    "velocity": 1
                },
                {
                    "duration": 0.21428550000000257,
                    "durationTicks": 60,
                    "midi": 57,
                    "name": "A3",
                    "ticks": 25080,
                    "time": 89.57133900000001,
                    "velocity": 1
                },
                {
                    "duration": 0.21428550000000257,
                    "durationTicks": 60,
                    "midi": 56,
                    "name": "G#3",
                    "ticks": 25140,
                    "time": 89.78562450000001,
                    "velocity": 1
                },
                {
                    "duration": 0.21428549999998836,
                    "durationTicks": 60,
                    "midi": 55,
                    "name": "G3",
                    "ticks": 25200,
                    "time": 89.99991000000001,
                    "velocity": 1
                },
                {
                    "duration": 0.21428550000000257,
                    "durationTicks": 60,
                    "midi": 52,
                    "name": "E3",
                    "ticks": 25260,
                    "time": 90.2141955,
                    "velocity": 1
                },
                {
                    "duration": 0.21428550000000257,
                    "durationTicks": 60,
                    "midi": 51,
                    "name": "D#3",
                    "ticks": 25320,
                    "time": 90.428481,
                    "velocity": 1
                },
                {
                    "duration": 0.21428550000000257,
                    "durationTicks": 60,
                    "midi": 50,
                    "name": "D3",
                    "ticks": 25380,
                    "time": 90.64276650000001,
                    "velocity": 1
                },
                {
                    "duration": 0.21428550000000257,
                    "durationTicks": 60,
                    "midi": 60,
                    "name": "C4",
                    "ticks": 25440,
                    "time": 90.85705200000001,
                    "velocity": 1
                },
                {
                    "duration": 0.21428550000000257,
                    "durationTicks": 60,
                    "midi": 55,
                    "name": "G3",
                    "ticks": 25440,
                    "time": 90.85705200000001,
                    "velocity": 1
                },
                {
                    "duration": 0.21428549999998836,
                    "durationTicks": 60,
                    "midi": 40,
                    "name": "E2",
                    "ticks": 25500,
                    "time": 91.07133750000001,
                    "velocity": 1
                },
                {
                    "duration": 0.21428550000000257,
                    "durationTicks": 60,
                    "midi": 40,
                    "name": "E2",
                    "ticks": 25560,
                    "time": 91.285623,
                    "velocity": 1
                },
                {
                    "duration": 0.21428550000000257,
                    "durationTicks": 60,
                    "midi": 40,
                    "name": "E2",
                    "ticks": 25620,
                    "time": 91.4999085,
                    "velocity": 1
                },
                {
                    "duration": 0.21428550000000257,
                    "durationTicks": 60,
                    "midi": 55,
                    "name": "G3",
                    "ticks": 25680,
                    "time": 91.714194,
                    "velocity": 1
                },
                {
                    "duration": 0.21428550000000257,
                    "durationTicks": 60,
                    "midi": 60,
                    "name": "C4",
                    "ticks": 25680,
                    "time": 91.714194,
                    "velocity": 1
                },
                {
                    "duration": 0.21428550000000257,
                    "durationTicks": 60,
                    "midi": 62,
                    "name": "D4",
                    "ticks": 25740,
                    "time": 91.92847950000001,
                    "velocity": 1
                },
                {
                    "duration": 0.21428550000000257,
                    "durationTicks": 60,
                    "midi": 57,
                    "name": "A3",
                    "ticks": 25740,
                    "time": 91.92847950000001,
                    "velocity": 1
                },
                {
                    "duration": 0.42857099999999093,
                    "durationTicks": 120,
                    "midi": 55,
                    "name": "G3",
                    "ticks": 25800,
                    "time": 92.14276500000001,
                    "velocity": 1
                },
                {
                    "duration": 0.42857099999999093,
                    "durationTicks": 120,
                    "midi": 60,
                    "name": "C4",
                    "ticks": 25800,
                    "time": 92.14276500000001,
                    "velocity": 1
                },
                {
                    "duration": 0.21428550000000257,
                    "durationTicks": 60,
                    "midi": 60,
                    "name": "C4",
                    "ticks": 25920,
                    "time": 92.571336,
                    "velocity": 1
                },
                {
                    "duration": 0.21428550000000257,
                    "durationTicks": 60,
                    "midi": 55,
                    "name": "G3",
                    "ticks": 25920,
                    "time": 92.571336,
                    "velocity": 1
                },
                {
                    "duration": 0.21428550000000257,
                    "durationTicks": 60,
                    "midi": 40,
                    "name": "E2",
                    "ticks": 25980,
                    "time": 92.7856215,
                    "velocity": 1
                },
                {
                    "duration": 0.21428550000000257,
                    "durationTicks": 60,
                    "midi": 40,
                    "name": "E2",
                    "ticks": 26040,
                    "time": 92.99990700000001,
                    "velocity": 1
                },
                {
                    "duration": 0.21428550000000257,
                    "durationTicks": 60,
                    "midi": 40,
                    "name": "E2",
                    "ticks": 26100,
                    "time": 93.21419250000001,
                    "velocity": 1
                },
                {
                    "duration": 0.21428549999998836,
                    "durationTicks": 60,
                    "midi": 55,
                    "name": "G3",
                    "ticks": 26160,
                    "time": 93.42847800000001,
                    "velocity": 1
                },
                {
                    "duration": 0.21428549999998836,
                    "durationTicks": 60,
                    "midi": 60,
                    "name": "C4",
                    "ticks": 26160,
                    "time": 93.42847800000001,
                    "velocity": 1
                },
                {
                    "duration": 0.21428550000000257,
                    "durationTicks": 60,
                    "midi": 62,
                    "name": "D4",
                    "ticks": 26220,
                    "time": 93.6427635,
                    "velocity": 1
                },
                {
                    "duration": 0.21428550000000257,
                    "durationTicks": 60,
                    "midi": 57,
                    "name": "A3",
                    "ticks": 26220,
                    "time": 93.6427635,
                    "velocity": 1
                },
                {
                    "duration": 0.42857100000000514,
                    "durationTicks": 120,
                    "midi": 55,
                    "name": "G3",
                    "ticks": 26280,
                    "time": 93.857049,
                    "velocity": 1
                },
                {
                    "duration": 0.42857100000000514,
                    "durationTicks": 120,
                    "midi": 60,
                    "name": "C4",
                    "ticks": 26280,
                    "time": 93.857049,
                    "velocity": 1
                },
                {
                    "duration": 0.21428550000000257,
                    "durationTicks": 60,
                    "midi": 60,
                    "name": "C4",
                    "ticks": 26400,
                    "time": 94.28562000000001,
                    "velocity": 1
                },
                {
                    "duration": 0.21428550000000257,
                    "durationTicks": 60,
                    "midi": 55,
                    "name": "G3",
                    "ticks": 26400,
                    "time": 94.28562000000001,
                    "velocity": 1
                },
                {
                    "duration": 0.21428550000000257,
                    "durationTicks": 60,
                    "midi": 40,
                    "name": "E2",
                    "ticks": 26460,
                    "time": 94.49990550000001,
                    "velocity": 1
                },
                {
                    "duration": 0.21428549999998836,
                    "durationTicks": 60,
                    "midi": 40,
                    "name": "E2",
                    "ticks": 26520,
                    "time": 94.71419100000001,
                    "velocity": 1
                },
                {
                    "duration": 0.21428550000000257,
                    "durationTicks": 60,
                    "midi": 40,
                    "name": "E2",
                    "ticks": 26580,
                    "time": 94.9284765,
                    "velocity": 1
                },
                {
                    "duration": 0.21428550000000257,
                    "durationTicks": 60,
                    "midi": 55,
                    "name": "G3",
                    "ticks": 26640,
                    "time": 95.142762,
                    "velocity": 1
                },
                {
                    "duration": 0.21428550000000257,
                    "durationTicks": 60,
                    "midi": 60,
                    "name": "C4",
                    "ticks": 26640,
                    "time": 95.142762,
                    "velocity": 1
                },
                {
                    "duration": 0.21428550000000257,
                    "durationTicks": 60,
                    "midi": 62,
                    "name": "D4",
                    "ticks": 26700,
                    "time": 95.35704750000001,
                    "velocity": 1
                },
                {
                    "duration": 0.21428550000000257,
                    "durationTicks": 60,
                    "midi": 57,
                    "name": "A3",
                    "ticks": 26700,
                    "time": 95.35704750000001,
                    "velocity": 1
                },
                {
                    "duration": 0.42857100000000514,
                    "durationTicks": 120,
                    "midi": 55,
                    "name": "G3",
                    "ticks": 26760,
                    "time": 95.57133300000001,
                    "velocity": 1
                },
                {
                    "duration": 0.42857100000000514,
                    "durationTicks": 120,
                    "midi": 60,
                    "name": "C4",
                    "ticks": 26760,
                    "time": 95.57133300000001,
                    "velocity": 1
                },
                {
                    "duration": 0.21428549999998836,
                    "durationTicks": 60,
                    "midi": 64,
                    "name": "E4",
                    "ticks": 26880,
                    "time": 95.99990400000002,
                    "velocity": 1
                },
                {
                    "duration": 0.21428550000000257,
                    "durationTicks": 60,
                    "midi": 62,
                    "name": "D4",
                    "ticks": 26940,
                    "time": 96.2141895,
                    "velocity": 1
                },
                {
                    "duration": 0.21428550000000257,
                    "durationTicks": 60,
                    "midi": 59,
                    "name": "B3",
                    "ticks": 27000,
                    "time": 96.428475,
                    "velocity": 1
                },
                {
                    "duration": 0.21428550000000257,
                    "durationTicks": 60,
                    "midi": 62,
                    "name": "D4",
                    "ticks": 27060,
                    "time": 96.64276050000001,
                    "velocity": 1
                },
                {
                    "duration": 0.21428550000000257,
                    "durationTicks": 60,
                    "midi": 59,
                    "name": "B3",
                    "ticks": 27120,
                    "time": 96.85704600000001,
                    "velocity": 1
                },
                {
                    "duration": 0.21428549999998836,
                    "durationTicks": 60,
                    "midi": 58,
                    "name": "A#3",
                    "ticks": 27180,
                    "time": 97.07133150000001,
                    "velocity": 1
                },
                {
                    "duration": 0.21428550000000257,
                    "durationTicks": 60,
                    "midi": 57,
                    "name": "A3",
                    "ticks": 27240,
                    "time": 97.285617,
                    "velocity": 1
                },
                {
                    "duration": 0.21428550000000257,
                    "durationTicks": 60,
                    "midi": 55,
                    "name": "G3",
                    "ticks": 27300,
                    "time": 97.4999025,
                    "velocity": 1
                },
                {
                    "duration": 0.21428550000000257,
                    "durationTicks": 60,
                    "midi": 64,
                    "name": "E4",
                    "ticks": 27360,
                    "time": 97.71418800000001,
                    "velocity": 1
                },
                {
                    "duration": 0.21428550000000257,
                    "durationTicks": 60,
                    "midi": 62,
                    "name": "D4",
                    "ticks": 27420,
                    "time": 97.92847350000001,
                    "velocity": 1
                },
                {
                    "duration": 0.21428550000000257,
                    "durationTicks": 60,
                    "midi": 59,
                    "name": "B3",
                    "ticks": 27480,
                    "time": 98.14275900000001,
                    "velocity": 1
                },
                {
                    "duration": 0.21428549999998836,
                    "durationTicks": 60,
                    "midi": 62,
                    "name": "D4",
                    "ticks": 27540,
                    "time": 98.35704450000001,
                    "velocity": 1
                },
                {
                    "duration": 0.21428550000000257,
                    "durationTicks": 60,
                    "midi": 59,
                    "name": "B3",
                    "ticks": 27600,
                    "time": 98.57133,
                    "velocity": 1
                },
                {
                    "duration": 0.21428550000000257,
                    "durationTicks": 60,
                    "midi": 58,
                    "name": "A#3",
                    "ticks": 27660,
                    "time": 98.7856155,
                    "velocity": 1
                },
                {
                    "duration": 0.21428550000000257,
                    "durationTicks": 60,
                    "midi": 57,
                    "name": "A3",
                    "ticks": 27720,
                    "time": 98.99990100000001,
                    "velocity": 1
                },
                {
                    "duration": 0.21428550000000257,
                    "durationTicks": 60,
                    "midi": 55,
                    "name": "G3",
                    "ticks": 27780,
                    "time": 99.21418650000001,
                    "velocity": 1
                },
                {
                    "duration": 1.7142839999999921,
                    "durationTicks": 480,
                    "midi": 62,
                    "name": "D4",
                    "ticks": 27840,
                    "time": 99.42847200000001,
                    "velocity": 1
                },
                {
                    "duration": 1.7142839999999921,
                    "durationTicks": 480,
                    "midi": 55,
                    "name": "G3",
                    "ticks": 27840,
                    "time": 99.42847200000001,
                    "velocity": 1
                },
                {
                    "duration": 0.8571419999999961,
                    "durationTicks": 240,
                    "midi": 61,
                    "name": "C#4",
                    "ticks": 28320,
                    "time": 101.142756,
                    "velocity": 1
                },
                {
                    "duration": 0.8571419999999961,
                    "durationTicks": 240,
                    "midi": 54,
                    "name": "F#3",
                    "ticks": 28320,
                    "time": 101.142756,
                    "velocity": 1
                },
                {
                    "duration": 0.8571420000000103,
                    "durationTicks": 240,
                    "midi": 60,
                    "name": "C4",
                    "ticks": 28560,
                    "time": 101.999898,
                    "velocity": 1
                },
                {
                    "duration": 0.8571420000000103,
                    "durationTicks": 240,
                    "midi": 53,
                    "name": "F3",
                    "ticks": 28560,
                    "time": 101.999898,
                    "velocity": 1
                },
                {
                    "duration": 0.21428550000000257,
                    "durationTicks": 60,
                    "midi": 40,
                    "name": "E2",
                    "ticks": 28800,
                    "time": 102.85704000000001,
                    "velocity": 1
                },
                {
                    "duration": 0.21428549999998836,
                    "durationTicks": 60,
                    "midi": 40,
                    "name": "E2",
                    "ticks": 28860,
                    "time": 103.07132550000001,
                    "velocity": 1
                },
                {
                    "duration": 0.21428550000000257,
                    "durationTicks": 60,
                    "midi": 40,
                    "name": "E2",
                    "ticks": 28920,
                    "time": 103.285611,
                    "velocity": 1
                },
                {
                    "duration": 0.21428550000000257,
                    "durationTicks": 60,
                    "midi": 40,
                    "name": "E2",
                    "ticks": 28980,
                    "time": 103.4998965,
                    "velocity": 1
                },
                {
                    "duration": 0.21428550000000257,
                    "durationTicks": 60,
                    "midi": 40,
                    "name": "E2",
                    "ticks": 29040,
                    "time": 103.71418200000001,
                    "velocity": 1
                },
                {
                    "duration": 0.21428550000000257,
                    "durationTicks": 60,
                    "midi": 40,
                    "name": "E2",
                    "ticks": 29100,
                    "time": 103.92846750000001,
                    "velocity": 1
                },
                {
                    "duration": 0.21428549999998836,
                    "durationTicks": 60,
                    "midi": 40,
                    "name": "E2",
                    "ticks": 29160,
                    "time": 104.14275300000001,
                    "velocity": 1
                },
                {
                    "duration": 0.21428550000000257,
                    "durationTicks": 60,
                    "midi": 40,
                    "name": "E2",
                    "ticks": 29220,
                    "time": 104.3570385,
                    "velocity": 1
                },
                {
                    "duration": 0.21428550000000257,
                    "durationTicks": 60,
                    "midi": 40,
                    "name": "E2",
                    "ticks": 29280,
                    "time": 104.571324,
                    "velocity": 1
                },
                {
                    "duration": 0.21428550000000257,
                    "durationTicks": 60,
                    "midi": 40,
                    "name": "E2",
                    "ticks": 29340,
                    "time": 104.7856095,
                    "velocity": 1
                },
                {
                    "duration": 0.21428550000000257,
                    "durationTicks": 60,
                    "midi": 40,
                    "name": "E2",
                    "ticks": 29400,
                    "time": 104.99989500000001,
                    "velocity": 1
                },
                {
                    "duration": 0.21428550000000257,
                    "durationTicks": 60,
                    "midi": 40,
                    "name": "E2",
                    "ticks": 29460,
                    "time": 105.21418050000001,
                    "velocity": 1
                },
                {
                    "duration": 0.21428549999998836,
                    "durationTicks": 60,
                    "midi": 40,
                    "name": "E2",
                    "ticks": 29520,
                    "time": 105.42846600000001,
                    "velocity": 1
                },
                {
                    "duration": 0.21428550000000257,
                    "durationTicks": 60,
                    "midi": 40,
                    "name": "E2",
                    "ticks": 29580,
                    "time": 105.6427515,
                    "velocity": 1
                },
                {
                    "duration": 0.21428550000000257,
                    "durationTicks": 60,
                    "midi": 40,
                    "name": "E2",
                    "ticks": 29640,
                    "time": 105.857037,
                    "velocity": 1
                },
                {
                    "duration": 0.21428550000000257,
                    "durationTicks": 60,
                    "midi": 40,
                    "name": "E2",
                    "ticks": 29700,
                    "time": 106.07132250000001,
                    "velocity": 1
                },
                {
                    "duration": 1.7142839999999921,
                    "durationTicks": 480,
                    "midi": 62,
                    "name": "D4",
                    "ticks": 29760,
                    "time": 106.28560800000001,
                    "velocity": 1
                },
                {
                    "duration": 1.7142839999999921,
                    "durationTicks": 480,
                    "midi": 55,
                    "name": "G3",
                    "ticks": 29760,
                    "time": 106.28560800000001,
                    "velocity": 1
                },
                {
                    "duration": 0.8571420000000103,
                    "durationTicks": 240,
                    "midi": 61,
                    "name": "C#4",
                    "ticks": 30240,
                    "time": 107.999892,
                    "velocity": 1
                },
                {
                    "duration": 0.8571420000000103,
                    "durationTicks": 240,
                    "midi": 54,
                    "name": "F#3",
                    "ticks": 30240,
                    "time": 107.999892,
                    "velocity": 1
                },
                {
                    "duration": 0.8571419999999961,
                    "durationTicks": 240,
                    "midi": 60,
                    "name": "C4",
                    "ticks": 30480,
                    "time": 108.85703400000001,
                    "velocity": 1
                },
                {
                    "duration": 0.8571419999999961,
                    "durationTicks": 240,
                    "midi": 53,
                    "name": "F3",
                    "ticks": 30480,
                    "time": 108.85703400000001,
                    "velocity": 1
                },
                {
                    "duration": 0.21428550000000257,
                    "durationTicks": 60,
                    "midi": 40,
                    "name": "E2",
                    "ticks": 30720,
                    "time": 109.71417600000001,
                    "velocity": 1
                },
                {
                    "duration": 0.21428550000000257,
                    "durationTicks": 60,
                    "midi": 40,
                    "name": "E2",
                    "ticks": 30780,
                    "time": 109.92846150000001,
                    "velocity": 1
                },
                {
                    "duration": 0.21428549999998836,
                    "durationTicks": 60,
                    "midi": 40,
                    "name": "E2",
                    "ticks": 30840,
                    "time": 110.14274700000001,
                    "velocity": 1
                },
                {
                    "duration": 0.21428550000000257,
                    "durationTicks": 60,
                    "midi": 40,
                    "name": "E2",
                    "ticks": 30900,
                    "time": 110.3570325,
                    "velocity": 1
                },
                {
                    "duration": 0.21428550000000257,
                    "durationTicks": 60,
                    "midi": 40,
                    "name": "E2",
                    "ticks": 30960,
                    "time": 110.571318,
                    "velocity": 1
                },
                {
                    "duration": 0.21428550000000257,
                    "durationTicks": 60,
                    "midi": 40,
                    "name": "E2",
                    "ticks": 31020,
                    "time": 110.78560350000001,
                    "velocity": 1
                },
                {
                    "duration": 0.21428550000000257,
                    "durationTicks": 60,
                    "midi": 40,
                    "name": "E2",
                    "ticks": 31080,
                    "time": 110.99988900000001,
                    "velocity": 1
                },
                {
                    "duration": 0.21428550000000257,
                    "durationTicks": 60,
                    "midi": 40,
                    "name": "E2",
                    "ticks": 31140,
                    "time": 111.21417450000001,
                    "velocity": 1
                },
                {
                    "duration": 0.21428549999998836,
                    "durationTicks": 60,
                    "midi": 40,
                    "name": "E2",
                    "ticks": 31200,
                    "time": 111.42846000000002,
                    "velocity": 1
                },
                {
                    "duration": 0.21428550000000257,
                    "durationTicks": 60,
                    "midi": 40,
                    "name": "E2",
                    "ticks": 31260,
                    "time": 111.6427455,
                    "velocity": 1
                },
                {
                    "duration": 0.21428550000000257,
                    "durationTicks": 60,
                    "midi": 40,
                    "name": "E2",
                    "ticks": 31320,
                    "time": 111.857031,
                    "velocity": 1
                },
                {
                    "duration": 0.21428550000000257,
                    "durationTicks": 60,
                    "midi": 40,
                    "name": "E2",
                    "ticks": 31380,
                    "time": 112.07131650000001,
                    "velocity": 1
                },
                {
                    "duration": 0.21428550000000257,
                    "durationTicks": 60,
                    "midi": 40,
                    "name": "E2",
                    "ticks": 31440,
                    "time": 112.28560200000001,
                    "velocity": 1
                },
                {
                    "duration": 0.21428549999998836,
                    "durationTicks": 60,
                    "midi": 40,
                    "name": "E2",
                    "ticks": 31500,
                    "time": 112.49988750000001,
                    "velocity": 1
                },
                {
                    "duration": 0.21428550000000257,
                    "durationTicks": 60,
                    "midi": 40,
                    "name": "E2",
                    "ticks": 31560,
                    "time": 112.714173,
                    "velocity": 1
                },
                {
                    "duration": 0.21428550000000257,
                    "durationTicks": 60,
                    "midi": 40,
                    "name": "E2",
                    "ticks": 31620,
                    "time": 112.9284585,
                    "velocity": 1
                },
                {
                    "duration": 1.7142840000000064,
                    "durationTicks": 480,
                    "midi": 62,
                    "name": "D4",
                    "ticks": 31680,
                    "time": 113.14274400000001,
                    "velocity": 1
                },
                {
                    "duration": 1.7142840000000064,
                    "durationTicks": 480,
                    "midi": 55,
                    "name": "G3",
                    "ticks": 31680,
                    "time": 113.14274400000001,
                    "velocity": 1
                },
                {
                    "duration": 0.8571419999999961,
                    "durationTicks": 240,
                    "midi": 61,
                    "name": "C#4",
                    "ticks": 32160,
                    "time": 114.85702800000001,
                    "velocity": 1
                },
                {
                    "duration": 0.8571419999999961,
                    "durationTicks": 240,
                    "midi": 54,
                    "name": "F#3",
                    "ticks": 32160,
                    "time": 114.85702800000001,
                    "velocity": 1
                },
                {
                    "duration": 0.8571419999999961,
                    "durationTicks": 240,
                    "midi": 60,
                    "name": "C4",
                    "ticks": 32400,
                    "time": 115.71417000000001,
                    "velocity": 1
                },
                {
                    "duration": 0.8571419999999961,
                    "durationTicks": 240,
                    "midi": 53,
                    "name": "F3",
                    "ticks": 32400,
                    "time": 115.71417000000001,
                    "velocity": 1
                },
                {
                    "duration": 0.21428550000000257,
                    "durationTicks": 60,
                    "midi": 40,
                    "name": "E2",
                    "ticks": 32640,
                    "time": 116.571312,
                    "velocity": 1
                },
                {
                    "duration": 0.21428550000000257,
                    "durationTicks": 60,
                    "midi": 40,
                    "name": "E2",
                    "ticks": 32700,
                    "time": 116.78559750000001,
                    "velocity": 1
                },
                {
                    "duration": 0.21428550000000257,
                    "durationTicks": 60,
                    "midi": 40,
                    "name": "E2",
                    "ticks": 32760,
                    "time": 116.99988300000001,
                    "velocity": 1
                },
                {
                    "duration": 0.21428550000000257,
                    "durationTicks": 60,
                    "midi": 40,
                    "name": "E2",
                    "ticks": 32820,
                    "time": 117.21416850000001,
                    "velocity": 1
                },
                {
                    "duration": 0.21428549999998836,
                    "durationTicks": 60,
                    "midi": 40,
                    "name": "E2",
                    "ticks": 32880,
                    "time": 117.42845400000002,
                    "velocity": 1
                },
                {
                    "duration": 0.21428550000000257,
                    "durationTicks": 60,
                    "midi": 40,
                    "name": "E2",
                    "ticks": 32940,
                    "time": 117.6427395,
                    "velocity": 1
                },
                {
                    "duration": 0.21428550000000257,
                    "durationTicks": 60,
                    "midi": 40,
                    "name": "E2",
                    "ticks": 33000,
                    "time": 117.85702500000001,
                    "velocity": 1
                },
                {
                    "duration": 0.21428550000000257,
                    "durationTicks": 60,
                    "midi": 40,
                    "name": "E2",
                    "ticks": 33060,
                    "time": 118.07131050000001,
                    "velocity": 1
                },
                {
                    "duration": 0.21428550000000257,
                    "durationTicks": 60,
                    "midi": 40,
                    "name": "E2",
                    "ticks": 33120,
                    "time": 118.28559600000001,
                    "velocity": 1
                },
                {
                    "duration": 0.21428549999998836,
                    "durationTicks": 60,
                    "midi": 40,
                    "name": "E2",
                    "ticks": 33180,
                    "time": 118.49988150000001,
                    "velocity": 1
                },
                {
                    "duration": 0.21428550000000257,
                    "durationTicks": 60,
                    "midi": 40,
                    "name": "E2",
                    "ticks": 33240,
                    "time": 118.714167,
                    "velocity": 1
                },
                {
                    "duration": 0.21428550000000257,
                    "durationTicks": 60,
                    "midi": 40,
                    "name": "E2",
                    "ticks": 33300,
                    "time": 118.9284525,
                    "velocity": 1
                },
                {
                    "duration": 0.21428550000000257,
                    "durationTicks": 60,
                    "midi": 40,
                    "name": "E2",
                    "ticks": 33360,
                    "time": 119.14273800000001,
                    "velocity": 1
                },
                {
                    "duration": 0.21428550000000257,
                    "durationTicks": 60,
                    "midi": 40,
                    "name": "E2",
                    "ticks": 33420,
                    "time": 119.35702350000001,
                    "velocity": 1
                },
                {
                    "duration": 0.21428550000000257,
                    "durationTicks": 60,
                    "midi": 40,
                    "name": "E2",
                    "ticks": 33480,
                    "time": 119.57130900000001,
                    "velocity": 1
                },
                {
                    "duration": 0.21428549999998836,
                    "durationTicks": 60,
                    "midi": 40,
                    "name": "E2",
                    "ticks": 33540,
                    "time": 119.78559450000002,
                    "velocity": 1
                },
                {
                    "duration": 1.7142840000000064,
                    "durationTicks": 480,
                    "midi": 62,
                    "name": "D4",
                    "ticks": 33600,
                    "time": 119.99988,
                    "velocity": 1
                },
                {
                    "duration": 1.7142840000000064,
                    "durationTicks": 480,
                    "midi": 55,
                    "name": "G3",
                    "ticks": 33600,
                    "time": 119.99988,
                    "velocity": 1
                },
                {
                    "duration": 0.8571419999999961,
                    "durationTicks": 240,
                    "midi": 61,
                    "name": "C#4",
                    "ticks": 34080,
                    "time": 121.71416400000001,
                    "velocity": 1
                },
                {
                    "duration": 0.8571419999999961,
                    "durationTicks": 240,
                    "midi": 54,
                    "name": "F#3",
                    "ticks": 34080,
                    "time": 121.71416400000001,
                    "velocity": 1
                },
                {
                    "duration": 0.8571419999999961,
                    "durationTicks": 240,
                    "midi": 60,
                    "name": "C4",
                    "ticks": 34320,
                    "time": 122.571306,
                    "velocity": 1
                },
                {
                    "duration": 0.8571419999999961,
                    "durationTicks": 240,
                    "midi": 53,
                    "name": "F3",
                    "ticks": 34320,
                    "time": 122.571306,
                    "velocity": 1
                },
                {
                    "duration": 0.21428550000000257,
                    "durationTicks": 60,
                    "midi": 40,
                    "name": "E2",
                    "ticks": 34560,
                    "time": 123.428448,
                    "velocity": 1
                },
                {
                    "duration": 0.21428550000000257,
                    "durationTicks": 60,
                    "midi": 40,
                    "name": "E2",
                    "ticks": 34620,
                    "time": 123.6427335,
                    "velocity": 1
                },
                {
                    "duration": 0.21428550000000257,
                    "durationTicks": 60,
                    "midi": 40,
                    "name": "E2",
                    "ticks": 34680,
                    "time": 123.85701900000001,
                    "velocity": 1
                },
                {
                    "duration": 0.21428550000000257,
                    "durationTicks": 60,
                    "midi": 40,
                    "name": "E2",
                    "ticks": 34740,
                    "time": 124.07130450000001,
                    "velocity": 1
                },
                {
                    "duration": 0.21428550000000257,
                    "durationTicks": 60,
                    "midi": 55,
                    "name": "G3",
                    "ticks": 34800,
                    "time": 124.28559000000001,
                    "velocity": 1
                },
                {
                    "duration": 0.21428550000000257,
                    "durationTicks": 60,
                    "midi": 50,
                    "name": "D3",
                    "ticks": 34800,
                    "time": 124.28559000000001,
                    "velocity": 1
                },
                {
                    "duration": 0.21428549999998836,
                    "durationTicks": 60,
                    "midi": 52,
                    "name": "E3",
                    "ticks": 34860,
                    "time": 124.49987550000002,
                    "velocity": 1
                },
                {
                    "duration": 0.21428549999998836,
                    "durationTicks": 60,
                    "midi": 57,
                    "name": "A3",
                    "ticks": 34860,
                    "time": 124.49987550000002,
                    "velocity": 1
                },
                {
                    "duration": 0.21428550000000257,
                    "durationTicks": 60,
                    "midi": 50,
                    "name": "D3",
                    "ticks": 34920,
                    "time": 124.714161,
                    "velocity": 1
                },
                {
                    "duration": 0.21428550000000257,
                    "durationTicks": 60,
                    "midi": 55,
                    "name": "G3",
                    "ticks": 34920,
                    "time": 124.714161,
                    "velocity": 1
                },
                {
                    "duration": 0.21428550000000257,
                    "durationTicks": 60,
                    "midi": 57,
                    "name": "A3",
                    "ticks": 34980,
                    "time": 124.9284465,
                    "velocity": 1
                },
                {
                    "duration": 0.21428550000000257,
                    "durationTicks": 60,
                    "midi": 52,
                    "name": "E3",
                    "ticks": 34980,
                    "time": 124.9284465,
                    "velocity": 1
                },
                {
                    "duration": 0.21428550000000257,
                    "durationTicks": 60,
                    "midi": 40,
                    "name": "E2",
                    "ticks": 35040,
                    "time": 125.14273200000001,
                    "velocity": 1
                },
                {
                    "duration": 0.21428550000000257,
                    "durationTicks": 60,
                    "midi": 40,
                    "name": "E2",
                    "ticks": 35100,
                    "time": 125.35701750000001,
                    "velocity": 1
                },
                {
                    "duration": 0.21428550000000257,
                    "durationTicks": 60,
                    "midi": 40,
                    "name": "E2",
                    "ticks": 35160,
                    "time": 125.57130300000001,
                    "velocity": 1
                },
                {
                    "duration": 0.21428549999998836,
                    "durationTicks": 60,
                    "midi": 40,
                    "name": "E2",
                    "ticks": 35220,
                    "time": 125.78558850000002,
                    "velocity": 1
                },
                {
                    "duration": 0.21428550000000257,
                    "durationTicks": 60,
                    "midi": 52,
                    "name": "E3",
                    "ticks": 35280,
                    "time": 125.999874,
                    "velocity": 1
                },
                {
                    "duration": 0.21428550000000257,
                    "durationTicks": 60,
                    "midi": 50,
                    "name": "D3",
                    "ticks": 35340,
                    "time": 126.21415950000001,
                    "velocity": 1
                },
                {
                    "duration": 0.21428550000000257,
                    "durationTicks": 60,
                    "midi": 47,
                    "name": "B2",
                    "ticks": 35400,
                    "time": 126.42844500000001,
                    "velocity": 1
                },
                {
                    "duration": 0.21428550000000257,
                    "durationTicks": 60,
                    "midi": 46,
                    "name": "A#2",
                    "ticks": 35460,
                    "time": 126.64273050000001,
                    "velocity": 1
                },
                {
                    "duration": 0.21428549999998836,
                    "durationTicks": 60,
                    "midi": 40,
                    "name": "E2",
                    "ticks": 35520,
                    "time": 126.85701600000002,
                    "velocity": 1
                },
                {
                    "duration": 0.21428550000000257,
                    "durationTicks": 60,
                    "midi": 40,
                    "name": "E2",
                    "ticks": 35580,
                    "time": 127.0713015,
                    "velocity": 1
                },
                {
                    "duration": 0.21428550000000257,
                    "durationTicks": 60,
                    "midi": 40,
                    "name": "E2",
                    "ticks": 35640,
                    "time": 127.285587,
                    "velocity": 1
                },
                {
                    "duration": 0.21428550000000257,
                    "durationTicks": 60,
                    "midi": 40,
                    "name": "E2",
                    "ticks": 35700,
                    "time": 127.49987250000001,
                    "velocity": 1
                },
                {
                    "duration": 0.21428550000000257,
                    "durationTicks": 60,
                    "midi": 55,
                    "name": "G3",
                    "ticks": 35760,
                    "time": 127.71415800000001,
                    "velocity": 1
                },
                {
                    "duration": 0.21428550000000257,
                    "durationTicks": 60,
                    "midi": 50,
                    "name": "D3",
                    "ticks": 35760,
                    "time": 127.71415800000001,
                    "velocity": 1
                },
                {
                    "duration": 0.21428549999998836,
                    "durationTicks": 60,
                    "midi": 52,
                    "name": "E3",
                    "ticks": 35820,
                    "time": 127.92844350000001,
                    "velocity": 1
                },
                {
                    "duration": 0.21428549999998836,
                    "durationTicks": 60,
                    "midi": 57,
                    "name": "A3",
                    "ticks": 35820,
                    "time": 127.92844350000001,
                    "velocity": 1
                },
                {
                    "duration": 0.21428550000001678,
                    "durationTicks": 60,
                    "midi": 50,
                    "name": "D3",
                    "ticks": 35880,
                    "time": 128.142729,
                    "velocity": 1
                },
                {
                    "duration": 0.21428550000001678,
                    "durationTicks": 60,
                    "midi": 55,
                    "name": "G3",
                    "ticks": 35880,
                    "time": 128.142729,
                    "velocity": 1
                },
                {
                    "duration": 0.21428549999998836,
                    "durationTicks": 60,
                    "midi": 57,
                    "name": "A3",
                    "ticks": 35940,
                    "time": 128.35701450000002,
                    "velocity": 1
                },
                {
                    "duration": 0.21428549999998836,
                    "durationTicks": 60,
                    "midi": 52,
                    "name": "E3",
                    "ticks": 35940,
                    "time": 128.35701450000002,
                    "velocity": 1
                },
                {
                    "duration": 0.21428550000001678,
                    "durationTicks": 60,
                    "midi": 40,
                    "name": "E2",
                    "ticks": 36000,
                    "time": 128.5713,
                    "velocity": 1
                },
                {
                    "duration": 0.21428549999998836,
                    "durationTicks": 60,
                    "midi": 40,
                    "name": "E2",
                    "ticks": 36060,
                    "time": 128.78558550000002,
                    "velocity": 1
                },
                {
                    "duration": 0.21428549999998836,
                    "durationTicks": 60,
                    "midi": 40,
                    "name": "E2",
                    "ticks": 36120,
                    "time": 128.999871,
                    "velocity": 1
                },
                {
                    "duration": 0.21428550000001678,
                    "durationTicks": 60,
                    "midi": 40,
                    "name": "E2",
                    "ticks": 36180,
                    "time": 129.2141565,
                    "velocity": 1
                },
                {
                    "duration": 0.21428549999998836,
                    "durationTicks": 60,
                    "midi": 52,
                    "name": "E3",
                    "ticks": 36240,
                    "time": 129.42844200000002,
                    "velocity": 1
                },
                {
                    "duration": 0.21428550000001678,
                    "durationTicks": 60,
                    "midi": 50,
                    "name": "D3",
                    "ticks": 36300,
                    "time": 129.6427275,
                    "velocity": 1
                },
                {
                    "duration": 0.21428549999998836,
                    "durationTicks": 60,
                    "midi": 47,
                    "name": "B2",
                    "ticks": 36360,
                    "time": 129.85701300000002,
                    "velocity": 1
                },
                {
                    "duration": 0.21428549999998836,
                    "durationTicks": 60,
                    "midi": 46,
                    "name": "A#2",
                    "ticks": 36420,
                    "time": 130.0712985,
                    "velocity": 1
                },
                {
                    "duration": 0.21428550000001678,
                    "durationTicks": 60,
                    "midi": 40,
                    "name": "E2",
                    "ticks": 36480,
                    "time": 130.285584,
                    "velocity": 1
                },
                {
                    "duration": 0.21428549999998836,
                    "durationTicks": 60,
                    "midi": 40,
                    "name": "E2",
                    "ticks": 36540,
                    "time": 130.49986950000002,
                    "velocity": 1
                },
                {
                    "duration": 0.21428550000001678,
                    "durationTicks": 60,
                    "midi": 40,
                    "name": "E2",
                    "ticks": 36600,
                    "time": 130.714155,
                    "velocity": 1
                },
                {
                    "duration": 0.21428549999998836,
                    "durationTicks": 60,
                    "midi": 40,
                    "name": "E2",
                    "ticks": 36660,
                    "time": 130.92844050000002,
                    "velocity": 1
                },
                {
                    "duration": 0.21428549999998836,
                    "durationTicks": 60,
                    "midi": 55,
                    "name": "G3",
                    "ticks": 36720,
                    "time": 131.142726,
                    "velocity": 1
                },
                {
                    "duration": 0.21428549999998836,
                    "durationTicks": 60,
                    "midi": 50,
                    "name": "D3",
                    "ticks": 36720,
                    "time": 131.142726,
                    "velocity": 1
                },
                {
                    "duration": 0.21428550000001678,
                    "durationTicks": 60,
                    "midi": 52,
                    "name": "E3",
                    "ticks": 36780,
                    "time": 131.3570115,
                    "velocity": 1
                },
                {
                    "duration": 0.21428550000001678,
                    "durationTicks": 60,
                    "midi": 57,
                    "name": "A3",
                    "ticks": 36780,
                    "time": 131.3570115,
                    "velocity": 1
                },
                {
                    "duration": 0.21428549999998836,
                    "durationTicks": 60,
                    "midi": 50,
                    "name": "D3",
                    "ticks": 36840,
                    "time": 131.57129700000002,
                    "velocity": 1
                },
                {
                    "duration": 0.21428549999998836,
                    "durationTicks": 60,
                    "midi": 55,
                    "name": "G3",
                    "ticks": 36840,
                    "time": 131.57129700000002,
                    "velocity": 1
                },
                {
                    "duration": 0.21428550000001678,
                    "durationTicks": 60,
                    "midi": 57,
                    "name": "A3",
                    "ticks": 36900,
                    "time": 131.7855825,
                    "velocity": 1
                },
                {
                    "duration": 0.21428550000001678,
                    "durationTicks": 60,
                    "midi": 52,
                    "name": "E3",
                    "ticks": 36900,
                    "time": 131.7855825,
                    "velocity": 1
                },
                {
                    "duration": 0.21428549999998836,
                    "durationTicks": 60,
                    "midi": 40,
                    "name": "E2",
                    "ticks": 36960,
                    "time": 131.99986800000002,
                    "velocity": 1
                },
                {
                    "duration": 0.21428549999998836,
                    "durationTicks": 60,
                    "midi": 40,
                    "name": "E2",
                    "ticks": 37020,
                    "time": 132.2141535,
                    "velocity": 1
                },
                {
                    "duration": 0.21428550000001678,
                    "durationTicks": 60,
                    "midi": 40,
                    "name": "E2",
                    "ticks": 37080,
                    "time": 132.428439,
                    "velocity": 1
                },
                {
                    "duration": 0.21428549999998836,
                    "durationTicks": 60,
                    "midi": 40,
                    "name": "E2",
                    "ticks": 37140,
                    "time": 132.6427245,
                    "velocity": 1
                },
                {
                    "duration": 0.21428550000001678,
                    "durationTicks": 60,
                    "midi": 52,
                    "name": "E3",
                    "ticks": 37200,
                    "time": 132.85701,
                    "velocity": 1
                },
                {
                    "duration": 0.21428549999998836,
                    "durationTicks": 60,
                    "midi": 50,
                    "name": "D3",
                    "ticks": 37260,
                    "time": 133.07129550000002,
                    "velocity": 1
                },
                {
                    "duration": 0.21428550000001678,
                    "durationTicks": 60,
                    "midi": 47,
                    "name": "B2",
                    "ticks": 37320,
                    "time": 133.285581,
                    "velocity": 1
                },
                {
                    "duration": 0.21428549999998836,
                    "durationTicks": 60,
                    "midi": 46,
                    "name": "A#2",
                    "ticks": 37380,
                    "time": 133.49986650000002,
                    "velocity": 1
                },
                {
                    "duration": 0.21428549999998836,
                    "durationTicks": 60,
                    "midi": 40,
                    "name": "E2",
                    "ticks": 37440,
                    "time": 133.714152,
                    "velocity": 1
                },
                {
                    "duration": 0.21428550000001678,
                    "durationTicks": 60,
                    "midi": 40,
                    "name": "E2",
                    "ticks": 37500,
                    "time": 133.9284375,
                    "velocity": 1
                },
                {
                    "duration": 0.21428549999998836,
                    "durationTicks": 60,
                    "midi": 40,
                    "name": "E2",
                    "ticks": 37560,
                    "time": 134.14272300000002,
                    "velocity": 1
                },
                {
                    "duration": 0.21428550000001678,
                    "durationTicks": 60,
                    "midi": 40,
                    "name": "E2",
                    "ticks": 37620,
                    "time": 134.3570085,
                    "velocity": 1
                },
                {
                    "duration": 0.21428549999998836,
                    "durationTicks": 60,
                    "midi": 55,
                    "name": "G3",
                    "ticks": 37680,
                    "time": 134.57129400000002,
                    "velocity": 1
                },
                {
                    "duration": 0.21428549999998836,
                    "durationTicks": 60,
                    "midi": 50,
                    "name": "D3",
                    "ticks": 37680,
                    "time": 134.57129400000002,
                    "velocity": 1
                },
                {
                    "duration": 0.21428549999998836,
                    "durationTicks": 60,
                    "midi": 52,
                    "name": "E3",
                    "ticks": 37740,
                    "time": 134.7855795,
                    "velocity": 1
                },
                {
                    "duration": 0.21428549999998836,
                    "durationTicks": 60,
                    "midi": 57,
                    "name": "A3",
                    "ticks": 37740,
                    "time": 134.7855795,
                    "velocity": 1
                },
                {
                    "duration": 0.21428550000001678,
                    "durationTicks": 60,
                    "midi": 50,
                    "name": "D3",
                    "ticks": 37800,
                    "time": 134.999865,
                    "velocity": 1
                },
                {
                    "duration": 0.21428550000001678,
                    "durationTicks": 60,
                    "midi": 55,
                    "name": "G3",
                    "ticks": 37800,
                    "time": 134.999865,
                    "velocity": 1
                },
                {
                    "duration": 0.21428549999998836,
                    "durationTicks": 60,
                    "midi": 57,
                    "name": "A3",
                    "ticks": 37860,
                    "time": 135.21415050000002,
                    "velocity": 1
                },
                {
                    "duration": 0.21428549999998836,
                    "durationTicks": 60,
                    "midi": 52,
                    "name": "E3",
                    "ticks": 37860,
                    "time": 135.21415050000002,
                    "velocity": 1
                },
                {
                    "duration": 0.21428550000001678,
                    "durationTicks": 60,
                    "midi": 40,
                    "name": "E2",
                    "ticks": 37920,
                    "time": 135.428436,
                    "velocity": 1
                },
                {
                    "duration": 0.21428549999998836,
                    "durationTicks": 60,
                    "midi": 40,
                    "name": "E2",
                    "ticks": 37980,
                    "time": 135.64272150000002,
                    "velocity": 1
                },
                {
                    "duration": 0.21428549999998836,
                    "durationTicks": 60,
                    "midi": 40,
                    "name": "E2",
                    "ticks": 38040,
                    "time": 135.857007,
                    "velocity": 1
                },
                {
                    "duration": 0.21428550000001678,
                    "durationTicks": 60,
                    "midi": 40,
                    "name": "E2",
                    "ticks": 38100,
                    "time": 136.0712925,
                    "velocity": 1
                },
                {
                    "duration": 0.21428549999998836,
                    "durationTicks": 60,
                    "midi": 52,
                    "name": "E3",
                    "ticks": 38160,
                    "time": 136.28557800000002,
                    "velocity": 1
                },
                {
                    "duration": 0.21428550000001678,
                    "durationTicks": 60,
                    "midi": 50,
                    "name": "D3",
                    "ticks": 38220,
                    "time": 136.4998635,
                    "velocity": 1
                },
                {
                    "duration": 0.21428549999998836,
                    "durationTicks": 60,
                    "midi": 47,
                    "name": "B2",
                    "ticks": 38280,
                    "time": 136.71414900000002,
                    "velocity": 1
                },
                {
                    "duration": 0.21428549999998836,
                    "durationTicks": 60,
                    "midi": 46,
                    "name": "A#2",
                    "ticks": 38340,
                    "time": 136.9284345,
                    "velocity": 1
                },
                {
                    "duration": 0.21428550000001678,
                    "durationTicks": 60,
                    "midi": 40,
                    "name": "E2",
                    "ticks": 38400,
                    "time": 137.14272,
                    "velocity": 1
                },
                {
                    "duration": 0.21428549999998836,
                    "durationTicks": 60,
                    "midi": 40,
                    "name": "E2",
                    "ticks": 38460,
                    "time": 137.3570055,
                    "velocity": 1
                },
                {
                    "duration": 0.21428550000001678,
                    "durationTicks": 60,
                    "midi": 40,
                    "name": "E2",
                    "ticks": 38520,
                    "time": 137.571291,
                    "velocity": 1
                },
                {
                    "duration": 0.21428549999998836,
                    "durationTicks": 60,
                    "midi": 40,
                    "name": "E2",
                    "ticks": 38580,
                    "time": 137.78557650000002,
                    "velocity": 1
                },
                {
                    "duration": 0.21428550000001678,
                    "durationTicks": 60,
                    "midi": 40,
                    "name": "E2",
                    "ticks": 38640,
                    "time": 137.999862,
                    "velocity": 1
                },
                {
                    "duration": 0.21428549999998836,
                    "durationTicks": 60,
                    "midi": 40,
                    "name": "E2",
                    "ticks": 38700,
                    "time": 138.21414750000002,
                    "velocity": 1
                },
                {
                    "duration": 0.21428549999998836,
                    "durationTicks": 60,
                    "midi": 40,
                    "name": "E2",
                    "ticks": 38760,
                    "time": 138.428433,
                    "velocity": 1
                },
                {
                    "duration": 0.21428550000001678,
                    "durationTicks": 60,
                    "midi": 40,
                    "name": "E2",
                    "ticks": 38820,
                    "time": 138.6427185,
                    "velocity": 1
                },
                {
                    "duration": 0.21428549999998836,
                    "durationTicks": 60,
                    "midi": 40,
                    "name": "E2",
                    "ticks": 38880,
                    "time": 138.85700400000002,
                    "velocity": 1
                },
                {
                    "duration": 0.21428550000001678,
                    "durationTicks": 60,
                    "midi": 40,
                    "name": "E2",
                    "ticks": 38940,
                    "time": 139.0712895,
                    "velocity": 1
                },
                {
                    "duration": 0.21428549999998836,
                    "durationTicks": 60,
                    "midi": 40,
                    "name": "E2",
                    "ticks": 39000,
                    "time": 139.28557500000002,
                    "velocity": 1
                },
                {
                    "duration": 0.21428549999998836,
                    "durationTicks": 60,
                    "midi": 40,
                    "name": "E2",
                    "ticks": 39060,
                    "time": 139.4998605,
                    "velocity": 1
                },
                {
                    "duration": 0.21428550000001678,
                    "durationTicks": 60,
                    "midi": 47,
                    "name": "B2",
                    "ticks": 39120,
                    "time": 139.714146,
                    "velocity": 1
                },
                {
                    "duration": 0.21428549999998836,
                    "durationTicks": 60,
                    "midi": 46,
                    "name": "A#2",
                    "ticks": 39180,
                    "time": 139.92843150000002,
                    "velocity": 1
                },
                {
                    "duration": 0.21428550000001678,
                    "durationTicks": 60,
                    "midi": 55,
                    "name": "G3",
                    "ticks": 39240,
                    "time": 140.142717,
                    "velocity": 1
                },
                {
                    "duration": 0.21428549999998836,
                    "durationTicks": 60,
                    "midi": 52,
                    "name": "E3",
                    "ticks": 39300,
                    "time": 140.35700250000002,
                    "velocity": 1
                },
                {
                    "duration": 0.21428549999998836,
                    "durationTicks": 60,
                    "midi": 40,
                    "name": "E2",
                    "ticks": 39360,
                    "time": 140.571288,
                    "velocity": 1
                },
                {
                    "duration": 0.21428550000001678,
                    "durationTicks": 60,
                    "midi": 40,
                    "name": "E2",
                    "ticks": 39420,
                    "time": 140.7855735,
                    "velocity": 1
                },
                {
                    "duration": 0.21428549999998836,
                    "durationTicks": 60,
                    "midi": 40,
                    "name": "E2",
                    "ticks": 39480,
                    "time": 140.99985900000001,
                    "velocity": 1
                },
                {
                    "duration": 0.21428550000001678,
                    "durationTicks": 60,
                    "midi": 40,
                    "name": "E2",
                    "ticks": 39540,
                    "time": 141.2141445,
                    "velocity": 1
                },
                {
                    "duration": 0.21428549999998836,
                    "durationTicks": 60,
                    "midi": 40,
                    "name": "E2",
                    "ticks": 39600,
                    "time": 141.42843000000002,
                    "velocity": 1
                },
                {
                    "duration": 0.21428550000001678,
                    "durationTicks": 60,
                    "midi": 40,
                    "name": "E2",
                    "ticks": 39660,
                    "time": 141.6427155,
                    "velocity": 1
                },
                {
                    "duration": 0.21428549999998836,
                    "durationTicks": 60,
                    "midi": 40,
                    "name": "E2",
                    "ticks": 39720,
                    "time": 141.85700100000003,
                    "velocity": 1
                },
                {
                    "duration": 0.21428549999998836,
                    "durationTicks": 60,
                    "midi": 40,
                    "name": "E2",
                    "ticks": 39780,
                    "time": 142.0712865,
                    "velocity": 1
                },
                {
                    "duration": 0.21428550000001678,
                    "durationTicks": 60,
                    "midi": 40,
                    "name": "E2",
                    "ticks": 39840,
                    "time": 142.285572,
                    "velocity": 1
                },
                {
                    "duration": 0.21428549999998836,
                    "durationTicks": 60,
                    "midi": 40,
                    "name": "E2",
                    "ticks": 39900,
                    "time": 142.49985750000002,
                    "velocity": 1
                },
                {
                    "duration": 0.21428550000001678,
                    "durationTicks": 60,
                    "midi": 40,
                    "name": "E2",
                    "ticks": 39960,
                    "time": 142.714143,
                    "velocity": 1
                },
                {
                    "duration": 0.21428549999998836,
                    "durationTicks": 60,
                    "midi": 40,
                    "name": "E2",
                    "ticks": 40020,
                    "time": 142.92842850000002,
                    "velocity": 1
                },
                {
                    "duration": 0.21428549999998836,
                    "durationTicks": 60,
                    "midi": 47,
                    "name": "B2",
                    "ticks": 40080,
                    "time": 143.142714,
                    "velocity": 1
                },
                {
                    "duration": 0.21428550000001678,
                    "durationTicks": 60,
                    "midi": 46,
                    "name": "A#2",
                    "ticks": 40140,
                    "time": 143.3569995,
                    "velocity": 1
                },
                {
                    "duration": 0.21428549999998836,
                    "durationTicks": 60,
                    "midi": 55,
                    "name": "G3",
                    "ticks": 40200,
                    "time": 143.57128500000002,
                    "velocity": 1
                },
                {
                    "duration": 0.21428550000001678,
                    "durationTicks": 60,
                    "midi": 52,
                    "name": "E3",
                    "ticks": 40260,
                    "time": 143.7855705,
                    "velocity": 1
                },
                {
                    "duration": 0.21428549999998836,
                    "durationTicks": 60,
                    "midi": 40,
                    "name": "E2",
                    "ticks": 40320,
                    "time": 143.99985600000002,
                    "velocity": 1
                },
                {
                    "duration": 0.21428549999998836,
                    "durationTicks": 60,
                    "midi": 40,
                    "name": "E2",
                    "ticks": 40380,
                    "time": 144.2141415,
                    "velocity": 1
                },
                {
                    "duration": 0.21428550000001678,
                    "durationTicks": 60,
                    "midi": 40,
                    "name": "E2",
                    "ticks": 40440,
                    "time": 144.428427,
                    "velocity": 1
                },
                {
                    "duration": 0.21428549999998836,
                    "durationTicks": 60,
                    "midi": 40,
                    "name": "E2",
                    "ticks": 40500,
                    "time": 144.64271250000002,
                    "velocity": 1
                },
                {
                    "duration": 0.21428550000001678,
                    "durationTicks": 60,
                    "midi": 40,
                    "name": "E2",
                    "ticks": 40560,
                    "time": 144.856998,
                    "velocity": 1
                },
                {
                    "duration": 0.21428549999998836,
                    "durationTicks": 60,
                    "midi": 40,
                    "name": "E2",
                    "ticks": 40620,
                    "time": 145.07128350000002,
                    "velocity": 1
                },
                {
                    "duration": 0.21428549999998836,
                    "durationTicks": 60,
                    "midi": 40,
                    "name": "E2",
                    "ticks": 40680,
                    "time": 145.285569,
                    "velocity": 1
                },
                {
                    "duration": 0.21428550000001678,
                    "durationTicks": 60,
                    "midi": 40,
                    "name": "E2",
                    "ticks": 40740,
                    "time": 145.4998545,
                    "velocity": 1
                },
                {
                    "duration": 0.21428549999998836,
                    "durationTicks": 60,
                    "midi": 40,
                    "name": "E2",
                    "ticks": 40800,
                    "time": 145.71414000000001,
                    "velocity": 1
                },
                {
                    "duration": 0.21428550000001678,
                    "durationTicks": 60,
                    "midi": 40,
                    "name": "E2",
                    "ticks": 40860,
                    "time": 145.9284255,
                    "velocity": 1
                },
                {
                    "duration": 0.21428549999998836,
                    "durationTicks": 60,
                    "midi": 40,
                    "name": "E2",
                    "ticks": 40920,
                    "time": 146.14271100000002,
                    "velocity": 1
                },
                {
                    "duration": 0.21428550000001678,
                    "durationTicks": 60,
                    "midi": 40,
                    "name": "E2",
                    "ticks": 40980,
                    "time": 146.3569965,
                    "velocity": 1
                },
                {
                    "duration": 0.21428549999998836,
                    "durationTicks": 60,
                    "midi": 47,
                    "name": "B2",
                    "ticks": 41040,
                    "time": 146.57128200000002,
                    "velocity": 1
                },
                {
                    "duration": 0.21428549999998836,
                    "durationTicks": 60,
                    "midi": 46,
                    "name": "A#2",
                    "ticks": 41100,
                    "time": 146.7855675,
                    "velocity": 1
                },
                {
                    "duration": 0.21428550000001678,
                    "durationTicks": 60,
                    "midi": 55,
                    "name": "G3",
                    "ticks": 41160,
                    "time": 146.999853,
                    "velocity": 1
                },
                {
                    "duration": 0.21428549999998836,
                    "durationTicks": 60,
                    "midi": 52,
                    "name": "E3",
                    "ticks": 41220,
                    "time": 147.21413850000002,
                    "velocity": 1
                },
                {
                    "duration": 0.21428550000001678,
                    "durationTicks": 60,
                    "midi": 40,
                    "name": "E2",
                    "ticks": 41280,
                    "time": 147.428424,
                    "velocity": 1
                },
                {
                    "duration": 0.21428549999998836,
                    "durationTicks": 60,
                    "midi": 40,
                    "name": "E2",
                    "ticks": 41340,
                    "time": 147.64270950000002,
                    "velocity": 1
                },
                {
                    "duration": 0.21428549999998836,
                    "durationTicks": 60,
                    "midi": 40,
                    "name": "E2",
                    "ticks": 41400,
                    "time": 147.856995,
                    "velocity": 1
                },
                {
                    "duration": 0.21428550000001678,
                    "durationTicks": 60,
                    "midi": 40,
                    "name": "E2",
                    "ticks": 41460,
                    "time": 148.0712805,
                    "velocity": 1
                },
                {
                    "duration": 0.21428549999998836,
                    "durationTicks": 60,
                    "midi": 40,
                    "name": "E2",
                    "ticks": 41520,
                    "time": 148.28556600000002,
                    "velocity": 1
                },
                {
                    "duration": 0.21428550000001678,
                    "durationTicks": 60,
                    "midi": 40,
                    "name": "E2",
                    "ticks": 41580,
                    "time": 148.4998515,
                    "velocity": 1
                },
                {
                    "duration": 0.21428549999998836,
                    "durationTicks": 60,
                    "midi": 40,
                    "name": "E2",
                    "ticks": 41640,
                    "time": 148.71413700000002,
                    "velocity": 1
                },
                {
                    "duration": 0.21428549999998836,
                    "durationTicks": 60,
                    "midi": 40,
                    "name": "E2",
                    "ticks": 41700,
                    "time": 148.9284225,
                    "velocity": 1
                },
                {
                    "duration": 0.21428550000001678,
                    "durationTicks": 60,
                    "midi": 40,
                    "name": "E2",
                    "ticks": 41760,
                    "time": 149.142708,
                    "velocity": 1
                },
                {
                    "duration": 0.21428549999998836,
                    "durationTicks": 60,
                    "midi": 40,
                    "name": "E2",
                    "ticks": 41820,
                    "time": 149.35699350000002,
                    "velocity": 1
                },
                {
                    "duration": 0.21428550000001678,
                    "durationTicks": 60,
                    "midi": 40,
                    "name": "E2",
                    "ticks": 41880,
                    "time": 149.571279,
                    "velocity": 1
                },
                {
                    "duration": 0.21428549999998836,
                    "durationTicks": 60,
                    "midi": 40,
                    "name": "E2",
                    "ticks": 41940,
                    "time": 149.78556450000002,
                    "velocity": 1
                },
                {
                    "duration": 0.21428550000001678,
                    "durationTicks": 60,
                    "midi": 47,
                    "name": "B2",
                    "ticks": 42000,
                    "time": 149.99985,
                    "velocity": 1
                },
                {
                    "duration": 0.21428549999998836,
                    "durationTicks": 60,
                    "midi": 46,
                    "name": "A#2",
                    "ticks": 42060,
                    "time": 150.21413550000003,
                    "velocity": 1
                },
                {
                    "duration": 0.21428549999998836,
                    "durationTicks": 60,
                    "midi": 55,
                    "name": "G3",
                    "ticks": 42120,
                    "time": 150.42842100000001,
                    "velocity": 1
                },
                {
                    "duration": 0.21428550000001678,
                    "durationTicks": 60,
                    "midi": 52,
                    "name": "E3",
                    "ticks": 42180,
                    "time": 150.6427065,
                    "velocity": 1
                },
                {
                    "duration": 0.21428549999998836,
                    "durationTicks": 60,
                    "midi": 60,
                    "name": "C4",
                    "ticks": 42240,
                    "time": 150.85699200000002,
                    "velocity": 1
                },
                {
                    "duration": 0.21428549999998836,
                    "durationTicks": 60,
                    "midi": 55,
                    "name": "G3",
                    "ticks": 42240,
                    "time": 150.85699200000002,
                    "velocity": 1
                },
                {
                    "duration": 0.21428550000001678,
                    "durationTicks": 60,
                    "midi": 40,
                    "name": "E2",
                    "ticks": 42300,
                    "time": 151.0712775,
                    "velocity": 1
                },
                {
                    "duration": 0.21428549999998836,
                    "durationTicks": 60,
                    "midi": 40,
                    "name": "E2",
                    "ticks": 42360,
                    "time": 151.28556300000002,
                    "velocity": 1
                },
                {
                    "duration": 0.21428549999998836,
                    "durationTicks": 60,
                    "midi": 40,
                    "name": "E2",
                    "ticks": 42420,
                    "time": 151.4998485,
                    "velocity": 1
                },
                {
                    "duration": 0.21428550000001678,
                    "durationTicks": 60,
                    "midi": 55,
                    "name": "G3",
                    "ticks": 42480,
                    "time": 151.714134,
                    "velocity": 1
                },
                {
                    "duration": 0.21428550000001678,
                    "durationTicks": 60,
                    "midi": 60,
                    "name": "C4",
                    "ticks": 42480,
                    "time": 151.714134,
                    "velocity": 1
                },
                {
                    "duration": 0.21428549999998836,
                    "durationTicks": 60,
                    "midi": 62,
                    "name": "D4",
                    "ticks": 42540,
                    "time": 151.92841950000002,
                    "velocity": 1
                },
                {
                    "duration": 0.21428549999998836,
                    "durationTicks": 60,
                    "midi": 57,
                    "name": "A3",
                    "ticks": 42540,
                    "time": 151.92841950000002,
                    "velocity": 1
                },
                {
                    "duration": 0.42857100000000514,
                    "durationTicks": 120,
                    "midi": 55,
                    "name": "G3",
                    "ticks": 42600,
                    "time": 152.142705,
                    "velocity": 1
                },
                {
                    "duration": 0.42857100000000514,
                    "durationTicks": 120,
                    "midi": 60,
                    "name": "C4",
                    "ticks": 42600,
                    "time": 152.142705,
                    "velocity": 1
                },
                {
                    "duration": 0.21428549999998836,
                    "durationTicks": 60,
                    "midi": 60,
                    "name": "C4",
                    "ticks": 42720,
                    "time": 152.571276,
                    "velocity": 1
                },
                {
                    "duration": 0.21428549999998836,
                    "durationTicks": 60,
                    "midi": 55,
                    "name": "G3",
                    "ticks": 42720,
                    "time": 152.571276,
                    "velocity": 1
                },
                {
                    "duration": 0.21428550000001678,
                    "durationTicks": 60,
                    "midi": 40,
                    "name": "E2",
                    "ticks": 42780,
                    "time": 152.7855615,
                    "velocity": 1
                },
                {
                    "duration": 0.21428549999998836,
                    "durationTicks": 60,
                    "midi": 40,
                    "name": "E2",
                    "ticks": 42840,
                    "time": 152.99984700000002,
                    "velocity": 1
                },
                {
                    "duration": 0.21428550000001678,
                    "durationTicks": 60,
                    "midi": 40,
                    "name": "E2",
                    "ticks": 42900,
                    "time": 153.2141325,
                    "velocity": 1
                },
                {
                    "duration": 0.21428549999998836,
                    "durationTicks": 60,
                    "midi": 55,
                    "name": "G3",
                    "ticks": 42960,
                    "time": 153.42841800000002,
                    "velocity": 1
                },
                {
                    "duration": 0.21428549999998836,
                    "durationTicks": 60,
                    "midi": 60,
                    "name": "C4",
                    "ticks": 42960,
                    "time": 153.42841800000002,
                    "velocity": 1
                },
                {
                    "duration": 0.21428549999998836,
                    "durationTicks": 60,
                    "midi": 62,
                    "name": "D4",
                    "ticks": 43020,
                    "time": 153.6427035,
                    "velocity": 1
                },
                {
                    "duration": 0.21428549999998836,
                    "durationTicks": 60,
                    "midi": 57,
                    "name": "A3",
                    "ticks": 43020,
                    "time": 153.6427035,
                    "velocity": 1
                },
                {
                    "duration": 0.42857100000000514,
                    "durationTicks": 120,
                    "midi": 55,
                    "name": "G3",
                    "ticks": 43080,
                    "time": 153.856989,
                    "velocity": 1
                },
                {
                    "duration": 0.42857100000000514,
                    "durationTicks": 120,
                    "midi": 60,
                    "name": "C4",
                    "ticks": 43080,
                    "time": 153.856989,
                    "velocity": 1
                },
                {
                    "duration": 0.21428550000001678,
                    "durationTicks": 60,
                    "midi": 60,
                    "name": "C4",
                    "ticks": 43200,
                    "time": 154.28556,
                    "velocity": 1
                },
                {
                    "duration": 0.21428550000001678,
                    "durationTicks": 60,
                    "midi": 55,
                    "name": "G3",
                    "ticks": 43200,
                    "time": 154.28556,
                    "velocity": 1
                },
                {
                    "duration": 0.21428549999998836,
                    "durationTicks": 60,
                    "midi": 40,
                    "name": "E2",
                    "ticks": 43260,
                    "time": 154.49984550000002,
                    "velocity": 1
                },
                {
                    "duration": 0.21428550000001678,
                    "durationTicks": 60,
                    "midi": 40,
                    "name": "E2",
                    "ticks": 43320,
                    "time": 154.714131,
                    "velocity": 1
                },
                {
                    "duration": 0.21428549999998836,
                    "durationTicks": 60,
                    "midi": 40,
                    "name": "E2",
                    "ticks": 43380,
                    "time": 154.92841650000003,
                    "velocity": 1
                },
                {
                    "duration": 0.21428549999998836,
                    "durationTicks": 60,
                    "midi": 55,
                    "name": "G3",
                    "ticks": 43440,
                    "time": 155.142702,
                    "velocity": 1
                },
                {
                    "duration": 0.21428549999998836,
                    "durationTicks": 60,
                    "midi": 60,
                    "name": "C4",
                    "ticks": 43440,
                    "time": 155.142702,
                    "velocity": 1
                },
                {
                    "duration": 0.21428550000001678,
                    "durationTicks": 60,
                    "midi": 62,
                    "name": "D4",
                    "ticks": 43500,
                    "time": 155.3569875,
                    "velocity": 1
                },
                {
                    "duration": 0.21428550000001678,
                    "durationTicks": 60,
                    "midi": 57,
                    "name": "A3",
                    "ticks": 43500,
                    "time": 155.3569875,
                    "velocity": 1
                },
                {
                    "duration": 0.42857100000000514,
                    "durationTicks": 120,
                    "midi": 55,
                    "name": "G3",
                    "ticks": 43560,
                    "time": 155.57127300000002,
                    "velocity": 1
                },
                {
                    "duration": 0.42857100000000514,
                    "durationTicks": 120,
                    "midi": 60,
                    "name": "C4",
                    "ticks": 43560,
                    "time": 155.57127300000002,
                    "velocity": 1
                },
                {
                    "duration": 0.21428549999998836,
                    "durationTicks": 60,
                    "midi": 62,
                    "name": "D4",
                    "ticks": 43680,
                    "time": 155.99984400000002,
                    "velocity": 1
                },
                {
                    "duration": 0.21428549999998836,
                    "durationTicks": 60,
                    "midi": 60,
                    "name": "C4",
                    "ticks": 43740,
                    "time": 156.2141295,
                    "velocity": 1
                },
                {
                    "duration": 0.21428550000001678,
                    "durationTicks": 60,
                    "midi": 57,
                    "name": "A3",
                    "ticks": 43800,
                    "time": 156.428415,
                    "velocity": 1
                },
                {
                    "duration": 0.21428549999998836,
                    "durationTicks": 60,
                    "midi": 56,
                    "name": "G#3",
                    "ticks": 43860,
                    "time": 156.64270050000002,
                    "velocity": 1
                },
                {
                    "duration": 0.21428550000001678,
                    "durationTicks": 60,
                    "midi": 55,
                    "name": "G3",
                    "ticks": 43920,
                    "time": 156.856986,
                    "velocity": 1
                },
                {
                    "duration": 0.21428549999998836,
                    "durationTicks": 60,
                    "midi": 52,
                    "name": "E3",
                    "ticks": 43980,
                    "time": 157.07127150000002,
                    "velocity": 1
                },
                {
                    "duration": 0.21428549999998836,
                    "durationTicks": 60,
                    "midi": 51,
                    "name": "D#3",
                    "ticks": 44040,
                    "time": 157.285557,
                    "velocity": 1
                },
                {
                    "duration": 0.21428550000001678,
                    "durationTicks": 60,
                    "midi": 50,
                    "name": "D3",
                    "ticks": 44100,
                    "time": 157.4998425,
                    "velocity": 1
                },
                {
                    "duration": 0.21428549999998836,
                    "durationTicks": 60,
                    "midi": 60,
                    "name": "C4",
                    "ticks": 44160,
                    "time": 157.71412800000002,
                    "velocity": 1
                },
                {
                    "duration": 0.21428549999998836,
                    "durationTicks": 60,
                    "midi": 55,
                    "name": "G3",
                    "ticks": 44160,
                    "time": 157.71412800000002,
                    "velocity": 1
                },
                {
                    "duration": 0.21428550000001678,
                    "durationTicks": 60,
                    "midi": 40,
                    "name": "E2",
                    "ticks": 44220,
                    "time": 157.9284135,
                    "velocity": 1
                },
                {
                    "duration": 0.21428549999998836,
                    "durationTicks": 60,
                    "midi": 40,
                    "name": "E2",
                    "ticks": 44280,
                    "time": 158.14269900000002,
                    "velocity": 1
                },
                {
                    "duration": 0.21428550000001678,
                    "durationTicks": 60,
                    "midi": 40,
                    "name": "E2",
                    "ticks": 44340,
                    "time": 158.3569845,
                    "velocity": 1
                },
                {
                    "duration": 0.21428549999998836,
                    "durationTicks": 60,
                    "midi": 55,
                    "name": "G3",
                    "ticks": 44400,
                    "time": 158.57127000000003,
                    "velocity": 1
                },
                {
                    "duration": 0.21428549999998836,
                    "durationTicks": 60,
                    "midi": 60,
                    "name": "C4",
                    "ticks": 44400,
                    "time": 158.57127000000003,
                    "velocity": 1
                },
                {
                    "duration": 0.21428549999998836,
                    "durationTicks": 60,
                    "midi": 62,
                    "name": "D4",
                    "ticks": 44460,
                    "time": 158.78555550000002,
                    "velocity": 1
                },
                {
                    "duration": 0.21428549999998836,
                    "durationTicks": 60,
                    "midi": 57,
                    "name": "A3",
                    "ticks": 44460,
                    "time": 158.78555550000002,
                    "velocity": 1
                },
                {
                    "duration": 0.42857100000000514,
                    "durationTicks": 120,
                    "midi": 55,
                    "name": "G3",
                    "ticks": 44520,
                    "time": 158.999841,
                    "velocity": 1
                },
                {
                    "duration": 0.42857100000000514,
                    "durationTicks": 120,
                    "midi": 60,
                    "name": "C4",
                    "ticks": 44520,
                    "time": 158.999841,
                    "velocity": 1
                },
                {
                    "duration": 0.21428550000001678,
                    "durationTicks": 60,
                    "midi": 60,
                    "name": "C4",
                    "ticks": 44640,
                    "time": 159.428412,
                    "velocity": 1
                },
                {
                    "duration": 0.21428550000001678,
                    "durationTicks": 60,
                    "midi": 55,
                    "name": "G3",
                    "ticks": 44640,
                    "time": 159.428412,
                    "velocity": 1
                },
                {
                    "duration": 0.21428549999998836,
                    "durationTicks": 60,
                    "midi": 40,
                    "name": "E2",
                    "ticks": 44700,
                    "time": 159.64269750000003,
                    "velocity": 1
                },
                {
                    "duration": 0.21428549999998836,
                    "durationTicks": 60,
                    "midi": 40,
                    "name": "E2",
                    "ticks": 44760,
                    "time": 159.856983,
                    "velocity": 1
                },
                {
                    "duration": 0.21428550000001678,
                    "durationTicks": 60,
                    "midi": 40,
                    "name": "E2",
                    "ticks": 44820,
                    "time": 160.0712685,
                    "velocity": 1
                },
                {
                    "duration": 0.21428549999998836,
                    "durationTicks": 60,
                    "midi": 55,
                    "name": "G3",
                    "ticks": 44880,
                    "time": 160.28555400000002,
                    "velocity": 1
                },
                {
                    "duration": 0.21428549999998836,
                    "durationTicks": 60,
                    "midi": 60,
                    "name": "C4",
                    "ticks": 44880,
                    "time": 160.28555400000002,
                    "velocity": 1
                },
                {
                    "duration": 0.21428550000001678,
                    "durationTicks": 60,
                    "midi": 62,
                    "name": "D4",
                    "ticks": 44940,
                    "time": 160.4998395,
                    "velocity": 1
                },
                {
                    "duration": 0.21428550000001678,
                    "durationTicks": 60,
                    "midi": 57,
                    "name": "A3",
                    "ticks": 44940,
                    "time": 160.4998395,
                    "velocity": 1
                },
                {
                    "duration": 0.4285709999999767,
                    "durationTicks": 120,
                    "midi": 55,
                    "name": "G3",
                    "ticks": 45000,
                    "time": 160.71412500000002,
                    "velocity": 1
                },
                {
                    "duration": 0.4285709999999767,
                    "durationTicks": 120,
                    "midi": 60,
                    "name": "C4",
                    "ticks": 45000,
                    "time": 160.71412500000002,
                    "velocity": 1
                },
                {
                    "duration": 0.21428550000001678,
                    "durationTicks": 60,
                    "midi": 60,
                    "name": "C4",
                    "ticks": 45120,
                    "time": 161.142696,
                    "velocity": 1
                },
                {
                    "duration": 0.21428550000001678,
                    "durationTicks": 60,
                    "midi": 55,
                    "name": "G3",
                    "ticks": 45120,
                    "time": 161.142696,
                    "velocity": 1
                },
                {
                    "duration": 0.21428549999998836,
                    "durationTicks": 60,
                    "midi": 40,
                    "name": "E2",
                    "ticks": 45180,
                    "time": 161.35698150000002,
                    "velocity": 1
                },
                {
                    "duration": 0.21428550000001678,
                    "durationTicks": 60,
                    "midi": 40,
                    "name": "E2",
                    "ticks": 45240,
                    "time": 161.571267,
                    "velocity": 1
                },
                {
                    "duration": 0.21428549999998836,
                    "durationTicks": 60,
                    "midi": 40,
                    "name": "E2",
                    "ticks": 45300,
                    "time": 161.78555250000002,
                    "velocity": 1
                },
                {
                    "duration": 0.21428549999998836,
                    "durationTicks": 60,
                    "midi": 55,
                    "name": "G3",
                    "ticks": 45360,
                    "time": 161.999838,
                    "velocity": 1
                },
                {
                    "duration": 0.21428549999998836,
                    "durationTicks": 60,
                    "midi": 60,
                    "name": "C4",
                    "ticks": 45360,
                    "time": 161.999838,
                    "velocity": 1
                },
                {
                    "duration": 0.21428550000001678,
                    "durationTicks": 60,
                    "midi": 62,
                    "name": "D4",
                    "ticks": 45420,
                    "time": 162.2141235,
                    "velocity": 1
                },
                {
                    "duration": 0.21428550000001678,
                    "durationTicks": 60,
                    "midi": 57,
                    "name": "A3",
                    "ticks": 45420,
                    "time": 162.2141235,
                    "velocity": 1
                },
                {
                    "duration": 0.42857100000000514,
                    "durationTicks": 120,
                    "midi": 55,
                    "name": "G3",
                    "ticks": 45480,
                    "time": 162.42840900000002,
                    "velocity": 1
                },
                {
                    "duration": 0.42857100000000514,
                    "durationTicks": 120,
                    "midi": 60,
                    "name": "C4",
                    "ticks": 45480,
                    "time": 162.42840900000002,
                    "velocity": 1
                },
                {
                    "duration": 0.21428549999998836,
                    "durationTicks": 60,
                    "midi": 64,
                    "name": "E4",
                    "ticks": 45600,
                    "time": 162.85698000000002,
                    "velocity": 1
                },
                {
                    "duration": 0.21428550000001678,
                    "durationTicks": 60,
                    "midi": 62,
                    "name": "D4",
                    "ticks": 45660,
                    "time": 163.0712655,
                    "velocity": 1
                },
                {
                    "duration": 0.21428549999998836,
                    "durationTicks": 60,
                    "midi": 59,
                    "name": "B3",
                    "ticks": 45720,
                    "time": 163.28555100000003,
                    "velocity": 1
                },
                {
                    "duration": 0.21428549999998836,
                    "durationTicks": 60,
                    "midi": 62,
                    "name": "D4",
                    "ticks": 45780,
                    "time": 163.49983650000001,
                    "velocity": 1
                },
                {
                    "duration": 0.21428550000001678,
                    "durationTicks": 60,
                    "midi": 59,
                    "name": "B3",
                    "ticks": 45840,
                    "time": 163.714122,
                    "velocity": 1
                },
                {
                    "duration": 0.21428549999998836,
                    "durationTicks": 60,
                    "midi": 58,
                    "name": "A#3",
                    "ticks": 45900,
                    "time": 163.92840750000002,
                    "velocity": 1
                },
                {
                    "duration": 0.21428550000001678,
                    "durationTicks": 60,
                    "midi": 57,
                    "name": "A3",
                    "ticks": 45960,
                    "time": 164.142693,
                    "velocity": 1
                },
                {
                    "duration": 0.21428549999998836,
                    "durationTicks": 60,
                    "midi": 55,
                    "name": "G3",
                    "ticks": 46020,
                    "time": 164.35697850000003,
                    "velocity": 1
                },
                {
                    "duration": 0.21428549999998836,
                    "durationTicks": 60,
                    "midi": 64,
                    "name": "E4",
                    "ticks": 46080,
                    "time": 164.571264,
                    "velocity": 1
                },
                {
                    "duration": 0.21428550000001678,
                    "durationTicks": 60,
                    "midi": 62,
                    "name": "D4",
                    "ticks": 46140,
                    "time": 164.7855495,
                    "velocity": 1
                },
                {
                    "duration": 0.21428549999998836,
                    "durationTicks": 60,
                    "midi": 59,
                    "name": "B3",
                    "ticks": 46200,
                    "time": 164.99983500000002,
                    "velocity": 1
                },
                {
                    "duration": 0.21428550000001678,
                    "durationTicks": 60,
                    "midi": 62,
                    "name": "D4",
                    "ticks": 46260,
                    "time": 165.2141205,
                    "velocity": 1
                },
                {
                    "duration": 0.21428549999998836,
                    "durationTicks": 60,
                    "midi": 59,
                    "name": "B3",
                    "ticks": 46320,
                    "time": 165.42840600000002,
                    "velocity": 1
                },
                {
                    "duration": 0.21428549999998836,
                    "durationTicks": 60,
                    "midi": 58,
                    "name": "A#3",
                    "ticks": 46380,
                    "time": 165.6426915,
                    "velocity": 1
                },
                {
                    "duration": 0.21428550000001678,
                    "durationTicks": 60,
                    "midi": 57,
                    "name": "A3",
                    "ticks": 46440,
                    "time": 165.856977,
                    "velocity": 1
                },
                {
                    "duration": 0.21428549999998836,
                    "durationTicks": 60,
                    "midi": 55,
                    "name": "G3",
                    "ticks": 46500,
                    "time": 166.07126250000002,
                    "velocity": 1
                },
                {
                    "duration": 1.7142840000000206,
                    "durationTicks": 480,
                    "midi": 62,
                    "name": "D4",
                    "ticks": 46560,
                    "time": 166.285548,
                    "velocity": 1
                },
                {
                    "duration": 1.7142840000000206,
                    "durationTicks": 480,
                    "midi": 55,
                    "name": "G3",
                    "ticks": 46560,
                    "time": 166.285548,
                    "velocity": 1
                },
                {
                    "duration": 0.8571419999999819,
                    "durationTicks": 240,
                    "midi": 61,
                    "name": "C#4",
                    "ticks": 47040,
                    "time": 167.99983200000003,
                    "velocity": 1
                },
                {
                    "duration": 0.8571419999999819,
                    "durationTicks": 240,
                    "midi": 54,
                    "name": "F#3",
                    "ticks": 47040,
                    "time": 167.99983200000003,
                    "velocity": 1
                },
                {
                    "duration": 0.8571420000000103,
                    "durationTicks": 240,
                    "midi": 60,
                    "name": "C4",
                    "ticks": 47280,
                    "time": 168.856974,
                    "velocity": 1
                },
                {
                    "duration": 0.8571420000000103,
                    "durationTicks": 240,
                    "midi": 53,
                    "name": "F3",
                    "ticks": 47280,
                    "time": 168.856974,
                    "velocity": 1
                },
                {
                    "duration": 0.21428549999998836,
                    "durationTicks": 60,
                    "midi": 40,
                    "name": "E2",
                    "ticks": 47520,
                    "time": 169.71411600000002,
                    "velocity": 1
                },
                {
                    "duration": 0.21428550000001678,
                    "durationTicks": 60,
                    "midi": 40,
                    "name": "E2",
                    "ticks": 47580,
                    "time": 169.9284015,
                    "velocity": 1
                },
                {
                    "duration": 0.21428549999998836,
                    "durationTicks": 60,
                    "midi": 40,
                    "name": "E2",
                    "ticks": 47640,
                    "time": 170.14268700000002,
                    "velocity": 1
                },
                {
                    "duration": 0.21428549999998836,
                    "durationTicks": 60,
                    "midi": 40,
                    "name": "E2",
                    "ticks": 47700,
                    "time": 170.3569725,
                    "velocity": 1
                },
                {
                    "duration": 0.21428550000001678,
                    "durationTicks": 60,
                    "midi": 40,
                    "name": "E2",
                    "ticks": 47760,
                    "time": 170.571258,
                    "velocity": 1
                },
                {
                    "duration": 0.21428549999998836,
                    "durationTicks": 60,
                    "midi": 40,
                    "name": "E2",
                    "ticks": 47820,
                    "time": 170.78554350000002,
                    "velocity": 1
                },
                {
                    "duration": 0.21428550000001678,
                    "durationTicks": 60,
                    "midi": 40,
                    "name": "E2",
                    "ticks": 47880,
                    "time": 170.999829,
                    "velocity": 1
                },
                {
                    "duration": 0.21428549999998836,
                    "durationTicks": 60,
                    "midi": 40,
                    "name": "E2",
                    "ticks": 47940,
                    "time": 171.21411450000002,
                    "velocity": 1
                },
                {
                    "duration": 0.21428550000001678,
                    "durationTicks": 60,
                    "midi": 40,
                    "name": "E2",
                    "ticks": 48000,
                    "time": 171.4284,
                    "velocity": 1
                },
                {
                    "duration": 0.21428549999998836,
                    "durationTicks": 60,
                    "midi": 40,
                    "name": "E2",
                    "ticks": 48060,
                    "time": 171.64268550000003,
                    "velocity": 1
                },
                {
                    "duration": 0.21428549999998836,
                    "durationTicks": 60,
                    "midi": 40,
                    "name": "E2",
                    "ticks": 48120,
                    "time": 171.85697100000002,
                    "velocity": 1
                },
                {
                    "duration": 0.21428550000001678,
                    "durationTicks": 60,
                    "midi": 40,
                    "name": "E2",
                    "ticks": 48180,
                    "time": 172.0712565,
                    "velocity": 1
                },
                {
                    "duration": 0.21428549999998836,
                    "durationTicks": 60,
                    "midi": 40,
                    "name": "E2",
                    "ticks": 48240,
                    "time": 172.28554200000002,
                    "velocity": 1
                },
                {
                    "duration": 0.21428550000001678,
                    "durationTicks": 60,
                    "midi": 40,
                    "name": "E2",
                    "ticks": 48300,
                    "time": 172.4998275,
                    "velocity": 1
                },
                {
                    "duration": 0.21428549999998836,
                    "durationTicks": 60,
                    "midi": 40,
                    "name": "E2",
                    "ticks": 48360,
                    "time": 172.71411300000003,
                    "velocity": 1
                },
                {
                    "duration": 0.21428549999998836,
                    "durationTicks": 60,
                    "midi": 40,
                    "name": "E2",
                    "ticks": 48420,
                    "time": 172.92839850000001,
                    "velocity": 1
                },
                {
                    "duration": 1.7142840000000206,
                    "durationTicks": 480,
                    "midi": 62,
                    "name": "D4",
                    "ticks": 48480,
                    "time": 173.142684,
                    "velocity": 1
                },
                {
                    "duration": 1.7142840000000206,
                    "durationTicks": 480,
                    "midi": 55,
                    "name": "G3",
                    "ticks": 48480,
                    "time": 173.142684,
                    "velocity": 1
                },
                {
                    "duration": 0.8571419999999819,
                    "durationTicks": 240,
                    "midi": 61,
                    "name": "C#4",
                    "ticks": 48960,
                    "time": 174.85696800000002,
                    "velocity": 1
                },
                {
                    "duration": 0.8571419999999819,
                    "durationTicks": 240,
                    "midi": 54,
                    "name": "F#3",
                    "ticks": 48960,
                    "time": 174.85696800000002,
                    "velocity": 1
                },
                {
                    "duration": 0.8571420000000103,
                    "durationTicks": 240,
                    "midi": 60,
                    "name": "C4",
                    "ticks": 49200,
                    "time": 175.71411,
                    "velocity": 1
                },
                {
                    "duration": 0.8571420000000103,
                    "durationTicks": 240,
                    "midi": 53,
                    "name": "F3",
                    "ticks": 49200,
                    "time": 175.71411,
                    "velocity": 1
                },
                {
                    "duration": 0.21428549999998836,
                    "durationTicks": 60,
                    "midi": 40,
                    "name": "E2",
                    "ticks": 49440,
                    "time": 176.57125200000002,
                    "velocity": 1
                },
                {
                    "duration": 0.21428550000001678,
                    "durationTicks": 60,
                    "midi": 40,
                    "name": "E2",
                    "ticks": 49500,
                    "time": 176.7855375,
                    "velocity": 1
                },
                {
                    "duration": 0.21428549999998836,
                    "durationTicks": 60,
                    "midi": 40,
                    "name": "E2",
                    "ticks": 49560,
                    "time": 176.99982300000002,
                    "velocity": 1
                },
                {
                    "duration": 0.21428550000001678,
                    "durationTicks": 60,
                    "midi": 40,
                    "name": "E2",
                    "ticks": 49620,
                    "time": 177.2141085,
                    "velocity": 1
                },
                {
                    "duration": 0.21428549999998836,
                    "durationTicks": 60,
                    "midi": 40,
                    "name": "E2",
                    "ticks": 49680,
                    "time": 177.42839400000003,
                    "velocity": 1
                },
                {
                    "duration": 0.21428549999998836,
                    "durationTicks": 60,
                    "midi": 40,
                    "name": "E2",
                    "ticks": 49740,
                    "time": 177.6426795,
                    "velocity": 1
                },
                {
                    "duration": 0.21428550000001678,
                    "durationTicks": 60,
                    "midi": 40,
                    "name": "E2",
                    "ticks": 49800,
                    "time": 177.856965,
                    "velocity": 1
                },
                {
                    "duration": 0.21428549999998836,
                    "durationTicks": 60,
                    "midi": 40,
                    "name": "E2",
                    "ticks": 49860,
                    "time": 178.07125050000002,
                    "velocity": 1
                },
                {
                    "duration": 0.21428550000001678,
                    "durationTicks": 60,
                    "midi": 40,
                    "name": "E2",
                    "ticks": 49920,
                    "time": 178.285536,
                    "velocity": 1
                },
                {
                    "duration": 0.21428549999998836,
                    "durationTicks": 60,
                    "midi": 40,
                    "name": "E2",
                    "ticks": 49980,
                    "time": 178.49982150000002,
                    "velocity": 1
                },
                {
                    "duration": 0.21428549999998836,
                    "durationTicks": 60,
                    "midi": 40,
                    "name": "E2",
                    "ticks": 50040,
                    "time": 178.714107,
                    "velocity": 1
                },
                {
                    "duration": 0.21428550000001678,
                    "durationTicks": 60,
                    "midi": 40,
                    "name": "E2",
                    "ticks": 50100,
                    "time": 178.9283925,
                    "velocity": 1
                },
                {
                    "duration": 0.21428549999998836,
                    "durationTicks": 60,
                    "midi": 40,
                    "name": "E2",
                    "ticks": 50160,
                    "time": 179.14267800000002,
                    "velocity": 1
                },
                {
                    "duration": 0.21428550000001678,
                    "durationTicks": 60,
                    "midi": 40,
                    "name": "E2",
                    "ticks": 50220,
                    "time": 179.3569635,
                    "velocity": 1
                },
                {
                    "duration": 0.21428549999998836,
                    "durationTicks": 60,
                    "midi": 40,
                    "name": "E2",
                    "ticks": 50280,
                    "time": 179.57124900000002,
                    "velocity": 1
                },
                {
                    "duration": 0.21428550000001678,
                    "durationTicks": 60,
                    "midi": 40,
                    "name": "E2",
                    "ticks": 50340,
                    "time": 179.7855345,
                    "velocity": 1
                },
                {
                    "duration": 1.7142839999999921,
                    "durationTicks": 480,
                    "midi": 62,
                    "name": "D4",
                    "ticks": 50400,
                    "time": 179.99982000000003,
                    "velocity": 1
                },
                {
                    "duration": 1.7142839999999921,
                    "durationTicks": 480,
                    "midi": 55,
                    "name": "G3",
                    "ticks": 50400,
                    "time": 179.99982000000003,
                    "velocity": 1
                },
                {
                    "duration": 0.8571419999999819,
                    "durationTicks": 240,
                    "midi": 61,
                    "name": "C#4",
                    "ticks": 50880,
                    "time": 181.71410400000002,
                    "velocity": 1
                },
                {
                    "duration": 0.8571419999999819,
                    "durationTicks": 240,
                    "midi": 54,
                    "name": "F#3",
                    "ticks": 50880,
                    "time": 181.71410400000002,
                    "velocity": 1
                },
                {
                    "duration": 0.8571420000000103,
                    "durationTicks": 240,
                    "midi": 60,
                    "name": "C4",
                    "ticks": 51120,
                    "time": 182.571246,
                    "velocity": 1
                },
                {
                    "duration": 0.8571420000000103,
                    "durationTicks": 240,
                    "midi": 53,
                    "name": "F3",
                    "ticks": 51120,
                    "time": 182.571246,
                    "velocity": 1
                },
                {
                    "duration": 0.21428550000001678,
                    "durationTicks": 60,
                    "midi": 40,
                    "name": "E2",
                    "ticks": 51360,
                    "time": 183.428388,
                    "velocity": 1
                },
                {
                    "duration": 0.21428549999998836,
                    "durationTicks": 60,
                    "midi": 40,
                    "name": "E2",
                    "ticks": 51420,
                    "time": 183.64267350000003,
                    "velocity": 1
                },
                {
                    "duration": 0.21428549999998836,
                    "durationTicks": 60,
                    "midi": 40,
                    "name": "E2",
                    "ticks": 51480,
                    "time": 183.85695900000002,
                    "velocity": 1
                },
                {
                    "duration": 0.21428550000001678,
                    "durationTicks": 60,
                    "midi": 40,
                    "name": "E2",
                    "ticks": 51540,
                    "time": 184.0712445,
                    "velocity": 1
                },
                {
                    "duration": 0.21428549999998836,
                    "durationTicks": 60,
                    "midi": 40,
                    "name": "E2",
                    "ticks": 51600,
                    "time": 184.28553000000002,
                    "velocity": 1
                },
                {
                    "duration": 0.21428550000001678,
                    "durationTicks": 60,
                    "midi": 40,
                    "name": "E2",
                    "ticks": 51660,
                    "time": 184.4998155,
                    "velocity": 1
                },
                {
                    "duration": 0.21428549999998836,
                    "durationTicks": 60,
                    "midi": 40,
                    "name": "E2",
                    "ticks": 51720,
                    "time": 184.71410100000003,
                    "velocity": 1
                },
                {
                    "duration": 0.21428549999998836,
                    "durationTicks": 60,
                    "midi": 40,
                    "name": "E2",
                    "ticks": 51780,
                    "time": 184.92838650000002,
                    "velocity": 1
                },
                {
                    "duration": 0.21428550000001678,
                    "durationTicks": 60,
                    "midi": 40,
                    "name": "E2",
                    "ticks": 51840,
                    "time": 185.142672,
                    "velocity": 1
                },
                {
                    "duration": 0.21428549999998836,
                    "durationTicks": 60,
                    "midi": 40,
                    "name": "E2",
                    "ticks": 51900,
                    "time": 185.35695750000002,
                    "velocity": 1
                },
                {
                    "duration": 0.21428550000001678,
                    "durationTicks": 60,
                    "midi": 40,
                    "name": "E2",
                    "ticks": 51960,
                    "time": 185.571243,
                    "velocity": 1
                },
                {
                    "duration": 0.21428549999998836,
                    "durationTicks": 60,
                    "midi": 40,
                    "name": "E2",
                    "ticks": 52020,
                    "time": 185.78552850000003,
                    "velocity": 1
                },
                {
                    "duration": 0.21428549999998836,
                    "durationTicks": 60,
                    "midi": 40,
                    "name": "E2",
                    "ticks": 52080,
                    "time": 185.99981400000001,
                    "velocity": 1
                },
                {
                    "duration": 0.21428550000001678,
                    "durationTicks": 60,
                    "midi": 40,
                    "name": "E2",
                    "ticks": 52140,
                    "time": 186.2140995,
                    "velocity": 1
                },
                {
                    "duration": 0.21428549999998836,
                    "durationTicks": 60,
                    "midi": 40,
                    "name": "E2",
                    "ticks": 52200,
                    "time": 186.42838500000002,
                    "velocity": 1
                },
                {
                    "duration": 0.21428550000001678,
                    "durationTicks": 60,
                    "midi": 40,
                    "name": "E2",
                    "ticks": 52260,
                    "time": 186.6426705,
                    "velocity": 1
                },
                {
                    "duration": 1.7142839999999921,
                    "durationTicks": 480,
                    "midi": 62,
                    "name": "D4",
                    "ticks": 52320,
                    "time": 186.85695600000003,
                    "velocity": 1
                },
                {
                    "duration": 1.7142839999999921,
                    "durationTicks": 480,
                    "midi": 55,
                    "name": "G3",
                    "ticks": 52320,
                    "time": 186.85695600000003,
                    "velocity": 1
                },
                {
                    "duration": 0.8571420000000103,
                    "durationTicks": 240,
                    "midi": 61,
                    "name": "C#4",
                    "ticks": 52800,
                    "time": 188.57124000000002,
                    "velocity": 1
                },
                {
                    "duration": 0.8571420000000103,
                    "durationTicks": 240,
                    "midi": 54,
                    "name": "F#3",
                    "ticks": 52800,
                    "time": 188.57124000000002,
                    "velocity": 1
                },
                {
                    "duration": 0.8571419999999819,
                    "durationTicks": 240,
                    "midi": 60,
                    "name": "C4",
                    "ticks": 53040,
                    "time": 189.42838200000003,
                    "velocity": 1
                },
                {
                    "duration": 0.8571419999999819,
                    "durationTicks": 240,
                    "midi": 53,
                    "name": "F3",
                    "ticks": 53040,
                    "time": 189.42838200000003,
                    "velocity": 1
                },
                {
                    "duration": 1.7142840000000206,
                    "durationTicks": 480,
                    "midi": 64,
                    "name": "E4",
                    "ticks": 53280,
                    "time": 190.285524,
                    "velocity": 1
                },
                {
                    "duration": 1.7142840000000206,
                    "durationTicks": 480,
                    "midi": 59,
                    "name": "B3",
                    "ticks": 53280,
                    "time": 190.285524,
                    "velocity": 1
                },
                {
                    "duration": 1.7142840000000206,
                    "durationTicks": 480,
                    "midi": 52,
                    "name": "E3",
                    "ticks": 53280,
                    "time": 190.285524,
                    "velocity": 1
                },
                {
                    "duration": 1.7142840000000206,
                    "durationTicks": 480,
                    "midi": 40,
                    "name": "E2",
                    "ticks": 53280,
                    "time": 190.285524,
                    "velocity": 1
                },
                {
                    "duration": 0.2884610000000123,
                    "durationTicks": 120,
                    "midi": 68,
                    "name": "G#4",
                    "ticks": 53760,
                    "time": 191.99980800000003,
                    "velocity": 1
                },
                {
                    "duration": 0.2884610000000123,
                    "durationTicks": 120,
                    "midi": 64,
                    "name": "E4",
                    "ticks": 53760,
                    "time": 191.99980800000003,
                    "velocity": 1
                },
                {
                    "duration": 0.2884610000000123,
                    "durationTicks": 120,
                    "midi": 59,
                    "name": "B3",
                    "ticks": 53760,
                    "time": 191.99980800000003,
                    "velocity": 1
                },
                {
                    "duration": 0.2884610000000123,
                    "durationTicks": 120,
                    "midi": 52,
                    "name": "E3",
                    "ticks": 53760,
                    "time": 191.99980800000003,
                    "velocity": 1
                },
                {
                    "duration": 0.14423049999999193,
                    "durationTicks": 60,
                    "midi": 45,
                    "name": "A2",
                    "ticks": 55680,
                    "time": 196.61518400000003,
                    "velocity": 1
                },
                {
                    "duration": 0.14423049999999193,
                    "durationTicks": 60,
                    "midi": 55,
                    "name": "G3",
                    "ticks": 55680,
                    "time": 196.61518400000003,
                    "velocity": 1
                },
                {
                    "duration": 0.14423050000002036,
                    "durationTicks": 60,
                    "midi": 57,
                    "name": "A3",
                    "ticks": 55740,
                    "time": 196.75941450000002,
                    "velocity": 1
                },
                {
                    "duration": 0.14423050000002036,
                    "durationTicks": 60,
                    "midi": 45,
                    "name": "A2",
                    "ticks": 55740,
                    "time": 196.75941450000002,
                    "velocity": 1
                },
                {
                    "duration": 0.14423049999999193,
                    "durationTicks": 60,
                    "midi": 45,
                    "name": "A2",
                    "ticks": 55800,
                    "time": 196.90364500000004,
                    "velocity": 1
                },
                {
                    "duration": 0.14423049999999193,
                    "durationTicks": 60,
                    "midi": 57,
                    "name": "A3",
                    "ticks": 55860,
                    "time": 197.04787550000003,
                    "velocity": 1
                },
                {
                    "duration": 0.14423049999999193,
                    "durationTicks": 60,
                    "midi": 45,
                    "name": "A2",
                    "ticks": 55920,
                    "time": 197.19210600000002,
                    "velocity": 1
                },
                {
                    "duration": 0.14423050000002036,
                    "durationTicks": 60,
                    "midi": 45,
                    "name": "A2",
                    "ticks": 55980,
                    "time": 197.33633650000002,
                    "velocity": 1
                },
                {
                    "duration": 0.14423049999999193,
                    "durationTicks": 60,
                    "midi": 57,
                    "name": "A3",
                    "ticks": 56040,
                    "time": 197.48056700000004,
                    "velocity": 1
                },
                {
                    "duration": 0.14423049999999193,
                    "durationTicks": 60,
                    "midi": 45,
                    "name": "A2",
                    "ticks": 56100,
                    "time": 197.62479750000003,
                    "velocity": 1
                },
                {
                    "duration": 0.14423050000002036,
                    "durationTicks": 60,
                    "midi": 60,
                    "name": "C4",
                    "ticks": 56160,
                    "time": 197.76902800000002,
                    "velocity": 1
                },
                {
                    "duration": 0.14423050000002036,
                    "durationTicks": 60,
                    "midi": 55,
                    "name": "G3",
                    "ticks": 56160,
                    "time": 197.76902800000002,
                    "velocity": 1
                },
                {
                    "duration": 0.14423049999999193,
                    "durationTicks": 60,
                    "midi": 45,
                    "name": "A2",
                    "ticks": 56220,
                    "time": 197.91325850000004,
                    "velocity": 1
                },
                {
                    "duration": 0.14423049999999193,
                    "durationTicks": 60,
                    "midi": 45,
                    "name": "A2",
                    "ticks": 56280,
                    "time": 198.05748900000003,
                    "velocity": 1
                },
                {
                    "duration": 0.14423049999999193,
                    "durationTicks": 60,
                    "midi": 57,
                    "name": "A3",
                    "ticks": 56340,
                    "time": 198.20171950000002,
                    "velocity": 1
                },
                {
                    "duration": 0.14423050000002036,
                    "durationTicks": 60,
                    "midi": 45,
                    "name": "A2",
                    "ticks": 56400,
                    "time": 198.34595000000002,
                    "velocity": 1
                },
                {
                    "duration": 0.14423049999999193,
                    "durationTicks": 60,
                    "midi": 45,
                    "name": "A2",
                    "ticks": 56460,
                    "time": 198.49018050000004,
                    "velocity": 1
                },
                {
                    "duration": 0.14423049999999193,
                    "durationTicks": 60,
                    "midi": 57,
                    "name": "A3",
                    "ticks": 56520,
                    "time": 198.63441100000003,
                    "velocity": 1
                },
                {
                    "duration": 0.14423050000002036,
                    "durationTicks": 60,
                    "midi": 45,
                    "name": "A2",
                    "ticks": 56580,
                    "time": 198.77864150000002,
                    "velocity": 1
                },
                {
                    "duration": 0.14423049999999193,
                    "durationTicks": 60,
                    "midi": 59,
                    "name": "B3",
                    "ticks": 56640,
                    "time": 198.92287200000004,
                    "velocity": 1
                },
                {
                    "duration": 0.14423049999999193,
                    "durationTicks": 60,
                    "midi": 54,
                    "name": "F#3",
                    "ticks": 56640,
                    "time": 198.92287200000004,
                    "velocity": 1
                },
                {
                    "duration": 0.14423049999999193,
                    "durationTicks": 60,
                    "midi": 45,
                    "name": "A2",
                    "ticks": 56700,
                    "time": 199.06710250000003,
                    "velocity": 1
                },
                {
                    "duration": 0.14423049999999193,
                    "durationTicks": 60,
                    "midi": 45,
                    "name": "A2",
                    "ticks": 56760,
                    "time": 199.21133300000002,
                    "velocity": 1
                },
                {
                    "duration": 0.14423050000002036,
                    "durationTicks": 60,
                    "midi": 57,
                    "name": "A3",
                    "ticks": 56820,
                    "time": 199.35556350000002,
                    "velocity": 1
                },
                {
                    "duration": 0.14423049999999193,
                    "durationTicks": 60,
                    "midi": 45,
                    "name": "A2",
                    "ticks": 56880,
                    "time": 199.49979400000004,
                    "velocity": 1
                },
                {
                    "duration": 0.14423049999999193,
                    "durationTicks": 60,
                    "midi": 45,
                    "name": "A2",
                    "ticks": 56940,
                    "time": 199.64402450000003,
                    "velocity": 1
                },
                {
                    "duration": 0.2884610000000123,
                    "durationTicks": 120,
                    "midi": 57,
                    "name": "A3",
                    "ticks": 57000,
                    "time": 199.78825500000002,
                    "velocity": 1
                },
                {
                    "duration": 0.14423049999999193,
                    "durationTicks": 60,
                    "midi": 48,
                    "name": "C3",
                    "ticks": 57120,
                    "time": 200.07671600000003,
                    "velocity": 1
                },
                {
                    "duration": 0.14423049999999193,
                    "durationTicks": 60,
                    "midi": 47,
                    "name": "B2",
                    "ticks": 57180,
                    "time": 200.22094650000003,
                    "velocity": 1
                },
                {
                    "duration": 0.14423050000002036,
                    "durationTicks": 60,
                    "midi": 45,
                    "name": "A2",
                    "ticks": 57240,
                    "time": 200.36517700000002,
                    "velocity": 1
                },
                {
                    "duration": 0.14423049999999193,
                    "durationTicks": 60,
                    "midi": 53,
                    "name": "F3",
                    "ticks": 57300,
                    "time": 200.50940750000004,
                    "velocity": 1
                },
                {
                    "duration": 0.14423049999999193,
                    "durationTicks": 60,
                    "midi": 52,
                    "name": "E3",
                    "ticks": 57360,
                    "time": 200.65363800000003,
                    "velocity": 1
                },
                {
                    "duration": 0.14423050000002036,
                    "durationTicks": 60,
                    "midi": 50,
                    "name": "D3",
                    "ticks": 57420,
                    "time": 200.79786850000002,
                    "velocity": 1
                },
                {
                    "duration": 0.14423049999999193,
                    "durationTicks": 60,
                    "midi": 48,
                    "name": "C3",
                    "ticks": 57480,
                    "time": 200.94209900000004,
                    "velocity": 1
                },
                {
                    "duration": 0.14423049999999193,
                    "durationTicks": 60,
                    "midi": 45,
                    "name": "A2",
                    "ticks": 57540,
                    "time": 201.08632950000003,
                    "velocity": 1
                },
                {
                    "duration": 0.14423049999999193,
                    "durationTicks": 60,
                    "midi": 55,
                    "name": "G3",
                    "ticks": 57600,
                    "time": 201.23056000000003,
                    "velocity": 1
                },
                {
                    "duration": 0.14423050000002036,
                    "durationTicks": 60,
                    "midi": 45,
                    "name": "A2",
                    "ticks": 57660,
                    "time": 201.37479050000002,
                    "velocity": 1
                },
                {
                    "duration": 0.14423049999999193,
                    "durationTicks": 60,
                    "midi": 45,
                    "name": "A2",
                    "ticks": 57720,
                    "time": 201.51902100000004,
                    "velocity": 1
                },
                {
                    "duration": 0.14423049999999193,
                    "durationTicks": 60,
                    "midi": 57,
                    "name": "A3",
                    "ticks": 57780,
                    "time": 201.66325150000003,
                    "velocity": 1
                },
                {
                    "duration": 0.14423050000002036,
                    "durationTicks": 60,
                    "midi": 45,
                    "name": "A2",
                    "ticks": 57840,
                    "time": 201.80748200000002,
                    "velocity": 1
                },
                {
                    "duration": 0.14423049999999193,
                    "durationTicks": 60,
                    "midi": 45,
                    "name": "A2",
                    "ticks": 57900,
                    "time": 201.95171250000004,
                    "velocity": 1
                },
                {
                    "duration": 0.14423049999999193,
                    "durationTicks": 60,
                    "midi": 57,
                    "name": "A3",
                    "ticks": 57960,
                    "time": 202.09594300000003,
                    "velocity": 1
                },
                {
                    "duration": 0.14423049999999193,
                    "durationTicks": 60,
                    "midi": 45,
                    "name": "A2",
                    "ticks": 58020,
                    "time": 202.24017350000003,
                    "velocity": 1
                },
                {
                    "duration": 0.14423050000002036,
                    "durationTicks": 60,
                    "midi": 60,
                    "name": "C4",
                    "ticks": 58080,
                    "time": 202.38440400000002,
                    "velocity": 1
                },
                {
                    "duration": 0.14423050000002036,
                    "durationTicks": 60,
                    "midi": 55,
                    "name": "G3",
                    "ticks": 58080,
                    "time": 202.38440400000002,
                    "velocity": 1
                },
                {
                    "duration": 0.14423049999999193,
                    "durationTicks": 60,
                    "midi": 45,
                    "name": "A2",
                    "ticks": 58140,
                    "time": 202.52863450000004,
                    "velocity": 1
                },
                {
                    "duration": 0.14423049999999193,
                    "durationTicks": 60,
                    "midi": 45,
                    "name": "A2",
                    "ticks": 58200,
                    "time": 202.67286500000003,
                    "velocity": 1
                },
                {
                    "duration": 0.14423050000002036,
                    "durationTicks": 60,
                    "midi": 57,
                    "name": "A3",
                    "ticks": 58260,
                    "time": 202.81709550000002,
                    "velocity": 1
                },
                {
                    "duration": 0.14423049999999193,
                    "durationTicks": 60,
                    "midi": 45,
                    "name": "A2",
                    "ticks": 58320,
                    "time": 202.96132600000004,
                    "velocity": 1
                },
                {
                    "duration": 0.14423049999999193,
                    "durationTicks": 60,
                    "midi": 45,
                    "name": "A2",
                    "ticks": 58380,
                    "time": 203.10555650000003,
                    "velocity": 1
                },
                {
                    "duration": 0.14423049999999193,
                    "durationTicks": 60,
                    "midi": 57,
                    "name": "A3",
                    "ticks": 58440,
                    "time": 203.24978700000003,
                    "velocity": 1
                },
                {
                    "duration": 0.14423050000002036,
                    "durationTicks": 60,
                    "midi": 45,
                    "name": "A2",
                    "ticks": 58500,
                    "time": 203.39401750000002,
                    "velocity": 1
                },
                {
                    "duration": 0.14423049999999193,
                    "durationTicks": 60,
                    "midi": 59,
                    "name": "B3",
                    "ticks": 58560,
                    "time": 203.53824800000004,
                    "velocity": 1
                },
                {
                    "duration": 0.14423049999999193,
                    "durationTicks": 60,
                    "midi": 54,
                    "name": "F#3",
                    "ticks": 58560,
                    "time": 203.53824800000004,
                    "velocity": 1
                },
                {
                    "duration": 0.14423049999999193,
                    "durationTicks": 60,
                    "midi": 45,
                    "name": "A2",
                    "ticks": 58620,
                    "time": 203.68247850000003,
                    "velocity": 1
                },
                {
                    "duration": 0.14423050000002036,
                    "durationTicks": 60,
                    "midi": 45,
                    "name": "A2",
                    "ticks": 58680,
                    "time": 203.82670900000002,
                    "velocity": 1
                },
                {
                    "duration": 0.14423049999999193,
                    "durationTicks": 60,
                    "midi": 57,
                    "name": "A3",
                    "ticks": 58740,
                    "time": 203.97093950000004,
                    "velocity": 1
                },
                {
                    "duration": 0.14423049999999193,
                    "durationTicks": 60,
                    "midi": 45,
                    "name": "A2",
                    "ticks": 58800,
                    "time": 204.11517000000003,
                    "velocity": 1
                },
                {
                    "duration": 0.14423049999999193,
                    "durationTicks": 60,
                    "midi": 45,
                    "name": "A2",
                    "ticks": 58860,
                    "time": 204.25940050000003,
                    "velocity": 1
                },
                {
                    "duration": 0.2884610000000123,
                    "durationTicks": 120,
                    "midi": 57,
                    "name": "A3",
                    "ticks": 58920,
                    "time": 204.40363100000002,
                    "velocity": 1
                },
                {
                    "duration": 0.14423049999999193,
                    "durationTicks": 60,
                    "midi": 48,
                    "name": "C3",
                    "ticks": 59040,
                    "time": 204.69209200000003,
                    "velocity": 1
                },
                {
                    "duration": 0.14423050000002036,
                    "durationTicks": 60,
                    "midi": 47,
                    "name": "B2",
                    "ticks": 59100,
                    "time": 204.83632250000002,
                    "velocity": 1
                },
                {
                    "duration": 0.14423049999999193,
                    "durationTicks": 60,
                    "midi": 45,
                    "name": "A2",
                    "ticks": 59160,
                    "time": 204.98055300000004,
                    "velocity": 1
                },
                {
                    "duration": 0.14423049999999193,
                    "durationTicks": 60,
                    "midi": 53,
                    "name": "F3",
                    "ticks": 59220,
                    "time": 205.12478350000004,
                    "velocity": 1
                },
                {
                    "duration": 0.14423049999999193,
                    "durationTicks": 60,
                    "midi": 52,
                    "name": "E3",
                    "ticks": 59280,
                    "time": 205.26901400000003,
                    "velocity": 1
                },
                {
                    "duration": 0.14423050000002036,
                    "durationTicks": 60,
                    "midi": 50,
                    "name": "D3",
                    "ticks": 59340,
                    "time": 205.41324450000002,
                    "velocity": 1
                },
                {
                    "duration": 0.14423049999999193,
                    "durationTicks": 60,
                    "midi": 48,
                    "name": "C3",
                    "ticks": 59400,
                    "time": 205.55747500000004,
                    "velocity": 1
                },
                {
                    "duration": 0.14423049999999193,
                    "durationTicks": 60,
                    "midi": 45,
                    "name": "A2",
                    "ticks": 59460,
                    "time": 205.70170550000003,
                    "velocity": 1
                },
                {
                    "duration": 0.14423050000002036,
                    "durationTicks": 60,
                    "midi": 55,
                    "name": "G3",
                    "ticks": 59520,
                    "time": 205.84593600000002,
                    "velocity": 1
                },
                {
                    "duration": 0.14423049999999193,
                    "durationTicks": 60,
                    "midi": 45,
                    "name": "A2",
                    "ticks": 59580,
                    "time": 205.99016650000004,
                    "velocity": 1
                },
                {
                    "duration": 0.14423049999999193,
                    "durationTicks": 60,
                    "midi": 45,
                    "name": "A2",
                    "ticks": 59640,
                    "time": 206.13439700000004,
                    "velocity": 1
                },
                {
                    "duration": 0.14423049999999193,
                    "durationTicks": 60,
                    "midi": 57,
                    "name": "A3",
                    "ticks": 59700,
                    "time": 206.27862750000003,
                    "velocity": 1
                },
                {
                    "duration": 0.14423050000002036,
                    "durationTicks": 60,
                    "midi": 45,
                    "name": "A2",
                    "ticks": 59760,
                    "time": 206.42285800000002,
                    "velocity": 1
                },
                {
                    "duration": 0.14423049999999193,
                    "durationTicks": 60,
                    "midi": 45,
                    "name": "A2",
                    "ticks": 59820,
                    "time": 206.56708850000004,
                    "velocity": 1
                },
                {
                    "duration": 0.14423049999999193,
                    "durationTicks": 60,
                    "midi": 57,
                    "name": "A3",
                    "ticks": 59880,
                    "time": 206.71131900000003,
                    "velocity": 1
                },
                {
                    "duration": 0.14423050000002036,
                    "durationTicks": 60,
                    "midi": 45,
                    "name": "A2",
                    "ticks": 59940,
                    "time": 206.85554950000002,
                    "velocity": 1
                },
                {
                    "duration": 0.14423049999999193,
                    "durationTicks": 60,
                    "midi": 60,
                    "name": "C4",
                    "ticks": 60000,
                    "time": 206.99978000000004,
                    "velocity": 1
                },
                {
                    "duration": 0.14423049999999193,
                    "durationTicks": 60,
                    "midi": 55,
                    "name": "G3",
                    "ticks": 60000,
                    "time": 206.99978000000004,
                    "velocity": 1
                },
                {
                    "duration": 0.14423049999999193,
                    "durationTicks": 60,
                    "midi": 45,
                    "name": "A2",
                    "ticks": 60060,
                    "time": 207.14401050000004,
                    "velocity": 1
                },
                {
                    "duration": 0.14423049999999193,
                    "durationTicks": 60,
                    "midi": 45,
                    "name": "A2",
                    "ticks": 60120,
                    "time": 207.28824100000003,
                    "velocity": 1
                },
                {
                    "duration": 0.14423050000002036,
                    "durationTicks": 60,
                    "midi": 57,
                    "name": "A3",
                    "ticks": 60180,
                    "time": 207.43247150000002,
                    "velocity": 1
                },
                {
                    "duration": 0.14423049999999193,
                    "durationTicks": 60,
                    "midi": 45,
                    "name": "A2",
                    "ticks": 60240,
                    "time": 207.57670200000004,
                    "velocity": 1
                },
                {
                    "duration": 0.14423049999999193,
                    "durationTicks": 60,
                    "midi": 45,
                    "name": "A2",
                    "ticks": 60300,
                    "time": 207.72093250000003,
                    "velocity": 1
                },
                {
                    "duration": 0.14423050000002036,
                    "durationTicks": 60,
                    "midi": 57,
                    "name": "A3",
                    "ticks": 60360,
                    "time": 207.86516300000002,
                    "velocity": 1
                },
                {
                    "duration": 0.14423049999999193,
                    "durationTicks": 60,
                    "midi": 45,
                    "name": "A2",
                    "ticks": 60420,
                    "time": 208.00939350000004,
                    "velocity": 1
                },
                {
                    "duration": 0.14423049999999193,
                    "durationTicks": 60,
                    "midi": 59,
                    "name": "B3",
                    "ticks": 60480,
                    "time": 208.15362400000004,
                    "velocity": 1
                },
                {
                    "duration": 0.14423049999999193,
                    "durationTicks": 60,
                    "midi": 54,
                    "name": "F#3",
                    "ticks": 60480,
                    "time": 208.15362400000004,
                    "velocity": 1
                },
                {
                    "duration": 0.14423049999999193,
                    "durationTicks": 60,
                    "midi": 45,
                    "name": "A2",
                    "ticks": 60540,
                    "time": 208.29785450000003,
                    "velocity": 1
                },
                {
                    "duration": 0.14423050000002036,
                    "durationTicks": 60,
                    "midi": 45,
                    "name": "A2",
                    "ticks": 60600,
                    "time": 208.44208500000002,
                    "velocity": 1
                },
                {
                    "duration": 0.14423049999999193,
                    "durationTicks": 60,
                    "midi": 57,
                    "name": "A3",
                    "ticks": 60660,
                    "time": 208.58631550000004,
                    "velocity": 1
                },
                {
                    "duration": 0.14423049999999193,
                    "durationTicks": 60,
                    "midi": 45,
                    "name": "A2",
                    "ticks": 60720,
                    "time": 208.73054600000003,
                    "velocity": 1
                },
                {
                    "duration": 0.14423050000002036,
                    "durationTicks": 60,
                    "midi": 45,
                    "name": "A2",
                    "ticks": 60780,
                    "time": 208.87477650000002,
                    "velocity": 1
                },
                {
                    "duration": 0.28846099999998387,
                    "durationTicks": 120,
                    "midi": 57,
                    "name": "A3",
                    "ticks": 60840,
                    "time": 209.01900700000004,
                    "velocity": 1
                },
                {
                    "duration": 0.14423049999999193,
                    "durationTicks": 60,
                    "midi": 48,
                    "name": "C3",
                    "ticks": 60960,
                    "time": 209.30746800000003,
                    "velocity": 1
                },
                {
                    "duration": 0.14423050000002036,
                    "durationTicks": 60,
                    "midi": 47,
                    "name": "B2",
                    "ticks": 61020,
                    "time": 209.45169850000002,
                    "velocity": 1
                },
                {
                    "duration": 0.14423049999999193,
                    "durationTicks": 60,
                    "midi": 45,
                    "name": "A2",
                    "ticks": 61080,
                    "time": 209.59592900000004,
                    "velocity": 1
                },
                {
                    "duration": 0.14423049999999193,
                    "durationTicks": 60,
                    "midi": 53,
                    "name": "F3",
                    "ticks": 61140,
                    "time": 209.74015950000003,
                    "velocity": 1
                },
                {
                    "duration": 0.14423050000002036,
                    "durationTicks": 60,
                    "midi": 52,
                    "name": "E3",
                    "ticks": 61200,
                    "time": 209.88439000000002,
                    "velocity": 1
                },
                {
                    "duration": 0.14423049999999193,
                    "durationTicks": 60,
                    "midi": 50,
                    "name": "D3",
                    "ticks": 61260,
                    "time": 210.02862050000005,
                    "velocity": 1
                },
                {
                    "duration": 0.14423049999999193,
                    "durationTicks": 60,
                    "midi": 48,
                    "name": "C3",
                    "ticks": 61320,
                    "time": 210.17285100000004,
                    "velocity": 1
                },
                {
                    "duration": 0.14423049999999193,
                    "durationTicks": 60,
                    "midi": 45,
                    "name": "A2",
                    "ticks": 61380,
                    "time": 210.31708150000003,
                    "velocity": 1
                },
                {
                    "duration": 0.14423050000002036,
                    "durationTicks": 60,
                    "midi": 55,
                    "name": "G3",
                    "ticks": 61440,
                    "time": 210.46131200000002,
                    "velocity": 1
                },
                {
                    "duration": 0.14423049999999193,
                    "durationTicks": 60,
                    "midi": 45,
                    "name": "A2",
                    "ticks": 61500,
                    "time": 210.60554250000004,
                    "velocity": 1
                },
                {
                    "duration": 0.14423049999999193,
                    "durationTicks": 60,
                    "midi": 45,
                    "name": "A2",
                    "ticks": 61560,
                    "time": 210.74977300000003,
                    "velocity": 1
                },
                {
                    "duration": 0.14423050000002036,
                    "durationTicks": 60,
                    "midi": 57,
                    "name": "A3",
                    "ticks": 61620,
                    "time": 210.89400350000003,
                    "velocity": 1
                },
                {
                    "duration": 0.14423049999999193,
                    "durationTicks": 60,
                    "midi": 45,
                    "name": "A2",
                    "ticks": 61680,
                    "time": 211.03823400000005,
                    "velocity": 1
                },
                {
                    "duration": 0.14423049999999193,
                    "durationTicks": 60,
                    "midi": 45,
                    "name": "A2",
                    "ticks": 61740,
                    "time": 211.18246450000004,
                    "velocity": 1
                },
                {
                    "duration": 0.14423049999999193,
                    "durationTicks": 60,
                    "midi": 57,
                    "name": "A3",
                    "ticks": 61800,
                    "time": 211.32669500000003,
                    "velocity": 1
                },
                {
                    "duration": 0.14423050000002036,
                    "durationTicks": 60,
                    "midi": 45,
                    "name": "A2",
                    "ticks": 61860,
                    "time": 211.47092550000002,
                    "velocity": 1
                },
                {
                    "duration": 0.14423049999999193,
                    "durationTicks": 60,
                    "midi": 60,
                    "name": "C4",
                    "ticks": 61920,
                    "time": 211.61515600000004,
                    "velocity": 1
                },
                {
                    "duration": 0.14423049999999193,
                    "durationTicks": 60,
                    "midi": 55,
                    "name": "G3",
                    "ticks": 61920,
                    "time": 211.61515600000004,
                    "velocity": 1
                },
                {
                    "duration": 0.14423049999999193,
                    "durationTicks": 60,
                    "midi": 45,
                    "name": "A2",
                    "ticks": 61980,
                    "time": 211.75938650000003,
                    "velocity": 1
                },
                {
                    "duration": 0.14423050000002036,
                    "durationTicks": 60,
                    "midi": 45,
                    "name": "A2",
                    "ticks": 62040,
                    "time": 211.90361700000003,
                    "velocity": 1
                },
                {
                    "duration": 0.14423049999999193,
                    "durationTicks": 60,
                    "midi": 57,
                    "name": "A3",
                    "ticks": 62100,
                    "time": 212.04784750000005,
                    "velocity": 1
                },
                {
                    "duration": 0.14423049999999193,
                    "durationTicks": 60,
                    "midi": 45,
                    "name": "A2",
                    "ticks": 62160,
                    "time": 212.19207800000004,
                    "velocity": 1
                },
                {
                    "duration": 0.14423049999999193,
                    "durationTicks": 60,
                    "midi": 45,
                    "name": "A2",
                    "ticks": 62220,
                    "time": 212.33630850000003,
                    "velocity": 1
                },
                {
                    "duration": 0.14423050000002036,
                    "durationTicks": 60,
                    "midi": 57,
                    "name": "A3",
                    "ticks": 62280,
                    "time": 212.48053900000002,
                    "velocity": 1
                },
                {
                    "duration": 0.14423049999999193,
                    "durationTicks": 60,
                    "midi": 45,
                    "name": "A2",
                    "ticks": 62340,
                    "time": 212.62476950000004,
                    "velocity": 1
                },
                {
                    "duration": 0.14423049999999193,
                    "durationTicks": 60,
                    "midi": 59,
                    "name": "B3",
                    "ticks": 62400,
                    "time": 212.76900000000003,
                    "velocity": 1
                },
                {
                    "duration": 0.14423049999999193,
                    "durationTicks": 60,
                    "midi": 54,
                    "name": "F#3",
                    "ticks": 62400,
                    "time": 212.76900000000003,
                    "velocity": 1
                },
                {
                    "duration": 0.14423050000002036,
                    "durationTicks": 60,
                    "midi": 45,
                    "name": "A2",
                    "ticks": 62460,
                    "time": 212.91323050000003,
                    "velocity": 1
                },
                {
                    "duration": 0.14423049999999193,
                    "durationTicks": 60,
                    "midi": 45,
                    "name": "A2",
                    "ticks": 62520,
                    "time": 213.05746100000005,
                    "velocity": 1
                },
                {
                    "duration": 0.14423049999999193,
                    "durationTicks": 60,
                    "midi": 57,
                    "name": "A3",
                    "ticks": 62580,
                    "time": 213.20169150000004,
                    "velocity": 1
                },
                {
                    "duration": 0.14423049999999193,
                    "durationTicks": 60,
                    "midi": 45,
                    "name": "A2",
                    "ticks": 62640,
                    "time": 213.34592200000003,
                    "velocity": 1
                },
                {
                    "duration": 0.14423050000002036,
                    "durationTicks": 60,
                    "midi": 45,
                    "name": "A2",
                    "ticks": 62700,
                    "time": 213.49015250000002,
                    "velocity": 1
                },
                {
                    "duration": 0.28846099999998387,
                    "durationTicks": 120,
                    "midi": 57,
                    "name": "A3",
                    "ticks": 62760,
                    "time": 213.63438300000004,
                    "velocity": 1
                },
                {
                    "duration": 0.14423050000002036,
                    "durationTicks": 60,
                    "midi": 48,
                    "name": "C3",
                    "ticks": 62880,
                    "time": 213.92284400000003,
                    "velocity": 1
                },
                {
                    "duration": 0.14423049999999193,
                    "durationTicks": 60,
                    "midi": 47,
                    "name": "B2",
                    "ticks": 62940,
                    "time": 214.06707450000005,
                    "velocity": 1
                },
                {
                    "duration": 0.14423049999999193,
                    "durationTicks": 60,
                    "midi": 45,
                    "name": "A2",
                    "ticks": 63000,
                    "time": 214.21130500000004,
                    "velocity": 1
                },
                {
                    "duration": 0.14423049999999193,
                    "durationTicks": 60,
                    "midi": 53,
                    "name": "F3",
                    "ticks": 63060,
                    "time": 214.35553550000003,
                    "velocity": 1
                },
                {
                    "duration": 0.14423050000002036,
                    "durationTicks": 60,
                    "midi": 52,
                    "name": "E3",
                    "ticks": 63120,
                    "time": 214.49976600000002,
                    "velocity": 1
                },
                {
                    "duration": 0.14423049999999193,
                    "durationTicks": 60,
                    "midi": 50,
                    "name": "D3",
                    "ticks": 63180,
                    "time": 214.64399650000004,
                    "velocity": 1
                },
                {
                    "duration": 0.14423049999999193,
                    "durationTicks": 60,
                    "midi": 48,
                    "name": "C3",
                    "ticks": 63240,
                    "time": 214.78822700000003,
                    "velocity": 1
                },
                {
                    "duration": 0.14423050000002036,
                    "durationTicks": 60,
                    "midi": 45,
                    "name": "A2",
                    "ticks": 63300,
                    "time": 214.93245750000003,
                    "velocity": 1
                },
                {
                    "duration": 1.1538439999999923,
                    "durationTicks": 480,
                    "midi": 62,
                    "name": "D4",
                    "ticks": 63360,
                    "time": 215.07668800000005,
                    "velocity": 1
                },
                {
                    "duration": 1.1538439999999923,
                    "durationTicks": 480,
                    "midi": 55,
                    "name": "G3",
                    "ticks": 63360,
                    "time": 215.07668800000005,
                    "velocity": 1
                },
                {
                    "duration": 0.5769219999999962,
                    "durationTicks": 240,
                    "midi": 61,
                    "name": "C#4",
                    "ticks": 63840,
                    "time": 216.23053200000004,
                    "velocity": 1
                },
                {
                    "duration": 0.5769219999999962,
                    "durationTicks": 240,
                    "midi": 54,
                    "name": "F#3",
                    "ticks": 63840,
                    "time": 216.23053200000004,
                    "velocity": 1
                },
                {
                    "duration": 0.5769219999999962,
                    "durationTicks": 240,
                    "midi": 60,
                    "name": "C4",
                    "ticks": 64080,
                    "time": 216.80745400000004,
                    "velocity": 1
                },
                {
                    "duration": 0.5769219999999962,
                    "durationTicks": 240,
                    "midi": 53,
                    "name": "F3",
                    "ticks": 64080,
                    "time": 216.80745400000004,
                    "velocity": 1
                },
                {
                    "duration": 0.14423049999999193,
                    "durationTicks": 60,
                    "midi": 40,
                    "name": "E2",
                    "ticks": 64320,
                    "time": 217.38437600000003,
                    "velocity": 1
                },
                {
                    "duration": 0.14423050000002036,
                    "durationTicks": 60,
                    "midi": 40,
                    "name": "E2",
                    "ticks": 64380,
                    "time": 217.52860650000002,
                    "velocity": 1
                },
                {
                    "duration": 0.14423049999999193,
                    "durationTicks": 60,
                    "midi": 40,
                    "name": "E2",
                    "ticks": 64440,
                    "time": 217.67283700000004,
                    "velocity": 1
                },
                {
                    "duration": 0.14423049999999193,
                    "durationTicks": 60,
                    "midi": 40,
                    "name": "E2",
                    "ticks": 64500,
                    "time": 217.81706750000004,
                    "velocity": 1
                },
                {
                    "duration": 0.14423049999999193,
                    "durationTicks": 60,
                    "midi": 40,
                    "name": "E2",
                    "ticks": 64560,
                    "time": 217.96129800000003,
                    "velocity": 1
                },
                {
                    "duration": 0.14423050000002036,
                    "durationTicks": 60,
                    "midi": 40,
                    "name": "E2",
                    "ticks": 64620,
                    "time": 218.10552850000002,
                    "velocity": 1
                },
                {
                    "duration": 0.14423049999999193,
                    "durationTicks": 60,
                    "midi": 40,
                    "name": "E2",
                    "ticks": 64680,
                    "time": 218.24975900000004,
                    "velocity": 1
                },
                {
                    "duration": 0.14423049999999193,
                    "durationTicks": 60,
                    "midi": 40,
                    "name": "E2",
                    "ticks": 64740,
                    "time": 218.39398950000003,
                    "velocity": 1
                },
                {
                    "duration": 0.14423050000002036,
                    "durationTicks": 60,
                    "midi": 40,
                    "name": "E2",
                    "ticks": 64800,
                    "time": 218.53822000000002,
                    "velocity": 1
                },
                {
                    "duration": 0.14423049999999193,
                    "durationTicks": 60,
                    "midi": 40,
                    "name": "E2",
                    "ticks": 64860,
                    "time": 218.68245050000004,
                    "velocity": 1
                },
                {
                    "duration": 0.14423049999999193,
                    "durationTicks": 60,
                    "midi": 40,
                    "name": "E2",
                    "ticks": 64920,
                    "time": 218.82668100000004,
                    "velocity": 1
                },
                {
                    "duration": 0.14423049999999193,
                    "durationTicks": 60,
                    "midi": 40,
                    "name": "E2",
                    "ticks": 64980,
                    "time": 218.97091150000003,
                    "velocity": 1
                },
                {
                    "duration": 0.14423050000002036,
                    "durationTicks": 60,
                    "midi": 40,
                    "name": "E2",
                    "ticks": 65040,
                    "time": 219.11514200000002,
                    "velocity": 1
                },
                {
                    "duration": 0.14423049999999193,
                    "durationTicks": 60,
                    "midi": 40,
                    "name": "E2",
                    "ticks": 65100,
                    "time": 219.25937250000004,
                    "velocity": 1
                },
                {
                    "duration": 0.14423049999999193,
                    "durationTicks": 60,
                    "midi": 40,
                    "name": "E2",
                    "ticks": 65160,
                    "time": 219.40360300000003,
                    "velocity": 1
                },
                {
                    "duration": 0.14423049999999193,
                    "durationTicks": 60,
                    "midi": 40,
                    "name": "E2",
                    "ticks": 65220,
                    "time": 219.54783350000002,
                    "velocity": 1
                },
                {
                    "duration": 1.1538440000000207,
                    "durationTicks": 480,
                    "midi": 62,
                    "name": "D4",
                    "ticks": 65280,
                    "time": 219.69206400000002,
                    "velocity": 1
                },
                {
                    "duration": 1.1538440000000207,
                    "durationTicks": 480,
                    "midi": 55,
                    "name": "G3",
                    "ticks": 65280,
                    "time": 219.69206400000002,
                    "velocity": 1
                },
                {
                    "duration": 0.5769219999999962,
                    "durationTicks": 240,
                    "midi": 61,
                    "name": "C#4",
                    "ticks": 65760,
                    "time": 220.84590800000004,
                    "velocity": 1
                },
                {
                    "duration": 0.5769219999999962,
                    "durationTicks": 240,
                    "midi": 54,
                    "name": "F#3",
                    "ticks": 65760,
                    "time": 220.84590800000004,
                    "velocity": 1
                },
                {
                    "duration": 0.5769219999999962,
                    "durationTicks": 240,
                    "midi": 60,
                    "name": "C4",
                    "ticks": 66000,
                    "time": 221.42283000000003,
                    "velocity": 1
                },
                {
                    "duration": 0.5769219999999962,
                    "durationTicks": 240,
                    "midi": 53,
                    "name": "F3",
                    "ticks": 66000,
                    "time": 221.42283000000003,
                    "velocity": 1
                },
                {
                    "duration": 0.14423049999999193,
                    "durationTicks": 60,
                    "midi": 40,
                    "name": "E2",
                    "ticks": 66240,
                    "time": 221.99975200000003,
                    "velocity": 1
                },
                {
                    "duration": 0.14423050000002036,
                    "durationTicks": 60,
                    "midi": 40,
                    "name": "E2",
                    "ticks": 66300,
                    "time": 222.14398250000002,
                    "velocity": 1
                },
                {
                    "duration": 0.14423049999999193,
                    "durationTicks": 60,
                    "midi": 40,
                    "name": "E2",
                    "ticks": 66360,
                    "time": 222.28821300000004,
                    "velocity": 1
                },
                {
                    "duration": 0.14423049999999193,
                    "durationTicks": 60,
                    "midi": 40,
                    "name": "E2",
                    "ticks": 66420,
                    "time": 222.43244350000003,
                    "velocity": 1
                },
                {
                    "duration": 0.14423049999999193,
                    "durationTicks": 60,
                    "midi": 40,
                    "name": "E2",
                    "ticks": 66480,
                    "time": 222.57667400000003,
                    "velocity": 1
                },
                {
                    "duration": 0.14423050000002036,
                    "durationTicks": 60,
                    "midi": 40,
                    "name": "E2",
                    "ticks": 66540,
                    "time": 222.72090450000002,
                    "velocity": 1
                },
                {
                    "duration": 0.14423049999999193,
                    "durationTicks": 60,
                    "midi": 40,
                    "name": "E2",
                    "ticks": 66600,
                    "time": 222.86513500000004,
                    "velocity": 1
                },
                {
                    "duration": 0.14423049999999193,
                    "durationTicks": 60,
                    "midi": 40,
                    "name": "E2",
                    "ticks": 66660,
                    "time": 223.00936550000003,
                    "velocity": 1
                },
                {
                    "duration": 0.14423050000002036,
                    "durationTicks": 60,
                    "midi": 40,
                    "name": "E2",
                    "ticks": 66720,
                    "time": 223.15359600000002,
                    "velocity": 1
                },
                {
                    "duration": 0.14423049999999193,
                    "durationTicks": 60,
                    "midi": 40,
                    "name": "E2",
                    "ticks": 66780,
                    "time": 223.29782650000004,
                    "velocity": 1
                },
                {
                    "duration": 0.14423049999999193,
                    "durationTicks": 60,
                    "midi": 40,
                    "name": "E2",
                    "ticks": 66840,
                    "time": 223.44205700000003,
                    "velocity": 1
                },
                {
                    "duration": 0.14423049999999193,
                    "durationTicks": 60,
                    "midi": 40,
                    "name": "E2",
                    "ticks": 66900,
                    "time": 223.58628750000003,
                    "velocity": 1
                },
                {
                    "duration": 0.14423050000002036,
                    "durationTicks": 60,
                    "midi": 40,
                    "name": "E2",
                    "ticks": 66960,
                    "time": 223.73051800000002,
                    "velocity": 1
                },
                {
                    "duration": 0.14423049999999193,
                    "durationTicks": 60,
                    "midi": 40,
                    "name": "E2",
                    "ticks": 67020,
                    "time": 223.87474850000004,
                    "velocity": 1
                },
                {
                    "duration": 0.14423049999999193,
                    "durationTicks": 60,
                    "midi": 40,
                    "name": "E2",
                    "ticks": 67080,
                    "time": 224.01897900000003,
                    "velocity": 1
                },
                {
                    "duration": 0.14423050000002036,
                    "durationTicks": 60,
                    "midi": 40,
                    "name": "E2",
                    "ticks": 67140,
                    "time": 224.16320950000002,
                    "velocity": 1
                },
                {
                    "duration": 1.1538439999999923,
                    "durationTicks": 480,
                    "midi": 62,
                    "name": "D4",
                    "ticks": 67200,
                    "time": 224.30744000000004,
                    "velocity": 1
                },
                {
                    "duration": 1.1538439999999923,
                    "durationTicks": 480,
                    "midi": 55,
                    "name": "G3",
                    "ticks": 67200,
                    "time": 224.30744000000004,
                    "velocity": 1
                },
                {
                    "duration": 0.5769219999999962,
                    "durationTicks": 240,
                    "midi": 61,
                    "name": "C#4",
                    "ticks": 67680,
                    "time": 225.46128400000003,
                    "velocity": 1
                },
                {
                    "duration": 0.5769219999999962,
                    "durationTicks": 240,
                    "midi": 54,
                    "name": "F#3",
                    "ticks": 67680,
                    "time": 225.46128400000003,
                    "velocity": 1
                },
                {
                    "duration": 0.5769219999999962,
                    "durationTicks": 240,
                    "midi": 60,
                    "name": "C4",
                    "ticks": 67920,
                    "time": 226.03820600000003,
                    "velocity": 1
                },
                {
                    "duration": 0.5769219999999962,
                    "durationTicks": 240,
                    "midi": 53,
                    "name": "F3",
                    "ticks": 67920,
                    "time": 226.03820600000003,
                    "velocity": 1
                },
                {
                    "duration": 0.14423049999999193,
                    "durationTicks": 60,
                    "midi": 40,
                    "name": "E2",
                    "ticks": 68160,
                    "time": 226.61512800000003,
                    "velocity": 1
                },
                {
                    "duration": 0.14423050000002036,
                    "durationTicks": 60,
                    "midi": 40,
                    "name": "E2",
                    "ticks": 68220,
                    "time": 226.75935850000002,
                    "velocity": 1
                },
                {
                    "duration": 0.14423049999999193,
                    "durationTicks": 60,
                    "midi": 40,
                    "name": "E2",
                    "ticks": 68280,
                    "time": 226.90358900000004,
                    "velocity": 1
                },
                {
                    "duration": 0.14423049999999193,
                    "durationTicks": 60,
                    "midi": 40,
                    "name": "E2",
                    "ticks": 68340,
                    "time": 227.04781950000003,
                    "velocity": 1
                },
                {
                    "duration": 0.14423050000002036,
                    "durationTicks": 60,
                    "midi": 40,
                    "name": "E2",
                    "ticks": 68400,
                    "time": 227.19205000000002,
                    "velocity": 1
                },
                {
                    "duration": 0.14423049999999193,
                    "durationTicks": 60,
                    "midi": 40,
                    "name": "E2",
                    "ticks": 68460,
                    "time": 227.33628050000004,
                    "velocity": 1
                },
                {
                    "duration": 0.14423049999999193,
                    "durationTicks": 60,
                    "midi": 40,
                    "name": "E2",
                    "ticks": 68520,
                    "time": 227.48051100000004,
                    "velocity": 1
                },
                {
                    "duration": 0.14423049999999193,
                    "durationTicks": 60,
                    "midi": 40,
                    "name": "E2",
                    "ticks": 68580,
                    "time": 227.62474150000003,
                    "velocity": 1
                },
                {
                    "duration": 0.14423050000002036,
                    "durationTicks": 60,
                    "midi": 40,
                    "name": "E2",
                    "ticks": 68640,
                    "time": 227.76897200000002,
                    "velocity": 1
                },
                {
                    "duration": 0.14423049999999193,
                    "durationTicks": 60,
                    "midi": 40,
                    "name": "E2",
                    "ticks": 68700,
                    "time": 227.91320250000004,
                    "velocity": 1
                },
                {
                    "duration": 0.14423049999999193,
                    "durationTicks": 60,
                    "midi": 40,
                    "name": "E2",
                    "ticks": 68760,
                    "time": 228.05743300000003,
                    "velocity": 1
                },
                {
                    "duration": 0.14423050000002036,
                    "durationTicks": 60,
                    "midi": 40,
                    "name": "E2",
                    "ticks": 68820,
                    "time": 228.20166350000002,
                    "velocity": 1
                },
                {
                    "duration": 0.14423049999999193,
                    "durationTicks": 60,
                    "midi": 40,
                    "name": "E2",
                    "ticks": 68880,
                    "time": 228.34589400000004,
                    "velocity": 1
                },
                {
                    "duration": 0.14423049999999193,
                    "durationTicks": 60,
                    "midi": 40,
                    "name": "E2",
                    "ticks": 68940,
                    "time": 228.49012450000004,
                    "velocity": 1
                },
                {
                    "duration": 0.14423049999999193,
                    "durationTicks": 60,
                    "midi": 40,
                    "name": "E2",
                    "ticks": 69000,
                    "time": 228.63435500000003,
                    "velocity": 1
                },
                {
                    "duration": 0.14423050000002036,
                    "durationTicks": 60,
                    "midi": 40,
                    "name": "E2",
                    "ticks": 69060,
                    "time": 228.77858550000002,
                    "velocity": 1
                },
                {
                    "duration": 1.1538439999999923,
                    "durationTicks": 480,
                    "midi": 62,
                    "name": "D4",
                    "ticks": 69120,
                    "time": 228.92281600000004,
                    "velocity": 1
                },
                {
                    "duration": 1.1538439999999923,
                    "durationTicks": 480,
                    "midi": 55,
                    "name": "G3",
                    "ticks": 69120,
                    "time": 228.92281600000004,
                    "velocity": 1
                },
                {
                    "duration": 0.5769219999999962,
                    "durationTicks": 240,
                    "midi": 61,
                    "name": "C#4",
                    "ticks": 69600,
                    "time": 230.07666000000003,
                    "velocity": 1
                },
                {
                    "duration": 0.5769219999999962,
                    "durationTicks": 240,
                    "midi": 54,
                    "name": "F#3",
                    "ticks": 69600,
                    "time": 230.07666000000003,
                    "velocity": 1
                },
                {
                    "duration": 0.5769219999999962,
                    "durationTicks": 240,
                    "midi": 60,
                    "name": "C4",
                    "ticks": 69840,
                    "time": 230.65358200000003,
                    "velocity": 1
                },
                {
                    "duration": 0.5769219999999962,
                    "durationTicks": 240,
                    "midi": 53,
                    "name": "F3",
                    "ticks": 69840,
                    "time": 230.65358200000003,
                    "velocity": 1
                },
                {
                    "duration": 0.14423050000002036,
                    "durationTicks": 60,
                    "midi": 50,
                    "name": "D3",
                    "ticks": 70080,
                    "time": 231.23050400000002,
                    "velocity": 1
                },
                {
                    "duration": 0.14423049999999193,
                    "durationTicks": 60,
                    "midi": 52,
                    "name": "E3",
                    "ticks": 70140,
                    "time": 231.37473450000005,
                    "velocity": 1
                },
                {
                    "duration": 0.14423049999999193,
                    "durationTicks": 60,
                    "midi": 40,
                    "name": "E2",
                    "ticks": 70200,
                    "time": 231.51896500000004,
                    "velocity": 1
                },
                {
                    "duration": 0.14423049999999193,
                    "durationTicks": 60,
                    "midi": 52,
                    "name": "E3",
                    "ticks": 70260,
                    "time": 231.66319550000003,
                    "velocity": 1
                },
                {
                    "duration": 0.14423050000002036,
                    "durationTicks": 60,
                    "midi": 40,
                    "name": "E2",
                    "ticks": 70320,
                    "time": 231.80742600000002,
                    "velocity": 1
                },
                {
                    "duration": 0.14423049999999193,
                    "durationTicks": 60,
                    "midi": 40,
                    "name": "E2",
                    "ticks": 70380,
                    "time": 231.95165650000004,
                    "velocity": 1
                },
                {
                    "duration": 0.14423049999999193,
                    "durationTicks": 60,
                    "midi": 52,
                    "name": "E3",
                    "ticks": 70440,
                    "time": 232.09588700000003,
                    "velocity": 1
                },
                {
                    "duration": 0.14423050000002036,
                    "durationTicks": 60,
                    "midi": 40,
                    "name": "E2",
                    "ticks": 70500,
                    "time": 232.24011750000003,
                    "velocity": 1
                },
                {
                    "duration": 0.14423049999999193,
                    "durationTicks": 60,
                    "midi": 50,
                    "name": "D3",
                    "ticks": 70560,
                    "time": 232.38434800000005,
                    "velocity": 1
                },
                {
                    "duration": 0.14423049999999193,
                    "durationTicks": 60,
                    "midi": 55,
                    "name": "G3",
                    "ticks": 70560,
                    "time": 232.38434800000005,
                    "velocity": 1
                },
                {
                    "duration": 0.14423049999999193,
                    "durationTicks": 60,
                    "midi": 40,
                    "name": "E2",
                    "ticks": 70620,
                    "time": 232.52857850000004,
                    "velocity": 1
                },
                {
                    "duration": 0.14423049999999193,
                    "durationTicks": 60,
                    "midi": 40,
                    "name": "E2",
                    "ticks": 70680,
                    "time": 232.67280900000003,
                    "velocity": 1
                },
                {
                    "duration": 0.14423050000002036,
                    "durationTicks": 60,
                    "midi": 52,
                    "name": "E3",
                    "ticks": 70740,
                    "time": 232.81703950000002,
                    "velocity": 1
                },
                {
                    "duration": 0.14423049999999193,
                    "durationTicks": 60,
                    "midi": 40,
                    "name": "E2",
                    "ticks": 70800,
                    "time": 232.96127000000004,
                    "velocity": 1
                },
                {
                    "duration": 0.14423049999999193,
                    "durationTicks": 60,
                    "midi": 40,
                    "name": "E2",
                    "ticks": 70860,
                    "time": 233.10550050000003,
                    "velocity": 1
                },
                {
                    "duration": 0.14423050000002036,
                    "durationTicks": 60,
                    "midi": 52,
                    "name": "E3",
                    "ticks": 70920,
                    "time": 233.24973100000003,
                    "velocity": 1
                },
                {
                    "duration": 0.14423049999999193,
                    "durationTicks": 60,
                    "midi": 40,
                    "name": "E2",
                    "ticks": 70980,
                    "time": 233.39396150000005,
                    "velocity": 1
                },
                {
                    "duration": 0.14423049999999193,
                    "durationTicks": 60,
                    "midi": 54,
                    "name": "F#3",
                    "ticks": 71040,
                    "time": 233.53819200000004,
                    "velocity": 1
                },
                {
                    "duration": 0.14423049999999193,
                    "durationTicks": 60,
                    "midi": 49,
                    "name": "C#3",
                    "ticks": 71040,
                    "time": 233.53819200000004,
                    "velocity": 1
                },
                {
                    "duration": 0.14423049999999193,
                    "durationTicks": 60,
                    "midi": 40,
                    "name": "E2",
                    "ticks": 71100,
                    "time": 233.68242250000003,
                    "velocity": 1
                },
                {
                    "duration": 0.14423050000002036,
                    "durationTicks": 60,
                    "midi": 40,
                    "name": "E2",
                    "ticks": 71160,
                    "time": 233.82665300000002,
                    "velocity": 1
                },
                {
                    "duration": 0.14423049999999193,
                    "durationTicks": 60,
                    "midi": 52,
                    "name": "E3",
                    "ticks": 71220,
                    "time": 233.97088350000004,
                    "velocity": 1
                },
                {
                    "duration": 0.14423049999999193,
                    "durationTicks": 60,
                    "midi": 40,
                    "name": "E2",
                    "ticks": 71280,
                    "time": 234.11511400000003,
                    "velocity": 1
                },
                {
                    "duration": 0.14423050000002036,
                    "durationTicks": 60,
                    "midi": 40,
                    "name": "E2",
                    "ticks": 71340,
                    "time": 234.25934450000003,
                    "velocity": 1
                },
                {
                    "duration": 0.28846099999998387,
                    "durationTicks": 120,
                    "midi": 52,
                    "name": "E3",
                    "ticks": 71400,
                    "time": 234.40357500000005,
                    "velocity": 1
                },
                {
                    "duration": 0.14423049999999193,
                    "durationTicks": 60,
                    "midi": 43,
                    "name": "G2",
                    "ticks": 71520,
                    "time": 234.69203600000003,
                    "velocity": 1
                },
                {
                    "duration": 0.14423050000002036,
                    "durationTicks": 60,
                    "midi": 42,
                    "name": "F#2",
                    "ticks": 71580,
                    "time": 234.83626650000002,
                    "velocity": 1
                },
                {
                    "duration": 0.14423049999999193,
                    "durationTicks": 60,
                    "midi": 40,
                    "name": "E2",
                    "ticks": 71640,
                    "time": 234.98049700000004,
                    "velocity": 1
                },
                {
                    "duration": 0.14423049999999193,
                    "durationTicks": 60,
                    "midi": 48,
                    "name": "C3",
                    "ticks": 71700,
                    "time": 235.12472750000003,
                    "velocity": 1
                },
                {
                    "duration": 0.14423050000002036,
                    "durationTicks": 60,
                    "midi": 47,
                    "name": "B2",
                    "ticks": 71760,
                    "time": 235.26895800000003,
                    "velocity": 1
                },
                {
                    "duration": 0.14423049999999193,
                    "durationTicks": 60,
                    "midi": 45,
                    "name": "A2",
                    "ticks": 71820,
                    "time": 235.41318850000005,
                    "velocity": 1
                },
                {
                    "duration": 0.14423049999999193,
                    "durationTicks": 60,
                    "midi": 43,
                    "name": "G2",
                    "ticks": 71880,
                    "time": 235.55741900000004,
                    "velocity": 1
                },
                {
                    "duration": 0.14423049999999193,
                    "durationTicks": 60,
                    "midi": 40,
                    "name": "E2",
                    "ticks": 71940,
                    "time": 235.70164950000003,
                    "velocity": 1
                },
                {
                    "duration": 0.14423050000002036,
                    "durationTicks": 60,
                    "midi": 50,
                    "name": "D3",
                    "ticks": 72000,
                    "time": 235.84588000000002,
                    "velocity": 1
                },
                {
                    "duration": 0.14423049999999193,
                    "durationTicks": 60,
                    "midi": 52,
                    "name": "E3",
                    "ticks": 72060,
                    "time": 235.99011050000004,
                    "velocity": 1
                },
                {
                    "duration": 0.14423049999999193,
                    "durationTicks": 60,
                    "midi": 40,
                    "name": "E2",
                    "ticks": 72120,
                    "time": 236.13434100000003,
                    "velocity": 1
                },
                {
                    "duration": 0.14423050000002036,
                    "durationTicks": 60,
                    "midi": 52,
                    "name": "E3",
                    "ticks": 72180,
                    "time": 236.27857150000003,
                    "velocity": 1
                },
                {
                    "duration": 0.14423049999999193,
                    "durationTicks": 60,
                    "midi": 40,
                    "name": "E2",
                    "ticks": 72240,
                    "time": 236.42280200000005,
                    "velocity": 1
                },
                {
                    "duration": 0.14423049999999193,
                    "durationTicks": 60,
                    "midi": 40,
                    "name": "E2",
                    "ticks": 72300,
                    "time": 236.56703250000004,
                    "velocity": 1
                },
                {
                    "duration": 0.14423049999999193,
                    "durationTicks": 60,
                    "midi": 52,
                    "name": "E3",
                    "ticks": 72360,
                    "time": 236.71126300000003,
                    "velocity": 1
                },
                {
                    "duration": 0.14423050000002036,
                    "durationTicks": 60,
                    "midi": 40,
                    "name": "E2",
                    "ticks": 72420,
                    "time": 236.85549350000002,
                    "velocity": 1
                },
                {
                    "duration": 0.14423049999999193,
                    "durationTicks": 60,
                    "midi": 50,
                    "name": "D3",
                    "ticks": 72480,
                    "time": 236.99972400000004,
                    "velocity": 1
                },
                {
                    "duration": 0.14423049999999193,
                    "durationTicks": 60,
                    "midi": 55,
                    "name": "G3",
                    "ticks": 72480,
                    "time": 236.99972400000004,
                    "velocity": 1
                },
                {
                    "duration": 0.14423049999999193,
                    "durationTicks": 60,
                    "midi": 40,
                    "name": "E2",
                    "ticks": 72540,
                    "time": 237.14395450000004,
                    "velocity": 1
                },
                {
                    "duration": 0.14423050000002036,
                    "durationTicks": 60,
                    "midi": 40,
                    "name": "E2",
                    "ticks": 72600,
                    "time": 237.28818500000003,
                    "velocity": 1
                },
                {
                    "duration": 0.14423049999999193,
                    "durationTicks": 60,
                    "midi": 52,
                    "name": "E3",
                    "ticks": 72660,
                    "time": 237.43241550000005,
                    "velocity": 1
                },
                {
                    "duration": 0.14423049999999193,
                    "durationTicks": 60,
                    "midi": 40,
                    "name": "E2",
                    "ticks": 72720,
                    "time": 237.57664600000004,
                    "velocity": 1
                },
                {
                    "duration": 0.14423049999999193,
                    "durationTicks": 60,
                    "midi": 40,
                    "name": "E2",
                    "ticks": 72780,
                    "time": 237.72087650000003,
                    "velocity": 1
                },
                {
                    "duration": 0.14423050000002036,
                    "durationTicks": 60,
                    "midi": 52,
                    "name": "E3",
                    "ticks": 72840,
                    "time": 237.86510700000002,
                    "velocity": 1
                },
                {
                    "duration": 0.14423049999999193,
                    "durationTicks": 60,
                    "midi": 40,
                    "name": "E2",
                    "ticks": 72900,
                    "time": 238.00933750000004,
                    "velocity": 1
                },
                {
                    "duration": 0.14423049999999193,
                    "durationTicks": 60,
                    "midi": 54,
                    "name": "F#3",
                    "ticks": 72960,
                    "time": 238.15356800000004,
                    "velocity": 1
                },
                {
                    "duration": 0.14423049999999193,
                    "durationTicks": 60,
                    "midi": 49,
                    "name": "C#3",
                    "ticks": 72960,
                    "time": 238.15356800000004,
                    "velocity": 1
                },
                {
                    "duration": 0.14423050000002036,
                    "durationTicks": 60,
                    "midi": 40,
                    "name": "E2",
                    "ticks": 73020,
                    "time": 238.29779850000003,
                    "velocity": 1
                },
                {
                    "duration": 0.14423049999999193,
                    "durationTicks": 60,
                    "midi": 40,
                    "name": "E2",
                    "ticks": 73080,
                    "time": 238.44202900000005,
                    "velocity": 1
                },
                {
                    "duration": 0.14423049999999193,
                    "durationTicks": 60,
                    "midi": 52,
                    "name": "E3",
                    "ticks": 73140,
                    "time": 238.58625950000004,
                    "velocity": 1
                },
                {
                    "duration": 0.14423049999999193,
                    "durationTicks": 60,
                    "midi": 40,
                    "name": "E2",
                    "ticks": 73200,
                    "time": 238.73049000000003,
                    "velocity": 1
                },
                {
                    "duration": 0.14423050000002036,
                    "durationTicks": 60,
                    "midi": 40,
                    "name": "E2",
                    "ticks": 73260,
                    "time": 238.87472050000002,
                    "velocity": 1
                },
                {
                    "duration": 0.28846099999998387,
                    "durationTicks": 120,
                    "midi": 52,
                    "name": "E3",
                    "ticks": 73320,
                    "time": 239.01895100000004,
                    "velocity": 1
                },
                {
                    "duration": 0.14423050000002036,
                    "durationTicks": 60,
                    "midi": 43,
                    "name": "G2",
                    "ticks": 73440,
                    "time": 239.30741200000003,
                    "velocity": 1
                },
                {
                    "duration": 0.14423049999999193,
                    "durationTicks": 60,
                    "midi": 42,
                    "name": "F#2",
                    "ticks": 73500,
                    "time": 239.45164250000005,
                    "velocity": 1
                },
                {
                    "duration": 0.14423049999999193,
                    "durationTicks": 60,
                    "midi": 40,
                    "name": "E2",
                    "ticks": 73560,
                    "time": 239.59587300000004,
                    "velocity": 1
                },
                {
                    "duration": 0.14423049999999193,
                    "durationTicks": 60,
                    "midi": 48,
                    "name": "C3",
                    "ticks": 73620,
                    "time": 239.74010350000003,
                    "velocity": 1
                },
                {
                    "duration": 0.14423050000002036,
                    "durationTicks": 60,
                    "midi": 47,
                    "name": "B2",
                    "ticks": 73680,
                    "time": 239.88433400000002,
                    "velocity": 1
                },
                {
                    "duration": 0.14423049999999193,
                    "durationTicks": 60,
                    "midi": 45,
                    "name": "A2",
                    "ticks": 73740,
                    "time": 240.02856450000004,
                    "velocity": 1
                },
                {
                    "duration": 0.14423049999999193,
                    "durationTicks": 60,
                    "midi": 43,
                    "name": "G2",
                    "ticks": 73800,
                    "time": 240.17279500000004,
                    "velocity": 1
                },
                {
                    "duration": 0.14423050000002036,
                    "durationTicks": 60,
                    "midi": 40,
                    "name": "E2",
                    "ticks": 73860,
                    "time": 240.31702550000003,
                    "velocity": 1
                },
                {
                    "duration": 0.14423049999999193,
                    "durationTicks": 60,
                    "midi": 50,
                    "name": "D3",
                    "ticks": 73920,
                    "time": 240.46125600000005,
                    "velocity": 1
                },
                {
                    "duration": 0.14423049999999193,
                    "durationTicks": 60,
                    "midi": 52,
                    "name": "E3",
                    "ticks": 73980,
                    "time": 240.60548650000004,
                    "velocity": 1
                },
                {
                    "duration": 0.14423049999999193,
                    "durationTicks": 60,
                    "midi": 40,
                    "name": "E2",
                    "ticks": 74040,
                    "time": 240.74971700000003,
                    "velocity": 1
                },
                {
                    "duration": 0.14423049999999193,
                    "durationTicks": 60,
                    "midi": 52,
                    "name": "E3",
                    "ticks": 74100,
                    "time": 240.89394750000002,
                    "velocity": 1
                },
                {
                    "duration": 0.14423050000002036,
                    "durationTicks": 60,
                    "midi": 40,
                    "name": "E2",
                    "ticks": 74160,
                    "time": 241.03817800000002,
                    "velocity": 1
                },
                {
                    "duration": 0.14423049999999193,
                    "durationTicks": 60,
                    "midi": 40,
                    "name": "E2",
                    "ticks": 74220,
                    "time": 241.18240850000004,
                    "velocity": 1
                },
                {
                    "duration": 0.14423050000002036,
                    "durationTicks": 60,
                    "midi": 52,
                    "name": "E3",
                    "ticks": 74280,
                    "time": 241.32663900000003,
                    "velocity": 1
                },
                {
                    "duration": 0.14423049999999193,
                    "durationTicks": 60,
                    "midi": 40,
                    "name": "E2",
                    "ticks": 74340,
                    "time": 241.47086950000005,
                    "velocity": 1
                },
                {
                    "duration": 0.14423049999999193,
                    "durationTicks": 60,
                    "midi": 50,
                    "name": "D3",
                    "ticks": 74400,
                    "time": 241.61510000000004,
                    "velocity": 1
                },
                {
                    "duration": 0.14423049999999193,
                    "durationTicks": 60,
                    "midi": 55,
                    "name": "G3",
                    "ticks": 74400,
                    "time": 241.61510000000004,
                    "velocity": 1
                },
                {
                    "duration": 0.14423049999999193,
                    "durationTicks": 60,
                    "midi": 40,
                    "name": "E2",
                    "ticks": 74460,
                    "time": 241.75933050000003,
                    "velocity": 1
                },
                {
                    "duration": 0.14423049999999193,
                    "durationTicks": 60,
                    "midi": 40,
                    "name": "E2",
                    "ticks": 74520,
                    "time": 241.90356100000002,
                    "velocity": 1
                },
                {
                    "duration": 0.14423050000002036,
                    "durationTicks": 60,
                    "midi": 52,
                    "name": "E3",
                    "ticks": 74580,
                    "time": 242.04779150000002,
                    "velocity": 1
                },
                {
                    "duration": 0.14423049999999193,
                    "durationTicks": 60,
                    "midi": 40,
                    "name": "E2",
                    "ticks": 74640,
                    "time": 242.19202200000004,
                    "velocity": 1
                },
                {
                    "duration": 0.14423050000002036,
                    "durationTicks": 60,
                    "midi": 40,
                    "name": "E2",
                    "ticks": 74700,
                    "time": 242.33625250000003,
                    "velocity": 1
                },
                {
                    "duration": 0.14423049999999193,
                    "durationTicks": 60,
                    "midi": 52,
                    "name": "E3",
                    "ticks": 74760,
                    "time": 242.48048300000005,
                    "velocity": 1
                },
                {
                    "duration": 0.14423049999999193,
                    "durationTicks": 60,
                    "midi": 40,
                    "name": "E2",
                    "ticks": 74820,
                    "time": 242.62471350000004,
                    "velocity": 1
                },
                {
                    "duration": 0.14423049999999193,
                    "durationTicks": 60,
                    "midi": 54,
                    "name": "F#3",
                    "ticks": 74880,
                    "time": 242.76894400000003,
                    "velocity": 1
                },
                {
                    "duration": 0.14423049999999193,
                    "durationTicks": 60,
                    "midi": 49,
                    "name": "C#3",
                    "ticks": 74880,
                    "time": 242.76894400000003,
                    "velocity": 1
                },
                {
                    "duration": 0.14423049999999193,
                    "durationTicks": 60,
                    "midi": 40,
                    "name": "E2",
                    "ticks": 74940,
                    "time": 242.91317450000003,
                    "velocity": 1
                },
                {
                    "duration": 0.14423050000002036,
                    "durationTicks": 60,
                    "midi": 40,
                    "name": "E2",
                    "ticks": 75000,
                    "time": 243.05740500000002,
                    "velocity": 1
                },
                {
                    "duration": 0.14423049999999193,
                    "durationTicks": 60,
                    "midi": 52,
                    "name": "E3",
                    "ticks": 75060,
                    "time": 243.20163550000004,
                    "velocity": 1
                },
                {
                    "duration": 0.14423050000002036,
                    "durationTicks": 60,
                    "midi": 40,
                    "name": "E2",
                    "ticks": 75120,
                    "time": 243.34586600000003,
                    "velocity": 1
                },
                {
                    "duration": 0.14423049999999193,
                    "durationTicks": 60,
                    "midi": 40,
                    "name": "E2",
                    "ticks": 75180,
                    "time": 243.49009650000005,
                    "velocity": 1
                },
                {
                    "duration": 0.28846099999998387,
                    "durationTicks": 120,
                    "midi": 52,
                    "name": "E3",
                    "ticks": 75240,
                    "time": 243.63432700000004,
                    "velocity": 1
                },
                {
                    "duration": 0.14423049999999193,
                    "durationTicks": 60,
                    "midi": 43,
                    "name": "G2",
                    "ticks": 75360,
                    "time": 243.92278800000003,
                    "velocity": 1
                },
                {
                    "duration": 0.14423050000002036,
                    "durationTicks": 60,
                    "midi": 42,
                    "name": "F#2",
                    "ticks": 75420,
                    "time": 244.06701850000002,
                    "velocity": 1
                },
                {
                    "duration": 0.14423049999999193,
                    "durationTicks": 60,
                    "midi": 40,
                    "name": "E2",
                    "ticks": 75480,
                    "time": 244.21124900000004,
                    "velocity": 1
                },
                {
                    "duration": 0.14423050000002036,
                    "durationTicks": 60,
                    "midi": 48,
                    "name": "C3",
                    "ticks": 75540,
                    "time": 244.35547950000003,
                    "velocity": 1
                },
                {
                    "duration": 0.14423049999999193,
                    "durationTicks": 60,
                    "midi": 47,
                    "name": "B2",
                    "ticks": 75600,
                    "time": 244.49971000000005,
                    "velocity": 1
                },
                {
                    "duration": 0.14423049999999193,
                    "durationTicks": 60,
                    "midi": 45,
                    "name": "A2",
                    "ticks": 75660,
                    "time": 244.64394050000004,
                    "velocity": 1
                },
                {
                    "duration": 0.14423049999999193,
                    "durationTicks": 60,
                    "midi": 43,
                    "name": "G2",
                    "ticks": 75720,
                    "time": 244.78817100000003,
                    "velocity": 1
                },
                {
                    "duration": 0.14423049999999193,
                    "durationTicks": 60,
                    "midi": 40,
                    "name": "E2",
                    "ticks": 75780,
                    "time": 244.93240150000003,
                    "velocity": 1
                },
                {
                    "duration": 0.14423050000002036,
                    "durationTicks": 60,
                    "midi": 50,
                    "name": "D3",
                    "ticks": 75840,
                    "time": 245.07663200000002,
                    "velocity": 1
                },
                {
                    "duration": 0.14423049999999193,
                    "durationTicks": 60,
                    "midi": 52,
                    "name": "E3",
                    "ticks": 75900,
                    "time": 245.22086250000004,
                    "velocity": 1
                },
                {
                    "duration": 0.14423050000002036,
                    "durationTicks": 60,
                    "midi": 40,
                    "name": "E2",
                    "ticks": 75960,
                    "time": 245.36509300000003,
                    "velocity": 1
                },
                {
                    "duration": 0.14423049999999193,
                    "durationTicks": 60,
                    "midi": 52,
                    "name": "E3",
                    "ticks": 76020,
                    "time": 245.50932350000005,
                    "velocity": 1
                },
                {
                    "duration": 0.14423049999999193,
                    "durationTicks": 60,
                    "midi": 40,
                    "name": "E2",
                    "ticks": 76080,
                    "time": 245.65355400000004,
                    "velocity": 1
                },
                {
                    "duration": 0.14423049999999193,
                    "durationTicks": 60,
                    "midi": 40,
                    "name": "E2",
                    "ticks": 76140,
                    "time": 245.79778450000003,
                    "velocity": 1
                },
                {
                    "duration": 0.14423049999999193,
                    "durationTicks": 60,
                    "midi": 52,
                    "name": "E3",
                    "ticks": 76200,
                    "time": 245.94201500000003,
                    "velocity": 1
                },
                {
                    "duration": 0.14423050000002036,
                    "durationTicks": 60,
                    "midi": 40,
                    "name": "E2",
                    "ticks": 76260,
                    "time": 246.08624550000002,
                    "velocity": 1
                },
                {
                    "duration": 0.14423049999999193,
                    "durationTicks": 60,
                    "midi": 50,
                    "name": "D3",
                    "ticks": 76320,
                    "time": 246.23047600000004,
                    "velocity": 1
                },
                {
                    "duration": 0.14423049999999193,
                    "durationTicks": 60,
                    "midi": 55,
                    "name": "G3",
                    "ticks": 76320,
                    "time": 246.23047600000004,
                    "velocity": 1
                },
                {
                    "duration": 0.14423050000002036,
                    "durationTicks": 60,
                    "midi": 40,
                    "name": "E2",
                    "ticks": 76380,
                    "time": 246.37470650000003,
                    "velocity": 1
                },
                {
                    "duration": 0.14423049999999193,
                    "durationTicks": 60,
                    "midi": 40,
                    "name": "E2",
                    "ticks": 76440,
                    "time": 246.51893700000005,
                    "velocity": 1
                },
                {
                    "duration": 0.14423049999999193,
                    "durationTicks": 60,
                    "midi": 52,
                    "name": "E3",
                    "ticks": 76500,
                    "time": 246.66316750000004,
                    "velocity": 1
                },
                {
                    "duration": 0.14423049999999193,
                    "durationTicks": 60,
                    "midi": 40,
                    "name": "E2",
                    "ticks": 76560,
                    "time": 246.80739800000003,
                    "velocity": 1
                },
                {
                    "duration": 0.14423049999999193,
                    "durationTicks": 60,
                    "midi": 40,
                    "name": "E2",
                    "ticks": 76620,
                    "time": 246.95162850000003,
                    "velocity": 1
                },
                {
                    "duration": 0.14423050000002036,
                    "durationTicks": 60,
                    "midi": 52,
                    "name": "E3",
                    "ticks": 76680,
                    "time": 247.09585900000002,
                    "velocity": 1
                },
                {
                    "duration": 0.14423049999999193,
                    "durationTicks": 60,
                    "midi": 40,
                    "name": "E2",
                    "ticks": 76740,
                    "time": 247.24008950000004,
                    "velocity": 1
                },
                {
                    "duration": 0.14423050000002036,
                    "durationTicks": 60,
                    "midi": 54,
                    "name": "F#3",
                    "ticks": 76800,
                    "time": 247.38432000000003,
                    "velocity": 1
                },
                {
                    "duration": 0.14423050000002036,
                    "durationTicks": 60,
                    "midi": 49,
                    "name": "C#3",
                    "ticks": 76800,
                    "time": 247.38432000000003,
                    "velocity": 1
                },
                {
                    "duration": 0.14423049999999193,
                    "durationTicks": 60,
                    "midi": 40,
                    "name": "E2",
                    "ticks": 76860,
                    "time": 247.52855050000005,
                    "velocity": 1
                },
                {
                    "duration": 0.14423049999999193,
                    "durationTicks": 60,
                    "midi": 40,
                    "name": "E2",
                    "ticks": 76920,
                    "time": 247.67278100000004,
                    "velocity": 1
                },
                {
                    "duration": 0.14423049999999193,
                    "durationTicks": 60,
                    "midi": 52,
                    "name": "E3",
                    "ticks": 76980,
                    "time": 247.81701150000004,
                    "velocity": 1
                },
                {
                    "duration": 0.14423049999999193,
                    "durationTicks": 60,
                    "midi": 40,
                    "name": "E2",
                    "ticks": 77040,
                    "time": 247.96124200000003,
                    "velocity": 1
                },
                {
                    "duration": 0.14423050000002036,
                    "durationTicks": 60,
                    "midi": 40,
                    "name": "E2",
                    "ticks": 77100,
                    "time": 248.10547250000002,
                    "velocity": 1
                },
                {
                    "duration": 0.2884610000000123,
                    "durationTicks": 120,
                    "midi": 52,
                    "name": "E3",
                    "ticks": 77160,
                    "time": 248.24970300000004,
                    "velocity": 1
                },
                {
                    "duration": 0.14423049999999193,
                    "durationTicks": 60,
                    "midi": 43,
                    "name": "G2",
                    "ticks": 77280,
                    "time": 248.53816400000005,
                    "velocity": 1
                },
                {
                    "duration": 0.14423049999999193,
                    "durationTicks": 60,
                    "midi": 42,
                    "name": "F#2",
                    "ticks": 77340,
                    "time": 248.68239450000004,
                    "velocity": 1
                },
                {
                    "duration": 0.14423049999999193,
                    "durationTicks": 60,
                    "midi": 40,
                    "name": "E2",
                    "ticks": 77400,
                    "time": 248.82662500000004,
                    "velocity": 1
                },
                {
                    "duration": 0.14423049999999193,
                    "durationTicks": 60,
                    "midi": 48,
                    "name": "C3",
                    "ticks": 77460,
                    "time": 248.97085550000003,
                    "velocity": 1
                },
                {
                    "duration": 0.14423050000002036,
                    "durationTicks": 60,
                    "midi": 47,
                    "name": "B2",
                    "ticks": 77520,
                    "time": 249.11508600000002,
                    "velocity": 1
                },
                {
                    "duration": 0.14423049999999193,
                    "durationTicks": 60,
                    "midi": 45,
                    "name": "A2",
                    "ticks": 77580,
                    "time": 249.25931650000004,
                    "velocity": 1
                },
                {
                    "duration": 0.14423050000002036,
                    "durationTicks": 60,
                    "midi": 43,
                    "name": "G2",
                    "ticks": 77640,
                    "time": 249.40354700000003,
                    "velocity": 1
                },
                {
                    "duration": 0.14423049999999193,
                    "durationTicks": 60,
                    "midi": 42,
                    "name": "F#2",
                    "ticks": 77700,
                    "time": 249.54777750000005,
                    "velocity": 1
                },
                {
                    "duration": 0.14423049999999193,
                    "durationTicks": 60,
                    "midi": 43,
                    "name": "G2",
                    "ticks": 77760,
                    "time": 249.69200800000004,
                    "velocity": 1
                },
                {
                    "duration": 0.14423049999999193,
                    "durationTicks": 60,
                    "midi": 42,
                    "name": "F#2",
                    "ticks": 77820,
                    "time": 249.83623850000004,
                    "velocity": 1
                },
                {
                    "duration": 0.14423049999999193,
                    "durationTicks": 60,
                    "midi": 40,
                    "name": "E2",
                    "ticks": 77880,
                    "time": 249.98046900000003,
                    "velocity": 1
                },
                {
                    "duration": 0.14423050000002036,
                    "durationTicks": 60,
                    "midi": 48,
                    "name": "C3",
                    "ticks": 77940,
                    "time": 250.12469950000002,
                    "velocity": 1
                },
                {
                    "duration": 0.14423049999999193,
                    "durationTicks": 60,
                    "midi": 47,
                    "name": "B2",
                    "ticks": 78000,
                    "time": 250.26893000000004,
                    "velocity": 1
                },
                {
                    "duration": 0.14423050000002036,
                    "durationTicks": 60,
                    "midi": 45,
                    "name": "A2",
                    "ticks": 78060,
                    "time": 250.41316050000003,
                    "velocity": 1
                },
                {
                    "duration": 0.14423049999999193,
                    "durationTicks": 60,
                    "midi": 43,
                    "name": "G2",
                    "ticks": 78120,
                    "time": 250.55739100000005,
                    "velocity": 1
                },
                {
                    "duration": 0.14423049999999193,
                    "durationTicks": 60,
                    "midi": 42,
                    "name": "F#2",
                    "ticks": 78180,
                    "time": 250.70162150000004,
                    "velocity": 1
                },
                {
                    "duration": 1.1538439999999923,
                    "durationTicks": 480,
                    "midi": 45,
                    "name": "A2",
                    "ticks": 78240,
                    "time": 250.84585200000004,
                    "velocity": 1
                },
                {
                    "duration": 1.1538439999999923,
                    "durationTicks": 480,
                    "midi": 52,
                    "name": "E3",
                    "ticks": 78240,
                    "time": 250.84585200000004,
                    "velocity": 1
                },
                {
                    "duration": 1.1538439999999923,
                    "durationTicks": 480,
                    "midi": 57,
                    "name": "A3",
                    "ticks": 78240,
                    "time": 250.84585200000004,
                    "velocity": 1
                },
                {
                    "duration": 0.21428549999998836,
                    "durationTicks": 60,
                    "midi": 45,
                    "name": "A2",
                    "ticks": 78720,
                    "time": 251.99969600000003,
                    "velocity": 1
                },
                {
                    "duration": 0.21428550000001678,
                    "durationTicks": 60,
                    "midi": 45,
                    "name": "A2",
                    "ticks": 78780,
                    "time": 252.21398150000002,
                    "velocity": 1
                },
                {
                    "duration": 0.10714275000000839,
                    "durationTicks": 30,
                    "midi": 62,
                    "name": "D4",
                    "ticks": 78840,
                    "time": 252.42826700000003,
                    "velocity": 1
                },
                {
                    "duration": 0.10714274999997997,
                    "durationTicks": 30,
                    "midi": 63,
                    "name": "D#4",
                    "ticks": 78870,
                    "time": 252.53540975000004,
                    "velocity": 1
                },
                {
                    "duration": 0.42857100000000514,
                    "durationTicks": 120,
                    "midi": 62,
                    "name": "D4",
                    "ticks": 78900,
                    "time": 252.64255250000002,
                    "velocity": 1
                },
                {
                    "duration": 0.21428549999998836,
                    "durationTicks": 60,
                    "midi": 45,
                    "name": "A2",
                    "ticks": 79020,
                    "time": 253.07112350000003,
                    "velocity": 1
                },
                {
                    "duration": 0.10714275000000839,
                    "durationTicks": 30,
                    "midi": 57,
                    "name": "A3",
                    "ticks": 79080,
                    "time": 253.28540900000002,
                    "velocity": 1
                },
                {
                    "duration": 0.10714275000000839,
                    "durationTicks": 30,
                    "midi": 58,
                    "name": "A#3",
                    "ticks": 79110,
                    "time": 253.39255175000002,
                    "velocity": 1
                },
                {
                    "duration": 0.42857100000000514,
                    "durationTicks": 120,
                    "midi": 57,
                    "name": "A3",
                    "ticks": 79140,
                    "time": 253.49969450000003,
                    "velocity": 1
                },
                {
                    "duration": 0.21428549999998836,
                    "durationTicks": 60,
                    "midi": 45,
                    "name": "A2",
                    "ticks": 79260,
                    "time": 253.92826550000004,
                    "velocity": 1
                },
                {
                    "duration": 0.21428550000001678,
                    "durationTicks": 60,
                    "midi": 53,
                    "name": "F3",
                    "ticks": 79320,
                    "time": 254.14255100000003,
                    "velocity": 1
                },
                {
                    "duration": 0.21428549999998836,
                    "durationTicks": 60,
                    "midi": 52,
                    "name": "E3",
                    "ticks": 79380,
                    "time": 254.35683650000004,
                    "velocity": 1
                },
                {
                    "duration": 0.21428549999998836,
                    "durationTicks": 60,
                    "midi": 55,
                    "name": "G3",
                    "ticks": 79440,
                    "time": 254.57112200000003,
                    "velocity": 1
                },
                {
                    "duration": 0.21428550000001678,
                    "durationTicks": 60,
                    "midi": 52,
                    "name": "E3",
                    "ticks": 79500,
                    "time": 254.78540750000002,
                    "velocity": 1
                },
                {
                    "duration": 0.21428549999998836,
                    "durationTicks": 60,
                    "midi": 60,
                    "name": "C4",
                    "ticks": 79560,
                    "time": 254.99969300000004,
                    "velocity": 1
                },
                {
                    "duration": 0.21428550000001678,
                    "durationTicks": 60,
                    "midi": 57,
                    "name": "A3",
                    "ticks": 79620,
                    "time": 255.21397850000002,
                    "velocity": 1
                },
                {
                    "duration": 0.21428549999998836,
                    "durationTicks": 60,
                    "midi": 45,
                    "name": "A2",
                    "ticks": 79680,
                    "time": 255.42826400000004,
                    "velocity": 1
                },
                {
                    "duration": 0.21428549999998836,
                    "durationTicks": 60,
                    "midi": 45,
                    "name": "A2",
                    "ticks": 79740,
                    "time": 255.64254950000003,
                    "velocity": 1
                },
                {
                    "duration": 0.10714275000000839,
                    "durationTicks": 30,
                    "midi": 62,
                    "name": "D4",
                    "ticks": 79800,
                    "time": 255.85683500000002,
                    "velocity": 1
                },
                {
                    "duration": 0.10714274999997997,
                    "durationTicks": 30,
                    "midi": 63,
                    "name": "D#4",
                    "ticks": 79830,
                    "time": 255.96397775000003,
                    "velocity": 1
                },
                {
                    "duration": 0.42857100000003356,
                    "durationTicks": 120,
                    "midi": 62,
                    "name": "D4",
                    "ticks": 79860,
                    "time": 256.0711205,
                    "velocity": 1
                },
                {
                    "duration": 0.21428550000001678,
                    "durationTicks": 60,
                    "midi": 45,
                    "name": "A2",
                    "ticks": 79980,
                    "time": 256.49969150000004,
                    "velocity": 1
                },
                {
                    "duration": 0.10714274999997997,
                    "durationTicks": 30,
                    "midi": 57,
                    "name": "A3",
                    "ticks": 80040,
                    "time": 256.71397700000006,
                    "velocity": 1
                },
                {
                    "duration": 0.10714274999997997,
                    "durationTicks": 30,
                    "midi": 58,
                    "name": "A#3",
                    "ticks": 80070,
                    "time": 256.82111975000004,
                    "velocity": 1
                },
                {
                    "duration": 0.42857100000003356,
                    "durationTicks": 120,
                    "midi": 57,
                    "name": "A3",
                    "ticks": 80100,
                    "time": 256.9282625,
                    "velocity": 1
                },
                {
                    "duration": 0.21428549999995994,
                    "durationTicks": 60,
                    "midi": 45,
                    "name": "A2",
                    "ticks": 80220,
                    "time": 257.35683350000005,
                    "velocity": 1
                },
                {
                    "duration": 0.21428550000001678,
                    "durationTicks": 60,
                    "midi": 53,
                    "name": "F3",
                    "ticks": 80280,
                    "time": 257.571119,
                    "velocity": 1
                },
                {
                    "duration": 0.21428550000001678,
                    "durationTicks": 60,
                    "midi": 52,
                    "name": "E3",
                    "ticks": 80340,
                    "time": 257.7854045,
                    "velocity": 1
                },
                {
                    "duration": 0.21428549999995994,
                    "durationTicks": 60,
                    "midi": 55,
                    "name": "G3",
                    "ticks": 80400,
                    "time": 257.99969000000004,
                    "velocity": 1
                },
                {
                    "duration": 0.21428550000001678,
                    "durationTicks": 60,
                    "midi": 52,
                    "name": "E3",
                    "ticks": 80460,
                    "time": 258.2139755,
                    "velocity": 1
                },
                {
                    "duration": 0.21428550000001678,
                    "durationTicks": 60,
                    "midi": 60,
                    "name": "C4",
                    "ticks": 80520,
                    "time": 258.428261,
                    "velocity": 1
                },
                {
                    "duration": 0.21428550000001678,
                    "durationTicks": 60,
                    "midi": 57,
                    "name": "A3",
                    "ticks": 80580,
                    "time": 258.64254650000004,
                    "velocity": 1
                },
                {
                    "duration": 0.21428549999995994,
                    "durationTicks": 60,
                    "midi": 45,
                    "name": "A2",
                    "ticks": 80640,
                    "time": 258.85683200000005,
                    "velocity": 1
                },
                {
                    "duration": 0.21428550000001678,
                    "durationTicks": 60,
                    "midi": 45,
                    "name": "A2",
                    "ticks": 80700,
                    "time": 259.0711175,
                    "velocity": 1
                },
                {
                    "duration": 0.10714274999997997,
                    "durationTicks": 30,
                    "midi": 62,
                    "name": "D4",
                    "ticks": 80760,
                    "time": 259.28540300000003,
                    "velocity": 1
                },
                {
                    "duration": 0.10714275000003681,
                    "durationTicks": 30,
                    "midi": 63,
                    "name": "D#4",
                    "ticks": 80790,
                    "time": 259.39254575,
                    "velocity": 1
                },
                {
                    "duration": 0.4285709999999767,
                    "durationTicks": 120,
                    "midi": 62,
                    "name": "D4",
                    "ticks": 80820,
                    "time": 259.49968850000005,
                    "velocity": 1
                },
                {
                    "duration": 0.21428550000001678,
                    "durationTicks": 60,
                    "midi": 45,
                    "name": "A2",
                    "ticks": 80940,
                    "time": 259.9282595,
                    "velocity": 1
                },
                {
                    "duration": 0.10714274999997997,
                    "durationTicks": 30,
                    "midi": 57,
                    "name": "A3",
                    "ticks": 81000,
                    "time": 260.14254500000004,
                    "velocity": 1
                },
                {
                    "duration": 0.10714274999997997,
                    "durationTicks": 30,
                    "midi": 58,
                    "name": "A#3",
                    "ticks": 81030,
                    "time": 260.24968775,
                    "velocity": 1
                },
                {
                    "duration": 0.42857100000003356,
                    "durationTicks": 120,
                    "midi": 57,
                    "name": "A3",
                    "ticks": 81060,
                    "time": 260.3568305,
                    "velocity": 1
                },
                {
                    "duration": 0.21428550000001678,
                    "durationTicks": 60,
                    "midi": 45,
                    "name": "A2",
                    "ticks": 81180,
                    "time": 260.78540150000003,
                    "velocity": 1
                },
                {
                    "duration": 0.21428549999995994,
                    "durationTicks": 60,
                    "midi": 53,
                    "name": "F3",
                    "ticks": 81240,
                    "time": 260.99968700000005,
                    "velocity": 1
                },
                {
                    "duration": 0.21428550000001678,
                    "durationTicks": 60,
                    "midi": 52,
                    "name": "E3",
                    "ticks": 81300,
                    "time": 261.2139725,
                    "velocity": 1
                },
                {
                    "duration": 0.21428550000001678,
                    "durationTicks": 60,
                    "midi": 55,
                    "name": "G3",
                    "ticks": 81360,
                    "time": 261.428258,
                    "velocity": 1
                },
                {
                    "duration": 0.21428549999995994,
                    "durationTicks": 60,
                    "midi": 52,
                    "name": "E3",
                    "ticks": 81420,
                    "time": 261.64254350000004,
                    "velocity": 1
                },
                {
                    "duration": 0.21428550000001678,
                    "durationTicks": 60,
                    "midi": 60,
                    "name": "C4",
                    "ticks": 81480,
                    "time": 261.856829,
                    "velocity": 1
                },
                {
                    "duration": 0.21428550000001678,
                    "durationTicks": 60,
                    "midi": 57,
                    "name": "A3",
                    "ticks": 81540,
                    "time": 262.0711145,
                    "velocity": 1
                },
                {
                    "duration": 0.21428550000001678,
                    "durationTicks": 60,
                    "midi": 45,
                    "name": "A2",
                    "ticks": 81600,
                    "time": 262.28540000000004,
                    "velocity": 1
                },
                {
                    "duration": 0.21428549999995994,
                    "durationTicks": 60,
                    "midi": 45,
                    "name": "A2",
                    "ticks": 81660,
                    "time": 262.49968550000006,
                    "velocity": 1
                },
                {
                    "duration": 0.10714275000003681,
                    "durationTicks": 30,
                    "midi": 62,
                    "name": "D4",
                    "ticks": 81720,
                    "time": 262.713971,
                    "velocity": 1
                },
                {
                    "duration": 0.10714274999997997,
                    "durationTicks": 30,
                    "midi": 63,
                    "name": "D#4",
                    "ticks": 81750,
                    "time": 262.82111375000005,
                    "velocity": 1
                },
                {
                    "duration": 0.4285709999999767,
                    "durationTicks": 120,
                    "midi": 62,
                    "name": "D4",
                    "ticks": 81780,
                    "time": 262.92825650000003,
                    "velocity": 1
                },
                {
                    "duration": 0.21428550000001678,
                    "durationTicks": 60,
                    "midi": 45,
                    "name": "A2",
                    "ticks": 81900,
                    "time": 263.3568275,
                    "velocity": 1
                },
                {
                    "duration": 0.10714274999997997,
                    "durationTicks": 30,
                    "midi": 57,
                    "name": "A3",
                    "ticks": 81960,
                    "time": 263.571113,
                    "velocity": 1
                },
                {
                    "duration": 0.10714275000003681,
                    "durationTicks": 30,
                    "midi": 58,
                    "name": "A#3",
                    "ticks": 81990,
                    "time": 263.67825575,
                    "velocity": 1
                },
                {
                    "duration": 0.4285709999999767,
                    "durationTicks": 120,
                    "midi": 57,
                    "name": "A3",
                    "ticks": 82020,
                    "time": 263.78539850000004,
                    "velocity": 1
                },
                {
                    "duration": 0.21428550000001678,
                    "durationTicks": 60,
                    "midi": 45,
                    "name": "A2",
                    "ticks": 82140,
                    "time": 264.2139695,
                    "velocity": 1
                },
                {
                    "duration": 0.21428550000001678,
                    "durationTicks": 60,
                    "midi": 53,
                    "name": "F3",
                    "ticks": 82200,
                    "time": 264.42825500000004,
                    "velocity": 1
                },
                {
                    "duration": 0.21428549999995994,
                    "durationTicks": 60,
                    "midi": 52,
                    "name": "E3",
                    "ticks": 82260,
                    "time": 264.64254050000005,
                    "velocity": 1
                },
                {
                    "duration": 0.21428550000001678,
                    "durationTicks": 60,
                    "midi": 55,
                    "name": "G3",
                    "ticks": 82320,
                    "time": 264.856826,
                    "velocity": 1
                },
                {
                    "duration": 0.21428550000001678,
                    "durationTicks": 60,
                    "midi": 52,
                    "name": "E3",
                    "ticks": 82380,
                    "time": 265.07111150000003,
                    "velocity": 1
                },
                {
                    "duration": 0.21428549999995994,
                    "durationTicks": 60,
                    "midi": 60,
                    "name": "C4",
                    "ticks": 82440,
                    "time": 265.28539700000005,
                    "velocity": 1
                },
                {
                    "duration": 0.21428550000001678,
                    "durationTicks": 60,
                    "midi": 57,
                    "name": "A3",
                    "ticks": 82500,
                    "time": 265.4996825,
                    "velocity": 1
                },
                {
                    "duration": 0.21428550000001678,
                    "durationTicks": 60,
                    "midi": 45,
                    "name": "A2",
                    "ticks": 82560,
                    "time": 265.713968,
                    "velocity": 1
                },
                {
                    "duration": 0.21428550000001678,
                    "durationTicks": 60,
                    "midi": 45,
                    "name": "A2",
                    "ticks": 82620,
                    "time": 265.92825350000004,
                    "velocity": 1
                },
                {
                    "duration": 0.10714274999997997,
                    "durationTicks": 30,
                    "midi": 62,
                    "name": "D4",
                    "ticks": 82680,
                    "time": 266.14253900000006,
                    "velocity": 1
                },
                {
                    "duration": 0.10714274999997997,
                    "durationTicks": 30,
                    "midi": 63,
                    "name": "D#4",
                    "ticks": 82710,
                    "time": 266.24968175000004,
                    "velocity": 1
                },
                {
                    "duration": 0.42857100000003356,
                    "durationTicks": 120,
                    "midi": 62,
                    "name": "D4",
                    "ticks": 82740,
                    "time": 266.3568245,
                    "velocity": 1
                },
                {
                    "duration": 0.21428549999995994,
                    "durationTicks": 60,
                    "midi": 45,
                    "name": "A2",
                    "ticks": 82860,
                    "time": 266.78539550000005,
                    "velocity": 1
                },
                {
                    "duration": 0.10714275000003681,
                    "durationTicks": 30,
                    "midi": 57,
                    "name": "A3",
                    "ticks": 82920,
                    "time": 266.999681,
                    "velocity": 1
                },
                {
                    "duration": 0.10714274999997997,
                    "durationTicks": 30,
                    "midi": 58,
                    "name": "A#3",
                    "ticks": 82950,
                    "time": 267.10682375000005,
                    "velocity": 1
                },
                {
                    "duration": 0.4285709999999767,
                    "durationTicks": 120,
                    "midi": 57,
                    "name": "A3",
                    "ticks": 82980,
                    "time": 267.2139665,
                    "velocity": 1
                },
                {
                    "duration": 0.21428550000001678,
                    "durationTicks": 60,
                    "midi": 45,
                    "name": "A2",
                    "ticks": 83100,
                    "time": 267.6425375,
                    "velocity": 1
                },
                {
                    "duration": 0.21428550000001678,
                    "durationTicks": 60,
                    "midi": 53,
                    "name": "F3",
                    "ticks": 83160,
                    "time": 267.856823,
                    "velocity": 1
                },
                {
                    "duration": 0.21428550000001678,
                    "durationTicks": 60,
                    "midi": 52,
                    "name": "E3",
                    "ticks": 83220,
                    "time": 268.07110850000004,
                    "velocity": 1
                },
                {
                    "duration": 0.21428549999995994,
                    "durationTicks": 60,
                    "midi": 55,
                    "name": "G3",
                    "ticks": 83280,
                    "time": 268.28539400000005,
                    "velocity": 1
                },
                {
                    "duration": 0.21428550000001678,
                    "durationTicks": 60,
                    "midi": 52,
                    "name": "E3",
                    "ticks": 83340,
                    "time": 268.4996795,
                    "velocity": 1
                },
                {
                    "duration": 0.21428550000001678,
                    "durationTicks": 60,
                    "midi": 60,
                    "name": "C4",
                    "ticks": 83400,
                    "time": 268.71396500000003,
                    "velocity": 1
                },
                {
                    "duration": 0.21428549999995994,
                    "durationTicks": 60,
                    "midi": 57,
                    "name": "A3",
                    "ticks": 83460,
                    "time": 268.92825050000005,
                    "velocity": 1
                },
                {
                    "duration": 0.21428550000001678,
                    "durationTicks": 60,
                    "midi": 45,
                    "name": "A2",
                    "ticks": 83520,
                    "time": 269.142536,
                    "velocity": 1
                },
                {
                    "duration": 0.21428550000001678,
                    "durationTicks": 60,
                    "midi": 45,
                    "name": "A2",
                    "ticks": 83580,
                    "time": 269.3568215,
                    "velocity": 1
                },
                {
                    "duration": 0.10714274999997997,
                    "durationTicks": 30,
                    "midi": 62,
                    "name": "D4",
                    "ticks": 83640,
                    "time": 269.57110700000004,
                    "velocity": 1
                },
                {
                    "duration": 0.10714275000003681,
                    "durationTicks": 30,
                    "midi": 63,
                    "name": "D#4",
                    "ticks": 83670,
                    "time": 269.67824975,
                    "velocity": 1
                },
                {
                    "duration": 0.4285709999999767,
                    "durationTicks": 120,
                    "midi": 62,
                    "name": "D4",
                    "ticks": 83700,
                    "time": 269.78539250000006,
                    "velocity": 1
                },
                {
                    "duration": 0.21428550000001678,
                    "durationTicks": 60,
                    "midi": 45,
                    "name": "A2",
                    "ticks": 83820,
                    "time": 270.21396350000003,
                    "velocity": 1
                },
                {
                    "duration": 0.10714274999997997,
                    "durationTicks": 30,
                    "midi": 57,
                    "name": "A3",
                    "ticks": 83880,
                    "time": 270.42824900000005,
                    "velocity": 1
                },
                {
                    "duration": 0.10714274999997997,
                    "durationTicks": 30,
                    "midi": 58,
                    "name": "A#3",
                    "ticks": 83910,
                    "time": 270.53539175000003,
                    "velocity": 1
                },
                {
                    "duration": 0.42857100000003356,
                    "durationTicks": 120,
                    "midi": 57,
                    "name": "A3",
                    "ticks": 83940,
                    "time": 270.6425345,
                    "velocity": 1
                },
                {
                    "duration": 0.21428549999995994,
                    "durationTicks": 60,
                    "midi": 45,
                    "name": "A2",
                    "ticks": 84060,
                    "time": 271.07110550000004,
                    "velocity": 1
                },
                {
                    "duration": 0.21428550000001678,
                    "durationTicks": 60,
                    "midi": 53,
                    "name": "F3",
                    "ticks": 84120,
                    "time": 271.285391,
                    "velocity": 1
                },
                {
                    "duration": 0.21428550000001678,
                    "durationTicks": 60,
                    "midi": 52,
                    "name": "E3",
                    "ticks": 84180,
                    "time": 271.4996765,
                    "velocity": 1
                },
                {
                    "duration": 0.21428550000001678,
                    "durationTicks": 60,
                    "midi": 55,
                    "name": "G3",
                    "ticks": 84240,
                    "time": 271.71396200000004,
                    "velocity": 1
                },
                {
                    "duration": 0.21428549999995994,
                    "durationTicks": 60,
                    "midi": 52,
                    "name": "E3",
                    "ticks": 84300,
                    "time": 271.92824750000005,
                    "velocity": 1
                },
                {
                    "duration": 0.21428550000001678,
                    "durationTicks": 60,
                    "midi": 60,
                    "name": "C4",
                    "ticks": 84360,
                    "time": 272.142533,
                    "velocity": 1
                },
                {
                    "duration": 0.21428550000001678,
                    "durationTicks": 60,
                    "midi": 57,
                    "name": "A3",
                    "ticks": 84420,
                    "time": 272.35681850000003,
                    "velocity": 1
                },
                {
                    "duration": 0.21428549999995994,
                    "durationTicks": 60,
                    "midi": 45,
                    "name": "A2",
                    "ticks": 84480,
                    "time": 272.57110400000005,
                    "velocity": 1
                },
                {
                    "duration": 0.21428550000001678,
                    "durationTicks": 60,
                    "midi": 45,
                    "name": "A2",
                    "ticks": 84540,
                    "time": 272.7853895,
                    "velocity": 1
                },
                {
                    "duration": 0.10714274999997997,
                    "durationTicks": 30,
                    "midi": 62,
                    "name": "D4",
                    "ticks": 84600,
                    "time": 272.999675,
                    "velocity": 1
                },
                {
                    "duration": 0.10714275000003681,
                    "durationTicks": 30,
                    "midi": 63,
                    "name": "D#4",
                    "ticks": 84630,
                    "time": 273.10681775,
                    "velocity": 1
                },
                {
                    "duration": 0.4285709999999767,
                    "durationTicks": 120,
                    "midi": 62,
                    "name": "D4",
                    "ticks": 84660,
                    "time": 273.21396050000004,
                    "velocity": 1
                },
                {
                    "duration": 0.21428550000001678,
                    "durationTicks": 60,
                    "midi": 45,
                    "name": "A2",
                    "ticks": 84780,
                    "time": 273.6425315,
                    "velocity": 1
                },
                {
                    "duration": 0.10714274999997997,
                    "durationTicks": 30,
                    "midi": 57,
                    "name": "A3",
                    "ticks": 84840,
                    "time": 273.85681700000004,
                    "velocity": 1
                },
                {
                    "duration": 0.10714275000003681,
                    "durationTicks": 30,
                    "midi": 58,
                    "name": "A#3",
                    "ticks": 84870,
                    "time": 273.96395975,
                    "velocity": 1
                },
                {
                    "duration": 0.4285709999999767,
                    "durationTicks": 120,
                    "midi": 57,
                    "name": "A3",
                    "ticks": 84900,
                    "time": 274.07110250000005,
                    "velocity": 1
                },
                {
                    "duration": 0.21428550000001678,
                    "durationTicks": 60,
                    "midi": 45,
                    "name": "A2",
                    "ticks": 85020,
                    "time": 274.49967350000003,
                    "velocity": 1
                },
                {
                    "duration": 0.21428549999995994,
                    "durationTicks": 60,
                    "midi": 53,
                    "name": "F3",
                    "ticks": 85080,
                    "time": 274.71395900000005,
                    "velocity": 1
                },
                {
                    "duration": 0.21428550000001678,
                    "durationTicks": 60,
                    "midi": 52,
                    "name": "E3",
                    "ticks": 85140,
                    "time": 274.9282445,
                    "velocity": 1
                },
                {
                    "duration": 0.21428550000001678,
                    "durationTicks": 60,
                    "midi": 55,
                    "name": "G3",
                    "ticks": 85200,
                    "time": 275.14253,
                    "velocity": 1
                },
                {
                    "duration": 0.21428550000001678,
                    "durationTicks": 60,
                    "midi": 52,
                    "name": "E3",
                    "ticks": 85260,
                    "time": 275.35681550000004,
                    "velocity": 1
                },
                {
                    "duration": 0.21428549999995994,
                    "durationTicks": 60,
                    "midi": 60,
                    "name": "C4",
                    "ticks": 85320,
                    "time": 275.57110100000006,
                    "velocity": 1
                },
                {
                    "duration": 0.21428550000001678,
                    "durationTicks": 60,
                    "midi": 57,
                    "name": "A3",
                    "ticks": 85380,
                    "time": 275.7853865,
                    "velocity": 1
                },
                {
                    "duration": 0.21428550000001678,
                    "durationTicks": 60,
                    "midi": 45,
                    "name": "A2",
                    "ticks": 85440,
                    "time": 275.99967200000003,
                    "velocity": 1
                },
                {
                    "duration": 0.21428549999995994,
                    "durationTicks": 60,
                    "midi": 45,
                    "name": "A2",
                    "ticks": 85500,
                    "time": 276.21395750000005,
                    "velocity": 1
                },
                {
                    "duration": 0.10714275000003681,
                    "durationTicks": 30,
                    "midi": 62,
                    "name": "D4",
                    "ticks": 85560,
                    "time": 276.428243,
                    "velocity": 1
                },
                {
                    "duration": 0.10714274999997997,
                    "durationTicks": 30,
                    "midi": 63,
                    "name": "D#4",
                    "ticks": 85590,
                    "time": 276.53538575000005,
                    "velocity": 1
                },
                {
                    "duration": 0.42857100000003356,
                    "durationTicks": 120,
                    "midi": 62,
                    "name": "D4",
                    "ticks": 85620,
                    "time": 276.6425285,
                    "velocity": 1
                },
                {
                    "duration": 0.21428549999995994,
                    "durationTicks": 60,
                    "midi": 45,
                    "name": "A2",
                    "ticks": 85740,
                    "time": 277.07109950000006,
                    "velocity": 1
                },
                {
                    "duration": 0.10714275000003681,
                    "durationTicks": 30,
                    "midi": 57,
                    "name": "A3",
                    "ticks": 85800,
                    "time": 277.285385,
                    "velocity": 1
                },
                {
                    "duration": 0.10714274999997997,
                    "durationTicks": 30,
                    "midi": 58,
                    "name": "A#3",
                    "ticks": 85830,
                    "time": 277.39252775000006,
                    "velocity": 1
                },
                {
                    "duration": 0.4285709999999767,
                    "durationTicks": 120,
                    "midi": 57,
                    "name": "A3",
                    "ticks": 85860,
                    "time": 277.49967050000004,
                    "velocity": 1
                },
                {
                    "duration": 0.21428550000001678,
                    "durationTicks": 60,
                    "midi": 45,
                    "name": "A2",
                    "ticks": 85980,
                    "time": 277.9282415,
                    "velocity": 1
                },
                {
                    "duration": 0.21428550000001678,
                    "durationTicks": 60,
                    "midi": 53,
                    "name": "F3",
                    "ticks": 86040,
                    "time": 278.14252700000003,
                    "velocity": 1
                },
                {
                    "duration": 0.21428549999995994,
                    "durationTicks": 60,
                    "midi": 52,
                    "name": "E3",
                    "ticks": 86100,
                    "time": 278.35681250000005,
                    "velocity": 1
                },
                {
                    "duration": 0.21428550000001678,
                    "durationTicks": 60,
                    "midi": 55,
                    "name": "G3",
                    "ticks": 86160,
                    "time": 278.571098,
                    "velocity": 1
                },
                {
                    "duration": 0.21428550000001678,
                    "durationTicks": 60,
                    "midi": 52,
                    "name": "E3",
                    "ticks": 86220,
                    "time": 278.7853835,
                    "velocity": 1
                },
                {
                    "duration": 0.21428550000001678,
                    "durationTicks": 60,
                    "midi": 60,
                    "name": "C4",
                    "ticks": 86280,
                    "time": 278.99966900000004,
                    "velocity": 1
                },
                {
                    "duration": 0.21428549999995994,
                    "durationTicks": 60,
                    "midi": 57,
                    "name": "A3",
                    "ticks": 86340,
                    "time": 279.21395450000006,
                    "velocity": 1
                },
                {
                    "duration": 0.21428550000001678,
                    "durationTicks": 60,
                    "midi": 64,
                    "name": "E4",
                    "ticks": 86400,
                    "time": 279.42824,
                    "velocity": 1
                },
                {
                    "duration": 0.21428550000001678,
                    "durationTicks": 60,
                    "midi": 62,
                    "name": "D4",
                    "ticks": 86460,
                    "time": 279.64252550000003,
                    "velocity": 1
                },
                {
                    "duration": 0.21428549999995994,
                    "durationTicks": 60,
                    "midi": 59,
                    "name": "B3",
                    "ticks": 86520,
                    "time": 279.85681100000005,
                    "velocity": 1
                },
                {
                    "duration": 0.21428550000001678,
                    "durationTicks": 60,
                    "midi": 62,
                    "name": "D4",
                    "ticks": 86580,
                    "time": 280.0710965,
                    "velocity": 1
                },
                {
                    "duration": 0.21428550000001678,
                    "durationTicks": 60,
                    "midi": 59,
                    "name": "B3",
                    "ticks": 86640,
                    "time": 280.285382,
                    "velocity": 1
                },
                {
                    "duration": 0.21428550000001678,
                    "durationTicks": 60,
                    "midi": 58,
                    "name": "A#3",
                    "ticks": 86700,
                    "time": 280.49966750000004,
                    "velocity": 1
                },
                {
                    "duration": 0.21428549999995994,
                    "durationTicks": 60,
                    "midi": 57,
                    "name": "A3",
                    "ticks": 86760,
                    "time": 280.71395300000006,
                    "velocity": 1
                },
                {
                    "duration": 0.21428550000001678,
                    "durationTicks": 60,
                    "midi": 55,
                    "name": "G3",
                    "ticks": 86820,
                    "time": 280.9282385,
                    "velocity": 1
                },
                {
                    "duration": 0.21428550000001678,
                    "durationTicks": 60,
                    "midi": 40,
                    "name": "E2",
                    "ticks": 86880,
                    "time": 281.14252400000004,
                    "velocity": 1
                },
                {
                    "duration": 0.21428549999995994,
                    "durationTicks": 60,
                    "midi": 40,
                    "name": "E2",
                    "ticks": 86940,
                    "time": 281.35680950000005,
                    "velocity": 1
                },
                {
                    "duration": 0.21428550000001678,
                    "durationTicks": 60,
                    "midi": 40,
                    "name": "E2",
                    "ticks": 87000,
                    "time": 281.571095,
                    "velocity": 1
                },
                {
                    "duration": 0.21428550000001678,
                    "durationTicks": 60,
                    "midi": 40,
                    "name": "E2",
                    "ticks": 87060,
                    "time": 281.78538050000003,
                    "velocity": 1
                },
                {
                    "duration": 0.21428549999995994,
                    "durationTicks": 60,
                    "midi": 55,
                    "name": "G3",
                    "ticks": 87120,
                    "time": 281.99966600000005,
                    "velocity": 1
                },
                {
                    "duration": 0.21428549999995994,
                    "durationTicks": 60,
                    "midi": 50,
                    "name": "D3",
                    "ticks": 87120,
                    "time": 281.99966600000005,
                    "velocity": 1
                },
                {
                    "duration": 0.21428550000001678,
                    "durationTicks": 60,
                    "midi": 52,
                    "name": "E3",
                    "ticks": 87180,
                    "time": 282.2139515,
                    "velocity": 1
                },
                {
                    "duration": 0.21428550000001678,
                    "durationTicks": 60,
                    "midi": 57,
                    "name": "A3",
                    "ticks": 87180,
                    "time": 282.2139515,
                    "velocity": 1
                },
                {
                    "duration": 0.21428550000001678,
                    "durationTicks": 60,
                    "midi": 50,
                    "name": "D3",
                    "ticks": 87240,
                    "time": 282.428237,
                    "velocity": 1
                },
                {
                    "duration": 0.21428550000001678,
                    "durationTicks": 60,
                    "midi": 55,
                    "name": "G3",
                    "ticks": 87240,
                    "time": 282.428237,
                    "velocity": 1
                },
                {
                    "duration": 0.21428549999995994,
                    "durationTicks": 60,
                    "midi": 57,
                    "name": "A3",
                    "ticks": 87300,
                    "time": 282.64252250000004,
                    "velocity": 1
                },
                {
                    "duration": 0.21428549999995994,
                    "durationTicks": 60,
                    "midi": 52,
                    "name": "E3",
                    "ticks": 87300,
                    "time": 282.64252250000004,
                    "velocity": 1
                },
                {
                    "duration": 0.21428550000001678,
                    "durationTicks": 60,
                    "midi": 40,
                    "name": "E2",
                    "ticks": 87360,
                    "time": 282.856808,
                    "velocity": 1
                },
                {
                    "duration": 0.21428550000001678,
                    "durationTicks": 60,
                    "midi": 40,
                    "name": "E2",
                    "ticks": 87420,
                    "time": 283.0710935,
                    "velocity": 1
                },
                {
                    "duration": 0.21428550000001678,
                    "durationTicks": 60,
                    "midi": 40,
                    "name": "E2",
                    "ticks": 87480,
                    "time": 283.28537900000003,
                    "velocity": 1
                },
                {
                    "duration": 0.21428549999995994,
                    "durationTicks": 60,
                    "midi": 40,
                    "name": "E2",
                    "ticks": 87540,
                    "time": 283.49966450000005,
                    "velocity": 1
                },
                {
                    "duration": 0.21428550000001678,
                    "durationTicks": 60,
                    "midi": 52,
                    "name": "E3",
                    "ticks": 87600,
                    "time": 283.71395,
                    "velocity": 1
                },
                {
                    "duration": 0.21428550000001678,
                    "durationTicks": 60,
                    "midi": 50,
                    "name": "D3",
                    "ticks": 87660,
                    "time": 283.9282355,
                    "velocity": 1
                },
                {
                    "duration": 0.21428550000001678,
                    "durationTicks": 60,
                    "midi": 47,
                    "name": "B2",
                    "ticks": 87720,
                    "time": 284.14252100000004,
                    "velocity": 1
                },
                {
                    "duration": 0.21428549999995994,
                    "durationTicks": 60,
                    "midi": 46,
                    "name": "A#2",
                    "ticks": 87780,
                    "time": 284.35680650000006,
                    "velocity": 1
                },
                {
                    "duration": 0.21428550000001678,
                    "durationTicks": 60,
                    "midi": 40,
                    "name": "E2",
                    "ticks": 87840,
                    "time": 284.571092,
                    "velocity": 1
                },
                {
                    "duration": 0.21428550000001678,
                    "durationTicks": 60,
                    "midi": 40,
                    "name": "E2",
                    "ticks": 87900,
                    "time": 284.78537750000004,
                    "velocity": 1
                },
                {
                    "duration": 0.21428549999995994,
                    "durationTicks": 60,
                    "midi": 40,
                    "name": "E2",
                    "ticks": 87960,
                    "time": 284.99966300000006,
                    "velocity": 1
                },
                {
                    "duration": 0.21428550000001678,
                    "durationTicks": 60,
                    "midi": 40,
                    "name": "E2",
                    "ticks": 88020,
                    "time": 285.2139485,
                    "velocity": 1
                },
                {
                    "duration": 0.21428550000001678,
                    "durationTicks": 60,
                    "midi": 55,
                    "name": "G3",
                    "ticks": 88080,
                    "time": 285.42823400000003,
                    "velocity": 1
                },
                {
                    "duration": 0.21428550000001678,
                    "durationTicks": 60,
                    "midi": 50,
                    "name": "D3",
                    "ticks": 88080,
                    "time": 285.42823400000003,
                    "velocity": 1
                },
                {
                    "duration": 0.21428549999995994,
                    "durationTicks": 60,
                    "midi": 52,
                    "name": "E3",
                    "ticks": 88140,
                    "time": 285.64251950000005,
                    "velocity": 1
                },
                {
                    "duration": 0.21428549999995994,
                    "durationTicks": 60,
                    "midi": 57,
                    "name": "A3",
                    "ticks": 88140,
                    "time": 285.64251950000005,
                    "velocity": 1
                },
                {
                    "duration": 0.21428550000001678,
                    "durationTicks": 60,
                    "midi": 50,
                    "name": "D3",
                    "ticks": 88200,
                    "time": 285.856805,
                    "velocity": 1
                },
                {
                    "duration": 0.21428550000001678,
                    "durationTicks": 60,
                    "midi": 55,
                    "name": "G3",
                    "ticks": 88200,
                    "time": 285.856805,
                    "velocity": 1
                },
                {
                    "duration": 0.21428550000001678,
                    "durationTicks": 60,
                    "midi": 57,
                    "name": "A3",
                    "ticks": 88260,
                    "time": 286.0710905,
                    "velocity": 1
                },
                {
                    "duration": 0.21428550000001678,
                    "durationTicks": 60,
                    "midi": 52,
                    "name": "E3",
                    "ticks": 88260,
                    "time": 286.0710905,
                    "velocity": 1
                },
                {
                    "duration": 0.21428549999995994,
                    "durationTicks": 60,
                    "midi": 40,
                    "name": "E2",
                    "ticks": 88320,
                    "time": 286.28537600000004,
                    "velocity": 1
                },
                {
                    "duration": 0.21428550000001678,
                    "durationTicks": 60,
                    "midi": 40,
                    "name": "E2",
                    "ticks": 88380,
                    "time": 286.4996615,
                    "velocity": 1
                },
                {
                    "duration": 0.21428550000001678,
                    "durationTicks": 60,
                    "midi": 40,
                    "name": "E2",
                    "ticks": 88440,
                    "time": 286.713947,
                    "velocity": 1
                },
                {
                    "duration": 0.21428550000001678,
                    "durationTicks": 60,
                    "midi": 40,
                    "name": "E2",
                    "ticks": 88500,
                    "time": 286.92823250000004,
                    "velocity": 1
                },
                {
                    "duration": 0.21428549999995994,
                    "durationTicks": 60,
                    "midi": 52,
                    "name": "E3",
                    "ticks": 88560,
                    "time": 287.14251800000005,
                    "velocity": 1
                },
                {
                    "duration": 0.21428550000001678,
                    "durationTicks": 60,
                    "midi": 50,
                    "name": "D3",
                    "ticks": 88620,
                    "time": 287.3568035,
                    "velocity": 1
                },
                {
                    "duration": 0.21428550000001678,
                    "durationTicks": 60,
                    "midi": 47,
                    "name": "B2",
                    "ticks": 88680,
                    "time": 287.57108900000003,
                    "velocity": 1
                },
                {
                    "duration": 0.21428550000001678,
                    "durationTicks": 60,
                    "midi": 46,
                    "name": "A#2",
                    "ticks": 88740,
                    "time": 287.78537450000005,
                    "velocity": 1
                },
                {
                    "duration": 0.21428549999995994,
                    "durationTicks": 60,
                    "midi": 40,
                    "name": "E2",
                    "ticks": 88800,
                    "time": 287.99966000000006,
                    "velocity": 1
                },
                {
                    "duration": 0.21428550000001678,
                    "durationTicks": 60,
                    "midi": 40,
                    "name": "E2",
                    "ticks": 88860,
                    "time": 288.2139455,
                    "velocity": 1
                },
                {
                    "duration": 0.21428550000001678,
                    "durationTicks": 60,
                    "midi": 40,
                    "name": "E2",
                    "ticks": 88920,
                    "time": 288.42823100000004,
                    "velocity": 1
                },
                {
                    "duration": 0.21428549999995994,
                    "durationTicks": 60,
                    "midi": 40,
                    "name": "E2",
                    "ticks": 88980,
                    "time": 288.64251650000006,
                    "velocity": 1
                },
                {
                    "duration": 0.21428550000001678,
                    "durationTicks": 60,
                    "midi": 55,
                    "name": "G3",
                    "ticks": 89040,
                    "time": 288.856802,
                    "velocity": 1
                },
                {
                    "duration": 0.21428550000001678,
                    "durationTicks": 60,
                    "midi": 50,
                    "name": "D3",
                    "ticks": 89040,
                    "time": 288.856802,
                    "velocity": 1
                },
                {
                    "duration": 0.21428550000001678,
                    "durationTicks": 60,
                    "midi": 52,
                    "name": "E3",
                    "ticks": 89100,
                    "time": 289.07108750000003,
                    "velocity": 1
                },
                {
                    "duration": 0.21428550000001678,
                    "durationTicks": 60,
                    "midi": 57,
                    "name": "A3",
                    "ticks": 89100,
                    "time": 289.07108750000003,
                    "velocity": 1
                },
                {
                    "duration": 0.21428549999995994,
                    "durationTicks": 60,
                    "midi": 50,
                    "name": "D3",
                    "ticks": 89160,
                    "time": 289.28537300000005,
                    "velocity": 1
                },
                {
                    "duration": 0.21428549999995994,
                    "durationTicks": 60,
                    "midi": 55,
                    "name": "G3",
                    "ticks": 89160,
                    "time": 289.28537300000005,
                    "velocity": 1
                },
                {
                    "duration": 0.21428550000001678,
                    "durationTicks": 60,
                    "midi": 57,
                    "name": "A3",
                    "ticks": 89220,
                    "time": 289.4996585,
                    "velocity": 1
                },
                {
                    "duration": 0.21428550000001678,
                    "durationTicks": 60,
                    "midi": 52,
                    "name": "E3",
                    "ticks": 89220,
                    "time": 289.4996585,
                    "velocity": 1
                },
                {
                    "duration": 0.21428550000001678,
                    "durationTicks": 60,
                    "midi": 40,
                    "name": "E2",
                    "ticks": 89280,
                    "time": 289.713944,
                    "velocity": 1
                },
                {
                    "duration": 0.21428549999995994,
                    "durationTicks": 60,
                    "midi": 40,
                    "name": "E2",
                    "ticks": 89340,
                    "time": 289.92822950000004,
                    "velocity": 1
                },
                {
                    "duration": 0.21428550000001678,
                    "durationTicks": 60,
                    "midi": 40,
                    "name": "E2",
                    "ticks": 89400,
                    "time": 290.142515,
                    "velocity": 1
                },
                {
                    "duration": 0.21428550000001678,
                    "durationTicks": 60,
                    "midi": 40,
                    "name": "E2",
                    "ticks": 89460,
                    "time": 290.3568005,
                    "velocity": 1
                },
                {
                    "duration": 0.21428550000001678,
                    "durationTicks": 60,
                    "midi": 52,
                    "name": "E3",
                    "ticks": 89520,
                    "time": 290.57108600000004,
                    "velocity": 1
                },
                {
                    "duration": 0.21428549999995994,
                    "durationTicks": 60,
                    "midi": 50,
                    "name": "D3",
                    "ticks": 89580,
                    "time": 290.78537150000005,
                    "velocity": 1
                },
                {
                    "duration": 0.21428550000001678,
                    "durationTicks": 60,
                    "midi": 47,
                    "name": "B2",
                    "ticks": 89640,
                    "time": 290.999657,
                    "velocity": 1
                },
                {
                    "duration": 0.21428550000001678,
                    "durationTicks": 60,
                    "midi": 46,
                    "name": "A#2",
                    "ticks": 89700,
                    "time": 291.21394250000003,
                    "velocity": 1
                },
                {
                    "duration": 0.21428550000001678,
                    "durationTicks": 60,
                    "midi": 40,
                    "name": "E2",
                    "ticks": 89760,
                    "time": 291.42822800000005,
                    "velocity": 1
                },
                {
                    "duration": 0.21428549999995994,
                    "durationTicks": 60,
                    "midi": 40,
                    "name": "E2",
                    "ticks": 89820,
                    "time": 291.64251350000006,
                    "velocity": 1
                },
                {
                    "duration": 0.21428550000001678,
                    "durationTicks": 60,
                    "midi": 40,
                    "name": "E2",
                    "ticks": 89880,
                    "time": 291.856799,
                    "velocity": 1
                },
                {
                    "duration": 0.21428550000001678,
                    "durationTicks": 60,
                    "midi": 40,
                    "name": "E2",
                    "ticks": 89940,
                    "time": 292.07108450000004,
                    "velocity": 1
                },
                {
                    "duration": 0.21428549999995994,
                    "durationTicks": 60,
                    "midi": 55,
                    "name": "G3",
                    "ticks": 90000,
                    "time": 292.28537000000006,
                    "velocity": 1
                },
                {
                    "duration": 0.21428549999995994,
                    "durationTicks": 60,
                    "midi": 50,
                    "name": "D3",
                    "ticks": 90000,
                    "time": 292.28537000000006,
                    "velocity": 1
                },
                {
                    "duration": 0.21428550000001678,
                    "durationTicks": 60,
                    "midi": 52,
                    "name": "E3",
                    "ticks": 90060,
                    "time": 292.4996555,
                    "velocity": 1
                },
                {
                    "duration": 0.21428550000001678,
                    "durationTicks": 60,
                    "midi": 57,
                    "name": "A3",
                    "ticks": 90060,
                    "time": 292.4996555,
                    "velocity": 1
                },
                {
                    "duration": 0.21428550000001678,
                    "durationTicks": 60,
                    "midi": 50,
                    "name": "D3",
                    "ticks": 90120,
                    "time": 292.71394100000003,
                    "velocity": 1
                },
                {
                    "duration": 0.21428550000001678,
                    "durationTicks": 60,
                    "midi": 55,
                    "name": "G3",
                    "ticks": 90120,
                    "time": 292.71394100000003,
                    "velocity": 1
                },
                {
                    "duration": 0.21428549999995994,
                    "durationTicks": 60,
                    "midi": 57,
                    "name": "A3",
                    "ticks": 90180,
                    "time": 292.92822650000005,
                    "velocity": 1
                },
                {
                    "duration": 0.21428549999995994,
                    "durationTicks": 60,
                    "midi": 52,
                    "name": "E3",
                    "ticks": 90180,
                    "time": 292.92822650000005,
                    "velocity": 1
                },
                {
                    "duration": 0.21428550000001678,
                    "durationTicks": 60,
                    "midi": 40,
                    "name": "E2",
                    "ticks": 90240,
                    "time": 293.142512,
                    "velocity": 1
                },
                {
                    "duration": 0.21428550000001678,
                    "durationTicks": 60,
                    "midi": 40,
                    "name": "E2",
                    "ticks": 90300,
                    "time": 293.3567975,
                    "velocity": 1
                },
                {
                    "duration": 0.21428549999995994,
                    "durationTicks": 60,
                    "midi": 40,
                    "name": "E2",
                    "ticks": 90360,
                    "time": 293.57108300000004,
                    "velocity": 1
                },
                {
                    "duration": 0.21428550000001678,
                    "durationTicks": 60,
                    "midi": 40,
                    "name": "E2",
                    "ticks": 90420,
                    "time": 293.7853685,
                    "velocity": 1
                },
                {
                    "duration": 0.21428550000001678,
                    "durationTicks": 60,
                    "midi": 52,
                    "name": "E3",
                    "ticks": 90480,
                    "time": 293.999654,
                    "velocity": 1
                },
                {
                    "duration": 0.21428550000001678,
                    "durationTicks": 60,
                    "midi": 50,
                    "name": "D3",
                    "ticks": 90540,
                    "time": 294.21393950000004,
                    "velocity": 1
                },
                {
                    "duration": 0.21428549999995994,
                    "durationTicks": 60,
                    "midi": 47,
                    "name": "B2",
                    "ticks": 90600,
                    "time": 294.42822500000005,
                    "velocity": 1
                },
                {
                    "duration": 0.21428550000001678,
                    "durationTicks": 60,
                    "midi": 46,
                    "name": "A#2",
                    "ticks": 90660,
                    "time": 294.6425105,
                    "velocity": 1
                },
                {
                    "duration": 0.21428550000001678,
                    "durationTicks": 60,
                    "midi": 40,
                    "name": "E2",
                    "ticks": 90720,
                    "time": 294.85679600000003,
                    "velocity": 1
                },
                {
                    "duration": 0.21428549999995994,
                    "durationTicks": 60,
                    "midi": 40,
                    "name": "E2",
                    "ticks": 90780,
                    "time": 295.07108150000005,
                    "velocity": 1
                },
                {
                    "duration": 0.21428550000001678,
                    "durationTicks": 60,
                    "midi": 40,
                    "name": "E2",
                    "ticks": 90840,
                    "time": 295.285367,
                    "velocity": 1
                },
                {
                    "duration": 0.21428550000001678,
                    "durationTicks": 60,
                    "midi": 40,
                    "name": "E2",
                    "ticks": 90900,
                    "time": 295.4996525,
                    "velocity": 1
                },
                {
                    "duration": 0.21428550000001678,
                    "durationTicks": 60,
                    "midi": 40,
                    "name": "E2",
                    "ticks": 90960,
                    "time": 295.71393800000004,
                    "velocity": 1
                },
                {
                    "duration": 0.21428549999995994,
                    "durationTicks": 60,
                    "midi": 40,
                    "name": "E2",
                    "ticks": 91020,
                    "time": 295.92822350000006,
                    "velocity": 1
                },
                {
                    "duration": 0.21428550000001678,
                    "durationTicks": 60,
                    "midi": 40,
                    "name": "E2",
                    "ticks": 91080,
                    "time": 296.142509,
                    "velocity": 1
                },
                {
                    "duration": 0.21428550000001678,
                    "durationTicks": 60,
                    "midi": 40,
                    "name": "E2",
                    "ticks": 91140,
                    "time": 296.35679450000003,
                    "velocity": 1
                },
                {
                    "duration": 0.21428549999995994,
                    "durationTicks": 60,
                    "midi": 40,
                    "name": "E2",
                    "ticks": 91200,
                    "time": 296.57108000000005,
                    "velocity": 1
                },
                {
                    "duration": 0.21428550000001678,
                    "durationTicks": 60,
                    "midi": 40,
                    "name": "E2",
                    "ticks": 91260,
                    "time": 296.7853655,
                    "velocity": 1
                },
                {
                    "duration": 0.21428550000001678,
                    "durationTicks": 60,
                    "midi": 40,
                    "name": "E2",
                    "ticks": 91320,
                    "time": 296.99965100000003,
                    "velocity": 1
                },
                {
                    "duration": 0.21428549999995994,
                    "durationTicks": 60,
                    "midi": 40,
                    "name": "E2",
                    "ticks": 91380,
                    "time": 297.21393650000005,
                    "velocity": 1
                },
                {
                    "duration": 0.21428550000001678,
                    "durationTicks": 60,
                    "midi": 47,
                    "name": "B2",
                    "ticks": 91440,
                    "time": 297.428222,
                    "velocity": 1
                },
                {
                    "duration": 0.21428550000001678,
                    "durationTicks": 60,
                    "midi": 46,
                    "name": "A#2",
                    "ticks": 91500,
                    "time": 297.6425075,
                    "velocity": 1
                },
                {
                    "duration": 0.21428550000001678,
                    "durationTicks": 60,
                    "midi": 55,
                    "name": "G3",
                    "ticks": 91560,
                    "time": 297.85679300000004,
                    "velocity": 1
                },
                {
                    "duration": 0.21428549999995994,
                    "durationTicks": 60,
                    "midi": 52,
                    "name": "E3",
                    "ticks": 91620,
                    "time": 298.07107850000006,
                    "velocity": 1
                },
                {
                    "duration": 0.21428550000001678,
                    "durationTicks": 60,
                    "midi": 40,
                    "name": "E2",
                    "ticks": 91680,
                    "time": 298.285364,
                    "velocity": 1
                },
                {
                    "duration": 0.21428550000001678,
                    "durationTicks": 60,
                    "midi": 40,
                    "name": "E2",
                    "ticks": 91740,
                    "time": 298.49964950000003,
                    "velocity": 1
                },
                {
                    "duration": 0.21428549999995994,
                    "durationTicks": 60,
                    "midi": 40,
                    "name": "E2",
                    "ticks": 91800,
                    "time": 298.71393500000005,
                    "velocity": 1
                },
                {
                    "duration": 0.21428550000001678,
                    "durationTicks": 60,
                    "midi": 40,
                    "name": "E2",
                    "ticks": 91860,
                    "time": 298.9282205,
                    "velocity": 1
                },
                {
                    "duration": 0.21428550000001678,
                    "durationTicks": 60,
                    "midi": 40,
                    "name": "E2",
                    "ticks": 91920,
                    "time": 299.142506,
                    "velocity": 1
                },
                {
                    "duration": 0.21428550000001678,
                    "durationTicks": 60,
                    "midi": 40,
                    "name": "E2",
                    "ticks": 91980,
                    "time": 299.35679150000004,
                    "velocity": 1
                },
                {
                    "duration": 0.21428549999995994,
                    "durationTicks": 60,
                    "midi": 40,
                    "name": "E2",
                    "ticks": 92040,
                    "time": 299.57107700000006,
                    "velocity": 1
                },
                {
                    "duration": 0.21428550000001678,
                    "durationTicks": 60,
                    "midi": 40,
                    "name": "E2",
                    "ticks": 92100,
                    "time": 299.7853625,
                    "velocity": 1
                },
                {
                    "duration": 0.21428550000001678,
                    "durationTicks": 60,
                    "midi": 40,
                    "name": "E2",
                    "ticks": 92160,
                    "time": 299.99964800000004,
                    "velocity": 1
                },
                {
                    "duration": 0.21428549999995994,
                    "durationTicks": 60,
                    "midi": 40,
                    "name": "E2",
                    "ticks": 92220,
                    "time": 300.21393350000005,
                    "velocity": 1
                },
                {
                    "duration": 0.21428550000001678,
                    "durationTicks": 60,
                    "midi": 40,
                    "name": "E2",
                    "ticks": 92280,
                    "time": 300.428219,
                    "velocity": 1
                },
                {
                    "duration": 0.21428550000001678,
                    "durationTicks": 60,
                    "midi": 40,
                    "name": "E2",
                    "ticks": 92340,
                    "time": 300.64250450000003,
                    "velocity": 1
                },
                {
                    "duration": 0.21428549999995994,
                    "durationTicks": 60,
                    "midi": 47,
                    "name": "B2",
                    "ticks": 92400,
                    "time": 300.85679000000005,
                    "velocity": 1
                },
                {
                    "duration": 0.21428550000001678,
                    "durationTicks": 60,
                    "midi": 46,
                    "name": "A#2",
                    "ticks": 92460,
                    "time": 301.0710755,
                    "velocity": 1
                },
                {
                    "duration": 0.21428550000001678,
                    "durationTicks": 60,
                    "midi": 55,
                    "name": "G3",
                    "ticks": 92520,
                    "time": 301.285361,
                    "velocity": 1
                },
                {
                    "duration": 0.21428550000001678,
                    "durationTicks": 60,
                    "midi": 52,
                    "name": "E3",
                    "ticks": 92580,
                    "time": 301.49964650000004,
                    "velocity": 1
                },
                {
                    "duration": 0.21428549999995994,
                    "durationTicks": 60,
                    "midi": 40,
                    "name": "E2",
                    "ticks": 92640,
                    "time": 301.71393200000006,
                    "velocity": 1
                },
                {
                    "duration": 0.21428550000001678,
                    "durationTicks": 60,
                    "midi": 40,
                    "name": "E2",
                    "ticks": 92700,
                    "time": 301.9282175,
                    "velocity": 1
                },
                {
                    "duration": 0.21428550000001678,
                    "durationTicks": 60,
                    "midi": 40,
                    "name": "E2",
                    "ticks": 92760,
                    "time": 302.14250300000003,
                    "velocity": 1
                },
                {
                    "duration": 0.21428549999995994,
                    "durationTicks": 60,
                    "midi": 40,
                    "name": "E2",
                    "ticks": 92820,
                    "time": 302.35678850000005,
                    "velocity": 1
                },
                {
                    "duration": 0.21428550000001678,
                    "durationTicks": 60,
                    "midi": 40,
                    "name": "E2",
                    "ticks": 92880,
                    "time": 302.571074,
                    "velocity": 1
                },
                {
                    "duration": 0.21428550000001678,
                    "durationTicks": 60,
                    "midi": 40,
                    "name": "E2",
                    "ticks": 92940,
                    "time": 302.7853595,
                    "velocity": 1
                },
                {
                    "duration": 0.21428550000001678,
                    "durationTicks": 60,
                    "midi": 40,
                    "name": "E2",
                    "ticks": 93000,
                    "time": 302.99964500000004,
                    "velocity": 1
                },
                {
                    "duration": 0.21428549999995994,
                    "durationTicks": 60,
                    "midi": 40,
                    "name": "E2",
                    "ticks": 93060,
                    "time": 303.21393050000006,
                    "velocity": 1
                },
                {
                    "duration": 0.21428550000001678,
                    "durationTicks": 60,
                    "midi": 40,
                    "name": "E2",
                    "ticks": 93120,
                    "time": 303.428216,
                    "velocity": 1
                },
                {
                    "duration": 0.21428550000001678,
                    "durationTicks": 60,
                    "midi": 40,
                    "name": "E2",
                    "ticks": 93180,
                    "time": 303.64250150000004,
                    "velocity": 1
                },
                {
                    "duration": 0.21428549999995994,
                    "durationTicks": 60,
                    "midi": 40,
                    "name": "E2",
                    "ticks": 93240,
                    "time": 303.85678700000005,
                    "velocity": 1
                },
                {
                    "duration": 0.21428550000001678,
                    "durationTicks": 60,
                    "midi": 40,
                    "name": "E2",
                    "ticks": 93300,
                    "time": 304.0710725,
                    "velocity": 1
                },
                {
                    "duration": 0.21428550000001678,
                    "durationTicks": 60,
                    "midi": 47,
                    "name": "B2",
                    "ticks": 93360,
                    "time": 304.28535800000003,
                    "velocity": 1
                },
                {
                    "duration": 0.21428549999995994,
                    "durationTicks": 60,
                    "midi": 46,
                    "name": "A#2",
                    "ticks": 93420,
                    "time": 304.49964350000005,
                    "velocity": 1
                },
                {
                    "duration": 0.21428550000001678,
                    "durationTicks": 60,
                    "midi": 55,
                    "name": "G3",
                    "ticks": 93480,
                    "time": 304.713929,
                    "velocity": 1
                },
                {
                    "duration": 0.21428550000001678,
                    "durationTicks": 60,
                    "midi": 52,
                    "name": "E3",
                    "ticks": 93540,
                    "time": 304.9282145,
                    "velocity": 1
                },
                {
                    "duration": 0.21428550000001678,
                    "durationTicks": 60,
                    "midi": 40,
                    "name": "E2",
                    "ticks": 93600,
                    "time": 305.14250000000004,
                    "velocity": 1
                },
                {
                    "duration": 0.21428549999995994,
                    "durationTicks": 60,
                    "midi": 40,
                    "name": "E2",
                    "ticks": 93660,
                    "time": 305.35678550000006,
                    "velocity": 1
                },
                {
                    "duration": 0.21428550000001678,
                    "durationTicks": 60,
                    "midi": 40,
                    "name": "E2",
                    "ticks": 93720,
                    "time": 305.571071,
                    "velocity": 1
                },
                {
                    "duration": 0.21428550000001678,
                    "durationTicks": 60,
                    "midi": 40,
                    "name": "E2",
                    "ticks": 93780,
                    "time": 305.78535650000003,
                    "velocity": 1
                },
                {
                    "duration": 0.21428549999995994,
                    "durationTicks": 60,
                    "midi": 40,
                    "name": "E2",
                    "ticks": 93840,
                    "time": 305.99964200000005,
                    "velocity": 1
                },
                {
                    "duration": 0.21428550000001678,
                    "durationTicks": 60,
                    "midi": 40,
                    "name": "E2",
                    "ticks": 93900,
                    "time": 306.2139275,
                    "velocity": 1
                },
                {
                    "duration": 0.21428550000001678,
                    "durationTicks": 60,
                    "midi": 40,
                    "name": "E2",
                    "ticks": 93960,
                    "time": 306.428213,
                    "velocity": 1
                },
                {
                    "duration": 0.21428550000001678,
                    "durationTicks": 60,
                    "midi": 40,
                    "name": "E2",
                    "ticks": 94020,
                    "time": 306.64249850000004,
                    "velocity": 1
                },
                {
                    "duration": 0.21428549999995994,
                    "durationTicks": 60,
                    "midi": 40,
                    "name": "E2",
                    "ticks": 94080,
                    "time": 306.85678400000006,
                    "velocity": 1
                },
                {
                    "duration": 0.21428550000001678,
                    "durationTicks": 60,
                    "midi": 40,
                    "name": "E2",
                    "ticks": 94140,
                    "time": 307.0710695,
                    "velocity": 1
                },
                {
                    "duration": 0.21428550000001678,
                    "durationTicks": 60,
                    "midi": 40,
                    "name": "E2",
                    "ticks": 94200,
                    "time": 307.28535500000004,
                    "velocity": 1
                },
                {
                    "duration": 0.21428549999995994,
                    "durationTicks": 60,
                    "midi": 40,
                    "name": "E2",
                    "ticks": 94260,
                    "time": 307.49964050000005,
                    "velocity": 1
                },
                {
                    "duration": 0.21428550000001678,
                    "durationTicks": 60,
                    "midi": 47,
                    "name": "B2",
                    "ticks": 94320,
                    "time": 307.713926,
                    "velocity": 1
                },
                {
                    "duration": 0.21428550000001678,
                    "durationTicks": 60,
                    "midi": 46,
                    "name": "A#2",
                    "ticks": 94380,
                    "time": 307.92821150000003,
                    "velocity": 1
                },
                {
                    "duration": 0.21428549999995994,
                    "durationTicks": 60,
                    "midi": 55,
                    "name": "G3",
                    "ticks": 94440,
                    "time": 308.14249700000005,
                    "velocity": 1
                },
                {
                    "duration": 0.21428550000001678,
                    "durationTicks": 60,
                    "midi": 52,
                    "name": "E3",
                    "ticks": 94500,
                    "time": 308.3567825,
                    "velocity": 1
                },
                {
                    "duration": 0.21428550000001678,
                    "durationTicks": 60,
                    "midi": 60,
                    "name": "C4",
                    "ticks": 94560,
                    "time": 308.571068,
                    "velocity": 1
                },
                {
                    "duration": 0.21428550000001678,
                    "durationTicks": 60,
                    "midi": 55,
                    "name": "G3",
                    "ticks": 94560,
                    "time": 308.571068,
                    "velocity": 1
                },
                {
                    "duration": 0.21428549999995994,
                    "durationTicks": 60,
                    "midi": 40,
                    "name": "E2",
                    "ticks": 94620,
                    "time": 308.78535350000004,
                    "velocity": 1
                },
                {
                    "duration": 0.21428550000001678,
                    "durationTicks": 60,
                    "midi": 40,
                    "name": "E2",
                    "ticks": 94680,
                    "time": 308.999639,
                    "velocity": 1
                },
                {
                    "duration": 0.21428550000001678,
                    "durationTicks": 60,
                    "midi": 40,
                    "name": "E2",
                    "ticks": 94740,
                    "time": 309.2139245,
                    "velocity": 1
                },
                {
                    "duration": 0.21428550000001678,
                    "durationTicks": 60,
                    "midi": 55,
                    "name": "G3",
                    "ticks": 94800,
                    "time": 309.42821000000004,
                    "velocity": 1
                },
                {
                    "duration": 0.21428550000001678,
                    "durationTicks": 60,
                    "midi": 60,
                    "name": "C4",
                    "ticks": 94800,
                    "time": 309.42821000000004,
                    "velocity": 1
                },
                {
                    "duration": 0.21428549999995994,
                    "durationTicks": 60,
                    "midi": 62,
                    "name": "D4",
                    "ticks": 94860,
                    "time": 309.64249550000005,
                    "velocity": 1
                },
                {
                    "duration": 0.21428549999995994,
                    "durationTicks": 60,
                    "midi": 57,
                    "name": "A3",
                    "ticks": 94860,
                    "time": 309.64249550000005,
                    "velocity": 1
                },
                {
                    "duration": 0.42857100000003356,
                    "durationTicks": 120,
                    "midi": 55,
                    "name": "G3",
                    "ticks": 94920,
                    "time": 309.856781,
                    "velocity": 1
                },
                {
                    "duration": 0.42857100000003356,
                    "durationTicks": 120,
                    "midi": 60,
                    "name": "C4",
                    "ticks": 94920,
                    "time": 309.856781,
                    "velocity": 1
                },
                {
                    "duration": 0.21428550000001678,
                    "durationTicks": 60,
                    "midi": 60,
                    "name": "C4",
                    "ticks": 95040,
                    "time": 310.28535200000005,
                    "velocity": 1
                },
                {
                    "duration": 0.21428550000001678,
                    "durationTicks": 60,
                    "midi": 55,
                    "name": "G3",
                    "ticks": 95040,
                    "time": 310.28535200000005,
                    "velocity": 1
                },
                {
                    "duration": 0.21428549999995994,
                    "durationTicks": 60,
                    "midi": 40,
                    "name": "E2",
                    "ticks": 95100,
                    "time": 310.49963750000006,
                    "velocity": 1
                },
                {
                    "duration": 0.21428550000001678,
                    "durationTicks": 60,
                    "midi": 40,
                    "name": "E2",
                    "ticks": 95160,
                    "time": 310.713923,
                    "velocity": 1
                },
                {
                    "duration": 0.21428550000001678,
                    "durationTicks": 60,
                    "midi": 40,
                    "name": "E2",
                    "ticks": 95220,
                    "time": 310.92820850000004,
                    "velocity": 1
                },
                {
                    "duration": 0.21428549999995994,
                    "durationTicks": 60,
                    "midi": 55,
                    "name": "G3",
                    "ticks": 95280,
                    "time": 311.14249400000006,
                    "velocity": 1
                },
                {
                    "duration": 0.21428549999995994,
                    "durationTicks": 60,
                    "midi": 60,
                    "name": "C4",
                    "ticks": 95280,
                    "time": 311.14249400000006,
                    "velocity": 1
                },
                {
                    "duration": 0.21428550000001678,
                    "durationTicks": 60,
                    "midi": 62,
                    "name": "D4",
                    "ticks": 95340,
                    "time": 311.3567795,
                    "velocity": 1
                },
                {
                    "duration": 0.21428550000001678,
                    "durationTicks": 60,
                    "midi": 57,
                    "name": "A3",
                    "ticks": 95340,
                    "time": 311.3567795,
                    "velocity": 1
                },
                {
                    "duration": 0.4285709999999767,
                    "durationTicks": 120,
                    "midi": 55,
                    "name": "G3",
                    "ticks": 95400,
                    "time": 311.57106500000003,
                    "velocity": 1
                },
                {
                    "duration": 0.4285709999999767,
                    "durationTicks": 120,
                    "midi": 60,
                    "name": "C4",
                    "ticks": 95400,
                    "time": 311.57106500000003,
                    "velocity": 1
                },
                {
                    "duration": 0.21428550000001678,
                    "durationTicks": 60,
                    "midi": 60,
                    "name": "C4",
                    "ticks": 95520,
                    "time": 311.999636,
                    "velocity": 1
                },
                {
                    "duration": 0.21428550000001678,
                    "durationTicks": 60,
                    "midi": 55,
                    "name": "G3",
                    "ticks": 95520,
                    "time": 311.999636,
                    "velocity": 1
                },
                {
                    "duration": 0.21428550000001678,
                    "durationTicks": 60,
                    "midi": 40,
                    "name": "E2",
                    "ticks": 95580,
                    "time": 312.2139215,
                    "velocity": 1
                },
                {
                    "duration": 0.21428549999995994,
                    "durationTicks": 60,
                    "midi": 40,
                    "name": "E2",
                    "ticks": 95640,
                    "time": 312.42820700000004,
                    "velocity": 1
                },
                {
                    "duration": 0.21428550000001678,
                    "durationTicks": 60,
                    "midi": 40,
                    "name": "E2",
                    "ticks": 95700,
                    "time": 312.6424925,
                    "velocity": 1
                },
                {
                    "duration": 0.21428550000001678,
                    "durationTicks": 60,
                    "midi": 55,
                    "name": "G3",
                    "ticks": 95760,
                    "time": 312.856778,
                    "velocity": 1
                },
                {
                    "duration": 0.21428550000001678,
                    "durationTicks": 60,
                    "midi": 60,
                    "name": "C4",
                    "ticks": 95760,
                    "time": 312.856778,
                    "velocity": 1
                },
                {
                    "duration": 0.21428550000001678,
                    "durationTicks": 60,
                    "midi": 62,
                    "name": "D4",
                    "ticks": 95820,
                    "time": 313.07106350000004,
                    "velocity": 1
                },
                {
                    "duration": 0.21428550000001678,
                    "durationTicks": 60,
                    "midi": 57,
                    "name": "A3",
                    "ticks": 95820,
                    "time": 313.07106350000004,
                    "velocity": 1
                },
                {
                    "duration": 0.4285709999999767,
                    "durationTicks": 120,
                    "midi": 55,
                    "name": "G3",
                    "ticks": 95880,
                    "time": 313.28534900000005,
                    "velocity": 1
                },
                {
                    "duration": 0.4285709999999767,
                    "durationTicks": 120,
                    "midi": 60,
                    "name": "C4",
                    "ticks": 95880,
                    "time": 313.28534900000005,
                    "velocity": 1
                },
                {
                    "duration": 0.21428550000001678,
                    "durationTicks": 60,
                    "midi": 62,
                    "name": "D4",
                    "ticks": 96000,
                    "time": 313.71392000000003,
                    "velocity": 1
                },
                {
                    "duration": 0.21428550000001678,
                    "durationTicks": 60,
                    "midi": 60,
                    "name": "C4",
                    "ticks": 96060,
                    "time": 313.92820550000005,
                    "velocity": 1
                },
                {
                    "duration": 0.21428549999995994,
                    "durationTicks": 60,
                    "midi": 57,
                    "name": "A3",
                    "ticks": 96120,
                    "time": 314.14249100000006,
                    "velocity": 1
                },
                {
                    "duration": 0.21428550000001678,
                    "durationTicks": 60,
                    "midi": 56,
                    "name": "G#3",
                    "ticks": 96180,
                    "time": 314.3567765,
                    "velocity": 1
                },
                {
                    "duration": 0.21428550000001678,
                    "durationTicks": 60,
                    "midi": 55,
                    "name": "G3",
                    "ticks": 96240,
                    "time": 314.57106200000004,
                    "velocity": 1
                },
                {
                    "duration": 0.21428549999995994,
                    "durationTicks": 60,
                    "midi": 52,
                    "name": "E3",
                    "ticks": 96300,
                    "time": 314.78534750000006,
                    "velocity": 1
                },
                {
                    "duration": 0.21428550000001678,
                    "durationTicks": 60,
                    "midi": 51,
                    "name": "D#3",
                    "ticks": 96360,
                    "time": 314.999633,
                    "velocity": 1
                },
                {
                    "duration": 0.21428550000001678,
                    "durationTicks": 60,
                    "midi": 50,
                    "name": "D3",
                    "ticks": 96420,
                    "time": 315.21391850000003,
                    "velocity": 1
                },
                {
                    "duration": 0.21428549999995994,
                    "durationTicks": 60,
                    "midi": 60,
                    "name": "C4",
                    "ticks": 96480,
                    "time": 315.42820400000005,
                    "velocity": 1
                },
                {
                    "duration": 0.21428549999995994,
                    "durationTicks": 60,
                    "midi": 55,
                    "name": "G3",
                    "ticks": 96480,
                    "time": 315.42820400000005,
                    "velocity": 1
                },
                {
                    "duration": 0.21428550000001678,
                    "durationTicks": 60,
                    "midi": 40,
                    "name": "E2",
                    "ticks": 96540,
                    "time": 315.6424895,
                    "velocity": 1
                },
                {
                    "duration": 0.21428550000001678,
                    "durationTicks": 60,
                    "midi": 40,
                    "name": "E2",
                    "ticks": 96600,
                    "time": 315.856775,
                    "velocity": 1
                },
                {
                    "duration": 0.21428549999995994,
                    "durationTicks": 60,
                    "midi": 40,
                    "name": "E2",
                    "ticks": 96660,
                    "time": 316.07106050000004,
                    "velocity": 1
                },
                {
                    "duration": 0.21428550000001678,
                    "durationTicks": 60,
                    "midi": 55,
                    "name": "G3",
                    "ticks": 96720,
                    "time": 316.285346,
                    "velocity": 1
                },
                {
                    "duration": 0.21428550000001678,
                    "durationTicks": 60,
                    "midi": 60,
                    "name": "C4",
                    "ticks": 96720,
                    "time": 316.285346,
                    "velocity": 1
                },
                {
                    "duration": 0.21428550000001678,
                    "durationTicks": 60,
                    "midi": 62,
                    "name": "D4",
                    "ticks": 96780,
                    "time": 316.4996315,
                    "velocity": 1
                },
                {
                    "duration": 0.21428550000001678,
                    "durationTicks": 60,
                    "midi": 57,
                    "name": "A3",
                    "ticks": 96780,
                    "time": 316.4996315,
                    "velocity": 1
                },
                {
                    "duration": 0.4285709999999767,
                    "durationTicks": 120,
                    "midi": 55,
                    "name": "G3",
                    "ticks": 96840,
                    "time": 316.71391700000004,
                    "velocity": 1
                },
                {
                    "duration": 0.4285709999999767,
                    "durationTicks": 120,
                    "midi": 60,
                    "name": "C4",
                    "ticks": 96840,
                    "time": 316.71391700000004,
                    "velocity": 1
                },
                {
                    "duration": 0.21428550000001678,
                    "durationTicks": 60,
                    "midi": 60,
                    "name": "C4",
                    "ticks": 96960,
                    "time": 317.142488,
                    "velocity": 1
                },
                {
                    "duration": 0.21428550000001678,
                    "durationTicks": 60,
                    "midi": 55,
                    "name": "G3",
                    "ticks": 96960,
                    "time": 317.142488,
                    "velocity": 1
                },
                {
                    "duration": 0.21428550000001678,
                    "durationTicks": 60,
                    "midi": 40,
                    "name": "E2",
                    "ticks": 97020,
                    "time": 317.35677350000003,
                    "velocity": 1
                },
                {
                    "duration": 0.21428550000001678,
                    "durationTicks": 60,
                    "midi": 40,
                    "name": "E2",
                    "ticks": 97080,
                    "time": 317.57105900000005,
                    "velocity": 1
                },
                {
                    "duration": 0.21428549999995994,
                    "durationTicks": 60,
                    "midi": 40,
                    "name": "E2",
                    "ticks": 97140,
                    "time": 317.78534450000006,
                    "velocity": 1
                },
                {
                    "duration": 0.21428550000001678,
                    "durationTicks": 60,
                    "midi": 55,
                    "name": "G3",
                    "ticks": 97200,
                    "time": 317.99963,
                    "velocity": 1
                },
                {
                    "duration": 0.21428550000001678,
                    "durationTicks": 60,
                    "midi": 60,
                    "name": "C4",
                    "ticks": 97200,
                    "time": 317.99963,
                    "velocity": 1
                },
                {
                    "duration": 0.21428550000001678,
                    "durationTicks": 60,
                    "midi": 62,
                    "name": "D4",
                    "ticks": 97260,
                    "time": 318.21391550000004,
                    "velocity": 1
                },
                {
                    "duration": 0.21428550000001678,
                    "durationTicks": 60,
                    "midi": 57,
                    "name": "A3",
                    "ticks": 97260,
                    "time": 318.21391550000004,
                    "velocity": 1
                },
                {
                    "duration": 0.4285709999999767,
                    "durationTicks": 120,
                    "midi": 55,
                    "name": "G3",
                    "ticks": 97320,
                    "time": 318.42820100000006,
                    "velocity": 1
                },
                {
                    "duration": 0.4285709999999767,
                    "durationTicks": 120,
                    "midi": 60,
                    "name": "C4",
                    "ticks": 97320,
                    "time": 318.42820100000006,
                    "velocity": 1
                },
                {
                    "duration": 0.21428550000001678,
                    "durationTicks": 60,
                    "midi": 60,
                    "name": "C4",
                    "ticks": 97440,
                    "time": 318.85677200000003,
                    "velocity": 1
                },
                {
                    "duration": 0.21428550000001678,
                    "durationTicks": 60,
                    "midi": 55,
                    "name": "G3",
                    "ticks": 97440,
                    "time": 318.85677200000003,
                    "velocity": 1
                },
                {
                    "duration": 0.21428549999995994,
                    "durationTicks": 60,
                    "midi": 40,
                    "name": "E2",
                    "ticks": 97500,
                    "time": 319.07105750000005,
                    "velocity": 1
                },
                {
                    "duration": 0.21428550000001678,
                    "durationTicks": 60,
                    "midi": 40,
                    "name": "E2",
                    "ticks": 97560,
                    "time": 319.285343,
                    "velocity": 1
                },
                {
                    "duration": 0.21428550000001678,
                    "durationTicks": 60,
                    "midi": 40,
                    "name": "E2",
                    "ticks": 97620,
                    "time": 319.49962850000003,
                    "velocity": 1
                },
                {
                    "duration": 0.21428549999995994,
                    "durationTicks": 60,
                    "midi": 55,
                    "name": "G3",
                    "ticks": 97680,
                    "time": 319.71391400000005,
                    "velocity": 1
                },
                {
                    "duration": 0.21428549999995994,
                    "durationTicks": 60,
                    "midi": 60,
                    "name": "C4",
                    "ticks": 97680,
                    "time": 319.71391400000005,
                    "velocity": 1
                },
                {
                    "duration": 0.21428550000001678,
                    "durationTicks": 60,
                    "midi": 62,
                    "name": "D4",
                    "ticks": 97740,
                    "time": 319.9281995,
                    "velocity": 1
                },
                {
                    "duration": 0.21428550000001678,
                    "durationTicks": 60,
                    "midi": 57,
                    "name": "A3",
                    "ticks": 97740,
                    "time": 319.9281995,
                    "velocity": 1
                },
                {
                    "duration": 0.4285709999999767,
                    "durationTicks": 120,
                    "midi": 55,
                    "name": "G3",
                    "ticks": 97800,
                    "time": 320.142485,
                    "velocity": 1
                },
                {
                    "duration": 0.4285709999999767,
                    "durationTicks": 120,
                    "midi": 60,
                    "name": "C4",
                    "ticks": 97800,
                    "time": 320.142485,
                    "velocity": 1
                },
                {
                    "duration": 0.21428550000001678,
                    "durationTicks": 60,
                    "midi": 64,
                    "name": "E4",
                    "ticks": 97920,
                    "time": 320.571056,
                    "velocity": 1
                },
                {
                    "duration": 0.21428550000001678,
                    "durationTicks": 60,
                    "midi": 62,
                    "name": "D4",
                    "ticks": 97980,
                    "time": 320.7853415,
                    "velocity": 1
                },
                {
                    "duration": 0.21428550000001678,
                    "durationTicks": 60,
                    "midi": 59,
                    "name": "B3",
                    "ticks": 98040,
                    "time": 320.99962700000003,
                    "velocity": 1
                },
                {
                    "duration": 0.21428550000001678,
                    "durationTicks": 60,
                    "midi": 62,
                    "name": "D4",
                    "ticks": 98100,
                    "time": 321.21391250000005,
                    "velocity": 1
                },
                {
                    "duration": 0.21428549999995994,
                    "durationTicks": 60,
                    "midi": 59,
                    "name": "B3",
                    "ticks": 98160,
                    "time": 321.42819800000007,
                    "velocity": 1
                },
                {
                    "duration": 0.21428550000001678,
                    "durationTicks": 60,
                    "midi": 58,
                    "name": "A#3",
                    "ticks": 98220,
                    "time": 321.6424835,
                    "velocity": 1
                },
                {
                    "duration": 0.21428550000001678,
                    "durationTicks": 60,
                    "midi": 57,
                    "name": "A3",
                    "ticks": 98280,
                    "time": 321.85676900000004,
                    "velocity": 1
                },
                {
                    "duration": 0.21428549999995994,
                    "durationTicks": 60,
                    "midi": 55,
                    "name": "G3",
                    "ticks": 98340,
                    "time": 322.07105450000006,
                    "velocity": 1
                },
                {
                    "duration": 0.21428550000001678,
                    "durationTicks": 60,
                    "midi": 64,
                    "name": "E4",
                    "ticks": 98400,
                    "time": 322.28534,
                    "velocity": 1
                },
                {
                    "duration": 0.21428550000001678,
                    "durationTicks": 60,
                    "midi": 62,
                    "name": "D4",
                    "ticks": 98460,
                    "time": 322.49962550000004,
                    "velocity": 1
                },
                {
                    "duration": 0.21428549999995994,
                    "durationTicks": 60,
                    "midi": 59,
                    "name": "B3",
                    "ticks": 98520,
                    "time": 322.71391100000005,
                    "velocity": 1
                },
                {
                    "duration": 0.21428550000001678,
                    "durationTicks": 60,
                    "midi": 62,
                    "name": "D4",
                    "ticks": 98580,
                    "time": 322.9281965,
                    "velocity": 1
                },
                {
                    "duration": 0.21428550000001678,
                    "durationTicks": 60,
                    "midi": 59,
                    "name": "B3",
                    "ticks": 98640,
                    "time": 323.14248200000003,
                    "velocity": 1
                },
                {
                    "duration": 0.21428549999995994,
                    "durationTicks": 60,
                    "midi": 58,
                    "name": "A#3",
                    "ticks": 98700,
                    "time": 323.35676750000005,
                    "velocity": 1
                },
                {
                    "duration": 0.21428550000001678,
                    "durationTicks": 60,
                    "midi": 57,
                    "name": "A3",
                    "ticks": 98760,
                    "time": 323.571053,
                    "velocity": 1
                },
                {
                    "duration": 0.21428550000001678,
                    "durationTicks": 60,
                    "midi": 55,
                    "name": "G3",
                    "ticks": 98820,
                    "time": 323.7853385,
                    "velocity": 1
                },
                {
                    "duration": 1.7142840000000206,
                    "durationTicks": 480,
                    "midi": 62,
                    "name": "D4",
                    "ticks": 98880,
                    "time": 323.99962400000004,
                    "velocity": 1
                },
                {
                    "duration": 1.7142840000000206,
                    "durationTicks": 480,
                    "midi": 55,
                    "name": "G3",
                    "ticks": 98880,
                    "time": 323.99962400000004,
                    "velocity": 1
                },
                {
                    "duration": 0.8571419999999534,
                    "durationTicks": 240,
                    "midi": 61,
                    "name": "C#4",
                    "ticks": 99360,
                    "time": 325.71390800000006,
                    "velocity": 1
                },
                {
                    "duration": 0.8571419999999534,
                    "durationTicks": 240,
                    "midi": 54,
                    "name": "F#3",
                    "ticks": 99360,
                    "time": 325.71390800000006,
                    "velocity": 1
                },
                {
                    "duration": 0.8571420000000103,
                    "durationTicks": 240,
                    "midi": 60,
                    "name": "C4",
                    "ticks": 99600,
                    "time": 326.57105,
                    "velocity": 1
                },
                {
                    "duration": 0.8571420000000103,
                    "durationTicks": 240,
                    "midi": 53,
                    "name": "F3",
                    "ticks": 99600,
                    "time": 326.57105,
                    "velocity": 1
                },
                {
                    "duration": 0.21428550000001678,
                    "durationTicks": 60,
                    "midi": 40,
                    "name": "E2",
                    "ticks": 99840,
                    "time": 327.428192,
                    "velocity": 1
                },
                {
                    "duration": 0.21428549999995994,
                    "durationTicks": 60,
                    "midi": 40,
                    "name": "E2",
                    "ticks": 99900,
                    "time": 327.64247750000004,
                    "velocity": 1
                },
                {
                    "duration": 0.21428550000001678,
                    "durationTicks": 60,
                    "midi": 40,
                    "name": "E2",
                    "ticks": 99960,
                    "time": 327.856763,
                    "velocity": 1
                },
                {
                    "duration": 0.21428550000001678,
                    "durationTicks": 60,
                    "midi": 40,
                    "name": "E2",
                    "ticks": 100020,
                    "time": 328.0710485,
                    "velocity": 1
                },
                {
                    "duration": 0.21428550000001678,
                    "durationTicks": 60,
                    "midi": 40,
                    "name": "E2",
                    "ticks": 100080,
                    "time": 328.28533400000003,
                    "velocity": 1
                },
                {
                    "duration": 0.21428550000001678,
                    "durationTicks": 60,
                    "midi": 40,
                    "name": "E2",
                    "ticks": 100140,
                    "time": 328.49961950000005,
                    "velocity": 1
                },
                {
                    "duration": 0.21428549999995994,
                    "durationTicks": 60,
                    "midi": 40,
                    "name": "E2",
                    "ticks": 100200,
                    "time": 328.71390500000007,
                    "velocity": 1
                },
                {
                    "duration": 0.21428550000001678,
                    "durationTicks": 60,
                    "midi": 40,
                    "name": "E2",
                    "ticks": 100260,
                    "time": 328.9281905,
                    "velocity": 1
                },
                {
                    "duration": 0.21428550000001678,
                    "durationTicks": 60,
                    "midi": 40,
                    "name": "E2",
                    "ticks": 100320,
                    "time": 329.14247600000004,
                    "velocity": 1
                },
                {
                    "duration": 0.21428549999995994,
                    "durationTicks": 60,
                    "midi": 40,
                    "name": "E2",
                    "ticks": 100380,
                    "time": 329.35676150000006,
                    "velocity": 1
                },
                {
                    "duration": 0.21428550000001678,
                    "durationTicks": 60,
                    "midi": 40,
                    "name": "E2",
                    "ticks": 100440,
                    "time": 329.571047,
                    "velocity": 1
                },
                {
                    "duration": 0.21428550000001678,
                    "durationTicks": 60,
                    "midi": 40,
                    "name": "E2",
                    "ticks": 100500,
                    "time": 329.78533250000004,
                    "velocity": 1
                },
                {
                    "duration": 0.21428549999995994,
                    "durationTicks": 60,
                    "midi": 40,
                    "name": "E2",
                    "ticks": 100560,
                    "time": 329.99961800000005,
                    "velocity": 1
                },
                {
                    "duration": 0.21428550000001678,
                    "durationTicks": 60,
                    "midi": 40,
                    "name": "E2",
                    "ticks": 100620,
                    "time": 330.2139035,
                    "velocity": 1
                },
                {
                    "duration": 0.21428550000001678,
                    "durationTicks": 60,
                    "midi": 40,
                    "name": "E2",
                    "ticks": 100680,
                    "time": 330.42818900000003,
                    "velocity": 1
                },
                {
                    "duration": 0.21428549999995994,
                    "durationTicks": 60,
                    "midi": 40,
                    "name": "E2",
                    "ticks": 100740,
                    "time": 330.64247450000005,
                    "velocity": 1
                },
                {
                    "duration": 1.7142840000000206,
                    "durationTicks": 480,
                    "midi": 62,
                    "name": "D4",
                    "ticks": 100800,
                    "time": 330.85676,
                    "velocity": 1
                },
                {
                    "duration": 1.7142840000000206,
                    "durationTicks": 480,
                    "midi": 55,
                    "name": "G3",
                    "ticks": 100800,
                    "time": 330.85676,
                    "velocity": 1
                },
                {
                    "duration": 0.8571420000000103,
                    "durationTicks": 240,
                    "midi": 61,
                    "name": "C#4",
                    "ticks": 101280,
                    "time": 332.57104400000003,
                    "velocity": 1
                },
                {
                    "duration": 0.8571420000000103,
                    "durationTicks": 240,
                    "midi": 54,
                    "name": "F#3",
                    "ticks": 101280,
                    "time": 332.57104400000003,
                    "velocity": 1
                },
                {
                    "duration": 0.8571420000000103,
                    "durationTicks": 240,
                    "midi": 60,
                    "name": "C4",
                    "ticks": 101520,
                    "time": 333.42818600000004,
                    "velocity": 1
                },
                {
                    "duration": 0.8571420000000103,
                    "durationTicks": 240,
                    "midi": 53,
                    "name": "F3",
                    "ticks": 101520,
                    "time": 333.42818600000004,
                    "velocity": 1
                },
                {
                    "duration": 0.21428549999995994,
                    "durationTicks": 60,
                    "midi": 40,
                    "name": "E2",
                    "ticks": 101760,
                    "time": 334.28532800000005,
                    "velocity": 1
                },
                {
                    "duration": 0.21428550000001678,
                    "durationTicks": 60,
                    "midi": 40,
                    "name": "E2",
                    "ticks": 101820,
                    "time": 334.4996135,
                    "velocity": 1
                },
                {
                    "duration": 0.21428550000001678,
                    "durationTicks": 60,
                    "midi": 40,
                    "name": "E2",
                    "ticks": 101880,
                    "time": 334.713899,
                    "velocity": 1
                },
                {
                    "duration": 0.21428549999995994,
                    "durationTicks": 60,
                    "midi": 40,
                    "name": "E2",
                    "ticks": 101940,
                    "time": 334.92818450000004,
                    "velocity": 1
                },
                {
                    "duration": 0.21428550000001678,
                    "durationTicks": 60,
                    "midi": 40,
                    "name": "E2",
                    "ticks": 102000,
                    "time": 335.14247,
                    "velocity": 1
                },
                {
                    "duration": 0.21428550000001678,
                    "durationTicks": 60,
                    "midi": 40,
                    "name": "E2",
                    "ticks": 102060,
                    "time": 335.3567555,
                    "velocity": 1
                },
                {
                    "duration": 0.21428550000001678,
                    "durationTicks": 60,
                    "midi": 40,
                    "name": "E2",
                    "ticks": 102120,
                    "time": 335.57104100000004,
                    "velocity": 1
                },
                {
                    "duration": 0.21428550000001678,
                    "durationTicks": 60,
                    "midi": 40,
                    "name": "E2",
                    "ticks": 102180,
                    "time": 335.78532650000005,
                    "velocity": 1
                },
                {
                    "duration": 0.21428549999995994,
                    "durationTicks": 60,
                    "midi": 40,
                    "name": "E2",
                    "ticks": 102240,
                    "time": 335.99961200000007,
                    "velocity": 1
                },
                {
                    "duration": 0.21428550000001678,
                    "durationTicks": 60,
                    "midi": 40,
                    "name": "E2",
                    "ticks": 102300,
                    "time": 336.21389750000003,
                    "velocity": 1
                },
                {
                    "duration": 0.21428550000001678,
                    "durationTicks": 60,
                    "midi": 40,
                    "name": "E2",
                    "ticks": 102360,
                    "time": 336.42818300000005,
                    "velocity": 1
                },
                {
                    "duration": 0.21428549999995994,
                    "durationTicks": 60,
                    "midi": 40,
                    "name": "E2",
                    "ticks": 102420,
                    "time": 336.64246850000006,
                    "velocity": 1
                },
                {
                    "duration": 0.21428550000001678,
                    "durationTicks": 60,
                    "midi": 40,
                    "name": "E2",
                    "ticks": 102480,
                    "time": 336.856754,
                    "velocity": 1
                },
                {
                    "duration": 0.21428550000001678,
                    "durationTicks": 60,
                    "midi": 40,
                    "name": "E2",
                    "ticks": 102540,
                    "time": 337.07103950000004,
                    "velocity": 1
                },
                {
                    "duration": 0.21428549999995994,
                    "durationTicks": 60,
                    "midi": 40,
                    "name": "E2",
                    "ticks": 102600,
                    "time": 337.28532500000006,
                    "velocity": 1
                },
                {
                    "duration": 0.21428550000001678,
                    "durationTicks": 60,
                    "midi": 40,
                    "name": "E2",
                    "ticks": 102660,
                    "time": 337.4996105,
                    "velocity": 1
                },
                {
                    "duration": 1.7142840000000206,
                    "durationTicks": 480,
                    "midi": 62,
                    "name": "D4",
                    "ticks": 102720,
                    "time": 337.71389600000003,
                    "velocity": 1
                },
                {
                    "duration": 1.7142840000000206,
                    "durationTicks": 480,
                    "midi": 55,
                    "name": "G3",
                    "ticks": 102720,
                    "time": 337.71389600000003,
                    "velocity": 1
                },
                {
                    "duration": 0.8571420000000103,
                    "durationTicks": 240,
                    "midi": 61,
                    "name": "C#4",
                    "ticks": 103200,
                    "time": 339.42818000000005,
                    "velocity": 1
                },
                {
                    "duration": 0.8571420000000103,
                    "durationTicks": 240,
                    "midi": 54,
                    "name": "F#3",
                    "ticks": 103200,
                    "time": 339.42818000000005,
                    "velocity": 1
                },
                {
                    "duration": 0.8571419999999534,
                    "durationTicks": 240,
                    "midi": 60,
                    "name": "C4",
                    "ticks": 103440,
                    "time": 340.28532200000006,
                    "velocity": 1
                },
                {
                    "duration": 0.8571419999999534,
                    "durationTicks": 240,
                    "midi": 53,
                    "name": "F3",
                    "ticks": 103440,
                    "time": 340.28532200000006,
                    "velocity": 1
                },
                {
                    "duration": 0.21428550000001678,
                    "durationTicks": 60,
                    "midi": 40,
                    "name": "E2",
                    "ticks": 103680,
                    "time": 341.142464,
                    "velocity": 1
                },
                {
                    "duration": 0.21428550000001678,
                    "durationTicks": 60,
                    "midi": 40,
                    "name": "E2",
                    "ticks": 103740,
                    "time": 341.35674950000003,
                    "velocity": 1
                },
                {
                    "duration": 0.21428549999995994,
                    "durationTicks": 60,
                    "midi": 40,
                    "name": "E2",
                    "ticks": 103800,
                    "time": 341.57103500000005,
                    "velocity": 1
                },
                {
                    "duration": 0.21428550000001678,
                    "durationTicks": 60,
                    "midi": 40,
                    "name": "E2",
                    "ticks": 103860,
                    "time": 341.7853205,
                    "velocity": 1
                },
                {
                    "duration": 0.21428550000001678,
                    "durationTicks": 60,
                    "midi": 40,
                    "name": "E2",
                    "ticks": 103920,
                    "time": 341.999606,
                    "velocity": 1
                },
                {
                    "duration": 0.21428549999995994,
                    "durationTicks": 60,
                    "midi": 40,
                    "name": "E2",
                    "ticks": 103980,
                    "time": 342.21389150000005,
                    "velocity": 1
                },
                {
                    "duration": 0.21428550000001678,
                    "durationTicks": 60,
                    "midi": 40,
                    "name": "E2",
                    "ticks": 104040,
                    "time": 342.428177,
                    "velocity": 1
                },
                {
                    "duration": 0.21428550000001678,
                    "durationTicks": 60,
                    "midi": 40,
                    "name": "E2",
                    "ticks": 104100,
                    "time": 342.6424625,
                    "velocity": 1
                },
                {
                    "duration": 0.21428550000001678,
                    "durationTicks": 60,
                    "midi": 40,
                    "name": "E2",
                    "ticks": 104160,
                    "time": 342.85674800000004,
                    "velocity": 1
                },
                {
                    "duration": 0.21428549999995994,
                    "durationTicks": 60,
                    "midi": 40,
                    "name": "E2",
                    "ticks": 104220,
                    "time": 343.07103350000006,
                    "velocity": 1
                },
                {
                    "duration": 0.21428550000001678,
                    "durationTicks": 60,
                    "midi": 40,
                    "name": "E2",
                    "ticks": 104280,
                    "time": 343.285319,
                    "velocity": 1
                },
                {
                    "duration": 0.21428550000001678,
                    "durationTicks": 60,
                    "midi": 40,
                    "name": "E2",
                    "ticks": 104340,
                    "time": 343.49960450000003,
                    "velocity": 1
                },
                {
                    "duration": 0.21428550000001678,
                    "durationTicks": 60,
                    "midi": 40,
                    "name": "E2",
                    "ticks": 104400,
                    "time": 343.71389000000005,
                    "velocity": 1
                },
                {
                    "duration": 0.21428549999995994,
                    "durationTicks": 60,
                    "midi": 40,
                    "name": "E2",
                    "ticks": 104460,
                    "time": 343.92817550000007,
                    "velocity": 1
                },
                {
                    "duration": 0.21428550000001678,
                    "durationTicks": 60,
                    "midi": 40,
                    "name": "E2",
                    "ticks": 104520,
                    "time": 344.142461,
                    "velocity": 1
                },
                {
                    "duration": 0.21428550000001678,
                    "durationTicks": 60,
                    "midi": 40,
                    "name": "E2",
                    "ticks": 104580,
                    "time": 344.35674650000004,
                    "velocity": 1
                },
                {
                    "duration": 1.7142839999999637,
                    "durationTicks": 480,
                    "midi": 62,
                    "name": "D4",
                    "ticks": 104640,
                    "time": 344.57103200000006,
                    "velocity": 1
                },
                {
                    "duration": 1.7142839999999637,
                    "durationTicks": 480,
                    "midi": 55,
                    "name": "G3",
                    "ticks": 104640,
                    "time": 344.57103200000006,
                    "velocity": 1
                },
                {
                    "duration": 0.8571420000000103,
                    "durationTicks": 240,
                    "midi": 61,
                    "name": "C#4",
                    "ticks": 105120,
                    "time": 346.285316,
                    "velocity": 1
                },
                {
                    "duration": 0.8571420000000103,
                    "durationTicks": 240,
                    "midi": 54,
                    "name": "F#3",
                    "ticks": 105120,
                    "time": 346.285316,
                    "velocity": 1
                },
                {
                    "duration": 0.8571420000000103,
                    "durationTicks": 240,
                    "midi": 60,
                    "name": "C4",
                    "ticks": 105360,
                    "time": 347.14245800000003,
                    "velocity": 1
                },
                {
                    "duration": 0.8571420000000103,
                    "durationTicks": 240,
                    "midi": 53,
                    "name": "F3",
                    "ticks": 105360,
                    "time": 347.14245800000003,
                    "velocity": 1
                },
                {
                    "duration": 0.21428550000001678,
                    "durationTicks": 60,
                    "midi": 59,
                    "name": "B3",
                    "ticks": 105600,
                    "time": 347.99960000000004,
                    "velocity": 1
                },
                {
                    "duration": 0.21428550000001678,
                    "durationTicks": 60,
                    "midi": 52,
                    "name": "E3",
                    "ticks": 105600,
                    "time": 347.99960000000004,
                    "velocity": 1
                },
                {
                    "duration": 0.21428549999995994,
                    "durationTicks": 60,
                    "midi": 40,
                    "name": "E2",
                    "ticks": 105660,
                    "time": 348.21388550000006,
                    "velocity": 1
                },
                {
                    "duration": 0.21428550000001678,
                    "durationTicks": 60,
                    "midi": 40,
                    "name": "E2",
                    "ticks": 105720,
                    "time": 348.428171,
                    "velocity": 1
                },
                {
                    "duration": 0.21428550000001678,
                    "durationTicks": 60,
                    "midi": 40,
                    "name": "E2",
                    "ticks": 105780,
                    "time": 348.64245650000004,
                    "velocity": 1
                },
                {
                    "duration": 0.21428549999995994,
                    "durationTicks": 60,
                    "midi": 40,
                    "name": "E2",
                    "ticks": 105840,
                    "time": 348.85674200000005,
                    "velocity": 1
                },
                {
                    "duration": 0.21428550000001678,
                    "durationTicks": 60,
                    "midi": 40,
                    "name": "E2",
                    "ticks": 105900,
                    "time": 349.0710275,
                    "velocity": 1
                },
                {
                    "duration": 0.21428550000001678,
                    "durationTicks": 60,
                    "midi": 40,
                    "name": "E2",
                    "ticks": 105960,
                    "time": 349.28531300000003,
                    "velocity": 1
                },
                {
                    "duration": 0.21428549999995994,
                    "durationTicks": 60,
                    "midi": 40,
                    "name": "E2",
                    "ticks": 106020,
                    "time": 349.49959850000005,
                    "velocity": 1
                },
                {
                    "duration": 0.21428550000001678,
                    "durationTicks": 60,
                    "midi": 40,
                    "name": "E2",
                    "ticks": 106080,
                    "time": 349.713884,
                    "velocity": 1
                },
                {
                    "duration": 0.21428550000001678,
                    "durationTicks": 60,
                    "midi": 40,
                    "name": "E2",
                    "ticks": 106140,
                    "time": 349.9281695,
                    "velocity": 1
                },
                {
                    "duration": 0.21428550000001678,
                    "durationTicks": 60,
                    "midi": 40,
                    "name": "E2",
                    "ticks": 106200,
                    "time": 350.14245500000004,
                    "velocity": 1
                },
                {
                    "duration": 0.21428549999995994,
                    "durationTicks": 60,
                    "midi": 40,
                    "name": "E2",
                    "ticks": 106260,
                    "time": 350.35674050000006,
                    "velocity": 1
                },
                {
                    "duration": 0.21428550000001678,
                    "durationTicks": 60,
                    "midi": 40,
                    "name": "E2",
                    "ticks": 106320,
                    "time": 350.571026,
                    "velocity": 1
                },
                {
                    "duration": 0.21428550000001678,
                    "durationTicks": 60,
                    "midi": 40,
                    "name": "E2",
                    "ticks": 106380,
                    "time": 350.78531150000003,
                    "velocity": 1
                },
                {
                    "duration": 0.21428550000001678,
                    "durationTicks": 60,
                    "midi": 40,
                    "name": "E2",
                    "ticks": 106440,
                    "time": 350.99959700000005,
                    "velocity": 1
                },
                {
                    "duration": 0.21428549999995994,
                    "durationTicks": 60,
                    "midi": 62,
                    "name": "D4",
                    "ticks": 106500,
                    "time": 351.21388250000007,
                    "velocity": 1
                },
                {
                    "duration": 0.21428549999995994,
                    "durationTicks": 60,
                    "midi": 55,
                    "name": "G3",
                    "ticks": 106500,
                    "time": 351.21388250000007,
                    "velocity": 1
                },
                {
                    "duration": 0.21428550000001678,
                    "durationTicks": 60,
                    "midi": 61,
                    "name": "C#4",
                    "ticks": 106560,
                    "time": 351.428168,
                    "velocity": 1
                },
                {
                    "duration": 0.21428550000001678,
                    "durationTicks": 60,
                    "midi": 54,
                    "name": "F#3",
                    "ticks": 106560,
                    "time": 351.428168,
                    "velocity": 1
                },
                {
                    "duration": 0.21428550000001678,
                    "durationTicks": 60,
                    "midi": 40,
                    "name": "E2",
                    "ticks": 106620,
                    "time": 351.64245350000004,
                    "velocity": 1
                },
                {
                    "duration": 0.21428549999995994,
                    "durationTicks": 60,
                    "midi": 40,
                    "name": "E2",
                    "ticks": 106680,
                    "time": 351.85673900000006,
                    "velocity": 1
                },
                {
                    "duration": 0.21428550000001678,
                    "durationTicks": 60,
                    "midi": 54,
                    "name": "F#3",
                    "ticks": 106740,
                    "time": 352.0710245,
                    "velocity": 1
                },
                {
                    "duration": 0.21428550000001678,
                    "durationTicks": 60,
                    "midi": 61,
                    "name": "C#4",
                    "ticks": 106740,
                    "time": 352.0710245,
                    "velocity": 1
                },
                {
                    "duration": 0.21428550000001678,
                    "durationTicks": 60,
                    "midi": 53,
                    "name": "F3",
                    "ticks": 106800,
                    "time": 352.28531000000004,
                    "velocity": 1
                },
                {
                    "duration": 0.21428550000001678,
                    "durationTicks": 60,
                    "midi": 60,
                    "name": "C4",
                    "ticks": 106800,
                    "time": 352.28531000000004,
                    "velocity": 1
                },
                {
                    "duration": 0.21428549999995994,
                    "durationTicks": 60,
                    "midi": 40,
                    "name": "E2",
                    "ticks": 106860,
                    "time": 352.49959550000005,
                    "velocity": 1
                },
                {
                    "duration": 0.21428550000001678,
                    "durationTicks": 60,
                    "midi": 40,
                    "name": "E2",
                    "ticks": 106920,
                    "time": 352.713881,
                    "velocity": 1
                },
                {
                    "duration": 0.21428550000001678,
                    "durationTicks": 60,
                    "midi": 60,
                    "name": "C4",
                    "ticks": 106980,
                    "time": 352.92816650000003,
                    "velocity": 1
                },
                {
                    "duration": 0.21428550000001678,
                    "durationTicks": 60,
                    "midi": 53,
                    "name": "F3",
                    "ticks": 106980,
                    "time": 352.92816650000003,
                    "velocity": 1
                },
                {
                    "duration": 0.21428549999995994,
                    "durationTicks": 60,
                    "midi": 47,
                    "name": "B2",
                    "ticks": 107040,
                    "time": 353.14245200000005,
                    "velocity": 1
                },
                {
                    "duration": 0.21428549999995994,
                    "durationTicks": 60,
                    "midi": 40,
                    "name": "E2",
                    "ticks": 107040,
                    "time": 353.14245200000005,
                    "velocity": 1
                },
                {
                    "duration": 0.21428550000001678,
                    "durationTicks": 60,
                    "midi": 40,
                    "name": "E2",
                    "ticks": 107100,
                    "time": 353.3567375,
                    "velocity": 1
                },
                {
                    "duration": 0.21428550000001678,
                    "durationTicks": 60,
                    "midi": 40,
                    "name": "E2",
                    "ticks": 107160,
                    "time": 353.571023,
                    "velocity": 1
                },
                {
                    "duration": 0.21428549999995994,
                    "durationTicks": 60,
                    "midi": 40,
                    "name": "E2",
                    "ticks": 107220,
                    "time": 353.78530850000004,
                    "velocity": 1
                },
                {
                    "duration": 0.21428550000001678,
                    "durationTicks": 60,
                    "midi": 40,
                    "name": "E2",
                    "ticks": 107280,
                    "time": 353.999594,
                    "velocity": 1
                },
                {
                    "duration": 0.21428550000001678,
                    "durationTicks": 60,
                    "midi": 40,
                    "name": "E2",
                    "ticks": 107340,
                    "time": 354.2138795,
                    "velocity": 1
                },
                {
                    "duration": 0.21428550000001678,
                    "durationTicks": 60,
                    "midi": 40,
                    "name": "E2",
                    "ticks": 107400,
                    "time": 354.42816500000004,
                    "velocity": 1
                },
                {
                    "duration": 0.21428550000001678,
                    "durationTicks": 60,
                    "midi": 55,
                    "name": "G3",
                    "ticks": 107460,
                    "time": 354.64245050000005,
                    "velocity": 1
                },
                {
                    "duration": 0.21428550000001678,
                    "durationTicks": 60,
                    "midi": 62,
                    "name": "D4",
                    "ticks": 107460,
                    "time": 354.64245050000005,
                    "velocity": 1
                },
                {
                    "duration": 0.21428549999995994,
                    "durationTicks": 60,
                    "midi": 61,
                    "name": "C#4",
                    "ticks": 107520,
                    "time": 354.85673600000007,
                    "velocity": 1
                },
                {
                    "duration": 0.21428549999995994,
                    "durationTicks": 60,
                    "midi": 54,
                    "name": "F#3",
                    "ticks": 107520,
                    "time": 354.85673600000007,
                    "velocity": 1
                },
                {
                    "duration": 0.21428550000001678,
                    "durationTicks": 60,
                    "midi": 40,
                    "name": "E2",
                    "ticks": 107580,
                    "time": 355.07102150000003,
                    "velocity": 1
                },
                {
                    "duration": 0.21428550000001678,
                    "durationTicks": 60,
                    "midi": 40,
                    "name": "E2",
                    "ticks": 107640,
                    "time": 355.28530700000005,
                    "velocity": 1
                },
                {
                    "duration": 0.21428549999995994,
                    "durationTicks": 60,
                    "midi": 54,
                    "name": "F#3",
                    "ticks": 107700,
                    "time": 355.49959250000006,
                    "velocity": 1
                },
                {
                    "duration": 0.21428549999995994,
                    "durationTicks": 60,
                    "midi": 61,
                    "name": "C#4",
                    "ticks": 107700,
                    "time": 355.49959250000006,
                    "velocity": 1
                },
                {
                    "duration": 0.21428550000001678,
                    "durationTicks": 60,
                    "midi": 57,
                    "name": "A3",
                    "ticks": 107760,
                    "time": 355.713878,
                    "velocity": 1
                },
                {
                    "duration": 0.21428550000001678,
                    "durationTicks": 60,
                    "midi": 50,
                    "name": "D3",
                    "ticks": 107760,
                    "time": 355.713878,
                    "velocity": 1
                },
                {
                    "duration": 0.21428550000001678,
                    "durationTicks": 60,
                    "midi": 40,
                    "name": "E2",
                    "ticks": 107820,
                    "time": 355.92816350000004,
                    "velocity": 1
                },
                {
                    "duration": 0.21428549999995994,
                    "durationTicks": 60,
                    "midi": 40,
                    "name": "E2",
                    "ticks": 107880,
                    "time": 356.14244900000006,
                    "velocity": 1
                },
                {
                    "duration": 0.21428550000001678,
                    "durationTicks": 60,
                    "midi": 50,
                    "name": "D3",
                    "ticks": 107940,
                    "time": 356.3567345,
                    "velocity": 1
                },
                {
                    "duration": 0.21428550000001678,
                    "durationTicks": 60,
                    "midi": 57,
                    "name": "A3",
                    "ticks": 107940,
                    "time": 356.3567345,
                    "velocity": 1
                },
                {
                    "duration": 0.21428550000001678,
                    "durationTicks": 60,
                    "midi": 47,
                    "name": "B2",
                    "ticks": 108000,
                    "time": 356.57102000000003,
                    "velocity": 1
                },
                {
                    "duration": 0.21428550000001678,
                    "durationTicks": 60,
                    "midi": 40,
                    "name": "E2",
                    "ticks": 108000,
                    "time": 356.57102000000003,
                    "velocity": 1
                },
                {
                    "duration": 0.21428549999995994,
                    "durationTicks": 60,
                    "midi": 40,
                    "name": "E2",
                    "ticks": 108060,
                    "time": 356.78530550000005,
                    "velocity": 1
                },
                {
                    "duration": 0.21428550000001678,
                    "durationTicks": 60,
                    "midi": 40,
                    "name": "E2",
                    "ticks": 108120,
                    "time": 356.999591,
                    "velocity": 1
                },
                {
                    "duration": 0.21428550000001678,
                    "durationTicks": 60,
                    "midi": 40,
                    "name": "E2",
                    "ticks": 108180,
                    "time": 357.2138765,
                    "velocity": 1
                },
                {
                    "duration": 0.21428549999995994,
                    "durationTicks": 60,
                    "midi": 40,
                    "name": "E2",
                    "ticks": 108240,
                    "time": 357.42816200000004,
                    "velocity": 1
                },
                {
                    "duration": 0.21428550000001678,
                    "durationTicks": 60,
                    "midi": 40,
                    "name": "E2",
                    "ticks": 108300,
                    "time": 357.6424475,
                    "velocity": 1
                },
                {
                    "duration": 0.21428550000001678,
                    "durationTicks": 60,
                    "midi": 40,
                    "name": "E2",
                    "ticks": 108360,
                    "time": 357.856733,
                    "velocity": 1
                },
                {
                    "duration": 0.21428550000001678,
                    "durationTicks": 60,
                    "midi": 55,
                    "name": "G3",
                    "ticks": 108420,
                    "time": 358.07101850000004,
                    "velocity": 1
                },
                {
                    "duration": 0.21428550000001678,
                    "durationTicks": 60,
                    "midi": 62,
                    "name": "D4",
                    "ticks": 108420,
                    "time": 358.07101850000004,
                    "velocity": 1
                },
                {
                    "duration": 0.21428550000001678,
                    "durationTicks": 60,
                    "midi": 61,
                    "name": "C#4",
                    "ticks": 108480,
                    "time": 358.28530400000005,
                    "velocity": 1
                },
                {
                    "duration": 0.21428550000001678,
                    "durationTicks": 60,
                    "midi": 54,
                    "name": "F#3",
                    "ticks": 108480,
                    "time": 358.28530400000005,
                    "velocity": 1
                },
                {
                    "duration": 0.21428549999995994,
                    "durationTicks": 60,
                    "midi": 40,
                    "name": "E2",
                    "ticks": 108540,
                    "time": 358.49958950000007,
                    "velocity": 1
                },
                {
                    "duration": 0.21428550000001678,
                    "durationTicks": 60,
                    "midi": 40,
                    "name": "E2",
                    "ticks": 108600,
                    "time": 358.71387500000003,
                    "velocity": 1
                },
                {
                    "duration": 0.21428550000001678,
                    "durationTicks": 60,
                    "midi": 54,
                    "name": "F#3",
                    "ticks": 108660,
                    "time": 358.92816050000005,
                    "velocity": 1
                },
                {
                    "duration": 0.21428550000001678,
                    "durationTicks": 60,
                    "midi": 61,
                    "name": "C#4",
                    "ticks": 108660,
                    "time": 358.92816050000005,
                    "velocity": 1
                },
                {
                    "duration": 0.21428549999995994,
                    "durationTicks": 60,
                    "midi": 53,
                    "name": "F3",
                    "ticks": 108720,
                    "time": 359.14244600000006,
                    "velocity": 1
                },
                {
                    "duration": 0.21428549999995994,
                    "durationTicks": 60,
                    "midi": 60,
                    "name": "C4",
                    "ticks": 108720,
                    "time": 359.14244600000006,
                    "velocity": 1
                },
                {
                    "duration": 0.21428550000001678,
                    "durationTicks": 60,
                    "midi": 40,
                    "name": "E2",
                    "ticks": 108780,
                    "time": 359.3567315,
                    "velocity": 1
                },
                {
                    "duration": 0.21428550000001678,
                    "durationTicks": 60,
                    "midi": 40,
                    "name": "E2",
                    "ticks": 108840,
                    "time": 359.57101700000004,
                    "velocity": 1
                },
                {
                    "duration": 0.21428549999995994,
                    "durationTicks": 60,
                    "midi": 60,
                    "name": "C4",
                    "ticks": 108900,
                    "time": 359.78530250000006,
                    "velocity": 1
                },
                {
                    "duration": 0.21428549999995994,
                    "durationTicks": 60,
                    "midi": 53,
                    "name": "F3",
                    "ticks": 108900,
                    "time": 359.78530250000006,
                    "velocity": 1
                },
                {
                    "duration": 0.21428550000001678,
                    "durationTicks": 60,
                    "midi": 47,
                    "name": "B2",
                    "ticks": 108960,
                    "time": 359.999588,
                    "velocity": 1
                },
                {
                    "duration": 0.21428550000001678,
                    "durationTicks": 60,
                    "midi": 40,
                    "name": "E2",
                    "ticks": 108960,
                    "time": 359.999588,
                    "velocity": 1
                },
                {
                    "duration": 0.21428550000001678,
                    "durationTicks": 60,
                    "midi": 40,
                    "name": "E2",
                    "ticks": 109020,
                    "time": 360.21387350000003,
                    "velocity": 1
                },
                {
                    "duration": 0.21428549999995994,
                    "durationTicks": 60,
                    "midi": 40,
                    "name": "E2",
                    "ticks": 109080,
                    "time": 360.42815900000005,
                    "velocity": 1
                },
                {
                    "duration": 0.21428550000001678,
                    "durationTicks": 60,
                    "midi": 40,
                    "name": "E2",
                    "ticks": 109140,
                    "time": 360.6424445,
                    "velocity": 1
                },
                {
                    "duration": 0.21428550000001678,
                    "durationTicks": 60,
                    "midi": 40,
                    "name": "E2",
                    "ticks": 109200,
                    "time": 360.85673,
                    "velocity": 1
                },
                {
                    "duration": 0.21428549999995994,
                    "durationTicks": 60,
                    "midi": 40,
                    "name": "E2",
                    "ticks": 109260,
                    "time": 361.07101550000004,
                    "velocity": 1
                },
                {
                    "duration": 0.21428550000001678,
                    "durationTicks": 60,
                    "midi": 40,
                    "name": "E2",
                    "ticks": 109320,
                    "time": 361.285301,
                    "velocity": 1
                },
                {
                    "duration": 0.21428550000001678,
                    "durationTicks": 60,
                    "midi": 55,
                    "name": "G3",
                    "ticks": 109380,
                    "time": 361.4995865,
                    "velocity": 1
                },
                {
                    "duration": 0.21428550000001678,
                    "durationTicks": 60,
                    "midi": 62,
                    "name": "D4",
                    "ticks": 109380,
                    "time": 361.4995865,
                    "velocity": 1
                },
                {
                    "duration": 0.21428550000001678,
                    "durationTicks": 60,
                    "midi": 61,
                    "name": "C#4",
                    "ticks": 109440,
                    "time": 361.71387200000004,
                    "velocity": 1
                },
                {
                    "duration": 0.21428550000001678,
                    "durationTicks": 60,
                    "midi": 54,
                    "name": "F#3",
                    "ticks": 109440,
                    "time": 361.71387200000004,
                    "velocity": 1
                },
                {
                    "duration": 0.21428550000001678,
                    "durationTicks": 60,
                    "midi": 40,
                    "name": "E2",
                    "ticks": 109500,
                    "time": 361.92815750000005,
                    "velocity": 1
                },
                {
                    "duration": 0.21428549999995994,
                    "durationTicks": 60,
                    "midi": 40,
                    "name": "E2",
                    "ticks": 109560,
                    "time": 362.14244300000007,
                    "velocity": 1
                },
                {
                    "duration": 0.21428550000001678,
                    "durationTicks": 60,
                    "midi": 54,
                    "name": "F#3",
                    "ticks": 109620,
                    "time": 362.35672850000003,
                    "velocity": 1
                },
                {
                    "duration": 0.21428550000001678,
                    "durationTicks": 60,
                    "midi": 61,
                    "name": "C#4",
                    "ticks": 109620,
                    "time": 362.35672850000003,
                    "velocity": 1
                },
                {
                    "duration": 0.21428550000001678,
                    "durationTicks": 60,
                    "midi": 57,
                    "name": "A3",
                    "ticks": 109680,
                    "time": 362.57101400000005,
                    "velocity": 1
                },
                {
                    "duration": 0.21428550000001678,
                    "durationTicks": 60,
                    "midi": 50,
                    "name": "D3",
                    "ticks": 109680,
                    "time": 362.57101400000005,
                    "velocity": 1
                },
                {
                    "duration": 0.21428549999995994,
                    "durationTicks": 60,
                    "midi": 40,
                    "name": "E2",
                    "ticks": 109740,
                    "time": 362.78529950000006,
                    "velocity": 1
                },
                {
                    "duration": 0.21428550000001678,
                    "durationTicks": 60,
                    "midi": 40,
                    "name": "E2",
                    "ticks": 109800,
                    "time": 362.999585,
                    "velocity": 1
                },
                {
                    "duration": 0.21428550000001678,
                    "durationTicks": 60,
                    "midi": 50,
                    "name": "D3",
                    "ticks": 109860,
                    "time": 363.21387050000004,
                    "velocity": 1
                },
                {
                    "duration": 0.21428550000001678,
                    "durationTicks": 60,
                    "midi": 57,
                    "name": "A3",
                    "ticks": 109860,
                    "time": 363.21387050000004,
                    "velocity": 1
                },
                {
                    "duration": 0.21428549999995994,
                    "durationTicks": 60,
                    "midi": 47,
                    "name": "B2",
                    "ticks": 109920,
                    "time": 363.42815600000006,
                    "velocity": 1
                },
                {
                    "duration": 0.21428549999995994,
                    "durationTicks": 60,
                    "midi": 40,
                    "name": "E2",
                    "ticks": 109920,
                    "time": 363.42815600000006,
                    "velocity": 1
                },
                {
                    "duration": 0.21428550000001678,
                    "durationTicks": 60,
                    "midi": 40,
                    "name": "E2",
                    "ticks": 109980,
                    "time": 363.6424415,
                    "velocity": 1
                },
                {
                    "duration": 0.21428550000001678,
                    "durationTicks": 60,
                    "midi": 40,
                    "name": "E2",
                    "ticks": 110040,
                    "time": 363.85672700000003,
                    "velocity": 1
                },
                {
                    "duration": 0.21428549999995994,
                    "durationTicks": 60,
                    "midi": 40,
                    "name": "E2",
                    "ticks": 110100,
                    "time": 364.07101250000005,
                    "velocity": 1
                },
                {
                    "duration": 0.21428550000001678,
                    "durationTicks": 60,
                    "midi": 40,
                    "name": "E2",
                    "ticks": 110160,
                    "time": 364.285298,
                    "velocity": 1
                },
                {
                    "duration": 0.21428550000001678,
                    "durationTicks": 60,
                    "midi": 40,
                    "name": "E2",
                    "ticks": 110220,
                    "time": 364.4995835,
                    "velocity": 1
                },
                {
                    "duration": 0.21428549999995994,
                    "durationTicks": 60,
                    "midi": 40,
                    "name": "E2",
                    "ticks": 110280,
                    "time": 364.71386900000005,
                    "velocity": 1
                },
                {
                    "duration": 0.21428550000001678,
                    "durationTicks": 60,
                    "midi": 55,
                    "name": "G3",
                    "ticks": 110340,
                    "time": 364.9281545,
                    "velocity": 1
                },
                {
                    "duration": 0.21428550000001678,
                    "durationTicks": 60,
                    "midi": 62,
                    "name": "D4",
                    "ticks": 110340,
                    "time": 364.9281545,
                    "velocity": 1
                },
                {
                    "duration": 0.21428550000001678,
                    "durationTicks": 60,
                    "midi": 61,
                    "name": "C#4",
                    "ticks": 110400,
                    "time": 365.14244,
                    "velocity": 1
                },
                {
                    "duration": 0.21428550000001678,
                    "durationTicks": 60,
                    "midi": 54,
                    "name": "F#3",
                    "ticks": 110400,
                    "time": 365.14244,
                    "velocity": 1
                },
                {
                    "duration": 0.21428550000001678,
                    "durationTicks": 60,
                    "midi": 40,
                    "name": "E2",
                    "ticks": 110460,
                    "time": 365.35672550000004,
                    "velocity": 1
                },
                {
                    "duration": 0.21428550000001678,
                    "durationTicks": 60,
                    "midi": 40,
                    "name": "E2",
                    "ticks": 110520,
                    "time": 365.57101100000006,
                    "velocity": 1
                },
                {
                    "duration": 0.21428549999995994,
                    "durationTicks": 60,
                    "midi": 54,
                    "name": "F#3",
                    "ticks": 110580,
                    "time": 365.7852965000001,
                    "velocity": 1
                },
                {
                    "duration": 0.21428549999995994,
                    "durationTicks": 60,
                    "midi": 61,
                    "name": "C#4",
                    "ticks": 110580,
                    "time": 365.7852965000001,
                    "velocity": 1
                },
                {
                    "duration": 0.21428550000001678,
                    "durationTicks": 60,
                    "midi": 53,
                    "name": "F3",
                    "ticks": 110640,
                    "time": 365.99958200000003,
                    "velocity": 1
                },
                {
                    "duration": 0.21428550000001678,
                    "durationTicks": 60,
                    "midi": 60,
                    "name": "C4",
                    "ticks": 110640,
                    "time": 365.99958200000003,
                    "velocity": 1
                },
                {
                    "duration": 0.21428550000001678,
                    "durationTicks": 60,
                    "midi": 40,
                    "name": "E2",
                    "ticks": 110700,
                    "time": 366.21386750000005,
                    "velocity": 1
                },
                {
                    "duration": 0.21428549999995994,
                    "durationTicks": 60,
                    "midi": 40,
                    "name": "E2",
                    "ticks": 110760,
                    "time": 366.42815300000007,
                    "velocity": 1
                },
                {
                    "duration": 0.21428550000001678,
                    "durationTicks": 60,
                    "midi": 60,
                    "name": "C4",
                    "ticks": 110820,
                    "time": 366.6424385,
                    "velocity": 1
                },
                {
                    "duration": 0.21428550000001678,
                    "durationTicks": 60,
                    "midi": 53,
                    "name": "F3",
                    "ticks": 110820,
                    "time": 366.6424385,
                    "velocity": 1
                },
                {
                    "duration": 0.21428550000001678,
                    "durationTicks": 60,
                    "midi": 47,
                    "name": "B2",
                    "ticks": 110880,
                    "time": 366.85672400000004,
                    "velocity": 1
                },
                {
                    "duration": 0.21428550000001678,
                    "durationTicks": 60,
                    "midi": 40,
                    "name": "E2",
                    "ticks": 110880,
                    "time": 366.85672400000004,
                    "velocity": 1
                },
                {
                    "duration": 0.21428549999995994,
                    "durationTicks": 60,
                    "midi": 40,
                    "name": "E2",
                    "ticks": 110940,
                    "time": 367.07100950000006,
                    "velocity": 1
                },
                {
                    "duration": 0.21428550000001678,
                    "durationTicks": 60,
                    "midi": 40,
                    "name": "E2",
                    "ticks": 111000,
                    "time": 367.285295,
                    "velocity": 1
                },
                {
                    "duration": 0.21428550000001678,
                    "durationTicks": 60,
                    "midi": 40,
                    "name": "E2",
                    "ticks": 111060,
                    "time": 367.49958050000004,
                    "velocity": 1
                },
                {
                    "duration": 0.21428549999995994,
                    "durationTicks": 60,
                    "midi": 40,
                    "name": "E2",
                    "ticks": 111120,
                    "time": 367.71386600000005,
                    "velocity": 1
                },
                {
                    "duration": 0.21428550000001678,
                    "durationTicks": 60,
                    "midi": 40,
                    "name": "E2",
                    "ticks": 111180,
                    "time": 367.9281515,
                    "velocity": 1
                },
                {
                    "duration": 0.21428550000001678,
                    "durationTicks": 60,
                    "midi": 40,
                    "name": "E2",
                    "ticks": 111240,
                    "time": 368.14243700000003,
                    "velocity": 1
                },
                {
                    "duration": 0.21428549999995994,
                    "durationTicks": 60,
                    "midi": 55,
                    "name": "G3",
                    "ticks": 111300,
                    "time": 368.35672250000005,
                    "velocity": 1
                },
                {
                    "duration": 0.21428549999995994,
                    "durationTicks": 60,
                    "midi": 62,
                    "name": "D4",
                    "ticks": 111300,
                    "time": 368.35672250000005,
                    "velocity": 1
                },
                {
                    "duration": 0.21428550000001678,
                    "durationTicks": 60,
                    "midi": 61,
                    "name": "C#4",
                    "ticks": 111360,
                    "time": 368.571008,
                    "velocity": 1
                },
                {
                    "duration": 0.21428550000001678,
                    "durationTicks": 60,
                    "midi": 54,
                    "name": "F#3",
                    "ticks": 111360,
                    "time": 368.571008,
                    "velocity": 1
                },
                {
                    "duration": 0.21428550000001678,
                    "durationTicks": 60,
                    "midi": 40,
                    "name": "E2",
                    "ticks": 111420,
                    "time": 368.7852935,
                    "velocity": 1
                },
                {
                    "duration": 0.21428550000001678,
                    "durationTicks": 60,
                    "midi": 40,
                    "name": "E2",
                    "ticks": 111480,
                    "time": 368.99957900000004,
                    "velocity": 1
                },
                {
                    "duration": 0.21428550000001678,
                    "durationTicks": 60,
                    "midi": 54,
                    "name": "F#3",
                    "ticks": 111540,
                    "time": 369.21386450000006,
                    "velocity": 1
                },
                {
                    "duration": 0.21428550000001678,
                    "durationTicks": 60,
                    "midi": 61,
                    "name": "C#4",
                    "ticks": 111540,
                    "time": 369.21386450000006,
                    "velocity": 1
                },
                {
                    "duration": 0.21428549999995994,
                    "durationTicks": 60,
                    "midi": 57,
                    "name": "A3",
                    "ticks": 111600,
                    "time": 369.4281500000001,
                    "velocity": 1
                },
                {
                    "duration": 0.21428549999995994,
                    "durationTicks": 60,
                    "midi": 50,
                    "name": "D3",
                    "ticks": 111600,
                    "time": 369.4281500000001,
                    "velocity": 1
                },
                {
                    "duration": 0.21428550000001678,
                    "durationTicks": 60,
                    "midi": 40,
                    "name": "E2",
                    "ticks": 111660,
                    "time": 369.64243550000003,
                    "velocity": 1
                },
                {
                    "duration": 0.21428550000001678,
                    "durationTicks": 60,
                    "midi": 40,
                    "name": "E2",
                    "ticks": 111720,
                    "time": 369.85672100000005,
                    "velocity": 1
                },
                {
                    "duration": 0.21428549999995994,
                    "durationTicks": 60,
                    "midi": 50,
                    "name": "D3",
                    "ticks": 111780,
                    "time": 370.07100650000007,
                    "velocity": 1
                },
                {
                    "duration": 0.21428549999995994,
                    "durationTicks": 60,
                    "midi": 57,
                    "name": "A3",
                    "ticks": 111780,
                    "time": 370.07100650000007,
                    "velocity": 1
                },
                {
                    "duration": 0.21428550000001678,
                    "durationTicks": 60,
                    "midi": 47,
                    "name": "B2",
                    "ticks": 111840,
                    "time": 370.285292,
                    "velocity": 1
                },
                {
                    "duration": 0.21428550000001678,
                    "durationTicks": 60,
                    "midi": 40,
                    "name": "E2",
                    "ticks": 111840,
                    "time": 370.285292,
                    "velocity": 1
                },
                {
                    "duration": 0.21428550000001678,
                    "durationTicks": 60,
                    "midi": 40,
                    "name": "E2",
                    "ticks": 111900,
                    "time": 370.49957750000004,
                    "velocity": 1
                },
                {
                    "duration": 0.21428549999995994,
                    "durationTicks": 60,
                    "midi": 40,
                    "name": "E2",
                    "ticks": 111960,
                    "time": 370.71386300000006,
                    "velocity": 1
                },
                {
                    "duration": 0.21428550000001678,
                    "durationTicks": 60,
                    "midi": 40,
                    "name": "E2",
                    "ticks": 112020,
                    "time": 370.9281485,
                    "velocity": 1
                },
                {
                    "duration": 0.21428550000001678,
                    "durationTicks": 60,
                    "midi": 40,
                    "name": "E2",
                    "ticks": 112080,
                    "time": 371.14243400000004,
                    "velocity": 1
                },
                {
                    "duration": 0.21428549999995994,
                    "durationTicks": 60,
                    "midi": 40,
                    "name": "E2",
                    "ticks": 112140,
                    "time": 371.35671950000005,
                    "velocity": 1
                },
                {
                    "duration": 0.21428550000001678,
                    "durationTicks": 60,
                    "midi": 40,
                    "name": "E2",
                    "ticks": 112200,
                    "time": 371.571005,
                    "velocity": 1
                },
                {
                    "duration": 0.21428550000001678,
                    "durationTicks": 60,
                    "midi": 55,
                    "name": "G3",
                    "ticks": 112260,
                    "time": 371.78529050000003,
                    "velocity": 1
                },
                {
                    "duration": 0.21428550000001678,
                    "durationTicks": 60,
                    "midi": 62,
                    "name": "D4",
                    "ticks": 112260,
                    "time": 371.78529050000003,
                    "velocity": 1
                },
                {
                    "duration": 0.21428549999995994,
                    "durationTicks": 60,
                    "midi": 61,
                    "name": "C#4",
                    "ticks": 112320,
                    "time": 371.99957600000005,
                    "velocity": 1
                },
                {
                    "duration": 0.21428549999995994,
                    "durationTicks": 60,
                    "midi": 54,
                    "name": "F#3",
                    "ticks": 112320,
                    "time": 371.99957600000005,
                    "velocity": 1
                },
                {
                    "duration": 0.21428550000001678,
                    "durationTicks": 60,
                    "midi": 40,
                    "name": "E2",
                    "ticks": 112380,
                    "time": 372.2138615,
                    "velocity": 1
                },
                {
                    "duration": 0.21428550000001678,
                    "durationTicks": 60,
                    "midi": 40,
                    "name": "E2",
                    "ticks": 112440,
                    "time": 372.428147,
                    "velocity": 1
                },
                {
                    "duration": 0.21428550000001678,
                    "durationTicks": 60,
                    "midi": 54,
                    "name": "F#3",
                    "ticks": 112500,
                    "time": 372.64243250000004,
                    "velocity": 1
                },
                {
                    "duration": 0.21428550000001678,
                    "durationTicks": 60,
                    "midi": 61,
                    "name": "C#4",
                    "ticks": 112500,
                    "time": 372.64243250000004,
                    "velocity": 1
                },
                {
                    "duration": 0.21428549999995994,
                    "durationTicks": 60,
                    "midi": 53,
                    "name": "F3",
                    "ticks": 112560,
                    "time": 372.85671800000006,
                    "velocity": 1
                },
                {
                    "duration": 0.21428549999995994,
                    "durationTicks": 60,
                    "midi": 60,
                    "name": "C4",
                    "ticks": 112560,
                    "time": 372.85671800000006,
                    "velocity": 1
                },
                {
                    "duration": 0.21428550000001678,
                    "durationTicks": 60,
                    "midi": 40,
                    "name": "E2",
                    "ticks": 112620,
                    "time": 373.0710035,
                    "velocity": 1
                },
                {
                    "duration": 0.21428550000001678,
                    "durationTicks": 60,
                    "midi": 40,
                    "name": "E2",
                    "ticks": 112680,
                    "time": 373.28528900000003,
                    "velocity": 1
                },
                {
                    "duration": 0.21428550000001678,
                    "durationTicks": 60,
                    "midi": 60,
                    "name": "C4",
                    "ticks": 112740,
                    "time": 373.49957450000005,
                    "velocity": 1
                },
                {
                    "duration": 0.21428550000001678,
                    "durationTicks": 60,
                    "midi": 53,
                    "name": "F3",
                    "ticks": 112740,
                    "time": 373.49957450000005,
                    "velocity": 1
                },
                {
                    "duration": 0.21428549999995994,
                    "durationTicks": 60,
                    "midi": 47,
                    "name": "B2",
                    "ticks": 112800,
                    "time": 373.71386000000007,
                    "velocity": 1
                },
                {
                    "duration": 0.21428549999995994,
                    "durationTicks": 60,
                    "midi": 40,
                    "name": "E2",
                    "ticks": 112800,
                    "time": 373.71386000000007,
                    "velocity": 1
                },
                {
                    "duration": 0.21428550000001678,
                    "durationTicks": 60,
                    "midi": 40,
                    "name": "E2",
                    "ticks": 112860,
                    "time": 373.9281455,
                    "velocity": 1
                },
                {
                    "duration": 0.21428550000001678,
                    "durationTicks": 60,
                    "midi": 40,
                    "name": "E2",
                    "ticks": 112920,
                    "time": 374.14243100000004,
                    "velocity": 1
                },
                {
                    "duration": 0.21428549999995994,
                    "durationTicks": 60,
                    "midi": 40,
                    "name": "E2",
                    "ticks": 112980,
                    "time": 374.35671650000006,
                    "velocity": 1
                },
                {
                    "duration": 0.21428550000001678,
                    "durationTicks": 60,
                    "midi": 40,
                    "name": "E2",
                    "ticks": 113040,
                    "time": 374.571002,
                    "velocity": 1
                },
                {
                    "duration": 0.21428550000001678,
                    "durationTicks": 60,
                    "midi": 40,
                    "name": "E2",
                    "ticks": 113100,
                    "time": 374.78528750000004,
                    "velocity": 1
                },
                {
                    "duration": 0.21428549999995994,
                    "durationTicks": 60,
                    "midi": 40,
                    "name": "E2",
                    "ticks": 113160,
                    "time": 374.99957300000005,
                    "velocity": 1
                },
                {
                    "duration": 0.21428550000001678,
                    "durationTicks": 60,
                    "midi": 55,
                    "name": "G3",
                    "ticks": 113220,
                    "time": 375.2138585,
                    "velocity": 1
                },
                {
                    "duration": 0.21428550000001678,
                    "durationTicks": 60,
                    "midi": 62,
                    "name": "D4",
                    "ticks": 113220,
                    "time": 375.2138585,
                    "velocity": 1
                },
                {
                    "duration": 0.21428550000001678,
                    "durationTicks": 60,
                    "midi": 61,
                    "name": "C#4",
                    "ticks": 113280,
                    "time": 375.42814400000003,
                    "velocity": 1
                },
                {
                    "duration": 0.21428550000001678,
                    "durationTicks": 60,
                    "midi": 54,
                    "name": "F#3",
                    "ticks": 113280,
                    "time": 375.42814400000003,
                    "velocity": 1
                },
                {
                    "duration": 0.21428549999995994,
                    "durationTicks": 60,
                    "midi": 40,
                    "name": "E2",
                    "ticks": 113340,
                    "time": 375.64242950000005,
                    "velocity": 1
                },
                {
                    "duration": 0.21428550000001678,
                    "durationTicks": 60,
                    "midi": 40,
                    "name": "E2",
                    "ticks": 113400,
                    "time": 375.856715,
                    "velocity": 1
                },
                {
                    "duration": 0.21428550000001678,
                    "durationTicks": 60,
                    "midi": 54,
                    "name": "F#3",
                    "ticks": 113460,
                    "time": 376.0710005,
                    "velocity": 1
                },
                {
                    "duration": 0.21428550000001678,
                    "durationTicks": 60,
                    "midi": 61,
                    "name": "C#4",
                    "ticks": 113460,
                    "time": 376.0710005,
                    "velocity": 1
                },
                {
                    "duration": 0.21428550000001678,
                    "durationTicks": 60,
                    "midi": 57,
                    "name": "A3",
                    "ticks": 113520,
                    "time": 376.28528600000004,
                    "velocity": 1
                },
                {
                    "duration": 0.21428550000001678,
                    "durationTicks": 60,
                    "midi": 50,
                    "name": "D3",
                    "ticks": 113520,
                    "time": 376.28528600000004,
                    "velocity": 1
                },
                {
                    "duration": 0.21428549999995994,
                    "durationTicks": 60,
                    "midi": 40,
                    "name": "E2",
                    "ticks": 113580,
                    "time": 376.49957150000006,
                    "velocity": 1
                },
                {
                    "duration": 0.21428550000001678,
                    "durationTicks": 60,
                    "midi": 40,
                    "name": "E2",
                    "ticks": 113640,
                    "time": 376.713857,
                    "velocity": 1
                },
                {
                    "duration": 0.21428550000001678,
                    "durationTicks": 60,
                    "midi": 50,
                    "name": "D3",
                    "ticks": 113700,
                    "time": 376.92814250000004,
                    "velocity": 1
                },
                {
                    "duration": 0.21428550000001678,
                    "durationTicks": 60,
                    "midi": 57,
                    "name": "A3",
                    "ticks": 113700,
                    "time": 376.92814250000004,
                    "velocity": 1
                },
                {
                    "duration": 0.21428550000001678,
                    "durationTicks": 60,
                    "midi": 52,
                    "name": "E3",
                    "ticks": 113760,
                    "time": 377.14242800000005,
                    "velocity": 1
                },
                {
                    "duration": 0.21428550000001678,
                    "durationTicks": 60,
                    "midi": 59,
                    "name": "B3",
                    "ticks": 113760,
                    "time": 377.14242800000005,
                    "velocity": 1
                },
                {
                    "duration": 0.21428549999995994,
                    "durationTicks": 60,
                    "midi": 40,
                    "name": "E2",
                    "ticks": 113820,
                    "time": 377.35671350000007,
                    "velocity": 1
                },
                {
                    "duration": 0.21428550000001678,
                    "durationTicks": 60,
                    "midi": 40,
                    "name": "E2",
                    "ticks": 113880,
                    "time": 377.57099900000003,
                    "velocity": 1
                },
                {
                    "duration": 0.21428550000001678,
                    "durationTicks": 60,
                    "midi": 40,
                    "name": "E2",
                    "ticks": 113940,
                    "time": 377.78528450000005,
                    "velocity": 1
                },
                {
                    "duration": 0.21428549999995994,
                    "durationTicks": 60,
                    "midi": 40,
                    "name": "E2",
                    "ticks": 114000,
                    "time": 377.99957000000006,
                    "velocity": 1
                },
                {
                    "duration": 0.21428550000001678,
                    "durationTicks": 60,
                    "midi": 40,
                    "name": "E2",
                    "ticks": 114060,
                    "time": 378.2138555,
                    "velocity": 1
                },
                {
                    "duration": 0.4285709999999767,
                    "durationTicks": 120,
                    "midi": 52,
                    "name": "E3",
                    "ticks": 114120,
                    "time": 378.42814100000004,
                    "velocity": 1
                },
                {
                    "duration": 0.21428550000001678,
                    "durationTicks": 60,
                    "midi": 40,
                    "name": "E2",
                    "ticks": 114240,
                    "time": 378.856712,
                    "velocity": 1
                },
                {
                    "duration": 0.21428550000001678,
                    "durationTicks": 60,
                    "midi": 40,
                    "name": "E2",
                    "ticks": 114300,
                    "time": 379.07099750000003,
                    "velocity": 1
                },
                {
                    "duration": 0.21428549999995994,
                    "durationTicks": 60,
                    "midi": 47,
                    "name": "B2",
                    "ticks": 114360,
                    "time": 379.28528300000005,
                    "velocity": 1
                },
                {
                    "duration": 0.21428549999995994,
                    "durationTicks": 60,
                    "midi": 40,
                    "name": "E2",
                    "ticks": 114360,
                    "time": 379.28528300000005,
                    "velocity": 1
                },
                {
                    "duration": 0.21428550000001678,
                    "durationTicks": 60,
                    "midi": 40,
                    "name": "E2",
                    "ticks": 114420,
                    "time": 379.4995685,
                    "velocity": 1
                },
                {
                    "duration": 0.21428550000001678,
                    "durationTicks": 60,
                    "midi": 40,
                    "name": "E2",
                    "ticks": 114480,
                    "time": 379.713854,
                    "velocity": 1
                },
                {
                    "duration": 0.21428549999995994,
                    "durationTicks": 60,
                    "midi": 50,
                    "name": "D3",
                    "ticks": 114540,
                    "time": 379.92813950000004,
                    "velocity": 1
                },
                {
                    "duration": 0.21428549999995994,
                    "durationTicks": 60,
                    "midi": 43,
                    "name": "G2",
                    "ticks": 114540,
                    "time": 379.92813950000004,
                    "velocity": 1
                },
                {
                    "duration": 0.21428550000007363,
                    "durationTicks": 60,
                    "midi": 40,
                    "name": "E2",
                    "ticks": 114600,
                    "time": 380.142425,
                    "velocity": 1
                },
                {
                    "duration": 0.21428549999995994,
                    "durationTicks": 60,
                    "midi": 40,
                    "name": "E2",
                    "ticks": 114660,
                    "time": 380.3567105000001,
                    "velocity": 1
                },
                {
                    "duration": 0.21428550000001678,
                    "durationTicks": 60,
                    "midi": 49,
                    "name": "C#3",
                    "ticks": 114720,
                    "time": 380.57099600000004,
                    "velocity": 1
                },
                {
                    "duration": 0.21428550000001678,
                    "durationTicks": 60,
                    "midi": 42,
                    "name": "F#2",
                    "ticks": 114720,
                    "time": 380.57099600000004,
                    "velocity": 1
                },
                {
                    "duration": 0.21428550000001678,
                    "durationTicks": 60,
                    "midi": 40,
                    "name": "E2",
                    "ticks": 114780,
                    "time": 380.78528150000005,
                    "velocity": 1
                },
                {
                    "duration": 0.21428549999995994,
                    "durationTicks": 60,
                    "midi": 40,
                    "name": "E2",
                    "ticks": 114840,
                    "time": 380.99956700000007,
                    "velocity": 1
                },
                {
                    "duration": 0.21428550000001678,
                    "durationTicks": 60,
                    "midi": 50,
                    "name": "D3",
                    "ticks": 114900,
                    "time": 381.21385250000003,
                    "velocity": 1
                },
                {
                    "duration": 0.21428550000001678,
                    "durationTicks": 60,
                    "midi": 43,
                    "name": "G2",
                    "ticks": 114900,
                    "time": 381.21385250000003,
                    "velocity": 1
                },
                {
                    "duration": 0.21428550000001678,
                    "durationTicks": 60,
                    "midi": 40,
                    "name": "E2",
                    "ticks": 114960,
                    "time": 381.42813800000005,
                    "velocity": 1
                },
                {
                    "duration": 0.21428549999995994,
                    "durationTicks": 60,
                    "midi": 40,
                    "name": "E2",
                    "ticks": 115020,
                    "time": 381.64242350000006,
                    "velocity": 1
                },
                {
                    "duration": 0.21428550000001678,
                    "durationTicks": 60,
                    "midi": 52,
                    "name": "E3",
                    "ticks": 115080,
                    "time": 381.856709,
                    "velocity": 1
                },
                {
                    "duration": 0.21428550000001678,
                    "durationTicks": 60,
                    "midi": 45,
                    "name": "A2",
                    "ticks": 115080,
                    "time": 381.856709,
                    "velocity": 1
                },
                {
                    "duration": 0.21428550000001678,
                    "durationTicks": 60,
                    "midi": 43,
                    "name": "G2",
                    "ticks": 115140,
                    "time": 382.07099450000004,
                    "velocity": 1
                },
                {
                    "duration": 0.21428550000001678,
                    "durationTicks": 60,
                    "midi": 50,
                    "name": "D3",
                    "ticks": 115140,
                    "time": 382.07099450000004,
                    "velocity": 1
                },
                {
                    "duration": 0.21428549999995994,
                    "durationTicks": 60,
                    "midi": 40,
                    "name": "E2",
                    "ticks": 115200,
                    "time": 382.28528000000006,
                    "velocity": 1
                },
                {
                    "duration": 0.21428550000001678,
                    "durationTicks": 60,
                    "midi": 40,
                    "name": "E2",
                    "ticks": 115260,
                    "time": 382.4995655,
                    "velocity": 1
                },
                {
                    "duration": 0.21428550000001678,
                    "durationTicks": 60,
                    "midi": 47,
                    "name": "B2",
                    "ticks": 115320,
                    "time": 382.71385100000003,
                    "velocity": 1
                },
                {
                    "duration": 0.21428550000001678,
                    "durationTicks": 60,
                    "midi": 40,
                    "name": "E2",
                    "ticks": 115320,
                    "time": 382.71385100000003,
                    "velocity": 1
                },
                {
                    "duration": 0.21428549999995994,
                    "durationTicks": 60,
                    "midi": 40,
                    "name": "E2",
                    "ticks": 115380,
                    "time": 382.92813650000005,
                    "velocity": 1
                },
                {
                    "duration": 0.21428550000001678,
                    "durationTicks": 60,
                    "midi": 40,
                    "name": "E2",
                    "ticks": 115440,
                    "time": 383.142422,
                    "velocity": 1
                },
                {
                    "duration": 0.21428550000001678,
                    "durationTicks": 60,
                    "midi": 50,
                    "name": "D3",
                    "ticks": 115500,
                    "time": 383.3567075,
                    "velocity": 1
                },
                {
                    "duration": 0.21428550000001678,
                    "durationTicks": 60,
                    "midi": 43,
                    "name": "G2",
                    "ticks": 115500,
                    "time": 383.3567075,
                    "velocity": 1
                },
                {
                    "duration": 0.21428549999995994,
                    "durationTicks": 60,
                    "midi": 40,
                    "name": "E2",
                    "ticks": 115560,
                    "time": 383.57099300000004,
                    "velocity": 1
                },
                {
                    "duration": 0.21428550000007363,
                    "durationTicks": 60,
                    "midi": 40,
                    "name": "E2",
                    "ticks": 115620,
                    "time": 383.7852785,
                    "velocity": 1
                },
                {
                    "duration": 0.21428549999995994,
                    "durationTicks": 60,
                    "midi": 49,
                    "name": "C#3",
                    "ticks": 115680,
                    "time": 383.9995640000001,
                    "velocity": 1
                },
                {
                    "duration": 0.21428549999995994,
                    "durationTicks": 60,
                    "midi": 42,
                    "name": "F#2",
                    "ticks": 115680,
                    "time": 383.9995640000001,
                    "velocity": 1
                },
                {
                    "duration": 0.21428549999995994,
                    "durationTicks": 60,
                    "midi": 40,
                    "name": "E2",
                    "ticks": 115740,
                    "time": 384.21384950000004,
                    "velocity": 1
                },
                {
                    "duration": 0.21428550000007363,
                    "durationTicks": 60,
                    "midi": 40,
                    "name": "E2",
                    "ticks": 115800,
                    "time": 384.428135,
                    "velocity": 1
                },
                {
                    "duration": 0.21428549999995994,
                    "durationTicks": 60,
                    "midi": 50,
                    "name": "D3",
                    "ticks": 115860,
                    "time": 384.64242050000007,
                    "velocity": 1
                },
                {
                    "duration": 0.21428549999995994,
                    "durationTicks": 60,
                    "midi": 43,
                    "name": "G2",
                    "ticks": 115860,
                    "time": 384.64242050000007,
                    "velocity": 1
                },
                {
                    "duration": 0.21428550000001678,
                    "durationTicks": 60,
                    "midi": 40,
                    "name": "E2",
                    "ticks": 115920,
                    "time": 384.85670600000003,
                    "velocity": 1
                },
                {
                    "duration": 0.21428550000001678,
                    "durationTicks": 60,
                    "midi": 40,
                    "name": "E2",
                    "ticks": 115980,
                    "time": 385.07099150000005,
                    "velocity": 1
                },
                {
                    "duration": 0.21428549999995994,
                    "durationTicks": 60,
                    "midi": 52,
                    "name": "E3",
                    "ticks": 116040,
                    "time": 385.28527700000006,
                    "velocity": 1
                },
                {
                    "duration": 0.21428549999995994,
                    "durationTicks": 60,
                    "midi": 45,
                    "name": "A2",
                    "ticks": 116040,
                    "time": 385.28527700000006,
                    "velocity": 1
                },
                {
                    "duration": 0.21428550000001678,
                    "durationTicks": 60,
                    "midi": 43,
                    "name": "G2",
                    "ticks": 116100,
                    "time": 385.4995625,
                    "velocity": 1
                },
                {
                    "duration": 0.21428550000001678,
                    "durationTicks": 60,
                    "midi": 50,
                    "name": "D3",
                    "ticks": 116100,
                    "time": 385.4995625,
                    "velocity": 1
                },
                {
                    "duration": 0.21428550000001678,
                    "durationTicks": 60,
                    "midi": 40,
                    "name": "E2",
                    "ticks": 116160,
                    "time": 385.71384800000004,
                    "velocity": 1
                },
                {
                    "duration": 0.21428549999995994,
                    "durationTicks": 60,
                    "midi": 40,
                    "name": "E2",
                    "ticks": 116220,
                    "time": 385.92813350000006,
                    "velocity": 1
                },
                {
                    "duration": 0.21428550000001678,
                    "durationTicks": 60,
                    "midi": 47,
                    "name": "B2",
                    "ticks": 116280,
                    "time": 386.142419,
                    "velocity": 1
                },
                {
                    "duration": 0.21428550000001678,
                    "durationTicks": 60,
                    "midi": 40,
                    "name": "E2",
                    "ticks": 116280,
                    "time": 386.142419,
                    "velocity": 1
                },
                {
                    "duration": 0.21428550000001678,
                    "durationTicks": 60,
                    "midi": 40,
                    "name": "E2",
                    "ticks": 116340,
                    "time": 386.35670450000003,
                    "velocity": 1
                },
                {
                    "duration": 0.21428549999995994,
                    "durationTicks": 60,
                    "midi": 40,
                    "name": "E2",
                    "ticks": 116400,
                    "time": 386.57099000000005,
                    "velocity": 1
                },
                {
                    "duration": 0.21428550000001678,
                    "durationTicks": 60,
                    "midi": 50,
                    "name": "D3",
                    "ticks": 116460,
                    "time": 386.7852755,
                    "velocity": 1
                },
                {
                    "duration": 0.21428550000001678,
                    "durationTicks": 60,
                    "midi": 43,
                    "name": "G2",
                    "ticks": 116460,
                    "time": 386.7852755,
                    "velocity": 1
                },
                {
                    "duration": 0.21428550000001678,
                    "durationTicks": 60,
                    "midi": 40,
                    "name": "E2",
                    "ticks": 116520,
                    "time": 386.999561,
                    "velocity": 1
                },
                {
                    "duration": 0.21428549999995994,
                    "durationTicks": 60,
                    "midi": 40,
                    "name": "E2",
                    "ticks": 116580,
                    "time": 387.21384650000005,
                    "velocity": 1
                },
                {
                    "duration": 0.21428550000007363,
                    "durationTicks": 60,
                    "midi": 49,
                    "name": "C#3",
                    "ticks": 116640,
                    "time": 387.428132,
                    "velocity": 1
                },
                {
                    "duration": 0.21428550000007363,
                    "durationTicks": 60,
                    "midi": 42,
                    "name": "F#2",
                    "ticks": 116640,
                    "time": 387.428132,
                    "velocity": 1
                },
                {
                    "duration": 0.21428549999995994,
                    "durationTicks": 60,
                    "midi": 40,
                    "name": "E2",
                    "ticks": 116700,
                    "time": 387.6424175000001,
                    "velocity": 1
                },
                {
                    "duration": 0.21428549999995994,
                    "durationTicks": 60,
                    "midi": 40,
                    "name": "E2",
                    "ticks": 116760,
                    "time": 387.85670300000004,
                    "velocity": 1
                },
                {
                    "duration": 0.21428550000007363,
                    "durationTicks": 60,
                    "midi": 50,
                    "name": "D3",
                    "ticks": 116820,
                    "time": 388.0709885,
                    "velocity": 1
                },
                {
                    "duration": 0.21428550000007363,
                    "durationTicks": 60,
                    "midi": 43,
                    "name": "G2",
                    "ticks": 116820,
                    "time": 388.0709885,
                    "velocity": 1
                },
                {
                    "duration": 0.21428549999995994,
                    "durationTicks": 60,
                    "midi": 40,
                    "name": "E2",
                    "ticks": 116880,
                    "time": 388.2852740000001,
                    "velocity": 1
                },
                {
                    "duration": 0.21428550000001678,
                    "durationTicks": 60,
                    "midi": 40,
                    "name": "E2",
                    "ticks": 116940,
                    "time": 388.49955950000003,
                    "velocity": 1
                },
                {
                    "duration": 0.21428550000001678,
                    "durationTicks": 60,
                    "midi": 52,
                    "name": "E3",
                    "ticks": 117000,
                    "time": 388.71384500000005,
                    "velocity": 1
                },
                {
                    "duration": 0.21428550000001678,
                    "durationTicks": 60,
                    "midi": 45,
                    "name": "A2",
                    "ticks": 117000,
                    "time": 388.71384500000005,
                    "velocity": 1
                },
                {
                    "duration": 0.21428549999995994,
                    "durationTicks": 60,
                    "midi": 43,
                    "name": "G2",
                    "ticks": 117060,
                    "time": 388.92813050000007,
                    "velocity": 1
                },
                {
                    "duration": 0.21428549999995994,
                    "durationTicks": 60,
                    "midi": 50,
                    "name": "D3",
                    "ticks": 117060,
                    "time": 388.92813050000007,
                    "velocity": 1
                },
                {
                    "duration": 0.21428550000001678,
                    "durationTicks": 60,
                    "midi": 40,
                    "name": "E2",
                    "ticks": 117120,
                    "time": 389.142416,
                    "velocity": 1
                },
                {
                    "duration": 0.21428550000001678,
                    "durationTicks": 60,
                    "midi": 40,
                    "name": "E2",
                    "ticks": 117180,
                    "time": 389.35670150000004,
                    "velocity": 1
                },
                {
                    "duration": 0.21428549999995994,
                    "durationTicks": 60,
                    "midi": 47,
                    "name": "B2",
                    "ticks": 117240,
                    "time": 389.57098700000006,
                    "velocity": 1
                },
                {
                    "duration": 0.21428549999995994,
                    "durationTicks": 60,
                    "midi": 40,
                    "name": "E2",
                    "ticks": 117240,
                    "time": 389.57098700000006,
                    "velocity": 1
                },
                {
                    "duration": 0.21428550000001678,
                    "durationTicks": 60,
                    "midi": 40,
                    "name": "E2",
                    "ticks": 117300,
                    "time": 389.7852725,
                    "velocity": 1
                },
                {
                    "duration": 0.21428550000001678,
                    "durationTicks": 60,
                    "midi": 40,
                    "name": "E2",
                    "ticks": 117360,
                    "time": 389.99955800000004,
                    "velocity": 1
                },
                {
                    "duration": 0.21428549999995994,
                    "durationTicks": 60,
                    "midi": 50,
                    "name": "D3",
                    "ticks": 117420,
                    "time": 390.21384350000005,
                    "velocity": 1
                },
                {
                    "duration": 0.21428549999995994,
                    "durationTicks": 60,
                    "midi": 43,
                    "name": "G2",
                    "ticks": 117420,
                    "time": 390.21384350000005,
                    "velocity": 1
                },
                {
                    "duration": 0.21428550000001678,
                    "durationTicks": 60,
                    "midi": 40,
                    "name": "E2",
                    "ticks": 117480,
                    "time": 390.428129,
                    "velocity": 1
                },
                {
                    "duration": 0.21428550000001678,
                    "durationTicks": 60,
                    "midi": 40,
                    "name": "E2",
                    "ticks": 117540,
                    "time": 390.64241450000003,
                    "velocity": 1
                },
                {
                    "duration": 0.21428549999995994,
                    "durationTicks": 60,
                    "midi": 49,
                    "name": "C#3",
                    "ticks": 117600,
                    "time": 390.85670000000005,
                    "velocity": 1
                },
                {
                    "duration": 0.21428549999995994,
                    "durationTicks": 60,
                    "midi": 42,
                    "name": "F#2",
                    "ticks": 117600,
                    "time": 390.85670000000005,
                    "velocity": 1
                },
                {
                    "duration": 0.21428550000007363,
                    "durationTicks": 60,
                    "midi": 40,
                    "name": "E2",
                    "ticks": 117660,
                    "time": 391.0709855,
                    "velocity": 1
                },
                {
                    "duration": 0.21428549999995994,
                    "durationTicks": 60,
                    "midi": 40,
                    "name": "E2",
                    "ticks": 117720,
                    "time": 391.2852710000001,
                    "velocity": 1
                },
                {
                    "duration": 0.21428549999995994,
                    "durationTicks": 60,
                    "midi": 50,
                    "name": "D3",
                    "ticks": 117780,
                    "time": 391.49955650000004,
                    "velocity": 1
                },
                {
                    "duration": 0.21428549999995994,
                    "durationTicks": 60,
                    "midi": 43,
                    "name": "G2",
                    "ticks": 117780,
                    "time": 391.49955650000004,
                    "velocity": 1
                },
                {
                    "duration": 0.21428550000007363,
                    "durationTicks": 60,
                    "midi": 40,
                    "name": "E2",
                    "ticks": 117840,
                    "time": 391.713842,
                    "velocity": 1
                },
                {
                    "duration": 0.21428549999995994,
                    "durationTicks": 60,
                    "midi": 40,
                    "name": "E2",
                    "ticks": 117900,
                    "time": 391.9281275000001,
                    "velocity": 1
                },
                {
                    "duration": 0.21428550000001678,
                    "durationTicks": 60,
                    "midi": 52,
                    "name": "E3",
                    "ticks": 117960,
                    "time": 392.14241300000003,
                    "velocity": 1
                },
                {
                    "duration": 0.21428550000001678,
                    "durationTicks": 60,
                    "midi": 45,
                    "name": "A2",
                    "ticks": 117960,
                    "time": 392.14241300000003,
                    "velocity": 1
                },
                {
                    "duration": 0.21428550000001678,
                    "durationTicks": 60,
                    "midi": 43,
                    "name": "G2",
                    "ticks": 118020,
                    "time": 392.35669850000005,
                    "velocity": 1
                },
                {
                    "duration": 0.21428550000001678,
                    "durationTicks": 60,
                    "midi": 50,
                    "name": "D3",
                    "ticks": 118020,
                    "time": 392.35669850000005,
                    "velocity": 1
                },
                {
                    "duration": 0.21428549999995994,
                    "durationTicks": 60,
                    "midi": 40,
                    "name": "E2",
                    "ticks": 118080,
                    "time": 392.57098400000007,
                    "velocity": 1
                },
                {
                    "duration": 0.21428550000001678,
                    "durationTicks": 60,
                    "midi": 40,
                    "name": "E2",
                    "ticks": 118140,
                    "time": 392.7852695,
                    "velocity": 1
                },
                {
                    "duration": 0.21428550000001678,
                    "durationTicks": 60,
                    "midi": 47,
                    "name": "B2",
                    "ticks": 118200,
                    "time": 392.99955500000004,
                    "velocity": 1
                },
                {
                    "duration": 0.21428550000001678,
                    "durationTicks": 60,
                    "midi": 40,
                    "name": "E2",
                    "ticks": 118200,
                    "time": 392.99955500000004,
                    "velocity": 1
                },
                {
                    "duration": 0.21428549999995994,
                    "durationTicks": 60,
                    "midi": 40,
                    "name": "E2",
                    "ticks": 118260,
                    "time": 393.21384050000006,
                    "velocity": 1
                },
                {
                    "duration": 0.21428550000001678,
                    "durationTicks": 60,
                    "midi": 40,
                    "name": "E2",
                    "ticks": 118320,
                    "time": 393.428126,
                    "velocity": 1
                },
                {
                    "duration": 0.21428550000001678,
                    "durationTicks": 60,
                    "midi": 50,
                    "name": "D3",
                    "ticks": 118380,
                    "time": 393.64241150000004,
                    "velocity": 1
                },
                {
                    "duration": 0.21428550000001678,
                    "durationTicks": 60,
                    "midi": 43,
                    "name": "G2",
                    "ticks": 118380,
                    "time": 393.64241150000004,
                    "velocity": 1
                },
                {
                    "duration": 0.21428549999995994,
                    "durationTicks": 60,
                    "midi": 40,
                    "name": "E2",
                    "ticks": 118440,
                    "time": 393.85669700000005,
                    "velocity": 1
                },
                {
                    "duration": 0.21428550000001678,
                    "durationTicks": 60,
                    "midi": 40,
                    "name": "E2",
                    "ticks": 118500,
                    "time": 394.0709825,
                    "velocity": 1
                },
                {
                    "duration": 0.21428550000001678,
                    "durationTicks": 60,
                    "midi": 49,
                    "name": "C#3",
                    "ticks": 118560,
                    "time": 394.28526800000003,
                    "velocity": 1
                },
                {
                    "duration": 0.21428550000001678,
                    "durationTicks": 60,
                    "midi": 42,
                    "name": "F#2",
                    "ticks": 118560,
                    "time": 394.28526800000003,
                    "velocity": 1
                },
                {
                    "duration": 0.21428549999995994,
                    "durationTicks": 60,
                    "midi": 40,
                    "name": "E2",
                    "ticks": 118620,
                    "time": 394.49955350000005,
                    "velocity": 1
                },
                {
                    "duration": 0.21428550000007363,
                    "durationTicks": 60,
                    "midi": 40,
                    "name": "E2",
                    "ticks": 118680,
                    "time": 394.713839,
                    "velocity": 1
                },
                {
                    "duration": 0.21428549999995994,
                    "durationTicks": 60,
                    "midi": 50,
                    "name": "D3",
                    "ticks": 118740,
                    "time": 394.9281245000001,
                    "velocity": 1
                },
                {
                    "duration": 0.21428549999995994,
                    "durationTicks": 60,
                    "midi": 43,
                    "name": "G2",
                    "ticks": 118740,
                    "time": 394.9281245000001,
                    "velocity": 1
                },
                {
                    "duration": 0.21428549999995994,
                    "durationTicks": 60,
                    "midi": 40,
                    "name": "E2",
                    "ticks": 118800,
                    "time": 395.14241000000004,
                    "velocity": 1
                },
                {
                    "duration": 0.21428550000007363,
                    "durationTicks": 60,
                    "midi": 40,
                    "name": "E2",
                    "ticks": 118860,
                    "time": 395.3566955,
                    "velocity": 1
                },
                {
                    "duration": 0.21428549999995994,
                    "durationTicks": 60,
                    "midi": 52,
                    "name": "E3",
                    "ticks": 118920,
                    "time": 395.5709810000001,
                    "velocity": 1
                },
                {
                    "duration": 0.21428549999995994,
                    "durationTicks": 60,
                    "midi": 45,
                    "name": "A2",
                    "ticks": 118920,
                    "time": 395.5709810000001,
                    "velocity": 1
                },
                {
                    "duration": 0.21428550000001678,
                    "durationTicks": 60,
                    "midi": 43,
                    "name": "G2",
                    "ticks": 118980,
                    "time": 395.78526650000003,
                    "velocity": 1
                },
                {
                    "duration": 0.21428550000001678,
                    "durationTicks": 60,
                    "midi": 50,
                    "name": "D3",
                    "ticks": 118980,
                    "time": 395.78526650000003,
                    "velocity": 1
                },
                {
                    "duration": 0.21428550000001678,
                    "durationTicks": 60,
                    "midi": 40,
                    "name": "E2",
                    "ticks": 119040,
                    "time": 395.99955200000005,
                    "velocity": 1
                },
                {
                    "duration": 0.21428549999995994,
                    "durationTicks": 60,
                    "midi": 40,
                    "name": "E2",
                    "ticks": 119100,
                    "time": 396.21383750000007,
                    "velocity": 1
                },
                {
                    "duration": 0.21428550000001678,
                    "durationTicks": 60,
                    "midi": 47,
                    "name": "B2",
                    "ticks": 119160,
                    "time": 396.428123,
                    "velocity": 1
                },
                {
                    "duration": 0.21428550000001678,
                    "durationTicks": 60,
                    "midi": 40,
                    "name": "E2",
                    "ticks": 119160,
                    "time": 396.428123,
                    "velocity": 1
                },
                {
                    "duration": 0.21428550000001678,
                    "durationTicks": 60,
                    "midi": 40,
                    "name": "E2",
                    "ticks": 119220,
                    "time": 396.64240850000004,
                    "velocity": 1
                },
                {
                    "duration": 0.21428549999995994,
                    "durationTicks": 60,
                    "midi": 40,
                    "name": "E2",
                    "ticks": 119280,
                    "time": 396.85669400000006,
                    "velocity": 1
                },
                {
                    "duration": 0.21428550000001678,
                    "durationTicks": 60,
                    "midi": 50,
                    "name": "D3",
                    "ticks": 119340,
                    "time": 397.0709795,
                    "velocity": 1
                },
                {
                    "duration": 0.21428550000001678,
                    "durationTicks": 60,
                    "midi": 43,
                    "name": "G2",
                    "ticks": 119340,
                    "time": 397.0709795,
                    "velocity": 1
                },
                {
                    "duration": 0.21428550000001678,
                    "durationTicks": 60,
                    "midi": 40,
                    "name": "E2",
                    "ticks": 119400,
                    "time": 397.28526500000004,
                    "velocity": 1
                },
                {
                    "duration": 0.21428549999995994,
                    "durationTicks": 60,
                    "midi": 40,
                    "name": "E2",
                    "ticks": 119460,
                    "time": 397.49955050000005,
                    "velocity": 1
                },
                {
                    "duration": 0.21428550000001678,
                    "durationTicks": 60,
                    "midi": 49,
                    "name": "C#3",
                    "ticks": 119520,
                    "time": 397.713836,
                    "velocity": 1
                },
                {
                    "duration": 0.21428550000001678,
                    "durationTicks": 60,
                    "midi": 42,
                    "name": "F#2",
                    "ticks": 119520,
                    "time": 397.713836,
                    "velocity": 1
                },
                {
                    "duration": 0.21428550000001678,
                    "durationTicks": 60,
                    "midi": 40,
                    "name": "E2",
                    "ticks": 119580,
                    "time": 397.92812150000003,
                    "velocity": 1
                },
                {
                    "duration": 0.21428549999995994,
                    "durationTicks": 60,
                    "midi": 40,
                    "name": "E2",
                    "ticks": 119640,
                    "time": 398.14240700000005,
                    "velocity": 1
                },
                {
                    "duration": 0.21428550000007363,
                    "durationTicks": 60,
                    "midi": 50,
                    "name": "D3",
                    "ticks": 119700,
                    "time": 398.3566925,
                    "velocity": 1
                },
                {
                    "duration": 0.21428550000007363,
                    "durationTicks": 60,
                    "midi": 43,
                    "name": "G2",
                    "ticks": 119700,
                    "time": 398.3566925,
                    "velocity": 1
                },
                {
                    "duration": 0.21428549999995994,
                    "durationTicks": 60,
                    "midi": 40,
                    "name": "E2",
                    "ticks": 119760,
                    "time": 398.5709780000001,
                    "velocity": 1
                },
                {
                    "duration": 0.21428549999995994,
                    "durationTicks": 60,
                    "midi": 40,
                    "name": "E2",
                    "ticks": 119820,
                    "time": 398.78526350000004,
                    "velocity": 1
                },
                {
                    "duration": 0.21428550000007363,
                    "durationTicks": 60,
                    "midi": 52,
                    "name": "E3",
                    "ticks": 119880,
                    "time": 398.999549,
                    "velocity": 1
                },
                {
                    "duration": 0.21428550000007363,
                    "durationTicks": 60,
                    "midi": 45,
                    "name": "A2",
                    "ticks": 119880,
                    "time": 398.999549,
                    "velocity": 1
                },
                {
                    "duration": 0.21428549999995994,
                    "durationTicks": 60,
                    "midi": 43,
                    "name": "G2",
                    "ticks": 119940,
                    "time": 399.2138345000001,
                    "velocity": 1
                },
                {
                    "duration": 0.21428549999995994,
                    "durationTicks": 60,
                    "midi": 50,
                    "name": "D3",
                    "ticks": 119940,
                    "time": 399.2138345000001,
                    "velocity": 1
                },
                {
                    "duration": 0.21428550000001678,
                    "durationTicks": 60,
                    "midi": 40,
                    "name": "E2",
                    "ticks": 120000,
                    "time": 399.42812000000004,
                    "velocity": 1
                },
                {
                    "duration": 0.21428550000001678,
                    "durationTicks": 60,
                    "midi": 40,
                    "name": "E2",
                    "ticks": 120060,
                    "time": 399.64240550000005,
                    "velocity": 1
                },
                {
                    "duration": 0.21428549999995994,
                    "durationTicks": 60,
                    "midi": 47,
                    "name": "B2",
                    "ticks": 120120,
                    "time": 399.85669100000007,
                    "velocity": 1
                },
                {
                    "duration": 0.21428549999995994,
                    "durationTicks": 60,
                    "midi": 40,
                    "name": "E2",
                    "ticks": 120120,
                    "time": 399.85669100000007,
                    "velocity": 1
                },
                {
                    "duration": 0.21428550000001678,
                    "durationTicks": 60,
                    "midi": 40,
                    "name": "E2",
                    "ticks": 120180,
                    "time": 400.07097650000003,
                    "velocity": 1
                },
                {
                    "duration": 0.21428550000001678,
                    "durationTicks": 60,
                    "midi": 40,
                    "name": "E2",
                    "ticks": 120240,
                    "time": 400.28526200000005,
                    "velocity": 1
                },
                {
                    "duration": 0.21428549999995994,
                    "durationTicks": 60,
                    "midi": 50,
                    "name": "D3",
                    "ticks": 120300,
                    "time": 400.49954750000006,
                    "velocity": 1
                },
                {
                    "duration": 0.21428549999995994,
                    "durationTicks": 60,
                    "midi": 43,
                    "name": "G2",
                    "ticks": 120300,
                    "time": 400.49954750000006,
                    "velocity": 1
                },
                {
                    "duration": 0.21428550000001678,
                    "durationTicks": 60,
                    "midi": 40,
                    "name": "E2",
                    "ticks": 120360,
                    "time": 400.713833,
                    "velocity": 1
                },
                {
                    "duration": 0.21428550000001678,
                    "durationTicks": 60,
                    "midi": 40,
                    "name": "E2",
                    "ticks": 120420,
                    "time": 400.92811850000004,
                    "velocity": 1
                },
                {
                    "duration": 0.21428549999995994,
                    "durationTicks": 60,
                    "midi": 49,
                    "name": "C#3",
                    "ticks": 120480,
                    "time": 401.14240400000006,
                    "velocity": 1
                },
                {
                    "duration": 0.21428549999995994,
                    "durationTicks": 60,
                    "midi": 42,
                    "name": "F#2",
                    "ticks": 120480,
                    "time": 401.14240400000006,
                    "velocity": 1
                },
                {
                    "duration": 0.21428550000001678,
                    "durationTicks": 60,
                    "midi": 40,
                    "name": "E2",
                    "ticks": 120540,
                    "time": 401.3566895,
                    "velocity": 1
                },
                {
                    "duration": 0.21428550000001678,
                    "durationTicks": 60,
                    "midi": 40,
                    "name": "E2",
                    "ticks": 120600,
                    "time": 401.57097500000003,
                    "velocity": 1
                },
                {
                    "duration": 0.21428549999995994,
                    "durationTicks": 60,
                    "midi": 50,
                    "name": "D3",
                    "ticks": 120660,
                    "time": 401.78526050000005,
                    "velocity": 1
                },
                {
                    "duration": 0.21428549999995994,
                    "durationTicks": 60,
                    "midi": 43,
                    "name": "G2",
                    "ticks": 120660,
                    "time": 401.78526050000005,
                    "velocity": 1
                },
                {
                    "duration": 0.21428550000007363,
                    "durationTicks": 60,
                    "midi": 40,
                    "name": "E2",
                    "ticks": 120720,
                    "time": 401.999546,
                    "velocity": 1
                },
                {
                    "duration": 0.21428549999995994,
                    "durationTicks": 60,
                    "midi": 40,
                    "name": "E2",
                    "ticks": 120780,
                    "time": 402.2138315000001,
                    "velocity": 1
                },
                {
                    "duration": 0.21428549999995994,
                    "durationTicks": 60,
                    "midi": 52,
                    "name": "E3",
                    "ticks": 120840,
                    "time": 402.42811700000004,
                    "velocity": 1
                },
                {
                    "duration": 0.21428549999995994,
                    "durationTicks": 60,
                    "midi": 45,
                    "name": "A2",
                    "ticks": 120840,
                    "time": 402.42811700000004,
                    "velocity": 1
                },
                {
                    "duration": 0.21428550000007363,
                    "durationTicks": 60,
                    "midi": 43,
                    "name": "G2",
                    "ticks": 120900,
                    "time": 402.6424025,
                    "velocity": 1
                },
                {
                    "duration": 0.21428550000007363,
                    "durationTicks": 60,
                    "midi": 50,
                    "name": "D3",
                    "ticks": 120900,
                    "time": 402.6424025,
                    "velocity": 1
                },
                {
                    "duration": 0.21428549999995994,
                    "durationTicks": 60,
                    "midi": 40,
                    "name": "E2",
                    "ticks": 120960,
                    "time": 402.8566880000001,
                    "velocity": 1
                },
                {
                    "duration": 0.21428550000001678,
                    "durationTicks": 60,
                    "midi": 40,
                    "name": "E2",
                    "ticks": 121020,
                    "time": 403.07097350000004,
                    "velocity": 1
                },
                {
                    "duration": 0.21428550000001678,
                    "durationTicks": 60,
                    "midi": 47,
                    "name": "B2",
                    "ticks": 121080,
                    "time": 403.28525900000005,
                    "velocity": 1
                },
                {
                    "duration": 0.21428550000001678,
                    "durationTicks": 60,
                    "midi": 40,
                    "name": "E2",
                    "ticks": 121080,
                    "time": 403.28525900000005,
                    "velocity": 1
                },
                {
                    "duration": 0.21428549999995994,
                    "durationTicks": 60,
                    "midi": 40,
                    "name": "E2",
                    "ticks": 121140,
                    "time": 403.49954450000007,
                    "velocity": 1
                },
                {
                    "duration": 0.21428550000001678,
                    "durationTicks": 60,
                    "midi": 40,
                    "name": "E2",
                    "ticks": 121200,
                    "time": 403.71383000000003,
                    "velocity": 1
                },
                {
                    "duration": 0.21428550000001678,
                    "durationTicks": 60,
                    "midi": 50,
                    "name": "D3",
                    "ticks": 121260,
                    "time": 403.92811550000005,
                    "velocity": 1
                },
                {
                    "duration": 0.21428550000001678,
                    "durationTicks": 60,
                    "midi": 43,
                    "name": "G2",
                    "ticks": 121260,
                    "time": 403.92811550000005,
                    "velocity": 1
                },
                {
                    "duration": 0.21428549999995994,
                    "durationTicks": 60,
                    "midi": 40,
                    "name": "E2",
                    "ticks": 121320,
                    "time": 404.14240100000006,
                    "velocity": 1
                },
                {
                    "duration": 0.21428550000001678,
                    "durationTicks": 60,
                    "midi": 40,
                    "name": "E2",
                    "ticks": 121380,
                    "time": 404.3566865,
                    "velocity": 1
                },
                {
                    "duration": 0.21428550000001678,
                    "durationTicks": 60,
                    "midi": 42,
                    "name": "F#2",
                    "ticks": 121440,
                    "time": 404.57097200000004,
                    "velocity": 1
                },
                {
                    "duration": 0.21428550000001678,
                    "durationTicks": 60,
                    "midi": 49,
                    "name": "C#3",
                    "ticks": 121440,
                    "time": 404.57097200000004,
                    "velocity": 1
                },
                {
                    "duration": 0.21428550000001678,
                    "durationTicks": 60,
                    "midi": 54,
                    "name": "F#3",
                    "ticks": 121440,
                    "time": 404.57097200000004,
                    "velocity": 1
                },
                {
                    "duration": 0.21428549999995994,
                    "durationTicks": 60,
                    "midi": 40,
                    "name": "E2",
                    "ticks": 121500,
                    "time": 404.78525750000006,
                    "velocity": 1
                },
                {
                    "duration": 0.21428550000001678,
                    "durationTicks": 60,
                    "midi": 40,
                    "name": "E2",
                    "ticks": 121560,
                    "time": 404.999543,
                    "velocity": 1
                },
                {
                    "duration": 0.21428550000001678,
                    "durationTicks": 60,
                    "midi": 40,
                    "name": "E2",
                    "ticks": 121620,
                    "time": 405.21382850000003,
                    "velocity": 1
                },
                {
                    "duration": 0.21428549999995994,
                    "durationTicks": 60,
                    "midi": 40,
                    "name": "E2",
                    "ticks": 121680,
                    "time": 405.42811400000005,
                    "velocity": 1
                },
                {
                    "duration": 0.21428550000001678,
                    "durationTicks": 60,
                    "midi": 40,
                    "name": "E2",
                    "ticks": 121740,
                    "time": 405.6423995,
                    "velocity": 1
                },
                {
                    "duration": 0.21428550000001678,
                    "durationTicks": 60,
                    "midi": 45,
                    "name": "A2",
                    "ticks": 121800,
                    "time": 405.856685,
                    "velocity": 1
                },
                {
                    "duration": 0.21428550000001678,
                    "durationTicks": 60,
                    "midi": 52,
                    "name": "E3",
                    "ticks": 121800,
                    "time": 405.856685,
                    "velocity": 1
                },
                {
                    "duration": 0.21428550000001678,
                    "durationTicks": 60,
                    "midi": 57,
                    "name": "A3",
                    "ticks": 121800,
                    "time": 405.856685,
                    "velocity": 1
                },
                {
                    "duration": 0.21428549999995994,
                    "durationTicks": 60,
                    "midi": 55,
                    "name": "G3",
                    "ticks": 121860,
                    "time": 406.07097050000004,
                    "velocity": 1
                },
                {
                    "duration": 0.21428549999995994,
                    "durationTicks": 60,
                    "midi": 50,
                    "name": "D3",
                    "ticks": 121860,
                    "time": 406.07097050000004,
                    "velocity": 1
                },
                {
                    "duration": 0.21428549999995994,
                    "durationTicks": 60,
                    "midi": 43,
                    "name": "G2",
                    "ticks": 121860,
                    "time": 406.07097050000004,
                    "velocity": 1
                },
                {
                    "duration": 0.21428550000007363,
                    "durationTicks": 60,
                    "midi": 40,
                    "name": "E2",
                    "ticks": 121920,
                    "time": 406.285256,
                    "velocity": 1
                },
                {
                    "duration": 0.21428549999995994,
                    "durationTicks": 60,
                    "midi": 40,
                    "name": "E2",
                    "ticks": 121980,
                    "time": 406.4995415000001,
                    "velocity": 1
                },
                {
                    "duration": 0.21428550000001678,
                    "durationTicks": 60,
                    "midi": 64,
                    "name": "E4",
                    "ticks": 122040,
                    "time": 406.71382700000004,
                    "velocity": 1
                },
                {
                    "duration": 0.21428550000001678,
                    "durationTicks": 60,
                    "midi": 62,
                    "name": "D4",
                    "ticks": 122100,
                    "time": 406.92811250000005,
                    "velocity": 1
                },
                {
                    "duration": 0.21428549999995994,
                    "durationTicks": 60,
                    "midi": 59,
                    "name": "B3",
                    "ticks": 122160,
                    "time": 407.14239800000007,
                    "velocity": 1
                },
                {
                    "duration": 0.21428550000001678,
                    "durationTicks": 60,
                    "midi": 62,
                    "name": "D4",
                    "ticks": 122220,
                    "time": 407.35668350000003,
                    "velocity": 1
                },
                {
                    "duration": 0.21428550000001678,
                    "durationTicks": 60,
                    "midi": 59,
                    "name": "B3",
                    "ticks": 122280,
                    "time": 407.57096900000005,
                    "velocity": 1
                },
                {
                    "duration": 0.21428549999995994,
                    "durationTicks": 60,
                    "midi": 58,
                    "name": "A#3",
                    "ticks": 122340,
                    "time": 407.78525450000006,
                    "velocity": 1
                },
                {
                    "duration": 0.21428550000001678,
                    "durationTicks": 60,
                    "midi": 57,
                    "name": "A3",
                    "ticks": 122400,
                    "time": 407.99954,
                    "velocity": 1
                },
                {
                    "duration": 0.21428550000001678,
                    "durationTicks": 60,
                    "midi": 55,
                    "name": "G3",
                    "ticks": 122460,
                    "time": 408.21382550000004,
                    "velocity": 1
                },
                {
                    "duration": 0.21428549999995994,
                    "durationTicks": 60,
                    "midi": 64,
                    "name": "E4",
                    "ticks": 122520,
                    "time": 408.42811100000006,
                    "velocity": 1
                },
                {
                    "duration": 0.21428550000001678,
                    "durationTicks": 60,
                    "midi": 62,
                    "name": "D4",
                    "ticks": 122580,
                    "time": 408.6423965,
                    "velocity": 1
                },
                {
                    "duration": 0.21428550000001678,
                    "durationTicks": 60,
                    "midi": 59,
                    "name": "B3",
                    "ticks": 122640,
                    "time": 408.85668200000003,
                    "velocity": 1
                },
                {
                    "duration": 0.21428549999995994,
                    "durationTicks": 60,
                    "midi": 62,
                    "name": "D4",
                    "ticks": 122700,
                    "time": 409.07096750000005,
                    "velocity": 1
                },
                {
                    "duration": 0.21428550000001678,
                    "durationTicks": 60,
                    "midi": 59,
                    "name": "B3",
                    "ticks": 122760,
                    "time": 409.285253,
                    "velocity": 1
                },
                {
                    "duration": 0.21428550000001678,
                    "durationTicks": 60,
                    "midi": 58,
                    "name": "A#3",
                    "ticks": 122820,
                    "time": 409.4995385,
                    "velocity": 1
                },
                {
                    "duration": 0.21428549999995994,
                    "durationTicks": 60,
                    "midi": 57,
                    "name": "A3",
                    "ticks": 122880,
                    "time": 409.71382400000005,
                    "velocity": 1
                },
                {
                    "duration": 0.21428550000007363,
                    "durationTicks": 60,
                    "midi": 55,
                    "name": "G3",
                    "ticks": 122940,
                    "time": 409.9281095,
                    "velocity": 1
                },
                {
                    "duration": 0.21428549999995994,
                    "durationTicks": 60,
                    "midi": 64,
                    "name": "E4",
                    "ticks": 123000,
                    "time": 410.1423950000001,
                    "velocity": 1
                },
                {
                    "duration": 0.21428550000001678,
                    "durationTicks": 60,
                    "midi": 62,
                    "name": "D4",
                    "ticks": 123060,
                    "time": 410.35668050000004,
                    "velocity": 1
                },
                {
                    "duration": 0.21428550000001678,
                    "durationTicks": 60,
                    "midi": 59,
                    "name": "B3",
                    "ticks": 123120,
                    "time": 410.57096600000006,
                    "velocity": 1
                },
                {
                    "duration": 0.21428549999995994,
                    "durationTicks": 60,
                    "midi": 62,
                    "name": "D4",
                    "ticks": 123180,
                    "time": 410.7852515000001,
                    "velocity": 1
                },
                {
                    "duration": 0.21428550000001678,
                    "durationTicks": 60,
                    "midi": 59,
                    "name": "B3",
                    "ticks": 123240,
                    "time": 410.99953700000003,
                    "velocity": 1
                },
                {
                    "duration": 0.21428550000001678,
                    "durationTicks": 60,
                    "midi": 58,
                    "name": "A#3",
                    "ticks": 123300,
                    "time": 411.21382250000005,
                    "velocity": 1
                },
                {
                    "duration": 0.21428549999995994,
                    "durationTicks": 60,
                    "midi": 57,
                    "name": "A3",
                    "ticks": 123360,
                    "time": 411.42810800000007,
                    "velocity": 1
                },
                {
                    "duration": 0.21428550000001678,
                    "durationTicks": 60,
                    "midi": 55,
                    "name": "G3",
                    "ticks": 123420,
                    "time": 411.6423935,
                    "velocity": 1
                },
                {
                    "duration": 0.21428550000001678,
                    "durationTicks": 60,
                    "midi": 40,
                    "name": "E2",
                    "ticks": 123480,
                    "time": 411.85667900000004,
                    "velocity": 1
                },
                {
                    "duration": 0.21428549999995994,
                    "durationTicks": 60,
                    "midi": 40,
                    "name": "E2",
                    "ticks": 123540,
                    "time": 412.07096450000006,
                    "velocity": 1
                },
                {
                    "duration": 0.21428550000001678,
                    "durationTicks": 60,
                    "midi": 40,
                    "name": "E2",
                    "ticks": 123600,
                    "time": 412.28525,
                    "velocity": 1
                },
                {
                    "duration": 0.21428550000001678,
                    "durationTicks": 60,
                    "midi": 40,
                    "name": "E2",
                    "ticks": 123660,
                    "time": 412.49953550000004,
                    "velocity": 1
                },
                {
                    "duration": 0.4285709999999767,
                    "durationTicks": 120,
                    "midi": 67,
                    "name": "G4",
                    "ticks": 123720,
                    "time": 412.71382100000005,
                    "velocity": 1
                },
                {
                    "duration": 0.4285709999999767,
                    "durationTicks": 120,
                    "midi": 62,
                    "name": "D4",
                    "ticks": 123720,
                    "time": 412.71382100000005,
                    "velocity": 1
                },
                {
                    "duration": 0.4285709999999767,
                    "durationTicks": 120,
                    "midi": 55,
                    "name": "G3",
                    "ticks": 123720,
                    "time": 412.71382100000005,
                    "velocity": 1
                },
                {
                    "duration": 0.4285709999999767,
                    "durationTicks": 120,
                    "midi": 40,
                    "name": "E2",
                    "ticks": 123720,
                    "time": 412.71382100000005,
                    "velocity": 1
                }
            ],
            "endOfTrackTicks": 123840
        },
        {
            "channel": 2,
            "controlChanges": {
                "7": [
                    {
                        "number": 7,
                        "ticks": 0,
                        "time": 0,
                        "value": 0.7795275590551181
                    },
                    {
                        "number": 7,
                        "ticks": 78720,
                        "time": 251.99969600000003,
                        "value": 0.7795275590551181
                    },
                    {
                        "number": 7,
                        "ticks": 79680,
                        "time": 255.42826400000004,
                        "value": 0.7795275590551181
                    },
                    {
                        "number": 7,
                        "ticks": 80640,
                        "time": 258.85683200000005,
                        "value": 0.7795275590551181
                    },
                    {
                        "number": 7,
                        "ticks": 81600,
                        "time": 262.28540000000004,
                        "value": 0.7795275590551181
                    },
                    {
                        "number": 7,
                        "ticks": 82560,
                        "time": 265.713968,
                        "value": 0.7795275590551181
                    },
                    {
                        "number": 7,
                        "ticks": 83520,
                        "time": 269.142536,
                        "value": 0.7795275590551181
                    },
                    {
                        "number": 7,
                        "ticks": 84480,
                        "time": 272.57110400000005,
                        "value": 0.7795275590551181
                    },
                    {
                        "number": 7,
                        "ticks": 85440,
                        "time": 275.99967200000003,
                        "value": 0.7795275590551181
                    }
                ],
                "10": [
                    {
                        "number": 10,
                        "ticks": 0,
                        "time": 0,
                        "value": 0.007874015748031496
                    },
                    {
                        "number": 10,
                        "ticks": 123720,
                        "time": 412.71382100000005,
                        "value": 0.5039370078740157
                    }
                ]
            },
            "pitchBends": [],
            "instrument": {
                "family": "guitar",
                "number": 27,
                "name": "electric guitar (clean)"
            },
            "name": "Guitar 2",
            "notes": [
                {
                    "duration": 0.21428550000000002,
                    "durationTicks": 60,
                    "midi": 45,
                    "name": "A2",
                    "ticks": 0,
                    "time": 0,
                    "velocity": 1
                },
                {
                    "duration": 0.21428550000000002,
                    "durationTicks": 60,
                    "midi": 45,
                    "name": "A2",
                    "ticks": 60,
                    "time": 0.21428550000000002,
                    "velocity": 1
                },
                {
                    "duration": 0.10714274999999995,
                    "durationTicks": 30,
                    "midi": 62,
                    "name": "D4",
                    "ticks": 120,
                    "time": 0.42857100000000004,
                    "velocity": 1
                },
                {
                    "duration": 0.10714275000000006,
                    "durationTicks": 30,
                    "midi": 63,
                    "name": "D#4",
                    "ticks": 150,
                    "time": 0.53571375,
                    "velocity": 1
                },
                {
                    "duration": 0.4285709999999999,
                    "durationTicks": 120,
                    "midi": 62,
                    "name": "D4",
                    "ticks": 180,
                    "time": 0.6428565,
                    "velocity": 1
                },
                {
                    "duration": 0.21428550000000013,
                    "durationTicks": 60,
                    "midi": 45,
                    "name": "A2",
                    "ticks": 300,
                    "time": 1.0714275,
                    "velocity": 1
                },
                {
                    "duration": 0.10714274999999995,
                    "durationTicks": 30,
                    "midi": 57,
                    "name": "A3",
                    "ticks": 360,
                    "time": 1.285713,
                    "velocity": 1
                },
                {
                    "duration": 0.10714275000000018,
                    "durationTicks": 30,
                    "midi": 58,
                    "name": "A#3",
                    "ticks": 390,
                    "time": 1.39285575,
                    "velocity": 1
                },
                {
                    "duration": 0.4285709999999998,
                    "durationTicks": 120,
                    "midi": 57,
                    "name": "A3",
                    "ticks": 420,
                    "time": 1.4999985000000002,
                    "velocity": 1
                },
                {
                    "duration": 0.2142854999999999,
                    "durationTicks": 60,
                    "midi": 45,
                    "name": "A2",
                    "ticks": 540,
                    "time": 1.9285695,
                    "velocity": 1
                },
                {
                    "duration": 0.21428550000000035,
                    "durationTicks": 60,
                    "midi": 53,
                    "name": "F3",
                    "ticks": 600,
                    "time": 2.142855,
                    "velocity": 1
                },
                {
                    "duration": 0.2142854999999999,
                    "durationTicks": 60,
                    "midi": 52,
                    "name": "E3",
                    "ticks": 660,
                    "time": 2.3571405000000003,
                    "velocity": 1
                },
                {
                    "duration": 0.2142854999999999,
                    "durationTicks": 60,
                    "midi": 55,
                    "name": "G3",
                    "ticks": 720,
                    "time": 2.571426,
                    "velocity": 1
                },
                {
                    "duration": 0.21428550000000035,
                    "durationTicks": 60,
                    "midi": 52,
                    "name": "E3",
                    "ticks": 780,
                    "time": 2.7857115,
                    "velocity": 1
                },
                {
                    "duration": 0.2142854999999999,
                    "durationTicks": 60,
                    "midi": 60,
                    "name": "C4",
                    "ticks": 840,
                    "time": 2.9999970000000005,
                    "velocity": 1
                },
                {
                    "duration": 0.2142854999999999,
                    "durationTicks": 60,
                    "midi": 57,
                    "name": "A3",
                    "ticks": 900,
                    "time": 3.2142825000000004,
                    "velocity": 1
                },
                {
                    "duration": 0.2142854999999999,
                    "durationTicks": 60,
                    "midi": 45,
                    "name": "A2",
                    "ticks": 960,
                    "time": 3.4285680000000003,
                    "velocity": 1
                },
                {
                    "duration": 0.2142854999999999,
                    "durationTicks": 60,
                    "midi": 45,
                    "name": "A2",
                    "ticks": 1020,
                    "time": 3.6428535,
                    "velocity": 1
                },
                {
                    "duration": 0.1071427500000004,
                    "durationTicks": 30,
                    "midi": 62,
                    "name": "D4",
                    "ticks": 1080,
                    "time": 3.857139,
                    "velocity": 1
                },
                {
                    "duration": 0.10714274999999951,
                    "durationTicks": 30,
                    "midi": 63,
                    "name": "D#4",
                    "ticks": 1110,
                    "time": 3.9642817500000005,
                    "velocity": 1
                },
                {
                    "duration": 0.4285710000000007,
                    "durationTicks": 120,
                    "midi": 62,
                    "name": "D4",
                    "ticks": 1140,
                    "time": 4.0714245,
                    "velocity": 1
                },
                {
                    "duration": 0.2142854999999999,
                    "durationTicks": 60,
                    "midi": 45,
                    "name": "A2",
                    "ticks": 1260,
                    "time": 4.499995500000001,
                    "velocity": 1
                },
                {
                    "duration": 0.10714274999999951,
                    "durationTicks": 30,
                    "midi": 57,
                    "name": "A3",
                    "ticks": 1320,
                    "time": 4.714281000000001,
                    "velocity": 1
                },
                {
                    "duration": 0.1071427500000004,
                    "durationTicks": 30,
                    "midi": 58,
                    "name": "A#3",
                    "ticks": 1350,
                    "time": 4.82142375,
                    "velocity": 1
                },
                {
                    "duration": 0.4285709999999998,
                    "durationTicks": 120,
                    "midi": 57,
                    "name": "A3",
                    "ticks": 1380,
                    "time": 4.9285665000000005,
                    "velocity": 1
                },
                {
                    "duration": 0.2142854999999999,
                    "durationTicks": 60,
                    "midi": 45,
                    "name": "A2",
                    "ticks": 1500,
                    "time": 5.3571375,
                    "velocity": 1
                },
                {
                    "duration": 0.2142854999999999,
                    "durationTicks": 60,
                    "midi": 53,
                    "name": "F3",
                    "ticks": 1560,
                    "time": 5.571423,
                    "velocity": 1
                },
                {
                    "duration": 0.2142855000000008,
                    "durationTicks": 60,
                    "midi": 52,
                    "name": "E3",
                    "ticks": 1620,
                    "time": 5.7857085,
                    "velocity": 1
                },
                {
                    "duration": 0.2142854999999999,
                    "durationTicks": 60,
                    "midi": 55,
                    "name": "G3",
                    "ticks": 1680,
                    "time": 5.999994000000001,
                    "velocity": 1
                },
                {
                    "duration": 0.2142854999999999,
                    "durationTicks": 60,
                    "midi": 52,
                    "name": "E3",
                    "ticks": 1740,
                    "time": 6.214279500000001,
                    "velocity": 1
                },
                {
                    "duration": 0.2142854999999999,
                    "durationTicks": 60,
                    "midi": 60,
                    "name": "C4",
                    "ticks": 1800,
                    "time": 6.428565000000001,
                    "velocity": 1
                },
                {
                    "duration": 0.2142854999999999,
                    "durationTicks": 60,
                    "midi": 57,
                    "name": "A3",
                    "ticks": 1860,
                    "time": 6.642850500000001,
                    "velocity": 1
                },
                {
                    "duration": 0.2142854999999999,
                    "durationTicks": 60,
                    "midi": 45,
                    "name": "A2",
                    "ticks": 1920,
                    "time": 6.857136000000001,
                    "velocity": 1
                },
                {
                    "duration": 0.2142854999999999,
                    "durationTicks": 60,
                    "midi": 45,
                    "name": "A2",
                    "ticks": 1980,
                    "time": 7.0714215000000005,
                    "velocity": 1
                },
                {
                    "duration": 0.1071427500000004,
                    "durationTicks": 30,
                    "midi": 62,
                    "name": "D4",
                    "ticks": 2040,
                    "time": 7.285707,
                    "velocity": 1
                },
                {
                    "duration": 0.10714274999999951,
                    "durationTicks": 30,
                    "midi": 63,
                    "name": "D#4",
                    "ticks": 2070,
                    "time": 7.392849750000001,
                    "velocity": 1
                },
                {
                    "duration": 0.4285710000000007,
                    "durationTicks": 120,
                    "midi": 62,
                    "name": "D4",
                    "ticks": 2100,
                    "time": 7.4999925,
                    "velocity": 1
                },
                {
                    "duration": 0.21428549999999902,
                    "durationTicks": 60,
                    "midi": 45,
                    "name": "A2",
                    "ticks": 2220,
                    "time": 7.928563500000001,
                    "velocity": 1
                },
                {
                    "duration": 0.10714275000000129,
                    "durationTicks": 30,
                    "midi": 57,
                    "name": "A3",
                    "ticks": 2280,
                    "time": 8.142849,
                    "velocity": 1
                },
                {
                    "duration": 0.10714274999999951,
                    "durationTicks": 30,
                    "midi": 58,
                    "name": "A#3",
                    "ticks": 2310,
                    "time": 8.249991750000001,
                    "velocity": 1
                },
                {
                    "duration": 0.4285709999999998,
                    "durationTicks": 120,
                    "midi": 57,
                    "name": "A3",
                    "ticks": 2340,
                    "time": 8.3571345,
                    "velocity": 1
                },
                {
                    "duration": 0.2142855000000008,
                    "durationTicks": 60,
                    "midi": 45,
                    "name": "A2",
                    "ticks": 2460,
                    "time": 8.7857055,
                    "velocity": 1
                },
                {
                    "duration": 0.21428549999999902,
                    "durationTicks": 60,
                    "midi": 53,
                    "name": "F3",
                    "ticks": 2520,
                    "time": 8.999991000000001,
                    "velocity": 1
                },
                {
                    "duration": 0.2142855000000008,
                    "durationTicks": 60,
                    "midi": 52,
                    "name": "E3",
                    "ticks": 2580,
                    "time": 9.2142765,
                    "velocity": 1
                },
                {
                    "duration": 0.21428549999999902,
                    "durationTicks": 60,
                    "midi": 55,
                    "name": "G3",
                    "ticks": 2640,
                    "time": 9.428562000000001,
                    "velocity": 1
                },
                {
                    "duration": 0.2142855000000008,
                    "durationTicks": 60,
                    "midi": 52,
                    "name": "E3",
                    "ticks": 2700,
                    "time": 9.6428475,
                    "velocity": 1
                },
                {
                    "duration": 0.21428549999999902,
                    "durationTicks": 60,
                    "midi": 60,
                    "name": "C4",
                    "ticks": 2760,
                    "time": 9.857133000000001,
                    "velocity": 1
                },
                {
                    "duration": 0.2142855000000008,
                    "durationTicks": 60,
                    "midi": 57,
                    "name": "A3",
                    "ticks": 2820,
                    "time": 10.0714185,
                    "velocity": 1
                },
                {
                    "duration": 0.2142855000000008,
                    "durationTicks": 60,
                    "midi": 45,
                    "name": "A2",
                    "ticks": 2880,
                    "time": 10.285704,
                    "velocity": 1
                },
                {
                    "duration": 0.21428549999999902,
                    "durationTicks": 60,
                    "midi": 45,
                    "name": "A2",
                    "ticks": 2940,
                    "time": 10.499989500000002,
                    "velocity": 1
                },
                {
                    "duration": 0.10714274999999951,
                    "durationTicks": 30,
                    "midi": 62,
                    "name": "D4",
                    "ticks": 3000,
                    "time": 10.714275,
                    "velocity": 1
                },
                {
                    "duration": 0.10714275000000129,
                    "durationTicks": 30,
                    "midi": 63,
                    "name": "D#4",
                    "ticks": 3030,
                    "time": 10.82141775,
                    "velocity": 1
                },
                {
                    "duration": 0.4285709999999998,
                    "durationTicks": 120,
                    "midi": 62,
                    "name": "D4",
                    "ticks": 3060,
                    "time": 10.928560500000001,
                    "velocity": 1
                },
                {
                    "duration": 0.21428549999999902,
                    "durationTicks": 60,
                    "midi": 45,
                    "name": "A2",
                    "ticks": 3180,
                    "time": 11.357131500000001,
                    "velocity": 1
                },
                {
                    "duration": 0.10714275000000129,
                    "durationTicks": 30,
                    "midi": 57,
                    "name": "A3",
                    "ticks": 3240,
                    "time": 11.571417,
                    "velocity": 1
                },
                {
                    "duration": 0.10714274999999951,
                    "durationTicks": 30,
                    "midi": 58,
                    "name": "A#3",
                    "ticks": 3270,
                    "time": 11.678559750000002,
                    "velocity": 1
                },
                {
                    "duration": 0.4285709999999998,
                    "durationTicks": 120,
                    "midi": 57,
                    "name": "A3",
                    "ticks": 3300,
                    "time": 11.785702500000001,
                    "velocity": 1
                },
                {
                    "duration": 0.2142855000000008,
                    "durationTicks": 60,
                    "midi": 45,
                    "name": "A2",
                    "ticks": 3420,
                    "time": 12.214273500000001,
                    "velocity": 1
                },
                {
                    "duration": 0.21428549999999902,
                    "durationTicks": 60,
                    "midi": 53,
                    "name": "F3",
                    "ticks": 3480,
                    "time": 12.428559000000002,
                    "velocity": 1
                },
                {
                    "duration": 0.2142855000000008,
                    "durationTicks": 60,
                    "midi": 52,
                    "name": "E3",
                    "ticks": 3540,
                    "time": 12.6428445,
                    "velocity": 1
                },
                {
                    "duration": 0.21428549999999902,
                    "durationTicks": 60,
                    "midi": 55,
                    "name": "G3",
                    "ticks": 3600,
                    "time": 12.857130000000002,
                    "velocity": 1
                },
                {
                    "duration": 0.2142855000000008,
                    "durationTicks": 60,
                    "midi": 52,
                    "name": "E3",
                    "ticks": 3660,
                    "time": 13.0714155,
                    "velocity": 1
                },
                {
                    "duration": 0.21428549999999902,
                    "durationTicks": 60,
                    "midi": 60,
                    "name": "C4",
                    "ticks": 3720,
                    "time": 13.285701000000001,
                    "velocity": 1
                },
                {
                    "duration": 0.2142855000000008,
                    "durationTicks": 60,
                    "midi": 57,
                    "name": "A3",
                    "ticks": 3780,
                    "time": 13.4999865,
                    "velocity": 1
                },
                {
                    "duration": 0.2142855000000008,
                    "durationTicks": 60,
                    "midi": 45,
                    "name": "A2",
                    "ticks": 3840,
                    "time": 13.714272000000001,
                    "velocity": 1
                },
                {
                    "duration": 0.21428549999999902,
                    "durationTicks": 60,
                    "midi": 45,
                    "name": "A2",
                    "ticks": 3900,
                    "time": 13.928557500000002,
                    "velocity": 1
                },
                {
                    "duration": 0.10714274999999951,
                    "durationTicks": 30,
                    "midi": 62,
                    "name": "D4",
                    "ticks": 3960,
                    "time": 14.142843000000001,
                    "velocity": 1
                },
                {
                    "duration": 0.10714275000000129,
                    "durationTicks": 30,
                    "midi": 63,
                    "name": "D#4",
                    "ticks": 3990,
                    "time": 14.24998575,
                    "velocity": 1
                },
                {
                    "duration": 0.4285709999999998,
                    "durationTicks": 120,
                    "midi": 62,
                    "name": "D4",
                    "ticks": 4020,
                    "time": 14.357128500000002,
                    "velocity": 1
                },
                {
                    "duration": 0.21428549999999902,
                    "durationTicks": 60,
                    "midi": 45,
                    "name": "A2",
                    "ticks": 4140,
                    "time": 14.785699500000002,
                    "velocity": 1
                },
                {
                    "duration": 0.10714275000000129,
                    "durationTicks": 30,
                    "midi": 57,
                    "name": "A3",
                    "ticks": 4200,
                    "time": 14.999985,
                    "velocity": 1
                },
                {
                    "duration": 0.10714274999999951,
                    "durationTicks": 30,
                    "midi": 58,
                    "name": "A#3",
                    "ticks": 4230,
                    "time": 15.107127750000002,
                    "velocity": 1
                },
                {
                    "duration": 0.4285709999999998,
                    "durationTicks": 120,
                    "midi": 57,
                    "name": "A3",
                    "ticks": 4260,
                    "time": 15.214270500000001,
                    "velocity": 1
                },
                {
                    "duration": 0.2142855000000008,
                    "durationTicks": 60,
                    "midi": 45,
                    "name": "A2",
                    "ticks": 4380,
                    "time": 15.642841500000001,
                    "velocity": 1
                },
                {
                    "duration": 0.21428549999999902,
                    "durationTicks": 60,
                    "midi": 53,
                    "name": "F3",
                    "ticks": 4440,
                    "time": 15.857127000000002,
                    "velocity": 1
                },
                {
                    "duration": 0.21428549999999902,
                    "durationTicks": 60,
                    "midi": 52,
                    "name": "E3",
                    "ticks": 4500,
                    "time": 16.0714125,
                    "velocity": 1
                },
                {
                    "duration": 0.21428550000000257,
                    "durationTicks": 60,
                    "midi": 55,
                    "name": "G3",
                    "ticks": 4560,
                    "time": 16.285698,
                    "velocity": 1
                },
                {
                    "duration": 0.21428549999999902,
                    "durationTicks": 60,
                    "midi": 52,
                    "name": "E3",
                    "ticks": 4620,
                    "time": 16.499983500000003,
                    "velocity": 1
                },
                {
                    "duration": 0.21428549999999902,
                    "durationTicks": 60,
                    "midi": 60,
                    "name": "C4",
                    "ticks": 4680,
                    "time": 16.714269,
                    "velocity": 1
                },
                {
                    "duration": 0.21428549999999902,
                    "durationTicks": 60,
                    "midi": 57,
                    "name": "A3",
                    "ticks": 4740,
                    "time": 16.9285545,
                    "velocity": 1
                },
                {
                    "duration": 0.21428550000000257,
                    "durationTicks": 60,
                    "midi": 45,
                    "name": "A2",
                    "ticks": 4800,
                    "time": 17.14284,
                    "velocity": 1
                },
                {
                    "duration": 0.21428549999999902,
                    "durationTicks": 60,
                    "midi": 45,
                    "name": "A2",
                    "ticks": 4860,
                    "time": 17.357125500000002,
                    "velocity": 1
                },
                {
                    "duration": 0.10714275000000129,
                    "durationTicks": 30,
                    "midi": 62,
                    "name": "D4",
                    "ticks": 4920,
                    "time": 17.571411,
                    "velocity": 1
                },
                {
                    "duration": 0.10714274999999773,
                    "durationTicks": 30,
                    "midi": 63,
                    "name": "D#4",
                    "ticks": 4950,
                    "time": 17.678553750000003,
                    "velocity": 1
                },
                {
                    "duration": 0.4285710000000016,
                    "durationTicks": 120,
                    "midi": 62,
                    "name": "D4",
                    "ticks": 4980,
                    "time": 17.7856965,
                    "velocity": 1
                },
                {
                    "duration": 0.21428549999999902,
                    "durationTicks": 60,
                    "midi": 45,
                    "name": "A2",
                    "ticks": 5100,
                    "time": 18.214267500000002,
                    "velocity": 1
                },
                {
                    "duration": 0.10714275000000129,
                    "durationTicks": 30,
                    "midi": 57,
                    "name": "A3",
                    "ticks": 5160,
                    "time": 18.428553,
                    "velocity": 1
                },
                {
                    "duration": 0.10714274999999773,
                    "durationTicks": 30,
                    "midi": 58,
                    "name": "A#3",
                    "ticks": 5190,
                    "time": 18.535695750000002,
                    "velocity": 1
                },
                {
                    "duration": 0.4285710000000016,
                    "durationTicks": 120,
                    "midi": 57,
                    "name": "A3",
                    "ticks": 5220,
                    "time": 18.6428385,
                    "velocity": 1
                },
                {
                    "duration": 0.21428549999999902,
                    "durationTicks": 60,
                    "midi": 45,
                    "name": "A2",
                    "ticks": 5340,
                    "time": 19.0714095,
                    "velocity": 1
                },
                {
                    "duration": 0.21428550000000257,
                    "durationTicks": 60,
                    "midi": 53,
                    "name": "F3",
                    "ticks": 5400,
                    "time": 19.285695,
                    "velocity": 1
                },
                {
                    "duration": 0.21428549999999902,
                    "durationTicks": 60,
                    "midi": 52,
                    "name": "E3",
                    "ticks": 5460,
                    "time": 19.499980500000003,
                    "velocity": 1
                },
                {
                    "duration": 0.21428549999999902,
                    "durationTicks": 60,
                    "midi": 55,
                    "name": "G3",
                    "ticks": 5520,
                    "time": 19.714266000000002,
                    "velocity": 1
                },
                {
                    "duration": 0.21428549999999902,
                    "durationTicks": 60,
                    "midi": 52,
                    "name": "E3",
                    "ticks": 5580,
                    "time": 19.9285515,
                    "velocity": 1
                },
                {
                    "duration": 0.21428550000000257,
                    "durationTicks": 60,
                    "midi": 60,
                    "name": "C4",
                    "ticks": 5640,
                    "time": 20.142837,
                    "velocity": 1
                },
                {
                    "duration": 0.21428549999999902,
                    "durationTicks": 60,
                    "midi": 57,
                    "name": "A3",
                    "ticks": 5700,
                    "time": 20.357122500000003,
                    "velocity": 1
                },
                {
                    "duration": 0.21428549999999902,
                    "durationTicks": 60,
                    "midi": 45,
                    "name": "A2",
                    "ticks": 5760,
                    "time": 20.571408,
                    "velocity": 1
                },
                {
                    "duration": 0.21428550000000257,
                    "durationTicks": 60,
                    "midi": 45,
                    "name": "A2",
                    "ticks": 5820,
                    "time": 20.7856935,
                    "velocity": 1
                },
                {
                    "duration": 0.10714274999999773,
                    "durationTicks": 30,
                    "midi": 62,
                    "name": "D4",
                    "ticks": 5880,
                    "time": 20.999979000000003,
                    "velocity": 1
                },
                {
                    "duration": 0.10714275000000129,
                    "durationTicks": 30,
                    "midi": 63,
                    "name": "D#4",
                    "ticks": 5910,
                    "time": 21.10712175,
                    "velocity": 1
                },
                {
                    "duration": 0.42857099999999804,
                    "durationTicks": 120,
                    "midi": 62,
                    "name": "D4",
                    "ticks": 5940,
                    "time": 21.214264500000002,
                    "velocity": 1
                },
                {
                    "duration": 0.21428550000000257,
                    "durationTicks": 60,
                    "midi": 45,
                    "name": "A2",
                    "ticks": 6060,
                    "time": 21.6428355,
                    "velocity": 1
                },
                {
                    "duration": 0.10714274999999773,
                    "durationTicks": 30,
                    "midi": 57,
                    "name": "A3",
                    "ticks": 6120,
                    "time": 21.857121000000003,
                    "velocity": 1
                },
                {
                    "duration": 0.10714275000000129,
                    "durationTicks": 30,
                    "midi": 58,
                    "name": "A#3",
                    "ticks": 6150,
                    "time": 21.96426375,
                    "velocity": 1
                },
                {
                    "duration": 0.4285710000000016,
                    "durationTicks": 120,
                    "midi": 57,
                    "name": "A3",
                    "ticks": 6180,
                    "time": 22.071406500000002,
                    "velocity": 1
                },
                {
                    "duration": 0.21428549999999902,
                    "durationTicks": 60,
                    "midi": 45,
                    "name": "A2",
                    "ticks": 6300,
                    "time": 22.499977500000004,
                    "velocity": 1
                },
                {
                    "duration": 0.21428549999999902,
                    "durationTicks": 60,
                    "midi": 53,
                    "name": "F3",
                    "ticks": 6360,
                    "time": 22.714263000000003,
                    "velocity": 1
                },
                {
                    "duration": 0.21428549999999902,
                    "durationTicks": 60,
                    "midi": 52,
                    "name": "E3",
                    "ticks": 6420,
                    "time": 22.9285485,
                    "velocity": 1
                },
                {
                    "duration": 0.21428550000000257,
                    "durationTicks": 60,
                    "midi": 55,
                    "name": "G3",
                    "ticks": 6480,
                    "time": 23.142834,
                    "velocity": 1
                },
                {
                    "duration": 0.21428549999999902,
                    "durationTicks": 60,
                    "midi": 52,
                    "name": "E3",
                    "ticks": 6540,
                    "time": 23.357119500000003,
                    "velocity": 1
                },
                {
                    "duration": 0.21428549999999902,
                    "durationTicks": 60,
                    "midi": 60,
                    "name": "C4",
                    "ticks": 6600,
                    "time": 23.571405000000002,
                    "velocity": 1
                },
                {
                    "duration": 0.21428550000000257,
                    "durationTicks": 60,
                    "midi": 57,
                    "name": "A3",
                    "ticks": 6660,
                    "time": 23.7856905,
                    "velocity": 1
                },
                {
                    "duration": 0.21428549999999902,
                    "durationTicks": 60,
                    "midi": 45,
                    "name": "A2",
                    "ticks": 6720,
                    "time": 23.999976000000004,
                    "velocity": 1
                },
                {
                    "duration": 0.21428549999999902,
                    "durationTicks": 60,
                    "midi": 45,
                    "name": "A2",
                    "ticks": 6780,
                    "time": 24.214261500000003,
                    "velocity": 1
                },
                {
                    "duration": 0.10714275000000129,
                    "durationTicks": 30,
                    "midi": 62,
                    "name": "D4",
                    "ticks": 6840,
                    "time": 24.428547000000002,
                    "velocity": 1
                },
                {
                    "duration": 0.10714274999999773,
                    "durationTicks": 30,
                    "midi": 63,
                    "name": "D#4",
                    "ticks": 6870,
                    "time": 24.535689750000003,
                    "velocity": 1
                },
                {
                    "duration": 0.4285710000000016,
                    "durationTicks": 120,
                    "midi": 62,
                    "name": "D4",
                    "ticks": 6900,
                    "time": 24.6428325,
                    "velocity": 1
                },
                {
                    "duration": 0.21428549999999902,
                    "durationTicks": 60,
                    "midi": 45,
                    "name": "A2",
                    "ticks": 7020,
                    "time": 25.071403500000002,
                    "velocity": 1
                },
                {
                    "duration": 0.10714275000000129,
                    "durationTicks": 30,
                    "midi": 57,
                    "name": "A3",
                    "ticks": 7080,
                    "time": 25.285689,
                    "velocity": 1
                },
                {
                    "duration": 0.10714274999999773,
                    "durationTicks": 30,
                    "midi": 58,
                    "name": "A#3",
                    "ticks": 7110,
                    "time": 25.392831750000003,
                    "velocity": 1
                },
                {
                    "duration": 0.4285710000000016,
                    "durationTicks": 120,
                    "midi": 57,
                    "name": "A3",
                    "ticks": 7140,
                    "time": 25.4999745,
                    "velocity": 1
                },
                {
                    "duration": 0.21428549999999902,
                    "durationTicks": 60,
                    "midi": 45,
                    "name": "A2",
                    "ticks": 7260,
                    "time": 25.928545500000002,
                    "velocity": 1
                },
                {
                    "duration": 0.21428550000000257,
                    "durationTicks": 60,
                    "midi": 53,
                    "name": "F3",
                    "ticks": 7320,
                    "time": 26.142831,
                    "velocity": 1
                },
                {
                    "duration": 0.21428549999999902,
                    "durationTicks": 60,
                    "midi": 52,
                    "name": "E3",
                    "ticks": 7380,
                    "time": 26.357116500000004,
                    "velocity": 1
                },
                {
                    "duration": 0.21428549999999902,
                    "durationTicks": 60,
                    "midi": 55,
                    "name": "G3",
                    "ticks": 7440,
                    "time": 26.571402000000003,
                    "velocity": 1
                },
                {
                    "duration": 0.21428549999999902,
                    "durationTicks": 60,
                    "midi": 52,
                    "name": "E3",
                    "ticks": 7500,
                    "time": 26.7856875,
                    "velocity": 1
                },
                {
                    "duration": 0.21428550000000257,
                    "durationTicks": 60,
                    "midi": 60,
                    "name": "C4",
                    "ticks": 7560,
                    "time": 26.999973,
                    "velocity": 1
                },
                {
                    "duration": 0.21428549999999902,
                    "durationTicks": 60,
                    "midi": 57,
                    "name": "A3",
                    "ticks": 7620,
                    "time": 27.214258500000003,
                    "velocity": 1
                },
                {
                    "duration": 0.21428549999999902,
                    "durationTicks": 60,
                    "midi": 64,
                    "name": "E4",
                    "ticks": 7680,
                    "time": 27.428544000000002,
                    "velocity": 1
                },
                {
                    "duration": 0.21428550000000257,
                    "durationTicks": 60,
                    "midi": 62,
                    "name": "D4",
                    "ticks": 7740,
                    "time": 27.6428295,
                    "velocity": 1
                },
                {
                    "duration": 0.21428549999999902,
                    "durationTicks": 60,
                    "midi": 59,
                    "name": "B3",
                    "ticks": 7800,
                    "time": 27.857115000000004,
                    "velocity": 1
                },
                {
                    "duration": 0.21428549999999902,
                    "durationTicks": 60,
                    "midi": 62,
                    "name": "D4",
                    "ticks": 7860,
                    "time": 28.071400500000003,
                    "velocity": 1
                },
                {
                    "duration": 0.21428549999999902,
                    "durationTicks": 60,
                    "midi": 59,
                    "name": "B3",
                    "ticks": 7920,
                    "time": 28.285686000000002,
                    "velocity": 1
                },
                {
                    "duration": 0.21428550000000257,
                    "durationTicks": 60,
                    "midi": 58,
                    "name": "A#3",
                    "ticks": 7980,
                    "time": 28.4999715,
                    "velocity": 1
                },
                {
                    "duration": 0.21428549999999902,
                    "durationTicks": 60,
                    "midi": 57,
                    "name": "A3",
                    "ticks": 8040,
                    "time": 28.714257000000003,
                    "velocity": 1
                },
                {
                    "duration": 0.21428549999999902,
                    "durationTicks": 60,
                    "midi": 55,
                    "name": "G3",
                    "ticks": 8100,
                    "time": 28.928542500000002,
                    "velocity": 1
                },
                {
                    "duration": 0.21428550000000257,
                    "durationTicks": 60,
                    "midi": 55,
                    "name": "G3",
                    "ticks": 10320,
                    "time": 36.857106,
                    "velocity": 1
                },
                {
                    "duration": 0.21428550000000257,
                    "durationTicks": 60,
                    "midi": 50,
                    "name": "D3",
                    "ticks": 10320,
                    "time": 36.857106,
                    "velocity": 1
                },
                {
                    "duration": 0.21428549999999547,
                    "durationTicks": 60,
                    "midi": 52,
                    "name": "E3",
                    "ticks": 10380,
                    "time": 37.071391500000004,
                    "velocity": 1
                },
                {
                    "duration": 0.21428549999999547,
                    "durationTicks": 60,
                    "midi": 57,
                    "name": "A3",
                    "ticks": 10380,
                    "time": 37.071391500000004,
                    "velocity": 1
                },
                {
                    "duration": 0.21428550000000257,
                    "durationTicks": 60,
                    "midi": 50,
                    "name": "D3",
                    "ticks": 10440,
                    "time": 37.285677,
                    "velocity": 1
                },
                {
                    "duration": 0.21428550000000257,
                    "durationTicks": 60,
                    "midi": 55,
                    "name": "G3",
                    "ticks": 10440,
                    "time": 37.285677,
                    "velocity": 1
                },
                {
                    "duration": 0.21428550000000257,
                    "durationTicks": 60,
                    "midi": 52,
                    "name": "E3",
                    "ticks": 10500,
                    "time": 37.4999625,
                    "velocity": 1
                },
                {
                    "duration": 0.21428550000000257,
                    "durationTicks": 60,
                    "midi": 57,
                    "name": "A3",
                    "ticks": 10500,
                    "time": 37.4999625,
                    "velocity": 1
                },
                {
                    "duration": 0.21428549999999547,
                    "durationTicks": 60,
                    "midi": 40,
                    "name": "E2",
                    "ticks": 10560,
                    "time": 37.714248000000005,
                    "velocity": 1
                },
                {
                    "duration": 0.21428550000000257,
                    "durationTicks": 60,
                    "midi": 40,
                    "name": "E2",
                    "ticks": 10620,
                    "time": 37.9285335,
                    "velocity": 1
                },
                {
                    "duration": 0.21428550000000257,
                    "durationTicks": 60,
                    "midi": 40,
                    "name": "E2",
                    "ticks": 10680,
                    "time": 38.142819,
                    "velocity": 1
                },
                {
                    "duration": 0.21428549999999547,
                    "durationTicks": 60,
                    "midi": 40,
                    "name": "E2",
                    "ticks": 10740,
                    "time": 38.357104500000005,
                    "velocity": 1
                },
                {
                    "duration": 0.21428550000000257,
                    "durationTicks": 60,
                    "midi": 52,
                    "name": "E3",
                    "ticks": 10800,
                    "time": 38.57139,
                    "velocity": 1
                },
                {
                    "duration": 0.21428550000000257,
                    "durationTicks": 60,
                    "midi": 50,
                    "name": "D3",
                    "ticks": 10860,
                    "time": 38.7856755,
                    "velocity": 1
                },
                {
                    "duration": 0.21428549999999547,
                    "durationTicks": 60,
                    "midi": 47,
                    "name": "B2",
                    "ticks": 10920,
                    "time": 38.999961000000006,
                    "velocity": 1
                },
                {
                    "duration": 0.21428550000000257,
                    "durationTicks": 60,
                    "midi": 46,
                    "name": "A#2",
                    "ticks": 10980,
                    "time": 39.2142465,
                    "velocity": 1
                },
                {
                    "duration": 0.21428550000000257,
                    "durationTicks": 60,
                    "midi": 40,
                    "name": "E2",
                    "ticks": 11040,
                    "time": 39.428532000000004,
                    "velocity": 1
                },
                {
                    "duration": 0.21428549999999547,
                    "durationTicks": 60,
                    "midi": 40,
                    "name": "E2",
                    "ticks": 11100,
                    "time": 39.64281750000001,
                    "velocity": 1
                },
                {
                    "duration": 0.21428550000000257,
                    "durationTicks": 60,
                    "midi": 40,
                    "name": "E2",
                    "ticks": 11160,
                    "time": 39.857103,
                    "velocity": 1
                },
                {
                    "duration": 0.21428549999999547,
                    "durationTicks": 60,
                    "midi": 40,
                    "name": "E2",
                    "ticks": 11220,
                    "time": 40.071388500000005,
                    "velocity": 1
                },
                {
                    "duration": 0.21428550000000257,
                    "durationTicks": 60,
                    "midi": 55,
                    "name": "G3",
                    "ticks": 11280,
                    "time": 40.285674,
                    "velocity": 1
                },
                {
                    "duration": 0.21428550000000257,
                    "durationTicks": 60,
                    "midi": 50,
                    "name": "D3",
                    "ticks": 11280,
                    "time": 40.285674,
                    "velocity": 1
                },
                {
                    "duration": 0.21428550000000257,
                    "durationTicks": 60,
                    "midi": 52,
                    "name": "E3",
                    "ticks": 11340,
                    "time": 40.4999595,
                    "velocity": 1
                },
                {
                    "duration": 0.21428550000000257,
                    "durationTicks": 60,
                    "midi": 57,
                    "name": "A3",
                    "ticks": 11340,
                    "time": 40.4999595,
                    "velocity": 1
                },
                {
                    "duration": 0.21428549999999547,
                    "durationTicks": 60,
                    "midi": 50,
                    "name": "D3",
                    "ticks": 11400,
                    "time": 40.714245000000005,
                    "velocity": 1
                },
                {
                    "duration": 0.21428549999999547,
                    "durationTicks": 60,
                    "midi": 55,
                    "name": "G3",
                    "ticks": 11400,
                    "time": 40.714245000000005,
                    "velocity": 1
                },
                {
                    "duration": 0.21428550000000257,
                    "durationTicks": 60,
                    "midi": 57,
                    "name": "A3",
                    "ticks": 11460,
                    "time": 40.9285305,
                    "velocity": 1
                },
                {
                    "duration": 0.21428550000000257,
                    "durationTicks": 60,
                    "midi": 52,
                    "name": "E3",
                    "ticks": 11460,
                    "time": 40.9285305,
                    "velocity": 1
                },
                {
                    "duration": 0.21428550000000257,
                    "durationTicks": 60,
                    "midi": 40,
                    "name": "E2",
                    "ticks": 11520,
                    "time": 41.142816,
                    "velocity": 1
                },
                {
                    "duration": 0.21428549999999547,
                    "durationTicks": 60,
                    "midi": 40,
                    "name": "E2",
                    "ticks": 11580,
                    "time": 41.357101500000006,
                    "velocity": 1
                },
                {
                    "duration": 0.21428550000000257,
                    "durationTicks": 60,
                    "midi": 40,
                    "name": "E2",
                    "ticks": 11640,
                    "time": 41.571387,
                    "velocity": 1
                },
                {
                    "duration": 0.21428550000000257,
                    "durationTicks": 60,
                    "midi": 40,
                    "name": "E2",
                    "ticks": 11700,
                    "time": 41.785672500000004,
                    "velocity": 1
                },
                {
                    "duration": 0.21428549999999547,
                    "durationTicks": 60,
                    "midi": 52,
                    "name": "E3",
                    "ticks": 11760,
                    "time": 41.99995800000001,
                    "velocity": 1
                },
                {
                    "duration": 0.21428550000000257,
                    "durationTicks": 60,
                    "midi": 50,
                    "name": "D3",
                    "ticks": 11820,
                    "time": 42.2142435,
                    "velocity": 1
                },
                {
                    "duration": 0.21428549999999547,
                    "durationTicks": 60,
                    "midi": 47,
                    "name": "B2",
                    "ticks": 11880,
                    "time": 42.428529000000005,
                    "velocity": 1
                },
                {
                    "duration": 0.21428550000000257,
                    "durationTicks": 60,
                    "midi": 46,
                    "name": "A#2",
                    "ticks": 11940,
                    "time": 42.6428145,
                    "velocity": 1
                },
                {
                    "duration": 0.21428550000000257,
                    "durationTicks": 60,
                    "midi": 40,
                    "name": "E2",
                    "ticks": 12000,
                    "time": 42.8571,
                    "velocity": 1
                },
                {
                    "duration": 0.21428549999999547,
                    "durationTicks": 60,
                    "midi": 40,
                    "name": "E2",
                    "ticks": 12060,
                    "time": 43.071385500000005,
                    "velocity": 1
                },
                {
                    "duration": 0.21428550000000257,
                    "durationTicks": 60,
                    "midi": 40,
                    "name": "E2",
                    "ticks": 12120,
                    "time": 43.285671,
                    "velocity": 1
                },
                {
                    "duration": 0.21428550000000257,
                    "durationTicks": 60,
                    "midi": 40,
                    "name": "E2",
                    "ticks": 12180,
                    "time": 43.4999565,
                    "velocity": 1
                },
                {
                    "duration": 0.21428549999999547,
                    "durationTicks": 60,
                    "midi": 55,
                    "name": "G3",
                    "ticks": 12240,
                    "time": 43.714242000000006,
                    "velocity": 1
                },
                {
                    "duration": 0.21428549999999547,
                    "durationTicks": 60,
                    "midi": 50,
                    "name": "D3",
                    "ticks": 12240,
                    "time": 43.714242000000006,
                    "velocity": 1
                },
                {
                    "duration": 0.21428550000000257,
                    "durationTicks": 60,
                    "midi": 52,
                    "name": "E3",
                    "ticks": 12300,
                    "time": 43.9285275,
                    "velocity": 1
                },
                {
                    "duration": 0.21428550000000257,
                    "durationTicks": 60,
                    "midi": 57,
                    "name": "A3",
                    "ticks": 12300,
                    "time": 43.9285275,
                    "velocity": 1
                },
                {
                    "duration": 0.21428550000000257,
                    "durationTicks": 60,
                    "midi": 50,
                    "name": "D3",
                    "ticks": 12360,
                    "time": 44.142813000000004,
                    "velocity": 1
                },
                {
                    "duration": 0.21428550000000257,
                    "durationTicks": 60,
                    "midi": 55,
                    "name": "G3",
                    "ticks": 12360,
                    "time": 44.142813000000004,
                    "velocity": 1
                },
                {
                    "duration": 0.21428549999999547,
                    "durationTicks": 60,
                    "midi": 57,
                    "name": "A3",
                    "ticks": 12420,
                    "time": 44.357098500000006,
                    "velocity": 1
                },
                {
                    "duration": 0.21428549999999547,
                    "durationTicks": 60,
                    "midi": 52,
                    "name": "E3",
                    "ticks": 12420,
                    "time": 44.357098500000006,
                    "velocity": 1
                },
                {
                    "duration": 0.21428550000000257,
                    "durationTicks": 60,
                    "midi": 40,
                    "name": "E2",
                    "ticks": 12480,
                    "time": 44.571384,
                    "velocity": 1
                },
                {
                    "duration": 0.21428550000000257,
                    "durationTicks": 60,
                    "midi": 40,
                    "name": "E2",
                    "ticks": 12540,
                    "time": 44.785669500000004,
                    "velocity": 1
                },
                {
                    "duration": 0.21428549999999547,
                    "durationTicks": 60,
                    "midi": 40,
                    "name": "E2",
                    "ticks": 12600,
                    "time": 44.99995500000001,
                    "velocity": 1
                },
                {
                    "duration": 0.21428550000000257,
                    "durationTicks": 60,
                    "midi": 40,
                    "name": "E2",
                    "ticks": 12660,
                    "time": 45.2142405,
                    "velocity": 1
                },
                {
                    "duration": 0.21428549999999547,
                    "durationTicks": 60,
                    "midi": 52,
                    "name": "E3",
                    "ticks": 12720,
                    "time": 45.428526000000005,
                    "velocity": 1
                },
                {
                    "duration": 0.21428550000000257,
                    "durationTicks": 60,
                    "midi": 50,
                    "name": "D3",
                    "ticks": 12780,
                    "time": 45.6428115,
                    "velocity": 1
                },
                {
                    "duration": 0.21428550000000257,
                    "durationTicks": 60,
                    "midi": 47,
                    "name": "B2",
                    "ticks": 12840,
                    "time": 45.857097,
                    "velocity": 1
                },
                {
                    "duration": 0.21428549999999547,
                    "durationTicks": 60,
                    "midi": 46,
                    "name": "A#2",
                    "ticks": 12900,
                    "time": 46.071382500000006,
                    "velocity": 1
                },
                {
                    "duration": 0.21428550000000257,
                    "durationTicks": 60,
                    "midi": 40,
                    "name": "E2",
                    "ticks": 12960,
                    "time": 46.285668,
                    "velocity": 1
                },
                {
                    "duration": 0.21428550000000257,
                    "durationTicks": 60,
                    "midi": 40,
                    "name": "E2",
                    "ticks": 13020,
                    "time": 46.499953500000004,
                    "velocity": 1
                },
                {
                    "duration": 0.21428549999999547,
                    "durationTicks": 60,
                    "midi": 40,
                    "name": "E2",
                    "ticks": 13080,
                    "time": 46.714239000000006,
                    "velocity": 1
                },
                {
                    "duration": 0.21428550000000257,
                    "durationTicks": 60,
                    "midi": 40,
                    "name": "E2",
                    "ticks": 13140,
                    "time": 46.9285245,
                    "velocity": 1
                },
                {
                    "duration": 0.21428550000000257,
                    "durationTicks": 60,
                    "midi": 55,
                    "name": "G3",
                    "ticks": 13200,
                    "time": 47.142810000000004,
                    "velocity": 1
                },
                {
                    "duration": 0.21428550000000257,
                    "durationTicks": 60,
                    "midi": 50,
                    "name": "D3",
                    "ticks": 13200,
                    "time": 47.142810000000004,
                    "velocity": 1
                },
                {
                    "duration": 0.21428549999999547,
                    "durationTicks": 60,
                    "midi": 52,
                    "name": "E3",
                    "ticks": 13260,
                    "time": 47.35709550000001,
                    "velocity": 1
                },
                {
                    "duration": 0.21428549999999547,
                    "durationTicks": 60,
                    "midi": 57,
                    "name": "A3",
                    "ticks": 13260,
                    "time": 47.35709550000001,
                    "velocity": 1
                },
                {
                    "duration": 0.21428550000000257,
                    "durationTicks": 60,
                    "midi": 50,
                    "name": "D3",
                    "ticks": 13320,
                    "time": 47.571381,
                    "velocity": 1
                },
                {
                    "duration": 0.21428550000000257,
                    "durationTicks": 60,
                    "midi": 55,
                    "name": "G3",
                    "ticks": 13320,
                    "time": 47.571381,
                    "velocity": 1
                },
                {
                    "duration": 0.21428550000000257,
                    "durationTicks": 60,
                    "midi": 57,
                    "name": "A3",
                    "ticks": 13380,
                    "time": 47.785666500000005,
                    "velocity": 1
                },
                {
                    "duration": 0.21428550000000257,
                    "durationTicks": 60,
                    "midi": 52,
                    "name": "E3",
                    "ticks": 13380,
                    "time": 47.785666500000005,
                    "velocity": 1
                },
                {
                    "duration": 0.21428549999999547,
                    "durationTicks": 60,
                    "midi": 40,
                    "name": "E2",
                    "ticks": 13440,
                    "time": 47.99995200000001,
                    "velocity": 1
                },
                {
                    "duration": 0.21428550000000257,
                    "durationTicks": 60,
                    "midi": 40,
                    "name": "E2",
                    "ticks": 13500,
                    "time": 48.2142375,
                    "velocity": 1
                },
                {
                    "duration": 0.21428549999999547,
                    "durationTicks": 60,
                    "midi": 40,
                    "name": "E2",
                    "ticks": 13560,
                    "time": 48.428523000000006,
                    "velocity": 1
                },
                {
                    "duration": 0.21428550000000257,
                    "durationTicks": 60,
                    "midi": 40,
                    "name": "E2",
                    "ticks": 13620,
                    "time": 48.6428085,
                    "velocity": 1
                },
                {
                    "duration": 0.21428550000000257,
                    "durationTicks": 60,
                    "midi": 52,
                    "name": "E3",
                    "ticks": 13680,
                    "time": 48.857094000000004,
                    "velocity": 1
                },
                {
                    "duration": 0.21428549999999547,
                    "durationTicks": 60,
                    "midi": 50,
                    "name": "D3",
                    "ticks": 13740,
                    "time": 49.071379500000006,
                    "velocity": 1
                },
                {
                    "duration": 0.21428550000000257,
                    "durationTicks": 60,
                    "midi": 47,
                    "name": "B2",
                    "ticks": 13800,
                    "time": 49.285665,
                    "velocity": 1
                },
                {
                    "duration": 0.21428550000000257,
                    "durationTicks": 60,
                    "midi": 46,
                    "name": "A#2",
                    "ticks": 13860,
                    "time": 49.499950500000004,
                    "velocity": 1
                },
                {
                    "duration": 0.21428549999999547,
                    "durationTicks": 60,
                    "midi": 40,
                    "name": "E2",
                    "ticks": 13920,
                    "time": 49.71423600000001,
                    "velocity": 1
                },
                {
                    "duration": 0.21428550000000257,
                    "durationTicks": 60,
                    "midi": 40,
                    "name": "E2",
                    "ticks": 13980,
                    "time": 49.9285215,
                    "velocity": 1
                },
                {
                    "duration": 0.21428550000000257,
                    "durationTicks": 60,
                    "midi": 40,
                    "name": "E2",
                    "ticks": 14040,
                    "time": 50.142807000000005,
                    "velocity": 1
                },
                {
                    "duration": 0.21428549999999547,
                    "durationTicks": 60,
                    "midi": 40,
                    "name": "E2",
                    "ticks": 14100,
                    "time": 50.35709250000001,
                    "velocity": 1
                },
                {
                    "duration": 0.21428550000000257,
                    "durationTicks": 60,
                    "midi": 55,
                    "name": "G3",
                    "ticks": 14160,
                    "time": 50.571378,
                    "velocity": 1
                },
                {
                    "duration": 0.21428550000000257,
                    "durationTicks": 60,
                    "midi": 50,
                    "name": "D3",
                    "ticks": 14160,
                    "time": 50.571378,
                    "velocity": 1
                },
                {
                    "duration": 0.21428549999999547,
                    "durationTicks": 60,
                    "midi": 52,
                    "name": "E3",
                    "ticks": 14220,
                    "time": 50.785663500000005,
                    "velocity": 1
                },
                {
                    "duration": 0.21428549999999547,
                    "durationTicks": 60,
                    "midi": 57,
                    "name": "A3",
                    "ticks": 14220,
                    "time": 50.785663500000005,
                    "velocity": 1
                },
                {
                    "duration": 0.21428550000000257,
                    "durationTicks": 60,
                    "midi": 50,
                    "name": "D3",
                    "ticks": 14280,
                    "time": 50.999949,
                    "velocity": 1
                },
                {
                    "duration": 0.21428550000000257,
                    "durationTicks": 60,
                    "midi": 55,
                    "name": "G3",
                    "ticks": 14280,
                    "time": 50.999949,
                    "velocity": 1
                },
                {
                    "duration": 0.21428550000000257,
                    "durationTicks": 60,
                    "midi": 57,
                    "name": "A3",
                    "ticks": 14340,
                    "time": 51.2142345,
                    "velocity": 1
                },
                {
                    "duration": 0.21428550000000257,
                    "durationTicks": 60,
                    "midi": 52,
                    "name": "E3",
                    "ticks": 14340,
                    "time": 51.2142345,
                    "velocity": 1
                },
                {
                    "duration": 0.21428549999999547,
                    "durationTicks": 60,
                    "midi": 40,
                    "name": "E2",
                    "ticks": 14400,
                    "time": 51.428520000000006,
                    "velocity": 1
                },
                {
                    "duration": 0.21428550000000257,
                    "durationTicks": 60,
                    "midi": 40,
                    "name": "E2",
                    "ticks": 14460,
                    "time": 51.6428055,
                    "velocity": 1
                },
                {
                    "duration": 0.21428550000000257,
                    "durationTicks": 60,
                    "midi": 40,
                    "name": "E2",
                    "ticks": 14520,
                    "time": 51.857091000000004,
                    "velocity": 1
                },
                {
                    "duration": 0.21428549999999547,
                    "durationTicks": 60,
                    "midi": 40,
                    "name": "E2",
                    "ticks": 14580,
                    "time": 52.07137650000001,
                    "velocity": 1
                },
                {
                    "duration": 0.21428550000000257,
                    "durationTicks": 60,
                    "midi": 52,
                    "name": "E3",
                    "ticks": 14640,
                    "time": 52.285662,
                    "velocity": 1
                },
                {
                    "duration": 0.21428550000000257,
                    "durationTicks": 60,
                    "midi": 50,
                    "name": "D3",
                    "ticks": 14700,
                    "time": 52.499947500000005,
                    "velocity": 1
                },
                {
                    "duration": 0.21428549999999547,
                    "durationTicks": 60,
                    "midi": 47,
                    "name": "B2",
                    "ticks": 14760,
                    "time": 52.71423300000001,
                    "velocity": 1
                },
                {
                    "duration": 0.21428550000000257,
                    "durationTicks": 60,
                    "midi": 46,
                    "name": "A#2",
                    "ticks": 14820,
                    "time": 52.9285185,
                    "velocity": 1
                },
                {
                    "duration": 0.21428550000000257,
                    "durationTicks": 60,
                    "midi": 40,
                    "name": "E2",
                    "ticks": 14880,
                    "time": 53.142804000000005,
                    "velocity": 1
                },
                {
                    "duration": 0.21428549999999547,
                    "durationTicks": 60,
                    "midi": 40,
                    "name": "E2",
                    "ticks": 14940,
                    "time": 53.35708950000001,
                    "velocity": 1
                },
                {
                    "duration": 0.21428550000000257,
                    "durationTicks": 60,
                    "midi": 40,
                    "name": "E2",
                    "ticks": 15000,
                    "time": 53.571375,
                    "velocity": 1
                },
                {
                    "duration": 0.21428549999999547,
                    "durationTicks": 60,
                    "midi": 40,
                    "name": "E2",
                    "ticks": 15060,
                    "time": 53.785660500000006,
                    "velocity": 1
                },
                {
                    "duration": 0.21428550000000257,
                    "durationTicks": 60,
                    "midi": 55,
                    "name": "G3",
                    "ticks": 15120,
                    "time": 53.999946,
                    "velocity": 1
                },
                {
                    "duration": 0.21428550000000257,
                    "durationTicks": 60,
                    "midi": 50,
                    "name": "D3",
                    "ticks": 15120,
                    "time": 53.999946,
                    "velocity": 1
                },
                {
                    "duration": 0.21428550000000257,
                    "durationTicks": 60,
                    "midi": 52,
                    "name": "E3",
                    "ticks": 15180,
                    "time": 54.214231500000004,
                    "velocity": 1
                },
                {
                    "duration": 0.21428550000000257,
                    "durationTicks": 60,
                    "midi": 57,
                    "name": "A3",
                    "ticks": 15180,
                    "time": 54.214231500000004,
                    "velocity": 1
                },
                {
                    "duration": 0.21428549999999547,
                    "durationTicks": 60,
                    "midi": 50,
                    "name": "D3",
                    "ticks": 15240,
                    "time": 54.42851700000001,
                    "velocity": 1
                },
                {
                    "duration": 0.21428549999999547,
                    "durationTicks": 60,
                    "midi": 55,
                    "name": "G3",
                    "ticks": 15240,
                    "time": 54.42851700000001,
                    "velocity": 1
                },
                {
                    "duration": 0.21428550000000257,
                    "durationTicks": 60,
                    "midi": 57,
                    "name": "A3",
                    "ticks": 15300,
                    "time": 54.6428025,
                    "velocity": 1
                },
                {
                    "duration": 0.21428550000000257,
                    "durationTicks": 60,
                    "midi": 52,
                    "name": "E3",
                    "ticks": 15300,
                    "time": 54.6428025,
                    "velocity": 1
                },
                {
                    "duration": 0.21428550000000257,
                    "durationTicks": 60,
                    "midi": 40,
                    "name": "E2",
                    "ticks": 15360,
                    "time": 54.857088000000005,
                    "velocity": 1
                },
                {
                    "duration": 0.21428549999999547,
                    "durationTicks": 60,
                    "midi": 40,
                    "name": "E2",
                    "ticks": 15420,
                    "time": 55.07137350000001,
                    "velocity": 1
                },
                {
                    "duration": 0.21428550000000257,
                    "durationTicks": 60,
                    "midi": 40,
                    "name": "E2",
                    "ticks": 15480,
                    "time": 55.285659,
                    "velocity": 1
                },
                {
                    "duration": 0.21428550000000257,
                    "durationTicks": 60,
                    "midi": 40,
                    "name": "E2",
                    "ticks": 15540,
                    "time": 55.499944500000005,
                    "velocity": 1
                },
                {
                    "duration": 0.21428549999999547,
                    "durationTicks": 60,
                    "midi": 52,
                    "name": "E3",
                    "ticks": 15600,
                    "time": 55.71423000000001,
                    "velocity": 1
                },
                {
                    "duration": 0.21428550000000257,
                    "durationTicks": 60,
                    "midi": 50,
                    "name": "D3",
                    "ticks": 15660,
                    "time": 55.9285155,
                    "velocity": 1
                },
                {
                    "duration": 0.21428549999999547,
                    "durationTicks": 60,
                    "midi": 47,
                    "name": "B2",
                    "ticks": 15720,
                    "time": 56.142801000000006,
                    "velocity": 1
                },
                {
                    "duration": 0.21428550000000257,
                    "durationTicks": 60,
                    "midi": 46,
                    "name": "A#2",
                    "ticks": 15780,
                    "time": 56.3570865,
                    "velocity": 1
                },
                {
                    "duration": 0.21428550000000257,
                    "durationTicks": 60,
                    "midi": 40,
                    "name": "E2",
                    "ticks": 15840,
                    "time": 56.571372000000004,
                    "velocity": 1
                },
                {
                    "duration": 0.21428549999999547,
                    "durationTicks": 60,
                    "midi": 40,
                    "name": "E2",
                    "ticks": 15900,
                    "time": 56.785657500000006,
                    "velocity": 1
                },
                {
                    "duration": 0.21428550000000257,
                    "durationTicks": 60,
                    "midi": 40,
                    "name": "E2",
                    "ticks": 15960,
                    "time": 56.999943,
                    "velocity": 1
                },
                {
                    "duration": 0.21428550000000257,
                    "durationTicks": 60,
                    "midi": 40,
                    "name": "E2",
                    "ticks": 16020,
                    "time": 57.214228500000004,
                    "velocity": 1
                },
                {
                    "duration": 0.21428549999999547,
                    "durationTicks": 60,
                    "midi": 40,
                    "name": "E2",
                    "ticks": 16080,
                    "time": 57.42851400000001,
                    "velocity": 1
                },
                {
                    "duration": 0.21428550000000257,
                    "durationTicks": 60,
                    "midi": 40,
                    "name": "E2",
                    "ticks": 16140,
                    "time": 57.6427995,
                    "velocity": 1
                },
                {
                    "duration": 0.21428550000000257,
                    "durationTicks": 60,
                    "midi": 40,
                    "name": "E2",
                    "ticks": 16200,
                    "time": 57.857085000000005,
                    "velocity": 1
                },
                {
                    "duration": 0.21428549999999547,
                    "durationTicks": 60,
                    "midi": 40,
                    "name": "E2",
                    "ticks": 16260,
                    "time": 58.07137050000001,
                    "velocity": 1
                },
                {
                    "duration": 0.21428550000000257,
                    "durationTicks": 60,
                    "midi": 40,
                    "name": "E2",
                    "ticks": 16320,
                    "time": 58.285656,
                    "velocity": 1
                },
                {
                    "duration": 0.21428550000000257,
                    "durationTicks": 60,
                    "midi": 40,
                    "name": "E2",
                    "ticks": 16380,
                    "time": 58.499941500000006,
                    "velocity": 1
                },
                {
                    "duration": 0.21428549999999547,
                    "durationTicks": 60,
                    "midi": 40,
                    "name": "E2",
                    "ticks": 16440,
                    "time": 58.71422700000001,
                    "velocity": 1
                },
                {
                    "duration": 0.21428550000000257,
                    "durationTicks": 60,
                    "midi": 40,
                    "name": "E2",
                    "ticks": 16500,
                    "time": 58.928512500000004,
                    "velocity": 1
                },
                {
                    "duration": 0.21428549999999547,
                    "durationTicks": 60,
                    "midi": 47,
                    "name": "B2",
                    "ticks": 16560,
                    "time": 59.142798000000006,
                    "velocity": 1
                },
                {
                    "duration": 0.21428550000000257,
                    "durationTicks": 60,
                    "midi": 46,
                    "name": "A#2",
                    "ticks": 16620,
                    "time": 59.3570835,
                    "velocity": 1
                },
                {
                    "duration": 0.21428550000000257,
                    "durationTicks": 60,
                    "midi": 55,
                    "name": "G3",
                    "ticks": 16680,
                    "time": 59.571369000000004,
                    "velocity": 1
                },
                {
                    "duration": 0.21428549999999547,
                    "durationTicks": 60,
                    "midi": 52,
                    "name": "E3",
                    "ticks": 16740,
                    "time": 59.78565450000001,
                    "velocity": 1
                },
                {
                    "duration": 0.21428550000000257,
                    "durationTicks": 60,
                    "midi": 40,
                    "name": "E2",
                    "ticks": 16800,
                    "time": 59.99994,
                    "velocity": 1
                },
                {
                    "duration": 0.21428550000000257,
                    "durationTicks": 60,
                    "midi": 40,
                    "name": "E2",
                    "ticks": 16860,
                    "time": 60.214225500000005,
                    "velocity": 1
                },
                {
                    "duration": 0.21428549999999547,
                    "durationTicks": 60,
                    "midi": 40,
                    "name": "E2",
                    "ticks": 16920,
                    "time": 60.42851100000001,
                    "velocity": 1
                },
                {
                    "duration": 0.21428550000000257,
                    "durationTicks": 60,
                    "midi": 40,
                    "name": "E2",
                    "ticks": 16980,
                    "time": 60.6427965,
                    "velocity": 1
                },
                {
                    "duration": 0.21428550000000257,
                    "durationTicks": 60,
                    "midi": 40,
                    "name": "E2",
                    "ticks": 17040,
                    "time": 60.857082000000005,
                    "velocity": 1
                },
                {
                    "duration": 0.21428549999999547,
                    "durationTicks": 60,
                    "midi": 40,
                    "name": "E2",
                    "ticks": 17100,
                    "time": 61.07136750000001,
                    "velocity": 1
                },
                {
                    "duration": 0.21428550000000257,
                    "durationTicks": 60,
                    "midi": 40,
                    "name": "E2",
                    "ticks": 17160,
                    "time": 61.285653,
                    "velocity": 1
                },
                {
                    "duration": 0.21428549999999547,
                    "durationTicks": 60,
                    "midi": 40,
                    "name": "E2",
                    "ticks": 17220,
                    "time": 61.499938500000006,
                    "velocity": 1
                },
                {
                    "duration": 0.21428550000000257,
                    "durationTicks": 60,
                    "midi": 40,
                    "name": "E2",
                    "ticks": 17280,
                    "time": 61.714224,
                    "velocity": 1
                },
                {
                    "duration": 0.21428550000000257,
                    "durationTicks": 60,
                    "midi": 40,
                    "name": "E2",
                    "ticks": 17340,
                    "time": 61.928509500000004,
                    "velocity": 1
                },
                {
                    "duration": 0.21428549999999547,
                    "durationTicks": 60,
                    "midi": 40,
                    "name": "E2",
                    "ticks": 17400,
                    "time": 62.14279500000001,
                    "velocity": 1
                },
                {
                    "duration": 0.21428550000000257,
                    "durationTicks": 60,
                    "midi": 40,
                    "name": "E2",
                    "ticks": 17460,
                    "time": 62.3570805,
                    "velocity": 1
                },
                {
                    "duration": 0.21428550000000257,
                    "durationTicks": 60,
                    "midi": 47,
                    "name": "B2",
                    "ticks": 17520,
                    "time": 62.571366000000005,
                    "velocity": 1
                },
                {
                    "duration": 0.21428549999999547,
                    "durationTicks": 60,
                    "midi": 46,
                    "name": "A#2",
                    "ticks": 17580,
                    "time": 62.78565150000001,
                    "velocity": 1
                },
                {
                    "duration": 0.21428550000000257,
                    "durationTicks": 60,
                    "midi": 55,
                    "name": "G3",
                    "ticks": 17640,
                    "time": 62.999937,
                    "velocity": 1
                },
                {
                    "duration": 0.21428550000000257,
                    "durationTicks": 60,
                    "midi": 52,
                    "name": "E3",
                    "ticks": 17700,
                    "time": 63.214222500000005,
                    "velocity": 1
                },
                {
                    "duration": 0.21428549999999547,
                    "durationTicks": 60,
                    "midi": 40,
                    "name": "E2",
                    "ticks": 17760,
                    "time": 63.42850800000001,
                    "velocity": 1
                },
                {
                    "duration": 0.21428550000000257,
                    "durationTicks": 60,
                    "midi": 40,
                    "name": "E2",
                    "ticks": 17820,
                    "time": 63.6427935,
                    "velocity": 1
                },
                {
                    "duration": 0.21428549999999547,
                    "durationTicks": 60,
                    "midi": 40,
                    "name": "E2",
                    "ticks": 17880,
                    "time": 63.857079000000006,
                    "velocity": 1
                },
                {
                    "duration": 0.21428550000000257,
                    "durationTicks": 60,
                    "midi": 40,
                    "name": "E2",
                    "ticks": 17940,
                    "time": 64.0713645,
                    "velocity": 1
                },
                {
                    "duration": 0.21428550000000257,
                    "durationTicks": 60,
                    "midi": 40,
                    "name": "E2",
                    "ticks": 18000,
                    "time": 64.28565,
                    "velocity": 1
                },
                {
                    "duration": 0.21428550000000257,
                    "durationTicks": 60,
                    "midi": 40,
                    "name": "E2",
                    "ticks": 18060,
                    "time": 64.4999355,
                    "velocity": 1
                },
                {
                    "duration": 0.21428550000000257,
                    "durationTicks": 60,
                    "midi": 40,
                    "name": "E2",
                    "ticks": 18120,
                    "time": 64.71422100000001,
                    "velocity": 1
                },
                {
                    "duration": 0.21428549999998836,
                    "durationTicks": 60,
                    "midi": 40,
                    "name": "E2",
                    "ticks": 18180,
                    "time": 64.92850650000001,
                    "velocity": 1
                },
                {
                    "duration": 0.21428550000000257,
                    "durationTicks": 60,
                    "midi": 40,
                    "name": "E2",
                    "ticks": 18240,
                    "time": 65.142792,
                    "velocity": 1
                },
                {
                    "duration": 0.21428550000000257,
                    "durationTicks": 60,
                    "midi": 40,
                    "name": "E2",
                    "ticks": 18300,
                    "time": 65.3570775,
                    "velocity": 1
                },
                {
                    "duration": 0.21428550000000257,
                    "durationTicks": 60,
                    "midi": 40,
                    "name": "E2",
                    "ticks": 18360,
                    "time": 65.571363,
                    "velocity": 1
                },
                {
                    "duration": 0.21428550000000257,
                    "durationTicks": 60,
                    "midi": 40,
                    "name": "E2",
                    "ticks": 18420,
                    "time": 65.78564850000001,
                    "velocity": 1
                },
                {
                    "duration": 0.21428549999998836,
                    "durationTicks": 60,
                    "midi": 47,
                    "name": "B2",
                    "ticks": 18480,
                    "time": 65.99993400000001,
                    "velocity": 1
                },
                {
                    "duration": 0.21428550000000257,
                    "durationTicks": 60,
                    "midi": 46,
                    "name": "A#2",
                    "ticks": 18540,
                    "time": 66.2142195,
                    "velocity": 1
                },
                {
                    "duration": 0.21428550000000257,
                    "durationTicks": 60,
                    "midi": 55,
                    "name": "G3",
                    "ticks": 18600,
                    "time": 66.428505,
                    "velocity": 1
                },
                {
                    "duration": 0.21428550000000257,
                    "durationTicks": 60,
                    "midi": 52,
                    "name": "E3",
                    "ticks": 18660,
                    "time": 66.6427905,
                    "velocity": 1
                },
                {
                    "duration": 0.21428550000000257,
                    "durationTicks": 60,
                    "midi": 40,
                    "name": "E2",
                    "ticks": 18720,
                    "time": 66.857076,
                    "velocity": 1
                },
                {
                    "duration": 0.21428550000000257,
                    "durationTicks": 60,
                    "midi": 40,
                    "name": "E2",
                    "ticks": 18780,
                    "time": 67.07136150000001,
                    "velocity": 1
                },
                {
                    "duration": 0.21428549999998836,
                    "durationTicks": 60,
                    "midi": 40,
                    "name": "E2",
                    "ticks": 18840,
                    "time": 67.28564700000001,
                    "velocity": 1
                },
                {
                    "duration": 0.21428550000000257,
                    "durationTicks": 60,
                    "midi": 40,
                    "name": "E2",
                    "ticks": 18900,
                    "time": 67.4999325,
                    "velocity": 1
                },
                {
                    "duration": 0.21428550000000257,
                    "durationTicks": 60,
                    "midi": 40,
                    "name": "E2",
                    "ticks": 18960,
                    "time": 67.714218,
                    "velocity": 1
                },
                {
                    "duration": 0.21428550000000257,
                    "durationTicks": 60,
                    "midi": 40,
                    "name": "E2",
                    "ticks": 19020,
                    "time": 67.9285035,
                    "velocity": 1
                },
                {
                    "duration": 0.21428550000000257,
                    "durationTicks": 60,
                    "midi": 40,
                    "name": "E2",
                    "ticks": 19080,
                    "time": 68.14278900000001,
                    "velocity": 1
                },
                {
                    "duration": 0.21428549999998836,
                    "durationTicks": 60,
                    "midi": 40,
                    "name": "E2",
                    "ticks": 19140,
                    "time": 68.35707450000001,
                    "velocity": 1
                },
                {
                    "duration": 0.21428550000000257,
                    "durationTicks": 60,
                    "midi": 40,
                    "name": "E2",
                    "ticks": 19200,
                    "time": 68.57136,
                    "velocity": 1
                },
                {
                    "duration": 0.21428550000000257,
                    "durationTicks": 60,
                    "midi": 40,
                    "name": "E2",
                    "ticks": 19260,
                    "time": 68.7856455,
                    "velocity": 1
                },
                {
                    "duration": 0.21428550000000257,
                    "durationTicks": 60,
                    "midi": 40,
                    "name": "E2",
                    "ticks": 19320,
                    "time": 68.999931,
                    "velocity": 1
                },
                {
                    "duration": 0.21428550000000257,
                    "durationTicks": 60,
                    "midi": 40,
                    "name": "E2",
                    "ticks": 19380,
                    "time": 69.2142165,
                    "velocity": 1
                },
                {
                    "duration": 0.21428550000000257,
                    "durationTicks": 60,
                    "midi": 47,
                    "name": "B2",
                    "ticks": 19440,
                    "time": 69.42850200000001,
                    "velocity": 1
                },
                {
                    "duration": 0.21428549999998836,
                    "durationTicks": 60,
                    "midi": 46,
                    "name": "A#2",
                    "ticks": 19500,
                    "time": 69.64278750000001,
                    "velocity": 1
                },
                {
                    "duration": 0.21428550000000257,
                    "durationTicks": 60,
                    "midi": 55,
                    "name": "G3",
                    "ticks": 19560,
                    "time": 69.857073,
                    "velocity": 1
                },
                {
                    "duration": 0.21428550000000257,
                    "durationTicks": 60,
                    "midi": 52,
                    "name": "E3",
                    "ticks": 19620,
                    "time": 70.0713585,
                    "velocity": 1
                },
                {
                    "duration": 0.21428550000000257,
                    "durationTicks": 60,
                    "midi": 40,
                    "name": "E2",
                    "ticks": 19680,
                    "time": 70.285644,
                    "velocity": 1
                },
                {
                    "duration": 0.21428550000000257,
                    "durationTicks": 60,
                    "midi": 40,
                    "name": "E2",
                    "ticks": 19740,
                    "time": 70.49992950000001,
                    "velocity": 1
                },
                {
                    "duration": 0.21428550000000257,
                    "durationTicks": 60,
                    "midi": 40,
                    "name": "E2",
                    "ticks": 19800,
                    "time": 70.71421500000001,
                    "velocity": 1
                },
                {
                    "duration": 0.21428549999998836,
                    "durationTicks": 60,
                    "midi": 40,
                    "name": "E2",
                    "ticks": 19860,
                    "time": 70.92850050000001,
                    "velocity": 1
                },
                {
                    "duration": 0.21428550000000257,
                    "durationTicks": 60,
                    "midi": 40,
                    "name": "E2",
                    "ticks": 19920,
                    "time": 71.142786,
                    "velocity": 1
                },
                {
                    "duration": 0.21428550000000257,
                    "durationTicks": 60,
                    "midi": 40,
                    "name": "E2",
                    "ticks": 19980,
                    "time": 71.3570715,
                    "velocity": 1
                },
                {
                    "duration": 0.21428550000000257,
                    "durationTicks": 60,
                    "midi": 40,
                    "name": "E2",
                    "ticks": 20040,
                    "time": 71.571357,
                    "velocity": 1
                },
                {
                    "duration": 0.21428550000000257,
                    "durationTicks": 60,
                    "midi": 40,
                    "name": "E2",
                    "ticks": 20100,
                    "time": 71.78564250000001,
                    "velocity": 1
                },
                {
                    "duration": 0.21428549999998836,
                    "durationTicks": 60,
                    "midi": 40,
                    "name": "E2",
                    "ticks": 20160,
                    "time": 71.99992800000001,
                    "velocity": 1
                },
                {
                    "duration": 0.21428550000000257,
                    "durationTicks": 60,
                    "midi": 40,
                    "name": "E2",
                    "ticks": 20220,
                    "time": 72.2142135,
                    "velocity": 1
                },
                {
                    "duration": 0.21428550000000257,
                    "durationTicks": 60,
                    "midi": 40,
                    "name": "E2",
                    "ticks": 20280,
                    "time": 72.428499,
                    "velocity": 1
                },
                {
                    "duration": 0.21428550000000257,
                    "durationTicks": 60,
                    "midi": 40,
                    "name": "E2",
                    "ticks": 20340,
                    "time": 72.6427845,
                    "velocity": 1
                },
                {
                    "duration": 0.21428550000000257,
                    "durationTicks": 60,
                    "midi": 47,
                    "name": "B2",
                    "ticks": 20400,
                    "time": 72.85707000000001,
                    "velocity": 1
                },
                {
                    "duration": 0.21428550000000257,
                    "durationTicks": 60,
                    "midi": 46,
                    "name": "A#2",
                    "ticks": 20460,
                    "time": 73.07135550000001,
                    "velocity": 1
                },
                {
                    "duration": 0.21428549999998836,
                    "durationTicks": 60,
                    "midi": 55,
                    "name": "G3",
                    "ticks": 20520,
                    "time": 73.28564100000001,
                    "velocity": 1
                },
                {
                    "duration": 0.21428550000000257,
                    "durationTicks": 60,
                    "midi": 52,
                    "name": "E3",
                    "ticks": 20580,
                    "time": 73.4999265,
                    "velocity": 1
                },
                {
                    "duration": 0.21428550000000257,
                    "durationTicks": 60,
                    "midi": 40,
                    "name": "E2",
                    "ticks": 20640,
                    "time": 73.714212,
                    "velocity": 1
                },
                {
                    "duration": 0.21428550000000257,
                    "durationTicks": 60,
                    "midi": 40,
                    "name": "E2",
                    "ticks": 20700,
                    "time": 73.9284975,
                    "velocity": 1
                },
                {
                    "duration": 0.21428550000000257,
                    "durationTicks": 60,
                    "midi": 40,
                    "name": "E2",
                    "ticks": 20760,
                    "time": 74.14278300000001,
                    "velocity": 1
                },
                {
                    "duration": 0.21428549999998836,
                    "durationTicks": 60,
                    "midi": 40,
                    "name": "E2",
                    "ticks": 20820,
                    "time": 74.35706850000001,
                    "velocity": 1
                },
                {
                    "duration": 0.21428550000000257,
                    "durationTicks": 60,
                    "midi": 40,
                    "name": "E2",
                    "ticks": 20880,
                    "time": 74.571354,
                    "velocity": 1
                },
                {
                    "duration": 0.21428550000000257,
                    "durationTicks": 60,
                    "midi": 40,
                    "name": "E2",
                    "ticks": 20940,
                    "time": 74.7856395,
                    "velocity": 1
                },
                {
                    "duration": 0.21428550000000257,
                    "durationTicks": 60,
                    "midi": 40,
                    "name": "E2",
                    "ticks": 21000,
                    "time": 74.999925,
                    "velocity": 1
                },
                {
                    "duration": 0.21428550000000257,
                    "durationTicks": 60,
                    "midi": 40,
                    "name": "E2",
                    "ticks": 21060,
                    "time": 75.21421050000001,
                    "velocity": 1
                },
                {
                    "duration": 0.21428550000000257,
                    "durationTicks": 60,
                    "midi": 40,
                    "name": "E2",
                    "ticks": 21120,
                    "time": 75.42849600000001,
                    "velocity": 1
                },
                {
                    "duration": 0.21428549999998836,
                    "durationTicks": 60,
                    "midi": 40,
                    "name": "E2",
                    "ticks": 21180,
                    "time": 75.64278150000001,
                    "velocity": 1
                },
                {
                    "duration": 0.21428550000000257,
                    "durationTicks": 60,
                    "midi": 40,
                    "name": "E2",
                    "ticks": 21240,
                    "time": 75.857067,
                    "velocity": 1
                },
                {
                    "duration": 0.21428550000000257,
                    "durationTicks": 60,
                    "midi": 40,
                    "name": "E2",
                    "ticks": 21300,
                    "time": 76.0713525,
                    "velocity": 1
                },
                {
                    "duration": 0.21428550000000257,
                    "durationTicks": 60,
                    "midi": 47,
                    "name": "B2",
                    "ticks": 21360,
                    "time": 76.285638,
                    "velocity": 1
                },
                {
                    "duration": 0.21428550000000257,
                    "durationTicks": 60,
                    "midi": 46,
                    "name": "A#2",
                    "ticks": 21420,
                    "time": 76.49992350000001,
                    "velocity": 1
                },
                {
                    "duration": 0.21428549999998836,
                    "durationTicks": 60,
                    "midi": 55,
                    "name": "G3",
                    "ticks": 21480,
                    "time": 76.71420900000001,
                    "velocity": 1
                },
                {
                    "duration": 0.21428550000000257,
                    "durationTicks": 60,
                    "midi": 52,
                    "name": "E3",
                    "ticks": 21540,
                    "time": 76.9284945,
                    "velocity": 1
                },
                {
                    "duration": 0.21428550000000257,
                    "durationTicks": 60,
                    "midi": 40,
                    "name": "E2",
                    "ticks": 21600,
                    "time": 77.14278,
                    "velocity": 1
                },
                {
                    "duration": 0.21428550000000257,
                    "durationTicks": 60,
                    "midi": 40,
                    "name": "E2",
                    "ticks": 21660,
                    "time": 77.3570655,
                    "velocity": 1
                },
                {
                    "duration": 0.21428550000000257,
                    "durationTicks": 60,
                    "midi": 40,
                    "name": "E2",
                    "ticks": 21720,
                    "time": 77.571351,
                    "velocity": 1
                },
                {
                    "duration": 0.21428550000000257,
                    "durationTicks": 60,
                    "midi": 40,
                    "name": "E2",
                    "ticks": 21780,
                    "time": 77.78563650000001,
                    "velocity": 1
                },
                {
                    "duration": 0.21428549999998836,
                    "durationTicks": 60,
                    "midi": 40,
                    "name": "E2",
                    "ticks": 21840,
                    "time": 77.99992200000001,
                    "velocity": 1
                },
                {
                    "duration": 0.21428550000000257,
                    "durationTicks": 60,
                    "midi": 40,
                    "name": "E2",
                    "ticks": 21900,
                    "time": 78.2142075,
                    "velocity": 1
                },
                {
                    "duration": 0.21428550000000257,
                    "durationTicks": 60,
                    "midi": 40,
                    "name": "E2",
                    "ticks": 21960,
                    "time": 78.428493,
                    "velocity": 1
                },
                {
                    "duration": 0.21428550000000257,
                    "durationTicks": 60,
                    "midi": 40,
                    "name": "E2",
                    "ticks": 22020,
                    "time": 78.6427785,
                    "velocity": 1
                },
                {
                    "duration": 0.21428550000000257,
                    "durationTicks": 60,
                    "midi": 40,
                    "name": "E2",
                    "ticks": 22080,
                    "time": 78.85706400000001,
                    "velocity": 1
                },
                {
                    "duration": 0.21428550000000257,
                    "durationTicks": 60,
                    "midi": 40,
                    "name": "E2",
                    "ticks": 22140,
                    "time": 79.07134950000001,
                    "velocity": 1
                },
                {
                    "duration": 0.21428549999998836,
                    "durationTicks": 60,
                    "midi": 40,
                    "name": "E2",
                    "ticks": 22200,
                    "time": 79.28563500000001,
                    "velocity": 1
                },
                {
                    "duration": 0.21428550000000257,
                    "durationTicks": 60,
                    "midi": 40,
                    "name": "E2",
                    "ticks": 22260,
                    "time": 79.4999205,
                    "velocity": 1
                },
                {
                    "duration": 0.21428550000000257,
                    "durationTicks": 60,
                    "midi": 47,
                    "name": "B2",
                    "ticks": 22320,
                    "time": 79.714206,
                    "velocity": 1
                },
                {
                    "duration": 0.21428550000000257,
                    "durationTicks": 60,
                    "midi": 46,
                    "name": "A#2",
                    "ticks": 22380,
                    "time": 79.9284915,
                    "velocity": 1
                },
                {
                    "duration": 0.21428550000000257,
                    "durationTicks": 60,
                    "midi": 55,
                    "name": "G3",
                    "ticks": 22440,
                    "time": 80.14277700000001,
                    "velocity": 1
                },
                {
                    "duration": 0.21428549999998836,
                    "durationTicks": 60,
                    "midi": 52,
                    "name": "E3",
                    "ticks": 22500,
                    "time": 80.35706250000001,
                    "velocity": 1
                },
                {
                    "duration": 0.21428550000000257,
                    "durationTicks": 60,
                    "midi": 40,
                    "name": "E2",
                    "ticks": 22560,
                    "time": 80.571348,
                    "velocity": 1
                },
                {
                    "duration": 0.21428550000000257,
                    "durationTicks": 60,
                    "midi": 40,
                    "name": "E2",
                    "ticks": 22620,
                    "time": 80.7856335,
                    "velocity": 1
                },
                {
                    "duration": 0.21428550000000257,
                    "durationTicks": 60,
                    "midi": 40,
                    "name": "E2",
                    "ticks": 22680,
                    "time": 80.999919,
                    "velocity": 1
                },
                {
                    "duration": 0.21428550000000257,
                    "durationTicks": 60,
                    "midi": 40,
                    "name": "E2",
                    "ticks": 22740,
                    "time": 81.21420450000001,
                    "velocity": 1
                },
                {
                    "duration": 0.21428550000000257,
                    "durationTicks": 60,
                    "midi": 40,
                    "name": "E2",
                    "ticks": 22800,
                    "time": 81.42849000000001,
                    "velocity": 1
                },
                {
                    "duration": 0.21428549999998836,
                    "durationTicks": 60,
                    "midi": 40,
                    "name": "E2",
                    "ticks": 22860,
                    "time": 81.64277550000001,
                    "velocity": 1
                },
                {
                    "duration": 0.21428550000000257,
                    "durationTicks": 60,
                    "midi": 40,
                    "name": "E2",
                    "ticks": 22920,
                    "time": 81.857061,
                    "velocity": 1
                },
                {
                    "duration": 0.21428550000000257,
                    "durationTicks": 60,
                    "midi": 40,
                    "name": "E2",
                    "ticks": 22980,
                    "time": 82.0713465,
                    "velocity": 1
                },
                {
                    "duration": 0.21428550000000257,
                    "durationTicks": 60,
                    "midi": 40,
                    "name": "E2",
                    "ticks": 23040,
                    "time": 82.285632,
                    "velocity": 1
                },
                {
                    "duration": 0.21428550000000257,
                    "durationTicks": 60,
                    "midi": 40,
                    "name": "E2",
                    "ticks": 23100,
                    "time": 82.49991750000001,
                    "velocity": 1
                },
                {
                    "duration": 0.21428549999998836,
                    "durationTicks": 60,
                    "midi": 40,
                    "name": "E2",
                    "ticks": 23160,
                    "time": 82.71420300000001,
                    "velocity": 1
                },
                {
                    "duration": 0.21428550000000257,
                    "durationTicks": 60,
                    "midi": 40,
                    "name": "E2",
                    "ticks": 23220,
                    "time": 82.9284885,
                    "velocity": 1
                },
                {
                    "duration": 0.21428550000000257,
                    "durationTicks": 60,
                    "midi": 47,
                    "name": "B2",
                    "ticks": 23280,
                    "time": 83.142774,
                    "velocity": 1
                },
                {
                    "duration": 0.21428550000000257,
                    "durationTicks": 60,
                    "midi": 46,
                    "name": "A#2",
                    "ticks": 23340,
                    "time": 83.3570595,
                    "velocity": 1
                },
                {
                    "duration": 0.21428550000000257,
                    "durationTicks": 60,
                    "midi": 55,
                    "name": "G3",
                    "ticks": 23400,
                    "time": 83.57134500000001,
                    "velocity": 1
                },
                {
                    "duration": 0.21428550000000257,
                    "durationTicks": 60,
                    "midi": 52,
                    "name": "E3",
                    "ticks": 23460,
                    "time": 83.78563050000001,
                    "velocity": 1
                },
                {
                    "duration": 0.21428549999998836,
                    "durationTicks": 60,
                    "midi": 60,
                    "name": "C4",
                    "ticks": 23520,
                    "time": 83.99991600000001,
                    "velocity": 1
                },
                {
                    "duration": 0.21428549999998836,
                    "durationTicks": 60,
                    "midi": 55,
                    "name": "G3",
                    "ticks": 23520,
                    "time": 83.99991600000001,
                    "velocity": 1
                },
                {
                    "duration": 0.21428550000000257,
                    "durationTicks": 60,
                    "midi": 40,
                    "name": "E2",
                    "ticks": 23580,
                    "time": 84.2142015,
                    "velocity": 1
                },
                {
                    "duration": 0.21428550000000257,
                    "durationTicks": 60,
                    "midi": 40,
                    "name": "E2",
                    "ticks": 23640,
                    "time": 84.428487,
                    "velocity": 1
                },
                {
                    "duration": 0.21428550000000257,
                    "durationTicks": 60,
                    "midi": 40,
                    "name": "E2",
                    "ticks": 23700,
                    "time": 84.6427725,
                    "velocity": 1
                },
                {
                    "duration": 0.21428550000000257,
                    "durationTicks": 60,
                    "midi": 55,
                    "name": "G3",
                    "ticks": 23760,
                    "time": 84.85705800000001,
                    "velocity": 1
                },
                {
                    "duration": 0.21428550000000257,
                    "durationTicks": 60,
                    "midi": 60,
                    "name": "C4",
                    "ticks": 23760,
                    "time": 84.85705800000001,
                    "velocity": 1
                },
                {
                    "duration": 0.21428549999998836,
                    "durationTicks": 60,
                    "midi": 62,
                    "name": "D4",
                    "ticks": 23820,
                    "time": 85.07134350000001,
                    "velocity": 1
                },
                {
                    "duration": 0.21428549999998836,
                    "durationTicks": 60,
                    "midi": 57,
                    "name": "A3",
                    "ticks": 23820,
                    "time": 85.07134350000001,
                    "velocity": 1
                },
                {
                    "duration": 0.42857100000000514,
                    "durationTicks": 120,
                    "midi": 55,
                    "name": "G3",
                    "ticks": 23880,
                    "time": 85.285629,
                    "velocity": 1
                },
                {
                    "duration": 0.42857100000000514,
                    "durationTicks": 120,
                    "midi": 60,
                    "name": "C4",
                    "ticks": 23880,
                    "time": 85.285629,
                    "velocity": 1
                },
                {
                    "duration": 0.21428550000000257,
                    "durationTicks": 60,
                    "midi": 60,
                    "name": "C4",
                    "ticks": 24000,
                    "time": 85.7142,
                    "velocity": 1
                },
                {
                    "duration": 0.21428550000000257,
                    "durationTicks": 60,
                    "midi": 55,
                    "name": "G3",
                    "ticks": 24000,
                    "time": 85.7142,
                    "velocity": 1
                },
                {
                    "duration": 0.21428550000000257,
                    "durationTicks": 60,
                    "midi": 40,
                    "name": "E2",
                    "ticks": 24060,
                    "time": 85.92848550000001,
                    "velocity": 1
                },
                {
                    "duration": 0.21428550000000257,
                    "durationTicks": 60,
                    "midi": 40,
                    "name": "E2",
                    "ticks": 24120,
                    "time": 86.14277100000001,
                    "velocity": 1
                },
                {
                    "duration": 0.21428549999998836,
                    "durationTicks": 60,
                    "midi": 40,
                    "name": "E2",
                    "ticks": 24180,
                    "time": 86.35705650000001,
                    "velocity": 1
                },
                {
                    "duration": 0.21428550000000257,
                    "durationTicks": 60,
                    "midi": 55,
                    "name": "G3",
                    "ticks": 24240,
                    "time": 86.571342,
                    "velocity": 1
                },
                {
                    "duration": 0.21428550000000257,
                    "durationTicks": 60,
                    "midi": 60,
                    "name": "C4",
                    "ticks": 24240,
                    "time": 86.571342,
                    "velocity": 1
                },
                {
                    "duration": 0.21428550000000257,
                    "durationTicks": 60,
                    "midi": 62,
                    "name": "D4",
                    "ticks": 24300,
                    "time": 86.7856275,
                    "velocity": 1
                },
                {
                    "duration": 0.21428550000000257,
                    "durationTicks": 60,
                    "midi": 57,
                    "name": "A3",
                    "ticks": 24300,
                    "time": 86.7856275,
                    "velocity": 1
                },
                {
                    "duration": 0.42857100000000514,
                    "durationTicks": 120,
                    "midi": 55,
                    "name": "G3",
                    "ticks": 24360,
                    "time": 86.999913,
                    "velocity": 1
                },
                {
                    "duration": 0.42857100000000514,
                    "durationTicks": 120,
                    "midi": 60,
                    "name": "C4",
                    "ticks": 24360,
                    "time": 86.999913,
                    "velocity": 1
                },
                {
                    "duration": 0.21428550000000257,
                    "durationTicks": 60,
                    "midi": 60,
                    "name": "C4",
                    "ticks": 24480,
                    "time": 87.42848400000001,
                    "velocity": 1
                },
                {
                    "duration": 0.21428550000000257,
                    "durationTicks": 60,
                    "midi": 55,
                    "name": "G3",
                    "ticks": 24480,
                    "time": 87.42848400000001,
                    "velocity": 1
                },
                {
                    "duration": 0.21428549999998836,
                    "durationTicks": 60,
                    "midi": 40,
                    "name": "E2",
                    "ticks": 24540,
                    "time": 87.64276950000001,
                    "velocity": 1
                },
                {
                    "duration": 0.21428550000000257,
                    "durationTicks": 60,
                    "midi": 40,
                    "name": "E2",
                    "ticks": 24600,
                    "time": 87.857055,
                    "velocity": 1
                },
                {
                    "duration": 0.21428550000000257,
                    "durationTicks": 60,
                    "midi": 40,
                    "name": "E2",
                    "ticks": 24660,
                    "time": 88.0713405,
                    "velocity": 1
                },
                {
                    "duration": 0.21428550000000257,
                    "durationTicks": 60,
                    "midi": 55,
                    "name": "G3",
                    "ticks": 24720,
                    "time": 88.28562600000001,
                    "velocity": 1
                },
                {
                    "duration": 0.21428550000000257,
                    "durationTicks": 60,
                    "midi": 60,
                    "name": "C4",
                    "ticks": 24720,
                    "time": 88.28562600000001,
                    "velocity": 1
                },
                {
                    "duration": 0.21428550000000257,
                    "durationTicks": 60,
                    "midi": 62,
                    "name": "D4",
                    "ticks": 24780,
                    "time": 88.49991150000001,
                    "velocity": 1
                },
                {
                    "duration": 0.21428550000000257,
                    "durationTicks": 60,
                    "midi": 57,
                    "name": "A3",
                    "ticks": 24780,
                    "time": 88.49991150000001,
                    "velocity": 1
                },
                {
                    "duration": 0.42857099999999093,
                    "durationTicks": 120,
                    "midi": 55,
                    "name": "G3",
                    "ticks": 24840,
                    "time": 88.71419700000001,
                    "velocity": 1
                },
                {
                    "duration": 0.42857099999999093,
                    "durationTicks": 120,
                    "midi": 60,
                    "name": "C4",
                    "ticks": 24840,
                    "time": 88.71419700000001,
                    "velocity": 1
                },
                {
                    "duration": 0.21428550000000257,
                    "durationTicks": 60,
                    "midi": 62,
                    "name": "D4",
                    "ticks": 24960,
                    "time": 89.142768,
                    "velocity": 1
                },
                {
                    "duration": 0.21428550000000257,
                    "durationTicks": 60,
                    "midi": 60,
                    "name": "C4",
                    "ticks": 25020,
                    "time": 89.3570535,
                    "velocity": 1
                },
                {
                    "duration": 0.21428550000000257,
                    "durationTicks": 60,
                    "midi": 57,
                    "name": "A3",
                    "ticks": 25080,
                    "time": 89.57133900000001,
                    "velocity": 1
                },
                {
                    "duration": 0.21428550000000257,
                    "durationTicks": 60,
                    "midi": 56,
                    "name": "G#3",
                    "ticks": 25140,
                    "time": 89.78562450000001,
                    "velocity": 1
                },
                {
                    "duration": 0.21428549999998836,
                    "durationTicks": 60,
                    "midi": 55,
                    "name": "G3",
                    "ticks": 25200,
                    "time": 89.99991000000001,
                    "velocity": 1
                },
                {
                    "duration": 0.21428550000000257,
                    "durationTicks": 60,
                    "midi": 52,
                    "name": "E3",
                    "ticks": 25260,
                    "time": 90.2141955,
                    "velocity": 1
                },
                {
                    "duration": 0.21428550000000257,
                    "durationTicks": 60,
                    "midi": 51,
                    "name": "D#3",
                    "ticks": 25320,
                    "time": 90.428481,
                    "velocity": 1
                },
                {
                    "duration": 0.21428550000000257,
                    "durationTicks": 60,
                    "midi": 50,
                    "name": "D3",
                    "ticks": 25380,
                    "time": 90.64276650000001,
                    "velocity": 1
                },
                {
                    "duration": 0.21428550000000257,
                    "durationTicks": 60,
                    "midi": 60,
                    "name": "C4",
                    "ticks": 25440,
                    "time": 90.85705200000001,
                    "velocity": 1
                },
                {
                    "duration": 0.21428550000000257,
                    "durationTicks": 60,
                    "midi": 55,
                    "name": "G3",
                    "ticks": 25440,
                    "time": 90.85705200000001,
                    "velocity": 1
                },
                {
                    "duration": 0.21428549999998836,
                    "durationTicks": 60,
                    "midi": 40,
                    "name": "E2",
                    "ticks": 25500,
                    "time": 91.07133750000001,
                    "velocity": 1
                },
                {
                    "duration": 0.21428550000000257,
                    "durationTicks": 60,
                    "midi": 40,
                    "name": "E2",
                    "ticks": 25560,
                    "time": 91.285623,
                    "velocity": 1
                },
                {
                    "duration": 0.21428550000000257,
                    "durationTicks": 60,
                    "midi": 40,
                    "name": "E2",
                    "ticks": 25620,
                    "time": 91.4999085,
                    "velocity": 1
                },
                {
                    "duration": 0.21428550000000257,
                    "durationTicks": 60,
                    "midi": 55,
                    "name": "G3",
                    "ticks": 25680,
                    "time": 91.714194,
                    "velocity": 1
                },
                {
                    "duration": 0.21428550000000257,
                    "durationTicks": 60,
                    "midi": 60,
                    "name": "C4",
                    "ticks": 25680,
                    "time": 91.714194,
                    "velocity": 1
                },
                {
                    "duration": 0.21428550000000257,
                    "durationTicks": 60,
                    "midi": 62,
                    "name": "D4",
                    "ticks": 25740,
                    "time": 91.92847950000001,
                    "velocity": 1
                },
                {
                    "duration": 0.21428550000000257,
                    "durationTicks": 60,
                    "midi": 57,
                    "name": "A3",
                    "ticks": 25740,
                    "time": 91.92847950000001,
                    "velocity": 1
                },
                {
                    "duration": 0.42857099999999093,
                    "durationTicks": 120,
                    "midi": 55,
                    "name": "G3",
                    "ticks": 25800,
                    "time": 92.14276500000001,
                    "velocity": 1
                },
                {
                    "duration": 0.42857099999999093,
                    "durationTicks": 120,
                    "midi": 60,
                    "name": "C4",
                    "ticks": 25800,
                    "time": 92.14276500000001,
                    "velocity": 1
                },
                {
                    "duration": 0.21428550000000257,
                    "durationTicks": 60,
                    "midi": 60,
                    "name": "C4",
                    "ticks": 25920,
                    "time": 92.571336,
                    "velocity": 1
                },
                {
                    "duration": 0.21428550000000257,
                    "durationTicks": 60,
                    "midi": 55,
                    "name": "G3",
                    "ticks": 25920,
                    "time": 92.571336,
                    "velocity": 1
                },
                {
                    "duration": 0.21428550000000257,
                    "durationTicks": 60,
                    "midi": 40,
                    "name": "E2",
                    "ticks": 25980,
                    "time": 92.7856215,
                    "velocity": 1
                },
                {
                    "duration": 0.21428550000000257,
                    "durationTicks": 60,
                    "midi": 40,
                    "name": "E2",
                    "ticks": 26040,
                    "time": 92.99990700000001,
                    "velocity": 1
                },
                {
                    "duration": 0.21428550000000257,
                    "durationTicks": 60,
                    "midi": 40,
                    "name": "E2",
                    "ticks": 26100,
                    "time": 93.21419250000001,
                    "velocity": 1
                },
                {
                    "duration": 0.21428549999998836,
                    "durationTicks": 60,
                    "midi": 55,
                    "name": "G3",
                    "ticks": 26160,
                    "time": 93.42847800000001,
                    "velocity": 1
                },
                {
                    "duration": 0.21428549999998836,
                    "durationTicks": 60,
                    "midi": 60,
                    "name": "C4",
                    "ticks": 26160,
                    "time": 93.42847800000001,
                    "velocity": 1
                },
                {
                    "duration": 0.21428550000000257,
                    "durationTicks": 60,
                    "midi": 62,
                    "name": "D4",
                    "ticks": 26220,
                    "time": 93.6427635,
                    "velocity": 1
                },
                {
                    "duration": 0.21428550000000257,
                    "durationTicks": 60,
                    "midi": 57,
                    "name": "A3",
                    "ticks": 26220,
                    "time": 93.6427635,
                    "velocity": 1
                },
                {
                    "duration": 0.42857100000000514,
                    "durationTicks": 120,
                    "midi": 55,
                    "name": "G3",
                    "ticks": 26280,
                    "time": 93.857049,
                    "velocity": 1
                },
                {
                    "duration": 0.42857100000000514,
                    "durationTicks": 120,
                    "midi": 60,
                    "name": "C4",
                    "ticks": 26280,
                    "time": 93.857049,
                    "velocity": 1
                },
                {
                    "duration": 0.21428550000000257,
                    "durationTicks": 60,
                    "midi": 60,
                    "name": "C4",
                    "ticks": 26400,
                    "time": 94.28562000000001,
                    "velocity": 1
                },
                {
                    "duration": 0.21428550000000257,
                    "durationTicks": 60,
                    "midi": 55,
                    "name": "G3",
                    "ticks": 26400,
                    "time": 94.28562000000001,
                    "velocity": 1
                },
                {
                    "duration": 0.21428550000000257,
                    "durationTicks": 60,
                    "midi": 40,
                    "name": "E2",
                    "ticks": 26460,
                    "time": 94.49990550000001,
                    "velocity": 1
                },
                {
                    "duration": 0.21428549999998836,
                    "durationTicks": 60,
                    "midi": 40,
                    "name": "E2",
                    "ticks": 26520,
                    "time": 94.71419100000001,
                    "velocity": 1
                },
                {
                    "duration": 0.21428550000000257,
                    "durationTicks": 60,
                    "midi": 40,
                    "name": "E2",
                    "ticks": 26580,
                    "time": 94.9284765,
                    "velocity": 1
                },
                {
                    "duration": 0.21428550000000257,
                    "durationTicks": 60,
                    "midi": 55,
                    "name": "G3",
                    "ticks": 26640,
                    "time": 95.142762,
                    "velocity": 1
                },
                {
                    "duration": 0.21428550000000257,
                    "durationTicks": 60,
                    "midi": 60,
                    "name": "C4",
                    "ticks": 26640,
                    "time": 95.142762,
                    "velocity": 1
                },
                {
                    "duration": 0.21428550000000257,
                    "durationTicks": 60,
                    "midi": 62,
                    "name": "D4",
                    "ticks": 26700,
                    "time": 95.35704750000001,
                    "velocity": 1
                },
                {
                    "duration": 0.21428550000000257,
                    "durationTicks": 60,
                    "midi": 57,
                    "name": "A3",
                    "ticks": 26700,
                    "time": 95.35704750000001,
                    "velocity": 1
                },
                {
                    "duration": 0.42857100000000514,
                    "durationTicks": 120,
                    "midi": 55,
                    "name": "G3",
                    "ticks": 26760,
                    "time": 95.57133300000001,
                    "velocity": 1
                },
                {
                    "duration": 0.42857100000000514,
                    "durationTicks": 120,
                    "midi": 60,
                    "name": "C4",
                    "ticks": 26760,
                    "time": 95.57133300000001,
                    "velocity": 1
                },
                {
                    "duration": 0.21428549999998836,
                    "durationTicks": 60,
                    "midi": 64,
                    "name": "E4",
                    "ticks": 26880,
                    "time": 95.99990400000002,
                    "velocity": 1
                },
                {
                    "duration": 0.21428550000000257,
                    "durationTicks": 60,
                    "midi": 62,
                    "name": "D4",
                    "ticks": 26940,
                    "time": 96.2141895,
                    "velocity": 1
                },
                {
                    "duration": 0.21428550000000257,
                    "durationTicks": 60,
                    "midi": 59,
                    "name": "B3",
                    "ticks": 27000,
                    "time": 96.428475,
                    "velocity": 1
                },
                {
                    "duration": 0.21428550000000257,
                    "durationTicks": 60,
                    "midi": 62,
                    "name": "D4",
                    "ticks": 27060,
                    "time": 96.64276050000001,
                    "velocity": 1
                },
                {
                    "duration": 0.21428550000000257,
                    "durationTicks": 60,
                    "midi": 59,
                    "name": "B3",
                    "ticks": 27120,
                    "time": 96.85704600000001,
                    "velocity": 1
                },
                {
                    "duration": 0.21428549999998836,
                    "durationTicks": 60,
                    "midi": 58,
                    "name": "A#3",
                    "ticks": 27180,
                    "time": 97.07133150000001,
                    "velocity": 1
                },
                {
                    "duration": 0.21428550000000257,
                    "durationTicks": 60,
                    "midi": 57,
                    "name": "A3",
                    "ticks": 27240,
                    "time": 97.285617,
                    "velocity": 1
                },
                {
                    "duration": 0.21428550000000257,
                    "durationTicks": 60,
                    "midi": 55,
                    "name": "G3",
                    "ticks": 27300,
                    "time": 97.4999025,
                    "velocity": 1
                },
                {
                    "duration": 0.21428550000000257,
                    "durationTicks": 60,
                    "midi": 64,
                    "name": "E4",
                    "ticks": 27360,
                    "time": 97.71418800000001,
                    "velocity": 1
                },
                {
                    "duration": 0.21428550000000257,
                    "durationTicks": 60,
                    "midi": 62,
                    "name": "D4",
                    "ticks": 27420,
                    "time": 97.92847350000001,
                    "velocity": 1
                },
                {
                    "duration": 0.21428550000000257,
                    "durationTicks": 60,
                    "midi": 59,
                    "name": "B3",
                    "ticks": 27480,
                    "time": 98.14275900000001,
                    "velocity": 1
                },
                {
                    "duration": 0.21428549999998836,
                    "durationTicks": 60,
                    "midi": 62,
                    "name": "D4",
                    "ticks": 27540,
                    "time": 98.35704450000001,
                    "velocity": 1
                },
                {
                    "duration": 0.21428550000000257,
                    "durationTicks": 60,
                    "midi": 59,
                    "name": "B3",
                    "ticks": 27600,
                    "time": 98.57133,
                    "velocity": 1
                },
                {
                    "duration": 0.21428550000000257,
                    "durationTicks": 60,
                    "midi": 58,
                    "name": "A#3",
                    "ticks": 27660,
                    "time": 98.7856155,
                    "velocity": 1
                },
                {
                    "duration": 0.21428550000000257,
                    "durationTicks": 60,
                    "midi": 57,
                    "name": "A3",
                    "ticks": 27720,
                    "time": 98.99990100000001,
                    "velocity": 1
                },
                {
                    "duration": 0.21428550000000257,
                    "durationTicks": 60,
                    "midi": 55,
                    "name": "G3",
                    "ticks": 27780,
                    "time": 99.21418650000001,
                    "velocity": 1
                },
                {
                    "duration": 1.7142839999999921,
                    "durationTicks": 480,
                    "midi": 62,
                    "name": "D4",
                    "ticks": 27840,
                    "time": 99.42847200000001,
                    "velocity": 1
                },
                {
                    "duration": 1.7142839999999921,
                    "durationTicks": 480,
                    "midi": 55,
                    "name": "G3",
                    "ticks": 27840,
                    "time": 99.42847200000001,
                    "velocity": 1
                },
                {
                    "duration": 0.8571419999999961,
                    "durationTicks": 240,
                    "midi": 61,
                    "name": "C#4",
                    "ticks": 28320,
                    "time": 101.142756,
                    "velocity": 1
                },
                {
                    "duration": 0.8571419999999961,
                    "durationTicks": 240,
                    "midi": 54,
                    "name": "F#3",
                    "ticks": 28320,
                    "time": 101.142756,
                    "velocity": 1
                },
                {
                    "duration": 0.8571420000000103,
                    "durationTicks": 240,
                    "midi": 60,
                    "name": "C4",
                    "ticks": 28560,
                    "time": 101.999898,
                    "velocity": 1
                },
                {
                    "duration": 0.8571420000000103,
                    "durationTicks": 240,
                    "midi": 53,
                    "name": "F3",
                    "ticks": 28560,
                    "time": 101.999898,
                    "velocity": 1
                },
                {
                    "duration": 0.21428550000000257,
                    "durationTicks": 60,
                    "midi": 40,
                    "name": "E2",
                    "ticks": 28800,
                    "time": 102.85704000000001,
                    "velocity": 1
                },
                {
                    "duration": 0.21428549999998836,
                    "durationTicks": 60,
                    "midi": 40,
                    "name": "E2",
                    "ticks": 28860,
                    "time": 103.07132550000001,
                    "velocity": 1
                },
                {
                    "duration": 0.21428550000000257,
                    "durationTicks": 60,
                    "midi": 40,
                    "name": "E2",
                    "ticks": 28920,
                    "time": 103.285611,
                    "velocity": 1
                },
                {
                    "duration": 0.21428550000000257,
                    "durationTicks": 60,
                    "midi": 40,
                    "name": "E2",
                    "ticks": 28980,
                    "time": 103.4998965,
                    "velocity": 1
                },
                {
                    "duration": 0.21428550000000257,
                    "durationTicks": 60,
                    "midi": 40,
                    "name": "E2",
                    "ticks": 29040,
                    "time": 103.71418200000001,
                    "velocity": 1
                },
                {
                    "duration": 0.21428550000000257,
                    "durationTicks": 60,
                    "midi": 40,
                    "name": "E2",
                    "ticks": 29100,
                    "time": 103.92846750000001,
                    "velocity": 1
                },
                {
                    "duration": 0.21428549999998836,
                    "durationTicks": 60,
                    "midi": 40,
                    "name": "E2",
                    "ticks": 29160,
                    "time": 104.14275300000001,
                    "velocity": 1
                },
                {
                    "duration": 0.21428550000000257,
                    "durationTicks": 60,
                    "midi": 40,
                    "name": "E2",
                    "ticks": 29220,
                    "time": 104.3570385,
                    "velocity": 1
                },
                {
                    "duration": 0.21428550000000257,
                    "durationTicks": 60,
                    "midi": 40,
                    "name": "E2",
                    "ticks": 29280,
                    "time": 104.571324,
                    "velocity": 1
                },
                {
                    "duration": 0.21428550000000257,
                    "durationTicks": 60,
                    "midi": 40,
                    "name": "E2",
                    "ticks": 29340,
                    "time": 104.7856095,
                    "velocity": 1
                },
                {
                    "duration": 0.21428550000000257,
                    "durationTicks": 60,
                    "midi": 40,
                    "name": "E2",
                    "ticks": 29400,
                    "time": 104.99989500000001,
                    "velocity": 1
                },
                {
                    "duration": 0.21428550000000257,
                    "durationTicks": 60,
                    "midi": 40,
                    "name": "E2",
                    "ticks": 29460,
                    "time": 105.21418050000001,
                    "velocity": 1
                },
                {
                    "duration": 0.21428549999998836,
                    "durationTicks": 60,
                    "midi": 40,
                    "name": "E2",
                    "ticks": 29520,
                    "time": 105.42846600000001,
                    "velocity": 1
                },
                {
                    "duration": 0.21428550000000257,
                    "durationTicks": 60,
                    "midi": 40,
                    "name": "E2",
                    "ticks": 29580,
                    "time": 105.6427515,
                    "velocity": 1
                },
                {
                    "duration": 0.21428550000000257,
                    "durationTicks": 60,
                    "midi": 40,
                    "name": "E2",
                    "ticks": 29640,
                    "time": 105.857037,
                    "velocity": 1
                },
                {
                    "duration": 0.21428550000000257,
                    "durationTicks": 60,
                    "midi": 40,
                    "name": "E2",
                    "ticks": 29700,
                    "time": 106.07132250000001,
                    "velocity": 1
                },
                {
                    "duration": 1.7142839999999921,
                    "durationTicks": 480,
                    "midi": 62,
                    "name": "D4",
                    "ticks": 29760,
                    "time": 106.28560800000001,
                    "velocity": 1
                },
                {
                    "duration": 1.7142839999999921,
                    "durationTicks": 480,
                    "midi": 55,
                    "name": "G3",
                    "ticks": 29760,
                    "time": 106.28560800000001,
                    "velocity": 1
                },
                {
                    "duration": 0.8571420000000103,
                    "durationTicks": 240,
                    "midi": 61,
                    "name": "C#4",
                    "ticks": 30240,
                    "time": 107.999892,
                    "velocity": 1
                },
                {
                    "duration": 0.8571420000000103,
                    "durationTicks": 240,
                    "midi": 54,
                    "name": "F#3",
                    "ticks": 30240,
                    "time": 107.999892,
                    "velocity": 1
                },
                {
                    "duration": 0.8571419999999961,
                    "durationTicks": 240,
                    "midi": 60,
                    "name": "C4",
                    "ticks": 30480,
                    "time": 108.85703400000001,
                    "velocity": 1
                },
                {
                    "duration": 0.8571419999999961,
                    "durationTicks": 240,
                    "midi": 53,
                    "name": "F3",
                    "ticks": 30480,
                    "time": 108.85703400000001,
                    "velocity": 1
                },
                {
                    "duration": 0.21428550000000257,
                    "durationTicks": 60,
                    "midi": 40,
                    "name": "E2",
                    "ticks": 30720,
                    "time": 109.71417600000001,
                    "velocity": 1
                },
                {
                    "duration": 0.21428550000000257,
                    "durationTicks": 60,
                    "midi": 40,
                    "name": "E2",
                    "ticks": 30780,
                    "time": 109.92846150000001,
                    "velocity": 1
                },
                {
                    "duration": 0.21428549999998836,
                    "durationTicks": 60,
                    "midi": 40,
                    "name": "E2",
                    "ticks": 30840,
                    "time": 110.14274700000001,
                    "velocity": 1
                },
                {
                    "duration": 0.21428550000000257,
                    "durationTicks": 60,
                    "midi": 40,
                    "name": "E2",
                    "ticks": 30900,
                    "time": 110.3570325,
                    "velocity": 1
                },
                {
                    "duration": 0.21428550000000257,
                    "durationTicks": 60,
                    "midi": 40,
                    "name": "E2",
                    "ticks": 30960,
                    "time": 110.571318,
                    "velocity": 1
                },
                {
                    "duration": 0.21428550000000257,
                    "durationTicks": 60,
                    "midi": 40,
                    "name": "E2",
                    "ticks": 31020,
                    "time": 110.78560350000001,
                    "velocity": 1
                },
                {
                    "duration": 0.21428550000000257,
                    "durationTicks": 60,
                    "midi": 40,
                    "name": "E2",
                    "ticks": 31080,
                    "time": 110.99988900000001,
                    "velocity": 1
                },
                {
                    "duration": 0.21428550000000257,
                    "durationTicks": 60,
                    "midi": 40,
                    "name": "E2",
                    "ticks": 31140,
                    "time": 111.21417450000001,
                    "velocity": 1
                },
                {
                    "duration": 0.21428549999998836,
                    "durationTicks": 60,
                    "midi": 40,
                    "name": "E2",
                    "ticks": 31200,
                    "time": 111.42846000000002,
                    "velocity": 1
                },
                {
                    "duration": 0.21428550000000257,
                    "durationTicks": 60,
                    "midi": 40,
                    "name": "E2",
                    "ticks": 31260,
                    "time": 111.6427455,
                    "velocity": 1
                },
                {
                    "duration": 0.21428550000000257,
                    "durationTicks": 60,
                    "midi": 40,
                    "name": "E2",
                    "ticks": 31320,
                    "time": 111.857031,
                    "velocity": 1
                },
                {
                    "duration": 0.21428550000000257,
                    "durationTicks": 60,
                    "midi": 40,
                    "name": "E2",
                    "ticks": 31380,
                    "time": 112.07131650000001,
                    "velocity": 1
                },
                {
                    "duration": 0.21428550000000257,
                    "durationTicks": 60,
                    "midi": 40,
                    "name": "E2",
                    "ticks": 31440,
                    "time": 112.28560200000001,
                    "velocity": 1
                },
                {
                    "duration": 0.21428549999998836,
                    "durationTicks": 60,
                    "midi": 40,
                    "name": "E2",
                    "ticks": 31500,
                    "time": 112.49988750000001,
                    "velocity": 1
                },
                {
                    "duration": 0.21428550000000257,
                    "durationTicks": 60,
                    "midi": 40,
                    "name": "E2",
                    "ticks": 31560,
                    "time": 112.714173,
                    "velocity": 1
                },
                {
                    "duration": 0.21428550000000257,
                    "durationTicks": 60,
                    "midi": 40,
                    "name": "E2",
                    "ticks": 31620,
                    "time": 112.9284585,
                    "velocity": 1
                },
                {
                    "duration": 1.7142840000000064,
                    "durationTicks": 480,
                    "midi": 62,
                    "name": "D4",
                    "ticks": 31680,
                    "time": 113.14274400000001,
                    "velocity": 1
                },
                {
                    "duration": 1.7142840000000064,
                    "durationTicks": 480,
                    "midi": 55,
                    "name": "G3",
                    "ticks": 31680,
                    "time": 113.14274400000001,
                    "velocity": 1
                },
                {
                    "duration": 0.8571419999999961,
                    "durationTicks": 240,
                    "midi": 61,
                    "name": "C#4",
                    "ticks": 32160,
                    "time": 114.85702800000001,
                    "velocity": 1
                },
                {
                    "duration": 0.8571419999999961,
                    "durationTicks": 240,
                    "midi": 54,
                    "name": "F#3",
                    "ticks": 32160,
                    "time": 114.85702800000001,
                    "velocity": 1
                },
                {
                    "duration": 0.8571419999999961,
                    "durationTicks": 240,
                    "midi": 60,
                    "name": "C4",
                    "ticks": 32400,
                    "time": 115.71417000000001,
                    "velocity": 1
                },
                {
                    "duration": 0.8571419999999961,
                    "durationTicks": 240,
                    "midi": 53,
                    "name": "F3",
                    "ticks": 32400,
                    "time": 115.71417000000001,
                    "velocity": 1
                },
                {
                    "duration": 0.21428550000000257,
                    "durationTicks": 60,
                    "midi": 40,
                    "name": "E2",
                    "ticks": 32640,
                    "time": 116.571312,
                    "velocity": 1
                },
                {
                    "duration": 0.21428550000000257,
                    "durationTicks": 60,
                    "midi": 40,
                    "name": "E2",
                    "ticks": 32700,
                    "time": 116.78559750000001,
                    "velocity": 1
                },
                {
                    "duration": 0.21428550000000257,
                    "durationTicks": 60,
                    "midi": 40,
                    "name": "E2",
                    "ticks": 32760,
                    "time": 116.99988300000001,
                    "velocity": 1
                },
                {
                    "duration": 0.21428550000000257,
                    "durationTicks": 60,
                    "midi": 40,
                    "name": "E2",
                    "ticks": 32820,
                    "time": 117.21416850000001,
                    "velocity": 1
                },
                {
                    "duration": 0.21428549999998836,
                    "durationTicks": 60,
                    "midi": 40,
                    "name": "E2",
                    "ticks": 32880,
                    "time": 117.42845400000002,
                    "velocity": 1
                },
                {
                    "duration": 0.21428550000000257,
                    "durationTicks": 60,
                    "midi": 40,
                    "name": "E2",
                    "ticks": 32940,
                    "time": 117.6427395,
                    "velocity": 1
                },
                {
                    "duration": 0.21428550000000257,
                    "durationTicks": 60,
                    "midi": 40,
                    "name": "E2",
                    "ticks": 33000,
                    "time": 117.85702500000001,
                    "velocity": 1
                },
                {
                    "duration": 0.21428550000000257,
                    "durationTicks": 60,
                    "midi": 40,
                    "name": "E2",
                    "ticks": 33060,
                    "time": 118.07131050000001,
                    "velocity": 1
                },
                {
                    "duration": 0.21428550000000257,
                    "durationTicks": 60,
                    "midi": 40,
                    "name": "E2",
                    "ticks": 33120,
                    "time": 118.28559600000001,
                    "velocity": 1
                },
                {
                    "duration": 0.21428549999998836,
                    "durationTicks": 60,
                    "midi": 40,
                    "name": "E2",
                    "ticks": 33180,
                    "time": 118.49988150000001,
                    "velocity": 1
                },
                {
                    "duration": 0.21428550000000257,
                    "durationTicks": 60,
                    "midi": 40,
                    "name": "E2",
                    "ticks": 33240,
                    "time": 118.714167,
                    "velocity": 1
                },
                {
                    "duration": 0.21428550000000257,
                    "durationTicks": 60,
                    "midi": 40,
                    "name": "E2",
                    "ticks": 33300,
                    "time": 118.9284525,
                    "velocity": 1
                },
                {
                    "duration": 0.21428550000000257,
                    "durationTicks": 60,
                    "midi": 40,
                    "name": "E2",
                    "ticks": 33360,
                    "time": 119.14273800000001,
                    "velocity": 1
                },
                {
                    "duration": 0.21428550000000257,
                    "durationTicks": 60,
                    "midi": 40,
                    "name": "E2",
                    "ticks": 33420,
                    "time": 119.35702350000001,
                    "velocity": 1
                },
                {
                    "duration": 0.21428550000000257,
                    "durationTicks": 60,
                    "midi": 40,
                    "name": "E2",
                    "ticks": 33480,
                    "time": 119.57130900000001,
                    "velocity": 1
                },
                {
                    "duration": 0.21428549999998836,
                    "durationTicks": 60,
                    "midi": 40,
                    "name": "E2",
                    "ticks": 33540,
                    "time": 119.78559450000002,
                    "velocity": 1
                },
                {
                    "duration": 1.7142840000000064,
                    "durationTicks": 480,
                    "midi": 62,
                    "name": "D4",
                    "ticks": 33600,
                    "time": 119.99988,
                    "velocity": 1
                },
                {
                    "duration": 1.7142840000000064,
                    "durationTicks": 480,
                    "midi": 55,
                    "name": "G3",
                    "ticks": 33600,
                    "time": 119.99988,
                    "velocity": 1
                },
                {
                    "duration": 0.8571419999999961,
                    "durationTicks": 240,
                    "midi": 61,
                    "name": "C#4",
                    "ticks": 34080,
                    "time": 121.71416400000001,
                    "velocity": 1
                },
                {
                    "duration": 0.8571419999999961,
                    "durationTicks": 240,
                    "midi": 54,
                    "name": "F#3",
                    "ticks": 34080,
                    "time": 121.71416400000001,
                    "velocity": 1
                },
                {
                    "duration": 0.8571419999999961,
                    "durationTicks": 240,
                    "midi": 60,
                    "name": "C4",
                    "ticks": 34320,
                    "time": 122.571306,
                    "velocity": 1
                },
                {
                    "duration": 0.8571419999999961,
                    "durationTicks": 240,
                    "midi": 53,
                    "name": "F3",
                    "ticks": 34320,
                    "time": 122.571306,
                    "velocity": 1
                },
                {
                    "duration": 0.21428550000000257,
                    "durationTicks": 60,
                    "midi": 40,
                    "name": "E2",
                    "ticks": 34560,
                    "time": 123.428448,
                    "velocity": 1
                },
                {
                    "duration": 0.21428550000000257,
                    "durationTicks": 60,
                    "midi": 40,
                    "name": "E2",
                    "ticks": 34620,
                    "time": 123.6427335,
                    "velocity": 1
                },
                {
                    "duration": 0.21428550000000257,
                    "durationTicks": 60,
                    "midi": 40,
                    "name": "E2",
                    "ticks": 34680,
                    "time": 123.85701900000001,
                    "velocity": 1
                },
                {
                    "duration": 0.21428550000000257,
                    "durationTicks": 60,
                    "midi": 40,
                    "name": "E2",
                    "ticks": 34740,
                    "time": 124.07130450000001,
                    "velocity": 1
                },
                {
                    "duration": 0.21428550000000257,
                    "durationTicks": 60,
                    "midi": 55,
                    "name": "G3",
                    "ticks": 34800,
                    "time": 124.28559000000001,
                    "velocity": 1
                },
                {
                    "duration": 0.21428550000000257,
                    "durationTicks": 60,
                    "midi": 50,
                    "name": "D3",
                    "ticks": 34800,
                    "time": 124.28559000000001,
                    "velocity": 1
                },
                {
                    "duration": 0.21428549999998836,
                    "durationTicks": 60,
                    "midi": 52,
                    "name": "E3",
                    "ticks": 34860,
                    "time": 124.49987550000002,
                    "velocity": 1
                },
                {
                    "duration": 0.21428549999998836,
                    "durationTicks": 60,
                    "midi": 57,
                    "name": "A3",
                    "ticks": 34860,
                    "time": 124.49987550000002,
                    "velocity": 1
                },
                {
                    "duration": 0.21428550000000257,
                    "durationTicks": 60,
                    "midi": 50,
                    "name": "D3",
                    "ticks": 34920,
                    "time": 124.714161,
                    "velocity": 1
                },
                {
                    "duration": 0.21428550000000257,
                    "durationTicks": 60,
                    "midi": 55,
                    "name": "G3",
                    "ticks": 34920,
                    "time": 124.714161,
                    "velocity": 1
                },
                {
                    "duration": 0.21428550000000257,
                    "durationTicks": 60,
                    "midi": 57,
                    "name": "A3",
                    "ticks": 34980,
                    "time": 124.9284465,
                    "velocity": 1
                },
                {
                    "duration": 0.21428550000000257,
                    "durationTicks": 60,
                    "midi": 52,
                    "name": "E3",
                    "ticks": 34980,
                    "time": 124.9284465,
                    "velocity": 1
                },
                {
                    "duration": 0.21428550000000257,
                    "durationTicks": 60,
                    "midi": 40,
                    "name": "E2",
                    "ticks": 35040,
                    "time": 125.14273200000001,
                    "velocity": 1
                },
                {
                    "duration": 0.21428550000000257,
                    "durationTicks": 60,
                    "midi": 40,
                    "name": "E2",
                    "ticks": 35100,
                    "time": 125.35701750000001,
                    "velocity": 1
                },
                {
                    "duration": 0.21428550000000257,
                    "durationTicks": 60,
                    "midi": 40,
                    "name": "E2",
                    "ticks": 35160,
                    "time": 125.57130300000001,
                    "velocity": 1
                },
                {
                    "duration": 0.21428549999998836,
                    "durationTicks": 60,
                    "midi": 40,
                    "name": "E2",
                    "ticks": 35220,
                    "time": 125.78558850000002,
                    "velocity": 1
                },
                {
                    "duration": 0.21428550000000257,
                    "durationTicks": 60,
                    "midi": 52,
                    "name": "E3",
                    "ticks": 35280,
                    "time": 125.999874,
                    "velocity": 1
                },
                {
                    "duration": 0.21428550000000257,
                    "durationTicks": 60,
                    "midi": 50,
                    "name": "D3",
                    "ticks": 35340,
                    "time": 126.21415950000001,
                    "velocity": 1
                },
                {
                    "duration": 0.21428550000000257,
                    "durationTicks": 60,
                    "midi": 47,
                    "name": "B2",
                    "ticks": 35400,
                    "time": 126.42844500000001,
                    "velocity": 1
                },
                {
                    "duration": 0.21428550000000257,
                    "durationTicks": 60,
                    "midi": 46,
                    "name": "A#2",
                    "ticks": 35460,
                    "time": 126.64273050000001,
                    "velocity": 1
                },
                {
                    "duration": 0.21428549999998836,
                    "durationTicks": 60,
                    "midi": 40,
                    "name": "E2",
                    "ticks": 35520,
                    "time": 126.85701600000002,
                    "velocity": 1
                },
                {
                    "duration": 0.21428550000000257,
                    "durationTicks": 60,
                    "midi": 40,
                    "name": "E2",
                    "ticks": 35580,
                    "time": 127.0713015,
                    "velocity": 1
                },
                {
                    "duration": 0.21428550000000257,
                    "durationTicks": 60,
                    "midi": 40,
                    "name": "E2",
                    "ticks": 35640,
                    "time": 127.285587,
                    "velocity": 1
                },
                {
                    "duration": 0.21428550000000257,
                    "durationTicks": 60,
                    "midi": 40,
                    "name": "E2",
                    "ticks": 35700,
                    "time": 127.49987250000001,
                    "velocity": 1
                },
                {
                    "duration": 0.21428550000000257,
                    "durationTicks": 60,
                    "midi": 55,
                    "name": "G3",
                    "ticks": 35760,
                    "time": 127.71415800000001,
                    "velocity": 1
                },
                {
                    "duration": 0.21428550000000257,
                    "durationTicks": 60,
                    "midi": 50,
                    "name": "D3",
                    "ticks": 35760,
                    "time": 127.71415800000001,
                    "velocity": 1
                },
                {
                    "duration": 0.21428549999998836,
                    "durationTicks": 60,
                    "midi": 52,
                    "name": "E3",
                    "ticks": 35820,
                    "time": 127.92844350000001,
                    "velocity": 1
                },
                {
                    "duration": 0.21428549999998836,
                    "durationTicks": 60,
                    "midi": 57,
                    "name": "A3",
                    "ticks": 35820,
                    "time": 127.92844350000001,
                    "velocity": 1
                },
                {
                    "duration": 0.21428550000001678,
                    "durationTicks": 60,
                    "midi": 50,
                    "name": "D3",
                    "ticks": 35880,
                    "time": 128.142729,
                    "velocity": 1
                },
                {
                    "duration": 0.21428550000001678,
                    "durationTicks": 60,
                    "midi": 55,
                    "name": "G3",
                    "ticks": 35880,
                    "time": 128.142729,
                    "velocity": 1
                },
                {
                    "duration": 0.21428549999998836,
                    "durationTicks": 60,
                    "midi": 57,
                    "name": "A3",
                    "ticks": 35940,
                    "time": 128.35701450000002,
                    "velocity": 1
                },
                {
                    "duration": 0.21428549999998836,
                    "durationTicks": 60,
                    "midi": 52,
                    "name": "E3",
                    "ticks": 35940,
                    "time": 128.35701450000002,
                    "velocity": 1
                },
                {
                    "duration": 0.21428550000001678,
                    "durationTicks": 60,
                    "midi": 40,
                    "name": "E2",
                    "ticks": 36000,
                    "time": 128.5713,
                    "velocity": 1
                },
                {
                    "duration": 0.21428549999998836,
                    "durationTicks": 60,
                    "midi": 40,
                    "name": "E2",
                    "ticks": 36060,
                    "time": 128.78558550000002,
                    "velocity": 1
                },
                {
                    "duration": 0.21428549999998836,
                    "durationTicks": 60,
                    "midi": 40,
                    "name": "E2",
                    "ticks": 36120,
                    "time": 128.999871,
                    "velocity": 1
                },
                {
                    "duration": 0.21428550000001678,
                    "durationTicks": 60,
                    "midi": 40,
                    "name": "E2",
                    "ticks": 36180,
                    "time": 129.2141565,
                    "velocity": 1
                },
                {
                    "duration": 0.21428549999998836,
                    "durationTicks": 60,
                    "midi": 52,
                    "name": "E3",
                    "ticks": 36240,
                    "time": 129.42844200000002,
                    "velocity": 1
                },
                {
                    "duration": 0.21428550000001678,
                    "durationTicks": 60,
                    "midi": 50,
                    "name": "D3",
                    "ticks": 36300,
                    "time": 129.6427275,
                    "velocity": 1
                },
                {
                    "duration": 0.21428549999998836,
                    "durationTicks": 60,
                    "midi": 47,
                    "name": "B2",
                    "ticks": 36360,
                    "time": 129.85701300000002,
                    "velocity": 1
                },
                {
                    "duration": 0.21428549999998836,
                    "durationTicks": 60,
                    "midi": 46,
                    "name": "A#2",
                    "ticks": 36420,
                    "time": 130.0712985,
                    "velocity": 1
                },
                {
                    "duration": 0.21428550000001678,
                    "durationTicks": 60,
                    "midi": 40,
                    "name": "E2",
                    "ticks": 36480,
                    "time": 130.285584,
                    "velocity": 1
                },
                {
                    "duration": 0.21428549999998836,
                    "durationTicks": 60,
                    "midi": 40,
                    "name": "E2",
                    "ticks": 36540,
                    "time": 130.49986950000002,
                    "velocity": 1
                },
                {
                    "duration": 0.21428550000001678,
                    "durationTicks": 60,
                    "midi": 40,
                    "name": "E2",
                    "ticks": 36600,
                    "time": 130.714155,
                    "velocity": 1
                },
                {
                    "duration": 0.21428549999998836,
                    "durationTicks": 60,
                    "midi": 40,
                    "name": "E2",
                    "ticks": 36660,
                    "time": 130.92844050000002,
                    "velocity": 1
                },
                {
                    "duration": 0.21428549999998836,
                    "durationTicks": 60,
                    "midi": 55,
                    "name": "G3",
                    "ticks": 36720,
                    "time": 131.142726,
                    "velocity": 1
                },
                {
                    "duration": 0.21428549999998836,
                    "durationTicks": 60,
                    "midi": 50,
                    "name": "D3",
                    "ticks": 36720,
                    "time": 131.142726,
                    "velocity": 1
                },
                {
                    "duration": 0.21428550000001678,
                    "durationTicks": 60,
                    "midi": 52,
                    "name": "E3",
                    "ticks": 36780,
                    "time": 131.3570115,
                    "velocity": 1
                },
                {
                    "duration": 0.21428550000001678,
                    "durationTicks": 60,
                    "midi": 57,
                    "name": "A3",
                    "ticks": 36780,
                    "time": 131.3570115,
                    "velocity": 1
                },
                {
                    "duration": 0.21428549999998836,
                    "durationTicks": 60,
                    "midi": 50,
                    "name": "D3",
                    "ticks": 36840,
                    "time": 131.57129700000002,
                    "velocity": 1
                },
                {
                    "duration": 0.21428549999998836,
                    "durationTicks": 60,
                    "midi": 55,
                    "name": "G3",
                    "ticks": 36840,
                    "time": 131.57129700000002,
                    "velocity": 1
                },
                {
                    "duration": 0.21428550000001678,
                    "durationTicks": 60,
                    "midi": 57,
                    "name": "A3",
                    "ticks": 36900,
                    "time": 131.7855825,
                    "velocity": 1
                },
                {
                    "duration": 0.21428550000001678,
                    "durationTicks": 60,
                    "midi": 52,
                    "name": "E3",
                    "ticks": 36900,
                    "time": 131.7855825,
                    "velocity": 1
                },
                {
                    "duration": 0.21428549999998836,
                    "durationTicks": 60,
                    "midi": 40,
                    "name": "E2",
                    "ticks": 36960,
                    "time": 131.99986800000002,
                    "velocity": 1
                },
                {
                    "duration": 0.21428549999998836,
                    "durationTicks": 60,
                    "midi": 40,
                    "name": "E2",
                    "ticks": 37020,
                    "time": 132.2141535,
                    "velocity": 1
                },
                {
                    "duration": 0.21428550000001678,
                    "durationTicks": 60,
                    "midi": 40,
                    "name": "E2",
                    "ticks": 37080,
                    "time": 132.428439,
                    "velocity": 1
                },
                {
                    "duration": 0.21428549999998836,
                    "durationTicks": 60,
                    "midi": 40,
                    "name": "E2",
                    "ticks": 37140,
                    "time": 132.6427245,
                    "velocity": 1
                },
                {
                    "duration": 0.21428550000001678,
                    "durationTicks": 60,
                    "midi": 52,
                    "name": "E3",
                    "ticks": 37200,
                    "time": 132.85701,
                    "velocity": 1
                },
                {
                    "duration": 0.21428549999998836,
                    "durationTicks": 60,
                    "midi": 50,
                    "name": "D3",
                    "ticks": 37260,
                    "time": 133.07129550000002,
                    "velocity": 1
                },
                {
                    "duration": 0.21428550000001678,
                    "durationTicks": 60,
                    "midi": 47,
                    "name": "B2",
                    "ticks": 37320,
                    "time": 133.285581,
                    "velocity": 1
                },
                {
                    "duration": 0.21428549999998836,
                    "durationTicks": 60,
                    "midi": 46,
                    "name": "A#2",
                    "ticks": 37380,
                    "time": 133.49986650000002,
                    "velocity": 1
                },
                {
                    "duration": 0.21428549999998836,
                    "durationTicks": 60,
                    "midi": 40,
                    "name": "E2",
                    "ticks": 37440,
                    "time": 133.714152,
                    "velocity": 1
                },
                {
                    "duration": 0.21428550000001678,
                    "durationTicks": 60,
                    "midi": 40,
                    "name": "E2",
                    "ticks": 37500,
                    "time": 133.9284375,
                    "velocity": 1
                },
                {
                    "duration": 0.21428549999998836,
                    "durationTicks": 60,
                    "midi": 40,
                    "name": "E2",
                    "ticks": 37560,
                    "time": 134.14272300000002,
                    "velocity": 1
                },
                {
                    "duration": 0.21428550000001678,
                    "durationTicks": 60,
                    "midi": 40,
                    "name": "E2",
                    "ticks": 37620,
                    "time": 134.3570085,
                    "velocity": 1
                },
                {
                    "duration": 0.21428549999998836,
                    "durationTicks": 60,
                    "midi": 55,
                    "name": "G3",
                    "ticks": 37680,
                    "time": 134.57129400000002,
                    "velocity": 1
                },
                {
                    "duration": 0.21428549999998836,
                    "durationTicks": 60,
                    "midi": 50,
                    "name": "D3",
                    "ticks": 37680,
                    "time": 134.57129400000002,
                    "velocity": 1
                },
                {
                    "duration": 0.21428549999998836,
                    "durationTicks": 60,
                    "midi": 52,
                    "name": "E3",
                    "ticks": 37740,
                    "time": 134.7855795,
                    "velocity": 1
                },
                {
                    "duration": 0.21428549999998836,
                    "durationTicks": 60,
                    "midi": 57,
                    "name": "A3",
                    "ticks": 37740,
                    "time": 134.7855795,
                    "velocity": 1
                },
                {
                    "duration": 0.21428550000001678,
                    "durationTicks": 60,
                    "midi": 50,
                    "name": "D3",
                    "ticks": 37800,
                    "time": 134.999865,
                    "velocity": 1
                },
                {
                    "duration": 0.21428550000001678,
                    "durationTicks": 60,
                    "midi": 55,
                    "name": "G3",
                    "ticks": 37800,
                    "time": 134.999865,
                    "velocity": 1
                },
                {
                    "duration": 0.21428549999998836,
                    "durationTicks": 60,
                    "midi": 57,
                    "name": "A3",
                    "ticks": 37860,
                    "time": 135.21415050000002,
                    "velocity": 1
                },
                {
                    "duration": 0.21428549999998836,
                    "durationTicks": 60,
                    "midi": 52,
                    "name": "E3",
                    "ticks": 37860,
                    "time": 135.21415050000002,
                    "velocity": 1
                },
                {
                    "duration": 0.21428550000001678,
                    "durationTicks": 60,
                    "midi": 40,
                    "name": "E2",
                    "ticks": 37920,
                    "time": 135.428436,
                    "velocity": 1
                },
                {
                    "duration": 0.21428549999998836,
                    "durationTicks": 60,
                    "midi": 40,
                    "name": "E2",
                    "ticks": 37980,
                    "time": 135.64272150000002,
                    "velocity": 1
                },
                {
                    "duration": 0.21428549999998836,
                    "durationTicks": 60,
                    "midi": 40,
                    "name": "E2",
                    "ticks": 38040,
                    "time": 135.857007,
                    "velocity": 1
                },
                {
                    "duration": 0.21428550000001678,
                    "durationTicks": 60,
                    "midi": 40,
                    "name": "E2",
                    "ticks": 38100,
                    "time": 136.0712925,
                    "velocity": 1
                },
                {
                    "duration": 0.21428549999998836,
                    "durationTicks": 60,
                    "midi": 52,
                    "name": "E3",
                    "ticks": 38160,
                    "time": 136.28557800000002,
                    "velocity": 1
                },
                {
                    "duration": 0.21428550000001678,
                    "durationTicks": 60,
                    "midi": 50,
                    "name": "D3",
                    "ticks": 38220,
                    "time": 136.4998635,
                    "velocity": 1
                },
                {
                    "duration": 0.21428549999998836,
                    "durationTicks": 60,
                    "midi": 47,
                    "name": "B2",
                    "ticks": 38280,
                    "time": 136.71414900000002,
                    "velocity": 1
                },
                {
                    "duration": 0.21428549999998836,
                    "durationTicks": 60,
                    "midi": 46,
                    "name": "A#2",
                    "ticks": 38340,
                    "time": 136.9284345,
                    "velocity": 1
                },
                {
                    "duration": 0.21428550000001678,
                    "durationTicks": 60,
                    "midi": 40,
                    "name": "E2",
                    "ticks": 38400,
                    "time": 137.14272,
                    "velocity": 1
                },
                {
                    "duration": 0.21428549999998836,
                    "durationTicks": 60,
                    "midi": 40,
                    "name": "E2",
                    "ticks": 38460,
                    "time": 137.3570055,
                    "velocity": 1
                },
                {
                    "duration": 0.21428550000001678,
                    "durationTicks": 60,
                    "midi": 40,
                    "name": "E2",
                    "ticks": 38520,
                    "time": 137.571291,
                    "velocity": 1
                },
                {
                    "duration": 0.21428549999998836,
                    "durationTicks": 60,
                    "midi": 40,
                    "name": "E2",
                    "ticks": 38580,
                    "time": 137.78557650000002,
                    "velocity": 1
                },
                {
                    "duration": 0.21428550000001678,
                    "durationTicks": 60,
                    "midi": 40,
                    "name": "E2",
                    "ticks": 38640,
                    "time": 137.999862,
                    "velocity": 1
                },
                {
                    "duration": 0.21428549999998836,
                    "durationTicks": 60,
                    "midi": 40,
                    "name": "E2",
                    "ticks": 38700,
                    "time": 138.21414750000002,
                    "velocity": 1
                },
                {
                    "duration": 0.21428549999998836,
                    "durationTicks": 60,
                    "midi": 40,
                    "name": "E2",
                    "ticks": 38760,
                    "time": 138.428433,
                    "velocity": 1
                },
                {
                    "duration": 0.21428550000001678,
                    "durationTicks": 60,
                    "midi": 40,
                    "name": "E2",
                    "ticks": 38820,
                    "time": 138.6427185,
                    "velocity": 1
                },
                {
                    "duration": 0.21428549999998836,
                    "durationTicks": 60,
                    "midi": 40,
                    "name": "E2",
                    "ticks": 38880,
                    "time": 138.85700400000002,
                    "velocity": 1
                },
                {
                    "duration": 0.21428550000001678,
                    "durationTicks": 60,
                    "midi": 40,
                    "name": "E2",
                    "ticks": 38940,
                    "time": 139.0712895,
                    "velocity": 1
                },
                {
                    "duration": 0.21428549999998836,
                    "durationTicks": 60,
                    "midi": 40,
                    "name": "E2",
                    "ticks": 39000,
                    "time": 139.28557500000002,
                    "velocity": 1
                },
                {
                    "duration": 0.21428549999998836,
                    "durationTicks": 60,
                    "midi": 40,
                    "name": "E2",
                    "ticks": 39060,
                    "time": 139.4998605,
                    "velocity": 1
                },
                {
                    "duration": 0.21428550000001678,
                    "durationTicks": 60,
                    "midi": 47,
                    "name": "B2",
                    "ticks": 39120,
                    "time": 139.714146,
                    "velocity": 1
                },
                {
                    "duration": 0.21428549999998836,
                    "durationTicks": 60,
                    "midi": 46,
                    "name": "A#2",
                    "ticks": 39180,
                    "time": 139.92843150000002,
                    "velocity": 1
                },
                {
                    "duration": 0.21428550000001678,
                    "durationTicks": 60,
                    "midi": 55,
                    "name": "G3",
                    "ticks": 39240,
                    "time": 140.142717,
                    "velocity": 1
                },
                {
                    "duration": 0.21428549999998836,
                    "durationTicks": 60,
                    "midi": 52,
                    "name": "E3",
                    "ticks": 39300,
                    "time": 140.35700250000002,
                    "velocity": 1
                },
                {
                    "duration": 0.21428549999998836,
                    "durationTicks": 60,
                    "midi": 40,
                    "name": "E2",
                    "ticks": 39360,
                    "time": 140.571288,
                    "velocity": 1
                },
                {
                    "duration": 0.21428550000001678,
                    "durationTicks": 60,
                    "midi": 40,
                    "name": "E2",
                    "ticks": 39420,
                    "time": 140.7855735,
                    "velocity": 1
                },
                {
                    "duration": 0.21428549999998836,
                    "durationTicks": 60,
                    "midi": 40,
                    "name": "E2",
                    "ticks": 39480,
                    "time": 140.99985900000001,
                    "velocity": 1
                },
                {
                    "duration": 0.21428550000001678,
                    "durationTicks": 60,
                    "midi": 40,
                    "name": "E2",
                    "ticks": 39540,
                    "time": 141.2141445,
                    "velocity": 1
                },
                {
                    "duration": 0.21428549999998836,
                    "durationTicks": 60,
                    "midi": 40,
                    "name": "E2",
                    "ticks": 39600,
                    "time": 141.42843000000002,
                    "velocity": 1
                },
                {
                    "duration": 0.21428550000001678,
                    "durationTicks": 60,
                    "midi": 40,
                    "name": "E2",
                    "ticks": 39660,
                    "time": 141.6427155,
                    "velocity": 1
                },
                {
                    "duration": 0.21428549999998836,
                    "durationTicks": 60,
                    "midi": 40,
                    "name": "E2",
                    "ticks": 39720,
                    "time": 141.85700100000003,
                    "velocity": 1
                },
                {
                    "duration": 0.21428549999998836,
                    "durationTicks": 60,
                    "midi": 40,
                    "name": "E2",
                    "ticks": 39780,
                    "time": 142.0712865,
                    "velocity": 1
                },
                {
                    "duration": 0.21428550000001678,
                    "durationTicks": 60,
                    "midi": 40,
                    "name": "E2",
                    "ticks": 39840,
                    "time": 142.285572,
                    "velocity": 1
                },
                {
                    "duration": 0.21428549999998836,
                    "durationTicks": 60,
                    "midi": 40,
                    "name": "E2",
                    "ticks": 39900,
                    "time": 142.49985750000002,
                    "velocity": 1
                },
                {
                    "duration": 0.21428550000001678,
                    "durationTicks": 60,
                    "midi": 40,
                    "name": "E2",
                    "ticks": 39960,
                    "time": 142.714143,
                    "velocity": 1
                },
                {
                    "duration": 0.21428549999998836,
                    "durationTicks": 60,
                    "midi": 40,
                    "name": "E2",
                    "ticks": 40020,
                    "time": 142.92842850000002,
                    "velocity": 1
                },
                {
                    "duration": 0.21428549999998836,
                    "durationTicks": 60,
                    "midi": 47,
                    "name": "B2",
                    "ticks": 40080,
                    "time": 143.142714,
                    "velocity": 1
                },
                {
                    "duration": 0.21428550000001678,
                    "durationTicks": 60,
                    "midi": 46,
                    "name": "A#2",
                    "ticks": 40140,
                    "time": 143.3569995,
                    "velocity": 1
                },
                {
                    "duration": 0.21428549999998836,
                    "durationTicks": 60,
                    "midi": 55,
                    "name": "G3",
                    "ticks": 40200,
                    "time": 143.57128500000002,
                    "velocity": 1
                },
                {
                    "duration": 0.21428550000001678,
                    "durationTicks": 60,
                    "midi": 52,
                    "name": "E3",
                    "ticks": 40260,
                    "time": 143.7855705,
                    "velocity": 1
                },
                {
                    "duration": 0.21428549999998836,
                    "durationTicks": 60,
                    "midi": 40,
                    "name": "E2",
                    "ticks": 40320,
                    "time": 143.99985600000002,
                    "velocity": 1
                },
                {
                    "duration": 0.21428549999998836,
                    "durationTicks": 60,
                    "midi": 40,
                    "name": "E2",
                    "ticks": 40380,
                    "time": 144.2141415,
                    "velocity": 1
                },
                {
                    "duration": 0.21428550000001678,
                    "durationTicks": 60,
                    "midi": 40,
                    "name": "E2",
                    "ticks": 40440,
                    "time": 144.428427,
                    "velocity": 1
                },
                {
                    "duration": 0.21428549999998836,
                    "durationTicks": 60,
                    "midi": 40,
                    "name": "E2",
                    "ticks": 40500,
                    "time": 144.64271250000002,
                    "velocity": 1
                },
                {
                    "duration": 0.21428550000001678,
                    "durationTicks": 60,
                    "midi": 40,
                    "name": "E2",
                    "ticks": 40560,
                    "time": 144.856998,
                    "velocity": 1
                },
                {
                    "duration": 0.21428549999998836,
                    "durationTicks": 60,
                    "midi": 40,
                    "name": "E2",
                    "ticks": 40620,
                    "time": 145.07128350000002,
                    "velocity": 1
                },
                {
                    "duration": 0.21428549999998836,
                    "durationTicks": 60,
                    "midi": 40,
                    "name": "E2",
                    "ticks": 40680,
                    "time": 145.285569,
                    "velocity": 1
                },
                {
                    "duration": 0.21428550000001678,
                    "durationTicks": 60,
                    "midi": 40,
                    "name": "E2",
                    "ticks": 40740,
                    "time": 145.4998545,
                    "velocity": 1
                },
                {
                    "duration": 0.21428549999998836,
                    "durationTicks": 60,
                    "midi": 40,
                    "name": "E2",
                    "ticks": 40800,
                    "time": 145.71414000000001,
                    "velocity": 1
                },
                {
                    "duration": 0.21428550000001678,
                    "durationTicks": 60,
                    "midi": 40,
                    "name": "E2",
                    "ticks": 40860,
                    "time": 145.9284255,
                    "velocity": 1
                },
                {
                    "duration": 0.21428549999998836,
                    "durationTicks": 60,
                    "midi": 40,
                    "name": "E2",
                    "ticks": 40920,
                    "time": 146.14271100000002,
                    "velocity": 1
                },
                {
                    "duration": 0.21428550000001678,
                    "durationTicks": 60,
                    "midi": 40,
                    "name": "E2",
                    "ticks": 40980,
                    "time": 146.3569965,
                    "velocity": 1
                },
                {
                    "duration": 0.21428549999998836,
                    "durationTicks": 60,
                    "midi": 47,
                    "name": "B2",
                    "ticks": 41040,
                    "time": 146.57128200000002,
                    "velocity": 1
                },
                {
                    "duration": 0.21428549999998836,
                    "durationTicks": 60,
                    "midi": 46,
                    "name": "A#2",
                    "ticks": 41100,
                    "time": 146.7855675,
                    "velocity": 1
                },
                {
                    "duration": 0.21428550000001678,
                    "durationTicks": 60,
                    "midi": 55,
                    "name": "G3",
                    "ticks": 41160,
                    "time": 146.999853,
                    "velocity": 1
                },
                {
                    "duration": 0.21428549999998836,
                    "durationTicks": 60,
                    "midi": 52,
                    "name": "E3",
                    "ticks": 41220,
                    "time": 147.21413850000002,
                    "velocity": 1
                },
                {
                    "duration": 0.21428550000001678,
                    "durationTicks": 60,
                    "midi": 40,
                    "name": "E2",
                    "ticks": 41280,
                    "time": 147.428424,
                    "velocity": 1
                },
                {
                    "duration": 0.21428549999998836,
                    "durationTicks": 60,
                    "midi": 40,
                    "name": "E2",
                    "ticks": 41340,
                    "time": 147.64270950000002,
                    "velocity": 1
                },
                {
                    "duration": 0.21428549999998836,
                    "durationTicks": 60,
                    "midi": 40,
                    "name": "E2",
                    "ticks": 41400,
                    "time": 147.856995,
                    "velocity": 1
                },
                {
                    "duration": 0.21428550000001678,
                    "durationTicks": 60,
                    "midi": 40,
                    "name": "E2",
                    "ticks": 41460,
                    "time": 148.0712805,
                    "velocity": 1
                },
                {
                    "duration": 0.21428549999998836,
                    "durationTicks": 60,
                    "midi": 40,
                    "name": "E2",
                    "ticks": 41520,
                    "time": 148.28556600000002,
                    "velocity": 1
                },
                {
                    "duration": 0.21428550000001678,
                    "durationTicks": 60,
                    "midi": 40,
                    "name": "E2",
                    "ticks": 41580,
                    "time": 148.4998515,
                    "velocity": 1
                },
                {
                    "duration": 0.21428549999998836,
                    "durationTicks": 60,
                    "midi": 40,
                    "name": "E2",
                    "ticks": 41640,
                    "time": 148.71413700000002,
                    "velocity": 1
                },
                {
                    "duration": 0.21428549999998836,
                    "durationTicks": 60,
                    "midi": 40,
                    "name": "E2",
                    "ticks": 41700,
                    "time": 148.9284225,
                    "velocity": 1
                },
                {
                    "duration": 0.21428550000001678,
                    "durationTicks": 60,
                    "midi": 40,
                    "name": "E2",
                    "ticks": 41760,
                    "time": 149.142708,
                    "velocity": 1
                },
                {
                    "duration": 0.21428549999998836,
                    "durationTicks": 60,
                    "midi": 40,
                    "name": "E2",
                    "ticks": 41820,
                    "time": 149.35699350000002,
                    "velocity": 1
                },
                {
                    "duration": 0.21428550000001678,
                    "durationTicks": 60,
                    "midi": 40,
                    "name": "E2",
                    "ticks": 41880,
                    "time": 149.571279,
                    "velocity": 1
                },
                {
                    "duration": 0.21428549999998836,
                    "durationTicks": 60,
                    "midi": 40,
                    "name": "E2",
                    "ticks": 41940,
                    "time": 149.78556450000002,
                    "velocity": 1
                },
                {
                    "duration": 0.21428550000001678,
                    "durationTicks": 60,
                    "midi": 47,
                    "name": "B2",
                    "ticks": 42000,
                    "time": 149.99985,
                    "velocity": 1
                },
                {
                    "duration": 0.21428549999998836,
                    "durationTicks": 60,
                    "midi": 46,
                    "name": "A#2",
                    "ticks": 42060,
                    "time": 150.21413550000003,
                    "velocity": 1
                },
                {
                    "duration": 0.21428549999998836,
                    "durationTicks": 60,
                    "midi": 55,
                    "name": "G3",
                    "ticks": 42120,
                    "time": 150.42842100000001,
                    "velocity": 1
                },
                {
                    "duration": 0.21428550000001678,
                    "durationTicks": 60,
                    "midi": 52,
                    "name": "E3",
                    "ticks": 42180,
                    "time": 150.6427065,
                    "velocity": 1
                },
                {
                    "duration": 0.21428549999998836,
                    "durationTicks": 60,
                    "midi": 60,
                    "name": "C4",
                    "ticks": 42240,
                    "time": 150.85699200000002,
                    "velocity": 1
                },
                {
                    "duration": 0.21428549999998836,
                    "durationTicks": 60,
                    "midi": 55,
                    "name": "G3",
                    "ticks": 42240,
                    "time": 150.85699200000002,
                    "velocity": 1
                },
                {
                    "duration": 0.21428550000001678,
                    "durationTicks": 60,
                    "midi": 40,
                    "name": "E2",
                    "ticks": 42300,
                    "time": 151.0712775,
                    "velocity": 1
                },
                {
                    "duration": 0.21428549999998836,
                    "durationTicks": 60,
                    "midi": 40,
                    "name": "E2",
                    "ticks": 42360,
                    "time": 151.28556300000002,
                    "velocity": 1
                },
                {
                    "duration": 0.21428549999998836,
                    "durationTicks": 60,
                    "midi": 40,
                    "name": "E2",
                    "ticks": 42420,
                    "time": 151.4998485,
                    "velocity": 1
                },
                {
                    "duration": 0.21428550000001678,
                    "durationTicks": 60,
                    "midi": 55,
                    "name": "G3",
                    "ticks": 42480,
                    "time": 151.714134,
                    "velocity": 1
                },
                {
                    "duration": 0.21428550000001678,
                    "durationTicks": 60,
                    "midi": 60,
                    "name": "C4",
                    "ticks": 42480,
                    "time": 151.714134,
                    "velocity": 1
                },
                {
                    "duration": 0.21428549999998836,
                    "durationTicks": 60,
                    "midi": 62,
                    "name": "D4",
                    "ticks": 42540,
                    "time": 151.92841950000002,
                    "velocity": 1
                },
                {
                    "duration": 0.21428549999998836,
                    "durationTicks": 60,
                    "midi": 57,
                    "name": "A3",
                    "ticks": 42540,
                    "time": 151.92841950000002,
                    "velocity": 1
                },
                {
                    "duration": 0.42857100000000514,
                    "durationTicks": 120,
                    "midi": 55,
                    "name": "G3",
                    "ticks": 42600,
                    "time": 152.142705,
                    "velocity": 1
                },
                {
                    "duration": 0.42857100000000514,
                    "durationTicks": 120,
                    "midi": 60,
                    "name": "C4",
                    "ticks": 42600,
                    "time": 152.142705,
                    "velocity": 1
                },
                {
                    "duration": 0.21428549999998836,
                    "durationTicks": 60,
                    "midi": 60,
                    "name": "C4",
                    "ticks": 42720,
                    "time": 152.571276,
                    "velocity": 1
                },
                {
                    "duration": 0.21428549999998836,
                    "durationTicks": 60,
                    "midi": 55,
                    "name": "G3",
                    "ticks": 42720,
                    "time": 152.571276,
                    "velocity": 1
                },
                {
                    "duration": 0.21428550000001678,
                    "durationTicks": 60,
                    "midi": 40,
                    "name": "E2",
                    "ticks": 42780,
                    "time": 152.7855615,
                    "velocity": 1
                },
                {
                    "duration": 0.21428549999998836,
                    "durationTicks": 60,
                    "midi": 40,
                    "name": "E2",
                    "ticks": 42840,
                    "time": 152.99984700000002,
                    "velocity": 1
                },
                {
                    "duration": 0.21428550000001678,
                    "durationTicks": 60,
                    "midi": 40,
                    "name": "E2",
                    "ticks": 42900,
                    "time": 153.2141325,
                    "velocity": 1
                },
                {
                    "duration": 0.21428549999998836,
                    "durationTicks": 60,
                    "midi": 55,
                    "name": "G3",
                    "ticks": 42960,
                    "time": 153.42841800000002,
                    "velocity": 1
                },
                {
                    "duration": 0.21428549999998836,
                    "durationTicks": 60,
                    "midi": 60,
                    "name": "C4",
                    "ticks": 42960,
                    "time": 153.42841800000002,
                    "velocity": 1
                },
                {
                    "duration": 0.21428549999998836,
                    "durationTicks": 60,
                    "midi": 62,
                    "name": "D4",
                    "ticks": 43020,
                    "time": 153.6427035,
                    "velocity": 1
                },
                {
                    "duration": 0.21428549999998836,
                    "durationTicks": 60,
                    "midi": 57,
                    "name": "A3",
                    "ticks": 43020,
                    "time": 153.6427035,
                    "velocity": 1
                },
                {
                    "duration": 0.42857100000000514,
                    "durationTicks": 120,
                    "midi": 55,
                    "name": "G3",
                    "ticks": 43080,
                    "time": 153.856989,
                    "velocity": 1
                },
                {
                    "duration": 0.42857100000000514,
                    "durationTicks": 120,
                    "midi": 60,
                    "name": "C4",
                    "ticks": 43080,
                    "time": 153.856989,
                    "velocity": 1
                },
                {
                    "duration": 0.21428550000001678,
                    "durationTicks": 60,
                    "midi": 60,
                    "name": "C4",
                    "ticks": 43200,
                    "time": 154.28556,
                    "velocity": 1
                },
                {
                    "duration": 0.21428550000001678,
                    "durationTicks": 60,
                    "midi": 55,
                    "name": "G3",
                    "ticks": 43200,
                    "time": 154.28556,
                    "velocity": 1
                },
                {
                    "duration": 0.21428549999998836,
                    "durationTicks": 60,
                    "midi": 40,
                    "name": "E2",
                    "ticks": 43260,
                    "time": 154.49984550000002,
                    "velocity": 1
                },
                {
                    "duration": 0.21428550000001678,
                    "durationTicks": 60,
                    "midi": 40,
                    "name": "E2",
                    "ticks": 43320,
                    "time": 154.714131,
                    "velocity": 1
                },
                {
                    "duration": 0.21428549999998836,
                    "durationTicks": 60,
                    "midi": 40,
                    "name": "E2",
                    "ticks": 43380,
                    "time": 154.92841650000003,
                    "velocity": 1
                },
                {
                    "duration": 0.21428549999998836,
                    "durationTicks": 60,
                    "midi": 55,
                    "name": "G3",
                    "ticks": 43440,
                    "time": 155.142702,
                    "velocity": 1
                },
                {
                    "duration": 0.21428549999998836,
                    "durationTicks": 60,
                    "midi": 60,
                    "name": "C4",
                    "ticks": 43440,
                    "time": 155.142702,
                    "velocity": 1
                },
                {
                    "duration": 0.21428550000001678,
                    "durationTicks": 60,
                    "midi": 62,
                    "name": "D4",
                    "ticks": 43500,
                    "time": 155.3569875,
                    "velocity": 1
                },
                {
                    "duration": 0.21428550000001678,
                    "durationTicks": 60,
                    "midi": 57,
                    "name": "A3",
                    "ticks": 43500,
                    "time": 155.3569875,
                    "velocity": 1
                },
                {
                    "duration": 0.42857100000000514,
                    "durationTicks": 120,
                    "midi": 55,
                    "name": "G3",
                    "ticks": 43560,
                    "time": 155.57127300000002,
                    "velocity": 1
                },
                {
                    "duration": 0.42857100000000514,
                    "durationTicks": 120,
                    "midi": 60,
                    "name": "C4",
                    "ticks": 43560,
                    "time": 155.57127300000002,
                    "velocity": 1
                },
                {
                    "duration": 0.21428549999998836,
                    "durationTicks": 60,
                    "midi": 62,
                    "name": "D4",
                    "ticks": 43680,
                    "time": 155.99984400000002,
                    "velocity": 1
                },
                {
                    "duration": 0.21428549999998836,
                    "durationTicks": 60,
                    "midi": 60,
                    "name": "C4",
                    "ticks": 43740,
                    "time": 156.2141295,
                    "velocity": 1
                },
                {
                    "duration": 0.21428550000001678,
                    "durationTicks": 60,
                    "midi": 57,
                    "name": "A3",
                    "ticks": 43800,
                    "time": 156.428415,
                    "velocity": 1
                },
                {
                    "duration": 0.21428549999998836,
                    "durationTicks": 60,
                    "midi": 56,
                    "name": "G#3",
                    "ticks": 43860,
                    "time": 156.64270050000002,
                    "velocity": 1
                },
                {
                    "duration": 0.21428550000001678,
                    "durationTicks": 60,
                    "midi": 55,
                    "name": "G3",
                    "ticks": 43920,
                    "time": 156.856986,
                    "velocity": 1
                },
                {
                    "duration": 0.21428549999998836,
                    "durationTicks": 60,
                    "midi": 52,
                    "name": "E3",
                    "ticks": 43980,
                    "time": 157.07127150000002,
                    "velocity": 1
                },
                {
                    "duration": 0.21428549999998836,
                    "durationTicks": 60,
                    "midi": 51,
                    "name": "D#3",
                    "ticks": 44040,
                    "time": 157.285557,
                    "velocity": 1
                },
                {
                    "duration": 0.21428550000001678,
                    "durationTicks": 60,
                    "midi": 50,
                    "name": "D3",
                    "ticks": 44100,
                    "time": 157.4998425,
                    "velocity": 1
                },
                {
                    "duration": 0.21428549999998836,
                    "durationTicks": 60,
                    "midi": 60,
                    "name": "C4",
                    "ticks": 44160,
                    "time": 157.71412800000002,
                    "velocity": 1
                },
                {
                    "duration": 0.21428549999998836,
                    "durationTicks": 60,
                    "midi": 55,
                    "name": "G3",
                    "ticks": 44160,
                    "time": 157.71412800000002,
                    "velocity": 1
                },
                {
                    "duration": 0.21428550000001678,
                    "durationTicks": 60,
                    "midi": 40,
                    "name": "E2",
                    "ticks": 44220,
                    "time": 157.9284135,
                    "velocity": 1
                },
                {
                    "duration": 0.21428549999998836,
                    "durationTicks": 60,
                    "midi": 40,
                    "name": "E2",
                    "ticks": 44280,
                    "time": 158.14269900000002,
                    "velocity": 1
                },
                {
                    "duration": 0.21428550000001678,
                    "durationTicks": 60,
                    "midi": 40,
                    "name": "E2",
                    "ticks": 44340,
                    "time": 158.3569845,
                    "velocity": 1
                },
                {
                    "duration": 0.21428549999998836,
                    "durationTicks": 60,
                    "midi": 55,
                    "name": "G3",
                    "ticks": 44400,
                    "time": 158.57127000000003,
                    "velocity": 1
                },
                {
                    "duration": 0.21428549999998836,
                    "durationTicks": 60,
                    "midi": 60,
                    "name": "C4",
                    "ticks": 44400,
                    "time": 158.57127000000003,
                    "velocity": 1
                },
                {
                    "duration": 0.21428549999998836,
                    "durationTicks": 60,
                    "midi": 62,
                    "name": "D4",
                    "ticks": 44460,
                    "time": 158.78555550000002,
                    "velocity": 1
                },
                {
                    "duration": 0.21428549999998836,
                    "durationTicks": 60,
                    "midi": 57,
                    "name": "A3",
                    "ticks": 44460,
                    "time": 158.78555550000002,
                    "velocity": 1
                },
                {
                    "duration": 0.42857100000000514,
                    "durationTicks": 120,
                    "midi": 55,
                    "name": "G3",
                    "ticks": 44520,
                    "time": 158.999841,
                    "velocity": 1
                },
                {
                    "duration": 0.42857100000000514,
                    "durationTicks": 120,
                    "midi": 60,
                    "name": "C4",
                    "ticks": 44520,
                    "time": 158.999841,
                    "velocity": 1
                },
                {
                    "duration": 0.21428550000001678,
                    "durationTicks": 60,
                    "midi": 60,
                    "name": "C4",
                    "ticks": 44640,
                    "time": 159.428412,
                    "velocity": 1
                },
                {
                    "duration": 0.21428550000001678,
                    "durationTicks": 60,
                    "midi": 55,
                    "name": "G3",
                    "ticks": 44640,
                    "time": 159.428412,
                    "velocity": 1
                },
                {
                    "duration": 0.21428549999998836,
                    "durationTicks": 60,
                    "midi": 40,
                    "name": "E2",
                    "ticks": 44700,
                    "time": 159.64269750000003,
                    "velocity": 1
                },
                {
                    "duration": 0.21428549999998836,
                    "durationTicks": 60,
                    "midi": 40,
                    "name": "E2",
                    "ticks": 44760,
                    "time": 159.856983,
                    "velocity": 1
                },
                {
                    "duration": 0.21428550000001678,
                    "durationTicks": 60,
                    "midi": 40,
                    "name": "E2",
                    "ticks": 44820,
                    "time": 160.0712685,
                    "velocity": 1
                },
                {
                    "duration": 0.21428549999998836,
                    "durationTicks": 60,
                    "midi": 55,
                    "name": "G3",
                    "ticks": 44880,
                    "time": 160.28555400000002,
                    "velocity": 1
                },
                {
                    "duration": 0.21428549999998836,
                    "durationTicks": 60,
                    "midi": 60,
                    "name": "C4",
                    "ticks": 44880,
                    "time": 160.28555400000002,
                    "velocity": 1
                },
                {
                    "duration": 0.21428550000001678,
                    "durationTicks": 60,
                    "midi": 62,
                    "name": "D4",
                    "ticks": 44940,
                    "time": 160.4998395,
                    "velocity": 1
                },
                {
                    "duration": 0.21428550000001678,
                    "durationTicks": 60,
                    "midi": 57,
                    "name": "A3",
                    "ticks": 44940,
                    "time": 160.4998395,
                    "velocity": 1
                },
                {
                    "duration": 0.4285709999999767,
                    "durationTicks": 120,
                    "midi": 55,
                    "name": "G3",
                    "ticks": 45000,
                    "time": 160.71412500000002,
                    "velocity": 1
                },
                {
                    "duration": 0.4285709999999767,
                    "durationTicks": 120,
                    "midi": 60,
                    "name": "C4",
                    "ticks": 45000,
                    "time": 160.71412500000002,
                    "velocity": 1
                },
                {
                    "duration": 0.21428550000001678,
                    "durationTicks": 60,
                    "midi": 60,
                    "name": "C4",
                    "ticks": 45120,
                    "time": 161.142696,
                    "velocity": 1
                },
                {
                    "duration": 0.21428550000001678,
                    "durationTicks": 60,
                    "midi": 55,
                    "name": "G3",
                    "ticks": 45120,
                    "time": 161.142696,
                    "velocity": 1
                },
                {
                    "duration": 0.21428549999998836,
                    "durationTicks": 60,
                    "midi": 40,
                    "name": "E2",
                    "ticks": 45180,
                    "time": 161.35698150000002,
                    "velocity": 1
                },
                {
                    "duration": 0.21428550000001678,
                    "durationTicks": 60,
                    "midi": 40,
                    "name": "E2",
                    "ticks": 45240,
                    "time": 161.571267,
                    "velocity": 1
                },
                {
                    "duration": 0.21428549999998836,
                    "durationTicks": 60,
                    "midi": 40,
                    "name": "E2",
                    "ticks": 45300,
                    "time": 161.78555250000002,
                    "velocity": 1
                },
                {
                    "duration": 0.21428549999998836,
                    "durationTicks": 60,
                    "midi": 55,
                    "name": "G3",
                    "ticks": 45360,
                    "time": 161.999838,
                    "velocity": 1
                },
                {
                    "duration": 0.21428549999998836,
                    "durationTicks": 60,
                    "midi": 60,
                    "name": "C4",
                    "ticks": 45360,
                    "time": 161.999838,
                    "velocity": 1
                },
                {
                    "duration": 0.21428550000001678,
                    "durationTicks": 60,
                    "midi": 62,
                    "name": "D4",
                    "ticks": 45420,
                    "time": 162.2141235,
                    "velocity": 1
                },
                {
                    "duration": 0.21428550000001678,
                    "durationTicks": 60,
                    "midi": 57,
                    "name": "A3",
                    "ticks": 45420,
                    "time": 162.2141235,
                    "velocity": 1
                },
                {
                    "duration": 0.42857100000000514,
                    "durationTicks": 120,
                    "midi": 55,
                    "name": "G3",
                    "ticks": 45480,
                    "time": 162.42840900000002,
                    "velocity": 1
                },
                {
                    "duration": 0.42857100000000514,
                    "durationTicks": 120,
                    "midi": 60,
                    "name": "C4",
                    "ticks": 45480,
                    "time": 162.42840900000002,
                    "velocity": 1
                },
                {
                    "duration": 0.21428549999998836,
                    "durationTicks": 60,
                    "midi": 64,
                    "name": "E4",
                    "ticks": 45600,
                    "time": 162.85698000000002,
                    "velocity": 1
                },
                {
                    "duration": 0.21428550000001678,
                    "durationTicks": 60,
                    "midi": 62,
                    "name": "D4",
                    "ticks": 45660,
                    "time": 163.0712655,
                    "velocity": 1
                },
                {
                    "duration": 0.21428549999998836,
                    "durationTicks": 60,
                    "midi": 59,
                    "name": "B3",
                    "ticks": 45720,
                    "time": 163.28555100000003,
                    "velocity": 1
                },
                {
                    "duration": 0.21428549999998836,
                    "durationTicks": 60,
                    "midi": 62,
                    "name": "D4",
                    "ticks": 45780,
                    "time": 163.49983650000001,
                    "velocity": 1
                },
                {
                    "duration": 0.21428550000001678,
                    "durationTicks": 60,
                    "midi": 59,
                    "name": "B3",
                    "ticks": 45840,
                    "time": 163.714122,
                    "velocity": 1
                },
                {
                    "duration": 0.21428549999998836,
                    "durationTicks": 60,
                    "midi": 58,
                    "name": "A#3",
                    "ticks": 45900,
                    "time": 163.92840750000002,
                    "velocity": 1
                },
                {
                    "duration": 0.21428550000001678,
                    "durationTicks": 60,
                    "midi": 57,
                    "name": "A3",
                    "ticks": 45960,
                    "time": 164.142693,
                    "velocity": 1
                },
                {
                    "duration": 0.21428549999998836,
                    "durationTicks": 60,
                    "midi": 55,
                    "name": "G3",
                    "ticks": 46020,
                    "time": 164.35697850000003,
                    "velocity": 1
                },
                {
                    "duration": 0.21428549999998836,
                    "durationTicks": 60,
                    "midi": 64,
                    "name": "E4",
                    "ticks": 46080,
                    "time": 164.571264,
                    "velocity": 1
                },
                {
                    "duration": 0.21428550000001678,
                    "durationTicks": 60,
                    "midi": 62,
                    "name": "D4",
                    "ticks": 46140,
                    "time": 164.7855495,
                    "velocity": 1
                },
                {
                    "duration": 0.21428549999998836,
                    "durationTicks": 60,
                    "midi": 59,
                    "name": "B3",
                    "ticks": 46200,
                    "time": 164.99983500000002,
                    "velocity": 1
                },
                {
                    "duration": 0.21428550000001678,
                    "durationTicks": 60,
                    "midi": 62,
                    "name": "D4",
                    "ticks": 46260,
                    "time": 165.2141205,
                    "velocity": 1
                },
                {
                    "duration": 0.21428549999998836,
                    "durationTicks": 60,
                    "midi": 59,
                    "name": "B3",
                    "ticks": 46320,
                    "time": 165.42840600000002,
                    "velocity": 1
                },
                {
                    "duration": 0.21428549999998836,
                    "durationTicks": 60,
                    "midi": 58,
                    "name": "A#3",
                    "ticks": 46380,
                    "time": 165.6426915,
                    "velocity": 1
                },
                {
                    "duration": 0.21428550000001678,
                    "durationTicks": 60,
                    "midi": 57,
                    "name": "A3",
                    "ticks": 46440,
                    "time": 165.856977,
                    "velocity": 1
                },
                {
                    "duration": 0.21428549999998836,
                    "durationTicks": 60,
                    "midi": 55,
                    "name": "G3",
                    "ticks": 46500,
                    "time": 166.07126250000002,
                    "velocity": 1
                },
                {
                    "duration": 1.7142840000000206,
                    "durationTicks": 480,
                    "midi": 62,
                    "name": "D4",
                    "ticks": 46560,
                    "time": 166.285548,
                    "velocity": 1
                },
                {
                    "duration": 1.7142840000000206,
                    "durationTicks": 480,
                    "midi": 55,
                    "name": "G3",
                    "ticks": 46560,
                    "time": 166.285548,
                    "velocity": 1
                },
                {
                    "duration": 0.8571419999999819,
                    "durationTicks": 240,
                    "midi": 61,
                    "name": "C#4",
                    "ticks": 47040,
                    "time": 167.99983200000003,
                    "velocity": 1
                },
                {
                    "duration": 0.8571419999999819,
                    "durationTicks": 240,
                    "midi": 54,
                    "name": "F#3",
                    "ticks": 47040,
                    "time": 167.99983200000003,
                    "velocity": 1
                },
                {
                    "duration": 0.8571420000000103,
                    "durationTicks": 240,
                    "midi": 60,
                    "name": "C4",
                    "ticks": 47280,
                    "time": 168.856974,
                    "velocity": 1
                },
                {
                    "duration": 0.8571420000000103,
                    "durationTicks": 240,
                    "midi": 53,
                    "name": "F3",
                    "ticks": 47280,
                    "time": 168.856974,
                    "velocity": 1
                },
                {
                    "duration": 0.21428549999998836,
                    "durationTicks": 60,
                    "midi": 40,
                    "name": "E2",
                    "ticks": 47520,
                    "time": 169.71411600000002,
                    "velocity": 1
                },
                {
                    "duration": 0.21428550000001678,
                    "durationTicks": 60,
                    "midi": 40,
                    "name": "E2",
                    "ticks": 47580,
                    "time": 169.9284015,
                    "velocity": 1
                },
                {
                    "duration": 0.21428549999998836,
                    "durationTicks": 60,
                    "midi": 40,
                    "name": "E2",
                    "ticks": 47640,
                    "time": 170.14268700000002,
                    "velocity": 1
                },
                {
                    "duration": 0.21428549999998836,
                    "durationTicks": 60,
                    "midi": 40,
                    "name": "E2",
                    "ticks": 47700,
                    "time": 170.3569725,
                    "velocity": 1
                },
                {
                    "duration": 0.21428550000001678,
                    "durationTicks": 60,
                    "midi": 40,
                    "name": "E2",
                    "ticks": 47760,
                    "time": 170.571258,
                    "velocity": 1
                },
                {
                    "duration": 0.21428549999998836,
                    "durationTicks": 60,
                    "midi": 40,
                    "name": "E2",
                    "ticks": 47820,
                    "time": 170.78554350000002,
                    "velocity": 1
                },
                {
                    "duration": 0.21428550000001678,
                    "durationTicks": 60,
                    "midi": 40,
                    "name": "E2",
                    "ticks": 47880,
                    "time": 170.999829,
                    "velocity": 1
                },
                {
                    "duration": 0.21428549999998836,
                    "durationTicks": 60,
                    "midi": 40,
                    "name": "E2",
                    "ticks": 47940,
                    "time": 171.21411450000002,
                    "velocity": 1
                },
                {
                    "duration": 0.21428550000001678,
                    "durationTicks": 60,
                    "midi": 40,
                    "name": "E2",
                    "ticks": 48000,
                    "time": 171.4284,
                    "velocity": 1
                },
                {
                    "duration": 0.21428549999998836,
                    "durationTicks": 60,
                    "midi": 40,
                    "name": "E2",
                    "ticks": 48060,
                    "time": 171.64268550000003,
                    "velocity": 1
                },
                {
                    "duration": 0.21428549999998836,
                    "durationTicks": 60,
                    "midi": 40,
                    "name": "E2",
                    "ticks": 48120,
                    "time": 171.85697100000002,
                    "velocity": 1
                },
                {
                    "duration": 0.21428550000001678,
                    "durationTicks": 60,
                    "midi": 40,
                    "name": "E2",
                    "ticks": 48180,
                    "time": 172.0712565,
                    "velocity": 1
                },
                {
                    "duration": 0.21428549999998836,
                    "durationTicks": 60,
                    "midi": 40,
                    "name": "E2",
                    "ticks": 48240,
                    "time": 172.28554200000002,
                    "velocity": 1
                },
                {
                    "duration": 0.21428550000001678,
                    "durationTicks": 60,
                    "midi": 40,
                    "name": "E2",
                    "ticks": 48300,
                    "time": 172.4998275,
                    "velocity": 1
                },
                {
                    "duration": 0.21428549999998836,
                    "durationTicks": 60,
                    "midi": 40,
                    "name": "E2",
                    "ticks": 48360,
                    "time": 172.71411300000003,
                    "velocity": 1
                },
                {
                    "duration": 0.21428549999998836,
                    "durationTicks": 60,
                    "midi": 40,
                    "name": "E2",
                    "ticks": 48420,
                    "time": 172.92839850000001,
                    "velocity": 1
                },
                {
                    "duration": 1.7142840000000206,
                    "durationTicks": 480,
                    "midi": 62,
                    "name": "D4",
                    "ticks": 48480,
                    "time": 173.142684,
                    "velocity": 1
                },
                {
                    "duration": 1.7142840000000206,
                    "durationTicks": 480,
                    "midi": 55,
                    "name": "G3",
                    "ticks": 48480,
                    "time": 173.142684,
                    "velocity": 1
                },
                {
                    "duration": 0.8571419999999819,
                    "durationTicks": 240,
                    "midi": 61,
                    "name": "C#4",
                    "ticks": 48960,
                    "time": 174.85696800000002,
                    "velocity": 1
                },
                {
                    "duration": 0.8571419999999819,
                    "durationTicks": 240,
                    "midi": 54,
                    "name": "F#3",
                    "ticks": 48960,
                    "time": 174.85696800000002,
                    "velocity": 1
                },
                {
                    "duration": 0.8571420000000103,
                    "durationTicks": 240,
                    "midi": 60,
                    "name": "C4",
                    "ticks": 49200,
                    "time": 175.71411,
                    "velocity": 1
                },
                {
                    "duration": 0.8571420000000103,
                    "durationTicks": 240,
                    "midi": 53,
                    "name": "F3",
                    "ticks": 49200,
                    "time": 175.71411,
                    "velocity": 1
                },
                {
                    "duration": 0.21428549999998836,
                    "durationTicks": 60,
                    "midi": 40,
                    "name": "E2",
                    "ticks": 49440,
                    "time": 176.57125200000002,
                    "velocity": 1
                },
                {
                    "duration": 0.21428550000001678,
                    "durationTicks": 60,
                    "midi": 40,
                    "name": "E2",
                    "ticks": 49500,
                    "time": 176.7855375,
                    "velocity": 1
                },
                {
                    "duration": 0.21428549999998836,
                    "durationTicks": 60,
                    "midi": 40,
                    "name": "E2",
                    "ticks": 49560,
                    "time": 176.99982300000002,
                    "velocity": 1
                },
                {
                    "duration": 0.21428550000001678,
                    "durationTicks": 60,
                    "midi": 40,
                    "name": "E2",
                    "ticks": 49620,
                    "time": 177.2141085,
                    "velocity": 1
                },
                {
                    "duration": 0.21428549999998836,
                    "durationTicks": 60,
                    "midi": 40,
                    "name": "E2",
                    "ticks": 49680,
                    "time": 177.42839400000003,
                    "velocity": 1
                },
                {
                    "duration": 0.21428549999998836,
                    "durationTicks": 60,
                    "midi": 40,
                    "name": "E2",
                    "ticks": 49740,
                    "time": 177.6426795,
                    "velocity": 1
                },
                {
                    "duration": 0.21428550000001678,
                    "durationTicks": 60,
                    "midi": 40,
                    "name": "E2",
                    "ticks": 49800,
                    "time": 177.856965,
                    "velocity": 1
                },
                {
                    "duration": 0.21428549999998836,
                    "durationTicks": 60,
                    "midi": 40,
                    "name": "E2",
                    "ticks": 49860,
                    "time": 178.07125050000002,
                    "velocity": 1
                },
                {
                    "duration": 0.21428550000001678,
                    "durationTicks": 60,
                    "midi": 40,
                    "name": "E2",
                    "ticks": 49920,
                    "time": 178.285536,
                    "velocity": 1
                },
                {
                    "duration": 0.21428549999998836,
                    "durationTicks": 60,
                    "midi": 40,
                    "name": "E2",
                    "ticks": 49980,
                    "time": 178.49982150000002,
                    "velocity": 1
                },
                {
                    "duration": 0.21428549999998836,
                    "durationTicks": 60,
                    "midi": 40,
                    "name": "E2",
                    "ticks": 50040,
                    "time": 178.714107,
                    "velocity": 1
                },
                {
                    "duration": 0.21428550000001678,
                    "durationTicks": 60,
                    "midi": 40,
                    "name": "E2",
                    "ticks": 50100,
                    "time": 178.9283925,
                    "velocity": 1
                },
                {
                    "duration": 0.21428549999998836,
                    "durationTicks": 60,
                    "midi": 40,
                    "name": "E2",
                    "ticks": 50160,
                    "time": 179.14267800000002,
                    "velocity": 1
                },
                {
                    "duration": 0.21428550000001678,
                    "durationTicks": 60,
                    "midi": 40,
                    "name": "E2",
                    "ticks": 50220,
                    "time": 179.3569635,
                    "velocity": 1
                },
                {
                    "duration": 0.21428549999998836,
                    "durationTicks": 60,
                    "midi": 40,
                    "name": "E2",
                    "ticks": 50280,
                    "time": 179.57124900000002,
                    "velocity": 1
                },
                {
                    "duration": 0.21428550000001678,
                    "durationTicks": 60,
                    "midi": 40,
                    "name": "E2",
                    "ticks": 50340,
                    "time": 179.7855345,
                    "velocity": 1
                },
                {
                    "duration": 1.7142839999999921,
                    "durationTicks": 480,
                    "midi": 62,
                    "name": "D4",
                    "ticks": 50400,
                    "time": 179.99982000000003,
                    "velocity": 1
                },
                {
                    "duration": 1.7142839999999921,
                    "durationTicks": 480,
                    "midi": 55,
                    "name": "G3",
                    "ticks": 50400,
                    "time": 179.99982000000003,
                    "velocity": 1
                },
                {
                    "duration": 0.8571419999999819,
                    "durationTicks": 240,
                    "midi": 61,
                    "name": "C#4",
                    "ticks": 50880,
                    "time": 181.71410400000002,
                    "velocity": 1
                },
                {
                    "duration": 0.8571419999999819,
                    "durationTicks": 240,
                    "midi": 54,
                    "name": "F#3",
                    "ticks": 50880,
                    "time": 181.71410400000002,
                    "velocity": 1
                },
                {
                    "duration": 0.8571420000000103,
                    "durationTicks": 240,
                    "midi": 60,
                    "name": "C4",
                    "ticks": 51120,
                    "time": 182.571246,
                    "velocity": 1
                },
                {
                    "duration": 0.8571420000000103,
                    "durationTicks": 240,
                    "midi": 53,
                    "name": "F3",
                    "ticks": 51120,
                    "time": 182.571246,
                    "velocity": 1
                },
                {
                    "duration": 0.21428550000001678,
                    "durationTicks": 60,
                    "midi": 40,
                    "name": "E2",
                    "ticks": 51360,
                    "time": 183.428388,
                    "velocity": 1
                },
                {
                    "duration": 0.21428549999998836,
                    "durationTicks": 60,
                    "midi": 40,
                    "name": "E2",
                    "ticks": 51420,
                    "time": 183.64267350000003,
                    "velocity": 1
                },
                {
                    "duration": 0.21428549999998836,
                    "durationTicks": 60,
                    "midi": 40,
                    "name": "E2",
                    "ticks": 51480,
                    "time": 183.85695900000002,
                    "velocity": 1
                },
                {
                    "duration": 0.21428550000001678,
                    "durationTicks": 60,
                    "midi": 40,
                    "name": "E2",
                    "ticks": 51540,
                    "time": 184.0712445,
                    "velocity": 1
                },
                {
                    "duration": 0.21428549999998836,
                    "durationTicks": 60,
                    "midi": 40,
                    "name": "E2",
                    "ticks": 51600,
                    "time": 184.28553000000002,
                    "velocity": 1
                },
                {
                    "duration": 0.21428550000001678,
                    "durationTicks": 60,
                    "midi": 40,
                    "name": "E2",
                    "ticks": 51660,
                    "time": 184.4998155,
                    "velocity": 1
                },
                {
                    "duration": 0.21428549999998836,
                    "durationTicks": 60,
                    "midi": 40,
                    "name": "E2",
                    "ticks": 51720,
                    "time": 184.71410100000003,
                    "velocity": 1
                },
                {
                    "duration": 0.21428549999998836,
                    "durationTicks": 60,
                    "midi": 40,
                    "name": "E2",
                    "ticks": 51780,
                    "time": 184.92838650000002,
                    "velocity": 1
                },
                {
                    "duration": 0.21428550000001678,
                    "durationTicks": 60,
                    "midi": 40,
                    "name": "E2",
                    "ticks": 51840,
                    "time": 185.142672,
                    "velocity": 1
                },
                {
                    "duration": 0.21428549999998836,
                    "durationTicks": 60,
                    "midi": 40,
                    "name": "E2",
                    "ticks": 51900,
                    "time": 185.35695750000002,
                    "velocity": 1
                },
                {
                    "duration": 0.21428550000001678,
                    "durationTicks": 60,
                    "midi": 40,
                    "name": "E2",
                    "ticks": 51960,
                    "time": 185.571243,
                    "velocity": 1
                },
                {
                    "duration": 0.21428549999998836,
                    "durationTicks": 60,
                    "midi": 40,
                    "name": "E2",
                    "ticks": 52020,
                    "time": 185.78552850000003,
                    "velocity": 1
                },
                {
                    "duration": 0.21428549999998836,
                    "durationTicks": 60,
                    "midi": 40,
                    "name": "E2",
                    "ticks": 52080,
                    "time": 185.99981400000001,
                    "velocity": 1
                },
                {
                    "duration": 0.21428550000001678,
                    "durationTicks": 60,
                    "midi": 40,
                    "name": "E2",
                    "ticks": 52140,
                    "time": 186.2140995,
                    "velocity": 1
                },
                {
                    "duration": 0.21428549999998836,
                    "durationTicks": 60,
                    "midi": 40,
                    "name": "E2",
                    "ticks": 52200,
                    "time": 186.42838500000002,
                    "velocity": 1
                },
                {
                    "duration": 0.21428550000001678,
                    "durationTicks": 60,
                    "midi": 40,
                    "name": "E2",
                    "ticks": 52260,
                    "time": 186.6426705,
                    "velocity": 1
                },
                {
                    "duration": 1.7142839999999921,
                    "durationTicks": 480,
                    "midi": 62,
                    "name": "D4",
                    "ticks": 52320,
                    "time": 186.85695600000003,
                    "velocity": 1
                },
                {
                    "duration": 1.7142839999999921,
                    "durationTicks": 480,
                    "midi": 55,
                    "name": "G3",
                    "ticks": 52320,
                    "time": 186.85695600000003,
                    "velocity": 1
                },
                {
                    "duration": 0.8571420000000103,
                    "durationTicks": 240,
                    "midi": 61,
                    "name": "C#4",
                    "ticks": 52800,
                    "time": 188.57124000000002,
                    "velocity": 1
                },
                {
                    "duration": 0.8571420000000103,
                    "durationTicks": 240,
                    "midi": 54,
                    "name": "F#3",
                    "ticks": 52800,
                    "time": 188.57124000000002,
                    "velocity": 1
                },
                {
                    "duration": 0.8571419999999819,
                    "durationTicks": 240,
                    "midi": 60,
                    "name": "C4",
                    "ticks": 53040,
                    "time": 189.42838200000003,
                    "velocity": 1
                },
                {
                    "duration": 0.8571419999999819,
                    "durationTicks": 240,
                    "midi": 53,
                    "name": "F3",
                    "ticks": 53040,
                    "time": 189.42838200000003,
                    "velocity": 1
                },
                {
                    "duration": 1.7142840000000206,
                    "durationTicks": 480,
                    "midi": 64,
                    "name": "E4",
                    "ticks": 53280,
                    "time": 190.285524,
                    "velocity": 1
                },
                {
                    "duration": 1.7142840000000206,
                    "durationTicks": 480,
                    "midi": 59,
                    "name": "B3",
                    "ticks": 53280,
                    "time": 190.285524,
                    "velocity": 1
                },
                {
                    "duration": 1.7142840000000206,
                    "durationTicks": 480,
                    "midi": 52,
                    "name": "E3",
                    "ticks": 53280,
                    "time": 190.285524,
                    "velocity": 1
                },
                {
                    "duration": 1.7142840000000206,
                    "durationTicks": 480,
                    "midi": 40,
                    "name": "E2",
                    "ticks": 53280,
                    "time": 190.285524,
                    "velocity": 1
                },
                {
                    "duration": 0.2884610000000123,
                    "durationTicks": 120,
                    "midi": 68,
                    "name": "G#4",
                    "ticks": 53760,
                    "time": 191.99980800000003,
                    "velocity": 1
                },
                {
                    "duration": 0.2884610000000123,
                    "durationTicks": 120,
                    "midi": 64,
                    "name": "E4",
                    "ticks": 53760,
                    "time": 191.99980800000003,
                    "velocity": 1
                },
                {
                    "duration": 0.2884610000000123,
                    "durationTicks": 120,
                    "midi": 59,
                    "name": "B3",
                    "ticks": 53760,
                    "time": 191.99980800000003,
                    "velocity": 1
                },
                {
                    "duration": 0.2884610000000123,
                    "durationTicks": 120,
                    "midi": 52,
                    "name": "E3",
                    "ticks": 53760,
                    "time": 191.99980800000003,
                    "velocity": 1
                },
                {
                    "duration": 0.14423049999999193,
                    "durationTicks": 60,
                    "midi": 45,
                    "name": "A2",
                    "ticks": 55680,
                    "time": 196.61518400000003,
                    "velocity": 1
                },
                {
                    "duration": 0.14423049999999193,
                    "durationTicks": 60,
                    "midi": 55,
                    "name": "G3",
                    "ticks": 55680,
                    "time": 196.61518400000003,
                    "velocity": 1
                },
                {
                    "duration": 0.14423050000002036,
                    "durationTicks": 60,
                    "midi": 57,
                    "name": "A3",
                    "ticks": 55740,
                    "time": 196.75941450000002,
                    "velocity": 1
                },
                {
                    "duration": 0.14423050000002036,
                    "durationTicks": 60,
                    "midi": 45,
                    "name": "A2",
                    "ticks": 55740,
                    "time": 196.75941450000002,
                    "velocity": 1
                },
                {
                    "duration": 0.14423049999999193,
                    "durationTicks": 60,
                    "midi": 45,
                    "name": "A2",
                    "ticks": 55800,
                    "time": 196.90364500000004,
                    "velocity": 1
                },
                {
                    "duration": 0.14423049999999193,
                    "durationTicks": 60,
                    "midi": 57,
                    "name": "A3",
                    "ticks": 55860,
                    "time": 197.04787550000003,
                    "velocity": 1
                },
                {
                    "duration": 0.14423049999999193,
                    "durationTicks": 60,
                    "midi": 45,
                    "name": "A2",
                    "ticks": 55920,
                    "time": 197.19210600000002,
                    "velocity": 1
                },
                {
                    "duration": 0.14423050000002036,
                    "durationTicks": 60,
                    "midi": 45,
                    "name": "A2",
                    "ticks": 55980,
                    "time": 197.33633650000002,
                    "velocity": 1
                },
                {
                    "duration": 0.14423049999999193,
                    "durationTicks": 60,
                    "midi": 57,
                    "name": "A3",
                    "ticks": 56040,
                    "time": 197.48056700000004,
                    "velocity": 1
                },
                {
                    "duration": 0.14423049999999193,
                    "durationTicks": 60,
                    "midi": 45,
                    "name": "A2",
                    "ticks": 56100,
                    "time": 197.62479750000003,
                    "velocity": 1
                },
                {
                    "duration": 0.14423050000002036,
                    "durationTicks": 60,
                    "midi": 60,
                    "name": "C4",
                    "ticks": 56160,
                    "time": 197.76902800000002,
                    "velocity": 1
                },
                {
                    "duration": 0.14423050000002036,
                    "durationTicks": 60,
                    "midi": 55,
                    "name": "G3",
                    "ticks": 56160,
                    "time": 197.76902800000002,
                    "velocity": 1
                },
                {
                    "duration": 0.14423049999999193,
                    "durationTicks": 60,
                    "midi": 45,
                    "name": "A2",
                    "ticks": 56220,
                    "time": 197.91325850000004,
                    "velocity": 1
                },
                {
                    "duration": 0.14423049999999193,
                    "durationTicks": 60,
                    "midi": 45,
                    "name": "A2",
                    "ticks": 56280,
                    "time": 198.05748900000003,
                    "velocity": 1
                },
                {
                    "duration": 0.14423049999999193,
                    "durationTicks": 60,
                    "midi": 57,
                    "name": "A3",
                    "ticks": 56340,
                    "time": 198.20171950000002,
                    "velocity": 1
                },
                {
                    "duration": 0.14423050000002036,
                    "durationTicks": 60,
                    "midi": 45,
                    "name": "A2",
                    "ticks": 56400,
                    "time": 198.34595000000002,
                    "velocity": 1
                },
                {
                    "duration": 0.14423049999999193,
                    "durationTicks": 60,
                    "midi": 45,
                    "name": "A2",
                    "ticks": 56460,
                    "time": 198.49018050000004,
                    "velocity": 1
                },
                {
                    "duration": 0.14423049999999193,
                    "durationTicks": 60,
                    "midi": 57,
                    "name": "A3",
                    "ticks": 56520,
                    "time": 198.63441100000003,
                    "velocity": 1
                },
                {
                    "duration": 0.14423050000002036,
                    "durationTicks": 60,
                    "midi": 45,
                    "name": "A2",
                    "ticks": 56580,
                    "time": 198.77864150000002,
                    "velocity": 1
                },
                {
                    "duration": 0.14423049999999193,
                    "durationTicks": 60,
                    "midi": 59,
                    "name": "B3",
                    "ticks": 56640,
                    "time": 198.92287200000004,
                    "velocity": 1
                },
                {
                    "duration": 0.14423049999999193,
                    "durationTicks": 60,
                    "midi": 54,
                    "name": "F#3",
                    "ticks": 56640,
                    "time": 198.92287200000004,
                    "velocity": 1
                },
                {
                    "duration": 0.14423049999999193,
                    "durationTicks": 60,
                    "midi": 45,
                    "name": "A2",
                    "ticks": 56700,
                    "time": 199.06710250000003,
                    "velocity": 1
                },
                {
                    "duration": 0.14423049999999193,
                    "durationTicks": 60,
                    "midi": 45,
                    "name": "A2",
                    "ticks": 56760,
                    "time": 199.21133300000002,
                    "velocity": 1
                },
                {
                    "duration": 0.14423050000002036,
                    "durationTicks": 60,
                    "midi": 57,
                    "name": "A3",
                    "ticks": 56820,
                    "time": 199.35556350000002,
                    "velocity": 1
                },
                {
                    "duration": 0.14423049999999193,
                    "durationTicks": 60,
                    "midi": 45,
                    "name": "A2",
                    "ticks": 56880,
                    "time": 199.49979400000004,
                    "velocity": 1
                },
                {
                    "duration": 0.14423049999999193,
                    "durationTicks": 60,
                    "midi": 45,
                    "name": "A2",
                    "ticks": 56940,
                    "time": 199.64402450000003,
                    "velocity": 1
                },
                {
                    "duration": 0.2884610000000123,
                    "durationTicks": 120,
                    "midi": 57,
                    "name": "A3",
                    "ticks": 57000,
                    "time": 199.78825500000002,
                    "velocity": 1
                },
                {
                    "duration": 0.14423049999999193,
                    "durationTicks": 60,
                    "midi": 48,
                    "name": "C3",
                    "ticks": 57120,
                    "time": 200.07671600000003,
                    "velocity": 1
                },
                {
                    "duration": 0.14423049999999193,
                    "durationTicks": 60,
                    "midi": 47,
                    "name": "B2",
                    "ticks": 57180,
                    "time": 200.22094650000003,
                    "velocity": 1
                },
                {
                    "duration": 0.14423050000002036,
                    "durationTicks": 60,
                    "midi": 45,
                    "name": "A2",
                    "ticks": 57240,
                    "time": 200.36517700000002,
                    "velocity": 1
                },
                {
                    "duration": 0.14423049999999193,
                    "durationTicks": 60,
                    "midi": 53,
                    "name": "F3",
                    "ticks": 57300,
                    "time": 200.50940750000004,
                    "velocity": 1
                },
                {
                    "duration": 0.14423049999999193,
                    "durationTicks": 60,
                    "midi": 52,
                    "name": "E3",
                    "ticks": 57360,
                    "time": 200.65363800000003,
                    "velocity": 1
                },
                {
                    "duration": 0.14423050000002036,
                    "durationTicks": 60,
                    "midi": 50,
                    "name": "D3",
                    "ticks": 57420,
                    "time": 200.79786850000002,
                    "velocity": 1
                },
                {
                    "duration": 0.14423049999999193,
                    "durationTicks": 60,
                    "midi": 48,
                    "name": "C3",
                    "ticks": 57480,
                    "time": 200.94209900000004,
                    "velocity": 1
                },
                {
                    "duration": 0.14423049999999193,
                    "durationTicks": 60,
                    "midi": 45,
                    "name": "A2",
                    "ticks": 57540,
                    "time": 201.08632950000003,
                    "velocity": 1
                },
                {
                    "duration": 0.14423049999999193,
                    "durationTicks": 60,
                    "midi": 55,
                    "name": "G3",
                    "ticks": 57600,
                    "time": 201.23056000000003,
                    "velocity": 1
                },
                {
                    "duration": 0.14423050000002036,
                    "durationTicks": 60,
                    "midi": 45,
                    "name": "A2",
                    "ticks": 57660,
                    "time": 201.37479050000002,
                    "velocity": 1
                },
                {
                    "duration": 0.14423049999999193,
                    "durationTicks": 60,
                    "midi": 45,
                    "name": "A2",
                    "ticks": 57720,
                    "time": 201.51902100000004,
                    "velocity": 1
                },
                {
                    "duration": 0.14423049999999193,
                    "durationTicks": 60,
                    "midi": 57,
                    "name": "A3",
                    "ticks": 57780,
                    "time": 201.66325150000003,
                    "velocity": 1
                },
                {
                    "duration": 0.14423050000002036,
                    "durationTicks": 60,
                    "midi": 45,
                    "name": "A2",
                    "ticks": 57840,
                    "time": 201.80748200000002,
                    "velocity": 1
                },
                {
                    "duration": 0.14423049999999193,
                    "durationTicks": 60,
                    "midi": 45,
                    "name": "A2",
                    "ticks": 57900,
                    "time": 201.95171250000004,
                    "velocity": 1
                },
                {
                    "duration": 0.14423049999999193,
                    "durationTicks": 60,
                    "midi": 57,
                    "name": "A3",
                    "ticks": 57960,
                    "time": 202.09594300000003,
                    "velocity": 1
                },
                {
                    "duration": 0.14423049999999193,
                    "durationTicks": 60,
                    "midi": 45,
                    "name": "A2",
                    "ticks": 58020,
                    "time": 202.24017350000003,
                    "velocity": 1
                },
                {
                    "duration": 0.14423050000002036,
                    "durationTicks": 60,
                    "midi": 60,
                    "name": "C4",
                    "ticks": 58080,
                    "time": 202.38440400000002,
                    "velocity": 1
                },
                {
                    "duration": 0.14423050000002036,
                    "durationTicks": 60,
                    "midi": 55,
                    "name": "G3",
                    "ticks": 58080,
                    "time": 202.38440400000002,
                    "velocity": 1
                },
                {
                    "duration": 0.14423049999999193,
                    "durationTicks": 60,
                    "midi": 45,
                    "name": "A2",
                    "ticks": 58140,
                    "time": 202.52863450000004,
                    "velocity": 1
                },
                {
                    "duration": 0.14423049999999193,
                    "durationTicks": 60,
                    "midi": 45,
                    "name": "A2",
                    "ticks": 58200,
                    "time": 202.67286500000003,
                    "velocity": 1
                },
                {
                    "duration": 0.14423050000002036,
                    "durationTicks": 60,
                    "midi": 57,
                    "name": "A3",
                    "ticks": 58260,
                    "time": 202.81709550000002,
                    "velocity": 1
                },
                {
                    "duration": 0.14423049999999193,
                    "durationTicks": 60,
                    "midi": 45,
                    "name": "A2",
                    "ticks": 58320,
                    "time": 202.96132600000004,
                    "velocity": 1
                },
                {
                    "duration": 0.14423049999999193,
                    "durationTicks": 60,
                    "midi": 45,
                    "name": "A2",
                    "ticks": 58380,
                    "time": 203.10555650000003,
                    "velocity": 1
                },
                {
                    "duration": 0.14423049999999193,
                    "durationTicks": 60,
                    "midi": 57,
                    "name": "A3",
                    "ticks": 58440,
                    "time": 203.24978700000003,
                    "velocity": 1
                },
                {
                    "duration": 0.14423050000002036,
                    "durationTicks": 60,
                    "midi": 45,
                    "name": "A2",
                    "ticks": 58500,
                    "time": 203.39401750000002,
                    "velocity": 1
                },
                {
                    "duration": 0.14423049999999193,
                    "durationTicks": 60,
                    "midi": 59,
                    "name": "B3",
                    "ticks": 58560,
                    "time": 203.53824800000004,
                    "velocity": 1
                },
                {
                    "duration": 0.14423049999999193,
                    "durationTicks": 60,
                    "midi": 54,
                    "name": "F#3",
                    "ticks": 58560,
                    "time": 203.53824800000004,
                    "velocity": 1
                },
                {
                    "duration": 0.14423049999999193,
                    "durationTicks": 60,
                    "midi": 45,
                    "name": "A2",
                    "ticks": 58620,
                    "time": 203.68247850000003,
                    "velocity": 1
                },
                {
                    "duration": 0.14423050000002036,
                    "durationTicks": 60,
                    "midi": 45,
                    "name": "A2",
                    "ticks": 58680,
                    "time": 203.82670900000002,
                    "velocity": 1
                },
                {
                    "duration": 0.14423049999999193,
                    "durationTicks": 60,
                    "midi": 57,
                    "name": "A3",
                    "ticks": 58740,
                    "time": 203.97093950000004,
                    "velocity": 1
                },
                {
                    "duration": 0.14423049999999193,
                    "durationTicks": 60,
                    "midi": 45,
                    "name": "A2",
                    "ticks": 58800,
                    "time": 204.11517000000003,
                    "velocity": 1
                },
                {
                    "duration": 0.14423049999999193,
                    "durationTicks": 60,
                    "midi": 45,
                    "name": "A2",
                    "ticks": 58860,
                    "time": 204.25940050000003,
                    "velocity": 1
                },
                {
                    "duration": 0.2884610000000123,
                    "durationTicks": 120,
                    "midi": 57,
                    "name": "A3",
                    "ticks": 58920,
                    "time": 204.40363100000002,
                    "velocity": 1
                },
                {
                    "duration": 0.14423049999999193,
                    "durationTicks": 60,
                    "midi": 48,
                    "name": "C3",
                    "ticks": 59040,
                    "time": 204.69209200000003,
                    "velocity": 1
                },
                {
                    "duration": 0.14423050000002036,
                    "durationTicks": 60,
                    "midi": 47,
                    "name": "B2",
                    "ticks": 59100,
                    "time": 204.83632250000002,
                    "velocity": 1
                },
                {
                    "duration": 0.14423049999999193,
                    "durationTicks": 60,
                    "midi": 45,
                    "name": "A2",
                    "ticks": 59160,
                    "time": 204.98055300000004,
                    "velocity": 1
                },
                {
                    "duration": 0.14423049999999193,
                    "durationTicks": 60,
                    "midi": 53,
                    "name": "F3",
                    "ticks": 59220,
                    "time": 205.12478350000004,
                    "velocity": 1
                },
                {
                    "duration": 0.14423049999999193,
                    "durationTicks": 60,
                    "midi": 52,
                    "name": "E3",
                    "ticks": 59280,
                    "time": 205.26901400000003,
                    "velocity": 1
                },
                {
                    "duration": 0.14423050000002036,
                    "durationTicks": 60,
                    "midi": 50,
                    "name": "D3",
                    "ticks": 59340,
                    "time": 205.41324450000002,
                    "velocity": 1
                },
                {
                    "duration": 0.14423049999999193,
                    "durationTicks": 60,
                    "midi": 48,
                    "name": "C3",
                    "ticks": 59400,
                    "time": 205.55747500000004,
                    "velocity": 1
                },
                {
                    "duration": 0.14423049999999193,
                    "durationTicks": 60,
                    "midi": 45,
                    "name": "A2",
                    "ticks": 59460,
                    "time": 205.70170550000003,
                    "velocity": 1
                },
                {
                    "duration": 0.14423050000002036,
                    "durationTicks": 60,
                    "midi": 55,
                    "name": "G3",
                    "ticks": 59520,
                    "time": 205.84593600000002,
                    "velocity": 1
                },
                {
                    "duration": 0.14423049999999193,
                    "durationTicks": 60,
                    "midi": 45,
                    "name": "A2",
                    "ticks": 59580,
                    "time": 205.99016650000004,
                    "velocity": 1
                },
                {
                    "duration": 0.14423049999999193,
                    "durationTicks": 60,
                    "midi": 45,
                    "name": "A2",
                    "ticks": 59640,
                    "time": 206.13439700000004,
                    "velocity": 1
                },
                {
                    "duration": 0.14423049999999193,
                    "durationTicks": 60,
                    "midi": 57,
                    "name": "A3",
                    "ticks": 59700,
                    "time": 206.27862750000003,
                    "velocity": 1
                },
                {
                    "duration": 0.14423050000002036,
                    "durationTicks": 60,
                    "midi": 45,
                    "name": "A2",
                    "ticks": 59760,
                    "time": 206.42285800000002,
                    "velocity": 1
                },
                {
                    "duration": 0.14423049999999193,
                    "durationTicks": 60,
                    "midi": 45,
                    "name": "A2",
                    "ticks": 59820,
                    "time": 206.56708850000004,
                    "velocity": 1
                },
                {
                    "duration": 0.14423049999999193,
                    "durationTicks": 60,
                    "midi": 57,
                    "name": "A3",
                    "ticks": 59880,
                    "time": 206.71131900000003,
                    "velocity": 1
                },
                {
                    "duration": 0.14423050000002036,
                    "durationTicks": 60,
                    "midi": 45,
                    "name": "A2",
                    "ticks": 59940,
                    "time": 206.85554950000002,
                    "velocity": 1
                },
                {
                    "duration": 0.14423049999999193,
                    "durationTicks": 60,
                    "midi": 60,
                    "name": "C4",
                    "ticks": 60000,
                    "time": 206.99978000000004,
                    "velocity": 1
                },
                {
                    "duration": 0.14423049999999193,
                    "durationTicks": 60,
                    "midi": 55,
                    "name": "G3",
                    "ticks": 60000,
                    "time": 206.99978000000004,
                    "velocity": 1
                },
                {
                    "duration": 0.14423049999999193,
                    "durationTicks": 60,
                    "midi": 45,
                    "name": "A2",
                    "ticks": 60060,
                    "time": 207.14401050000004,
                    "velocity": 1
                },
                {
                    "duration": 0.14423049999999193,
                    "durationTicks": 60,
                    "midi": 45,
                    "name": "A2",
                    "ticks": 60120,
                    "time": 207.28824100000003,
                    "velocity": 1
                },
                {
                    "duration": 0.14423050000002036,
                    "durationTicks": 60,
                    "midi": 57,
                    "name": "A3",
                    "ticks": 60180,
                    "time": 207.43247150000002,
                    "velocity": 1
                },
                {
                    "duration": 0.14423049999999193,
                    "durationTicks": 60,
                    "midi": 45,
                    "name": "A2",
                    "ticks": 60240,
                    "time": 207.57670200000004,
                    "velocity": 1
                },
                {
                    "duration": 0.14423049999999193,
                    "durationTicks": 60,
                    "midi": 45,
                    "name": "A2",
                    "ticks": 60300,
                    "time": 207.72093250000003,
                    "velocity": 1
                },
                {
                    "duration": 0.14423050000002036,
                    "durationTicks": 60,
                    "midi": 57,
                    "name": "A3",
                    "ticks": 60360,
                    "time": 207.86516300000002,
                    "velocity": 1
                },
                {
                    "duration": 0.14423049999999193,
                    "durationTicks": 60,
                    "midi": 45,
                    "name": "A2",
                    "ticks": 60420,
                    "time": 208.00939350000004,
                    "velocity": 1
                },
                {
                    "duration": 0.14423049999999193,
                    "durationTicks": 60,
                    "midi": 59,
                    "name": "B3",
                    "ticks": 60480,
                    "time": 208.15362400000004,
                    "velocity": 1
                },
                {
                    "duration": 0.14423049999999193,
                    "durationTicks": 60,
                    "midi": 54,
                    "name": "F#3",
                    "ticks": 60480,
                    "time": 208.15362400000004,
                    "velocity": 1
                },
                {
                    "duration": 0.14423049999999193,
                    "durationTicks": 60,
                    "midi": 45,
                    "name": "A2",
                    "ticks": 60540,
                    "time": 208.29785450000003,
                    "velocity": 1
                },
                {
                    "duration": 0.14423050000002036,
                    "durationTicks": 60,
                    "midi": 45,
                    "name": "A2",
                    "ticks": 60600,
                    "time": 208.44208500000002,
                    "velocity": 1
                },
                {
                    "duration": 0.14423049999999193,
                    "durationTicks": 60,
                    "midi": 57,
                    "name": "A3",
                    "ticks": 60660,
                    "time": 208.58631550000004,
                    "velocity": 1
                },
                {
                    "duration": 0.14423049999999193,
                    "durationTicks": 60,
                    "midi": 45,
                    "name": "A2",
                    "ticks": 60720,
                    "time": 208.73054600000003,
                    "velocity": 1
                },
                {
                    "duration": 0.14423050000002036,
                    "durationTicks": 60,
                    "midi": 45,
                    "name": "A2",
                    "ticks": 60780,
                    "time": 208.87477650000002,
                    "velocity": 1
                },
                {
                    "duration": 0.28846099999998387,
                    "durationTicks": 120,
                    "midi": 57,
                    "name": "A3",
                    "ticks": 60840,
                    "time": 209.01900700000004,
                    "velocity": 1
                },
                {
                    "duration": 0.14423049999999193,
                    "durationTicks": 60,
                    "midi": 48,
                    "name": "C3",
                    "ticks": 60960,
                    "time": 209.30746800000003,
                    "velocity": 1
                },
                {
                    "duration": 0.14423050000002036,
                    "durationTicks": 60,
                    "midi": 47,
                    "name": "B2",
                    "ticks": 61020,
                    "time": 209.45169850000002,
                    "velocity": 1
                },
                {
                    "duration": 0.14423049999999193,
                    "durationTicks": 60,
                    "midi": 45,
                    "name": "A2",
                    "ticks": 61080,
                    "time": 209.59592900000004,
                    "velocity": 1
                },
                {
                    "duration": 0.14423049999999193,
                    "durationTicks": 60,
                    "midi": 53,
                    "name": "F3",
                    "ticks": 61140,
                    "time": 209.74015950000003,
                    "velocity": 1
                },
                {
                    "duration": 0.14423050000002036,
                    "durationTicks": 60,
                    "midi": 52,
                    "name": "E3",
                    "ticks": 61200,
                    "time": 209.88439000000002,
                    "velocity": 1
                },
                {
                    "duration": 0.14423049999999193,
                    "durationTicks": 60,
                    "midi": 50,
                    "name": "D3",
                    "ticks": 61260,
                    "time": 210.02862050000005,
                    "velocity": 1
                },
                {
                    "duration": 0.14423049999999193,
                    "durationTicks": 60,
                    "midi": 48,
                    "name": "C3",
                    "ticks": 61320,
                    "time": 210.17285100000004,
                    "velocity": 1
                },
                {
                    "duration": 0.14423049999999193,
                    "durationTicks": 60,
                    "midi": 45,
                    "name": "A2",
                    "ticks": 61380,
                    "time": 210.31708150000003,
                    "velocity": 1
                },
                {
                    "duration": 0.14423050000002036,
                    "durationTicks": 60,
                    "midi": 55,
                    "name": "G3",
                    "ticks": 61440,
                    "time": 210.46131200000002,
                    "velocity": 1
                },
                {
                    "duration": 0.14423049999999193,
                    "durationTicks": 60,
                    "midi": 45,
                    "name": "A2",
                    "ticks": 61500,
                    "time": 210.60554250000004,
                    "velocity": 1
                },
                {
                    "duration": 0.14423049999999193,
                    "durationTicks": 60,
                    "midi": 45,
                    "name": "A2",
                    "ticks": 61560,
                    "time": 210.74977300000003,
                    "velocity": 1
                },
                {
                    "duration": 0.14423050000002036,
                    "durationTicks": 60,
                    "midi": 57,
                    "name": "A3",
                    "ticks": 61620,
                    "time": 210.89400350000003,
                    "velocity": 1
                },
                {
                    "duration": 0.14423049999999193,
                    "durationTicks": 60,
                    "midi": 45,
                    "name": "A2",
                    "ticks": 61680,
                    "time": 211.03823400000005,
                    "velocity": 1
                },
                {
                    "duration": 0.14423049999999193,
                    "durationTicks": 60,
                    "midi": 45,
                    "name": "A2",
                    "ticks": 61740,
                    "time": 211.18246450000004,
                    "velocity": 1
                },
                {
                    "duration": 0.14423049999999193,
                    "durationTicks": 60,
                    "midi": 57,
                    "name": "A3",
                    "ticks": 61800,
                    "time": 211.32669500000003,
                    "velocity": 1
                },
                {
                    "duration": 0.14423050000002036,
                    "durationTicks": 60,
                    "midi": 45,
                    "name": "A2",
                    "ticks": 61860,
                    "time": 211.47092550000002,
                    "velocity": 1
                },
                {
                    "duration": 0.14423049999999193,
                    "durationTicks": 60,
                    "midi": 60,
                    "name": "C4",
                    "ticks": 61920,
                    "time": 211.61515600000004,
                    "velocity": 1
                },
                {
                    "duration": 0.14423049999999193,
                    "durationTicks": 60,
                    "midi": 55,
                    "name": "G3",
                    "ticks": 61920,
                    "time": 211.61515600000004,
                    "velocity": 1
                },
                {
                    "duration": 0.14423049999999193,
                    "durationTicks": 60,
                    "midi": 45,
                    "name": "A2",
                    "ticks": 61980,
                    "time": 211.75938650000003,
                    "velocity": 1
                },
                {
                    "duration": 0.14423050000002036,
                    "durationTicks": 60,
                    "midi": 45,
                    "name": "A2",
                    "ticks": 62040,
                    "time": 211.90361700000003,
                    "velocity": 1
                },
                {
                    "duration": 0.14423049999999193,
                    "durationTicks": 60,
                    "midi": 57,
                    "name": "A3",
                    "ticks": 62100,
                    "time": 212.04784750000005,
                    "velocity": 1
                },
                {
                    "duration": 0.14423049999999193,
                    "durationTicks": 60,
                    "midi": 45,
                    "name": "A2",
                    "ticks": 62160,
                    "time": 212.19207800000004,
                    "velocity": 1
                },
                {
                    "duration": 0.14423049999999193,
                    "durationTicks": 60,
                    "midi": 45,
                    "name": "A2",
                    "ticks": 62220,
                    "time": 212.33630850000003,
                    "velocity": 1
                },
                {
                    "duration": 0.14423050000002036,
                    "durationTicks": 60,
                    "midi": 57,
                    "name": "A3",
                    "ticks": 62280,
                    "time": 212.48053900000002,
                    "velocity": 1
                },
                {
                    "duration": 0.14423049999999193,
                    "durationTicks": 60,
                    "midi": 45,
                    "name": "A2",
                    "ticks": 62340,
                    "time": 212.62476950000004,
                    "velocity": 1
                },
                {
                    "duration": 0.14423049999999193,
                    "durationTicks": 60,
                    "midi": 59,
                    "name": "B3",
                    "ticks": 62400,
                    "time": 212.76900000000003,
                    "velocity": 1
                },
                {
                    "duration": 0.14423049999999193,
                    "durationTicks": 60,
                    "midi": 54,
                    "name": "F#3",
                    "ticks": 62400,
                    "time": 212.76900000000003,
                    "velocity": 1
                },
                {
                    "duration": 0.14423050000002036,
                    "durationTicks": 60,
                    "midi": 45,
                    "name": "A2",
                    "ticks": 62460,
                    "time": 212.91323050000003,
                    "velocity": 1
                },
                {
                    "duration": 0.14423049999999193,
                    "durationTicks": 60,
                    "midi": 45,
                    "name": "A2",
                    "ticks": 62520,
                    "time": 213.05746100000005,
                    "velocity": 1
                },
                {
                    "duration": 0.14423049999999193,
                    "durationTicks": 60,
                    "midi": 57,
                    "name": "A3",
                    "ticks": 62580,
                    "time": 213.20169150000004,
                    "velocity": 1
                },
                {
                    "duration": 0.14423049999999193,
                    "durationTicks": 60,
                    "midi": 45,
                    "name": "A2",
                    "ticks": 62640,
                    "time": 213.34592200000003,
                    "velocity": 1
                },
                {
                    "duration": 0.14423050000002036,
                    "durationTicks": 60,
                    "midi": 45,
                    "name": "A2",
                    "ticks": 62700,
                    "time": 213.49015250000002,
                    "velocity": 1
                },
                {
                    "duration": 0.28846099999998387,
                    "durationTicks": 120,
                    "midi": 57,
                    "name": "A3",
                    "ticks": 62760,
                    "time": 213.63438300000004,
                    "velocity": 1
                },
                {
                    "duration": 0.14423050000002036,
                    "durationTicks": 60,
                    "midi": 48,
                    "name": "C3",
                    "ticks": 62880,
                    "time": 213.92284400000003,
                    "velocity": 1
                },
                {
                    "duration": 0.14423049999999193,
                    "durationTicks": 60,
                    "midi": 47,
                    "name": "B2",
                    "ticks": 62940,
                    "time": 214.06707450000005,
                    "velocity": 1
                },
                {
                    "duration": 0.14423049999999193,
                    "durationTicks": 60,
                    "midi": 45,
                    "name": "A2",
                    "ticks": 63000,
                    "time": 214.21130500000004,
                    "velocity": 1
                },
                {
                    "duration": 0.14423049999999193,
                    "durationTicks": 60,
                    "midi": 53,
                    "name": "F3",
                    "ticks": 63060,
                    "time": 214.35553550000003,
                    "velocity": 1
                },
                {
                    "duration": 0.14423050000002036,
                    "durationTicks": 60,
                    "midi": 52,
                    "name": "E3",
                    "ticks": 63120,
                    "time": 214.49976600000002,
                    "velocity": 1
                },
                {
                    "duration": 0.14423049999999193,
                    "durationTicks": 60,
                    "midi": 50,
                    "name": "D3",
                    "ticks": 63180,
                    "time": 214.64399650000004,
                    "velocity": 1
                },
                {
                    "duration": 0.14423049999999193,
                    "durationTicks": 60,
                    "midi": 48,
                    "name": "C3",
                    "ticks": 63240,
                    "time": 214.78822700000003,
                    "velocity": 1
                },
                {
                    "duration": 0.14423050000002036,
                    "durationTicks": 60,
                    "midi": 45,
                    "name": "A2",
                    "ticks": 63300,
                    "time": 214.93245750000003,
                    "velocity": 1
                },
                {
                    "duration": 1.1538439999999923,
                    "durationTicks": 480,
                    "midi": 62,
                    "name": "D4",
                    "ticks": 63360,
                    "time": 215.07668800000005,
                    "velocity": 1
                },
                {
                    "duration": 1.1538439999999923,
                    "durationTicks": 480,
                    "midi": 55,
                    "name": "G3",
                    "ticks": 63360,
                    "time": 215.07668800000005,
                    "velocity": 1
                },
                {
                    "duration": 0.5769219999999962,
                    "durationTicks": 240,
                    "midi": 61,
                    "name": "C#4",
                    "ticks": 63840,
                    "time": 216.23053200000004,
                    "velocity": 1
                },
                {
                    "duration": 0.5769219999999962,
                    "durationTicks": 240,
                    "midi": 54,
                    "name": "F#3",
                    "ticks": 63840,
                    "time": 216.23053200000004,
                    "velocity": 1
                },
                {
                    "duration": 0.5769219999999962,
                    "durationTicks": 240,
                    "midi": 60,
                    "name": "C4",
                    "ticks": 64080,
                    "time": 216.80745400000004,
                    "velocity": 1
                },
                {
                    "duration": 0.5769219999999962,
                    "durationTicks": 240,
                    "midi": 53,
                    "name": "F3",
                    "ticks": 64080,
                    "time": 216.80745400000004,
                    "velocity": 1
                },
                {
                    "duration": 0.14423049999999193,
                    "durationTicks": 60,
                    "midi": 40,
                    "name": "E2",
                    "ticks": 64320,
                    "time": 217.38437600000003,
                    "velocity": 1
                },
                {
                    "duration": 0.14423050000002036,
                    "durationTicks": 60,
                    "midi": 40,
                    "name": "E2",
                    "ticks": 64380,
                    "time": 217.52860650000002,
                    "velocity": 1
                },
                {
                    "duration": 0.14423049999999193,
                    "durationTicks": 60,
                    "midi": 40,
                    "name": "E2",
                    "ticks": 64440,
                    "time": 217.67283700000004,
                    "velocity": 1
                },
                {
                    "duration": 0.14423049999999193,
                    "durationTicks": 60,
                    "midi": 40,
                    "name": "E2",
                    "ticks": 64500,
                    "time": 217.81706750000004,
                    "velocity": 1
                },
                {
                    "duration": 0.14423049999999193,
                    "durationTicks": 60,
                    "midi": 40,
                    "name": "E2",
                    "ticks": 64560,
                    "time": 217.96129800000003,
                    "velocity": 1
                },
                {
                    "duration": 0.14423050000002036,
                    "durationTicks": 60,
                    "midi": 40,
                    "name": "E2",
                    "ticks": 64620,
                    "time": 218.10552850000002,
                    "velocity": 1
                },
                {
                    "duration": 0.14423049999999193,
                    "durationTicks": 60,
                    "midi": 40,
                    "name": "E2",
                    "ticks": 64680,
                    "time": 218.24975900000004,
                    "velocity": 1
                },
                {
                    "duration": 0.14423049999999193,
                    "durationTicks": 60,
                    "midi": 40,
                    "name": "E2",
                    "ticks": 64740,
                    "time": 218.39398950000003,
                    "velocity": 1
                },
                {
                    "duration": 0.14423050000002036,
                    "durationTicks": 60,
                    "midi": 40,
                    "name": "E2",
                    "ticks": 64800,
                    "time": 218.53822000000002,
                    "velocity": 1
                },
                {
                    "duration": 0.14423049999999193,
                    "durationTicks": 60,
                    "midi": 40,
                    "name": "E2",
                    "ticks": 64860,
                    "time": 218.68245050000004,
                    "velocity": 1
                },
                {
                    "duration": 0.14423049999999193,
                    "durationTicks": 60,
                    "midi": 40,
                    "name": "E2",
                    "ticks": 64920,
                    "time": 218.82668100000004,
                    "velocity": 1
                },
                {
                    "duration": 0.14423049999999193,
                    "durationTicks": 60,
                    "midi": 40,
                    "name": "E2",
                    "ticks": 64980,
                    "time": 218.97091150000003,
                    "velocity": 1
                },
                {
                    "duration": 0.14423050000002036,
                    "durationTicks": 60,
                    "midi": 40,
                    "name": "E2",
                    "ticks": 65040,
                    "time": 219.11514200000002,
                    "velocity": 1
                },
                {
                    "duration": 0.14423049999999193,
                    "durationTicks": 60,
                    "midi": 40,
                    "name": "E2",
                    "ticks": 65100,
                    "time": 219.25937250000004,
                    "velocity": 1
                },
                {
                    "duration": 0.14423049999999193,
                    "durationTicks": 60,
                    "midi": 40,
                    "name": "E2",
                    "ticks": 65160,
                    "time": 219.40360300000003,
                    "velocity": 1
                },
                {
                    "duration": 0.14423049999999193,
                    "durationTicks": 60,
                    "midi": 40,
                    "name": "E2",
                    "ticks": 65220,
                    "time": 219.54783350000002,
                    "velocity": 1
                },
                {
                    "duration": 1.1538440000000207,
                    "durationTicks": 480,
                    "midi": 62,
                    "name": "D4",
                    "ticks": 65280,
                    "time": 219.69206400000002,
                    "velocity": 1
                },
                {
                    "duration": 1.1538440000000207,
                    "durationTicks": 480,
                    "midi": 55,
                    "name": "G3",
                    "ticks": 65280,
                    "time": 219.69206400000002,
                    "velocity": 1
                },
                {
                    "duration": 0.5769219999999962,
                    "durationTicks": 240,
                    "midi": 61,
                    "name": "C#4",
                    "ticks": 65760,
                    "time": 220.84590800000004,
                    "velocity": 1
                },
                {
                    "duration": 0.5769219999999962,
                    "durationTicks": 240,
                    "midi": 54,
                    "name": "F#3",
                    "ticks": 65760,
                    "time": 220.84590800000004,
                    "velocity": 1
                },
                {
                    "duration": 0.5769219999999962,
                    "durationTicks": 240,
                    "midi": 60,
                    "name": "C4",
                    "ticks": 66000,
                    "time": 221.42283000000003,
                    "velocity": 1
                },
                {
                    "duration": 0.5769219999999962,
                    "durationTicks": 240,
                    "midi": 53,
                    "name": "F3",
                    "ticks": 66000,
                    "time": 221.42283000000003,
                    "velocity": 1
                },
                {
                    "duration": 0.14423049999999193,
                    "durationTicks": 60,
                    "midi": 40,
                    "name": "E2",
                    "ticks": 66240,
                    "time": 221.99975200000003,
                    "velocity": 1
                },
                {
                    "duration": 0.14423050000002036,
                    "durationTicks": 60,
                    "midi": 40,
                    "name": "E2",
                    "ticks": 66300,
                    "time": 222.14398250000002,
                    "velocity": 1
                },
                {
                    "duration": 0.14423049999999193,
                    "durationTicks": 60,
                    "midi": 40,
                    "name": "E2",
                    "ticks": 66360,
                    "time": 222.28821300000004,
                    "velocity": 1
                },
                {
                    "duration": 0.14423049999999193,
                    "durationTicks": 60,
                    "midi": 40,
                    "name": "E2",
                    "ticks": 66420,
                    "time": 222.43244350000003,
                    "velocity": 1
                },
                {
                    "duration": 0.14423049999999193,
                    "durationTicks": 60,
                    "midi": 40,
                    "name": "E2",
                    "ticks": 66480,
                    "time": 222.57667400000003,
                    "velocity": 1
                },
                {
                    "duration": 0.14423050000002036,
                    "durationTicks": 60,
                    "midi": 40,
                    "name": "E2",
                    "ticks": 66540,
                    "time": 222.72090450000002,
                    "velocity": 1
                },
                {
                    "duration": 0.14423049999999193,
                    "durationTicks": 60,
                    "midi": 40,
                    "name": "E2",
                    "ticks": 66600,
                    "time": 222.86513500000004,
                    "velocity": 1
                },
                {
                    "duration": 0.14423049999999193,
                    "durationTicks": 60,
                    "midi": 40,
                    "name": "E2",
                    "ticks": 66660,
                    "time": 223.00936550000003,
                    "velocity": 1
                },
                {
                    "duration": 0.14423050000002036,
                    "durationTicks": 60,
                    "midi": 40,
                    "name": "E2",
                    "ticks": 66720,
                    "time": 223.15359600000002,
                    "velocity": 1
                },
                {
                    "duration": 0.14423049999999193,
                    "durationTicks": 60,
                    "midi": 40,
                    "name": "E2",
                    "ticks": 66780,
                    "time": 223.29782650000004,
                    "velocity": 1
                },
                {
                    "duration": 0.14423049999999193,
                    "durationTicks": 60,
                    "midi": 40,
                    "name": "E2",
                    "ticks": 66840,
                    "time": 223.44205700000003,
                    "velocity": 1
                },
                {
                    "duration": 0.14423049999999193,
                    "durationTicks": 60,
                    "midi": 40,
                    "name": "E2",
                    "ticks": 66900,
                    "time": 223.58628750000003,
                    "velocity": 1
                },
                {
                    "duration": 0.14423050000002036,
                    "durationTicks": 60,
                    "midi": 40,
                    "name": "E2",
                    "ticks": 66960,
                    "time": 223.73051800000002,
                    "velocity": 1
                },
                {
                    "duration": 0.14423049999999193,
                    "durationTicks": 60,
                    "midi": 40,
                    "name": "E2",
                    "ticks": 67020,
                    "time": 223.87474850000004,
                    "velocity": 1
                },
                {
                    "duration": 0.14423049999999193,
                    "durationTicks": 60,
                    "midi": 40,
                    "name": "E2",
                    "ticks": 67080,
                    "time": 224.01897900000003,
                    "velocity": 1
                },
                {
                    "duration": 0.14423050000002036,
                    "durationTicks": 60,
                    "midi": 40,
                    "name": "E2",
                    "ticks": 67140,
                    "time": 224.16320950000002,
                    "velocity": 1
                },
                {
                    "duration": 1.1538439999999923,
                    "durationTicks": 480,
                    "midi": 62,
                    "name": "D4",
                    "ticks": 67200,
                    "time": 224.30744000000004,
                    "velocity": 1
                },
                {
                    "duration": 1.1538439999999923,
                    "durationTicks": 480,
                    "midi": 55,
                    "name": "G3",
                    "ticks": 67200,
                    "time": 224.30744000000004,
                    "velocity": 1
                },
                {
                    "duration": 0.5769219999999962,
                    "durationTicks": 240,
                    "midi": 61,
                    "name": "C#4",
                    "ticks": 67680,
                    "time": 225.46128400000003,
                    "velocity": 1
                },
                {
                    "duration": 0.5769219999999962,
                    "durationTicks": 240,
                    "midi": 54,
                    "name": "F#3",
                    "ticks": 67680,
                    "time": 225.46128400000003,
                    "velocity": 1
                },
                {
                    "duration": 0.5769219999999962,
                    "durationTicks": 240,
                    "midi": 60,
                    "name": "C4",
                    "ticks": 67920,
                    "time": 226.03820600000003,
                    "velocity": 1
                },
                {
                    "duration": 0.5769219999999962,
                    "durationTicks": 240,
                    "midi": 53,
                    "name": "F3",
                    "ticks": 67920,
                    "time": 226.03820600000003,
                    "velocity": 1
                },
                {
                    "duration": 0.14423049999999193,
                    "durationTicks": 60,
                    "midi": 40,
                    "name": "E2",
                    "ticks": 68160,
                    "time": 226.61512800000003,
                    "velocity": 1
                },
                {
                    "duration": 0.14423050000002036,
                    "durationTicks": 60,
                    "midi": 40,
                    "name": "E2",
                    "ticks": 68220,
                    "time": 226.75935850000002,
                    "velocity": 1
                },
                {
                    "duration": 0.14423049999999193,
                    "durationTicks": 60,
                    "midi": 40,
                    "name": "E2",
                    "ticks": 68280,
                    "time": 226.90358900000004,
                    "velocity": 1
                },
                {
                    "duration": 0.14423049999999193,
                    "durationTicks": 60,
                    "midi": 40,
                    "name": "E2",
                    "ticks": 68340,
                    "time": 227.04781950000003,
                    "velocity": 1
                },
                {
                    "duration": 0.14423050000002036,
                    "durationTicks": 60,
                    "midi": 40,
                    "name": "E2",
                    "ticks": 68400,
                    "time": 227.19205000000002,
                    "velocity": 1
                },
                {
                    "duration": 0.14423049999999193,
                    "durationTicks": 60,
                    "midi": 40,
                    "name": "E2",
                    "ticks": 68460,
                    "time": 227.33628050000004,
                    "velocity": 1
                },
                {
                    "duration": 0.14423049999999193,
                    "durationTicks": 60,
                    "midi": 40,
                    "name": "E2",
                    "ticks": 68520,
                    "time": 227.48051100000004,
                    "velocity": 1
                },
                {
                    "duration": 0.14423049999999193,
                    "durationTicks": 60,
                    "midi": 40,
                    "name": "E2",
                    "ticks": 68580,
                    "time": 227.62474150000003,
                    "velocity": 1
                },
                {
                    "duration": 0.14423050000002036,
                    "durationTicks": 60,
                    "midi": 40,
                    "name": "E2",
                    "ticks": 68640,
                    "time": 227.76897200000002,
                    "velocity": 1
                },
                {
                    "duration": 0.14423049999999193,
                    "durationTicks": 60,
                    "midi": 40,
                    "name": "E2",
                    "ticks": 68700,
                    "time": 227.91320250000004,
                    "velocity": 1
                },
                {
                    "duration": 0.14423049999999193,
                    "durationTicks": 60,
                    "midi": 40,
                    "name": "E2",
                    "ticks": 68760,
                    "time": 228.05743300000003,
                    "velocity": 1
                },
                {
                    "duration": 0.14423050000002036,
                    "durationTicks": 60,
                    "midi": 40,
                    "name": "E2",
                    "ticks": 68820,
                    "time": 228.20166350000002,
                    "velocity": 1
                },
                {
                    "duration": 0.14423049999999193,
                    "durationTicks": 60,
                    "midi": 40,
                    "name": "E2",
                    "ticks": 68880,
                    "time": 228.34589400000004,
                    "velocity": 1
                },
                {
                    "duration": 0.14423049999999193,
                    "durationTicks": 60,
                    "midi": 40,
                    "name": "E2",
                    "ticks": 68940,
                    "time": 228.49012450000004,
                    "velocity": 1
                },
                {
                    "duration": 0.14423049999999193,
                    "durationTicks": 60,
                    "midi": 40,
                    "name": "E2",
                    "ticks": 69000,
                    "time": 228.63435500000003,
                    "velocity": 1
                },
                {
                    "duration": 0.14423050000002036,
                    "durationTicks": 60,
                    "midi": 40,
                    "name": "E2",
                    "ticks": 69060,
                    "time": 228.77858550000002,
                    "velocity": 1
                },
                {
                    "duration": 1.1538439999999923,
                    "durationTicks": 480,
                    "midi": 62,
                    "name": "D4",
                    "ticks": 69120,
                    "time": 228.92281600000004,
                    "velocity": 1
                },
                {
                    "duration": 1.1538439999999923,
                    "durationTicks": 480,
                    "midi": 55,
                    "name": "G3",
                    "ticks": 69120,
                    "time": 228.92281600000004,
                    "velocity": 1
                },
                {
                    "duration": 0.5769219999999962,
                    "durationTicks": 240,
                    "midi": 61,
                    "name": "C#4",
                    "ticks": 69600,
                    "time": 230.07666000000003,
                    "velocity": 1
                },
                {
                    "duration": 0.5769219999999962,
                    "durationTicks": 240,
                    "midi": 54,
                    "name": "F#3",
                    "ticks": 69600,
                    "time": 230.07666000000003,
                    "velocity": 1
                },
                {
                    "duration": 0.5769219999999962,
                    "durationTicks": 240,
                    "midi": 60,
                    "name": "C4",
                    "ticks": 69840,
                    "time": 230.65358200000003,
                    "velocity": 1
                },
                {
                    "duration": 0.5769219999999962,
                    "durationTicks": 240,
                    "midi": 53,
                    "name": "F3",
                    "ticks": 69840,
                    "time": 230.65358200000003,
                    "velocity": 1
                },
                {
                    "duration": 0.14423050000002036,
                    "durationTicks": 60,
                    "midi": 50,
                    "name": "D3",
                    "ticks": 70080,
                    "time": 231.23050400000002,
                    "velocity": 1
                },
                {
                    "duration": 0.14423049999999193,
                    "durationTicks": 60,
                    "midi": 52,
                    "name": "E3",
                    "ticks": 70140,
                    "time": 231.37473450000005,
                    "velocity": 1
                },
                {
                    "duration": 0.14423049999999193,
                    "durationTicks": 60,
                    "midi": 40,
                    "name": "E2",
                    "ticks": 70200,
                    "time": 231.51896500000004,
                    "velocity": 1
                },
                {
                    "duration": 0.14423049999999193,
                    "durationTicks": 60,
                    "midi": 52,
                    "name": "E3",
                    "ticks": 70260,
                    "time": 231.66319550000003,
                    "velocity": 1
                },
                {
                    "duration": 0.14423050000002036,
                    "durationTicks": 60,
                    "midi": 40,
                    "name": "E2",
                    "ticks": 70320,
                    "time": 231.80742600000002,
                    "velocity": 1
                },
                {
                    "duration": 0.14423049999999193,
                    "durationTicks": 60,
                    "midi": 40,
                    "name": "E2",
                    "ticks": 70380,
                    "time": 231.95165650000004,
                    "velocity": 1
                },
                {
                    "duration": 0.14423049999999193,
                    "durationTicks": 60,
                    "midi": 52,
                    "name": "E3",
                    "ticks": 70440,
                    "time": 232.09588700000003,
                    "velocity": 1
                },
                {
                    "duration": 0.14423050000002036,
                    "durationTicks": 60,
                    "midi": 40,
                    "name": "E2",
                    "ticks": 70500,
                    "time": 232.24011750000003,
                    "velocity": 1
                },
                {
                    "duration": 0.14423049999999193,
                    "durationTicks": 60,
                    "midi": 50,
                    "name": "D3",
                    "ticks": 70560,
                    "time": 232.38434800000005,
                    "velocity": 1
                },
                {
                    "duration": 0.14423049999999193,
                    "durationTicks": 60,
                    "midi": 55,
                    "name": "G3",
                    "ticks": 70560,
                    "time": 232.38434800000005,
                    "velocity": 1
                },
                {
                    "duration": 0.14423049999999193,
                    "durationTicks": 60,
                    "midi": 40,
                    "name": "E2",
                    "ticks": 70620,
                    "time": 232.52857850000004,
                    "velocity": 1
                },
                {
                    "duration": 0.14423049999999193,
                    "durationTicks": 60,
                    "midi": 40,
                    "name": "E2",
                    "ticks": 70680,
                    "time": 232.67280900000003,
                    "velocity": 1
                },
                {
                    "duration": 0.14423050000002036,
                    "durationTicks": 60,
                    "midi": 52,
                    "name": "E3",
                    "ticks": 70740,
                    "time": 232.81703950000002,
                    "velocity": 1
                },
                {
                    "duration": 0.14423049999999193,
                    "durationTicks": 60,
                    "midi": 40,
                    "name": "E2",
                    "ticks": 70800,
                    "time": 232.96127000000004,
                    "velocity": 1
                },
                {
                    "duration": 0.14423049999999193,
                    "durationTicks": 60,
                    "midi": 40,
                    "name": "E2",
                    "ticks": 70860,
                    "time": 233.10550050000003,
                    "velocity": 1
                },
                {
                    "duration": 0.14423050000002036,
                    "durationTicks": 60,
                    "midi": 52,
                    "name": "E3",
                    "ticks": 70920,
                    "time": 233.24973100000003,
                    "velocity": 1
                },
                {
                    "duration": 0.14423049999999193,
                    "durationTicks": 60,
                    "midi": 40,
                    "name": "E2",
                    "ticks": 70980,
                    "time": 233.39396150000005,
                    "velocity": 1
                },
                {
                    "duration": 0.14423049999999193,
                    "durationTicks": 60,
                    "midi": 54,
                    "name": "F#3",
                    "ticks": 71040,
                    "time": 233.53819200000004,
                    "velocity": 1
                },
                {
                    "duration": 0.14423049999999193,
                    "durationTicks": 60,
                    "midi": 49,
                    "name": "C#3",
                    "ticks": 71040,
                    "time": 233.53819200000004,
                    "velocity": 1
                },
                {
                    "duration": 0.14423049999999193,
                    "durationTicks": 60,
                    "midi": 40,
                    "name": "E2",
                    "ticks": 71100,
                    "time": 233.68242250000003,
                    "velocity": 1
                },
                {
                    "duration": 0.14423050000002036,
                    "durationTicks": 60,
                    "midi": 40,
                    "name": "E2",
                    "ticks": 71160,
                    "time": 233.82665300000002,
                    "velocity": 1
                },
                {
                    "duration": 0.14423049999999193,
                    "durationTicks": 60,
                    "midi": 52,
                    "name": "E3",
                    "ticks": 71220,
                    "time": 233.97088350000004,
                    "velocity": 1
                },
                {
                    "duration": 0.14423049999999193,
                    "durationTicks": 60,
                    "midi": 40,
                    "name": "E2",
                    "ticks": 71280,
                    "time": 234.11511400000003,
                    "velocity": 1
                },
                {
                    "duration": 0.14423050000002036,
                    "durationTicks": 60,
                    "midi": 40,
                    "name": "E2",
                    "ticks": 71340,
                    "time": 234.25934450000003,
                    "velocity": 1
                },
                {
                    "duration": 0.28846099999998387,
                    "durationTicks": 120,
                    "midi": 52,
                    "name": "E3",
                    "ticks": 71400,
                    "time": 234.40357500000005,
                    "velocity": 1
                },
                {
                    "duration": 0.14423049999999193,
                    "durationTicks": 60,
                    "midi": 43,
                    "name": "G2",
                    "ticks": 71520,
                    "time": 234.69203600000003,
                    "velocity": 1
                },
                {
                    "duration": 0.14423050000002036,
                    "durationTicks": 60,
                    "midi": 42,
                    "name": "F#2",
                    "ticks": 71580,
                    "time": 234.83626650000002,
                    "velocity": 1
                },
                {
                    "duration": 0.14423049999999193,
                    "durationTicks": 60,
                    "midi": 40,
                    "name": "E2",
                    "ticks": 71640,
                    "time": 234.98049700000004,
                    "velocity": 1
                },
                {
                    "duration": 0.14423049999999193,
                    "durationTicks": 60,
                    "midi": 48,
                    "name": "C3",
                    "ticks": 71700,
                    "time": 235.12472750000003,
                    "velocity": 1
                },
                {
                    "duration": 0.14423050000002036,
                    "durationTicks": 60,
                    "midi": 47,
                    "name": "B2",
                    "ticks": 71760,
                    "time": 235.26895800000003,
                    "velocity": 1
                },
                {
                    "duration": 0.14423049999999193,
                    "durationTicks": 60,
                    "midi": 45,
                    "name": "A2",
                    "ticks": 71820,
                    "time": 235.41318850000005,
                    "velocity": 1
                },
                {
                    "duration": 0.14423049999999193,
                    "durationTicks": 60,
                    "midi": 43,
                    "name": "G2",
                    "ticks": 71880,
                    "time": 235.55741900000004,
                    "velocity": 1
                },
                {
                    "duration": 0.14423049999999193,
                    "durationTicks": 60,
                    "midi": 40,
                    "name": "E2",
                    "ticks": 71940,
                    "time": 235.70164950000003,
                    "velocity": 1
                },
                {
                    "duration": 0.14423050000002036,
                    "durationTicks": 60,
                    "midi": 50,
                    "name": "D3",
                    "ticks": 72000,
                    "time": 235.84588000000002,
                    "velocity": 1
                },
                {
                    "duration": 0.14423049999999193,
                    "durationTicks": 60,
                    "midi": 52,
                    "name": "E3",
                    "ticks": 72060,
                    "time": 235.99011050000004,
                    "velocity": 1
                },
                {
                    "duration": 0.14423049999999193,
                    "durationTicks": 60,
                    "midi": 40,
                    "name": "E2",
                    "ticks": 72120,
                    "time": 236.13434100000003,
                    "velocity": 1
                },
                {
                    "duration": 0.14423050000002036,
                    "durationTicks": 60,
                    "midi": 52,
                    "name": "E3",
                    "ticks": 72180,
                    "time": 236.27857150000003,
                    "velocity": 1
                },
                {
                    "duration": 0.14423049999999193,
                    "durationTicks": 60,
                    "midi": 40,
                    "name": "E2",
                    "ticks": 72240,
                    "time": 236.42280200000005,
                    "velocity": 1
                },
                {
                    "duration": 0.14423049999999193,
                    "durationTicks": 60,
                    "midi": 40,
                    "name": "E2",
                    "ticks": 72300,
                    "time": 236.56703250000004,
                    "velocity": 1
                },
                {
                    "duration": 0.14423049999999193,
                    "durationTicks": 60,
                    "midi": 52,
                    "name": "E3",
                    "ticks": 72360,
                    "time": 236.71126300000003,
                    "velocity": 1
                },
                {
                    "duration": 0.14423050000002036,
                    "durationTicks": 60,
                    "midi": 40,
                    "name": "E2",
                    "ticks": 72420,
                    "time": 236.85549350000002,
                    "velocity": 1
                },
                {
                    "duration": 0.14423049999999193,
                    "durationTicks": 60,
                    "midi": 50,
                    "name": "D3",
                    "ticks": 72480,
                    "time": 236.99972400000004,
                    "velocity": 1
                },
                {
                    "duration": 0.14423049999999193,
                    "durationTicks": 60,
                    "midi": 55,
                    "name": "G3",
                    "ticks": 72480,
                    "time": 236.99972400000004,
                    "velocity": 1
                },
                {
                    "duration": 0.14423049999999193,
                    "durationTicks": 60,
                    "midi": 40,
                    "name": "E2",
                    "ticks": 72540,
                    "time": 237.14395450000004,
                    "velocity": 1
                },
                {
                    "duration": 0.14423050000002036,
                    "durationTicks": 60,
                    "midi": 40,
                    "name": "E2",
                    "ticks": 72600,
                    "time": 237.28818500000003,
                    "velocity": 1
                },
                {
                    "duration": 0.14423049999999193,
                    "durationTicks": 60,
                    "midi": 52,
                    "name": "E3",
                    "ticks": 72660,
                    "time": 237.43241550000005,
                    "velocity": 1
                },
                {
                    "duration": 0.14423049999999193,
                    "durationTicks": 60,
                    "midi": 40,
                    "name": "E2",
                    "ticks": 72720,
                    "time": 237.57664600000004,
                    "velocity": 1
                },
                {
                    "duration": 0.14423049999999193,
                    "durationTicks": 60,
                    "midi": 40,
                    "name": "E2",
                    "ticks": 72780,
                    "time": 237.72087650000003,
                    "velocity": 1
                },
                {
                    "duration": 0.14423050000002036,
                    "durationTicks": 60,
                    "midi": 52,
                    "name": "E3",
                    "ticks": 72840,
                    "time": 237.86510700000002,
                    "velocity": 1
                },
                {
                    "duration": 0.14423049999999193,
                    "durationTicks": 60,
                    "midi": 40,
                    "name": "E2",
                    "ticks": 72900,
                    "time": 238.00933750000004,
                    "velocity": 1
                },
                {
                    "duration": 0.14423049999999193,
                    "durationTicks": 60,
                    "midi": 54,
                    "name": "F#3",
                    "ticks": 72960,
                    "time": 238.15356800000004,
                    "velocity": 1
                },
                {
                    "duration": 0.14423049999999193,
                    "durationTicks": 60,
                    "midi": 49,
                    "name": "C#3",
                    "ticks": 72960,
                    "time": 238.15356800000004,
                    "velocity": 1
                },
                {
                    "duration": 0.14423050000002036,
                    "durationTicks": 60,
                    "midi": 40,
                    "name": "E2",
                    "ticks": 73020,
                    "time": 238.29779850000003,
                    "velocity": 1
                },
                {
                    "duration": 0.14423049999999193,
                    "durationTicks": 60,
                    "midi": 40,
                    "name": "E2",
                    "ticks": 73080,
                    "time": 238.44202900000005,
                    "velocity": 1
                },
                {
                    "duration": 0.14423049999999193,
                    "durationTicks": 60,
                    "midi": 52,
                    "name": "E3",
                    "ticks": 73140,
                    "time": 238.58625950000004,
                    "velocity": 1
                },
                {
                    "duration": 0.14423049999999193,
                    "durationTicks": 60,
                    "midi": 40,
                    "name": "E2",
                    "ticks": 73200,
                    "time": 238.73049000000003,
                    "velocity": 1
                },
                {
                    "duration": 0.14423050000002036,
                    "durationTicks": 60,
                    "midi": 40,
                    "name": "E2",
                    "ticks": 73260,
                    "time": 238.87472050000002,
                    "velocity": 1
                },
                {
                    "duration": 0.28846099999998387,
                    "durationTicks": 120,
                    "midi": 52,
                    "name": "E3",
                    "ticks": 73320,
                    "time": 239.01895100000004,
                    "velocity": 1
                },
                {
                    "duration": 0.14423050000002036,
                    "durationTicks": 60,
                    "midi": 43,
                    "name": "G2",
                    "ticks": 73440,
                    "time": 239.30741200000003,
                    "velocity": 1
                },
                {
                    "duration": 0.14423049999999193,
                    "durationTicks": 60,
                    "midi": 42,
                    "name": "F#2",
                    "ticks": 73500,
                    "time": 239.45164250000005,
                    "velocity": 1
                },
                {
                    "duration": 0.14423049999999193,
                    "durationTicks": 60,
                    "midi": 40,
                    "name": "E2",
                    "ticks": 73560,
                    "time": 239.59587300000004,
                    "velocity": 1
                },
                {
                    "duration": 0.14423049999999193,
                    "durationTicks": 60,
                    "midi": 48,
                    "name": "C3",
                    "ticks": 73620,
                    "time": 239.74010350000003,
                    "velocity": 1
                },
                {
                    "duration": 0.14423050000002036,
                    "durationTicks": 60,
                    "midi": 47,
                    "name": "B2",
                    "ticks": 73680,
                    "time": 239.88433400000002,
                    "velocity": 1
                },
                {
                    "duration": 0.14423049999999193,
                    "durationTicks": 60,
                    "midi": 45,
                    "name": "A2",
                    "ticks": 73740,
                    "time": 240.02856450000004,
                    "velocity": 1
                },
                {
                    "duration": 0.14423049999999193,
                    "durationTicks": 60,
                    "midi": 43,
                    "name": "G2",
                    "ticks": 73800,
                    "time": 240.17279500000004,
                    "velocity": 1
                },
                {
                    "duration": 0.14423050000002036,
                    "durationTicks": 60,
                    "midi": 40,
                    "name": "E2",
                    "ticks": 73860,
                    "time": 240.31702550000003,
                    "velocity": 1
                },
                {
                    "duration": 0.14423049999999193,
                    "durationTicks": 60,
                    "midi": 50,
                    "name": "D3",
                    "ticks": 73920,
                    "time": 240.46125600000005,
                    "velocity": 1
                },
                {
                    "duration": 0.14423049999999193,
                    "durationTicks": 60,
                    "midi": 52,
                    "name": "E3",
                    "ticks": 73980,
                    "time": 240.60548650000004,
                    "velocity": 1
                },
                {
                    "duration": 0.14423049999999193,
                    "durationTicks": 60,
                    "midi": 40,
                    "name": "E2",
                    "ticks": 74040,
                    "time": 240.74971700000003,
                    "velocity": 1
                },
                {
                    "duration": 0.14423049999999193,
                    "durationTicks": 60,
                    "midi": 52,
                    "name": "E3",
                    "ticks": 74100,
                    "time": 240.89394750000002,
                    "velocity": 1
                },
                {
                    "duration": 0.14423050000002036,
                    "durationTicks": 60,
                    "midi": 40,
                    "name": "E2",
                    "ticks": 74160,
                    "time": 241.03817800000002,
                    "velocity": 1
                },
                {
                    "duration": 0.14423049999999193,
                    "durationTicks": 60,
                    "midi": 40,
                    "name": "E2",
                    "ticks": 74220,
                    "time": 241.18240850000004,
                    "velocity": 1
                },
                {
                    "duration": 0.14423050000002036,
                    "durationTicks": 60,
                    "midi": 52,
                    "name": "E3",
                    "ticks": 74280,
                    "time": 241.32663900000003,
                    "velocity": 1
                },
                {
                    "duration": 0.14423049999999193,
                    "durationTicks": 60,
                    "midi": 40,
                    "name": "E2",
                    "ticks": 74340,
                    "time": 241.47086950000005,
                    "velocity": 1
                },
                {
                    "duration": 0.14423049999999193,
                    "durationTicks": 60,
                    "midi": 50,
                    "name": "D3",
                    "ticks": 74400,
                    "time": 241.61510000000004,
                    "velocity": 1
                },
                {
                    "duration": 0.14423049999999193,
                    "durationTicks": 60,
                    "midi": 55,
                    "name": "G3",
                    "ticks": 74400,
                    "time": 241.61510000000004,
                    "velocity": 1
                },
                {
                    "duration": 0.14423049999999193,
                    "durationTicks": 60,
                    "midi": 40,
                    "name": "E2",
                    "ticks": 74460,
                    "time": 241.75933050000003,
                    "velocity": 1
                },
                {
                    "duration": 0.14423049999999193,
                    "durationTicks": 60,
                    "midi": 40,
                    "name": "E2",
                    "ticks": 74520,
                    "time": 241.90356100000002,
                    "velocity": 1
                },
                {
                    "duration": 0.14423050000002036,
                    "durationTicks": 60,
                    "midi": 52,
                    "name": "E3",
                    "ticks": 74580,
                    "time": 242.04779150000002,
                    "velocity": 1
                },
                {
                    "duration": 0.14423049999999193,
                    "durationTicks": 60,
                    "midi": 40,
                    "name": "E2",
                    "ticks": 74640,
                    "time": 242.19202200000004,
                    "velocity": 1
                },
                {
                    "duration": 0.14423050000002036,
                    "durationTicks": 60,
                    "midi": 40,
                    "name": "E2",
                    "ticks": 74700,
                    "time": 242.33625250000003,
                    "velocity": 1
                },
                {
                    "duration": 0.14423049999999193,
                    "durationTicks": 60,
                    "midi": 52,
                    "name": "E3",
                    "ticks": 74760,
                    "time": 242.48048300000005,
                    "velocity": 1
                },
                {
                    "duration": 0.14423049999999193,
                    "durationTicks": 60,
                    "midi": 40,
                    "name": "E2",
                    "ticks": 74820,
                    "time": 242.62471350000004,
                    "velocity": 1
                },
                {
                    "duration": 0.14423049999999193,
                    "durationTicks": 60,
                    "midi": 54,
                    "name": "F#3",
                    "ticks": 74880,
                    "time": 242.76894400000003,
                    "velocity": 1
                },
                {
                    "duration": 0.14423049999999193,
                    "durationTicks": 60,
                    "midi": 49,
                    "name": "C#3",
                    "ticks": 74880,
                    "time": 242.76894400000003,
                    "velocity": 1
                },
                {
                    "duration": 0.14423049999999193,
                    "durationTicks": 60,
                    "midi": 40,
                    "name": "E2",
                    "ticks": 74940,
                    "time": 242.91317450000003,
                    "velocity": 1
                },
                {
                    "duration": 0.14423050000002036,
                    "durationTicks": 60,
                    "midi": 40,
                    "name": "E2",
                    "ticks": 75000,
                    "time": 243.05740500000002,
                    "velocity": 1
                },
                {
                    "duration": 0.14423049999999193,
                    "durationTicks": 60,
                    "midi": 52,
                    "name": "E3",
                    "ticks": 75060,
                    "time": 243.20163550000004,
                    "velocity": 1
                },
                {
                    "duration": 0.14423050000002036,
                    "durationTicks": 60,
                    "midi": 40,
                    "name": "E2",
                    "ticks": 75120,
                    "time": 243.34586600000003,
                    "velocity": 1
                },
                {
                    "duration": 0.14423049999999193,
                    "durationTicks": 60,
                    "midi": 40,
                    "name": "E2",
                    "ticks": 75180,
                    "time": 243.49009650000005,
                    "velocity": 1
                },
                {
                    "duration": 0.28846099999998387,
                    "durationTicks": 120,
                    "midi": 52,
                    "name": "E3",
                    "ticks": 75240,
                    "time": 243.63432700000004,
                    "velocity": 1
                },
                {
                    "duration": 0.14423049999999193,
                    "durationTicks": 60,
                    "midi": 43,
                    "name": "G2",
                    "ticks": 75360,
                    "time": 243.92278800000003,
                    "velocity": 1
                },
                {
                    "duration": 0.14423050000002036,
                    "durationTicks": 60,
                    "midi": 42,
                    "name": "F#2",
                    "ticks": 75420,
                    "time": 244.06701850000002,
                    "velocity": 1
                },
                {
                    "duration": 0.14423049999999193,
                    "durationTicks": 60,
                    "midi": 40,
                    "name": "E2",
                    "ticks": 75480,
                    "time": 244.21124900000004,
                    "velocity": 1
                },
                {
                    "duration": 0.14423050000002036,
                    "durationTicks": 60,
                    "midi": 48,
                    "name": "C3",
                    "ticks": 75540,
                    "time": 244.35547950000003,
                    "velocity": 1
                },
                {
                    "duration": 0.14423049999999193,
                    "durationTicks": 60,
                    "midi": 47,
                    "name": "B2",
                    "ticks": 75600,
                    "time": 244.49971000000005,
                    "velocity": 1
                },
                {
                    "duration": 0.14423049999999193,
                    "durationTicks": 60,
                    "midi": 45,
                    "name": "A2",
                    "ticks": 75660,
                    "time": 244.64394050000004,
                    "velocity": 1
                },
                {
                    "duration": 0.14423049999999193,
                    "durationTicks": 60,
                    "midi": 43,
                    "name": "G2",
                    "ticks": 75720,
                    "time": 244.78817100000003,
                    "velocity": 1
                },
                {
                    "duration": 0.14423049999999193,
                    "durationTicks": 60,
                    "midi": 40,
                    "name": "E2",
                    "ticks": 75780,
                    "time": 244.93240150000003,
                    "velocity": 1
                },
                {
                    "duration": 0.14423050000002036,
                    "durationTicks": 60,
                    "midi": 50,
                    "name": "D3",
                    "ticks": 75840,
                    "time": 245.07663200000002,
                    "velocity": 1
                },
                {
                    "duration": 0.14423049999999193,
                    "durationTicks": 60,
                    "midi": 52,
                    "name": "E3",
                    "ticks": 75900,
                    "time": 245.22086250000004,
                    "velocity": 1
                },
                {
                    "duration": 0.14423050000002036,
                    "durationTicks": 60,
                    "midi": 40,
                    "name": "E2",
                    "ticks": 75960,
                    "time": 245.36509300000003,
                    "velocity": 1
                },
                {
                    "duration": 0.14423049999999193,
                    "durationTicks": 60,
                    "midi": 52,
                    "name": "E3",
                    "ticks": 76020,
                    "time": 245.50932350000005,
                    "velocity": 1
                },
                {
                    "duration": 0.14423049999999193,
                    "durationTicks": 60,
                    "midi": 40,
                    "name": "E2",
                    "ticks": 76080,
                    "time": 245.65355400000004,
                    "velocity": 1
                },
                {
                    "duration": 0.14423049999999193,
                    "durationTicks": 60,
                    "midi": 40,
                    "name": "E2",
                    "ticks": 76140,
                    "time": 245.79778450000003,
                    "velocity": 1
                },
                {
                    "duration": 0.14423049999999193,
                    "durationTicks": 60,
                    "midi": 52,
                    "name": "E3",
                    "ticks": 76200,
                    "time": 245.94201500000003,
                    "velocity": 1
                },
                {
                    "duration": 0.14423050000002036,
                    "durationTicks": 60,
                    "midi": 40,
                    "name": "E2",
                    "ticks": 76260,
                    "time": 246.08624550000002,
                    "velocity": 1
                },
                {
                    "duration": 0.14423049999999193,
                    "durationTicks": 60,
                    "midi": 50,
                    "name": "D3",
                    "ticks": 76320,
                    "time": 246.23047600000004,
                    "velocity": 1
                },
                {
                    "duration": 0.14423049999999193,
                    "durationTicks": 60,
                    "midi": 55,
                    "name": "G3",
                    "ticks": 76320,
                    "time": 246.23047600000004,
                    "velocity": 1
                },
                {
                    "duration": 0.14423050000002036,
                    "durationTicks": 60,
                    "midi": 40,
                    "name": "E2",
                    "ticks": 76380,
                    "time": 246.37470650000003,
                    "velocity": 1
                },
                {
                    "duration": 0.14423049999999193,
                    "durationTicks": 60,
                    "midi": 40,
                    "name": "E2",
                    "ticks": 76440,
                    "time": 246.51893700000005,
                    "velocity": 1
                },
                {
                    "duration": 0.14423049999999193,
                    "durationTicks": 60,
                    "midi": 52,
                    "name": "E3",
                    "ticks": 76500,
                    "time": 246.66316750000004,
                    "velocity": 1
                },
                {
                    "duration": 0.14423049999999193,
                    "durationTicks": 60,
                    "midi": 40,
                    "name": "E2",
                    "ticks": 76560,
                    "time": 246.80739800000003,
                    "velocity": 1
                },
                {
                    "duration": 0.14423049999999193,
                    "durationTicks": 60,
                    "midi": 40,
                    "name": "E2",
                    "ticks": 76620,
                    "time": 246.95162850000003,
                    "velocity": 1
                },
                {
                    "duration": 0.14423050000002036,
                    "durationTicks": 60,
                    "midi": 52,
                    "name": "E3",
                    "ticks": 76680,
                    "time": 247.09585900000002,
                    "velocity": 1
                },
                {
                    "duration": 0.14423049999999193,
                    "durationTicks": 60,
                    "midi": 40,
                    "name": "E2",
                    "ticks": 76740,
                    "time": 247.24008950000004,
                    "velocity": 1
                },
                {
                    "duration": 0.14423050000002036,
                    "durationTicks": 60,
                    "midi": 54,
                    "name": "F#3",
                    "ticks": 76800,
                    "time": 247.38432000000003,
                    "velocity": 1
                },
                {
                    "duration": 0.14423050000002036,
                    "durationTicks": 60,
                    "midi": 49,
                    "name": "C#3",
                    "ticks": 76800,
                    "time": 247.38432000000003,
                    "velocity": 1
                },
                {
                    "duration": 0.14423049999999193,
                    "durationTicks": 60,
                    "midi": 40,
                    "name": "E2",
                    "ticks": 76860,
                    "time": 247.52855050000005,
                    "velocity": 1
                },
                {
                    "duration": 0.14423049999999193,
                    "durationTicks": 60,
                    "midi": 40,
                    "name": "E2",
                    "ticks": 76920,
                    "time": 247.67278100000004,
                    "velocity": 1
                },
                {
                    "duration": 0.14423049999999193,
                    "durationTicks": 60,
                    "midi": 52,
                    "name": "E3",
                    "ticks": 76980,
                    "time": 247.81701150000004,
                    "velocity": 1
                },
                {
                    "duration": 0.14423049999999193,
                    "durationTicks": 60,
                    "midi": 40,
                    "name": "E2",
                    "ticks": 77040,
                    "time": 247.96124200000003,
                    "velocity": 1
                },
                {
                    "duration": 0.14423050000002036,
                    "durationTicks": 60,
                    "midi": 40,
                    "name": "E2",
                    "ticks": 77100,
                    "time": 248.10547250000002,
                    "velocity": 1
                },
                {
                    "duration": 0.2884610000000123,
                    "durationTicks": 120,
                    "midi": 52,
                    "name": "E3",
                    "ticks": 77160,
                    "time": 248.24970300000004,
                    "velocity": 1
                },
                {
                    "duration": 0.14423049999999193,
                    "durationTicks": 60,
                    "midi": 43,
                    "name": "G2",
                    "ticks": 77280,
                    "time": 248.53816400000005,
                    "velocity": 1
                },
                {
                    "duration": 0.14423049999999193,
                    "durationTicks": 60,
                    "midi": 42,
                    "name": "F#2",
                    "ticks": 77340,
                    "time": 248.68239450000004,
                    "velocity": 1
                },
                {
                    "duration": 0.14423049999999193,
                    "durationTicks": 60,
                    "midi": 40,
                    "name": "E2",
                    "ticks": 77400,
                    "time": 248.82662500000004,
                    "velocity": 1
                },
                {
                    "duration": 0.14423049999999193,
                    "durationTicks": 60,
                    "midi": 48,
                    "name": "C3",
                    "ticks": 77460,
                    "time": 248.97085550000003,
                    "velocity": 1
                },
                {
                    "duration": 0.14423050000002036,
                    "durationTicks": 60,
                    "midi": 47,
                    "name": "B2",
                    "ticks": 77520,
                    "time": 249.11508600000002,
                    "velocity": 1
                },
                {
                    "duration": 0.14423049999999193,
                    "durationTicks": 60,
                    "midi": 45,
                    "name": "A2",
                    "ticks": 77580,
                    "time": 249.25931650000004,
                    "velocity": 1
                },
                {
                    "duration": 0.14423050000002036,
                    "durationTicks": 60,
                    "midi": 43,
                    "name": "G2",
                    "ticks": 77640,
                    "time": 249.40354700000003,
                    "velocity": 1
                },
                {
                    "duration": 0.14423049999999193,
                    "durationTicks": 60,
                    "midi": 42,
                    "name": "F#2",
                    "ticks": 77700,
                    "time": 249.54777750000005,
                    "velocity": 1
                },
                {
                    "duration": 0.14423049999999193,
                    "durationTicks": 60,
                    "midi": 43,
                    "name": "G2",
                    "ticks": 77760,
                    "time": 249.69200800000004,
                    "velocity": 1
                },
                {
                    "duration": 0.14423049999999193,
                    "durationTicks": 60,
                    "midi": 42,
                    "name": "F#2",
                    "ticks": 77820,
                    "time": 249.83623850000004,
                    "velocity": 1
                },
                {
                    "duration": 0.14423049999999193,
                    "durationTicks": 60,
                    "midi": 40,
                    "name": "E2",
                    "ticks": 77880,
                    "time": 249.98046900000003,
                    "velocity": 1
                },
                {
                    "duration": 0.14423050000002036,
                    "durationTicks": 60,
                    "midi": 48,
                    "name": "C3",
                    "ticks": 77940,
                    "time": 250.12469950000002,
                    "velocity": 1
                },
                {
                    "duration": 0.14423049999999193,
                    "durationTicks": 60,
                    "midi": 47,
                    "name": "B2",
                    "ticks": 78000,
                    "time": 250.26893000000004,
                    "velocity": 1
                },
                {
                    "duration": 0.14423050000002036,
                    "durationTicks": 60,
                    "midi": 45,
                    "name": "A2",
                    "ticks": 78060,
                    "time": 250.41316050000003,
                    "velocity": 1
                },
                {
                    "duration": 0.14423049999999193,
                    "durationTicks": 60,
                    "midi": 43,
                    "name": "G2",
                    "ticks": 78120,
                    "time": 250.55739100000005,
                    "velocity": 1
                },
                {
                    "duration": 0.14423049999999193,
                    "durationTicks": 60,
                    "midi": 42,
                    "name": "F#2",
                    "ticks": 78180,
                    "time": 250.70162150000004,
                    "velocity": 1
                },
                {
                    "duration": 1.1538439999999923,
                    "durationTicks": 480,
                    "midi": 45,
                    "name": "A2",
                    "ticks": 78240,
                    "time": 250.84585200000004,
                    "velocity": 1
                },
                {
                    "duration": 1.1538439999999923,
                    "durationTicks": 480,
                    "midi": 52,
                    "name": "E3",
                    "ticks": 78240,
                    "time": 250.84585200000004,
                    "velocity": 1
                },
                {
                    "duration": 1.1538439999999923,
                    "durationTicks": 480,
                    "midi": 57,
                    "name": "A3",
                    "ticks": 78240,
                    "time": 250.84585200000004,
                    "velocity": 1
                },
                {
                    "duration": 0.21428549999998836,
                    "durationTicks": 60,
                    "midi": 45,
                    "name": "A2",
                    "ticks": 78720,
                    "time": 251.99969600000003,
                    "velocity": 1
                },
                {
                    "duration": 0.21428550000001678,
                    "durationTicks": 60,
                    "midi": 45,
                    "name": "A2",
                    "ticks": 78780,
                    "time": 252.21398150000002,
                    "velocity": 1
                },
                {
                    "duration": 0.10714275000000839,
                    "durationTicks": 30,
                    "midi": 62,
                    "name": "D4",
                    "ticks": 78840,
                    "time": 252.42826700000003,
                    "velocity": 1
                },
                {
                    "duration": 0.10714274999997997,
                    "durationTicks": 30,
                    "midi": 63,
                    "name": "D#4",
                    "ticks": 78870,
                    "time": 252.53540975000004,
                    "velocity": 1
                },
                {
                    "duration": 0.42857100000000514,
                    "durationTicks": 120,
                    "midi": 62,
                    "name": "D4",
                    "ticks": 78900,
                    "time": 252.64255250000002,
                    "velocity": 1
                },
                {
                    "duration": 0.21428549999998836,
                    "durationTicks": 60,
                    "midi": 45,
                    "name": "A2",
                    "ticks": 79020,
                    "time": 253.07112350000003,
                    "velocity": 1
                },
                {
                    "duration": 0.10714275000000839,
                    "durationTicks": 30,
                    "midi": 57,
                    "name": "A3",
                    "ticks": 79080,
                    "time": 253.28540900000002,
                    "velocity": 1
                },
                {
                    "duration": 0.10714275000000839,
                    "durationTicks": 30,
                    "midi": 58,
                    "name": "A#3",
                    "ticks": 79110,
                    "time": 253.39255175000002,
                    "velocity": 1
                },
                {
                    "duration": 0.42857100000000514,
                    "durationTicks": 120,
                    "midi": 57,
                    "name": "A3",
                    "ticks": 79140,
                    "time": 253.49969450000003,
                    "velocity": 1
                },
                {
                    "duration": 0.21428549999998836,
                    "durationTicks": 60,
                    "midi": 45,
                    "name": "A2",
                    "ticks": 79260,
                    "time": 253.92826550000004,
                    "velocity": 1
                },
                {
                    "duration": 0.21428550000001678,
                    "durationTicks": 60,
                    "midi": 53,
                    "name": "F3",
                    "ticks": 79320,
                    "time": 254.14255100000003,
                    "velocity": 1
                },
                {
                    "duration": 0.21428549999998836,
                    "durationTicks": 60,
                    "midi": 52,
                    "name": "E3",
                    "ticks": 79380,
                    "time": 254.35683650000004,
                    "velocity": 1
                },
                {
                    "duration": 0.21428549999998836,
                    "durationTicks": 60,
                    "midi": 55,
                    "name": "G3",
                    "ticks": 79440,
                    "time": 254.57112200000003,
                    "velocity": 1
                },
                {
                    "duration": 0.21428550000001678,
                    "durationTicks": 60,
                    "midi": 52,
                    "name": "E3",
                    "ticks": 79500,
                    "time": 254.78540750000002,
                    "velocity": 1
                },
                {
                    "duration": 0.21428549999998836,
                    "durationTicks": 60,
                    "midi": 60,
                    "name": "C4",
                    "ticks": 79560,
                    "time": 254.99969300000004,
                    "velocity": 1
                },
                {
                    "duration": 0.21428550000001678,
                    "durationTicks": 60,
                    "midi": 57,
                    "name": "A3",
                    "ticks": 79620,
                    "time": 255.21397850000002,
                    "velocity": 1
                },
                {
                    "duration": 0.21428549999998836,
                    "durationTicks": 60,
                    "midi": 45,
                    "name": "A2",
                    "ticks": 79680,
                    "time": 255.42826400000004,
                    "velocity": 1
                },
                {
                    "duration": 0.21428549999998836,
                    "durationTicks": 60,
                    "midi": 45,
                    "name": "A2",
                    "ticks": 79740,
                    "time": 255.64254950000003,
                    "velocity": 1
                },
                {
                    "duration": 0.10714275000000839,
                    "durationTicks": 30,
                    "midi": 62,
                    "name": "D4",
                    "ticks": 79800,
                    "time": 255.85683500000002,
                    "velocity": 1
                },
                {
                    "duration": 0.10714274999997997,
                    "durationTicks": 30,
                    "midi": 63,
                    "name": "D#4",
                    "ticks": 79830,
                    "time": 255.96397775000003,
                    "velocity": 1
                },
                {
                    "duration": 0.42857100000003356,
                    "durationTicks": 120,
                    "midi": 62,
                    "name": "D4",
                    "ticks": 79860,
                    "time": 256.0711205,
                    "velocity": 1
                },
                {
                    "duration": 0.21428550000001678,
                    "durationTicks": 60,
                    "midi": 45,
                    "name": "A2",
                    "ticks": 79980,
                    "time": 256.49969150000004,
                    "velocity": 1
                },
                {
                    "duration": 0.10714274999997997,
                    "durationTicks": 30,
                    "midi": 57,
                    "name": "A3",
                    "ticks": 80040,
                    "time": 256.71397700000006,
                    "velocity": 1
                },
                {
                    "duration": 0.10714274999997997,
                    "durationTicks": 30,
                    "midi": 58,
                    "name": "A#3",
                    "ticks": 80070,
                    "time": 256.82111975000004,
                    "velocity": 1
                },
                {
                    "duration": 0.42857100000003356,
                    "durationTicks": 120,
                    "midi": 57,
                    "name": "A3",
                    "ticks": 80100,
                    "time": 256.9282625,
                    "velocity": 1
                },
                {
                    "duration": 0.21428549999995994,
                    "durationTicks": 60,
                    "midi": 45,
                    "name": "A2",
                    "ticks": 80220,
                    "time": 257.35683350000005,
                    "velocity": 1
                },
                {
                    "duration": 0.21428550000001678,
                    "durationTicks": 60,
                    "midi": 53,
                    "name": "F3",
                    "ticks": 80280,
                    "time": 257.571119,
                    "velocity": 1
                },
                {
                    "duration": 0.21428550000001678,
                    "durationTicks": 60,
                    "midi": 52,
                    "name": "E3",
                    "ticks": 80340,
                    "time": 257.7854045,
                    "velocity": 1
                },
                {
                    "duration": 0.21428549999995994,
                    "durationTicks": 60,
                    "midi": 55,
                    "name": "G3",
                    "ticks": 80400,
                    "time": 257.99969000000004,
                    "velocity": 1
                },
                {
                    "duration": 0.21428550000001678,
                    "durationTicks": 60,
                    "midi": 52,
                    "name": "E3",
                    "ticks": 80460,
                    "time": 258.2139755,
                    "velocity": 1
                },
                {
                    "duration": 0.21428550000001678,
                    "durationTicks": 60,
                    "midi": 60,
                    "name": "C4",
                    "ticks": 80520,
                    "time": 258.428261,
                    "velocity": 1
                },
                {
                    "duration": 0.21428550000001678,
                    "durationTicks": 60,
                    "midi": 57,
                    "name": "A3",
                    "ticks": 80580,
                    "time": 258.64254650000004,
                    "velocity": 1
                },
                {
                    "duration": 0.21428549999995994,
                    "durationTicks": 60,
                    "midi": 45,
                    "name": "A2",
                    "ticks": 80640,
                    "time": 258.85683200000005,
                    "velocity": 1
                },
                {
                    "duration": 0.21428550000001678,
                    "durationTicks": 60,
                    "midi": 45,
                    "name": "A2",
                    "ticks": 80700,
                    "time": 259.0711175,
                    "velocity": 1
                },
                {
                    "duration": 0.10714274999997997,
                    "durationTicks": 30,
                    "midi": 62,
                    "name": "D4",
                    "ticks": 80760,
                    "time": 259.28540300000003,
                    "velocity": 1
                },
                {
                    "duration": 0.10714275000003681,
                    "durationTicks": 30,
                    "midi": 63,
                    "name": "D#4",
                    "ticks": 80790,
                    "time": 259.39254575,
                    "velocity": 1
                },
                {
                    "duration": 0.4285709999999767,
                    "durationTicks": 120,
                    "midi": 62,
                    "name": "D4",
                    "ticks": 80820,
                    "time": 259.49968850000005,
                    "velocity": 1
                },
                {
                    "duration": 0.21428550000001678,
                    "durationTicks": 60,
                    "midi": 45,
                    "name": "A2",
                    "ticks": 80940,
                    "time": 259.9282595,
                    "velocity": 1
                },
                {
                    "duration": 0.10714274999997997,
                    "durationTicks": 30,
                    "midi": 57,
                    "name": "A3",
                    "ticks": 81000,
                    "time": 260.14254500000004,
                    "velocity": 1
                },
                {
                    "duration": 0.10714274999997997,
                    "durationTicks": 30,
                    "midi": 58,
                    "name": "A#3",
                    "ticks": 81030,
                    "time": 260.24968775,
                    "velocity": 1
                },
                {
                    "duration": 0.42857100000003356,
                    "durationTicks": 120,
                    "midi": 57,
                    "name": "A3",
                    "ticks": 81060,
                    "time": 260.3568305,
                    "velocity": 1
                },
                {
                    "duration": 0.21428550000001678,
                    "durationTicks": 60,
                    "midi": 45,
                    "name": "A2",
                    "ticks": 81180,
                    "time": 260.78540150000003,
                    "velocity": 1
                },
                {
                    "duration": 0.21428549999995994,
                    "durationTicks": 60,
                    "midi": 53,
                    "name": "F3",
                    "ticks": 81240,
                    "time": 260.99968700000005,
                    "velocity": 1
                },
                {
                    "duration": 0.21428550000001678,
                    "durationTicks": 60,
                    "midi": 52,
                    "name": "E3",
                    "ticks": 81300,
                    "time": 261.2139725,
                    "velocity": 1
                },
                {
                    "duration": 0.21428550000001678,
                    "durationTicks": 60,
                    "midi": 55,
                    "name": "G3",
                    "ticks": 81360,
                    "time": 261.428258,
                    "velocity": 1
                },
                {
                    "duration": 0.21428549999995994,
                    "durationTicks": 60,
                    "midi": 52,
                    "name": "E3",
                    "ticks": 81420,
                    "time": 261.64254350000004,
                    "velocity": 1
                },
                {
                    "duration": 0.21428550000001678,
                    "durationTicks": 60,
                    "midi": 60,
                    "name": "C4",
                    "ticks": 81480,
                    "time": 261.856829,
                    "velocity": 1
                },
                {
                    "duration": 0.21428550000001678,
                    "durationTicks": 60,
                    "midi": 57,
                    "name": "A3",
                    "ticks": 81540,
                    "time": 262.0711145,
                    "velocity": 1
                },
                {
                    "duration": 0.21428550000001678,
                    "durationTicks": 60,
                    "midi": 45,
                    "name": "A2",
                    "ticks": 81600,
                    "time": 262.28540000000004,
                    "velocity": 1
                },
                {
                    "duration": 0.21428549999995994,
                    "durationTicks": 60,
                    "midi": 45,
                    "name": "A2",
                    "ticks": 81660,
                    "time": 262.49968550000006,
                    "velocity": 1
                },
                {
                    "duration": 0.10714275000003681,
                    "durationTicks": 30,
                    "midi": 62,
                    "name": "D4",
                    "ticks": 81720,
                    "time": 262.713971,
                    "velocity": 1
                },
                {
                    "duration": 0.10714274999997997,
                    "durationTicks": 30,
                    "midi": 63,
                    "name": "D#4",
                    "ticks": 81750,
                    "time": 262.82111375000005,
                    "velocity": 1
                },
                {
                    "duration": 0.4285709999999767,
                    "durationTicks": 120,
                    "midi": 62,
                    "name": "D4",
                    "ticks": 81780,
                    "time": 262.92825650000003,
                    "velocity": 1
                },
                {
                    "duration": 0.21428550000001678,
                    "durationTicks": 60,
                    "midi": 45,
                    "name": "A2",
                    "ticks": 81900,
                    "time": 263.3568275,
                    "velocity": 1
                },
                {
                    "duration": 0.10714274999997997,
                    "durationTicks": 30,
                    "midi": 57,
                    "name": "A3",
                    "ticks": 81960,
                    "time": 263.571113,
                    "velocity": 1
                },
                {
                    "duration": 0.10714275000003681,
                    "durationTicks": 30,
                    "midi": 58,
                    "name": "A#3",
                    "ticks": 81990,
                    "time": 263.67825575,
                    "velocity": 1
                },
                {
                    "duration": 0.4285709999999767,
                    "durationTicks": 120,
                    "midi": 57,
                    "name": "A3",
                    "ticks": 82020,
                    "time": 263.78539850000004,
                    "velocity": 1
                },
                {
                    "duration": 0.21428550000001678,
                    "durationTicks": 60,
                    "midi": 45,
                    "name": "A2",
                    "ticks": 82140,
                    "time": 264.2139695,
                    "velocity": 1
                },
                {
                    "duration": 0.21428550000001678,
                    "durationTicks": 60,
                    "midi": 53,
                    "name": "F3",
                    "ticks": 82200,
                    "time": 264.42825500000004,
                    "velocity": 1
                },
                {
                    "duration": 0.21428549999995994,
                    "durationTicks": 60,
                    "midi": 52,
                    "name": "E3",
                    "ticks": 82260,
                    "time": 264.64254050000005,
                    "velocity": 1
                },
                {
                    "duration": 0.21428550000001678,
                    "durationTicks": 60,
                    "midi": 55,
                    "name": "G3",
                    "ticks": 82320,
                    "time": 264.856826,
                    "velocity": 1
                },
                {
                    "duration": 0.21428550000001678,
                    "durationTicks": 60,
                    "midi": 52,
                    "name": "E3",
                    "ticks": 82380,
                    "time": 265.07111150000003,
                    "velocity": 1
                },
                {
                    "duration": 0.21428549999995994,
                    "durationTicks": 60,
                    "midi": 60,
                    "name": "C4",
                    "ticks": 82440,
                    "time": 265.28539700000005,
                    "velocity": 1
                },
                {
                    "duration": 0.21428550000001678,
                    "durationTicks": 60,
                    "midi": 57,
                    "name": "A3",
                    "ticks": 82500,
                    "time": 265.4996825,
                    "velocity": 1
                },
                {
                    "duration": 0.21428550000001678,
                    "durationTicks": 60,
                    "midi": 45,
                    "name": "A2",
                    "ticks": 82560,
                    "time": 265.713968,
                    "velocity": 1
                },
                {
                    "duration": 0.21428550000001678,
                    "durationTicks": 60,
                    "midi": 45,
                    "name": "A2",
                    "ticks": 82620,
                    "time": 265.92825350000004,
                    "velocity": 1
                },
                {
                    "duration": 0.10714274999997997,
                    "durationTicks": 30,
                    "midi": 62,
                    "name": "D4",
                    "ticks": 82680,
                    "time": 266.14253900000006,
                    "velocity": 1
                },
                {
                    "duration": 0.10714274999997997,
                    "durationTicks": 30,
                    "midi": 63,
                    "name": "D#4",
                    "ticks": 82710,
                    "time": 266.24968175000004,
                    "velocity": 1
                },
                {
                    "duration": 0.42857100000003356,
                    "durationTicks": 120,
                    "midi": 62,
                    "name": "D4",
                    "ticks": 82740,
                    "time": 266.3568245,
                    "velocity": 1
                },
                {
                    "duration": 0.21428549999995994,
                    "durationTicks": 60,
                    "midi": 45,
                    "name": "A2",
                    "ticks": 82860,
                    "time": 266.78539550000005,
                    "velocity": 1
                },
                {
                    "duration": 0.10714275000003681,
                    "durationTicks": 30,
                    "midi": 57,
                    "name": "A3",
                    "ticks": 82920,
                    "time": 266.999681,
                    "velocity": 1
                },
                {
                    "duration": 0.10714274999997997,
                    "durationTicks": 30,
                    "midi": 58,
                    "name": "A#3",
                    "ticks": 82950,
                    "time": 267.10682375000005,
                    "velocity": 1
                },
                {
                    "duration": 0.4285709999999767,
                    "durationTicks": 120,
                    "midi": 57,
                    "name": "A3",
                    "ticks": 82980,
                    "time": 267.2139665,
                    "velocity": 1
                },
                {
                    "duration": 0.21428550000001678,
                    "durationTicks": 60,
                    "midi": 45,
                    "name": "A2",
                    "ticks": 83100,
                    "time": 267.6425375,
                    "velocity": 1
                },
                {
                    "duration": 0.21428550000001678,
                    "durationTicks": 60,
                    "midi": 53,
                    "name": "F3",
                    "ticks": 83160,
                    "time": 267.856823,
                    "velocity": 1
                },
                {
                    "duration": 0.21428550000001678,
                    "durationTicks": 60,
                    "midi": 52,
                    "name": "E3",
                    "ticks": 83220,
                    "time": 268.07110850000004,
                    "velocity": 1
                },
                {
                    "duration": 0.21428549999995994,
                    "durationTicks": 60,
                    "midi": 55,
                    "name": "G3",
                    "ticks": 83280,
                    "time": 268.28539400000005,
                    "velocity": 1
                },
                {
                    "duration": 0.21428550000001678,
                    "durationTicks": 60,
                    "midi": 52,
                    "name": "E3",
                    "ticks": 83340,
                    "time": 268.4996795,
                    "velocity": 1
                },
                {
                    "duration": 0.21428550000001678,
                    "durationTicks": 60,
                    "midi": 60,
                    "name": "C4",
                    "ticks": 83400,
                    "time": 268.71396500000003,
                    "velocity": 1
                },
                {
                    "duration": 0.21428549999995994,
                    "durationTicks": 60,
                    "midi": 57,
                    "name": "A3",
                    "ticks": 83460,
                    "time": 268.92825050000005,
                    "velocity": 1
                },
                {
                    "duration": 0.21428550000001678,
                    "durationTicks": 60,
                    "midi": 45,
                    "name": "A2",
                    "ticks": 83520,
                    "time": 269.142536,
                    "velocity": 1
                },
                {
                    "duration": 0.21428550000001678,
                    "durationTicks": 60,
                    "midi": 45,
                    "name": "A2",
                    "ticks": 83580,
                    "time": 269.3568215,
                    "velocity": 1
                },
                {
                    "duration": 0.10714274999997997,
                    "durationTicks": 30,
                    "midi": 62,
                    "name": "D4",
                    "ticks": 83640,
                    "time": 269.57110700000004,
                    "velocity": 1
                },
                {
                    "duration": 0.10714275000003681,
                    "durationTicks": 30,
                    "midi": 63,
                    "name": "D#4",
                    "ticks": 83670,
                    "time": 269.67824975,
                    "velocity": 1
                },
                {
                    "duration": 0.4285709999999767,
                    "durationTicks": 120,
                    "midi": 62,
                    "name": "D4",
                    "ticks": 83700,
                    "time": 269.78539250000006,
                    "velocity": 1
                },
                {
                    "duration": 0.21428550000001678,
                    "durationTicks": 60,
                    "midi": 45,
                    "name": "A2",
                    "ticks": 83820,
                    "time": 270.21396350000003,
                    "velocity": 1
                },
                {
                    "duration": 0.10714274999997997,
                    "durationTicks": 30,
                    "midi": 57,
                    "name": "A3",
                    "ticks": 83880,
                    "time": 270.42824900000005,
                    "velocity": 1
                },
                {
                    "duration": 0.10714274999997997,
                    "durationTicks": 30,
                    "midi": 58,
                    "name": "A#3",
                    "ticks": 83910,
                    "time": 270.53539175000003,
                    "velocity": 1
                },
                {
                    "duration": 0.42857100000003356,
                    "durationTicks": 120,
                    "midi": 57,
                    "name": "A3",
                    "ticks": 83940,
                    "time": 270.6425345,
                    "velocity": 1
                },
                {
                    "duration": 0.21428549999995994,
                    "durationTicks": 60,
                    "midi": 45,
                    "name": "A2",
                    "ticks": 84060,
                    "time": 271.07110550000004,
                    "velocity": 1
                },
                {
                    "duration": 0.21428550000001678,
                    "durationTicks": 60,
                    "midi": 53,
                    "name": "F3",
                    "ticks": 84120,
                    "time": 271.285391,
                    "velocity": 1
                },
                {
                    "duration": 0.21428550000001678,
                    "durationTicks": 60,
                    "midi": 52,
                    "name": "E3",
                    "ticks": 84180,
                    "time": 271.4996765,
                    "velocity": 1
                },
                {
                    "duration": 0.21428550000001678,
                    "durationTicks": 60,
                    "midi": 55,
                    "name": "G3",
                    "ticks": 84240,
                    "time": 271.71396200000004,
                    "velocity": 1
                },
                {
                    "duration": 0.21428549999995994,
                    "durationTicks": 60,
                    "midi": 52,
                    "name": "E3",
                    "ticks": 84300,
                    "time": 271.92824750000005,
                    "velocity": 1
                },
                {
                    "duration": 0.21428550000001678,
                    "durationTicks": 60,
                    "midi": 60,
                    "name": "C4",
                    "ticks": 84360,
                    "time": 272.142533,
                    "velocity": 1
                },
                {
                    "duration": 0.21428550000001678,
                    "durationTicks": 60,
                    "midi": 57,
                    "name": "A3",
                    "ticks": 84420,
                    "time": 272.35681850000003,
                    "velocity": 1
                },
                {
                    "duration": 0.21428549999995994,
                    "durationTicks": 60,
                    "midi": 45,
                    "name": "A2",
                    "ticks": 84480,
                    "time": 272.57110400000005,
                    "velocity": 1
                },
                {
                    "duration": 0.21428550000001678,
                    "durationTicks": 60,
                    "midi": 45,
                    "name": "A2",
                    "ticks": 84540,
                    "time": 272.7853895,
                    "velocity": 1
                },
                {
                    "duration": 0.10714274999997997,
                    "durationTicks": 30,
                    "midi": 62,
                    "name": "D4",
                    "ticks": 84600,
                    "time": 272.999675,
                    "velocity": 1
                },
                {
                    "duration": 0.10714275000003681,
                    "durationTicks": 30,
                    "midi": 63,
                    "name": "D#4",
                    "ticks": 84630,
                    "time": 273.10681775,
                    "velocity": 1
                },
                {
                    "duration": 0.4285709999999767,
                    "durationTicks": 120,
                    "midi": 62,
                    "name": "D4",
                    "ticks": 84660,
                    "time": 273.21396050000004,
                    "velocity": 1
                },
                {
                    "duration": 0.21428550000001678,
                    "durationTicks": 60,
                    "midi": 45,
                    "name": "A2",
                    "ticks": 84780,
                    "time": 273.6425315,
                    "velocity": 1
                },
                {
                    "duration": 0.10714274999997997,
                    "durationTicks": 30,
                    "midi": 57,
                    "name": "A3",
                    "ticks": 84840,
                    "time": 273.85681700000004,
                    "velocity": 1
                },
                {
                    "duration": 0.10714275000003681,
                    "durationTicks": 30,
                    "midi": 58,
                    "name": "A#3",
                    "ticks": 84870,
                    "time": 273.96395975,
                    "velocity": 1
                },
                {
                    "duration": 0.4285709999999767,
                    "durationTicks": 120,
                    "midi": 57,
                    "name": "A3",
                    "ticks": 84900,
                    "time": 274.07110250000005,
                    "velocity": 1
                },
                {
                    "duration": 0.21428550000001678,
                    "durationTicks": 60,
                    "midi": 45,
                    "name": "A2",
                    "ticks": 85020,
                    "time": 274.49967350000003,
                    "velocity": 1
                },
                {
                    "duration": 0.21428549999995994,
                    "durationTicks": 60,
                    "midi": 53,
                    "name": "F3",
                    "ticks": 85080,
                    "time": 274.71395900000005,
                    "velocity": 1
                },
                {
                    "duration": 0.21428550000001678,
                    "durationTicks": 60,
                    "midi": 52,
                    "name": "E3",
                    "ticks": 85140,
                    "time": 274.9282445,
                    "velocity": 1
                },
                {
                    "duration": 0.21428550000001678,
                    "durationTicks": 60,
                    "midi": 55,
                    "name": "G3",
                    "ticks": 85200,
                    "time": 275.14253,
                    "velocity": 1
                },
                {
                    "duration": 0.21428550000001678,
                    "durationTicks": 60,
                    "midi": 52,
                    "name": "E3",
                    "ticks": 85260,
                    "time": 275.35681550000004,
                    "velocity": 1
                },
                {
                    "duration": 0.21428549999995994,
                    "durationTicks": 60,
                    "midi": 60,
                    "name": "C4",
                    "ticks": 85320,
                    "time": 275.57110100000006,
                    "velocity": 1
                },
                {
                    "duration": 0.21428550000001678,
                    "durationTicks": 60,
                    "midi": 57,
                    "name": "A3",
                    "ticks": 85380,
                    "time": 275.7853865,
                    "velocity": 1
                },
                {
                    "duration": 0.21428550000001678,
                    "durationTicks": 60,
                    "midi": 45,
                    "name": "A2",
                    "ticks": 85440,
                    "time": 275.99967200000003,
                    "velocity": 1
                },
                {
                    "duration": 0.21428549999995994,
                    "durationTicks": 60,
                    "midi": 45,
                    "name": "A2",
                    "ticks": 85500,
                    "time": 276.21395750000005,
                    "velocity": 1
                },
                {
                    "duration": 0.10714275000003681,
                    "durationTicks": 30,
                    "midi": 62,
                    "name": "D4",
                    "ticks": 85560,
                    "time": 276.428243,
                    "velocity": 1
                },
                {
                    "duration": 0.10714274999997997,
                    "durationTicks": 30,
                    "midi": 63,
                    "name": "D#4",
                    "ticks": 85590,
                    "time": 276.53538575000005,
                    "velocity": 1
                },
                {
                    "duration": 0.42857100000003356,
                    "durationTicks": 120,
                    "midi": 62,
                    "name": "D4",
                    "ticks": 85620,
                    "time": 276.6425285,
                    "velocity": 1
                },
                {
                    "duration": 0.21428549999995994,
                    "durationTicks": 60,
                    "midi": 45,
                    "name": "A2",
                    "ticks": 85740,
                    "time": 277.07109950000006,
                    "velocity": 1
                },
                {
                    "duration": 0.10714275000003681,
                    "durationTicks": 30,
                    "midi": 57,
                    "name": "A3",
                    "ticks": 85800,
                    "time": 277.285385,
                    "velocity": 1
                },
                {
                    "duration": 0.10714274999997997,
                    "durationTicks": 30,
                    "midi": 58,
                    "name": "A#3",
                    "ticks": 85830,
                    "time": 277.39252775000006,
                    "velocity": 1
                },
                {
                    "duration": 0.4285709999999767,
                    "durationTicks": 120,
                    "midi": 57,
                    "name": "A3",
                    "ticks": 85860,
                    "time": 277.49967050000004,
                    "velocity": 1
                },
                {
                    "duration": 0.21428550000001678,
                    "durationTicks": 60,
                    "midi": 45,
                    "name": "A2",
                    "ticks": 85980,
                    "time": 277.9282415,
                    "velocity": 1
                },
                {
                    "duration": 0.21428550000001678,
                    "durationTicks": 60,
                    "midi": 53,
                    "name": "F3",
                    "ticks": 86040,
                    "time": 278.14252700000003,
                    "velocity": 1
                },
                {
                    "duration": 0.21428549999995994,
                    "durationTicks": 60,
                    "midi": 52,
                    "name": "E3",
                    "ticks": 86100,
                    "time": 278.35681250000005,
                    "velocity": 1
                },
                {
                    "duration": 0.21428550000001678,
                    "durationTicks": 60,
                    "midi": 55,
                    "name": "G3",
                    "ticks": 86160,
                    "time": 278.571098,
                    "velocity": 1
                },
                {
                    "duration": 0.21428550000001678,
                    "durationTicks": 60,
                    "midi": 52,
                    "name": "E3",
                    "ticks": 86220,
                    "time": 278.7853835,
                    "velocity": 1
                },
                {
                    "duration": 0.21428550000001678,
                    "durationTicks": 60,
                    "midi": 60,
                    "name": "C4",
                    "ticks": 86280,
                    "time": 278.99966900000004,
                    "velocity": 1
                },
                {
                    "duration": 0.21428549999995994,
                    "durationTicks": 60,
                    "midi": 57,
                    "name": "A3",
                    "ticks": 86340,
                    "time": 279.21395450000006,
                    "velocity": 1
                },
                {
                    "duration": 0.21428550000001678,
                    "durationTicks": 60,
                    "midi": 64,
                    "name": "E4",
                    "ticks": 86400,
                    "time": 279.42824,
                    "velocity": 1
                },
                {
                    "duration": 0.21428550000001678,
                    "durationTicks": 60,
                    "midi": 62,
                    "name": "D4",
                    "ticks": 86460,
                    "time": 279.64252550000003,
                    "velocity": 1
                },
                {
                    "duration": 0.21428549999995994,
                    "durationTicks": 60,
                    "midi": 59,
                    "name": "B3",
                    "ticks": 86520,
                    "time": 279.85681100000005,
                    "velocity": 1
                },
                {
                    "duration": 0.21428550000001678,
                    "durationTicks": 60,
                    "midi": 62,
                    "name": "D4",
                    "ticks": 86580,
                    "time": 280.0710965,
                    "velocity": 1
                },
                {
                    "duration": 0.21428550000001678,
                    "durationTicks": 60,
                    "midi": 59,
                    "name": "B3",
                    "ticks": 86640,
                    "time": 280.285382,
                    "velocity": 1
                },
                {
                    "duration": 0.21428550000001678,
                    "durationTicks": 60,
                    "midi": 58,
                    "name": "A#3",
                    "ticks": 86700,
                    "time": 280.49966750000004,
                    "velocity": 1
                },
                {
                    "duration": 0.21428549999995994,
                    "durationTicks": 60,
                    "midi": 57,
                    "name": "A3",
                    "ticks": 86760,
                    "time": 280.71395300000006,
                    "velocity": 1
                },
                {
                    "duration": 0.21428550000001678,
                    "durationTicks": 60,
                    "midi": 55,
                    "name": "G3",
                    "ticks": 86820,
                    "time": 280.9282385,
                    "velocity": 1
                },
                {
                    "duration": 0.21428550000001678,
                    "durationTicks": 60,
                    "midi": 40,
                    "name": "E2",
                    "ticks": 86880,
                    "time": 281.14252400000004,
                    "velocity": 1
                },
                {
                    "duration": 0.21428549999995994,
                    "durationTicks": 60,
                    "midi": 40,
                    "name": "E2",
                    "ticks": 86940,
                    "time": 281.35680950000005,
                    "velocity": 1
                },
                {
                    "duration": 0.21428550000001678,
                    "durationTicks": 60,
                    "midi": 40,
                    "name": "E2",
                    "ticks": 87000,
                    "time": 281.571095,
                    "velocity": 1
                },
                {
                    "duration": 0.21428550000001678,
                    "durationTicks": 60,
                    "midi": 40,
                    "name": "E2",
                    "ticks": 87060,
                    "time": 281.78538050000003,
                    "velocity": 1
                },
                {
                    "duration": 0.21428549999995994,
                    "durationTicks": 60,
                    "midi": 55,
                    "name": "G3",
                    "ticks": 87120,
                    "time": 281.99966600000005,
                    "velocity": 1
                },
                {
                    "duration": 0.21428549999995994,
                    "durationTicks": 60,
                    "midi": 50,
                    "name": "D3",
                    "ticks": 87120,
                    "time": 281.99966600000005,
                    "velocity": 1
                },
                {
                    "duration": 0.21428550000001678,
                    "durationTicks": 60,
                    "midi": 52,
                    "name": "E3",
                    "ticks": 87180,
                    "time": 282.2139515,
                    "velocity": 1
                },
                {
                    "duration": 0.21428550000001678,
                    "durationTicks": 60,
                    "midi": 57,
                    "name": "A3",
                    "ticks": 87180,
                    "time": 282.2139515,
                    "velocity": 1
                },
                {
                    "duration": 0.21428550000001678,
                    "durationTicks": 60,
                    "midi": 50,
                    "name": "D3",
                    "ticks": 87240,
                    "time": 282.428237,
                    "velocity": 1
                },
                {
                    "duration": 0.21428550000001678,
                    "durationTicks": 60,
                    "midi": 55,
                    "name": "G3",
                    "ticks": 87240,
                    "time": 282.428237,
                    "velocity": 1
                },
                {
                    "duration": 0.21428549999995994,
                    "durationTicks": 60,
                    "midi": 57,
                    "name": "A3",
                    "ticks": 87300,
                    "time": 282.64252250000004,
                    "velocity": 1
                },
                {
                    "duration": 0.21428549999995994,
                    "durationTicks": 60,
                    "midi": 52,
                    "name": "E3",
                    "ticks": 87300,
                    "time": 282.64252250000004,
                    "velocity": 1
                },
                {
                    "duration": 0.21428550000001678,
                    "durationTicks": 60,
                    "midi": 40,
                    "name": "E2",
                    "ticks": 87360,
                    "time": 282.856808,
                    "velocity": 1
                },
                {
                    "duration": 0.21428550000001678,
                    "durationTicks": 60,
                    "midi": 40,
                    "name": "E2",
                    "ticks": 87420,
                    "time": 283.0710935,
                    "velocity": 1
                },
                {
                    "duration": 0.21428550000001678,
                    "durationTicks": 60,
                    "midi": 40,
                    "name": "E2",
                    "ticks": 87480,
                    "time": 283.28537900000003,
                    "velocity": 1
                },
                {
                    "duration": 0.21428549999995994,
                    "durationTicks": 60,
                    "midi": 40,
                    "name": "E2",
                    "ticks": 87540,
                    "time": 283.49966450000005,
                    "velocity": 1
                },
                {
                    "duration": 0.21428550000001678,
                    "durationTicks": 60,
                    "midi": 52,
                    "name": "E3",
                    "ticks": 87600,
                    "time": 283.71395,
                    "velocity": 1
                },
                {
                    "duration": 0.21428550000001678,
                    "durationTicks": 60,
                    "midi": 50,
                    "name": "D3",
                    "ticks": 87660,
                    "time": 283.9282355,
                    "velocity": 1
                },
                {
                    "duration": 0.21428550000001678,
                    "durationTicks": 60,
                    "midi": 47,
                    "name": "B2",
                    "ticks": 87720,
                    "time": 284.14252100000004,
                    "velocity": 1
                },
                {
                    "duration": 0.21428549999995994,
                    "durationTicks": 60,
                    "midi": 46,
                    "name": "A#2",
                    "ticks": 87780,
                    "time": 284.35680650000006,
                    "velocity": 1
                },
                {
                    "duration": 0.21428550000001678,
                    "durationTicks": 60,
                    "midi": 40,
                    "name": "E2",
                    "ticks": 87840,
                    "time": 284.571092,
                    "velocity": 1
                },
                {
                    "duration": 0.21428550000001678,
                    "durationTicks": 60,
                    "midi": 40,
                    "name": "E2",
                    "ticks": 87900,
                    "time": 284.78537750000004,
                    "velocity": 1
                },
                {
                    "duration": 0.21428549999995994,
                    "durationTicks": 60,
                    "midi": 40,
                    "name": "E2",
                    "ticks": 87960,
                    "time": 284.99966300000006,
                    "velocity": 1
                },
                {
                    "duration": 0.21428550000001678,
                    "durationTicks": 60,
                    "midi": 40,
                    "name": "E2",
                    "ticks": 88020,
                    "time": 285.2139485,
                    "velocity": 1
                },
                {
                    "duration": 0.21428550000001678,
                    "durationTicks": 60,
                    "midi": 55,
                    "name": "G3",
                    "ticks": 88080,
                    "time": 285.42823400000003,
                    "velocity": 1
                },
                {
                    "duration": 0.21428550000001678,
                    "durationTicks": 60,
                    "midi": 50,
                    "name": "D3",
                    "ticks": 88080,
                    "time": 285.42823400000003,
                    "velocity": 1
                },
                {
                    "duration": 0.21428549999995994,
                    "durationTicks": 60,
                    "midi": 52,
                    "name": "E3",
                    "ticks": 88140,
                    "time": 285.64251950000005,
                    "velocity": 1
                },
                {
                    "duration": 0.21428549999995994,
                    "durationTicks": 60,
                    "midi": 57,
                    "name": "A3",
                    "ticks": 88140,
                    "time": 285.64251950000005,
                    "velocity": 1
                },
                {
                    "duration": 0.21428550000001678,
                    "durationTicks": 60,
                    "midi": 50,
                    "name": "D3",
                    "ticks": 88200,
                    "time": 285.856805,
                    "velocity": 1
                },
                {
                    "duration": 0.21428550000001678,
                    "durationTicks": 60,
                    "midi": 55,
                    "name": "G3",
                    "ticks": 88200,
                    "time": 285.856805,
                    "velocity": 1
                },
                {
                    "duration": 0.21428550000001678,
                    "durationTicks": 60,
                    "midi": 57,
                    "name": "A3",
                    "ticks": 88260,
                    "time": 286.0710905,
                    "velocity": 1
                },
                {
                    "duration": 0.21428550000001678,
                    "durationTicks": 60,
                    "midi": 52,
                    "name": "E3",
                    "ticks": 88260,
                    "time": 286.0710905,
                    "velocity": 1
                },
                {
                    "duration": 0.21428549999995994,
                    "durationTicks": 60,
                    "midi": 40,
                    "name": "E2",
                    "ticks": 88320,
                    "time": 286.28537600000004,
                    "velocity": 1
                },
                {
                    "duration": 0.21428550000001678,
                    "durationTicks": 60,
                    "midi": 40,
                    "name": "E2",
                    "ticks": 88380,
                    "time": 286.4996615,
                    "velocity": 1
                },
                {
                    "duration": 0.21428550000001678,
                    "durationTicks": 60,
                    "midi": 40,
                    "name": "E2",
                    "ticks": 88440,
                    "time": 286.713947,
                    "velocity": 1
                },
                {
                    "duration": 0.21428550000001678,
                    "durationTicks": 60,
                    "midi": 40,
                    "name": "E2",
                    "ticks": 88500,
                    "time": 286.92823250000004,
                    "velocity": 1
                },
                {
                    "duration": 0.21428549999995994,
                    "durationTicks": 60,
                    "midi": 52,
                    "name": "E3",
                    "ticks": 88560,
                    "time": 287.14251800000005,
                    "velocity": 1
                },
                {
                    "duration": 0.21428550000001678,
                    "durationTicks": 60,
                    "midi": 50,
                    "name": "D3",
                    "ticks": 88620,
                    "time": 287.3568035,
                    "velocity": 1
                },
                {
                    "duration": 0.21428550000001678,
                    "durationTicks": 60,
                    "midi": 47,
                    "name": "B2",
                    "ticks": 88680,
                    "time": 287.57108900000003,
                    "velocity": 1
                },
                {
                    "duration": 0.21428550000001678,
                    "durationTicks": 60,
                    "midi": 46,
                    "name": "A#2",
                    "ticks": 88740,
                    "time": 287.78537450000005,
                    "velocity": 1
                },
                {
                    "duration": 0.21428549999995994,
                    "durationTicks": 60,
                    "midi": 40,
                    "name": "E2",
                    "ticks": 88800,
                    "time": 287.99966000000006,
                    "velocity": 1
                },
                {
                    "duration": 0.21428550000001678,
                    "durationTicks": 60,
                    "midi": 40,
                    "name": "E2",
                    "ticks": 88860,
                    "time": 288.2139455,
                    "velocity": 1
                },
                {
                    "duration": 0.21428550000001678,
                    "durationTicks": 60,
                    "midi": 40,
                    "name": "E2",
                    "ticks": 88920,
                    "time": 288.42823100000004,
                    "velocity": 1
                },
                {
                    "duration": 0.21428549999995994,
                    "durationTicks": 60,
                    "midi": 40,
                    "name": "E2",
                    "ticks": 88980,
                    "time": 288.64251650000006,
                    "velocity": 1
                },
                {
                    "duration": 0.21428550000001678,
                    "durationTicks": 60,
                    "midi": 55,
                    "name": "G3",
                    "ticks": 89040,
                    "time": 288.856802,
                    "velocity": 1
                },
                {
                    "duration": 0.21428550000001678,
                    "durationTicks": 60,
                    "midi": 50,
                    "name": "D3",
                    "ticks": 89040,
                    "time": 288.856802,
                    "velocity": 1
                },
                {
                    "duration": 0.21428550000001678,
                    "durationTicks": 60,
                    "midi": 52,
                    "name": "E3",
                    "ticks": 89100,
                    "time": 289.07108750000003,
                    "velocity": 1
                },
                {
                    "duration": 0.21428550000001678,
                    "durationTicks": 60,
                    "midi": 57,
                    "name": "A3",
                    "ticks": 89100,
                    "time": 289.07108750000003,
                    "velocity": 1
                },
                {
                    "duration": 0.21428549999995994,
                    "durationTicks": 60,
                    "midi": 50,
                    "name": "D3",
                    "ticks": 89160,
                    "time": 289.28537300000005,
                    "velocity": 1
                },
                {
                    "duration": 0.21428549999995994,
                    "durationTicks": 60,
                    "midi": 55,
                    "name": "G3",
                    "ticks": 89160,
                    "time": 289.28537300000005,
                    "velocity": 1
                },
                {
                    "duration": 0.21428550000001678,
                    "durationTicks": 60,
                    "midi": 57,
                    "name": "A3",
                    "ticks": 89220,
                    "time": 289.4996585,
                    "velocity": 1
                },
                {
                    "duration": 0.21428550000001678,
                    "durationTicks": 60,
                    "midi": 52,
                    "name": "E3",
                    "ticks": 89220,
                    "time": 289.4996585,
                    "velocity": 1
                },
                {
                    "duration": 0.21428550000001678,
                    "durationTicks": 60,
                    "midi": 40,
                    "name": "E2",
                    "ticks": 89280,
                    "time": 289.713944,
                    "velocity": 1
                },
                {
                    "duration": 0.21428549999995994,
                    "durationTicks": 60,
                    "midi": 40,
                    "name": "E2",
                    "ticks": 89340,
                    "time": 289.92822950000004,
                    "velocity": 1
                },
                {
                    "duration": 0.21428550000001678,
                    "durationTicks": 60,
                    "midi": 40,
                    "name": "E2",
                    "ticks": 89400,
                    "time": 290.142515,
                    "velocity": 1
                },
                {
                    "duration": 0.21428550000001678,
                    "durationTicks": 60,
                    "midi": 40,
                    "name": "E2",
                    "ticks": 89460,
                    "time": 290.3568005,
                    "velocity": 1
                },
                {
                    "duration": 0.21428550000001678,
                    "durationTicks": 60,
                    "midi": 52,
                    "name": "E3",
                    "ticks": 89520,
                    "time": 290.57108600000004,
                    "velocity": 1
                },
                {
                    "duration": 0.21428549999995994,
                    "durationTicks": 60,
                    "midi": 50,
                    "name": "D3",
                    "ticks": 89580,
                    "time": 290.78537150000005,
                    "velocity": 1
                },
                {
                    "duration": 0.21428550000001678,
                    "durationTicks": 60,
                    "midi": 47,
                    "name": "B2",
                    "ticks": 89640,
                    "time": 290.999657,
                    "velocity": 1
                },
                {
                    "duration": 0.21428550000001678,
                    "durationTicks": 60,
                    "midi": 46,
                    "name": "A#2",
                    "ticks": 89700,
                    "time": 291.21394250000003,
                    "velocity": 1
                },
                {
                    "duration": 0.21428550000001678,
                    "durationTicks": 60,
                    "midi": 40,
                    "name": "E2",
                    "ticks": 89760,
                    "time": 291.42822800000005,
                    "velocity": 1
                },
                {
                    "duration": 0.21428549999995994,
                    "durationTicks": 60,
                    "midi": 40,
                    "name": "E2",
                    "ticks": 89820,
                    "time": 291.64251350000006,
                    "velocity": 1
                },
                {
                    "duration": 0.21428550000001678,
                    "durationTicks": 60,
                    "midi": 40,
                    "name": "E2",
                    "ticks": 89880,
                    "time": 291.856799,
                    "velocity": 1
                },
                {
                    "duration": 0.21428550000001678,
                    "durationTicks": 60,
                    "midi": 40,
                    "name": "E2",
                    "ticks": 89940,
                    "time": 292.07108450000004,
                    "velocity": 1
                },
                {
                    "duration": 0.21428549999995994,
                    "durationTicks": 60,
                    "midi": 55,
                    "name": "G3",
                    "ticks": 90000,
                    "time": 292.28537000000006,
                    "velocity": 1
                },
                {
                    "duration": 0.21428549999995994,
                    "durationTicks": 60,
                    "midi": 50,
                    "name": "D3",
                    "ticks": 90000,
                    "time": 292.28537000000006,
                    "velocity": 1
                },
                {
                    "duration": 0.21428550000001678,
                    "durationTicks": 60,
                    "midi": 52,
                    "name": "E3",
                    "ticks": 90060,
                    "time": 292.4996555,
                    "velocity": 1
                },
                {
                    "duration": 0.21428550000001678,
                    "durationTicks": 60,
                    "midi": 57,
                    "name": "A3",
                    "ticks": 90060,
                    "time": 292.4996555,
                    "velocity": 1
                },
                {
                    "duration": 0.21428550000001678,
                    "durationTicks": 60,
                    "midi": 50,
                    "name": "D3",
                    "ticks": 90120,
                    "time": 292.71394100000003,
                    "velocity": 1
                },
                {
                    "duration": 0.21428550000001678,
                    "durationTicks": 60,
                    "midi": 55,
                    "name": "G3",
                    "ticks": 90120,
                    "time": 292.71394100000003,
                    "velocity": 1
                },
                {
                    "duration": 0.21428549999995994,
                    "durationTicks": 60,
                    "midi": 57,
                    "name": "A3",
                    "ticks": 90180,
                    "time": 292.92822650000005,
                    "velocity": 1
                },
                {
                    "duration": 0.21428549999995994,
                    "durationTicks": 60,
                    "midi": 52,
                    "name": "E3",
                    "ticks": 90180,
                    "time": 292.92822650000005,
                    "velocity": 1
                },
                {
                    "duration": 0.21428550000001678,
                    "durationTicks": 60,
                    "midi": 40,
                    "name": "E2",
                    "ticks": 90240,
                    "time": 293.142512,
                    "velocity": 1
                },
                {
                    "duration": 0.21428550000001678,
                    "durationTicks": 60,
                    "midi": 40,
                    "name": "E2",
                    "ticks": 90300,
                    "time": 293.3567975,
                    "velocity": 1
                },
                {
                    "duration": 0.21428549999995994,
                    "durationTicks": 60,
                    "midi": 40,
                    "name": "E2",
                    "ticks": 90360,
                    "time": 293.57108300000004,
                    "velocity": 1
                },
                {
                    "duration": 0.21428550000001678,
                    "durationTicks": 60,
                    "midi": 40,
                    "name": "E2",
                    "ticks": 90420,
                    "time": 293.7853685,
                    "velocity": 1
                },
                {
                    "duration": 0.21428550000001678,
                    "durationTicks": 60,
                    "midi": 52,
                    "name": "E3",
                    "ticks": 90480,
                    "time": 293.999654,
                    "velocity": 1
                },
                {
                    "duration": 0.21428550000001678,
                    "durationTicks": 60,
                    "midi": 50,
                    "name": "D3",
                    "ticks": 90540,
                    "time": 294.21393950000004,
                    "velocity": 1
                },
                {
                    "duration": 0.21428549999995994,
                    "durationTicks": 60,
                    "midi": 47,
                    "name": "B2",
                    "ticks": 90600,
                    "time": 294.42822500000005,
                    "velocity": 1
                },
                {
                    "duration": 0.21428550000001678,
                    "durationTicks": 60,
                    "midi": 46,
                    "name": "A#2",
                    "ticks": 90660,
                    "time": 294.6425105,
                    "velocity": 1
                },
                {
                    "duration": 0.21428550000001678,
                    "durationTicks": 60,
                    "midi": 40,
                    "name": "E2",
                    "ticks": 90720,
                    "time": 294.85679600000003,
                    "velocity": 1
                },
                {
                    "duration": 0.21428549999995994,
                    "durationTicks": 60,
                    "midi": 40,
                    "name": "E2",
                    "ticks": 90780,
                    "time": 295.07108150000005,
                    "velocity": 1
                },
                {
                    "duration": 0.21428550000001678,
                    "durationTicks": 60,
                    "midi": 40,
                    "name": "E2",
                    "ticks": 90840,
                    "time": 295.285367,
                    "velocity": 1
                },
                {
                    "duration": 0.21428550000001678,
                    "durationTicks": 60,
                    "midi": 40,
                    "name": "E2",
                    "ticks": 90900,
                    "time": 295.4996525,
                    "velocity": 1
                },
                {
                    "duration": 0.21428550000001678,
                    "durationTicks": 60,
                    "midi": 40,
                    "name": "E2",
                    "ticks": 90960,
                    "time": 295.71393800000004,
                    "velocity": 1
                },
                {
                    "duration": 0.21428549999995994,
                    "durationTicks": 60,
                    "midi": 40,
                    "name": "E2",
                    "ticks": 91020,
                    "time": 295.92822350000006,
                    "velocity": 1
                },
                {
                    "duration": 0.21428550000001678,
                    "durationTicks": 60,
                    "midi": 40,
                    "name": "E2",
                    "ticks": 91080,
                    "time": 296.142509,
                    "velocity": 1
                },
                {
                    "duration": 0.21428550000001678,
                    "durationTicks": 60,
                    "midi": 40,
                    "name": "E2",
                    "ticks": 91140,
                    "time": 296.35679450000003,
                    "velocity": 1
                },
                {
                    "duration": 0.21428549999995994,
                    "durationTicks": 60,
                    "midi": 40,
                    "name": "E2",
                    "ticks": 91200,
                    "time": 296.57108000000005,
                    "velocity": 1
                },
                {
                    "duration": 0.21428550000001678,
                    "durationTicks": 60,
                    "midi": 40,
                    "name": "E2",
                    "ticks": 91260,
                    "time": 296.7853655,
                    "velocity": 1
                },
                {
                    "duration": 0.21428550000001678,
                    "durationTicks": 60,
                    "midi": 40,
                    "name": "E2",
                    "ticks": 91320,
                    "time": 296.99965100000003,
                    "velocity": 1
                },
                {
                    "duration": 0.21428549999995994,
                    "durationTicks": 60,
                    "midi": 40,
                    "name": "E2",
                    "ticks": 91380,
                    "time": 297.21393650000005,
                    "velocity": 1
                },
                {
                    "duration": 0.21428550000001678,
                    "durationTicks": 60,
                    "midi": 47,
                    "name": "B2",
                    "ticks": 91440,
                    "time": 297.428222,
                    "velocity": 1
                },
                {
                    "duration": 0.21428550000001678,
                    "durationTicks": 60,
                    "midi": 46,
                    "name": "A#2",
                    "ticks": 91500,
                    "time": 297.6425075,
                    "velocity": 1
                },
                {
                    "duration": 0.21428550000001678,
                    "durationTicks": 60,
                    "midi": 55,
                    "name": "G3",
                    "ticks": 91560,
                    "time": 297.85679300000004,
                    "velocity": 1
                },
                {
                    "duration": 0.21428549999995994,
                    "durationTicks": 60,
                    "midi": 52,
                    "name": "E3",
                    "ticks": 91620,
                    "time": 298.07107850000006,
                    "velocity": 1
                },
                {
                    "duration": 0.21428550000001678,
                    "durationTicks": 60,
                    "midi": 40,
                    "name": "E2",
                    "ticks": 91680,
                    "time": 298.285364,
                    "velocity": 1
                },
                {
                    "duration": 0.21428550000001678,
                    "durationTicks": 60,
                    "midi": 40,
                    "name": "E2",
                    "ticks": 91740,
                    "time": 298.49964950000003,
                    "velocity": 1
                },
                {
                    "duration": 0.21428549999995994,
                    "durationTicks": 60,
                    "midi": 40,
                    "name": "E2",
                    "ticks": 91800,
                    "time": 298.71393500000005,
                    "velocity": 1
                },
                {
                    "duration": 0.21428550000001678,
                    "durationTicks": 60,
                    "midi": 40,
                    "name": "E2",
                    "ticks": 91860,
                    "time": 298.9282205,
                    "velocity": 1
                },
                {
                    "duration": 0.21428550000001678,
                    "durationTicks": 60,
                    "midi": 40,
                    "name": "E2",
                    "ticks": 91920,
                    "time": 299.142506,
                    "velocity": 1
                },
                {
                    "duration": 0.21428550000001678,
                    "durationTicks": 60,
                    "midi": 40,
                    "name": "E2",
                    "ticks": 91980,
                    "time": 299.35679150000004,
                    "velocity": 1
                },
                {
                    "duration": 0.21428549999995994,
                    "durationTicks": 60,
                    "midi": 40,
                    "name": "E2",
                    "ticks": 92040,
                    "time": 299.57107700000006,
                    "velocity": 1
                },
                {
                    "duration": 0.21428550000001678,
                    "durationTicks": 60,
                    "midi": 40,
                    "name": "E2",
                    "ticks": 92100,
                    "time": 299.7853625,
                    "velocity": 1
                },
                {
                    "duration": 0.21428550000001678,
                    "durationTicks": 60,
                    "midi": 40,
                    "name": "E2",
                    "ticks": 92160,
                    "time": 299.99964800000004,
                    "velocity": 1
                },
                {
                    "duration": 0.21428549999995994,
                    "durationTicks": 60,
                    "midi": 40,
                    "name": "E2",
                    "ticks": 92220,
                    "time": 300.21393350000005,
                    "velocity": 1
                },
                {
                    "duration": 0.21428550000001678,
                    "durationTicks": 60,
                    "midi": 40,
                    "name": "E2",
                    "ticks": 92280,
                    "time": 300.428219,
                    "velocity": 1
                },
                {
                    "duration": 0.21428550000001678,
                    "durationTicks": 60,
                    "midi": 40,
                    "name": "E2",
                    "ticks": 92340,
                    "time": 300.64250450000003,
                    "velocity": 1
                },
                {
                    "duration": 0.21428549999995994,
                    "durationTicks": 60,
                    "midi": 47,
                    "name": "B2",
                    "ticks": 92400,
                    "time": 300.85679000000005,
                    "velocity": 1
                },
                {
                    "duration": 0.21428550000001678,
                    "durationTicks": 60,
                    "midi": 46,
                    "name": "A#2",
                    "ticks": 92460,
                    "time": 301.0710755,
                    "velocity": 1
                },
                {
                    "duration": 0.21428550000001678,
                    "durationTicks": 60,
                    "midi": 55,
                    "name": "G3",
                    "ticks": 92520,
                    "time": 301.285361,
                    "velocity": 1
                },
                {
                    "duration": 0.21428550000001678,
                    "durationTicks": 60,
                    "midi": 52,
                    "name": "E3",
                    "ticks": 92580,
                    "time": 301.49964650000004,
                    "velocity": 1
                },
                {
                    "duration": 0.21428549999995994,
                    "durationTicks": 60,
                    "midi": 40,
                    "name": "E2",
                    "ticks": 92640,
                    "time": 301.71393200000006,
                    "velocity": 1
                },
                {
                    "duration": 0.21428550000001678,
                    "durationTicks": 60,
                    "midi": 40,
                    "name": "E2",
                    "ticks": 92700,
                    "time": 301.9282175,
                    "velocity": 1
                },
                {
                    "duration": 0.21428550000001678,
                    "durationTicks": 60,
                    "midi": 40,
                    "name": "E2",
                    "ticks": 92760,
                    "time": 302.14250300000003,
                    "velocity": 1
                },
                {
                    "duration": 0.21428549999995994,
                    "durationTicks": 60,
                    "midi": 40,
                    "name": "E2",
                    "ticks": 92820,
                    "time": 302.35678850000005,
                    "velocity": 1
                },
                {
                    "duration": 0.21428550000001678,
                    "durationTicks": 60,
                    "midi": 40,
                    "name": "E2",
                    "ticks": 92880,
                    "time": 302.571074,
                    "velocity": 1
                },
                {
                    "duration": 0.21428550000001678,
                    "durationTicks": 60,
                    "midi": 40,
                    "name": "E2",
                    "ticks": 92940,
                    "time": 302.7853595,
                    "velocity": 1
                },
                {
                    "duration": 0.21428550000001678,
                    "durationTicks": 60,
                    "midi": 40,
                    "name": "E2",
                    "ticks": 93000,
                    "time": 302.99964500000004,
                    "velocity": 1
                },
                {
                    "duration": 0.21428549999995994,
                    "durationTicks": 60,
                    "midi": 40,
                    "name": "E2",
                    "ticks": 93060,
                    "time": 303.21393050000006,
                    "velocity": 1
                },
                {
                    "duration": 0.21428550000001678,
                    "durationTicks": 60,
                    "midi": 40,
                    "name": "E2",
                    "ticks": 93120,
                    "time": 303.428216,
                    "velocity": 1
                },
                {
                    "duration": 0.21428550000001678,
                    "durationTicks": 60,
                    "midi": 40,
                    "name": "E2",
                    "ticks": 93180,
                    "time": 303.64250150000004,
                    "velocity": 1
                },
                {
                    "duration": 0.21428549999995994,
                    "durationTicks": 60,
                    "midi": 40,
                    "name": "E2",
                    "ticks": 93240,
                    "time": 303.85678700000005,
                    "velocity": 1
                },
                {
                    "duration": 0.21428550000001678,
                    "durationTicks": 60,
                    "midi": 40,
                    "name": "E2",
                    "ticks": 93300,
                    "time": 304.0710725,
                    "velocity": 1
                },
                {
                    "duration": 0.21428550000001678,
                    "durationTicks": 60,
                    "midi": 47,
                    "name": "B2",
                    "ticks": 93360,
                    "time": 304.28535800000003,
                    "velocity": 1
                },
                {
                    "duration": 0.21428549999995994,
                    "durationTicks": 60,
                    "midi": 46,
                    "name": "A#2",
                    "ticks": 93420,
                    "time": 304.49964350000005,
                    "velocity": 1
                },
                {
                    "duration": 0.21428550000001678,
                    "durationTicks": 60,
                    "midi": 55,
                    "name": "G3",
                    "ticks": 93480,
                    "time": 304.713929,
                    "velocity": 1
                },
                {
                    "duration": 0.21428550000001678,
                    "durationTicks": 60,
                    "midi": 52,
                    "name": "E3",
                    "ticks": 93540,
                    "time": 304.9282145,
                    "velocity": 1
                },
                {
                    "duration": 0.21428550000001678,
                    "durationTicks": 60,
                    "midi": 40,
                    "name": "E2",
                    "ticks": 93600,
                    "time": 305.14250000000004,
                    "velocity": 1
                },
                {
                    "duration": 0.21428549999995994,
                    "durationTicks": 60,
                    "midi": 40,
                    "name": "E2",
                    "ticks": 93660,
                    "time": 305.35678550000006,
                    "velocity": 1
                },
                {
                    "duration": 0.21428550000001678,
                    "durationTicks": 60,
                    "midi": 40,
                    "name": "E2",
                    "ticks": 93720,
                    "time": 305.571071,
                    "velocity": 1
                },
                {
                    "duration": 0.21428550000001678,
                    "durationTicks": 60,
                    "midi": 40,
                    "name": "E2",
                    "ticks": 93780,
                    "time": 305.78535650000003,
                    "velocity": 1
                },
                {
                    "duration": 0.21428549999995994,
                    "durationTicks": 60,
                    "midi": 40,
                    "name": "E2",
                    "ticks": 93840,
                    "time": 305.99964200000005,
                    "velocity": 1
                },
                {
                    "duration": 0.21428550000001678,
                    "durationTicks": 60,
                    "midi": 40,
                    "name": "E2",
                    "ticks": 93900,
                    "time": 306.2139275,
                    "velocity": 1
                },
                {
                    "duration": 0.21428550000001678,
                    "durationTicks": 60,
                    "midi": 40,
                    "name": "E2",
                    "ticks": 93960,
                    "time": 306.428213,
                    "velocity": 1
                },
                {
                    "duration": 0.21428550000001678,
                    "durationTicks": 60,
                    "midi": 40,
                    "name": "E2",
                    "ticks": 94020,
                    "time": 306.64249850000004,
                    "velocity": 1
                },
                {
                    "duration": 0.21428549999995994,
                    "durationTicks": 60,
                    "midi": 40,
                    "name": "E2",
                    "ticks": 94080,
                    "time": 306.85678400000006,
                    "velocity": 1
                },
                {
                    "duration": 0.21428550000001678,
                    "durationTicks": 60,
                    "midi": 40,
                    "name": "E2",
                    "ticks": 94140,
                    "time": 307.0710695,
                    "velocity": 1
                },
                {
                    "duration": 0.21428550000001678,
                    "durationTicks": 60,
                    "midi": 40,
                    "name": "E2",
                    "ticks": 94200,
                    "time": 307.28535500000004,
                    "velocity": 1
                },
                {
                    "duration": 0.21428549999995994,
                    "durationTicks": 60,
                    "midi": 40,
                    "name": "E2",
                    "ticks": 94260,
                    "time": 307.49964050000005,
                    "velocity": 1
                },
                {
                    "duration": 0.21428550000001678,
                    "durationTicks": 60,
                    "midi": 47,
                    "name": "B2",
                    "ticks": 94320,
                    "time": 307.713926,
                    "velocity": 1
                },
                {
                    "duration": 0.21428550000001678,
                    "durationTicks": 60,
                    "midi": 46,
                    "name": "A#2",
                    "ticks": 94380,
                    "time": 307.92821150000003,
                    "velocity": 1
                },
                {
                    "duration": 0.21428549999995994,
                    "durationTicks": 60,
                    "midi": 55,
                    "name": "G3",
                    "ticks": 94440,
                    "time": 308.14249700000005,
                    "velocity": 1
                },
                {
                    "duration": 0.21428550000001678,
                    "durationTicks": 60,
                    "midi": 52,
                    "name": "E3",
                    "ticks": 94500,
                    "time": 308.3567825,
                    "velocity": 1
                },
                {
                    "duration": 0.21428550000001678,
                    "durationTicks": 60,
                    "midi": 60,
                    "name": "C4",
                    "ticks": 94560,
                    "time": 308.571068,
                    "velocity": 1
                },
                {
                    "duration": 0.21428550000001678,
                    "durationTicks": 60,
                    "midi": 55,
                    "name": "G3",
                    "ticks": 94560,
                    "time": 308.571068,
                    "velocity": 1
                },
                {
                    "duration": 0.21428549999995994,
                    "durationTicks": 60,
                    "midi": 40,
                    "name": "E2",
                    "ticks": 94620,
                    "time": 308.78535350000004,
                    "velocity": 1
                },
                {
                    "duration": 0.21428550000001678,
                    "durationTicks": 60,
                    "midi": 40,
                    "name": "E2",
                    "ticks": 94680,
                    "time": 308.999639,
                    "velocity": 1
                },
                {
                    "duration": 0.21428550000001678,
                    "durationTicks": 60,
                    "midi": 40,
                    "name": "E2",
                    "ticks": 94740,
                    "time": 309.2139245,
                    "velocity": 1
                },
                {
                    "duration": 0.21428550000001678,
                    "durationTicks": 60,
                    "midi": 55,
                    "name": "G3",
                    "ticks": 94800,
                    "time": 309.42821000000004,
                    "velocity": 1
                },
                {
                    "duration": 0.21428550000001678,
                    "durationTicks": 60,
                    "midi": 60,
                    "name": "C4",
                    "ticks": 94800,
                    "time": 309.42821000000004,
                    "velocity": 1
                },
                {
                    "duration": 0.21428549999995994,
                    "durationTicks": 60,
                    "midi": 62,
                    "name": "D4",
                    "ticks": 94860,
                    "time": 309.64249550000005,
                    "velocity": 1
                },
                {
                    "duration": 0.21428549999995994,
                    "durationTicks": 60,
                    "midi": 57,
                    "name": "A3",
                    "ticks": 94860,
                    "time": 309.64249550000005,
                    "velocity": 1
                },
                {
                    "duration": 0.42857100000003356,
                    "durationTicks": 120,
                    "midi": 55,
                    "name": "G3",
                    "ticks": 94920,
                    "time": 309.856781,
                    "velocity": 1
                },
                {
                    "duration": 0.42857100000003356,
                    "durationTicks": 120,
                    "midi": 60,
                    "name": "C4",
                    "ticks": 94920,
                    "time": 309.856781,
                    "velocity": 1
                },
                {
                    "duration": 0.21428550000001678,
                    "durationTicks": 60,
                    "midi": 60,
                    "name": "C4",
                    "ticks": 95040,
                    "time": 310.28535200000005,
                    "velocity": 1
                },
                {
                    "duration": 0.21428550000001678,
                    "durationTicks": 60,
                    "midi": 55,
                    "name": "G3",
                    "ticks": 95040,
                    "time": 310.28535200000005,
                    "velocity": 1
                },
                {
                    "duration": 0.21428549999995994,
                    "durationTicks": 60,
                    "midi": 40,
                    "name": "E2",
                    "ticks": 95100,
                    "time": 310.49963750000006,
                    "velocity": 1
                },
                {
                    "duration": 0.21428550000001678,
                    "durationTicks": 60,
                    "midi": 40,
                    "name": "E2",
                    "ticks": 95160,
                    "time": 310.713923,
                    "velocity": 1
                },
                {
                    "duration": 0.21428550000001678,
                    "durationTicks": 60,
                    "midi": 40,
                    "name": "E2",
                    "ticks": 95220,
                    "time": 310.92820850000004,
                    "velocity": 1
                },
                {
                    "duration": 0.21428549999995994,
                    "durationTicks": 60,
                    "midi": 55,
                    "name": "G3",
                    "ticks": 95280,
                    "time": 311.14249400000006,
                    "velocity": 1
                },
                {
                    "duration": 0.21428549999995994,
                    "durationTicks": 60,
                    "midi": 60,
                    "name": "C4",
                    "ticks": 95280,
                    "time": 311.14249400000006,
                    "velocity": 1
                },
                {
                    "duration": 0.21428550000001678,
                    "durationTicks": 60,
                    "midi": 62,
                    "name": "D4",
                    "ticks": 95340,
                    "time": 311.3567795,
                    "velocity": 1
                },
                {
                    "duration": 0.21428550000001678,
                    "durationTicks": 60,
                    "midi": 57,
                    "name": "A3",
                    "ticks": 95340,
                    "time": 311.3567795,
                    "velocity": 1
                },
                {
                    "duration": 0.4285709999999767,
                    "durationTicks": 120,
                    "midi": 55,
                    "name": "G3",
                    "ticks": 95400,
                    "time": 311.57106500000003,
                    "velocity": 1
                },
                {
                    "duration": 0.4285709999999767,
                    "durationTicks": 120,
                    "midi": 60,
                    "name": "C4",
                    "ticks": 95400,
                    "time": 311.57106500000003,
                    "velocity": 1
                },
                {
                    "duration": 0.21428550000001678,
                    "durationTicks": 60,
                    "midi": 60,
                    "name": "C4",
                    "ticks": 95520,
                    "time": 311.999636,
                    "velocity": 1
                },
                {
                    "duration": 0.21428550000001678,
                    "durationTicks": 60,
                    "midi": 55,
                    "name": "G3",
                    "ticks": 95520,
                    "time": 311.999636,
                    "velocity": 1
                },
                {
                    "duration": 0.21428550000001678,
                    "durationTicks": 60,
                    "midi": 40,
                    "name": "E2",
                    "ticks": 95580,
                    "time": 312.2139215,
                    "velocity": 1
                },
                {
                    "duration": 0.21428549999995994,
                    "durationTicks": 60,
                    "midi": 40,
                    "name": "E2",
                    "ticks": 95640,
                    "time": 312.42820700000004,
                    "velocity": 1
                },
                {
                    "duration": 0.21428550000001678,
                    "durationTicks": 60,
                    "midi": 40,
                    "name": "E2",
                    "ticks": 95700,
                    "time": 312.6424925,
                    "velocity": 1
                },
                {
                    "duration": 0.21428550000001678,
                    "durationTicks": 60,
                    "midi": 55,
                    "name": "G3",
                    "ticks": 95760,
                    "time": 312.856778,
                    "velocity": 1
                },
                {
                    "duration": 0.21428550000001678,
                    "durationTicks": 60,
                    "midi": 60,
                    "name": "C4",
                    "ticks": 95760,
                    "time": 312.856778,
                    "velocity": 1
                },
                {
                    "duration": 0.21428550000001678,
                    "durationTicks": 60,
                    "midi": 62,
                    "name": "D4",
                    "ticks": 95820,
                    "time": 313.07106350000004,
                    "velocity": 1
                },
                {
                    "duration": 0.21428550000001678,
                    "durationTicks": 60,
                    "midi": 57,
                    "name": "A3",
                    "ticks": 95820,
                    "time": 313.07106350000004,
                    "velocity": 1
                },
                {
                    "duration": 0.4285709999999767,
                    "durationTicks": 120,
                    "midi": 55,
                    "name": "G3",
                    "ticks": 95880,
                    "time": 313.28534900000005,
                    "velocity": 1
                },
                {
                    "duration": 0.4285709999999767,
                    "durationTicks": 120,
                    "midi": 60,
                    "name": "C4",
                    "ticks": 95880,
                    "time": 313.28534900000005,
                    "velocity": 1
                },
                {
                    "duration": 0.21428550000001678,
                    "durationTicks": 60,
                    "midi": 62,
                    "name": "D4",
                    "ticks": 96000,
                    "time": 313.71392000000003,
                    "velocity": 1
                },
                {
                    "duration": 0.21428550000001678,
                    "durationTicks": 60,
                    "midi": 60,
                    "name": "C4",
                    "ticks": 96060,
                    "time": 313.92820550000005,
                    "velocity": 1
                },
                {
                    "duration": 0.21428549999995994,
                    "durationTicks": 60,
                    "midi": 57,
                    "name": "A3",
                    "ticks": 96120,
                    "time": 314.14249100000006,
                    "velocity": 1
                },
                {
                    "duration": 0.21428550000001678,
                    "durationTicks": 60,
                    "midi": 56,
                    "name": "G#3",
                    "ticks": 96180,
                    "time": 314.3567765,
                    "velocity": 1
                },
                {
                    "duration": 0.21428550000001678,
                    "durationTicks": 60,
                    "midi": 55,
                    "name": "G3",
                    "ticks": 96240,
                    "time": 314.57106200000004,
                    "velocity": 1
                },
                {
                    "duration": 0.21428549999995994,
                    "durationTicks": 60,
                    "midi": 52,
                    "name": "E3",
                    "ticks": 96300,
                    "time": 314.78534750000006,
                    "velocity": 1
                },
                {
                    "duration": 0.21428550000001678,
                    "durationTicks": 60,
                    "midi": 51,
                    "name": "D#3",
                    "ticks": 96360,
                    "time": 314.999633,
                    "velocity": 1
                },
                {
                    "duration": 0.21428550000001678,
                    "durationTicks": 60,
                    "midi": 50,
                    "name": "D3",
                    "ticks": 96420,
                    "time": 315.21391850000003,
                    "velocity": 1
                },
                {
                    "duration": 0.21428549999995994,
                    "durationTicks": 60,
                    "midi": 60,
                    "name": "C4",
                    "ticks": 96480,
                    "time": 315.42820400000005,
                    "velocity": 1
                },
                {
                    "duration": 0.21428549999995994,
                    "durationTicks": 60,
                    "midi": 55,
                    "name": "G3",
                    "ticks": 96480,
                    "time": 315.42820400000005,
                    "velocity": 1
                },
                {
                    "duration": 0.21428550000001678,
                    "durationTicks": 60,
                    "midi": 40,
                    "name": "E2",
                    "ticks": 96540,
                    "time": 315.6424895,
                    "velocity": 1
                },
                {
                    "duration": 0.21428550000001678,
                    "durationTicks": 60,
                    "midi": 40,
                    "name": "E2",
                    "ticks": 96600,
                    "time": 315.856775,
                    "velocity": 1
                },
                {
                    "duration": 0.21428549999995994,
                    "durationTicks": 60,
                    "midi": 40,
                    "name": "E2",
                    "ticks": 96660,
                    "time": 316.07106050000004,
                    "velocity": 1
                },
                {
                    "duration": 0.21428550000001678,
                    "durationTicks": 60,
                    "midi": 55,
                    "name": "G3",
                    "ticks": 96720,
                    "time": 316.285346,
                    "velocity": 1
                },
                {
                    "duration": 0.21428550000001678,
                    "durationTicks": 60,
                    "midi": 60,
                    "name": "C4",
                    "ticks": 96720,
                    "time": 316.285346,
                    "velocity": 1
                },
                {
                    "duration": 0.21428550000001678,
                    "durationTicks": 60,
                    "midi": 62,
                    "name": "D4",
                    "ticks": 96780,
                    "time": 316.4996315,
                    "velocity": 1
                },
                {
                    "duration": 0.21428550000001678,
                    "durationTicks": 60,
                    "midi": 57,
                    "name": "A3",
                    "ticks": 96780,
                    "time": 316.4996315,
                    "velocity": 1
                },
                {
                    "duration": 0.4285709999999767,
                    "durationTicks": 120,
                    "midi": 55,
                    "name": "G3",
                    "ticks": 96840,
                    "time": 316.71391700000004,
                    "velocity": 1
                },
                {
                    "duration": 0.4285709999999767,
                    "durationTicks": 120,
                    "midi": 60,
                    "name": "C4",
                    "ticks": 96840,
                    "time": 316.71391700000004,
                    "velocity": 1
                },
                {
                    "duration": 0.21428550000001678,
                    "durationTicks": 60,
                    "midi": 60,
                    "name": "C4",
                    "ticks": 96960,
                    "time": 317.142488,
                    "velocity": 1
                },
                {
                    "duration": 0.21428550000001678,
                    "durationTicks": 60,
                    "midi": 55,
                    "name": "G3",
                    "ticks": 96960,
                    "time": 317.142488,
                    "velocity": 1
                },
                {
                    "duration": 0.21428550000001678,
                    "durationTicks": 60,
                    "midi": 40,
                    "name": "E2",
                    "ticks": 97020,
                    "time": 317.35677350000003,
                    "velocity": 1
                },
                {
                    "duration": 0.21428550000001678,
                    "durationTicks": 60,
                    "midi": 40,
                    "name": "E2",
                    "ticks": 97080,
                    "time": 317.57105900000005,
                    "velocity": 1
                },
                {
                    "duration": 0.21428549999995994,
                    "durationTicks": 60,
                    "midi": 40,
                    "name": "E2",
                    "ticks": 97140,
                    "time": 317.78534450000006,
                    "velocity": 1
                },
                {
                    "duration": 0.21428550000001678,
                    "durationTicks": 60,
                    "midi": 55,
                    "name": "G3",
                    "ticks": 97200,
                    "time": 317.99963,
                    "velocity": 1
                },
                {
                    "duration": 0.21428550000001678,
                    "durationTicks": 60,
                    "midi": 60,
                    "name": "C4",
                    "ticks": 97200,
                    "time": 317.99963,
                    "velocity": 1
                },
                {
                    "duration": 0.21428550000001678,
                    "durationTicks": 60,
                    "midi": 62,
                    "name": "D4",
                    "ticks": 97260,
                    "time": 318.21391550000004,
                    "velocity": 1
                },
                {
                    "duration": 0.21428550000001678,
                    "durationTicks": 60,
                    "midi": 57,
                    "name": "A3",
                    "ticks": 97260,
                    "time": 318.21391550000004,
                    "velocity": 1
                },
                {
                    "duration": 0.4285709999999767,
                    "durationTicks": 120,
                    "midi": 55,
                    "name": "G3",
                    "ticks": 97320,
                    "time": 318.42820100000006,
                    "velocity": 1
                },
                {
                    "duration": 0.4285709999999767,
                    "durationTicks": 120,
                    "midi": 60,
                    "name": "C4",
                    "ticks": 97320,
                    "time": 318.42820100000006,
                    "velocity": 1
                },
                {
                    "duration": 0.21428550000001678,
                    "durationTicks": 60,
                    "midi": 60,
                    "name": "C4",
                    "ticks": 97440,
                    "time": 318.85677200000003,
                    "velocity": 1
                },
                {
                    "duration": 0.21428550000001678,
                    "durationTicks": 60,
                    "midi": 55,
                    "name": "G3",
                    "ticks": 97440,
                    "time": 318.85677200000003,
                    "velocity": 1
                },
                {
                    "duration": 0.21428549999995994,
                    "durationTicks": 60,
                    "midi": 40,
                    "name": "E2",
                    "ticks": 97500,
                    "time": 319.07105750000005,
                    "velocity": 1
                },
                {
                    "duration": 0.21428550000001678,
                    "durationTicks": 60,
                    "midi": 40,
                    "name": "E2",
                    "ticks": 97560,
                    "time": 319.285343,
                    "velocity": 1
                },
                {
                    "duration": 0.21428550000001678,
                    "durationTicks": 60,
                    "midi": 40,
                    "name": "E2",
                    "ticks": 97620,
                    "time": 319.49962850000003,
                    "velocity": 1
                },
                {
                    "duration": 0.21428549999995994,
                    "durationTicks": 60,
                    "midi": 55,
                    "name": "G3",
                    "ticks": 97680,
                    "time": 319.71391400000005,
                    "velocity": 1
                },
                {
                    "duration": 0.21428549999995994,
                    "durationTicks": 60,
                    "midi": 60,
                    "name": "C4",
                    "ticks": 97680,
                    "time": 319.71391400000005,
                    "velocity": 1
                },
                {
                    "duration": 0.21428550000001678,
                    "durationTicks": 60,
                    "midi": 62,
                    "name": "D4",
                    "ticks": 97740,
                    "time": 319.9281995,
                    "velocity": 1
                },
                {
                    "duration": 0.21428550000001678,
                    "durationTicks": 60,
                    "midi": 57,
                    "name": "A3",
                    "ticks": 97740,
                    "time": 319.9281995,
                    "velocity": 1
                },
                {
                    "duration": 0.4285709999999767,
                    "durationTicks": 120,
                    "midi": 55,
                    "name": "G3",
                    "ticks": 97800,
                    "time": 320.142485,
                    "velocity": 1
                },
                {
                    "duration": 0.4285709999999767,
                    "durationTicks": 120,
                    "midi": 60,
                    "name": "C4",
                    "ticks": 97800,
                    "time": 320.142485,
                    "velocity": 1
                },
                {
                    "duration": 0.21428550000001678,
                    "durationTicks": 60,
                    "midi": 64,
                    "name": "E4",
                    "ticks": 97920,
                    "time": 320.571056,
                    "velocity": 1
                },
                {
                    "duration": 0.21428550000001678,
                    "durationTicks": 60,
                    "midi": 62,
                    "name": "D4",
                    "ticks": 97980,
                    "time": 320.7853415,
                    "velocity": 1
                },
                {
                    "duration": 0.21428550000001678,
                    "durationTicks": 60,
                    "midi": 59,
                    "name": "B3",
                    "ticks": 98040,
                    "time": 320.99962700000003,
                    "velocity": 1
                },
                {
                    "duration": 0.21428550000001678,
                    "durationTicks": 60,
                    "midi": 62,
                    "name": "D4",
                    "ticks": 98100,
                    "time": 321.21391250000005,
                    "velocity": 1
                },
                {
                    "duration": 0.21428549999995994,
                    "durationTicks": 60,
                    "midi": 59,
                    "name": "B3",
                    "ticks": 98160,
                    "time": 321.42819800000007,
                    "velocity": 1
                },
                {
                    "duration": 0.21428550000001678,
                    "durationTicks": 60,
                    "midi": 58,
                    "name": "A#3",
                    "ticks": 98220,
                    "time": 321.6424835,
                    "velocity": 1
                },
                {
                    "duration": 0.21428550000001678,
                    "durationTicks": 60,
                    "midi": 57,
                    "name": "A3",
                    "ticks": 98280,
                    "time": 321.85676900000004,
                    "velocity": 1
                },
                {
                    "duration": 0.21428549999995994,
                    "durationTicks": 60,
                    "midi": 55,
                    "name": "G3",
                    "ticks": 98340,
                    "time": 322.07105450000006,
                    "velocity": 1
                },
                {
                    "duration": 0.21428550000001678,
                    "durationTicks": 60,
                    "midi": 64,
                    "name": "E4",
                    "ticks": 98400,
                    "time": 322.28534,
                    "velocity": 1
                },
                {
                    "duration": 0.21428550000001678,
                    "durationTicks": 60,
                    "midi": 62,
                    "name": "D4",
                    "ticks": 98460,
                    "time": 322.49962550000004,
                    "velocity": 1
                },
                {
                    "duration": 0.21428549999995994,
                    "durationTicks": 60,
                    "midi": 59,
                    "name": "B3",
                    "ticks": 98520,
                    "time": 322.71391100000005,
                    "velocity": 1
                },
                {
                    "duration": 0.21428550000001678,
                    "durationTicks": 60,
                    "midi": 62,
                    "name": "D4",
                    "ticks": 98580,
                    "time": 322.9281965,
                    "velocity": 1
                },
                {
                    "duration": 0.21428550000001678,
                    "durationTicks": 60,
                    "midi": 59,
                    "name": "B3",
                    "ticks": 98640,
                    "time": 323.14248200000003,
                    "velocity": 1
                },
                {
                    "duration": 0.21428549999995994,
                    "durationTicks": 60,
                    "midi": 58,
                    "name": "A#3",
                    "ticks": 98700,
                    "time": 323.35676750000005,
                    "velocity": 1
                },
                {
                    "duration": 0.21428550000001678,
                    "durationTicks": 60,
                    "midi": 57,
                    "name": "A3",
                    "ticks": 98760,
                    "time": 323.571053,
                    "velocity": 1
                },
                {
                    "duration": 0.21428550000001678,
                    "durationTicks": 60,
                    "midi": 55,
                    "name": "G3",
                    "ticks": 98820,
                    "time": 323.7853385,
                    "velocity": 1
                },
                {
                    "duration": 1.7142840000000206,
                    "durationTicks": 480,
                    "midi": 62,
                    "name": "D4",
                    "ticks": 98880,
                    "time": 323.99962400000004,
                    "velocity": 1
                },
                {
                    "duration": 1.7142840000000206,
                    "durationTicks": 480,
                    "midi": 55,
                    "name": "G3",
                    "ticks": 98880,
                    "time": 323.99962400000004,
                    "velocity": 1
                },
                {
                    "duration": 0.8571419999999534,
                    "durationTicks": 240,
                    "midi": 61,
                    "name": "C#4",
                    "ticks": 99360,
                    "time": 325.71390800000006,
                    "velocity": 1
                },
                {
                    "duration": 0.8571419999999534,
                    "durationTicks": 240,
                    "midi": 54,
                    "name": "F#3",
                    "ticks": 99360,
                    "time": 325.71390800000006,
                    "velocity": 1
                },
                {
                    "duration": 0.8571420000000103,
                    "durationTicks": 240,
                    "midi": 60,
                    "name": "C4",
                    "ticks": 99600,
                    "time": 326.57105,
                    "velocity": 1
                },
                {
                    "duration": 0.8571420000000103,
                    "durationTicks": 240,
                    "midi": 53,
                    "name": "F3",
                    "ticks": 99600,
                    "time": 326.57105,
                    "velocity": 1
                },
                {
                    "duration": 0.21428550000001678,
                    "durationTicks": 60,
                    "midi": 40,
                    "name": "E2",
                    "ticks": 99840,
                    "time": 327.428192,
                    "velocity": 1
                },
                {
                    "duration": 0.21428549999995994,
                    "durationTicks": 60,
                    "midi": 40,
                    "name": "E2",
                    "ticks": 99900,
                    "time": 327.64247750000004,
                    "velocity": 1
                },
                {
                    "duration": 0.21428550000001678,
                    "durationTicks": 60,
                    "midi": 40,
                    "name": "E2",
                    "ticks": 99960,
                    "time": 327.856763,
                    "velocity": 1
                },
                {
                    "duration": 0.21428550000001678,
                    "durationTicks": 60,
                    "midi": 40,
                    "name": "E2",
                    "ticks": 100020,
                    "time": 328.0710485,
                    "velocity": 1
                },
                {
                    "duration": 0.21428550000001678,
                    "durationTicks": 60,
                    "midi": 40,
                    "name": "E2",
                    "ticks": 100080,
                    "time": 328.28533400000003,
                    "velocity": 1
                },
                {
                    "duration": 0.21428550000001678,
                    "durationTicks": 60,
                    "midi": 40,
                    "name": "E2",
                    "ticks": 100140,
                    "time": 328.49961950000005,
                    "velocity": 1
                },
                {
                    "duration": 0.21428549999995994,
                    "durationTicks": 60,
                    "midi": 40,
                    "name": "E2",
                    "ticks": 100200,
                    "time": 328.71390500000007,
                    "velocity": 1
                },
                {
                    "duration": 0.21428550000001678,
                    "durationTicks": 60,
                    "midi": 40,
                    "name": "E2",
                    "ticks": 100260,
                    "time": 328.9281905,
                    "velocity": 1
                },
                {
                    "duration": 0.21428550000001678,
                    "durationTicks": 60,
                    "midi": 40,
                    "name": "E2",
                    "ticks": 100320,
                    "time": 329.14247600000004,
                    "velocity": 1
                },
                {
                    "duration": 0.21428549999995994,
                    "durationTicks": 60,
                    "midi": 40,
                    "name": "E2",
                    "ticks": 100380,
                    "time": 329.35676150000006,
                    "velocity": 1
                },
                {
                    "duration": 0.21428550000001678,
                    "durationTicks": 60,
                    "midi": 40,
                    "name": "E2",
                    "ticks": 100440,
                    "time": 329.571047,
                    "velocity": 1
                },
                {
                    "duration": 0.21428550000001678,
                    "durationTicks": 60,
                    "midi": 40,
                    "name": "E2",
                    "ticks": 100500,
                    "time": 329.78533250000004,
                    "velocity": 1
                },
                {
                    "duration": 0.21428549999995994,
                    "durationTicks": 60,
                    "midi": 40,
                    "name": "E2",
                    "ticks": 100560,
                    "time": 329.99961800000005,
                    "velocity": 1
                },
                {
                    "duration": 0.21428550000001678,
                    "durationTicks": 60,
                    "midi": 40,
                    "name": "E2",
                    "ticks": 100620,
                    "time": 330.2139035,
                    "velocity": 1
                },
                {
                    "duration": 0.21428550000001678,
                    "durationTicks": 60,
                    "midi": 40,
                    "name": "E2",
                    "ticks": 100680,
                    "time": 330.42818900000003,
                    "velocity": 1
                },
                {
                    "duration": 0.21428549999995994,
                    "durationTicks": 60,
                    "midi": 40,
                    "name": "E2",
                    "ticks": 100740,
                    "time": 330.64247450000005,
                    "velocity": 1
                },
                {
                    "duration": 1.7142840000000206,
                    "durationTicks": 480,
                    "midi": 62,
                    "name": "D4",
                    "ticks": 100800,
                    "time": 330.85676,
                    "velocity": 1
                },
                {
                    "duration": 1.7142840000000206,
                    "durationTicks": 480,
                    "midi": 55,
                    "name": "G3",
                    "ticks": 100800,
                    "time": 330.85676,
                    "velocity": 1
                },
                {
                    "duration": 0.8571420000000103,
                    "durationTicks": 240,
                    "midi": 61,
                    "name": "C#4",
                    "ticks": 101280,
                    "time": 332.57104400000003,
                    "velocity": 1
                },
                {
                    "duration": 0.8571420000000103,
                    "durationTicks": 240,
                    "midi": 54,
                    "name": "F#3",
                    "ticks": 101280,
                    "time": 332.57104400000003,
                    "velocity": 1
                },
                {
                    "duration": 0.8571420000000103,
                    "durationTicks": 240,
                    "midi": 60,
                    "name": "C4",
                    "ticks": 101520,
                    "time": 333.42818600000004,
                    "velocity": 1
                },
                {
                    "duration": 0.8571420000000103,
                    "durationTicks": 240,
                    "midi": 53,
                    "name": "F3",
                    "ticks": 101520,
                    "time": 333.42818600000004,
                    "velocity": 1
                },
                {
                    "duration": 0.21428549999995994,
                    "durationTicks": 60,
                    "midi": 40,
                    "name": "E2",
                    "ticks": 101760,
                    "time": 334.28532800000005,
                    "velocity": 1
                },
                {
                    "duration": 0.21428550000001678,
                    "durationTicks": 60,
                    "midi": 40,
                    "name": "E2",
                    "ticks": 101820,
                    "time": 334.4996135,
                    "velocity": 1
                },
                {
                    "duration": 0.21428550000001678,
                    "durationTicks": 60,
                    "midi": 40,
                    "name": "E2",
                    "ticks": 101880,
                    "time": 334.713899,
                    "velocity": 1
                },
                {
                    "duration": 0.21428549999995994,
                    "durationTicks": 60,
                    "midi": 40,
                    "name": "E2",
                    "ticks": 101940,
                    "time": 334.92818450000004,
                    "velocity": 1
                },
                {
                    "duration": 0.21428550000001678,
                    "durationTicks": 60,
                    "midi": 40,
                    "name": "E2",
                    "ticks": 102000,
                    "time": 335.14247,
                    "velocity": 1
                },
                {
                    "duration": 0.21428550000001678,
                    "durationTicks": 60,
                    "midi": 40,
                    "name": "E2",
                    "ticks": 102060,
                    "time": 335.3567555,
                    "velocity": 1
                },
                {
                    "duration": 0.21428550000001678,
                    "durationTicks": 60,
                    "midi": 40,
                    "name": "E2",
                    "ticks": 102120,
                    "time": 335.57104100000004,
                    "velocity": 1
                },
                {
                    "duration": 0.21428550000001678,
                    "durationTicks": 60,
                    "midi": 40,
                    "name": "E2",
                    "ticks": 102180,
                    "time": 335.78532650000005,
                    "velocity": 1
                },
                {
                    "duration": 0.21428549999995994,
                    "durationTicks": 60,
                    "midi": 40,
                    "name": "E2",
                    "ticks": 102240,
                    "time": 335.99961200000007,
                    "velocity": 1
                },
                {
                    "duration": 0.21428550000001678,
                    "durationTicks": 60,
                    "midi": 40,
                    "name": "E2",
                    "ticks": 102300,
                    "time": 336.21389750000003,
                    "velocity": 1
                },
                {
                    "duration": 0.21428550000001678,
                    "durationTicks": 60,
                    "midi": 40,
                    "name": "E2",
                    "ticks": 102360,
                    "time": 336.42818300000005,
                    "velocity": 1
                },
                {
                    "duration": 0.21428549999995994,
                    "durationTicks": 60,
                    "midi": 40,
                    "name": "E2",
                    "ticks": 102420,
                    "time": 336.64246850000006,
                    "velocity": 1
                },
                {
                    "duration": 0.21428550000001678,
                    "durationTicks": 60,
                    "midi": 40,
                    "name": "E2",
                    "ticks": 102480,
                    "time": 336.856754,
                    "velocity": 1
                },
                {
                    "duration": 0.21428550000001678,
                    "durationTicks": 60,
                    "midi": 40,
                    "name": "E2",
                    "ticks": 102540,
                    "time": 337.07103950000004,
                    "velocity": 1
                },
                {
                    "duration": 0.21428549999995994,
                    "durationTicks": 60,
                    "midi": 40,
                    "name": "E2",
                    "ticks": 102600,
                    "time": 337.28532500000006,
                    "velocity": 1
                },
                {
                    "duration": 0.21428550000001678,
                    "durationTicks": 60,
                    "midi": 40,
                    "name": "E2",
                    "ticks": 102660,
                    "time": 337.4996105,
                    "velocity": 1
                },
                {
                    "duration": 1.7142840000000206,
                    "durationTicks": 480,
                    "midi": 62,
                    "name": "D4",
                    "ticks": 102720,
                    "time": 337.71389600000003,
                    "velocity": 1
                },
                {
                    "duration": 1.7142840000000206,
                    "durationTicks": 480,
                    "midi": 55,
                    "name": "G3",
                    "ticks": 102720,
                    "time": 337.71389600000003,
                    "velocity": 1
                },
                {
                    "duration": 0.8571420000000103,
                    "durationTicks": 240,
                    "midi": 61,
                    "name": "C#4",
                    "ticks": 103200,
                    "time": 339.42818000000005,
                    "velocity": 1
                },
                {
                    "duration": 0.8571420000000103,
                    "durationTicks": 240,
                    "midi": 54,
                    "name": "F#3",
                    "ticks": 103200,
                    "time": 339.42818000000005,
                    "velocity": 1
                },
                {
                    "duration": 0.8571419999999534,
                    "durationTicks": 240,
                    "midi": 60,
                    "name": "C4",
                    "ticks": 103440,
                    "time": 340.28532200000006,
                    "velocity": 1
                },
                {
                    "duration": 0.8571419999999534,
                    "durationTicks": 240,
                    "midi": 53,
                    "name": "F3",
                    "ticks": 103440,
                    "time": 340.28532200000006,
                    "velocity": 1
                },
                {
                    "duration": 0.21428550000001678,
                    "durationTicks": 60,
                    "midi": 40,
                    "name": "E2",
                    "ticks": 103680,
                    "time": 341.142464,
                    "velocity": 1
                },
                {
                    "duration": 0.21428550000001678,
                    "durationTicks": 60,
                    "midi": 40,
                    "name": "E2",
                    "ticks": 103740,
                    "time": 341.35674950000003,
                    "velocity": 1
                },
                {
                    "duration": 0.21428549999995994,
                    "durationTicks": 60,
                    "midi": 40,
                    "name": "E2",
                    "ticks": 103800,
                    "time": 341.57103500000005,
                    "velocity": 1
                },
                {
                    "duration": 0.21428550000001678,
                    "durationTicks": 60,
                    "midi": 40,
                    "name": "E2",
                    "ticks": 103860,
                    "time": 341.7853205,
                    "velocity": 1
                },
                {
                    "duration": 0.21428550000001678,
                    "durationTicks": 60,
                    "midi": 40,
                    "name": "E2",
                    "ticks": 103920,
                    "time": 341.999606,
                    "velocity": 1
                },
                {
                    "duration": 0.21428549999995994,
                    "durationTicks": 60,
                    "midi": 40,
                    "name": "E2",
                    "ticks": 103980,
                    "time": 342.21389150000005,
                    "velocity": 1
                },
                {
                    "duration": 0.21428550000001678,
                    "durationTicks": 60,
                    "midi": 40,
                    "name": "E2",
                    "ticks": 104040,
                    "time": 342.428177,
                    "velocity": 1
                },
                {
                    "duration": 0.21428550000001678,
                    "durationTicks": 60,
                    "midi": 40,
                    "name": "E2",
                    "ticks": 104100,
                    "time": 342.6424625,
                    "velocity": 1
                },
                {
                    "duration": 0.21428550000001678,
                    "durationTicks": 60,
                    "midi": 40,
                    "name": "E2",
                    "ticks": 104160,
                    "time": 342.85674800000004,
                    "velocity": 1
                },
                {
                    "duration": 0.21428549999995994,
                    "durationTicks": 60,
                    "midi": 40,
                    "name": "E2",
                    "ticks": 104220,
                    "time": 343.07103350000006,
                    "velocity": 1
                },
                {
                    "duration": 0.21428550000001678,
                    "durationTicks": 60,
                    "midi": 40,
                    "name": "E2",
                    "ticks": 104280,
                    "time": 343.285319,
                    "velocity": 1
                },
                {
                    "duration": 0.21428550000001678,
                    "durationTicks": 60,
                    "midi": 40,
                    "name": "E2",
                    "ticks": 104340,
                    "time": 343.49960450000003,
                    "velocity": 1
                },
                {
                    "duration": 0.21428550000001678,
                    "durationTicks": 60,
                    "midi": 40,
                    "name": "E2",
                    "ticks": 104400,
                    "time": 343.71389000000005,
                    "velocity": 1
                },
                {
                    "duration": 0.21428549999995994,
                    "durationTicks": 60,
                    "midi": 40,
                    "name": "E2",
                    "ticks": 104460,
                    "time": 343.92817550000007,
                    "velocity": 1
                },
                {
                    "duration": 0.21428550000001678,
                    "durationTicks": 60,
                    "midi": 40,
                    "name": "E2",
                    "ticks": 104520,
                    "time": 344.142461,
                    "velocity": 1
                },
                {
                    "duration": 0.21428550000001678,
                    "durationTicks": 60,
                    "midi": 40,
                    "name": "E2",
                    "ticks": 104580,
                    "time": 344.35674650000004,
                    "velocity": 1
                },
                {
                    "duration": 1.7142839999999637,
                    "durationTicks": 480,
                    "midi": 62,
                    "name": "D4",
                    "ticks": 104640,
                    "time": 344.57103200000006,
                    "velocity": 1
                },
                {
                    "duration": 1.7142839999999637,
                    "durationTicks": 480,
                    "midi": 55,
                    "name": "G3",
                    "ticks": 104640,
                    "time": 344.57103200000006,
                    "velocity": 1
                },
                {
                    "duration": 0.8571420000000103,
                    "durationTicks": 240,
                    "midi": 61,
                    "name": "C#4",
                    "ticks": 105120,
                    "time": 346.285316,
                    "velocity": 1
                },
                {
                    "duration": 0.8571420000000103,
                    "durationTicks": 240,
                    "midi": 54,
                    "name": "F#3",
                    "ticks": 105120,
                    "time": 346.285316,
                    "velocity": 1
                },
                {
                    "duration": 0.8571420000000103,
                    "durationTicks": 240,
                    "midi": 60,
                    "name": "C4",
                    "ticks": 105360,
                    "time": 347.14245800000003,
                    "velocity": 1
                },
                {
                    "duration": 0.8571420000000103,
                    "durationTicks": 240,
                    "midi": 53,
                    "name": "F3",
                    "ticks": 105360,
                    "time": 347.14245800000003,
                    "velocity": 1
                },
                {
                    "duration": 0.21428550000001678,
                    "durationTicks": 60,
                    "midi": 59,
                    "name": "B3",
                    "ticks": 105600,
                    "time": 347.99960000000004,
                    "velocity": 1
                },
                {
                    "duration": 0.21428550000001678,
                    "durationTicks": 60,
                    "midi": 52,
                    "name": "E3",
                    "ticks": 105600,
                    "time": 347.99960000000004,
                    "velocity": 1
                },
                {
                    "duration": 0.21428549999995994,
                    "durationTicks": 60,
                    "midi": 40,
                    "name": "E2",
                    "ticks": 105660,
                    "time": 348.21388550000006,
                    "velocity": 1
                },
                {
                    "duration": 0.21428550000001678,
                    "durationTicks": 60,
                    "midi": 40,
                    "name": "E2",
                    "ticks": 105720,
                    "time": 348.428171,
                    "velocity": 1
                },
                {
                    "duration": 0.21428550000001678,
                    "durationTicks": 60,
                    "midi": 40,
                    "name": "E2",
                    "ticks": 105780,
                    "time": 348.64245650000004,
                    "velocity": 1
                },
                {
                    "duration": 0.21428549999995994,
                    "durationTicks": 60,
                    "midi": 40,
                    "name": "E2",
                    "ticks": 105840,
                    "time": 348.85674200000005,
                    "velocity": 1
                },
                {
                    "duration": 0.21428550000001678,
                    "durationTicks": 60,
                    "midi": 40,
                    "name": "E2",
                    "ticks": 105900,
                    "time": 349.0710275,
                    "velocity": 1
                },
                {
                    "duration": 0.21428550000001678,
                    "durationTicks": 60,
                    "midi": 40,
                    "name": "E2",
                    "ticks": 105960,
                    "time": 349.28531300000003,
                    "velocity": 1
                },
                {
                    "duration": 0.21428549999995994,
                    "durationTicks": 60,
                    "midi": 40,
                    "name": "E2",
                    "ticks": 106020,
                    "time": 349.49959850000005,
                    "velocity": 1
                },
                {
                    "duration": 0.21428550000001678,
                    "durationTicks": 60,
                    "midi": 40,
                    "name": "E2",
                    "ticks": 106080,
                    "time": 349.713884,
                    "velocity": 1
                },
                {
                    "duration": 0.21428550000001678,
                    "durationTicks": 60,
                    "midi": 40,
                    "name": "E2",
                    "ticks": 106140,
                    "time": 349.9281695,
                    "velocity": 1
                },
                {
                    "duration": 0.21428550000001678,
                    "durationTicks": 60,
                    "midi": 40,
                    "name": "E2",
                    "ticks": 106200,
                    "time": 350.14245500000004,
                    "velocity": 1
                },
                {
                    "duration": 0.21428549999995994,
                    "durationTicks": 60,
                    "midi": 40,
                    "name": "E2",
                    "ticks": 106260,
                    "time": 350.35674050000006,
                    "velocity": 1
                },
                {
                    "duration": 0.21428550000001678,
                    "durationTicks": 60,
                    "midi": 40,
                    "name": "E2",
                    "ticks": 106320,
                    "time": 350.571026,
                    "velocity": 1
                },
                {
                    "duration": 0.21428550000001678,
                    "durationTicks": 60,
                    "midi": 40,
                    "name": "E2",
                    "ticks": 106380,
                    "time": 350.78531150000003,
                    "velocity": 1
                },
                {
                    "duration": 0.21428550000001678,
                    "durationTicks": 60,
                    "midi": 40,
                    "name": "E2",
                    "ticks": 106440,
                    "time": 350.99959700000005,
                    "velocity": 1
                },
                {
                    "duration": 0.21428549999995994,
                    "durationTicks": 60,
                    "midi": 62,
                    "name": "D4",
                    "ticks": 106500,
                    "time": 351.21388250000007,
                    "velocity": 1
                },
                {
                    "duration": 0.21428549999995994,
                    "durationTicks": 60,
                    "midi": 55,
                    "name": "G3",
                    "ticks": 106500,
                    "time": 351.21388250000007,
                    "velocity": 1
                },
                {
                    "duration": 0.21428550000001678,
                    "durationTicks": 60,
                    "midi": 61,
                    "name": "C#4",
                    "ticks": 106560,
                    "time": 351.428168,
                    "velocity": 1
                },
                {
                    "duration": 0.21428550000001678,
                    "durationTicks": 60,
                    "midi": 54,
                    "name": "F#3",
                    "ticks": 106560,
                    "time": 351.428168,
                    "velocity": 1
                },
                {
                    "duration": 0.21428550000001678,
                    "durationTicks": 60,
                    "midi": 40,
                    "name": "E2",
                    "ticks": 106620,
                    "time": 351.64245350000004,
                    "velocity": 1
                },
                {
                    "duration": 0.21428549999995994,
                    "durationTicks": 60,
                    "midi": 40,
                    "name": "E2",
                    "ticks": 106680,
                    "time": 351.85673900000006,
                    "velocity": 1
                },
                {
                    "duration": 0.21428550000001678,
                    "durationTicks": 60,
                    "midi": 54,
                    "name": "F#3",
                    "ticks": 106740,
                    "time": 352.0710245,
                    "velocity": 1
                },
                {
                    "duration": 0.21428550000001678,
                    "durationTicks": 60,
                    "midi": 61,
                    "name": "C#4",
                    "ticks": 106740,
                    "time": 352.0710245,
                    "velocity": 1
                },
                {
                    "duration": 0.21428550000001678,
                    "durationTicks": 60,
                    "midi": 53,
                    "name": "F3",
                    "ticks": 106800,
                    "time": 352.28531000000004,
                    "velocity": 1
                },
                {
                    "duration": 0.21428550000001678,
                    "durationTicks": 60,
                    "midi": 60,
                    "name": "C4",
                    "ticks": 106800,
                    "time": 352.28531000000004,
                    "velocity": 1
                },
                {
                    "duration": 0.21428549999995994,
                    "durationTicks": 60,
                    "midi": 40,
                    "name": "E2",
                    "ticks": 106860,
                    "time": 352.49959550000005,
                    "velocity": 1
                },
                {
                    "duration": 0.21428550000001678,
                    "durationTicks": 60,
                    "midi": 40,
                    "name": "E2",
                    "ticks": 106920,
                    "time": 352.713881,
                    "velocity": 1
                },
                {
                    "duration": 0.21428550000001678,
                    "durationTicks": 60,
                    "midi": 60,
                    "name": "C4",
                    "ticks": 106980,
                    "time": 352.92816650000003,
                    "velocity": 1
                },
                {
                    "duration": 0.21428550000001678,
                    "durationTicks": 60,
                    "midi": 53,
                    "name": "F3",
                    "ticks": 106980,
                    "time": 352.92816650000003,
                    "velocity": 1
                },
                {
                    "duration": 0.21428549999995994,
                    "durationTicks": 60,
                    "midi": 47,
                    "name": "B2",
                    "ticks": 107040,
                    "time": 353.14245200000005,
                    "velocity": 1
                },
                {
                    "duration": 0.21428549999995994,
                    "durationTicks": 60,
                    "midi": 40,
                    "name": "E2",
                    "ticks": 107040,
                    "time": 353.14245200000005,
                    "velocity": 1
                },
                {
                    "duration": 0.21428550000001678,
                    "durationTicks": 60,
                    "midi": 40,
                    "name": "E2",
                    "ticks": 107100,
                    "time": 353.3567375,
                    "velocity": 1
                },
                {
                    "duration": 0.21428550000001678,
                    "durationTicks": 60,
                    "midi": 40,
                    "name": "E2",
                    "ticks": 107160,
                    "time": 353.571023,
                    "velocity": 1
                },
                {
                    "duration": 0.21428549999995994,
                    "durationTicks": 60,
                    "midi": 40,
                    "name": "E2",
                    "ticks": 107220,
                    "time": 353.78530850000004,
                    "velocity": 1
                },
                {
                    "duration": 0.21428550000001678,
                    "durationTicks": 60,
                    "midi": 40,
                    "name": "E2",
                    "ticks": 107280,
                    "time": 353.999594,
                    "velocity": 1
                },
                {
                    "duration": 0.21428550000001678,
                    "durationTicks": 60,
                    "midi": 40,
                    "name": "E2",
                    "ticks": 107340,
                    "time": 354.2138795,
                    "velocity": 1
                },
                {
                    "duration": 0.21428550000001678,
                    "durationTicks": 60,
                    "midi": 40,
                    "name": "E2",
                    "ticks": 107400,
                    "time": 354.42816500000004,
                    "velocity": 1
                },
                {
                    "duration": 0.21428550000001678,
                    "durationTicks": 60,
                    "midi": 55,
                    "name": "G3",
                    "ticks": 107460,
                    "time": 354.64245050000005,
                    "velocity": 1
                },
                {
                    "duration": 0.21428550000001678,
                    "durationTicks": 60,
                    "midi": 62,
                    "name": "D4",
                    "ticks": 107460,
                    "time": 354.64245050000005,
                    "velocity": 1
                },
                {
                    "duration": 0.21428549999995994,
                    "durationTicks": 60,
                    "midi": 61,
                    "name": "C#4",
                    "ticks": 107520,
                    "time": 354.85673600000007,
                    "velocity": 1
                },
                {
                    "duration": 0.21428549999995994,
                    "durationTicks": 60,
                    "midi": 54,
                    "name": "F#3",
                    "ticks": 107520,
                    "time": 354.85673600000007,
                    "velocity": 1
                },
                {
                    "duration": 0.21428550000001678,
                    "durationTicks": 60,
                    "midi": 40,
                    "name": "E2",
                    "ticks": 107580,
                    "time": 355.07102150000003,
                    "velocity": 1
                },
                {
                    "duration": 0.21428550000001678,
                    "durationTicks": 60,
                    "midi": 40,
                    "name": "E2",
                    "ticks": 107640,
                    "time": 355.28530700000005,
                    "velocity": 1
                },
                {
                    "duration": 0.21428549999995994,
                    "durationTicks": 60,
                    "midi": 54,
                    "name": "F#3",
                    "ticks": 107700,
                    "time": 355.49959250000006,
                    "velocity": 1
                },
                {
                    "duration": 0.21428549999995994,
                    "durationTicks": 60,
                    "midi": 61,
                    "name": "C#4",
                    "ticks": 107700,
                    "time": 355.49959250000006,
                    "velocity": 1
                },
                {
                    "duration": 0.21428550000001678,
                    "durationTicks": 60,
                    "midi": 57,
                    "name": "A3",
                    "ticks": 107760,
                    "time": 355.713878,
                    "velocity": 1
                },
                {
                    "duration": 0.21428550000001678,
                    "durationTicks": 60,
                    "midi": 50,
                    "name": "D3",
                    "ticks": 107760,
                    "time": 355.713878,
                    "velocity": 1
                },
                {
                    "duration": 0.21428550000001678,
                    "durationTicks": 60,
                    "midi": 40,
                    "name": "E2",
                    "ticks": 107820,
                    "time": 355.92816350000004,
                    "velocity": 1
                },
                {
                    "duration": 0.21428549999995994,
                    "durationTicks": 60,
                    "midi": 40,
                    "name": "E2",
                    "ticks": 107880,
                    "time": 356.14244900000006,
                    "velocity": 1
                },
                {
                    "duration": 0.21428550000001678,
                    "durationTicks": 60,
                    "midi": 50,
                    "name": "D3",
                    "ticks": 107940,
                    "time": 356.3567345,
                    "velocity": 1
                },
                {
                    "duration": 0.21428550000001678,
                    "durationTicks": 60,
                    "midi": 57,
                    "name": "A3",
                    "ticks": 107940,
                    "time": 356.3567345,
                    "velocity": 1
                },
                {
                    "duration": 0.21428550000001678,
                    "durationTicks": 60,
                    "midi": 47,
                    "name": "B2",
                    "ticks": 108000,
                    "time": 356.57102000000003,
                    "velocity": 1
                },
                {
                    "duration": 0.21428550000001678,
                    "durationTicks": 60,
                    "midi": 40,
                    "name": "E2",
                    "ticks": 108000,
                    "time": 356.57102000000003,
                    "velocity": 1
                },
                {
                    "duration": 0.21428549999995994,
                    "durationTicks": 60,
                    "midi": 40,
                    "name": "E2",
                    "ticks": 108060,
                    "time": 356.78530550000005,
                    "velocity": 1
                },
                {
                    "duration": 0.21428550000001678,
                    "durationTicks": 60,
                    "midi": 40,
                    "name": "E2",
                    "ticks": 108120,
                    "time": 356.999591,
                    "velocity": 1
                },
                {
                    "duration": 0.21428550000001678,
                    "durationTicks": 60,
                    "midi": 40,
                    "name": "E2",
                    "ticks": 108180,
                    "time": 357.2138765,
                    "velocity": 1
                },
                {
                    "duration": 0.21428549999995994,
                    "durationTicks": 60,
                    "midi": 40,
                    "name": "E2",
                    "ticks": 108240,
                    "time": 357.42816200000004,
                    "velocity": 1
                },
                {
                    "duration": 0.21428550000001678,
                    "durationTicks": 60,
                    "midi": 40,
                    "name": "E2",
                    "ticks": 108300,
                    "time": 357.6424475,
                    "velocity": 1
                },
                {
                    "duration": 0.21428550000001678,
                    "durationTicks": 60,
                    "midi": 40,
                    "name": "E2",
                    "ticks": 108360,
                    "time": 357.856733,
                    "velocity": 1
                },
                {
                    "duration": 0.21428550000001678,
                    "durationTicks": 60,
                    "midi": 55,
                    "name": "G3",
                    "ticks": 108420,
                    "time": 358.07101850000004,
                    "velocity": 1
                },
                {
                    "duration": 0.21428550000001678,
                    "durationTicks": 60,
                    "midi": 62,
                    "name": "D4",
                    "ticks": 108420,
                    "time": 358.07101850000004,
                    "velocity": 1
                },
                {
                    "duration": 0.21428550000001678,
                    "durationTicks": 60,
                    "midi": 61,
                    "name": "C#4",
                    "ticks": 108480,
                    "time": 358.28530400000005,
                    "velocity": 1
                },
                {
                    "duration": 0.21428550000001678,
                    "durationTicks": 60,
                    "midi": 54,
                    "name": "F#3",
                    "ticks": 108480,
                    "time": 358.28530400000005,
                    "velocity": 1
                },
                {
                    "duration": 0.21428549999995994,
                    "durationTicks": 60,
                    "midi": 40,
                    "name": "E2",
                    "ticks": 108540,
                    "time": 358.49958950000007,
                    "velocity": 1
                },
                {
                    "duration": 0.21428550000001678,
                    "durationTicks": 60,
                    "midi": 40,
                    "name": "E2",
                    "ticks": 108600,
                    "time": 358.71387500000003,
                    "velocity": 1
                },
                {
                    "duration": 0.21428550000001678,
                    "durationTicks": 60,
                    "midi": 54,
                    "name": "F#3",
                    "ticks": 108660,
                    "time": 358.92816050000005,
                    "velocity": 1
                },
                {
                    "duration": 0.21428550000001678,
                    "durationTicks": 60,
                    "midi": 61,
                    "name": "C#4",
                    "ticks": 108660,
                    "time": 358.92816050000005,
                    "velocity": 1
                },
                {
                    "duration": 0.21428549999995994,
                    "durationTicks": 60,
                    "midi": 53,
                    "name": "F3",
                    "ticks": 108720,
                    "time": 359.14244600000006,
                    "velocity": 1
                },
                {
                    "duration": 0.21428549999995994,
                    "durationTicks": 60,
                    "midi": 60,
                    "name": "C4",
                    "ticks": 108720,
                    "time": 359.14244600000006,
                    "velocity": 1
                },
                {
                    "duration": 0.21428550000001678,
                    "durationTicks": 60,
                    "midi": 40,
                    "name": "E2",
                    "ticks": 108780,
                    "time": 359.3567315,
                    "velocity": 1
                },
                {
                    "duration": 0.21428550000001678,
                    "durationTicks": 60,
                    "midi": 40,
                    "name": "E2",
                    "ticks": 108840,
                    "time": 359.57101700000004,
                    "velocity": 1
                },
                {
                    "duration": 0.21428549999995994,
                    "durationTicks": 60,
                    "midi": 60,
                    "name": "C4",
                    "ticks": 108900,
                    "time": 359.78530250000006,
                    "velocity": 1
                },
                {
                    "duration": 0.21428549999995994,
                    "durationTicks": 60,
                    "midi": 53,
                    "name": "F3",
                    "ticks": 108900,
                    "time": 359.78530250000006,
                    "velocity": 1
                },
                {
                    "duration": 0.21428550000001678,
                    "durationTicks": 60,
                    "midi": 47,
                    "name": "B2",
                    "ticks": 108960,
                    "time": 359.999588,
                    "velocity": 1
                },
                {
                    "duration": 0.21428550000001678,
                    "durationTicks": 60,
                    "midi": 40,
                    "name": "E2",
                    "ticks": 108960,
                    "time": 359.999588,
                    "velocity": 1
                },
                {
                    "duration": 0.21428550000001678,
                    "durationTicks": 60,
                    "midi": 40,
                    "name": "E2",
                    "ticks": 109020,
                    "time": 360.21387350000003,
                    "velocity": 1
                },
                {
                    "duration": 0.21428549999995994,
                    "durationTicks": 60,
                    "midi": 40,
                    "name": "E2",
                    "ticks": 109080,
                    "time": 360.42815900000005,
                    "velocity": 1
                },
                {
                    "duration": 0.21428550000001678,
                    "durationTicks": 60,
                    "midi": 40,
                    "name": "E2",
                    "ticks": 109140,
                    "time": 360.6424445,
                    "velocity": 1
                },
                {
                    "duration": 0.21428550000001678,
                    "durationTicks": 60,
                    "midi": 40,
                    "name": "E2",
                    "ticks": 109200,
                    "time": 360.85673,
                    "velocity": 1
                },
                {
                    "duration": 0.21428549999995994,
                    "durationTicks": 60,
                    "midi": 40,
                    "name": "E2",
                    "ticks": 109260,
                    "time": 361.07101550000004,
                    "velocity": 1
                },
                {
                    "duration": 0.21428550000001678,
                    "durationTicks": 60,
                    "midi": 40,
                    "name": "E2",
                    "ticks": 109320,
                    "time": 361.285301,
                    "velocity": 1
                },
                {
                    "duration": 0.21428550000001678,
                    "durationTicks": 60,
                    "midi": 55,
                    "name": "G3",
                    "ticks": 109380,
                    "time": 361.4995865,
                    "velocity": 1
                },
                {
                    "duration": 0.21428550000001678,
                    "durationTicks": 60,
                    "midi": 62,
                    "name": "D4",
                    "ticks": 109380,
                    "time": 361.4995865,
                    "velocity": 1
                },
                {
                    "duration": 0.21428550000001678,
                    "durationTicks": 60,
                    "midi": 61,
                    "name": "C#4",
                    "ticks": 109440,
                    "time": 361.71387200000004,
                    "velocity": 1
                },
                {
                    "duration": 0.21428550000001678,
                    "durationTicks": 60,
                    "midi": 54,
                    "name": "F#3",
                    "ticks": 109440,
                    "time": 361.71387200000004,
                    "velocity": 1
                },
                {
                    "duration": 0.21428550000001678,
                    "durationTicks": 60,
                    "midi": 40,
                    "name": "E2",
                    "ticks": 109500,
                    "time": 361.92815750000005,
                    "velocity": 1
                },
                {
                    "duration": 0.21428549999995994,
                    "durationTicks": 60,
                    "midi": 40,
                    "name": "E2",
                    "ticks": 109560,
                    "time": 362.14244300000007,
                    "velocity": 1
                },
                {
                    "duration": 0.21428550000001678,
                    "durationTicks": 60,
                    "midi": 54,
                    "name": "F#3",
                    "ticks": 109620,
                    "time": 362.35672850000003,
                    "velocity": 1
                },
                {
                    "duration": 0.21428550000001678,
                    "durationTicks": 60,
                    "midi": 61,
                    "name": "C#4",
                    "ticks": 109620,
                    "time": 362.35672850000003,
                    "velocity": 1
                },
                {
                    "duration": 0.21428550000001678,
                    "durationTicks": 60,
                    "midi": 57,
                    "name": "A3",
                    "ticks": 109680,
                    "time": 362.57101400000005,
                    "velocity": 1
                },
                {
                    "duration": 0.21428550000001678,
                    "durationTicks": 60,
                    "midi": 50,
                    "name": "D3",
                    "ticks": 109680,
                    "time": 362.57101400000005,
                    "velocity": 1
                },
                {
                    "duration": 0.21428549999995994,
                    "durationTicks": 60,
                    "midi": 40,
                    "name": "E2",
                    "ticks": 109740,
                    "time": 362.78529950000006,
                    "velocity": 1
                },
                {
                    "duration": 0.21428550000001678,
                    "durationTicks": 60,
                    "midi": 40,
                    "name": "E2",
                    "ticks": 109800,
                    "time": 362.999585,
                    "velocity": 1
                },
                {
                    "duration": 0.21428550000001678,
                    "durationTicks": 60,
                    "midi": 50,
                    "name": "D3",
                    "ticks": 109860,
                    "time": 363.21387050000004,
                    "velocity": 1
                },
                {
                    "duration": 0.21428550000001678,
                    "durationTicks": 60,
                    "midi": 57,
                    "name": "A3",
                    "ticks": 109860,
                    "time": 363.21387050000004,
                    "velocity": 1
                },
                {
                    "duration": 0.21428549999995994,
                    "durationTicks": 60,
                    "midi": 47,
                    "name": "B2",
                    "ticks": 109920,
                    "time": 363.42815600000006,
                    "velocity": 1
                },
                {
                    "duration": 0.21428549999995994,
                    "durationTicks": 60,
                    "midi": 40,
                    "name": "E2",
                    "ticks": 109920,
                    "time": 363.42815600000006,
                    "velocity": 1
                },
                {
                    "duration": 0.21428550000001678,
                    "durationTicks": 60,
                    "midi": 40,
                    "name": "E2",
                    "ticks": 109980,
                    "time": 363.6424415,
                    "velocity": 1
                },
                {
                    "duration": 0.21428550000001678,
                    "durationTicks": 60,
                    "midi": 40,
                    "name": "E2",
                    "ticks": 110040,
                    "time": 363.85672700000003,
                    "velocity": 1
                },
                {
                    "duration": 0.21428549999995994,
                    "durationTicks": 60,
                    "midi": 40,
                    "name": "E2",
                    "ticks": 110100,
                    "time": 364.07101250000005,
                    "velocity": 1
                },
                {
                    "duration": 0.21428550000001678,
                    "durationTicks": 60,
                    "midi": 40,
                    "name": "E2",
                    "ticks": 110160,
                    "time": 364.285298,
                    "velocity": 1
                },
                {
                    "duration": 0.21428550000001678,
                    "durationTicks": 60,
                    "midi": 40,
                    "name": "E2",
                    "ticks": 110220,
                    "time": 364.4995835,
                    "velocity": 1
                },
                {
                    "duration": 0.21428549999995994,
                    "durationTicks": 60,
                    "midi": 40,
                    "name": "E2",
                    "ticks": 110280,
                    "time": 364.71386900000005,
                    "velocity": 1
                },
                {
                    "duration": 0.21428550000001678,
                    "durationTicks": 60,
                    "midi": 55,
                    "name": "G3",
                    "ticks": 110340,
                    "time": 364.9281545,
                    "velocity": 1
                },
                {
                    "duration": 0.21428550000001678,
                    "durationTicks": 60,
                    "midi": 62,
                    "name": "D4",
                    "ticks": 110340,
                    "time": 364.9281545,
                    "velocity": 1
                },
                {
                    "duration": 0.21428550000001678,
                    "durationTicks": 60,
                    "midi": 61,
                    "name": "C#4",
                    "ticks": 110400,
                    "time": 365.14244,
                    "velocity": 1
                },
                {
                    "duration": 0.21428550000001678,
                    "durationTicks": 60,
                    "midi": 54,
                    "name": "F#3",
                    "ticks": 110400,
                    "time": 365.14244,
                    "velocity": 1
                },
                {
                    "duration": 0.21428550000001678,
                    "durationTicks": 60,
                    "midi": 40,
                    "name": "E2",
                    "ticks": 110460,
                    "time": 365.35672550000004,
                    "velocity": 1
                },
                {
                    "duration": 0.21428550000001678,
                    "durationTicks": 60,
                    "midi": 40,
                    "name": "E2",
                    "ticks": 110520,
                    "time": 365.57101100000006,
                    "velocity": 1
                },
                {
                    "duration": 0.21428549999995994,
                    "durationTicks": 60,
                    "midi": 54,
                    "name": "F#3",
                    "ticks": 110580,
                    "time": 365.7852965000001,
                    "velocity": 1
                },
                {
                    "duration": 0.21428549999995994,
                    "durationTicks": 60,
                    "midi": 61,
                    "name": "C#4",
                    "ticks": 110580,
                    "time": 365.7852965000001,
                    "velocity": 1
                },
                {
                    "duration": 0.21428550000001678,
                    "durationTicks": 60,
                    "midi": 53,
                    "name": "F3",
                    "ticks": 110640,
                    "time": 365.99958200000003,
                    "velocity": 1
                },
                {
                    "duration": 0.21428550000001678,
                    "durationTicks": 60,
                    "midi": 60,
                    "name": "C4",
                    "ticks": 110640,
                    "time": 365.99958200000003,
                    "velocity": 1
                },
                {
                    "duration": 0.21428550000001678,
                    "durationTicks": 60,
                    "midi": 40,
                    "name": "E2",
                    "ticks": 110700,
                    "time": 366.21386750000005,
                    "velocity": 1
                },
                {
                    "duration": 0.21428549999995994,
                    "durationTicks": 60,
                    "midi": 40,
                    "name": "E2",
                    "ticks": 110760,
                    "time": 366.42815300000007,
                    "velocity": 1
                },
                {
                    "duration": 0.21428550000001678,
                    "durationTicks": 60,
                    "midi": 60,
                    "name": "C4",
                    "ticks": 110820,
                    "time": 366.6424385,
                    "velocity": 1
                },
                {
                    "duration": 0.21428550000001678,
                    "durationTicks": 60,
                    "midi": 53,
                    "name": "F3",
                    "ticks": 110820,
                    "time": 366.6424385,
                    "velocity": 1
                },
                {
                    "duration": 0.21428550000001678,
                    "durationTicks": 60,
                    "midi": 47,
                    "name": "B2",
                    "ticks": 110880,
                    "time": 366.85672400000004,
                    "velocity": 1
                },
                {
                    "duration": 0.21428550000001678,
                    "durationTicks": 60,
                    "midi": 40,
                    "name": "E2",
                    "ticks": 110880,
                    "time": 366.85672400000004,
                    "velocity": 1
                },
                {
                    "duration": 0.21428549999995994,
                    "durationTicks": 60,
                    "midi": 40,
                    "name": "E2",
                    "ticks": 110940,
                    "time": 367.07100950000006,
                    "velocity": 1
                },
                {
                    "duration": 0.21428550000001678,
                    "durationTicks": 60,
                    "midi": 40,
                    "name": "E2",
                    "ticks": 111000,
                    "time": 367.285295,
                    "velocity": 1
                },
                {
                    "duration": 0.21428550000001678,
                    "durationTicks": 60,
                    "midi": 40,
                    "name": "E2",
                    "ticks": 111060,
                    "time": 367.49958050000004,
                    "velocity": 1
                },
                {
                    "duration": 0.21428549999995994,
                    "durationTicks": 60,
                    "midi": 40,
                    "name": "E2",
                    "ticks": 111120,
                    "time": 367.71386600000005,
                    "velocity": 1
                },
                {
                    "duration": 0.21428550000001678,
                    "durationTicks": 60,
                    "midi": 40,
                    "name": "E2",
                    "ticks": 111180,
                    "time": 367.9281515,
                    "velocity": 1
                },
                {
                    "duration": 0.21428550000001678,
                    "durationTicks": 60,
                    "midi": 40,
                    "name": "E2",
                    "ticks": 111240,
                    "time": 368.14243700000003,
                    "velocity": 1
                },
                {
                    "duration": 0.21428549999995994,
                    "durationTicks": 60,
                    "midi": 55,
                    "name": "G3",
                    "ticks": 111300,
                    "time": 368.35672250000005,
                    "velocity": 1
                },
                {
                    "duration": 0.21428549999995994,
                    "durationTicks": 60,
                    "midi": 62,
                    "name": "D4",
                    "ticks": 111300,
                    "time": 368.35672250000005,
                    "velocity": 1
                },
                {
                    "duration": 0.21428550000001678,
                    "durationTicks": 60,
                    "midi": 61,
                    "name": "C#4",
                    "ticks": 111360,
                    "time": 368.571008,
                    "velocity": 1
                },
                {
                    "duration": 0.21428550000001678,
                    "durationTicks": 60,
                    "midi": 54,
                    "name": "F#3",
                    "ticks": 111360,
                    "time": 368.571008,
                    "velocity": 1
                },
                {
                    "duration": 0.21428550000001678,
                    "durationTicks": 60,
                    "midi": 40,
                    "name": "E2",
                    "ticks": 111420,
                    "time": 368.7852935,
                    "velocity": 1
                },
                {
                    "duration": 0.21428550000001678,
                    "durationTicks": 60,
                    "midi": 40,
                    "name": "E2",
                    "ticks": 111480,
                    "time": 368.99957900000004,
                    "velocity": 1
                },
                {
                    "duration": 0.21428550000001678,
                    "durationTicks": 60,
                    "midi": 54,
                    "name": "F#3",
                    "ticks": 111540,
                    "time": 369.21386450000006,
                    "velocity": 1
                },
                {
                    "duration": 0.21428550000001678,
                    "durationTicks": 60,
                    "midi": 61,
                    "name": "C#4",
                    "ticks": 111540,
                    "time": 369.21386450000006,
                    "velocity": 1
                },
                {
                    "duration": 0.21428549999995994,
                    "durationTicks": 60,
                    "midi": 57,
                    "name": "A3",
                    "ticks": 111600,
                    "time": 369.4281500000001,
                    "velocity": 1
                },
                {
                    "duration": 0.21428549999995994,
                    "durationTicks": 60,
                    "midi": 50,
                    "name": "D3",
                    "ticks": 111600,
                    "time": 369.4281500000001,
                    "velocity": 1
                },
                {
                    "duration": 0.21428550000001678,
                    "durationTicks": 60,
                    "midi": 40,
                    "name": "E2",
                    "ticks": 111660,
                    "time": 369.64243550000003,
                    "velocity": 1
                },
                {
                    "duration": 0.21428550000001678,
                    "durationTicks": 60,
                    "midi": 40,
                    "name": "E2",
                    "ticks": 111720,
                    "time": 369.85672100000005,
                    "velocity": 1
                },
                {
                    "duration": 0.21428549999995994,
                    "durationTicks": 60,
                    "midi": 50,
                    "name": "D3",
                    "ticks": 111780,
                    "time": 370.07100650000007,
                    "velocity": 1
                },
                {
                    "duration": 0.21428549999995994,
                    "durationTicks": 60,
                    "midi": 57,
                    "name": "A3",
                    "ticks": 111780,
                    "time": 370.07100650000007,
                    "velocity": 1
                },
                {
                    "duration": 0.21428550000001678,
                    "durationTicks": 60,
                    "midi": 47,
                    "name": "B2",
                    "ticks": 111840,
                    "time": 370.285292,
                    "velocity": 1
                },
                {
                    "duration": 0.21428550000001678,
                    "durationTicks": 60,
                    "midi": 40,
                    "name": "E2",
                    "ticks": 111840,
                    "time": 370.285292,
                    "velocity": 1
                },
                {
                    "duration": 0.21428550000001678,
                    "durationTicks": 60,
                    "midi": 40,
                    "name": "E2",
                    "ticks": 111900,
                    "time": 370.49957750000004,
                    "velocity": 1
                },
                {
                    "duration": 0.21428549999995994,
                    "durationTicks": 60,
                    "midi": 40,
                    "name": "E2",
                    "ticks": 111960,
                    "time": 370.71386300000006,
                    "velocity": 1
                },
                {
                    "duration": 0.21428550000001678,
                    "durationTicks": 60,
                    "midi": 40,
                    "name": "E2",
                    "ticks": 112020,
                    "time": 370.9281485,
                    "velocity": 1
                },
                {
                    "duration": 0.21428550000001678,
                    "durationTicks": 60,
                    "midi": 40,
                    "name": "E2",
                    "ticks": 112080,
                    "time": 371.14243400000004,
                    "velocity": 1
                },
                {
                    "duration": 0.21428549999995994,
                    "durationTicks": 60,
                    "midi": 40,
                    "name": "E2",
                    "ticks": 112140,
                    "time": 371.35671950000005,
                    "velocity": 1
                },
                {
                    "duration": 0.21428550000001678,
                    "durationTicks": 60,
                    "midi": 40,
                    "name": "E2",
                    "ticks": 112200,
                    "time": 371.571005,
                    "velocity": 1
                },
                {
                    "duration": 0.21428550000001678,
                    "durationTicks": 60,
                    "midi": 55,
                    "name": "G3",
                    "ticks": 112260,
                    "time": 371.78529050000003,
                    "velocity": 1
                },
                {
                    "duration": 0.21428550000001678,
                    "durationTicks": 60,
                    "midi": 62,
                    "name": "D4",
                    "ticks": 112260,
                    "time": 371.78529050000003,
                    "velocity": 1
                },
                {
                    "duration": 0.21428549999995994,
                    "durationTicks": 60,
                    "midi": 61,
                    "name": "C#4",
                    "ticks": 112320,
                    "time": 371.99957600000005,
                    "velocity": 1
                },
                {
                    "duration": 0.21428549999995994,
                    "durationTicks": 60,
                    "midi": 54,
                    "name": "F#3",
                    "ticks": 112320,
                    "time": 371.99957600000005,
                    "velocity": 1
                },
                {
                    "duration": 0.21428550000001678,
                    "durationTicks": 60,
                    "midi": 40,
                    "name": "E2",
                    "ticks": 112380,
                    "time": 372.2138615,
                    "velocity": 1
                },
                {
                    "duration": 0.21428550000001678,
                    "durationTicks": 60,
                    "midi": 40,
                    "name": "E2",
                    "ticks": 112440,
                    "time": 372.428147,
                    "velocity": 1
                },
                {
                    "duration": 0.21428550000001678,
                    "durationTicks": 60,
                    "midi": 54,
                    "name": "F#3",
                    "ticks": 112500,
                    "time": 372.64243250000004,
                    "velocity": 1
                },
                {
                    "duration": 0.21428550000001678,
                    "durationTicks": 60,
                    "midi": 61,
                    "name": "C#4",
                    "ticks": 112500,
                    "time": 372.64243250000004,
                    "velocity": 1
                },
                {
                    "duration": 0.21428549999995994,
                    "durationTicks": 60,
                    "midi": 53,
                    "name": "F3",
                    "ticks": 112560,
                    "time": 372.85671800000006,
                    "velocity": 1
                },
                {
                    "duration": 0.21428549999995994,
                    "durationTicks": 60,
                    "midi": 60,
                    "name": "C4",
                    "ticks": 112560,
                    "time": 372.85671800000006,
                    "velocity": 1
                },
                {
                    "duration": 0.21428550000001678,
                    "durationTicks": 60,
                    "midi": 40,
                    "name": "E2",
                    "ticks": 112620,
                    "time": 373.0710035,
                    "velocity": 1
                },
                {
                    "duration": 0.21428550000001678,
                    "durationTicks": 60,
                    "midi": 40,
                    "name": "E2",
                    "ticks": 112680,
                    "time": 373.28528900000003,
                    "velocity": 1
                },
                {
                    "duration": 0.21428550000001678,
                    "durationTicks": 60,
                    "midi": 60,
                    "name": "C4",
                    "ticks": 112740,
                    "time": 373.49957450000005,
                    "velocity": 1
                },
                {
                    "duration": 0.21428550000001678,
                    "durationTicks": 60,
                    "midi": 53,
                    "name": "F3",
                    "ticks": 112740,
                    "time": 373.49957450000005,
                    "velocity": 1
                },
                {
                    "duration": 0.21428549999995994,
                    "durationTicks": 60,
                    "midi": 47,
                    "name": "B2",
                    "ticks": 112800,
                    "time": 373.71386000000007,
                    "velocity": 1
                },
                {
                    "duration": 0.21428549999995994,
                    "durationTicks": 60,
                    "midi": 40,
                    "name": "E2",
                    "ticks": 112800,
                    "time": 373.71386000000007,
                    "velocity": 1
                },
                {
                    "duration": 0.21428550000001678,
                    "durationTicks": 60,
                    "midi": 40,
                    "name": "E2",
                    "ticks": 112860,
                    "time": 373.9281455,
                    "velocity": 1
                },
                {
                    "duration": 0.21428550000001678,
                    "durationTicks": 60,
                    "midi": 40,
                    "name": "E2",
                    "ticks": 112920,
                    "time": 374.14243100000004,
                    "velocity": 1
                },
                {
                    "duration": 0.21428549999995994,
                    "durationTicks": 60,
                    "midi": 40,
                    "name": "E2",
                    "ticks": 112980,
                    "time": 374.35671650000006,
                    "velocity": 1
                },
                {
                    "duration": 0.21428550000001678,
                    "durationTicks": 60,
                    "midi": 40,
                    "name": "E2",
                    "ticks": 113040,
                    "time": 374.571002,
                    "velocity": 1
                },
                {
                    "duration": 0.21428550000001678,
                    "durationTicks": 60,
                    "midi": 40,
                    "name": "E2",
                    "ticks": 113100,
                    "time": 374.78528750000004,
                    "velocity": 1
                },
                {
                    "duration": 0.21428549999995994,
                    "durationTicks": 60,
                    "midi": 40,
                    "name": "E2",
                    "ticks": 113160,
                    "time": 374.99957300000005,
                    "velocity": 1
                },
                {
                    "duration": 0.21428550000001678,
                    "durationTicks": 60,
                    "midi": 55,
                    "name": "G3",
                    "ticks": 113220,
                    "time": 375.2138585,
                    "velocity": 1
                },
                {
                    "duration": 0.21428550000001678,
                    "durationTicks": 60,
                    "midi": 62,
                    "name": "D4",
                    "ticks": 113220,
                    "time": 375.2138585,
                    "velocity": 1
                },
                {
                    "duration": 0.21428550000001678,
                    "durationTicks": 60,
                    "midi": 61,
                    "name": "C#4",
                    "ticks": 113280,
                    "time": 375.42814400000003,
                    "velocity": 1
                },
                {
                    "duration": 0.21428550000001678,
                    "durationTicks": 60,
                    "midi": 54,
                    "name": "F#3",
                    "ticks": 113280,
                    "time": 375.42814400000003,
                    "velocity": 1
                },
                {
                    "duration": 0.21428549999995994,
                    "durationTicks": 60,
                    "midi": 40,
                    "name": "E2",
                    "ticks": 113340,
                    "time": 375.64242950000005,
                    "velocity": 1
                },
                {
                    "duration": 0.21428550000001678,
                    "durationTicks": 60,
                    "midi": 40,
                    "name": "E2",
                    "ticks": 113400,
                    "time": 375.856715,
                    "velocity": 1
                },
                {
                    "duration": 0.21428550000001678,
                    "durationTicks": 60,
                    "midi": 54,
                    "name": "F#3",
                    "ticks": 113460,
                    "time": 376.0710005,
                    "velocity": 1
                },
                {
                    "duration": 0.21428550000001678,
                    "durationTicks": 60,
                    "midi": 61,
                    "name": "C#4",
                    "ticks": 113460,
                    "time": 376.0710005,
                    "velocity": 1
                },
                {
                    "duration": 0.21428550000001678,
                    "durationTicks": 60,
                    "midi": 57,
                    "name": "A3",
                    "ticks": 113520,
                    "time": 376.28528600000004,
                    "velocity": 1
                },
                {
                    "duration": 0.21428550000001678,
                    "durationTicks": 60,
                    "midi": 50,
                    "name": "D3",
                    "ticks": 113520,
                    "time": 376.28528600000004,
                    "velocity": 1
                },
                {
                    "duration": 0.21428549999995994,
                    "durationTicks": 60,
                    "midi": 40,
                    "name": "E2",
                    "ticks": 113580,
                    "time": 376.49957150000006,
                    "velocity": 1
                },
                {
                    "duration": 0.21428550000001678,
                    "durationTicks": 60,
                    "midi": 40,
                    "name": "E2",
                    "ticks": 113640,
                    "time": 376.713857,
                    "velocity": 1
                },
                {
                    "duration": 0.21428550000001678,
                    "durationTicks": 60,
                    "midi": 50,
                    "name": "D3",
                    "ticks": 113700,
                    "time": 376.92814250000004,
                    "velocity": 1
                },
                {
                    "duration": 0.21428550000001678,
                    "durationTicks": 60,
                    "midi": 57,
                    "name": "A3",
                    "ticks": 113700,
                    "time": 376.92814250000004,
                    "velocity": 1
                },
                {
                    "duration": 0.21428550000001678,
                    "durationTicks": 60,
                    "midi": 52,
                    "name": "E3",
                    "ticks": 113760,
                    "time": 377.14242800000005,
                    "velocity": 1
                },
                {
                    "duration": 0.21428550000001678,
                    "durationTicks": 60,
                    "midi": 59,
                    "name": "B3",
                    "ticks": 113760,
                    "time": 377.14242800000005,
                    "velocity": 1
                },
                {
                    "duration": 0.21428549999995994,
                    "durationTicks": 60,
                    "midi": 40,
                    "name": "E2",
                    "ticks": 113820,
                    "time": 377.35671350000007,
                    "velocity": 1
                },
                {
                    "duration": 0.21428550000001678,
                    "durationTicks": 60,
                    "midi": 40,
                    "name": "E2",
                    "ticks": 113880,
                    "time": 377.57099900000003,
                    "velocity": 1
                },
                {
                    "duration": 0.21428550000001678,
                    "durationTicks": 60,
                    "midi": 40,
                    "name": "E2",
                    "ticks": 113940,
                    "time": 377.78528450000005,
                    "velocity": 1
                },
                {
                    "duration": 0.21428549999995994,
                    "durationTicks": 60,
                    "midi": 40,
                    "name": "E2",
                    "ticks": 114000,
                    "time": 377.99957000000006,
                    "velocity": 1
                },
                {
                    "duration": 0.21428550000001678,
                    "durationTicks": 60,
                    "midi": 40,
                    "name": "E2",
                    "ticks": 114060,
                    "time": 378.2138555,
                    "velocity": 1
                },
                {
                    "duration": 0.4285709999999767,
                    "durationTicks": 120,
                    "midi": 52,
                    "name": "E3",
                    "ticks": 114120,
                    "time": 378.42814100000004,
                    "velocity": 1
                },
                {
                    "duration": 0.21428550000001678,
                    "durationTicks": 60,
                    "midi": 40,
                    "name": "E2",
                    "ticks": 114240,
                    "time": 378.856712,
                    "velocity": 1
                },
                {
                    "duration": 0.21428550000001678,
                    "durationTicks": 60,
                    "midi": 40,
                    "name": "E2",
                    "ticks": 114300,
                    "time": 379.07099750000003,
                    "velocity": 1
                },
                {
                    "duration": 0.21428549999995994,
                    "durationTicks": 60,
                    "midi": 47,
                    "name": "B2",
                    "ticks": 114360,
                    "time": 379.28528300000005,
                    "velocity": 1
                },
                {
                    "duration": 0.21428549999995994,
                    "durationTicks": 60,
                    "midi": 40,
                    "name": "E2",
                    "ticks": 114360,
                    "time": 379.28528300000005,
                    "velocity": 1
                },
                {
                    "duration": 0.21428550000001678,
                    "durationTicks": 60,
                    "midi": 40,
                    "name": "E2",
                    "ticks": 114420,
                    "time": 379.4995685,
                    "velocity": 1
                },
                {
                    "duration": 0.21428550000001678,
                    "durationTicks": 60,
                    "midi": 40,
                    "name": "E2",
                    "ticks": 114480,
                    "time": 379.713854,
                    "velocity": 1
                },
                {
                    "duration": 0.21428549999995994,
                    "durationTicks": 60,
                    "midi": 50,
                    "name": "D3",
                    "ticks": 114540,
                    "time": 379.92813950000004,
                    "velocity": 1
                },
                {
                    "duration": 0.21428549999995994,
                    "durationTicks": 60,
                    "midi": 43,
                    "name": "G2",
                    "ticks": 114540,
                    "time": 379.92813950000004,
                    "velocity": 1
                },
                {
                    "duration": 0.21428550000007363,
                    "durationTicks": 60,
                    "midi": 40,
                    "name": "E2",
                    "ticks": 114600,
                    "time": 380.142425,
                    "velocity": 1
                },
                {
                    "duration": 0.21428549999995994,
                    "durationTicks": 60,
                    "midi": 40,
                    "name": "E2",
                    "ticks": 114660,
                    "time": 380.3567105000001,
                    "velocity": 1
                },
                {
                    "duration": 0.21428550000001678,
                    "durationTicks": 60,
                    "midi": 49,
                    "name": "C#3",
                    "ticks": 114720,
                    "time": 380.57099600000004,
                    "velocity": 1
                },
                {
                    "duration": 0.21428550000001678,
                    "durationTicks": 60,
                    "midi": 42,
                    "name": "F#2",
                    "ticks": 114720,
                    "time": 380.57099600000004,
                    "velocity": 1
                },
                {
                    "duration": 0.21428550000001678,
                    "durationTicks": 60,
                    "midi": 40,
                    "name": "E2",
                    "ticks": 114780,
                    "time": 380.78528150000005,
                    "velocity": 1
                },
                {
                    "duration": 0.21428549999995994,
                    "durationTicks": 60,
                    "midi": 40,
                    "name": "E2",
                    "ticks": 114840,
                    "time": 380.99956700000007,
                    "velocity": 1
                },
                {
                    "duration": 0.21428550000001678,
                    "durationTicks": 60,
                    "midi": 50,
                    "name": "D3",
                    "ticks": 114900,
                    "time": 381.21385250000003,
                    "velocity": 1
                },
                {
                    "duration": 0.21428550000001678,
                    "durationTicks": 60,
                    "midi": 43,
                    "name": "G2",
                    "ticks": 114900,
                    "time": 381.21385250000003,
                    "velocity": 1
                },
                {
                    "duration": 0.21428550000001678,
                    "durationTicks": 60,
                    "midi": 40,
                    "name": "E2",
                    "ticks": 114960,
                    "time": 381.42813800000005,
                    "velocity": 1
                },
                {
                    "duration": 0.21428549999995994,
                    "durationTicks": 60,
                    "midi": 40,
                    "name": "E2",
                    "ticks": 115020,
                    "time": 381.64242350000006,
                    "velocity": 1
                },
                {
                    "duration": 0.21428550000001678,
                    "durationTicks": 60,
                    "midi": 52,
                    "name": "E3",
                    "ticks": 115080,
                    "time": 381.856709,
                    "velocity": 1
                },
                {
                    "duration": 0.21428550000001678,
                    "durationTicks": 60,
                    "midi": 45,
                    "name": "A2",
                    "ticks": 115080,
                    "time": 381.856709,
                    "velocity": 1
                },
                {
                    "duration": 0.21428550000001678,
                    "durationTicks": 60,
                    "midi": 43,
                    "name": "G2",
                    "ticks": 115140,
                    "time": 382.07099450000004,
                    "velocity": 1
                },
                {
                    "duration": 0.21428550000001678,
                    "durationTicks": 60,
                    "midi": 50,
                    "name": "D3",
                    "ticks": 115140,
                    "time": 382.07099450000004,
                    "velocity": 1
                },
                {
                    "duration": 0.21428549999995994,
                    "durationTicks": 60,
                    "midi": 40,
                    "name": "E2",
                    "ticks": 115200,
                    "time": 382.28528000000006,
                    "velocity": 1
                },
                {
                    "duration": 0.21428550000001678,
                    "durationTicks": 60,
                    "midi": 40,
                    "name": "E2",
                    "ticks": 115260,
                    "time": 382.4995655,
                    "velocity": 1
                },
                {
                    "duration": 0.21428550000001678,
                    "durationTicks": 60,
                    "midi": 47,
                    "name": "B2",
                    "ticks": 115320,
                    "time": 382.71385100000003,
                    "velocity": 1
                },
                {
                    "duration": 0.21428550000001678,
                    "durationTicks": 60,
                    "midi": 40,
                    "name": "E2",
                    "ticks": 115320,
                    "time": 382.71385100000003,
                    "velocity": 1
                },
                {
                    "duration": 0.21428549999995994,
                    "durationTicks": 60,
                    "midi": 40,
                    "name": "E2",
                    "ticks": 115380,
                    "time": 382.92813650000005,
                    "velocity": 1
                },
                {
                    "duration": 0.21428550000001678,
                    "durationTicks": 60,
                    "midi": 40,
                    "name": "E2",
                    "ticks": 115440,
                    "time": 383.142422,
                    "velocity": 1
                },
                {
                    "duration": 0.21428550000001678,
                    "durationTicks": 60,
                    "midi": 50,
                    "name": "D3",
                    "ticks": 115500,
                    "time": 383.3567075,
                    "velocity": 1
                },
                {
                    "duration": 0.21428550000001678,
                    "durationTicks": 60,
                    "midi": 43,
                    "name": "G2",
                    "ticks": 115500,
                    "time": 383.3567075,
                    "velocity": 1
                },
                {
                    "duration": 0.21428549999995994,
                    "durationTicks": 60,
                    "midi": 40,
                    "name": "E2",
                    "ticks": 115560,
                    "time": 383.57099300000004,
                    "velocity": 1
                },
                {
                    "duration": 0.21428550000007363,
                    "durationTicks": 60,
                    "midi": 40,
                    "name": "E2",
                    "ticks": 115620,
                    "time": 383.7852785,
                    "velocity": 1
                },
                {
                    "duration": 0.21428549999995994,
                    "durationTicks": 60,
                    "midi": 49,
                    "name": "C#3",
                    "ticks": 115680,
                    "time": 383.9995640000001,
                    "velocity": 1
                },
                {
                    "duration": 0.21428549999995994,
                    "durationTicks": 60,
                    "midi": 42,
                    "name": "F#2",
                    "ticks": 115680,
                    "time": 383.9995640000001,
                    "velocity": 1
                },
                {
                    "duration": 0.21428549999995994,
                    "durationTicks": 60,
                    "midi": 40,
                    "name": "E2",
                    "ticks": 115740,
                    "time": 384.21384950000004,
                    "velocity": 1
                },
                {
                    "duration": 0.21428550000007363,
                    "durationTicks": 60,
                    "midi": 40,
                    "name": "E2",
                    "ticks": 115800,
                    "time": 384.428135,
                    "velocity": 1
                },
                {
                    "duration": 0.21428549999995994,
                    "durationTicks": 60,
                    "midi": 50,
                    "name": "D3",
                    "ticks": 115860,
                    "time": 384.64242050000007,
                    "velocity": 1
                },
                {
                    "duration": 0.21428549999995994,
                    "durationTicks": 60,
                    "midi": 43,
                    "name": "G2",
                    "ticks": 115860,
                    "time": 384.64242050000007,
                    "velocity": 1
                },
                {
                    "duration": 0.21428550000001678,
                    "durationTicks": 60,
                    "midi": 40,
                    "name": "E2",
                    "ticks": 115920,
                    "time": 384.85670600000003,
                    "velocity": 1
                },
                {
                    "duration": 0.21428550000001678,
                    "durationTicks": 60,
                    "midi": 40,
                    "name": "E2",
                    "ticks": 115980,
                    "time": 385.07099150000005,
                    "velocity": 1
                },
                {
                    "duration": 0.21428549999995994,
                    "durationTicks": 60,
                    "midi": 52,
                    "name": "E3",
                    "ticks": 116040,
                    "time": 385.28527700000006,
                    "velocity": 1
                },
                {
                    "duration": 0.21428549999995994,
                    "durationTicks": 60,
                    "midi": 45,
                    "name": "A2",
                    "ticks": 116040,
                    "time": 385.28527700000006,
                    "velocity": 1
                },
                {
                    "duration": 0.21428550000001678,
                    "durationTicks": 60,
                    "midi": 43,
                    "name": "G2",
                    "ticks": 116100,
                    "time": 385.4995625,
                    "velocity": 1
                },
                {
                    "duration": 0.21428550000001678,
                    "durationTicks": 60,
                    "midi": 50,
                    "name": "D3",
                    "ticks": 116100,
                    "time": 385.4995625,
                    "velocity": 1
                },
                {
                    "duration": 0.21428550000001678,
                    "durationTicks": 60,
                    "midi": 40,
                    "name": "E2",
                    "ticks": 116160,
                    "time": 385.71384800000004,
                    "velocity": 1
                },
                {
                    "duration": 0.21428549999995994,
                    "durationTicks": 60,
                    "midi": 40,
                    "name": "E2",
                    "ticks": 116220,
                    "time": 385.92813350000006,
                    "velocity": 1
                },
                {
                    "duration": 0.21428550000001678,
                    "durationTicks": 60,
                    "midi": 47,
                    "name": "B2",
                    "ticks": 116280,
                    "time": 386.142419,
                    "velocity": 1
                },
                {
                    "duration": 0.21428550000001678,
                    "durationTicks": 60,
                    "midi": 40,
                    "name": "E2",
                    "ticks": 116280,
                    "time": 386.142419,
                    "velocity": 1
                },
                {
                    "duration": 0.21428550000001678,
                    "durationTicks": 60,
                    "midi": 40,
                    "name": "E2",
                    "ticks": 116340,
                    "time": 386.35670450000003,
                    "velocity": 1
                },
                {
                    "duration": 0.21428549999995994,
                    "durationTicks": 60,
                    "midi": 40,
                    "name": "E2",
                    "ticks": 116400,
                    "time": 386.57099000000005,
                    "velocity": 1
                },
                {
                    "duration": 0.21428550000001678,
                    "durationTicks": 60,
                    "midi": 50,
                    "name": "D3",
                    "ticks": 116460,
                    "time": 386.7852755,
                    "velocity": 1
                },
                {
                    "duration": 0.21428550000001678,
                    "durationTicks": 60,
                    "midi": 43,
                    "name": "G2",
                    "ticks": 116460,
                    "time": 386.7852755,
                    "velocity": 1
                },
                {
                    "duration": 0.21428550000001678,
                    "durationTicks": 60,
                    "midi": 40,
                    "name": "E2",
                    "ticks": 116520,
                    "time": 386.999561,
                    "velocity": 1
                },
                {
                    "duration": 0.21428549999995994,
                    "durationTicks": 60,
                    "midi": 40,
                    "name": "E2",
                    "ticks": 116580,
                    "time": 387.21384650000005,
                    "velocity": 1
                },
                {
                    "duration": 0.21428550000007363,
                    "durationTicks": 60,
                    "midi": 49,
                    "name": "C#3",
                    "ticks": 116640,
                    "time": 387.428132,
                    "velocity": 1
                },
                {
                    "duration": 0.21428550000007363,
                    "durationTicks": 60,
                    "midi": 42,
                    "name": "F#2",
                    "ticks": 116640,
                    "time": 387.428132,
                    "velocity": 1
                },
                {
                    "duration": 0.21428549999995994,
                    "durationTicks": 60,
                    "midi": 40,
                    "name": "E2",
                    "ticks": 116700,
                    "time": 387.6424175000001,
                    "velocity": 1
                },
                {
                    "duration": 0.21428549999995994,
                    "durationTicks": 60,
                    "midi": 40,
                    "name": "E2",
                    "ticks": 116760,
                    "time": 387.85670300000004,
                    "velocity": 1
                },
                {
                    "duration": 0.21428550000007363,
                    "durationTicks": 60,
                    "midi": 50,
                    "name": "D3",
                    "ticks": 116820,
                    "time": 388.0709885,
                    "velocity": 1
                },
                {
                    "duration": 0.21428550000007363,
                    "durationTicks": 60,
                    "midi": 43,
                    "name": "G2",
                    "ticks": 116820,
                    "time": 388.0709885,
                    "velocity": 1
                },
                {
                    "duration": 0.21428549999995994,
                    "durationTicks": 60,
                    "midi": 40,
                    "name": "E2",
                    "ticks": 116880,
                    "time": 388.2852740000001,
                    "velocity": 1
                },
                {
                    "duration": 0.21428550000001678,
                    "durationTicks": 60,
                    "midi": 40,
                    "name": "E2",
                    "ticks": 116940,
                    "time": 388.49955950000003,
                    "velocity": 1
                },
                {
                    "duration": 0.21428550000001678,
                    "durationTicks": 60,
                    "midi": 52,
                    "name": "E3",
                    "ticks": 117000,
                    "time": 388.71384500000005,
                    "velocity": 1
                },
                {
                    "duration": 0.21428550000001678,
                    "durationTicks": 60,
                    "midi": 45,
                    "name": "A2",
                    "ticks": 117000,
                    "time": 388.71384500000005,
                    "velocity": 1
                },
                {
                    "duration": 0.21428549999995994,
                    "durationTicks": 60,
                    "midi": 43,
                    "name": "G2",
                    "ticks": 117060,
                    "time": 388.92813050000007,
                    "velocity": 1
                },
                {
                    "duration": 0.21428549999995994,
                    "durationTicks": 60,
                    "midi": 50,
                    "name": "D3",
                    "ticks": 117060,
                    "time": 388.92813050000007,
                    "velocity": 1
                },
                {
                    "duration": 0.21428550000001678,
                    "durationTicks": 60,
                    "midi": 40,
                    "name": "E2",
                    "ticks": 117120,
                    "time": 389.142416,
                    "velocity": 1
                },
                {
                    "duration": 0.21428550000001678,
                    "durationTicks": 60,
                    "midi": 40,
                    "name": "E2",
                    "ticks": 117180,
                    "time": 389.35670150000004,
                    "velocity": 1
                },
                {
                    "duration": 0.21428549999995994,
                    "durationTicks": 60,
                    "midi": 47,
                    "name": "B2",
                    "ticks": 117240,
                    "time": 389.57098700000006,
                    "velocity": 1
                },
                {
                    "duration": 0.21428549999995994,
                    "durationTicks": 60,
                    "midi": 40,
                    "name": "E2",
                    "ticks": 117240,
                    "time": 389.57098700000006,
                    "velocity": 1
                },
                {
                    "duration": 0.21428550000001678,
                    "durationTicks": 60,
                    "midi": 40,
                    "name": "E2",
                    "ticks": 117300,
                    "time": 389.7852725,
                    "velocity": 1
                },
                {
                    "duration": 0.21428550000001678,
                    "durationTicks": 60,
                    "midi": 40,
                    "name": "E2",
                    "ticks": 117360,
                    "time": 389.99955800000004,
                    "velocity": 1
                },
                {
                    "duration": 0.21428549999995994,
                    "durationTicks": 60,
                    "midi": 50,
                    "name": "D3",
                    "ticks": 117420,
                    "time": 390.21384350000005,
                    "velocity": 1
                },
                {
                    "duration": 0.21428549999995994,
                    "durationTicks": 60,
                    "midi": 43,
                    "name": "G2",
                    "ticks": 117420,
                    "time": 390.21384350000005,
                    "velocity": 1
                },
                {
                    "duration": 0.21428550000001678,
                    "durationTicks": 60,
                    "midi": 40,
                    "name": "E2",
                    "ticks": 117480,
                    "time": 390.428129,
                    "velocity": 1
                },
                {
                    "duration": 0.21428550000001678,
                    "durationTicks": 60,
                    "midi": 40,
                    "name": "E2",
                    "ticks": 117540,
                    "time": 390.64241450000003,
                    "velocity": 1
                },
                {
                    "duration": 0.21428549999995994,
                    "durationTicks": 60,
                    "midi": 49,
                    "name": "C#3",
                    "ticks": 117600,
                    "time": 390.85670000000005,
                    "velocity": 1
                },
                {
                    "duration": 0.21428549999995994,
                    "durationTicks": 60,
                    "midi": 42,
                    "name": "F#2",
                    "ticks": 117600,
                    "time": 390.85670000000005,
                    "velocity": 1
                },
                {
                    "duration": 0.21428550000007363,
                    "durationTicks": 60,
                    "midi": 40,
                    "name": "E2",
                    "ticks": 117660,
                    "time": 391.0709855,
                    "velocity": 1
                },
                {
                    "duration": 0.21428549999995994,
                    "durationTicks": 60,
                    "midi": 40,
                    "name": "E2",
                    "ticks": 117720,
                    "time": 391.2852710000001,
                    "velocity": 1
                },
                {
                    "duration": 0.21428549999995994,
                    "durationTicks": 60,
                    "midi": 50,
                    "name": "D3",
                    "ticks": 117780,
                    "time": 391.49955650000004,
                    "velocity": 1
                },
                {
                    "duration": 0.21428549999995994,
                    "durationTicks": 60,
                    "midi": 43,
                    "name": "G2",
                    "ticks": 117780,
                    "time": 391.49955650000004,
                    "velocity": 1
                },
                {
                    "duration": 0.21428550000007363,
                    "durationTicks": 60,
                    "midi": 40,
                    "name": "E2",
                    "ticks": 117840,
                    "time": 391.713842,
                    "velocity": 1
                },
                {
                    "duration": 0.21428549999995994,
                    "durationTicks": 60,
                    "midi": 40,
                    "name": "E2",
                    "ticks": 117900,
                    "time": 391.9281275000001,
                    "velocity": 1
                },
                {
                    "duration": 0.21428550000001678,
                    "durationTicks": 60,
                    "midi": 52,
                    "name": "E3",
                    "ticks": 117960,
                    "time": 392.14241300000003,
                    "velocity": 1
                },
                {
                    "duration": 0.21428550000001678,
                    "durationTicks": 60,
                    "midi": 45,
                    "name": "A2",
                    "ticks": 117960,
                    "time": 392.14241300000003,
                    "velocity": 1
                },
                {
                    "duration": 0.21428550000001678,
                    "durationTicks": 60,
                    "midi": 43,
                    "name": "G2",
                    "ticks": 118020,
                    "time": 392.35669850000005,
                    "velocity": 1
                },
                {
                    "duration": 0.21428550000001678,
                    "durationTicks": 60,
                    "midi": 50,
                    "name": "D3",
                    "ticks": 118020,
                    "time": 392.35669850000005,
                    "velocity": 1
                },
                {
                    "duration": 0.21428549999995994,
                    "durationTicks": 60,
                    "midi": 40,
                    "name": "E2",
                    "ticks": 118080,
                    "time": 392.57098400000007,
                    "velocity": 1
                },
                {
                    "duration": 0.21428550000001678,
                    "durationTicks": 60,
                    "midi": 40,
                    "name": "E2",
                    "ticks": 118140,
                    "time": 392.7852695,
                    "velocity": 1
                },
                {
                    "duration": 0.21428550000001678,
                    "durationTicks": 60,
                    "midi": 47,
                    "name": "B2",
                    "ticks": 118200,
                    "time": 392.99955500000004,
                    "velocity": 1
                },
                {
                    "duration": 0.21428550000001678,
                    "durationTicks": 60,
                    "midi": 40,
                    "name": "E2",
                    "ticks": 118200,
                    "time": 392.99955500000004,
                    "velocity": 1
                },
                {
                    "duration": 0.21428549999995994,
                    "durationTicks": 60,
                    "midi": 40,
                    "name": "E2",
                    "ticks": 118260,
                    "time": 393.21384050000006,
                    "velocity": 1
                },
                {
                    "duration": 0.21428550000001678,
                    "durationTicks": 60,
                    "midi": 40,
                    "name": "E2",
                    "ticks": 118320,
                    "time": 393.428126,
                    "velocity": 1
                },
                {
                    "duration": 0.21428550000001678,
                    "durationTicks": 60,
                    "midi": 50,
                    "name": "D3",
                    "ticks": 118380,
                    "time": 393.64241150000004,
                    "velocity": 1
                },
                {
                    "duration": 0.21428550000001678,
                    "durationTicks": 60,
                    "midi": 43,
                    "name": "G2",
                    "ticks": 118380,
                    "time": 393.64241150000004,
                    "velocity": 1
                },
                {
                    "duration": 0.21428549999995994,
                    "durationTicks": 60,
                    "midi": 40,
                    "name": "E2",
                    "ticks": 118440,
                    "time": 393.85669700000005,
                    "velocity": 1
                },
                {
                    "duration": 0.21428550000001678,
                    "durationTicks": 60,
                    "midi": 40,
                    "name": "E2",
                    "ticks": 118500,
                    "time": 394.0709825,
                    "velocity": 1
                },
                {
                    "duration": 0.21428550000001678,
                    "durationTicks": 60,
                    "midi": 49,
                    "name": "C#3",
                    "ticks": 118560,
                    "time": 394.28526800000003,
                    "velocity": 1
                },
                {
                    "duration": 0.21428550000001678,
                    "durationTicks": 60,
                    "midi": 42,
                    "name": "F#2",
                    "ticks": 118560,
                    "time": 394.28526800000003,
                    "velocity": 1
                },
                {
                    "duration": 0.21428549999995994,
                    "durationTicks": 60,
                    "midi": 40,
                    "name": "E2",
                    "ticks": 118620,
                    "time": 394.49955350000005,
                    "velocity": 1
                },
                {
                    "duration": 0.21428550000007363,
                    "durationTicks": 60,
                    "midi": 40,
                    "name": "E2",
                    "ticks": 118680,
                    "time": 394.713839,
                    "velocity": 1
                },
                {
                    "duration": 0.21428549999995994,
                    "durationTicks": 60,
                    "midi": 50,
                    "name": "D3",
                    "ticks": 118740,
                    "time": 394.9281245000001,
                    "velocity": 1
                },
                {
                    "duration": 0.21428549999995994,
                    "durationTicks": 60,
                    "midi": 43,
                    "name": "G2",
                    "ticks": 118740,
                    "time": 394.9281245000001,
                    "velocity": 1
                },
                {
                    "duration": 0.21428549999995994,
                    "durationTicks": 60,
                    "midi": 40,
                    "name": "E2",
                    "ticks": 118800,
                    "time": 395.14241000000004,
                    "velocity": 1
                },
                {
                    "duration": 0.21428550000007363,
                    "durationTicks": 60,
                    "midi": 40,
                    "name": "E2",
                    "ticks": 118860,
                    "time": 395.3566955,
                    "velocity": 1
                },
                {
                    "duration": 0.21428549999995994,
                    "durationTicks": 60,
                    "midi": 52,
                    "name": "E3",
                    "ticks": 118920,
                    "time": 395.5709810000001,
                    "velocity": 1
                },
                {
                    "duration": 0.21428549999995994,
                    "durationTicks": 60,
                    "midi": 45,
                    "name": "A2",
                    "ticks": 118920,
                    "time": 395.5709810000001,
                    "velocity": 1
                },
                {
                    "duration": 0.21428550000001678,
                    "durationTicks": 60,
                    "midi": 43,
                    "name": "G2",
                    "ticks": 118980,
                    "time": 395.78526650000003,
                    "velocity": 1
                },
                {
                    "duration": 0.21428550000001678,
                    "durationTicks": 60,
                    "midi": 50,
                    "name": "D3",
                    "ticks": 118980,
                    "time": 395.78526650000003,
                    "velocity": 1
                },
                {
                    "duration": 0.21428550000001678,
                    "durationTicks": 60,
                    "midi": 40,
                    "name": "E2",
                    "ticks": 119040,
                    "time": 395.99955200000005,
                    "velocity": 1
                },
                {
                    "duration": 0.21428549999995994,
                    "durationTicks": 60,
                    "midi": 40,
                    "name": "E2",
                    "ticks": 119100,
                    "time": 396.21383750000007,
                    "velocity": 1
                },
                {
                    "duration": 0.21428550000001678,
                    "durationTicks": 60,
                    "midi": 47,
                    "name": "B2",
                    "ticks": 119160,
                    "time": 396.428123,
                    "velocity": 1
                },
                {
                    "duration": 0.21428550000001678,
                    "durationTicks": 60,
                    "midi": 40,
                    "name": "E2",
                    "ticks": 119160,
                    "time": 396.428123,
                    "velocity": 1
                },
                {
                    "duration": 0.21428550000001678,
                    "durationTicks": 60,
                    "midi": 40,
                    "name": "E2",
                    "ticks": 119220,
                    "time": 396.64240850000004,
                    "velocity": 1
                },
                {
                    "duration": 0.21428549999995994,
                    "durationTicks": 60,
                    "midi": 40,
                    "name": "E2",
                    "ticks": 119280,
                    "time": 396.85669400000006,
                    "velocity": 1
                },
                {
                    "duration": 0.21428550000001678,
                    "durationTicks": 60,
                    "midi": 50,
                    "name": "D3",
                    "ticks": 119340,
                    "time": 397.0709795,
                    "velocity": 1
                },
                {
                    "duration": 0.21428550000001678,
                    "durationTicks": 60,
                    "midi": 43,
                    "name": "G2",
                    "ticks": 119340,
                    "time": 397.0709795,
                    "velocity": 1
                },
                {
                    "duration": 0.21428550000001678,
                    "durationTicks": 60,
                    "midi": 40,
                    "name": "E2",
                    "ticks": 119400,
                    "time": 397.28526500000004,
                    "velocity": 1
                },
                {
                    "duration": 0.21428549999995994,
                    "durationTicks": 60,
                    "midi": 40,
                    "name": "E2",
                    "ticks": 119460,
                    "time": 397.49955050000005,
                    "velocity": 1
                },
                {
                    "duration": 0.21428550000001678,
                    "durationTicks": 60,
                    "midi": 49,
                    "name": "C#3",
                    "ticks": 119520,
                    "time": 397.713836,
                    "velocity": 1
                },
                {
                    "duration": 0.21428550000001678,
                    "durationTicks": 60,
                    "midi": 42,
                    "name": "F#2",
                    "ticks": 119520,
                    "time": 397.713836,
                    "velocity": 1
                },
                {
                    "duration": 0.21428550000001678,
                    "durationTicks": 60,
                    "midi": 40,
                    "name": "E2",
                    "ticks": 119580,
                    "time": 397.92812150000003,
                    "velocity": 1
                },
                {
                    "duration": 0.21428549999995994,
                    "durationTicks": 60,
                    "midi": 40,
                    "name": "E2",
                    "ticks": 119640,
                    "time": 398.14240700000005,
                    "velocity": 1
                },
                {
                    "duration": 0.21428550000007363,
                    "durationTicks": 60,
                    "midi": 50,
                    "name": "D3",
                    "ticks": 119700,
                    "time": 398.3566925,
                    "velocity": 1
                },
                {
                    "duration": 0.21428550000007363,
                    "durationTicks": 60,
                    "midi": 43,
                    "name": "G2",
                    "ticks": 119700,
                    "time": 398.3566925,
                    "velocity": 1
                },
                {
                    "duration": 0.21428549999995994,
                    "durationTicks": 60,
                    "midi": 40,
                    "name": "E2",
                    "ticks": 119760,
                    "time": 398.5709780000001,
                    "velocity": 1
                },
                {
                    "duration": 0.21428549999995994,
                    "durationTicks": 60,
                    "midi": 40,
                    "name": "E2",
                    "ticks": 119820,
                    "time": 398.78526350000004,
                    "velocity": 1
                },
                {
                    "duration": 0.21428550000007363,
                    "durationTicks": 60,
                    "midi": 52,
                    "name": "E3",
                    "ticks": 119880,
                    "time": 398.999549,
                    "velocity": 1
                },
                {
                    "duration": 0.21428550000007363,
                    "durationTicks": 60,
                    "midi": 45,
                    "name": "A2",
                    "ticks": 119880,
                    "time": 398.999549,
                    "velocity": 1
                },
                {
                    "duration": 0.21428549999995994,
                    "durationTicks": 60,
                    "midi": 43,
                    "name": "G2",
                    "ticks": 119940,
                    "time": 399.2138345000001,
                    "velocity": 1
                },
                {
                    "duration": 0.21428549999995994,
                    "durationTicks": 60,
                    "midi": 50,
                    "name": "D3",
                    "ticks": 119940,
                    "time": 399.2138345000001,
                    "velocity": 1
                },
                {
                    "duration": 0.21428550000001678,
                    "durationTicks": 60,
                    "midi": 40,
                    "name": "E2",
                    "ticks": 120000,
                    "time": 399.42812000000004,
                    "velocity": 1
                },
                {
                    "duration": 0.21428550000001678,
                    "durationTicks": 60,
                    "midi": 40,
                    "name": "E2",
                    "ticks": 120060,
                    "time": 399.64240550000005,
                    "velocity": 1
                },
                {
                    "duration": 0.21428549999995994,
                    "durationTicks": 60,
                    "midi": 47,
                    "name": "B2",
                    "ticks": 120120,
                    "time": 399.85669100000007,
                    "velocity": 1
                },
                {
                    "duration": 0.21428549999995994,
                    "durationTicks": 60,
                    "midi": 40,
                    "name": "E2",
                    "ticks": 120120,
                    "time": 399.85669100000007,
                    "velocity": 1
                },
                {
                    "duration": 0.21428550000001678,
                    "durationTicks": 60,
                    "midi": 40,
                    "name": "E2",
                    "ticks": 120180,
                    "time": 400.07097650000003,
                    "velocity": 1
                },
                {
                    "duration": 0.21428550000001678,
                    "durationTicks": 60,
                    "midi": 40,
                    "name": "E2",
                    "ticks": 120240,
                    "time": 400.28526200000005,
                    "velocity": 1
                },
                {
                    "duration": 0.21428549999995994,
                    "durationTicks": 60,
                    "midi": 50,
                    "name": "D3",
                    "ticks": 120300,
                    "time": 400.49954750000006,
                    "velocity": 1
                },
                {
                    "duration": 0.21428549999995994,
                    "durationTicks": 60,
                    "midi": 43,
                    "name": "G2",
                    "ticks": 120300,
                    "time": 400.49954750000006,
                    "velocity": 1
                },
                {
                    "duration": 0.21428550000001678,
                    "durationTicks": 60,
                    "midi": 40,
                    "name": "E2",
                    "ticks": 120360,
                    "time": 400.713833,
                    "velocity": 1
                },
                {
                    "duration": 0.21428550000001678,
                    "durationTicks": 60,
                    "midi": 40,
                    "name": "E2",
                    "ticks": 120420,
                    "time": 400.92811850000004,
                    "velocity": 1
                },
                {
                    "duration": 0.21428549999995994,
                    "durationTicks": 60,
                    "midi": 49,
                    "name": "C#3",
                    "ticks": 120480,
                    "time": 401.14240400000006,
                    "velocity": 1
                },
                {
                    "duration": 0.21428549999995994,
                    "durationTicks": 60,
                    "midi": 42,
                    "name": "F#2",
                    "ticks": 120480,
                    "time": 401.14240400000006,
                    "velocity": 1
                },
                {
                    "duration": 0.21428550000001678,
                    "durationTicks": 60,
                    "midi": 40,
                    "name": "E2",
                    "ticks": 120540,
                    "time": 401.3566895,
                    "velocity": 1
                },
                {
                    "duration": 0.21428550000001678,
                    "durationTicks": 60,
                    "midi": 40,
                    "name": "E2",
                    "ticks": 120600,
                    "time": 401.57097500000003,
                    "velocity": 1
                },
                {
                    "duration": 0.21428549999995994,
                    "durationTicks": 60,
                    "midi": 50,
                    "name": "D3",
                    "ticks": 120660,
                    "time": 401.78526050000005,
                    "velocity": 1
                },
                {
                    "duration": 0.21428549999995994,
                    "durationTicks": 60,
                    "midi": 43,
                    "name": "G2",
                    "ticks": 120660,
                    "time": 401.78526050000005,
                    "velocity": 1
                },
                {
                    "duration": 0.21428550000007363,
                    "durationTicks": 60,
                    "midi": 40,
                    "name": "E2",
                    "ticks": 120720,
                    "time": 401.999546,
                    "velocity": 1
                },
                {
                    "duration": 0.21428549999995994,
                    "durationTicks": 60,
                    "midi": 40,
                    "name": "E2",
                    "ticks": 120780,
                    "time": 402.2138315000001,
                    "velocity": 1
                },
                {
                    "duration": 0.21428549999995994,
                    "durationTicks": 60,
                    "midi": 52,
                    "name": "E3",
                    "ticks": 120840,
                    "time": 402.42811700000004,
                    "velocity": 1
                },
                {
                    "duration": 0.21428549999995994,
                    "durationTicks": 60,
                    "midi": 45,
                    "name": "A2",
                    "ticks": 120840,
                    "time": 402.42811700000004,
                    "velocity": 1
                },
                {
                    "duration": 0.21428550000007363,
                    "durationTicks": 60,
                    "midi": 43,
                    "name": "G2",
                    "ticks": 120900,
                    "time": 402.6424025,
                    "velocity": 1
                },
                {
                    "duration": 0.21428550000007363,
                    "durationTicks": 60,
                    "midi": 50,
                    "name": "D3",
                    "ticks": 120900,
                    "time": 402.6424025,
                    "velocity": 1
                },
                {
                    "duration": 0.21428549999995994,
                    "durationTicks": 60,
                    "midi": 40,
                    "name": "E2",
                    "ticks": 120960,
                    "time": 402.8566880000001,
                    "velocity": 1
                },
                {
                    "duration": 0.21428550000001678,
                    "durationTicks": 60,
                    "midi": 40,
                    "name": "E2",
                    "ticks": 121020,
                    "time": 403.07097350000004,
                    "velocity": 1
                },
                {
                    "duration": 0.21428550000001678,
                    "durationTicks": 60,
                    "midi": 47,
                    "name": "B2",
                    "ticks": 121080,
                    "time": 403.28525900000005,
                    "velocity": 1
                },
                {
                    "duration": 0.21428550000001678,
                    "durationTicks": 60,
                    "midi": 40,
                    "name": "E2",
                    "ticks": 121080,
                    "time": 403.28525900000005,
                    "velocity": 1
                },
                {
                    "duration": 0.21428549999995994,
                    "durationTicks": 60,
                    "midi": 40,
                    "name": "E2",
                    "ticks": 121140,
                    "time": 403.49954450000007,
                    "velocity": 1
                },
                {
                    "duration": 0.21428550000001678,
                    "durationTicks": 60,
                    "midi": 40,
                    "name": "E2",
                    "ticks": 121200,
                    "time": 403.71383000000003,
                    "velocity": 1
                },
                {
                    "duration": 0.21428550000001678,
                    "durationTicks": 60,
                    "midi": 50,
                    "name": "D3",
                    "ticks": 121260,
                    "time": 403.92811550000005,
                    "velocity": 1
                },
                {
                    "duration": 0.21428550000001678,
                    "durationTicks": 60,
                    "midi": 43,
                    "name": "G2",
                    "ticks": 121260,
                    "time": 403.92811550000005,
                    "velocity": 1
                },
                {
                    "duration": 0.21428549999995994,
                    "durationTicks": 60,
                    "midi": 40,
                    "name": "E2",
                    "ticks": 121320,
                    "time": 404.14240100000006,
                    "velocity": 1
                },
                {
                    "duration": 0.21428550000001678,
                    "durationTicks": 60,
                    "midi": 40,
                    "name": "E2",
                    "ticks": 121380,
                    "time": 404.3566865,
                    "velocity": 1
                },
                {
                    "duration": 0.21428550000001678,
                    "durationTicks": 60,
                    "midi": 42,
                    "name": "F#2",
                    "ticks": 121440,
                    "time": 404.57097200000004,
                    "velocity": 1
                },
                {
                    "duration": 0.21428550000001678,
                    "durationTicks": 60,
                    "midi": 49,
                    "name": "C#3",
                    "ticks": 121440,
                    "time": 404.57097200000004,
                    "velocity": 1
                },
                {
                    "duration": 0.21428550000001678,
                    "durationTicks": 60,
                    "midi": 54,
                    "name": "F#3",
                    "ticks": 121440,
                    "time": 404.57097200000004,
                    "velocity": 1
                },
                {
                    "duration": 0.21428549999995994,
                    "durationTicks": 60,
                    "midi": 40,
                    "name": "E2",
                    "ticks": 121500,
                    "time": 404.78525750000006,
                    "velocity": 1
                },
                {
                    "duration": 0.21428550000001678,
                    "durationTicks": 60,
                    "midi": 40,
                    "name": "E2",
                    "ticks": 121560,
                    "time": 404.999543,
                    "velocity": 1
                },
                {
                    "duration": 0.21428550000001678,
                    "durationTicks": 60,
                    "midi": 40,
                    "name": "E2",
                    "ticks": 121620,
                    "time": 405.21382850000003,
                    "velocity": 1
                },
                {
                    "duration": 0.21428549999995994,
                    "durationTicks": 60,
                    "midi": 40,
                    "name": "E2",
                    "ticks": 121680,
                    "time": 405.42811400000005,
                    "velocity": 1
                },
                {
                    "duration": 0.21428550000001678,
                    "durationTicks": 60,
                    "midi": 40,
                    "name": "E2",
                    "ticks": 121740,
                    "time": 405.6423995,
                    "velocity": 1
                },
                {
                    "duration": 0.21428550000001678,
                    "durationTicks": 60,
                    "midi": 45,
                    "name": "A2",
                    "ticks": 121800,
                    "time": 405.856685,
                    "velocity": 1
                },
                {
                    "duration": 0.21428550000001678,
                    "durationTicks": 60,
                    "midi": 52,
                    "name": "E3",
                    "ticks": 121800,
                    "time": 405.856685,
                    "velocity": 1
                },
                {
                    "duration": 0.21428550000001678,
                    "durationTicks": 60,
                    "midi": 57,
                    "name": "A3",
                    "ticks": 121800,
                    "time": 405.856685,
                    "velocity": 1
                },
                {
                    "duration": 0.21428549999995994,
                    "durationTicks": 60,
                    "midi": 55,
                    "name": "G3",
                    "ticks": 121860,
                    "time": 406.07097050000004,
                    "velocity": 1
                },
                {
                    "duration": 0.21428549999995994,
                    "durationTicks": 60,
                    "midi": 50,
                    "name": "D3",
                    "ticks": 121860,
                    "time": 406.07097050000004,
                    "velocity": 1
                },
                {
                    "duration": 0.21428549999995994,
                    "durationTicks": 60,
                    "midi": 43,
                    "name": "G2",
                    "ticks": 121860,
                    "time": 406.07097050000004,
                    "velocity": 1
                },
                {
                    "duration": 0.21428550000007363,
                    "durationTicks": 60,
                    "midi": 40,
                    "name": "E2",
                    "ticks": 121920,
                    "time": 406.285256,
                    "velocity": 1
                },
                {
                    "duration": 0.21428549999995994,
                    "durationTicks": 60,
                    "midi": 40,
                    "name": "E2",
                    "ticks": 121980,
                    "time": 406.4995415000001,
                    "velocity": 1
                },
                {
                    "duration": 0.21428550000001678,
                    "durationTicks": 60,
                    "midi": 64,
                    "name": "E4",
                    "ticks": 122040,
                    "time": 406.71382700000004,
                    "velocity": 1
                },
                {
                    "duration": 0.21428550000001678,
                    "durationTicks": 60,
                    "midi": 62,
                    "name": "D4",
                    "ticks": 122100,
                    "time": 406.92811250000005,
                    "velocity": 1
                },
                {
                    "duration": 0.21428549999995994,
                    "durationTicks": 60,
                    "midi": 59,
                    "name": "B3",
                    "ticks": 122160,
                    "time": 407.14239800000007,
                    "velocity": 1
                },
                {
                    "duration": 0.21428550000001678,
                    "durationTicks": 60,
                    "midi": 62,
                    "name": "D4",
                    "ticks": 122220,
                    "time": 407.35668350000003,
                    "velocity": 1
                },
                {
                    "duration": 0.21428550000001678,
                    "durationTicks": 60,
                    "midi": 59,
                    "name": "B3",
                    "ticks": 122280,
                    "time": 407.57096900000005,
                    "velocity": 1
                },
                {
                    "duration": 0.21428549999995994,
                    "durationTicks": 60,
                    "midi": 58,
                    "name": "A#3",
                    "ticks": 122340,
                    "time": 407.78525450000006,
                    "velocity": 1
                },
                {
                    "duration": 0.21428550000001678,
                    "durationTicks": 60,
                    "midi": 57,
                    "name": "A3",
                    "ticks": 122400,
                    "time": 407.99954,
                    "velocity": 1
                },
                {
                    "duration": 0.21428550000001678,
                    "durationTicks": 60,
                    "midi": 55,
                    "name": "G3",
                    "ticks": 122460,
                    "time": 408.21382550000004,
                    "velocity": 1
                },
                {
                    "duration": 0.21428549999995994,
                    "durationTicks": 60,
                    "midi": 64,
                    "name": "E4",
                    "ticks": 122520,
                    "time": 408.42811100000006,
                    "velocity": 1
                },
                {
                    "duration": 0.21428550000001678,
                    "durationTicks": 60,
                    "midi": 62,
                    "name": "D4",
                    "ticks": 122580,
                    "time": 408.6423965,
                    "velocity": 1
                },
                {
                    "duration": 0.21428550000001678,
                    "durationTicks": 60,
                    "midi": 59,
                    "name": "B3",
                    "ticks": 122640,
                    "time": 408.85668200000003,
                    "velocity": 1
                },
                {
                    "duration": 0.21428549999995994,
                    "durationTicks": 60,
                    "midi": 62,
                    "name": "D4",
                    "ticks": 122700,
                    "time": 409.07096750000005,
                    "velocity": 1
                },
                {
                    "duration": 0.21428550000001678,
                    "durationTicks": 60,
                    "midi": 59,
                    "name": "B3",
                    "ticks": 122760,
                    "time": 409.285253,
                    "velocity": 1
                },
                {
                    "duration": 0.21428550000001678,
                    "durationTicks": 60,
                    "midi": 58,
                    "name": "A#3",
                    "ticks": 122820,
                    "time": 409.4995385,
                    "velocity": 1
                },
                {
                    "duration": 0.21428549999995994,
                    "durationTicks": 60,
                    "midi": 57,
                    "name": "A3",
                    "ticks": 122880,
                    "time": 409.71382400000005,
                    "velocity": 1
                },
                {
                    "duration": 0.21428550000007363,
                    "durationTicks": 60,
                    "midi": 55,
                    "name": "G3",
                    "ticks": 122940,
                    "time": 409.9281095,
                    "velocity": 1
                },
                {
                    "duration": 0.21428549999995994,
                    "durationTicks": 60,
                    "midi": 64,
                    "name": "E4",
                    "ticks": 123000,
                    "time": 410.1423950000001,
                    "velocity": 1
                },
                {
                    "duration": 0.21428550000001678,
                    "durationTicks": 60,
                    "midi": 62,
                    "name": "D4",
                    "ticks": 123060,
                    "time": 410.35668050000004,
                    "velocity": 1
                },
                {
                    "duration": 0.21428550000001678,
                    "durationTicks": 60,
                    "midi": 59,
                    "name": "B3",
                    "ticks": 123120,
                    "time": 410.57096600000006,
                    "velocity": 1
                },
                {
                    "duration": 0.21428549999995994,
                    "durationTicks": 60,
                    "midi": 62,
                    "name": "D4",
                    "ticks": 123180,
                    "time": 410.7852515000001,
                    "velocity": 1
                },
                {
                    "duration": 0.21428550000001678,
                    "durationTicks": 60,
                    "midi": 59,
                    "name": "B3",
                    "ticks": 123240,
                    "time": 410.99953700000003,
                    "velocity": 1
                },
                {
                    "duration": 0.21428550000001678,
                    "durationTicks": 60,
                    "midi": 58,
                    "name": "A#3",
                    "ticks": 123300,
                    "time": 411.21382250000005,
                    "velocity": 1
                },
                {
                    "duration": 0.21428549999995994,
                    "durationTicks": 60,
                    "midi": 57,
                    "name": "A3",
                    "ticks": 123360,
                    "time": 411.42810800000007,
                    "velocity": 1
                },
                {
                    "duration": 0.21428550000001678,
                    "durationTicks": 60,
                    "midi": 55,
                    "name": "G3",
                    "ticks": 123420,
                    "time": 411.6423935,
                    "velocity": 1
                },
                {
                    "duration": 0.21428550000001678,
                    "durationTicks": 60,
                    "midi": 40,
                    "name": "E2",
                    "ticks": 123480,
                    "time": 411.85667900000004,
                    "velocity": 1
                },
                {
                    "duration": 0.21428549999995994,
                    "durationTicks": 60,
                    "midi": 40,
                    "name": "E2",
                    "ticks": 123540,
                    "time": 412.07096450000006,
                    "velocity": 1
                },
                {
                    "duration": 0.21428550000001678,
                    "durationTicks": 60,
                    "midi": 40,
                    "name": "E2",
                    "ticks": 123600,
                    "time": 412.28525,
                    "velocity": 1
                },
                {
                    "duration": 0.21428550000001678,
                    "durationTicks": 60,
                    "midi": 40,
                    "name": "E2",
                    "ticks": 123660,
                    "time": 412.49953550000004,
                    "velocity": 1
                },
                {
                    "duration": 0.4285709999999767,
                    "durationTicks": 120,
                    "midi": 67,
                    "name": "G4",
                    "ticks": 123720,
                    "time": 412.71382100000005,
                    "velocity": 1
                },
                {
                    "duration": 0.4285709999999767,
                    "durationTicks": 120,
                    "midi": 62,
                    "name": "D4",
                    "ticks": 123720,
                    "time": 412.71382100000005,
                    "velocity": 1
                },
                {
                    "duration": 0.4285709999999767,
                    "durationTicks": 120,
                    "midi": 55,
                    "name": "G3",
                    "ticks": 123720,
                    "time": 412.71382100000005,
                    "velocity": 1
                },
                {
                    "duration": 0.4285709999999767,
                    "durationTicks": 120,
                    "midi": 40,
                    "name": "E2",
                    "ticks": 123720,
                    "time": 412.71382100000005,
                    "velocity": 1
                }
            ],
            "endOfTrackTicks": 123840
        },
        {
            "channel": 3,
            "controlChanges": {
                "1": [
                    {
                        "number": 1,
                        "ticks": 65280,
                        "time": 219.69206400000002,
                        "value": 0
                    },
                    {
                        "number": 1,
                        "ticks": 65281,
                        "time": 219.6944678416667,
                        "value": 0.05511811023622047
                    },
                    {
                        "number": 1,
                        "ticks": 65282,
                        "time": 219.69687168333337,
                        "value": 0.10236220472440945
                    },
                    {
                        "number": 1,
                        "ticks": 65283,
                        "time": 219.69927552500002,
                        "value": 0.15748031496062992
                    },
                    {
                        "number": 1,
                        "ticks": 65284,
                        "time": 219.7016793666667,
                        "value": 0.2047244094488189
                    },
                    {
                        "number": 1,
                        "ticks": 65285,
                        "time": 219.70408320833337,
                        "value": 0.25196850393700787
                    },
                    {
                        "number": 1,
                        "ticks": 65286,
                        "time": 219.70648705000002,
                        "value": 0.30708661417322836
                    },
                    {
                        "number": 1,
                        "ticks": 65287,
                        "time": 219.7088908916667,
                        "value": 0.3543307086614173
                    },
                    {
                        "number": 1,
                        "ticks": 65288,
                        "time": 219.71129473333338,
                        "value": 0.4094488188976378
                    },
                    {
                        "number": 1,
                        "ticks": 65289,
                        "time": 219.71369857500002,
                        "value": 0.4566929133858268
                    },
                    {
                        "number": 1,
                        "ticks": 65290,
                        "time": 219.7161024166667,
                        "value": 0.5039370078740157
                    },
                    {
                        "number": 1,
                        "ticks": 65639,
                        "time": 220.55504315833338,
                        "value": 0
                    },
                    {
                        "number": 1,
                        "ticks": 67080,
                        "time": 224.01897900000003,
                        "value": 0
                    },
                    {
                        "number": 1,
                        "ticks": 67081,
                        "time": 224.0213828416667,
                        "value": 0.05511811023622047
                    },
                    {
                        "number": 1,
                        "ticks": 67082,
                        "time": 224.02378668333336,
                        "value": 0.10236220472440945
                    },
                    {
                        "number": 1,
                        "ticks": 67083,
                        "time": 224.02619052500003,
                        "value": 0.15748031496062992
                    },
                    {
                        "number": 1,
                        "ticks": 67084,
                        "time": 224.0285943666667,
                        "value": 0.2047244094488189
                    },
                    {
                        "number": 1,
                        "ticks": 67085,
                        "time": 224.03099820833336,
                        "value": 0.25196850393700787
                    },
                    {
                        "number": 1,
                        "ticks": 67086,
                        "time": 224.03340205000003,
                        "value": 0.30708661417322836
                    },
                    {
                        "number": 1,
                        "ticks": 67087,
                        "time": 224.0358058916667,
                        "value": 0.3543307086614173
                    },
                    {
                        "number": 1,
                        "ticks": 67088,
                        "time": 224.03820973333336,
                        "value": 0.4094488188976378
                    },
                    {
                        "number": 1,
                        "ticks": 67089,
                        "time": 224.04061357500004,
                        "value": 0.4566929133858268
                    },
                    {
                        "number": 1,
                        "ticks": 67090,
                        "time": 224.04301741666671,
                        "value": 0.5039370078740157
                    },
                    {
                        "number": 1,
                        "ticks": 67799,
                        "time": 225.74734115833337,
                        "value": 0
                    },
                    {
                        "number": 1,
                        "ticks": 68160,
                        "time": 226.61512800000003,
                        "value": 0
                    },
                    {
                        "number": 1,
                        "ticks": 68161,
                        "time": 226.6175318416667,
                        "value": 0.05511811023622047
                    },
                    {
                        "number": 1,
                        "ticks": 68162,
                        "time": 226.61993568333338,
                        "value": 0.10236220472440945
                    },
                    {
                        "number": 1,
                        "ticks": 68163,
                        "time": 226.62233952500003,
                        "value": 0.15748031496062992
                    },
                    {
                        "number": 1,
                        "ticks": 68164,
                        "time": 226.6247433666667,
                        "value": 0.2047244094488189
                    },
                    {
                        "number": 1,
                        "ticks": 68165,
                        "time": 226.62714720833338,
                        "value": 0.25196850393700787
                    },
                    {
                        "number": 1,
                        "ticks": 68166,
                        "time": 226.62955105000003,
                        "value": 0.30708661417322836
                    },
                    {
                        "number": 1,
                        "ticks": 68167,
                        "time": 226.6319548916667,
                        "value": 0.3543307086614173
                    },
                    {
                        "number": 1,
                        "ticks": 68168,
                        "time": 226.63435873333336,
                        "value": 0.4094488188976378
                    },
                    {
                        "number": 1,
                        "ticks": 68169,
                        "time": 226.63676257500003,
                        "value": 0.4566929133858268
                    },
                    {
                        "number": 1,
                        "ticks": 68170,
                        "time": 226.63916641666668,
                        "value": 0.5039370078740157
                    },
                    {
                        "number": 1,
                        "ticks": 68339,
                        "time": 227.04541565833335,
                        "value": 0
                    },
                    {
                        "number": 1,
                        "ticks": 68940,
                        "time": 228.49012450000004,
                        "value": 0
                    },
                    {
                        "number": 1,
                        "ticks": 68941,
                        "time": 228.49252834166668,
                        "value": 0.05511811023622047
                    },
                    {
                        "number": 1,
                        "ticks": 68942,
                        "time": 228.49493218333336,
                        "value": 0.10236220472440945
                    },
                    {
                        "number": 1,
                        "ticks": 68943,
                        "time": 228.49733602500004,
                        "value": 0.15748031496062992
                    },
                    {
                        "number": 1,
                        "ticks": 68944,
                        "time": 228.4997398666667,
                        "value": 0.2047244094488189
                    },
                    {
                        "number": 1,
                        "ticks": 68945,
                        "time": 228.50214370833336,
                        "value": 0.25196850393700787
                    },
                    {
                        "number": 1,
                        "ticks": 68946,
                        "time": 228.50454755000004,
                        "value": 0.30708661417322836
                    },
                    {
                        "number": 1,
                        "ticks": 68947,
                        "time": 228.5069513916667,
                        "value": 0.3543307086614173
                    },
                    {
                        "number": 1,
                        "ticks": 68948,
                        "time": 228.50935523333337,
                        "value": 0.4094488188976378
                    },
                    {
                        "number": 1,
                        "ticks": 68949,
                        "time": 228.51175907500004,
                        "value": 0.4566929133858268
                    },
                    {
                        "number": 1,
                        "ticks": 68950,
                        "time": 228.5141629166667,
                        "value": 0.5039370078740157
                    },
                    {
                        "number": 1,
                        "ticks": 69299,
                        "time": 229.35310365833337,
                        "value": 0
                    },
                    {
                        "number": 1,
                        "ticks": 71760,
                        "time": 235.26895800000003,
                        "value": 0
                    },
                    {
                        "number": 1,
                        "ticks": 71761,
                        "time": 235.2713618416667,
                        "value": 0.05511811023622047
                    },
                    {
                        "number": 1,
                        "ticks": 71762,
                        "time": 235.27376568333338,
                        "value": 0.10236220472440945
                    },
                    {
                        "number": 1,
                        "ticks": 71763,
                        "time": 235.27616952500003,
                        "value": 0.15748031496062992
                    },
                    {
                        "number": 1,
                        "ticks": 71764,
                        "time": 235.2785733666667,
                        "value": 0.2047244094488189
                    },
                    {
                        "number": 1,
                        "ticks": 71765,
                        "time": 235.28097720833335,
                        "value": 0.25196850393700787
                    },
                    {
                        "number": 1,
                        "ticks": 71766,
                        "time": 235.28338105000003,
                        "value": 0.30708661417322836
                    },
                    {
                        "number": 1,
                        "ticks": 71767,
                        "time": 235.2857848916667,
                        "value": 0.3543307086614173
                    },
                    {
                        "number": 1,
                        "ticks": 71768,
                        "time": 235.28818873333336,
                        "value": 0.4094488188976378
                    },
                    {
                        "number": 1,
                        "ticks": 71769,
                        "time": 235.29059257500003,
                        "value": 0.4566929133858268
                    },
                    {
                        "number": 1,
                        "ticks": 71770,
                        "time": 235.2929964166667,
                        "value": 0.5039370078740157
                    },
                    {
                        "number": 1,
                        "ticks": 71879,
                        "time": 235.55501515833336,
                        "value": 0
                    },
                    {
                        "number": 1,
                        "ticks": 75600,
                        "time": 244.49971000000005,
                        "value": 0
                    },
                    {
                        "number": 1,
                        "ticks": 75601,
                        "time": 244.5021138416667,
                        "value": 0.05511811023622047
                    },
                    {
                        "number": 1,
                        "ticks": 75602,
                        "time": 244.50451768333338,
                        "value": 0.10236220472440945
                    },
                    {
                        "number": 1,
                        "ticks": 75603,
                        "time": 244.50692152500005,
                        "value": 0.15748031496062992
                    },
                    {
                        "number": 1,
                        "ticks": 75604,
                        "time": 244.5093253666667,
                        "value": 0.2047244094488189
                    },
                    {
                        "number": 1,
                        "ticks": 75605,
                        "time": 244.51172920833335,
                        "value": 0.25196850393700787
                    },
                    {
                        "number": 1,
                        "ticks": 75606,
                        "time": 244.51413305000005,
                        "value": 0.30708661417322836
                    },
                    {
                        "number": 1,
                        "ticks": 75607,
                        "time": 244.5165368916667,
                        "value": 0.3543307086614173
                    },
                    {
                        "number": 1,
                        "ticks": 75608,
                        "time": 244.51894073333335,
                        "value": 0.4094488188976378
                    },
                    {
                        "number": 1,
                        "ticks": 75609,
                        "time": 244.52134457500003,
                        "value": 0.4566929133858268
                    },
                    {
                        "number": 1,
                        "ticks": 75610,
                        "time": 244.5237484166667,
                        "value": 0.5039370078740157
                    },
                    {
                        "number": 1,
                        "ticks": 75719,
                        "time": 244.78576715833339,
                        "value": 0
                    }
                ],
                "7": [
                    {
                        "number": 7,
                        "ticks": 0,
                        "time": 0,
                        "value": 0.7795275590551181
                    }
                ]
            },
            "pitchBends": [
                {
                    "ticks": 65100,
                    "time": 219.25937250000004,
                    "value": 0
                },
                {
                    "ticks": 65101,
                    "time": 219.2617763416667,
                    "value": 0.10009765625
                },
                {
                    "ticks": 65102,
                    "time": 219.26418018333337,
                    "value": 0.2000732421875
                },
                {
                    "ticks": 65103,
                    "time": 219.26658402500004,
                    "value": 0.300048828125
                },
                {
                    "ticks": 65104,
                    "time": 219.2689878666667,
                    "value": 0.4000244140625
                },
                {
                    "ticks": 65105,
                    "time": 219.27139170833337,
                    "value": 0.5
                },
                {
                    "ticks": 65106,
                    "time": 219.27379555000005,
                    "value": 0.5999755859375
                },
                {
                    "ticks": 65107,
                    "time": 219.2761993916667,
                    "value": 0.699951171875
                },
                {
                    "ticks": 65108,
                    "time": 219.27860323333337,
                    "value": 0.7999267578125
                },
                {
                    "ticks": 65109,
                    "time": 219.28100707500005,
                    "value": 0.89990234375
                },
                {
                    "ticks": 65110,
                    "time": 219.2834109166667,
                    "value": 0.9998779296875
                },
                {
                    "ticks": 65639,
                    "time": 220.55504315833338,
                    "value": 0
                },
                {
                    "ticks": 66900,
                    "time": 223.58628750000003,
                    "value": 0
                },
                {
                    "ticks": 66901,
                    "time": 223.5886913416667,
                    "value": 0.033447265625
                },
                {
                    "ticks": 66902,
                    "time": 223.59109518333338,
                    "value": 0.0667724609375
                },
                {
                    "ticks": 66903,
                    "time": 223.59349902500003,
                    "value": 0.10009765625
                },
                {
                    "ticks": 66904,
                    "time": 223.5959028666667,
                    "value": 0.1334228515625
                },
                {
                    "ticks": 66905,
                    "time": 223.59830670833338,
                    "value": 0.166748046875
                },
                {
                    "ticks": 66906,
                    "time": 223.60071055000003,
                    "value": 0.2000732421875
                },
                {
                    "ticks": 66907,
                    "time": 223.6031143916667,
                    "value": 0.2333984375
                },
                {
                    "ticks": 66908,
                    "time": 223.60551823333336,
                    "value": 0.2667236328125
                },
                {
                    "ticks": 66909,
                    "time": 223.60792207500003,
                    "value": 0.300048828125
                },
                {
                    "ticks": 66910,
                    "time": 223.6103259166667,
                    "value": 0.3333740234375
                },
                {
                    "ticks": 66911,
                    "time": 223.61272975833336,
                    "value": 0.36669921875
                },
                {
                    "ticks": 66912,
                    "time": 223.61513360000004,
                    "value": 0.4000244140625
                },
                {
                    "ticks": 66913,
                    "time": 223.61753744166668,
                    "value": 0.433349609375
                },
                {
                    "ticks": 66914,
                    "time": 223.61994128333336,
                    "value": 0.4666748046875
                },
                {
                    "ticks": 66915,
                    "time": 223.62234512500004,
                    "value": 0.5
                },
                {
                    "ticks": 66916,
                    "time": 223.6247489666667,
                    "value": 0.5333251953125
                },
                {
                    "ticks": 66917,
                    "time": 223.62715280833336,
                    "value": 0.566650390625
                },
                {
                    "ticks": 66918,
                    "time": 223.62955665000004,
                    "value": 0.5999755859375
                },
                {
                    "ticks": 66919,
                    "time": 223.6319604916667,
                    "value": 0.63330078125
                },
                {
                    "ticks": 66920,
                    "time": 223.63436433333337,
                    "value": 0.6666259765625
                },
                {
                    "ticks": 66921,
                    "time": 223.63676817500004,
                    "value": 0.699951171875
                },
                {
                    "ticks": 66922,
                    "time": 223.6391720166667,
                    "value": 0.7332763671875
                },
                {
                    "ticks": 66923,
                    "time": 223.64157585833337,
                    "value": 0.7666015625
                },
                {
                    "ticks": 66924,
                    "time": 223.64397970000005,
                    "value": 0.7999267578125
                },
                {
                    "ticks": 66925,
                    "time": 223.6463835416667,
                    "value": 0.833251953125
                },
                {
                    "ticks": 66926,
                    "time": 223.64878738333337,
                    "value": 0.8665771484375
                },
                {
                    "ticks": 66927,
                    "time": 223.65119122500002,
                    "value": 0.89990234375
                },
                {
                    "ticks": 66928,
                    "time": 223.6535950666667,
                    "value": 0.9332275390625
                },
                {
                    "ticks": 66929,
                    "time": 223.65599890833337,
                    "value": 0.966552734375
                },
                {
                    "ticks": 66930,
                    "time": 223.65840275000002,
                    "value": 0.9998779296875
                },
                {
                    "ticks": 66931,
                    "time": 223.6608065916667,
                    "value": 0.9664306640625
                },
                {
                    "ticks": 66932,
                    "time": 223.66321043333338,
                    "value": 0.93310546875
                },
                {
                    "ticks": 66933,
                    "time": 223.66561427500002,
                    "value": 0.8997802734375
                },
                {
                    "ticks": 66934,
                    "time": 223.6680181166667,
                    "value": 0.866455078125
                },
                {
                    "ticks": 66935,
                    "time": 223.67042195833338,
                    "value": 0.8331298828125
                },
                {
                    "ticks": 66936,
                    "time": 223.67282580000003,
                    "value": 0.7998046875
                },
                {
                    "ticks": 66937,
                    "time": 223.6752296416667,
                    "value": 0.7664794921875
                },
                {
                    "ticks": 66938,
                    "time": 223.67763348333335,
                    "value": 0.733154296875
                },
                {
                    "ticks": 66939,
                    "time": 223.68003732500003,
                    "value": 0.6998291015625
                },
                {
                    "ticks": 66940,
                    "time": 223.6824411666667,
                    "value": 0.66650390625
                },
                {
                    "ticks": 66941,
                    "time": 223.68484500833335,
                    "value": 0.6331787109375
                },
                {
                    "ticks": 66942,
                    "time": 223.68724885000003,
                    "value": 0.599853515625
                },
                {
                    "ticks": 66943,
                    "time": 223.6896526916667,
                    "value": 0.5665283203125
                },
                {
                    "ticks": 66944,
                    "time": 223.69205653333336,
                    "value": 0.533203125
                },
                {
                    "ticks": 66945,
                    "time": 223.69446037500003,
                    "value": 0.4998779296875
                },
                {
                    "ticks": 66946,
                    "time": 223.6968642166667,
                    "value": 0.466552734375
                },
                {
                    "ticks": 66947,
                    "time": 223.69926805833336,
                    "value": 0.4332275390625
                },
                {
                    "ticks": 66948,
                    "time": 223.70167190000004,
                    "value": 0.39990234375
                },
                {
                    "ticks": 66949,
                    "time": 223.7040757416667,
                    "value": 0.3665771484375
                },
                {
                    "ticks": 66950,
                    "time": 223.70647958333336,
                    "value": 0.333251953125
                },
                {
                    "ticks": 66951,
                    "time": 223.70888342500004,
                    "value": 0.2999267578125
                },
                {
                    "ticks": 66952,
                    "time": 223.71128726666672,
                    "value": 0.2666015625
                },
                {
                    "ticks": 66953,
                    "time": 223.71369110833336,
                    "value": 0.2332763671875
                },
                {
                    "ticks": 66954,
                    "time": 223.71609495000004,
                    "value": 0.199951171875
                },
                {
                    "ticks": 66955,
                    "time": 223.7184987916667,
                    "value": 0.1666259765625
                },
                {
                    "ticks": 66956,
                    "time": 223.72090263333337,
                    "value": 0.13330078125
                },
                {
                    "ticks": 66957,
                    "time": 223.72330647500002,
                    "value": 0.0999755859375
                },
                {
                    "ticks": 66958,
                    "time": 223.7257103166667,
                    "value": 0.066650390625
                },
                {
                    "ticks": 66959,
                    "time": 223.72811415833337,
                    "value": 0.0333251953125
                },
                {
                    "ticks": 66960,
                    "time": 223.73051800000002,
                    "value": 0
                },
                {
                    "ticks": 68160,
                    "time": 226.61512800000003,
                    "value": 0
                },
                {
                    "ticks": 68161,
                    "time": 226.6175318416667,
                    "value": 0.10009765625
                },
                {
                    "ticks": 68162,
                    "time": 226.61993568333338,
                    "value": 0.2000732421875
                },
                {
                    "ticks": 68163,
                    "time": 226.62233952500003,
                    "value": 0.300048828125
                },
                {
                    "ticks": 68164,
                    "time": 226.6247433666667,
                    "value": 0.4000244140625
                },
                {
                    "ticks": 68165,
                    "time": 226.62714720833338,
                    "value": 0.5
                },
                {
                    "ticks": 68166,
                    "time": 226.62955105000003,
                    "value": 0.5999755859375
                },
                {
                    "ticks": 68167,
                    "time": 226.6319548916667,
                    "value": 0.699951171875
                },
                {
                    "ticks": 68168,
                    "time": 226.63435873333336,
                    "value": 0.7999267578125
                },
                {
                    "ticks": 68169,
                    "time": 226.63676257500003,
                    "value": 0.89990234375
                },
                {
                    "ticks": 68170,
                    "time": 226.63916641666668,
                    "value": 0.9998779296875
                },
                {
                    "ticks": 68339,
                    "time": 227.04541565833335,
                    "value": 0
                },
                {
                    "ticks": 68820,
                    "time": 228.20166350000002,
                    "value": 0
                },
                {
                    "ticks": 68821,
                    "time": 228.2040673416667,
                    "value": 0.033447265625
                },
                {
                    "ticks": 68822,
                    "time": 228.20647118333335,
                    "value": 0.0667724609375
                },
                {
                    "ticks": 68823,
                    "time": 228.20887502500003,
                    "value": 0.10009765625
                },
                {
                    "ticks": 68824,
                    "time": 228.2112788666667,
                    "value": 0.1334228515625
                },
                {
                    "ticks": 68825,
                    "time": 228.21368270833335,
                    "value": 0.166748046875
                },
                {
                    "ticks": 68826,
                    "time": 228.21608655000003,
                    "value": 0.2000732421875
                },
                {
                    "ticks": 68827,
                    "time": 228.2184903916667,
                    "value": 0.2333984375
                },
                {
                    "ticks": 68828,
                    "time": 228.22089423333335,
                    "value": 0.2667236328125
                },
                {
                    "ticks": 68829,
                    "time": 228.22329807500003,
                    "value": 0.300048828125
                },
                {
                    "ticks": 68830,
                    "time": 228.2257019166667,
                    "value": 0.3333740234375
                },
                {
                    "ticks": 68831,
                    "time": 228.22810575833336,
                    "value": 0.36669921875
                },
                {
                    "ticks": 68832,
                    "time": 228.23050960000003,
                    "value": 0.4000244140625
                },
                {
                    "ticks": 68833,
                    "time": 228.2329134416667,
                    "value": 0.433349609375
                },
                {
                    "ticks": 68834,
                    "time": 228.23531728333336,
                    "value": 0.4666748046875
                },
                {
                    "ticks": 68835,
                    "time": 228.23772112500004,
                    "value": 0.5
                },
                {
                    "ticks": 68836,
                    "time": 228.2401249666667,
                    "value": 0.5333251953125
                },
                {
                    "ticks": 68837,
                    "time": 228.24252880833336,
                    "value": 0.566650390625
                },
                {
                    "ticks": 68838,
                    "time": 228.24493265000004,
                    "value": 0.5999755859375
                },
                {
                    "ticks": 68839,
                    "time": 228.24733649166672,
                    "value": 0.63330078125
                },
                {
                    "ticks": 68840,
                    "time": 228.24974033333336,
                    "value": 0.6666259765625
                },
                {
                    "ticks": 68841,
                    "time": 228.25214417500004,
                    "value": 0.699951171875
                },
                {
                    "ticks": 68842,
                    "time": 228.25454801666672,
                    "value": 0.7332763671875
                },
                {
                    "ticks": 68843,
                    "time": 228.25695185833337,
                    "value": 0.7666015625
                },
                {
                    "ticks": 68844,
                    "time": 228.25935570000004,
                    "value": 0.7999267578125
                },
                {
                    "ticks": 68845,
                    "time": 228.2617595416667,
                    "value": 0.833251953125
                },
                {
                    "ticks": 68846,
                    "time": 228.26416338333337,
                    "value": 0.8665771484375
                },
                {
                    "ticks": 68847,
                    "time": 228.26656722500002,
                    "value": 0.89990234375
                },
                {
                    "ticks": 68848,
                    "time": 228.2689710666667,
                    "value": 0.9332275390625
                },
                {
                    "ticks": 68849,
                    "time": 228.27137490833337,
                    "value": 0.966552734375
                },
                {
                    "ticks": 68850,
                    "time": 228.27377875000002,
                    "value": 0.9998779296875
                },
                {
                    "ticks": 68851,
                    "time": 228.2761825916667,
                    "value": 0.9664306640625
                },
                {
                    "ticks": 68852,
                    "time": 228.27858643333337,
                    "value": 0.93310546875
                },
                {
                    "ticks": 68853,
                    "time": 228.28099027500002,
                    "value": 0.8997802734375
                },
                {
                    "ticks": 68854,
                    "time": 228.2833941166667,
                    "value": 0.866455078125
                },
                {
                    "ticks": 68855,
                    "time": 228.28579795833338,
                    "value": 0.8331298828125
                },
                {
                    "ticks": 68856,
                    "time": 228.28820180000002,
                    "value": 0.7998046875
                },
                {
                    "ticks": 68857,
                    "time": 228.2906056416667,
                    "value": 0.7664794921875
                },
                {
                    "ticks": 68858,
                    "time": 228.29300948333338,
                    "value": 0.733154296875
                },
                {
                    "ticks": 68859,
                    "time": 228.29541332500003,
                    "value": 0.6998291015625
                },
                {
                    "ticks": 68860,
                    "time": 228.2978171666667,
                    "value": 0.66650390625
                },
                {
                    "ticks": 68861,
                    "time": 228.30022100833338,
                    "value": 0.6331787109375
                },
                {
                    "ticks": 68862,
                    "time": 228.30262485000003,
                    "value": 0.599853515625
                },
                {
                    "ticks": 68863,
                    "time": 228.3050286916667,
                    "value": 0.5665283203125
                },
                {
                    "ticks": 68864,
                    "time": 228.30743253333335,
                    "value": 0.533203125
                },
                {
                    "ticks": 68865,
                    "time": 228.30983637500003,
                    "value": 0.4998779296875
                },
                {
                    "ticks": 68866,
                    "time": 228.3122402166667,
                    "value": 0.466552734375
                },
                {
                    "ticks": 68867,
                    "time": 228.31464405833336,
                    "value": 0.4332275390625
                },
                {
                    "ticks": 68868,
                    "time": 228.31704790000003,
                    "value": 0.39990234375
                },
                {
                    "ticks": 68869,
                    "time": 228.31945174166668,
                    "value": 0.3665771484375
                },
                {
                    "ticks": 68870,
                    "time": 228.32185558333336,
                    "value": 0.333251953125
                },
                {
                    "ticks": 68871,
                    "time": 228.32425942500004,
                    "value": 0.2999267578125
                },
                {
                    "ticks": 68872,
                    "time": 228.32666326666669,
                    "value": 0.2666015625
                },
                {
                    "ticks": 68873,
                    "time": 228.32906710833336,
                    "value": 0.2332763671875
                },
                {
                    "ticks": 68874,
                    "time": 228.33147095000004,
                    "value": 0.199951171875
                },
                {
                    "ticks": 68875,
                    "time": 228.3338747916667,
                    "value": 0.1666259765625
                },
                {
                    "ticks": 68876,
                    "time": 228.33627863333336,
                    "value": 0.13330078125
                },
                {
                    "ticks": 68877,
                    "time": 228.33868247500004,
                    "value": 0.0999755859375
                },
                {
                    "ticks": 68878,
                    "time": 228.3410863166667,
                    "value": 0.066650390625
                },
                {
                    "ticks": 68879,
                    "time": 228.34349015833337,
                    "value": 0.0333251953125
                },
                {
                    "ticks": 68880,
                    "time": 228.34589400000004,
                    "value": 0
                },
                {
                    "ticks": 68881,
                    "time": 228.3482978416667,
                    "value": 0.0084228515625
                },
                {
                    "ticks": 68882,
                    "time": 228.35070168333337,
                    "value": 0.0167236328125
                },
                {
                    "ticks": 68883,
                    "time": 228.35310552500005,
                    "value": 0.0250244140625
                },
                {
                    "ticks": 68884,
                    "time": 228.3555093666667,
                    "value": 0.033447265625
                },
                {
                    "ticks": 68885,
                    "time": 228.35791320833337,
                    "value": 0.041748046875
                },
                {
                    "ticks": 68886,
                    "time": 228.36031705000005,
                    "value": 0.050048828125
                },
                {
                    "ticks": 68887,
                    "time": 228.3627208916667,
                    "value": 0.058349609375
                },
                {
                    "ticks": 68888,
                    "time": 228.36512473333337,
                    "value": 0.0667724609375
                },
                {
                    "ticks": 68889,
                    "time": 228.36752857500005,
                    "value": 0.0750732421875
                },
                {
                    "ticks": 68890,
                    "time": 228.3699324166667,
                    "value": 0.0833740234375
                },
                {
                    "ticks": 68891,
                    "time": 228.37233625833338,
                    "value": 0.0916748046875
                },
                {
                    "ticks": 68892,
                    "time": 228.37474010000003,
                    "value": 0.10009765625
                },
                {
                    "ticks": 68893,
                    "time": 228.3771439416667,
                    "value": 0.1083984375
                },
                {
                    "ticks": 68894,
                    "time": 228.37954778333335,
                    "value": 0.11669921875
                },
                {
                    "ticks": 68895,
                    "time": 228.38195162500003,
                    "value": 0.125
                },
                {
                    "ticks": 68896,
                    "time": 228.3843554666667,
                    "value": 0.1334228515625
                },
                {
                    "ticks": 68897,
                    "time": 228.38675930833335,
                    "value": 0.1417236328125
                },
                {
                    "ticks": 68898,
                    "time": 228.38916315000003,
                    "value": 0.1500244140625
                },
                {
                    "ticks": 68899,
                    "time": 228.3915669916667,
                    "value": 0.158447265625
                },
                {
                    "ticks": 68900,
                    "time": 228.39397083333336,
                    "value": 0.166748046875
                },
                {
                    "ticks": 68901,
                    "time": 228.39637467500003,
                    "value": 0.175048828125
                },
                {
                    "ticks": 68902,
                    "time": 228.3987785166667,
                    "value": 0.183349609375
                },
                {
                    "ticks": 68903,
                    "time": 228.40118235833336,
                    "value": 0.1917724609375
                },
                {
                    "ticks": 68904,
                    "time": 228.40358620000003,
                    "value": 0.2000732421875
                },
                {
                    "ticks": 68905,
                    "time": 228.4059900416667,
                    "value": 0.2083740234375
                },
                {
                    "ticks": 68906,
                    "time": 228.40839388333336,
                    "value": 0.2166748046875
                },
                {
                    "ticks": 68907,
                    "time": 228.41079772500004,
                    "value": 0.22509765625
                },
                {
                    "ticks": 68908,
                    "time": 228.41320156666671,
                    "value": 0.2333984375
                },
                {
                    "ticks": 68909,
                    "time": 228.41560540833336,
                    "value": 0.24169921875
                },
                {
                    "ticks": 68910,
                    "time": 228.41800925000004,
                    "value": 0.25
                },
                {
                    "ticks": 68911,
                    "time": 228.42041309166672,
                    "value": 0.2584228515625
                },
                {
                    "ticks": 68912,
                    "time": 228.42281693333337,
                    "value": 0.2667236328125
                },
                {
                    "ticks": 68913,
                    "time": 228.42522077500004,
                    "value": 0.2750244140625
                },
                {
                    "ticks": 68914,
                    "time": 228.4276246166667,
                    "value": 0.283447265625
                },
                {
                    "ticks": 68915,
                    "time": 228.43002845833337,
                    "value": 0.291748046875
                },
                {
                    "ticks": 68916,
                    "time": 228.43243230000002,
                    "value": 0.300048828125
                },
                {
                    "ticks": 68917,
                    "time": 228.4348361416667,
                    "value": 0.308349609375
                },
                {
                    "ticks": 68918,
                    "time": 228.43723998333337,
                    "value": 0.3167724609375
                },
                {
                    "ticks": 68919,
                    "time": 228.43964382500002,
                    "value": 0.3250732421875
                },
                {
                    "ticks": 68920,
                    "time": 228.4420476666667,
                    "value": 0.3333740234375
                },
                {
                    "ticks": 68921,
                    "time": 228.44445150833337,
                    "value": 0.3416748046875
                },
                {
                    "ticks": 68922,
                    "time": 228.44685535000002,
                    "value": 0.35009765625
                },
                {
                    "ticks": 68923,
                    "time": 228.4492591916667,
                    "value": 0.3583984375
                },
                {
                    "ticks": 68924,
                    "time": 228.45166303333338,
                    "value": 0.36669921875
                },
                {
                    "ticks": 68925,
                    "time": 228.45406687500002,
                    "value": 0.375
                },
                {
                    "ticks": 68926,
                    "time": 228.4564707166667,
                    "value": 0.3834228515625
                },
                {
                    "ticks": 68927,
                    "time": 228.45887455833338,
                    "value": 0.3917236328125
                },
                {
                    "ticks": 68928,
                    "time": 228.46127840000003,
                    "value": 0.4000244140625
                },
                {
                    "ticks": 68929,
                    "time": 228.4636822416667,
                    "value": 0.408447265625
                },
                {
                    "ticks": 68930,
                    "time": 228.46608608333338,
                    "value": 0.416748046875
                },
                {
                    "ticks": 68931,
                    "time": 228.46848992500003,
                    "value": 0.425048828125
                },
                {
                    "ticks": 68932,
                    "time": 228.4708937666667,
                    "value": 0.433349609375
                },
                {
                    "ticks": 68933,
                    "time": 228.47329760833338,
                    "value": 0.4417724609375
                },
                {
                    "ticks": 68934,
                    "time": 228.47570145000003,
                    "value": 0.4500732421875
                },
                {
                    "ticks": 68935,
                    "time": 228.4781052916667,
                    "value": 0.4583740234375
                },
                {
                    "ticks": 68936,
                    "time": 228.48050913333336,
                    "value": 0.4666748046875
                },
                {
                    "ticks": 68937,
                    "time": 228.48291297500003,
                    "value": 0.47509765625
                },
                {
                    "ticks": 68938,
                    "time": 228.4853168166667,
                    "value": 0.4833984375
                },
                {
                    "ticks": 68939,
                    "time": 228.48772065833336,
                    "value": 0.49169921875
                },
                {
                    "ticks": 68940,
                    "time": 228.49012450000004,
                    "value": 0.5
                },
                {
                    "ticks": 69299,
                    "time": 229.35310365833337,
                    "value": 0
                },
                {
                    "ticks": 71400,
                    "time": 234.40357500000005,
                    "value": 0
                },
                {
                    "ticks": 71401,
                    "time": 234.4059788416667,
                    "value": 0.033447265625
                },
                {
                    "ticks": 71402,
                    "time": 234.40838268333337,
                    "value": 0.0667724609375
                },
                {
                    "ticks": 71403,
                    "time": 234.41078652500005,
                    "value": 0.10009765625
                },
                {
                    "ticks": 71404,
                    "time": 234.4131903666667,
                    "value": 0.1334228515625
                },
                {
                    "ticks": 71405,
                    "time": 234.41559420833337,
                    "value": 0.166748046875
                },
                {
                    "ticks": 71406,
                    "time": 234.41799805000005,
                    "value": 0.2000732421875
                },
                {
                    "ticks": 71407,
                    "time": 234.4204018916667,
                    "value": 0.2333984375
                },
                {
                    "ticks": 71408,
                    "time": 234.42280573333335,
                    "value": 0.2667236328125
                },
                {
                    "ticks": 71409,
                    "time": 234.42520957500003,
                    "value": 0.300048828125
                },
                {
                    "ticks": 71410,
                    "time": 234.4276134166667,
                    "value": 0.3333740234375
                },
                {
                    "ticks": 71411,
                    "time": 234.43001725833335,
                    "value": 0.36669921875
                },
                {
                    "ticks": 71412,
                    "time": 234.43242110000003,
                    "value": 0.4000244140625
                },
                {
                    "ticks": 71413,
                    "time": 234.4348249416667,
                    "value": 0.433349609375
                },
                {
                    "ticks": 71414,
                    "time": 234.43722878333335,
                    "value": 0.4666748046875
                },
                {
                    "ticks": 71415,
                    "time": 234.43963262500003,
                    "value": 0.5
                },
                {
                    "ticks": 71416,
                    "time": 234.4420364666667,
                    "value": 0.5333251953125
                },
                {
                    "ticks": 71417,
                    "time": 234.44444030833336,
                    "value": 0.566650390625
                },
                {
                    "ticks": 71418,
                    "time": 234.44684415000003,
                    "value": 0.5999755859375
                },
                {
                    "ticks": 71419,
                    "time": 234.4492479916667,
                    "value": 0.63330078125
                },
                {
                    "ticks": 71420,
                    "time": 234.45165183333336,
                    "value": 0.6666259765625
                },
                {
                    "ticks": 71421,
                    "time": 234.45405567500003,
                    "value": 0.699951171875
                },
                {
                    "ticks": 71422,
                    "time": 234.4564595166667,
                    "value": 0.7332763671875
                },
                {
                    "ticks": 71423,
                    "time": 234.45886335833336,
                    "value": 0.7666015625
                },
                {
                    "ticks": 71424,
                    "time": 234.46126720000004,
                    "value": 0.7999267578125
                },
                {
                    "ticks": 71425,
                    "time": 234.46367104166671,
                    "value": 0.833251953125
                },
                {
                    "ticks": 71426,
                    "time": 234.46607488333336,
                    "value": 0.8665771484375
                },
                {
                    "ticks": 71427,
                    "time": 234.46847872500004,
                    "value": 0.89990234375
                },
                {
                    "ticks": 71428,
                    "time": 234.4708825666667,
                    "value": 0.9332275390625
                },
                {
                    "ticks": 71429,
                    "time": 234.47328640833337,
                    "value": 0.966552734375
                },
                {
                    "ticks": 71430,
                    "time": 234.47569025000004,
                    "value": 0.9998779296875
                },
                {
                    "ticks": 71431,
                    "time": 234.4780940916667,
                    "value": 0.9664306640625
                },
                {
                    "ticks": 71432,
                    "time": 234.48049793333337,
                    "value": 0.93310546875
                },
                {
                    "ticks": 71433,
                    "time": 234.48290177500004,
                    "value": 0.8997802734375
                },
                {
                    "ticks": 71434,
                    "time": 234.4853056166667,
                    "value": 0.866455078125
                },
                {
                    "ticks": 71435,
                    "time": 234.48770945833337,
                    "value": 0.8331298828125
                },
                {
                    "ticks": 71436,
                    "time": 234.49011330000005,
                    "value": 0.7998046875
                },
                {
                    "ticks": 71437,
                    "time": 234.4925171416667,
                    "value": 0.7664794921875
                },
                {
                    "ticks": 71438,
                    "time": 234.49492098333337,
                    "value": 0.733154296875
                },
                {
                    "ticks": 71439,
                    "time": 234.49732482500002,
                    "value": 0.6998291015625
                },
                {
                    "ticks": 71440,
                    "time": 234.4997286666667,
                    "value": 0.66650390625
                },
                {
                    "ticks": 71441,
                    "time": 234.50213250833337,
                    "value": 0.6331787109375
                },
                {
                    "ticks": 71442,
                    "time": 234.50453635000002,
                    "value": 0.599853515625
                },
                {
                    "ticks": 71443,
                    "time": 234.5069401916667,
                    "value": 0.5665283203125
                },
                {
                    "ticks": 71444,
                    "time": 234.50934403333338,
                    "value": 0.533203125
                },
                {
                    "ticks": 71445,
                    "time": 234.51174787500003,
                    "value": 0.4998779296875
                },
                {
                    "ticks": 71446,
                    "time": 234.5141517166667,
                    "value": 0.466552734375
                },
                {
                    "ticks": 71447,
                    "time": 234.51655555833338,
                    "value": 0.4332275390625
                },
                {
                    "ticks": 71448,
                    "time": 234.51895940000003,
                    "value": 0.39990234375
                },
                {
                    "ticks": 71449,
                    "time": 234.5213632416667,
                    "value": 0.3665771484375
                },
                {
                    "ticks": 71450,
                    "time": 234.52376708333335,
                    "value": 0.333251953125
                },
                {
                    "ticks": 71451,
                    "time": 234.52617092500003,
                    "value": 0.2999267578125
                },
                {
                    "ticks": 71452,
                    "time": 234.5285747666667,
                    "value": 0.2666015625
                },
                {
                    "ticks": 71453,
                    "time": 234.53097860833336,
                    "value": 0.2332763671875
                },
                {
                    "ticks": 71454,
                    "time": 234.53338245000003,
                    "value": 0.199951171875
                },
                {
                    "ticks": 71455,
                    "time": 234.5357862916667,
                    "value": 0.1666259765625
                },
                {
                    "ticks": 71456,
                    "time": 234.53819013333336,
                    "value": 0.13330078125
                },
                {
                    "ticks": 71457,
                    "time": 234.54059397500004,
                    "value": 0.0999755859375
                },
                {
                    "ticks": 71458,
                    "time": 234.54299781666668,
                    "value": 0.066650390625
                },
                {
                    "ticks": 71459,
                    "time": 234.54540165833336,
                    "value": 0.0333251953125
                },
                {
                    "ticks": 71460,
                    "time": 234.54780550000004,
                    "value": 0
                },
                {
                    "ticks": 72600,
                    "time": 237.28818500000003,
                    "value": 0
                },
                {
                    "ticks": 72601,
                    "time": 237.2905888416667,
                    "value": 0.033447265625
                },
                {
                    "ticks": 72602,
                    "time": 237.29299268333338,
                    "value": 0.0667724609375
                },
                {
                    "ticks": 72603,
                    "time": 237.29539652500003,
                    "value": 0.10009765625
                },
                {
                    "ticks": 72604,
                    "time": 237.2978003666667,
                    "value": 0.1334228515625
                },
                {
                    "ticks": 72605,
                    "time": 237.30020420833335,
                    "value": 0.166748046875
                },
                {
                    "ticks": 72606,
                    "time": 237.30260805000003,
                    "value": 0.2000732421875
                },
                {
                    "ticks": 72607,
                    "time": 237.3050118916667,
                    "value": 0.2333984375
                },
                {
                    "ticks": 72608,
                    "time": 237.30741573333336,
                    "value": 0.2667236328125
                },
                {
                    "ticks": 72609,
                    "time": 237.30981957500003,
                    "value": 0.300048828125
                },
                {
                    "ticks": 72610,
                    "time": 237.3122234166667,
                    "value": 0.3333740234375
                },
                {
                    "ticks": 72611,
                    "time": 237.31462725833336,
                    "value": 0.36669921875
                },
                {
                    "ticks": 72612,
                    "time": 237.31703110000004,
                    "value": 0.4000244140625
                },
                {
                    "ticks": 72613,
                    "time": 237.3194349416667,
                    "value": 0.433349609375
                },
                {
                    "ticks": 72614,
                    "time": 237.32183878333336,
                    "value": 0.4666748046875
                },
                {
                    "ticks": 72615,
                    "time": 237.32424262500004,
                    "value": 0.5
                },
                {
                    "ticks": 72616,
                    "time": 237.3266464666667,
                    "value": 0.5333251953125
                },
                {
                    "ticks": 72617,
                    "time": 237.32905030833336,
                    "value": 0.566650390625
                },
                {
                    "ticks": 72618,
                    "time": 237.33145415000004,
                    "value": 0.5999755859375
                },
                {
                    "ticks": 72619,
                    "time": 237.3338579916667,
                    "value": 0.63330078125
                },
                {
                    "ticks": 72620,
                    "time": 237.33626183333337,
                    "value": 0.6666259765625
                },
                {
                    "ticks": 72621,
                    "time": 237.33866567500004,
                    "value": 0.699951171875
                },
                {
                    "ticks": 72622,
                    "time": 237.3410695166667,
                    "value": 0.7332763671875
                },
                {
                    "ticks": 72623,
                    "time": 237.34347335833337,
                    "value": 0.7666015625
                },
                {
                    "ticks": 72624,
                    "time": 237.34587720000002,
                    "value": 0.7999267578125
                },
                {
                    "ticks": 72625,
                    "time": 237.3482810416667,
                    "value": 0.833251953125
                },
                {
                    "ticks": 72626,
                    "time": 237.35068488333337,
                    "value": 0.8665771484375
                },
                {
                    "ticks": 72627,
                    "time": 237.35308872500002,
                    "value": 0.89990234375
                },
                {
                    "ticks": 72628,
                    "time": 237.3554925666667,
                    "value": 0.9332275390625
                },
                {
                    "ticks": 72629,
                    "time": 237.35789640833337,
                    "value": 0.966552734375
                },
                {
                    "ticks": 72630,
                    "time": 237.36030025000002,
                    "value": 0.9998779296875
                },
                {
                    "ticks": 72631,
                    "time": 237.3627040916667,
                    "value": 0.9664306640625
                },
                {
                    "ticks": 72632,
                    "time": 237.36510793333338,
                    "value": 0.93310546875
                },
                {
                    "ticks": 72633,
                    "time": 237.36751177500003,
                    "value": 0.8997802734375
                },
                {
                    "ticks": 72634,
                    "time": 237.3699156166667,
                    "value": 0.866455078125
                },
                {
                    "ticks": 72635,
                    "time": 237.37231945833338,
                    "value": 0.8331298828125
                },
                {
                    "ticks": 72636,
                    "time": 237.37472330000003,
                    "value": 0.7998046875
                },
                {
                    "ticks": 72637,
                    "time": 237.3771271416667,
                    "value": 0.7664794921875
                },
                {
                    "ticks": 72638,
                    "time": 237.37953098333338,
                    "value": 0.733154296875
                },
                {
                    "ticks": 72639,
                    "time": 237.38193482500003,
                    "value": 0.6998291015625
                },
                {
                    "ticks": 72640,
                    "time": 237.3843386666667,
                    "value": 0.66650390625
                },
                {
                    "ticks": 72641,
                    "time": 237.38674250833338,
                    "value": 0.6331787109375
                },
                {
                    "ticks": 72642,
                    "time": 237.38914635000003,
                    "value": 0.599853515625
                },
                {
                    "ticks": 72643,
                    "time": 237.39155019166668,
                    "value": 0.5665283203125
                },
                {
                    "ticks": 72644,
                    "time": 237.3939540333334,
                    "value": 0.533203125
                },
                {
                    "ticks": 72645,
                    "time": 237.39635787500004,
                    "value": 0.4998779296875
                },
                {
                    "ticks": 72646,
                    "time": 237.39876171666668,
                    "value": 0.466552734375
                },
                {
                    "ticks": 72647,
                    "time": 237.40116555833336,
                    "value": 0.4332275390625
                },
                {
                    "ticks": 72648,
                    "time": 237.40356940000004,
                    "value": 0.39990234375
                },
                {
                    "ticks": 72649,
                    "time": 237.4059732416667,
                    "value": 0.3665771484375
                },
                {
                    "ticks": 72650,
                    "time": 237.40837708333336,
                    "value": 0.333251953125
                },
                {
                    "ticks": 72651,
                    "time": 237.41078092500004,
                    "value": 0.2999267578125
                },
                {
                    "ticks": 72652,
                    "time": 237.4131847666667,
                    "value": 0.2666015625
                },
                {
                    "ticks": 72653,
                    "time": 237.41558860833337,
                    "value": 0.2332763671875
                },
                {
                    "ticks": 72654,
                    "time": 237.41799245000004,
                    "value": 0.199951171875
                },
                {
                    "ticks": 72655,
                    "time": 237.4203962916667,
                    "value": 0.1666259765625
                },
                {
                    "ticks": 72656,
                    "time": 237.42280013333337,
                    "value": 0.13330078125
                },
                {
                    "ticks": 72657,
                    "time": 237.42520397500004,
                    "value": 0.0999755859375
                },
                {
                    "ticks": 72658,
                    "time": 237.4276078166667,
                    "value": 0.066650390625
                },
                {
                    "ticks": 72659,
                    "time": 237.43001165833337,
                    "value": 0.0333251953125
                },
                {
                    "ticks": 72660,
                    "time": 237.43241550000005,
                    "value": 0
                },
                {
                    "ticks": 72840,
                    "time": 237.86510700000002,
                    "value": 0
                },
                {
                    "ticks": 72841,
                    "time": 237.8675108416667,
                    "value": 0.0667724609375
                },
                {
                    "ticks": 72842,
                    "time": 237.86991468333338,
                    "value": 0.1334228515625
                },
                {
                    "ticks": 72843,
                    "time": 237.87231852500003,
                    "value": 0.2000732421875
                },
                {
                    "ticks": 72844,
                    "time": 237.8747223666667,
                    "value": 0.2667236328125
                },
                {
                    "ticks": 72845,
                    "time": 237.87712620833338,
                    "value": 0.3333740234375
                },
                {
                    "ticks": 72846,
                    "time": 237.87953005000003,
                    "value": 0.4000244140625
                },
                {
                    "ticks": 72847,
                    "time": 237.8819338916667,
                    "value": 0.4666748046875
                },
                {
                    "ticks": 72848,
                    "time": 237.88433773333338,
                    "value": 0.5333251953125
                },
                {
                    "ticks": 72849,
                    "time": 237.88674157500003,
                    "value": 0.5999755859375
                },
                {
                    "ticks": 72850,
                    "time": 237.8891454166667,
                    "value": 0.6666259765625
                },
                {
                    "ticks": 72851,
                    "time": 237.89154925833338,
                    "value": 0.7332763671875
                },
                {
                    "ticks": 72852,
                    "time": 237.89395310000003,
                    "value": 0.7999267578125
                },
                {
                    "ticks": 72853,
                    "time": 237.89635694166668,
                    "value": 0.8665771484375
                },
                {
                    "ticks": 72854,
                    "time": 237.8987607833334,
                    "value": 0.9332275390625
                },
                {
                    "ticks": 72855,
                    "time": 237.90116462500004,
                    "value": 0.9998779296875
                },
                {
                    "ticks": 72856,
                    "time": 237.90356846666668,
                    "value": 0.93310546875
                },
                {
                    "ticks": 72857,
                    "time": 237.90597230833336,
                    "value": 0.866455078125
                },
                {
                    "ticks": 72858,
                    "time": 237.90837615000004,
                    "value": 0.7998046875
                },
                {
                    "ticks": 72859,
                    "time": 237.9107799916667,
                    "value": 0.733154296875
                },
                {
                    "ticks": 72860,
                    "time": 237.91318383333336,
                    "value": 0.66650390625
                },
                {
                    "ticks": 72861,
                    "time": 237.91558767500004,
                    "value": 0.599853515625
                },
                {
                    "ticks": 72862,
                    "time": 237.9179915166667,
                    "value": 0.533203125
                },
                {
                    "ticks": 72863,
                    "time": 237.92039535833337,
                    "value": 0.466552734375
                },
                {
                    "ticks": 72864,
                    "time": 237.92279920000004,
                    "value": 0.39990234375
                },
                {
                    "ticks": 72865,
                    "time": 237.9252030416667,
                    "value": 0.333251953125
                },
                {
                    "ticks": 72866,
                    "time": 237.92760688333337,
                    "value": 0.2666015625
                },
                {
                    "ticks": 72867,
                    "time": 237.93001072500005,
                    "value": 0.199951171875
                },
                {
                    "ticks": 72868,
                    "time": 237.9324145666667,
                    "value": 0.13330078125
                },
                {
                    "ticks": 72869,
                    "time": 237.93481840833337,
                    "value": 0.066650390625
                },
                {
                    "ticks": 72870,
                    "time": 237.93722225000005,
                    "value": 0
                },
                {
                    "ticks": 73080,
                    "time": 238.44202900000005,
                    "value": 0
                },
                {
                    "ticks": 73081,
                    "time": 238.4444328416667,
                    "value": 0.10009765625
                },
                {
                    "ticks": 73082,
                    "time": 238.44683668333337,
                    "value": 0.2000732421875
                },
                {
                    "ticks": 73083,
                    "time": 238.44924052500005,
                    "value": 0.300048828125
                },
                {
                    "ticks": 73084,
                    "time": 238.4516443666667,
                    "value": 0.4000244140625
                },
                {
                    "ticks": 73085,
                    "time": 238.45404820833335,
                    "value": 0.5
                },
                {
                    "ticks": 73086,
                    "time": 238.45645205000005,
                    "value": 0.5999755859375
                },
                {
                    "ticks": 73087,
                    "time": 238.4588558916667,
                    "value": 0.699951171875
                },
                {
                    "ticks": 73088,
                    "time": 238.46125973333335,
                    "value": 0.7999267578125
                },
                {
                    "ticks": 73089,
                    "time": 238.46366357500003,
                    "value": 0.89990234375
                },
                {
                    "ticks": 73090,
                    "time": 238.4660674166667,
                    "value": 0.9998779296875
                },
                {
                    "ticks": 73139,
                    "time": 238.58385565833336,
                    "value": 0
                },
                {
                    "ticks": 73500,
                    "time": 239.45164250000005,
                    "value": 0
                },
                {
                    "ticks": 73501,
                    "time": 239.4540463416667,
                    "value": 0.10009765625
                },
                {
                    "ticks": 73502,
                    "time": 239.45645018333337,
                    "value": 0.2000732421875
                },
                {
                    "ticks": 73503,
                    "time": 239.45885402500005,
                    "value": 0.300048828125
                },
                {
                    "ticks": 73504,
                    "time": 239.4612578666667,
                    "value": 0.4000244140625
                },
                {
                    "ticks": 73505,
                    "time": 239.46366170833335,
                    "value": 0.5
                },
                {
                    "ticks": 73506,
                    "time": 239.46606555000005,
                    "value": 0.5999755859375
                },
                {
                    "ticks": 73507,
                    "time": 239.4684693916667,
                    "value": 0.699951171875
                },
                {
                    "ticks": 73508,
                    "time": 239.47087323333335,
                    "value": 0.7999267578125
                },
                {
                    "ticks": 73509,
                    "time": 239.47327707500003,
                    "value": 0.89990234375
                },
                {
                    "ticks": 73510,
                    "time": 239.4756809166667,
                    "value": 0.9998779296875
                },
                {
                    "ticks": 73560,
                    "time": 239.59587300000004,
                    "value": 0.9998779296875
                },
                {
                    "ticks": 73561,
                    "time": 239.5982768416667,
                    "value": 0.974853515625
                },
                {
                    "ticks": 73562,
                    "time": 239.60068068333337,
                    "value": 0.9498291015625
                },
                {
                    "ticks": 73563,
                    "time": 239.60308452500004,
                    "value": 0.9248046875
                },
                {
                    "ticks": 73564,
                    "time": 239.6054883666667,
                    "value": 0.8997802734375
                },
                {
                    "ticks": 73565,
                    "time": 239.60789220833337,
                    "value": 0.8748779296875
                },
                {
                    "ticks": 73566,
                    "time": 239.61029605000004,
                    "value": 0.849853515625
                },
                {
                    "ticks": 73567,
                    "time": 239.6126998916667,
                    "value": 0.8248291015625
                },
                {
                    "ticks": 73568,
                    "time": 239.61510373333337,
                    "value": 0.7998046875
                },
                {
                    "ticks": 73569,
                    "time": 239.61750757500005,
                    "value": 0.77490234375
                },
                {
                    "ticks": 73570,
                    "time": 239.6199114166667,
                    "value": 0.7498779296875
                },
                {
                    "ticks": 73571,
                    "time": 239.62231525833337,
                    "value": 0.724853515625
                },
                {
                    "ticks": 73572,
                    "time": 239.62471910000005,
                    "value": 0.6998291015625
                },
                {
                    "ticks": 73573,
                    "time": 239.6271229416667,
                    "value": 0.6748046875
                },
                {
                    "ticks": 73574,
                    "time": 239.62952678333338,
                    "value": 0.64990234375
                },
                {
                    "ticks": 73575,
                    "time": 239.63193062500002,
                    "value": 0.6248779296875
                },
                {
                    "ticks": 73576,
                    "time": 239.6343344666667,
                    "value": 0.599853515625
                },
                {
                    "ticks": 73577,
                    "time": 239.63673830833338,
                    "value": 0.5748291015625
                },
                {
                    "ticks": 73578,
                    "time": 239.63914215000003,
                    "value": 0.5499267578125
                },
                {
                    "ticks": 73579,
                    "time": 239.6415459916667,
                    "value": 0.52490234375
                },
                {
                    "ticks": 73580,
                    "time": 239.64394983333335,
                    "value": 0.4998779296875
                },
                {
                    "ticks": 73581,
                    "time": 239.64635367500003,
                    "value": 0.474853515625
                },
                {
                    "ticks": 73582,
                    "time": 239.6487575166667,
                    "value": 0.4498291015625
                },
                {
                    "ticks": 73583,
                    "time": 239.65116135833335,
                    "value": 0.4249267578125
                },
                {
                    "ticks": 73584,
                    "time": 239.65356520000003,
                    "value": 0.39990234375
                },
                {
                    "ticks": 73585,
                    "time": 239.6559690416667,
                    "value": 0.3748779296875
                },
                {
                    "ticks": 73586,
                    "time": 239.65837288333336,
                    "value": 0.349853515625
                },
                {
                    "ticks": 73587,
                    "time": 239.66077672500003,
                    "value": 0.324951171875
                },
                {
                    "ticks": 73588,
                    "time": 239.6631805666667,
                    "value": 0.2999267578125
                },
                {
                    "ticks": 73589,
                    "time": 239.66558440833336,
                    "value": 0.27490234375
                },
                {
                    "ticks": 73590,
                    "time": 239.66798825000004,
                    "value": 0.2498779296875
                },
                {
                    "ticks": 73591,
                    "time": 239.6703920916667,
                    "value": 0.224853515625
                },
                {
                    "ticks": 73592,
                    "time": 239.67279593333336,
                    "value": 0.199951171875
                },
                {
                    "ticks": 73593,
                    "time": 239.67519977500004,
                    "value": 0.1749267578125
                },
                {
                    "ticks": 73594,
                    "time": 239.67760361666672,
                    "value": 0.14990234375
                },
                {
                    "ticks": 73595,
                    "time": 239.68000745833336,
                    "value": 0.1248779296875
                },
                {
                    "ticks": 73596,
                    "time": 239.68241130000004,
                    "value": 0.0999755859375
                },
                {
                    "ticks": 73597,
                    "time": 239.68481514166672,
                    "value": 0.074951171875
                },
                {
                    "ticks": 73598,
                    "time": 239.68721898333337,
                    "value": 0.0499267578125
                },
                {
                    "ticks": 73599,
                    "time": 239.68962282500001,
                    "value": 0.02490234375
                },
                {
                    "ticks": 73600,
                    "time": 239.69202666666672,
                    "value": 0
                },
                {
                    "ticks": 73680,
                    "time": 239.88433400000002,
                    "value": 0
                },
                {
                    "ticks": 73681,
                    "time": 239.8867378416667,
                    "value": 0.10009765625
                },
                {
                    "ticks": 73682,
                    "time": 239.88914168333338,
                    "value": 0.2000732421875
                },
                {
                    "ticks": 73683,
                    "time": 239.89154552500003,
                    "value": 0.300048828125
                },
                {
                    "ticks": 73684,
                    "time": 239.8939493666667,
                    "value": 0.4000244140625
                },
                {
                    "ticks": 73685,
                    "time": 239.89635320833338,
                    "value": 0.5
                },
                {
                    "ticks": 73686,
                    "time": 239.89875705000003,
                    "value": 0.5999755859375
                },
                {
                    "ticks": 73687,
                    "time": 239.9011608916667,
                    "value": 0.699951171875
                },
                {
                    "ticks": 73688,
                    "time": 239.90356473333338,
                    "value": 0.7999267578125
                },
                {
                    "ticks": 73689,
                    "time": 239.90596857500003,
                    "value": 0.89990234375
                },
                {
                    "ticks": 73690,
                    "time": 239.9083724166667,
                    "value": 0.9998779296875
                },
                {
                    "ticks": 73799,
                    "time": 240.17039115833336,
                    "value": 0
                },
                {
                    "ticks": 73920,
                    "time": 240.46125600000005,
                    "value": 0
                },
                {
                    "ticks": 73921,
                    "time": 240.4636598416667,
                    "value": 0.10009765625
                },
                {
                    "ticks": 73922,
                    "time": 240.46606368333337,
                    "value": 0.2000732421875
                },
                {
                    "ticks": 73923,
                    "time": 240.46846752500005,
                    "value": 0.300048828125
                },
                {
                    "ticks": 73924,
                    "time": 240.4708713666667,
                    "value": 0.4000244140625
                },
                {
                    "ticks": 73925,
                    "time": 240.47327520833335,
                    "value": 0.5
                },
                {
                    "ticks": 73926,
                    "time": 240.47567905000005,
                    "value": 0.5999755859375
                },
                {
                    "ticks": 73927,
                    "time": 240.4780828916667,
                    "value": 0.699951171875
                },
                {
                    "ticks": 73928,
                    "time": 240.48048673333335,
                    "value": 0.7999267578125
                },
                {
                    "ticks": 73929,
                    "time": 240.48289057500003,
                    "value": 0.89990234375
                },
                {
                    "ticks": 73930,
                    "time": 240.4852944166667,
                    "value": 0.9998779296875
                },
                {
                    "ticks": 73979,
                    "time": 240.60308265833336,
                    "value": 0
                },
                {
                    "ticks": 74219,
                    "time": 241.18000465833336,
                    "value": 0
                },
                {
                    "ticks": 74220,
                    "time": 241.18240850000004,
                    "value": 0
                },
                {
                    "ticks": 74221,
                    "time": 241.1848123416667,
                    "value": 0.10009765625
                },
                {
                    "ticks": 74222,
                    "time": 241.18721618333336,
                    "value": 0.2000732421875
                },
                {
                    "ticks": 74223,
                    "time": 241.18962002500004,
                    "value": 0.300048828125
                },
                {
                    "ticks": 74224,
                    "time": 241.19202386666672,
                    "value": 0.4000244140625
                },
                {
                    "ticks": 74225,
                    "time": 241.19442770833336,
                    "value": 0.5
                },
                {
                    "ticks": 74226,
                    "time": 241.19683155000004,
                    "value": 0.5999755859375
                },
                {
                    "ticks": 74227,
                    "time": 241.19923539166672,
                    "value": 0.699951171875
                },
                {
                    "ticks": 74228,
                    "time": 241.20163923333337,
                    "value": 0.7999267578125
                },
                {
                    "ticks": 74229,
                    "time": 241.20404307500002,
                    "value": 0.89990234375
                },
                {
                    "ticks": 74230,
                    "time": 241.20644691666672,
                    "value": 0.9998779296875
                },
                {
                    "ticks": 74400,
                    "time": 241.61510000000004,
                    "value": 0
                },
                {
                    "ticks": 74401,
                    "time": 241.6175038416667,
                    "value": 0.10009765625
                },
                {
                    "ticks": 74402,
                    "time": 241.61990768333337,
                    "value": 0.2000732421875
                },
                {
                    "ticks": 74403,
                    "time": 241.62231152500004,
                    "value": 0.300048828125
                },
                {
                    "ticks": 74404,
                    "time": 241.6247153666667,
                    "value": 0.4000244140625
                },
                {
                    "ticks": 74405,
                    "time": 241.62711920833337,
                    "value": 0.5
                },
                {
                    "ticks": 74406,
                    "time": 241.62952305000005,
                    "value": 0.5999755859375
                },
                {
                    "ticks": 74407,
                    "time": 241.6319268916667,
                    "value": 0.699951171875
                },
                {
                    "ticks": 74408,
                    "time": 241.63433073333337,
                    "value": 0.7999267578125
                },
                {
                    "ticks": 74409,
                    "time": 241.63673457500005,
                    "value": 0.89990234375
                },
                {
                    "ticks": 74410,
                    "time": 241.6391384166667,
                    "value": 0.9998779296875
                },
                {
                    "ticks": 74459,
                    "time": 241.75692665833338,
                    "value": 0
                },
                {
                    "ticks": 74640,
                    "time": 242.19202200000004,
                    "value": 0
                },
                {
                    "ticks": 74641,
                    "time": 242.1944258416667,
                    "value": 0.10009765625
                },
                {
                    "ticks": 74642,
                    "time": 242.19682968333336,
                    "value": 0.2000732421875
                },
                {
                    "ticks": 74643,
                    "time": 242.19923352500004,
                    "value": 0.300048828125
                },
                {
                    "ticks": 74644,
                    "time": 242.20163736666672,
                    "value": 0.4000244140625
                },
                {
                    "ticks": 74645,
                    "time": 242.20404120833336,
                    "value": 0.5
                },
                {
                    "ticks": 74646,
                    "time": 242.20644505000004,
                    "value": 0.5999755859375
                },
                {
                    "ticks": 74647,
                    "time": 242.20884889166672,
                    "value": 0.699951171875
                },
                {
                    "ticks": 74648,
                    "time": 242.21125273333337,
                    "value": 0.7999267578125
                },
                {
                    "ticks": 74649,
                    "time": 242.21365657500002,
                    "value": 0.89990234375
                },
                {
                    "ticks": 74650,
                    "time": 242.2160604166667,
                    "value": 0.9998779296875
                },
                {
                    "ticks": 74699,
                    "time": 242.33384865833335,
                    "value": 0
                }
            ],
            "instrument": {
                "family": "guitar",
                "number": 29,
                "name": "overdriven guitar"
            },
            "name": "Guitar Solo",
            "notes": [
                {
                    "duration": 0.14423050000002036,
                    "durationTicks": 60,
                    "midi": 71,
                    "name": "B4",
                    "ticks": 64140,
                    "time": 216.95168450000003,
                    "velocity": 1
                },
                {
                    "duration": 0.07211524999999597,
                    "durationTicks": 30,
                    "midi": 74,
                    "name": "D5",
                    "ticks": 64200,
                    "time": 217.09591500000005,
                    "velocity": 1
                },
                {
                    "duration": 0.2163457499999879,
                    "durationTicks": 90,
                    "midi": 76,
                    "name": "E5",
                    "ticks": 64230,
                    "time": 217.16803025000004,
                    "velocity": 1
                },
                {
                    "duration": 0.07211524999999597,
                    "durationTicks": 30,
                    "midi": 79,
                    "name": "G5",
                    "ticks": 64320,
                    "time": 217.38437600000003,
                    "velocity": 1
                },
                {
                    "duration": 0.07211524999999597,
                    "durationTicks": 30,
                    "midi": 76,
                    "name": "E5",
                    "ticks": 64350,
                    "time": 217.45649125000003,
                    "velocity": 1
                },
                {
                    "duration": 0.07211525000002439,
                    "durationTicks": 30,
                    "midi": 71,
                    "name": "B4",
                    "ticks": 64380,
                    "time": 217.52860650000002,
                    "velocity": 1
                },
                {
                    "duration": 0.07211524999999597,
                    "durationTicks": 30,
                    "midi": 76,
                    "name": "E5",
                    "ticks": 64410,
                    "time": 217.60072175000005,
                    "velocity": 1
                },
                {
                    "duration": 0.07211524999999597,
                    "durationTicks": 30,
                    "midi": 79,
                    "name": "G5",
                    "ticks": 64440,
                    "time": 217.67283700000004,
                    "velocity": 1
                },
                {
                    "duration": 0.07211524999999597,
                    "durationTicks": 30,
                    "midi": 76,
                    "name": "E5",
                    "ticks": 64470,
                    "time": 217.74495225000004,
                    "velocity": 1
                },
                {
                    "duration": 0.07211524999999597,
                    "durationTicks": 30,
                    "midi": 81,
                    "name": "A5",
                    "ticks": 64500,
                    "time": 217.81706750000004,
                    "velocity": 1
                },
                {
                    "duration": 0.07211524999999597,
                    "durationTicks": 30,
                    "midi": 76,
                    "name": "E5",
                    "ticks": 64530,
                    "time": 217.88918275000003,
                    "velocity": 1
                },
                {
                    "duration": 0.07211524999999597,
                    "durationTicks": 30,
                    "midi": 79,
                    "name": "G5",
                    "ticks": 64560,
                    "time": 217.96129800000003,
                    "velocity": 1
                },
                {
                    "duration": 0.07211524999999597,
                    "durationTicks": 30,
                    "midi": 76,
                    "name": "E5",
                    "ticks": 64590,
                    "time": 218.03341325000002,
                    "velocity": 1
                },
                {
                    "duration": 0.07211525000002439,
                    "durationTicks": 30,
                    "midi": 74,
                    "name": "D5",
                    "ticks": 64620,
                    "time": 218.10552850000002,
                    "velocity": 1
                },
                {
                    "duration": 0.07211524999999597,
                    "durationTicks": 30,
                    "midi": 76,
                    "name": "E5",
                    "ticks": 64650,
                    "time": 218.17764375000004,
                    "velocity": 1
                },
                {
                    "duration": 0.07211524999999597,
                    "durationTicks": 30,
                    "midi": 79,
                    "name": "G5",
                    "ticks": 64680,
                    "time": 218.24975900000004,
                    "velocity": 1
                },
                {
                    "duration": 0.07211524999999597,
                    "durationTicks": 30,
                    "midi": 76,
                    "name": "E5",
                    "ticks": 64710,
                    "time": 218.32187425000004,
                    "velocity": 1
                },
                {
                    "duration": 0.07211524999999597,
                    "durationTicks": 30,
                    "midi": 81,
                    "name": "A5",
                    "ticks": 64740,
                    "time": 218.39398950000003,
                    "velocity": 1
                },
                {
                    "duration": 0.07211524999999597,
                    "durationTicks": 30,
                    "midi": 76,
                    "name": "E5",
                    "ticks": 64770,
                    "time": 218.46610475000003,
                    "velocity": 1
                },
                {
                    "duration": 0.07211524999999597,
                    "durationTicks": 30,
                    "midi": 79,
                    "name": "G5",
                    "ticks": 64800,
                    "time": 218.53822000000002,
                    "velocity": 1
                },
                {
                    "duration": 0.07211525000002439,
                    "durationTicks": 30,
                    "midi": 76,
                    "name": "E5",
                    "ticks": 64830,
                    "time": 218.61033525000002,
                    "velocity": 1
                },
                {
                    "duration": 0.14423049999999193,
                    "durationTicks": 60,
                    "midi": 74,
                    "name": "D5",
                    "ticks": 64860,
                    "time": 218.68245050000004,
                    "velocity": 1
                },
                {
                    "duration": 0.14423049999999193,
                    "durationTicks": 60,
                    "midi": 76,
                    "name": "E5",
                    "ticks": 64920,
                    "time": 218.82668100000004,
                    "velocity": 1
                },
                {
                    "duration": 0.14423049999999193,
                    "durationTicks": 60,
                    "midi": 74,
                    "name": "D5",
                    "ticks": 64980,
                    "time": 218.97091150000003,
                    "velocity": 1
                },
                {
                    "duration": 0.14423050000002036,
                    "durationTicks": 60,
                    "midi": 76,
                    "name": "E5",
                    "ticks": 65040,
                    "time": 219.11514200000002,
                    "velocity": 1
                },
                {
                    "duration": 1.2980744999999843,
                    "durationTicks": 540,
                    "midi": 74,
                    "name": "D5",
                    "ticks": 65100,
                    "time": 219.25937250000004,
                    "velocity": 1
                },
                {
                    "duration": 0.2163457499999879,
                    "durationTicks": 90,
                    "midi": 71,
                    "name": "B4",
                    "ticks": 66240,
                    "time": 221.99975200000003,
                    "velocity": 1
                },
                {
                    "duration": 0.07211525000002439,
                    "durationTicks": 30,
                    "midi": 71,
                    "name": "B4",
                    "ticks": 66330,
                    "time": 222.21609775000002,
                    "velocity": 1
                },
                {
                    "duration": 0.07211524999999597,
                    "durationTicks": 30,
                    "midi": 74,
                    "name": "D5",
                    "ticks": 66360,
                    "time": 222.28821300000004,
                    "velocity": 1
                },
                {
                    "duration": 0.07211524999999597,
                    "durationTicks": 30,
                    "midi": 71,
                    "name": "B4",
                    "ticks": 66390,
                    "time": 222.36032825000004,
                    "velocity": 1
                },
                {
                    "duration": 0.07211524999999597,
                    "durationTicks": 30,
                    "midi": 69,
                    "name": "A4",
                    "ticks": 66420,
                    "time": 222.43244350000003,
                    "velocity": 1
                },
                {
                    "duration": 0.07211524999999597,
                    "durationTicks": 30,
                    "midi": 71,
                    "name": "B4",
                    "ticks": 66450,
                    "time": 222.50455875000003,
                    "velocity": 1
                },
                {
                    "duration": 0.14423049999999193,
                    "durationTicks": 60,
                    "midi": 71,
                    "name": "B4",
                    "ticks": 66480,
                    "time": 222.57667400000003,
                    "velocity": 1
                },
                {
                    "duration": 0.07211525000002439,
                    "durationTicks": 30,
                    "midi": 69,
                    "name": "A4",
                    "ticks": 66540,
                    "time": 222.72090450000002,
                    "velocity": 1
                },
                {
                    "duration": 0.07211524999999597,
                    "durationTicks": 30,
                    "midi": 66,
                    "name": "F#4",
                    "ticks": 66570,
                    "time": 222.79301975000004,
                    "velocity": 1
                },
                {
                    "duration": 0.07211524999999597,
                    "durationTicks": 30,
                    "midi": 69,
                    "name": "A4",
                    "ticks": 66600,
                    "time": 222.86513500000004,
                    "velocity": 1
                },
                {
                    "duration": 0.07211524999999597,
                    "durationTicks": 30,
                    "midi": 66,
                    "name": "F#4",
                    "ticks": 66630,
                    "time": 222.93725025000003,
                    "velocity": 1
                },
                {
                    "duration": 0.14423049999999193,
                    "durationTicks": 60,
                    "midi": 64,
                    "name": "E4",
                    "ticks": 66660,
                    "time": 223.00936550000003,
                    "velocity": 1
                },
                {
                    "duration": 0.14423050000002036,
                    "durationTicks": 60,
                    "midi": 62,
                    "name": "D4",
                    "ticks": 66720,
                    "time": 223.15359600000002,
                    "velocity": 1
                },
                {
                    "duration": 0.14423049999999193,
                    "durationTicks": 60,
                    "midi": 59,
                    "name": "B3",
                    "ticks": 66780,
                    "time": 223.29782650000004,
                    "velocity": 1
                },
                {
                    "duration": 0.14423049999999193,
                    "durationTicks": 60,
                    "midi": 62,
                    "name": "D4",
                    "ticks": 66840,
                    "time": 223.44205700000003,
                    "velocity": 1
                },
                {
                    "duration": 0.21634575000001632,
                    "durationTicks": 90,
                    "midi": 64,
                    "name": "E4",
                    "ticks": 66900,
                    "time": 223.58628750000003,
                    "velocity": 1
                },
                {
                    "duration": 0.07211524999999597,
                    "durationTicks": 30,
                    "midi": 62,
                    "name": "D4",
                    "ticks": 66990,
                    "time": 223.80263325000004,
                    "velocity": 1
                },
                {
                    "duration": 1.5865354999999965,
                    "durationTicks": 660,
                    "midi": 59,
                    "name": "B3",
                    "ticks": 67020,
                    "time": 223.87474850000004,
                    "velocity": 1
                },
                {
                    "duration": 0.4326915000000042,
                    "durationTicks": 180,
                    "midi": 81,
                    "name": "A5",
                    "ticks": 68160,
                    "time": 226.61512800000003,
                    "velocity": 1
                },
                {
                    "duration": 0.07211524999999597,
                    "durationTicks": 30,
                    "midi": 70,
                    "name": "A#4",
                    "ticks": 68340,
                    "time": 227.04781950000003,
                    "velocity": 1
                },
                {
                    "duration": 0.07211524999999597,
                    "durationTicks": 30,
                    "midi": 74,
                    "name": "D5",
                    "ticks": 68370,
                    "time": 227.11993475000003,
                    "velocity": 1
                },
                {
                    "duration": 0.14423050000002036,
                    "durationTicks": 60,
                    "midi": 80,
                    "name": "G#5",
                    "ticks": 68400,
                    "time": 227.19205000000002,
                    "velocity": 1
                },
                {
                    "duration": 0.14423049999999193,
                    "durationTicks": 60,
                    "midi": 79,
                    "name": "G5",
                    "ticks": 68460,
                    "time": 227.33628050000004,
                    "velocity": 1
                },
                {
                    "duration": 0.14423049999999193,
                    "durationTicks": 60,
                    "midi": 78,
                    "name": "F#5",
                    "ticks": 68520,
                    "time": 227.48051100000004,
                    "velocity": 1
                },
                {
                    "duration": 0.14423049999999193,
                    "durationTicks": 60,
                    "midi": 74,
                    "name": "D5",
                    "ticks": 68580,
                    "time": 227.62474150000003,
                    "velocity": 1
                },
                {
                    "duration": 0.14423050000002036,
                    "durationTicks": 60,
                    "midi": 73,
                    "name": "C#5",
                    "ticks": 68640,
                    "time": 227.76897200000002,
                    "velocity": 1
                },
                {
                    "duration": 0.14423049999999193,
                    "durationTicks": 60,
                    "midi": 71,
                    "name": "B4",
                    "ticks": 68700,
                    "time": 227.91320250000004,
                    "velocity": 1
                },
                {
                    "duration": 0.14423049999999193,
                    "durationTicks": 60,
                    "midi": 67,
                    "name": "G4",
                    "ticks": 68760,
                    "time": 228.05743300000003,
                    "velocity": 1
                },
                {
                    "duration": 1.4423050000000046,
                    "durationTicks": 600,
                    "midi": 74,
                    "name": "D5",
                    "ticks": 68820,
                    "time": 228.20166350000002,
                    "velocity": 1
                },
                {
                    "duration": 0.14423049999999193,
                    "durationTicks": 60,
                    "midi": 82,
                    "name": "A#5",
                    "ticks": 69960,
                    "time": 230.94204300000004,
                    "velocity": 1
                },
                {
                    "duration": 0.07211524999999597,
                    "durationTicks": 30,
                    "midi": 84,
                    "name": "C6",
                    "ticks": 70020,
                    "time": 231.08627350000003,
                    "velocity": 1
                },
                {
                    "duration": 0.07211524999999597,
                    "durationTicks": 30,
                    "midi": 84,
                    "name": "C6",
                    "ticks": 70050,
                    "time": 231.15838875000003,
                    "velocity": 1
                },
                {
                    "duration": 0.07211524999999597,
                    "durationTicks": 30,
                    "midi": 87,
                    "name": "D#6",
                    "ticks": 70080,
                    "time": 231.23050400000002,
                    "velocity": 1
                },
                {
                    "duration": 0.07211525000002439,
                    "durationTicks": 30,
                    "midi": 84,
                    "name": "C6",
                    "ticks": 70110,
                    "time": 231.30261925000002,
                    "velocity": 1
                },
                {
                    "duration": 0.07211524999999597,
                    "durationTicks": 30,
                    "midi": 82,
                    "name": "A#5",
                    "ticks": 70140,
                    "time": 231.37473450000005,
                    "velocity": 1
                },
                {
                    "duration": 0.07211524999999597,
                    "durationTicks": 30,
                    "midi": 86,
                    "name": "D6",
                    "ticks": 70170,
                    "time": 231.44684975000004,
                    "velocity": 1
                },
                {
                    "duration": 0.07211524999999597,
                    "durationTicks": 30,
                    "midi": 83,
                    "name": "B5",
                    "ticks": 70200,
                    "time": 231.51896500000004,
                    "velocity": 1
                },
                {
                    "duration": 0.07211524999999597,
                    "durationTicks": 30,
                    "midi": 83,
                    "name": "B5",
                    "ticks": 70230,
                    "time": 231.59108025000003,
                    "velocity": 1
                },
                {
                    "duration": 0.07211524999999597,
                    "durationTicks": 30,
                    "midi": 85,
                    "name": "C#6",
                    "ticks": 70260,
                    "time": 231.66319550000003,
                    "velocity": 1
                },
                {
                    "duration": 0.07211524999999597,
                    "durationTicks": 30,
                    "midi": 85,
                    "name": "C#6",
                    "ticks": 70290,
                    "time": 231.73531075000002,
                    "velocity": 1
                },
                {
                    "duration": 0.07211525000002439,
                    "durationTicks": 30,
                    "midi": 81,
                    "name": "A5",
                    "ticks": 70320,
                    "time": 231.80742600000002,
                    "velocity": 1
                },
                {
                    "duration": 0.07211524999999597,
                    "durationTicks": 30,
                    "midi": 79,
                    "name": "G5",
                    "ticks": 70350,
                    "time": 231.87954125000005,
                    "velocity": 1
                },
                {
                    "duration": 0.07211524999999597,
                    "durationTicks": 30,
                    "midi": 83,
                    "name": "B5",
                    "ticks": 70380,
                    "time": 231.95165650000004,
                    "velocity": 1
                },
                {
                    "duration": 0.07211524999999597,
                    "durationTicks": 30,
                    "midi": 80,
                    "name": "G#5",
                    "ticks": 70410,
                    "time": 232.02377175000004,
                    "velocity": 1
                },
                {
                    "duration": 0.07211524999999597,
                    "durationTicks": 30,
                    "midi": 78,
                    "name": "F#5",
                    "ticks": 70440,
                    "time": 232.09588700000003,
                    "velocity": 1
                },
                {
                    "duration": 0.07211524999999597,
                    "durationTicks": 30,
                    "midi": 78,
                    "name": "F#5",
                    "ticks": 70470,
                    "time": 232.16800225000003,
                    "velocity": 1
                },
                {
                    "duration": 0.04807683333334012,
                    "durationTicks": 20,
                    "midi": 81,
                    "name": "A5",
                    "ticks": 70500,
                    "time": 232.24011750000003,
                    "velocity": 1
                },
                {
                    "duration": 0.04807683333334012,
                    "durationTicks": 20,
                    "midi": 78,
                    "name": "F#5",
                    "ticks": 70520,
                    "time": 232.28819433333337,
                    "velocity": 1
                },
                {
                    "duration": 0.04807683333334012,
                    "durationTicks": 20,
                    "midi": 76,
                    "name": "E5",
                    "ticks": 70540,
                    "time": 232.3362711666667,
                    "velocity": 1
                },
                {
                    "duration": 0.07211524999999597,
                    "durationTicks": 30,
                    "midi": 80,
                    "name": "G#5",
                    "ticks": 70560,
                    "time": 232.38434800000005,
                    "velocity": 1
                },
                {
                    "duration": 0.07211524999999597,
                    "durationTicks": 30,
                    "midi": 76,
                    "name": "E5",
                    "ticks": 70590,
                    "time": 232.45646325000004,
                    "velocity": 1
                },
                {
                    "duration": 0.07211524999999597,
                    "durationTicks": 30,
                    "midi": 75,
                    "name": "D#5",
                    "ticks": 70620,
                    "time": 232.52857850000004,
                    "velocity": 1
                },
                {
                    "duration": 0.07211524999999597,
                    "durationTicks": 30,
                    "midi": 78,
                    "name": "F#5",
                    "ticks": 70650,
                    "time": 232.60069375000003,
                    "velocity": 1
                },
                {
                    "duration": 0.07211524999999597,
                    "durationTicks": 30,
                    "midi": 76,
                    "name": "E5",
                    "ticks": 70680,
                    "time": 232.67280900000003,
                    "velocity": 1
                },
                {
                    "duration": 0.07211524999999597,
                    "durationTicks": 30,
                    "midi": 75,
                    "name": "D#5",
                    "ticks": 70710,
                    "time": 232.74492425000003,
                    "velocity": 1
                },
                {
                    "duration": 0.07211525000002439,
                    "durationTicks": 30,
                    "midi": 73,
                    "name": "C#5",
                    "ticks": 70740,
                    "time": 232.81703950000002,
                    "velocity": 1
                },
                {
                    "duration": 0.07211524999999597,
                    "durationTicks": 30,
                    "midi": 71,
                    "name": "B4",
                    "ticks": 70770,
                    "time": 232.88915475000005,
                    "velocity": 1
                },
                {
                    "duration": 0.07211524999999597,
                    "durationTicks": 30,
                    "midi": 74,
                    "name": "D5",
                    "ticks": 70800,
                    "time": 232.96127000000004,
                    "velocity": 1
                },
                {
                    "duration": 0.07211524999999597,
                    "durationTicks": 30,
                    "midi": 71,
                    "name": "B4",
                    "ticks": 70830,
                    "time": 233.03338525000004,
                    "velocity": 1
                },
                {
                    "duration": 0.07211524999999597,
                    "durationTicks": 30,
                    "midi": 69,
                    "name": "A4",
                    "ticks": 70860,
                    "time": 233.10550050000003,
                    "velocity": 1
                },
                {
                    "duration": 0.07211524999999597,
                    "durationTicks": 30,
                    "midi": 71,
                    "name": "B4",
                    "ticks": 70890,
                    "time": 233.17761575000003,
                    "velocity": 1
                },
                {
                    "duration": 0.07211524999999597,
                    "durationTicks": 30,
                    "midi": 74,
                    "name": "D5",
                    "ticks": 70920,
                    "time": 233.24973100000003,
                    "velocity": 1
                },
                {
                    "duration": 0.07211525000002439,
                    "durationTicks": 30,
                    "midi": 71,
                    "name": "B4",
                    "ticks": 70950,
                    "time": 233.32184625000002,
                    "velocity": 1
                },
                {
                    "duration": 0.07211524999999597,
                    "durationTicks": 30,
                    "midi": 69,
                    "name": "A4",
                    "ticks": 70980,
                    "time": 233.39396150000005,
                    "velocity": 1
                },
                {
                    "duration": 0.07211524999999597,
                    "durationTicks": 30,
                    "midi": 66,
                    "name": "F#4",
                    "ticks": 71010,
                    "time": 233.46607675000004,
                    "velocity": 1
                },
                {
                    "duration": 0.07211524999999597,
                    "durationTicks": 30,
                    "midi": 69,
                    "name": "A4",
                    "ticks": 71040,
                    "time": 233.53819200000004,
                    "velocity": 1
                },
                {
                    "duration": 0.07211524999999597,
                    "durationTicks": 30,
                    "midi": 66,
                    "name": "F#4",
                    "ticks": 71070,
                    "time": 233.61030725000003,
                    "velocity": 1
                },
                {
                    "duration": 0.14423049999999193,
                    "durationTicks": 60,
                    "midi": 64,
                    "name": "E4",
                    "ticks": 71100,
                    "time": 233.68242250000003,
                    "velocity": 1
                },
                {
                    "duration": 0.14423050000002036,
                    "durationTicks": 60,
                    "midi": 62,
                    "name": "D4",
                    "ticks": 71160,
                    "time": 233.82665300000002,
                    "velocity": 1
                },
                {
                    "duration": 0.14423049999999193,
                    "durationTicks": 60,
                    "midi": 64,
                    "name": "E4",
                    "ticks": 71220,
                    "time": 233.97088350000004,
                    "velocity": 1
                },
                {
                    "duration": 0.14423049999999193,
                    "durationTicks": 60,
                    "midi": 66,
                    "name": "F#4",
                    "ticks": 71280,
                    "time": 234.11511400000003,
                    "velocity": 1
                },
                {
                    "duration": 0.14423050000002036,
                    "durationTicks": 60,
                    "midi": 64,
                    "name": "E4",
                    "ticks": 71340,
                    "time": 234.25934450000003,
                    "velocity": 1
                },
                {
                    "duration": 0.2163457499999879,
                    "durationTicks": 90,
                    "midi": 64,
                    "name": "E4",
                    "ticks": 71400,
                    "time": 234.40357500000005,
                    "velocity": 1
                },
                {
                    "duration": 0.07211524999999597,
                    "durationTicks": 30,
                    "midi": 62,
                    "name": "D4",
                    "ticks": 71490,
                    "time": 234.61992075000003,
                    "velocity": 1
                },
                {
                    "duration": 0.14423049999999193,
                    "durationTicks": 60,
                    "midi": 64,
                    "name": "E4",
                    "ticks": 71520,
                    "time": 234.69203600000003,
                    "velocity": 1
                },
                {
                    "duration": 0.14423050000002036,
                    "durationTicks": 60,
                    "midi": 62,
                    "name": "D4",
                    "ticks": 71580,
                    "time": 234.83626650000002,
                    "velocity": 1
                },
                {
                    "duration": 0.14423049999999193,
                    "durationTicks": 60,
                    "midi": 59,
                    "name": "B3",
                    "ticks": 71640,
                    "time": 234.98049700000004,
                    "velocity": 1
                },
                {
                    "duration": 0.4326915000000042,
                    "durationTicks": 180,
                    "midi": 62,
                    "name": "D4",
                    "ticks": 71700,
                    "time": 235.12472750000003,
                    "velocity": 1
                },
                {
                    "duration": 0.14423049999999193,
                    "durationTicks": 60,
                    "midi": 45,
                    "name": "A2",
                    "ticks": 71880,
                    "time": 235.55741900000004,
                    "velocity": 1
                },
                {
                    "duration": 0.14423049999999193,
                    "durationTicks": 60,
                    "midi": 45,
                    "name": "A2",
                    "ticks": 71940,
                    "time": 235.70164950000003,
                    "velocity": 1
                },
                {
                    "duration": 0.14423050000002036,
                    "durationTicks": 60,
                    "midi": 47,
                    "name": "B2",
                    "ticks": 72000,
                    "time": 235.84588000000002,
                    "velocity": 1
                },
                {
                    "duration": 0.14423049999999193,
                    "durationTicks": 60,
                    "midi": 50,
                    "name": "D3",
                    "ticks": 72060,
                    "time": 235.99011050000004,
                    "velocity": 1
                },
                {
                    "duration": 0.14423049999999193,
                    "durationTicks": 60,
                    "midi": 54,
                    "name": "F#3",
                    "ticks": 72120,
                    "time": 236.13434100000003,
                    "velocity": 1
                },
                {
                    "duration": 0.14423050000002036,
                    "durationTicks": 60,
                    "midi": 57,
                    "name": "A3",
                    "ticks": 72180,
                    "time": 236.27857150000003,
                    "velocity": 1
                },
                {
                    "duration": 0.07211524999999597,
                    "durationTicks": 30,
                    "midi": 59,
                    "name": "B3",
                    "ticks": 72240,
                    "time": 236.42280200000005,
                    "velocity": 1
                },
                {
                    "duration": 0.07211524999999597,
                    "durationTicks": 30,
                    "midi": 57,
                    "name": "A3",
                    "ticks": 72270,
                    "time": 236.49491725000004,
                    "velocity": 1
                },
                {
                    "duration": 0.14423049999999193,
                    "durationTicks": 60,
                    "midi": 54,
                    "name": "F#3",
                    "ticks": 72300,
                    "time": 236.56703250000004,
                    "velocity": 1
                },
                {
                    "duration": 0.07211524999999597,
                    "durationTicks": 30,
                    "midi": 57,
                    "name": "A3",
                    "ticks": 72360,
                    "time": 236.71126300000003,
                    "velocity": 1
                },
                {
                    "duration": 0.07211524999999597,
                    "durationTicks": 30,
                    "midi": 59,
                    "name": "B3",
                    "ticks": 72390,
                    "time": 236.78337825000003,
                    "velocity": 1
                },
                {
                    "duration": 0.14423050000002036,
                    "durationTicks": 60,
                    "midi": 59,
                    "name": "B3",
                    "ticks": 72420,
                    "time": 236.85549350000002,
                    "velocity": 1
                },
                {
                    "duration": 0.14423049999999193,
                    "durationTicks": 60,
                    "midi": 62,
                    "name": "D4",
                    "ticks": 72480,
                    "time": 236.99972400000004,
                    "velocity": 1
                },
                {
                    "duration": 0.14423049999999193,
                    "durationTicks": 60,
                    "midi": 64,
                    "name": "E4",
                    "ticks": 72540,
                    "time": 237.14395450000004,
                    "velocity": 1
                },
                {
                    "duration": 0.21634575000001632,
                    "durationTicks": 90,
                    "midi": 64,
                    "name": "E4",
                    "ticks": 72600,
                    "time": 237.28818500000003,
                    "velocity": 1
                },
                {
                    "duration": 0.07211524999999597,
                    "durationTicks": 30,
                    "midi": 62,
                    "name": "D4",
                    "ticks": 72690,
                    "time": 237.50453075000004,
                    "velocity": 1
                },
                {
                    "duration": 0.14423049999999193,
                    "durationTicks": 60,
                    "midi": 64,
                    "name": "E4",
                    "ticks": 72720,
                    "time": 237.57664600000004,
                    "velocity": 1
                },
                {
                    "duration": 0.2884610000000123,
                    "durationTicks": 120,
                    "midi": 62,
                    "name": "D4",
                    "ticks": 72780,
                    "time": 237.72087650000003,
                    "velocity": 1
                },
                {
                    "duration": 0.14423049999999193,
                    "durationTicks": 60,
                    "midi": 59,
                    "name": "B3",
                    "ticks": 72900,
                    "time": 238.00933750000004,
                    "velocity": 1
                },
                {
                    "duration": 0.14423049999999193,
                    "durationTicks": 60,
                    "midi": 62,
                    "name": "D4",
                    "ticks": 72960,
                    "time": 238.15356800000004,
                    "velocity": 1
                },
                {
                    "duration": 0.14423050000002036,
                    "durationTicks": 60,
                    "midi": 64,
                    "name": "E4",
                    "ticks": 73020,
                    "time": 238.29779850000003,
                    "velocity": 1
                },
                {
                    "duration": 0.14423049999999193,
                    "durationTicks": 60,
                    "midi": 64,
                    "name": "E4",
                    "ticks": 73080,
                    "time": 238.44202900000005,
                    "velocity": 1
                },
                {
                    "duration": 0.14423049999999193,
                    "durationTicks": 60,
                    "midi": 66,
                    "name": "F#4",
                    "ticks": 73140,
                    "time": 238.58625950000004,
                    "velocity": 1
                },
                {
                    "duration": 0.07211524999999597,
                    "durationTicks": 30,
                    "midi": 69,
                    "name": "A4",
                    "ticks": 73200,
                    "time": 238.73049000000003,
                    "velocity": 1
                },
                {
                    "duration": 0.07211524999999597,
                    "durationTicks": 30,
                    "midi": 66,
                    "name": "F#4",
                    "ticks": 73230,
                    "time": 238.80260525000003,
                    "velocity": 1
                },
                {
                    "duration": 0.14423050000002036,
                    "durationTicks": 60,
                    "midi": 64,
                    "name": "E4",
                    "ticks": 73260,
                    "time": 238.87472050000002,
                    "velocity": 1
                },
                {
                    "duration": 0.14423049999999193,
                    "durationTicks": 60,
                    "midi": 62,
                    "name": "D4",
                    "ticks": 73320,
                    "time": 239.01895100000004,
                    "velocity": 1
                },
                {
                    "duration": 0.14423049999999193,
                    "durationTicks": 60,
                    "midi": 59,
                    "name": "B3",
                    "ticks": 73380,
                    "time": 239.16318150000004,
                    "velocity": 1
                },
                {
                    "duration": 0.14423050000002036,
                    "durationTicks": 60,
                    "midi": 62,
                    "name": "D4",
                    "ticks": 73440,
                    "time": 239.30741200000003,
                    "velocity": 1
                },
                {
                    "duration": 0.336537833333324,
                    "durationTicks": 140,
                    "midi": 64,
                    "name": "E4",
                    "ticks": 73500,
                    "time": 239.45164250000005,
                    "velocity": 1
                },
                {
                    "duration": 0.09615366666665182,
                    "durationTicks": 40,
                    "midi": 62,
                    "name": "D4",
                    "ticks": 73640,
                    "time": 239.78818033333337,
                    "velocity": 1
                },
                {
                    "duration": 0.2884610000000123,
                    "durationTicks": 120,
                    "midi": 64,
                    "name": "E4",
                    "ticks": 73680,
                    "time": 239.88433400000002,
                    "velocity": 1
                },
                {
                    "duration": 0.14423049999999193,
                    "durationTicks": 60,
                    "midi": 69,
                    "name": "A4",
                    "ticks": 73800,
                    "time": 240.17279500000004,
                    "velocity": 1
                },
                {
                    "duration": 0.14423050000002036,
                    "durationTicks": 60,
                    "midi": 71,
                    "name": "B4",
                    "ticks": 73860,
                    "time": 240.31702550000003,
                    "velocity": 1
                },
                {
                    "duration": 0.012019208333299503,
                    "durationTicks": 5,
                    "midi": 74,
                    "name": "D5",
                    "ticks": 73920,
                    "time": 240.46125600000005,
                    "velocity": 0.5905511811023622
                },
                {
                    "duration": 0.13221129166669243,
                    "durationTicks": 55,
                    "midi": 76,
                    "name": "E5",
                    "ticks": 73925,
                    "time": 240.47327520833335,
                    "velocity": 1
                },
                {
                    "duration": 0.14423049999999193,
                    "durationTicks": 60,
                    "midi": 76,
                    "name": "E5",
                    "ticks": 73980,
                    "time": 240.60548650000004,
                    "velocity": 1
                },
                {
                    "duration": 0.07211524999999597,
                    "durationTicks": 30,
                    "midi": 74,
                    "name": "D5",
                    "ticks": 74040,
                    "time": 240.74971700000003,
                    "velocity": 1
                },
                {
                    "duration": 0.07211524999999597,
                    "durationTicks": 30,
                    "midi": 71,
                    "name": "B4",
                    "ticks": 74070,
                    "time": 240.82183225000003,
                    "velocity": 1
                },
                {
                    "duration": 0.07211525000002439,
                    "durationTicks": 30,
                    "midi": 69,
                    "name": "A4",
                    "ticks": 74100,
                    "time": 240.89394750000002,
                    "velocity": 1
                },
                {
                    "duration": 0.07211524999996755,
                    "durationTicks": 30,
                    "midi": 71,
                    "name": "B4",
                    "ticks": 74130,
                    "time": 240.96606275000005,
                    "velocity": 1
                },
                {
                    "duration": 0.012019208333356346,
                    "durationTicks": 5,
                    "midi": 74,
                    "name": "D5",
                    "ticks": 74160,
                    "time": 241.03817800000002,
                    "velocity": 0.5905511811023622
                },
                {
                    "duration": 0.132211291666664,
                    "durationTicks": 55,
                    "midi": 76,
                    "name": "E5",
                    "ticks": 74165,
                    "time": 241.05019720833337,
                    "velocity": 1
                },
                {
                    "duration": 0.14423049999999193,
                    "durationTicks": 60,
                    "midi": 76,
                    "name": "E5",
                    "ticks": 74220,
                    "time": 241.18240850000004,
                    "velocity": 1
                },
                {
                    "duration": 0.07211524999999597,
                    "durationTicks": 30,
                    "midi": 74,
                    "name": "D5",
                    "ticks": 74280,
                    "time": 241.32663900000003,
                    "velocity": 1
                },
                {
                    "duration": 0.07211525000002439,
                    "durationTicks": 30,
                    "midi": 71,
                    "name": "B4",
                    "ticks": 74310,
                    "time": 241.39875425000002,
                    "velocity": 1
                },
                {
                    "duration": 0.07211524999996755,
                    "durationTicks": 30,
                    "midi": 71,
                    "name": "B4",
                    "ticks": 74340,
                    "time": 241.47086950000005,
                    "velocity": 1
                },
                {
                    "duration": 0.07211525000002439,
                    "durationTicks": 30,
                    "midi": 74,
                    "name": "D5",
                    "ticks": 74370,
                    "time": 241.54298475000002,
                    "velocity": 1
                },
                {
                    "duration": 0.012019208333327924,
                    "durationTicks": 5,
                    "midi": 74,
                    "name": "D5",
                    "ticks": 74400,
                    "time": 241.61510000000004,
                    "velocity": 0.5905511811023622
                },
                {
                    "duration": 0.132211291666664,
                    "durationTicks": 55,
                    "midi": 76,
                    "name": "E5",
                    "ticks": 74405,
                    "time": 241.62711920833337,
                    "velocity": 1
                },
                {
                    "duration": 0.14423049999999193,
                    "durationTicks": 60,
                    "midi": 76,
                    "name": "E5",
                    "ticks": 74460,
                    "time": 241.75933050000003,
                    "velocity": 1
                },
                {
                    "duration": 0.07211525000002439,
                    "durationTicks": 30,
                    "midi": 74,
                    "name": "D5",
                    "ticks": 74520,
                    "time": 241.90356100000002,
                    "velocity": 1
                },
                {
                    "duration": 0.07211524999996755,
                    "durationTicks": 30,
                    "midi": 71,
                    "name": "B4",
                    "ticks": 74550,
                    "time": 241.97567625000005,
                    "velocity": 1
                },
                {
                    "duration": 0.14423050000002036,
                    "durationTicks": 60,
                    "midi": 74,
                    "name": "D5",
                    "ticks": 74580,
                    "time": 242.04779150000002,
                    "velocity": 1
                },
                {
                    "duration": 0.012019208333327924,
                    "durationTicks": 5,
                    "midi": 74,
                    "name": "D5",
                    "ticks": 74640,
                    "time": 242.19202200000004,
                    "velocity": 0.5905511811023622
                },
                {
                    "duration": 0.132211291666664,
                    "durationTicks": 55,
                    "midi": 76,
                    "name": "E5",
                    "ticks": 74645,
                    "time": 242.20404120833336,
                    "velocity": 1
                },
                {
                    "duration": 0.14423050000002036,
                    "durationTicks": 60,
                    "midi": 76,
                    "name": "E5",
                    "ticks": 74700,
                    "time": 242.33625250000003,
                    "velocity": 1
                },
                {
                    "duration": 0.14423049999999193,
                    "durationTicks": 60,
                    "midi": 74,
                    "name": "D5",
                    "ticks": 74760,
                    "time": 242.48048300000005,
                    "velocity": 1
                },
                {
                    "duration": 0.14423049999999193,
                    "durationTicks": 60,
                    "midi": 76,
                    "name": "E5",
                    "ticks": 74820,
                    "time": 242.62471350000004,
                    "velocity": 1
                },
                {
                    "duration": 0.09615366666668024,
                    "durationTicks": 40,
                    "midi": 79,
                    "name": "G5",
                    "ticks": 74880,
                    "time": 242.76894400000003,
                    "velocity": 1
                },
                {
                    "duration": 0.09615366666665182,
                    "durationTicks": 40,
                    "midi": 76,
                    "name": "E5",
                    "ticks": 74920,
                    "time": 242.8650976666667,
                    "velocity": 1
                },
                {
                    "duration": 0.09615366666665182,
                    "durationTicks": 40,
                    "midi": 74,
                    "name": "D5",
                    "ticks": 74960,
                    "time": 242.96125133333337,
                    "velocity": 1
                },
                {
                    "duration": 0.09615366666668024,
                    "durationTicks": 40,
                    "midi": 71,
                    "name": "B4",
                    "ticks": 75000,
                    "time": 243.05740500000002,
                    "velocity": 1
                },
                {
                    "duration": 0.09615366666668024,
                    "durationTicks": 40,
                    "midi": 69,
                    "name": "A4",
                    "ticks": 75040,
                    "time": 243.1535586666667,
                    "velocity": 1
                },
                {
                    "duration": 0.09615366666665182,
                    "durationTicks": 40,
                    "midi": 71,
                    "name": "B4",
                    "ticks": 75080,
                    "time": 243.24971233333338,
                    "velocity": 1
                },
                {
                    "duration": 0.09615366666668024,
                    "durationTicks": 40,
                    "midi": 74,
                    "name": "D5",
                    "ticks": 75120,
                    "time": 243.34586600000003,
                    "velocity": 1
                },
                {
                    "duration": 0.09615366666665182,
                    "durationTicks": 40,
                    "midi": 71,
                    "name": "B4",
                    "ticks": 75160,
                    "time": 243.4420196666667,
                    "velocity": 1
                },
                {
                    "duration": 0.09615366666668024,
                    "durationTicks": 40,
                    "midi": 69,
                    "name": "A4",
                    "ticks": 75200,
                    "time": 243.53817333333336,
                    "velocity": 1
                },
                {
                    "duration": 0.09615366666665182,
                    "durationTicks": 40,
                    "midi": 67,
                    "name": "G4",
                    "ticks": 75240,
                    "time": 243.63432700000004,
                    "velocity": 1
                },
                {
                    "duration": 0.09615366666668024,
                    "durationTicks": 40,
                    "midi": 64,
                    "name": "E4",
                    "ticks": 75280,
                    "time": 243.7304806666667,
                    "velocity": 1
                },
                {
                    "duration": 0.09615366666665182,
                    "durationTicks": 40,
                    "midi": 67,
                    "name": "G4",
                    "ticks": 75320,
                    "time": 243.82663433333337,
                    "velocity": 1
                },
                {
                    "duration": 0.09615366666668024,
                    "durationTicks": 40,
                    "midi": 69,
                    "name": "A4",
                    "ticks": 75360,
                    "time": 243.92278800000003,
                    "velocity": 1
                },
                {
                    "duration": 0.09615366666665182,
                    "durationTicks": 40,
                    "midi": 67,
                    "name": "G4",
                    "ticks": 75400,
                    "time": 244.0189416666667,
                    "velocity": 1
                },
                {
                    "duration": 0.09615366666668024,
                    "durationTicks": 40,
                    "midi": 64,
                    "name": "E4",
                    "ticks": 75440,
                    "time": 244.11509533333336,
                    "velocity": 1
                },
                {
                    "duration": 0.09615366666665182,
                    "durationTicks": 40,
                    "midi": 62,
                    "name": "D4",
                    "ticks": 75480,
                    "time": 244.21124900000004,
                    "velocity": 1
                },
                {
                    "duration": 0.09615366666668024,
                    "durationTicks": 40,
                    "midi": 59,
                    "name": "B3",
                    "ticks": 75520,
                    "time": 244.3074026666667,
                    "velocity": 1
                },
                {
                    "duration": 0.09615366666668024,
                    "durationTicks": 40,
                    "midi": 57,
                    "name": "A3",
                    "ticks": 75560,
                    "time": 244.40355633333337,
                    "velocity": 1
                },
                {
                    "duration": 0.28846099999998387,
                    "durationTicks": 120,
                    "midi": 55,
                    "name": "G3",
                    "ticks": 75600,
                    "time": 244.49971000000005,
                    "velocity": 1
                },
                {
                    "duration": 0.14423049999999193,
                    "durationTicks": 60,
                    "midi": 55,
                    "name": "G3",
                    "ticks": 75720,
                    "time": 244.78817100000003,
                    "velocity": 1
                },
                {
                    "duration": 0.14423049999999193,
                    "durationTicks": 60,
                    "midi": 57,
                    "name": "A3",
                    "ticks": 75780,
                    "time": 244.93240150000003,
                    "velocity": 1
                },
                {
                    "duration": 0.09615366666668024,
                    "durationTicks": 40,
                    "midi": 59,
                    "name": "B3",
                    "ticks": 75840,
                    "time": 245.07663200000002,
                    "velocity": 1
                },
                {
                    "duration": 0.09615366666668024,
                    "durationTicks": 40,
                    "midi": 57,
                    "name": "A3",
                    "ticks": 75880,
                    "time": 245.1727856666667,
                    "velocity": 1
                },
                {
                    "duration": 0.09615366666665182,
                    "durationTicks": 40,
                    "midi": 59,
                    "name": "B3",
                    "ticks": 75920,
                    "time": 245.26893933333338,
                    "velocity": 1
                },
                {
                    "duration": 0.09615366666668024,
                    "durationTicks": 40,
                    "midi": 62,
                    "name": "D4",
                    "ticks": 75960,
                    "time": 245.36509300000003,
                    "velocity": 1
                },
                {
                    "duration": 0.09615366666665182,
                    "durationTicks": 40,
                    "midi": 59,
                    "name": "B3",
                    "ticks": 76000,
                    "time": 245.4612466666667,
                    "velocity": 1
                },
                {
                    "duration": 0.09615366666668024,
                    "durationTicks": 40,
                    "midi": 62,
                    "name": "D4",
                    "ticks": 76040,
                    "time": 245.55740033333336,
                    "velocity": 1
                },
                {
                    "duration": 0.09615366666665182,
                    "durationTicks": 40,
                    "midi": 64,
                    "name": "E4",
                    "ticks": 76080,
                    "time": 245.65355400000004,
                    "velocity": 1
                },
                {
                    "duration": 0.09615366666668024,
                    "durationTicks": 40,
                    "midi": 62,
                    "name": "D4",
                    "ticks": 76120,
                    "time": 245.7497076666667,
                    "velocity": 1
                },
                {
                    "duration": 0.09615366666665182,
                    "durationTicks": 40,
                    "midi": 64,
                    "name": "E4",
                    "ticks": 76160,
                    "time": 245.84586133333337,
                    "velocity": 1
                },
                {
                    "duration": 0.09615366666668024,
                    "durationTicks": 40,
                    "midi": 67,
                    "name": "G4",
                    "ticks": 76200,
                    "time": 245.94201500000003,
                    "velocity": 1
                },
                {
                    "duration": 0.09615366666665182,
                    "durationTicks": 40,
                    "midi": 64,
                    "name": "E4",
                    "ticks": 76240,
                    "time": 246.0381686666667,
                    "velocity": 1
                },
                {
                    "duration": 0.09615366666668024,
                    "durationTicks": 40,
                    "midi": 67,
                    "name": "G4",
                    "ticks": 76280,
                    "time": 246.13432233333336,
                    "velocity": 1
                },
                {
                    "duration": 0.09615366666665182,
                    "durationTicks": 40,
                    "midi": 69,
                    "name": "A4",
                    "ticks": 76320,
                    "time": 246.23047600000004,
                    "velocity": 1
                },
                {
                    "duration": 0.09615366666668024,
                    "durationTicks": 40,
                    "midi": 67,
                    "name": "G4",
                    "ticks": 76360,
                    "time": 246.3266296666667,
                    "velocity": 1
                },
                {
                    "duration": 0.09615366666668024,
                    "durationTicks": 40,
                    "midi": 69,
                    "name": "A4",
                    "ticks": 76400,
                    "time": 246.42278333333337,
                    "velocity": 1
                },
                {
                    "duration": 0.09615366666665182,
                    "durationTicks": 40,
                    "midi": 71,
                    "name": "B4",
                    "ticks": 76440,
                    "time": 246.51893700000005,
                    "velocity": 1
                },
                {
                    "duration": 0.09615366666665182,
                    "durationTicks": 40,
                    "midi": 69,
                    "name": "A4",
                    "ticks": 76480,
                    "time": 246.6150906666667,
                    "velocity": 1
                },
                {
                    "duration": 0.09615366666668024,
                    "durationTicks": 40,
                    "midi": 71,
                    "name": "B4",
                    "ticks": 76520,
                    "time": 246.71124433333335,
                    "velocity": 1
                },
                {
                    "duration": 0.09615366666668024,
                    "durationTicks": 40,
                    "midi": 74,
                    "name": "D5",
                    "ticks": 76560,
                    "time": 246.80739800000003,
                    "velocity": 1
                },
                {
                    "duration": 0.09615366666665182,
                    "durationTicks": 40,
                    "midi": 71,
                    "name": "B4",
                    "ticks": 76600,
                    "time": 246.90355166666671,
                    "velocity": 1
                },
                {
                    "duration": 0.09615366666665182,
                    "durationTicks": 40,
                    "midi": 74,
                    "name": "D5",
                    "ticks": 76640,
                    "time": 246.99970533333337,
                    "velocity": 1
                },
                {
                    "duration": 0.09615366666668024,
                    "durationTicks": 40,
                    "midi": 76,
                    "name": "E5",
                    "ticks": 76680,
                    "time": 247.09585900000002,
                    "velocity": 1
                },
                {
                    "duration": 0.09615366666668024,
                    "durationTicks": 40,
                    "midi": 74,
                    "name": "D5",
                    "ticks": 76720,
                    "time": 247.1920126666667,
                    "velocity": 1
                },
                {
                    "duration": 0.09615366666665182,
                    "durationTicks": 40,
                    "midi": 76,
                    "name": "E5",
                    "ticks": 76760,
                    "time": 247.28816633333338,
                    "velocity": 1
                },
                {
                    "duration": 0.09615366666668024,
                    "durationTicks": 40,
                    "midi": 79,
                    "name": "G5",
                    "ticks": 76800,
                    "time": 247.38432000000003,
                    "velocity": 1
                },
                {
                    "duration": 0.09615366666665182,
                    "durationTicks": 40,
                    "midi": 76,
                    "name": "E5",
                    "ticks": 76840,
                    "time": 247.4804736666667,
                    "velocity": 1
                },
                {
                    "duration": 0.09615366666668024,
                    "durationTicks": 40,
                    "midi": 74,
                    "name": "D5",
                    "ticks": 76880,
                    "time": 247.57662733333336,
                    "velocity": 1
                },
                {
                    "duration": 0.09615366666665182,
                    "durationTicks": 40,
                    "midi": 71,
                    "name": "B4",
                    "ticks": 76920,
                    "time": 247.67278100000004,
                    "velocity": 1
                },
                {
                    "duration": 0.09615366666668024,
                    "durationTicks": 40,
                    "midi": 70,
                    "name": "A#4",
                    "ticks": 76960,
                    "time": 247.7689346666667,
                    "velocity": 1
                },
                {
                    "duration": 0.09615366666665182,
                    "durationTicks": 40,
                    "midi": 71,
                    "name": "B4",
                    "ticks": 77000,
                    "time": 247.86508833333338,
                    "velocity": 1
                },
                {
                    "duration": 0.09615366666668024,
                    "durationTicks": 40,
                    "midi": 74,
                    "name": "D5",
                    "ticks": 77040,
                    "time": 247.96124200000003,
                    "velocity": 1
                },
                {
                    "duration": 0.09615366666665182,
                    "durationTicks": 40,
                    "midi": 71,
                    "name": "B4",
                    "ticks": 77080,
                    "time": 248.0573956666667,
                    "velocity": 1
                },
                {
                    "duration": 0.09615366666668024,
                    "durationTicks": 40,
                    "midi": 69,
                    "name": "A4",
                    "ticks": 77120,
                    "time": 248.15354933333336,
                    "velocity": 1
                },
                {
                    "duration": 0.2884610000000123,
                    "durationTicks": 120,
                    "midi": 67,
                    "name": "G4",
                    "ticks": 77160,
                    "time": 248.24970300000004,
                    "velocity": 1
                },
                {
                    "duration": 0.28846099999998387,
                    "durationTicks": 120,
                    "midi": 64,
                    "name": "E4",
                    "ticks": 77280,
                    "time": 248.53816400000005,
                    "velocity": 0.5905511811023622
                }
            ],
            "endOfTrackTicks": 77400
        },
        {
            "channel": 4,
            "controlChanges": {
                "7": [
                    {
                        "number": 7,
                        "ticks": 0,
                        "time": 0,
                        "value": 0.7795275590551181
                    }
                ]
            },
            "pitchBends": [],
            "instrument": {
                "family": "bass",
                "number": 33,
                "name": "electric bass (finger)"
            },
            "name": "Bass",
            "notes": [
                {
                    "duration": 0.2142855000000008,
                    "durationTicks": 60,
                    "midi": 33,
                    "name": "A1",
                    "ticks": 2880,
                    "time": 10.285704,
                    "velocity": 1
                },
                {
                    "duration": 0.21428549999999902,
                    "durationTicks": 60,
                    "midi": 33,
                    "name": "A1",
                    "ticks": 2940,
                    "time": 10.499989500000002,
                    "velocity": 1
                },
                {
                    "duration": 0.2142855000000008,
                    "durationTicks": 60,
                    "midi": 33,
                    "name": "A1",
                    "ticks": 3000,
                    "time": 10.714275,
                    "velocity": 1
                },
                {
                    "duration": 0.21428549999999902,
                    "durationTicks": 60,
                    "midi": 33,
                    "name": "A1",
                    "ticks": 3060,
                    "time": 10.928560500000001,
                    "velocity": 1
                },
                {
                    "duration": 0.2142855000000008,
                    "durationTicks": 60,
                    "midi": 33,
                    "name": "A1",
                    "ticks": 3120,
                    "time": 11.142846,
                    "velocity": 1
                },
                {
                    "duration": 0.21428549999999902,
                    "durationTicks": 60,
                    "midi": 33,
                    "name": "A1",
                    "ticks": 3180,
                    "time": 11.357131500000001,
                    "velocity": 1
                },
                {
                    "duration": 0.2142855000000008,
                    "durationTicks": 60,
                    "midi": 33,
                    "name": "A1",
                    "ticks": 3240,
                    "time": 11.571417,
                    "velocity": 1
                },
                {
                    "duration": 0.2142855000000008,
                    "durationTicks": 60,
                    "midi": 33,
                    "name": "A1",
                    "ticks": 3300,
                    "time": 11.785702500000001,
                    "velocity": 1
                },
                {
                    "duration": 0.21428549999999902,
                    "durationTicks": 60,
                    "midi": 33,
                    "name": "A1",
                    "ticks": 3360,
                    "time": 11.999988000000002,
                    "velocity": 1
                },
                {
                    "duration": 0.2142855000000008,
                    "durationTicks": 60,
                    "midi": 33,
                    "name": "A1",
                    "ticks": 3420,
                    "time": 12.214273500000001,
                    "velocity": 1
                },
                {
                    "duration": 0.21428549999999902,
                    "durationTicks": 60,
                    "midi": 33,
                    "name": "A1",
                    "ticks": 3480,
                    "time": 12.428559000000002,
                    "velocity": 1
                },
                {
                    "duration": 0.2142855000000008,
                    "durationTicks": 60,
                    "midi": 33,
                    "name": "A1",
                    "ticks": 3540,
                    "time": 12.6428445,
                    "velocity": 1
                },
                {
                    "duration": 0.21428549999999902,
                    "durationTicks": 60,
                    "midi": 45,
                    "name": "A2",
                    "ticks": 3600,
                    "time": 12.857130000000002,
                    "velocity": 1
                },
                {
                    "duration": 0.2142855000000008,
                    "durationTicks": 60,
                    "midi": 45,
                    "name": "A2",
                    "ticks": 3660,
                    "time": 13.0714155,
                    "velocity": 1
                },
                {
                    "duration": 0.21428549999999902,
                    "durationTicks": 60,
                    "midi": 45,
                    "name": "A2",
                    "ticks": 3720,
                    "time": 13.285701000000001,
                    "velocity": 1
                },
                {
                    "duration": 0.2142855000000008,
                    "durationTicks": 60,
                    "midi": 33,
                    "name": "A1",
                    "ticks": 3780,
                    "time": 13.4999865,
                    "velocity": 1
                },
                {
                    "duration": 0.2142855000000008,
                    "durationTicks": 60,
                    "midi": 33,
                    "name": "A1",
                    "ticks": 3840,
                    "time": 13.714272000000001,
                    "velocity": 1
                },
                {
                    "duration": 0.196428375,
                    "durationTicks": 55,
                    "midi": 33,
                    "name": "A1",
                    "ticks": 3900,
                    "time": 13.928557500000002,
                    "velocity": 1
                },
                {
                    "duration": 0.01785712499999903,
                    "durationTicks": 5,
                    "midi": 43,
                    "name": "G2",
                    "ticks": 3955,
                    "time": 14.124985875000002,
                    "velocity": 0.5905511811023622
                },
                {
                    "duration": 0.4285709999999998,
                    "durationTicks": 120,
                    "midi": 45,
                    "name": "A2",
                    "ticks": 3960,
                    "time": 14.142843000000001,
                    "velocity": 1
                },
                {
                    "duration": 0.2142855000000008,
                    "durationTicks": 60,
                    "midi": 33,
                    "name": "A1",
                    "ticks": 4080,
                    "time": 14.571414,
                    "velocity": 1
                },
                {
                    "duration": 0.196428375,
                    "durationTicks": 55,
                    "midi": 33,
                    "name": "A1",
                    "ticks": 4140,
                    "time": 14.785699500000002,
                    "velocity": 1
                },
                {
                    "duration": 0.01785712499999903,
                    "durationTicks": 5,
                    "midi": 43,
                    "name": "G2",
                    "ticks": 4195,
                    "time": 14.982127875000002,
                    "velocity": 0.5905511811023622
                },
                {
                    "duration": 0.2142855000000008,
                    "durationTicks": 60,
                    "midi": 45,
                    "name": "A2",
                    "ticks": 4200,
                    "time": 14.999985,
                    "velocity": 1
                },
                {
                    "duration": 0.4285709999999998,
                    "durationTicks": 120,
                    "midi": 33,
                    "name": "A1",
                    "ticks": 4260,
                    "time": 15.214270500000001,
                    "velocity": 1
                },
                {
                    "duration": 0.2142855000000008,
                    "durationTicks": 60,
                    "midi": 33,
                    "name": "A1",
                    "ticks": 4380,
                    "time": 15.642841500000001,
                    "velocity": 1
                },
                {
                    "duration": 0.21428549999999902,
                    "durationTicks": 60,
                    "midi": 41,
                    "name": "F2",
                    "ticks": 4440,
                    "time": 15.857127000000002,
                    "velocity": 1
                },
                {
                    "duration": 0.21428549999999902,
                    "durationTicks": 60,
                    "midi": 40,
                    "name": "E2",
                    "ticks": 4500,
                    "time": 16.0714125,
                    "velocity": 1
                },
                {
                    "duration": 0.21428550000000257,
                    "durationTicks": 60,
                    "midi": 43,
                    "name": "G2",
                    "ticks": 4560,
                    "time": 16.285698,
                    "velocity": 1
                },
                {
                    "duration": 0.21428549999999902,
                    "durationTicks": 60,
                    "midi": 40,
                    "name": "E2",
                    "ticks": 4620,
                    "time": 16.499983500000003,
                    "velocity": 1
                },
                {
                    "duration": 0.21428549999999902,
                    "durationTicks": 60,
                    "midi": 48,
                    "name": "C3",
                    "ticks": 4680,
                    "time": 16.714269,
                    "velocity": 1
                },
                {
                    "duration": 0.21428549999999902,
                    "durationTicks": 60,
                    "midi": 45,
                    "name": "A2",
                    "ticks": 4740,
                    "time": 16.9285545,
                    "velocity": 1
                },
                {
                    "duration": 0.21428550000000257,
                    "durationTicks": 60,
                    "midi": 33,
                    "name": "A1",
                    "ticks": 4800,
                    "time": 17.14284,
                    "velocity": 1
                },
                {
                    "duration": 0.196428375,
                    "durationTicks": 55,
                    "midi": 33,
                    "name": "A1",
                    "ticks": 4860,
                    "time": 17.357125500000002,
                    "velocity": 1
                },
                {
                    "duration": 0.01785712499999903,
                    "durationTicks": 5,
                    "midi": 43,
                    "name": "G2",
                    "ticks": 4915,
                    "time": 17.553553875000002,
                    "velocity": 0.5905511811023622
                },
                {
                    "duration": 0.4285710000000016,
                    "durationTicks": 120,
                    "midi": 45,
                    "name": "A2",
                    "ticks": 4920,
                    "time": 17.571411,
                    "velocity": 1
                },
                {
                    "duration": 0.21428549999999902,
                    "durationTicks": 60,
                    "midi": 33,
                    "name": "A1",
                    "ticks": 5040,
                    "time": 17.999982000000003,
                    "velocity": 1
                },
                {
                    "duration": 0.196428375,
                    "durationTicks": 55,
                    "midi": 33,
                    "name": "A1",
                    "ticks": 5100,
                    "time": 18.214267500000002,
                    "velocity": 1
                },
                {
                    "duration": 0.01785712499999903,
                    "durationTicks": 5,
                    "midi": 43,
                    "name": "G2",
                    "ticks": 5155,
                    "time": 18.410695875000002,
                    "velocity": 0.5905511811023622
                },
                {
                    "duration": 0.21428549999999902,
                    "durationTicks": 60,
                    "midi": 45,
                    "name": "A2",
                    "ticks": 5160,
                    "time": 18.428553,
                    "velocity": 1
                },
                {
                    "duration": 0.4285710000000016,
                    "durationTicks": 120,
                    "midi": 33,
                    "name": "A1",
                    "ticks": 5220,
                    "time": 18.6428385,
                    "velocity": 1
                },
                {
                    "duration": 0.21428549999999902,
                    "durationTicks": 60,
                    "midi": 33,
                    "name": "A1",
                    "ticks": 5340,
                    "time": 19.0714095,
                    "velocity": 1
                },
                {
                    "duration": 0.21428550000000257,
                    "durationTicks": 60,
                    "midi": 41,
                    "name": "F2",
                    "ticks": 5400,
                    "time": 19.285695,
                    "velocity": 1
                },
                {
                    "duration": 0.21428549999999902,
                    "durationTicks": 60,
                    "midi": 40,
                    "name": "E2",
                    "ticks": 5460,
                    "time": 19.499980500000003,
                    "velocity": 1
                },
                {
                    "duration": 0.21428549999999902,
                    "durationTicks": 60,
                    "midi": 43,
                    "name": "G2",
                    "ticks": 5520,
                    "time": 19.714266000000002,
                    "velocity": 1
                },
                {
                    "duration": 0.21428549999999902,
                    "durationTicks": 60,
                    "midi": 40,
                    "name": "E2",
                    "ticks": 5580,
                    "time": 19.9285515,
                    "velocity": 1
                },
                {
                    "duration": 0.21428550000000257,
                    "durationTicks": 60,
                    "midi": 48,
                    "name": "C3",
                    "ticks": 5640,
                    "time": 20.142837,
                    "velocity": 1
                },
                {
                    "duration": 0.21428549999999902,
                    "durationTicks": 60,
                    "midi": 45,
                    "name": "A2",
                    "ticks": 5700,
                    "time": 20.357122500000003,
                    "velocity": 1
                },
                {
                    "duration": 0.21428549999999902,
                    "durationTicks": 60,
                    "midi": 33,
                    "name": "A1",
                    "ticks": 5760,
                    "time": 20.571408,
                    "velocity": 1
                },
                {
                    "duration": 0.19642837500000354,
                    "durationTicks": 55,
                    "midi": 33,
                    "name": "A1",
                    "ticks": 5820,
                    "time": 20.7856935,
                    "velocity": 1
                },
                {
                    "duration": 0.01785712499999903,
                    "durationTicks": 5,
                    "midi": 43,
                    "name": "G2",
                    "ticks": 5875,
                    "time": 20.982121875000004,
                    "velocity": 0.5905511811023622
                },
                {
                    "duration": 0.42857099999999804,
                    "durationTicks": 120,
                    "midi": 45,
                    "name": "A2",
                    "ticks": 5880,
                    "time": 20.999979000000003,
                    "velocity": 1
                },
                {
                    "duration": 0.21428549999999902,
                    "durationTicks": 60,
                    "midi": 33,
                    "name": "A1",
                    "ticks": 6000,
                    "time": 21.42855,
                    "velocity": 1
                },
                {
                    "duration": 0.19642837500000354,
                    "durationTicks": 55,
                    "midi": 33,
                    "name": "A1",
                    "ticks": 6060,
                    "time": 21.6428355,
                    "velocity": 1
                },
                {
                    "duration": 0.01785712499999903,
                    "durationTicks": 5,
                    "midi": 43,
                    "name": "G2",
                    "ticks": 6115,
                    "time": 21.839263875000004,
                    "velocity": 0.5905511811023622
                },
                {
                    "duration": 0.21428549999999902,
                    "durationTicks": 60,
                    "midi": 45,
                    "name": "A2",
                    "ticks": 6120,
                    "time": 21.857121000000003,
                    "velocity": 1
                },
                {
                    "duration": 0.4285710000000016,
                    "durationTicks": 120,
                    "midi": 33,
                    "name": "A1",
                    "ticks": 6180,
                    "time": 22.071406500000002,
                    "velocity": 1
                },
                {
                    "duration": 0.21428549999999902,
                    "durationTicks": 60,
                    "midi": 33,
                    "name": "A1",
                    "ticks": 6300,
                    "time": 22.499977500000004,
                    "velocity": 1
                },
                {
                    "duration": 0.21428549999999902,
                    "durationTicks": 60,
                    "midi": 41,
                    "name": "F2",
                    "ticks": 6360,
                    "time": 22.714263000000003,
                    "velocity": 1
                },
                {
                    "duration": 0.21428549999999902,
                    "durationTicks": 60,
                    "midi": 40,
                    "name": "E2",
                    "ticks": 6420,
                    "time": 22.9285485,
                    "velocity": 1
                },
                {
                    "duration": 0.21428550000000257,
                    "durationTicks": 60,
                    "midi": 43,
                    "name": "G2",
                    "ticks": 6480,
                    "time": 23.142834,
                    "velocity": 1
                },
                {
                    "duration": 0.21428549999999902,
                    "durationTicks": 60,
                    "midi": 40,
                    "name": "E2",
                    "ticks": 6540,
                    "time": 23.357119500000003,
                    "velocity": 1
                },
                {
                    "duration": 0.21428549999999902,
                    "durationTicks": 60,
                    "midi": 48,
                    "name": "C3",
                    "ticks": 6600,
                    "time": 23.571405000000002,
                    "velocity": 1
                },
                {
                    "duration": 0.21428550000000257,
                    "durationTicks": 60,
                    "midi": 45,
                    "name": "A2",
                    "ticks": 6660,
                    "time": 23.7856905,
                    "velocity": 1
                },
                {
                    "duration": 0.21428549999999902,
                    "durationTicks": 60,
                    "midi": 33,
                    "name": "A1",
                    "ticks": 6720,
                    "time": 23.999976000000004,
                    "velocity": 1
                },
                {
                    "duration": 0.196428375,
                    "durationTicks": 55,
                    "midi": 33,
                    "name": "A1",
                    "ticks": 6780,
                    "time": 24.214261500000003,
                    "velocity": 1
                },
                {
                    "duration": 0.01785712499999903,
                    "durationTicks": 5,
                    "midi": 43,
                    "name": "G2",
                    "ticks": 6835,
                    "time": 24.410689875000003,
                    "velocity": 0.5905511811023622
                },
                {
                    "duration": 0.4285710000000016,
                    "durationTicks": 120,
                    "midi": 45,
                    "name": "A2",
                    "ticks": 6840,
                    "time": 24.428547000000002,
                    "velocity": 1
                },
                {
                    "duration": 0.21428549999999902,
                    "durationTicks": 60,
                    "midi": 33,
                    "name": "A1",
                    "ticks": 6960,
                    "time": 24.857118000000003,
                    "velocity": 1
                },
                {
                    "duration": 0.196428375,
                    "durationTicks": 55,
                    "midi": 33,
                    "name": "A1",
                    "ticks": 7020,
                    "time": 25.071403500000002,
                    "velocity": 1
                },
                {
                    "duration": 0.01785712499999903,
                    "durationTicks": 5,
                    "midi": 43,
                    "name": "G2",
                    "ticks": 7075,
                    "time": 25.267831875000002,
                    "velocity": 0.5905511811023622
                },
                {
                    "duration": 0.21428549999999902,
                    "durationTicks": 60,
                    "midi": 45,
                    "name": "A2",
                    "ticks": 7080,
                    "time": 25.285689,
                    "velocity": 1
                },
                {
                    "duration": 0.4285710000000016,
                    "durationTicks": 120,
                    "midi": 33,
                    "name": "A1",
                    "ticks": 7140,
                    "time": 25.4999745,
                    "velocity": 1
                },
                {
                    "duration": 0.21428549999999902,
                    "durationTicks": 60,
                    "midi": 33,
                    "name": "A1",
                    "ticks": 7260,
                    "time": 25.928545500000002,
                    "velocity": 1
                },
                {
                    "duration": 0.21428550000000257,
                    "durationTicks": 60,
                    "midi": 41,
                    "name": "F2",
                    "ticks": 7320,
                    "time": 26.142831,
                    "velocity": 1
                },
                {
                    "duration": 0.21428549999999902,
                    "durationTicks": 60,
                    "midi": 40,
                    "name": "E2",
                    "ticks": 7380,
                    "time": 26.357116500000004,
                    "velocity": 1
                },
                {
                    "duration": 0.21428549999999902,
                    "durationTicks": 60,
                    "midi": 43,
                    "name": "G2",
                    "ticks": 7440,
                    "time": 26.571402000000003,
                    "velocity": 1
                },
                {
                    "duration": 0.21428549999999902,
                    "durationTicks": 60,
                    "midi": 40,
                    "name": "E2",
                    "ticks": 7500,
                    "time": 26.7856875,
                    "velocity": 1
                },
                {
                    "duration": 0.21428550000000257,
                    "durationTicks": 60,
                    "midi": 48,
                    "name": "C3",
                    "ticks": 7560,
                    "time": 26.999973,
                    "velocity": 1
                },
                {
                    "duration": 0.21428549999999902,
                    "durationTicks": 60,
                    "midi": 45,
                    "name": "A2",
                    "ticks": 7620,
                    "time": 27.214258500000003,
                    "velocity": 1
                },
                {
                    "duration": 0.4285710000000016,
                    "durationTicks": 120,
                    "midi": 28,
                    "name": "E1",
                    "ticks": 7680,
                    "time": 27.428544000000002,
                    "velocity": 1
                },
                {
                    "duration": 0.42857099999999804,
                    "durationTicks": 120,
                    "midi": 40,
                    "name": "E2",
                    "ticks": 8040,
                    "time": 28.714257000000003,
                    "velocity": 1
                },
                {
                    "duration": 1.7142839999999993,
                    "durationTicks": 480,
                    "midi": 28,
                    "name": "E1",
                    "ticks": 8160,
                    "time": 29.142828,
                    "velocity": 1
                },
                {
                    "duration": 0.21428550000000257,
                    "durationTicks": 60,
                    "midi": 28,
                    "name": "E1",
                    "ticks": 10200,
                    "time": 36.428535000000004,
                    "velocity": 1
                },
                {
                    "duration": 0.21428549999999547,
                    "durationTicks": 60,
                    "midi": 28,
                    "name": "E1",
                    "ticks": 10260,
                    "time": 36.642820500000006,
                    "velocity": 1
                },
                {
                    "duration": 0.42857100000000514,
                    "durationTicks": 120,
                    "midi": 28,
                    "name": "E1",
                    "ticks": 10440,
                    "time": 37.285677,
                    "velocity": 1
                },
                {
                    "duration": 0.21428550000000257,
                    "durationTicks": 60,
                    "midi": 28,
                    "name": "E1",
                    "ticks": 10680,
                    "time": 38.142819,
                    "velocity": 1
                },
                {
                    "duration": 0.21428549999999547,
                    "durationTicks": 60,
                    "midi": 28,
                    "name": "E1",
                    "ticks": 10740,
                    "time": 38.357104500000005,
                    "velocity": 1
                },
                {
                    "duration": 0.21428549999999547,
                    "durationTicks": 60,
                    "midi": 28,
                    "name": "E1",
                    "ticks": 10920,
                    "time": 38.999961000000006,
                    "velocity": 1
                },
                {
                    "duration": 0.21428550000000257,
                    "durationTicks": 60,
                    "midi": 28,
                    "name": "E1",
                    "ticks": 10980,
                    "time": 39.2142465,
                    "velocity": 1
                },
                {
                    "duration": 0.21428550000000257,
                    "durationTicks": 60,
                    "midi": 28,
                    "name": "E1",
                    "ticks": 11040,
                    "time": 39.428532000000004,
                    "velocity": 1
                },
                {
                    "duration": 0.21428549999999547,
                    "durationTicks": 60,
                    "midi": 28,
                    "name": "E1",
                    "ticks": 11100,
                    "time": 39.64281750000001,
                    "velocity": 1
                },
                {
                    "duration": 0.21428550000000257,
                    "durationTicks": 60,
                    "midi": 28,
                    "name": "E1",
                    "ticks": 11160,
                    "time": 39.857103,
                    "velocity": 1
                },
                {
                    "duration": 0.21428549999999547,
                    "durationTicks": 60,
                    "midi": 28,
                    "name": "E1",
                    "ticks": 11220,
                    "time": 40.071388500000005,
                    "velocity": 1
                },
                {
                    "duration": 0.21428550000000257,
                    "durationTicks": 60,
                    "midi": 40,
                    "name": "E2",
                    "ticks": 11280,
                    "time": 40.285674,
                    "velocity": 1
                },
                {
                    "duration": 0.21428550000000257,
                    "durationTicks": 60,
                    "midi": 40,
                    "name": "E2",
                    "ticks": 11340,
                    "time": 40.4999595,
                    "velocity": 1
                },
                {
                    "duration": 0.21428549999999547,
                    "durationTicks": 60,
                    "midi": 40,
                    "name": "E2",
                    "ticks": 11400,
                    "time": 40.714245000000005,
                    "velocity": 1
                },
                {
                    "duration": 0.21428550000000257,
                    "durationTicks": 60,
                    "midi": 40,
                    "name": "E2",
                    "ticks": 11460,
                    "time": 40.9285305,
                    "velocity": 1
                },
                {
                    "duration": 0.21428550000000257,
                    "durationTicks": 60,
                    "midi": 28,
                    "name": "E1",
                    "ticks": 11520,
                    "time": 41.142816,
                    "velocity": 1
                },
                {
                    "duration": 0.21428549999999547,
                    "durationTicks": 60,
                    "midi": 28,
                    "name": "E1",
                    "ticks": 11580,
                    "time": 41.357101500000006,
                    "velocity": 1
                },
                {
                    "duration": 0.21428550000000257,
                    "durationTicks": 60,
                    "midi": 28,
                    "name": "E1",
                    "ticks": 11640,
                    "time": 41.571387,
                    "velocity": 1
                },
                {
                    "duration": 0.21428550000000257,
                    "durationTicks": 60,
                    "midi": 28,
                    "name": "E1",
                    "ticks": 11700,
                    "time": 41.785672500000004,
                    "velocity": 1
                },
                {
                    "duration": 0.21428549999999547,
                    "durationTicks": 60,
                    "midi": 40,
                    "name": "E2",
                    "ticks": 11760,
                    "time": 41.99995800000001,
                    "velocity": 1
                },
                {
                    "duration": 0.21428550000000257,
                    "durationTicks": 60,
                    "midi": 38,
                    "name": "D2",
                    "ticks": 11820,
                    "time": 42.2142435,
                    "velocity": 1
                },
                {
                    "duration": 0.21428549999999547,
                    "durationTicks": 60,
                    "midi": 35,
                    "name": "B1",
                    "ticks": 11880,
                    "time": 42.428529000000005,
                    "velocity": 1
                },
                {
                    "duration": 0.21428550000000257,
                    "durationTicks": 60,
                    "midi": 34,
                    "name": "A#1",
                    "ticks": 11940,
                    "time": 42.6428145,
                    "velocity": 1
                },
                {
                    "duration": 0.21428550000000257,
                    "durationTicks": 60,
                    "midi": 28,
                    "name": "E1",
                    "ticks": 12000,
                    "time": 42.8571,
                    "velocity": 1
                },
                {
                    "duration": 0.21428549999999547,
                    "durationTicks": 60,
                    "midi": 28,
                    "name": "E1",
                    "ticks": 12060,
                    "time": 43.071385500000005,
                    "velocity": 1
                },
                {
                    "duration": 0.21428550000000257,
                    "durationTicks": 60,
                    "midi": 28,
                    "name": "E1",
                    "ticks": 12120,
                    "time": 43.285671,
                    "velocity": 1
                },
                {
                    "duration": 0.21428550000000257,
                    "durationTicks": 60,
                    "midi": 28,
                    "name": "E1",
                    "ticks": 12180,
                    "time": 43.4999565,
                    "velocity": 1
                },
                {
                    "duration": 0.21428549999999547,
                    "durationTicks": 60,
                    "midi": 31,
                    "name": "G1",
                    "ticks": 12240,
                    "time": 43.714242000000006,
                    "velocity": 1
                },
                {
                    "duration": 0.21428550000000257,
                    "durationTicks": 60,
                    "midi": 33,
                    "name": "A1",
                    "ticks": 12300,
                    "time": 43.9285275,
                    "velocity": 1
                },
                {
                    "duration": 0.21428550000000257,
                    "durationTicks": 60,
                    "midi": 31,
                    "name": "G1",
                    "ticks": 12360,
                    "time": 44.142813000000004,
                    "velocity": 1
                },
                {
                    "duration": 0.21428549999999547,
                    "durationTicks": 60,
                    "midi": 33,
                    "name": "A1",
                    "ticks": 12420,
                    "time": 44.357098500000006,
                    "velocity": 1
                },
                {
                    "duration": 0.21428550000000257,
                    "durationTicks": 60,
                    "midi": 28,
                    "name": "E1",
                    "ticks": 12480,
                    "time": 44.571384,
                    "velocity": 1
                },
                {
                    "duration": 0.21428550000000257,
                    "durationTicks": 60,
                    "midi": 28,
                    "name": "E1",
                    "ticks": 12540,
                    "time": 44.785669500000004,
                    "velocity": 1
                },
                {
                    "duration": 0.21428549999999547,
                    "durationTicks": 60,
                    "midi": 28,
                    "name": "E1",
                    "ticks": 12600,
                    "time": 44.99995500000001,
                    "velocity": 1
                },
                {
                    "duration": 0.21428550000000257,
                    "durationTicks": 60,
                    "midi": 28,
                    "name": "E1",
                    "ticks": 12660,
                    "time": 45.2142405,
                    "velocity": 1
                },
                {
                    "duration": 0.21428549999999547,
                    "durationTicks": 60,
                    "midi": 40,
                    "name": "E2",
                    "ticks": 12720,
                    "time": 45.428526000000005,
                    "velocity": 1
                },
                {
                    "duration": 0.21428550000000257,
                    "durationTicks": 60,
                    "midi": 38,
                    "name": "D2",
                    "ticks": 12780,
                    "time": 45.6428115,
                    "velocity": 1
                },
                {
                    "duration": 0.21428550000000257,
                    "durationTicks": 60,
                    "midi": 35,
                    "name": "B1",
                    "ticks": 12840,
                    "time": 45.857097,
                    "velocity": 1
                },
                {
                    "duration": 0.21428549999999547,
                    "durationTicks": 60,
                    "midi": 34,
                    "name": "A#1",
                    "ticks": 12900,
                    "time": 46.071382500000006,
                    "velocity": 1
                },
                {
                    "duration": 0.21428550000000257,
                    "durationTicks": 60,
                    "midi": 28,
                    "name": "E1",
                    "ticks": 12960,
                    "time": 46.285668,
                    "velocity": 1
                },
                {
                    "duration": 0.21428550000000257,
                    "durationTicks": 60,
                    "midi": 28,
                    "name": "E1",
                    "ticks": 13020,
                    "time": 46.499953500000004,
                    "velocity": 1
                },
                {
                    "duration": 0.21428549999999547,
                    "durationTicks": 60,
                    "midi": 28,
                    "name": "E1",
                    "ticks": 13080,
                    "time": 46.714239000000006,
                    "velocity": 1
                },
                {
                    "duration": 0.21428550000000257,
                    "durationTicks": 60,
                    "midi": 28,
                    "name": "E1",
                    "ticks": 13140,
                    "time": 46.9285245,
                    "velocity": 1
                },
                {
                    "duration": 0.21428550000000257,
                    "durationTicks": 60,
                    "midi": 31,
                    "name": "G1",
                    "ticks": 13200,
                    "time": 47.142810000000004,
                    "velocity": 1
                },
                {
                    "duration": 0.21428549999999547,
                    "durationTicks": 60,
                    "midi": 33,
                    "name": "A1",
                    "ticks": 13260,
                    "time": 47.35709550000001,
                    "velocity": 1
                },
                {
                    "duration": 0.21428550000000257,
                    "durationTicks": 60,
                    "midi": 31,
                    "name": "G1",
                    "ticks": 13320,
                    "time": 47.571381,
                    "velocity": 1
                },
                {
                    "duration": 0.21428550000000257,
                    "durationTicks": 60,
                    "midi": 33,
                    "name": "A1",
                    "ticks": 13380,
                    "time": 47.785666500000005,
                    "velocity": 1
                },
                {
                    "duration": 0.21428549999999547,
                    "durationTicks": 60,
                    "midi": 28,
                    "name": "E1",
                    "ticks": 13440,
                    "time": 47.99995200000001,
                    "velocity": 1
                },
                {
                    "duration": 0.21428550000000257,
                    "durationTicks": 60,
                    "midi": 28,
                    "name": "E1",
                    "ticks": 13500,
                    "time": 48.2142375,
                    "velocity": 1
                },
                {
                    "duration": 0.21428549999999547,
                    "durationTicks": 60,
                    "midi": 28,
                    "name": "E1",
                    "ticks": 13560,
                    "time": 48.428523000000006,
                    "velocity": 1
                },
                {
                    "duration": 0.21428550000000257,
                    "durationTicks": 60,
                    "midi": 28,
                    "name": "E1",
                    "ticks": 13620,
                    "time": 48.6428085,
                    "velocity": 1
                },
                {
                    "duration": 0.21428550000000257,
                    "durationTicks": 60,
                    "midi": 40,
                    "name": "E2",
                    "ticks": 13680,
                    "time": 48.857094000000004,
                    "velocity": 1
                },
                {
                    "duration": 0.21428549999999547,
                    "durationTicks": 60,
                    "midi": 38,
                    "name": "D2",
                    "ticks": 13740,
                    "time": 49.071379500000006,
                    "velocity": 1
                },
                {
                    "duration": 0.21428550000000257,
                    "durationTicks": 60,
                    "midi": 35,
                    "name": "B1",
                    "ticks": 13800,
                    "time": 49.285665,
                    "velocity": 1
                },
                {
                    "duration": 0.21428550000000257,
                    "durationTicks": 60,
                    "midi": 34,
                    "name": "A#1",
                    "ticks": 13860,
                    "time": 49.499950500000004,
                    "velocity": 1
                },
                {
                    "duration": 0.21428549999999547,
                    "durationTicks": 60,
                    "midi": 28,
                    "name": "E1",
                    "ticks": 13920,
                    "time": 49.71423600000001,
                    "velocity": 1
                },
                {
                    "duration": 0.21428550000000257,
                    "durationTicks": 60,
                    "midi": 28,
                    "name": "E1",
                    "ticks": 13980,
                    "time": 49.9285215,
                    "velocity": 1
                },
                {
                    "duration": 0.21428550000000257,
                    "durationTicks": 60,
                    "midi": 28,
                    "name": "E1",
                    "ticks": 14040,
                    "time": 50.142807000000005,
                    "velocity": 1
                },
                {
                    "duration": 0.21428549999999547,
                    "durationTicks": 60,
                    "midi": 28,
                    "name": "E1",
                    "ticks": 14100,
                    "time": 50.35709250000001,
                    "velocity": 1
                },
                {
                    "duration": 0.21428550000000257,
                    "durationTicks": 60,
                    "midi": 31,
                    "name": "G1",
                    "ticks": 14160,
                    "time": 50.571378,
                    "velocity": 1
                },
                {
                    "duration": 0.21428549999999547,
                    "durationTicks": 60,
                    "midi": 33,
                    "name": "A1",
                    "ticks": 14220,
                    "time": 50.785663500000005,
                    "velocity": 1
                },
                {
                    "duration": 0.21428550000000257,
                    "durationTicks": 60,
                    "midi": 31,
                    "name": "G1",
                    "ticks": 14280,
                    "time": 50.999949,
                    "velocity": 1
                },
                {
                    "duration": 0.21428550000000257,
                    "durationTicks": 60,
                    "midi": 33,
                    "name": "A1",
                    "ticks": 14340,
                    "time": 51.2142345,
                    "velocity": 1
                },
                {
                    "duration": 0.21428549999999547,
                    "durationTicks": 60,
                    "midi": 28,
                    "name": "E1",
                    "ticks": 14400,
                    "time": 51.428520000000006,
                    "velocity": 1
                },
                {
                    "duration": 0.21428550000000257,
                    "durationTicks": 60,
                    "midi": 28,
                    "name": "E1",
                    "ticks": 14460,
                    "time": 51.6428055,
                    "velocity": 1
                },
                {
                    "duration": 0.21428550000000257,
                    "durationTicks": 60,
                    "midi": 28,
                    "name": "E1",
                    "ticks": 14520,
                    "time": 51.857091000000004,
                    "velocity": 1
                },
                {
                    "duration": 0.21428549999999547,
                    "durationTicks": 60,
                    "midi": 28,
                    "name": "E1",
                    "ticks": 14580,
                    "time": 52.07137650000001,
                    "velocity": 1
                },
                {
                    "duration": 0.21428550000000257,
                    "durationTicks": 60,
                    "midi": 40,
                    "name": "E2",
                    "ticks": 14640,
                    "time": 52.285662,
                    "velocity": 1
                },
                {
                    "duration": 0.21428550000000257,
                    "durationTicks": 60,
                    "midi": 38,
                    "name": "D2",
                    "ticks": 14700,
                    "time": 52.499947500000005,
                    "velocity": 1
                },
                {
                    "duration": 0.21428549999999547,
                    "durationTicks": 60,
                    "midi": 35,
                    "name": "B1",
                    "ticks": 14760,
                    "time": 52.71423300000001,
                    "velocity": 1
                },
                {
                    "duration": 0.21428550000000257,
                    "durationTicks": 60,
                    "midi": 34,
                    "name": "A#1",
                    "ticks": 14820,
                    "time": 52.9285185,
                    "velocity": 1
                },
                {
                    "duration": 0.21428550000000257,
                    "durationTicks": 60,
                    "midi": 28,
                    "name": "E1",
                    "ticks": 14880,
                    "time": 53.142804000000005,
                    "velocity": 1
                },
                {
                    "duration": 0.21428549999999547,
                    "durationTicks": 60,
                    "midi": 28,
                    "name": "E1",
                    "ticks": 14940,
                    "time": 53.35708950000001,
                    "velocity": 1
                },
                {
                    "duration": 0.21428550000000257,
                    "durationTicks": 60,
                    "midi": 28,
                    "name": "E1",
                    "ticks": 15000,
                    "time": 53.571375,
                    "velocity": 1
                },
                {
                    "duration": 0.21428549999999547,
                    "durationTicks": 60,
                    "midi": 28,
                    "name": "E1",
                    "ticks": 15060,
                    "time": 53.785660500000006,
                    "velocity": 1
                },
                {
                    "duration": 0.21428550000000257,
                    "durationTicks": 60,
                    "midi": 31,
                    "name": "G1",
                    "ticks": 15120,
                    "time": 53.999946,
                    "velocity": 1
                },
                {
                    "duration": 0.21428550000000257,
                    "durationTicks": 60,
                    "midi": 33,
                    "name": "A1",
                    "ticks": 15180,
                    "time": 54.214231500000004,
                    "velocity": 1
                },
                {
                    "duration": 0.21428549999999547,
                    "durationTicks": 60,
                    "midi": 31,
                    "name": "G1",
                    "ticks": 15240,
                    "time": 54.42851700000001,
                    "velocity": 1
                },
                {
                    "duration": 0.21428550000000257,
                    "durationTicks": 60,
                    "midi": 33,
                    "name": "A1",
                    "ticks": 15300,
                    "time": 54.6428025,
                    "velocity": 1
                },
                {
                    "duration": 0.21428550000000257,
                    "durationTicks": 60,
                    "midi": 28,
                    "name": "E1",
                    "ticks": 15360,
                    "time": 54.857088000000005,
                    "velocity": 1
                },
                {
                    "duration": 0.21428549999999547,
                    "durationTicks": 60,
                    "midi": 28,
                    "name": "E1",
                    "ticks": 15420,
                    "time": 55.07137350000001,
                    "velocity": 1
                },
                {
                    "duration": 0.21428550000000257,
                    "durationTicks": 60,
                    "midi": 28,
                    "name": "E1",
                    "ticks": 15480,
                    "time": 55.285659,
                    "velocity": 1
                },
                {
                    "duration": 0.21428550000000257,
                    "durationTicks": 60,
                    "midi": 28,
                    "name": "E1",
                    "ticks": 15540,
                    "time": 55.499944500000005,
                    "velocity": 1
                },
                {
                    "duration": 0.21428549999999547,
                    "durationTicks": 60,
                    "midi": 40,
                    "name": "E2",
                    "ticks": 15600,
                    "time": 55.71423000000001,
                    "velocity": 1
                },
                {
                    "duration": 0.21428550000000257,
                    "durationTicks": 60,
                    "midi": 38,
                    "name": "D2",
                    "ticks": 15660,
                    "time": 55.9285155,
                    "velocity": 1
                },
                {
                    "duration": 0.21428549999999547,
                    "durationTicks": 60,
                    "midi": 35,
                    "name": "B1",
                    "ticks": 15720,
                    "time": 56.142801000000006,
                    "velocity": 1
                },
                {
                    "duration": 0.21428550000000257,
                    "durationTicks": 60,
                    "midi": 34,
                    "name": "A#1",
                    "ticks": 15780,
                    "time": 56.3570865,
                    "velocity": 1
                },
                {
                    "duration": 0.21428550000000257,
                    "durationTicks": 60,
                    "midi": 28,
                    "name": "E1",
                    "ticks": 15840,
                    "time": 56.571372000000004,
                    "velocity": 1
                },
                {
                    "duration": 0.21428549999999547,
                    "durationTicks": 60,
                    "midi": 28,
                    "name": "E1",
                    "ticks": 15900,
                    "time": 56.785657500000006,
                    "velocity": 1
                },
                {
                    "duration": 0.21428550000000257,
                    "durationTicks": 60,
                    "midi": 28,
                    "name": "E1",
                    "ticks": 15960,
                    "time": 56.999943,
                    "velocity": 1
                },
                {
                    "duration": 0.21428550000000257,
                    "durationTicks": 60,
                    "midi": 28,
                    "name": "E1",
                    "ticks": 16020,
                    "time": 57.214228500000004,
                    "velocity": 1
                },
                {
                    "duration": 0.21428549999999547,
                    "durationTicks": 60,
                    "midi": 28,
                    "name": "E1",
                    "ticks": 16080,
                    "time": 57.42851400000001,
                    "velocity": 1
                },
                {
                    "duration": 0.21428550000000257,
                    "durationTicks": 60,
                    "midi": 28,
                    "name": "E1",
                    "ticks": 16140,
                    "time": 57.6427995,
                    "velocity": 1
                },
                {
                    "duration": 0.21428550000000257,
                    "durationTicks": 60,
                    "midi": 28,
                    "name": "E1",
                    "ticks": 16200,
                    "time": 57.857085000000005,
                    "velocity": 1
                },
                {
                    "duration": 0.21428549999999547,
                    "durationTicks": 60,
                    "midi": 28,
                    "name": "E1",
                    "ticks": 16260,
                    "time": 58.07137050000001,
                    "velocity": 1
                },
                {
                    "duration": 0.21428550000000257,
                    "durationTicks": 60,
                    "midi": 28,
                    "name": "E1",
                    "ticks": 16320,
                    "time": 58.285656,
                    "velocity": 1
                },
                {
                    "duration": 0.21428550000000257,
                    "durationTicks": 60,
                    "midi": 28,
                    "name": "E1",
                    "ticks": 16380,
                    "time": 58.499941500000006,
                    "velocity": 1
                },
                {
                    "duration": 0.21428549999999547,
                    "durationTicks": 60,
                    "midi": 28,
                    "name": "E1",
                    "ticks": 16440,
                    "time": 58.71422700000001,
                    "velocity": 1
                },
                {
                    "duration": 0.21428550000000257,
                    "durationTicks": 60,
                    "midi": 28,
                    "name": "E1",
                    "ticks": 16500,
                    "time": 58.928512500000004,
                    "velocity": 1
                },
                {
                    "duration": 0.21428549999999547,
                    "durationTicks": 60,
                    "midi": 35,
                    "name": "B1",
                    "ticks": 16560,
                    "time": 59.142798000000006,
                    "velocity": 1
                },
                {
                    "duration": 0.21428550000000257,
                    "durationTicks": 60,
                    "midi": 34,
                    "name": "A#1",
                    "ticks": 16620,
                    "time": 59.3570835,
                    "velocity": 1
                },
                {
                    "duration": 0.21428550000000257,
                    "durationTicks": 60,
                    "midi": 43,
                    "name": "G2",
                    "ticks": 16680,
                    "time": 59.571369000000004,
                    "velocity": 1
                },
                {
                    "duration": 0.21428549999999547,
                    "durationTicks": 60,
                    "midi": 40,
                    "name": "E2",
                    "ticks": 16740,
                    "time": 59.78565450000001,
                    "velocity": 1
                },
                {
                    "duration": 0.21428550000000257,
                    "durationTicks": 60,
                    "midi": 28,
                    "name": "E1",
                    "ticks": 16800,
                    "time": 59.99994,
                    "velocity": 1
                },
                {
                    "duration": 0.21428550000000257,
                    "durationTicks": 60,
                    "midi": 28,
                    "name": "E1",
                    "ticks": 16860,
                    "time": 60.214225500000005,
                    "velocity": 1
                },
                {
                    "duration": 0.21428549999999547,
                    "durationTicks": 60,
                    "midi": 28,
                    "name": "E1",
                    "ticks": 16920,
                    "time": 60.42851100000001,
                    "velocity": 1
                },
                {
                    "duration": 0.21428550000000257,
                    "durationTicks": 60,
                    "midi": 28,
                    "name": "E1",
                    "ticks": 16980,
                    "time": 60.6427965,
                    "velocity": 1
                },
                {
                    "duration": 0.21428550000000257,
                    "durationTicks": 60,
                    "midi": 28,
                    "name": "E1",
                    "ticks": 17040,
                    "time": 60.857082000000005,
                    "velocity": 1
                },
                {
                    "duration": 0.21428549999999547,
                    "durationTicks": 60,
                    "midi": 28,
                    "name": "E1",
                    "ticks": 17100,
                    "time": 61.07136750000001,
                    "velocity": 1
                },
                {
                    "duration": 0.21428550000000257,
                    "durationTicks": 60,
                    "midi": 28,
                    "name": "E1",
                    "ticks": 17160,
                    "time": 61.285653,
                    "velocity": 1
                },
                {
                    "duration": 0.21428549999999547,
                    "durationTicks": 60,
                    "midi": 28,
                    "name": "E1",
                    "ticks": 17220,
                    "time": 61.499938500000006,
                    "velocity": 1
                },
                {
                    "duration": 0.21428550000000257,
                    "durationTicks": 60,
                    "midi": 28,
                    "name": "E1",
                    "ticks": 17280,
                    "time": 61.714224,
                    "velocity": 1
                },
                {
                    "duration": 0.21428550000000257,
                    "durationTicks": 60,
                    "midi": 28,
                    "name": "E1",
                    "ticks": 17340,
                    "time": 61.928509500000004,
                    "velocity": 1
                },
                {
                    "duration": 0.21428549999999547,
                    "durationTicks": 60,
                    "midi": 28,
                    "name": "E1",
                    "ticks": 17400,
                    "time": 62.14279500000001,
                    "velocity": 1
                },
                {
                    "duration": 0.21428550000000257,
                    "durationTicks": 60,
                    "midi": 28,
                    "name": "E1",
                    "ticks": 17460,
                    "time": 62.3570805,
                    "velocity": 1
                },
                {
                    "duration": 0.21428550000000257,
                    "durationTicks": 60,
                    "midi": 35,
                    "name": "B1",
                    "ticks": 17520,
                    "time": 62.571366000000005,
                    "velocity": 1
                },
                {
                    "duration": 0.21428549999999547,
                    "durationTicks": 60,
                    "midi": 34,
                    "name": "A#1",
                    "ticks": 17580,
                    "time": 62.78565150000001,
                    "velocity": 1
                },
                {
                    "duration": 0.21428550000000257,
                    "durationTicks": 60,
                    "midi": 31,
                    "name": "G1",
                    "ticks": 17640,
                    "time": 62.999937,
                    "velocity": 1
                },
                {
                    "duration": 0.21428550000000257,
                    "durationTicks": 60,
                    "midi": 28,
                    "name": "E1",
                    "ticks": 17700,
                    "time": 63.214222500000005,
                    "velocity": 1
                },
                {
                    "duration": 0.21428549999999547,
                    "durationTicks": 60,
                    "midi": 28,
                    "name": "E1",
                    "ticks": 17760,
                    "time": 63.42850800000001,
                    "velocity": 1
                },
                {
                    "duration": 0.21428550000000257,
                    "durationTicks": 60,
                    "midi": 28,
                    "name": "E1",
                    "ticks": 17820,
                    "time": 63.6427935,
                    "velocity": 1
                },
                {
                    "duration": 0.21428549999999547,
                    "durationTicks": 60,
                    "midi": 40,
                    "name": "E2",
                    "ticks": 17880,
                    "time": 63.857079000000006,
                    "velocity": 1
                },
                {
                    "duration": 0.21428550000000257,
                    "durationTicks": 60,
                    "midi": 28,
                    "name": "E1",
                    "ticks": 17940,
                    "time": 64.0713645,
                    "velocity": 1
                },
                {
                    "duration": 0.21428550000000257,
                    "durationTicks": 60,
                    "midi": 28,
                    "name": "E1",
                    "ticks": 18000,
                    "time": 64.28565,
                    "velocity": 1
                },
                {
                    "duration": 0.21428550000000257,
                    "durationTicks": 60,
                    "midi": 28,
                    "name": "E1",
                    "ticks": 18060,
                    "time": 64.4999355,
                    "velocity": 1
                },
                {
                    "duration": 0.21428550000000257,
                    "durationTicks": 60,
                    "midi": 28,
                    "name": "E1",
                    "ticks": 18120,
                    "time": 64.71422100000001,
                    "velocity": 1
                },
                {
                    "duration": 0.21428549999998836,
                    "durationTicks": 60,
                    "midi": 28,
                    "name": "E1",
                    "ticks": 18180,
                    "time": 64.92850650000001,
                    "velocity": 1
                },
                {
                    "duration": 0.21428550000000257,
                    "durationTicks": 60,
                    "midi": 28,
                    "name": "E1",
                    "ticks": 18240,
                    "time": 65.142792,
                    "velocity": 1
                },
                {
                    "duration": 0.21428550000000257,
                    "durationTicks": 60,
                    "midi": 28,
                    "name": "E1",
                    "ticks": 18300,
                    "time": 65.3570775,
                    "velocity": 1
                },
                {
                    "duration": 0.21428550000000257,
                    "durationTicks": 60,
                    "midi": 28,
                    "name": "E1",
                    "ticks": 18360,
                    "time": 65.571363,
                    "velocity": 1
                },
                {
                    "duration": 0.21428550000000257,
                    "durationTicks": 60,
                    "midi": 28,
                    "name": "E1",
                    "ticks": 18420,
                    "time": 65.78564850000001,
                    "velocity": 1
                },
                {
                    "duration": 0.21428549999998836,
                    "durationTicks": 60,
                    "midi": 35,
                    "name": "B1",
                    "ticks": 18480,
                    "time": 65.99993400000001,
                    "velocity": 1
                },
                {
                    "duration": 0.21428550000000257,
                    "durationTicks": 60,
                    "midi": 34,
                    "name": "A#1",
                    "ticks": 18540,
                    "time": 66.2142195,
                    "velocity": 1
                },
                {
                    "duration": 0.21428550000000257,
                    "durationTicks": 60,
                    "midi": 43,
                    "name": "G2",
                    "ticks": 18600,
                    "time": 66.428505,
                    "velocity": 1
                },
                {
                    "duration": 0.21428550000000257,
                    "durationTicks": 60,
                    "midi": 40,
                    "name": "E2",
                    "ticks": 18660,
                    "time": 66.6427905,
                    "velocity": 1
                },
                {
                    "duration": 0.21428550000000257,
                    "durationTicks": 60,
                    "midi": 28,
                    "name": "E1",
                    "ticks": 18720,
                    "time": 66.857076,
                    "velocity": 1
                },
                {
                    "duration": 0.21428550000000257,
                    "durationTicks": 60,
                    "midi": 28,
                    "name": "E1",
                    "ticks": 18780,
                    "time": 67.07136150000001,
                    "velocity": 1
                },
                {
                    "duration": 0.21428549999998836,
                    "durationTicks": 60,
                    "midi": 40,
                    "name": "E2",
                    "ticks": 18840,
                    "time": 67.28564700000001,
                    "velocity": 1
                },
                {
                    "duration": 0.21428550000000257,
                    "durationTicks": 60,
                    "midi": 28,
                    "name": "E1",
                    "ticks": 18900,
                    "time": 67.4999325,
                    "velocity": 1
                },
                {
                    "duration": 0.21428550000000257,
                    "durationTicks": 60,
                    "midi": 28,
                    "name": "E1",
                    "ticks": 18960,
                    "time": 67.714218,
                    "velocity": 1
                },
                {
                    "duration": 0.21428550000000257,
                    "durationTicks": 60,
                    "midi": 28,
                    "name": "E1",
                    "ticks": 19020,
                    "time": 67.9285035,
                    "velocity": 1
                },
                {
                    "duration": 0.21428550000000257,
                    "durationTicks": 60,
                    "midi": 40,
                    "name": "E2",
                    "ticks": 19080,
                    "time": 68.14278900000001,
                    "velocity": 1
                },
                {
                    "duration": 0.21428549999998836,
                    "durationTicks": 60,
                    "midi": 28,
                    "name": "E1",
                    "ticks": 19140,
                    "time": 68.35707450000001,
                    "velocity": 1
                },
                {
                    "duration": 0.21428550000000257,
                    "durationTicks": 60,
                    "midi": 28,
                    "name": "E1",
                    "ticks": 19200,
                    "time": 68.57136,
                    "velocity": 1
                },
                {
                    "duration": 0.21428550000000257,
                    "durationTicks": 60,
                    "midi": 28,
                    "name": "E1",
                    "ticks": 19260,
                    "time": 68.7856455,
                    "velocity": 1
                },
                {
                    "duration": 0.21428550000000257,
                    "durationTicks": 60,
                    "midi": 40,
                    "name": "E2",
                    "ticks": 19320,
                    "time": 68.999931,
                    "velocity": 1
                },
                {
                    "duration": 0.21428550000000257,
                    "durationTicks": 60,
                    "midi": 28,
                    "name": "E1",
                    "ticks": 19380,
                    "time": 69.2142165,
                    "velocity": 1
                },
                {
                    "duration": 0.21428550000000257,
                    "durationTicks": 60,
                    "midi": 35,
                    "name": "B1",
                    "ticks": 19440,
                    "time": 69.42850200000001,
                    "velocity": 1
                },
                {
                    "duration": 0.21428549999998836,
                    "durationTicks": 60,
                    "midi": 34,
                    "name": "A#1",
                    "ticks": 19500,
                    "time": 69.64278750000001,
                    "velocity": 1
                },
                {
                    "duration": 0.21428550000000257,
                    "durationTicks": 60,
                    "midi": 31,
                    "name": "G1",
                    "ticks": 19560,
                    "time": 69.857073,
                    "velocity": 1
                },
                {
                    "duration": 0.21428550000000257,
                    "durationTicks": 60,
                    "midi": 28,
                    "name": "E1",
                    "ticks": 19620,
                    "time": 70.0713585,
                    "velocity": 1
                },
                {
                    "duration": 0.21428550000000257,
                    "durationTicks": 60,
                    "midi": 28,
                    "name": "E1",
                    "ticks": 19680,
                    "time": 70.285644,
                    "velocity": 1
                },
                {
                    "duration": 0.21428550000000257,
                    "durationTicks": 60,
                    "midi": 28,
                    "name": "E1",
                    "ticks": 19740,
                    "time": 70.49992950000001,
                    "velocity": 1
                },
                {
                    "duration": 0.21428550000000257,
                    "durationTicks": 60,
                    "midi": 28,
                    "name": "E1",
                    "ticks": 19800,
                    "time": 70.71421500000001,
                    "velocity": 1
                },
                {
                    "duration": 0.21428549999998836,
                    "durationTicks": 60,
                    "midi": 28,
                    "name": "E1",
                    "ticks": 19860,
                    "time": 70.92850050000001,
                    "velocity": 1
                },
                {
                    "duration": 0.21428550000000257,
                    "durationTicks": 60,
                    "midi": 28,
                    "name": "E1",
                    "ticks": 19920,
                    "time": 71.142786,
                    "velocity": 1
                },
                {
                    "duration": 0.21428550000000257,
                    "durationTicks": 60,
                    "midi": 28,
                    "name": "E1",
                    "ticks": 19980,
                    "time": 71.3570715,
                    "velocity": 1
                },
                {
                    "duration": 0.21428550000000257,
                    "durationTicks": 60,
                    "midi": 28,
                    "name": "E1",
                    "ticks": 20040,
                    "time": 71.571357,
                    "velocity": 1
                },
                {
                    "duration": 0.21428550000000257,
                    "durationTicks": 60,
                    "midi": 28,
                    "name": "E1",
                    "ticks": 20100,
                    "time": 71.78564250000001,
                    "velocity": 1
                },
                {
                    "duration": 0.21428549999998836,
                    "durationTicks": 60,
                    "midi": 28,
                    "name": "E1",
                    "ticks": 20160,
                    "time": 71.99992800000001,
                    "velocity": 1
                },
                {
                    "duration": 0.21428550000000257,
                    "durationTicks": 60,
                    "midi": 28,
                    "name": "E1",
                    "ticks": 20220,
                    "time": 72.2142135,
                    "velocity": 1
                },
                {
                    "duration": 0.21428550000000257,
                    "durationTicks": 60,
                    "midi": 28,
                    "name": "E1",
                    "ticks": 20280,
                    "time": 72.428499,
                    "velocity": 1
                },
                {
                    "duration": 0.21428550000000257,
                    "durationTicks": 60,
                    "midi": 28,
                    "name": "E1",
                    "ticks": 20340,
                    "time": 72.6427845,
                    "velocity": 1
                },
                {
                    "duration": 0.21428550000000257,
                    "durationTicks": 60,
                    "midi": 35,
                    "name": "B1",
                    "ticks": 20400,
                    "time": 72.85707000000001,
                    "velocity": 1
                },
                {
                    "duration": 0.21428550000000257,
                    "durationTicks": 60,
                    "midi": 34,
                    "name": "A#1",
                    "ticks": 20460,
                    "time": 73.07135550000001,
                    "velocity": 1
                },
                {
                    "duration": 0.21428549999998836,
                    "durationTicks": 60,
                    "midi": 43,
                    "name": "G2",
                    "ticks": 20520,
                    "time": 73.28564100000001,
                    "velocity": 1
                },
                {
                    "duration": 0.21428550000000257,
                    "durationTicks": 60,
                    "midi": 40,
                    "name": "E2",
                    "ticks": 20580,
                    "time": 73.4999265,
                    "velocity": 1
                },
                {
                    "duration": 0.21428550000000257,
                    "durationTicks": 60,
                    "midi": 28,
                    "name": "E1",
                    "ticks": 20640,
                    "time": 73.714212,
                    "velocity": 1
                },
                {
                    "duration": 0.21428550000000257,
                    "durationTicks": 60,
                    "midi": 28,
                    "name": "E1",
                    "ticks": 20700,
                    "time": 73.9284975,
                    "velocity": 1
                },
                {
                    "duration": 0.21428550000000257,
                    "durationTicks": 60,
                    "midi": 28,
                    "name": "E1",
                    "ticks": 20760,
                    "time": 74.14278300000001,
                    "velocity": 1
                },
                {
                    "duration": 0.21428549999998836,
                    "durationTicks": 60,
                    "midi": 28,
                    "name": "E1",
                    "ticks": 20820,
                    "time": 74.35706850000001,
                    "velocity": 1
                },
                {
                    "duration": 0.21428550000000257,
                    "durationTicks": 60,
                    "midi": 28,
                    "name": "E1",
                    "ticks": 20880,
                    "time": 74.571354,
                    "velocity": 1
                },
                {
                    "duration": 0.21428550000000257,
                    "durationTicks": 60,
                    "midi": 28,
                    "name": "E1",
                    "ticks": 20940,
                    "time": 74.7856395,
                    "velocity": 1
                },
                {
                    "duration": 0.21428550000000257,
                    "durationTicks": 60,
                    "midi": 28,
                    "name": "E1",
                    "ticks": 21000,
                    "time": 74.999925,
                    "velocity": 1
                },
                {
                    "duration": 0.21428550000000257,
                    "durationTicks": 60,
                    "midi": 28,
                    "name": "E1",
                    "ticks": 21060,
                    "time": 75.21421050000001,
                    "velocity": 1
                },
                {
                    "duration": 0.21428550000000257,
                    "durationTicks": 60,
                    "midi": 28,
                    "name": "E1",
                    "ticks": 21120,
                    "time": 75.42849600000001,
                    "velocity": 1
                },
                {
                    "duration": 0.21428549999998836,
                    "durationTicks": 60,
                    "midi": 28,
                    "name": "E1",
                    "ticks": 21180,
                    "time": 75.64278150000001,
                    "velocity": 1
                },
                {
                    "duration": 0.21428550000000257,
                    "durationTicks": 60,
                    "midi": 28,
                    "name": "E1",
                    "ticks": 21240,
                    "time": 75.857067,
                    "velocity": 1
                },
                {
                    "duration": 0.21428550000000257,
                    "durationTicks": 60,
                    "midi": 28,
                    "name": "E1",
                    "ticks": 21300,
                    "time": 76.0713525,
                    "velocity": 1
                },
                {
                    "duration": 0.21428550000000257,
                    "durationTicks": 60,
                    "midi": 35,
                    "name": "B1",
                    "ticks": 21360,
                    "time": 76.285638,
                    "velocity": 1
                },
                {
                    "duration": 0.21428550000000257,
                    "durationTicks": 60,
                    "midi": 34,
                    "name": "A#1",
                    "ticks": 21420,
                    "time": 76.49992350000001,
                    "velocity": 1
                },
                {
                    "duration": 0.21428549999998836,
                    "durationTicks": 60,
                    "midi": 31,
                    "name": "G1",
                    "ticks": 21480,
                    "time": 76.71420900000001,
                    "velocity": 1
                },
                {
                    "duration": 0.21428550000000257,
                    "durationTicks": 60,
                    "midi": 28,
                    "name": "E1",
                    "ticks": 21540,
                    "time": 76.9284945,
                    "velocity": 1
                },
                {
                    "duration": 0.21428550000000257,
                    "durationTicks": 60,
                    "midi": 28,
                    "name": "E1",
                    "ticks": 21600,
                    "time": 77.14278,
                    "velocity": 1
                },
                {
                    "duration": 0.21428550000000257,
                    "durationTicks": 60,
                    "midi": 28,
                    "name": "E1",
                    "ticks": 21660,
                    "time": 77.3570655,
                    "velocity": 1
                },
                {
                    "duration": 0.21428550000000257,
                    "durationTicks": 60,
                    "midi": 40,
                    "name": "E2",
                    "ticks": 21720,
                    "time": 77.571351,
                    "velocity": 1
                },
                {
                    "duration": 0.21428550000000257,
                    "durationTicks": 60,
                    "midi": 28,
                    "name": "E1",
                    "ticks": 21780,
                    "time": 77.78563650000001,
                    "velocity": 1
                },
                {
                    "duration": 0.21428549999998836,
                    "durationTicks": 60,
                    "midi": 28,
                    "name": "E1",
                    "ticks": 21840,
                    "time": 77.99992200000001,
                    "velocity": 1
                },
                {
                    "duration": 0.21428550000000257,
                    "durationTicks": 60,
                    "midi": 28,
                    "name": "E1",
                    "ticks": 21900,
                    "time": 78.2142075,
                    "velocity": 1
                },
                {
                    "duration": 0.21428550000000257,
                    "durationTicks": 60,
                    "midi": 28,
                    "name": "E1",
                    "ticks": 21960,
                    "time": 78.428493,
                    "velocity": 1
                },
                {
                    "duration": 0.21428550000000257,
                    "durationTicks": 60,
                    "midi": 28,
                    "name": "E1",
                    "ticks": 22020,
                    "time": 78.6427785,
                    "velocity": 1
                },
                {
                    "duration": 0.21428550000000257,
                    "durationTicks": 60,
                    "midi": 28,
                    "name": "E1",
                    "ticks": 22080,
                    "time": 78.85706400000001,
                    "velocity": 1
                },
                {
                    "duration": 0.21428550000000257,
                    "durationTicks": 60,
                    "midi": 28,
                    "name": "E1",
                    "ticks": 22140,
                    "time": 79.07134950000001,
                    "velocity": 1
                },
                {
                    "duration": 0.21428549999998836,
                    "durationTicks": 60,
                    "midi": 28,
                    "name": "E1",
                    "ticks": 22200,
                    "time": 79.28563500000001,
                    "velocity": 1
                },
                {
                    "duration": 0.21428550000000257,
                    "durationTicks": 60,
                    "midi": 28,
                    "name": "E1",
                    "ticks": 22260,
                    "time": 79.4999205,
                    "velocity": 1
                },
                {
                    "duration": 0.21428550000000257,
                    "durationTicks": 60,
                    "midi": 35,
                    "name": "B1",
                    "ticks": 22320,
                    "time": 79.714206,
                    "velocity": 1
                },
                {
                    "duration": 0.21428550000000257,
                    "durationTicks": 60,
                    "midi": 34,
                    "name": "A#1",
                    "ticks": 22380,
                    "time": 79.9284915,
                    "velocity": 1
                },
                {
                    "duration": 0.21428550000000257,
                    "durationTicks": 60,
                    "midi": 43,
                    "name": "G2",
                    "ticks": 22440,
                    "time": 80.14277700000001,
                    "velocity": 1
                },
                {
                    "duration": 0.21428549999998836,
                    "durationTicks": 60,
                    "midi": 40,
                    "name": "E2",
                    "ticks": 22500,
                    "time": 80.35706250000001,
                    "velocity": 1
                },
                {
                    "duration": 0.21428550000000257,
                    "durationTicks": 60,
                    "midi": 28,
                    "name": "E1",
                    "ticks": 22560,
                    "time": 80.571348,
                    "velocity": 1
                },
                {
                    "duration": 0.21428550000000257,
                    "durationTicks": 60,
                    "midi": 28,
                    "name": "E1",
                    "ticks": 22620,
                    "time": 80.7856335,
                    "velocity": 1
                },
                {
                    "duration": 0.21428550000000257,
                    "durationTicks": 60,
                    "midi": 40,
                    "name": "E2",
                    "ticks": 22680,
                    "time": 80.999919,
                    "velocity": 1
                },
                {
                    "duration": 0.21428550000000257,
                    "durationTicks": 60,
                    "midi": 28,
                    "name": "E1",
                    "ticks": 22740,
                    "time": 81.21420450000001,
                    "velocity": 1
                },
                {
                    "duration": 0.21428550000000257,
                    "durationTicks": 60,
                    "midi": 28,
                    "name": "E1",
                    "ticks": 22800,
                    "time": 81.42849000000001,
                    "velocity": 1
                },
                {
                    "duration": 0.21428549999998836,
                    "durationTicks": 60,
                    "midi": 28,
                    "name": "E1",
                    "ticks": 22860,
                    "time": 81.64277550000001,
                    "velocity": 1
                },
                {
                    "duration": 0.21428550000000257,
                    "durationTicks": 60,
                    "midi": 40,
                    "name": "E2",
                    "ticks": 22920,
                    "time": 81.857061,
                    "velocity": 1
                },
                {
                    "duration": 0.21428550000000257,
                    "durationTicks": 60,
                    "midi": 28,
                    "name": "E1",
                    "ticks": 22980,
                    "time": 82.0713465,
                    "velocity": 1
                },
                {
                    "duration": 0.21428550000000257,
                    "durationTicks": 60,
                    "midi": 28,
                    "name": "E1",
                    "ticks": 23040,
                    "time": 82.285632,
                    "velocity": 1
                },
                {
                    "duration": 0.21428550000000257,
                    "durationTicks": 60,
                    "midi": 28,
                    "name": "E1",
                    "ticks": 23100,
                    "time": 82.49991750000001,
                    "velocity": 1
                },
                {
                    "duration": 0.21428549999998836,
                    "durationTicks": 60,
                    "midi": 40,
                    "name": "E2",
                    "ticks": 23160,
                    "time": 82.71420300000001,
                    "velocity": 1
                },
                {
                    "duration": 0.21428550000000257,
                    "durationTicks": 60,
                    "midi": 28,
                    "name": "E1",
                    "ticks": 23220,
                    "time": 82.9284885,
                    "velocity": 1
                },
                {
                    "duration": 0.21428550000000257,
                    "durationTicks": 60,
                    "midi": 35,
                    "name": "B1",
                    "ticks": 23280,
                    "time": 83.142774,
                    "velocity": 1
                },
                {
                    "duration": 0.21428550000000257,
                    "durationTicks": 60,
                    "midi": 34,
                    "name": "A#1",
                    "ticks": 23340,
                    "time": 83.3570595,
                    "velocity": 1
                },
                {
                    "duration": 0.21428550000000257,
                    "durationTicks": 60,
                    "midi": 31,
                    "name": "G1",
                    "ticks": 23400,
                    "time": 83.57134500000001,
                    "velocity": 1
                },
                {
                    "duration": 0.21428550000000257,
                    "durationTicks": 60,
                    "midi": 28,
                    "name": "E1",
                    "ticks": 23460,
                    "time": 83.78563050000001,
                    "velocity": 1
                },
                {
                    "duration": 0.21428549999998836,
                    "durationTicks": 60,
                    "midi": 36,
                    "name": "C2",
                    "ticks": 23520,
                    "time": 83.99991600000001,
                    "velocity": 1
                },
                {
                    "duration": 0.21428550000000257,
                    "durationTicks": 60,
                    "midi": 33,
                    "name": "A1",
                    "ticks": 23580,
                    "time": 84.2142015,
                    "velocity": 1
                },
                {
                    "duration": 0.21428550000000257,
                    "durationTicks": 60,
                    "midi": 33,
                    "name": "A1",
                    "ticks": 23640,
                    "time": 84.428487,
                    "velocity": 1
                },
                {
                    "duration": 0.21428550000000257,
                    "durationTicks": 60,
                    "midi": 33,
                    "name": "A1",
                    "ticks": 23700,
                    "time": 84.6427725,
                    "velocity": 1
                },
                {
                    "duration": 0.21428550000000257,
                    "durationTicks": 60,
                    "midi": 36,
                    "name": "C2",
                    "ticks": 23760,
                    "time": 84.85705800000001,
                    "velocity": 1
                },
                {
                    "duration": 0.21428549999998836,
                    "durationTicks": 60,
                    "midi": 38,
                    "name": "D2",
                    "ticks": 23820,
                    "time": 85.07134350000001,
                    "velocity": 1
                },
                {
                    "duration": 0.42857100000000514,
                    "durationTicks": 120,
                    "midi": 36,
                    "name": "C2",
                    "ticks": 23880,
                    "time": 85.285629,
                    "velocity": 1
                },
                {
                    "duration": 0.21428550000000257,
                    "durationTicks": 60,
                    "midi": 36,
                    "name": "C2",
                    "ticks": 24000,
                    "time": 85.7142,
                    "velocity": 1
                },
                {
                    "duration": 0.21428550000000257,
                    "durationTicks": 60,
                    "midi": 33,
                    "name": "A1",
                    "ticks": 24060,
                    "time": 85.92848550000001,
                    "velocity": 1
                },
                {
                    "duration": 0.21428550000000257,
                    "durationTicks": 60,
                    "midi": 33,
                    "name": "A1",
                    "ticks": 24120,
                    "time": 86.14277100000001,
                    "velocity": 1
                },
                {
                    "duration": 0.21428549999998836,
                    "durationTicks": 60,
                    "midi": 40,
                    "name": "E2",
                    "ticks": 24180,
                    "time": 86.35705650000001,
                    "velocity": 1
                },
                {
                    "duration": 0.21428550000000257,
                    "durationTicks": 60,
                    "midi": 43,
                    "name": "G2",
                    "ticks": 24240,
                    "time": 86.571342,
                    "velocity": 1
                },
                {
                    "duration": 0.21428550000000257,
                    "durationTicks": 60,
                    "midi": 40,
                    "name": "E2",
                    "ticks": 24300,
                    "time": 86.7856275,
                    "velocity": 1
                },
                {
                    "duration": 0.42857100000000514,
                    "durationTicks": 120,
                    "midi": 45,
                    "name": "A2",
                    "ticks": 24360,
                    "time": 86.999913,
                    "velocity": 1
                },
                {
                    "duration": 0.21428550000000257,
                    "durationTicks": 60,
                    "midi": 33,
                    "name": "A1",
                    "ticks": 24480,
                    "time": 87.42848400000001,
                    "velocity": 1
                },
                {
                    "duration": 0.21428549999998836,
                    "durationTicks": 60,
                    "midi": 33,
                    "name": "A1",
                    "ticks": 24540,
                    "time": 87.64276950000001,
                    "velocity": 1
                },
                {
                    "duration": 0.21428550000000257,
                    "durationTicks": 60,
                    "midi": 33,
                    "name": "A1",
                    "ticks": 24600,
                    "time": 87.857055,
                    "velocity": 1
                },
                {
                    "duration": 0.21428550000000257,
                    "durationTicks": 60,
                    "midi": 33,
                    "name": "A1",
                    "ticks": 24660,
                    "time": 88.0713405,
                    "velocity": 1
                },
                {
                    "duration": 0.21428550000000257,
                    "durationTicks": 60,
                    "midi": 36,
                    "name": "C2",
                    "ticks": 24720,
                    "time": 88.28562600000001,
                    "velocity": 1
                },
                {
                    "duration": 0.21428550000000257,
                    "durationTicks": 60,
                    "midi": 38,
                    "name": "D2",
                    "ticks": 24780,
                    "time": 88.49991150000001,
                    "velocity": 1
                },
                {
                    "duration": 0.42857099999999093,
                    "durationTicks": 120,
                    "midi": 36,
                    "name": "C2",
                    "ticks": 24840,
                    "time": 88.71419700000001,
                    "velocity": 1
                },
                {
                    "duration": 0.21428550000000257,
                    "durationTicks": 60,
                    "midi": 50,
                    "name": "D3",
                    "ticks": 24960,
                    "time": 89.142768,
                    "velocity": 1
                },
                {
                    "duration": 0.21428550000000257,
                    "durationTicks": 60,
                    "midi": 48,
                    "name": "C3",
                    "ticks": 25020,
                    "time": 89.3570535,
                    "velocity": 1
                },
                {
                    "duration": 0.21428550000000257,
                    "durationTicks": 60,
                    "midi": 45,
                    "name": "A2",
                    "ticks": 25080,
                    "time": 89.57133900000001,
                    "velocity": 1
                },
                {
                    "duration": 0.21428550000000257,
                    "durationTicks": 60,
                    "midi": 44,
                    "name": "G#2",
                    "ticks": 25140,
                    "time": 89.78562450000001,
                    "velocity": 1
                },
                {
                    "duration": 0.21428549999998836,
                    "durationTicks": 60,
                    "midi": 43,
                    "name": "G2",
                    "ticks": 25200,
                    "time": 89.99991000000001,
                    "velocity": 1
                },
                {
                    "duration": 0.21428550000000257,
                    "durationTicks": 60,
                    "midi": 40,
                    "name": "E2",
                    "ticks": 25260,
                    "time": 90.2141955,
                    "velocity": 1
                },
                {
                    "duration": 0.21428550000000257,
                    "durationTicks": 60,
                    "midi": 39,
                    "name": "D#2",
                    "ticks": 25320,
                    "time": 90.428481,
                    "velocity": 1
                },
                {
                    "duration": 0.21428550000000257,
                    "durationTicks": 60,
                    "midi": 38,
                    "name": "D2",
                    "ticks": 25380,
                    "time": 90.64276650000001,
                    "velocity": 1
                },
                {
                    "duration": 0.21428550000000257,
                    "durationTicks": 60,
                    "midi": 36,
                    "name": "C2",
                    "ticks": 25440,
                    "time": 90.85705200000001,
                    "velocity": 1
                },
                {
                    "duration": 0.21428549999998836,
                    "durationTicks": 60,
                    "midi": 33,
                    "name": "A1",
                    "ticks": 25500,
                    "time": 91.07133750000001,
                    "velocity": 1
                },
                {
                    "duration": 0.21428550000000257,
                    "durationTicks": 60,
                    "midi": 33,
                    "name": "A1",
                    "ticks": 25560,
                    "time": 91.285623,
                    "velocity": 1
                },
                {
                    "duration": 0.21428550000000257,
                    "durationTicks": 60,
                    "midi": 33,
                    "name": "A1",
                    "ticks": 25620,
                    "time": 91.4999085,
                    "velocity": 1
                },
                {
                    "duration": 0.21428550000000257,
                    "durationTicks": 60,
                    "midi": 36,
                    "name": "C2",
                    "ticks": 25680,
                    "time": 91.714194,
                    "velocity": 1
                },
                {
                    "duration": 0.21428550000000257,
                    "durationTicks": 60,
                    "midi": 38,
                    "name": "D2",
                    "ticks": 25740,
                    "time": 91.92847950000001,
                    "velocity": 1
                },
                {
                    "duration": 0.42857099999999093,
                    "durationTicks": 120,
                    "midi": 36,
                    "name": "C2",
                    "ticks": 25800,
                    "time": 92.14276500000001,
                    "velocity": 1
                },
                {
                    "duration": 0.21428550000000257,
                    "durationTicks": 60,
                    "midi": 36,
                    "name": "C2",
                    "ticks": 25920,
                    "time": 92.571336,
                    "velocity": 1
                },
                {
                    "duration": 0.21428550000000257,
                    "durationTicks": 60,
                    "midi": 33,
                    "name": "A1",
                    "ticks": 25980,
                    "time": 92.7856215,
                    "velocity": 1
                },
                {
                    "duration": 0.21428550000000257,
                    "durationTicks": 60,
                    "midi": 33,
                    "name": "A1",
                    "ticks": 26040,
                    "time": 92.99990700000001,
                    "velocity": 1
                },
                {
                    "duration": 0.21428550000000257,
                    "durationTicks": 60,
                    "midi": 40,
                    "name": "E2",
                    "ticks": 26100,
                    "time": 93.21419250000001,
                    "velocity": 1
                },
                {
                    "duration": 0.21428549999998836,
                    "durationTicks": 60,
                    "midi": 43,
                    "name": "G2",
                    "ticks": 26160,
                    "time": 93.42847800000001,
                    "velocity": 1
                },
                {
                    "duration": 0.21428550000000257,
                    "durationTicks": 60,
                    "midi": 40,
                    "name": "E2",
                    "ticks": 26220,
                    "time": 93.6427635,
                    "velocity": 1
                },
                {
                    "duration": 0.42857100000000514,
                    "durationTicks": 120,
                    "midi": 45,
                    "name": "A2",
                    "ticks": 26280,
                    "time": 93.857049,
                    "velocity": 1
                },
                {
                    "duration": 0.21428550000000257,
                    "durationTicks": 60,
                    "midi": 33,
                    "name": "A1",
                    "ticks": 26400,
                    "time": 94.28562000000001,
                    "velocity": 1
                },
                {
                    "duration": 0.21428550000000257,
                    "durationTicks": 60,
                    "midi": 33,
                    "name": "A1",
                    "ticks": 26460,
                    "time": 94.49990550000001,
                    "velocity": 1
                },
                {
                    "duration": 0.21428549999998836,
                    "durationTicks": 60,
                    "midi": 33,
                    "name": "A1",
                    "ticks": 26520,
                    "time": 94.71419100000001,
                    "velocity": 1
                },
                {
                    "duration": 0.21428550000000257,
                    "durationTicks": 60,
                    "midi": 33,
                    "name": "A1",
                    "ticks": 26580,
                    "time": 94.9284765,
                    "velocity": 1
                },
                {
                    "duration": 0.21428550000000257,
                    "durationTicks": 60,
                    "midi": 36,
                    "name": "C2",
                    "ticks": 26640,
                    "time": 95.142762,
                    "velocity": 1
                },
                {
                    "duration": 0.21428550000000257,
                    "durationTicks": 60,
                    "midi": 38,
                    "name": "D2",
                    "ticks": 26700,
                    "time": 95.35704750000001,
                    "velocity": 1
                },
                {
                    "duration": 0.42857100000000514,
                    "durationTicks": 120,
                    "midi": 36,
                    "name": "C2",
                    "ticks": 26760,
                    "time": 95.57133300000001,
                    "velocity": 1
                },
                {
                    "duration": 0.21428549999998836,
                    "durationTicks": 60,
                    "midi": 52,
                    "name": "E3",
                    "ticks": 26880,
                    "time": 95.99990400000002,
                    "velocity": 1
                },
                {
                    "duration": 0.21428550000000257,
                    "durationTicks": 60,
                    "midi": 50,
                    "name": "D3",
                    "ticks": 26940,
                    "time": 96.2141895,
                    "velocity": 1
                },
                {
                    "duration": 0.21428550000000257,
                    "durationTicks": 60,
                    "midi": 47,
                    "name": "B2",
                    "ticks": 27000,
                    "time": 96.428475,
                    "velocity": 1
                },
                {
                    "duration": 0.21428550000000257,
                    "durationTicks": 60,
                    "midi": 50,
                    "name": "D3",
                    "ticks": 27060,
                    "time": 96.64276050000001,
                    "velocity": 1
                },
                {
                    "duration": 0.21428550000000257,
                    "durationTicks": 60,
                    "midi": 47,
                    "name": "B2",
                    "ticks": 27120,
                    "time": 96.85704600000001,
                    "velocity": 1
                },
                {
                    "duration": 0.21428549999998836,
                    "durationTicks": 60,
                    "midi": 46,
                    "name": "A#2",
                    "ticks": 27180,
                    "time": 97.07133150000001,
                    "velocity": 1
                },
                {
                    "duration": 0.21428550000000257,
                    "durationTicks": 60,
                    "midi": 45,
                    "name": "A2",
                    "ticks": 27240,
                    "time": 97.285617,
                    "velocity": 1
                },
                {
                    "duration": 0.21428550000000257,
                    "durationTicks": 60,
                    "midi": 43,
                    "name": "G2",
                    "ticks": 27300,
                    "time": 97.4999025,
                    "velocity": 1
                },
                {
                    "duration": 0.21428550000000257,
                    "durationTicks": 60,
                    "midi": 40,
                    "name": "E2",
                    "ticks": 27360,
                    "time": 97.71418800000001,
                    "velocity": 1
                },
                {
                    "duration": 0.21428550000000257,
                    "durationTicks": 60,
                    "midi": 38,
                    "name": "D2",
                    "ticks": 27420,
                    "time": 97.92847350000001,
                    "velocity": 1
                },
                {
                    "duration": 0.21428550000000257,
                    "durationTicks": 60,
                    "midi": 35,
                    "name": "B1",
                    "ticks": 27480,
                    "time": 98.14275900000001,
                    "velocity": 1
                },
                {
                    "duration": 0.21428549999998836,
                    "durationTicks": 60,
                    "midi": 38,
                    "name": "D2",
                    "ticks": 27540,
                    "time": 98.35704450000001,
                    "velocity": 1
                },
                {
                    "duration": 0.21428550000000257,
                    "durationTicks": 60,
                    "midi": 35,
                    "name": "B1",
                    "ticks": 27600,
                    "time": 98.57133,
                    "velocity": 1
                },
                {
                    "duration": 0.21428550000000257,
                    "durationTicks": 60,
                    "midi": 34,
                    "name": "A#1",
                    "ticks": 27660,
                    "time": 98.7856155,
                    "velocity": 1
                },
                {
                    "duration": 0.21428550000000257,
                    "durationTicks": 60,
                    "midi": 33,
                    "name": "A1",
                    "ticks": 27720,
                    "time": 98.99990100000001,
                    "velocity": 1
                },
                {
                    "duration": 0.21428550000000257,
                    "durationTicks": 60,
                    "midi": 31,
                    "name": "G1",
                    "ticks": 27780,
                    "time": 99.21418650000001,
                    "velocity": 1
                },
                {
                    "duration": 0.21428549999998836,
                    "durationTicks": 60,
                    "midi": 31,
                    "name": "G1",
                    "ticks": 27840,
                    "time": 99.42847200000001,
                    "velocity": 1
                },
                {
                    "duration": 0.21428550000000257,
                    "durationTicks": 60,
                    "midi": 31,
                    "name": "G1",
                    "ticks": 27900,
                    "time": 99.6427575,
                    "velocity": 1
                },
                {
                    "duration": 0.21428550000000257,
                    "durationTicks": 60,
                    "midi": 31,
                    "name": "G1",
                    "ticks": 27960,
                    "time": 99.857043,
                    "velocity": 1
                },
                {
                    "duration": 0.21428550000000257,
                    "durationTicks": 60,
                    "midi": 31,
                    "name": "G1",
                    "ticks": 28020,
                    "time": 100.0713285,
                    "velocity": 1
                },
                {
                    "duration": 0.21428550000000257,
                    "durationTicks": 60,
                    "midi": 31,
                    "name": "G1",
                    "ticks": 28080,
                    "time": 100.28561400000001,
                    "velocity": 1
                },
                {
                    "duration": 0.10714274999999418,
                    "durationTicks": 30,
                    "midi": 31,
                    "name": "G1",
                    "ticks": 28140,
                    "time": 100.49989950000001,
                    "velocity": 1
                },
                {
                    "duration": 0.10714275000000839,
                    "durationTicks": 30,
                    "midi": 31,
                    "name": "G1",
                    "ticks": 28170,
                    "time": 100.60704225,
                    "velocity": 1
                },
                {
                    "duration": 0.42857099999999093,
                    "durationTicks": 120,
                    "midi": 43,
                    "name": "G2",
                    "ticks": 28200,
                    "time": 100.71418500000001,
                    "velocity": 1
                },
                {
                    "duration": 0.42857100000000514,
                    "durationTicks": 120,
                    "midi": 30,
                    "name": "F#1",
                    "ticks": 28320,
                    "time": 101.142756,
                    "velocity": 1
                },
                {
                    "duration": 0.42857099999999093,
                    "durationTicks": 120,
                    "midi": 30,
                    "name": "F#1",
                    "ticks": 28440,
                    "time": 101.57132700000001,
                    "velocity": 1
                },
                {
                    "duration": 0.42857100000000514,
                    "durationTicks": 120,
                    "midi": 29,
                    "name": "F1",
                    "ticks": 28560,
                    "time": 101.999898,
                    "velocity": 1
                },
                {
                    "duration": 0.42857100000000514,
                    "durationTicks": 120,
                    "midi": 29,
                    "name": "F1",
                    "ticks": 28680,
                    "time": 102.428469,
                    "velocity": 1
                },
                {
                    "duration": 0.21428550000000257,
                    "durationTicks": 60,
                    "midi": 28,
                    "name": "E1",
                    "ticks": 28800,
                    "time": 102.85704000000001,
                    "velocity": 1
                },
                {
                    "duration": 0.21428549999998836,
                    "durationTicks": 60,
                    "midi": 28,
                    "name": "E1",
                    "ticks": 28860,
                    "time": 103.07132550000001,
                    "velocity": 1
                },
                {
                    "duration": 0.21428550000000257,
                    "durationTicks": 60,
                    "midi": 28,
                    "name": "E1",
                    "ticks": 28920,
                    "time": 103.285611,
                    "velocity": 1
                },
                {
                    "duration": 0.21428550000000257,
                    "durationTicks": 60,
                    "midi": 28,
                    "name": "E1",
                    "ticks": 28980,
                    "time": 103.4998965,
                    "velocity": 1
                },
                {
                    "duration": 0.21428550000000257,
                    "durationTicks": 60,
                    "midi": 28,
                    "name": "E1",
                    "ticks": 29040,
                    "time": 103.71418200000001,
                    "velocity": 1
                },
                {
                    "duration": 0.21428550000000257,
                    "durationTicks": 60,
                    "midi": 28,
                    "name": "E1",
                    "ticks": 29100,
                    "time": 103.92846750000001,
                    "velocity": 1
                },
                {
                    "duration": 0.21428549999998836,
                    "durationTicks": 60,
                    "midi": 28,
                    "name": "E1",
                    "ticks": 29160,
                    "time": 104.14275300000001,
                    "velocity": 1
                },
                {
                    "duration": 0.21428550000000257,
                    "durationTicks": 60,
                    "midi": 28,
                    "name": "E1",
                    "ticks": 29220,
                    "time": 104.3570385,
                    "velocity": 1
                },
                {
                    "duration": 0.21428550000000257,
                    "durationTicks": 60,
                    "midi": 28,
                    "name": "E1",
                    "ticks": 29280,
                    "time": 104.571324,
                    "velocity": 1
                },
                {
                    "duration": 0.10714275000000839,
                    "durationTicks": 30,
                    "midi": 33,
                    "name": "A1",
                    "ticks": 29340,
                    "time": 104.7856095,
                    "velocity": 1
                },
                {
                    "duration": 0.10714274999999418,
                    "durationTicks": 30,
                    "midi": 35,
                    "name": "B1",
                    "ticks": 29370,
                    "time": 104.89275225000002,
                    "velocity": 1
                },
                {
                    "duration": 0.21428550000000257,
                    "durationTicks": 60,
                    "midi": 38,
                    "name": "D2",
                    "ticks": 29400,
                    "time": 104.99989500000001,
                    "velocity": 1
                },
                {
                    "duration": 0.21428550000000257,
                    "durationTicks": 60,
                    "midi": 28,
                    "name": "E1",
                    "ticks": 29460,
                    "time": 105.21418050000001,
                    "velocity": 1
                },
                {
                    "duration": 0.21428549999998836,
                    "durationTicks": 60,
                    "midi": 40,
                    "name": "E2",
                    "ticks": 29520,
                    "time": 105.42846600000001,
                    "velocity": 1
                },
                {
                    "duration": 0.21428550000000257,
                    "durationTicks": 60,
                    "midi": 28,
                    "name": "E1",
                    "ticks": 29580,
                    "time": 105.6427515,
                    "velocity": 1
                },
                {
                    "duration": 0.21428550000000257,
                    "durationTicks": 60,
                    "midi": 40,
                    "name": "E2",
                    "ticks": 29640,
                    "time": 105.857037,
                    "velocity": 1
                },
                {
                    "duration": 0.21428550000000257,
                    "durationTicks": 60,
                    "midi": 28,
                    "name": "E1",
                    "ticks": 29700,
                    "time": 106.07132250000001,
                    "velocity": 1
                },
                {
                    "duration": 0.21428550000000257,
                    "durationTicks": 60,
                    "midi": 31,
                    "name": "G1",
                    "ticks": 29760,
                    "time": 106.28560800000001,
                    "velocity": 1
                },
                {
                    "duration": 0.21428550000000257,
                    "durationTicks": 60,
                    "midi": 31,
                    "name": "G1",
                    "ticks": 29820,
                    "time": 106.49989350000001,
                    "velocity": 1
                },
                {
                    "duration": 0.21428549999998836,
                    "durationTicks": 60,
                    "midi": 31,
                    "name": "G1",
                    "ticks": 29880,
                    "time": 106.71417900000002,
                    "velocity": 1
                },
                {
                    "duration": 0.21428550000000257,
                    "durationTicks": 60,
                    "midi": 31,
                    "name": "G1",
                    "ticks": 29940,
                    "time": 106.9284645,
                    "velocity": 1
                },
                {
                    "duration": 0.21428550000000257,
                    "durationTicks": 60,
                    "midi": 31,
                    "name": "G1",
                    "ticks": 30000,
                    "time": 107.14275,
                    "velocity": 1
                },
                {
                    "duration": 0.10714274999999418,
                    "durationTicks": 30,
                    "midi": 31,
                    "name": "G1",
                    "ticks": 30060,
                    "time": 107.35703550000001,
                    "velocity": 1
                },
                {
                    "duration": 0.10714275000000839,
                    "durationTicks": 30,
                    "midi": 31,
                    "name": "G1",
                    "ticks": 30090,
                    "time": 107.46417825,
                    "velocity": 1
                },
                {
                    "duration": 0.42857099999999093,
                    "durationTicks": 120,
                    "midi": 43,
                    "name": "G2",
                    "ticks": 30120,
                    "time": 107.57132100000001,
                    "velocity": 1
                },
                {
                    "duration": 0.42857100000000514,
                    "durationTicks": 120,
                    "midi": 30,
                    "name": "F#1",
                    "ticks": 30240,
                    "time": 107.999892,
                    "velocity": 1
                },
                {
                    "duration": 0.42857100000000514,
                    "durationTicks": 120,
                    "midi": 30,
                    "name": "F#1",
                    "ticks": 30360,
                    "time": 108.42846300000001,
                    "velocity": 1
                },
                {
                    "duration": 0.42857099999999093,
                    "durationTicks": 120,
                    "midi": 29,
                    "name": "F1",
                    "ticks": 30480,
                    "time": 108.85703400000001,
                    "velocity": 1
                },
                {
                    "duration": 0.42857100000000514,
                    "durationTicks": 120,
                    "midi": 29,
                    "name": "F1",
                    "ticks": 30600,
                    "time": 109.285605,
                    "velocity": 1
                },
                {
                    "duration": 0.21428550000000257,
                    "durationTicks": 60,
                    "midi": 28,
                    "name": "E1",
                    "ticks": 30720,
                    "time": 109.71417600000001,
                    "velocity": 1
                },
                {
                    "duration": 0.21428550000000257,
                    "durationTicks": 60,
                    "midi": 28,
                    "name": "E1",
                    "ticks": 30780,
                    "time": 109.92846150000001,
                    "velocity": 1
                },
                {
                    "duration": 0.21428549999998836,
                    "durationTicks": 60,
                    "midi": 28,
                    "name": "E1",
                    "ticks": 30840,
                    "time": 110.14274700000001,
                    "velocity": 1
                },
                {
                    "duration": 0.21428550000000257,
                    "durationTicks": 60,
                    "midi": 28,
                    "name": "E1",
                    "ticks": 30900,
                    "time": 110.3570325,
                    "velocity": 1
                },
                {
                    "duration": 0.21428550000000257,
                    "durationTicks": 60,
                    "midi": 28,
                    "name": "E1",
                    "ticks": 30960,
                    "time": 110.571318,
                    "velocity": 1
                },
                {
                    "duration": 0.21428550000000257,
                    "durationTicks": 60,
                    "midi": 28,
                    "name": "E1",
                    "ticks": 31020,
                    "time": 110.78560350000001,
                    "velocity": 1
                },
                {
                    "duration": 0.21428550000000257,
                    "durationTicks": 60,
                    "midi": 28,
                    "name": "E1",
                    "ticks": 31080,
                    "time": 110.99988900000001,
                    "velocity": 1
                },
                {
                    "duration": 0.21428550000000257,
                    "durationTicks": 60,
                    "midi": 28,
                    "name": "E1",
                    "ticks": 31140,
                    "time": 111.21417450000001,
                    "velocity": 1
                },
                {
                    "duration": 0.21428549999998836,
                    "durationTicks": 60,
                    "midi": 40,
                    "name": "E2",
                    "ticks": 31200,
                    "time": 111.42846000000002,
                    "velocity": 1
                },
                {
                    "duration": 0.21428550000000257,
                    "durationTicks": 60,
                    "midi": 38,
                    "name": "D2",
                    "ticks": 31260,
                    "time": 111.6427455,
                    "velocity": 1
                },
                {
                    "duration": 0.21428550000000257,
                    "durationTicks": 60,
                    "midi": 35,
                    "name": "B1",
                    "ticks": 31320,
                    "time": 111.857031,
                    "velocity": 1
                },
                {
                    "duration": 0.21428550000000257,
                    "durationTicks": 60,
                    "midi": 34,
                    "name": "A#1",
                    "ticks": 31380,
                    "time": 112.07131650000001,
                    "velocity": 1
                },
                {
                    "duration": 0.21428550000000257,
                    "durationTicks": 60,
                    "midi": 33,
                    "name": "A1",
                    "ticks": 31440,
                    "time": 112.28560200000001,
                    "velocity": 1
                },
                {
                    "duration": 0.21428549999998836,
                    "durationTicks": 60,
                    "midi": 35,
                    "name": "B1",
                    "ticks": 31500,
                    "time": 112.49988750000001,
                    "velocity": 1
                },
                {
                    "duration": 0.21428550000000257,
                    "durationTicks": 60,
                    "midi": 34,
                    "name": "A#1",
                    "ticks": 31560,
                    "time": 112.714173,
                    "velocity": 1
                },
                {
                    "duration": 0.21428550000000257,
                    "durationTicks": 60,
                    "midi": 33,
                    "name": "A1",
                    "ticks": 31620,
                    "time": 112.9284585,
                    "velocity": 1
                },
                {
                    "duration": 0.21428550000000257,
                    "durationTicks": 60,
                    "midi": 31,
                    "name": "G1",
                    "ticks": 31680,
                    "time": 113.14274400000001,
                    "velocity": 1
                },
                {
                    "duration": 0.21428550000000257,
                    "durationTicks": 60,
                    "midi": 31,
                    "name": "G1",
                    "ticks": 31740,
                    "time": 113.35702950000001,
                    "velocity": 1
                },
                {
                    "duration": 0.21428550000000257,
                    "durationTicks": 60,
                    "midi": 31,
                    "name": "G1",
                    "ticks": 31800,
                    "time": 113.57131500000001,
                    "velocity": 1
                },
                {
                    "duration": 0.21428549999998836,
                    "durationTicks": 60,
                    "midi": 31,
                    "name": "G1",
                    "ticks": 31860,
                    "time": 113.78560050000002,
                    "velocity": 1
                },
                {
                    "duration": 0.21428550000000257,
                    "durationTicks": 60,
                    "midi": 31,
                    "name": "G1",
                    "ticks": 31920,
                    "time": 113.999886,
                    "velocity": 1
                },
                {
                    "duration": 0.10714275000000839,
                    "durationTicks": 30,
                    "midi": 31,
                    "name": "G1",
                    "ticks": 31980,
                    "time": 114.2141715,
                    "velocity": 1
                },
                {
                    "duration": 0.10714274999999418,
                    "durationTicks": 30,
                    "midi": 31,
                    "name": "G1",
                    "ticks": 32010,
                    "time": 114.32131425000001,
                    "velocity": 1
                },
                {
                    "duration": 0.42857100000000514,
                    "durationTicks": 120,
                    "midi": 43,
                    "name": "G2",
                    "ticks": 32040,
                    "time": 114.42845700000001,
                    "velocity": 1
                },
                {
                    "duration": 0.42857099999999093,
                    "durationTicks": 120,
                    "midi": 30,
                    "name": "F#1",
                    "ticks": 32160,
                    "time": 114.85702800000001,
                    "velocity": 1
                },
                {
                    "duration": 0.42857100000000514,
                    "durationTicks": 120,
                    "midi": 30,
                    "name": "F#1",
                    "ticks": 32280,
                    "time": 115.285599,
                    "velocity": 1
                },
                {
                    "duration": 0.42857100000000514,
                    "durationTicks": 120,
                    "midi": 29,
                    "name": "F1",
                    "ticks": 32400,
                    "time": 115.71417000000001,
                    "velocity": 1
                },
                {
                    "duration": 0.42857099999999093,
                    "durationTicks": 120,
                    "midi": 29,
                    "name": "F1",
                    "ticks": 32520,
                    "time": 116.14274100000002,
                    "velocity": 1
                },
                {
                    "duration": 0.21428550000000257,
                    "durationTicks": 60,
                    "midi": 28,
                    "name": "E1",
                    "ticks": 32640,
                    "time": 116.571312,
                    "velocity": 1
                },
                {
                    "duration": 0.21428550000000257,
                    "durationTicks": 60,
                    "midi": 28,
                    "name": "E1",
                    "ticks": 32700,
                    "time": 116.78559750000001,
                    "velocity": 1
                },
                {
                    "duration": 0.21428550000000257,
                    "durationTicks": 60,
                    "midi": 28,
                    "name": "E1",
                    "ticks": 32760,
                    "time": 116.99988300000001,
                    "velocity": 1
                },
                {
                    "duration": 0.21428550000000257,
                    "durationTicks": 60,
                    "midi": 28,
                    "name": "E1",
                    "ticks": 32820,
                    "time": 117.21416850000001,
                    "velocity": 1
                },
                {
                    "duration": 0.21428549999998836,
                    "durationTicks": 60,
                    "midi": 28,
                    "name": "E1",
                    "ticks": 32880,
                    "time": 117.42845400000002,
                    "velocity": 1
                },
                {
                    "duration": 0.21428550000000257,
                    "durationTicks": 60,
                    "midi": 28,
                    "name": "E1",
                    "ticks": 32940,
                    "time": 117.6427395,
                    "velocity": 1
                },
                {
                    "duration": 0.21428550000000257,
                    "durationTicks": 60,
                    "midi": 28,
                    "name": "E1",
                    "ticks": 33000,
                    "time": 117.85702500000001,
                    "velocity": 1
                },
                {
                    "duration": 0.21428550000000257,
                    "durationTicks": 60,
                    "midi": 28,
                    "name": "E1",
                    "ticks": 33060,
                    "time": 118.07131050000001,
                    "velocity": 1
                },
                {
                    "duration": 0.21428550000000257,
                    "durationTicks": 60,
                    "midi": 28,
                    "name": "E1",
                    "ticks": 33120,
                    "time": 118.28559600000001,
                    "velocity": 1
                },
                {
                    "duration": 0.10714274999999418,
                    "durationTicks": 30,
                    "midi": 33,
                    "name": "A1",
                    "ticks": 33180,
                    "time": 118.49988150000001,
                    "velocity": 1
                },
                {
                    "duration": 0.10714274999999418,
                    "durationTicks": 30,
                    "midi": 35,
                    "name": "B1",
                    "ticks": 33210,
                    "time": 118.60702425000001,
                    "velocity": 1
                },
                {
                    "duration": 0.21428550000000257,
                    "durationTicks": 60,
                    "midi": 38,
                    "name": "D2",
                    "ticks": 33240,
                    "time": 118.714167,
                    "velocity": 1
                },
                {
                    "duration": 0.21428550000000257,
                    "durationTicks": 60,
                    "midi": 28,
                    "name": "E1",
                    "ticks": 33300,
                    "time": 118.9284525,
                    "velocity": 1
                },
                {
                    "duration": 0.21428550000000257,
                    "durationTicks": 60,
                    "midi": 40,
                    "name": "E2",
                    "ticks": 33360,
                    "time": 119.14273800000001,
                    "velocity": 1
                },
                {
                    "duration": 0.21428550000000257,
                    "durationTicks": 60,
                    "midi": 28,
                    "name": "E1",
                    "ticks": 33420,
                    "time": 119.35702350000001,
                    "velocity": 1
                },
                {
                    "duration": 0.21428550000000257,
                    "durationTicks": 60,
                    "midi": 40,
                    "name": "E2",
                    "ticks": 33480,
                    "time": 119.57130900000001,
                    "velocity": 1
                },
                {
                    "duration": 0.21428549999998836,
                    "durationTicks": 60,
                    "midi": 28,
                    "name": "E1",
                    "ticks": 33540,
                    "time": 119.78559450000002,
                    "velocity": 1
                },
                {
                    "duration": 0.21428550000000257,
                    "durationTicks": 60,
                    "midi": 31,
                    "name": "G1",
                    "ticks": 33600,
                    "time": 119.99988,
                    "velocity": 1
                },
                {
                    "duration": 0.21428550000000257,
                    "durationTicks": 60,
                    "midi": 31,
                    "name": "G1",
                    "ticks": 33660,
                    "time": 120.21416550000001,
                    "velocity": 1
                },
                {
                    "duration": 0.21428550000000257,
                    "durationTicks": 60,
                    "midi": 31,
                    "name": "G1",
                    "ticks": 33720,
                    "time": 120.42845100000001,
                    "velocity": 1
                },
                {
                    "duration": 0.21428550000000257,
                    "durationTicks": 60,
                    "midi": 31,
                    "name": "G1",
                    "ticks": 33780,
                    "time": 120.64273650000001,
                    "velocity": 1
                },
                {
                    "duration": 0.21428549999998836,
                    "durationTicks": 60,
                    "midi": 31,
                    "name": "G1",
                    "ticks": 33840,
                    "time": 120.85702200000001,
                    "velocity": 1
                },
                {
                    "duration": 0.10714275000000839,
                    "durationTicks": 30,
                    "midi": 31,
                    "name": "G1",
                    "ticks": 33900,
                    "time": 121.0713075,
                    "velocity": 1
                },
                {
                    "duration": 0.10714274999999418,
                    "durationTicks": 30,
                    "midi": 31,
                    "name": "G1",
                    "ticks": 33930,
                    "time": 121.17845025000001,
                    "velocity": 1
                },
                {
                    "duration": 0.42857100000000514,
                    "durationTicks": 120,
                    "midi": 43,
                    "name": "G2",
                    "ticks": 33960,
                    "time": 121.285593,
                    "velocity": 1
                },
                {
                    "duration": 0.42857100000000514,
                    "durationTicks": 120,
                    "midi": 30,
                    "name": "F#1",
                    "ticks": 34080,
                    "time": 121.71416400000001,
                    "velocity": 1
                },
                {
                    "duration": 0.42857099999999093,
                    "durationTicks": 120,
                    "midi": 30,
                    "name": "F#1",
                    "ticks": 34200,
                    "time": 122.14273500000002,
                    "velocity": 1
                },
                {
                    "duration": 0.42857100000000514,
                    "durationTicks": 120,
                    "midi": 29,
                    "name": "F1",
                    "ticks": 34320,
                    "time": 122.571306,
                    "velocity": 1
                },
                {
                    "duration": 0.42857099999999093,
                    "durationTicks": 120,
                    "midi": 29,
                    "name": "F1",
                    "ticks": 34440,
                    "time": 122.99987700000001,
                    "velocity": 1
                },
                {
                    "duration": 0.21428550000000257,
                    "durationTicks": 60,
                    "midi": 28,
                    "name": "E1",
                    "ticks": 34560,
                    "time": 123.428448,
                    "velocity": 1
                },
                {
                    "duration": 0.21428550000000257,
                    "durationTicks": 60,
                    "midi": 28,
                    "name": "E1",
                    "ticks": 34620,
                    "time": 123.6427335,
                    "velocity": 1
                },
                {
                    "duration": 0.21428550000000257,
                    "durationTicks": 60,
                    "midi": 28,
                    "name": "E1",
                    "ticks": 34680,
                    "time": 123.85701900000001,
                    "velocity": 1
                },
                {
                    "duration": 0.21428550000000257,
                    "durationTicks": 60,
                    "midi": 28,
                    "name": "E1",
                    "ticks": 34740,
                    "time": 124.07130450000001,
                    "velocity": 1
                },
                {
                    "duration": 0.21428550000000257,
                    "durationTicks": 60,
                    "midi": 31,
                    "name": "G1",
                    "ticks": 34800,
                    "time": 124.28559000000001,
                    "velocity": 1
                },
                {
                    "duration": 0.21428549999998836,
                    "durationTicks": 60,
                    "midi": 33,
                    "name": "A1",
                    "ticks": 34860,
                    "time": 124.49987550000002,
                    "velocity": 1
                },
                {
                    "duration": 0.21428550000000257,
                    "durationTicks": 60,
                    "midi": 31,
                    "name": "G1",
                    "ticks": 34920,
                    "time": 124.714161,
                    "velocity": 1
                },
                {
                    "duration": 0.21428550000000257,
                    "durationTicks": 60,
                    "midi": 33,
                    "name": "A1",
                    "ticks": 34980,
                    "time": 124.9284465,
                    "velocity": 1
                },
                {
                    "duration": 0.21428550000000257,
                    "durationTicks": 60,
                    "midi": 28,
                    "name": "E1",
                    "ticks": 35040,
                    "time": 125.14273200000001,
                    "velocity": 1
                },
                {
                    "duration": 0.21428550000000257,
                    "durationTicks": 60,
                    "midi": 28,
                    "name": "E1",
                    "ticks": 35100,
                    "time": 125.35701750000001,
                    "velocity": 1
                },
                {
                    "duration": 0.21428550000000257,
                    "durationTicks": 60,
                    "midi": 28,
                    "name": "E1",
                    "ticks": 35160,
                    "time": 125.57130300000001,
                    "velocity": 1
                },
                {
                    "duration": 0.21428549999998836,
                    "durationTicks": 60,
                    "midi": 28,
                    "name": "E1",
                    "ticks": 35220,
                    "time": 125.78558850000002,
                    "velocity": 1
                },
                {
                    "duration": 0.21428550000000257,
                    "durationTicks": 60,
                    "midi": 40,
                    "name": "E2",
                    "ticks": 35280,
                    "time": 125.999874,
                    "velocity": 1
                },
                {
                    "duration": 0.21428550000000257,
                    "durationTicks": 60,
                    "midi": 38,
                    "name": "D2",
                    "ticks": 35340,
                    "time": 126.21415950000001,
                    "velocity": 1
                },
                {
                    "duration": 0.21428550000000257,
                    "durationTicks": 60,
                    "midi": 35,
                    "name": "B1",
                    "ticks": 35400,
                    "time": 126.42844500000001,
                    "velocity": 1
                },
                {
                    "duration": 0.21428550000000257,
                    "durationTicks": 60,
                    "midi": 34,
                    "name": "A#1",
                    "ticks": 35460,
                    "time": 126.64273050000001,
                    "velocity": 1
                },
                {
                    "duration": 0.21428549999998836,
                    "durationTicks": 60,
                    "midi": 28,
                    "name": "E1",
                    "ticks": 35520,
                    "time": 126.85701600000002,
                    "velocity": 1
                },
                {
                    "duration": 0.21428550000000257,
                    "durationTicks": 60,
                    "midi": 28,
                    "name": "E1",
                    "ticks": 35580,
                    "time": 127.0713015,
                    "velocity": 1
                },
                {
                    "duration": 0.21428550000000257,
                    "durationTicks": 60,
                    "midi": 28,
                    "name": "E1",
                    "ticks": 35640,
                    "time": 127.285587,
                    "velocity": 1
                },
                {
                    "duration": 0.21428550000000257,
                    "durationTicks": 60,
                    "midi": 28,
                    "name": "E1",
                    "ticks": 35700,
                    "time": 127.49987250000001,
                    "velocity": 1
                },
                {
                    "duration": 0.21428550000000257,
                    "durationTicks": 60,
                    "midi": 31,
                    "name": "G1",
                    "ticks": 35760,
                    "time": 127.71415800000001,
                    "velocity": 1
                },
                {
                    "duration": 0.21428549999998836,
                    "durationTicks": 60,
                    "midi": 33,
                    "name": "A1",
                    "ticks": 35820,
                    "time": 127.92844350000001,
                    "velocity": 1
                },
                {
                    "duration": 0.21428550000001678,
                    "durationTicks": 60,
                    "midi": 31,
                    "name": "G1",
                    "ticks": 35880,
                    "time": 128.142729,
                    "velocity": 1
                },
                {
                    "duration": 0.21428549999998836,
                    "durationTicks": 60,
                    "midi": 33,
                    "name": "A1",
                    "ticks": 35940,
                    "time": 128.35701450000002,
                    "velocity": 1
                },
                {
                    "duration": 0.21428550000001678,
                    "durationTicks": 60,
                    "midi": 28,
                    "name": "E1",
                    "ticks": 36000,
                    "time": 128.5713,
                    "velocity": 1
                },
                {
                    "duration": 0.21428549999998836,
                    "durationTicks": 60,
                    "midi": 31,
                    "name": "G1",
                    "ticks": 36060,
                    "time": 128.78558550000002,
                    "velocity": 1
                },
                {
                    "duration": 0.21428549999998836,
                    "durationTicks": 60,
                    "midi": 33,
                    "name": "A1",
                    "ticks": 36120,
                    "time": 128.999871,
                    "velocity": 1
                },
                {
                    "duration": 0.21428550000001678,
                    "durationTicks": 60,
                    "midi": 34,
                    "name": "A#1",
                    "ticks": 36180,
                    "time": 129.2141565,
                    "velocity": 1
                },
                {
                    "duration": 0.21428549999998836,
                    "durationTicks": 60,
                    "midi": 35,
                    "name": "B1",
                    "ticks": 36240,
                    "time": 129.42844200000002,
                    "velocity": 1
                },
                {
                    "duration": 0.21428550000001678,
                    "durationTicks": 60,
                    "midi": 38,
                    "name": "D2",
                    "ticks": 36300,
                    "time": 129.6427275,
                    "velocity": 1
                },
                {
                    "duration": 0.21428549999998836,
                    "durationTicks": 60,
                    "midi": 39,
                    "name": "D#2",
                    "ticks": 36360,
                    "time": 129.85701300000002,
                    "velocity": 1
                },
                {
                    "duration": 0.21428549999998836,
                    "durationTicks": 60,
                    "midi": 40,
                    "name": "E2",
                    "ticks": 36420,
                    "time": 130.0712985,
                    "velocity": 1
                },
                {
                    "duration": 0.21428550000001678,
                    "durationTicks": 60,
                    "midi": 28,
                    "name": "E1",
                    "ticks": 36480,
                    "time": 130.285584,
                    "velocity": 1
                },
                {
                    "duration": 0.21428549999998836,
                    "durationTicks": 60,
                    "midi": 28,
                    "name": "E1",
                    "ticks": 36540,
                    "time": 130.49986950000002,
                    "velocity": 1
                },
                {
                    "duration": 0.21428550000001678,
                    "durationTicks": 60,
                    "midi": 28,
                    "name": "E1",
                    "ticks": 36600,
                    "time": 130.714155,
                    "velocity": 1
                },
                {
                    "duration": 0.21428549999998836,
                    "durationTicks": 60,
                    "midi": 28,
                    "name": "E1",
                    "ticks": 36660,
                    "time": 130.92844050000002,
                    "velocity": 1
                },
                {
                    "duration": 0.21428549999998836,
                    "durationTicks": 60,
                    "midi": 31,
                    "name": "G1",
                    "ticks": 36720,
                    "time": 131.142726,
                    "velocity": 1
                },
                {
                    "duration": 0.21428550000001678,
                    "durationTicks": 60,
                    "midi": 33,
                    "name": "A1",
                    "ticks": 36780,
                    "time": 131.3570115,
                    "velocity": 1
                },
                {
                    "duration": 0.21428549999998836,
                    "durationTicks": 60,
                    "midi": 31,
                    "name": "G1",
                    "ticks": 36840,
                    "time": 131.57129700000002,
                    "velocity": 1
                },
                {
                    "duration": 0.21428550000001678,
                    "durationTicks": 60,
                    "midi": 33,
                    "name": "A1",
                    "ticks": 36900,
                    "time": 131.7855825,
                    "velocity": 1
                },
                {
                    "duration": 0.21428549999998836,
                    "durationTicks": 60,
                    "midi": 28,
                    "name": "E1",
                    "ticks": 36960,
                    "time": 131.99986800000002,
                    "velocity": 1
                },
                {
                    "duration": 0.21428549999998836,
                    "durationTicks": 60,
                    "midi": 28,
                    "name": "E1",
                    "ticks": 37020,
                    "time": 132.2141535,
                    "velocity": 1
                },
                {
                    "duration": 0.21428550000001678,
                    "durationTicks": 60,
                    "midi": 28,
                    "name": "E1",
                    "ticks": 37080,
                    "time": 132.428439,
                    "velocity": 1
                },
                {
                    "duration": 0.21428549999998836,
                    "durationTicks": 60,
                    "midi": 28,
                    "name": "E1",
                    "ticks": 37140,
                    "time": 132.6427245,
                    "velocity": 1
                },
                {
                    "duration": 0.21428550000001678,
                    "durationTicks": 60,
                    "midi": 40,
                    "name": "E2",
                    "ticks": 37200,
                    "time": 132.85701,
                    "velocity": 1
                },
                {
                    "duration": 0.21428549999998836,
                    "durationTicks": 60,
                    "midi": 38,
                    "name": "D2",
                    "ticks": 37260,
                    "time": 133.07129550000002,
                    "velocity": 1
                },
                {
                    "duration": 0.21428550000001678,
                    "durationTicks": 60,
                    "midi": 35,
                    "name": "B1",
                    "ticks": 37320,
                    "time": 133.285581,
                    "velocity": 1
                },
                {
                    "duration": 0.21428549999998836,
                    "durationTicks": 60,
                    "midi": 34,
                    "name": "A#1",
                    "ticks": 37380,
                    "time": 133.49986650000002,
                    "velocity": 1
                },
                {
                    "duration": 0.21428549999998836,
                    "durationTicks": 60,
                    "midi": 28,
                    "name": "E1",
                    "ticks": 37440,
                    "time": 133.714152,
                    "velocity": 1
                },
                {
                    "duration": 0.21428550000001678,
                    "durationTicks": 60,
                    "midi": 28,
                    "name": "E1",
                    "ticks": 37500,
                    "time": 133.9284375,
                    "velocity": 1
                },
                {
                    "duration": 0.21428549999998836,
                    "durationTicks": 60,
                    "midi": 28,
                    "name": "E1",
                    "ticks": 37560,
                    "time": 134.14272300000002,
                    "velocity": 1
                },
                {
                    "duration": 0.21428550000001678,
                    "durationTicks": 60,
                    "midi": 28,
                    "name": "E1",
                    "ticks": 37620,
                    "time": 134.3570085,
                    "velocity": 1
                },
                {
                    "duration": 0.21428549999998836,
                    "durationTicks": 60,
                    "midi": 31,
                    "name": "G1",
                    "ticks": 37680,
                    "time": 134.57129400000002,
                    "velocity": 1
                },
                {
                    "duration": 0.21428549999998836,
                    "durationTicks": 60,
                    "midi": 33,
                    "name": "A1",
                    "ticks": 37740,
                    "time": 134.7855795,
                    "velocity": 1
                },
                {
                    "duration": 0.21428550000001678,
                    "durationTicks": 60,
                    "midi": 31,
                    "name": "G1",
                    "ticks": 37800,
                    "time": 134.999865,
                    "velocity": 1
                },
                {
                    "duration": 0.21428549999998836,
                    "durationTicks": 60,
                    "midi": 33,
                    "name": "A1",
                    "ticks": 37860,
                    "time": 135.21415050000002,
                    "velocity": 1
                },
                {
                    "duration": 0.21428550000001678,
                    "durationTicks": 60,
                    "midi": 28,
                    "name": "E1",
                    "ticks": 37920,
                    "time": 135.428436,
                    "velocity": 1
                },
                {
                    "duration": 0.21428549999998836,
                    "durationTicks": 60,
                    "midi": 28,
                    "name": "E1",
                    "ticks": 37980,
                    "time": 135.64272150000002,
                    "velocity": 1
                },
                {
                    "duration": 0.21428549999998836,
                    "durationTicks": 60,
                    "midi": 28,
                    "name": "E1",
                    "ticks": 38040,
                    "time": 135.857007,
                    "velocity": 1
                },
                {
                    "duration": 0.21428550000001678,
                    "durationTicks": 60,
                    "midi": 28,
                    "name": "E1",
                    "ticks": 38100,
                    "time": 136.0712925,
                    "velocity": 1
                },
                {
                    "duration": 0.21428549999998836,
                    "durationTicks": 60,
                    "midi": 40,
                    "name": "E2",
                    "ticks": 38160,
                    "time": 136.28557800000002,
                    "velocity": 1
                },
                {
                    "duration": 0.21428550000001678,
                    "durationTicks": 60,
                    "midi": 38,
                    "name": "D2",
                    "ticks": 38220,
                    "time": 136.4998635,
                    "velocity": 1
                },
                {
                    "duration": 0.21428549999998836,
                    "durationTicks": 60,
                    "midi": 35,
                    "name": "B1",
                    "ticks": 38280,
                    "time": 136.71414900000002,
                    "velocity": 1
                },
                {
                    "duration": 0.21428549999998836,
                    "durationTicks": 60,
                    "midi": 34,
                    "name": "A#1",
                    "ticks": 38340,
                    "time": 136.9284345,
                    "velocity": 1
                },
                {
                    "duration": 0.21428550000001678,
                    "durationTicks": 60,
                    "midi": 28,
                    "name": "E1",
                    "ticks": 38400,
                    "time": 137.14272,
                    "velocity": 1
                },
                {
                    "duration": 0.21428549999998836,
                    "durationTicks": 60,
                    "midi": 28,
                    "name": "E1",
                    "ticks": 38460,
                    "time": 137.3570055,
                    "velocity": 1
                },
                {
                    "duration": 0.21428550000001678,
                    "durationTicks": 60,
                    "midi": 28,
                    "name": "E1",
                    "ticks": 38520,
                    "time": 137.571291,
                    "velocity": 1
                },
                {
                    "duration": 0.21428549999998836,
                    "durationTicks": 60,
                    "midi": 28,
                    "name": "E1",
                    "ticks": 38580,
                    "time": 137.78557650000002,
                    "velocity": 1
                },
                {
                    "duration": 0.21428550000001678,
                    "durationTicks": 60,
                    "midi": 28,
                    "name": "E1",
                    "ticks": 38640,
                    "time": 137.999862,
                    "velocity": 1
                },
                {
                    "duration": 0.21428549999998836,
                    "durationTicks": 60,
                    "midi": 28,
                    "name": "E1",
                    "ticks": 38700,
                    "time": 138.21414750000002,
                    "velocity": 1
                },
                {
                    "duration": 0.21428549999998836,
                    "durationTicks": 60,
                    "midi": 28,
                    "name": "E1",
                    "ticks": 38760,
                    "time": 138.428433,
                    "velocity": 1
                },
                {
                    "duration": 0.21428550000001678,
                    "durationTicks": 60,
                    "midi": 28,
                    "name": "E1",
                    "ticks": 38820,
                    "time": 138.6427185,
                    "velocity": 1
                },
                {
                    "duration": 0.21428549999998836,
                    "durationTicks": 60,
                    "midi": 28,
                    "name": "E1",
                    "ticks": 38880,
                    "time": 138.85700400000002,
                    "velocity": 1
                },
                {
                    "duration": 0.21428550000001678,
                    "durationTicks": 60,
                    "midi": 28,
                    "name": "E1",
                    "ticks": 38940,
                    "time": 139.0712895,
                    "velocity": 1
                },
                {
                    "duration": 0.21428549999998836,
                    "durationTicks": 60,
                    "midi": 28,
                    "name": "E1",
                    "ticks": 39000,
                    "time": 139.28557500000002,
                    "velocity": 1
                },
                {
                    "duration": 0.21428549999998836,
                    "durationTicks": 60,
                    "midi": 28,
                    "name": "E1",
                    "ticks": 39060,
                    "time": 139.4998605,
                    "velocity": 1
                },
                {
                    "duration": 0.21428550000001678,
                    "durationTicks": 60,
                    "midi": 35,
                    "name": "B1",
                    "ticks": 39120,
                    "time": 139.714146,
                    "velocity": 1
                },
                {
                    "duration": 0.21428549999998836,
                    "durationTicks": 60,
                    "midi": 34,
                    "name": "A#1",
                    "ticks": 39180,
                    "time": 139.92843150000002,
                    "velocity": 1
                },
                {
                    "duration": 0.21428550000001678,
                    "durationTicks": 60,
                    "midi": 43,
                    "name": "G2",
                    "ticks": 39240,
                    "time": 140.142717,
                    "velocity": 1
                },
                {
                    "duration": 0.21428549999998836,
                    "durationTicks": 60,
                    "midi": 40,
                    "name": "E2",
                    "ticks": 39300,
                    "time": 140.35700250000002,
                    "velocity": 1
                },
                {
                    "duration": 0.21428549999998836,
                    "durationTicks": 60,
                    "midi": 28,
                    "name": "E1",
                    "ticks": 39360,
                    "time": 140.571288,
                    "velocity": 1
                },
                {
                    "duration": 0.21428550000001678,
                    "durationTicks": 60,
                    "midi": 28,
                    "name": "E1",
                    "ticks": 39420,
                    "time": 140.7855735,
                    "velocity": 1
                },
                {
                    "duration": 0.21428549999998836,
                    "durationTicks": 60,
                    "midi": 28,
                    "name": "E1",
                    "ticks": 39480,
                    "time": 140.99985900000001,
                    "velocity": 1
                },
                {
                    "duration": 0.21428550000001678,
                    "durationTicks": 60,
                    "midi": 28,
                    "name": "E1",
                    "ticks": 39540,
                    "time": 141.2141445,
                    "velocity": 1
                },
                {
                    "duration": 0.21428549999998836,
                    "durationTicks": 60,
                    "midi": 28,
                    "name": "E1",
                    "ticks": 39600,
                    "time": 141.42843000000002,
                    "velocity": 1
                },
                {
                    "duration": 0.21428550000001678,
                    "durationTicks": 60,
                    "midi": 28,
                    "name": "E1",
                    "ticks": 39660,
                    "time": 141.6427155,
                    "velocity": 1
                },
                {
                    "duration": 0.21428549999998836,
                    "durationTicks": 60,
                    "midi": 28,
                    "name": "E1",
                    "ticks": 39720,
                    "time": 141.85700100000003,
                    "velocity": 1
                },
                {
                    "duration": 0.21428549999998836,
                    "durationTicks": 60,
                    "midi": 28,
                    "name": "E1",
                    "ticks": 39780,
                    "time": 142.0712865,
                    "velocity": 1
                },
                {
                    "duration": 0.21428550000001678,
                    "durationTicks": 60,
                    "midi": 28,
                    "name": "E1",
                    "ticks": 39840,
                    "time": 142.285572,
                    "velocity": 1
                },
                {
                    "duration": 0.21428549999998836,
                    "durationTicks": 60,
                    "midi": 28,
                    "name": "E1",
                    "ticks": 39900,
                    "time": 142.49985750000002,
                    "velocity": 1
                },
                {
                    "duration": 0.21428550000001678,
                    "durationTicks": 60,
                    "midi": 28,
                    "name": "E1",
                    "ticks": 39960,
                    "time": 142.714143,
                    "velocity": 1
                },
                {
                    "duration": 0.21428549999998836,
                    "durationTicks": 60,
                    "midi": 28,
                    "name": "E1",
                    "ticks": 40020,
                    "time": 142.92842850000002,
                    "velocity": 1
                },
                {
                    "duration": 0.21428549999998836,
                    "durationTicks": 60,
                    "midi": 35,
                    "name": "B1",
                    "ticks": 40080,
                    "time": 143.142714,
                    "velocity": 1
                },
                {
                    "duration": 0.21428550000001678,
                    "durationTicks": 60,
                    "midi": 34,
                    "name": "A#1",
                    "ticks": 40140,
                    "time": 143.3569995,
                    "velocity": 1
                },
                {
                    "duration": 0.21428549999998836,
                    "durationTicks": 60,
                    "midi": 31,
                    "name": "G1",
                    "ticks": 40200,
                    "time": 143.57128500000002,
                    "velocity": 1
                },
                {
                    "duration": 0.21428550000001678,
                    "durationTicks": 60,
                    "midi": 28,
                    "name": "E1",
                    "ticks": 40260,
                    "time": 143.7855705,
                    "velocity": 1
                },
                {
                    "duration": 0.21428549999998836,
                    "durationTicks": 60,
                    "midi": 28,
                    "name": "E1",
                    "ticks": 40320,
                    "time": 143.99985600000002,
                    "velocity": 1
                },
                {
                    "duration": 0.21428549999998836,
                    "durationTicks": 60,
                    "midi": 28,
                    "name": "E1",
                    "ticks": 40380,
                    "time": 144.2141415,
                    "velocity": 1
                },
                {
                    "duration": 0.21428550000001678,
                    "durationTicks": 60,
                    "midi": 40,
                    "name": "E2",
                    "ticks": 40440,
                    "time": 144.428427,
                    "velocity": 1
                },
                {
                    "duration": 0.21428549999998836,
                    "durationTicks": 60,
                    "midi": 28,
                    "name": "E1",
                    "ticks": 40500,
                    "time": 144.64271250000002,
                    "velocity": 1
                },
                {
                    "duration": 0.21428550000001678,
                    "durationTicks": 60,
                    "midi": 28,
                    "name": "E1",
                    "ticks": 40560,
                    "time": 144.856998,
                    "velocity": 1
                },
                {
                    "duration": 0.21428549999998836,
                    "durationTicks": 60,
                    "midi": 28,
                    "name": "E1",
                    "ticks": 40620,
                    "time": 145.07128350000002,
                    "velocity": 1
                },
                {
                    "duration": 0.21428549999998836,
                    "durationTicks": 60,
                    "midi": 28,
                    "name": "E1",
                    "ticks": 40680,
                    "time": 145.285569,
                    "velocity": 1
                },
                {
                    "duration": 0.21428550000001678,
                    "durationTicks": 60,
                    "midi": 28,
                    "name": "E1",
                    "ticks": 40740,
                    "time": 145.4998545,
                    "velocity": 1
                },
                {
                    "duration": 0.21428549999998836,
                    "durationTicks": 60,
                    "midi": 28,
                    "name": "E1",
                    "ticks": 40800,
                    "time": 145.71414000000001,
                    "velocity": 1
                },
                {
                    "duration": 0.21428550000001678,
                    "durationTicks": 60,
                    "midi": 28,
                    "name": "E1",
                    "ticks": 40860,
                    "time": 145.9284255,
                    "velocity": 1
                },
                {
                    "duration": 0.21428549999998836,
                    "durationTicks": 60,
                    "midi": 28,
                    "name": "E1",
                    "ticks": 40920,
                    "time": 146.14271100000002,
                    "velocity": 1
                },
                {
                    "duration": 0.21428550000001678,
                    "durationTicks": 60,
                    "midi": 28,
                    "name": "E1",
                    "ticks": 40980,
                    "time": 146.3569965,
                    "velocity": 1
                },
                {
                    "duration": 0.21428549999998836,
                    "durationTicks": 60,
                    "midi": 35,
                    "name": "B1",
                    "ticks": 41040,
                    "time": 146.57128200000002,
                    "velocity": 1
                },
                {
                    "duration": 0.21428549999998836,
                    "durationTicks": 60,
                    "midi": 34,
                    "name": "A#1",
                    "ticks": 41100,
                    "time": 146.7855675,
                    "velocity": 1
                },
                {
                    "duration": 0.21428550000001678,
                    "durationTicks": 60,
                    "midi": 43,
                    "name": "G2",
                    "ticks": 41160,
                    "time": 146.999853,
                    "velocity": 1
                },
                {
                    "duration": 0.21428549999998836,
                    "durationTicks": 60,
                    "midi": 40,
                    "name": "E2",
                    "ticks": 41220,
                    "time": 147.21413850000002,
                    "velocity": 1
                },
                {
                    "duration": 0.21428550000001678,
                    "durationTicks": 60,
                    "midi": 28,
                    "name": "E1",
                    "ticks": 41280,
                    "time": 147.428424,
                    "velocity": 1
                },
                {
                    "duration": 0.21428549999998836,
                    "durationTicks": 60,
                    "midi": 28,
                    "name": "E1",
                    "ticks": 41340,
                    "time": 147.64270950000002,
                    "velocity": 1
                },
                {
                    "duration": 0.21428549999998836,
                    "durationTicks": 60,
                    "midi": 40,
                    "name": "E2",
                    "ticks": 41400,
                    "time": 147.856995,
                    "velocity": 1
                },
                {
                    "duration": 0.21428550000001678,
                    "durationTicks": 60,
                    "midi": 28,
                    "name": "E1",
                    "ticks": 41460,
                    "time": 148.0712805,
                    "velocity": 1
                },
                {
                    "duration": 0.21428549999998836,
                    "durationTicks": 60,
                    "midi": 28,
                    "name": "E1",
                    "ticks": 41520,
                    "time": 148.28556600000002,
                    "velocity": 1
                },
                {
                    "duration": 0.21428550000001678,
                    "durationTicks": 60,
                    "midi": 28,
                    "name": "E1",
                    "ticks": 41580,
                    "time": 148.4998515,
                    "velocity": 1
                },
                {
                    "duration": 0.21428549999998836,
                    "durationTicks": 60,
                    "midi": 40,
                    "name": "E2",
                    "ticks": 41640,
                    "time": 148.71413700000002,
                    "velocity": 1
                },
                {
                    "duration": 0.21428549999998836,
                    "durationTicks": 60,
                    "midi": 28,
                    "name": "E1",
                    "ticks": 41700,
                    "time": 148.9284225,
                    "velocity": 1
                },
                {
                    "duration": 0.21428550000001678,
                    "durationTicks": 60,
                    "midi": 28,
                    "name": "E1",
                    "ticks": 41760,
                    "time": 149.142708,
                    "velocity": 1
                },
                {
                    "duration": 0.21428549999998836,
                    "durationTicks": 60,
                    "midi": 28,
                    "name": "E1",
                    "ticks": 41820,
                    "time": 149.35699350000002,
                    "velocity": 1
                },
                {
                    "duration": 0.21428550000001678,
                    "durationTicks": 60,
                    "midi": 40,
                    "name": "E2",
                    "ticks": 41880,
                    "time": 149.571279,
                    "velocity": 1
                },
                {
                    "duration": 0.21428549999998836,
                    "durationTicks": 60,
                    "midi": 28,
                    "name": "E1",
                    "ticks": 41940,
                    "time": 149.78556450000002,
                    "velocity": 1
                },
                {
                    "duration": 0.21428550000001678,
                    "durationTicks": 60,
                    "midi": 35,
                    "name": "B1",
                    "ticks": 42000,
                    "time": 149.99985,
                    "velocity": 1
                },
                {
                    "duration": 0.21428549999998836,
                    "durationTicks": 60,
                    "midi": 34,
                    "name": "A#1",
                    "ticks": 42060,
                    "time": 150.21413550000003,
                    "velocity": 1
                },
                {
                    "duration": 0.21428549999998836,
                    "durationTicks": 60,
                    "midi": 31,
                    "name": "G1",
                    "ticks": 42120,
                    "time": 150.42842100000001,
                    "velocity": 1
                },
                {
                    "duration": 0.21428550000001678,
                    "durationTicks": 60,
                    "midi": 28,
                    "name": "E1",
                    "ticks": 42180,
                    "time": 150.6427065,
                    "velocity": 1
                },
                {
                    "duration": 0.21428549999998836,
                    "durationTicks": 60,
                    "midi": 36,
                    "name": "C2",
                    "ticks": 42240,
                    "time": 150.85699200000002,
                    "velocity": 1
                },
                {
                    "duration": 0.21428550000001678,
                    "durationTicks": 60,
                    "midi": 33,
                    "name": "A1",
                    "ticks": 42300,
                    "time": 151.0712775,
                    "velocity": 1
                },
                {
                    "duration": 0.21428549999998836,
                    "durationTicks": 60,
                    "midi": 33,
                    "name": "A1",
                    "ticks": 42360,
                    "time": 151.28556300000002,
                    "velocity": 1
                },
                {
                    "duration": 0.21428549999998836,
                    "durationTicks": 60,
                    "midi": 33,
                    "name": "A1",
                    "ticks": 42420,
                    "time": 151.4998485,
                    "velocity": 1
                },
                {
                    "duration": 0.21428550000001678,
                    "durationTicks": 60,
                    "midi": 36,
                    "name": "C2",
                    "ticks": 42480,
                    "time": 151.714134,
                    "velocity": 1
                },
                {
                    "duration": 0.21428549999998836,
                    "durationTicks": 60,
                    "midi": 38,
                    "name": "D2",
                    "ticks": 42540,
                    "time": 151.92841950000002,
                    "velocity": 1
                },
                {
                    "duration": 0.42857100000000514,
                    "durationTicks": 120,
                    "midi": 36,
                    "name": "C2",
                    "ticks": 42600,
                    "time": 152.142705,
                    "velocity": 1
                },
                {
                    "duration": 0.21428549999998836,
                    "durationTicks": 60,
                    "midi": 36,
                    "name": "C2",
                    "ticks": 42720,
                    "time": 152.571276,
                    "velocity": 1
                },
                {
                    "duration": 0.21428550000001678,
                    "durationTicks": 60,
                    "midi": 33,
                    "name": "A1",
                    "ticks": 42780,
                    "time": 152.7855615,
                    "velocity": 1
                },
                {
                    "duration": 0.21428549999998836,
                    "durationTicks": 60,
                    "midi": 33,
                    "name": "A1",
                    "ticks": 42840,
                    "time": 152.99984700000002,
                    "velocity": 1
                },
                {
                    "duration": 0.21428550000001678,
                    "durationTicks": 60,
                    "midi": 40,
                    "name": "E2",
                    "ticks": 42900,
                    "time": 153.2141325,
                    "velocity": 1
                },
                {
                    "duration": 0.21428549999998836,
                    "durationTicks": 60,
                    "midi": 43,
                    "name": "G2",
                    "ticks": 42960,
                    "time": 153.42841800000002,
                    "velocity": 1
                },
                {
                    "duration": 0.21428549999998836,
                    "durationTicks": 60,
                    "midi": 40,
                    "name": "E2",
                    "ticks": 43020,
                    "time": 153.6427035,
                    "velocity": 1
                },
                {
                    "duration": 0.42857100000000514,
                    "durationTicks": 120,
                    "midi": 45,
                    "name": "A2",
                    "ticks": 43080,
                    "time": 153.856989,
                    "velocity": 1
                },
                {
                    "duration": 0.21428550000001678,
                    "durationTicks": 60,
                    "midi": 33,
                    "name": "A1",
                    "ticks": 43200,
                    "time": 154.28556,
                    "velocity": 1
                },
                {
                    "duration": 0.21428549999998836,
                    "durationTicks": 60,
                    "midi": 33,
                    "name": "A1",
                    "ticks": 43260,
                    "time": 154.49984550000002,
                    "velocity": 1
                },
                {
                    "duration": 0.21428550000001678,
                    "durationTicks": 60,
                    "midi": 33,
                    "name": "A1",
                    "ticks": 43320,
                    "time": 154.714131,
                    "velocity": 1
                },
                {
                    "duration": 0.21428549999998836,
                    "durationTicks": 60,
                    "midi": 33,
                    "name": "A1",
                    "ticks": 43380,
                    "time": 154.92841650000003,
                    "velocity": 1
                },
                {
                    "duration": 0.21428549999998836,
                    "durationTicks": 60,
                    "midi": 36,
                    "name": "C2",
                    "ticks": 43440,
                    "time": 155.142702,
                    "velocity": 1
                },
                {
                    "duration": 0.21428550000001678,
                    "durationTicks": 60,
                    "midi": 38,
                    "name": "D2",
                    "ticks": 43500,
                    "time": 155.3569875,
                    "velocity": 1
                },
                {
                    "duration": 0.42857100000000514,
                    "durationTicks": 120,
                    "midi": 36,
                    "name": "C2",
                    "ticks": 43560,
                    "time": 155.57127300000002,
                    "velocity": 1
                },
                {
                    "duration": 0.21428549999998836,
                    "durationTicks": 60,
                    "midi": 50,
                    "name": "D3",
                    "ticks": 43680,
                    "time": 155.99984400000002,
                    "velocity": 1
                },
                {
                    "duration": 0.21428549999998836,
                    "durationTicks": 60,
                    "midi": 48,
                    "name": "C3",
                    "ticks": 43740,
                    "time": 156.2141295,
                    "velocity": 1
                },
                {
                    "duration": 0.21428550000001678,
                    "durationTicks": 60,
                    "midi": 45,
                    "name": "A2",
                    "ticks": 43800,
                    "time": 156.428415,
                    "velocity": 1
                },
                {
                    "duration": 0.21428549999998836,
                    "durationTicks": 60,
                    "midi": 44,
                    "name": "G#2",
                    "ticks": 43860,
                    "time": 156.64270050000002,
                    "velocity": 1
                },
                {
                    "duration": 0.21428550000001678,
                    "durationTicks": 60,
                    "midi": 43,
                    "name": "G2",
                    "ticks": 43920,
                    "time": 156.856986,
                    "velocity": 1
                },
                {
                    "duration": 0.21428549999998836,
                    "durationTicks": 60,
                    "midi": 40,
                    "name": "E2",
                    "ticks": 43980,
                    "time": 157.07127150000002,
                    "velocity": 1
                },
                {
                    "duration": 0.21428549999998836,
                    "durationTicks": 60,
                    "midi": 39,
                    "name": "D#2",
                    "ticks": 44040,
                    "time": 157.285557,
                    "velocity": 1
                },
                {
                    "duration": 0.21428550000001678,
                    "durationTicks": 60,
                    "midi": 38,
                    "name": "D2",
                    "ticks": 44100,
                    "time": 157.4998425,
                    "velocity": 1
                },
                {
                    "duration": 0.21428549999998836,
                    "durationTicks": 60,
                    "midi": 36,
                    "name": "C2",
                    "ticks": 44160,
                    "time": 157.71412800000002,
                    "velocity": 1
                },
                {
                    "duration": 0.21428550000001678,
                    "durationTicks": 60,
                    "midi": 33,
                    "name": "A1",
                    "ticks": 44220,
                    "time": 157.9284135,
                    "velocity": 1
                },
                {
                    "duration": 0.21428549999998836,
                    "durationTicks": 60,
                    "midi": 33,
                    "name": "A1",
                    "ticks": 44280,
                    "time": 158.14269900000002,
                    "velocity": 1
                },
                {
                    "duration": 0.21428550000001678,
                    "durationTicks": 60,
                    "midi": 33,
                    "name": "A1",
                    "ticks": 44340,
                    "time": 158.3569845,
                    "velocity": 1
                },
                {
                    "duration": 0.21428549999998836,
                    "durationTicks": 60,
                    "midi": 36,
                    "name": "C2",
                    "ticks": 44400,
                    "time": 158.57127000000003,
                    "velocity": 1
                },
                {
                    "duration": 0.21428549999998836,
                    "durationTicks": 60,
                    "midi": 38,
                    "name": "D2",
                    "ticks": 44460,
                    "time": 158.78555550000002,
                    "velocity": 1
                },
                {
                    "duration": 0.42857100000000514,
                    "durationTicks": 120,
                    "midi": 36,
                    "name": "C2",
                    "ticks": 44520,
                    "time": 158.999841,
                    "velocity": 1
                },
                {
                    "duration": 0.21428550000001678,
                    "durationTicks": 60,
                    "midi": 36,
                    "name": "C2",
                    "ticks": 44640,
                    "time": 159.428412,
                    "velocity": 1
                },
                {
                    "duration": 0.21428549999998836,
                    "durationTicks": 60,
                    "midi": 33,
                    "name": "A1",
                    "ticks": 44700,
                    "time": 159.64269750000003,
                    "velocity": 1
                },
                {
                    "duration": 0.21428549999998836,
                    "durationTicks": 60,
                    "midi": 33,
                    "name": "A1",
                    "ticks": 44760,
                    "time": 159.856983,
                    "velocity": 1
                },
                {
                    "duration": 0.21428550000001678,
                    "durationTicks": 60,
                    "midi": 40,
                    "name": "E2",
                    "ticks": 44820,
                    "time": 160.0712685,
                    "velocity": 1
                },
                {
                    "duration": 0.21428549999998836,
                    "durationTicks": 60,
                    "midi": 43,
                    "name": "G2",
                    "ticks": 44880,
                    "time": 160.28555400000002,
                    "velocity": 1
                },
                {
                    "duration": 0.21428550000001678,
                    "durationTicks": 60,
                    "midi": 40,
                    "name": "E2",
                    "ticks": 44940,
                    "time": 160.4998395,
                    "velocity": 1
                },
                {
                    "duration": 0.4285709999999767,
                    "durationTicks": 120,
                    "midi": 45,
                    "name": "A2",
                    "ticks": 45000,
                    "time": 160.71412500000002,
                    "velocity": 1
                },
                {
                    "duration": 0.21428550000001678,
                    "durationTicks": 60,
                    "midi": 33,
                    "name": "A1",
                    "ticks": 45120,
                    "time": 161.142696,
                    "velocity": 1
                },
                {
                    "duration": 0.21428549999998836,
                    "durationTicks": 60,
                    "midi": 33,
                    "name": "A1",
                    "ticks": 45180,
                    "time": 161.35698150000002,
                    "velocity": 1
                },
                {
                    "duration": 0.21428550000001678,
                    "durationTicks": 60,
                    "midi": 33,
                    "name": "A1",
                    "ticks": 45240,
                    "time": 161.571267,
                    "velocity": 1
                },
                {
                    "duration": 0.21428549999998836,
                    "durationTicks": 60,
                    "midi": 33,
                    "name": "A1",
                    "ticks": 45300,
                    "time": 161.78555250000002,
                    "velocity": 1
                },
                {
                    "duration": 0.21428549999998836,
                    "durationTicks": 60,
                    "midi": 36,
                    "name": "C2",
                    "ticks": 45360,
                    "time": 161.999838,
                    "velocity": 1
                },
                {
                    "duration": 0.21428550000001678,
                    "durationTicks": 60,
                    "midi": 38,
                    "name": "D2",
                    "ticks": 45420,
                    "time": 162.2141235,
                    "velocity": 1
                },
                {
                    "duration": 0.42857100000000514,
                    "durationTicks": 120,
                    "midi": 36,
                    "name": "C2",
                    "ticks": 45480,
                    "time": 162.42840900000002,
                    "velocity": 1
                },
                {
                    "duration": 0.21428549999998836,
                    "durationTicks": 60,
                    "midi": 52,
                    "name": "E3",
                    "ticks": 45600,
                    "time": 162.85698000000002,
                    "velocity": 1
                },
                {
                    "duration": 0.21428550000001678,
                    "durationTicks": 60,
                    "midi": 50,
                    "name": "D3",
                    "ticks": 45660,
                    "time": 163.0712655,
                    "velocity": 1
                },
                {
                    "duration": 0.21428549999998836,
                    "durationTicks": 60,
                    "midi": 47,
                    "name": "B2",
                    "ticks": 45720,
                    "time": 163.28555100000003,
                    "velocity": 1
                },
                {
                    "duration": 0.21428549999998836,
                    "durationTicks": 60,
                    "midi": 50,
                    "name": "D3",
                    "ticks": 45780,
                    "time": 163.49983650000001,
                    "velocity": 1
                },
                {
                    "duration": 0.21428550000001678,
                    "durationTicks": 60,
                    "midi": 47,
                    "name": "B2",
                    "ticks": 45840,
                    "time": 163.714122,
                    "velocity": 1
                },
                {
                    "duration": 0.21428549999998836,
                    "durationTicks": 60,
                    "midi": 46,
                    "name": "A#2",
                    "ticks": 45900,
                    "time": 163.92840750000002,
                    "velocity": 1
                },
                {
                    "duration": 0.21428550000001678,
                    "durationTicks": 60,
                    "midi": 45,
                    "name": "A2",
                    "ticks": 45960,
                    "time": 164.142693,
                    "velocity": 1
                },
                {
                    "duration": 0.21428549999998836,
                    "durationTicks": 60,
                    "midi": 43,
                    "name": "G2",
                    "ticks": 46020,
                    "time": 164.35697850000003,
                    "velocity": 1
                },
                {
                    "duration": 0.21428549999998836,
                    "durationTicks": 60,
                    "midi": 40,
                    "name": "E2",
                    "ticks": 46080,
                    "time": 164.571264,
                    "velocity": 1
                },
                {
                    "duration": 0.21428550000001678,
                    "durationTicks": 60,
                    "midi": 38,
                    "name": "D2",
                    "ticks": 46140,
                    "time": 164.7855495,
                    "velocity": 1
                },
                {
                    "duration": 0.21428549999998836,
                    "durationTicks": 60,
                    "midi": 35,
                    "name": "B1",
                    "ticks": 46200,
                    "time": 164.99983500000002,
                    "velocity": 1
                },
                {
                    "duration": 0.21428550000001678,
                    "durationTicks": 60,
                    "midi": 38,
                    "name": "D2",
                    "ticks": 46260,
                    "time": 165.2141205,
                    "velocity": 1
                },
                {
                    "duration": 0.21428549999998836,
                    "durationTicks": 60,
                    "midi": 35,
                    "name": "B1",
                    "ticks": 46320,
                    "time": 165.42840600000002,
                    "velocity": 1
                },
                {
                    "duration": 0.21428549999998836,
                    "durationTicks": 60,
                    "midi": 34,
                    "name": "A#1",
                    "ticks": 46380,
                    "time": 165.6426915,
                    "velocity": 1
                },
                {
                    "duration": 0.21428550000001678,
                    "durationTicks": 60,
                    "midi": 33,
                    "name": "A1",
                    "ticks": 46440,
                    "time": 165.856977,
                    "velocity": 1
                },
                {
                    "duration": 0.21428549999998836,
                    "durationTicks": 60,
                    "midi": 31,
                    "name": "G1",
                    "ticks": 46500,
                    "time": 166.07126250000002,
                    "velocity": 1
                },
                {
                    "duration": 0.21428550000001678,
                    "durationTicks": 60,
                    "midi": 31,
                    "name": "G1",
                    "ticks": 46560,
                    "time": 166.285548,
                    "velocity": 1
                },
                {
                    "duration": 0.21428549999998836,
                    "durationTicks": 60,
                    "midi": 31,
                    "name": "G1",
                    "ticks": 46620,
                    "time": 166.49983350000002,
                    "velocity": 1
                },
                {
                    "duration": 0.21428550000001678,
                    "durationTicks": 60,
                    "midi": 31,
                    "name": "G1",
                    "ticks": 46680,
                    "time": 166.714119,
                    "velocity": 1
                },
                {
                    "duration": 0.21428549999998836,
                    "durationTicks": 60,
                    "midi": 31,
                    "name": "G1",
                    "ticks": 46740,
                    "time": 166.92840450000003,
                    "velocity": 1
                },
                {
                    "duration": 0.21428549999998836,
                    "durationTicks": 60,
                    "midi": 31,
                    "name": "G1",
                    "ticks": 46800,
                    "time": 167.14269000000002,
                    "velocity": 1
                },
                {
                    "duration": 0.10714275000000839,
                    "durationTicks": 30,
                    "midi": 31,
                    "name": "G1",
                    "ticks": 46860,
                    "time": 167.3569755,
                    "velocity": 1
                },
                {
                    "duration": 0.10714275000000839,
                    "durationTicks": 30,
                    "midi": 31,
                    "name": "G1",
                    "ticks": 46890,
                    "time": 167.46411825,
                    "velocity": 1
                },
                {
                    "duration": 0.42857100000000514,
                    "durationTicks": 120,
                    "midi": 43,
                    "name": "G2",
                    "ticks": 46920,
                    "time": 167.57126100000002,
                    "velocity": 1
                },
                {
                    "duration": 0.4285709999999767,
                    "durationTicks": 120,
                    "midi": 30,
                    "name": "F#1",
                    "ticks": 47040,
                    "time": 167.99983200000003,
                    "velocity": 1
                },
                {
                    "duration": 0.42857100000000514,
                    "durationTicks": 120,
                    "midi": 30,
                    "name": "F#1",
                    "ticks": 47160,
                    "time": 168.428403,
                    "velocity": 1
                },
                {
                    "duration": 0.42857100000000514,
                    "durationTicks": 120,
                    "midi": 29,
                    "name": "F1",
                    "ticks": 47280,
                    "time": 168.856974,
                    "velocity": 1
                },
                {
                    "duration": 0.42857100000000514,
                    "durationTicks": 120,
                    "midi": 29,
                    "name": "F1",
                    "ticks": 47400,
                    "time": 169.285545,
                    "velocity": 1
                },
                {
                    "duration": 0.21428549999998836,
                    "durationTicks": 60,
                    "midi": 28,
                    "name": "E1",
                    "ticks": 47520,
                    "time": 169.71411600000002,
                    "velocity": 1
                },
                {
                    "duration": 0.21428550000001678,
                    "durationTicks": 60,
                    "midi": 28,
                    "name": "E1",
                    "ticks": 47580,
                    "time": 169.9284015,
                    "velocity": 1
                },
                {
                    "duration": 0.21428549999998836,
                    "durationTicks": 60,
                    "midi": 28,
                    "name": "E1",
                    "ticks": 47640,
                    "time": 170.14268700000002,
                    "velocity": 1
                },
                {
                    "duration": 0.21428549999998836,
                    "durationTicks": 60,
                    "midi": 28,
                    "name": "E1",
                    "ticks": 47700,
                    "time": 170.3569725,
                    "velocity": 1
                },
                {
                    "duration": 0.21428550000001678,
                    "durationTicks": 60,
                    "midi": 28,
                    "name": "E1",
                    "ticks": 47760,
                    "time": 170.571258,
                    "velocity": 1
                },
                {
                    "duration": 0.21428549999998836,
                    "durationTicks": 60,
                    "midi": 28,
                    "name": "E1",
                    "ticks": 47820,
                    "time": 170.78554350000002,
                    "velocity": 1
                },
                {
                    "duration": 0.21428550000001678,
                    "durationTicks": 60,
                    "midi": 28,
                    "name": "E1",
                    "ticks": 47880,
                    "time": 170.999829,
                    "velocity": 1
                },
                {
                    "duration": 0.21428549999998836,
                    "durationTicks": 60,
                    "midi": 28,
                    "name": "E1",
                    "ticks": 47940,
                    "time": 171.21411450000002,
                    "velocity": 1
                },
                {
                    "duration": 0.21428550000001678,
                    "durationTicks": 60,
                    "midi": 28,
                    "name": "E1",
                    "ticks": 48000,
                    "time": 171.4284,
                    "velocity": 1
                },
                {
                    "duration": 0.10714274999997997,
                    "durationTicks": 30,
                    "midi": 33,
                    "name": "A1",
                    "ticks": 48060,
                    "time": 171.64268550000003,
                    "velocity": 1
                },
                {
                    "duration": 0.10714275000000839,
                    "durationTicks": 30,
                    "midi": 35,
                    "name": "B1",
                    "ticks": 48090,
                    "time": 171.74982825,
                    "velocity": 1
                },
                {
                    "duration": 0.21428549999998836,
                    "durationTicks": 60,
                    "midi": 38,
                    "name": "D2",
                    "ticks": 48120,
                    "time": 171.85697100000002,
                    "velocity": 1
                },
                {
                    "duration": 0.21428550000001678,
                    "durationTicks": 60,
                    "midi": 28,
                    "name": "E1",
                    "ticks": 48180,
                    "time": 172.0712565,
                    "velocity": 1
                },
                {
                    "duration": 0.21428549999998836,
                    "durationTicks": 60,
                    "midi": 40,
                    "name": "E2",
                    "ticks": 48240,
                    "time": 172.28554200000002,
                    "velocity": 1
                },
                {
                    "duration": 0.21428550000001678,
                    "durationTicks": 60,
                    "midi": 28,
                    "name": "E1",
                    "ticks": 48300,
                    "time": 172.4998275,
                    "velocity": 1
                },
                {
                    "duration": 0.21428549999998836,
                    "durationTicks": 60,
                    "midi": 40,
                    "name": "E2",
                    "ticks": 48360,
                    "time": 172.71411300000003,
                    "velocity": 1
                },
                {
                    "duration": 0.21428549999998836,
                    "durationTicks": 60,
                    "midi": 28,
                    "name": "E1",
                    "ticks": 48420,
                    "time": 172.92839850000001,
                    "velocity": 1
                },
                {
                    "duration": 0.21428550000001678,
                    "durationTicks": 60,
                    "midi": 31,
                    "name": "G1",
                    "ticks": 48480,
                    "time": 173.142684,
                    "velocity": 1
                },
                {
                    "duration": 0.21428549999998836,
                    "durationTicks": 60,
                    "midi": 31,
                    "name": "G1",
                    "ticks": 48540,
                    "time": 173.35696950000002,
                    "velocity": 1
                },
                {
                    "duration": 0.21428550000001678,
                    "durationTicks": 60,
                    "midi": 31,
                    "name": "G1",
                    "ticks": 48600,
                    "time": 173.571255,
                    "velocity": 1
                },
                {
                    "duration": 0.21428549999998836,
                    "durationTicks": 60,
                    "midi": 31,
                    "name": "G1",
                    "ticks": 48660,
                    "time": 173.78554050000002,
                    "velocity": 1
                },
                {
                    "duration": 0.21428549999998836,
                    "durationTicks": 60,
                    "midi": 31,
                    "name": "G1",
                    "ticks": 48720,
                    "time": 173.999826,
                    "velocity": 1
                },
                {
                    "duration": 0.10714275000000839,
                    "durationTicks": 30,
                    "midi": 31,
                    "name": "G1",
                    "ticks": 48780,
                    "time": 174.2141115,
                    "velocity": 1
                },
                {
                    "duration": 0.10714275000000839,
                    "durationTicks": 30,
                    "midi": 31,
                    "name": "G1",
                    "ticks": 48810,
                    "time": 174.32125425,
                    "velocity": 1
                },
                {
                    "duration": 0.42857100000000514,
                    "durationTicks": 120,
                    "midi": 43,
                    "name": "G2",
                    "ticks": 48840,
                    "time": 174.42839700000002,
                    "velocity": 1
                },
                {
                    "duration": 0.42857100000000514,
                    "durationTicks": 120,
                    "midi": 30,
                    "name": "F#1",
                    "ticks": 48960,
                    "time": 174.85696800000002,
                    "velocity": 1
                },
                {
                    "duration": 0.4285709999999767,
                    "durationTicks": 120,
                    "midi": 30,
                    "name": "F#1",
                    "ticks": 49080,
                    "time": 175.28553900000003,
                    "velocity": 1
                },
                {
                    "duration": 0.42857100000000514,
                    "durationTicks": 120,
                    "midi": 29,
                    "name": "F1",
                    "ticks": 49200,
                    "time": 175.71411,
                    "velocity": 1
                },
                {
                    "duration": 0.42857100000000514,
                    "durationTicks": 120,
                    "midi": 29,
                    "name": "F1",
                    "ticks": 49320,
                    "time": 176.142681,
                    "velocity": 1
                },
                {
                    "duration": 0.21428549999998836,
                    "durationTicks": 60,
                    "midi": 28,
                    "name": "E1",
                    "ticks": 49440,
                    "time": 176.57125200000002,
                    "velocity": 1
                },
                {
                    "duration": 0.21428550000001678,
                    "durationTicks": 60,
                    "midi": 28,
                    "name": "E1",
                    "ticks": 49500,
                    "time": 176.7855375,
                    "velocity": 1
                },
                {
                    "duration": 0.21428549999998836,
                    "durationTicks": 60,
                    "midi": 28,
                    "name": "E1",
                    "ticks": 49560,
                    "time": 176.99982300000002,
                    "velocity": 1
                },
                {
                    "duration": 0.21428550000001678,
                    "durationTicks": 60,
                    "midi": 28,
                    "name": "E1",
                    "ticks": 49620,
                    "time": 177.2141085,
                    "velocity": 1
                },
                {
                    "duration": 0.21428549999998836,
                    "durationTicks": 60,
                    "midi": 28,
                    "name": "E1",
                    "ticks": 49680,
                    "time": 177.42839400000003,
                    "velocity": 1
                },
                {
                    "duration": 0.21428549999998836,
                    "durationTicks": 60,
                    "midi": 28,
                    "name": "E1",
                    "ticks": 49740,
                    "time": 177.6426795,
                    "velocity": 1
                },
                {
                    "duration": 0.21428550000001678,
                    "durationTicks": 60,
                    "midi": 28,
                    "name": "E1",
                    "ticks": 49800,
                    "time": 177.856965,
                    "velocity": 1
                },
                {
                    "duration": 0.21428549999998836,
                    "durationTicks": 60,
                    "midi": 28,
                    "name": "E1",
                    "ticks": 49860,
                    "time": 178.07125050000002,
                    "velocity": 1
                },
                {
                    "duration": 0.21428550000001678,
                    "durationTicks": 60,
                    "midi": 40,
                    "name": "E2",
                    "ticks": 49920,
                    "time": 178.285536,
                    "velocity": 1
                },
                {
                    "duration": 0.21428549999998836,
                    "durationTicks": 60,
                    "midi": 38,
                    "name": "D2",
                    "ticks": 49980,
                    "time": 178.49982150000002,
                    "velocity": 1
                },
                {
                    "duration": 0.21428549999998836,
                    "durationTicks": 60,
                    "midi": 35,
                    "name": "B1",
                    "ticks": 50040,
                    "time": 178.714107,
                    "velocity": 1
                },
                {
                    "duration": 0.21428550000001678,
                    "durationTicks": 60,
                    "midi": 34,
                    "name": "A#1",
                    "ticks": 50100,
                    "time": 178.9283925,
                    "velocity": 1
                },
                {
                    "duration": 0.21428549999998836,
                    "durationTicks": 60,
                    "midi": 33,
                    "name": "A1",
                    "ticks": 50160,
                    "time": 179.14267800000002,
                    "velocity": 1
                },
                {
                    "duration": 0.21428550000001678,
                    "durationTicks": 60,
                    "midi": 35,
                    "name": "B1",
                    "ticks": 50220,
                    "time": 179.3569635,
                    "velocity": 1
                },
                {
                    "duration": 0.21428549999998836,
                    "durationTicks": 60,
                    "midi": 34,
                    "name": "A#1",
                    "ticks": 50280,
                    "time": 179.57124900000002,
                    "velocity": 1
                },
                {
                    "duration": 0.21428550000001678,
                    "durationTicks": 60,
                    "midi": 33,
                    "name": "A1",
                    "ticks": 50340,
                    "time": 179.7855345,
                    "velocity": 1
                },
                {
                    "duration": 0.21428549999998836,
                    "durationTicks": 60,
                    "midi": 31,
                    "name": "G1",
                    "ticks": 50400,
                    "time": 179.99982000000003,
                    "velocity": 1
                },
                {
                    "duration": 0.21428549999998836,
                    "durationTicks": 60,
                    "midi": 31,
                    "name": "G1",
                    "ticks": 50460,
                    "time": 180.21410550000002,
                    "velocity": 1
                },
                {
                    "duration": 0.21428550000001678,
                    "durationTicks": 60,
                    "midi": 31,
                    "name": "G1",
                    "ticks": 50520,
                    "time": 180.428391,
                    "velocity": 1
                },
                {
                    "duration": 0.21428549999998836,
                    "durationTicks": 60,
                    "midi": 31,
                    "name": "G1",
                    "ticks": 50580,
                    "time": 180.64267650000002,
                    "velocity": 1
                },
                {
                    "duration": 0.21428550000001678,
                    "durationTicks": 60,
                    "midi": 31,
                    "name": "G1",
                    "ticks": 50640,
                    "time": 180.856962,
                    "velocity": 1
                },
                {
                    "duration": 0.10714274999997997,
                    "durationTicks": 30,
                    "midi": 31,
                    "name": "G1",
                    "ticks": 50700,
                    "time": 181.07124750000003,
                    "velocity": 1
                },
                {
                    "duration": 0.10714275000000839,
                    "durationTicks": 30,
                    "midi": 31,
                    "name": "G1",
                    "ticks": 50730,
                    "time": 181.17839025,
                    "velocity": 1
                },
                {
                    "duration": 0.42857100000000514,
                    "durationTicks": 120,
                    "midi": 43,
                    "name": "G2",
                    "ticks": 50760,
                    "time": 181.28553300000002,
                    "velocity": 1
                },
                {
                    "duration": 0.42857100000000514,
                    "durationTicks": 120,
                    "midi": 30,
                    "name": "F#1",
                    "ticks": 50880,
                    "time": 181.71410400000002,
                    "velocity": 1
                },
                {
                    "duration": 0.4285709999999767,
                    "durationTicks": 120,
                    "midi": 30,
                    "name": "F#1",
                    "ticks": 51000,
                    "time": 182.14267500000003,
                    "velocity": 1
                },
                {
                    "duration": 0.42857100000000514,
                    "durationTicks": 120,
                    "midi": 29,
                    "name": "F1",
                    "ticks": 51120,
                    "time": 182.571246,
                    "velocity": 1
                },
                {
                    "duration": 0.42857100000000514,
                    "durationTicks": 120,
                    "midi": 29,
                    "name": "F1",
                    "ticks": 51240,
                    "time": 182.999817,
                    "velocity": 1
                },
                {
                    "duration": 0.21428550000001678,
                    "durationTicks": 60,
                    "midi": 28,
                    "name": "E1",
                    "ticks": 51360,
                    "time": 183.428388,
                    "velocity": 1
                },
                {
                    "duration": 0.21428549999998836,
                    "durationTicks": 60,
                    "midi": 28,
                    "name": "E1",
                    "ticks": 51420,
                    "time": 183.64267350000003,
                    "velocity": 1
                },
                {
                    "duration": 0.21428549999998836,
                    "durationTicks": 60,
                    "midi": 28,
                    "name": "E1",
                    "ticks": 51480,
                    "time": 183.85695900000002,
                    "velocity": 1
                },
                {
                    "duration": 0.21428550000001678,
                    "durationTicks": 60,
                    "midi": 28,
                    "name": "E1",
                    "ticks": 51540,
                    "time": 184.0712445,
                    "velocity": 1
                },
                {
                    "duration": 0.21428549999998836,
                    "durationTicks": 60,
                    "midi": 28,
                    "name": "E1",
                    "ticks": 51600,
                    "time": 184.28553000000002,
                    "velocity": 1
                },
                {
                    "duration": 0.21428550000001678,
                    "durationTicks": 60,
                    "midi": 28,
                    "name": "E1",
                    "ticks": 51660,
                    "time": 184.4998155,
                    "velocity": 1
                },
                {
                    "duration": 0.21428549999998836,
                    "durationTicks": 60,
                    "midi": 28,
                    "name": "E1",
                    "ticks": 51720,
                    "time": 184.71410100000003,
                    "velocity": 1
                },
                {
                    "duration": 0.21428549999998836,
                    "durationTicks": 60,
                    "midi": 28,
                    "name": "E1",
                    "ticks": 51780,
                    "time": 184.92838650000002,
                    "velocity": 1
                },
                {
                    "duration": 0.21428550000001678,
                    "durationTicks": 60,
                    "midi": 28,
                    "name": "E1",
                    "ticks": 51840,
                    "time": 185.142672,
                    "velocity": 1
                },
                {
                    "duration": 0.10714274999997997,
                    "durationTicks": 30,
                    "midi": 33,
                    "name": "A1",
                    "ticks": 51900,
                    "time": 185.35695750000002,
                    "velocity": 1
                },
                {
                    "duration": 0.10714275000000839,
                    "durationTicks": 30,
                    "midi": 35,
                    "name": "B1",
                    "ticks": 51930,
                    "time": 185.46410025,
                    "velocity": 1
                },
                {
                    "duration": 0.21428550000001678,
                    "durationTicks": 60,
                    "midi": 38,
                    "name": "D2",
                    "ticks": 51960,
                    "time": 185.571243,
                    "velocity": 1
                },
                {
                    "duration": 0.21428549999998836,
                    "durationTicks": 60,
                    "midi": 28,
                    "name": "E1",
                    "ticks": 52020,
                    "time": 185.78552850000003,
                    "velocity": 1
                },
                {
                    "duration": 0.21428549999998836,
                    "durationTicks": 60,
                    "midi": 40,
                    "name": "E2",
                    "ticks": 52080,
                    "time": 185.99981400000001,
                    "velocity": 1
                },
                {
                    "duration": 0.21428550000001678,
                    "durationTicks": 60,
                    "midi": 28,
                    "name": "E1",
                    "ticks": 52140,
                    "time": 186.2140995,
                    "velocity": 1
                },
                {
                    "duration": 0.21428549999998836,
                    "durationTicks": 60,
                    "midi": 40,
                    "name": "E2",
                    "ticks": 52200,
                    "time": 186.42838500000002,
                    "velocity": 1
                },
                {
                    "duration": 0.21428550000001678,
                    "durationTicks": 60,
                    "midi": 28,
                    "name": "E1",
                    "ticks": 52260,
                    "time": 186.6426705,
                    "velocity": 1
                },
                {
                    "duration": 0.21428549999998836,
                    "durationTicks": 60,
                    "midi": 31,
                    "name": "G1",
                    "ticks": 52320,
                    "time": 186.85695600000003,
                    "velocity": 1
                },
                {
                    "duration": 0.21428549999998836,
                    "durationTicks": 60,
                    "midi": 31,
                    "name": "G1",
                    "ticks": 52380,
                    "time": 187.0712415,
                    "velocity": 1
                },
                {
                    "duration": 0.21428550000001678,
                    "durationTicks": 60,
                    "midi": 31,
                    "name": "G1",
                    "ticks": 52440,
                    "time": 187.285527,
                    "velocity": 1
                },
                {
                    "duration": 0.21428549999998836,
                    "durationTicks": 60,
                    "midi": 31,
                    "name": "G1",
                    "ticks": 52500,
                    "time": 187.49981250000002,
                    "velocity": 1
                },
                {
                    "duration": 0.21428550000001678,
                    "durationTicks": 60,
                    "midi": 31,
                    "name": "G1",
                    "ticks": 52560,
                    "time": 187.714098,
                    "velocity": 1
                },
                {
                    "duration": 0.10714274999997997,
                    "durationTicks": 30,
                    "midi": 31,
                    "name": "G1",
                    "ticks": 52620,
                    "time": 187.92838350000002,
                    "velocity": 1
                },
                {
                    "duration": 0.10714275000000839,
                    "durationTicks": 30,
                    "midi": 31,
                    "name": "G1",
                    "ticks": 52650,
                    "time": 188.03552625,
                    "velocity": 1
                },
                {
                    "duration": 0.42857100000000514,
                    "durationTicks": 120,
                    "midi": 43,
                    "name": "G2",
                    "ticks": 52680,
                    "time": 188.142669,
                    "velocity": 1
                },
                {
                    "duration": 0.42857100000000514,
                    "durationTicks": 120,
                    "midi": 30,
                    "name": "F#1",
                    "ticks": 52800,
                    "time": 188.57124000000002,
                    "velocity": 1
                },
                {
                    "duration": 0.42857100000000514,
                    "durationTicks": 120,
                    "midi": 30,
                    "name": "F#1",
                    "ticks": 52920,
                    "time": 188.99981100000002,
                    "velocity": 1
                },
                {
                    "duration": 0.4285709999999767,
                    "durationTicks": 120,
                    "midi": 29,
                    "name": "F1",
                    "ticks": 53040,
                    "time": 189.42838200000003,
                    "velocity": 1
                },
                {
                    "duration": 0.42857100000000514,
                    "durationTicks": 120,
                    "midi": 29,
                    "name": "F1",
                    "ticks": 53160,
                    "time": 189.856953,
                    "velocity": 1
                },
                {
                    "duration": 1.7142840000000206,
                    "durationTicks": 480,
                    "midi": 28,
                    "name": "E1",
                    "ticks": 53280,
                    "time": 190.285524,
                    "velocity": 1
                },
                {
                    "duration": 0.2884610000000123,
                    "durationTicks": 120,
                    "midi": 28,
                    "name": "E1",
                    "ticks": 53760,
                    "time": 191.99980800000003,
                    "velocity": 1
                },
                {
                    "duration": 0.14423049999999193,
                    "durationTicks": 60,
                    "midi": 36,
                    "name": "C2",
                    "ticks": 59040,
                    "time": 204.69209200000003,
                    "velocity": 1
                },
                {
                    "duration": 0.14423050000002036,
                    "durationTicks": 60,
                    "midi": 35,
                    "name": "B1",
                    "ticks": 59100,
                    "time": 204.83632250000002,
                    "velocity": 1
                },
                {
                    "duration": 0.14423049999999193,
                    "durationTicks": 60,
                    "midi": 33,
                    "name": "A1",
                    "ticks": 59160,
                    "time": 204.98055300000004,
                    "velocity": 1
                },
                {
                    "duration": 0.14423049999999193,
                    "durationTicks": 60,
                    "midi": 41,
                    "name": "F2",
                    "ticks": 59220,
                    "time": 205.12478350000004,
                    "velocity": 1
                },
                {
                    "duration": 0.14423049999999193,
                    "durationTicks": 60,
                    "midi": 40,
                    "name": "E2",
                    "ticks": 59280,
                    "time": 205.26901400000003,
                    "velocity": 1
                },
                {
                    "duration": 0.14423050000002036,
                    "durationTicks": 60,
                    "midi": 38,
                    "name": "D2",
                    "ticks": 59340,
                    "time": 205.41324450000002,
                    "velocity": 1
                },
                {
                    "duration": 0.14423049999999193,
                    "durationTicks": 60,
                    "midi": 36,
                    "name": "C2",
                    "ticks": 59400,
                    "time": 205.55747500000004,
                    "velocity": 1
                },
                {
                    "duration": 0.14423049999999193,
                    "durationTicks": 60,
                    "midi": 33,
                    "name": "A1",
                    "ticks": 59460,
                    "time": 205.70170550000003,
                    "velocity": 1
                },
                {
                    "duration": 0.14423050000002036,
                    "durationTicks": 60,
                    "midi": 31,
                    "name": "G1",
                    "ticks": 59520,
                    "time": 205.84593600000002,
                    "velocity": 1
                },
                {
                    "duration": 0.14423049999999193,
                    "durationTicks": 60,
                    "midi": 33,
                    "name": "A1",
                    "ticks": 59580,
                    "time": 205.99016650000004,
                    "velocity": 1
                },
                {
                    "duration": 0.14423049999999193,
                    "durationTicks": 60,
                    "midi": 33,
                    "name": "A1",
                    "ticks": 59640,
                    "time": 206.13439700000004,
                    "velocity": 1
                },
                {
                    "duration": 0.14423049999999193,
                    "durationTicks": 60,
                    "midi": 45,
                    "name": "A2",
                    "ticks": 59700,
                    "time": 206.27862750000003,
                    "velocity": 1
                },
                {
                    "duration": 0.14423050000002036,
                    "durationTicks": 60,
                    "midi": 33,
                    "name": "A1",
                    "ticks": 59760,
                    "time": 206.42285800000002,
                    "velocity": 1
                },
                {
                    "duration": 0.14423049999999193,
                    "durationTicks": 60,
                    "midi": 33,
                    "name": "A1",
                    "ticks": 59820,
                    "time": 206.56708850000004,
                    "velocity": 1
                },
                {
                    "duration": 0.14423049999999193,
                    "durationTicks": 60,
                    "midi": 45,
                    "name": "A2",
                    "ticks": 59880,
                    "time": 206.71131900000003,
                    "velocity": 1
                },
                {
                    "duration": 0.14423050000002036,
                    "durationTicks": 60,
                    "midi": 33,
                    "name": "A1",
                    "ticks": 59940,
                    "time": 206.85554950000002,
                    "velocity": 1
                },
                {
                    "duration": 0.14423049999999193,
                    "durationTicks": 60,
                    "midi": 33,
                    "name": "A1",
                    "ticks": 60000,
                    "time": 206.99978000000004,
                    "velocity": 1
                },
                {
                    "duration": 0.14423049999999193,
                    "durationTicks": 60,
                    "midi": 33,
                    "name": "A1",
                    "ticks": 60060,
                    "time": 207.14401050000004,
                    "velocity": 1
                },
                {
                    "duration": 0.14423049999999193,
                    "durationTicks": 60,
                    "midi": 33,
                    "name": "A1",
                    "ticks": 60120,
                    "time": 207.28824100000003,
                    "velocity": 1
                },
                {
                    "duration": 0.14423050000002036,
                    "durationTicks": 60,
                    "midi": 45,
                    "name": "A2",
                    "ticks": 60180,
                    "time": 207.43247150000002,
                    "velocity": 1
                },
                {
                    "duration": 0.14423049999999193,
                    "durationTicks": 60,
                    "midi": 33,
                    "name": "A1",
                    "ticks": 60240,
                    "time": 207.57670200000004,
                    "velocity": 1
                },
                {
                    "duration": 0.14423049999999193,
                    "durationTicks": 60,
                    "midi": 33,
                    "name": "A1",
                    "ticks": 60300,
                    "time": 207.72093250000003,
                    "velocity": 1
                },
                {
                    "duration": 0.14423050000002036,
                    "durationTicks": 60,
                    "midi": 45,
                    "name": "A2",
                    "ticks": 60360,
                    "time": 207.86516300000002,
                    "velocity": 1
                },
                {
                    "duration": 0.14423049999999193,
                    "durationTicks": 60,
                    "midi": 33,
                    "name": "A1",
                    "ticks": 60420,
                    "time": 208.00939350000004,
                    "velocity": 1
                },
                {
                    "duration": 0.14423049999999193,
                    "durationTicks": 60,
                    "midi": 33,
                    "name": "A1",
                    "ticks": 60480,
                    "time": 208.15362400000004,
                    "velocity": 1
                },
                {
                    "duration": 0.14423049999999193,
                    "durationTicks": 60,
                    "midi": 33,
                    "name": "A1",
                    "ticks": 60540,
                    "time": 208.29785450000003,
                    "velocity": 1
                },
                {
                    "duration": 0.14423050000002036,
                    "durationTicks": 60,
                    "midi": 33,
                    "name": "A1",
                    "ticks": 60600,
                    "time": 208.44208500000002,
                    "velocity": 1
                },
                {
                    "duration": 0.14423049999999193,
                    "durationTicks": 60,
                    "midi": 45,
                    "name": "A2",
                    "ticks": 60660,
                    "time": 208.58631550000004,
                    "velocity": 1
                },
                {
                    "duration": 0.14423049999999193,
                    "durationTicks": 60,
                    "midi": 33,
                    "name": "A1",
                    "ticks": 60720,
                    "time": 208.73054600000003,
                    "velocity": 1
                },
                {
                    "duration": 0.14423050000002036,
                    "durationTicks": 60,
                    "midi": 33,
                    "name": "A1",
                    "ticks": 60780,
                    "time": 208.87477650000002,
                    "velocity": 1
                },
                {
                    "duration": 0.14423049999999193,
                    "durationTicks": 60,
                    "midi": 45,
                    "name": "A2",
                    "ticks": 60840,
                    "time": 209.01900700000004,
                    "velocity": 1
                },
                {
                    "duration": 0.14423049999999193,
                    "durationTicks": 60,
                    "midi": 33,
                    "name": "A1",
                    "ticks": 60900,
                    "time": 209.16323750000004,
                    "velocity": 1
                },
                {
                    "duration": 0.14423049999999193,
                    "durationTicks": 60,
                    "midi": 36,
                    "name": "C2",
                    "ticks": 60960,
                    "time": 209.30746800000003,
                    "velocity": 1
                },
                {
                    "duration": 0.14423050000002036,
                    "durationTicks": 60,
                    "midi": 35,
                    "name": "B1",
                    "ticks": 61020,
                    "time": 209.45169850000002,
                    "velocity": 1
                },
                {
                    "duration": 0.14423049999999193,
                    "durationTicks": 60,
                    "midi": 33,
                    "name": "A1",
                    "ticks": 61080,
                    "time": 209.59592900000004,
                    "velocity": 1
                },
                {
                    "duration": 0.14423049999999193,
                    "durationTicks": 60,
                    "midi": 41,
                    "name": "F2",
                    "ticks": 61140,
                    "time": 209.74015950000003,
                    "velocity": 1
                },
                {
                    "duration": 0.14423050000002036,
                    "durationTicks": 60,
                    "midi": 40,
                    "name": "E2",
                    "ticks": 61200,
                    "time": 209.88439000000002,
                    "velocity": 1
                },
                {
                    "duration": 0.14423049999999193,
                    "durationTicks": 60,
                    "midi": 38,
                    "name": "D2",
                    "ticks": 61260,
                    "time": 210.02862050000005,
                    "velocity": 1
                },
                {
                    "duration": 0.14423049999999193,
                    "durationTicks": 60,
                    "midi": 36,
                    "name": "C2",
                    "ticks": 61320,
                    "time": 210.17285100000004,
                    "velocity": 1
                },
                {
                    "duration": 0.14423049999999193,
                    "durationTicks": 60,
                    "midi": 33,
                    "name": "A1",
                    "ticks": 61380,
                    "time": 210.31708150000003,
                    "velocity": 1
                },
                {
                    "duration": 0.14423050000002036,
                    "durationTicks": 60,
                    "midi": 31,
                    "name": "G1",
                    "ticks": 61440,
                    "time": 210.46131200000002,
                    "velocity": 1
                },
                {
                    "duration": 0.14423049999999193,
                    "durationTicks": 60,
                    "midi": 33,
                    "name": "A1",
                    "ticks": 61500,
                    "time": 210.60554250000004,
                    "velocity": 1
                },
                {
                    "duration": 0.14423049999999193,
                    "durationTicks": 60,
                    "midi": 33,
                    "name": "A1",
                    "ticks": 61560,
                    "time": 210.74977300000003,
                    "velocity": 1
                },
                {
                    "duration": 0.14423050000002036,
                    "durationTicks": 60,
                    "midi": 45,
                    "name": "A2",
                    "ticks": 61620,
                    "time": 210.89400350000003,
                    "velocity": 1
                },
                {
                    "duration": 0.14423049999999193,
                    "durationTicks": 60,
                    "midi": 33,
                    "name": "A1",
                    "ticks": 61680,
                    "time": 211.03823400000005,
                    "velocity": 1
                },
                {
                    "duration": 0.14423049999999193,
                    "durationTicks": 60,
                    "midi": 33,
                    "name": "A1",
                    "ticks": 61740,
                    "time": 211.18246450000004,
                    "velocity": 1
                },
                {
                    "duration": 0.14423049999999193,
                    "durationTicks": 60,
                    "midi": 45,
                    "name": "A2",
                    "ticks": 61800,
                    "time": 211.32669500000003,
                    "velocity": 1
                },
                {
                    "duration": 0.14423050000002036,
                    "durationTicks": 60,
                    "midi": 33,
                    "name": "A1",
                    "ticks": 61860,
                    "time": 211.47092550000002,
                    "velocity": 1
                },
                {
                    "duration": 0.14423049999999193,
                    "durationTicks": 60,
                    "midi": 33,
                    "name": "A1",
                    "ticks": 61920,
                    "time": 211.61515600000004,
                    "velocity": 1
                },
                {
                    "duration": 0.14423049999999193,
                    "durationTicks": 60,
                    "midi": 33,
                    "name": "A1",
                    "ticks": 61980,
                    "time": 211.75938650000003,
                    "velocity": 1
                },
                {
                    "duration": 0.14423050000002036,
                    "durationTicks": 60,
                    "midi": 33,
                    "name": "A1",
                    "ticks": 62040,
                    "time": 211.90361700000003,
                    "velocity": 1
                },
                {
                    "duration": 0.14423049999999193,
                    "durationTicks": 60,
                    "midi": 45,
                    "name": "A2",
                    "ticks": 62100,
                    "time": 212.04784750000005,
                    "velocity": 1
                },
                {
                    "duration": 0.14423049999999193,
                    "durationTicks": 60,
                    "midi": 33,
                    "name": "A1",
                    "ticks": 62160,
                    "time": 212.19207800000004,
                    "velocity": 1
                },
                {
                    "duration": 0.14423049999999193,
                    "durationTicks": 60,
                    "midi": 33,
                    "name": "A1",
                    "ticks": 62220,
                    "time": 212.33630850000003,
                    "velocity": 1
                },
                {
                    "duration": 0.14423050000002036,
                    "durationTicks": 60,
                    "midi": 45,
                    "name": "A2",
                    "ticks": 62280,
                    "time": 212.48053900000002,
                    "velocity": 1
                },
                {
                    "duration": 0.14423049999999193,
                    "durationTicks": 60,
                    "midi": 33,
                    "name": "A1",
                    "ticks": 62340,
                    "time": 212.62476950000004,
                    "velocity": 1
                },
                {
                    "duration": 0.14423049999999193,
                    "durationTicks": 60,
                    "midi": 33,
                    "name": "A1",
                    "ticks": 62400,
                    "time": 212.76900000000003,
                    "velocity": 1
                },
                {
                    "duration": 0.14423050000002036,
                    "durationTicks": 60,
                    "midi": 33,
                    "name": "A1",
                    "ticks": 62460,
                    "time": 212.91323050000003,
                    "velocity": 1
                },
                {
                    "duration": 0.14423049999999193,
                    "durationTicks": 60,
                    "midi": 33,
                    "name": "A1",
                    "ticks": 62520,
                    "time": 213.05746100000005,
                    "velocity": 1
                },
                {
                    "duration": 0.14423049999999193,
                    "durationTicks": 60,
                    "midi": 45,
                    "name": "A2",
                    "ticks": 62580,
                    "time": 213.20169150000004,
                    "velocity": 1
                },
                {
                    "duration": 0.14423049999999193,
                    "durationTicks": 60,
                    "midi": 33,
                    "name": "A1",
                    "ticks": 62640,
                    "time": 213.34592200000003,
                    "velocity": 1
                },
                {
                    "duration": 0.14423050000002036,
                    "durationTicks": 60,
                    "midi": 33,
                    "name": "A1",
                    "ticks": 62700,
                    "time": 213.49015250000002,
                    "velocity": 1
                },
                {
                    "duration": 0.14423049999999193,
                    "durationTicks": 60,
                    "midi": 45,
                    "name": "A2",
                    "ticks": 62760,
                    "time": 213.63438300000004,
                    "velocity": 1
                },
                {
                    "duration": 0.14423049999999193,
                    "durationTicks": 60,
                    "midi": 33,
                    "name": "A1",
                    "ticks": 62820,
                    "time": 213.77861350000003,
                    "velocity": 1
                },
                {
                    "duration": 0.14423050000002036,
                    "durationTicks": 60,
                    "midi": 36,
                    "name": "C2",
                    "ticks": 62880,
                    "time": 213.92284400000003,
                    "velocity": 1
                },
                {
                    "duration": 0.14423049999999193,
                    "durationTicks": 60,
                    "midi": 35,
                    "name": "B1",
                    "ticks": 62940,
                    "time": 214.06707450000005,
                    "velocity": 1
                },
                {
                    "duration": 0.14423049999999193,
                    "durationTicks": 60,
                    "midi": 33,
                    "name": "A1",
                    "ticks": 63000,
                    "time": 214.21130500000004,
                    "velocity": 1
                },
                {
                    "duration": 0.14423049999999193,
                    "durationTicks": 60,
                    "midi": 41,
                    "name": "F2",
                    "ticks": 63060,
                    "time": 214.35553550000003,
                    "velocity": 1
                },
                {
                    "duration": 0.14423050000002036,
                    "durationTicks": 60,
                    "midi": 40,
                    "name": "E2",
                    "ticks": 63120,
                    "time": 214.49976600000002,
                    "velocity": 1
                },
                {
                    "duration": 0.14423049999999193,
                    "durationTicks": 60,
                    "midi": 38,
                    "name": "D2",
                    "ticks": 63180,
                    "time": 214.64399650000004,
                    "velocity": 1
                },
                {
                    "duration": 0.14423049999999193,
                    "durationTicks": 60,
                    "midi": 36,
                    "name": "C2",
                    "ticks": 63240,
                    "time": 214.78822700000003,
                    "velocity": 1
                },
                {
                    "duration": 0.14423050000002036,
                    "durationTicks": 60,
                    "midi": 33,
                    "name": "A1",
                    "ticks": 63300,
                    "time": 214.93245750000003,
                    "velocity": 1
                },
                {
                    "duration": 0.28846099999998387,
                    "durationTicks": 120,
                    "midi": 31,
                    "name": "G1",
                    "ticks": 63360,
                    "time": 215.07668800000005,
                    "velocity": 1
                },
                {
                    "duration": 0.2884610000000123,
                    "durationTicks": 120,
                    "midi": 31,
                    "name": "G1",
                    "ticks": 63480,
                    "time": 215.36514900000003,
                    "velocity": 1
                },
                {
                    "duration": 0.14423049999999193,
                    "durationTicks": 60,
                    "midi": 31,
                    "name": "G1",
                    "ticks": 63600,
                    "time": 215.65361000000004,
                    "velocity": 1
                },
                {
                    "duration": 0.14423049999999193,
                    "durationTicks": 60,
                    "midi": 31,
                    "name": "G1",
                    "ticks": 63660,
                    "time": 215.79784050000004,
                    "velocity": 1
                },
                {
                    "duration": 0.2884610000000123,
                    "durationTicks": 120,
                    "midi": 31,
                    "name": "G1",
                    "ticks": 63720,
                    "time": 215.94207100000003,
                    "velocity": 1
                },
                {
                    "duration": 0.28846099999998387,
                    "durationTicks": 120,
                    "midi": 30,
                    "name": "F#1",
                    "ticks": 63840,
                    "time": 216.23053200000004,
                    "velocity": 1
                },
                {
                    "duration": 0.2884610000000123,
                    "durationTicks": 120,
                    "midi": 30,
                    "name": "F#1",
                    "ticks": 63960,
                    "time": 216.51899300000002,
                    "velocity": 1
                },
                {
                    "duration": 0.2884610000000123,
                    "durationTicks": 120,
                    "midi": 29,
                    "name": "F1",
                    "ticks": 64080,
                    "time": 216.80745400000004,
                    "velocity": 1
                },
                {
                    "duration": 0.28846099999998387,
                    "durationTicks": 120,
                    "midi": 29,
                    "name": "F1",
                    "ticks": 64200,
                    "time": 217.09591500000005,
                    "velocity": 1
                },
                {
                    "duration": 0.14423049999999193,
                    "durationTicks": 60,
                    "midi": 28,
                    "name": "E1",
                    "ticks": 64320,
                    "time": 217.38437600000003,
                    "velocity": 1
                },
                {
                    "duration": 0.14423050000002036,
                    "durationTicks": 60,
                    "midi": 28,
                    "name": "E1",
                    "ticks": 64380,
                    "time": 217.52860650000002,
                    "velocity": 1
                },
                {
                    "duration": 0.14423049999999193,
                    "durationTicks": 60,
                    "midi": 40,
                    "name": "E2",
                    "ticks": 64440,
                    "time": 217.67283700000004,
                    "velocity": 1
                },
                {
                    "duration": 0.14423049999999193,
                    "durationTicks": 60,
                    "midi": 40,
                    "name": "E2",
                    "ticks": 64500,
                    "time": 217.81706750000004,
                    "velocity": 1
                },
                {
                    "duration": 0.14423049999999193,
                    "durationTicks": 60,
                    "midi": 28,
                    "name": "E1",
                    "ticks": 64560,
                    "time": 217.96129800000003,
                    "velocity": 1
                },
                {
                    "duration": 0.14423050000002036,
                    "durationTicks": 60,
                    "midi": 28,
                    "name": "E1",
                    "ticks": 64620,
                    "time": 218.10552850000002,
                    "velocity": 1
                },
                {
                    "duration": 0.14423049999999193,
                    "durationTicks": 60,
                    "midi": 40,
                    "name": "E2",
                    "ticks": 64680,
                    "time": 218.24975900000004,
                    "velocity": 1
                },
                {
                    "duration": 0.14423049999999193,
                    "durationTicks": 60,
                    "midi": 40,
                    "name": "E2",
                    "ticks": 64740,
                    "time": 218.39398950000003,
                    "velocity": 1
                },
                {
                    "duration": 0.14423050000002036,
                    "durationTicks": 60,
                    "midi": 28,
                    "name": "E1",
                    "ticks": 64800,
                    "time": 218.53822000000002,
                    "velocity": 1
                },
                {
                    "duration": 0.14423049999999193,
                    "durationTicks": 60,
                    "midi": 28,
                    "name": "E1",
                    "ticks": 64860,
                    "time": 218.68245050000004,
                    "velocity": 1
                },
                {
                    "duration": 0.14423049999999193,
                    "durationTicks": 60,
                    "midi": 40,
                    "name": "E2",
                    "ticks": 64920,
                    "time": 218.82668100000004,
                    "velocity": 1
                },
                {
                    "duration": 0.14423049999999193,
                    "durationTicks": 60,
                    "midi": 40,
                    "name": "E2",
                    "ticks": 64980,
                    "time": 218.97091150000003,
                    "velocity": 1
                },
                {
                    "duration": 0.14423050000002036,
                    "durationTicks": 60,
                    "midi": 28,
                    "name": "E1",
                    "ticks": 65040,
                    "time": 219.11514200000002,
                    "velocity": 1
                },
                {
                    "duration": 0.14423049999999193,
                    "durationTicks": 60,
                    "midi": 28,
                    "name": "E1",
                    "ticks": 65100,
                    "time": 219.25937250000004,
                    "velocity": 1
                },
                {
                    "duration": 0.14423049999999193,
                    "durationTicks": 60,
                    "midi": 40,
                    "name": "E2",
                    "ticks": 65160,
                    "time": 219.40360300000003,
                    "velocity": 1
                },
                {
                    "duration": 0.14423049999999193,
                    "durationTicks": 60,
                    "midi": 40,
                    "name": "E2",
                    "ticks": 65220,
                    "time": 219.54783350000002,
                    "velocity": 1
                },
                {
                    "duration": 0.2884610000000123,
                    "durationTicks": 120,
                    "midi": 31,
                    "name": "G1",
                    "ticks": 65280,
                    "time": 219.69206400000002,
                    "velocity": 1
                },
                {
                    "duration": 0.2884610000000123,
                    "durationTicks": 120,
                    "midi": 31,
                    "name": "G1",
                    "ticks": 65400,
                    "time": 219.98052500000003,
                    "velocity": 1
                },
                {
                    "duration": 0.14423049999999193,
                    "durationTicks": 60,
                    "midi": 31,
                    "name": "G1",
                    "ticks": 65520,
                    "time": 220.26898600000004,
                    "velocity": 1
                },
                {
                    "duration": 0.14423049999999193,
                    "durationTicks": 60,
                    "midi": 31,
                    "name": "G1",
                    "ticks": 65580,
                    "time": 220.41321650000003,
                    "velocity": 1
                },
                {
                    "duration": 0.2884610000000123,
                    "durationTicks": 120,
                    "midi": 31,
                    "name": "G1",
                    "ticks": 65640,
                    "time": 220.55744700000002,
                    "velocity": 1
                },
                {
                    "duration": 0.28846099999998387,
                    "durationTicks": 120,
                    "midi": 30,
                    "name": "F#1",
                    "ticks": 65760,
                    "time": 220.84590800000004,
                    "velocity": 1
                },
                {
                    "duration": 0.2884610000000123,
                    "durationTicks": 120,
                    "midi": 30,
                    "name": "F#1",
                    "ticks": 65880,
                    "time": 221.13436900000002,
                    "velocity": 1
                },
                {
                    "duration": 0.28846099999998387,
                    "durationTicks": 120,
                    "midi": 29,
                    "name": "F1",
                    "ticks": 66000,
                    "time": 221.42283000000003,
                    "velocity": 1
                },
                {
                    "duration": 0.2884610000000123,
                    "durationTicks": 120,
                    "midi": 29,
                    "name": "F1",
                    "ticks": 66120,
                    "time": 221.71129100000002,
                    "velocity": 1
                },
                {
                    "duration": 0.14423049999999193,
                    "durationTicks": 60,
                    "midi": 28,
                    "name": "E1",
                    "ticks": 66240,
                    "time": 221.99975200000003,
                    "velocity": 1
                },
                {
                    "duration": 0.14423050000002036,
                    "durationTicks": 60,
                    "midi": 28,
                    "name": "E1",
                    "ticks": 66300,
                    "time": 222.14398250000002,
                    "velocity": 1
                },
                {
                    "duration": 0.14423049999999193,
                    "durationTicks": 60,
                    "midi": 40,
                    "name": "E2",
                    "ticks": 66360,
                    "time": 222.28821300000004,
                    "velocity": 1
                },
                {
                    "duration": 0.14423049999999193,
                    "durationTicks": 60,
                    "midi": 40,
                    "name": "E2",
                    "ticks": 66420,
                    "time": 222.43244350000003,
                    "velocity": 1
                },
                {
                    "duration": 0.14423049999999193,
                    "durationTicks": 60,
                    "midi": 28,
                    "name": "E1",
                    "ticks": 66480,
                    "time": 222.57667400000003,
                    "velocity": 1
                },
                {
                    "duration": 0.14423050000002036,
                    "durationTicks": 60,
                    "midi": 28,
                    "name": "E1",
                    "ticks": 66540,
                    "time": 222.72090450000002,
                    "velocity": 1
                },
                {
                    "duration": 0.14423049999999193,
                    "durationTicks": 60,
                    "midi": 40,
                    "name": "E2",
                    "ticks": 66600,
                    "time": 222.86513500000004,
                    "velocity": 1
                },
                {
                    "duration": 0.14423049999999193,
                    "durationTicks": 60,
                    "midi": 40,
                    "name": "E2",
                    "ticks": 66660,
                    "time": 223.00936550000003,
                    "velocity": 1
                },
                {
                    "duration": 0.14423050000002036,
                    "durationTicks": 60,
                    "midi": 28,
                    "name": "E1",
                    "ticks": 66720,
                    "time": 223.15359600000002,
                    "velocity": 1
                },
                {
                    "duration": 0.14423049999999193,
                    "durationTicks": 60,
                    "midi": 28,
                    "name": "E1",
                    "ticks": 66780,
                    "time": 223.29782650000004,
                    "velocity": 1
                },
                {
                    "duration": 0.14423049999999193,
                    "durationTicks": 60,
                    "midi": 40,
                    "name": "E2",
                    "ticks": 66840,
                    "time": 223.44205700000003,
                    "velocity": 1
                },
                {
                    "duration": 0.14423049999999193,
                    "durationTicks": 60,
                    "midi": 40,
                    "name": "E2",
                    "ticks": 66900,
                    "time": 223.58628750000003,
                    "velocity": 1
                },
                {
                    "duration": 0.14423050000002036,
                    "durationTicks": 60,
                    "midi": 28,
                    "name": "E1",
                    "ticks": 66960,
                    "time": 223.73051800000002,
                    "velocity": 1
                },
                {
                    "duration": 0.14423049999999193,
                    "durationTicks": 60,
                    "midi": 28,
                    "name": "E1",
                    "ticks": 67020,
                    "time": 223.87474850000004,
                    "velocity": 1
                },
                {
                    "duration": 0.14423049999999193,
                    "durationTicks": 60,
                    "midi": 40,
                    "name": "E2",
                    "ticks": 67080,
                    "time": 224.01897900000003,
                    "velocity": 1
                },
                {
                    "duration": 0.14423050000002036,
                    "durationTicks": 60,
                    "midi": 40,
                    "name": "E2",
                    "ticks": 67140,
                    "time": 224.16320950000002,
                    "velocity": 1
                },
                {
                    "duration": 0.28846099999998387,
                    "durationTicks": 120,
                    "midi": 31,
                    "name": "G1",
                    "ticks": 67200,
                    "time": 224.30744000000004,
                    "velocity": 1
                },
                {
                    "duration": 0.2884610000000123,
                    "durationTicks": 120,
                    "midi": 31,
                    "name": "G1",
                    "ticks": 67320,
                    "time": 224.59590100000003,
                    "velocity": 1
                },
                {
                    "duration": 0.14423049999999193,
                    "durationTicks": 60,
                    "midi": 31,
                    "name": "G1",
                    "ticks": 67440,
                    "time": 224.88436200000004,
                    "velocity": 1
                },
                {
                    "duration": 0.14423049999999193,
                    "durationTicks": 60,
                    "midi": 31,
                    "name": "G1",
                    "ticks": 67500,
                    "time": 225.02859250000003,
                    "velocity": 1
                },
                {
                    "duration": 0.2884610000000123,
                    "durationTicks": 120,
                    "midi": 31,
                    "name": "G1",
                    "ticks": 67560,
                    "time": 225.17282300000002,
                    "velocity": 1
                },
                {
                    "duration": 0.28846099999998387,
                    "durationTicks": 120,
                    "midi": 30,
                    "name": "F#1",
                    "ticks": 67680,
                    "time": 225.46128400000003,
                    "velocity": 1
                },
                {
                    "duration": 0.2884610000000123,
                    "durationTicks": 120,
                    "midi": 30,
                    "name": "F#1",
                    "ticks": 67800,
                    "time": 225.74974500000002,
                    "velocity": 1
                },
                {
                    "duration": 0.2884610000000123,
                    "durationTicks": 120,
                    "midi": 29,
                    "name": "F1",
                    "ticks": 67920,
                    "time": 226.03820600000003,
                    "velocity": 1
                },
                {
                    "duration": 0.28846099999998387,
                    "durationTicks": 120,
                    "midi": 29,
                    "name": "F1",
                    "ticks": 68040,
                    "time": 226.32666700000004,
                    "velocity": 1
                },
                {
                    "duration": 0.14423049999999193,
                    "durationTicks": 60,
                    "midi": 28,
                    "name": "E1",
                    "ticks": 68160,
                    "time": 226.61512800000003,
                    "velocity": 1
                },
                {
                    "duration": 0.14423050000002036,
                    "durationTicks": 60,
                    "midi": 28,
                    "name": "E1",
                    "ticks": 68220,
                    "time": 226.75935850000002,
                    "velocity": 1
                },
                {
                    "duration": 0.14423049999999193,
                    "durationTicks": 60,
                    "midi": 40,
                    "name": "E2",
                    "ticks": 68280,
                    "time": 226.90358900000004,
                    "velocity": 1
                },
                {
                    "duration": 0.14423049999999193,
                    "durationTicks": 60,
                    "midi": 40,
                    "name": "E2",
                    "ticks": 68340,
                    "time": 227.04781950000003,
                    "velocity": 1
                },
                {
                    "duration": 0.14423050000002036,
                    "durationTicks": 60,
                    "midi": 28,
                    "name": "E1",
                    "ticks": 68400,
                    "time": 227.19205000000002,
                    "velocity": 1
                },
                {
                    "duration": 0.14423049999999193,
                    "durationTicks": 60,
                    "midi": 28,
                    "name": "E1",
                    "ticks": 68460,
                    "time": 227.33628050000004,
                    "velocity": 1
                },
                {
                    "duration": 0.14423049999999193,
                    "durationTicks": 60,
                    "midi": 40,
                    "name": "E2",
                    "ticks": 68520,
                    "time": 227.48051100000004,
                    "velocity": 1
                },
                {
                    "duration": 0.14423049999999193,
                    "durationTicks": 60,
                    "midi": 40,
                    "name": "E2",
                    "ticks": 68580,
                    "time": 227.62474150000003,
                    "velocity": 1
                },
                {
                    "duration": 0.14423050000002036,
                    "durationTicks": 60,
                    "midi": 28,
                    "name": "E1",
                    "ticks": 68640,
                    "time": 227.76897200000002,
                    "velocity": 1
                },
                {
                    "duration": 0.14423049999999193,
                    "durationTicks": 60,
                    "midi": 28,
                    "name": "E1",
                    "ticks": 68700,
                    "time": 227.91320250000004,
                    "velocity": 1
                },
                {
                    "duration": 0.14423049999999193,
                    "durationTicks": 60,
                    "midi": 40,
                    "name": "E2",
                    "ticks": 68760,
                    "time": 228.05743300000003,
                    "velocity": 1
                },
                {
                    "duration": 0.14423050000002036,
                    "durationTicks": 60,
                    "midi": 40,
                    "name": "E2",
                    "ticks": 68820,
                    "time": 228.20166350000002,
                    "velocity": 1
                },
                {
                    "duration": 0.14423049999999193,
                    "durationTicks": 60,
                    "midi": 28,
                    "name": "E1",
                    "ticks": 68880,
                    "time": 228.34589400000004,
                    "velocity": 1
                },
                {
                    "duration": 0.14423049999999193,
                    "durationTicks": 60,
                    "midi": 28,
                    "name": "E1",
                    "ticks": 68940,
                    "time": 228.49012450000004,
                    "velocity": 1
                },
                {
                    "duration": 0.14423049999999193,
                    "durationTicks": 60,
                    "midi": 40,
                    "name": "E2",
                    "ticks": 69000,
                    "time": 228.63435500000003,
                    "velocity": 1
                },
                {
                    "duration": 0.14423050000002036,
                    "durationTicks": 60,
                    "midi": 40,
                    "name": "E2",
                    "ticks": 69060,
                    "time": 228.77858550000002,
                    "velocity": 1
                },
                {
                    "duration": 0.28846099999998387,
                    "durationTicks": 120,
                    "midi": 31,
                    "name": "G1",
                    "ticks": 69120,
                    "time": 228.92281600000004,
                    "velocity": 1
                },
                {
                    "duration": 0.2884610000000123,
                    "durationTicks": 120,
                    "midi": 31,
                    "name": "G1",
                    "ticks": 69240,
                    "time": 229.21127700000002,
                    "velocity": 1
                },
                {
                    "duration": 0.14423049999999193,
                    "durationTicks": 60,
                    "midi": 31,
                    "name": "G1",
                    "ticks": 69360,
                    "time": 229.49973800000004,
                    "velocity": 1
                },
                {
                    "duration": 0.14423049999999193,
                    "durationTicks": 60,
                    "midi": 31,
                    "name": "G1",
                    "ticks": 69420,
                    "time": 229.64396850000003,
                    "velocity": 1
                },
                {
                    "duration": 0.2884610000000123,
                    "durationTicks": 120,
                    "midi": 31,
                    "name": "G1",
                    "ticks": 69480,
                    "time": 229.78819900000002,
                    "velocity": 1
                },
                {
                    "duration": 0.2884610000000123,
                    "durationTicks": 120,
                    "midi": 30,
                    "name": "F#1",
                    "ticks": 69600,
                    "time": 230.07666000000003,
                    "velocity": 1
                },
                {
                    "duration": 0.28846099999998387,
                    "durationTicks": 120,
                    "midi": 30,
                    "name": "F#1",
                    "ticks": 69720,
                    "time": 230.36512100000004,
                    "velocity": 1
                },
                {
                    "duration": 0.2884610000000123,
                    "durationTicks": 120,
                    "midi": 29,
                    "name": "F1",
                    "ticks": 69840,
                    "time": 230.65358200000003,
                    "velocity": 1
                },
                {
                    "duration": 0.28846099999998387,
                    "durationTicks": 120,
                    "midi": 29,
                    "name": "F1",
                    "ticks": 69960,
                    "time": 230.94204300000004,
                    "velocity": 1
                },
                {
                    "duration": 0.14423050000002036,
                    "durationTicks": 60,
                    "midi": 38,
                    "name": "D2",
                    "ticks": 70080,
                    "time": 231.23050400000002,
                    "velocity": 1
                },
                {
                    "duration": 0.14423049999999193,
                    "durationTicks": 60,
                    "midi": 40,
                    "name": "E2",
                    "ticks": 70140,
                    "time": 231.37473450000005,
                    "velocity": 1
                },
                {
                    "duration": 0.14423049999999193,
                    "durationTicks": 60,
                    "midi": 28,
                    "name": "E1",
                    "ticks": 70200,
                    "time": 231.51896500000004,
                    "velocity": 1
                },
                {
                    "duration": 0.14423049999999193,
                    "durationTicks": 60,
                    "midi": 40,
                    "name": "E2",
                    "ticks": 70260,
                    "time": 231.66319550000003,
                    "velocity": 1
                },
                {
                    "duration": 0.14423050000002036,
                    "durationTicks": 60,
                    "midi": 28,
                    "name": "E1",
                    "ticks": 70320,
                    "time": 231.80742600000002,
                    "velocity": 1
                },
                {
                    "duration": 0.14423049999999193,
                    "durationTicks": 60,
                    "midi": 28,
                    "name": "E1",
                    "ticks": 70380,
                    "time": 231.95165650000004,
                    "velocity": 1
                },
                {
                    "duration": 0.14423049999999193,
                    "durationTicks": 60,
                    "midi": 40,
                    "name": "E2",
                    "ticks": 70440,
                    "time": 232.09588700000003,
                    "velocity": 1
                },
                {
                    "duration": 0.14423050000002036,
                    "durationTicks": 60,
                    "midi": 28,
                    "name": "E1",
                    "ticks": 70500,
                    "time": 232.24011750000003,
                    "velocity": 1
                },
                {
                    "duration": 0.14423049999999193,
                    "durationTicks": 60,
                    "midi": 38,
                    "name": "D2",
                    "ticks": 70560,
                    "time": 232.38434800000005,
                    "velocity": 1
                },
                {
                    "duration": 0.14423049999999193,
                    "durationTicks": 60,
                    "midi": 40,
                    "name": "E2",
                    "ticks": 70620,
                    "time": 232.52857850000004,
                    "velocity": 1
                },
                {
                    "duration": 0.14423049999999193,
                    "durationTicks": 60,
                    "midi": 28,
                    "name": "E1",
                    "ticks": 70680,
                    "time": 232.67280900000003,
                    "velocity": 1
                },
                {
                    "duration": 0.14423050000002036,
                    "durationTicks": 60,
                    "midi": 40,
                    "name": "E2",
                    "ticks": 70740,
                    "time": 232.81703950000002,
                    "velocity": 1
                },
                {
                    "duration": 0.14423049999999193,
                    "durationTicks": 60,
                    "midi": 28,
                    "name": "E1",
                    "ticks": 70800,
                    "time": 232.96127000000004,
                    "velocity": 1
                },
                {
                    "duration": 0.14423049999999193,
                    "durationTicks": 60,
                    "midi": 28,
                    "name": "E1",
                    "ticks": 70860,
                    "time": 233.10550050000003,
                    "velocity": 1
                },
                {
                    "duration": 0.14423050000002036,
                    "durationTicks": 60,
                    "midi": 40,
                    "name": "E2",
                    "ticks": 70920,
                    "time": 233.24973100000003,
                    "velocity": 1
                },
                {
                    "duration": 0.14423049999999193,
                    "durationTicks": 60,
                    "midi": 28,
                    "name": "E1",
                    "ticks": 70980,
                    "time": 233.39396150000005,
                    "velocity": 1
                },
                {
                    "duration": 0.14423049999999193,
                    "durationTicks": 60,
                    "midi": 37,
                    "name": "C#2",
                    "ticks": 71040,
                    "time": 233.53819200000004,
                    "velocity": 1
                },
                {
                    "duration": 0.14423049999999193,
                    "durationTicks": 60,
                    "midi": 40,
                    "name": "E2",
                    "ticks": 71100,
                    "time": 233.68242250000003,
                    "velocity": 1
                },
                {
                    "duration": 0.14423050000002036,
                    "durationTicks": 60,
                    "midi": 28,
                    "name": "E1",
                    "ticks": 71160,
                    "time": 233.82665300000002,
                    "velocity": 1
                },
                {
                    "duration": 0.14423049999999193,
                    "durationTicks": 60,
                    "midi": 40,
                    "name": "E2",
                    "ticks": 71220,
                    "time": 233.97088350000004,
                    "velocity": 1
                },
                {
                    "duration": 0.14423049999999193,
                    "durationTicks": 60,
                    "midi": 28,
                    "name": "E1",
                    "ticks": 71280,
                    "time": 234.11511400000003,
                    "velocity": 1
                },
                {
                    "duration": 0.14423050000002036,
                    "durationTicks": 60,
                    "midi": 28,
                    "name": "E1",
                    "ticks": 71340,
                    "time": 234.25934450000003,
                    "velocity": 1
                },
                {
                    "duration": 0.14423049999999193,
                    "durationTicks": 60,
                    "midi": 40,
                    "name": "E2",
                    "ticks": 71400,
                    "time": 234.40357500000005,
                    "velocity": 1
                },
                {
                    "duration": 0.14423049999999193,
                    "durationTicks": 60,
                    "midi": 28,
                    "name": "E1",
                    "ticks": 71460,
                    "time": 234.54780550000004,
                    "velocity": 1
                },
                {
                    "duration": 0.14423049999999193,
                    "durationTicks": 60,
                    "midi": 31,
                    "name": "G1",
                    "ticks": 71520,
                    "time": 234.69203600000003,
                    "velocity": 1
                },
                {
                    "duration": 0.14423050000002036,
                    "durationTicks": 60,
                    "midi": 30,
                    "name": "F#1",
                    "ticks": 71580,
                    "time": 234.83626650000002,
                    "velocity": 1
                },
                {
                    "duration": 0.14423049999999193,
                    "durationTicks": 60,
                    "midi": 28,
                    "name": "E1",
                    "ticks": 71640,
                    "time": 234.98049700000004,
                    "velocity": 1
                },
                {
                    "duration": 0.14423049999999193,
                    "durationTicks": 60,
                    "midi": 36,
                    "name": "C2",
                    "ticks": 71700,
                    "time": 235.12472750000003,
                    "velocity": 1
                },
                {
                    "duration": 0.14423050000002036,
                    "durationTicks": 60,
                    "midi": 35,
                    "name": "B1",
                    "ticks": 71760,
                    "time": 235.26895800000003,
                    "velocity": 1
                },
                {
                    "duration": 0.14423049999999193,
                    "durationTicks": 60,
                    "midi": 33,
                    "name": "A1",
                    "ticks": 71820,
                    "time": 235.41318850000005,
                    "velocity": 1
                },
                {
                    "duration": 0.14423049999999193,
                    "durationTicks": 60,
                    "midi": 31,
                    "name": "G1",
                    "ticks": 71880,
                    "time": 235.55741900000004,
                    "velocity": 1
                },
                {
                    "duration": 0.14423049999999193,
                    "durationTicks": 60,
                    "midi": 28,
                    "name": "E1",
                    "ticks": 71940,
                    "time": 235.70164950000003,
                    "velocity": 1
                },
                {
                    "duration": 0.14423050000002036,
                    "durationTicks": 60,
                    "midi": 38,
                    "name": "D2",
                    "ticks": 72000,
                    "time": 235.84588000000002,
                    "velocity": 1
                },
                {
                    "duration": 0.14423049999999193,
                    "durationTicks": 60,
                    "midi": 40,
                    "name": "E2",
                    "ticks": 72060,
                    "time": 235.99011050000004,
                    "velocity": 1
                },
                {
                    "duration": 0.14423049999999193,
                    "durationTicks": 60,
                    "midi": 28,
                    "name": "E1",
                    "ticks": 72120,
                    "time": 236.13434100000003,
                    "velocity": 1
                },
                {
                    "duration": 0.14423050000002036,
                    "durationTicks": 60,
                    "midi": 40,
                    "name": "E2",
                    "ticks": 72180,
                    "time": 236.27857150000003,
                    "velocity": 1
                },
                {
                    "duration": 0.14423049999999193,
                    "durationTicks": 60,
                    "midi": 28,
                    "name": "E1",
                    "ticks": 72240,
                    "time": 236.42280200000005,
                    "velocity": 1
                },
                {
                    "duration": 0.14423049999999193,
                    "durationTicks": 60,
                    "midi": 28,
                    "name": "E1",
                    "ticks": 72300,
                    "time": 236.56703250000004,
                    "velocity": 1
                },
                {
                    "duration": 0.14423049999999193,
                    "durationTicks": 60,
                    "midi": 40,
                    "name": "E2",
                    "ticks": 72360,
                    "time": 236.71126300000003,
                    "velocity": 1
                },
                {
                    "duration": 0.14423050000002036,
                    "durationTicks": 60,
                    "midi": 28,
                    "name": "E1",
                    "ticks": 72420,
                    "time": 236.85549350000002,
                    "velocity": 1
                },
                {
                    "duration": 0.14423049999999193,
                    "durationTicks": 60,
                    "midi": 38,
                    "name": "D2",
                    "ticks": 72480,
                    "time": 236.99972400000004,
                    "velocity": 1
                },
                {
                    "duration": 0.14423049999999193,
                    "durationTicks": 60,
                    "midi": 40,
                    "name": "E2",
                    "ticks": 72540,
                    "time": 237.14395450000004,
                    "velocity": 1
                },
                {
                    "duration": 0.14423050000002036,
                    "durationTicks": 60,
                    "midi": 28,
                    "name": "E1",
                    "ticks": 72600,
                    "time": 237.28818500000003,
                    "velocity": 1
                },
                {
                    "duration": 0.14423049999999193,
                    "durationTicks": 60,
                    "midi": 40,
                    "name": "E2",
                    "ticks": 72660,
                    "time": 237.43241550000005,
                    "velocity": 1
                },
                {
                    "duration": 0.14423049999999193,
                    "durationTicks": 60,
                    "midi": 28,
                    "name": "E1",
                    "ticks": 72720,
                    "time": 237.57664600000004,
                    "velocity": 1
                },
                {
                    "duration": 0.14423049999999193,
                    "durationTicks": 60,
                    "midi": 28,
                    "name": "E1",
                    "ticks": 72780,
                    "time": 237.72087650000003,
                    "velocity": 1
                },
                {
                    "duration": 0.14423050000002036,
                    "durationTicks": 60,
                    "midi": 40,
                    "name": "E2",
                    "ticks": 72840,
                    "time": 237.86510700000002,
                    "velocity": 1
                },
                {
                    "duration": 0.14423049999999193,
                    "durationTicks": 60,
                    "midi": 28,
                    "name": "E1",
                    "ticks": 72900,
                    "time": 238.00933750000004,
                    "velocity": 1
                },
                {
                    "duration": 0.14423049999999193,
                    "durationTicks": 60,
                    "midi": 37,
                    "name": "C#2",
                    "ticks": 72960,
                    "time": 238.15356800000004,
                    "velocity": 1
                },
                {
                    "duration": 0.14423050000002036,
                    "durationTicks": 60,
                    "midi": 40,
                    "name": "E2",
                    "ticks": 73020,
                    "time": 238.29779850000003,
                    "velocity": 1
                },
                {
                    "duration": 0.14423049999999193,
                    "durationTicks": 60,
                    "midi": 28,
                    "name": "E1",
                    "ticks": 73080,
                    "time": 238.44202900000005,
                    "velocity": 1
                },
                {
                    "duration": 0.14423049999999193,
                    "durationTicks": 60,
                    "midi": 40,
                    "name": "E2",
                    "ticks": 73140,
                    "time": 238.58625950000004,
                    "velocity": 1
                },
                {
                    "duration": 0.14423049999999193,
                    "durationTicks": 60,
                    "midi": 28,
                    "name": "E1",
                    "ticks": 73200,
                    "time": 238.73049000000003,
                    "velocity": 1
                },
                {
                    "duration": 0.14423050000002036,
                    "durationTicks": 60,
                    "midi": 28,
                    "name": "E1",
                    "ticks": 73260,
                    "time": 238.87472050000002,
                    "velocity": 1
                },
                {
                    "duration": 0.14423049999999193,
                    "durationTicks": 60,
                    "midi": 40,
                    "name": "E2",
                    "ticks": 73320,
                    "time": 239.01895100000004,
                    "velocity": 1
                },
                {
                    "duration": 0.14423049999999193,
                    "durationTicks": 60,
                    "midi": 28,
                    "name": "E1",
                    "ticks": 73380,
                    "time": 239.16318150000004,
                    "velocity": 1
                },
                {
                    "duration": 0.14423050000002036,
                    "durationTicks": 60,
                    "midi": 31,
                    "name": "G1",
                    "ticks": 73440,
                    "time": 239.30741200000003,
                    "velocity": 1
                },
                {
                    "duration": 0.14423049999999193,
                    "durationTicks": 60,
                    "midi": 30,
                    "name": "F#1",
                    "ticks": 73500,
                    "time": 239.45164250000005,
                    "velocity": 1
                },
                {
                    "duration": 0.14423049999999193,
                    "durationTicks": 60,
                    "midi": 28,
                    "name": "E1",
                    "ticks": 73560,
                    "time": 239.59587300000004,
                    "velocity": 1
                },
                {
                    "duration": 0.14423049999999193,
                    "durationTicks": 60,
                    "midi": 36,
                    "name": "C2",
                    "ticks": 73620,
                    "time": 239.74010350000003,
                    "velocity": 1
                },
                {
                    "duration": 0.14423050000002036,
                    "durationTicks": 60,
                    "midi": 35,
                    "name": "B1",
                    "ticks": 73680,
                    "time": 239.88433400000002,
                    "velocity": 1
                },
                {
                    "duration": 0.14423049999999193,
                    "durationTicks": 60,
                    "midi": 33,
                    "name": "A1",
                    "ticks": 73740,
                    "time": 240.02856450000004,
                    "velocity": 1
                },
                {
                    "duration": 0.14423049999999193,
                    "durationTicks": 60,
                    "midi": 31,
                    "name": "G1",
                    "ticks": 73800,
                    "time": 240.17279500000004,
                    "velocity": 1
                },
                {
                    "duration": 0.14423050000002036,
                    "durationTicks": 60,
                    "midi": 28,
                    "name": "E1",
                    "ticks": 73860,
                    "time": 240.31702550000003,
                    "velocity": 1
                },
                {
                    "duration": 0.14423049999999193,
                    "durationTicks": 60,
                    "midi": 38,
                    "name": "D2",
                    "ticks": 73920,
                    "time": 240.46125600000005,
                    "velocity": 1
                },
                {
                    "duration": 0.14423049999999193,
                    "durationTicks": 60,
                    "midi": 40,
                    "name": "E2",
                    "ticks": 73980,
                    "time": 240.60548650000004,
                    "velocity": 1
                },
                {
                    "duration": 0.14423049999999193,
                    "durationTicks": 60,
                    "midi": 28,
                    "name": "E1",
                    "ticks": 74040,
                    "time": 240.74971700000003,
                    "velocity": 1
                },
                {
                    "duration": 0.14423049999999193,
                    "durationTicks": 60,
                    "midi": 40,
                    "name": "E2",
                    "ticks": 74100,
                    "time": 240.89394750000002,
                    "velocity": 1
                },
                {
                    "duration": 0.14423050000002036,
                    "durationTicks": 60,
                    "midi": 28,
                    "name": "E1",
                    "ticks": 74160,
                    "time": 241.03817800000002,
                    "velocity": 1
                },
                {
                    "duration": 0.14423049999999193,
                    "durationTicks": 60,
                    "midi": 28,
                    "name": "E1",
                    "ticks": 74220,
                    "time": 241.18240850000004,
                    "velocity": 1
                },
                {
                    "duration": 0.14423050000002036,
                    "durationTicks": 60,
                    "midi": 40,
                    "name": "E2",
                    "ticks": 74280,
                    "time": 241.32663900000003,
                    "velocity": 1
                },
                {
                    "duration": 0.14423049999999193,
                    "durationTicks": 60,
                    "midi": 28,
                    "name": "E1",
                    "ticks": 74340,
                    "time": 241.47086950000005,
                    "velocity": 1
                },
                {
                    "duration": 0.14423049999999193,
                    "durationTicks": 60,
                    "midi": 38,
                    "name": "D2",
                    "ticks": 74400,
                    "time": 241.61510000000004,
                    "velocity": 1
                },
                {
                    "duration": 0.14423049999999193,
                    "durationTicks": 60,
                    "midi": 40,
                    "name": "E2",
                    "ticks": 74460,
                    "time": 241.75933050000003,
                    "velocity": 1
                },
                {
                    "duration": 0.14423049999999193,
                    "durationTicks": 60,
                    "midi": 28,
                    "name": "E1",
                    "ticks": 74520,
                    "time": 241.90356100000002,
                    "velocity": 1
                },
                {
                    "duration": 0.14423050000002036,
                    "durationTicks": 60,
                    "midi": 40,
                    "name": "E2",
                    "ticks": 74580,
                    "time": 242.04779150000002,
                    "velocity": 1
                },
                {
                    "duration": 0.14423049999999193,
                    "durationTicks": 60,
                    "midi": 28,
                    "name": "E1",
                    "ticks": 74640,
                    "time": 242.19202200000004,
                    "velocity": 1
                },
                {
                    "duration": 0.14423050000002036,
                    "durationTicks": 60,
                    "midi": 28,
                    "name": "E1",
                    "ticks": 74700,
                    "time": 242.33625250000003,
                    "velocity": 1
                },
                {
                    "duration": 0.14423049999999193,
                    "durationTicks": 60,
                    "midi": 40,
                    "name": "E2",
                    "ticks": 74760,
                    "time": 242.48048300000005,
                    "velocity": 1
                },
                {
                    "duration": 0.14423049999999193,
                    "durationTicks": 60,
                    "midi": 28,
                    "name": "E1",
                    "ticks": 74820,
                    "time": 242.62471350000004,
                    "velocity": 1
                },
                {
                    "duration": 0.14423049999999193,
                    "durationTicks": 60,
                    "midi": 37,
                    "name": "C#2",
                    "ticks": 74880,
                    "time": 242.76894400000003,
                    "velocity": 1
                },
                {
                    "duration": 0.14423049999999193,
                    "durationTicks": 60,
                    "midi": 40,
                    "name": "E2",
                    "ticks": 74940,
                    "time": 242.91317450000003,
                    "velocity": 1
                },
                {
                    "duration": 0.14423050000002036,
                    "durationTicks": 60,
                    "midi": 28,
                    "name": "E1",
                    "ticks": 75000,
                    "time": 243.05740500000002,
                    "velocity": 1
                },
                {
                    "duration": 0.14423049999999193,
                    "durationTicks": 60,
                    "midi": 40,
                    "name": "E2",
                    "ticks": 75060,
                    "time": 243.20163550000004,
                    "velocity": 1
                },
                {
                    "duration": 0.14423050000002036,
                    "durationTicks": 60,
                    "midi": 28,
                    "name": "E1",
                    "ticks": 75120,
                    "time": 243.34586600000003,
                    "velocity": 1
                },
                {
                    "duration": 0.14423049999999193,
                    "durationTicks": 60,
                    "midi": 28,
                    "name": "E1",
                    "ticks": 75180,
                    "time": 243.49009650000005,
                    "velocity": 1
                },
                {
                    "duration": 0.14423049999999193,
                    "durationTicks": 60,
                    "midi": 40,
                    "name": "E2",
                    "ticks": 75240,
                    "time": 243.63432700000004,
                    "velocity": 1
                },
                {
                    "duration": 0.14423049999999193,
                    "durationTicks": 60,
                    "midi": 28,
                    "name": "E1",
                    "ticks": 75300,
                    "time": 243.77855750000003,
                    "velocity": 1
                },
                {
                    "duration": 0.14423049999999193,
                    "durationTicks": 60,
                    "midi": 31,
                    "name": "G1",
                    "ticks": 75360,
                    "time": 243.92278800000003,
                    "velocity": 1
                },
                {
                    "duration": 0.14423050000002036,
                    "durationTicks": 60,
                    "midi": 30,
                    "name": "F#1",
                    "ticks": 75420,
                    "time": 244.06701850000002,
                    "velocity": 1
                },
                {
                    "duration": 0.14423049999999193,
                    "durationTicks": 60,
                    "midi": 28,
                    "name": "E1",
                    "ticks": 75480,
                    "time": 244.21124900000004,
                    "velocity": 1
                },
                {
                    "duration": 0.14423050000002036,
                    "durationTicks": 60,
                    "midi": 36,
                    "name": "C2",
                    "ticks": 75540,
                    "time": 244.35547950000003,
                    "velocity": 1
                },
                {
                    "duration": 0.14423049999999193,
                    "durationTicks": 60,
                    "midi": 35,
                    "name": "B1",
                    "ticks": 75600,
                    "time": 244.49971000000005,
                    "velocity": 1
                },
                {
                    "duration": 0.14423049999999193,
                    "durationTicks": 60,
                    "midi": 33,
                    "name": "A1",
                    "ticks": 75660,
                    "time": 244.64394050000004,
                    "velocity": 1
                },
                {
                    "duration": 0.14423049999999193,
                    "durationTicks": 60,
                    "midi": 31,
                    "name": "G1",
                    "ticks": 75720,
                    "time": 244.78817100000003,
                    "velocity": 1
                },
                {
                    "duration": 0.14423049999999193,
                    "durationTicks": 60,
                    "midi": 28,
                    "name": "E1",
                    "ticks": 75780,
                    "time": 244.93240150000003,
                    "velocity": 1
                },
                {
                    "duration": 0.14423050000002036,
                    "durationTicks": 60,
                    "midi": 38,
                    "name": "D2",
                    "ticks": 75840,
                    "time": 245.07663200000002,
                    "velocity": 1
                },
                {
                    "duration": 0.14423049999999193,
                    "durationTicks": 60,
                    "midi": 40,
                    "name": "E2",
                    "ticks": 75900,
                    "time": 245.22086250000004,
                    "velocity": 1
                },
                {
                    "duration": 0.14423050000002036,
                    "durationTicks": 60,
                    "midi": 28,
                    "name": "E1",
                    "ticks": 75960,
                    "time": 245.36509300000003,
                    "velocity": 1
                },
                {
                    "duration": 0.14423049999999193,
                    "durationTicks": 60,
                    "midi": 40,
                    "name": "E2",
                    "ticks": 76020,
                    "time": 245.50932350000005,
                    "velocity": 1
                },
                {
                    "duration": 0.14423049999999193,
                    "durationTicks": 60,
                    "midi": 28,
                    "name": "E1",
                    "ticks": 76080,
                    "time": 245.65355400000004,
                    "velocity": 1
                },
                {
                    "duration": 0.14423049999999193,
                    "durationTicks": 60,
                    "midi": 28,
                    "name": "E1",
                    "ticks": 76140,
                    "time": 245.79778450000003,
                    "velocity": 1
                },
                {
                    "duration": 0.14423049999999193,
                    "durationTicks": 60,
                    "midi": 40,
                    "name": "E2",
                    "ticks": 76200,
                    "time": 245.94201500000003,
                    "velocity": 1
                },
                {
                    "duration": 0.14423050000002036,
                    "durationTicks": 60,
                    "midi": 28,
                    "name": "E1",
                    "ticks": 76260,
                    "time": 246.08624550000002,
                    "velocity": 1
                },
                {
                    "duration": 0.14423049999999193,
                    "durationTicks": 60,
                    "midi": 38,
                    "name": "D2",
                    "ticks": 76320,
                    "time": 246.23047600000004,
                    "velocity": 1
                },
                {
                    "duration": 0.14423050000002036,
                    "durationTicks": 60,
                    "midi": 40,
                    "name": "E2",
                    "ticks": 76380,
                    "time": 246.37470650000003,
                    "velocity": 1
                },
                {
                    "duration": 0.14423049999999193,
                    "durationTicks": 60,
                    "midi": 28,
                    "name": "E1",
                    "ticks": 76440,
                    "time": 246.51893700000005,
                    "velocity": 1
                },
                {
                    "duration": 0.14423049999999193,
                    "durationTicks": 60,
                    "midi": 40,
                    "name": "E2",
                    "ticks": 76500,
                    "time": 246.66316750000004,
                    "velocity": 1
                },
                {
                    "duration": 0.14423049999999193,
                    "durationTicks": 60,
                    "midi": 28,
                    "name": "E1",
                    "ticks": 76560,
                    "time": 246.80739800000003,
                    "velocity": 1
                },
                {
                    "duration": 0.14423049999999193,
                    "durationTicks": 60,
                    "midi": 28,
                    "name": "E1",
                    "ticks": 76620,
                    "time": 246.95162850000003,
                    "velocity": 1
                },
                {
                    "duration": 0.14423050000002036,
                    "durationTicks": 60,
                    "midi": 40,
                    "name": "E2",
                    "ticks": 76680,
                    "time": 247.09585900000002,
                    "velocity": 1
                },
                {
                    "duration": 0.14423049999999193,
                    "durationTicks": 60,
                    "midi": 28,
                    "name": "E1",
                    "ticks": 76740,
                    "time": 247.24008950000004,
                    "velocity": 1
                },
                {
                    "duration": 0.14423050000002036,
                    "durationTicks": 60,
                    "midi": 37,
                    "name": "C#2",
                    "ticks": 76800,
                    "time": 247.38432000000003,
                    "velocity": 1
                },
                {
                    "duration": 0.14423049999999193,
                    "durationTicks": 60,
                    "midi": 40,
                    "name": "E2",
                    "ticks": 76860,
                    "time": 247.52855050000005,
                    "velocity": 1
                },
                {
                    "duration": 0.14423049999999193,
                    "durationTicks": 60,
                    "midi": 28,
                    "name": "E1",
                    "ticks": 76920,
                    "time": 247.67278100000004,
                    "velocity": 1
                },
                {
                    "duration": 0.14423049999999193,
                    "durationTicks": 60,
                    "midi": 40,
                    "name": "E2",
                    "ticks": 76980,
                    "time": 247.81701150000004,
                    "velocity": 1
                },
                {
                    "duration": 0.14423049999999193,
                    "durationTicks": 60,
                    "midi": 28,
                    "name": "E1",
                    "ticks": 77040,
                    "time": 247.96124200000003,
                    "velocity": 1
                },
                {
                    "duration": 0.14423050000002036,
                    "durationTicks": 60,
                    "midi": 28,
                    "name": "E1",
                    "ticks": 77100,
                    "time": 248.10547250000002,
                    "velocity": 1
                },
                {
                    "duration": 0.14423049999999193,
                    "durationTicks": 60,
                    "midi": 40,
                    "name": "E2",
                    "ticks": 77160,
                    "time": 248.24970300000004,
                    "velocity": 1
                },
                {
                    "duration": 0.14423050000002036,
                    "durationTicks": 60,
                    "midi": 28,
                    "name": "E1",
                    "ticks": 77220,
                    "time": 248.39393350000003,
                    "velocity": 1
                },
                {
                    "duration": 0.14423049999999193,
                    "durationTicks": 60,
                    "midi": 31,
                    "name": "G1",
                    "ticks": 77280,
                    "time": 248.53816400000005,
                    "velocity": 1
                },
                {
                    "duration": 0.14423049999999193,
                    "durationTicks": 60,
                    "midi": 30,
                    "name": "F#1",
                    "ticks": 77340,
                    "time": 248.68239450000004,
                    "velocity": 1
                },
                {
                    "duration": 0.14423049999999193,
                    "durationTicks": 60,
                    "midi": 28,
                    "name": "E1",
                    "ticks": 77400,
                    "time": 248.82662500000004,
                    "velocity": 1
                },
                {
                    "duration": 0.14423049999999193,
                    "durationTicks": 60,
                    "midi": 36,
                    "name": "C2",
                    "ticks": 77460,
                    "time": 248.97085550000003,
                    "velocity": 1
                },
                {
                    "duration": 0.14423050000002036,
                    "durationTicks": 60,
                    "midi": 35,
                    "name": "B1",
                    "ticks": 77520,
                    "time": 249.11508600000002,
                    "velocity": 1
                },
                {
                    "duration": 0.14423049999999193,
                    "durationTicks": 60,
                    "midi": 33,
                    "name": "A1",
                    "ticks": 77580,
                    "time": 249.25931650000004,
                    "velocity": 1
                },
                {
                    "duration": 0.14423050000002036,
                    "durationTicks": 60,
                    "midi": 31,
                    "name": "G1",
                    "ticks": 77640,
                    "time": 249.40354700000003,
                    "velocity": 1
                },
                {
                    "duration": 0.14423049999999193,
                    "durationTicks": 60,
                    "midi": 30,
                    "name": "F#1",
                    "ticks": 77700,
                    "time": 249.54777750000005,
                    "velocity": 1
                },
                {
                    "duration": 0.14423049999999193,
                    "durationTicks": 60,
                    "midi": 31,
                    "name": "G1",
                    "ticks": 77760,
                    "time": 249.69200800000004,
                    "velocity": 1
                },
                {
                    "duration": 0.14423049999999193,
                    "durationTicks": 60,
                    "midi": 30,
                    "name": "F#1",
                    "ticks": 77820,
                    "time": 249.83623850000004,
                    "velocity": 1
                },
                {
                    "duration": 0.14423049999999193,
                    "durationTicks": 60,
                    "midi": 28,
                    "name": "E1",
                    "ticks": 77880,
                    "time": 249.98046900000003,
                    "velocity": 1
                },
                {
                    "duration": 0.14423050000002036,
                    "durationTicks": 60,
                    "midi": 36,
                    "name": "C2",
                    "ticks": 77940,
                    "time": 250.12469950000002,
                    "velocity": 1
                },
                {
                    "duration": 0.14423049999999193,
                    "durationTicks": 60,
                    "midi": 35,
                    "name": "B1",
                    "ticks": 78000,
                    "time": 250.26893000000004,
                    "velocity": 1
                },
                {
                    "duration": 0.14423050000002036,
                    "durationTicks": 60,
                    "midi": 33,
                    "name": "A1",
                    "ticks": 78060,
                    "time": 250.41316050000003,
                    "velocity": 1
                },
                {
                    "duration": 0.14423049999999193,
                    "durationTicks": 60,
                    "midi": 31,
                    "name": "G1",
                    "ticks": 78120,
                    "time": 250.55739100000005,
                    "velocity": 1
                },
                {
                    "duration": 0.14423049999999193,
                    "durationTicks": 60,
                    "midi": 30,
                    "name": "F#1",
                    "ticks": 78180,
                    "time": 250.70162150000004,
                    "velocity": 1
                },
                {
                    "duration": 1.1538439999999923,
                    "durationTicks": 480,
                    "midi": 33,
                    "name": "A1",
                    "ticks": 78240,
                    "time": 250.84585200000004,
                    "velocity": 1
                },
                {
                    "duration": 0.42857100000000514,
                    "durationTicks": 120,
                    "midi": 33,
                    "name": "A1",
                    "ticks": 78720,
                    "time": 251.99969600000003,
                    "velocity": 1
                },
                {
                    "duration": 0.21428549999998836,
                    "durationTicks": 60,
                    "midi": 33,
                    "name": "A1",
                    "ticks": 79560,
                    "time": 254.99969300000004,
                    "velocity": 1
                },
                {
                    "duration": 0.21428550000001678,
                    "durationTicks": 60,
                    "midi": 33,
                    "name": "A1",
                    "ticks": 79620,
                    "time": 255.21397850000002,
                    "velocity": 1
                },
                {
                    "duration": 0.4285709999999767,
                    "durationTicks": 120,
                    "midi": 33,
                    "name": "A1",
                    "ticks": 79680,
                    "time": 255.42826400000004,
                    "velocity": 1
                },
                {
                    "duration": 0.21428550000001678,
                    "durationTicks": 60,
                    "midi": 33,
                    "name": "A1",
                    "ticks": 80520,
                    "time": 258.428261,
                    "velocity": 1
                },
                {
                    "duration": 0.21428550000001678,
                    "durationTicks": 60,
                    "midi": 33,
                    "name": "A1",
                    "ticks": 80580,
                    "time": 258.64254650000004,
                    "velocity": 1
                },
                {
                    "duration": 0.4285709999999767,
                    "durationTicks": 120,
                    "midi": 33,
                    "name": "A1",
                    "ticks": 80640,
                    "time": 258.85683200000005,
                    "velocity": 1
                },
                {
                    "duration": 0.21428550000001678,
                    "durationTicks": 60,
                    "midi": 33,
                    "name": "A1",
                    "ticks": 81600,
                    "time": 262.28540000000004,
                    "velocity": 1
                },
                {
                    "duration": 0.21428549999995994,
                    "durationTicks": 60,
                    "midi": 33,
                    "name": "A1",
                    "ticks": 81660,
                    "time": 262.49968550000006,
                    "velocity": 1
                },
                {
                    "duration": 0.21428550000001678,
                    "durationTicks": 60,
                    "midi": 33,
                    "name": "A1",
                    "ticks": 81720,
                    "time": 262.713971,
                    "velocity": 1
                },
                {
                    "duration": 0.21428550000001678,
                    "durationTicks": 60,
                    "midi": 33,
                    "name": "A1",
                    "ticks": 81780,
                    "time": 262.92825650000003,
                    "velocity": 1
                },
                {
                    "duration": 0.21428549999995994,
                    "durationTicks": 60,
                    "midi": 33,
                    "name": "A1",
                    "ticks": 81840,
                    "time": 263.14254200000005,
                    "velocity": 1
                },
                {
                    "duration": 0.21428550000001678,
                    "durationTicks": 60,
                    "midi": 33,
                    "name": "A1",
                    "ticks": 81900,
                    "time": 263.3568275,
                    "velocity": 1
                },
                {
                    "duration": 0.21428550000001678,
                    "durationTicks": 60,
                    "midi": 33,
                    "name": "A1",
                    "ticks": 81960,
                    "time": 263.571113,
                    "velocity": 1
                },
                {
                    "duration": 0.21428549999995994,
                    "durationTicks": 60,
                    "midi": 33,
                    "name": "A1",
                    "ticks": 82020,
                    "time": 263.78539850000004,
                    "velocity": 1
                },
                {
                    "duration": 0.21428550000001678,
                    "durationTicks": 60,
                    "midi": 33,
                    "name": "A1",
                    "ticks": 82080,
                    "time": 263.999684,
                    "velocity": 1
                },
                {
                    "duration": 0.21428550000001678,
                    "durationTicks": 60,
                    "midi": 33,
                    "name": "A1",
                    "ticks": 82140,
                    "time": 264.2139695,
                    "velocity": 1
                },
                {
                    "duration": 0.21428550000001678,
                    "durationTicks": 60,
                    "midi": 45,
                    "name": "A2",
                    "ticks": 82200,
                    "time": 264.42825500000004,
                    "velocity": 1
                },
                {
                    "duration": 0.21428549999995994,
                    "durationTicks": 60,
                    "midi": 33,
                    "name": "A1",
                    "ticks": 82260,
                    "time": 264.64254050000005,
                    "velocity": 1
                },
                {
                    "duration": 0.21428550000001678,
                    "durationTicks": 60,
                    "midi": 45,
                    "name": "A2",
                    "ticks": 82320,
                    "time": 264.856826,
                    "velocity": 1
                },
                {
                    "duration": 0.21428550000001678,
                    "durationTicks": 60,
                    "midi": 45,
                    "name": "A2",
                    "ticks": 82380,
                    "time": 265.07111150000003,
                    "velocity": 1
                },
                {
                    "duration": 0.21428549999995994,
                    "durationTicks": 60,
                    "midi": 33,
                    "name": "A1",
                    "ticks": 82440,
                    "time": 265.28539700000005,
                    "velocity": 1
                },
                {
                    "duration": 0.21428550000001678,
                    "durationTicks": 60,
                    "midi": 33,
                    "name": "A1",
                    "ticks": 82500,
                    "time": 265.4996825,
                    "velocity": 1
                },
                {
                    "duration": 0.21428550000001678,
                    "durationTicks": 60,
                    "midi": 33,
                    "name": "A1",
                    "ticks": 82560,
                    "time": 265.713968,
                    "velocity": 1
                },
                {
                    "duration": 0.19642837499998222,
                    "durationTicks": 55,
                    "midi": 33,
                    "name": "A1",
                    "ticks": 82620,
                    "time": 265.92825350000004,
                    "velocity": 1
                },
                {
                    "duration": 0.017857125000034557,
                    "durationTicks": 5,
                    "midi": 43,
                    "name": "G2",
                    "ticks": 82675,
                    "time": 266.124681875,
                    "velocity": 0.5905511811023622
                },
                {
                    "duration": 0.4285709999999767,
                    "durationTicks": 120,
                    "midi": 45,
                    "name": "A2",
                    "ticks": 82680,
                    "time": 266.14253900000006,
                    "velocity": 1
                },
                {
                    "duration": 0.21428550000001678,
                    "durationTicks": 60,
                    "midi": 33,
                    "name": "A1",
                    "ticks": 82800,
                    "time": 266.57111000000003,
                    "velocity": 1
                },
                {
                    "duration": 0.19642837499998222,
                    "durationTicks": 55,
                    "midi": 33,
                    "name": "A1",
                    "ticks": 82860,
                    "time": 266.78539550000005,
                    "velocity": 1
                },
                {
                    "duration": 0.017857124999977714,
                    "durationTicks": 5,
                    "midi": 43,
                    "name": "G2",
                    "ticks": 82915,
                    "time": 266.98182387500003,
                    "velocity": 0.5905511811023622
                },
                {
                    "duration": 0.21428550000001678,
                    "durationTicks": 60,
                    "midi": 45,
                    "name": "A2",
                    "ticks": 82920,
                    "time": 266.999681,
                    "velocity": 1
                },
                {
                    "duration": 0.4285709999999767,
                    "durationTicks": 120,
                    "midi": 33,
                    "name": "A1",
                    "ticks": 82980,
                    "time": 267.2139665,
                    "velocity": 1
                },
                {
                    "duration": 0.21428550000001678,
                    "durationTicks": 60,
                    "midi": 33,
                    "name": "A1",
                    "ticks": 83100,
                    "time": 267.6425375,
                    "velocity": 1
                },
                {
                    "duration": 0.21428550000001678,
                    "durationTicks": 60,
                    "midi": 41,
                    "name": "F2",
                    "ticks": 83160,
                    "time": 267.856823,
                    "velocity": 1
                },
                {
                    "duration": 0.21428550000001678,
                    "durationTicks": 60,
                    "midi": 40,
                    "name": "E2",
                    "ticks": 83220,
                    "time": 268.07110850000004,
                    "velocity": 1
                },
                {
                    "duration": 0.21428549999995994,
                    "durationTicks": 60,
                    "midi": 43,
                    "name": "G2",
                    "ticks": 83280,
                    "time": 268.28539400000005,
                    "velocity": 1
                },
                {
                    "duration": 0.21428550000001678,
                    "durationTicks": 60,
                    "midi": 40,
                    "name": "E2",
                    "ticks": 83340,
                    "time": 268.4996795,
                    "velocity": 1
                },
                {
                    "duration": 0.21428550000001678,
                    "durationTicks": 60,
                    "midi": 48,
                    "name": "C3",
                    "ticks": 83400,
                    "time": 268.71396500000003,
                    "velocity": 1
                },
                {
                    "duration": 0.21428549999995994,
                    "durationTicks": 60,
                    "midi": 45,
                    "name": "A2",
                    "ticks": 83460,
                    "time": 268.92825050000005,
                    "velocity": 1
                },
                {
                    "duration": 0.21428550000001678,
                    "durationTicks": 60,
                    "midi": 33,
                    "name": "A1",
                    "ticks": 83520,
                    "time": 269.142536,
                    "velocity": 1
                },
                {
                    "duration": 0.19642837499998222,
                    "durationTicks": 55,
                    "midi": 33,
                    "name": "A1",
                    "ticks": 83580,
                    "time": 269.3568215,
                    "velocity": 1
                },
                {
                    "duration": 0.017857125000034557,
                    "durationTicks": 5,
                    "midi": 43,
                    "name": "G2",
                    "ticks": 83635,
                    "time": 269.553249875,
                    "velocity": 0.5905511811023622
                },
                {
                    "duration": 0.4285709999999767,
                    "durationTicks": 120,
                    "midi": 45,
                    "name": "A2",
                    "ticks": 83640,
                    "time": 269.57110700000004,
                    "velocity": 1
                },
                {
                    "duration": 0.21428550000001678,
                    "durationTicks": 60,
                    "midi": 33,
                    "name": "A1",
                    "ticks": 83760,
                    "time": 269.999678,
                    "velocity": 1
                },
                {
                    "duration": 0.19642837499998222,
                    "durationTicks": 55,
                    "midi": 33,
                    "name": "A1",
                    "ticks": 83820,
                    "time": 270.21396350000003,
                    "velocity": 1
                },
                {
                    "duration": 0.017857125000034557,
                    "durationTicks": 5,
                    "midi": 43,
                    "name": "G2",
                    "ticks": 83875,
                    "time": 270.410391875,
                    "velocity": 0.5905511811023622
                },
                {
                    "duration": 0.21428549999995994,
                    "durationTicks": 60,
                    "midi": 45,
                    "name": "A2",
                    "ticks": 83880,
                    "time": 270.42824900000005,
                    "velocity": 1
                },
                {
                    "duration": 0.42857100000003356,
                    "durationTicks": 120,
                    "midi": 33,
                    "name": "A1",
                    "ticks": 83940,
                    "time": 270.6425345,
                    "velocity": 1
                },
                {
                    "duration": 0.21428549999995994,
                    "durationTicks": 60,
                    "midi": 33,
                    "name": "A1",
                    "ticks": 84060,
                    "time": 271.07110550000004,
                    "velocity": 1
                },
                {
                    "duration": 0.21428550000001678,
                    "durationTicks": 60,
                    "midi": 41,
                    "name": "F2",
                    "ticks": 84120,
                    "time": 271.285391,
                    "velocity": 1
                },
                {
                    "duration": 0.21428550000001678,
                    "durationTicks": 60,
                    "midi": 40,
                    "name": "E2",
                    "ticks": 84180,
                    "time": 271.4996765,
                    "velocity": 1
                },
                {
                    "duration": 0.21428550000001678,
                    "durationTicks": 60,
                    "midi": 43,
                    "name": "G2",
                    "ticks": 84240,
                    "time": 271.71396200000004,
                    "velocity": 1
                },
                {
                    "duration": 0.21428549999995994,
                    "durationTicks": 60,
                    "midi": 40,
                    "name": "E2",
                    "ticks": 84300,
                    "time": 271.92824750000005,
                    "velocity": 1
                },
                {
                    "duration": 0.21428550000001678,
                    "durationTicks": 60,
                    "midi": 48,
                    "name": "C3",
                    "ticks": 84360,
                    "time": 272.142533,
                    "velocity": 1
                },
                {
                    "duration": 0.21428550000001678,
                    "durationTicks": 60,
                    "midi": 45,
                    "name": "A2",
                    "ticks": 84420,
                    "time": 272.35681850000003,
                    "velocity": 1
                },
                {
                    "duration": 0.21428549999995994,
                    "durationTicks": 60,
                    "midi": 33,
                    "name": "A1",
                    "ticks": 84480,
                    "time": 272.57110400000005,
                    "velocity": 1
                },
                {
                    "duration": 0.19642837500003907,
                    "durationTicks": 55,
                    "midi": 33,
                    "name": "A1",
                    "ticks": 84540,
                    "time": 272.7853895,
                    "velocity": 1
                },
                {
                    "duration": 0.017857124999977714,
                    "durationTicks": 5,
                    "midi": 43,
                    "name": "G2",
                    "ticks": 84595,
                    "time": 272.98181787500005,
                    "velocity": 0.5905511811023622
                },
                {
                    "duration": 0.42857100000003356,
                    "durationTicks": 120,
                    "midi": 45,
                    "name": "A2",
                    "ticks": 84600,
                    "time": 272.999675,
                    "velocity": 1
                },
                {
                    "duration": 0.21428549999995994,
                    "durationTicks": 60,
                    "midi": 33,
                    "name": "A1",
                    "ticks": 84720,
                    "time": 273.42824600000006,
                    "velocity": 1
                },
                {
                    "duration": 0.19642837500003907,
                    "durationTicks": 55,
                    "midi": 33,
                    "name": "A1",
                    "ticks": 84780,
                    "time": 273.6425315,
                    "velocity": 1
                },
                {
                    "duration": 0.017857124999977714,
                    "durationTicks": 5,
                    "midi": 43,
                    "name": "G2",
                    "ticks": 84835,
                    "time": 273.83895987500006,
                    "velocity": 0.5905511811023622
                },
                {
                    "duration": 0.21428550000001678,
                    "durationTicks": 60,
                    "midi": 45,
                    "name": "A2",
                    "ticks": 84840,
                    "time": 273.85681700000004,
                    "velocity": 1
                },
                {
                    "duration": 0.4285709999999767,
                    "durationTicks": 120,
                    "midi": 33,
                    "name": "A1",
                    "ticks": 84900,
                    "time": 274.07110250000005,
                    "velocity": 1
                },
                {
                    "duration": 0.21428550000001678,
                    "durationTicks": 60,
                    "midi": 33,
                    "name": "A1",
                    "ticks": 85020,
                    "time": 274.49967350000003,
                    "velocity": 1
                },
                {
                    "duration": 0.21428549999995994,
                    "durationTicks": 60,
                    "midi": 41,
                    "name": "F2",
                    "ticks": 85080,
                    "time": 274.71395900000005,
                    "velocity": 1
                },
                {
                    "duration": 0.21428550000001678,
                    "durationTicks": 60,
                    "midi": 40,
                    "name": "E2",
                    "ticks": 85140,
                    "time": 274.9282445,
                    "velocity": 1
                },
                {
                    "duration": 0.21428550000001678,
                    "durationTicks": 60,
                    "midi": 43,
                    "name": "G2",
                    "ticks": 85200,
                    "time": 275.14253,
                    "velocity": 1
                },
                {
                    "duration": 0.21428550000001678,
                    "durationTicks": 60,
                    "midi": 40,
                    "name": "E2",
                    "ticks": 85260,
                    "time": 275.35681550000004,
                    "velocity": 1
                },
                {
                    "duration": 0.21428549999995994,
                    "durationTicks": 60,
                    "midi": 48,
                    "name": "C3",
                    "ticks": 85320,
                    "time": 275.57110100000006,
                    "velocity": 1
                },
                {
                    "duration": 0.21428550000001678,
                    "durationTicks": 60,
                    "midi": 45,
                    "name": "A2",
                    "ticks": 85380,
                    "time": 275.7853865,
                    "velocity": 1
                },
                {
                    "duration": 0.21428550000001678,
                    "durationTicks": 60,
                    "midi": 33,
                    "name": "A1",
                    "ticks": 85440,
                    "time": 275.99967200000003,
                    "velocity": 1
                },
                {
                    "duration": 0.19642837499998222,
                    "durationTicks": 55,
                    "midi": 33,
                    "name": "A1",
                    "ticks": 85500,
                    "time": 276.21395750000005,
                    "velocity": 1
                },
                {
                    "duration": 0.017857124999977714,
                    "durationTicks": 5,
                    "midi": 43,
                    "name": "G2",
                    "ticks": 85555,
                    "time": 276.41038587500003,
                    "velocity": 0.5905511811023622
                },
                {
                    "duration": 0.42857100000003356,
                    "durationTicks": 120,
                    "midi": 45,
                    "name": "A2",
                    "ticks": 85560,
                    "time": 276.428243,
                    "velocity": 1
                },
                {
                    "duration": 0.21428550000001678,
                    "durationTicks": 60,
                    "midi": 33,
                    "name": "A1",
                    "ticks": 85680,
                    "time": 276.85681400000004,
                    "velocity": 1
                },
                {
                    "duration": 0.19642837499998222,
                    "durationTicks": 55,
                    "midi": 33,
                    "name": "A1",
                    "ticks": 85740,
                    "time": 277.07109950000006,
                    "velocity": 1
                },
                {
                    "duration": 0.017857124999977714,
                    "durationTicks": 5,
                    "midi": 43,
                    "name": "G2",
                    "ticks": 85795,
                    "time": 277.26752787500004,
                    "velocity": 0.5905511811023622
                },
                {
                    "duration": 0.21428550000001678,
                    "durationTicks": 60,
                    "midi": 45,
                    "name": "A2",
                    "ticks": 85800,
                    "time": 277.285385,
                    "velocity": 1
                },
                {
                    "duration": 0.4285709999999767,
                    "durationTicks": 120,
                    "midi": 33,
                    "name": "A1",
                    "ticks": 85860,
                    "time": 277.49967050000004,
                    "velocity": 1
                },
                {
                    "duration": 0.21428550000001678,
                    "durationTicks": 60,
                    "midi": 33,
                    "name": "A1",
                    "ticks": 85980,
                    "time": 277.9282415,
                    "velocity": 1
                },
                {
                    "duration": 0.21428550000001678,
                    "durationTicks": 60,
                    "midi": 41,
                    "name": "F2",
                    "ticks": 86040,
                    "time": 278.14252700000003,
                    "velocity": 1
                },
                {
                    "duration": 0.21428549999995994,
                    "durationTicks": 60,
                    "midi": 40,
                    "name": "E2",
                    "ticks": 86100,
                    "time": 278.35681250000005,
                    "velocity": 1
                },
                {
                    "duration": 0.21428550000001678,
                    "durationTicks": 60,
                    "midi": 43,
                    "name": "G2",
                    "ticks": 86160,
                    "time": 278.571098,
                    "velocity": 1
                },
                {
                    "duration": 0.21428550000001678,
                    "durationTicks": 60,
                    "midi": 40,
                    "name": "E2",
                    "ticks": 86220,
                    "time": 278.7853835,
                    "velocity": 1
                },
                {
                    "duration": 0.21428550000001678,
                    "durationTicks": 60,
                    "midi": 48,
                    "name": "C3",
                    "ticks": 86280,
                    "time": 278.99966900000004,
                    "velocity": 1
                },
                {
                    "duration": 0.21428549999995994,
                    "durationTicks": 60,
                    "midi": 45,
                    "name": "A2",
                    "ticks": 86340,
                    "time": 279.21395450000006,
                    "velocity": 1
                },
                {
                    "duration": 0.42857100000003356,
                    "durationTicks": 120,
                    "midi": 28,
                    "name": "E1",
                    "ticks": 86400,
                    "time": 279.42824,
                    "velocity": 1
                },
                {
                    "duration": 0.4285709999999767,
                    "durationTicks": 120,
                    "midi": 40,
                    "name": "E2",
                    "ticks": 86760,
                    "time": 280.71395300000006,
                    "velocity": 1
                },
                {
                    "duration": 0.21428550000001678,
                    "durationTicks": 60,
                    "midi": 28,
                    "name": "E1",
                    "ticks": 86880,
                    "time": 281.14252400000004,
                    "velocity": 1
                },
                {
                    "duration": 0.21428549999995994,
                    "durationTicks": 60,
                    "midi": 28,
                    "name": "E1",
                    "ticks": 86940,
                    "time": 281.35680950000005,
                    "velocity": 1
                },
                {
                    "duration": 0.21428550000001678,
                    "durationTicks": 60,
                    "midi": 28,
                    "name": "E1",
                    "ticks": 87000,
                    "time": 281.571095,
                    "velocity": 1
                },
                {
                    "duration": 0.21428550000001678,
                    "durationTicks": 60,
                    "midi": 28,
                    "name": "E1",
                    "ticks": 87060,
                    "time": 281.78538050000003,
                    "velocity": 1
                },
                {
                    "duration": 0.21428549999995994,
                    "durationTicks": 60,
                    "midi": 31,
                    "name": "G1",
                    "ticks": 87120,
                    "time": 281.99966600000005,
                    "velocity": 1
                },
                {
                    "duration": 0.21428550000001678,
                    "durationTicks": 60,
                    "midi": 33,
                    "name": "A1",
                    "ticks": 87180,
                    "time": 282.2139515,
                    "velocity": 1
                },
                {
                    "duration": 0.21428550000001678,
                    "durationTicks": 60,
                    "midi": 31,
                    "name": "G1",
                    "ticks": 87240,
                    "time": 282.428237,
                    "velocity": 1
                },
                {
                    "duration": 0.21428549999995994,
                    "durationTicks": 60,
                    "midi": 33,
                    "name": "A1",
                    "ticks": 87300,
                    "time": 282.64252250000004,
                    "velocity": 1
                },
                {
                    "duration": 0.21428550000001678,
                    "durationTicks": 60,
                    "midi": 28,
                    "name": "E1",
                    "ticks": 87360,
                    "time": 282.856808,
                    "velocity": 1
                },
                {
                    "duration": 0.21428550000001678,
                    "durationTicks": 60,
                    "midi": 28,
                    "name": "E1",
                    "ticks": 87420,
                    "time": 283.0710935,
                    "velocity": 1
                },
                {
                    "duration": 0.21428550000001678,
                    "durationTicks": 60,
                    "midi": 28,
                    "name": "E1",
                    "ticks": 87480,
                    "time": 283.28537900000003,
                    "velocity": 1
                },
                {
                    "duration": 0.21428549999995994,
                    "durationTicks": 60,
                    "midi": 28,
                    "name": "E1",
                    "ticks": 87540,
                    "time": 283.49966450000005,
                    "velocity": 1
                },
                {
                    "duration": 0.21428550000001678,
                    "durationTicks": 60,
                    "midi": 40,
                    "name": "E2",
                    "ticks": 87600,
                    "time": 283.71395,
                    "velocity": 1
                },
                {
                    "duration": 0.21428550000001678,
                    "durationTicks": 60,
                    "midi": 38,
                    "name": "D2",
                    "ticks": 87660,
                    "time": 283.9282355,
                    "velocity": 1
                },
                {
                    "duration": 0.21428550000001678,
                    "durationTicks": 60,
                    "midi": 35,
                    "name": "B1",
                    "ticks": 87720,
                    "time": 284.14252100000004,
                    "velocity": 1
                },
                {
                    "duration": 0.21428549999995994,
                    "durationTicks": 60,
                    "midi": 34,
                    "name": "A#1",
                    "ticks": 87780,
                    "time": 284.35680650000006,
                    "velocity": 1
                },
                {
                    "duration": 0.21428550000001678,
                    "durationTicks": 60,
                    "midi": 28,
                    "name": "E1",
                    "ticks": 87840,
                    "time": 284.571092,
                    "velocity": 1
                },
                {
                    "duration": 0.21428550000001678,
                    "durationTicks": 60,
                    "midi": 28,
                    "name": "E1",
                    "ticks": 87900,
                    "time": 284.78537750000004,
                    "velocity": 1
                },
                {
                    "duration": 0.21428549999995994,
                    "durationTicks": 60,
                    "midi": 28,
                    "name": "E1",
                    "ticks": 87960,
                    "time": 284.99966300000006,
                    "velocity": 1
                },
                {
                    "duration": 0.21428550000001678,
                    "durationTicks": 60,
                    "midi": 28,
                    "name": "E1",
                    "ticks": 88020,
                    "time": 285.2139485,
                    "velocity": 1
                },
                {
                    "duration": 0.21428550000001678,
                    "durationTicks": 60,
                    "midi": 31,
                    "name": "G1",
                    "ticks": 88080,
                    "time": 285.42823400000003,
                    "velocity": 1
                },
                {
                    "duration": 0.21428549999995994,
                    "durationTicks": 60,
                    "midi": 33,
                    "name": "A1",
                    "ticks": 88140,
                    "time": 285.64251950000005,
                    "velocity": 1
                },
                {
                    "duration": 0.21428550000001678,
                    "durationTicks": 60,
                    "midi": 31,
                    "name": "G1",
                    "ticks": 88200,
                    "time": 285.856805,
                    "velocity": 1
                },
                {
                    "duration": 0.21428550000001678,
                    "durationTicks": 60,
                    "midi": 33,
                    "name": "A1",
                    "ticks": 88260,
                    "time": 286.0710905,
                    "velocity": 1
                },
                {
                    "duration": 0.21428549999995994,
                    "durationTicks": 60,
                    "midi": 28,
                    "name": "E1",
                    "ticks": 88320,
                    "time": 286.28537600000004,
                    "velocity": 1
                },
                {
                    "duration": 0.21428550000001678,
                    "durationTicks": 60,
                    "midi": 31,
                    "name": "G1",
                    "ticks": 88380,
                    "time": 286.4996615,
                    "velocity": 1
                },
                {
                    "duration": 0.21428550000001678,
                    "durationTicks": 60,
                    "midi": 33,
                    "name": "A1",
                    "ticks": 88440,
                    "time": 286.713947,
                    "velocity": 1
                },
                {
                    "duration": 0.21428550000001678,
                    "durationTicks": 60,
                    "midi": 34,
                    "name": "A#1",
                    "ticks": 88500,
                    "time": 286.92823250000004,
                    "velocity": 1
                },
                {
                    "duration": 0.21428549999995994,
                    "durationTicks": 60,
                    "midi": 35,
                    "name": "B1",
                    "ticks": 88560,
                    "time": 287.14251800000005,
                    "velocity": 1
                },
                {
                    "duration": 0.21428550000001678,
                    "durationTicks": 60,
                    "midi": 38,
                    "name": "D2",
                    "ticks": 88620,
                    "time": 287.3568035,
                    "velocity": 1
                },
                {
                    "duration": 0.21428550000001678,
                    "durationTicks": 60,
                    "midi": 39,
                    "name": "D#2",
                    "ticks": 88680,
                    "time": 287.57108900000003,
                    "velocity": 1
                },
                {
                    "duration": 0.21428550000001678,
                    "durationTicks": 60,
                    "midi": 40,
                    "name": "E2",
                    "ticks": 88740,
                    "time": 287.78537450000005,
                    "velocity": 1
                },
                {
                    "duration": 0.21428549999995994,
                    "durationTicks": 60,
                    "midi": 28,
                    "name": "E1",
                    "ticks": 88800,
                    "time": 287.99966000000006,
                    "velocity": 1
                },
                {
                    "duration": 0.21428550000001678,
                    "durationTicks": 60,
                    "midi": 28,
                    "name": "E1",
                    "ticks": 88860,
                    "time": 288.2139455,
                    "velocity": 1
                },
                {
                    "duration": 0.21428550000001678,
                    "durationTicks": 60,
                    "midi": 28,
                    "name": "E1",
                    "ticks": 88920,
                    "time": 288.42823100000004,
                    "velocity": 1
                },
                {
                    "duration": 0.21428549999995994,
                    "durationTicks": 60,
                    "midi": 28,
                    "name": "E1",
                    "ticks": 88980,
                    "time": 288.64251650000006,
                    "velocity": 1
                },
                {
                    "duration": 0.21428550000001678,
                    "durationTicks": 60,
                    "midi": 31,
                    "name": "G1",
                    "ticks": 89040,
                    "time": 288.856802,
                    "velocity": 1
                },
                {
                    "duration": 0.21428550000001678,
                    "durationTicks": 60,
                    "midi": 33,
                    "name": "A1",
                    "ticks": 89100,
                    "time": 289.07108750000003,
                    "velocity": 1
                },
                {
                    "duration": 0.21428549999995994,
                    "durationTicks": 60,
                    "midi": 31,
                    "name": "G1",
                    "ticks": 89160,
                    "time": 289.28537300000005,
                    "velocity": 1
                },
                {
                    "duration": 0.21428550000001678,
                    "durationTicks": 60,
                    "midi": 33,
                    "name": "A1",
                    "ticks": 89220,
                    "time": 289.4996585,
                    "velocity": 1
                },
                {
                    "duration": 0.21428550000001678,
                    "durationTicks": 60,
                    "midi": 28,
                    "name": "E1",
                    "ticks": 89280,
                    "time": 289.713944,
                    "velocity": 1
                },
                {
                    "duration": 0.21428549999995994,
                    "durationTicks": 60,
                    "midi": 28,
                    "name": "E1",
                    "ticks": 89340,
                    "time": 289.92822950000004,
                    "velocity": 1
                },
                {
                    "duration": 0.21428550000001678,
                    "durationTicks": 60,
                    "midi": 28,
                    "name": "E1",
                    "ticks": 89400,
                    "time": 290.142515,
                    "velocity": 1
                },
                {
                    "duration": 0.21428550000001678,
                    "durationTicks": 60,
                    "midi": 28,
                    "name": "E1",
                    "ticks": 89460,
                    "time": 290.3568005,
                    "velocity": 1
                },
                {
                    "duration": 0.21428550000001678,
                    "durationTicks": 60,
                    "midi": 40,
                    "name": "E2",
                    "ticks": 89520,
                    "time": 290.57108600000004,
                    "velocity": 1
                },
                {
                    "duration": 0.21428549999995994,
                    "durationTicks": 60,
                    "midi": 38,
                    "name": "D2",
                    "ticks": 89580,
                    "time": 290.78537150000005,
                    "velocity": 1
                },
                {
                    "duration": 0.21428550000001678,
                    "durationTicks": 60,
                    "midi": 35,
                    "name": "B1",
                    "ticks": 89640,
                    "time": 290.999657,
                    "velocity": 1
                },
                {
                    "duration": 0.21428550000001678,
                    "durationTicks": 60,
                    "midi": 34,
                    "name": "A#1",
                    "ticks": 89700,
                    "time": 291.21394250000003,
                    "velocity": 1
                },
                {
                    "duration": 0.21428550000001678,
                    "durationTicks": 60,
                    "midi": 28,
                    "name": "E1",
                    "ticks": 89760,
                    "time": 291.42822800000005,
                    "velocity": 1
                },
                {
                    "duration": 0.21428549999995994,
                    "durationTicks": 60,
                    "midi": 28,
                    "name": "E1",
                    "ticks": 89820,
                    "time": 291.64251350000006,
                    "velocity": 1
                },
                {
                    "duration": 0.21428550000001678,
                    "durationTicks": 60,
                    "midi": 28,
                    "name": "E1",
                    "ticks": 89880,
                    "time": 291.856799,
                    "velocity": 1
                },
                {
                    "duration": 0.21428550000001678,
                    "durationTicks": 60,
                    "midi": 28,
                    "name": "E1",
                    "ticks": 89940,
                    "time": 292.07108450000004,
                    "velocity": 1
                },
                {
                    "duration": 0.21428549999995994,
                    "durationTicks": 60,
                    "midi": 31,
                    "name": "G1",
                    "ticks": 90000,
                    "time": 292.28537000000006,
                    "velocity": 1
                },
                {
                    "duration": 0.21428550000001678,
                    "durationTicks": 60,
                    "midi": 33,
                    "name": "A1",
                    "ticks": 90060,
                    "time": 292.4996555,
                    "velocity": 1
                },
                {
                    "duration": 0.21428550000001678,
                    "durationTicks": 60,
                    "midi": 31,
                    "name": "G1",
                    "ticks": 90120,
                    "time": 292.71394100000003,
                    "velocity": 1
                },
                {
                    "duration": 0.21428549999995994,
                    "durationTicks": 60,
                    "midi": 33,
                    "name": "A1",
                    "ticks": 90180,
                    "time": 292.92822650000005,
                    "velocity": 1
                },
                {
                    "duration": 0.21428550000001678,
                    "durationTicks": 60,
                    "midi": 28,
                    "name": "E1",
                    "ticks": 90240,
                    "time": 293.142512,
                    "velocity": 1
                },
                {
                    "duration": 0.10714274999997997,
                    "durationTicks": 30,
                    "midi": 33,
                    "name": "A1",
                    "ticks": 90300,
                    "time": 293.3567975,
                    "velocity": 1
                },
                {
                    "duration": 0.10714275000003681,
                    "durationTicks": 30,
                    "midi": 35,
                    "name": "B1",
                    "ticks": 90330,
                    "time": 293.46394025,
                    "velocity": 1
                },
                {
                    "duration": 0.21428549999995994,
                    "durationTicks": 60,
                    "midi": 38,
                    "name": "D2",
                    "ticks": 90360,
                    "time": 293.57108300000004,
                    "velocity": 1
                },
                {
                    "duration": 0.21428550000001678,
                    "durationTicks": 60,
                    "midi": 35,
                    "name": "B1",
                    "ticks": 90420,
                    "time": 293.7853685,
                    "velocity": 1
                },
                {
                    "duration": 0.21428550000001678,
                    "durationTicks": 60,
                    "midi": 40,
                    "name": "E2",
                    "ticks": 90480,
                    "time": 293.999654,
                    "velocity": 1
                },
                {
                    "duration": 0.21428550000001678,
                    "durationTicks": 60,
                    "midi": 38,
                    "name": "D2",
                    "ticks": 90540,
                    "time": 294.21393950000004,
                    "velocity": 1
                },
                {
                    "duration": 0.21428549999995994,
                    "durationTicks": 60,
                    "midi": 35,
                    "name": "B1",
                    "ticks": 90600,
                    "time": 294.42822500000005,
                    "velocity": 1
                },
                {
                    "duration": 0.21428550000001678,
                    "durationTicks": 60,
                    "midi": 34,
                    "name": "A#1",
                    "ticks": 90660,
                    "time": 294.6425105,
                    "velocity": 1
                },
                {
                    "duration": 0.21428550000001678,
                    "durationTicks": 60,
                    "midi": 28,
                    "name": "E1",
                    "ticks": 90720,
                    "time": 294.85679600000003,
                    "velocity": 1
                },
                {
                    "duration": 0.21428549999995994,
                    "durationTicks": 60,
                    "midi": 28,
                    "name": "E1",
                    "ticks": 90780,
                    "time": 295.07108150000005,
                    "velocity": 1
                },
                {
                    "duration": 0.21428550000001678,
                    "durationTicks": 60,
                    "midi": 28,
                    "name": "E1",
                    "ticks": 90840,
                    "time": 295.285367,
                    "velocity": 1
                },
                {
                    "duration": 0.21428550000001678,
                    "durationTicks": 60,
                    "midi": 28,
                    "name": "E1",
                    "ticks": 90900,
                    "time": 295.4996525,
                    "velocity": 1
                },
                {
                    "duration": 0.21428550000001678,
                    "durationTicks": 60,
                    "midi": 28,
                    "name": "E1",
                    "ticks": 90960,
                    "time": 295.71393800000004,
                    "velocity": 1
                },
                {
                    "duration": 0.21428549999995994,
                    "durationTicks": 60,
                    "midi": 28,
                    "name": "E1",
                    "ticks": 91020,
                    "time": 295.92822350000006,
                    "velocity": 1
                },
                {
                    "duration": 0.21428550000001678,
                    "durationTicks": 60,
                    "midi": 28,
                    "name": "E1",
                    "ticks": 91080,
                    "time": 296.142509,
                    "velocity": 1
                },
                {
                    "duration": 0.21428550000001678,
                    "durationTicks": 60,
                    "midi": 28,
                    "name": "E1",
                    "ticks": 91140,
                    "time": 296.35679450000003,
                    "velocity": 1
                },
                {
                    "duration": 0.21428549999995994,
                    "durationTicks": 60,
                    "midi": 28,
                    "name": "E1",
                    "ticks": 91200,
                    "time": 296.57108000000005,
                    "velocity": 1
                },
                {
                    "duration": 0.21428550000001678,
                    "durationTicks": 60,
                    "midi": 28,
                    "name": "E1",
                    "ticks": 91260,
                    "time": 296.7853655,
                    "velocity": 1
                },
                {
                    "duration": 0.21428550000001678,
                    "durationTicks": 60,
                    "midi": 28,
                    "name": "E1",
                    "ticks": 91320,
                    "time": 296.99965100000003,
                    "velocity": 1
                },
                {
                    "duration": 0.21428549999995994,
                    "durationTicks": 60,
                    "midi": 28,
                    "name": "E1",
                    "ticks": 91380,
                    "time": 297.21393650000005,
                    "velocity": 1
                },
                {
                    "duration": 0.21428550000001678,
                    "durationTicks": 60,
                    "midi": 35,
                    "name": "B1",
                    "ticks": 91440,
                    "time": 297.428222,
                    "velocity": 1
                },
                {
                    "duration": 0.21428550000001678,
                    "durationTicks": 60,
                    "midi": 34,
                    "name": "A#1",
                    "ticks": 91500,
                    "time": 297.6425075,
                    "velocity": 1
                },
                {
                    "duration": 0.21428550000001678,
                    "durationTicks": 60,
                    "midi": 43,
                    "name": "G2",
                    "ticks": 91560,
                    "time": 297.85679300000004,
                    "velocity": 1
                },
                {
                    "duration": 0.21428549999995994,
                    "durationTicks": 60,
                    "midi": 40,
                    "name": "E2",
                    "ticks": 91620,
                    "time": 298.07107850000006,
                    "velocity": 1
                },
                {
                    "duration": 0.21428550000001678,
                    "durationTicks": 60,
                    "midi": 28,
                    "name": "E1",
                    "ticks": 91680,
                    "time": 298.285364,
                    "velocity": 1
                },
                {
                    "duration": 0.21428550000001678,
                    "durationTicks": 60,
                    "midi": 28,
                    "name": "E1",
                    "ticks": 91740,
                    "time": 298.49964950000003,
                    "velocity": 1
                },
                {
                    "duration": 0.21428549999995994,
                    "durationTicks": 60,
                    "midi": 28,
                    "name": "E1",
                    "ticks": 91800,
                    "time": 298.71393500000005,
                    "velocity": 1
                },
                {
                    "duration": 0.21428550000001678,
                    "durationTicks": 60,
                    "midi": 28,
                    "name": "E1",
                    "ticks": 91860,
                    "time": 298.9282205,
                    "velocity": 1
                },
                {
                    "duration": 0.21428550000001678,
                    "durationTicks": 60,
                    "midi": 28,
                    "name": "E1",
                    "ticks": 91920,
                    "time": 299.142506,
                    "velocity": 1
                },
                {
                    "duration": 0.21428550000001678,
                    "durationTicks": 60,
                    "midi": 28,
                    "name": "E1",
                    "ticks": 91980,
                    "time": 299.35679150000004,
                    "velocity": 1
                },
                {
                    "duration": 0.21428549999995994,
                    "durationTicks": 60,
                    "midi": 28,
                    "name": "E1",
                    "ticks": 92040,
                    "time": 299.57107700000006,
                    "velocity": 1
                },
                {
                    "duration": 0.21428550000001678,
                    "durationTicks": 60,
                    "midi": 28,
                    "name": "E1",
                    "ticks": 92100,
                    "time": 299.7853625,
                    "velocity": 1
                },
                {
                    "duration": 0.21428550000001678,
                    "durationTicks": 60,
                    "midi": 28,
                    "name": "E1",
                    "ticks": 92160,
                    "time": 299.99964800000004,
                    "velocity": 1
                },
                {
                    "duration": 0.21428549999995994,
                    "durationTicks": 60,
                    "midi": 28,
                    "name": "E1",
                    "ticks": 92220,
                    "time": 300.21393350000005,
                    "velocity": 1
                },
                {
                    "duration": 0.21428550000001678,
                    "durationTicks": 60,
                    "midi": 28,
                    "name": "E1",
                    "ticks": 92280,
                    "time": 300.428219,
                    "velocity": 1
                },
                {
                    "duration": 0.21428550000001678,
                    "durationTicks": 60,
                    "midi": 28,
                    "name": "E1",
                    "ticks": 92340,
                    "time": 300.64250450000003,
                    "velocity": 1
                },
                {
                    "duration": 0.21428549999995994,
                    "durationTicks": 60,
                    "midi": 35,
                    "name": "B1",
                    "ticks": 92400,
                    "time": 300.85679000000005,
                    "velocity": 1
                },
                {
                    "duration": 0.21428550000001678,
                    "durationTicks": 60,
                    "midi": 34,
                    "name": "A#1",
                    "ticks": 92460,
                    "time": 301.0710755,
                    "velocity": 1
                },
                {
                    "duration": 0.21428550000001678,
                    "durationTicks": 60,
                    "midi": 31,
                    "name": "G1",
                    "ticks": 92520,
                    "time": 301.285361,
                    "velocity": 1
                },
                {
                    "duration": 0.21428550000001678,
                    "durationTicks": 60,
                    "midi": 28,
                    "name": "E1",
                    "ticks": 92580,
                    "time": 301.49964650000004,
                    "velocity": 1
                },
                {
                    "duration": 0.21428549999995994,
                    "durationTicks": 60,
                    "midi": 28,
                    "name": "E1",
                    "ticks": 92640,
                    "time": 301.71393200000006,
                    "velocity": 1
                },
                {
                    "duration": 0.21428550000001678,
                    "durationTicks": 60,
                    "midi": 28,
                    "name": "E1",
                    "ticks": 92700,
                    "time": 301.9282175,
                    "velocity": 1
                },
                {
                    "duration": 0.21428550000001678,
                    "durationTicks": 60,
                    "midi": 40,
                    "name": "E2",
                    "ticks": 92760,
                    "time": 302.14250300000003,
                    "velocity": 1
                },
                {
                    "duration": 0.21428549999995994,
                    "durationTicks": 60,
                    "midi": 28,
                    "name": "E1",
                    "ticks": 92820,
                    "time": 302.35678850000005,
                    "velocity": 1
                },
                {
                    "duration": 0.21428550000001678,
                    "durationTicks": 60,
                    "midi": 28,
                    "name": "E1",
                    "ticks": 92880,
                    "time": 302.571074,
                    "velocity": 1
                },
                {
                    "duration": 0.21428550000001678,
                    "durationTicks": 60,
                    "midi": 28,
                    "name": "E1",
                    "ticks": 92940,
                    "time": 302.7853595,
                    "velocity": 1
                },
                {
                    "duration": 0.21428550000001678,
                    "durationTicks": 60,
                    "midi": 28,
                    "name": "E1",
                    "ticks": 93000,
                    "time": 302.99964500000004,
                    "velocity": 1
                },
                {
                    "duration": 0.21428549999995994,
                    "durationTicks": 60,
                    "midi": 28,
                    "name": "E1",
                    "ticks": 93060,
                    "time": 303.21393050000006,
                    "velocity": 1
                },
                {
                    "duration": 0.21428550000001678,
                    "durationTicks": 60,
                    "midi": 28,
                    "name": "E1",
                    "ticks": 93120,
                    "time": 303.428216,
                    "velocity": 1
                },
                {
                    "duration": 0.21428550000001678,
                    "durationTicks": 60,
                    "midi": 28,
                    "name": "E1",
                    "ticks": 93180,
                    "time": 303.64250150000004,
                    "velocity": 1
                },
                {
                    "duration": 0.21428549999995994,
                    "durationTicks": 60,
                    "midi": 28,
                    "name": "E1",
                    "ticks": 93240,
                    "time": 303.85678700000005,
                    "velocity": 1
                },
                {
                    "duration": 0.21428550000001678,
                    "durationTicks": 60,
                    "midi": 28,
                    "name": "E1",
                    "ticks": 93300,
                    "time": 304.0710725,
                    "velocity": 1
                },
                {
                    "duration": 0.21428550000001678,
                    "durationTicks": 60,
                    "midi": 35,
                    "name": "B1",
                    "ticks": 93360,
                    "time": 304.28535800000003,
                    "velocity": 1
                },
                {
                    "duration": 0.21428549999995994,
                    "durationTicks": 60,
                    "midi": 34,
                    "name": "A#1",
                    "ticks": 93420,
                    "time": 304.49964350000005,
                    "velocity": 1
                },
                {
                    "duration": 0.21428550000001678,
                    "durationTicks": 60,
                    "midi": 43,
                    "name": "G2",
                    "ticks": 93480,
                    "time": 304.713929,
                    "velocity": 1
                },
                {
                    "duration": 0.21428550000001678,
                    "durationTicks": 60,
                    "midi": 40,
                    "name": "E2",
                    "ticks": 93540,
                    "time": 304.9282145,
                    "velocity": 1
                },
                {
                    "duration": 0.21428550000001678,
                    "durationTicks": 60,
                    "midi": 28,
                    "name": "E1",
                    "ticks": 93600,
                    "time": 305.14250000000004,
                    "velocity": 1
                },
                {
                    "duration": 0.21428549999995994,
                    "durationTicks": 60,
                    "midi": 28,
                    "name": "E1",
                    "ticks": 93660,
                    "time": 305.35678550000006,
                    "velocity": 1
                },
                {
                    "duration": 0.21428550000001678,
                    "durationTicks": 60,
                    "midi": 40,
                    "name": "E2",
                    "ticks": 93720,
                    "time": 305.571071,
                    "velocity": 1
                },
                {
                    "duration": 0.21428550000001678,
                    "durationTicks": 60,
                    "midi": 28,
                    "name": "E1",
                    "ticks": 93780,
                    "time": 305.78535650000003,
                    "velocity": 1
                },
                {
                    "duration": 0.21428549999995994,
                    "durationTicks": 60,
                    "midi": 28,
                    "name": "E1",
                    "ticks": 93840,
                    "time": 305.99964200000005,
                    "velocity": 1
                },
                {
                    "duration": 0.21428550000001678,
                    "durationTicks": 60,
                    "midi": 28,
                    "name": "E1",
                    "ticks": 93900,
                    "time": 306.2139275,
                    "velocity": 1
                },
                {
                    "duration": 0.21428550000001678,
                    "durationTicks": 60,
                    "midi": 40,
                    "name": "E2",
                    "ticks": 93960,
                    "time": 306.428213,
                    "velocity": 1
                },
                {
                    "duration": 0.21428550000001678,
                    "durationTicks": 60,
                    "midi": 28,
                    "name": "E1",
                    "ticks": 94020,
                    "time": 306.64249850000004,
                    "velocity": 1
                },
                {
                    "duration": 0.21428549999995994,
                    "durationTicks": 60,
                    "midi": 28,
                    "name": "E1",
                    "ticks": 94080,
                    "time": 306.85678400000006,
                    "velocity": 1
                },
                {
                    "duration": 0.21428550000001678,
                    "durationTicks": 60,
                    "midi": 28,
                    "name": "E1",
                    "ticks": 94140,
                    "time": 307.0710695,
                    "velocity": 1
                },
                {
                    "duration": 0.21428550000001678,
                    "durationTicks": 60,
                    "midi": 40,
                    "name": "E2",
                    "ticks": 94200,
                    "time": 307.28535500000004,
                    "velocity": 1
                },
                {
                    "duration": 0.21428549999995994,
                    "durationTicks": 60,
                    "midi": 28,
                    "name": "E1",
                    "ticks": 94260,
                    "time": 307.49964050000005,
                    "velocity": 1
                },
                {
                    "duration": 0.21428550000001678,
                    "durationTicks": 60,
                    "midi": 35,
                    "name": "B1",
                    "ticks": 94320,
                    "time": 307.713926,
                    "velocity": 1
                },
                {
                    "duration": 0.21428550000001678,
                    "durationTicks": 60,
                    "midi": 34,
                    "name": "A#1",
                    "ticks": 94380,
                    "time": 307.92821150000003,
                    "velocity": 1
                },
                {
                    "duration": 0.21428549999995994,
                    "durationTicks": 60,
                    "midi": 31,
                    "name": "G1",
                    "ticks": 94440,
                    "time": 308.14249700000005,
                    "velocity": 1
                },
                {
                    "duration": 0.21428550000001678,
                    "durationTicks": 60,
                    "midi": 28,
                    "name": "E1",
                    "ticks": 94500,
                    "time": 308.3567825,
                    "velocity": 1
                },
                {
                    "duration": 0.21428550000001678,
                    "durationTicks": 60,
                    "midi": 36,
                    "name": "C2",
                    "ticks": 94560,
                    "time": 308.571068,
                    "velocity": 1
                },
                {
                    "duration": 0.21428549999995994,
                    "durationTicks": 60,
                    "midi": 33,
                    "name": "A1",
                    "ticks": 94620,
                    "time": 308.78535350000004,
                    "velocity": 1
                },
                {
                    "duration": 0.21428550000001678,
                    "durationTicks": 60,
                    "midi": 33,
                    "name": "A1",
                    "ticks": 94680,
                    "time": 308.999639,
                    "velocity": 1
                },
                {
                    "duration": 0.21428550000001678,
                    "durationTicks": 60,
                    "midi": 33,
                    "name": "A1",
                    "ticks": 94740,
                    "time": 309.2139245,
                    "velocity": 1
                },
                {
                    "duration": 0.21428550000001678,
                    "durationTicks": 60,
                    "midi": 36,
                    "name": "C2",
                    "ticks": 94800,
                    "time": 309.42821000000004,
                    "velocity": 1
                },
                {
                    "duration": 0.21428549999995994,
                    "durationTicks": 60,
                    "midi": 38,
                    "name": "D2",
                    "ticks": 94860,
                    "time": 309.64249550000005,
                    "velocity": 1
                },
                {
                    "duration": 0.42857100000003356,
                    "durationTicks": 120,
                    "midi": 36,
                    "name": "C2",
                    "ticks": 94920,
                    "time": 309.856781,
                    "velocity": 1
                },
                {
                    "duration": 0.21428550000001678,
                    "durationTicks": 60,
                    "midi": 36,
                    "name": "C2",
                    "ticks": 95040,
                    "time": 310.28535200000005,
                    "velocity": 1
                },
                {
                    "duration": 0.21428549999995994,
                    "durationTicks": 60,
                    "midi": 33,
                    "name": "A1",
                    "ticks": 95100,
                    "time": 310.49963750000006,
                    "velocity": 1
                },
                {
                    "duration": 0.21428550000001678,
                    "durationTicks": 60,
                    "midi": 33,
                    "name": "A1",
                    "ticks": 95160,
                    "time": 310.713923,
                    "velocity": 1
                },
                {
                    "duration": 0.21428550000001678,
                    "durationTicks": 60,
                    "midi": 40,
                    "name": "E2",
                    "ticks": 95220,
                    "time": 310.92820850000004,
                    "velocity": 1
                },
                {
                    "duration": 0.21428549999995994,
                    "durationTicks": 60,
                    "midi": 43,
                    "name": "G2",
                    "ticks": 95280,
                    "time": 311.14249400000006,
                    "velocity": 1
                },
                {
                    "duration": 0.21428550000001678,
                    "durationTicks": 60,
                    "midi": 40,
                    "name": "E2",
                    "ticks": 95340,
                    "time": 311.3567795,
                    "velocity": 1
                },
                {
                    "duration": 0.4285709999999767,
                    "durationTicks": 120,
                    "midi": 45,
                    "name": "A2",
                    "ticks": 95400,
                    "time": 311.57106500000003,
                    "velocity": 1
                },
                {
                    "duration": 0.21428550000001678,
                    "durationTicks": 60,
                    "midi": 33,
                    "name": "A1",
                    "ticks": 95520,
                    "time": 311.999636,
                    "velocity": 1
                },
                {
                    "duration": 0.21428550000001678,
                    "durationTicks": 60,
                    "midi": 33,
                    "name": "A1",
                    "ticks": 95580,
                    "time": 312.2139215,
                    "velocity": 1
                },
                {
                    "duration": 0.21428549999995994,
                    "durationTicks": 60,
                    "midi": 33,
                    "name": "A1",
                    "ticks": 95640,
                    "time": 312.42820700000004,
                    "velocity": 1
                },
                {
                    "duration": 0.21428550000001678,
                    "durationTicks": 60,
                    "midi": 33,
                    "name": "A1",
                    "ticks": 95700,
                    "time": 312.6424925,
                    "velocity": 1
                },
                {
                    "duration": 0.21428550000001678,
                    "durationTicks": 60,
                    "midi": 36,
                    "name": "C2",
                    "ticks": 95760,
                    "time": 312.856778,
                    "velocity": 1
                },
                {
                    "duration": 0.21428550000001678,
                    "durationTicks": 60,
                    "midi": 38,
                    "name": "D2",
                    "ticks": 95820,
                    "time": 313.07106350000004,
                    "velocity": 1
                },
                {
                    "duration": 0.4285709999999767,
                    "durationTicks": 120,
                    "midi": 36,
                    "name": "C2",
                    "ticks": 95880,
                    "time": 313.28534900000005,
                    "velocity": 1
                },
                {
                    "duration": 0.21428550000001678,
                    "durationTicks": 60,
                    "midi": 50,
                    "name": "D3",
                    "ticks": 96000,
                    "time": 313.71392000000003,
                    "velocity": 1
                },
                {
                    "duration": 0.21428550000001678,
                    "durationTicks": 60,
                    "midi": 48,
                    "name": "C3",
                    "ticks": 96060,
                    "time": 313.92820550000005,
                    "velocity": 1
                },
                {
                    "duration": 0.21428549999995994,
                    "durationTicks": 60,
                    "midi": 45,
                    "name": "A2",
                    "ticks": 96120,
                    "time": 314.14249100000006,
                    "velocity": 1
                },
                {
                    "duration": 0.21428550000001678,
                    "durationTicks": 60,
                    "midi": 44,
                    "name": "G#2",
                    "ticks": 96180,
                    "time": 314.3567765,
                    "velocity": 1
                },
                {
                    "duration": 0.21428550000001678,
                    "durationTicks": 60,
                    "midi": 43,
                    "name": "G2",
                    "ticks": 96240,
                    "time": 314.57106200000004,
                    "velocity": 1
                },
                {
                    "duration": 0.21428549999995994,
                    "durationTicks": 60,
                    "midi": 40,
                    "name": "E2",
                    "ticks": 96300,
                    "time": 314.78534750000006,
                    "velocity": 1
                },
                {
                    "duration": 0.21428550000001678,
                    "durationTicks": 60,
                    "midi": 39,
                    "name": "D#2",
                    "ticks": 96360,
                    "time": 314.999633,
                    "velocity": 1
                },
                {
                    "duration": 0.21428550000001678,
                    "durationTicks": 60,
                    "midi": 38,
                    "name": "D2",
                    "ticks": 96420,
                    "time": 315.21391850000003,
                    "velocity": 1
                },
                {
                    "duration": 0.21428549999995994,
                    "durationTicks": 60,
                    "midi": 36,
                    "name": "C2",
                    "ticks": 96480,
                    "time": 315.42820400000005,
                    "velocity": 1
                },
                {
                    "duration": 0.21428550000001678,
                    "durationTicks": 60,
                    "midi": 33,
                    "name": "A1",
                    "ticks": 96540,
                    "time": 315.6424895,
                    "velocity": 1
                },
                {
                    "duration": 0.21428550000001678,
                    "durationTicks": 60,
                    "midi": 33,
                    "name": "A1",
                    "ticks": 96600,
                    "time": 315.856775,
                    "velocity": 1
                },
                {
                    "duration": 0.21428549999995994,
                    "durationTicks": 60,
                    "midi": 33,
                    "name": "A1",
                    "ticks": 96660,
                    "time": 316.07106050000004,
                    "velocity": 1
                },
                {
                    "duration": 0.21428550000001678,
                    "durationTicks": 60,
                    "midi": 36,
                    "name": "C2",
                    "ticks": 96720,
                    "time": 316.285346,
                    "velocity": 1
                },
                {
                    "duration": 0.21428550000001678,
                    "durationTicks": 60,
                    "midi": 38,
                    "name": "D2",
                    "ticks": 96780,
                    "time": 316.4996315,
                    "velocity": 1
                },
                {
                    "duration": 0.4285709999999767,
                    "durationTicks": 120,
                    "midi": 36,
                    "name": "C2",
                    "ticks": 96840,
                    "time": 316.71391700000004,
                    "velocity": 1
                },
                {
                    "duration": 0.21428550000001678,
                    "durationTicks": 60,
                    "midi": 36,
                    "name": "C2",
                    "ticks": 96960,
                    "time": 317.142488,
                    "velocity": 1
                },
                {
                    "duration": 0.21428550000001678,
                    "durationTicks": 60,
                    "midi": 33,
                    "name": "A1",
                    "ticks": 97020,
                    "time": 317.35677350000003,
                    "velocity": 1
                },
                {
                    "duration": 0.21428550000001678,
                    "durationTicks": 60,
                    "midi": 33,
                    "name": "A1",
                    "ticks": 97080,
                    "time": 317.57105900000005,
                    "velocity": 1
                },
                {
                    "duration": 0.21428549999995994,
                    "durationTicks": 60,
                    "midi": 40,
                    "name": "E2",
                    "ticks": 97140,
                    "time": 317.78534450000006,
                    "velocity": 1
                },
                {
                    "duration": 0.21428550000001678,
                    "durationTicks": 60,
                    "midi": 43,
                    "name": "G2",
                    "ticks": 97200,
                    "time": 317.99963,
                    "velocity": 1
                },
                {
                    "duration": 0.21428550000001678,
                    "durationTicks": 60,
                    "midi": 40,
                    "name": "E2",
                    "ticks": 97260,
                    "time": 318.21391550000004,
                    "velocity": 1
                },
                {
                    "duration": 0.4285709999999767,
                    "durationTicks": 120,
                    "midi": 45,
                    "name": "A2",
                    "ticks": 97320,
                    "time": 318.42820100000006,
                    "velocity": 1
                },
                {
                    "duration": 0.21428550000001678,
                    "durationTicks": 60,
                    "midi": 33,
                    "name": "A1",
                    "ticks": 97440,
                    "time": 318.85677200000003,
                    "velocity": 1
                },
                {
                    "duration": 0.21428549999995994,
                    "durationTicks": 60,
                    "midi": 33,
                    "name": "A1",
                    "ticks": 97500,
                    "time": 319.07105750000005,
                    "velocity": 1
                },
                {
                    "duration": 0.21428550000001678,
                    "durationTicks": 60,
                    "midi": 33,
                    "name": "A1",
                    "ticks": 97560,
                    "time": 319.285343,
                    "velocity": 1
                },
                {
                    "duration": 0.21428550000001678,
                    "durationTicks": 60,
                    "midi": 33,
                    "name": "A1",
                    "ticks": 97620,
                    "time": 319.49962850000003,
                    "velocity": 1
                },
                {
                    "duration": 0.21428549999995994,
                    "durationTicks": 60,
                    "midi": 36,
                    "name": "C2",
                    "ticks": 97680,
                    "time": 319.71391400000005,
                    "velocity": 1
                },
                {
                    "duration": 0.21428550000001678,
                    "durationTicks": 60,
                    "midi": 38,
                    "name": "D2",
                    "ticks": 97740,
                    "time": 319.9281995,
                    "velocity": 1
                },
                {
                    "duration": 0.4285709999999767,
                    "durationTicks": 120,
                    "midi": 36,
                    "name": "C2",
                    "ticks": 97800,
                    "time": 320.142485,
                    "velocity": 1
                },
                {
                    "duration": 0.21428550000001678,
                    "durationTicks": 60,
                    "midi": 52,
                    "name": "E3",
                    "ticks": 97920,
                    "time": 320.571056,
                    "velocity": 1
                },
                {
                    "duration": 0.21428550000001678,
                    "durationTicks": 60,
                    "midi": 50,
                    "name": "D3",
                    "ticks": 97980,
                    "time": 320.7853415,
                    "velocity": 1
                },
                {
                    "duration": 0.21428550000001678,
                    "durationTicks": 60,
                    "midi": 47,
                    "name": "B2",
                    "ticks": 98040,
                    "time": 320.99962700000003,
                    "velocity": 1
                },
                {
                    "duration": 0.21428550000001678,
                    "durationTicks": 60,
                    "midi": 50,
                    "name": "D3",
                    "ticks": 98100,
                    "time": 321.21391250000005,
                    "velocity": 1
                },
                {
                    "duration": 0.21428549999995994,
                    "durationTicks": 60,
                    "midi": 47,
                    "name": "B2",
                    "ticks": 98160,
                    "time": 321.42819800000007,
                    "velocity": 1
                },
                {
                    "duration": 0.21428550000001678,
                    "durationTicks": 60,
                    "midi": 46,
                    "name": "A#2",
                    "ticks": 98220,
                    "time": 321.6424835,
                    "velocity": 1
                },
                {
                    "duration": 0.21428550000001678,
                    "durationTicks": 60,
                    "midi": 45,
                    "name": "A2",
                    "ticks": 98280,
                    "time": 321.85676900000004,
                    "velocity": 1
                },
                {
                    "duration": 0.21428549999995994,
                    "durationTicks": 60,
                    "midi": 43,
                    "name": "G2",
                    "ticks": 98340,
                    "time": 322.07105450000006,
                    "velocity": 1
                },
                {
                    "duration": 0.21428550000001678,
                    "durationTicks": 60,
                    "midi": 40,
                    "name": "E2",
                    "ticks": 98400,
                    "time": 322.28534,
                    "velocity": 1
                },
                {
                    "duration": 0.21428550000001678,
                    "durationTicks": 60,
                    "midi": 38,
                    "name": "D2",
                    "ticks": 98460,
                    "time": 322.49962550000004,
                    "velocity": 1
                },
                {
                    "duration": 0.21428549999995994,
                    "durationTicks": 60,
                    "midi": 35,
                    "name": "B1",
                    "ticks": 98520,
                    "time": 322.71391100000005,
                    "velocity": 1
                },
                {
                    "duration": 0.21428550000001678,
                    "durationTicks": 60,
                    "midi": 38,
                    "name": "D2",
                    "ticks": 98580,
                    "time": 322.9281965,
                    "velocity": 1
                },
                {
                    "duration": 0.21428550000001678,
                    "durationTicks": 60,
                    "midi": 35,
                    "name": "B1",
                    "ticks": 98640,
                    "time": 323.14248200000003,
                    "velocity": 1
                },
                {
                    "duration": 0.21428549999995994,
                    "durationTicks": 60,
                    "midi": 34,
                    "name": "A#1",
                    "ticks": 98700,
                    "time": 323.35676750000005,
                    "velocity": 1
                },
                {
                    "duration": 0.21428550000001678,
                    "durationTicks": 60,
                    "midi": 33,
                    "name": "A1",
                    "ticks": 98760,
                    "time": 323.571053,
                    "velocity": 1
                },
                {
                    "duration": 0.21428550000001678,
                    "durationTicks": 60,
                    "midi": 31,
                    "name": "G1",
                    "ticks": 98820,
                    "time": 323.7853385,
                    "velocity": 1
                },
                {
                    "duration": 0.21428549999995994,
                    "durationTicks": 60,
                    "midi": 31,
                    "name": "G1",
                    "ticks": 98880,
                    "time": 323.99962400000004,
                    "velocity": 1
                },
                {
                    "duration": 0.21428550000001678,
                    "durationTicks": 60,
                    "midi": 31,
                    "name": "G1",
                    "ticks": 98940,
                    "time": 324.2139095,
                    "velocity": 1
                },
                {
                    "duration": 0.21428550000001678,
                    "durationTicks": 60,
                    "midi": 31,
                    "name": "G1",
                    "ticks": 99000,
                    "time": 324.428195,
                    "velocity": 1
                },
                {
                    "duration": 0.21428550000001678,
                    "durationTicks": 60,
                    "midi": 31,
                    "name": "G1",
                    "ticks": 99060,
                    "time": 324.64248050000003,
                    "velocity": 1
                },
                {
                    "duration": 0.21428550000001678,
                    "durationTicks": 60,
                    "midi": 31,
                    "name": "G1",
                    "ticks": 99120,
                    "time": 324.85676600000005,
                    "velocity": 1
                },
                {
                    "duration": 0.10714274999997997,
                    "durationTicks": 30,
                    "midi": 31,
                    "name": "G1",
                    "ticks": 99180,
                    "time": 325.07105150000007,
                    "velocity": 1
                },
                {
                    "duration": 0.10714274999997997,
                    "durationTicks": 30,
                    "midi": 31,
                    "name": "G1",
                    "ticks": 99210,
                    "time": 325.17819425000005,
                    "velocity": 1
                },
                {
                    "duration": 0.42857100000003356,
                    "durationTicks": 120,
                    "midi": 43,
                    "name": "G2",
                    "ticks": 99240,
                    "time": 325.285337,
                    "velocity": 1
                },
                {
                    "duration": 0.4285709999999767,
                    "durationTicks": 120,
                    "midi": 30,
                    "name": "F#1",
                    "ticks": 99360,
                    "time": 325.71390800000006,
                    "velocity": 1
                },
                {
                    "duration": 0.4285709999999767,
                    "durationTicks": 120,
                    "midi": 30,
                    "name": "F#1",
                    "ticks": 99480,
                    "time": 326.14247900000004,
                    "velocity": 1
                },
                {
                    "duration": 0.42857100000003356,
                    "durationTicks": 120,
                    "midi": 29,
                    "name": "F1",
                    "ticks": 99600,
                    "time": 326.57105,
                    "velocity": 1
                },
                {
                    "duration": 0.4285709999999767,
                    "durationTicks": 120,
                    "midi": 29,
                    "name": "F1",
                    "ticks": 99720,
                    "time": 326.99962100000005,
                    "velocity": 1
                },
                {
                    "duration": 0.21428550000001678,
                    "durationTicks": 60,
                    "midi": 28,
                    "name": "E1",
                    "ticks": 99840,
                    "time": 327.428192,
                    "velocity": 1
                },
                {
                    "duration": 0.21428549999995994,
                    "durationTicks": 60,
                    "midi": 28,
                    "name": "E1",
                    "ticks": 99900,
                    "time": 327.64247750000004,
                    "velocity": 1
                },
                {
                    "duration": 0.21428550000001678,
                    "durationTicks": 60,
                    "midi": 28,
                    "name": "E1",
                    "ticks": 99960,
                    "time": 327.856763,
                    "velocity": 1
                },
                {
                    "duration": 0.21428550000001678,
                    "durationTicks": 60,
                    "midi": 28,
                    "name": "E1",
                    "ticks": 100020,
                    "time": 328.0710485,
                    "velocity": 1
                },
                {
                    "duration": 0.21428550000001678,
                    "durationTicks": 60,
                    "midi": 28,
                    "name": "E1",
                    "ticks": 100080,
                    "time": 328.28533400000003,
                    "velocity": 1
                },
                {
                    "duration": 0.21428550000001678,
                    "durationTicks": 60,
                    "midi": 28,
                    "name": "E1",
                    "ticks": 100140,
                    "time": 328.49961950000005,
                    "velocity": 1
                },
                {
                    "duration": 0.21428549999995994,
                    "durationTicks": 60,
                    "midi": 28,
                    "name": "E1",
                    "ticks": 100200,
                    "time": 328.71390500000007,
                    "velocity": 1
                },
                {
                    "duration": 0.21428550000001678,
                    "durationTicks": 60,
                    "midi": 28,
                    "name": "E1",
                    "ticks": 100260,
                    "time": 328.9281905,
                    "velocity": 1
                },
                {
                    "duration": 0.21428550000001678,
                    "durationTicks": 60,
                    "midi": 28,
                    "name": "E1",
                    "ticks": 100320,
                    "time": 329.14247600000004,
                    "velocity": 1
                },
                {
                    "duration": 0.10714274999997997,
                    "durationTicks": 30,
                    "midi": 33,
                    "name": "A1",
                    "ticks": 100380,
                    "time": 329.35676150000006,
                    "velocity": 1
                },
                {
                    "duration": 0.10714274999997997,
                    "durationTicks": 30,
                    "midi": 35,
                    "name": "B1",
                    "ticks": 100410,
                    "time": 329.46390425000004,
                    "velocity": 1
                },
                {
                    "duration": 0.21428550000001678,
                    "durationTicks": 60,
                    "midi": 38,
                    "name": "D2",
                    "ticks": 100440,
                    "time": 329.571047,
                    "velocity": 1
                },
                {
                    "duration": 0.21428550000001678,
                    "durationTicks": 60,
                    "midi": 28,
                    "name": "E1",
                    "ticks": 100500,
                    "time": 329.78533250000004,
                    "velocity": 1
                },
                {
                    "duration": 0.21428549999995994,
                    "durationTicks": 60,
                    "midi": 40,
                    "name": "E2",
                    "ticks": 100560,
                    "time": 329.99961800000005,
                    "velocity": 1
                },
                {
                    "duration": 0.21428550000001678,
                    "durationTicks": 60,
                    "midi": 28,
                    "name": "E1",
                    "ticks": 100620,
                    "time": 330.2139035,
                    "velocity": 1
                },
                {
                    "duration": 0.21428550000001678,
                    "durationTicks": 60,
                    "midi": 40,
                    "name": "E2",
                    "ticks": 100680,
                    "time": 330.42818900000003,
                    "velocity": 1
                },
                {
                    "duration": 0.21428549999995994,
                    "durationTicks": 60,
                    "midi": 28,
                    "name": "E1",
                    "ticks": 100740,
                    "time": 330.64247450000005,
                    "velocity": 1
                },
                {
                    "duration": 0.21428550000001678,
                    "durationTicks": 60,
                    "midi": 31,
                    "name": "G1",
                    "ticks": 100800,
                    "time": 330.85676,
                    "velocity": 1
                },
                {
                    "duration": 0.21428550000001678,
                    "durationTicks": 60,
                    "midi": 31,
                    "name": "G1",
                    "ticks": 100860,
                    "time": 331.0710455,
                    "velocity": 1
                },
                {
                    "duration": 0.21428549999995994,
                    "durationTicks": 60,
                    "midi": 31,
                    "name": "G1",
                    "ticks": 100920,
                    "time": 331.28533100000004,
                    "velocity": 1
                },
                {
                    "duration": 0.21428550000001678,
                    "durationTicks": 60,
                    "midi": 31,
                    "name": "G1",
                    "ticks": 100980,
                    "time": 331.4996165,
                    "velocity": 1
                },
                {
                    "duration": 0.21428550000001678,
                    "durationTicks": 60,
                    "midi": 31,
                    "name": "G1",
                    "ticks": 101040,
                    "time": 331.713902,
                    "velocity": 1
                },
                {
                    "duration": 0.10714274999997997,
                    "durationTicks": 30,
                    "midi": 31,
                    "name": "G1",
                    "ticks": 101100,
                    "time": 331.92818750000004,
                    "velocity": 1
                },
                {
                    "duration": 0.10714275000003681,
                    "durationTicks": 30,
                    "midi": 31,
                    "name": "G1",
                    "ticks": 101130,
                    "time": 332.03533025,
                    "velocity": 1
                },
                {
                    "duration": 0.4285709999999767,
                    "durationTicks": 120,
                    "midi": 43,
                    "name": "G2",
                    "ticks": 101160,
                    "time": 332.14247300000005,
                    "velocity": 1
                },
                {
                    "duration": 0.42857100000003356,
                    "durationTicks": 120,
                    "midi": 30,
                    "name": "F#1",
                    "ticks": 101280,
                    "time": 332.57104400000003,
                    "velocity": 1
                },
                {
                    "duration": 0.4285709999999767,
                    "durationTicks": 120,
                    "midi": 30,
                    "name": "F#1",
                    "ticks": 101400,
                    "time": 332.99961500000006,
                    "velocity": 1
                },
                {
                    "duration": 0.4285709999999767,
                    "durationTicks": 120,
                    "midi": 29,
                    "name": "F1",
                    "ticks": 101520,
                    "time": 333.42818600000004,
                    "velocity": 1
                },
                {
                    "duration": 0.42857100000003356,
                    "durationTicks": 120,
                    "midi": 29,
                    "name": "F1",
                    "ticks": 101640,
                    "time": 333.856757,
                    "velocity": 1
                },
                {
                    "duration": 0.21428549999995994,
                    "durationTicks": 60,
                    "midi": 28,
                    "name": "E1",
                    "ticks": 101760,
                    "time": 334.28532800000005,
                    "velocity": 1
                },
                {
                    "duration": 0.21428550000001678,
                    "durationTicks": 60,
                    "midi": 28,
                    "name": "E1",
                    "ticks": 101820,
                    "time": 334.4996135,
                    "velocity": 1
                },
                {
                    "duration": 0.21428550000001678,
                    "durationTicks": 60,
                    "midi": 28,
                    "name": "E1",
                    "ticks": 101880,
                    "time": 334.713899,
                    "velocity": 1
                },
                {
                    "duration": 0.21428549999995994,
                    "durationTicks": 60,
                    "midi": 28,
                    "name": "E1",
                    "ticks": 101940,
                    "time": 334.92818450000004,
                    "velocity": 1
                },
                {
                    "duration": 0.21428550000001678,
                    "durationTicks": 60,
                    "midi": 28,
                    "name": "E1",
                    "ticks": 102000,
                    "time": 335.14247,
                    "velocity": 1
                },
                {
                    "duration": 0.21428550000001678,
                    "durationTicks": 60,
                    "midi": 28,
                    "name": "E1",
                    "ticks": 102060,
                    "time": 335.3567555,
                    "velocity": 1
                },
                {
                    "duration": 0.21428550000001678,
                    "durationTicks": 60,
                    "midi": 28,
                    "name": "E1",
                    "ticks": 102120,
                    "time": 335.57104100000004,
                    "velocity": 1
                },
                {
                    "duration": 0.21428550000001678,
                    "durationTicks": 60,
                    "midi": 28,
                    "name": "E1",
                    "ticks": 102180,
                    "time": 335.78532650000005,
                    "velocity": 1
                },
                {
                    "duration": 0.21428549999995994,
                    "durationTicks": 60,
                    "midi": 40,
                    "name": "E2",
                    "ticks": 102240,
                    "time": 335.99961200000007,
                    "velocity": 1
                },
                {
                    "duration": 0.21428550000001678,
                    "durationTicks": 60,
                    "midi": 38,
                    "name": "D2",
                    "ticks": 102300,
                    "time": 336.21389750000003,
                    "velocity": 1
                },
                {
                    "duration": 0.21428550000001678,
                    "durationTicks": 60,
                    "midi": 35,
                    "name": "B1",
                    "ticks": 102360,
                    "time": 336.42818300000005,
                    "velocity": 1
                },
                {
                    "duration": 0.21428549999995994,
                    "durationTicks": 60,
                    "midi": 33,
                    "name": "A1",
                    "ticks": 102420,
                    "time": 336.64246850000006,
                    "velocity": 1
                },
                {
                    "duration": 0.21428550000001678,
                    "durationTicks": 60,
                    "midi": 34,
                    "name": "A#1",
                    "ticks": 102480,
                    "time": 336.856754,
                    "velocity": 1
                },
                {
                    "duration": 0.21428550000001678,
                    "durationTicks": 60,
                    "midi": 33,
                    "name": "A1",
                    "ticks": 102540,
                    "time": 337.07103950000004,
                    "velocity": 1
                },
                {
                    "duration": 0.21428549999995994,
                    "durationTicks": 60,
                    "midi": 35,
                    "name": "B1",
                    "ticks": 102600,
                    "time": 337.28532500000006,
                    "velocity": 1
                },
                {
                    "duration": 0.21428550000001678,
                    "durationTicks": 60,
                    "midi": 33,
                    "name": "A1",
                    "ticks": 102660,
                    "time": 337.4996105,
                    "velocity": 1
                },
                {
                    "duration": 0.21428550000001678,
                    "durationTicks": 60,
                    "midi": 31,
                    "name": "G1",
                    "ticks": 102720,
                    "time": 337.71389600000003,
                    "velocity": 1
                },
                {
                    "duration": 0.21428549999995994,
                    "durationTicks": 60,
                    "midi": 31,
                    "name": "G1",
                    "ticks": 102780,
                    "time": 337.92818150000005,
                    "velocity": 1
                },
                {
                    "duration": 0.21428550000001678,
                    "durationTicks": 60,
                    "midi": 31,
                    "name": "G1",
                    "ticks": 102840,
                    "time": 338.142467,
                    "velocity": 1
                },
                {
                    "duration": 0.21428550000001678,
                    "durationTicks": 60,
                    "midi": 31,
                    "name": "G1",
                    "ticks": 102900,
                    "time": 338.3567525,
                    "velocity": 1
                },
                {
                    "duration": 0.21428549999995994,
                    "durationTicks": 60,
                    "midi": 31,
                    "name": "G1",
                    "ticks": 102960,
                    "time": 338.57103800000004,
                    "velocity": 1
                },
                {
                    "duration": 0.10714275000003681,
                    "durationTicks": 30,
                    "midi": 31,
                    "name": "G1",
                    "ticks": 103020,
                    "time": 338.7853235,
                    "velocity": 1
                },
                {
                    "duration": 0.10714274999997997,
                    "durationTicks": 30,
                    "midi": 31,
                    "name": "G1",
                    "ticks": 103050,
                    "time": 338.89246625000004,
                    "velocity": 1
                },
                {
                    "duration": 0.42857100000003356,
                    "durationTicks": 120,
                    "midi": 43,
                    "name": "G2",
                    "ticks": 103080,
                    "time": 338.999609,
                    "velocity": 1
                },
                {
                    "duration": 0.4285709999999767,
                    "durationTicks": 120,
                    "midi": 30,
                    "name": "F#1",
                    "ticks": 103200,
                    "time": 339.42818000000005,
                    "velocity": 1
                },
                {
                    "duration": 0.42857100000003356,
                    "durationTicks": 120,
                    "midi": 30,
                    "name": "F#1",
                    "ticks": 103320,
                    "time": 339.85675100000003,
                    "velocity": 1
                },
                {
                    "duration": 0.4285709999999767,
                    "durationTicks": 120,
                    "midi": 29,
                    "name": "F1",
                    "ticks": 103440,
                    "time": 340.28532200000006,
                    "velocity": 1
                },
                {
                    "duration": 0.4285709999999767,
                    "durationTicks": 120,
                    "midi": 29,
                    "name": "F1",
                    "ticks": 103560,
                    "time": 340.71389300000004,
                    "velocity": 1
                },
                {
                    "duration": 0.21428550000001678,
                    "durationTicks": 60,
                    "midi": 28,
                    "name": "E1",
                    "ticks": 103680,
                    "time": 341.142464,
                    "velocity": 1
                },
                {
                    "duration": 0.21428550000001678,
                    "durationTicks": 60,
                    "midi": 28,
                    "name": "E1",
                    "ticks": 103740,
                    "time": 341.35674950000003,
                    "velocity": 1
                },
                {
                    "duration": 0.21428549999995994,
                    "durationTicks": 60,
                    "midi": 28,
                    "name": "E1",
                    "ticks": 103800,
                    "time": 341.57103500000005,
                    "velocity": 1
                },
                {
                    "duration": 0.21428550000001678,
                    "durationTicks": 60,
                    "midi": 28,
                    "name": "E1",
                    "ticks": 103860,
                    "time": 341.7853205,
                    "velocity": 1
                },
                {
                    "duration": 0.21428550000001678,
                    "durationTicks": 60,
                    "midi": 28,
                    "name": "E1",
                    "ticks": 103920,
                    "time": 341.999606,
                    "velocity": 1
                },
                {
                    "duration": 0.21428549999995994,
                    "durationTicks": 60,
                    "midi": 28,
                    "name": "E1",
                    "ticks": 103980,
                    "time": 342.21389150000005,
                    "velocity": 1
                },
                {
                    "duration": 0.21428550000001678,
                    "durationTicks": 60,
                    "midi": 28,
                    "name": "E1",
                    "ticks": 104040,
                    "time": 342.428177,
                    "velocity": 1
                },
                {
                    "duration": 0.21428550000001678,
                    "durationTicks": 60,
                    "midi": 28,
                    "name": "E1",
                    "ticks": 104100,
                    "time": 342.6424625,
                    "velocity": 1
                },
                {
                    "duration": 0.21428550000001678,
                    "durationTicks": 60,
                    "midi": 28,
                    "name": "E1",
                    "ticks": 104160,
                    "time": 342.85674800000004,
                    "velocity": 1
                },
                {
                    "duration": 0.10714274999997997,
                    "durationTicks": 30,
                    "midi": 33,
                    "name": "A1",
                    "ticks": 104220,
                    "time": 343.07103350000006,
                    "velocity": 1
                },
                {
                    "duration": 0.10714274999997997,
                    "durationTicks": 30,
                    "midi": 35,
                    "name": "B1",
                    "ticks": 104250,
                    "time": 343.17817625000004,
                    "velocity": 1
                },
                {
                    "duration": 0.21428550000001678,
                    "durationTicks": 60,
                    "midi": 38,
                    "name": "D2",
                    "ticks": 104280,
                    "time": 343.285319,
                    "velocity": 1
                },
                {
                    "duration": 0.21428550000001678,
                    "durationTicks": 60,
                    "midi": 28,
                    "name": "E1",
                    "ticks": 104340,
                    "time": 343.49960450000003,
                    "velocity": 1
                },
                {
                    "duration": 0.21428550000001678,
                    "durationTicks": 60,
                    "midi": 40,
                    "name": "E2",
                    "ticks": 104400,
                    "time": 343.71389000000005,
                    "velocity": 1
                },
                {
                    "duration": 0.21428549999995994,
                    "durationTicks": 60,
                    "midi": 28,
                    "name": "E1",
                    "ticks": 104460,
                    "time": 343.92817550000007,
                    "velocity": 1
                },
                {
                    "duration": 0.21428550000001678,
                    "durationTicks": 60,
                    "midi": 40,
                    "name": "E2",
                    "ticks": 104520,
                    "time": 344.142461,
                    "velocity": 1
                },
                {
                    "duration": 0.21428550000001678,
                    "durationTicks": 60,
                    "midi": 28,
                    "name": "E1",
                    "ticks": 104580,
                    "time": 344.35674650000004,
                    "velocity": 1
                },
                {
                    "duration": 0.21428549999995994,
                    "durationTicks": 60,
                    "midi": 31,
                    "name": "G1",
                    "ticks": 104640,
                    "time": 344.57103200000006,
                    "velocity": 1
                },
                {
                    "duration": 0.21428550000001678,
                    "durationTicks": 60,
                    "midi": 31,
                    "name": "G1",
                    "ticks": 104700,
                    "time": 344.7853175,
                    "velocity": 1
                },
                {
                    "duration": 0.21428550000001678,
                    "durationTicks": 60,
                    "midi": 31,
                    "name": "G1",
                    "ticks": 104760,
                    "time": 344.99960300000004,
                    "velocity": 1
                },
                {
                    "duration": 0.21428549999995994,
                    "durationTicks": 60,
                    "midi": 31,
                    "name": "G1",
                    "ticks": 104820,
                    "time": 345.21388850000005,
                    "velocity": 1
                },
                {
                    "duration": 0.21428550000001678,
                    "durationTicks": 60,
                    "midi": 31,
                    "name": "G1",
                    "ticks": 104880,
                    "time": 345.428174,
                    "velocity": 1
                },
                {
                    "duration": 0.10714275000003681,
                    "durationTicks": 30,
                    "midi": 31,
                    "name": "G1",
                    "ticks": 104940,
                    "time": 345.64245950000003,
                    "velocity": 1
                },
                {
                    "duration": 0.10714274999997997,
                    "durationTicks": 30,
                    "midi": 31,
                    "name": "G1",
                    "ticks": 104970,
                    "time": 345.74960225000007,
                    "velocity": 1
                },
                {
                    "duration": 0.4285709999999767,
                    "durationTicks": 120,
                    "midi": 43,
                    "name": "G2",
                    "ticks": 105000,
                    "time": 345.85674500000005,
                    "velocity": 1
                },
                {
                    "duration": 0.42857100000003356,
                    "durationTicks": 120,
                    "midi": 30,
                    "name": "F#1",
                    "ticks": 105120,
                    "time": 346.285316,
                    "velocity": 1
                },
                {
                    "duration": 0.4285709999999767,
                    "durationTicks": 120,
                    "midi": 30,
                    "name": "F#1",
                    "ticks": 105240,
                    "time": 346.71388700000006,
                    "velocity": 1
                },
                {
                    "duration": 0.42857100000003356,
                    "durationTicks": 120,
                    "midi": 29,
                    "name": "F1",
                    "ticks": 105360,
                    "time": 347.14245800000003,
                    "velocity": 1
                },
                {
                    "duration": 0.4285709999999767,
                    "durationTicks": 120,
                    "midi": 29,
                    "name": "F1",
                    "ticks": 105480,
                    "time": 347.57102900000007,
                    "velocity": 1
                },
                {
                    "duration": 0.21428550000001678,
                    "durationTicks": 60,
                    "midi": 31,
                    "name": "G1",
                    "ticks": 105600,
                    "time": 347.99960000000004,
                    "velocity": 1
                },
                {
                    "duration": 0.21428549999995994,
                    "durationTicks": 60,
                    "midi": 31,
                    "name": "G1",
                    "ticks": 105660,
                    "time": 348.21388550000006,
                    "velocity": 1
                },
                {
                    "duration": 0.21428550000001678,
                    "durationTicks": 60,
                    "midi": 31,
                    "name": "G1",
                    "ticks": 105720,
                    "time": 348.428171,
                    "velocity": 1
                },
                {
                    "duration": 0.21428550000001678,
                    "durationTicks": 60,
                    "midi": 31,
                    "name": "G1",
                    "ticks": 105780,
                    "time": 348.64245650000004,
                    "velocity": 1
                },
                {
                    "duration": 0.21428549999995994,
                    "durationTicks": 60,
                    "midi": 31,
                    "name": "G1",
                    "ticks": 105840,
                    "time": 348.85674200000005,
                    "velocity": 1
                },
                {
                    "duration": 0.21428550000001678,
                    "durationTicks": 60,
                    "midi": 31,
                    "name": "G1",
                    "ticks": 105900,
                    "time": 349.0710275,
                    "velocity": 1
                },
                {
                    "duration": 0.21428550000001678,
                    "durationTicks": 60,
                    "midi": 31,
                    "name": "G1",
                    "ticks": 105960,
                    "time": 349.28531300000003,
                    "velocity": 1
                },
                {
                    "duration": 0.21428549999995994,
                    "durationTicks": 60,
                    "midi": 31,
                    "name": "G1",
                    "ticks": 106020,
                    "time": 349.49959850000005,
                    "velocity": 1
                },
                {
                    "duration": 0.21428550000001678,
                    "durationTicks": 60,
                    "midi": 31,
                    "name": "G1",
                    "ticks": 106080,
                    "time": 349.713884,
                    "velocity": 1
                },
                {
                    "duration": 0.21428550000001678,
                    "durationTicks": 60,
                    "midi": 31,
                    "name": "G1",
                    "ticks": 106140,
                    "time": 349.9281695,
                    "velocity": 1
                },
                {
                    "duration": 0.21428550000001678,
                    "durationTicks": 60,
                    "midi": 31,
                    "name": "G1",
                    "ticks": 106200,
                    "time": 350.14245500000004,
                    "velocity": 1
                },
                {
                    "duration": 0.21428549999995994,
                    "durationTicks": 60,
                    "midi": 31,
                    "name": "G1",
                    "ticks": 106260,
                    "time": 350.35674050000006,
                    "velocity": 1
                },
                {
                    "duration": 0.21428550000001678,
                    "durationTicks": 60,
                    "midi": 31,
                    "name": "G1",
                    "ticks": 106320,
                    "time": 350.571026,
                    "velocity": 1
                },
                {
                    "duration": 0.21428550000001678,
                    "durationTicks": 60,
                    "midi": 31,
                    "name": "G1",
                    "ticks": 106380,
                    "time": 350.78531150000003,
                    "velocity": 1
                },
                {
                    "duration": 0.21428550000001678,
                    "durationTicks": 60,
                    "midi": 31,
                    "name": "G1",
                    "ticks": 106440,
                    "time": 350.99959700000005,
                    "velocity": 1
                },
                {
                    "duration": 0.21428549999995994,
                    "durationTicks": 60,
                    "midi": 43,
                    "name": "G2",
                    "ticks": 106500,
                    "time": 351.21388250000007,
                    "velocity": 1
                },
                {
                    "duration": 0.21428550000001678,
                    "durationTicks": 60,
                    "midi": 42,
                    "name": "F#2",
                    "ticks": 106560,
                    "time": 351.428168,
                    "velocity": 1
                },
                {
                    "duration": 0.21428550000001678,
                    "durationTicks": 60,
                    "midi": 28,
                    "name": "E1",
                    "ticks": 106620,
                    "time": 351.64245350000004,
                    "velocity": 1
                },
                {
                    "duration": 0.21428549999995994,
                    "durationTicks": 60,
                    "midi": 28,
                    "name": "E1",
                    "ticks": 106680,
                    "time": 351.85673900000006,
                    "velocity": 1
                },
                {
                    "duration": 0.21428550000001678,
                    "durationTicks": 60,
                    "midi": 42,
                    "name": "F#2",
                    "ticks": 106740,
                    "time": 352.0710245,
                    "velocity": 1
                },
                {
                    "duration": 0.21428550000001678,
                    "durationTicks": 60,
                    "midi": 41,
                    "name": "F2",
                    "ticks": 106800,
                    "time": 352.28531000000004,
                    "velocity": 1
                },
                {
                    "duration": 0.21428549999995994,
                    "durationTicks": 60,
                    "midi": 28,
                    "name": "E1",
                    "ticks": 106860,
                    "time": 352.49959550000005,
                    "velocity": 1
                },
                {
                    "duration": 0.21428550000001678,
                    "durationTicks": 60,
                    "midi": 28,
                    "name": "E1",
                    "ticks": 106920,
                    "time": 352.713881,
                    "velocity": 1
                },
                {
                    "duration": 0.21428550000001678,
                    "durationTicks": 60,
                    "midi": 41,
                    "name": "F2",
                    "ticks": 106980,
                    "time": 352.92816650000003,
                    "velocity": 1
                },
                {
                    "duration": 0.21428549999995994,
                    "durationTicks": 60,
                    "midi": 40,
                    "name": "E2",
                    "ticks": 107040,
                    "time": 353.14245200000005,
                    "velocity": 1
                },
                {
                    "duration": 0.21428550000001678,
                    "durationTicks": 60,
                    "midi": 28,
                    "name": "E1",
                    "ticks": 107100,
                    "time": 353.3567375,
                    "velocity": 1
                },
                {
                    "duration": 0.21428550000001678,
                    "durationTicks": 60,
                    "midi": 28,
                    "name": "E1",
                    "ticks": 107160,
                    "time": 353.571023,
                    "velocity": 1
                },
                {
                    "duration": 0.21428549999995994,
                    "durationTicks": 60,
                    "midi": 28,
                    "name": "E1",
                    "ticks": 107220,
                    "time": 353.78530850000004,
                    "velocity": 1
                },
                {
                    "duration": 0.21428550000001678,
                    "durationTicks": 60,
                    "midi": 28,
                    "name": "E1",
                    "ticks": 107280,
                    "time": 353.999594,
                    "velocity": 1
                },
                {
                    "duration": 0.21428550000001678,
                    "durationTicks": 60,
                    "midi": 28,
                    "name": "E1",
                    "ticks": 107340,
                    "time": 354.2138795,
                    "velocity": 1
                },
                {
                    "duration": 0.21428550000001678,
                    "durationTicks": 60,
                    "midi": 28,
                    "name": "E1",
                    "ticks": 107400,
                    "time": 354.42816500000004,
                    "velocity": 1
                },
                {
                    "duration": 0.21428550000001678,
                    "durationTicks": 60,
                    "midi": 43,
                    "name": "G2",
                    "ticks": 107460,
                    "time": 354.64245050000005,
                    "velocity": 1
                },
                {
                    "duration": 0.21428549999995994,
                    "durationTicks": 60,
                    "midi": 42,
                    "name": "F#2",
                    "ticks": 107520,
                    "time": 354.85673600000007,
                    "velocity": 1
                },
                {
                    "duration": 0.21428550000001678,
                    "durationTicks": 60,
                    "midi": 28,
                    "name": "E1",
                    "ticks": 107580,
                    "time": 355.07102150000003,
                    "velocity": 1
                },
                {
                    "duration": 0.21428550000001678,
                    "durationTicks": 60,
                    "midi": 28,
                    "name": "E1",
                    "ticks": 107640,
                    "time": 355.28530700000005,
                    "velocity": 1
                },
                {
                    "duration": 0.21428549999995994,
                    "durationTicks": 60,
                    "midi": 42,
                    "name": "F#2",
                    "ticks": 107700,
                    "time": 355.49959250000006,
                    "velocity": 1
                },
                {
                    "duration": 0.21428550000001678,
                    "durationTicks": 60,
                    "midi": 38,
                    "name": "D2",
                    "ticks": 107760,
                    "time": 355.713878,
                    "velocity": 1
                },
                {
                    "duration": 0.21428550000001678,
                    "durationTicks": 60,
                    "midi": 28,
                    "name": "E1",
                    "ticks": 107820,
                    "time": 355.92816350000004,
                    "velocity": 1
                },
                {
                    "duration": 0.21428549999995994,
                    "durationTicks": 60,
                    "midi": 28,
                    "name": "E1",
                    "ticks": 107880,
                    "time": 356.14244900000006,
                    "velocity": 1
                },
                {
                    "duration": 0.21428550000001678,
                    "durationTicks": 60,
                    "midi": 38,
                    "name": "D2",
                    "ticks": 107940,
                    "time": 356.3567345,
                    "velocity": 1
                },
                {
                    "duration": 0.21428550000001678,
                    "durationTicks": 60,
                    "midi": 40,
                    "name": "E2",
                    "ticks": 108000,
                    "time": 356.57102000000003,
                    "velocity": 1
                },
                {
                    "duration": 0.21428549999995994,
                    "durationTicks": 60,
                    "midi": 28,
                    "name": "E1",
                    "ticks": 108060,
                    "time": 356.78530550000005,
                    "velocity": 1
                },
                {
                    "duration": 0.21428550000001678,
                    "durationTicks": 60,
                    "midi": 38,
                    "name": "D2",
                    "ticks": 108120,
                    "time": 356.999591,
                    "velocity": 1
                },
                {
                    "duration": 0.21428550000001678,
                    "durationTicks": 60,
                    "midi": 28,
                    "name": "E1",
                    "ticks": 108180,
                    "time": 357.2138765,
                    "velocity": 1
                },
                {
                    "duration": 0.21428549999995994,
                    "durationTicks": 60,
                    "midi": 40,
                    "name": "E2",
                    "ticks": 108240,
                    "time": 357.42816200000004,
                    "velocity": 1
                },
                {
                    "duration": 0.21428550000001678,
                    "durationTicks": 60,
                    "midi": 40,
                    "name": "E2",
                    "ticks": 108300,
                    "time": 357.6424475,
                    "velocity": 1
                },
                {
                    "duration": 0.21428550000001678,
                    "durationTicks": 60,
                    "midi": 40,
                    "name": "E2",
                    "ticks": 108360,
                    "time": 357.856733,
                    "velocity": 1
                },
                {
                    "duration": 0.21428550000001678,
                    "durationTicks": 60,
                    "midi": 43,
                    "name": "G2",
                    "ticks": 108420,
                    "time": 358.07101850000004,
                    "velocity": 1
                },
                {
                    "duration": 0.21428550000001678,
                    "durationTicks": 60,
                    "midi": 42,
                    "name": "F#2",
                    "ticks": 108480,
                    "time": 358.28530400000005,
                    "velocity": 1
                },
                {
                    "duration": 0.21428549999995994,
                    "durationTicks": 60,
                    "midi": 28,
                    "name": "E1",
                    "ticks": 108540,
                    "time": 358.49958950000007,
                    "velocity": 1
                },
                {
                    "duration": 0.21428550000001678,
                    "durationTicks": 60,
                    "midi": 28,
                    "name": "E1",
                    "ticks": 108600,
                    "time": 358.71387500000003,
                    "velocity": 1
                },
                {
                    "duration": 0.21428550000001678,
                    "durationTicks": 60,
                    "midi": 42,
                    "name": "F#2",
                    "ticks": 108660,
                    "time": 358.92816050000005,
                    "velocity": 1
                },
                {
                    "duration": 0.21428549999995994,
                    "durationTicks": 60,
                    "midi": 41,
                    "name": "F2",
                    "ticks": 108720,
                    "time": 359.14244600000006,
                    "velocity": 1
                },
                {
                    "duration": 0.21428550000001678,
                    "durationTicks": 60,
                    "midi": 28,
                    "name": "E1",
                    "ticks": 108780,
                    "time": 359.3567315,
                    "velocity": 1
                },
                {
                    "duration": 0.21428550000001678,
                    "durationTicks": 60,
                    "midi": 28,
                    "name": "E1",
                    "ticks": 108840,
                    "time": 359.57101700000004,
                    "velocity": 1
                },
                {
                    "duration": 0.21428549999995994,
                    "durationTicks": 60,
                    "midi": 41,
                    "name": "F2",
                    "ticks": 108900,
                    "time": 359.78530250000006,
                    "velocity": 1
                },
                {
                    "duration": 0.21428550000001678,
                    "durationTicks": 60,
                    "midi": 40,
                    "name": "E2",
                    "ticks": 108960,
                    "time": 359.999588,
                    "velocity": 1
                },
                {
                    "duration": 0.21428550000001678,
                    "durationTicks": 60,
                    "midi": 28,
                    "name": "E1",
                    "ticks": 109020,
                    "time": 360.21387350000003,
                    "velocity": 1
                },
                {
                    "duration": 0.21428549999995994,
                    "durationTicks": 60,
                    "midi": 28,
                    "name": "E1",
                    "ticks": 109080,
                    "time": 360.42815900000005,
                    "velocity": 1
                },
                {
                    "duration": 0.21428550000001678,
                    "durationTicks": 60,
                    "midi": 28,
                    "name": "E1",
                    "ticks": 109140,
                    "time": 360.6424445,
                    "velocity": 1
                },
                {
                    "duration": 0.21428550000001678,
                    "durationTicks": 60,
                    "midi": 28,
                    "name": "E1",
                    "ticks": 109200,
                    "time": 360.85673,
                    "velocity": 1
                },
                {
                    "duration": 0.21428549999995994,
                    "durationTicks": 60,
                    "midi": 28,
                    "name": "E1",
                    "ticks": 109260,
                    "time": 361.07101550000004,
                    "velocity": 1
                },
                {
                    "duration": 0.21428550000001678,
                    "durationTicks": 60,
                    "midi": 28,
                    "name": "E1",
                    "ticks": 109320,
                    "time": 361.285301,
                    "velocity": 1
                },
                {
                    "duration": 0.21428550000001678,
                    "durationTicks": 60,
                    "midi": 43,
                    "name": "G2",
                    "ticks": 109380,
                    "time": 361.4995865,
                    "velocity": 1
                },
                {
                    "duration": 0.21428550000001678,
                    "durationTicks": 60,
                    "midi": 42,
                    "name": "F#2",
                    "ticks": 109440,
                    "time": 361.71387200000004,
                    "velocity": 1
                },
                {
                    "duration": 0.21428550000001678,
                    "durationTicks": 60,
                    "midi": 28,
                    "name": "E1",
                    "ticks": 109500,
                    "time": 361.92815750000005,
                    "velocity": 1
                },
                {
                    "duration": 0.21428549999995994,
                    "durationTicks": 60,
                    "midi": 28,
                    "name": "E1",
                    "ticks": 109560,
                    "time": 362.14244300000007,
                    "velocity": 1
                },
                {
                    "duration": 0.21428550000001678,
                    "durationTicks": 60,
                    "midi": 42,
                    "name": "F#2",
                    "ticks": 109620,
                    "time": 362.35672850000003,
                    "velocity": 1
                },
                {
                    "duration": 0.21428550000001678,
                    "durationTicks": 60,
                    "midi": 38,
                    "name": "D2",
                    "ticks": 109680,
                    "time": 362.57101400000005,
                    "velocity": 1
                },
                {
                    "duration": 0.21428549999995994,
                    "durationTicks": 60,
                    "midi": 28,
                    "name": "E1",
                    "ticks": 109740,
                    "time": 362.78529950000006,
                    "velocity": 1
                },
                {
                    "duration": 0.21428550000001678,
                    "durationTicks": 60,
                    "midi": 28,
                    "name": "E1",
                    "ticks": 109800,
                    "time": 362.999585,
                    "velocity": 1
                },
                {
                    "duration": 0.21428550000001678,
                    "durationTicks": 60,
                    "midi": 38,
                    "name": "D2",
                    "ticks": 109860,
                    "time": 363.21387050000004,
                    "velocity": 1
                },
                {
                    "duration": 0.21428549999995994,
                    "durationTicks": 60,
                    "midi": 40,
                    "name": "E2",
                    "ticks": 109920,
                    "time": 363.42815600000006,
                    "velocity": 1
                },
                {
                    "duration": 0.21428550000001678,
                    "durationTicks": 60,
                    "midi": 28,
                    "name": "E1",
                    "ticks": 109980,
                    "time": 363.6424415,
                    "velocity": 1
                },
                {
                    "duration": 0.21428550000001678,
                    "durationTicks": 60,
                    "midi": 38,
                    "name": "D2",
                    "ticks": 110040,
                    "time": 363.85672700000003,
                    "velocity": 1
                },
                {
                    "duration": 0.21428549999995994,
                    "durationTicks": 60,
                    "midi": 28,
                    "name": "E1",
                    "ticks": 110100,
                    "time": 364.07101250000005,
                    "velocity": 1
                },
                {
                    "duration": 0.21428550000001678,
                    "durationTicks": 60,
                    "midi": 40,
                    "name": "E2",
                    "ticks": 110160,
                    "time": 364.285298,
                    "velocity": 1
                },
                {
                    "duration": 0.21428550000001678,
                    "durationTicks": 60,
                    "midi": 40,
                    "name": "E2",
                    "ticks": 110220,
                    "time": 364.4995835,
                    "velocity": 1
                },
                {
                    "duration": 0.21428549999995994,
                    "durationTicks": 60,
                    "midi": 40,
                    "name": "E2",
                    "ticks": 110280,
                    "time": 364.71386900000005,
                    "velocity": 1
                },
                {
                    "duration": 0.21428550000001678,
                    "durationTicks": 60,
                    "midi": 43,
                    "name": "G2",
                    "ticks": 110340,
                    "time": 364.9281545,
                    "velocity": 1
                },
                {
                    "duration": 0.21428550000001678,
                    "durationTicks": 60,
                    "midi": 42,
                    "name": "F#2",
                    "ticks": 110400,
                    "time": 365.14244,
                    "velocity": 1
                },
                {
                    "duration": 0.21428550000001678,
                    "durationTicks": 60,
                    "midi": 28,
                    "name": "E1",
                    "ticks": 110460,
                    "time": 365.35672550000004,
                    "velocity": 1
                },
                {
                    "duration": 0.21428550000001678,
                    "durationTicks": 60,
                    "midi": 28,
                    "name": "E1",
                    "ticks": 110520,
                    "time": 365.57101100000006,
                    "velocity": 1
                },
                {
                    "duration": 0.21428549999995994,
                    "durationTicks": 60,
                    "midi": 42,
                    "name": "F#2",
                    "ticks": 110580,
                    "time": 365.7852965000001,
                    "velocity": 1
                },
                {
                    "duration": 0.21428550000001678,
                    "durationTicks": 60,
                    "midi": 41,
                    "name": "F2",
                    "ticks": 110640,
                    "time": 365.99958200000003,
                    "velocity": 1
                },
                {
                    "duration": 0.21428550000001678,
                    "durationTicks": 60,
                    "midi": 28,
                    "name": "E1",
                    "ticks": 110700,
                    "time": 366.21386750000005,
                    "velocity": 1
                },
                {
                    "duration": 0.21428549999995994,
                    "durationTicks": 60,
                    "midi": 28,
                    "name": "E1",
                    "ticks": 110760,
                    "time": 366.42815300000007,
                    "velocity": 1
                },
                {
                    "duration": 0.21428550000001678,
                    "durationTicks": 60,
                    "midi": 41,
                    "name": "F2",
                    "ticks": 110820,
                    "time": 366.6424385,
                    "velocity": 1
                },
                {
                    "duration": 0.21428550000001678,
                    "durationTicks": 60,
                    "midi": 40,
                    "name": "E2",
                    "ticks": 110880,
                    "time": 366.85672400000004,
                    "velocity": 1
                },
                {
                    "duration": 0.21428549999995994,
                    "durationTicks": 60,
                    "midi": 28,
                    "name": "E1",
                    "ticks": 110940,
                    "time": 367.07100950000006,
                    "velocity": 1
                },
                {
                    "duration": 0.21428550000001678,
                    "durationTicks": 60,
                    "midi": 28,
                    "name": "E1",
                    "ticks": 111000,
                    "time": 367.285295,
                    "velocity": 1
                },
                {
                    "duration": 0.21428550000001678,
                    "durationTicks": 60,
                    "midi": 28,
                    "name": "E1",
                    "ticks": 111060,
                    "time": 367.49958050000004,
                    "velocity": 1
                },
                {
                    "duration": 0.21428549999995994,
                    "durationTicks": 60,
                    "midi": 28,
                    "name": "E1",
                    "ticks": 111120,
                    "time": 367.71386600000005,
                    "velocity": 1
                },
                {
                    "duration": 0.21428550000001678,
                    "durationTicks": 60,
                    "midi": 28,
                    "name": "E1",
                    "ticks": 111180,
                    "time": 367.9281515,
                    "velocity": 1
                },
                {
                    "duration": 0.21428550000001678,
                    "durationTicks": 60,
                    "midi": 28,
                    "name": "E1",
                    "ticks": 111240,
                    "time": 368.14243700000003,
                    "velocity": 1
                },
                {
                    "duration": 0.21428549999995994,
                    "durationTicks": 60,
                    "midi": 43,
                    "name": "G2",
                    "ticks": 111300,
                    "time": 368.35672250000005,
                    "velocity": 1
                },
                {
                    "duration": 0.21428550000001678,
                    "durationTicks": 60,
                    "midi": 42,
                    "name": "F#2",
                    "ticks": 111360,
                    "time": 368.571008,
                    "velocity": 1
                },
                {
                    "duration": 0.21428550000001678,
                    "durationTicks": 60,
                    "midi": 28,
                    "name": "E1",
                    "ticks": 111420,
                    "time": 368.7852935,
                    "velocity": 1
                },
                {
                    "duration": 0.21428550000001678,
                    "durationTicks": 60,
                    "midi": 28,
                    "name": "E1",
                    "ticks": 111480,
                    "time": 368.99957900000004,
                    "velocity": 1
                },
                {
                    "duration": 0.21428550000001678,
                    "durationTicks": 60,
                    "midi": 42,
                    "name": "F#2",
                    "ticks": 111540,
                    "time": 369.21386450000006,
                    "velocity": 1
                },
                {
                    "duration": 0.21428549999995994,
                    "durationTicks": 60,
                    "midi": 38,
                    "name": "D2",
                    "ticks": 111600,
                    "time": 369.4281500000001,
                    "velocity": 1
                },
                {
                    "duration": 0.21428550000001678,
                    "durationTicks": 60,
                    "midi": 28,
                    "name": "E1",
                    "ticks": 111660,
                    "time": 369.64243550000003,
                    "velocity": 1
                },
                {
                    "duration": 0.21428550000001678,
                    "durationTicks": 60,
                    "midi": 28,
                    "name": "E1",
                    "ticks": 111720,
                    "time": 369.85672100000005,
                    "velocity": 1
                },
                {
                    "duration": 0.21428549999995994,
                    "durationTicks": 60,
                    "midi": 38,
                    "name": "D2",
                    "ticks": 111780,
                    "time": 370.07100650000007,
                    "velocity": 1
                },
                {
                    "duration": 0.21428550000001678,
                    "durationTicks": 60,
                    "midi": 40,
                    "name": "E2",
                    "ticks": 111840,
                    "time": 370.285292,
                    "velocity": 1
                },
                {
                    "duration": 0.21428550000001678,
                    "durationTicks": 60,
                    "midi": 28,
                    "name": "E1",
                    "ticks": 111900,
                    "time": 370.49957750000004,
                    "velocity": 1
                },
                {
                    "duration": 0.21428549999995994,
                    "durationTicks": 60,
                    "midi": 38,
                    "name": "D2",
                    "ticks": 111960,
                    "time": 370.71386300000006,
                    "velocity": 1
                },
                {
                    "duration": 0.21428550000001678,
                    "durationTicks": 60,
                    "midi": 28,
                    "name": "E1",
                    "ticks": 112020,
                    "time": 370.9281485,
                    "velocity": 1
                },
                {
                    "duration": 0.21428550000001678,
                    "durationTicks": 60,
                    "midi": 40,
                    "name": "E2",
                    "ticks": 112080,
                    "time": 371.14243400000004,
                    "velocity": 1
                },
                {
                    "duration": 0.21428549999995994,
                    "durationTicks": 60,
                    "midi": 40,
                    "name": "E2",
                    "ticks": 112140,
                    "time": 371.35671950000005,
                    "velocity": 1
                },
                {
                    "duration": 0.21428550000001678,
                    "durationTicks": 60,
                    "midi": 40,
                    "name": "E2",
                    "ticks": 112200,
                    "time": 371.571005,
                    "velocity": 1
                },
                {
                    "duration": 0.21428550000001678,
                    "durationTicks": 60,
                    "midi": 43,
                    "name": "G2",
                    "ticks": 112260,
                    "time": 371.78529050000003,
                    "velocity": 1
                },
                {
                    "duration": 0.21428549999995994,
                    "durationTicks": 60,
                    "midi": 42,
                    "name": "F#2",
                    "ticks": 112320,
                    "time": 371.99957600000005,
                    "velocity": 1
                },
                {
                    "duration": 0.21428550000001678,
                    "durationTicks": 60,
                    "midi": 28,
                    "name": "E1",
                    "ticks": 112380,
                    "time": 372.2138615,
                    "velocity": 1
                },
                {
                    "duration": 0.21428550000001678,
                    "durationTicks": 60,
                    "midi": 28,
                    "name": "E1",
                    "ticks": 112440,
                    "time": 372.428147,
                    "velocity": 1
                },
                {
                    "duration": 0.21428550000001678,
                    "durationTicks": 60,
                    "midi": 42,
                    "name": "F#2",
                    "ticks": 112500,
                    "time": 372.64243250000004,
                    "velocity": 1
                },
                {
                    "duration": 0.21428549999995994,
                    "durationTicks": 60,
                    "midi": 41,
                    "name": "F2",
                    "ticks": 112560,
                    "time": 372.85671800000006,
                    "velocity": 1
                },
                {
                    "duration": 0.21428550000001678,
                    "durationTicks": 60,
                    "midi": 28,
                    "name": "E1",
                    "ticks": 112620,
                    "time": 373.0710035,
                    "velocity": 1
                },
                {
                    "duration": 0.21428550000001678,
                    "durationTicks": 60,
                    "midi": 28,
                    "name": "E1",
                    "ticks": 112680,
                    "time": 373.28528900000003,
                    "velocity": 1
                },
                {
                    "duration": 0.21428550000001678,
                    "durationTicks": 60,
                    "midi": 41,
                    "name": "F2",
                    "ticks": 112740,
                    "time": 373.49957450000005,
                    "velocity": 1
                },
                {
                    "duration": 0.21428549999995994,
                    "durationTicks": 60,
                    "midi": 40,
                    "name": "E2",
                    "ticks": 112800,
                    "time": 373.71386000000007,
                    "velocity": 1
                },
                {
                    "duration": 0.21428550000001678,
                    "durationTicks": 60,
                    "midi": 28,
                    "name": "E1",
                    "ticks": 112860,
                    "time": 373.9281455,
                    "velocity": 1
                },
                {
                    "duration": 0.21428550000001678,
                    "durationTicks": 60,
                    "midi": 28,
                    "name": "E1",
                    "ticks": 112920,
                    "time": 374.14243100000004,
                    "velocity": 1
                },
                {
                    "duration": 0.21428549999995994,
                    "durationTicks": 60,
                    "midi": 28,
                    "name": "E1",
                    "ticks": 112980,
                    "time": 374.35671650000006,
                    "velocity": 1
                },
                {
                    "duration": 0.21428550000001678,
                    "durationTicks": 60,
                    "midi": 28,
                    "name": "E1",
                    "ticks": 113040,
                    "time": 374.571002,
                    "velocity": 1
                },
                {
                    "duration": 0.21428550000001678,
                    "durationTicks": 60,
                    "midi": 28,
                    "name": "E1",
                    "ticks": 113100,
                    "time": 374.78528750000004,
                    "velocity": 1
                },
                {
                    "duration": 0.21428549999995994,
                    "durationTicks": 60,
                    "midi": 28,
                    "name": "E1",
                    "ticks": 113160,
                    "time": 374.99957300000005,
                    "velocity": 1
                },
                {
                    "duration": 0.21428550000001678,
                    "durationTicks": 60,
                    "midi": 43,
                    "name": "G2",
                    "ticks": 113220,
                    "time": 375.2138585,
                    "velocity": 1
                },
                {
                    "duration": 0.21428550000001678,
                    "durationTicks": 60,
                    "midi": 42,
                    "name": "F#2",
                    "ticks": 113280,
                    "time": 375.42814400000003,
                    "velocity": 1
                },
                {
                    "duration": 0.21428549999995994,
                    "durationTicks": 60,
                    "midi": 28,
                    "name": "E1",
                    "ticks": 113340,
                    "time": 375.64242950000005,
                    "velocity": 1
                },
                {
                    "duration": 0.21428550000001678,
                    "durationTicks": 60,
                    "midi": 28,
                    "name": "E1",
                    "ticks": 113400,
                    "time": 375.856715,
                    "velocity": 1
                },
                {
                    "duration": 0.21428550000001678,
                    "durationTicks": 60,
                    "midi": 42,
                    "name": "F#2",
                    "ticks": 113460,
                    "time": 376.0710005,
                    "velocity": 1
                },
                {
                    "duration": 0.21428550000001678,
                    "durationTicks": 60,
                    "midi": 38,
                    "name": "D2",
                    "ticks": 113520,
                    "time": 376.28528600000004,
                    "velocity": 1
                },
                {
                    "duration": 0.21428549999995994,
                    "durationTicks": 60,
                    "midi": 28,
                    "name": "E1",
                    "ticks": 113580,
                    "time": 376.49957150000006,
                    "velocity": 1
                },
                {
                    "duration": 0.21428550000001678,
                    "durationTicks": 60,
                    "midi": 28,
                    "name": "E1",
                    "ticks": 113640,
                    "time": 376.713857,
                    "velocity": 1
                },
                {
                    "duration": 0.21428550000001678,
                    "durationTicks": 60,
                    "midi": 38,
                    "name": "D2",
                    "ticks": 113700,
                    "time": 376.92814250000004,
                    "velocity": 1
                },
                {
                    "duration": 0.21428550000001678,
                    "durationTicks": 60,
                    "midi": 40,
                    "name": "E2",
                    "ticks": 113760,
                    "time": 377.14242800000005,
                    "velocity": 1
                },
                {
                    "duration": 0.21428549999995994,
                    "durationTicks": 60,
                    "midi": 28,
                    "name": "E1",
                    "ticks": 113820,
                    "time": 377.35671350000007,
                    "velocity": 1
                },
                {
                    "duration": 0.21428550000001678,
                    "durationTicks": 60,
                    "midi": 38,
                    "name": "D2",
                    "ticks": 113880,
                    "time": 377.57099900000003,
                    "velocity": 1
                },
                {
                    "duration": 0.21428550000001678,
                    "durationTicks": 60,
                    "midi": 28,
                    "name": "E1",
                    "ticks": 113940,
                    "time": 377.78528450000005,
                    "velocity": 1
                },
                {
                    "duration": 0.21428549999995994,
                    "durationTicks": 60,
                    "midi": 40,
                    "name": "E2",
                    "ticks": 114000,
                    "time": 377.99957000000006,
                    "velocity": 1
                },
                {
                    "duration": 0.21428550000001678,
                    "durationTicks": 60,
                    "midi": 40,
                    "name": "E2",
                    "ticks": 114060,
                    "time": 378.2138555,
                    "velocity": 1
                },
                {
                    "duration": 0.4285709999999767,
                    "durationTicks": 120,
                    "midi": 40,
                    "name": "E2",
                    "ticks": 114120,
                    "time": 378.42814100000004,
                    "velocity": 1
                },
                {
                    "duration": 0.21428550000001678,
                    "durationTicks": 60,
                    "midi": 28,
                    "name": "E1",
                    "ticks": 114240,
                    "time": 378.856712,
                    "velocity": 1
                },
                {
                    "duration": 0.21428550000001678,
                    "durationTicks": 60,
                    "midi": 28,
                    "name": "E1",
                    "ticks": 114300,
                    "time": 379.07099750000003,
                    "velocity": 1
                },
                {
                    "duration": 0.21428549999995994,
                    "durationTicks": 60,
                    "midi": 28,
                    "name": "E1",
                    "ticks": 114360,
                    "time": 379.28528300000005,
                    "velocity": 1
                },
                {
                    "duration": 0.21428550000001678,
                    "durationTicks": 60,
                    "midi": 28,
                    "name": "E1",
                    "ticks": 114420,
                    "time": 379.4995685,
                    "velocity": 1
                },
                {
                    "duration": 0.21428550000001678,
                    "durationTicks": 60,
                    "midi": 28,
                    "name": "E1",
                    "ticks": 114480,
                    "time": 379.713854,
                    "velocity": 1
                },
                {
                    "duration": 0.21428549999995994,
                    "durationTicks": 60,
                    "midi": 31,
                    "name": "G1",
                    "ticks": 114540,
                    "time": 379.92813950000004,
                    "velocity": 1
                },
                {
                    "duration": 0.21428550000007363,
                    "durationTicks": 60,
                    "midi": 28,
                    "name": "E1",
                    "ticks": 114600,
                    "time": 380.142425,
                    "velocity": 1
                },
                {
                    "duration": 0.21428549999995994,
                    "durationTicks": 60,
                    "midi": 28,
                    "name": "E1",
                    "ticks": 114660,
                    "time": 380.3567105000001,
                    "velocity": 1
                },
                {
                    "duration": 0.21428550000001678,
                    "durationTicks": 60,
                    "midi": 30,
                    "name": "F#1",
                    "ticks": 114720,
                    "time": 380.57099600000004,
                    "velocity": 1
                },
                {
                    "duration": 0.21428550000001678,
                    "durationTicks": 60,
                    "midi": 28,
                    "name": "E1",
                    "ticks": 114780,
                    "time": 380.78528150000005,
                    "velocity": 1
                },
                {
                    "duration": 0.21428549999995994,
                    "durationTicks": 60,
                    "midi": 28,
                    "name": "E1",
                    "ticks": 114840,
                    "time": 380.99956700000007,
                    "velocity": 1
                },
                {
                    "duration": 0.21428550000001678,
                    "durationTicks": 60,
                    "midi": 31,
                    "name": "G1",
                    "ticks": 114900,
                    "time": 381.21385250000003,
                    "velocity": 1
                },
                {
                    "duration": 0.21428550000001678,
                    "durationTicks": 60,
                    "midi": 28,
                    "name": "E1",
                    "ticks": 114960,
                    "time": 381.42813800000005,
                    "velocity": 1
                },
                {
                    "duration": 0.21428549999995994,
                    "durationTicks": 60,
                    "midi": 28,
                    "name": "E1",
                    "ticks": 115020,
                    "time": 381.64242350000006,
                    "velocity": 1
                },
                {
                    "duration": 0.21428550000001678,
                    "durationTicks": 60,
                    "midi": 33,
                    "name": "A1",
                    "ticks": 115080,
                    "time": 381.856709,
                    "velocity": 1
                },
                {
                    "duration": 0.21428550000001678,
                    "durationTicks": 60,
                    "midi": 31,
                    "name": "G1",
                    "ticks": 115140,
                    "time": 382.07099450000004,
                    "velocity": 1
                },
                {
                    "duration": 0.21428549999995994,
                    "durationTicks": 60,
                    "midi": 28,
                    "name": "E1",
                    "ticks": 115200,
                    "time": 382.28528000000006,
                    "velocity": 1
                },
                {
                    "duration": 0.21428550000001678,
                    "durationTicks": 60,
                    "midi": 28,
                    "name": "E1",
                    "ticks": 115260,
                    "time": 382.4995655,
                    "velocity": 1
                },
                {
                    "duration": 0.21428550000001678,
                    "durationTicks": 60,
                    "midi": 28,
                    "name": "E1",
                    "ticks": 115320,
                    "time": 382.71385100000003,
                    "velocity": 1
                },
                {
                    "duration": 0.21428549999995994,
                    "durationTicks": 60,
                    "midi": 28,
                    "name": "E1",
                    "ticks": 115380,
                    "time": 382.92813650000005,
                    "velocity": 1
                },
                {
                    "duration": 0.21428550000001678,
                    "durationTicks": 60,
                    "midi": 28,
                    "name": "E1",
                    "ticks": 115440,
                    "time": 383.142422,
                    "velocity": 1
                },
                {
                    "duration": 0.21428550000001678,
                    "durationTicks": 60,
                    "midi": 31,
                    "name": "G1",
                    "ticks": 115500,
                    "time": 383.3567075,
                    "velocity": 1
                },
                {
                    "duration": 0.21428549999995994,
                    "durationTicks": 60,
                    "midi": 28,
                    "name": "E1",
                    "ticks": 115560,
                    "time": 383.57099300000004,
                    "velocity": 1
                },
                {
                    "duration": 0.21428550000007363,
                    "durationTicks": 60,
                    "midi": 28,
                    "name": "E1",
                    "ticks": 115620,
                    "time": 383.7852785,
                    "velocity": 1
                },
                {
                    "duration": 0.21428549999995994,
                    "durationTicks": 60,
                    "midi": 30,
                    "name": "F#1",
                    "ticks": 115680,
                    "time": 383.9995640000001,
                    "velocity": 1
                },
                {
                    "duration": 0.21428549999995994,
                    "durationTicks": 60,
                    "midi": 28,
                    "name": "E1",
                    "ticks": 115740,
                    "time": 384.21384950000004,
                    "velocity": 1
                },
                {
                    "duration": 0.21428550000007363,
                    "durationTicks": 60,
                    "midi": 28,
                    "name": "E1",
                    "ticks": 115800,
                    "time": 384.428135,
                    "velocity": 1
                },
                {
                    "duration": 0.21428549999995994,
                    "durationTicks": 60,
                    "midi": 31,
                    "name": "G1",
                    "ticks": 115860,
                    "time": 384.64242050000007,
                    "velocity": 1
                },
                {
                    "duration": 0.21428550000001678,
                    "durationTicks": 60,
                    "midi": 28,
                    "name": "E1",
                    "ticks": 115920,
                    "time": 384.85670600000003,
                    "velocity": 1
                },
                {
                    "duration": 0.21428550000001678,
                    "durationTicks": 60,
                    "midi": 28,
                    "name": "E1",
                    "ticks": 115980,
                    "time": 385.07099150000005,
                    "velocity": 1
                },
                {
                    "duration": 0.21428549999995994,
                    "durationTicks": 60,
                    "midi": 33,
                    "name": "A1",
                    "ticks": 116040,
                    "time": 385.28527700000006,
                    "velocity": 1
                },
                {
                    "duration": 0.21428550000001678,
                    "durationTicks": 60,
                    "midi": 31,
                    "name": "G1",
                    "ticks": 116100,
                    "time": 385.4995625,
                    "velocity": 1
                },
                {
                    "duration": 0.21428550000001678,
                    "durationTicks": 60,
                    "midi": 28,
                    "name": "E1",
                    "ticks": 116160,
                    "time": 385.71384800000004,
                    "velocity": 1
                },
                {
                    "duration": 0.21428549999995994,
                    "durationTicks": 60,
                    "midi": 28,
                    "name": "E1",
                    "ticks": 116220,
                    "time": 385.92813350000006,
                    "velocity": 1
                },
                {
                    "duration": 0.21428550000001678,
                    "durationTicks": 60,
                    "midi": 28,
                    "name": "E1",
                    "ticks": 116280,
                    "time": 386.142419,
                    "velocity": 1
                },
                {
                    "duration": 0.21428550000001678,
                    "durationTicks": 60,
                    "midi": 28,
                    "name": "E1",
                    "ticks": 116340,
                    "time": 386.35670450000003,
                    "velocity": 1
                },
                {
                    "duration": 0.21428549999995994,
                    "durationTicks": 60,
                    "midi": 28,
                    "name": "E1",
                    "ticks": 116400,
                    "time": 386.57099000000005,
                    "velocity": 1
                },
                {
                    "duration": 0.21428550000001678,
                    "durationTicks": 60,
                    "midi": 31,
                    "name": "G1",
                    "ticks": 116460,
                    "time": 386.7852755,
                    "velocity": 1
                },
                {
                    "duration": 0.21428550000001678,
                    "durationTicks": 60,
                    "midi": 28,
                    "name": "E1",
                    "ticks": 116520,
                    "time": 386.999561,
                    "velocity": 1
                },
                {
                    "duration": 0.21428549999995994,
                    "durationTicks": 60,
                    "midi": 28,
                    "name": "E1",
                    "ticks": 116580,
                    "time": 387.21384650000005,
                    "velocity": 1
                },
                {
                    "duration": 0.21428550000007363,
                    "durationTicks": 60,
                    "midi": 30,
                    "name": "F#1",
                    "ticks": 116640,
                    "time": 387.428132,
                    "velocity": 1
                },
                {
                    "duration": 0.21428549999995994,
                    "durationTicks": 60,
                    "midi": 28,
                    "name": "E1",
                    "ticks": 116700,
                    "time": 387.6424175000001,
                    "velocity": 1
                },
                {
                    "duration": 0.21428549999995994,
                    "durationTicks": 60,
                    "midi": 28,
                    "name": "E1",
                    "ticks": 116760,
                    "time": 387.85670300000004,
                    "velocity": 1
                },
                {
                    "duration": 0.21428550000007363,
                    "durationTicks": 60,
                    "midi": 31,
                    "name": "G1",
                    "ticks": 116820,
                    "time": 388.0709885,
                    "velocity": 1
                },
                {
                    "duration": 0.21428549999995994,
                    "durationTicks": 60,
                    "midi": 28,
                    "name": "E1",
                    "ticks": 116880,
                    "time": 388.2852740000001,
                    "velocity": 1
                },
                {
                    "duration": 0.21428550000001678,
                    "durationTicks": 60,
                    "midi": 28,
                    "name": "E1",
                    "ticks": 116940,
                    "time": 388.49955950000003,
                    "velocity": 1
                },
                {
                    "duration": 0.21428550000001678,
                    "durationTicks": 60,
                    "midi": 33,
                    "name": "A1",
                    "ticks": 117000,
                    "time": 388.71384500000005,
                    "velocity": 1
                },
                {
                    "duration": 0.21428549999995994,
                    "durationTicks": 60,
                    "midi": 31,
                    "name": "G1",
                    "ticks": 117060,
                    "time": 388.92813050000007,
                    "velocity": 1
                },
                {
                    "duration": 0.21428550000001678,
                    "durationTicks": 60,
                    "midi": 28,
                    "name": "E1",
                    "ticks": 117120,
                    "time": 389.142416,
                    "velocity": 1
                },
                {
                    "duration": 0.21428550000001678,
                    "durationTicks": 60,
                    "midi": 28,
                    "name": "E1",
                    "ticks": 117180,
                    "time": 389.35670150000004,
                    "velocity": 1
                },
                {
                    "duration": 0.21428549999995994,
                    "durationTicks": 60,
                    "midi": 28,
                    "name": "E1",
                    "ticks": 117240,
                    "time": 389.57098700000006,
                    "velocity": 1
                },
                {
                    "duration": 0.21428550000001678,
                    "durationTicks": 60,
                    "midi": 28,
                    "name": "E1",
                    "ticks": 117300,
                    "time": 389.7852725,
                    "velocity": 1
                },
                {
                    "duration": 0.21428550000001678,
                    "durationTicks": 60,
                    "midi": 28,
                    "name": "E1",
                    "ticks": 117360,
                    "time": 389.99955800000004,
                    "velocity": 1
                },
                {
                    "duration": 0.21428549999995994,
                    "durationTicks": 60,
                    "midi": 31,
                    "name": "G1",
                    "ticks": 117420,
                    "time": 390.21384350000005,
                    "velocity": 1
                },
                {
                    "duration": 0.21428550000001678,
                    "durationTicks": 60,
                    "midi": 28,
                    "name": "E1",
                    "ticks": 117480,
                    "time": 390.428129,
                    "velocity": 1
                },
                {
                    "duration": 0.21428550000001678,
                    "durationTicks": 60,
                    "midi": 28,
                    "name": "E1",
                    "ticks": 117540,
                    "time": 390.64241450000003,
                    "velocity": 1
                },
                {
                    "duration": 0.21428549999995994,
                    "durationTicks": 60,
                    "midi": 30,
                    "name": "F#1",
                    "ticks": 117600,
                    "time": 390.85670000000005,
                    "velocity": 1
                },
                {
                    "duration": 0.21428550000007363,
                    "durationTicks": 60,
                    "midi": 28,
                    "name": "E1",
                    "ticks": 117660,
                    "time": 391.0709855,
                    "velocity": 1
                },
                {
                    "duration": 0.21428549999995994,
                    "durationTicks": 60,
                    "midi": 28,
                    "name": "E1",
                    "ticks": 117720,
                    "time": 391.2852710000001,
                    "velocity": 1
                },
                {
                    "duration": 0.21428549999995994,
                    "durationTicks": 60,
                    "midi": 31,
                    "name": "G1",
                    "ticks": 117780,
                    "time": 391.49955650000004,
                    "velocity": 1
                },
                {
                    "duration": 0.21428550000007363,
                    "durationTicks": 60,
                    "midi": 28,
                    "name": "E1",
                    "ticks": 117840,
                    "time": 391.713842,
                    "velocity": 1
                },
                {
                    "duration": 0.21428549999995994,
                    "durationTicks": 60,
                    "midi": 28,
                    "name": "E1",
                    "ticks": 117900,
                    "time": 391.9281275000001,
                    "velocity": 1
                },
                {
                    "duration": 0.21428550000001678,
                    "durationTicks": 60,
                    "midi": 33,
                    "name": "A1",
                    "ticks": 117960,
                    "time": 392.14241300000003,
                    "velocity": 1
                },
                {
                    "duration": 0.21428550000001678,
                    "durationTicks": 60,
                    "midi": 31,
                    "name": "G1",
                    "ticks": 118020,
                    "time": 392.35669850000005,
                    "velocity": 1
                },
                {
                    "duration": 0.21428549999995994,
                    "durationTicks": 60,
                    "midi": 28,
                    "name": "E1",
                    "ticks": 118080,
                    "time": 392.57098400000007,
                    "velocity": 1
                },
                {
                    "duration": 0.21428550000001678,
                    "durationTicks": 60,
                    "midi": 28,
                    "name": "E1",
                    "ticks": 118140,
                    "time": 392.7852695,
                    "velocity": 1
                },
                {
                    "duration": 0.21428550000001678,
                    "durationTicks": 60,
                    "midi": 28,
                    "name": "E1",
                    "ticks": 118200,
                    "time": 392.99955500000004,
                    "velocity": 1
                },
                {
                    "duration": 0.21428549999995994,
                    "durationTicks": 60,
                    "midi": 28,
                    "name": "E1",
                    "ticks": 118260,
                    "time": 393.21384050000006,
                    "velocity": 1
                },
                {
                    "duration": 0.21428550000001678,
                    "durationTicks": 60,
                    "midi": 28,
                    "name": "E1",
                    "ticks": 118320,
                    "time": 393.428126,
                    "velocity": 1
                },
                {
                    "duration": 0.21428550000001678,
                    "durationTicks": 60,
                    "midi": 31,
                    "name": "G1",
                    "ticks": 118380,
                    "time": 393.64241150000004,
                    "velocity": 1
                },
                {
                    "duration": 0.21428549999995994,
                    "durationTicks": 60,
                    "midi": 28,
                    "name": "E1",
                    "ticks": 118440,
                    "time": 393.85669700000005,
                    "velocity": 1
                },
                {
                    "duration": 0.21428550000001678,
                    "durationTicks": 60,
                    "midi": 28,
                    "name": "E1",
                    "ticks": 118500,
                    "time": 394.0709825,
                    "velocity": 1
                },
                {
                    "duration": 0.21428550000001678,
                    "durationTicks": 60,
                    "midi": 30,
                    "name": "F#1",
                    "ticks": 118560,
                    "time": 394.28526800000003,
                    "velocity": 1
                },
                {
                    "duration": 0.21428549999995994,
                    "durationTicks": 60,
                    "midi": 28,
                    "name": "E1",
                    "ticks": 118620,
                    "time": 394.49955350000005,
                    "velocity": 1
                },
                {
                    "duration": 0.21428550000007363,
                    "durationTicks": 60,
                    "midi": 28,
                    "name": "E1",
                    "ticks": 118680,
                    "time": 394.713839,
                    "velocity": 1
                },
                {
                    "duration": 0.21428549999995994,
                    "durationTicks": 60,
                    "midi": 31,
                    "name": "G1",
                    "ticks": 118740,
                    "time": 394.9281245000001,
                    "velocity": 1
                },
                {
                    "duration": 0.21428549999995994,
                    "durationTicks": 60,
                    "midi": 28,
                    "name": "E1",
                    "ticks": 118800,
                    "time": 395.14241000000004,
                    "velocity": 1
                },
                {
                    "duration": 0.21428550000007363,
                    "durationTicks": 60,
                    "midi": 28,
                    "name": "E1",
                    "ticks": 118860,
                    "time": 395.3566955,
                    "velocity": 1
                },
                {
                    "duration": 0.21428549999995994,
                    "durationTicks": 60,
                    "midi": 33,
                    "name": "A1",
                    "ticks": 118920,
                    "time": 395.5709810000001,
                    "velocity": 1
                },
                {
                    "duration": 0.21428550000001678,
                    "durationTicks": 60,
                    "midi": 31,
                    "name": "G1",
                    "ticks": 118980,
                    "time": 395.78526650000003,
                    "velocity": 1
                },
                {
                    "duration": 0.21428550000001678,
                    "durationTicks": 60,
                    "midi": 28,
                    "name": "E1",
                    "ticks": 119040,
                    "time": 395.99955200000005,
                    "velocity": 1
                },
                {
                    "duration": 0.21428549999995994,
                    "durationTicks": 60,
                    "midi": 28,
                    "name": "E1",
                    "ticks": 119100,
                    "time": 396.21383750000007,
                    "velocity": 1
                },
                {
                    "duration": 0.21428550000001678,
                    "durationTicks": 60,
                    "midi": 28,
                    "name": "E1",
                    "ticks": 119160,
                    "time": 396.428123,
                    "velocity": 1
                },
                {
                    "duration": 0.21428550000001678,
                    "durationTicks": 60,
                    "midi": 28,
                    "name": "E1",
                    "ticks": 119220,
                    "time": 396.64240850000004,
                    "velocity": 1
                },
                {
                    "duration": 0.21428549999995994,
                    "durationTicks": 60,
                    "midi": 28,
                    "name": "E1",
                    "ticks": 119280,
                    "time": 396.85669400000006,
                    "velocity": 1
                },
                {
                    "duration": 0.21428550000001678,
                    "durationTicks": 60,
                    "midi": 31,
                    "name": "G1",
                    "ticks": 119340,
                    "time": 397.0709795,
                    "velocity": 1
                },
                {
                    "duration": 0.21428550000001678,
                    "durationTicks": 60,
                    "midi": 28,
                    "name": "E1",
                    "ticks": 119400,
                    "time": 397.28526500000004,
                    "velocity": 1
                },
                {
                    "duration": 0.21428549999995994,
                    "durationTicks": 60,
                    "midi": 28,
                    "name": "E1",
                    "ticks": 119460,
                    "time": 397.49955050000005,
                    "velocity": 1
                },
                {
                    "duration": 0.21428550000001678,
                    "durationTicks": 60,
                    "midi": 30,
                    "name": "F#1",
                    "ticks": 119520,
                    "time": 397.713836,
                    "velocity": 1
                },
                {
                    "duration": 0.21428550000001678,
                    "durationTicks": 60,
                    "midi": 28,
                    "name": "E1",
                    "ticks": 119580,
                    "time": 397.92812150000003,
                    "velocity": 1
                },
                {
                    "duration": 0.21428549999995994,
                    "durationTicks": 60,
                    "midi": 28,
                    "name": "E1",
                    "ticks": 119640,
                    "time": 398.14240700000005,
                    "velocity": 1
                },
                {
                    "duration": 0.21428550000007363,
                    "durationTicks": 60,
                    "midi": 31,
                    "name": "G1",
                    "ticks": 119700,
                    "time": 398.3566925,
                    "velocity": 1
                },
                {
                    "duration": 0.21428549999995994,
                    "durationTicks": 60,
                    "midi": 28,
                    "name": "E1",
                    "ticks": 119760,
                    "time": 398.5709780000001,
                    "velocity": 1
                },
                {
                    "duration": 0.21428549999995994,
                    "durationTicks": 60,
                    "midi": 28,
                    "name": "E1",
                    "ticks": 119820,
                    "time": 398.78526350000004,
                    "velocity": 1
                },
                {
                    "duration": 0.21428550000007363,
                    "durationTicks": 60,
                    "midi": 33,
                    "name": "A1",
                    "ticks": 119880,
                    "time": 398.999549,
                    "velocity": 1
                },
                {
                    "duration": 0.21428549999995994,
                    "durationTicks": 60,
                    "midi": 31,
                    "name": "G1",
                    "ticks": 119940,
                    "time": 399.2138345000001,
                    "velocity": 1
                },
                {
                    "duration": 0.21428550000001678,
                    "durationTicks": 60,
                    "midi": 28,
                    "name": "E1",
                    "ticks": 120000,
                    "time": 399.42812000000004,
                    "velocity": 1
                },
                {
                    "duration": 0.21428550000001678,
                    "durationTicks": 60,
                    "midi": 28,
                    "name": "E1",
                    "ticks": 120060,
                    "time": 399.64240550000005,
                    "velocity": 1
                },
                {
                    "duration": 0.21428549999995994,
                    "durationTicks": 60,
                    "midi": 28,
                    "name": "E1",
                    "ticks": 120120,
                    "time": 399.85669100000007,
                    "velocity": 1
                },
                {
                    "duration": 0.21428550000001678,
                    "durationTicks": 60,
                    "midi": 28,
                    "name": "E1",
                    "ticks": 120180,
                    "time": 400.07097650000003,
                    "velocity": 1
                },
                {
                    "duration": 0.21428550000001678,
                    "durationTicks": 60,
                    "midi": 28,
                    "name": "E1",
                    "ticks": 120240,
                    "time": 400.28526200000005,
                    "velocity": 1
                },
                {
                    "duration": 0.21428549999995994,
                    "durationTicks": 60,
                    "midi": 31,
                    "name": "G1",
                    "ticks": 120300,
                    "time": 400.49954750000006,
                    "velocity": 1
                },
                {
                    "duration": 0.21428550000001678,
                    "durationTicks": 60,
                    "midi": 28,
                    "name": "E1",
                    "ticks": 120360,
                    "time": 400.713833,
                    "velocity": 1
                },
                {
                    "duration": 0.21428550000001678,
                    "durationTicks": 60,
                    "midi": 28,
                    "name": "E1",
                    "ticks": 120420,
                    "time": 400.92811850000004,
                    "velocity": 1
                },
                {
                    "duration": 0.21428549999995994,
                    "durationTicks": 60,
                    "midi": 30,
                    "name": "F#1",
                    "ticks": 120480,
                    "time": 401.14240400000006,
                    "velocity": 1
                },
                {
                    "duration": 0.21428550000001678,
                    "durationTicks": 60,
                    "midi": 28,
                    "name": "E1",
                    "ticks": 120540,
                    "time": 401.3566895,
                    "velocity": 1
                },
                {
                    "duration": 0.21428550000001678,
                    "durationTicks": 60,
                    "midi": 28,
                    "name": "E1",
                    "ticks": 120600,
                    "time": 401.57097500000003,
                    "velocity": 1
                },
                {
                    "duration": 0.21428549999995994,
                    "durationTicks": 60,
                    "midi": 31,
                    "name": "G1",
                    "ticks": 120660,
                    "time": 401.78526050000005,
                    "velocity": 1
                },
                {
                    "duration": 0.21428550000007363,
                    "durationTicks": 60,
                    "midi": 28,
                    "name": "E1",
                    "ticks": 120720,
                    "time": 401.999546,
                    "velocity": 1
                },
                {
                    "duration": 0.21428549999995994,
                    "durationTicks": 60,
                    "midi": 28,
                    "name": "E1",
                    "ticks": 120780,
                    "time": 402.2138315000001,
                    "velocity": 1
                },
                {
                    "duration": 0.21428549999995994,
                    "durationTicks": 60,
                    "midi": 33,
                    "name": "A1",
                    "ticks": 120840,
                    "time": 402.42811700000004,
                    "velocity": 1
                },
                {
                    "duration": 0.21428550000007363,
                    "durationTicks": 60,
                    "midi": 31,
                    "name": "G1",
                    "ticks": 120900,
                    "time": 402.6424025,
                    "velocity": 1
                },
                {
                    "duration": 0.21428549999995994,
                    "durationTicks": 60,
                    "midi": 28,
                    "name": "E1",
                    "ticks": 120960,
                    "time": 402.8566880000001,
                    "velocity": 1
                },
                {
                    "duration": 0.21428550000001678,
                    "durationTicks": 60,
                    "midi": 28,
                    "name": "E1",
                    "ticks": 121020,
                    "time": 403.07097350000004,
                    "velocity": 1
                },
                {
                    "duration": 0.21428550000001678,
                    "durationTicks": 60,
                    "midi": 28,
                    "name": "E1",
                    "ticks": 121080,
                    "time": 403.28525900000005,
                    "velocity": 1
                },
                {
                    "duration": 0.21428549999995994,
                    "durationTicks": 60,
                    "midi": 28,
                    "name": "E1",
                    "ticks": 121140,
                    "time": 403.49954450000007,
                    "velocity": 1
                },
                {
                    "duration": 0.21428550000001678,
                    "durationTicks": 60,
                    "midi": 28,
                    "name": "E1",
                    "ticks": 121200,
                    "time": 403.71383000000003,
                    "velocity": 1
                },
                {
                    "duration": 0.21428550000001678,
                    "durationTicks": 60,
                    "midi": 31,
                    "name": "G1",
                    "ticks": 121260,
                    "time": 403.92811550000005,
                    "velocity": 1
                },
                {
                    "duration": 0.21428549999995994,
                    "durationTicks": 60,
                    "midi": 28,
                    "name": "E1",
                    "ticks": 121320,
                    "time": 404.14240100000006,
                    "velocity": 1
                },
                {
                    "duration": 0.21428550000001678,
                    "durationTicks": 60,
                    "midi": 28,
                    "name": "E1",
                    "ticks": 121380,
                    "time": 404.3566865,
                    "velocity": 1
                },
                {
                    "duration": 0.21428550000001678,
                    "durationTicks": 60,
                    "midi": 30,
                    "name": "F#1",
                    "ticks": 121440,
                    "time": 404.57097200000004,
                    "velocity": 1
                },
                {
                    "duration": 0.21428549999995994,
                    "durationTicks": 60,
                    "midi": 28,
                    "name": "E1",
                    "ticks": 121500,
                    "time": 404.78525750000006,
                    "velocity": 1
                },
                {
                    "duration": 0.21428550000001678,
                    "durationTicks": 60,
                    "midi": 28,
                    "name": "E1",
                    "ticks": 121560,
                    "time": 404.999543,
                    "velocity": 1
                },
                {
                    "duration": 0.21428550000001678,
                    "durationTicks": 60,
                    "midi": 31,
                    "name": "G1",
                    "ticks": 121620,
                    "time": 405.21382850000003,
                    "velocity": 1
                },
                {
                    "duration": 0.21428549999995994,
                    "durationTicks": 60,
                    "midi": 28,
                    "name": "E1",
                    "ticks": 121680,
                    "time": 405.42811400000005,
                    "velocity": 1
                },
                {
                    "duration": 0.21428550000001678,
                    "durationTicks": 60,
                    "midi": 28,
                    "name": "E1",
                    "ticks": 121740,
                    "time": 405.6423995,
                    "velocity": 1
                },
                {
                    "duration": 0.21428550000001678,
                    "durationTicks": 60,
                    "midi": 33,
                    "name": "A1",
                    "ticks": 121800,
                    "time": 405.856685,
                    "velocity": 1
                },
                {
                    "duration": 0.21428549999995994,
                    "durationTicks": 60,
                    "midi": 31,
                    "name": "G1",
                    "ticks": 121860,
                    "time": 406.07097050000004,
                    "velocity": 1
                },
                {
                    "duration": 0.21428550000007363,
                    "durationTicks": 60,
                    "midi": 28,
                    "name": "E1",
                    "ticks": 121920,
                    "time": 406.285256,
                    "velocity": 1
                },
                {
                    "duration": 0.21428549999995994,
                    "durationTicks": 60,
                    "midi": 28,
                    "name": "E1",
                    "ticks": 121980,
                    "time": 406.4995415000001,
                    "velocity": 1
                },
                {
                    "duration": 0.42857100000003356,
                    "durationTicks": 120,
                    "midi": 28,
                    "name": "E1",
                    "ticks": 122040,
                    "time": 406.71382700000004,
                    "velocity": 1
                },
                {
                    "duration": 0.4285709999999767,
                    "durationTicks": 120,
                    "midi": 28,
                    "name": "E1",
                    "ticks": 122520,
                    "time": 408.42811100000006,
                    "velocity": 1
                },
                {
                    "duration": 0.4285709999999767,
                    "durationTicks": 120,
                    "midi": 28,
                    "name": "E1",
                    "ticks": 123000,
                    "time": 410.1423950000001,
                    "velocity": 1
                },
                {
                    "duration": 0.21428550000001678,
                    "durationTicks": 60,
                    "midi": 28,
                    "name": "E1",
                    "ticks": 123480,
                    "time": 411.85667900000004,
                    "velocity": 1
                },
                {
                    "duration": 0.21428549999995994,
                    "durationTicks": 60,
                    "midi": 28,
                    "name": "E1",
                    "ticks": 123540,
                    "time": 412.07096450000006,
                    "velocity": 1
                },
                {
                    "duration": 0.21428550000001678,
                    "durationTicks": 60,
                    "midi": 28,
                    "name": "E1",
                    "ticks": 123600,
                    "time": 412.28525,
                    "velocity": 1
                },
                {
                    "duration": 0.21428550000001678,
                    "durationTicks": 60,
                    "midi": 28,
                    "name": "E1",
                    "ticks": 123660,
                    "time": 412.49953550000004,
                    "velocity": 1
                },
                {
                    "duration": 0.4285709999999767,
                    "durationTicks": 120,
                    "midi": 40,
                    "name": "E2",
                    "ticks": 123720,
                    "time": 412.71382100000005,
                    "velocity": 1
                }
            ],
            "endOfTrackTicks": 123840
        },
        {
            "channel": 9,
            "controlChanges": {
                "7": [
                    {
                        "number": 7,
                        "ticks": 2880,
                        "time": 10.285704,
                        "value": 0.7795275590551181
                    }
                ]
            },
            "pitchBends": [],
            "instrument": {
                "family": "drums",
                "number": 0,
                "name": "standard kit"
            },
            "name": "Drums",
            "notes": [
                {
                    "duration": 0.2142855000000008,
                    "durationTicks": 60,
                    "midi": 36,
                    "name": "C2",
                    "ticks": 2880,
                    "time": 10.285704,
                    "velocity": 1
                },
                {
                    "duration": 0.2142855000000008,
                    "durationTicks": 60,
                    "midi": 42,
                    "name": "F#2",
                    "ticks": 2880,
                    "time": 10.285704,
                    "velocity": 1
                },
                {
                    "duration": 0.21428549999999902,
                    "durationTicks": 60,
                    "midi": 36,
                    "name": "C2",
                    "ticks": 2940,
                    "time": 10.499989500000002,
                    "velocity": 1
                },
                {
                    "duration": 0.21428549999999902,
                    "durationTicks": 60,
                    "midi": 42,
                    "name": "F#2",
                    "ticks": 2940,
                    "time": 10.499989500000002,
                    "velocity": 1
                },
                {
                    "duration": 0.2142855000000008,
                    "durationTicks": 60,
                    "midi": 36,
                    "name": "C2",
                    "ticks": 3000,
                    "time": 10.714275,
                    "velocity": 1
                },
                {
                    "duration": 0.2142855000000008,
                    "durationTicks": 60,
                    "midi": 42,
                    "name": "F#2",
                    "ticks": 3000,
                    "time": 10.714275,
                    "velocity": 1
                },
                {
                    "duration": 0.21428549999999902,
                    "durationTicks": 60,
                    "midi": 36,
                    "name": "C2",
                    "ticks": 3060,
                    "time": 10.928560500000001,
                    "velocity": 1
                },
                {
                    "duration": 0.21428549999999902,
                    "durationTicks": 60,
                    "midi": 42,
                    "name": "F#2",
                    "ticks": 3060,
                    "time": 10.928560500000001,
                    "velocity": 1
                },
                {
                    "duration": 0.2142855000000008,
                    "durationTicks": 60,
                    "midi": 36,
                    "name": "C2",
                    "ticks": 3120,
                    "time": 11.142846,
                    "velocity": 1
                },
                {
                    "duration": 0.2142855000000008,
                    "durationTicks": 60,
                    "midi": 42,
                    "name": "F#2",
                    "ticks": 3120,
                    "time": 11.142846,
                    "velocity": 1
                },
                {
                    "duration": 0.21428549999999902,
                    "durationTicks": 60,
                    "midi": 36,
                    "name": "C2",
                    "ticks": 3180,
                    "time": 11.357131500000001,
                    "velocity": 1
                },
                {
                    "duration": 0.21428549999999902,
                    "durationTicks": 60,
                    "midi": 42,
                    "name": "F#2",
                    "ticks": 3180,
                    "time": 11.357131500000001,
                    "velocity": 1
                },
                {
                    "duration": 0.2142855000000008,
                    "durationTicks": 60,
                    "midi": 36,
                    "name": "C2",
                    "ticks": 3240,
                    "time": 11.571417,
                    "velocity": 1
                },
                {
                    "duration": 0.2142855000000008,
                    "durationTicks": 60,
                    "midi": 38,
                    "name": "D2",
                    "ticks": 3240,
                    "time": 11.571417,
                    "velocity": 1
                },
                {
                    "duration": 0.2142855000000008,
                    "durationTicks": 60,
                    "midi": 42,
                    "name": "F#2",
                    "ticks": 3240,
                    "time": 11.571417,
                    "velocity": 1
                },
                {
                    "duration": 0.2142855000000008,
                    "durationTicks": 60,
                    "midi": 36,
                    "name": "C2",
                    "ticks": 3300,
                    "time": 11.785702500000001,
                    "velocity": 1
                },
                {
                    "duration": 0.2142855000000008,
                    "durationTicks": 60,
                    "midi": 38,
                    "name": "D2",
                    "ticks": 3300,
                    "time": 11.785702500000001,
                    "velocity": 1
                },
                {
                    "duration": 0.2142855000000008,
                    "durationTicks": 60,
                    "midi": 42,
                    "name": "F#2",
                    "ticks": 3300,
                    "time": 11.785702500000001,
                    "velocity": 1
                },
                {
                    "duration": 0.21428549999999902,
                    "durationTicks": 60,
                    "midi": 36,
                    "name": "C2",
                    "ticks": 3360,
                    "time": 11.999988000000002,
                    "velocity": 1
                },
                {
                    "duration": 0.21428549999999902,
                    "durationTicks": 60,
                    "midi": 38,
                    "name": "D2",
                    "ticks": 3360,
                    "time": 11.999988000000002,
                    "velocity": 1
                },
                {
                    "duration": 0.21428549999999902,
                    "durationTicks": 60,
                    "midi": 42,
                    "name": "F#2",
                    "ticks": 3360,
                    "time": 11.999988000000002,
                    "velocity": 1
                },
                {
                    "duration": 0.2142855000000008,
                    "durationTicks": 60,
                    "midi": 35,
                    "name": "B1",
                    "ticks": 3420,
                    "time": 12.214273500000001,
                    "velocity": 1
                },
                {
                    "duration": 0.2142855000000008,
                    "durationTicks": 60,
                    "midi": 38,
                    "name": "D2",
                    "ticks": 3420,
                    "time": 12.214273500000001,
                    "velocity": 1
                },
                {
                    "duration": 0.2142855000000008,
                    "durationTicks": 60,
                    "midi": 42,
                    "name": "F#2",
                    "ticks": 3420,
                    "time": 12.214273500000001,
                    "velocity": 1
                },
                {
                    "duration": 0.10714274999999951,
                    "durationTicks": 30,
                    "midi": 38,
                    "name": "D2",
                    "ticks": 3480,
                    "time": 12.428559000000002,
                    "velocity": 1
                },
                {
                    "duration": 0.10714274999999951,
                    "durationTicks": 30,
                    "midi": 38,
                    "name": "D2",
                    "ticks": 3510,
                    "time": 12.535701750000001,
                    "velocity": 1
                },
                {
                    "duration": 0.10714274999999951,
                    "durationTicks": 30,
                    "midi": 38,
                    "name": "D2",
                    "ticks": 3540,
                    "time": 12.6428445,
                    "velocity": 1
                },
                {
                    "duration": 0.10714275000000129,
                    "durationTicks": 30,
                    "midi": 38,
                    "name": "D2",
                    "ticks": 3570,
                    "time": 12.74998725,
                    "velocity": 1
                },
                {
                    "duration": 0.4285709999999998,
                    "durationTicks": 120,
                    "midi": 36,
                    "name": "C2",
                    "ticks": 3600,
                    "time": 12.857130000000002,
                    "velocity": 1
                },
                {
                    "duration": 0.21428549999999902,
                    "durationTicks": 60,
                    "midi": 38,
                    "name": "D2",
                    "ticks": 3600,
                    "time": 12.857130000000002,
                    "velocity": 1
                },
                {
                    "duration": 0.10714275000000129,
                    "durationTicks": 30,
                    "midi": 38,
                    "name": "D2",
                    "ticks": 3660,
                    "time": 13.0714155,
                    "velocity": 1
                },
                {
                    "duration": 0.10714274999999951,
                    "durationTicks": 30,
                    "midi": 38,
                    "name": "D2",
                    "ticks": 3690,
                    "time": 13.178558250000002,
                    "velocity": 1
                },
                {
                    "duration": 0.21428549999999902,
                    "durationTicks": 60,
                    "midi": 36,
                    "name": "C2",
                    "ticks": 3720,
                    "time": 13.285701000000001,
                    "velocity": 1
                },
                {
                    "duration": 0.21428549999999902,
                    "durationTicks": 60,
                    "midi": 57,
                    "name": "A3",
                    "ticks": 3720,
                    "time": 13.285701000000001,
                    "velocity": 1
                },
                {
                    "duration": 0.2142855000000008,
                    "durationTicks": 60,
                    "midi": 36,
                    "name": "C2",
                    "ticks": 3780,
                    "time": 13.4999865,
                    "velocity": 1
                },
                {
                    "duration": 0.2142855000000008,
                    "durationTicks": 60,
                    "midi": 57,
                    "name": "A3",
                    "ticks": 3780,
                    "time": 13.4999865,
                    "velocity": 1
                },
                {
                    "duration": 0.4285709999999998,
                    "durationTicks": 120,
                    "midi": 57,
                    "name": "A3",
                    "ticks": 3840,
                    "time": 13.714272000000001,
                    "velocity": 1
                },
                {
                    "duration": 0.4285709999999998,
                    "durationTicks": 120,
                    "midi": 36,
                    "name": "C2",
                    "ticks": 3840,
                    "time": 13.714272000000001,
                    "velocity": 1
                },
                {
                    "duration": 0.2142855000000008,
                    "durationTicks": 60,
                    "midi": 38,
                    "name": "D2",
                    "ticks": 3960,
                    "time": 14.142843000000001,
                    "velocity": 1
                },
                {
                    "duration": 0.2142855000000008,
                    "durationTicks": 60,
                    "midi": 42,
                    "name": "F#2",
                    "ticks": 3960,
                    "time": 14.142843000000001,
                    "velocity": 1
                },
                {
                    "duration": 0.21428549999999902,
                    "durationTicks": 60,
                    "midi": 42,
                    "name": "F#2",
                    "ticks": 4020,
                    "time": 14.357128500000002,
                    "velocity": 1
                },
                {
                    "duration": 0.2142855000000008,
                    "durationTicks": 60,
                    "midi": 42,
                    "name": "F#2",
                    "ticks": 4080,
                    "time": 14.571414,
                    "velocity": 1
                },
                {
                    "duration": 0.21428549999999902,
                    "durationTicks": 60,
                    "midi": 36,
                    "name": "C2",
                    "ticks": 4140,
                    "time": 14.785699500000002,
                    "velocity": 1
                },
                {
                    "duration": 0.21428549999999902,
                    "durationTicks": 60,
                    "midi": 42,
                    "name": "F#2",
                    "ticks": 4140,
                    "time": 14.785699500000002,
                    "velocity": 1
                },
                {
                    "duration": 0.2142855000000008,
                    "durationTicks": 60,
                    "midi": 38,
                    "name": "D2",
                    "ticks": 4200,
                    "time": 14.999985,
                    "velocity": 1
                },
                {
                    "duration": 0.2142855000000008,
                    "durationTicks": 60,
                    "midi": 42,
                    "name": "F#2",
                    "ticks": 4200,
                    "time": 14.999985,
                    "velocity": 1
                },
                {
                    "duration": 0.21428549999999902,
                    "durationTicks": 60,
                    "midi": 36,
                    "name": "C2",
                    "ticks": 4260,
                    "time": 15.214270500000001,
                    "velocity": 1
                },
                {
                    "duration": 0.21428549999999902,
                    "durationTicks": 60,
                    "midi": 42,
                    "name": "F#2",
                    "ticks": 4260,
                    "time": 15.214270500000001,
                    "velocity": 1
                },
                {
                    "duration": 0.2142855000000008,
                    "durationTicks": 60,
                    "midi": 42,
                    "name": "F#2",
                    "ticks": 4320,
                    "time": 15.428556,
                    "velocity": 1
                },
                {
                    "duration": 0.2142855000000008,
                    "durationTicks": 60,
                    "midi": 36,
                    "name": "C2",
                    "ticks": 4380,
                    "time": 15.642841500000001,
                    "velocity": 1
                },
                {
                    "duration": 0.2142855000000008,
                    "durationTicks": 60,
                    "midi": 42,
                    "name": "F#2",
                    "ticks": 4380,
                    "time": 15.642841500000001,
                    "velocity": 1
                },
                {
                    "duration": 0.21428549999999902,
                    "durationTicks": 60,
                    "midi": 38,
                    "name": "D2",
                    "ticks": 4440,
                    "time": 15.857127000000002,
                    "velocity": 1
                },
                {
                    "duration": 0.21428549999999902,
                    "durationTicks": 60,
                    "midi": 42,
                    "name": "F#2",
                    "ticks": 4440,
                    "time": 15.857127000000002,
                    "velocity": 1
                },
                {
                    "duration": 0.21428549999999902,
                    "durationTicks": 60,
                    "midi": 42,
                    "name": "F#2",
                    "ticks": 4500,
                    "time": 16.0714125,
                    "velocity": 1
                },
                {
                    "duration": 0.21428550000000257,
                    "durationTicks": 60,
                    "midi": 36,
                    "name": "C2",
                    "ticks": 4560,
                    "time": 16.285698,
                    "velocity": 1
                },
                {
                    "duration": 0.21428550000000257,
                    "durationTicks": 60,
                    "midi": 42,
                    "name": "F#2",
                    "ticks": 4560,
                    "time": 16.285698,
                    "velocity": 1
                },
                {
                    "duration": 0.07142849999999612,
                    "durationTicks": 20,
                    "midi": 36,
                    "name": "C2",
                    "ticks": 4620,
                    "time": 16.499983500000003,
                    "velocity": 1
                },
                {
                    "duration": 0.21428549999999902,
                    "durationTicks": 60,
                    "midi": 42,
                    "name": "F#2",
                    "ticks": 4620,
                    "time": 16.499983500000003,
                    "velocity": 1
                },
                {
                    "duration": 0.07142850000000323,
                    "durationTicks": 20,
                    "midi": 36,
                    "name": "C2",
                    "ticks": 4640,
                    "time": 16.571412,
                    "velocity": 1
                },
                {
                    "duration": 0.07142849999999967,
                    "durationTicks": 20,
                    "midi": 36,
                    "name": "C2",
                    "ticks": 4660,
                    "time": 16.642840500000002,
                    "velocity": 1
                },
                {
                    "duration": 0.21428549999999902,
                    "durationTicks": 60,
                    "midi": 38,
                    "name": "D2",
                    "ticks": 4680,
                    "time": 16.714269,
                    "velocity": 1
                },
                {
                    "duration": 0.21428549999999902,
                    "durationTicks": 60,
                    "midi": 42,
                    "name": "F#2",
                    "ticks": 4680,
                    "time": 16.714269,
                    "velocity": 1
                },
                {
                    "duration": 0.21428549999999902,
                    "durationTicks": 60,
                    "midi": 36,
                    "name": "C2",
                    "ticks": 4740,
                    "time": 16.9285545,
                    "velocity": 1
                },
                {
                    "duration": 0.21428549999999902,
                    "durationTicks": 60,
                    "midi": 57,
                    "name": "A3",
                    "ticks": 4740,
                    "time": 16.9285545,
                    "velocity": 1
                },
                {
                    "duration": 0.4285710000000016,
                    "durationTicks": 120,
                    "midi": 36,
                    "name": "C2",
                    "ticks": 4800,
                    "time": 17.14284,
                    "velocity": 1
                },
                {
                    "duration": 0.4285710000000016,
                    "durationTicks": 120,
                    "midi": 57,
                    "name": "A3",
                    "ticks": 4800,
                    "time": 17.14284,
                    "velocity": 1
                },
                {
                    "duration": 0.21428549999999902,
                    "durationTicks": 60,
                    "midi": 38,
                    "name": "D2",
                    "ticks": 4920,
                    "time": 17.571411,
                    "velocity": 1
                },
                {
                    "duration": 0.21428549999999902,
                    "durationTicks": 60,
                    "midi": 42,
                    "name": "F#2",
                    "ticks": 4920,
                    "time": 17.571411,
                    "velocity": 1
                },
                {
                    "duration": 0.21428550000000257,
                    "durationTicks": 60,
                    "midi": 42,
                    "name": "F#2",
                    "ticks": 4980,
                    "time": 17.7856965,
                    "velocity": 1
                },
                {
                    "duration": 0.21428549999999902,
                    "durationTicks": 60,
                    "midi": 42,
                    "name": "F#2",
                    "ticks": 5040,
                    "time": 17.999982000000003,
                    "velocity": 1
                },
                {
                    "duration": 0.21428549999999902,
                    "durationTicks": 60,
                    "midi": 36,
                    "name": "C2",
                    "ticks": 5100,
                    "time": 18.214267500000002,
                    "velocity": 1
                },
                {
                    "duration": 0.21428549999999902,
                    "durationTicks": 60,
                    "midi": 42,
                    "name": "F#2",
                    "ticks": 5100,
                    "time": 18.214267500000002,
                    "velocity": 1
                },
                {
                    "duration": 0.21428549999999902,
                    "durationTicks": 60,
                    "midi": 38,
                    "name": "D2",
                    "ticks": 5160,
                    "time": 18.428553,
                    "velocity": 1
                },
                {
                    "duration": 0.21428549999999902,
                    "durationTicks": 60,
                    "midi": 42,
                    "name": "F#2",
                    "ticks": 5160,
                    "time": 18.428553,
                    "velocity": 1
                },
                {
                    "duration": 0.21428550000000257,
                    "durationTicks": 60,
                    "midi": 36,
                    "name": "C2",
                    "ticks": 5220,
                    "time": 18.6428385,
                    "velocity": 1
                },
                {
                    "duration": 0.21428550000000257,
                    "durationTicks": 60,
                    "midi": 42,
                    "name": "F#2",
                    "ticks": 5220,
                    "time": 18.6428385,
                    "velocity": 1
                },
                {
                    "duration": 0.21428549999999902,
                    "durationTicks": 60,
                    "midi": 42,
                    "name": "F#2",
                    "ticks": 5280,
                    "time": 18.857124000000002,
                    "velocity": 1
                },
                {
                    "duration": 0.21428549999999902,
                    "durationTicks": 60,
                    "midi": 36,
                    "name": "C2",
                    "ticks": 5340,
                    "time": 19.0714095,
                    "velocity": 1
                },
                {
                    "duration": 0.21428549999999902,
                    "durationTicks": 60,
                    "midi": 42,
                    "name": "F#2",
                    "ticks": 5340,
                    "time": 19.0714095,
                    "velocity": 1
                },
                {
                    "duration": 0.21428550000000257,
                    "durationTicks": 60,
                    "midi": 38,
                    "name": "D2",
                    "ticks": 5400,
                    "time": 19.285695,
                    "velocity": 1
                },
                {
                    "duration": 0.21428550000000257,
                    "durationTicks": 60,
                    "midi": 42,
                    "name": "F#2",
                    "ticks": 5400,
                    "time": 19.285695,
                    "velocity": 1
                },
                {
                    "duration": 0.21428549999999902,
                    "durationTicks": 60,
                    "midi": 42,
                    "name": "F#2",
                    "ticks": 5460,
                    "time": 19.499980500000003,
                    "velocity": 1
                },
                {
                    "duration": 0.21428549999999902,
                    "durationTicks": 60,
                    "midi": 36,
                    "name": "C2",
                    "ticks": 5520,
                    "time": 19.714266000000002,
                    "velocity": 1
                },
                {
                    "duration": 0.21428549999999902,
                    "durationTicks": 60,
                    "midi": 42,
                    "name": "F#2",
                    "ticks": 5520,
                    "time": 19.714266000000002,
                    "velocity": 1
                },
                {
                    "duration": 0.07142849999999967,
                    "durationTicks": 20,
                    "midi": 36,
                    "name": "C2",
                    "ticks": 5580,
                    "time": 19.9285515,
                    "velocity": 1
                },
                {
                    "duration": 0.21428549999999902,
                    "durationTicks": 60,
                    "midi": 42,
                    "name": "F#2",
                    "ticks": 5580,
                    "time": 19.9285515,
                    "velocity": 1
                },
                {
                    "duration": 0.07142850000000323,
                    "durationTicks": 20,
                    "midi": 36,
                    "name": "C2",
                    "ticks": 5600,
                    "time": 19.99998,
                    "velocity": 1
                },
                {
                    "duration": 0.07142849999999612,
                    "durationTicks": 20,
                    "midi": 36,
                    "name": "C2",
                    "ticks": 5620,
                    "time": 20.071408500000004,
                    "velocity": 1
                },
                {
                    "duration": 0.21428550000000257,
                    "durationTicks": 60,
                    "midi": 38,
                    "name": "D2",
                    "ticks": 5640,
                    "time": 20.142837,
                    "velocity": 1
                },
                {
                    "duration": 0.21428550000000257,
                    "durationTicks": 60,
                    "midi": 42,
                    "name": "F#2",
                    "ticks": 5640,
                    "time": 20.142837,
                    "velocity": 1
                },
                {
                    "duration": 0.21428549999999902,
                    "durationTicks": 60,
                    "midi": 36,
                    "name": "C2",
                    "ticks": 5700,
                    "time": 20.357122500000003,
                    "velocity": 1
                },
                {
                    "duration": 0.21428549999999902,
                    "durationTicks": 60,
                    "midi": 57,
                    "name": "A3",
                    "ticks": 5700,
                    "time": 20.357122500000003,
                    "velocity": 1
                },
                {
                    "duration": 0.4285710000000016,
                    "durationTicks": 120,
                    "midi": 36,
                    "name": "C2",
                    "ticks": 5760,
                    "time": 20.571408,
                    "velocity": 1
                },
                {
                    "duration": 0.4285710000000016,
                    "durationTicks": 120,
                    "midi": 57,
                    "name": "A3",
                    "ticks": 5760,
                    "time": 20.571408,
                    "velocity": 1
                },
                {
                    "duration": 0.21428549999999902,
                    "durationTicks": 60,
                    "midi": 38,
                    "name": "D2",
                    "ticks": 5880,
                    "time": 20.999979000000003,
                    "velocity": 1
                },
                {
                    "duration": 0.21428549999999902,
                    "durationTicks": 60,
                    "midi": 42,
                    "name": "F#2",
                    "ticks": 5880,
                    "time": 20.999979000000003,
                    "velocity": 1
                },
                {
                    "duration": 0.21428549999999902,
                    "durationTicks": 60,
                    "midi": 42,
                    "name": "F#2",
                    "ticks": 5940,
                    "time": 21.214264500000002,
                    "velocity": 1
                },
                {
                    "duration": 0.21428549999999902,
                    "durationTicks": 60,
                    "midi": 42,
                    "name": "F#2",
                    "ticks": 6000,
                    "time": 21.42855,
                    "velocity": 1
                },
                {
                    "duration": 0.21428550000000257,
                    "durationTicks": 60,
                    "midi": 36,
                    "name": "C2",
                    "ticks": 6060,
                    "time": 21.6428355,
                    "velocity": 1
                },
                {
                    "duration": 0.21428550000000257,
                    "durationTicks": 60,
                    "midi": 42,
                    "name": "F#2",
                    "ticks": 6060,
                    "time": 21.6428355,
                    "velocity": 1
                },
                {
                    "duration": 0.21428549999999902,
                    "durationTicks": 60,
                    "midi": 38,
                    "name": "D2",
                    "ticks": 6120,
                    "time": 21.857121000000003,
                    "velocity": 1
                },
                {
                    "duration": 0.21428549999999902,
                    "durationTicks": 60,
                    "midi": 42,
                    "name": "F#2",
                    "ticks": 6120,
                    "time": 21.857121000000003,
                    "velocity": 1
                },
                {
                    "duration": 0.21428549999999902,
                    "durationTicks": 60,
                    "midi": 36,
                    "name": "C2",
                    "ticks": 6180,
                    "time": 22.071406500000002,
                    "velocity": 1
                },
                {
                    "duration": 0.21428549999999902,
                    "durationTicks": 60,
                    "midi": 42,
                    "name": "F#2",
                    "ticks": 6180,
                    "time": 22.071406500000002,
                    "velocity": 1
                },
                {
                    "duration": 0.21428550000000257,
                    "durationTicks": 60,
                    "midi": 42,
                    "name": "F#2",
                    "ticks": 6240,
                    "time": 22.285692,
                    "velocity": 1
                },
                {
                    "duration": 0.21428549999999902,
                    "durationTicks": 60,
                    "midi": 36,
                    "name": "C2",
                    "ticks": 6300,
                    "time": 22.499977500000004,
                    "velocity": 1
                },
                {
                    "duration": 0.21428549999999902,
                    "durationTicks": 60,
                    "midi": 42,
                    "name": "F#2",
                    "ticks": 6300,
                    "time": 22.499977500000004,
                    "velocity": 1
                },
                {
                    "duration": 0.21428549999999902,
                    "durationTicks": 60,
                    "midi": 38,
                    "name": "D2",
                    "ticks": 6360,
                    "time": 22.714263000000003,
                    "velocity": 1
                },
                {
                    "duration": 0.21428549999999902,
                    "durationTicks": 60,
                    "midi": 42,
                    "name": "F#2",
                    "ticks": 6360,
                    "time": 22.714263000000003,
                    "velocity": 1
                },
                {
                    "duration": 0.21428549999999902,
                    "durationTicks": 60,
                    "midi": 42,
                    "name": "F#2",
                    "ticks": 6420,
                    "time": 22.9285485,
                    "velocity": 1
                },
                {
                    "duration": 0.21428550000000257,
                    "durationTicks": 60,
                    "midi": 36,
                    "name": "C2",
                    "ticks": 6480,
                    "time": 23.142834,
                    "velocity": 1
                },
                {
                    "duration": 0.21428550000000257,
                    "durationTicks": 60,
                    "midi": 42,
                    "name": "F#2",
                    "ticks": 6480,
                    "time": 23.142834,
                    "velocity": 1
                },
                {
                    "duration": 0.07142849999999612,
                    "durationTicks": 20,
                    "midi": 36,
                    "name": "C2",
                    "ticks": 6540,
                    "time": 23.357119500000003,
                    "velocity": 1
                },
                {
                    "duration": 0.21428549999999902,
                    "durationTicks": 60,
                    "midi": 42,
                    "name": "F#2",
                    "ticks": 6540,
                    "time": 23.357119500000003,
                    "velocity": 1
                },
                {
                    "duration": 0.07142850000000323,
                    "durationTicks": 20,
                    "midi": 36,
                    "name": "C2",
                    "ticks": 6560,
                    "time": 23.428548,
                    "velocity": 1
                },
                {
                    "duration": 0.07142849999999967,
                    "durationTicks": 20,
                    "midi": 36,
                    "name": "C2",
                    "ticks": 6580,
                    "time": 23.499976500000002,
                    "velocity": 1
                },
                {
                    "duration": 0.21428549999999902,
                    "durationTicks": 60,
                    "midi": 38,
                    "name": "D2",
                    "ticks": 6600,
                    "time": 23.571405000000002,
                    "velocity": 1
                },
                {
                    "duration": 0.21428549999999902,
                    "durationTicks": 60,
                    "midi": 42,
                    "name": "F#2",
                    "ticks": 6600,
                    "time": 23.571405000000002,
                    "velocity": 1
                },
                {
                    "duration": 0.21428550000000257,
                    "durationTicks": 60,
                    "midi": 36,
                    "name": "C2",
                    "ticks": 6660,
                    "time": 23.7856905,
                    "velocity": 1
                },
                {
                    "duration": 0.21428550000000257,
                    "durationTicks": 60,
                    "midi": 57,
                    "name": "A3",
                    "ticks": 6660,
                    "time": 23.7856905,
                    "velocity": 1
                },
                {
                    "duration": 0.42857099999999804,
                    "durationTicks": 120,
                    "midi": 36,
                    "name": "C2",
                    "ticks": 6720,
                    "time": 23.999976000000004,
                    "velocity": 1
                },
                {
                    "duration": 0.42857099999999804,
                    "durationTicks": 120,
                    "midi": 57,
                    "name": "A3",
                    "ticks": 6720,
                    "time": 23.999976000000004,
                    "velocity": 1
                },
                {
                    "duration": 0.21428549999999902,
                    "durationTicks": 60,
                    "midi": 38,
                    "name": "D2",
                    "ticks": 6840,
                    "time": 24.428547000000002,
                    "velocity": 1
                },
                {
                    "duration": 0.21428549999999902,
                    "durationTicks": 60,
                    "midi": 42,
                    "name": "F#2",
                    "ticks": 6840,
                    "time": 24.428547000000002,
                    "velocity": 1
                },
                {
                    "duration": 0.21428550000000257,
                    "durationTicks": 60,
                    "midi": 42,
                    "name": "F#2",
                    "ticks": 6900,
                    "time": 24.6428325,
                    "velocity": 1
                },
                {
                    "duration": 0.21428549999999902,
                    "durationTicks": 60,
                    "midi": 42,
                    "name": "F#2",
                    "ticks": 6960,
                    "time": 24.857118000000003,
                    "velocity": 1
                },
                {
                    "duration": 0.21428549999999902,
                    "durationTicks": 60,
                    "midi": 36,
                    "name": "C2",
                    "ticks": 7020,
                    "time": 25.071403500000002,
                    "velocity": 1
                },
                {
                    "duration": 0.21428549999999902,
                    "durationTicks": 60,
                    "midi": 42,
                    "name": "F#2",
                    "ticks": 7020,
                    "time": 25.071403500000002,
                    "velocity": 1
                },
                {
                    "duration": 0.21428549999999902,
                    "durationTicks": 60,
                    "midi": 38,
                    "name": "D2",
                    "ticks": 7080,
                    "time": 25.285689,
                    "velocity": 1
                },
                {
                    "duration": 0.21428549999999902,
                    "durationTicks": 60,
                    "midi": 42,
                    "name": "F#2",
                    "ticks": 7080,
                    "time": 25.285689,
                    "velocity": 1
                },
                {
                    "duration": 0.21428550000000257,
                    "durationTicks": 60,
                    "midi": 36,
                    "name": "C2",
                    "ticks": 7140,
                    "time": 25.4999745,
                    "velocity": 1
                },
                {
                    "duration": 0.21428550000000257,
                    "durationTicks": 60,
                    "midi": 42,
                    "name": "F#2",
                    "ticks": 7140,
                    "time": 25.4999745,
                    "velocity": 1
                },
                {
                    "duration": 0.21428549999999902,
                    "durationTicks": 60,
                    "midi": 42,
                    "name": "F#2",
                    "ticks": 7200,
                    "time": 25.714260000000003,
                    "velocity": 1
                },
                {
                    "duration": 0.21428549999999902,
                    "durationTicks": 60,
                    "midi": 36,
                    "name": "C2",
                    "ticks": 7260,
                    "time": 25.928545500000002,
                    "velocity": 1
                },
                {
                    "duration": 0.21428549999999902,
                    "durationTicks": 60,
                    "midi": 42,
                    "name": "F#2",
                    "ticks": 7260,
                    "time": 25.928545500000002,
                    "velocity": 1
                },
                {
                    "duration": 0.21428550000000257,
                    "durationTicks": 60,
                    "midi": 38,
                    "name": "D2",
                    "ticks": 7320,
                    "time": 26.142831,
                    "velocity": 1
                },
                {
                    "duration": 0.21428550000000257,
                    "durationTicks": 60,
                    "midi": 42,
                    "name": "F#2",
                    "ticks": 7320,
                    "time": 26.142831,
                    "velocity": 1
                },
                {
                    "duration": 0.21428549999999902,
                    "durationTicks": 60,
                    "midi": 42,
                    "name": "F#2",
                    "ticks": 7380,
                    "time": 26.357116500000004,
                    "velocity": 1
                },
                {
                    "duration": 0.21428549999999902,
                    "durationTicks": 60,
                    "midi": 36,
                    "name": "C2",
                    "ticks": 7440,
                    "time": 26.571402000000003,
                    "velocity": 1
                },
                {
                    "duration": 0.21428549999999902,
                    "durationTicks": 60,
                    "midi": 42,
                    "name": "F#2",
                    "ticks": 7440,
                    "time": 26.571402000000003,
                    "velocity": 1
                },
                {
                    "duration": 0.07142849999999967,
                    "durationTicks": 20,
                    "midi": 36,
                    "name": "C2",
                    "ticks": 7500,
                    "time": 26.7856875,
                    "velocity": 1
                },
                {
                    "duration": 0.21428549999999902,
                    "durationTicks": 60,
                    "midi": 42,
                    "name": "F#2",
                    "ticks": 7500,
                    "time": 26.7856875,
                    "velocity": 1
                },
                {
                    "duration": 0.07142850000000323,
                    "durationTicks": 20,
                    "midi": 36,
                    "name": "C2",
                    "ticks": 7520,
                    "time": 26.857116,
                    "velocity": 1
                },
                {
                    "duration": 0.07142849999999612,
                    "durationTicks": 20,
                    "midi": 36,
                    "name": "C2",
                    "ticks": 7540,
                    "time": 26.928544500000005,
                    "velocity": 1
                },
                {
                    "duration": 0.21428550000000257,
                    "durationTicks": 60,
                    "midi": 38,
                    "name": "D2",
                    "ticks": 7560,
                    "time": 26.999973,
                    "velocity": 1
                },
                {
                    "duration": 0.21428550000000257,
                    "durationTicks": 60,
                    "midi": 42,
                    "name": "F#2",
                    "ticks": 7560,
                    "time": 26.999973,
                    "velocity": 1
                },
                {
                    "duration": 0.21428549999999902,
                    "durationTicks": 60,
                    "midi": 36,
                    "name": "C2",
                    "ticks": 7620,
                    "time": 27.214258500000003,
                    "velocity": 1
                },
                {
                    "duration": 0.21428549999999902,
                    "durationTicks": 60,
                    "midi": 57,
                    "name": "A3",
                    "ticks": 7620,
                    "time": 27.214258500000003,
                    "velocity": 1
                },
                {
                    "duration": 0.4285710000000016,
                    "durationTicks": 120,
                    "midi": 36,
                    "name": "C2",
                    "ticks": 7680,
                    "time": 27.428544000000002,
                    "velocity": 1
                },
                {
                    "duration": 0.4285710000000016,
                    "durationTicks": 120,
                    "midi": 57,
                    "name": "A3",
                    "ticks": 7680,
                    "time": 27.428544000000002,
                    "velocity": 1
                },
                {
                    "duration": 0.4285710000000016,
                    "durationTicks": 120,
                    "midi": 36,
                    "name": "C2",
                    "ticks": 8160,
                    "time": 29.142828,
                    "velocity": 1
                },
                {
                    "duration": 0.4285710000000016,
                    "durationTicks": 120,
                    "midi": 57,
                    "name": "A3",
                    "ticks": 8160,
                    "time": 29.142828,
                    "velocity": 1
                },
                {
                    "duration": 0.42857099999999804,
                    "durationTicks": 120,
                    "midi": 36,
                    "name": "C2",
                    "ticks": 10200,
                    "time": 36.428535000000004,
                    "velocity": 1
                },
                {
                    "duration": 0.42857099999999804,
                    "durationTicks": 120,
                    "midi": 57,
                    "name": "A3",
                    "ticks": 10200,
                    "time": 36.428535000000004,
                    "velocity": 1
                },
                {
                    "duration": 0.42857100000000514,
                    "durationTicks": 120,
                    "midi": 36,
                    "name": "C2",
                    "ticks": 10440,
                    "time": 37.285677,
                    "velocity": 1
                },
                {
                    "duration": 0.42857100000000514,
                    "durationTicks": 120,
                    "midi": 57,
                    "name": "A3",
                    "ticks": 10440,
                    "time": 37.285677,
                    "velocity": 1
                },
                {
                    "duration": 0.42857099999999804,
                    "durationTicks": 120,
                    "midi": 36,
                    "name": "C2",
                    "ticks": 10680,
                    "time": 38.142819,
                    "velocity": 1
                },
                {
                    "duration": 0.42857099999999804,
                    "durationTicks": 120,
                    "midi": 57,
                    "name": "A3",
                    "ticks": 10680,
                    "time": 38.142819,
                    "velocity": 1
                },
                {
                    "duration": 0.42857099999999804,
                    "durationTicks": 120,
                    "midi": 57,
                    "name": "A3",
                    "ticks": 10920,
                    "time": 38.999961000000006,
                    "velocity": 1
                },
                {
                    "duration": 0.42857099999999804,
                    "durationTicks": 120,
                    "midi": 36,
                    "name": "C2",
                    "ticks": 10920,
                    "time": 38.999961000000006,
                    "velocity": 1
                },
                {
                    "duration": 0.21428550000000257,
                    "durationTicks": 60,
                    "midi": 36,
                    "name": "C2",
                    "ticks": 11040,
                    "time": 39.428532000000004,
                    "velocity": 1
                },
                {
                    "duration": 0.21428550000000257,
                    "durationTicks": 60,
                    "midi": 42,
                    "name": "F#2",
                    "ticks": 11040,
                    "time": 39.428532000000004,
                    "velocity": 1
                },
                {
                    "duration": 0.21428549999999547,
                    "durationTicks": 60,
                    "midi": 36,
                    "name": "C2",
                    "ticks": 11100,
                    "time": 39.64281750000001,
                    "velocity": 1
                },
                {
                    "duration": 0.21428549999999547,
                    "durationTicks": 60,
                    "midi": 42,
                    "name": "F#2",
                    "ticks": 11100,
                    "time": 39.64281750000001,
                    "velocity": 1
                },
                {
                    "duration": 0.21428550000000257,
                    "durationTicks": 60,
                    "midi": 36,
                    "name": "C2",
                    "ticks": 11160,
                    "time": 39.857103,
                    "velocity": 1
                },
                {
                    "duration": 0.21428550000000257,
                    "durationTicks": 60,
                    "midi": 42,
                    "name": "F#2",
                    "ticks": 11160,
                    "time": 39.857103,
                    "velocity": 1
                },
                {
                    "duration": 0.21428549999999547,
                    "durationTicks": 60,
                    "midi": 36,
                    "name": "C2",
                    "ticks": 11220,
                    "time": 40.071388500000005,
                    "velocity": 1
                },
                {
                    "duration": 0.21428549999999547,
                    "durationTicks": 60,
                    "midi": 42,
                    "name": "F#2",
                    "ticks": 11220,
                    "time": 40.071388500000005,
                    "velocity": 1
                },
                {
                    "duration": 0.21428550000000257,
                    "durationTicks": 60,
                    "midi": 36,
                    "name": "C2",
                    "ticks": 11280,
                    "time": 40.285674,
                    "velocity": 1
                },
                {
                    "duration": 0.21428550000000257,
                    "durationTicks": 60,
                    "midi": 42,
                    "name": "F#2",
                    "ticks": 11280,
                    "time": 40.285674,
                    "velocity": 1
                },
                {
                    "duration": 0.21428550000000257,
                    "durationTicks": 60,
                    "midi": 36,
                    "name": "C2",
                    "ticks": 11340,
                    "time": 40.4999595,
                    "velocity": 1
                },
                {
                    "duration": 0.21428550000000257,
                    "durationTicks": 60,
                    "midi": 42,
                    "name": "F#2",
                    "ticks": 11340,
                    "time": 40.4999595,
                    "velocity": 1
                },
                {
                    "duration": 0.21428549999999547,
                    "durationTicks": 60,
                    "midi": 36,
                    "name": "C2",
                    "ticks": 11400,
                    "time": 40.714245000000005,
                    "velocity": 1
                },
                {
                    "duration": 0.21428549999999547,
                    "durationTicks": 60,
                    "midi": 42,
                    "name": "F#2",
                    "ticks": 11400,
                    "time": 40.714245000000005,
                    "velocity": 1
                },
                {
                    "duration": 0.21428550000000257,
                    "durationTicks": 60,
                    "midi": 36,
                    "name": "C2",
                    "ticks": 11460,
                    "time": 40.9285305,
                    "velocity": 1
                },
                {
                    "duration": 0.21428550000000257,
                    "durationTicks": 60,
                    "midi": 42,
                    "name": "F#2",
                    "ticks": 11460,
                    "time": 40.9285305,
                    "velocity": 1
                },
                {
                    "duration": 0.42857099999999804,
                    "durationTicks": 120,
                    "midi": 36,
                    "name": "C2",
                    "ticks": 11520,
                    "time": 41.142816,
                    "velocity": 1
                },
                {
                    "duration": 0.10714275000000129,
                    "durationTicks": 30,
                    "midi": 38,
                    "name": "D2",
                    "ticks": 11520,
                    "time": 41.142816,
                    "velocity": 1
                },
                {
                    "duration": 0.10714275000000129,
                    "durationTicks": 30,
                    "midi": 38,
                    "name": "D2",
                    "ticks": 11550,
                    "time": 41.249958750000005,
                    "velocity": 1
                },
                {
                    "duration": 0.10714274999999418,
                    "durationTicks": 30,
                    "midi": 38,
                    "name": "D2",
                    "ticks": 11580,
                    "time": 41.357101500000006,
                    "velocity": 1
                },
                {
                    "duration": 0.10714275000000129,
                    "durationTicks": 30,
                    "midi": 38,
                    "name": "D2",
                    "ticks": 11610,
                    "time": 41.46424425,
                    "velocity": 1
                },
                {
                    "duration": 0.42857100000000514,
                    "durationTicks": 120,
                    "midi": 36,
                    "name": "C2",
                    "ticks": 11640,
                    "time": 41.571387,
                    "velocity": 1
                },
                {
                    "duration": 0.10714275000000129,
                    "durationTicks": 30,
                    "midi": 38,
                    "name": "D2",
                    "ticks": 11640,
                    "time": 41.571387,
                    "velocity": 1
                },
                {
                    "duration": 0.10714275000000129,
                    "durationTicks": 30,
                    "midi": 38,
                    "name": "D2",
                    "ticks": 11670,
                    "time": 41.67852975,
                    "velocity": 1
                },
                {
                    "duration": 0.10714275000000129,
                    "durationTicks": 30,
                    "midi": 38,
                    "name": "D2",
                    "ticks": 11700,
                    "time": 41.785672500000004,
                    "velocity": 1
                },
                {
                    "duration": 0.10714275000000129,
                    "durationTicks": 30,
                    "midi": 38,
                    "name": "D2",
                    "ticks": 11730,
                    "time": 41.892815250000005,
                    "velocity": 1
                },
                {
                    "duration": 0.42857099999999804,
                    "durationTicks": 120,
                    "midi": 36,
                    "name": "C2",
                    "ticks": 11760,
                    "time": 41.99995800000001,
                    "velocity": 1
                },
                {
                    "duration": 0.10714274999999418,
                    "durationTicks": 30,
                    "midi": 38,
                    "name": "D2",
                    "ticks": 11760,
                    "time": 41.99995800000001,
                    "velocity": 1
                },
                {
                    "duration": 0.10714275000000129,
                    "durationTicks": 30,
                    "midi": 38,
                    "name": "D2",
                    "ticks": 11790,
                    "time": 42.10710075,
                    "velocity": 1
                },
                {
                    "duration": 0.10714275000000129,
                    "durationTicks": 30,
                    "midi": 38,
                    "name": "D2",
                    "ticks": 11820,
                    "time": 42.2142435,
                    "velocity": 1
                },
                {
                    "duration": 0.10714275000000129,
                    "durationTicks": 30,
                    "midi": 38,
                    "name": "D2",
                    "ticks": 11850,
                    "time": 42.32138625,
                    "velocity": 1
                },
                {
                    "duration": 0.42857099999999804,
                    "durationTicks": 120,
                    "midi": 36,
                    "name": "C2",
                    "ticks": 11880,
                    "time": 42.428529000000005,
                    "velocity": 1
                },
                {
                    "duration": 0.10714275000000129,
                    "durationTicks": 30,
                    "midi": 38,
                    "name": "D2",
                    "ticks": 11880,
                    "time": 42.428529000000005,
                    "velocity": 1
                },
                {
                    "duration": 0.10714274999999418,
                    "durationTicks": 30,
                    "midi": 38,
                    "name": "D2",
                    "ticks": 11910,
                    "time": 42.535671750000006,
                    "velocity": 1
                },
                {
                    "duration": 0.10714275000000129,
                    "durationTicks": 30,
                    "midi": 38,
                    "name": "D2",
                    "ticks": 11940,
                    "time": 42.6428145,
                    "velocity": 1
                },
                {
                    "duration": 0.10714275000000129,
                    "durationTicks": 30,
                    "midi": 38,
                    "name": "D2",
                    "ticks": 11970,
                    "time": 42.74995725,
                    "velocity": 1
                },
                {
                    "duration": 0.42857099999999804,
                    "durationTicks": 120,
                    "midi": 36,
                    "name": "C2",
                    "ticks": 12000,
                    "time": 42.8571,
                    "velocity": 1
                },
                {
                    "duration": 0.42857099999999804,
                    "durationTicks": 120,
                    "midi": 57,
                    "name": "A3",
                    "ticks": 12000,
                    "time": 42.8571,
                    "velocity": 1
                },
                {
                    "duration": 0.42857100000000514,
                    "durationTicks": 120,
                    "midi": 38,
                    "name": "D2",
                    "ticks": 12120,
                    "time": 43.285671,
                    "velocity": 1
                },
                {
                    "duration": 0.42857100000000514,
                    "durationTicks": 120,
                    "midi": 57,
                    "name": "A3",
                    "ticks": 12120,
                    "time": 43.285671,
                    "velocity": 1
                },
                {
                    "duration": 0.21428549999999547,
                    "durationTicks": 60,
                    "midi": 36,
                    "name": "C2",
                    "ticks": 12240,
                    "time": 43.714242000000006,
                    "velocity": 1
                },
                {
                    "duration": 0.21428549999999547,
                    "durationTicks": 60,
                    "midi": 42,
                    "name": "F#2",
                    "ticks": 12240,
                    "time": 43.714242000000006,
                    "velocity": 1
                },
                {
                    "duration": 0.07142850000000323,
                    "durationTicks": 20,
                    "midi": 36,
                    "name": "C2",
                    "ticks": 12300,
                    "time": 43.9285275,
                    "velocity": 1
                },
                {
                    "duration": 0.21428550000000257,
                    "durationTicks": 60,
                    "midi": 42,
                    "name": "F#2",
                    "ticks": 12300,
                    "time": 43.9285275,
                    "velocity": 1
                },
                {
                    "duration": 0.07142849999999612,
                    "durationTicks": 20,
                    "midi": 36,
                    "name": "C2",
                    "ticks": 12320,
                    "time": 43.999956000000005,
                    "velocity": 1
                },
                {
                    "duration": 0.07142850000000323,
                    "durationTicks": 20,
                    "midi": 36,
                    "name": "C2",
                    "ticks": 12340,
                    "time": 44.0713845,
                    "velocity": 1
                },
                {
                    "duration": 0.21428550000000257,
                    "durationTicks": 60,
                    "midi": 38,
                    "name": "D2",
                    "ticks": 12360,
                    "time": 44.142813000000004,
                    "velocity": 1
                },
                {
                    "duration": 0.21428550000000257,
                    "durationTicks": 60,
                    "midi": 42,
                    "name": "F#2",
                    "ticks": 12360,
                    "time": 44.142813000000004,
                    "velocity": 1
                },
                {
                    "duration": 0.21428549999999547,
                    "durationTicks": 60,
                    "midi": 36,
                    "name": "C2",
                    "ticks": 12420,
                    "time": 44.357098500000006,
                    "velocity": 1
                },
                {
                    "duration": 0.21428549999999547,
                    "durationTicks": 60,
                    "midi": 42,
                    "name": "F#2",
                    "ticks": 12420,
                    "time": 44.357098500000006,
                    "velocity": 1
                },
                {
                    "duration": 0.21428550000000257,
                    "durationTicks": 60,
                    "midi": 42,
                    "name": "F#2",
                    "ticks": 12480,
                    "time": 44.571384,
                    "velocity": 1
                },
                {
                    "duration": 0.42857100000000514,
                    "durationTicks": 120,
                    "midi": 36,
                    "name": "C2",
                    "ticks": 12480,
                    "time": 44.571384,
                    "velocity": 1
                },
                {
                    "duration": 0.21428550000000257,
                    "durationTicks": 60,
                    "midi": 42,
                    "name": "F#2",
                    "ticks": 12540,
                    "time": 44.785669500000004,
                    "velocity": 1
                },
                {
                    "duration": 0.21428549999999547,
                    "durationTicks": 60,
                    "midi": 38,
                    "name": "D2",
                    "ticks": 12600,
                    "time": 44.99995500000001,
                    "velocity": 1
                },
                {
                    "duration": 0.21428549999999547,
                    "durationTicks": 60,
                    "midi": 42,
                    "name": "F#2",
                    "ticks": 12600,
                    "time": 44.99995500000001,
                    "velocity": 1
                },
                {
                    "duration": 0.21428550000000257,
                    "durationTicks": 60,
                    "midi": 42,
                    "name": "F#2",
                    "ticks": 12660,
                    "time": 45.2142405,
                    "velocity": 1
                },
                {
                    "duration": 0.21428549999999547,
                    "durationTicks": 60,
                    "midi": 36,
                    "name": "C2",
                    "ticks": 12720,
                    "time": 45.428526000000005,
                    "velocity": 1
                },
                {
                    "duration": 0.21428549999999547,
                    "durationTicks": 60,
                    "midi": 42,
                    "name": "F#2",
                    "ticks": 12720,
                    "time": 45.428526000000005,
                    "velocity": 1
                },
                {
                    "duration": 0.07142850000000323,
                    "durationTicks": 20,
                    "midi": 36,
                    "name": "C2",
                    "ticks": 12780,
                    "time": 45.6428115,
                    "velocity": 1
                },
                {
                    "duration": 0.21428550000000257,
                    "durationTicks": 60,
                    "midi": 42,
                    "name": "F#2",
                    "ticks": 12780,
                    "time": 45.6428115,
                    "velocity": 1
                },
                {
                    "duration": 0.07142849999999612,
                    "durationTicks": 20,
                    "midi": 36,
                    "name": "C2",
                    "ticks": 12800,
                    "time": 45.714240000000004,
                    "velocity": 1
                },
                {
                    "duration": 0.07142850000000323,
                    "durationTicks": 20,
                    "midi": 36,
                    "name": "C2",
                    "ticks": 12820,
                    "time": 45.7856685,
                    "velocity": 1
                },
                {
                    "duration": 0.21428550000000257,
                    "durationTicks": 60,
                    "midi": 38,
                    "name": "D2",
                    "ticks": 12840,
                    "time": 45.857097,
                    "velocity": 1
                },
                {
                    "duration": 0.21428550000000257,
                    "durationTicks": 60,
                    "midi": 42,
                    "name": "F#2",
                    "ticks": 12840,
                    "time": 45.857097,
                    "velocity": 1
                },
                {
                    "duration": 0.21428549999999547,
                    "durationTicks": 60,
                    "midi": 36,
                    "name": "C2",
                    "ticks": 12900,
                    "time": 46.071382500000006,
                    "velocity": 1
                },
                {
                    "duration": 0.21428549999999547,
                    "durationTicks": 60,
                    "midi": 42,
                    "name": "F#2",
                    "ticks": 12900,
                    "time": 46.071382500000006,
                    "velocity": 1
                },
                {
                    "duration": 0.21428550000000257,
                    "durationTicks": 60,
                    "midi": 42,
                    "name": "F#2",
                    "ticks": 12960,
                    "time": 46.285668,
                    "velocity": 1
                },
                {
                    "duration": 0.42857100000000514,
                    "durationTicks": 120,
                    "midi": 36,
                    "name": "C2",
                    "ticks": 12960,
                    "time": 46.285668,
                    "velocity": 1
                },
                {
                    "duration": 0.21428550000000257,
                    "durationTicks": 60,
                    "midi": 42,
                    "name": "F#2",
                    "ticks": 13020,
                    "time": 46.499953500000004,
                    "velocity": 1
                },
                {
                    "duration": 0.21428549999999547,
                    "durationTicks": 60,
                    "midi": 38,
                    "name": "D2",
                    "ticks": 13080,
                    "time": 46.714239000000006,
                    "velocity": 1
                },
                {
                    "duration": 0.21428549999999547,
                    "durationTicks": 60,
                    "midi": 42,
                    "name": "F#2",
                    "ticks": 13080,
                    "time": 46.714239000000006,
                    "velocity": 1
                },
                {
                    "duration": 0.21428550000000257,
                    "durationTicks": 60,
                    "midi": 42,
                    "name": "F#2",
                    "ticks": 13140,
                    "time": 46.9285245,
                    "velocity": 1
                },
                {
                    "duration": 0.21428550000000257,
                    "durationTicks": 60,
                    "midi": 36,
                    "name": "C2",
                    "ticks": 13200,
                    "time": 47.142810000000004,
                    "velocity": 1
                },
                {
                    "duration": 0.21428550000000257,
                    "durationTicks": 60,
                    "midi": 42,
                    "name": "F#2",
                    "ticks": 13200,
                    "time": 47.142810000000004,
                    "velocity": 1
                },
                {
                    "duration": 0.07142849999999612,
                    "durationTicks": 20,
                    "midi": 36,
                    "name": "C2",
                    "ticks": 13260,
                    "time": 47.35709550000001,
                    "velocity": 1
                },
                {
                    "duration": 0.21428549999999547,
                    "durationTicks": 60,
                    "midi": 42,
                    "name": "F#2",
                    "ticks": 13260,
                    "time": 47.35709550000001,
                    "velocity": 1
                },
                {
                    "duration": 0.07142849999999612,
                    "durationTicks": 20,
                    "midi": 36,
                    "name": "C2",
                    "ticks": 13280,
                    "time": 47.428524,
                    "velocity": 1
                },
                {
                    "duration": 0.07142850000000323,
                    "durationTicks": 20,
                    "midi": 36,
                    "name": "C2",
                    "ticks": 13300,
                    "time": 47.4999525,
                    "velocity": 1
                },
                {
                    "duration": 0.21428550000000257,
                    "durationTicks": 60,
                    "midi": 38,
                    "name": "D2",
                    "ticks": 13320,
                    "time": 47.571381,
                    "velocity": 1
                },
                {
                    "duration": 0.21428550000000257,
                    "durationTicks": 60,
                    "midi": 42,
                    "name": "F#2",
                    "ticks": 13320,
                    "time": 47.571381,
                    "velocity": 1
                },
                {
                    "duration": 0.21428550000000257,
                    "durationTicks": 60,
                    "midi": 42,
                    "name": "F#2",
                    "ticks": 13380,
                    "time": 47.785666500000005,
                    "velocity": 1
                },
                {
                    "duration": 0.42857099999999804,
                    "durationTicks": 120,
                    "midi": 36,
                    "name": "C2",
                    "ticks": 13440,
                    "time": 47.99995200000001,
                    "velocity": 1
                },
                {
                    "duration": 0.21428549999999547,
                    "durationTicks": 60,
                    "midi": 42,
                    "name": "F#2",
                    "ticks": 13440,
                    "time": 47.99995200000001,
                    "velocity": 1
                },
                {
                    "duration": 0.19642837499999644,
                    "durationTicks": 55,
                    "midi": 42,
                    "name": "F#2",
                    "ticks": 13500,
                    "time": 48.2142375,
                    "velocity": 1
                },
                {
                    "duration": 0.2321426250000016,
                    "durationTicks": 65,
                    "midi": 38,
                    "name": "D2",
                    "ticks": 13555,
                    "time": 48.410665875,
                    "velocity": 0.5905511811023622
                },
                {
                    "duration": 0.21428549999999547,
                    "durationTicks": 60,
                    "midi": 38,
                    "name": "D2",
                    "ticks": 13560,
                    "time": 48.428523000000006,
                    "velocity": 1
                },
                {
                    "duration": 0.21428550000000257,
                    "durationTicks": 60,
                    "midi": 38,
                    "name": "D2",
                    "ticks": 13620,
                    "time": 48.6428085,
                    "velocity": 1
                },
                {
                    "duration": 0.10714275000000129,
                    "durationTicks": 30,
                    "midi": 45,
                    "name": "A2",
                    "ticks": 13680,
                    "time": 48.857094000000004,
                    "velocity": 1
                },
                {
                    "duration": 0.10714275000000129,
                    "durationTicks": 30,
                    "midi": 45,
                    "name": "A2",
                    "ticks": 13710,
                    "time": 48.964236750000005,
                    "velocity": 1
                },
                {
                    "duration": 0.21428549999999547,
                    "durationTicks": 60,
                    "midi": 45,
                    "name": "A2",
                    "ticks": 13740,
                    "time": 49.071379500000006,
                    "velocity": 1
                },
                {
                    "duration": 0.10714275000000129,
                    "durationTicks": 30,
                    "midi": 47,
                    "name": "B2",
                    "ticks": 13800,
                    "time": 49.285665,
                    "velocity": 1
                },
                {
                    "duration": 0.10714275000000129,
                    "durationTicks": 30,
                    "midi": 47,
                    "name": "B2",
                    "ticks": 13830,
                    "time": 49.39280775,
                    "velocity": 1
                },
                {
                    "duration": 0.21428550000000257,
                    "durationTicks": 60,
                    "midi": 47,
                    "name": "B2",
                    "ticks": 13860,
                    "time": 49.499950500000004,
                    "velocity": 1
                },
                {
                    "duration": 0.42857099999999804,
                    "durationTicks": 120,
                    "midi": 36,
                    "name": "C2",
                    "ticks": 13920,
                    "time": 49.71423600000001,
                    "velocity": 1
                },
                {
                    "duration": 0.42857099999999804,
                    "durationTicks": 120,
                    "midi": 57,
                    "name": "A3",
                    "ticks": 13920,
                    "time": 49.71423600000001,
                    "velocity": 1
                },
                {
                    "duration": 0.21428550000000257,
                    "durationTicks": 60,
                    "midi": 42,
                    "name": "F#2",
                    "ticks": 14040,
                    "time": 50.142807000000005,
                    "velocity": 1
                },
                {
                    "duration": 0.21428550000000257,
                    "durationTicks": 60,
                    "midi": 38,
                    "name": "D2",
                    "ticks": 14040,
                    "time": 50.142807000000005,
                    "velocity": 1
                },
                {
                    "duration": 0.21428549999999547,
                    "durationTicks": 60,
                    "midi": 42,
                    "name": "F#2",
                    "ticks": 14100,
                    "time": 50.35709250000001,
                    "velocity": 1
                },
                {
                    "duration": 0.21428550000000257,
                    "durationTicks": 60,
                    "midi": 36,
                    "name": "C2",
                    "ticks": 14160,
                    "time": 50.571378,
                    "velocity": 1
                },
                {
                    "duration": 0.21428550000000257,
                    "durationTicks": 60,
                    "midi": 42,
                    "name": "F#2",
                    "ticks": 14160,
                    "time": 50.571378,
                    "velocity": 1
                },
                {
                    "duration": 0.07142850000000323,
                    "durationTicks": 20,
                    "midi": 36,
                    "name": "C2",
                    "ticks": 14220,
                    "time": 50.785663500000005,
                    "velocity": 1
                },
                {
                    "duration": 0.21428549999999547,
                    "durationTicks": 60,
                    "midi": 42,
                    "name": "F#2",
                    "ticks": 14220,
                    "time": 50.785663500000005,
                    "velocity": 1
                },
                {
                    "duration": 0.07142849999999612,
                    "durationTicks": 20,
                    "midi": 36,
                    "name": "C2",
                    "ticks": 14240,
                    "time": 50.85709200000001,
                    "velocity": 1
                },
                {
                    "duration": 0.07142849999999612,
                    "durationTicks": 20,
                    "midi": 36,
                    "name": "C2",
                    "ticks": 14260,
                    "time": 50.928520500000005,
                    "velocity": 1
                },
                {
                    "duration": 0.21428550000000257,
                    "durationTicks": 60,
                    "midi": 38,
                    "name": "D2",
                    "ticks": 14280,
                    "time": 50.999949,
                    "velocity": 1
                },
                {
                    "duration": 0.21428550000000257,
                    "durationTicks": 60,
                    "midi": 42,
                    "name": "F#2",
                    "ticks": 14280,
                    "time": 50.999949,
                    "velocity": 1
                },
                {
                    "duration": 0.21428550000000257,
                    "durationTicks": 60,
                    "midi": 36,
                    "name": "C2",
                    "ticks": 14340,
                    "time": 51.2142345,
                    "velocity": 1
                },
                {
                    "duration": 0.21428550000000257,
                    "durationTicks": 60,
                    "midi": 42,
                    "name": "F#2",
                    "ticks": 14340,
                    "time": 51.2142345,
                    "velocity": 1
                },
                {
                    "duration": 0.21428549999999547,
                    "durationTicks": 60,
                    "midi": 42,
                    "name": "F#2",
                    "ticks": 14400,
                    "time": 51.428520000000006,
                    "velocity": 1
                },
                {
                    "duration": 0.42857099999999804,
                    "durationTicks": 120,
                    "midi": 36,
                    "name": "C2",
                    "ticks": 14400,
                    "time": 51.428520000000006,
                    "velocity": 1
                },
                {
                    "duration": 0.21428550000000257,
                    "durationTicks": 60,
                    "midi": 42,
                    "name": "F#2",
                    "ticks": 14460,
                    "time": 51.6428055,
                    "velocity": 1
                },
                {
                    "duration": 0.21428550000000257,
                    "durationTicks": 60,
                    "midi": 38,
                    "name": "D2",
                    "ticks": 14520,
                    "time": 51.857091000000004,
                    "velocity": 1
                },
                {
                    "duration": 0.21428550000000257,
                    "durationTicks": 60,
                    "midi": 42,
                    "name": "F#2",
                    "ticks": 14520,
                    "time": 51.857091000000004,
                    "velocity": 1
                },
                {
                    "duration": 0.21428549999999547,
                    "durationTicks": 60,
                    "midi": 42,
                    "name": "F#2",
                    "ticks": 14580,
                    "time": 52.07137650000001,
                    "velocity": 1
                },
                {
                    "duration": 0.21428550000000257,
                    "durationTicks": 60,
                    "midi": 36,
                    "name": "C2",
                    "ticks": 14640,
                    "time": 52.285662,
                    "velocity": 1
                },
                {
                    "duration": 0.21428550000000257,
                    "durationTicks": 60,
                    "midi": 42,
                    "name": "F#2",
                    "ticks": 14640,
                    "time": 52.285662,
                    "velocity": 1
                },
                {
                    "duration": 0.07142850000000323,
                    "durationTicks": 20,
                    "midi": 36,
                    "name": "C2",
                    "ticks": 14700,
                    "time": 52.499947500000005,
                    "velocity": 1
                },
                {
                    "duration": 0.21428550000000257,
                    "durationTicks": 60,
                    "midi": 42,
                    "name": "F#2",
                    "ticks": 14700,
                    "time": 52.499947500000005,
                    "velocity": 1
                },
                {
                    "duration": 0.07142849999999612,
                    "durationTicks": 20,
                    "midi": 36,
                    "name": "C2",
                    "ticks": 14720,
                    "time": 52.57137600000001,
                    "velocity": 1
                },
                {
                    "duration": 0.07142850000000323,
                    "durationTicks": 20,
                    "midi": 36,
                    "name": "C2",
                    "ticks": 14740,
                    "time": 52.642804500000004,
                    "velocity": 1
                },
                {
                    "duration": 0.21428549999999547,
                    "durationTicks": 60,
                    "midi": 38,
                    "name": "D2",
                    "ticks": 14760,
                    "time": 52.71423300000001,
                    "velocity": 1
                },
                {
                    "duration": 0.21428549999999547,
                    "durationTicks": 60,
                    "midi": 42,
                    "name": "F#2",
                    "ticks": 14760,
                    "time": 52.71423300000001,
                    "velocity": 1
                },
                {
                    "duration": 0.21428550000000257,
                    "durationTicks": 60,
                    "midi": 36,
                    "name": "C2",
                    "ticks": 14820,
                    "time": 52.9285185,
                    "velocity": 1
                },
                {
                    "duration": 0.21428550000000257,
                    "durationTicks": 60,
                    "midi": 42,
                    "name": "F#2",
                    "ticks": 14820,
                    "time": 52.9285185,
                    "velocity": 1
                },
                {
                    "duration": 0.42857099999999804,
                    "durationTicks": 120,
                    "midi": 36,
                    "name": "C2",
                    "ticks": 14880,
                    "time": 53.142804000000005,
                    "velocity": 1
                },
                {
                    "duration": 0.21428550000000257,
                    "durationTicks": 60,
                    "midi": 42,
                    "name": "F#2",
                    "ticks": 14880,
                    "time": 53.142804000000005,
                    "velocity": 1
                },
                {
                    "duration": 0.21428549999999547,
                    "durationTicks": 60,
                    "midi": 42,
                    "name": "F#2",
                    "ticks": 14940,
                    "time": 53.35708950000001,
                    "velocity": 1
                },
                {
                    "duration": 0.21428550000000257,
                    "durationTicks": 60,
                    "midi": 38,
                    "name": "D2",
                    "ticks": 15000,
                    "time": 53.571375,
                    "velocity": 1
                },
                {
                    "duration": 0.21428550000000257,
                    "durationTicks": 60,
                    "midi": 57,
                    "name": "A3",
                    "ticks": 15000,
                    "time": 53.571375,
                    "velocity": 1
                },
                {
                    "duration": 0.21428549999999547,
                    "durationTicks": 60,
                    "midi": 42,
                    "name": "F#2",
                    "ticks": 15060,
                    "time": 53.785660500000006,
                    "velocity": 1
                },
                {
                    "duration": 0.21428550000000257,
                    "durationTicks": 60,
                    "midi": 36,
                    "name": "C2",
                    "ticks": 15120,
                    "time": 53.999946,
                    "velocity": 1
                },
                {
                    "duration": 0.21428550000000257,
                    "durationTicks": 60,
                    "midi": 42,
                    "name": "F#2",
                    "ticks": 15120,
                    "time": 53.999946,
                    "velocity": 1
                },
                {
                    "duration": 0.07142850000000323,
                    "durationTicks": 20,
                    "midi": 36,
                    "name": "C2",
                    "ticks": 15180,
                    "time": 54.214231500000004,
                    "velocity": 1
                },
                {
                    "duration": 0.21428550000000257,
                    "durationTicks": 60,
                    "midi": 42,
                    "name": "F#2",
                    "ticks": 15180,
                    "time": 54.214231500000004,
                    "velocity": 1
                },
                {
                    "duration": 0.07142849999999612,
                    "durationTicks": 20,
                    "midi": 36,
                    "name": "C2",
                    "ticks": 15200,
                    "time": 54.28566000000001,
                    "velocity": 1
                },
                {
                    "duration": 0.07142850000000323,
                    "durationTicks": 20,
                    "midi": 36,
                    "name": "C2",
                    "ticks": 15220,
                    "time": 54.3570885,
                    "velocity": 1
                },
                {
                    "duration": 0.21428549999999547,
                    "durationTicks": 60,
                    "midi": 57,
                    "name": "A3",
                    "ticks": 15240,
                    "time": 54.42851700000001,
                    "velocity": 1
                },
                {
                    "duration": 0.21428549999999547,
                    "durationTicks": 60,
                    "midi": 38,
                    "name": "D2",
                    "ticks": 15240,
                    "time": 54.42851700000001,
                    "velocity": 1
                },
                {
                    "duration": 0.21428550000000257,
                    "durationTicks": 60,
                    "midi": 42,
                    "name": "F#2",
                    "ticks": 15300,
                    "time": 54.6428025,
                    "velocity": 1
                },
                {
                    "duration": 0.21428550000000257,
                    "durationTicks": 60,
                    "midi": 42,
                    "name": "F#2",
                    "ticks": 15360,
                    "time": 54.857088000000005,
                    "velocity": 1
                },
                {
                    "duration": 0.21428550000000257,
                    "durationTicks": 60,
                    "midi": 36,
                    "name": "C2",
                    "ticks": 15360,
                    "time": 54.857088000000005,
                    "velocity": 1
                },
                {
                    "duration": 0.21428549999999547,
                    "durationTicks": 60,
                    "midi": 42,
                    "name": "F#2",
                    "ticks": 15420,
                    "time": 55.07137350000001,
                    "velocity": 1
                },
                {
                    "duration": 0.07142849999999612,
                    "durationTicks": 20,
                    "midi": 36,
                    "name": "C2",
                    "ticks": 15420,
                    "time": 55.07137350000001,
                    "velocity": 1
                },
                {
                    "duration": 0.07142850000000323,
                    "durationTicks": 20,
                    "midi": 36,
                    "name": "C2",
                    "ticks": 15440,
                    "time": 55.142802,
                    "velocity": 1
                },
                {
                    "duration": 0.07142849999999612,
                    "durationTicks": 20,
                    "midi": 36,
                    "name": "C2",
                    "ticks": 15460,
                    "time": 55.214230500000006,
                    "velocity": 1
                },
                {
                    "duration": 0.21428550000000257,
                    "durationTicks": 60,
                    "midi": 38,
                    "name": "D2",
                    "ticks": 15480,
                    "time": 55.285659,
                    "velocity": 1
                },
                {
                    "duration": 0.21428550000000257,
                    "durationTicks": 60,
                    "midi": 57,
                    "name": "A3",
                    "ticks": 15480,
                    "time": 55.285659,
                    "velocity": 1
                },
                {
                    "duration": 0.10714275000000129,
                    "durationTicks": 30,
                    "midi": 42,
                    "name": "F#2",
                    "ticks": 15540,
                    "time": 55.499944500000005,
                    "velocity": 1
                },
                {
                    "duration": 0.10714275000000129,
                    "durationTicks": 30,
                    "midi": 38,
                    "name": "D2",
                    "ticks": 15570,
                    "time": 55.607087250000006,
                    "velocity": 1
                },
                {
                    "duration": 0.42857099999999804,
                    "durationTicks": 120,
                    "midi": 36,
                    "name": "C2",
                    "ticks": 15600,
                    "time": 55.71423000000001,
                    "velocity": 1
                },
                {
                    "duration": 0.21428549999999547,
                    "durationTicks": 60,
                    "midi": 57,
                    "name": "A3",
                    "ticks": 15600,
                    "time": 55.71423000000001,
                    "velocity": 1
                },
                {
                    "duration": 0.10714275000000129,
                    "durationTicks": 30,
                    "midi": 38,
                    "name": "D2",
                    "ticks": 15660,
                    "time": 55.9285155,
                    "velocity": 1
                },
                {
                    "duration": 0.10714275000000129,
                    "durationTicks": 30,
                    "midi": 38,
                    "name": "D2",
                    "ticks": 15690,
                    "time": 56.035658250000004,
                    "velocity": 1
                },
                {
                    "duration": 0.21428549999999547,
                    "durationTicks": 60,
                    "midi": 38,
                    "name": "D2",
                    "ticks": 15720,
                    "time": 56.142801000000006,
                    "velocity": 1
                },
                {
                    "duration": 0.21428550000000257,
                    "durationTicks": 60,
                    "midi": 38,
                    "name": "D2",
                    "ticks": 15780,
                    "time": 56.3570865,
                    "velocity": 1
                },
                {
                    "duration": 0.42857099999999804,
                    "durationTicks": 120,
                    "midi": 36,
                    "name": "C2",
                    "ticks": 15840,
                    "time": 56.571372000000004,
                    "velocity": 1
                },
                {
                    "duration": 0.42857099999999804,
                    "durationTicks": 120,
                    "midi": 57,
                    "name": "A3",
                    "ticks": 15840,
                    "time": 56.571372000000004,
                    "velocity": 1
                },
                {
                    "duration": 0.21428550000000257,
                    "durationTicks": 60,
                    "midi": 38,
                    "name": "D2",
                    "ticks": 15960,
                    "time": 56.999943,
                    "velocity": 1
                },
                {
                    "duration": 0.21428550000000257,
                    "durationTicks": 60,
                    "midi": 42,
                    "name": "F#2",
                    "ticks": 15960,
                    "time": 56.999943,
                    "velocity": 1
                },
                {
                    "duration": 0.21428550000000257,
                    "durationTicks": 60,
                    "midi": 42,
                    "name": "F#2",
                    "ticks": 16020,
                    "time": 57.214228500000004,
                    "velocity": 1
                },
                {
                    "duration": 0.21428549999999547,
                    "durationTicks": 60,
                    "midi": 42,
                    "name": "F#2",
                    "ticks": 16080,
                    "time": 57.42851400000001,
                    "velocity": 1
                },
                {
                    "duration": 0.42857099999999804,
                    "durationTicks": 120,
                    "midi": 36,
                    "name": "C2",
                    "ticks": 16080,
                    "time": 57.42851400000001,
                    "velocity": 1
                },
                {
                    "duration": 0.21428550000000257,
                    "durationTicks": 60,
                    "midi": 42,
                    "name": "F#2",
                    "ticks": 16140,
                    "time": 57.6427995,
                    "velocity": 1
                },
                {
                    "duration": 0.21428550000000257,
                    "durationTicks": 60,
                    "midi": 38,
                    "name": "D2",
                    "ticks": 16200,
                    "time": 57.857085000000005,
                    "velocity": 1
                },
                {
                    "duration": 0.21428550000000257,
                    "durationTicks": 60,
                    "midi": 42,
                    "name": "F#2",
                    "ticks": 16200,
                    "time": 57.857085000000005,
                    "velocity": 1
                },
                {
                    "duration": 0.21428549999999547,
                    "durationTicks": 60,
                    "midi": 42,
                    "name": "F#2",
                    "ticks": 16260,
                    "time": 58.07137050000001,
                    "velocity": 1
                },
                {
                    "duration": 0.21428550000000257,
                    "durationTicks": 60,
                    "midi": 42,
                    "name": "F#2",
                    "ticks": 16321,
                    "time": 58.289227425,
                    "velocity": 1
                },
                {
                    "duration": 0.42857100000000514,
                    "durationTicks": 120,
                    "midi": 36,
                    "name": "C2",
                    "ticks": 16321,
                    "time": 58.289227425,
                    "velocity": 1
                },
                {
                    "duration": 0.21428550000000257,
                    "durationTicks": 60,
                    "midi": 42,
                    "name": "F#2",
                    "ticks": 16381,
                    "time": 58.503512925,
                    "velocity": 1
                },
                {
                    "duration": 0.21428549999999547,
                    "durationTicks": 60,
                    "midi": 38,
                    "name": "D2",
                    "ticks": 16441,
                    "time": 58.717798425000005,
                    "velocity": 1
                },
                {
                    "duration": 0.21428549999999547,
                    "durationTicks": 60,
                    "midi": 42,
                    "name": "F#2",
                    "ticks": 16441,
                    "time": 58.717798425000005,
                    "velocity": 1
                },
                {
                    "duration": 0.21428550000000257,
                    "durationTicks": 60,
                    "midi": 42,
                    "name": "F#2",
                    "ticks": 16501,
                    "time": 58.932083925,
                    "velocity": 1
                },
                {
                    "duration": 0.21428549999999547,
                    "durationTicks": 60,
                    "midi": 36,
                    "name": "C2",
                    "ticks": 16561,
                    "time": 59.146369425,
                    "velocity": 1
                },
                {
                    "duration": 0.21428549999999547,
                    "durationTicks": 60,
                    "midi": 42,
                    "name": "F#2",
                    "ticks": 16561,
                    "time": 59.146369425,
                    "velocity": 1
                },
                {
                    "duration": 0.07142850000001033,
                    "durationTicks": 20,
                    "midi": 36,
                    "name": "C2",
                    "ticks": 16621,
                    "time": 59.360654925,
                    "velocity": 1
                },
                {
                    "duration": 0.21428550000000257,
                    "durationTicks": 60,
                    "midi": 42,
                    "name": "F#2",
                    "ticks": 16621,
                    "time": 59.360654925,
                    "velocity": 1
                },
                {
                    "duration": 0.07142849999999612,
                    "durationTicks": 20,
                    "midi": 36,
                    "name": "C2",
                    "ticks": 16641,
                    "time": 59.43208342500001,
                    "velocity": 1
                },
                {
                    "duration": 0.07142849999999612,
                    "durationTicks": 20,
                    "midi": 36,
                    "name": "C2",
                    "ticks": 16661,
                    "time": 59.503511925000005,
                    "velocity": 1
                },
                {
                    "duration": 0.21428550000000257,
                    "durationTicks": 60,
                    "midi": 38,
                    "name": "D2",
                    "ticks": 16681,
                    "time": 59.574940425,
                    "velocity": 1
                },
                {
                    "duration": 0.21428550000000257,
                    "durationTicks": 60,
                    "midi": 42,
                    "name": "F#2",
                    "ticks": 16681,
                    "time": 59.574940425,
                    "velocity": 1
                },
                {
                    "duration": 0.21428549999999547,
                    "durationTicks": 60,
                    "midi": 36,
                    "name": "C2",
                    "ticks": 16741,
                    "time": 59.789225925000004,
                    "velocity": 1
                },
                {
                    "duration": 0.21428549999999547,
                    "durationTicks": 60,
                    "midi": 42,
                    "name": "F#2",
                    "ticks": 16741,
                    "time": 59.789225925000004,
                    "velocity": 1
                },
                {
                    "duration": 0.42857100000000514,
                    "durationTicks": 120,
                    "midi": 36,
                    "name": "C2",
                    "ticks": 16800,
                    "time": 59.99994,
                    "velocity": 1
                },
                {
                    "duration": 0.21428550000000257,
                    "durationTicks": 60,
                    "midi": 42,
                    "name": "F#2",
                    "ticks": 16800,
                    "time": 59.99994,
                    "velocity": 1
                },
                {
                    "duration": 0.21428550000000257,
                    "durationTicks": 60,
                    "midi": 42,
                    "name": "F#2",
                    "ticks": 16860,
                    "time": 60.214225500000005,
                    "velocity": 1
                },
                {
                    "duration": 0.21428549999999547,
                    "durationTicks": 60,
                    "midi": 38,
                    "name": "D2",
                    "ticks": 16920,
                    "time": 60.42851100000001,
                    "velocity": 1
                },
                {
                    "duration": 0.21428549999999547,
                    "durationTicks": 60,
                    "midi": 42,
                    "name": "F#2",
                    "ticks": 16920,
                    "time": 60.42851100000001,
                    "velocity": 1
                },
                {
                    "duration": 0.21428550000000257,
                    "durationTicks": 60,
                    "midi": 42,
                    "name": "F#2",
                    "ticks": 16980,
                    "time": 60.6427965,
                    "velocity": 1
                },
                {
                    "duration": 0.42857099999999804,
                    "durationTicks": 120,
                    "midi": 36,
                    "name": "C2",
                    "ticks": 17040,
                    "time": 60.857082000000005,
                    "velocity": 1
                },
                {
                    "duration": 0.21428550000000257,
                    "durationTicks": 60,
                    "midi": 42,
                    "name": "F#2",
                    "ticks": 17040,
                    "time": 60.857082000000005,
                    "velocity": 1
                },
                {
                    "duration": 0.21428549999999547,
                    "durationTicks": 60,
                    "midi": 42,
                    "name": "F#2",
                    "ticks": 17100,
                    "time": 61.07136750000001,
                    "velocity": 1
                },
                {
                    "duration": 0.21428550000000257,
                    "durationTicks": 60,
                    "midi": 35,
                    "name": "B1",
                    "ticks": 17160,
                    "time": 61.285653,
                    "velocity": 1
                },
                {
                    "duration": 0.21428550000000257,
                    "durationTicks": 60,
                    "midi": 42,
                    "name": "F#2",
                    "ticks": 17160,
                    "time": 61.285653,
                    "velocity": 1
                },
                {
                    "duration": 0.21428549999999547,
                    "durationTicks": 60,
                    "midi": 42,
                    "name": "F#2",
                    "ticks": 17220,
                    "time": 61.499938500000006,
                    "velocity": 1
                },
                {
                    "duration": 0.21428550000000257,
                    "durationTicks": 60,
                    "midi": 42,
                    "name": "F#2",
                    "ticks": 17280,
                    "time": 61.714224,
                    "velocity": 1
                },
                {
                    "duration": 0.42857100000000514,
                    "durationTicks": 120,
                    "midi": 36,
                    "name": "C2",
                    "ticks": 17280,
                    "time": 61.714224,
                    "velocity": 1
                },
                {
                    "duration": 0.21428550000000257,
                    "durationTicks": 60,
                    "midi": 42,
                    "name": "F#2",
                    "ticks": 17340,
                    "time": 61.928509500000004,
                    "velocity": 1
                },
                {
                    "duration": 0.21428549999999547,
                    "durationTicks": 60,
                    "midi": 38,
                    "name": "D2",
                    "ticks": 17400,
                    "time": 62.14279500000001,
                    "velocity": 1
                },
                {
                    "duration": 0.21428549999999547,
                    "durationTicks": 60,
                    "midi": 42,
                    "name": "F#2",
                    "ticks": 17400,
                    "time": 62.14279500000001,
                    "velocity": 1
                },
                {
                    "duration": 0.21428550000000257,
                    "durationTicks": 60,
                    "midi": 42,
                    "name": "F#2",
                    "ticks": 17460,
                    "time": 62.3570805,
                    "velocity": 1
                },
                {
                    "duration": 0.21428550000000257,
                    "durationTicks": 60,
                    "midi": 36,
                    "name": "C2",
                    "ticks": 17520,
                    "time": 62.571366000000005,
                    "velocity": 1
                },
                {
                    "duration": 0.21428550000000257,
                    "durationTicks": 60,
                    "midi": 42,
                    "name": "F#2",
                    "ticks": 17520,
                    "time": 62.571366000000005,
                    "velocity": 1
                },
                {
                    "duration": 0.07142849999999612,
                    "durationTicks": 20,
                    "midi": 36,
                    "name": "C2",
                    "ticks": 17580,
                    "time": 62.78565150000001,
                    "velocity": 1
                },
                {
                    "duration": 0.21428549999999547,
                    "durationTicks": 60,
                    "midi": 42,
                    "name": "F#2",
                    "ticks": 17580,
                    "time": 62.78565150000001,
                    "velocity": 1
                },
                {
                    "duration": 0.07142850000000323,
                    "durationTicks": 20,
                    "midi": 36,
                    "name": "C2",
                    "ticks": 17600,
                    "time": 62.85708,
                    "velocity": 1
                },
                {
                    "duration": 0.07142849999999612,
                    "durationTicks": 20,
                    "midi": 36,
                    "name": "C2",
                    "ticks": 17620,
                    "time": 62.92850850000001,
                    "velocity": 1
                },
                {
                    "duration": 0.21428550000000257,
                    "durationTicks": 60,
                    "midi": 38,
                    "name": "D2",
                    "ticks": 17640,
                    "time": 62.999937,
                    "velocity": 1
                },
                {
                    "duration": 0.21428550000000257,
                    "durationTicks": 60,
                    "midi": 42,
                    "name": "F#2",
                    "ticks": 17640,
                    "time": 62.999937,
                    "velocity": 1
                },
                {
                    "duration": 0.21428550000000257,
                    "durationTicks": 60,
                    "midi": 36,
                    "name": "C2",
                    "ticks": 17700,
                    "time": 63.214222500000005,
                    "velocity": 1
                },
                {
                    "duration": 0.21428550000000257,
                    "durationTicks": 60,
                    "midi": 42,
                    "name": "F#2",
                    "ticks": 17700,
                    "time": 63.214222500000005,
                    "velocity": 1
                },
                {
                    "duration": 0.21428549999999547,
                    "durationTicks": 60,
                    "midi": 42,
                    "name": "F#2",
                    "ticks": 17760,
                    "time": 63.42850800000001,
                    "velocity": 1
                },
                {
                    "duration": 0.42857099999999804,
                    "durationTicks": 120,
                    "midi": 36,
                    "name": "C2",
                    "ticks": 17760,
                    "time": 63.42850800000001,
                    "velocity": 1
                },
                {
                    "duration": 0.21428550000000257,
                    "durationTicks": 60,
                    "midi": 42,
                    "name": "F#2",
                    "ticks": 17820,
                    "time": 63.6427935,
                    "velocity": 1
                },
                {
                    "duration": 0.21428549999999547,
                    "durationTicks": 60,
                    "midi": 57,
                    "name": "A3",
                    "ticks": 17880,
                    "time": 63.857079000000006,
                    "velocity": 1
                },
                {
                    "duration": 0.21428549999999547,
                    "durationTicks": 60,
                    "midi": 38,
                    "name": "D2",
                    "ticks": 17880,
                    "time": 63.857079000000006,
                    "velocity": 1
                },
                {
                    "duration": 0.21428550000000257,
                    "durationTicks": 60,
                    "midi": 42,
                    "name": "F#2",
                    "ticks": 17940,
                    "time": 64.0713645,
                    "velocity": 1
                },
                {
                    "duration": 0.21428550000000257,
                    "durationTicks": 60,
                    "midi": 42,
                    "name": "F#2",
                    "ticks": 18000,
                    "time": 64.28565,
                    "velocity": 1
                },
                {
                    "duration": 0.42857100000000514,
                    "durationTicks": 120,
                    "midi": 36,
                    "name": "C2",
                    "ticks": 18000,
                    "time": 64.28565,
                    "velocity": 1
                },
                {
                    "duration": 0.21428550000000257,
                    "durationTicks": 60,
                    "midi": 42,
                    "name": "F#2",
                    "ticks": 18060,
                    "time": 64.4999355,
                    "velocity": 1
                },
                {
                    "duration": 0.21428550000000257,
                    "durationTicks": 60,
                    "midi": 38,
                    "name": "D2",
                    "ticks": 18120,
                    "time": 64.71422100000001,
                    "velocity": 1
                },
                {
                    "duration": 0.21428550000000257,
                    "durationTicks": 60,
                    "midi": 42,
                    "name": "F#2",
                    "ticks": 18120,
                    "time": 64.71422100000001,
                    "velocity": 1
                },
                {
                    "duration": 0.21428549999998836,
                    "durationTicks": 60,
                    "midi": 42,
                    "name": "F#2",
                    "ticks": 18180,
                    "time": 64.92850650000001,
                    "velocity": 1
                },
                {
                    "duration": 0.21428550000000257,
                    "durationTicks": 60,
                    "midi": 42,
                    "name": "F#2",
                    "ticks": 18240,
                    "time": 65.142792,
                    "velocity": 1
                },
                {
                    "duration": 0.42857100000000514,
                    "durationTicks": 120,
                    "midi": 36,
                    "name": "C2",
                    "ticks": 18240,
                    "time": 65.142792,
                    "velocity": 1
                },
                {
                    "duration": 0.21428550000000257,
                    "durationTicks": 60,
                    "midi": 42,
                    "name": "F#2",
                    "ticks": 18300,
                    "time": 65.3570775,
                    "velocity": 1
                },
                {
                    "duration": 0.21428550000000257,
                    "durationTicks": 60,
                    "midi": 38,
                    "name": "D2",
                    "ticks": 18360,
                    "time": 65.571363,
                    "velocity": 1
                },
                {
                    "duration": 0.21428550000000257,
                    "durationTicks": 60,
                    "midi": 42,
                    "name": "F#2",
                    "ticks": 18360,
                    "time": 65.571363,
                    "velocity": 1
                },
                {
                    "duration": 0.21428550000000257,
                    "durationTicks": 60,
                    "midi": 42,
                    "name": "F#2",
                    "ticks": 18420,
                    "time": 65.78564850000001,
                    "velocity": 1
                },
                {
                    "duration": 0.21428549999998836,
                    "durationTicks": 60,
                    "midi": 36,
                    "name": "C2",
                    "ticks": 18480,
                    "time": 65.99993400000001,
                    "velocity": 1
                },
                {
                    "duration": 0.21428549999998836,
                    "durationTicks": 60,
                    "midi": 42,
                    "name": "F#2",
                    "ticks": 18480,
                    "time": 65.99993400000001,
                    "velocity": 1
                },
                {
                    "duration": 0.07142849999999612,
                    "durationTicks": 20,
                    "midi": 36,
                    "name": "C2",
                    "ticks": 18540,
                    "time": 66.2142195,
                    "velocity": 1
                },
                {
                    "duration": 0.21428550000000257,
                    "durationTicks": 60,
                    "midi": 42,
                    "name": "F#2",
                    "ticks": 18540,
                    "time": 66.2142195,
                    "velocity": 1
                },
                {
                    "duration": 0.07142850000001033,
                    "durationTicks": 20,
                    "midi": 36,
                    "name": "C2",
                    "ticks": 18560,
                    "time": 66.285648,
                    "velocity": 1
                },
                {
                    "duration": 0.07142849999999612,
                    "durationTicks": 20,
                    "midi": 36,
                    "name": "C2",
                    "ticks": 18580,
                    "time": 66.3570765,
                    "velocity": 1
                },
                {
                    "duration": 0.21428550000000257,
                    "durationTicks": 60,
                    "midi": 38,
                    "name": "D2",
                    "ticks": 18600,
                    "time": 66.428505,
                    "velocity": 1
                },
                {
                    "duration": 0.21428550000000257,
                    "durationTicks": 60,
                    "midi": 42,
                    "name": "F#2",
                    "ticks": 18600,
                    "time": 66.428505,
                    "velocity": 1
                },
                {
                    "duration": 0.21428550000000257,
                    "durationTicks": 60,
                    "midi": 36,
                    "name": "C2",
                    "ticks": 18660,
                    "time": 66.6427905,
                    "velocity": 1
                },
                {
                    "duration": 0.21428550000000257,
                    "durationTicks": 60,
                    "midi": 42,
                    "name": "F#2",
                    "ticks": 18660,
                    "time": 66.6427905,
                    "velocity": 1
                },
                {
                    "duration": 0.42857100000000514,
                    "durationTicks": 120,
                    "midi": 36,
                    "name": "C2",
                    "ticks": 18720,
                    "time": 66.857076,
                    "velocity": 1
                },
                {
                    "duration": 0.21428550000000257,
                    "durationTicks": 60,
                    "midi": 42,
                    "name": "F#2",
                    "ticks": 18720,
                    "time": 66.857076,
                    "velocity": 1
                },
                {
                    "duration": 0.21428550000000257,
                    "durationTicks": 60,
                    "midi": 42,
                    "name": "F#2",
                    "ticks": 18780,
                    "time": 67.07136150000001,
                    "velocity": 1
                },
                {
                    "duration": 0.21428549999998836,
                    "durationTicks": 60,
                    "midi": 38,
                    "name": "D2",
                    "ticks": 18840,
                    "time": 67.28564700000001,
                    "velocity": 1
                },
                {
                    "duration": 0.21428549999998836,
                    "durationTicks": 60,
                    "midi": 57,
                    "name": "A3",
                    "ticks": 18840,
                    "time": 67.28564700000001,
                    "velocity": 1
                },
                {
                    "duration": 0.21428550000000257,
                    "durationTicks": 60,
                    "midi": 42,
                    "name": "F#2",
                    "ticks": 18900,
                    "time": 67.4999325,
                    "velocity": 1
                },
                {
                    "duration": 0.21428550000000257,
                    "durationTicks": 60,
                    "midi": 36,
                    "name": "C2",
                    "ticks": 18960,
                    "time": 67.714218,
                    "velocity": 1
                },
                {
                    "duration": 0.21428550000000257,
                    "durationTicks": 60,
                    "midi": 42,
                    "name": "F#2",
                    "ticks": 18960,
                    "time": 67.714218,
                    "velocity": 1
                },
                {
                    "duration": 0.07142849999999612,
                    "durationTicks": 20,
                    "midi": 36,
                    "name": "C2",
                    "ticks": 19020,
                    "time": 67.9285035,
                    "velocity": 1
                },
                {
                    "duration": 0.21428550000000257,
                    "durationTicks": 60,
                    "midi": 42,
                    "name": "F#2",
                    "ticks": 19020,
                    "time": 67.9285035,
                    "velocity": 1
                },
                {
                    "duration": 0.07142850000001033,
                    "durationTicks": 20,
                    "midi": 36,
                    "name": "C2",
                    "ticks": 19040,
                    "time": 67.999932,
                    "velocity": 1
                },
                {
                    "duration": 0.07142849999999612,
                    "durationTicks": 20,
                    "midi": 36,
                    "name": "C2",
                    "ticks": 19060,
                    "time": 68.07136050000001,
                    "velocity": 1
                },
                {
                    "duration": 0.21428550000000257,
                    "durationTicks": 60,
                    "midi": 57,
                    "name": "A3",
                    "ticks": 19080,
                    "time": 68.14278900000001,
                    "velocity": 1
                },
                {
                    "duration": 0.21428550000000257,
                    "durationTicks": 60,
                    "midi": 38,
                    "name": "D2",
                    "ticks": 19080,
                    "time": 68.14278900000001,
                    "velocity": 1
                },
                {
                    "duration": 0.21428549999998836,
                    "durationTicks": 60,
                    "midi": 42,
                    "name": "F#2",
                    "ticks": 19140,
                    "time": 68.35707450000001,
                    "velocity": 1
                },
                {
                    "duration": 0.21428550000000257,
                    "durationTicks": 60,
                    "midi": 42,
                    "name": "F#2",
                    "ticks": 19200,
                    "time": 68.57136,
                    "velocity": 1
                },
                {
                    "duration": 0.21428550000000257,
                    "durationTicks": 60,
                    "midi": 36,
                    "name": "C2",
                    "ticks": 19200,
                    "time": 68.57136,
                    "velocity": 1
                },
                {
                    "duration": 0.21428550000000257,
                    "durationTicks": 60,
                    "midi": 42,
                    "name": "F#2",
                    "ticks": 19260,
                    "time": 68.7856455,
                    "velocity": 1
                },
                {
                    "duration": 0.07142849999999612,
                    "durationTicks": 20,
                    "midi": 36,
                    "name": "C2",
                    "ticks": 19260,
                    "time": 68.7856455,
                    "velocity": 1
                },
                {
                    "duration": 0.07142850000001033,
                    "durationTicks": 20,
                    "midi": 36,
                    "name": "C2",
                    "ticks": 19280,
                    "time": 68.857074,
                    "velocity": 1
                },
                {
                    "duration": 0.07142849999999612,
                    "durationTicks": 20,
                    "midi": 36,
                    "name": "C2",
                    "ticks": 19300,
                    "time": 68.92850250000001,
                    "velocity": 1
                },
                {
                    "duration": 0.21428550000000257,
                    "durationTicks": 60,
                    "midi": 38,
                    "name": "D2",
                    "ticks": 19320,
                    "time": 68.999931,
                    "velocity": 1
                },
                {
                    "duration": 0.21428550000000257,
                    "durationTicks": 60,
                    "midi": 57,
                    "name": "A3",
                    "ticks": 19320,
                    "time": 68.999931,
                    "velocity": 1
                },
                {
                    "duration": 0.10714274999999418,
                    "durationTicks": 30,
                    "midi": 38,
                    "name": "D2",
                    "ticks": 19380,
                    "time": 69.2142165,
                    "velocity": 1
                },
                {
                    "duration": 0.10714275000000839,
                    "durationTicks": 30,
                    "midi": 38,
                    "name": "D2",
                    "ticks": 19410,
                    "time": 69.32135925,
                    "velocity": 1
                },
                {
                    "duration": 0.42857099999999093,
                    "durationTicks": 120,
                    "midi": 36,
                    "name": "C2",
                    "ticks": 19440,
                    "time": 69.42850200000001,
                    "velocity": 1
                },
                {
                    "duration": 0.21428550000000257,
                    "durationTicks": 60,
                    "midi": 57,
                    "name": "A3",
                    "ticks": 19440,
                    "time": 69.42850200000001,
                    "velocity": 1
                },
                {
                    "duration": 0.10714274999999418,
                    "durationTicks": 30,
                    "midi": 38,
                    "name": "D2",
                    "ticks": 19500,
                    "time": 69.64278750000001,
                    "velocity": 1
                },
                {
                    "duration": 0.10714274999999418,
                    "durationTicks": 30,
                    "midi": 38,
                    "name": "D2",
                    "ticks": 19530,
                    "time": 69.74993025,
                    "velocity": 1
                },
                {
                    "duration": 0.21428550000000257,
                    "durationTicks": 60,
                    "midi": 57,
                    "name": "A3",
                    "ticks": 19560,
                    "time": 69.857073,
                    "velocity": 1
                },
                {
                    "duration": 0.21428550000000257,
                    "durationTicks": 60,
                    "midi": 38,
                    "name": "D2",
                    "ticks": 19560,
                    "time": 69.857073,
                    "velocity": 1
                },
                {
                    "duration": 0.21428550000000257,
                    "durationTicks": 60,
                    "midi": 57,
                    "name": "A3",
                    "ticks": 19620,
                    "time": 70.0713585,
                    "velocity": 1
                },
                {
                    "duration": 0.21428550000000257,
                    "durationTicks": 60,
                    "midi": 38,
                    "name": "D2",
                    "ticks": 19620,
                    "time": 70.0713585,
                    "velocity": 1
                },
                {
                    "duration": 0.42857100000000514,
                    "durationTicks": 120,
                    "midi": 36,
                    "name": "C2",
                    "ticks": 19680,
                    "time": 70.285644,
                    "velocity": 1
                },
                {
                    "duration": 0.21428550000000257,
                    "durationTicks": 60,
                    "midi": 57,
                    "name": "A3",
                    "ticks": 19680,
                    "time": 70.285644,
                    "velocity": 1
                },
                {
                    "duration": 0.21428550000000257,
                    "durationTicks": 60,
                    "midi": 42,
                    "name": "F#2",
                    "ticks": 19740,
                    "time": 70.49992950000001,
                    "velocity": 1
                },
                {
                    "duration": 0.21428550000000257,
                    "durationTicks": 60,
                    "midi": 38,
                    "name": "D2",
                    "ticks": 19800,
                    "time": 70.71421500000001,
                    "velocity": 1
                },
                {
                    "duration": 0.21428550000000257,
                    "durationTicks": 60,
                    "midi": 42,
                    "name": "F#2",
                    "ticks": 19800,
                    "time": 70.71421500000001,
                    "velocity": 1
                },
                {
                    "duration": 0.21428549999998836,
                    "durationTicks": 60,
                    "midi": 42,
                    "name": "F#2",
                    "ticks": 19860,
                    "time": 70.92850050000001,
                    "velocity": 1
                },
                {
                    "duration": 0.42857100000000514,
                    "durationTicks": 120,
                    "midi": 36,
                    "name": "C2",
                    "ticks": 19920,
                    "time": 71.142786,
                    "velocity": 1
                },
                {
                    "duration": 0.21428550000000257,
                    "durationTicks": 60,
                    "midi": 42,
                    "name": "F#2",
                    "ticks": 19920,
                    "time": 71.142786,
                    "velocity": 1
                },
                {
                    "duration": 0.21428550000000257,
                    "durationTicks": 60,
                    "midi": 42,
                    "name": "F#2",
                    "ticks": 19980,
                    "time": 71.3570715,
                    "velocity": 1
                },
                {
                    "duration": 0.21428550000000257,
                    "durationTicks": 60,
                    "midi": 38,
                    "name": "D2",
                    "ticks": 20040,
                    "time": 71.571357,
                    "velocity": 1
                },
                {
                    "duration": 0.21428550000000257,
                    "durationTicks": 60,
                    "midi": 42,
                    "name": "F#2",
                    "ticks": 20040,
                    "time": 71.571357,
                    "velocity": 1
                },
                {
                    "duration": 0.21428550000000257,
                    "durationTicks": 60,
                    "midi": 42,
                    "name": "F#2",
                    "ticks": 20100,
                    "time": 71.78564250000001,
                    "velocity": 1
                },
                {
                    "duration": 0.42857099999999093,
                    "durationTicks": 120,
                    "midi": 36,
                    "name": "C2",
                    "ticks": 20160,
                    "time": 71.99992800000001,
                    "velocity": 1
                },
                {
                    "duration": 0.21428549999998836,
                    "durationTicks": 60,
                    "midi": 42,
                    "name": "F#2",
                    "ticks": 20160,
                    "time": 71.99992800000001,
                    "velocity": 1
                },
                {
                    "duration": 0.21428550000000257,
                    "durationTicks": 60,
                    "midi": 42,
                    "name": "F#2",
                    "ticks": 20220,
                    "time": 72.2142135,
                    "velocity": 1
                },
                {
                    "duration": 0.21428550000000257,
                    "durationTicks": 60,
                    "midi": 42,
                    "name": "F#2",
                    "ticks": 20280,
                    "time": 72.428499,
                    "velocity": 1
                },
                {
                    "duration": 0.21428550000000257,
                    "durationTicks": 60,
                    "midi": 38,
                    "name": "D2",
                    "ticks": 20340,
                    "time": 72.6427845,
                    "velocity": 1
                },
                {
                    "duration": 0.21428550000000257,
                    "durationTicks": 60,
                    "midi": 42,
                    "name": "F#2",
                    "ticks": 20340,
                    "time": 72.6427845,
                    "velocity": 1
                },
                {
                    "duration": 0.21428550000000257,
                    "durationTicks": 60,
                    "midi": 36,
                    "name": "C2",
                    "ticks": 20400,
                    "time": 72.85707000000001,
                    "velocity": 1
                },
                {
                    "duration": 0.21428550000000257,
                    "durationTicks": 60,
                    "midi": 42,
                    "name": "F#2",
                    "ticks": 20400,
                    "time": 72.85707000000001,
                    "velocity": 1
                },
                {
                    "duration": 0.07142849999999612,
                    "durationTicks": 20,
                    "midi": 36,
                    "name": "C2",
                    "ticks": 20460,
                    "time": 73.07135550000001,
                    "velocity": 1
                },
                {
                    "duration": 0.21428550000000257,
                    "durationTicks": 60,
                    "midi": 42,
                    "name": "F#2",
                    "ticks": 20460,
                    "time": 73.07135550000001,
                    "velocity": 1
                },
                {
                    "duration": 0.07142850000001033,
                    "durationTicks": 20,
                    "midi": 36,
                    "name": "C2",
                    "ticks": 20480,
                    "time": 73.142784,
                    "velocity": 1
                },
                {
                    "duration": 0.07142849999999612,
                    "durationTicks": 20,
                    "midi": 36,
                    "name": "C2",
                    "ticks": 20500,
                    "time": 73.21421250000002,
                    "velocity": 1
                },
                {
                    "duration": 0.21428549999998836,
                    "durationTicks": 60,
                    "midi": 38,
                    "name": "D2",
                    "ticks": 20520,
                    "time": 73.28564100000001,
                    "velocity": 1
                },
                {
                    "duration": 0.21428549999998836,
                    "durationTicks": 60,
                    "midi": 42,
                    "name": "F#2",
                    "ticks": 20520,
                    "time": 73.28564100000001,
                    "velocity": 1
                },
                {
                    "duration": 0.21428550000000257,
                    "durationTicks": 60,
                    "midi": 36,
                    "name": "C2",
                    "ticks": 20580,
                    "time": 73.4999265,
                    "velocity": 1
                },
                {
                    "duration": 0.21428550000000257,
                    "durationTicks": 60,
                    "midi": 42,
                    "name": "F#2",
                    "ticks": 20580,
                    "time": 73.4999265,
                    "velocity": 1
                },
                {
                    "duration": 0.21428550000000257,
                    "durationTicks": 60,
                    "midi": 42,
                    "name": "F#2",
                    "ticks": 20640,
                    "time": 73.714212,
                    "velocity": 1
                },
                {
                    "duration": 0.42857100000000514,
                    "durationTicks": 120,
                    "midi": 36,
                    "name": "C2",
                    "ticks": 20640,
                    "time": 73.714212,
                    "velocity": 1
                },
                {
                    "duration": 0.21428550000000257,
                    "durationTicks": 60,
                    "midi": 42,
                    "name": "F#2",
                    "ticks": 20700,
                    "time": 73.9284975,
                    "velocity": 1
                },
                {
                    "duration": 0.21428550000000257,
                    "durationTicks": 60,
                    "midi": 42,
                    "name": "F#2",
                    "ticks": 20760,
                    "time": 74.14278300000001,
                    "velocity": 1
                },
                {
                    "duration": 0.21428549999998836,
                    "durationTicks": 60,
                    "midi": 38,
                    "name": "D2",
                    "ticks": 20820,
                    "time": 74.35706850000001,
                    "velocity": 1
                },
                {
                    "duration": 0.21428549999998836,
                    "durationTicks": 60,
                    "midi": 42,
                    "name": "F#2",
                    "ticks": 20820,
                    "time": 74.35706850000001,
                    "velocity": 1
                },
                {
                    "duration": 0.21428550000000257,
                    "durationTicks": 60,
                    "midi": 42,
                    "name": "F#2",
                    "ticks": 20880,
                    "time": 74.571354,
                    "velocity": 1
                },
                {
                    "duration": 0.42857100000000514,
                    "durationTicks": 120,
                    "midi": 36,
                    "name": "C2",
                    "ticks": 20880,
                    "time": 74.571354,
                    "velocity": 1
                },
                {
                    "duration": 0.21428550000000257,
                    "durationTicks": 60,
                    "midi": 42,
                    "name": "F#2",
                    "ticks": 20940,
                    "time": 74.7856395,
                    "velocity": 1
                },
                {
                    "duration": 0.21428550000000257,
                    "durationTicks": 60,
                    "midi": 38,
                    "name": "D2",
                    "ticks": 21000,
                    "time": 74.999925,
                    "velocity": 1
                },
                {
                    "duration": 0.21428550000000257,
                    "durationTicks": 60,
                    "midi": 42,
                    "name": "F#2",
                    "ticks": 21000,
                    "time": 74.999925,
                    "velocity": 1
                },
                {
                    "duration": 0.21428550000000257,
                    "durationTicks": 60,
                    "midi": 42,
                    "name": "F#2",
                    "ticks": 21060,
                    "time": 75.21421050000001,
                    "velocity": 1
                },
                {
                    "duration": 0.42857099999999093,
                    "durationTicks": 120,
                    "midi": 36,
                    "name": "C2",
                    "ticks": 21120,
                    "time": 75.42849600000001,
                    "velocity": 1
                },
                {
                    "duration": 0.21428550000000257,
                    "durationTicks": 60,
                    "midi": 42,
                    "name": "F#2",
                    "ticks": 21120,
                    "time": 75.42849600000001,
                    "velocity": 1
                },
                {
                    "duration": 0.21428549999998836,
                    "durationTicks": 60,
                    "midi": 42,
                    "name": "F#2",
                    "ticks": 21180,
                    "time": 75.64278150000001,
                    "velocity": 1
                },
                {
                    "duration": 0.21428550000000257,
                    "durationTicks": 60,
                    "midi": 42,
                    "name": "F#2",
                    "ticks": 21240,
                    "time": 75.857067,
                    "velocity": 1
                },
                {
                    "duration": 0.21428550000000257,
                    "durationTicks": 60,
                    "midi": 38,
                    "name": "D2",
                    "ticks": 21300,
                    "time": 76.0713525,
                    "velocity": 1
                },
                {
                    "duration": 0.21428550000000257,
                    "durationTicks": 60,
                    "midi": 42,
                    "name": "F#2",
                    "ticks": 21300,
                    "time": 76.0713525,
                    "velocity": 1
                },
                {
                    "duration": 0.21428550000000257,
                    "durationTicks": 60,
                    "midi": 36,
                    "name": "C2",
                    "ticks": 21360,
                    "time": 76.285638,
                    "velocity": 1
                },
                {
                    "duration": 0.21428550000000257,
                    "durationTicks": 60,
                    "midi": 42,
                    "name": "F#2",
                    "ticks": 21360,
                    "time": 76.285638,
                    "velocity": 1
                },
                {
                    "duration": 0.07142849999999612,
                    "durationTicks": 20,
                    "midi": 36,
                    "name": "C2",
                    "ticks": 21420,
                    "time": 76.49992350000001,
                    "velocity": 1
                },
                {
                    "duration": 0.21428550000000257,
                    "durationTicks": 60,
                    "midi": 42,
                    "name": "F#2",
                    "ticks": 21420,
                    "time": 76.49992350000001,
                    "velocity": 1
                },
                {
                    "duration": 0.07142850000001033,
                    "durationTicks": 20,
                    "midi": 36,
                    "name": "C2",
                    "ticks": 21440,
                    "time": 76.571352,
                    "velocity": 1
                },
                {
                    "duration": 0.07142849999999612,
                    "durationTicks": 20,
                    "midi": 36,
                    "name": "C2",
                    "ticks": 21460,
                    "time": 76.64278050000001,
                    "velocity": 1
                },
                {
                    "duration": 0.21428549999998836,
                    "durationTicks": 60,
                    "midi": 38,
                    "name": "D2",
                    "ticks": 21480,
                    "time": 76.71420900000001,
                    "velocity": 1
                },
                {
                    "duration": 0.21428549999998836,
                    "durationTicks": 60,
                    "midi": 42,
                    "name": "F#2",
                    "ticks": 21480,
                    "time": 76.71420900000001,
                    "velocity": 1
                },
                {
                    "duration": 0.21428550000000257,
                    "durationTicks": 60,
                    "midi": 36,
                    "name": "C2",
                    "ticks": 21540,
                    "time": 76.9284945,
                    "velocity": 1
                },
                {
                    "duration": 0.21428550000000257,
                    "durationTicks": 60,
                    "midi": 42,
                    "name": "F#2",
                    "ticks": 21540,
                    "time": 76.9284945,
                    "velocity": 1
                },
                {
                    "duration": 0.21428550000000257,
                    "durationTicks": 60,
                    "midi": 42,
                    "name": "F#2",
                    "ticks": 21600,
                    "time": 77.14278,
                    "velocity": 1
                },
                {
                    "duration": 0.42857100000000514,
                    "durationTicks": 120,
                    "midi": 36,
                    "name": "C2",
                    "ticks": 21600,
                    "time": 77.14278,
                    "velocity": 1
                },
                {
                    "duration": 0.21428550000000257,
                    "durationTicks": 60,
                    "midi": 42,
                    "name": "F#2",
                    "ticks": 21660,
                    "time": 77.3570655,
                    "velocity": 1
                },
                {
                    "duration": 0.21428550000000257,
                    "durationTicks": 60,
                    "midi": 57,
                    "name": "A3",
                    "ticks": 21720,
                    "time": 77.571351,
                    "velocity": 1
                },
                {
                    "duration": 0.21428550000000257,
                    "durationTicks": 60,
                    "midi": 38,
                    "name": "D2",
                    "ticks": 21720,
                    "time": 77.571351,
                    "velocity": 1
                },
                {
                    "duration": 0.21428550000000257,
                    "durationTicks": 60,
                    "midi": 42,
                    "name": "F#2",
                    "ticks": 21780,
                    "time": 77.78563650000001,
                    "velocity": 1
                },
                {
                    "duration": 0.21428549999998836,
                    "durationTicks": 60,
                    "midi": 42,
                    "name": "F#2",
                    "ticks": 21840,
                    "time": 77.99992200000001,
                    "velocity": 1
                },
                {
                    "duration": 0.42857099999999093,
                    "durationTicks": 120,
                    "midi": 36,
                    "name": "C2",
                    "ticks": 21840,
                    "time": 77.99992200000001,
                    "velocity": 1
                },
                {
                    "duration": 0.21428550000000257,
                    "durationTicks": 60,
                    "midi": 42,
                    "name": "F#2",
                    "ticks": 21900,
                    "time": 78.2142075,
                    "velocity": 1
                },
                {
                    "duration": 0.21428550000000257,
                    "durationTicks": 60,
                    "midi": 38,
                    "name": "D2",
                    "ticks": 21960,
                    "time": 78.428493,
                    "velocity": 1
                },
                {
                    "duration": 0.21428550000000257,
                    "durationTicks": 60,
                    "midi": 42,
                    "name": "F#2",
                    "ticks": 21960,
                    "time": 78.428493,
                    "velocity": 1
                },
                {
                    "duration": 0.21428550000000257,
                    "durationTicks": 60,
                    "midi": 42,
                    "name": "F#2",
                    "ticks": 22020,
                    "time": 78.6427785,
                    "velocity": 1
                },
                {
                    "duration": 0.42857100000000514,
                    "durationTicks": 120,
                    "midi": 36,
                    "name": "C2",
                    "ticks": 22080,
                    "time": 78.85706400000001,
                    "velocity": 1
                },
                {
                    "duration": 0.21428550000000257,
                    "durationTicks": 60,
                    "midi": 42,
                    "name": "F#2",
                    "ticks": 22080,
                    "time": 78.85706400000001,
                    "velocity": 1
                },
                {
                    "duration": 0.21428550000000257,
                    "durationTicks": 60,
                    "midi": 42,
                    "name": "F#2",
                    "ticks": 22140,
                    "time": 79.07134950000001,
                    "velocity": 1
                },
                {
                    "duration": 0.21428549999998836,
                    "durationTicks": 60,
                    "midi": 42,
                    "name": "F#2",
                    "ticks": 22200,
                    "time": 79.28563500000001,
                    "velocity": 1
                },
                {
                    "duration": 0.21428550000000257,
                    "durationTicks": 60,
                    "midi": 38,
                    "name": "D2",
                    "ticks": 22260,
                    "time": 79.4999205,
                    "velocity": 1
                },
                {
                    "duration": 0.21428550000000257,
                    "durationTicks": 60,
                    "midi": 42,
                    "name": "F#2",
                    "ticks": 22260,
                    "time": 79.4999205,
                    "velocity": 1
                },
                {
                    "duration": 0.21428550000000257,
                    "durationTicks": 60,
                    "midi": 36,
                    "name": "C2",
                    "ticks": 22320,
                    "time": 79.714206,
                    "velocity": 1
                },
                {
                    "duration": 0.21428550000000257,
                    "durationTicks": 60,
                    "midi": 42,
                    "name": "F#2",
                    "ticks": 22320,
                    "time": 79.714206,
                    "velocity": 1
                },
                {
                    "duration": 0.07142849999999612,
                    "durationTicks": 20,
                    "midi": 36,
                    "name": "C2",
                    "ticks": 22380,
                    "time": 79.9284915,
                    "velocity": 1
                },
                {
                    "duration": 0.21428550000000257,
                    "durationTicks": 60,
                    "midi": 42,
                    "name": "F#2",
                    "ticks": 22380,
                    "time": 79.9284915,
                    "velocity": 1
                },
                {
                    "duration": 0.07142850000001033,
                    "durationTicks": 20,
                    "midi": 36,
                    "name": "C2",
                    "ticks": 22400,
                    "time": 79.99992,
                    "velocity": 1
                },
                {
                    "duration": 0.07142849999999612,
                    "durationTicks": 20,
                    "midi": 36,
                    "name": "C2",
                    "ticks": 22420,
                    "time": 80.07134850000001,
                    "velocity": 1
                },
                {
                    "duration": 0.21428550000000257,
                    "durationTicks": 60,
                    "midi": 38,
                    "name": "D2",
                    "ticks": 22440,
                    "time": 80.14277700000001,
                    "velocity": 1
                },
                {
                    "duration": 0.21428550000000257,
                    "durationTicks": 60,
                    "midi": 42,
                    "name": "F#2",
                    "ticks": 22440,
                    "time": 80.14277700000001,
                    "velocity": 1
                },
                {
                    "duration": 0.21428549999998836,
                    "durationTicks": 60,
                    "midi": 36,
                    "name": "C2",
                    "ticks": 22500,
                    "time": 80.35706250000001,
                    "velocity": 1
                },
                {
                    "duration": 0.21428549999998836,
                    "durationTicks": 60,
                    "midi": 42,
                    "name": "F#2",
                    "ticks": 22500,
                    "time": 80.35706250000001,
                    "velocity": 1
                },
                {
                    "duration": 0.42857100000000514,
                    "durationTicks": 120,
                    "midi": 36,
                    "name": "C2",
                    "ticks": 22560,
                    "time": 80.571348,
                    "velocity": 1
                },
                {
                    "duration": 0.21428550000000257,
                    "durationTicks": 60,
                    "midi": 42,
                    "name": "F#2",
                    "ticks": 22560,
                    "time": 80.571348,
                    "velocity": 1
                },
                {
                    "duration": 0.21428550000000257,
                    "durationTicks": 60,
                    "midi": 42,
                    "name": "F#2",
                    "ticks": 22620,
                    "time": 80.7856335,
                    "velocity": 1
                },
                {
                    "duration": 0.21428550000000257,
                    "durationTicks": 60,
                    "midi": 42,
                    "name": "F#2",
                    "ticks": 22680,
                    "time": 80.999919,
                    "velocity": 1
                },
                {
                    "duration": 0.21428550000000257,
                    "durationTicks": 60,
                    "midi": 57,
                    "name": "A3",
                    "ticks": 22740,
                    "time": 81.21420450000001,
                    "velocity": 1
                },
                {
                    "duration": 0.21428550000000257,
                    "durationTicks": 60,
                    "midi": 38,
                    "name": "D2",
                    "ticks": 22740,
                    "time": 81.21420450000001,
                    "velocity": 1
                },
                {
                    "duration": 0.21428550000000257,
                    "durationTicks": 60,
                    "midi": 36,
                    "name": "C2",
                    "ticks": 22800,
                    "time": 81.42849000000001,
                    "velocity": 1
                },
                {
                    "duration": 0.21428550000000257,
                    "durationTicks": 60,
                    "midi": 42,
                    "name": "F#2",
                    "ticks": 22800,
                    "time": 81.42849000000001,
                    "velocity": 1
                },
                {
                    "duration": 0.07142849999999612,
                    "durationTicks": 20,
                    "midi": 36,
                    "name": "C2",
                    "ticks": 22860,
                    "time": 81.64277550000001,
                    "velocity": 1
                },
                {
                    "duration": 0.21428549999998836,
                    "durationTicks": 60,
                    "midi": 42,
                    "name": "F#2",
                    "ticks": 22860,
                    "time": 81.64277550000001,
                    "velocity": 1
                },
                {
                    "duration": 0.07142849999999612,
                    "durationTicks": 20,
                    "midi": 36,
                    "name": "C2",
                    "ticks": 22880,
                    "time": 81.71420400000001,
                    "velocity": 1
                },
                {
                    "duration": 0.07142849999999612,
                    "durationTicks": 20,
                    "midi": 36,
                    "name": "C2",
                    "ticks": 22900,
                    "time": 81.7856325,
                    "velocity": 1
                },
                {
                    "duration": 0.21428550000000257,
                    "durationTicks": 60,
                    "midi": 57,
                    "name": "A3",
                    "ticks": 22920,
                    "time": 81.857061,
                    "velocity": 1
                },
                {
                    "duration": 0.21428550000000257,
                    "durationTicks": 60,
                    "midi": 38,
                    "name": "D2",
                    "ticks": 22920,
                    "time": 81.857061,
                    "velocity": 1
                },
                {
                    "duration": 0.21428550000000257,
                    "durationTicks": 60,
                    "midi": 42,
                    "name": "F#2",
                    "ticks": 22980,
                    "time": 82.0713465,
                    "velocity": 1
                },
                {
                    "duration": 0.21428550000000257,
                    "durationTicks": 60,
                    "midi": 42,
                    "name": "F#2",
                    "ticks": 23040,
                    "time": 82.285632,
                    "velocity": 1
                },
                {
                    "duration": 0.21428550000000257,
                    "durationTicks": 60,
                    "midi": 36,
                    "name": "C2",
                    "ticks": 23040,
                    "time": 82.285632,
                    "velocity": 1
                },
                {
                    "duration": 0.21428550000000257,
                    "durationTicks": 60,
                    "midi": 42,
                    "name": "F#2",
                    "ticks": 23100,
                    "time": 82.49991750000001,
                    "velocity": 1
                },
                {
                    "duration": 0.07142849999999612,
                    "durationTicks": 20,
                    "midi": 36,
                    "name": "C2",
                    "ticks": 23100,
                    "time": 82.49991750000001,
                    "velocity": 1
                },
                {
                    "duration": 0.07142850000001033,
                    "durationTicks": 20,
                    "midi": 36,
                    "name": "C2",
                    "ticks": 23120,
                    "time": 82.571346,
                    "velocity": 1
                },
                {
                    "duration": 0.07142849999999612,
                    "durationTicks": 20,
                    "midi": 36,
                    "name": "C2",
                    "ticks": 23140,
                    "time": 82.64277450000002,
                    "velocity": 1
                },
                {
                    "duration": 0.21428549999998836,
                    "durationTicks": 60,
                    "midi": 38,
                    "name": "D2",
                    "ticks": 23160,
                    "time": 82.71420300000001,
                    "velocity": 1
                },
                {
                    "duration": 0.21428549999998836,
                    "durationTicks": 60,
                    "midi": 57,
                    "name": "A3",
                    "ticks": 23160,
                    "time": 82.71420300000001,
                    "velocity": 1
                },
                {
                    "duration": 0.10714275000000839,
                    "durationTicks": 30,
                    "midi": 38,
                    "name": "D2",
                    "ticks": 23220,
                    "time": 82.9284885,
                    "velocity": 1
                },
                {
                    "duration": 0.10714274999999418,
                    "durationTicks": 30,
                    "midi": 38,
                    "name": "D2",
                    "ticks": 23250,
                    "time": 83.03563125000001,
                    "velocity": 1
                },
                {
                    "duration": 0.21428550000000257,
                    "durationTicks": 60,
                    "midi": 45,
                    "name": "A2",
                    "ticks": 23280,
                    "time": 83.142774,
                    "velocity": 1
                },
                {
                    "duration": 0.10714275000000839,
                    "durationTicks": 30,
                    "midi": 45,
                    "name": "A2",
                    "ticks": 23340,
                    "time": 83.3570595,
                    "velocity": 1
                },
                {
                    "duration": 0.10714274999999418,
                    "durationTicks": 30,
                    "midi": 45,
                    "name": "A2",
                    "ticks": 23370,
                    "time": 83.46420225000001,
                    "velocity": 1
                },
                {
                    "duration": 0.21428550000000257,
                    "durationTicks": 60,
                    "midi": 47,
                    "name": "B2",
                    "ticks": 23400,
                    "time": 83.57134500000001,
                    "velocity": 1
                },
                {
                    "duration": 0.10714274999999418,
                    "durationTicks": 30,
                    "midi": 47,
                    "name": "B2",
                    "ticks": 23460,
                    "time": 83.78563050000001,
                    "velocity": 1
                },
                {
                    "duration": 0.10714275000000839,
                    "durationTicks": 30,
                    "midi": 47,
                    "name": "B2",
                    "ticks": 23490,
                    "time": 83.89277325,
                    "velocity": 1
                },
                {
                    "duration": 0.21428549999998836,
                    "durationTicks": 60,
                    "midi": 57,
                    "name": "A3",
                    "ticks": 23520,
                    "time": 83.99991600000001,
                    "velocity": 1
                },
                {
                    "duration": 0.42857099999999093,
                    "durationTicks": 120,
                    "midi": 36,
                    "name": "C2",
                    "ticks": 23520,
                    "time": 83.99991600000001,
                    "velocity": 1
                },
                {
                    "duration": 0.21428550000000257,
                    "durationTicks": 60,
                    "midi": 59,
                    "name": "B3",
                    "ticks": 23580,
                    "time": 84.2142015,
                    "velocity": 1
                },
                {
                    "duration": 0.21428550000000257,
                    "durationTicks": 60,
                    "midi": 38,
                    "name": "D2",
                    "ticks": 23640,
                    "time": 84.428487,
                    "velocity": 1
                },
                {
                    "duration": 0.21428550000000257,
                    "durationTicks": 60,
                    "midi": 59,
                    "name": "B3",
                    "ticks": 23640,
                    "time": 84.428487,
                    "velocity": 1
                },
                {
                    "duration": 0.21428550000000257,
                    "durationTicks": 60,
                    "midi": 59,
                    "name": "B3",
                    "ticks": 23700,
                    "time": 84.6427725,
                    "velocity": 1
                },
                {
                    "duration": 0.21428550000000257,
                    "durationTicks": 60,
                    "midi": 59,
                    "name": "B3",
                    "ticks": 23760,
                    "time": 84.85705800000001,
                    "velocity": 1
                },
                {
                    "duration": 0.42857099999999093,
                    "durationTicks": 120,
                    "midi": 36,
                    "name": "C2",
                    "ticks": 23760,
                    "time": 84.85705800000001,
                    "velocity": 1
                },
                {
                    "duration": 0.10714274999999418,
                    "durationTicks": 30,
                    "midi": 45,
                    "name": "A2",
                    "ticks": 23820,
                    "time": 85.07134350000001,
                    "velocity": 1
                },
                {
                    "duration": 0.10714274999999418,
                    "durationTicks": 30,
                    "midi": 45,
                    "name": "A2",
                    "ticks": 23850,
                    "time": 85.17848625,
                    "velocity": 1
                },
                {
                    "duration": 0.21428550000000257,
                    "durationTicks": 60,
                    "midi": 57,
                    "name": "A3",
                    "ticks": 23880,
                    "time": 85.285629,
                    "velocity": 1
                },
                {
                    "duration": 0.21428550000000257,
                    "durationTicks": 60,
                    "midi": 36,
                    "name": "C2",
                    "ticks": 23880,
                    "time": 85.285629,
                    "velocity": 1
                },
                {
                    "duration": 0.21428550000000257,
                    "durationTicks": 60,
                    "midi": 57,
                    "name": "A3",
                    "ticks": 23940,
                    "time": 85.4999145,
                    "velocity": 1
                },
                {
                    "duration": 0.21428550000000257,
                    "durationTicks": 60,
                    "midi": 36,
                    "name": "C2",
                    "ticks": 23940,
                    "time": 85.4999145,
                    "velocity": 1
                },
                {
                    "duration": 0.21428550000000257,
                    "durationTicks": 60,
                    "midi": 57,
                    "name": "A3",
                    "ticks": 24000,
                    "time": 85.7142,
                    "velocity": 1
                },
                {
                    "duration": 0.42857100000000514,
                    "durationTicks": 120,
                    "midi": 36,
                    "name": "C2",
                    "ticks": 24000,
                    "time": 85.7142,
                    "velocity": 1
                },
                {
                    "duration": 0.21428550000000257,
                    "durationTicks": 60,
                    "midi": 59,
                    "name": "B3",
                    "ticks": 24060,
                    "time": 85.92848550000001,
                    "velocity": 1
                },
                {
                    "duration": 0.21428550000000257,
                    "durationTicks": 60,
                    "midi": 38,
                    "name": "D2",
                    "ticks": 24120,
                    "time": 86.14277100000001,
                    "velocity": 1
                },
                {
                    "duration": 0.21428550000000257,
                    "durationTicks": 60,
                    "midi": 59,
                    "name": "B3",
                    "ticks": 24120,
                    "time": 86.14277100000001,
                    "velocity": 1
                },
                {
                    "duration": 0.21428549999998836,
                    "durationTicks": 60,
                    "midi": 59,
                    "name": "B3",
                    "ticks": 24180,
                    "time": 86.35705650000001,
                    "velocity": 1
                },
                {
                    "duration": 0.21428550000000257,
                    "durationTicks": 60,
                    "midi": 59,
                    "name": "B3",
                    "ticks": 24240,
                    "time": 86.571342,
                    "velocity": 1
                },
                {
                    "duration": 0.42857100000000514,
                    "durationTicks": 120,
                    "midi": 36,
                    "name": "C2",
                    "ticks": 24240,
                    "time": 86.571342,
                    "velocity": 1
                },
                {
                    "duration": 0.10714275000000839,
                    "durationTicks": 30,
                    "midi": 45,
                    "name": "A2",
                    "ticks": 24300,
                    "time": 86.7856275,
                    "velocity": 1
                },
                {
                    "duration": 0.10714274999999418,
                    "durationTicks": 30,
                    "midi": 45,
                    "name": "A2",
                    "ticks": 24330,
                    "time": 86.89277025000001,
                    "velocity": 1
                },
                {
                    "duration": 0.21428550000000257,
                    "durationTicks": 60,
                    "midi": 57,
                    "name": "A3",
                    "ticks": 24360,
                    "time": 86.999913,
                    "velocity": 1
                },
                {
                    "duration": 0.21428550000000257,
                    "durationTicks": 60,
                    "midi": 36,
                    "name": "C2",
                    "ticks": 24360,
                    "time": 86.999913,
                    "velocity": 1
                },
                {
                    "duration": 0.21428550000000257,
                    "durationTicks": 60,
                    "midi": 57,
                    "name": "A3",
                    "ticks": 24420,
                    "time": 87.21419850000001,
                    "velocity": 1
                },
                {
                    "duration": 0.21428550000000257,
                    "durationTicks": 60,
                    "midi": 36,
                    "name": "C2",
                    "ticks": 24420,
                    "time": 87.21419850000001,
                    "velocity": 1
                },
                {
                    "duration": 0.21428550000000257,
                    "durationTicks": 60,
                    "midi": 57,
                    "name": "A3",
                    "ticks": 24480,
                    "time": 87.42848400000001,
                    "velocity": 1
                },
                {
                    "duration": 0.42857099999999093,
                    "durationTicks": 120,
                    "midi": 36,
                    "name": "C2",
                    "ticks": 24480,
                    "time": 87.42848400000001,
                    "velocity": 1
                },
                {
                    "duration": 0.21428549999998836,
                    "durationTicks": 60,
                    "midi": 59,
                    "name": "B3",
                    "ticks": 24540,
                    "time": 87.64276950000001,
                    "velocity": 1
                },
                {
                    "duration": 0.21428550000000257,
                    "durationTicks": 60,
                    "midi": 38,
                    "name": "D2",
                    "ticks": 24600,
                    "time": 87.857055,
                    "velocity": 1
                },
                {
                    "duration": 0.21428550000000257,
                    "durationTicks": 60,
                    "midi": 59,
                    "name": "B3",
                    "ticks": 24600,
                    "time": 87.857055,
                    "velocity": 1
                },
                {
                    "duration": 0.21428550000000257,
                    "durationTicks": 60,
                    "midi": 59,
                    "name": "B3",
                    "ticks": 24660,
                    "time": 88.0713405,
                    "velocity": 1
                },
                {
                    "duration": 0.21428550000000257,
                    "durationTicks": 60,
                    "midi": 59,
                    "name": "B3",
                    "ticks": 24720,
                    "time": 88.28562600000001,
                    "velocity": 1
                },
                {
                    "duration": 0.42857100000000514,
                    "durationTicks": 120,
                    "midi": 36,
                    "name": "C2",
                    "ticks": 24720,
                    "time": 88.28562600000001,
                    "velocity": 1
                },
                {
                    "duration": 0.10714274999999418,
                    "durationTicks": 30,
                    "midi": 45,
                    "name": "A2",
                    "ticks": 24780,
                    "time": 88.49991150000001,
                    "velocity": 1
                },
                {
                    "duration": 0.10714275000000839,
                    "durationTicks": 30,
                    "midi": 45,
                    "name": "A2",
                    "ticks": 24810,
                    "time": 88.60705425,
                    "velocity": 1
                },
                {
                    "duration": 0.21428549999998836,
                    "durationTicks": 60,
                    "midi": 57,
                    "name": "A3",
                    "ticks": 24840,
                    "time": 88.71419700000001,
                    "velocity": 1
                },
                {
                    "duration": 0.21428549999998836,
                    "durationTicks": 60,
                    "midi": 36,
                    "name": "C2",
                    "ticks": 24840,
                    "time": 88.71419700000001,
                    "velocity": 1
                },
                {
                    "duration": 0.21428550000000257,
                    "durationTicks": 60,
                    "midi": 57,
                    "name": "A3",
                    "ticks": 24900,
                    "time": 88.9284825,
                    "velocity": 1
                },
                {
                    "duration": 0.21428550000000257,
                    "durationTicks": 60,
                    "midi": 36,
                    "name": "C2",
                    "ticks": 24900,
                    "time": 88.9284825,
                    "velocity": 1
                },
                {
                    "duration": 0.21428550000000257,
                    "durationTicks": 60,
                    "midi": 57,
                    "name": "A3",
                    "ticks": 24960,
                    "time": 89.142768,
                    "velocity": 1
                },
                {
                    "duration": 0.42857100000000514,
                    "durationTicks": 120,
                    "midi": 36,
                    "name": "C2",
                    "ticks": 24960,
                    "time": 89.142768,
                    "velocity": 1
                },
                {
                    "duration": 0.21428550000000257,
                    "durationTicks": 60,
                    "midi": 59,
                    "name": "B3",
                    "ticks": 25020,
                    "time": 89.3570535,
                    "velocity": 1
                },
                {
                    "duration": 0.21428550000000257,
                    "durationTicks": 60,
                    "midi": 38,
                    "name": "D2",
                    "ticks": 25080,
                    "time": 89.57133900000001,
                    "velocity": 1
                },
                {
                    "duration": 0.21428550000000257,
                    "durationTicks": 60,
                    "midi": 59,
                    "name": "B3",
                    "ticks": 25080,
                    "time": 89.57133900000001,
                    "velocity": 1
                },
                {
                    "duration": 0.21428550000000257,
                    "durationTicks": 60,
                    "midi": 59,
                    "name": "B3",
                    "ticks": 25140,
                    "time": 89.78562450000001,
                    "velocity": 1
                },
                {
                    "duration": 0.21428549999998836,
                    "durationTicks": 60,
                    "midi": 36,
                    "name": "C2",
                    "ticks": 25200,
                    "time": 89.99991000000001,
                    "velocity": 1
                },
                {
                    "duration": 0.21428549999998836,
                    "durationTicks": 60,
                    "midi": 59,
                    "name": "B3",
                    "ticks": 25200,
                    "time": 89.99991000000001,
                    "velocity": 1
                },
                {
                    "duration": 0.21428550000000257,
                    "durationTicks": 60,
                    "midi": 59,
                    "name": "B3",
                    "ticks": 25260,
                    "time": 90.2141955,
                    "velocity": 1
                },
                {
                    "duration": 0.21428550000000257,
                    "durationTicks": 60,
                    "midi": 36,
                    "name": "C2",
                    "ticks": 25260,
                    "time": 90.2141955,
                    "velocity": 1
                },
                {
                    "duration": 0.10714275000000839,
                    "durationTicks": 30,
                    "midi": 45,
                    "name": "A2",
                    "ticks": 25320,
                    "time": 90.428481,
                    "velocity": 1
                },
                {
                    "duration": 0.10714274999999418,
                    "durationTicks": 30,
                    "midi": 45,
                    "name": "A2",
                    "ticks": 25350,
                    "time": 90.53562375000001,
                    "velocity": 1
                },
                {
                    "duration": 0.21428550000000257,
                    "durationTicks": 60,
                    "midi": 45,
                    "name": "A2",
                    "ticks": 25380,
                    "time": 90.64276650000001,
                    "velocity": 1
                },
                {
                    "duration": 0.21428550000000257,
                    "durationTicks": 60,
                    "midi": 57,
                    "name": "A3",
                    "ticks": 25440,
                    "time": 90.85705200000001,
                    "velocity": 1
                },
                {
                    "duration": 0.42857099999999093,
                    "durationTicks": 120,
                    "midi": 36,
                    "name": "C2",
                    "ticks": 25440,
                    "time": 90.85705200000001,
                    "velocity": 1
                },
                {
                    "duration": 0.21428549999998836,
                    "durationTicks": 60,
                    "midi": 59,
                    "name": "B3",
                    "ticks": 25500,
                    "time": 91.07133750000001,
                    "velocity": 1
                },
                {
                    "duration": 0.21428550000000257,
                    "durationTicks": 60,
                    "midi": 38,
                    "name": "D2",
                    "ticks": 25560,
                    "time": 91.285623,
                    "velocity": 1
                },
                {
                    "duration": 0.21428550000000257,
                    "durationTicks": 60,
                    "midi": 59,
                    "name": "B3",
                    "ticks": 25560,
                    "time": 91.285623,
                    "velocity": 1
                },
                {
                    "duration": 0.21428550000000257,
                    "durationTicks": 60,
                    "midi": 59,
                    "name": "B3",
                    "ticks": 25620,
                    "time": 91.4999085,
                    "velocity": 1
                },
                {
                    "duration": 0.21428550000000257,
                    "durationTicks": 60,
                    "midi": 59,
                    "name": "B3",
                    "ticks": 25680,
                    "time": 91.714194,
                    "velocity": 1
                },
                {
                    "duration": 0.42857100000000514,
                    "durationTicks": 120,
                    "midi": 36,
                    "name": "C2",
                    "ticks": 25680,
                    "time": 91.714194,
                    "velocity": 1
                },
                {
                    "duration": 0.10714274999999418,
                    "durationTicks": 30,
                    "midi": 45,
                    "name": "A2",
                    "ticks": 25740,
                    "time": 91.92847950000001,
                    "velocity": 1
                },
                {
                    "duration": 0.10714275000000839,
                    "durationTicks": 30,
                    "midi": 45,
                    "name": "A2",
                    "ticks": 25770,
                    "time": 92.03562225,
                    "velocity": 1
                },
                {
                    "duration": 0.21428550000000257,
                    "durationTicks": 60,
                    "midi": 57,
                    "name": "A3",
                    "ticks": 25800,
                    "time": 92.14276500000001,
                    "velocity": 1
                },
                {
                    "duration": 0.21428550000000257,
                    "durationTicks": 60,
                    "midi": 36,
                    "name": "C2",
                    "ticks": 25800,
                    "time": 92.14276500000001,
                    "velocity": 1
                },
                {
                    "duration": 0.21428549999998836,
                    "durationTicks": 60,
                    "midi": 57,
                    "name": "A3",
                    "ticks": 25860,
                    "time": 92.35705050000001,
                    "velocity": 1
                },
                {
                    "duration": 0.21428549999998836,
                    "durationTicks": 60,
                    "midi": 36,
                    "name": "C2",
                    "ticks": 25860,
                    "time": 92.35705050000001,
                    "velocity": 1
                },
                {
                    "duration": 0.21428550000000257,
                    "durationTicks": 60,
                    "midi": 57,
                    "name": "A3",
                    "ticks": 25920,
                    "time": 92.571336,
                    "velocity": 1
                },
                {
                    "duration": 0.42857100000000514,
                    "durationTicks": 120,
                    "midi": 36,
                    "name": "C2",
                    "ticks": 25920,
                    "time": 92.571336,
                    "velocity": 1
                },
                {
                    "duration": 0.21428550000000257,
                    "durationTicks": 60,
                    "midi": 59,
                    "name": "B3",
                    "ticks": 25980,
                    "time": 92.7856215,
                    "velocity": 1
                },
                {
                    "duration": 0.21428550000000257,
                    "durationTicks": 60,
                    "midi": 38,
                    "name": "D2",
                    "ticks": 26040,
                    "time": 92.99990700000001,
                    "velocity": 1
                },
                {
                    "duration": 0.21428550000000257,
                    "durationTicks": 60,
                    "midi": 59,
                    "name": "B3",
                    "ticks": 26040,
                    "time": 92.99990700000001,
                    "velocity": 1
                },
                {
                    "duration": 0.21428550000000257,
                    "durationTicks": 60,
                    "midi": 59,
                    "name": "B3",
                    "ticks": 26100,
                    "time": 93.21419250000001,
                    "velocity": 1
                },
                {
                    "duration": 0.21428549999998836,
                    "durationTicks": 60,
                    "midi": 59,
                    "name": "B3",
                    "ticks": 26160,
                    "time": 93.42847800000001,
                    "velocity": 1
                },
                {
                    "duration": 0.42857099999999093,
                    "durationTicks": 120,
                    "midi": 36,
                    "name": "C2",
                    "ticks": 26160,
                    "time": 93.42847800000001,
                    "velocity": 1
                },
                {
                    "duration": 0.10714275000000839,
                    "durationTicks": 30,
                    "midi": 45,
                    "name": "A2",
                    "ticks": 26220,
                    "time": 93.6427635,
                    "velocity": 1
                },
                {
                    "duration": 0.10714274999999418,
                    "durationTicks": 30,
                    "midi": 45,
                    "name": "A2",
                    "ticks": 26250,
                    "time": 93.74990625000001,
                    "velocity": 1
                },
                {
                    "duration": 0.21428550000000257,
                    "durationTicks": 60,
                    "midi": 57,
                    "name": "A3",
                    "ticks": 26280,
                    "time": 93.857049,
                    "velocity": 1
                },
                {
                    "duration": 0.21428550000000257,
                    "durationTicks": 60,
                    "midi": 36,
                    "name": "C2",
                    "ticks": 26280,
                    "time": 93.857049,
                    "velocity": 1
                },
                {
                    "duration": 0.21428550000000257,
                    "durationTicks": 60,
                    "midi": 57,
                    "name": "A3",
                    "ticks": 26340,
                    "time": 94.0713345,
                    "velocity": 1
                },
                {
                    "duration": 0.21428550000000257,
                    "durationTicks": 60,
                    "midi": 36,
                    "name": "C2",
                    "ticks": 26340,
                    "time": 94.0713345,
                    "velocity": 1
                },
                {
                    "duration": 0.21428550000000257,
                    "durationTicks": 60,
                    "midi": 57,
                    "name": "A3",
                    "ticks": 26400,
                    "time": 94.28562000000001,
                    "velocity": 1
                },
                {
                    "duration": 0.42857100000000514,
                    "durationTicks": 120,
                    "midi": 36,
                    "name": "C2",
                    "ticks": 26400,
                    "time": 94.28562000000001,
                    "velocity": 1
                },
                {
                    "duration": 0.21428550000000257,
                    "durationTicks": 60,
                    "midi": 59,
                    "name": "B3",
                    "ticks": 26460,
                    "time": 94.49990550000001,
                    "velocity": 1
                },
                {
                    "duration": 0.21428549999998836,
                    "durationTicks": 60,
                    "midi": 38,
                    "name": "D2",
                    "ticks": 26520,
                    "time": 94.71419100000001,
                    "velocity": 1
                },
                {
                    "duration": 0.21428549999998836,
                    "durationTicks": 60,
                    "midi": 59,
                    "name": "B3",
                    "ticks": 26520,
                    "time": 94.71419100000001,
                    "velocity": 1
                },
                {
                    "duration": 0.21428550000000257,
                    "durationTicks": 60,
                    "midi": 59,
                    "name": "B3",
                    "ticks": 26580,
                    "time": 94.9284765,
                    "velocity": 1
                },
                {
                    "duration": 0.21428550000000257,
                    "durationTicks": 60,
                    "midi": 59,
                    "name": "B3",
                    "ticks": 26640,
                    "time": 95.142762,
                    "velocity": 1
                },
                {
                    "duration": 0.42857100000000514,
                    "durationTicks": 120,
                    "midi": 36,
                    "name": "C2",
                    "ticks": 26640,
                    "time": 95.142762,
                    "velocity": 1
                },
                {
                    "duration": 0.10714274999999418,
                    "durationTicks": 30,
                    "midi": 45,
                    "name": "A2",
                    "ticks": 26700,
                    "time": 95.35704750000001,
                    "velocity": 1
                },
                {
                    "duration": 0.10714275000000839,
                    "durationTicks": 30,
                    "midi": 45,
                    "name": "A2",
                    "ticks": 26730,
                    "time": 95.46419025,
                    "velocity": 1
                },
                {
                    "duration": 0.21428550000000257,
                    "durationTicks": 60,
                    "midi": 57,
                    "name": "A3",
                    "ticks": 26760,
                    "time": 95.57133300000001,
                    "velocity": 1
                },
                {
                    "duration": 0.21428550000000257,
                    "durationTicks": 60,
                    "midi": 36,
                    "name": "C2",
                    "ticks": 26760,
                    "time": 95.57133300000001,
                    "velocity": 1
                },
                {
                    "duration": 0.21428550000000257,
                    "durationTicks": 60,
                    "midi": 57,
                    "name": "A3",
                    "ticks": 26820,
                    "time": 95.78561850000001,
                    "velocity": 1
                },
                {
                    "duration": 0.21428550000000257,
                    "durationTicks": 60,
                    "midi": 36,
                    "name": "C2",
                    "ticks": 26820,
                    "time": 95.78561850000001,
                    "velocity": 1
                },
                {
                    "duration": 0.42857099999999093,
                    "durationTicks": 120,
                    "midi": 36,
                    "name": "C2",
                    "ticks": 26880,
                    "time": 95.99990400000002,
                    "velocity": 1
                },
                {
                    "duration": 0.21428549999998836,
                    "durationTicks": 60,
                    "midi": 57,
                    "name": "A3",
                    "ticks": 26880,
                    "time": 95.99990400000002,
                    "velocity": 1
                },
                {
                    "duration": 0.10714275000000839,
                    "durationTicks": 30,
                    "midi": 38,
                    "name": "D2",
                    "ticks": 26940,
                    "time": 96.2141895,
                    "velocity": 1
                },
                {
                    "duration": 0.10714274999999418,
                    "durationTicks": 30,
                    "midi": 38,
                    "name": "D2",
                    "ticks": 26970,
                    "time": 96.32133225000001,
                    "velocity": 1
                },
                {
                    "duration": 0.21428550000000257,
                    "durationTicks": 60,
                    "midi": 38,
                    "name": "D2",
                    "ticks": 27000,
                    "time": 96.428475,
                    "velocity": 1
                },
                {
                    "duration": 0.10714274999999418,
                    "durationTicks": 30,
                    "midi": 38,
                    "name": "D2",
                    "ticks": 27060,
                    "time": 96.64276050000001,
                    "velocity": 1
                },
                {
                    "duration": 0.10714275000000839,
                    "durationTicks": 30,
                    "midi": 38,
                    "name": "D2",
                    "ticks": 27090,
                    "time": 96.74990325,
                    "velocity": 1
                },
                {
                    "duration": 0.21428550000000257,
                    "durationTicks": 60,
                    "midi": 38,
                    "name": "D2",
                    "ticks": 27120,
                    "time": 96.85704600000001,
                    "velocity": 1
                },
                {
                    "duration": 0.10714274999999418,
                    "durationTicks": 30,
                    "midi": 38,
                    "name": "D2",
                    "ticks": 27180,
                    "time": 97.07133150000001,
                    "velocity": 1
                },
                {
                    "duration": 0.10714274999999418,
                    "durationTicks": 30,
                    "midi": 38,
                    "name": "D2",
                    "ticks": 27210,
                    "time": 97.17847425000001,
                    "velocity": 1
                },
                {
                    "duration": 0.21428550000000257,
                    "durationTicks": 60,
                    "midi": 38,
                    "name": "D2",
                    "ticks": 27240,
                    "time": 97.285617,
                    "velocity": 1
                },
                {
                    "duration": 0.21428550000000257,
                    "durationTicks": 60,
                    "midi": 38,
                    "name": "D2",
                    "ticks": 27300,
                    "time": 97.4999025,
                    "velocity": 1
                },
                {
                    "duration": 0.21428550000000257,
                    "durationTicks": 60,
                    "midi": 57,
                    "name": "A3",
                    "ticks": 27360,
                    "time": 97.71418800000001,
                    "velocity": 1
                },
                {
                    "duration": 0.42857100000000514,
                    "durationTicks": 120,
                    "midi": 36,
                    "name": "C2",
                    "ticks": 27360,
                    "time": 97.71418800000001,
                    "velocity": 1
                },
                {
                    "duration": 0.10714274999999418,
                    "durationTicks": 30,
                    "midi": 38,
                    "name": "D2",
                    "ticks": 27420,
                    "time": 97.92847350000001,
                    "velocity": 1
                },
                {
                    "duration": 0.10714275000000839,
                    "durationTicks": 30,
                    "midi": 38,
                    "name": "D2",
                    "ticks": 27450,
                    "time": 98.03561625,
                    "velocity": 1
                },
                {
                    "duration": 0.21428550000000257,
                    "durationTicks": 60,
                    "midi": 38,
                    "name": "D2",
                    "ticks": 27480,
                    "time": 98.14275900000001,
                    "velocity": 1
                },
                {
                    "duration": 0.10714274999999418,
                    "durationTicks": 30,
                    "midi": 38,
                    "name": "D2",
                    "ticks": 27540,
                    "time": 98.35704450000001,
                    "velocity": 1
                },
                {
                    "duration": 0.10714274999999418,
                    "durationTicks": 30,
                    "midi": 38,
                    "name": "D2",
                    "ticks": 27570,
                    "time": 98.46418725000001,
                    "velocity": 1
                },
                {
                    "duration": 0.21428550000000257,
                    "durationTicks": 60,
                    "midi": 45,
                    "name": "A2",
                    "ticks": 27600,
                    "time": 98.57133,
                    "velocity": 1
                },
                {
                    "duration": 0.10714275000000839,
                    "durationTicks": 30,
                    "midi": 45,
                    "name": "A2",
                    "ticks": 27660,
                    "time": 98.7856155,
                    "velocity": 1
                },
                {
                    "duration": 0.10714274999999418,
                    "durationTicks": 30,
                    "midi": 45,
                    "name": "A2",
                    "ticks": 27690,
                    "time": 98.89275825000001,
                    "velocity": 1
                },
                {
                    "duration": 0.21428550000000257,
                    "durationTicks": 60,
                    "midi": 47,
                    "name": "B2",
                    "ticks": 27720,
                    "time": 98.99990100000001,
                    "velocity": 1
                },
                {
                    "duration": 0.21428550000000257,
                    "durationTicks": 60,
                    "midi": 47,
                    "name": "B2",
                    "ticks": 27780,
                    "time": 99.21418650000001,
                    "velocity": 1
                },
                {
                    "duration": 0.21428549999998836,
                    "durationTicks": 60,
                    "midi": 57,
                    "name": "A3",
                    "ticks": 27840,
                    "time": 99.42847200000001,
                    "velocity": 1
                },
                {
                    "duration": 0.42857099999999093,
                    "durationTicks": 120,
                    "midi": 36,
                    "name": "C2",
                    "ticks": 27840,
                    "time": 99.42847200000001,
                    "velocity": 1
                },
                {
                    "duration": 0.21428550000000257,
                    "durationTicks": 60,
                    "midi": 42,
                    "name": "F#2",
                    "ticks": 27900,
                    "time": 99.6427575,
                    "velocity": 1
                },
                {
                    "duration": 0.21428550000000257,
                    "durationTicks": 60,
                    "midi": 38,
                    "name": "D2",
                    "ticks": 27960,
                    "time": 99.857043,
                    "velocity": 1
                },
                {
                    "duration": 0.21428550000000257,
                    "durationTicks": 60,
                    "midi": 42,
                    "name": "F#2",
                    "ticks": 27960,
                    "time": 99.857043,
                    "velocity": 1
                },
                {
                    "duration": 0.21428550000000257,
                    "durationTicks": 60,
                    "midi": 42,
                    "name": "F#2",
                    "ticks": 28020,
                    "time": 100.0713285,
                    "velocity": 1
                },
                {
                    "duration": 0.21428550000000257,
                    "durationTicks": 60,
                    "midi": 36,
                    "name": "C2",
                    "ticks": 28080,
                    "time": 100.28561400000001,
                    "velocity": 1
                },
                {
                    "duration": 0.21428550000000257,
                    "durationTicks": 60,
                    "midi": 42,
                    "name": "F#2",
                    "ticks": 28080,
                    "time": 100.28561400000001,
                    "velocity": 1
                },
                {
                    "duration": 0.07142849999999612,
                    "durationTicks": 20,
                    "midi": 36,
                    "name": "C2",
                    "ticks": 28140,
                    "time": 100.49989950000001,
                    "velocity": 1
                },
                {
                    "duration": 0.21428550000000257,
                    "durationTicks": 60,
                    "midi": 42,
                    "name": "F#2",
                    "ticks": 28140,
                    "time": 100.49989950000001,
                    "velocity": 1
                },
                {
                    "duration": 0.07142850000001033,
                    "durationTicks": 20,
                    "midi": 36,
                    "name": "C2",
                    "ticks": 28160,
                    "time": 100.57132800000001,
                    "velocity": 1
                },
                {
                    "duration": 0.07142849999999612,
                    "durationTicks": 20,
                    "midi": 36,
                    "name": "C2",
                    "ticks": 28180,
                    "time": 100.64275650000002,
                    "velocity": 1
                },
                {
                    "duration": 0.21428549999998836,
                    "durationTicks": 60,
                    "midi": 38,
                    "name": "D2",
                    "ticks": 28200,
                    "time": 100.71418500000001,
                    "velocity": 1
                },
                {
                    "duration": 0.21428549999998836,
                    "durationTicks": 60,
                    "midi": 42,
                    "name": "F#2",
                    "ticks": 28200,
                    "time": 100.71418500000001,
                    "velocity": 1
                },
                {
                    "duration": 0.21428550000000257,
                    "durationTicks": 60,
                    "midi": 42,
                    "name": "F#2",
                    "ticks": 28260,
                    "time": 100.9284705,
                    "velocity": 1
                },
                {
                    "duration": 0.42857100000000514,
                    "durationTicks": 120,
                    "midi": 36,
                    "name": "C2",
                    "ticks": 28320,
                    "time": 101.142756,
                    "velocity": 1
                },
                {
                    "duration": 0.21428550000000257,
                    "durationTicks": 60,
                    "midi": 57,
                    "name": "A3",
                    "ticks": 28320,
                    "time": 101.142756,
                    "velocity": 1
                },
                {
                    "duration": 0.21428550000000257,
                    "durationTicks": 60,
                    "midi": 42,
                    "name": "F#2",
                    "ticks": 28380,
                    "time": 101.35704150000001,
                    "velocity": 1
                },
                {
                    "duration": 0.21428550000000257,
                    "durationTicks": 60,
                    "midi": 38,
                    "name": "D2",
                    "ticks": 28440,
                    "time": 101.57132700000001,
                    "velocity": 1
                },
                {
                    "duration": 0.21428550000000257,
                    "durationTicks": 60,
                    "midi": 42,
                    "name": "F#2",
                    "ticks": 28440,
                    "time": 101.57132700000001,
                    "velocity": 1
                },
                {
                    "duration": 0.21428549999998836,
                    "durationTicks": 60,
                    "midi": 42,
                    "name": "F#2",
                    "ticks": 28500,
                    "time": 101.78561250000001,
                    "velocity": 1
                },
                {
                    "duration": 0.10714275000000839,
                    "durationTicks": 30,
                    "midi": 38,
                    "name": "D2",
                    "ticks": 28560,
                    "time": 101.999898,
                    "velocity": 1
                },
                {
                    "duration": 0.10714274999999418,
                    "durationTicks": 30,
                    "midi": 38,
                    "name": "D2",
                    "ticks": 28590,
                    "time": 102.10704075000001,
                    "velocity": 1
                },
                {
                    "duration": 0.21428550000000257,
                    "durationTicks": 60,
                    "midi": 38,
                    "name": "D2",
                    "ticks": 28620,
                    "time": 102.2141835,
                    "velocity": 1
                },
                {
                    "duration": 0.10714275000000839,
                    "durationTicks": 30,
                    "midi": 45,
                    "name": "A2",
                    "ticks": 28680,
                    "time": 102.428469,
                    "velocity": 1
                },
                {
                    "duration": 0.10714274999999418,
                    "durationTicks": 30,
                    "midi": 45,
                    "name": "A2",
                    "ticks": 28710,
                    "time": 102.53561175000002,
                    "velocity": 1
                },
                {
                    "duration": 0.21428550000000257,
                    "durationTicks": 60,
                    "midi": 45,
                    "name": "A2",
                    "ticks": 28740,
                    "time": 102.64275450000001,
                    "velocity": 1
                },
                {
                    "duration": 0.21428550000000257,
                    "durationTicks": 60,
                    "midi": 57,
                    "name": "A3",
                    "ticks": 28800,
                    "time": 102.85704000000001,
                    "velocity": 1
                },
                {
                    "duration": 0.42857099999999093,
                    "durationTicks": 120,
                    "midi": 36,
                    "name": "C2",
                    "ticks": 28800,
                    "time": 102.85704000000001,
                    "velocity": 1
                },
                {
                    "duration": 0.21428549999998836,
                    "durationTicks": 60,
                    "midi": 42,
                    "name": "F#2",
                    "ticks": 28860,
                    "time": 103.07132550000001,
                    "velocity": 1
                },
                {
                    "duration": 0.21428550000000257,
                    "durationTicks": 60,
                    "midi": 38,
                    "name": "D2",
                    "ticks": 28920,
                    "time": 103.285611,
                    "velocity": 1
                },
                {
                    "duration": 0.21428550000000257,
                    "durationTicks": 60,
                    "midi": 42,
                    "name": "F#2",
                    "ticks": 28920,
                    "time": 103.285611,
                    "velocity": 1
                },
                {
                    "duration": 0.21428550000000257,
                    "durationTicks": 60,
                    "midi": 42,
                    "name": "F#2",
                    "ticks": 28980,
                    "time": 103.4998965,
                    "velocity": 1
                },
                {
                    "duration": 0.21428550000000257,
                    "durationTicks": 60,
                    "midi": 42,
                    "name": "F#2",
                    "ticks": 29040,
                    "time": 103.71418200000001,
                    "velocity": 1
                },
                {
                    "duration": 0.42857100000000514,
                    "durationTicks": 120,
                    "midi": 36,
                    "name": "C2",
                    "ticks": 29040,
                    "time": 103.71418200000001,
                    "velocity": 1
                },
                {
                    "duration": 0.21428550000000257,
                    "durationTicks": 60,
                    "midi": 42,
                    "name": "F#2",
                    "ticks": 29100,
                    "time": 103.92846750000001,
                    "velocity": 1
                },
                {
                    "duration": 0.21428549999998836,
                    "durationTicks": 60,
                    "midi": 38,
                    "name": "D2",
                    "ticks": 29160,
                    "time": 104.14275300000001,
                    "velocity": 1
                },
                {
                    "duration": 0.21428549999998836,
                    "durationTicks": 60,
                    "midi": 42,
                    "name": "F#2",
                    "ticks": 29160,
                    "time": 104.14275300000001,
                    "velocity": 1
                },
                {
                    "duration": 0.21428550000000257,
                    "durationTicks": 60,
                    "midi": 42,
                    "name": "F#2",
                    "ticks": 29220,
                    "time": 104.3570385,
                    "velocity": 1
                },
                {
                    "duration": 0.21428550000000257,
                    "durationTicks": 60,
                    "midi": 36,
                    "name": "C2",
                    "ticks": 29280,
                    "time": 104.571324,
                    "velocity": 1
                },
                {
                    "duration": 0.21428550000000257,
                    "durationTicks": 60,
                    "midi": 42,
                    "name": "F#2",
                    "ticks": 29280,
                    "time": 104.571324,
                    "velocity": 1
                },
                {
                    "duration": 0.07142849999999612,
                    "durationTicks": 20,
                    "midi": 36,
                    "name": "C2",
                    "ticks": 29340,
                    "time": 104.7856095,
                    "velocity": 1
                },
                {
                    "duration": 0.21428550000000257,
                    "durationTicks": 60,
                    "midi": 42,
                    "name": "F#2",
                    "ticks": 29340,
                    "time": 104.7856095,
                    "velocity": 1
                },
                {
                    "duration": 0.07142850000001033,
                    "durationTicks": 20,
                    "midi": 36,
                    "name": "C2",
                    "ticks": 29360,
                    "time": 104.857038,
                    "velocity": 1
                },
                {
                    "duration": 0.07142849999999612,
                    "durationTicks": 20,
                    "midi": 36,
                    "name": "C2",
                    "ticks": 29380,
                    "time": 104.92846650000001,
                    "velocity": 1
                },
                {
                    "duration": 0.21428550000000257,
                    "durationTicks": 60,
                    "midi": 38,
                    "name": "D2",
                    "ticks": 29400,
                    "time": 104.99989500000001,
                    "velocity": 1
                },
                {
                    "duration": 0.21428550000000257,
                    "durationTicks": 60,
                    "midi": 42,
                    "name": "F#2",
                    "ticks": 29400,
                    "time": 104.99989500000001,
                    "velocity": 1
                },
                {
                    "duration": 0.07142849999999612,
                    "durationTicks": 20,
                    "midi": 36,
                    "name": "C2",
                    "ticks": 29460,
                    "time": 105.21418050000001,
                    "velocity": 1
                },
                {
                    "duration": 0.21428550000000257,
                    "durationTicks": 60,
                    "midi": 42,
                    "name": "F#2",
                    "ticks": 29460,
                    "time": 105.21418050000001,
                    "velocity": 1
                },
                {
                    "duration": 0.07142850000001033,
                    "durationTicks": 20,
                    "midi": 36,
                    "name": "C2",
                    "ticks": 29480,
                    "time": 105.28560900000001,
                    "velocity": 1
                },
                {
                    "duration": 0.07142849999999612,
                    "durationTicks": 20,
                    "midi": 36,
                    "name": "C2",
                    "ticks": 29500,
                    "time": 105.35703750000002,
                    "velocity": 1
                },
                {
                    "duration": 0.21428549999998836,
                    "durationTicks": 60,
                    "midi": 38,
                    "name": "D2",
                    "ticks": 29520,
                    "time": 105.42846600000001,
                    "velocity": 1
                },
                {
                    "duration": 0.21428549999998836,
                    "durationTicks": 60,
                    "midi": 42,
                    "name": "F#2",
                    "ticks": 29520,
                    "time": 105.42846600000001,
                    "velocity": 1
                },
                {
                    "duration": 0.07142849999999612,
                    "durationTicks": 20,
                    "midi": 36,
                    "name": "C2",
                    "ticks": 29580,
                    "time": 105.6427515,
                    "velocity": 1
                },
                {
                    "duration": 0.21428550000000257,
                    "durationTicks": 60,
                    "midi": 42,
                    "name": "F#2",
                    "ticks": 29580,
                    "time": 105.6427515,
                    "velocity": 1
                },
                {
                    "duration": 0.07142850000001033,
                    "durationTicks": 20,
                    "midi": 36,
                    "name": "C2",
                    "ticks": 29600,
                    "time": 105.71418,
                    "velocity": 1
                },
                {
                    "duration": 0.07142849999999612,
                    "durationTicks": 20,
                    "midi": 36,
                    "name": "C2",
                    "ticks": 29620,
                    "time": 105.78560850000001,
                    "velocity": 1
                },
                {
                    "duration": 0.21428550000000257,
                    "durationTicks": 60,
                    "midi": 38,
                    "name": "D2",
                    "ticks": 29640,
                    "time": 105.857037,
                    "velocity": 1
                },
                {
                    "duration": 0.21428550000000257,
                    "durationTicks": 60,
                    "midi": 42,
                    "name": "F#2",
                    "ticks": 29640,
                    "time": 105.857037,
                    "velocity": 1
                },
                {
                    "duration": 0.21428550000000257,
                    "durationTicks": 60,
                    "midi": 36,
                    "name": "C2",
                    "ticks": 29700,
                    "time": 106.07132250000001,
                    "velocity": 1
                },
                {
                    "duration": 0.21428550000000257,
                    "durationTicks": 60,
                    "midi": 42,
                    "name": "F#2",
                    "ticks": 29700,
                    "time": 106.07132250000001,
                    "velocity": 1
                },
                {
                    "duration": 0.21428550000000257,
                    "durationTicks": 60,
                    "midi": 57,
                    "name": "A3",
                    "ticks": 29760,
                    "time": 106.28560800000001,
                    "velocity": 1
                },
                {
                    "duration": 0.42857100000000514,
                    "durationTicks": 120,
                    "midi": 36,
                    "name": "C2",
                    "ticks": 29760,
                    "time": 106.28560800000001,
                    "velocity": 1
                },
                {
                    "duration": 0.21428550000000257,
                    "durationTicks": 60,
                    "midi": 42,
                    "name": "F#2",
                    "ticks": 29820,
                    "time": 106.49989350000001,
                    "velocity": 1
                },
                {
                    "duration": 0.21428549999998836,
                    "durationTicks": 60,
                    "midi": 38,
                    "name": "D2",
                    "ticks": 29880,
                    "time": 106.71417900000002,
                    "velocity": 1
                },
                {
                    "duration": 0.21428549999998836,
                    "durationTicks": 60,
                    "midi": 42,
                    "name": "F#2",
                    "ticks": 29880,
                    "time": 106.71417900000002,
                    "velocity": 1
                },
                {
                    "duration": 0.21428550000000257,
                    "durationTicks": 60,
                    "midi": 42,
                    "name": "F#2",
                    "ticks": 29940,
                    "time": 106.9284645,
                    "velocity": 1
                },
                {
                    "duration": 0.21428550000000257,
                    "durationTicks": 60,
                    "midi": 42,
                    "name": "F#2",
                    "ticks": 30000,
                    "time": 107.14275,
                    "velocity": 1
                },
                {
                    "duration": 0.21428550000000257,
                    "durationTicks": 60,
                    "midi": 36,
                    "name": "C2",
                    "ticks": 30000,
                    "time": 107.14275,
                    "velocity": 1
                },
                {
                    "duration": 0.21428550000000257,
                    "durationTicks": 60,
                    "midi": 42,
                    "name": "F#2",
                    "ticks": 30060,
                    "time": 107.35703550000001,
                    "velocity": 1
                },
                {
                    "duration": 0.07142849999999612,
                    "durationTicks": 20,
                    "midi": 36,
                    "name": "C2",
                    "ticks": 30060,
                    "time": 107.35703550000001,
                    "velocity": 1
                },
                {
                    "duration": 0.07142850000001033,
                    "durationTicks": 20,
                    "midi": 36,
                    "name": "C2",
                    "ticks": 30080,
                    "time": 107.428464,
                    "velocity": 1
                },
                {
                    "duration": 0.07142849999999612,
                    "durationTicks": 20,
                    "midi": 36,
                    "name": "C2",
                    "ticks": 30100,
                    "time": 107.49989250000002,
                    "velocity": 1
                },
                {
                    "duration": 0.21428550000000257,
                    "durationTicks": 60,
                    "midi": 38,
                    "name": "D2",
                    "ticks": 30120,
                    "time": 107.57132100000001,
                    "velocity": 1
                },
                {
                    "duration": 0.21428550000000257,
                    "durationTicks": 60,
                    "midi": 42,
                    "name": "F#2",
                    "ticks": 30120,
                    "time": 107.57132100000001,
                    "velocity": 1
                },
                {
                    "duration": 0.21428549999998836,
                    "durationTicks": 60,
                    "midi": 42,
                    "name": "F#2",
                    "ticks": 30180,
                    "time": 107.78560650000001,
                    "velocity": 1
                },
                {
                    "duration": 0.21428549999998836,
                    "durationTicks": 60,
                    "midi": 36,
                    "name": "C2",
                    "ticks": 30180,
                    "time": 107.78560650000001,
                    "velocity": 1
                },
                {
                    "duration": 0.42857100000000514,
                    "durationTicks": 120,
                    "midi": 36,
                    "name": "C2",
                    "ticks": 30240,
                    "time": 107.999892,
                    "velocity": 1
                },
                {
                    "duration": 0.21428550000000257,
                    "durationTicks": 60,
                    "midi": 57,
                    "name": "A3",
                    "ticks": 30240,
                    "time": 107.999892,
                    "velocity": 1
                },
                {
                    "duration": 0.21428550000000257,
                    "durationTicks": 60,
                    "midi": 42,
                    "name": "F#2",
                    "ticks": 30300,
                    "time": 108.2141775,
                    "velocity": 1
                },
                {
                    "duration": 0.21428550000000257,
                    "durationTicks": 60,
                    "midi": 38,
                    "name": "D2",
                    "ticks": 30360,
                    "time": 108.42846300000001,
                    "velocity": 1
                },
                {
                    "duration": 0.21428550000000257,
                    "durationTicks": 60,
                    "midi": 42,
                    "name": "F#2",
                    "ticks": 30360,
                    "time": 108.42846300000001,
                    "velocity": 1
                },
                {
                    "duration": 0.21428550000000257,
                    "durationTicks": 60,
                    "midi": 42,
                    "name": "F#2",
                    "ticks": 30420,
                    "time": 108.64274850000001,
                    "velocity": 1
                },
                {
                    "duration": 0.21428550000000257,
                    "durationTicks": 60,
                    "midi": 45,
                    "name": "A2",
                    "ticks": 30480,
                    "time": 108.85703400000001,
                    "velocity": 1
                },
                {
                    "duration": 0.21428549999998836,
                    "durationTicks": 60,
                    "midi": 45,
                    "name": "A2",
                    "ticks": 30540,
                    "time": 109.07131950000002,
                    "velocity": 1
                },
                {
                    "duration": 0.10714275000000839,
                    "durationTicks": 30,
                    "midi": 47,
                    "name": "B2",
                    "ticks": 30600,
                    "time": 109.285605,
                    "velocity": 1
                },
                {
                    "duration": 0.10714274999999418,
                    "durationTicks": 30,
                    "midi": 47,
                    "name": "B2",
                    "ticks": 30630,
                    "time": 109.39274775000001,
                    "velocity": 1
                },
                {
                    "duration": 0.10714275000000839,
                    "durationTicks": 30,
                    "midi": 47,
                    "name": "B2",
                    "ticks": 30660,
                    "time": 109.4998905,
                    "velocity": 1
                },
                {
                    "duration": 0.10714274999999418,
                    "durationTicks": 30,
                    "midi": 47,
                    "name": "B2",
                    "ticks": 30690,
                    "time": 109.60703325000001,
                    "velocity": 1
                },
                {
                    "duration": 0.21428550000000257,
                    "durationTicks": 60,
                    "midi": 57,
                    "name": "A3",
                    "ticks": 30720,
                    "time": 109.71417600000001,
                    "velocity": 1
                },
                {
                    "duration": 0.42857100000000514,
                    "durationTicks": 120,
                    "midi": 36,
                    "name": "C2",
                    "ticks": 30720,
                    "time": 109.71417600000001,
                    "velocity": 1
                },
                {
                    "duration": 0.21428550000000257,
                    "durationTicks": 60,
                    "midi": 42,
                    "name": "F#2",
                    "ticks": 30780,
                    "time": 109.92846150000001,
                    "velocity": 1
                },
                {
                    "duration": 0.21428549999998836,
                    "durationTicks": 60,
                    "midi": 38,
                    "name": "D2",
                    "ticks": 30840,
                    "time": 110.14274700000001,
                    "velocity": 1
                },
                {
                    "duration": 0.21428549999998836,
                    "durationTicks": 60,
                    "midi": 42,
                    "name": "F#2",
                    "ticks": 30840,
                    "time": 110.14274700000001,
                    "velocity": 1
                },
                {
                    "duration": 0.21428550000000257,
                    "durationTicks": 60,
                    "midi": 42,
                    "name": "F#2",
                    "ticks": 30900,
                    "time": 110.3570325,
                    "velocity": 1
                },
                {
                    "duration": 0.21428550000000257,
                    "durationTicks": 60,
                    "midi": 42,
                    "name": "F#2",
                    "ticks": 30960,
                    "time": 110.571318,
                    "velocity": 1
                },
                {
                    "duration": 0.42857100000000514,
                    "durationTicks": 120,
                    "midi": 36,
                    "name": "C2",
                    "ticks": 30960,
                    "time": 110.571318,
                    "velocity": 1
                },
                {
                    "duration": 0.21428550000000257,
                    "durationTicks": 60,
                    "midi": 42,
                    "name": "F#2",
                    "ticks": 31020,
                    "time": 110.78560350000001,
                    "velocity": 1
                },
                {
                    "duration": 0.21428550000000257,
                    "durationTicks": 60,
                    "midi": 38,
                    "name": "D2",
                    "ticks": 31080,
                    "time": 110.99988900000001,
                    "velocity": 1
                },
                {
                    "duration": 0.21428550000000257,
                    "durationTicks": 60,
                    "midi": 42,
                    "name": "F#2",
                    "ticks": 31080,
                    "time": 110.99988900000001,
                    "velocity": 1
                },
                {
                    "duration": 0.21428550000000257,
                    "durationTicks": 60,
                    "midi": 42,
                    "name": "F#2",
                    "ticks": 31140,
                    "time": 111.21417450000001,
                    "velocity": 1
                },
                {
                    "duration": 0.10714274999999418,
                    "durationTicks": 30,
                    "midi": 38,
                    "name": "D2",
                    "ticks": 31200,
                    "time": 111.42846000000002,
                    "velocity": 1
                },
                {
                    "duration": 0.10714274999999418,
                    "durationTicks": 30,
                    "midi": 38,
                    "name": "D2",
                    "ticks": 31230,
                    "time": 111.53560275000001,
                    "velocity": 1
                },
                {
                    "duration": 0.21428550000000257,
                    "durationTicks": 60,
                    "midi": 42,
                    "name": "F#2",
                    "ticks": 31260,
                    "time": 111.6427455,
                    "velocity": 1
                },
                {
                    "duration": 0.10714275000000839,
                    "durationTicks": 30,
                    "midi": 38,
                    "name": "D2",
                    "ticks": 31320,
                    "time": 111.857031,
                    "velocity": 1
                },
                {
                    "duration": 0.10714274999999418,
                    "durationTicks": 30,
                    "midi": 38,
                    "name": "D2",
                    "ticks": 31350,
                    "time": 111.96417375000001,
                    "velocity": 1
                },
                {
                    "duration": 0.21428550000000257,
                    "durationTicks": 60,
                    "midi": 42,
                    "name": "F#2",
                    "ticks": 31380,
                    "time": 112.07131650000001,
                    "velocity": 1
                },
                {
                    "duration": 0.10714274999999418,
                    "durationTicks": 30,
                    "midi": 38,
                    "name": "D2",
                    "ticks": 31440,
                    "time": 112.28560200000001,
                    "velocity": 1
                },
                {
                    "duration": 0.10714275000000839,
                    "durationTicks": 30,
                    "midi": 38,
                    "name": "D2",
                    "ticks": 31470,
                    "time": 112.39274475,
                    "velocity": 1
                },
                {
                    "duration": 0.19642837499998222,
                    "durationTicks": 55,
                    "midi": 42,
                    "name": "F#2",
                    "ticks": 31500,
                    "time": 112.49988750000001,
                    "velocity": 1
                },
                {
                    "duration": 0.017857125000006135,
                    "durationTicks": 5,
                    "midi": 38,
                    "name": "D2",
                    "ticks": 31555,
                    "time": 112.696315875,
                    "velocity": 0.5905511811023622
                },
                {
                    "duration": 0.19642837499999644,
                    "durationTicks": 55,
                    "midi": 38,
                    "name": "D2",
                    "ticks": 31560,
                    "time": 112.714173,
                    "velocity": 1
                },
                {
                    "duration": 0.017857125000006135,
                    "durationTicks": 5,
                    "midi": 38,
                    "name": "D2",
                    "ticks": 31615,
                    "time": 112.910601375,
                    "velocity": 0.5905511811023622
                },
                {
                    "duration": 0.21428550000000257,
                    "durationTicks": 60,
                    "midi": 38,
                    "name": "D2",
                    "ticks": 31620,
                    "time": 112.9284585,
                    "velocity": 1
                },
                {
                    "duration": 0.21428550000000257,
                    "durationTicks": 60,
                    "midi": 57,
                    "name": "A3",
                    "ticks": 31680,
                    "time": 113.14274400000001,
                    "velocity": 1
                },
                {
                    "duration": 0.42857100000000514,
                    "durationTicks": 120,
                    "midi": 36,
                    "name": "C2",
                    "ticks": 31680,
                    "time": 113.14274400000001,
                    "velocity": 1
                },
                {
                    "duration": 0.21428550000000257,
                    "durationTicks": 60,
                    "midi": 42,
                    "name": "F#2",
                    "ticks": 31740,
                    "time": 113.35702950000001,
                    "velocity": 1
                },
                {
                    "duration": 0.21428550000000257,
                    "durationTicks": 60,
                    "midi": 38,
                    "name": "D2",
                    "ticks": 31800,
                    "time": 113.57131500000001,
                    "velocity": 1
                },
                {
                    "duration": 0.21428550000000257,
                    "durationTicks": 60,
                    "midi": 42,
                    "name": "F#2",
                    "ticks": 31800,
                    "time": 113.57131500000001,
                    "velocity": 1
                },
                {
                    "duration": 0.21428549999998836,
                    "durationTicks": 60,
                    "midi": 42,
                    "name": "F#2",
                    "ticks": 31860,
                    "time": 113.78560050000002,
                    "velocity": 1
                },
                {
                    "duration": 0.21428550000000257,
                    "durationTicks": 60,
                    "midi": 42,
                    "name": "F#2",
                    "ticks": 31920,
                    "time": 113.999886,
                    "velocity": 1
                },
                {
                    "duration": 0.21428550000000257,
                    "durationTicks": 60,
                    "midi": 36,
                    "name": "C2",
                    "ticks": 31920,
                    "time": 113.999886,
                    "velocity": 1
                },
                {
                    "duration": 0.21428550000000257,
                    "durationTicks": 60,
                    "midi": 42,
                    "name": "F#2",
                    "ticks": 31980,
                    "time": 114.2141715,
                    "velocity": 1
                },
                {
                    "duration": 0.07142850000001033,
                    "durationTicks": 20,
                    "midi": 36,
                    "name": "C2",
                    "ticks": 31980,
                    "time": 114.2141715,
                    "velocity": 1
                },
                {
                    "duration": 0.07142849999998191,
                    "durationTicks": 20,
                    "midi": 36,
                    "name": "C2",
                    "ticks": 32000,
                    "time": 114.28560000000002,
                    "velocity": 1
                },
                {
                    "duration": 0.07142850000001033,
                    "durationTicks": 20,
                    "midi": 36,
                    "name": "C2",
                    "ticks": 32020,
                    "time": 114.3570285,
                    "velocity": 1
                },
                {
                    "duration": 0.42857100000000514,
                    "durationTicks": 120,
                    "midi": 38,
                    "name": "D2",
                    "ticks": 32040,
                    "time": 114.42845700000001,
                    "velocity": 1
                },
                {
                    "duration": 0.42857100000000514,
                    "durationTicks": 120,
                    "midi": 57,
                    "name": "A3",
                    "ticks": 32040,
                    "time": 114.42845700000001,
                    "velocity": 1
                },
                {
                    "duration": 0.42857099999999093,
                    "durationTicks": 120,
                    "midi": 36,
                    "name": "C2",
                    "ticks": 32160,
                    "time": 114.85702800000001,
                    "velocity": 1
                },
                {
                    "duration": 0.42857099999999093,
                    "durationTicks": 120,
                    "midi": 57,
                    "name": "A3",
                    "ticks": 32160,
                    "time": 114.85702800000001,
                    "velocity": 1
                },
                {
                    "duration": 0.21428550000000257,
                    "durationTicks": 60,
                    "midi": 38,
                    "name": "D2",
                    "ticks": 32280,
                    "time": 115.285599,
                    "velocity": 1
                },
                {
                    "duration": 0.21428550000000257,
                    "durationTicks": 60,
                    "midi": 42,
                    "name": "F#2",
                    "ticks": 32280,
                    "time": 115.285599,
                    "velocity": 1
                },
                {
                    "duration": 0.21428550000000257,
                    "durationTicks": 60,
                    "midi": 42,
                    "name": "F#2",
                    "ticks": 32340,
                    "time": 115.49988450000001,
                    "velocity": 1
                },
                {
                    "duration": 0.21428550000000257,
                    "durationTicks": 60,
                    "midi": 36,
                    "name": "C2",
                    "ticks": 32400,
                    "time": 115.71417000000001,
                    "velocity": 1
                },
                {
                    "duration": 0.21428550000000257,
                    "durationTicks": 60,
                    "midi": 57,
                    "name": "A3",
                    "ticks": 32400,
                    "time": 115.71417000000001,
                    "velocity": 1
                },
                {
                    "duration": 0.21428550000000257,
                    "durationTicks": 60,
                    "midi": 36,
                    "name": "C2",
                    "ticks": 32460,
                    "time": 115.92845550000001,
                    "velocity": 1
                },
                {
                    "duration": 0.21428550000000257,
                    "durationTicks": 60,
                    "midi": 57,
                    "name": "A3",
                    "ticks": 32460,
                    "time": 115.92845550000001,
                    "velocity": 1
                },
                {
                    "duration": 0.21428549999998836,
                    "durationTicks": 60,
                    "midi": 36,
                    "name": "C2",
                    "ticks": 32520,
                    "time": 116.14274100000002,
                    "velocity": 1
                },
                {
                    "duration": 0.21428549999998836,
                    "durationTicks": 60,
                    "midi": 57,
                    "name": "A3",
                    "ticks": 32520,
                    "time": 116.14274100000002,
                    "velocity": 1
                },
                {
                    "duration": 0.21428550000000257,
                    "durationTicks": 60,
                    "midi": 36,
                    "name": "C2",
                    "ticks": 32580,
                    "time": 116.3570265,
                    "velocity": 1
                },
                {
                    "duration": 0.21428550000000257,
                    "durationTicks": 60,
                    "midi": 57,
                    "name": "A3",
                    "ticks": 32580,
                    "time": 116.3570265,
                    "velocity": 1
                },
                {
                    "duration": 0.21428550000000257,
                    "durationTicks": 60,
                    "midi": 57,
                    "name": "A3",
                    "ticks": 32640,
                    "time": 116.571312,
                    "velocity": 1
                },
                {
                    "duration": 0.42857100000000514,
                    "durationTicks": 120,
                    "midi": 36,
                    "name": "C2",
                    "ticks": 32640,
                    "time": 116.571312,
                    "velocity": 1
                },
                {
                    "duration": 0.21428550000000257,
                    "durationTicks": 60,
                    "midi": 42,
                    "name": "F#2",
                    "ticks": 32700,
                    "time": 116.78559750000001,
                    "velocity": 1
                },
                {
                    "duration": 0.21428550000000257,
                    "durationTicks": 60,
                    "midi": 38,
                    "name": "D2",
                    "ticks": 32760,
                    "time": 116.99988300000001,
                    "velocity": 1
                },
                {
                    "duration": 0.21428550000000257,
                    "durationTicks": 60,
                    "midi": 42,
                    "name": "F#2",
                    "ticks": 32760,
                    "time": 116.99988300000001,
                    "velocity": 1
                },
                {
                    "duration": 0.21428550000000257,
                    "durationTicks": 60,
                    "midi": 42,
                    "name": "F#2",
                    "ticks": 32820,
                    "time": 117.21416850000001,
                    "velocity": 1
                },
                {
                    "duration": 0.21428549999998836,
                    "durationTicks": 60,
                    "midi": 42,
                    "name": "F#2",
                    "ticks": 32880,
                    "time": 117.42845400000002,
                    "velocity": 1
                },
                {
                    "duration": 0.42857099999999093,
                    "durationTicks": 120,
                    "midi": 36,
                    "name": "C2",
                    "ticks": 32880,
                    "time": 117.42845400000002,
                    "velocity": 1
                },
                {
                    "duration": 0.21428550000000257,
                    "durationTicks": 60,
                    "midi": 42,
                    "name": "F#2",
                    "ticks": 32940,
                    "time": 117.6427395,
                    "velocity": 1
                },
                {
                    "duration": 0.21428550000000257,
                    "durationTicks": 60,
                    "midi": 38,
                    "name": "D2",
                    "ticks": 33000,
                    "time": 117.85702500000001,
                    "velocity": 1
                },
                {
                    "duration": 0.21428550000000257,
                    "durationTicks": 60,
                    "midi": 42,
                    "name": "F#2",
                    "ticks": 33000,
                    "time": 117.85702500000001,
                    "velocity": 1
                },
                {
                    "duration": 0.21428550000000257,
                    "durationTicks": 60,
                    "midi": 42,
                    "name": "F#2",
                    "ticks": 33060,
                    "time": 118.07131050000001,
                    "velocity": 1
                },
                {
                    "duration": 0.21428550000000257,
                    "durationTicks": 60,
                    "midi": 36,
                    "name": "C2",
                    "ticks": 33120,
                    "time": 118.28559600000001,
                    "velocity": 1
                },
                {
                    "duration": 0.21428550000000257,
                    "durationTicks": 60,
                    "midi": 42,
                    "name": "F#2",
                    "ticks": 33120,
                    "time": 118.28559600000001,
                    "velocity": 1
                },
                {
                    "duration": 0.07142849999999612,
                    "durationTicks": 20,
                    "midi": 36,
                    "name": "C2",
                    "ticks": 33180,
                    "time": 118.49988150000001,
                    "velocity": 1
                },
                {
                    "duration": 0.21428549999998836,
                    "durationTicks": 60,
                    "midi": 42,
                    "name": "F#2",
                    "ticks": 33180,
                    "time": 118.49988150000001,
                    "velocity": 1
                },
                {
                    "duration": 0.07142849999999612,
                    "durationTicks": 20,
                    "midi": 36,
                    "name": "C2",
                    "ticks": 33200,
                    "time": 118.57131000000001,
                    "velocity": 1
                },
                {
                    "duration": 0.07142849999999612,
                    "durationTicks": 20,
                    "midi": 36,
                    "name": "C2",
                    "ticks": 33220,
                    "time": 118.64273850000001,
                    "velocity": 1
                },
                {
                    "duration": 0.21428550000000257,
                    "durationTicks": 60,
                    "midi": 38,
                    "name": "D2",
                    "ticks": 33240,
                    "time": 118.714167,
                    "velocity": 1
                },
                {
                    "duration": 0.21428550000000257,
                    "durationTicks": 60,
                    "midi": 42,
                    "name": "F#2",
                    "ticks": 33240,
                    "time": 118.714167,
                    "velocity": 1
                },
                {
                    "duration": 0.07142850000001033,
                    "durationTicks": 20,
                    "midi": 36,
                    "name": "C2",
                    "ticks": 33300,
                    "time": 118.9284525,
                    "velocity": 1
                },
                {
                    "duration": 0.21428550000000257,
                    "durationTicks": 60,
                    "midi": 42,
                    "name": "F#2",
                    "ticks": 33300,
                    "time": 118.9284525,
                    "velocity": 1
                },
                {
                    "duration": 0.07142849999998191,
                    "durationTicks": 20,
                    "midi": 36,
                    "name": "C2",
                    "ticks": 33320,
                    "time": 118.99988100000002,
                    "velocity": 1
                },
                {
                    "duration": 0.07142850000001033,
                    "durationTicks": 20,
                    "midi": 36,
                    "name": "C2",
                    "ticks": 33340,
                    "time": 119.0713095,
                    "velocity": 1
                },
                {
                    "duration": 0.21428550000000257,
                    "durationTicks": 60,
                    "midi": 38,
                    "name": "D2",
                    "ticks": 33360,
                    "time": 119.14273800000001,
                    "velocity": 1
                },
                {
                    "duration": 0.21428550000000257,
                    "durationTicks": 60,
                    "midi": 42,
                    "name": "F#2",
                    "ticks": 33360,
                    "time": 119.14273800000001,
                    "velocity": 1
                },
                {
                    "duration": 0.07142850000001033,
                    "durationTicks": 20,
                    "midi": 36,
                    "name": "C2",
                    "ticks": 33420,
                    "time": 119.35702350000001,
                    "velocity": 1
                },
                {
                    "duration": 0.21428550000000257,
                    "durationTicks": 60,
                    "midi": 42,
                    "name": "F#2",
                    "ticks": 33420,
                    "time": 119.35702350000001,
                    "velocity": 1
                },
                {
                    "duration": 0.07142849999998191,
                    "durationTicks": 20,
                    "midi": 36,
                    "name": "C2",
                    "ticks": 33440,
                    "time": 119.42845200000002,
                    "velocity": 1
                },
                {
                    "duration": 0.07142850000001033,
                    "durationTicks": 20,
                    "midi": 36,
                    "name": "C2",
                    "ticks": 33460,
                    "time": 119.4998805,
                    "velocity": 1
                },
                {
                    "duration": 0.21428550000000257,
                    "durationTicks": 60,
                    "midi": 38,
                    "name": "D2",
                    "ticks": 33480,
                    "time": 119.57130900000001,
                    "velocity": 1
                },
                {
                    "duration": 0.21428550000000257,
                    "durationTicks": 60,
                    "midi": 42,
                    "name": "F#2",
                    "ticks": 33480,
                    "time": 119.57130900000001,
                    "velocity": 1
                },
                {
                    "duration": 0.21428549999998836,
                    "durationTicks": 60,
                    "midi": 57,
                    "name": "A3",
                    "ticks": 33540,
                    "time": 119.78559450000002,
                    "velocity": 1
                },
                {
                    "duration": 0.21428549999998836,
                    "durationTicks": 60,
                    "midi": 36,
                    "name": "C2",
                    "ticks": 33540,
                    "time": 119.78559450000002,
                    "velocity": 1
                },
                {
                    "duration": 0.21428550000000257,
                    "durationTicks": 60,
                    "midi": 57,
                    "name": "A3",
                    "ticks": 33600,
                    "time": 119.99988,
                    "velocity": 1
                },
                {
                    "duration": 0.42857100000000514,
                    "durationTicks": 120,
                    "midi": 36,
                    "name": "C2",
                    "ticks": 33600,
                    "time": 119.99988,
                    "velocity": 1
                },
                {
                    "duration": 0.21428550000000257,
                    "durationTicks": 60,
                    "midi": 42,
                    "name": "F#2",
                    "ticks": 33660,
                    "time": 120.21416550000001,
                    "velocity": 1
                },
                {
                    "duration": 0.21428550000000257,
                    "durationTicks": 60,
                    "midi": 38,
                    "name": "D2",
                    "ticks": 33720,
                    "time": 120.42845100000001,
                    "velocity": 1
                },
                {
                    "duration": 0.21428550000000257,
                    "durationTicks": 60,
                    "midi": 42,
                    "name": "F#2",
                    "ticks": 33720,
                    "time": 120.42845100000001,
                    "velocity": 1
                },
                {
                    "duration": 0.21428550000000257,
                    "durationTicks": 60,
                    "midi": 42,
                    "name": "F#2",
                    "ticks": 33780,
                    "time": 120.64273650000001,
                    "velocity": 1
                },
                {
                    "duration": 0.21428549999998836,
                    "durationTicks": 60,
                    "midi": 42,
                    "name": "F#2",
                    "ticks": 33840,
                    "time": 120.85702200000001,
                    "velocity": 1
                },
                {
                    "duration": 0.21428549999998836,
                    "durationTicks": 60,
                    "midi": 36,
                    "name": "C2",
                    "ticks": 33840,
                    "time": 120.85702200000001,
                    "velocity": 1
                },
                {
                    "duration": 0.21428550000000257,
                    "durationTicks": 60,
                    "midi": 42,
                    "name": "F#2",
                    "ticks": 33900,
                    "time": 121.0713075,
                    "velocity": 1
                },
                {
                    "duration": 0.07142850000001033,
                    "durationTicks": 20,
                    "midi": 36,
                    "name": "C2",
                    "ticks": 33900,
                    "time": 121.0713075,
                    "velocity": 1
                },
                {
                    "duration": 0.07142849999998191,
                    "durationTicks": 20,
                    "midi": 36,
                    "name": "C2",
                    "ticks": 33920,
                    "time": 121.14273600000001,
                    "velocity": 1
                },
                {
                    "duration": 0.07142850000001033,
                    "durationTicks": 20,
                    "midi": 36,
                    "name": "C2",
                    "ticks": 33940,
                    "time": 121.2141645,
                    "velocity": 1
                },
                {
                    "duration": 0.42857100000000514,
                    "durationTicks": 120,
                    "midi": 38,
                    "name": "D2",
                    "ticks": 33960,
                    "time": 121.285593,
                    "velocity": 1
                },
                {
                    "duration": 0.42857100000000514,
                    "durationTicks": 120,
                    "midi": 57,
                    "name": "A3",
                    "ticks": 33960,
                    "time": 121.285593,
                    "velocity": 1
                },
                {
                    "duration": 0.42857100000000514,
                    "durationTicks": 120,
                    "midi": 36,
                    "name": "C2",
                    "ticks": 34080,
                    "time": 121.71416400000001,
                    "velocity": 1
                },
                {
                    "duration": 0.21428550000000257,
                    "durationTicks": 60,
                    "midi": 57,
                    "name": "A3",
                    "ticks": 34080,
                    "time": 121.71416400000001,
                    "velocity": 1
                },
                {
                    "duration": 0.21428550000000257,
                    "durationTicks": 60,
                    "midi": 42,
                    "name": "F#2",
                    "ticks": 34140,
                    "time": 121.92844950000001,
                    "velocity": 1
                },
                {
                    "duration": 0.21428549999998836,
                    "durationTicks": 60,
                    "midi": 38,
                    "name": "D2",
                    "ticks": 34200,
                    "time": 122.14273500000002,
                    "velocity": 1
                },
                {
                    "duration": 0.21428549999998836,
                    "durationTicks": 60,
                    "midi": 42,
                    "name": "F#2",
                    "ticks": 34200,
                    "time": 122.14273500000002,
                    "velocity": 1
                },
                {
                    "duration": 0.19642837499999644,
                    "durationTicks": 55,
                    "midi": 42,
                    "name": "F#2",
                    "ticks": 34260,
                    "time": 122.3570205,
                    "velocity": 1
                },
                {
                    "duration": 0.2321426250000087,
                    "durationTicks": 65,
                    "midi": 38,
                    "name": "D2",
                    "ticks": 34315,
                    "time": 122.553448875,
                    "velocity": 0.5905511811023622
                },
                {
                    "duration": 0.21428550000000257,
                    "durationTicks": 60,
                    "midi": 38,
                    "name": "D2",
                    "ticks": 34320,
                    "time": 122.571306,
                    "velocity": 1
                },
                {
                    "duration": 0.21428550000000257,
                    "durationTicks": 60,
                    "midi": 38,
                    "name": "D2",
                    "ticks": 34380,
                    "time": 122.78559150000001,
                    "velocity": 1
                },
                {
                    "duration": 0.10714274999999418,
                    "durationTicks": 30,
                    "midi": 45,
                    "name": "A2",
                    "ticks": 34440,
                    "time": 122.99987700000001,
                    "velocity": 1
                },
                {
                    "duration": 0.10714275000000839,
                    "durationTicks": 30,
                    "midi": 45,
                    "name": "A2",
                    "ticks": 34470,
                    "time": 123.10701975,
                    "velocity": 1
                },
                {
                    "duration": 0.21428549999998836,
                    "durationTicks": 60,
                    "midi": 45,
                    "name": "A2",
                    "ticks": 34500,
                    "time": 123.21416250000001,
                    "velocity": 1
                },
                {
                    "duration": 0.21428550000000257,
                    "durationTicks": 60,
                    "midi": 57,
                    "name": "A3",
                    "ticks": 34560,
                    "time": 123.428448,
                    "velocity": 1
                },
                {
                    "duration": 0.42857100000000514,
                    "durationTicks": 120,
                    "midi": 36,
                    "name": "C2",
                    "ticks": 34560,
                    "time": 123.428448,
                    "velocity": 1
                },
                {
                    "duration": 0.21428550000000257,
                    "durationTicks": 60,
                    "midi": 42,
                    "name": "F#2",
                    "ticks": 34620,
                    "time": 123.6427335,
                    "velocity": 1
                },
                {
                    "duration": 0.21428550000000257,
                    "durationTicks": 60,
                    "midi": 38,
                    "name": "D2",
                    "ticks": 34680,
                    "time": 123.85701900000001,
                    "velocity": 1
                },
                {
                    "duration": 0.21428550000000257,
                    "durationTicks": 60,
                    "midi": 42,
                    "name": "F#2",
                    "ticks": 34680,
                    "time": 123.85701900000001,
                    "velocity": 1
                },
                {
                    "duration": 0.21428550000000257,
                    "durationTicks": 60,
                    "midi": 42,
                    "name": "F#2",
                    "ticks": 34740,
                    "time": 124.07130450000001,
                    "velocity": 1
                },
                {
                    "duration": 0.21428550000000257,
                    "durationTicks": 60,
                    "midi": 36,
                    "name": "C2",
                    "ticks": 34800,
                    "time": 124.28559000000001,
                    "velocity": 1
                },
                {
                    "duration": 0.21428550000000257,
                    "durationTicks": 60,
                    "midi": 42,
                    "name": "F#2",
                    "ticks": 34800,
                    "time": 124.28559000000001,
                    "velocity": 1
                },
                {
                    "duration": 0.07142849999999612,
                    "durationTicks": 20,
                    "midi": 36,
                    "name": "C2",
                    "ticks": 34860,
                    "time": 124.49987550000002,
                    "velocity": 1
                },
                {
                    "duration": 0.21428549999998836,
                    "durationTicks": 60,
                    "midi": 42,
                    "name": "F#2",
                    "ticks": 34860,
                    "time": 124.49987550000002,
                    "velocity": 1
                },
                {
                    "duration": 0.07142849999999612,
                    "durationTicks": 20,
                    "midi": 36,
                    "name": "C2",
                    "ticks": 34880,
                    "time": 124.57130400000001,
                    "velocity": 1
                },
                {
                    "duration": 0.07142849999999612,
                    "durationTicks": 20,
                    "midi": 36,
                    "name": "C2",
                    "ticks": 34900,
                    "time": 124.64273250000001,
                    "velocity": 1
                },
                {
                    "duration": 0.21428550000000257,
                    "durationTicks": 60,
                    "midi": 38,
                    "name": "D2",
                    "ticks": 34920,
                    "time": 124.714161,
                    "velocity": 1
                },
                {
                    "duration": 0.21428550000000257,
                    "durationTicks": 60,
                    "midi": 42,
                    "name": "F#2",
                    "ticks": 34920,
                    "time": 124.714161,
                    "velocity": 1
                },
                {
                    "duration": 0.21428550000000257,
                    "durationTicks": 60,
                    "midi": 36,
                    "name": "C2",
                    "ticks": 34980,
                    "time": 124.9284465,
                    "velocity": 1
                },
                {
                    "duration": 0.21428550000000257,
                    "durationTicks": 60,
                    "midi": 42,
                    "name": "F#2",
                    "ticks": 34980,
                    "time": 124.9284465,
                    "velocity": 1
                },
                {
                    "duration": 0.21428550000000257,
                    "durationTicks": 60,
                    "midi": 42,
                    "name": "F#2",
                    "ticks": 35040,
                    "time": 125.14273200000001,
                    "velocity": 1
                },
                {
                    "duration": 0.42857100000000514,
                    "durationTicks": 120,
                    "midi": 36,
                    "name": "C2",
                    "ticks": 35040,
                    "time": 125.14273200000001,
                    "velocity": 1
                },
                {
                    "duration": 0.21428550000000257,
                    "durationTicks": 60,
                    "midi": 42,
                    "name": "F#2",
                    "ticks": 35100,
                    "time": 125.35701750000001,
                    "velocity": 1
                },
                {
                    "duration": 0.21428550000000257,
                    "durationTicks": 60,
                    "midi": 38,
                    "name": "D2",
                    "ticks": 35160,
                    "time": 125.57130300000001,
                    "velocity": 1
                },
                {
                    "duration": 0.21428550000000257,
                    "durationTicks": 60,
                    "midi": 42,
                    "name": "F#2",
                    "ticks": 35160,
                    "time": 125.57130300000001,
                    "velocity": 1
                },
                {
                    "duration": 0.21428549999998836,
                    "durationTicks": 60,
                    "midi": 42,
                    "name": "F#2",
                    "ticks": 35220,
                    "time": 125.78558850000002,
                    "velocity": 1
                },
                {
                    "duration": 0.21428550000000257,
                    "durationTicks": 60,
                    "midi": 36,
                    "name": "C2",
                    "ticks": 35280,
                    "time": 125.999874,
                    "velocity": 1
                },
                {
                    "duration": 0.21428550000000257,
                    "durationTicks": 60,
                    "midi": 42,
                    "name": "F#2",
                    "ticks": 35280,
                    "time": 125.999874,
                    "velocity": 1
                },
                {
                    "duration": 0.07142850000001033,
                    "durationTicks": 20,
                    "midi": 36,
                    "name": "C2",
                    "ticks": 35340,
                    "time": 126.21415950000001,
                    "velocity": 1
                },
                {
                    "duration": 0.21428550000000257,
                    "durationTicks": 60,
                    "midi": 42,
                    "name": "F#2",
                    "ticks": 35340,
                    "time": 126.21415950000001,
                    "velocity": 1
                },
                {
                    "duration": 0.07142849999998191,
                    "durationTicks": 20,
                    "midi": 36,
                    "name": "C2",
                    "ticks": 35360,
                    "time": 126.28558800000002,
                    "velocity": 1
                },
                {
                    "duration": 0.07142850000001033,
                    "durationTicks": 20,
                    "midi": 36,
                    "name": "C2",
                    "ticks": 35380,
                    "time": 126.3570165,
                    "velocity": 1
                },
                {
                    "duration": 0.21428550000000257,
                    "durationTicks": 60,
                    "midi": 38,
                    "name": "D2",
                    "ticks": 35400,
                    "time": 126.42844500000001,
                    "velocity": 1
                },
                {
                    "duration": 0.21428550000000257,
                    "durationTicks": 60,
                    "midi": 42,
                    "name": "F#2",
                    "ticks": 35400,
                    "time": 126.42844500000001,
                    "velocity": 1
                },
                {
                    "duration": 0.21428550000000257,
                    "durationTicks": 60,
                    "midi": 36,
                    "name": "C2",
                    "ticks": 35460,
                    "time": 126.64273050000001,
                    "velocity": 1
                },
                {
                    "duration": 0.21428550000000257,
                    "durationTicks": 60,
                    "midi": 42,
                    "name": "F#2",
                    "ticks": 35460,
                    "time": 126.64273050000001,
                    "velocity": 1
                },
                {
                    "duration": 0.21428549999998836,
                    "durationTicks": 60,
                    "midi": 42,
                    "name": "F#2",
                    "ticks": 35520,
                    "time": 126.85701600000002,
                    "velocity": 1
                },
                {
                    "duration": 0.42857099999999093,
                    "durationTicks": 120,
                    "midi": 36,
                    "name": "C2",
                    "ticks": 35520,
                    "time": 126.85701600000002,
                    "velocity": 1
                },
                {
                    "duration": 0.21428550000000257,
                    "durationTicks": 60,
                    "midi": 42,
                    "name": "F#2",
                    "ticks": 35580,
                    "time": 127.0713015,
                    "velocity": 1
                },
                {
                    "duration": 0.21428550000000257,
                    "durationTicks": 60,
                    "midi": 38,
                    "name": "D2",
                    "ticks": 35640,
                    "time": 127.285587,
                    "velocity": 1
                },
                {
                    "duration": 0.21428550000000257,
                    "durationTicks": 60,
                    "midi": 42,
                    "name": "F#2",
                    "ticks": 35640,
                    "time": 127.285587,
                    "velocity": 1
                },
                {
                    "duration": 0.21428550000000257,
                    "durationTicks": 60,
                    "midi": 42,
                    "name": "F#2",
                    "ticks": 35700,
                    "time": 127.49987250000001,
                    "velocity": 1
                },
                {
                    "duration": 0.21428550000000257,
                    "durationTicks": 60,
                    "midi": 36,
                    "name": "C2",
                    "ticks": 35760,
                    "time": 127.71415800000001,
                    "velocity": 1
                },
                {
                    "duration": 0.21428550000000257,
                    "durationTicks": 60,
                    "midi": 42,
                    "name": "F#2",
                    "ticks": 35760,
                    "time": 127.71415800000001,
                    "velocity": 1
                },
                {
                    "duration": 0.07142850000001033,
                    "durationTicks": 20,
                    "midi": 36,
                    "name": "C2",
                    "ticks": 35820,
                    "time": 127.92844350000001,
                    "velocity": 1
                },
                {
                    "duration": 0.21428549999998836,
                    "durationTicks": 60,
                    "midi": 42,
                    "name": "F#2",
                    "ticks": 35820,
                    "time": 127.92844350000001,
                    "velocity": 1
                },
                {
                    "duration": 0.07142849999998191,
                    "durationTicks": 20,
                    "midi": 36,
                    "name": "C2",
                    "ticks": 35840,
                    "time": 127.99987200000002,
                    "velocity": 1
                },
                {
                    "duration": 0.07142849999999612,
                    "durationTicks": 20,
                    "midi": 36,
                    "name": "C2",
                    "ticks": 35860,
                    "time": 128.0713005,
                    "velocity": 1
                },
                {
                    "duration": 0.21428550000001678,
                    "durationTicks": 60,
                    "midi": 38,
                    "name": "D2",
                    "ticks": 35880,
                    "time": 128.142729,
                    "velocity": 1
                },
                {
                    "duration": 0.21428550000001678,
                    "durationTicks": 60,
                    "midi": 42,
                    "name": "F#2",
                    "ticks": 35880,
                    "time": 128.142729,
                    "velocity": 1
                },
                {
                    "duration": 0.19642837499998222,
                    "durationTicks": 55,
                    "midi": 42,
                    "name": "F#2",
                    "ticks": 35940,
                    "time": 128.35701450000002,
                    "velocity": 1
                },
                {
                    "duration": 0.017857125000006135,
                    "durationTicks": 5,
                    "midi": 38,
                    "name": "D2",
                    "ticks": 35995,
                    "time": 128.553442875,
                    "velocity": 0.5905511811023622
                },
                {
                    "duration": 0.19642837499998222,
                    "durationTicks": 55,
                    "midi": 38,
                    "name": "D2",
                    "ticks": 36000,
                    "time": 128.5713,
                    "velocity": 1
                },
                {
                    "duration": 0.017857125000034557,
                    "durationTicks": 5,
                    "midi": 38,
                    "name": "D2",
                    "ticks": 36055,
                    "time": 128.767728375,
                    "velocity": 0.5905511811023622
                },
                {
                    "duration": 0.19642837499998222,
                    "durationTicks": 55,
                    "midi": 38,
                    "name": "D2",
                    "ticks": 36060,
                    "time": 128.78558550000002,
                    "velocity": 1
                },
                {
                    "duration": 0.017857125000006135,
                    "durationTicks": 5,
                    "midi": 45,
                    "name": "A2",
                    "ticks": 36115,
                    "time": 128.982013875,
                    "velocity": 0.5905511811023622
                },
                {
                    "duration": 0.19642837499998222,
                    "durationTicks": 55,
                    "midi": 45,
                    "name": "A2",
                    "ticks": 36120,
                    "time": 128.999871,
                    "velocity": 1
                },
                {
                    "duration": 0.017857125000006135,
                    "durationTicks": 5,
                    "midi": 45,
                    "name": "A2",
                    "ticks": 36175,
                    "time": 129.196299375,
                    "velocity": 0.5905511811023622
                },
                {
                    "duration": 0.21428550000001678,
                    "durationTicks": 60,
                    "midi": 45,
                    "name": "A2",
                    "ticks": 36180,
                    "time": 129.2141565,
                    "velocity": 1
                },
                {
                    "duration": 0.21428549999998836,
                    "durationTicks": 60,
                    "midi": 48,
                    "name": "C3",
                    "ticks": 36240,
                    "time": 129.42844200000002,
                    "velocity": 1
                },
                {
                    "duration": 0.21428549999998836,
                    "durationTicks": 60,
                    "midi": 47,
                    "name": "B2",
                    "ticks": 36240,
                    "time": 129.42844200000002,
                    "velocity": 1
                },
                {
                    "duration": 0.19642837499998222,
                    "durationTicks": 55,
                    "midi": 48,
                    "name": "C3",
                    "ticks": 36300,
                    "time": 129.6427275,
                    "velocity": 1
                },
                {
                    "duration": 0.19642837499998222,
                    "durationTicks": 55,
                    "midi": 47,
                    "name": "B2",
                    "ticks": 36300,
                    "time": 129.6427275,
                    "velocity": 1
                },
                {
                    "duration": 0.017857125000034557,
                    "durationTicks": 5,
                    "midi": 50,
                    "name": "D3",
                    "ticks": 36355,
                    "time": 129.839155875,
                    "velocity": 0.5905511811023622
                },
                {
                    "duration": 0.19642837499998222,
                    "durationTicks": 55,
                    "midi": 50,
                    "name": "D3",
                    "ticks": 36360,
                    "time": 129.85701300000002,
                    "velocity": 1
                },
                {
                    "duration": 0.017857125000006135,
                    "durationTicks": 5,
                    "midi": 50,
                    "name": "D3",
                    "ticks": 36415,
                    "time": 130.053441375,
                    "velocity": 0.5905511811023622
                },
                {
                    "duration": 0.21428549999998836,
                    "durationTicks": 60,
                    "midi": 50,
                    "name": "D3",
                    "ticks": 36420,
                    "time": 130.0712985,
                    "velocity": 1
                },
                {
                    "duration": 0.21428550000001678,
                    "durationTicks": 60,
                    "midi": 57,
                    "name": "A3",
                    "ticks": 36480,
                    "time": 130.285584,
                    "velocity": 1
                },
                {
                    "duration": 0.42857100000000514,
                    "durationTicks": 120,
                    "midi": 36,
                    "name": "C2",
                    "ticks": 36480,
                    "time": 130.285584,
                    "velocity": 1
                },
                {
                    "duration": 0.21428549999998836,
                    "durationTicks": 60,
                    "midi": 42,
                    "name": "F#2",
                    "ticks": 36540,
                    "time": 130.49986950000002,
                    "velocity": 1
                },
                {
                    "duration": 0.21428550000001678,
                    "durationTicks": 60,
                    "midi": 38,
                    "name": "D2",
                    "ticks": 36600,
                    "time": 130.714155,
                    "velocity": 1
                },
                {
                    "duration": 0.21428550000001678,
                    "durationTicks": 60,
                    "midi": 42,
                    "name": "F#2",
                    "ticks": 36600,
                    "time": 130.714155,
                    "velocity": 1
                },
                {
                    "duration": 0.21428549999998836,
                    "durationTicks": 60,
                    "midi": 42,
                    "name": "F#2",
                    "ticks": 36660,
                    "time": 130.92844050000002,
                    "velocity": 1
                },
                {
                    "duration": 0.21428549999998836,
                    "durationTicks": 60,
                    "midi": 36,
                    "name": "C2",
                    "ticks": 36720,
                    "time": 131.142726,
                    "velocity": 1
                },
                {
                    "duration": 0.21428549999998836,
                    "durationTicks": 60,
                    "midi": 42,
                    "name": "F#2",
                    "ticks": 36720,
                    "time": 131.142726,
                    "velocity": 1
                },
                {
                    "duration": 0.07142850000002454,
                    "durationTicks": 20,
                    "midi": 36,
                    "name": "C2",
                    "ticks": 36780,
                    "time": 131.3570115,
                    "velocity": 1
                },
                {
                    "duration": 0.21428550000001678,
                    "durationTicks": 60,
                    "midi": 42,
                    "name": "F#2",
                    "ticks": 36780,
                    "time": 131.3570115,
                    "velocity": 1
                },
                {
                    "duration": 0.0714284999999677,
                    "durationTicks": 20,
                    "midi": 36,
                    "name": "C2",
                    "ticks": 36800,
                    "time": 131.42844000000002,
                    "velocity": 1
                },
                {
                    "duration": 0.07142850000002454,
                    "durationTicks": 20,
                    "midi": 36,
                    "name": "C2",
                    "ticks": 36820,
                    "time": 131.4998685,
                    "velocity": 1
                },
                {
                    "duration": 0.21428549999998836,
                    "durationTicks": 60,
                    "midi": 38,
                    "name": "D2",
                    "ticks": 36840,
                    "time": 131.57129700000002,
                    "velocity": 1
                },
                {
                    "duration": 0.21428549999998836,
                    "durationTicks": 60,
                    "midi": 42,
                    "name": "F#2",
                    "ticks": 36840,
                    "time": 131.57129700000002,
                    "velocity": 1
                },
                {
                    "duration": 0.21428550000001678,
                    "durationTicks": 60,
                    "midi": 36,
                    "name": "C2",
                    "ticks": 36900,
                    "time": 131.7855825,
                    "velocity": 1
                },
                {
                    "duration": 0.21428550000001678,
                    "durationTicks": 60,
                    "midi": 42,
                    "name": "F#2",
                    "ticks": 36900,
                    "time": 131.7855825,
                    "velocity": 1
                },
                {
                    "duration": 0.21428549999998836,
                    "durationTicks": 60,
                    "midi": 42,
                    "name": "F#2",
                    "ticks": 36960,
                    "time": 131.99986800000002,
                    "velocity": 1
                },
                {
                    "duration": 0.4285709999999767,
                    "durationTicks": 120,
                    "midi": 36,
                    "name": "C2",
                    "ticks": 36960,
                    "time": 131.99986800000002,
                    "velocity": 1
                },
                {
                    "duration": 0.21428549999998836,
                    "durationTicks": 60,
                    "midi": 42,
                    "name": "F#2",
                    "ticks": 37020,
                    "time": 132.2141535,
                    "velocity": 1
                },
                {
                    "duration": 0.21428550000001678,
                    "durationTicks": 60,
                    "midi": 38,
                    "name": "D2",
                    "ticks": 37080,
                    "time": 132.428439,
                    "velocity": 1
                },
                {
                    "duration": 0.21428550000001678,
                    "durationTicks": 60,
                    "midi": 42,
                    "name": "F#2",
                    "ticks": 37080,
                    "time": 132.428439,
                    "velocity": 1
                },
                {
                    "duration": 0.21428549999998836,
                    "durationTicks": 60,
                    "midi": 42,
                    "name": "F#2",
                    "ticks": 37140,
                    "time": 132.6427245,
                    "velocity": 1
                },
                {
                    "duration": 0.21428550000001678,
                    "durationTicks": 60,
                    "midi": 36,
                    "name": "C2",
                    "ticks": 37200,
                    "time": 132.85701,
                    "velocity": 1
                },
                {
                    "duration": 0.21428550000001678,
                    "durationTicks": 60,
                    "midi": 42,
                    "name": "F#2",
                    "ticks": 37200,
                    "time": 132.85701,
                    "velocity": 1
                },
                {
                    "duration": 0.07142849999999612,
                    "durationTicks": 20,
                    "midi": 36,
                    "name": "C2",
                    "ticks": 37260,
                    "time": 133.07129550000002,
                    "velocity": 1
                },
                {
                    "duration": 0.21428549999998836,
                    "durationTicks": 60,
                    "midi": 42,
                    "name": "F#2",
                    "ticks": 37260,
                    "time": 133.07129550000002,
                    "velocity": 1
                },
                {
                    "duration": 0.07142849999999612,
                    "durationTicks": 20,
                    "midi": 36,
                    "name": "C2",
                    "ticks": 37280,
                    "time": 133.14272400000002,
                    "velocity": 1
                },
                {
                    "duration": 0.07142849999999612,
                    "durationTicks": 20,
                    "midi": 36,
                    "name": "C2",
                    "ticks": 37300,
                    "time": 133.2141525,
                    "velocity": 1
                },
                {
                    "duration": 0.21428550000001678,
                    "durationTicks": 60,
                    "midi": 38,
                    "name": "D2",
                    "ticks": 37320,
                    "time": 133.285581,
                    "velocity": 1
                },
                {
                    "duration": 0.21428550000001678,
                    "durationTicks": 60,
                    "midi": 42,
                    "name": "F#2",
                    "ticks": 37320,
                    "time": 133.285581,
                    "velocity": 1
                },
                {
                    "duration": 0.21428549999998836,
                    "durationTicks": 60,
                    "midi": 36,
                    "name": "C2",
                    "ticks": 37380,
                    "time": 133.49986650000002,
                    "velocity": 1
                },
                {
                    "duration": 0.21428549999998836,
                    "durationTicks": 60,
                    "midi": 42,
                    "name": "F#2",
                    "ticks": 37380,
                    "time": 133.49986650000002,
                    "velocity": 1
                },
                {
                    "duration": 0.21428549999998836,
                    "durationTicks": 60,
                    "midi": 42,
                    "name": "F#2",
                    "ticks": 37440,
                    "time": 133.714152,
                    "velocity": 1
                },
                {
                    "duration": 0.42857100000000514,
                    "durationTicks": 120,
                    "midi": 36,
                    "name": "C2",
                    "ticks": 37440,
                    "time": 133.714152,
                    "velocity": 1
                },
                {
                    "duration": 0.21428550000001678,
                    "durationTicks": 60,
                    "midi": 42,
                    "name": "F#2",
                    "ticks": 37500,
                    "time": 133.9284375,
                    "velocity": 1
                },
                {
                    "duration": 0.21428549999998836,
                    "durationTicks": 60,
                    "midi": 57,
                    "name": "A3",
                    "ticks": 37560,
                    "time": 134.14272300000002,
                    "velocity": 1
                },
                {
                    "duration": 0.21428549999998836,
                    "durationTicks": 60,
                    "midi": 38,
                    "name": "D2",
                    "ticks": 37560,
                    "time": 134.14272300000002,
                    "velocity": 1
                },
                {
                    "duration": 0.21428550000001678,
                    "durationTicks": 60,
                    "midi": 42,
                    "name": "F#2",
                    "ticks": 37620,
                    "time": 134.3570085,
                    "velocity": 1
                },
                {
                    "duration": 0.21428549999998836,
                    "durationTicks": 60,
                    "midi": 36,
                    "name": "C2",
                    "ticks": 37680,
                    "time": 134.57129400000002,
                    "velocity": 1
                },
                {
                    "duration": 0.21428549999998836,
                    "durationTicks": 60,
                    "midi": 42,
                    "name": "F#2",
                    "ticks": 37680,
                    "time": 134.57129400000002,
                    "velocity": 1
                },
                {
                    "duration": 0.07142849999999612,
                    "durationTicks": 20,
                    "midi": 36,
                    "name": "C2",
                    "ticks": 37740,
                    "time": 134.7855795,
                    "velocity": 1
                },
                {
                    "duration": 0.21428549999998836,
                    "durationTicks": 60,
                    "midi": 42,
                    "name": "F#2",
                    "ticks": 37740,
                    "time": 134.7855795,
                    "velocity": 1
                },
                {
                    "duration": 0.07142849999999612,
                    "durationTicks": 20,
                    "midi": 36,
                    "name": "C2",
                    "ticks": 37760,
                    "time": 134.857008,
                    "velocity": 1
                },
                {
                    "duration": 0.07142849999999612,
                    "durationTicks": 20,
                    "midi": 36,
                    "name": "C2",
                    "ticks": 37780,
                    "time": 134.9284365,
                    "velocity": 1
                },
                {
                    "duration": 0.21428550000001678,
                    "durationTicks": 60,
                    "midi": 57,
                    "name": "A3",
                    "ticks": 37800,
                    "time": 134.999865,
                    "velocity": 1
                },
                {
                    "duration": 0.21428550000001678,
                    "durationTicks": 60,
                    "midi": 38,
                    "name": "D2",
                    "ticks": 37800,
                    "time": 134.999865,
                    "velocity": 1
                },
                {
                    "duration": 0.21428549999998836,
                    "durationTicks": 60,
                    "midi": 42,
                    "name": "F#2",
                    "ticks": 37860,
                    "time": 135.21415050000002,
                    "velocity": 1
                },
                {
                    "duration": 0.21428550000001678,
                    "durationTicks": 60,
                    "midi": 36,
                    "name": "C2",
                    "ticks": 37920,
                    "time": 135.428436,
                    "velocity": 1
                },
                {
                    "duration": 0.21428550000001678,
                    "durationTicks": 60,
                    "midi": 42,
                    "name": "F#2",
                    "ticks": 37920,
                    "time": 135.428436,
                    "velocity": 1
                },
                {
                    "duration": 0.07142849999999612,
                    "durationTicks": 20,
                    "midi": 36,
                    "name": "C2",
                    "ticks": 37980,
                    "time": 135.64272150000002,
                    "velocity": 1
                },
                {
                    "duration": 0.21428549999998836,
                    "durationTicks": 60,
                    "midi": 42,
                    "name": "F#2",
                    "ticks": 37980,
                    "time": 135.64272150000002,
                    "velocity": 1
                },
                {
                    "duration": 0.07142849999999612,
                    "durationTicks": 20,
                    "midi": 36,
                    "name": "C2",
                    "ticks": 38000,
                    "time": 135.71415000000002,
                    "velocity": 1
                },
                {
                    "duration": 0.07142849999999612,
                    "durationTicks": 20,
                    "midi": 36,
                    "name": "C2",
                    "ticks": 38020,
                    "time": 135.7855785,
                    "velocity": 1
                },
                {
                    "duration": 0.21428549999998836,
                    "durationTicks": 60,
                    "midi": 38,
                    "name": "D2",
                    "ticks": 38040,
                    "time": 135.857007,
                    "velocity": 1
                },
                {
                    "duration": 0.21428549999998836,
                    "durationTicks": 60,
                    "midi": 57,
                    "name": "A3",
                    "ticks": 38040,
                    "time": 135.857007,
                    "velocity": 1
                },
                {
                    "duration": 0.10714275000000839,
                    "durationTicks": 30,
                    "midi": 38,
                    "name": "D2",
                    "ticks": 38100,
                    "time": 136.0712925,
                    "velocity": 1
                },
                {
                    "duration": 0.10714275000000839,
                    "durationTicks": 30,
                    "midi": 38,
                    "name": "D2",
                    "ticks": 38130,
                    "time": 136.17843525,
                    "velocity": 1
                },
                {
                    "duration": 0.42857100000000514,
                    "durationTicks": 120,
                    "midi": 36,
                    "name": "C2",
                    "ticks": 38160,
                    "time": 136.28557800000002,
                    "velocity": 1
                },
                {
                    "duration": 0.21428549999998836,
                    "durationTicks": 60,
                    "midi": 57,
                    "name": "A3",
                    "ticks": 38160,
                    "time": 136.28557800000002,
                    "velocity": 1
                },
                {
                    "duration": 0.10714275000000839,
                    "durationTicks": 30,
                    "midi": 38,
                    "name": "D2",
                    "ticks": 38220,
                    "time": 136.4998635,
                    "velocity": 1
                },
                {
                    "duration": 0.10714275000000839,
                    "durationTicks": 30,
                    "midi": 38,
                    "name": "D2",
                    "ticks": 38250,
                    "time": 136.60700625,
                    "velocity": 1
                },
                {
                    "duration": 0.21428549999998836,
                    "durationTicks": 60,
                    "midi": 36,
                    "name": "C2",
                    "ticks": 38280,
                    "time": 136.71414900000002,
                    "velocity": 1
                },
                {
                    "duration": 0.21428549999998836,
                    "durationTicks": 60,
                    "midi": 57,
                    "name": "A3",
                    "ticks": 38280,
                    "time": 136.71414900000002,
                    "velocity": 1
                },
                {
                    "duration": 0.21428549999998836,
                    "durationTicks": 60,
                    "midi": 36,
                    "name": "C2",
                    "ticks": 38340,
                    "time": 136.9284345,
                    "velocity": 1
                },
                {
                    "duration": 0.21428549999998836,
                    "durationTicks": 60,
                    "midi": 57,
                    "name": "A3",
                    "ticks": 38340,
                    "time": 136.9284345,
                    "velocity": 1
                },
                {
                    "duration": 0.42857100000000514,
                    "durationTicks": 120,
                    "midi": 36,
                    "name": "C2",
                    "ticks": 38400,
                    "time": 137.14272,
                    "velocity": 1
                },
                {
                    "duration": 0.21428550000001678,
                    "durationTicks": 60,
                    "midi": 57,
                    "name": "A3",
                    "ticks": 38400,
                    "time": 137.14272,
                    "velocity": 1
                },
                {
                    "duration": 0.21428549999998836,
                    "durationTicks": 60,
                    "midi": 42,
                    "name": "F#2",
                    "ticks": 38460,
                    "time": 137.3570055,
                    "velocity": 1
                },
                {
                    "duration": 0.21428550000001678,
                    "durationTicks": 60,
                    "midi": 38,
                    "name": "D2",
                    "ticks": 38520,
                    "time": 137.571291,
                    "velocity": 1
                },
                {
                    "duration": 0.21428550000001678,
                    "durationTicks": 60,
                    "midi": 42,
                    "name": "F#2",
                    "ticks": 38520,
                    "time": 137.571291,
                    "velocity": 1
                },
                {
                    "duration": 0.21428549999998836,
                    "durationTicks": 60,
                    "midi": 42,
                    "name": "F#2",
                    "ticks": 38580,
                    "time": 137.78557650000002,
                    "velocity": 1
                },
                {
                    "duration": 0.42857100000000514,
                    "durationTicks": 120,
                    "midi": 36,
                    "name": "C2",
                    "ticks": 38640,
                    "time": 137.999862,
                    "velocity": 1
                },
                {
                    "duration": 0.21428550000001678,
                    "durationTicks": 60,
                    "midi": 42,
                    "name": "F#2",
                    "ticks": 38640,
                    "time": 137.999862,
                    "velocity": 1
                },
                {
                    "duration": 0.21428549999998836,
                    "durationTicks": 60,
                    "midi": 42,
                    "name": "F#2",
                    "ticks": 38700,
                    "time": 138.21414750000002,
                    "velocity": 1
                },
                {
                    "duration": 0.21428549999998836,
                    "durationTicks": 60,
                    "midi": 38,
                    "name": "D2",
                    "ticks": 38760,
                    "time": 138.428433,
                    "velocity": 1
                },
                {
                    "duration": 0.21428549999998836,
                    "durationTicks": 60,
                    "midi": 42,
                    "name": "F#2",
                    "ticks": 38760,
                    "time": 138.428433,
                    "velocity": 1
                },
                {
                    "duration": 0.21428550000001678,
                    "durationTicks": 60,
                    "midi": 42,
                    "name": "F#2",
                    "ticks": 38820,
                    "time": 138.6427185,
                    "velocity": 1
                },
                {
                    "duration": 0.42857100000000514,
                    "durationTicks": 120,
                    "midi": 36,
                    "name": "C2",
                    "ticks": 38880,
                    "time": 138.85700400000002,
                    "velocity": 1
                },
                {
                    "duration": 0.21428549999998836,
                    "durationTicks": 60,
                    "midi": 42,
                    "name": "F#2",
                    "ticks": 38880,
                    "time": 138.85700400000002,
                    "velocity": 1
                },
                {
                    "duration": 0.21428550000001678,
                    "durationTicks": 60,
                    "midi": 42,
                    "name": "F#2",
                    "ticks": 38940,
                    "time": 139.0712895,
                    "velocity": 1
                },
                {
                    "duration": 0.21428549999998836,
                    "durationTicks": 60,
                    "midi": 42,
                    "name": "F#2",
                    "ticks": 39000,
                    "time": 139.28557500000002,
                    "velocity": 1
                },
                {
                    "duration": 0.21428549999998836,
                    "durationTicks": 60,
                    "midi": 38,
                    "name": "D2",
                    "ticks": 39060,
                    "time": 139.4998605,
                    "velocity": 1
                },
                {
                    "duration": 0.21428549999998836,
                    "durationTicks": 60,
                    "midi": 42,
                    "name": "F#2",
                    "ticks": 39060,
                    "time": 139.4998605,
                    "velocity": 1
                },
                {
                    "duration": 0.21428550000001678,
                    "durationTicks": 60,
                    "midi": 36,
                    "name": "C2",
                    "ticks": 39120,
                    "time": 139.714146,
                    "velocity": 1
                },
                {
                    "duration": 0.21428550000001678,
                    "durationTicks": 60,
                    "midi": 42,
                    "name": "F#2",
                    "ticks": 39120,
                    "time": 139.714146,
                    "velocity": 1
                },
                {
                    "duration": 0.07142849999999612,
                    "durationTicks": 20,
                    "midi": 36,
                    "name": "C2",
                    "ticks": 39180,
                    "time": 139.92843150000002,
                    "velocity": 1
                },
                {
                    "duration": 0.21428549999998836,
                    "durationTicks": 60,
                    "midi": 42,
                    "name": "F#2",
                    "ticks": 39180,
                    "time": 139.92843150000002,
                    "velocity": 1
                },
                {
                    "duration": 0.07142849999999612,
                    "durationTicks": 20,
                    "midi": 36,
                    "name": "C2",
                    "ticks": 39200,
                    "time": 139.99986,
                    "velocity": 1
                },
                {
                    "duration": 0.07142849999999612,
                    "durationTicks": 20,
                    "midi": 36,
                    "name": "C2",
                    "ticks": 39220,
                    "time": 140.0712885,
                    "velocity": 1
                },
                {
                    "duration": 0.21428550000001678,
                    "durationTicks": 60,
                    "midi": 38,
                    "name": "D2",
                    "ticks": 39240,
                    "time": 140.142717,
                    "velocity": 1
                },
                {
                    "duration": 0.21428550000001678,
                    "durationTicks": 60,
                    "midi": 42,
                    "name": "F#2",
                    "ticks": 39240,
                    "time": 140.142717,
                    "velocity": 1
                },
                {
                    "duration": 0.21428549999998836,
                    "durationTicks": 60,
                    "midi": 36,
                    "name": "C2",
                    "ticks": 39300,
                    "time": 140.35700250000002,
                    "velocity": 1
                },
                {
                    "duration": 0.21428549999998836,
                    "durationTicks": 60,
                    "midi": 42,
                    "name": "F#2",
                    "ticks": 39300,
                    "time": 140.35700250000002,
                    "velocity": 1
                },
                {
                    "duration": 0.21428549999998836,
                    "durationTicks": 60,
                    "midi": 42,
                    "name": "F#2",
                    "ticks": 39360,
                    "time": 140.571288,
                    "velocity": 1
                },
                {
                    "duration": 0.42857100000000514,
                    "durationTicks": 120,
                    "midi": 36,
                    "name": "C2",
                    "ticks": 39360,
                    "time": 140.571288,
                    "velocity": 1
                },
                {
                    "duration": 0.21428550000001678,
                    "durationTicks": 60,
                    "midi": 42,
                    "name": "F#2",
                    "ticks": 39420,
                    "time": 140.7855735,
                    "velocity": 1
                },
                {
                    "duration": 0.21428549999998836,
                    "durationTicks": 60,
                    "midi": 42,
                    "name": "F#2",
                    "ticks": 39480,
                    "time": 140.99985900000001,
                    "velocity": 1
                },
                {
                    "duration": 0.21428550000001678,
                    "durationTicks": 60,
                    "midi": 38,
                    "name": "D2",
                    "ticks": 39540,
                    "time": 141.2141445,
                    "velocity": 1
                },
                {
                    "duration": 0.21428550000001678,
                    "durationTicks": 60,
                    "midi": 42,
                    "name": "F#2",
                    "ticks": 39540,
                    "time": 141.2141445,
                    "velocity": 1
                },
                {
                    "duration": 0.21428549999998836,
                    "durationTicks": 60,
                    "midi": 42,
                    "name": "F#2",
                    "ticks": 39600,
                    "time": 141.42843000000002,
                    "velocity": 1
                },
                {
                    "duration": 0.42857100000000514,
                    "durationTicks": 120,
                    "midi": 36,
                    "name": "C2",
                    "ticks": 39600,
                    "time": 141.42843000000002,
                    "velocity": 1
                },
                {
                    "duration": 0.21428550000001678,
                    "durationTicks": 60,
                    "midi": 42,
                    "name": "F#2",
                    "ticks": 39660,
                    "time": 141.6427155,
                    "velocity": 1
                },
                {
                    "duration": 0.21428549999998836,
                    "durationTicks": 60,
                    "midi": 38,
                    "name": "D2",
                    "ticks": 39720,
                    "time": 141.85700100000003,
                    "velocity": 1
                },
                {
                    "duration": 0.21428549999998836,
                    "durationTicks": 60,
                    "midi": 42,
                    "name": "F#2",
                    "ticks": 39720,
                    "time": 141.85700100000003,
                    "velocity": 1
                },
                {
                    "duration": 0.21428549999998836,
                    "durationTicks": 60,
                    "midi": 42,
                    "name": "F#2",
                    "ticks": 39780,
                    "time": 142.0712865,
                    "velocity": 1
                },
                {
                    "duration": 0.42857100000000514,
                    "durationTicks": 120,
                    "midi": 36,
                    "name": "C2",
                    "ticks": 39840,
                    "time": 142.285572,
                    "velocity": 1
                },
                {
                    "duration": 0.21428550000001678,
                    "durationTicks": 60,
                    "midi": 42,
                    "name": "F#2",
                    "ticks": 39840,
                    "time": 142.285572,
                    "velocity": 1
                },
                {
                    "duration": 0.21428549999998836,
                    "durationTicks": 60,
                    "midi": 42,
                    "name": "F#2",
                    "ticks": 39900,
                    "time": 142.49985750000002,
                    "velocity": 1
                },
                {
                    "duration": 0.21428550000001678,
                    "durationTicks": 60,
                    "midi": 42,
                    "name": "F#2",
                    "ticks": 39960,
                    "time": 142.714143,
                    "velocity": 1
                },
                {
                    "duration": 0.21428549999998836,
                    "durationTicks": 60,
                    "midi": 38,
                    "name": "D2",
                    "ticks": 40020,
                    "time": 142.92842850000002,
                    "velocity": 1
                },
                {
                    "duration": 0.21428549999998836,
                    "durationTicks": 60,
                    "midi": 42,
                    "name": "F#2",
                    "ticks": 40020,
                    "time": 142.92842850000002,
                    "velocity": 1
                },
                {
                    "duration": 0.21428549999998836,
                    "durationTicks": 60,
                    "midi": 36,
                    "name": "C2",
                    "ticks": 40080,
                    "time": 143.142714,
                    "velocity": 1
                },
                {
                    "duration": 0.21428549999998836,
                    "durationTicks": 60,
                    "midi": 42,
                    "name": "F#2",
                    "ticks": 40080,
                    "time": 143.142714,
                    "velocity": 1
                },
                {
                    "duration": 0.07142850000002454,
                    "durationTicks": 20,
                    "midi": 36,
                    "name": "C2",
                    "ticks": 40140,
                    "time": 143.3569995,
                    "velocity": 1
                },
                {
                    "duration": 0.21428550000001678,
                    "durationTicks": 60,
                    "midi": 42,
                    "name": "F#2",
                    "ticks": 40140,
                    "time": 143.3569995,
                    "velocity": 1
                },
                {
                    "duration": 0.0714284999999677,
                    "durationTicks": 20,
                    "midi": 36,
                    "name": "C2",
                    "ticks": 40160,
                    "time": 143.42842800000003,
                    "velocity": 1
                },
                {
                    "duration": 0.07142850000002454,
                    "durationTicks": 20,
                    "midi": 36,
                    "name": "C2",
                    "ticks": 40180,
                    "time": 143.4998565,
                    "velocity": 1
                },
                {
                    "duration": 0.21428549999998836,
                    "durationTicks": 60,
                    "midi": 38,
                    "name": "D2",
                    "ticks": 40200,
                    "time": 143.57128500000002,
                    "velocity": 1
                },
                {
                    "duration": 0.21428549999998836,
                    "durationTicks": 60,
                    "midi": 42,
                    "name": "F#2",
                    "ticks": 40200,
                    "time": 143.57128500000002,
                    "velocity": 1
                },
                {
                    "duration": 0.21428550000001678,
                    "durationTicks": 60,
                    "midi": 36,
                    "name": "C2",
                    "ticks": 40260,
                    "time": 143.7855705,
                    "velocity": 1
                },
                {
                    "duration": 0.21428550000001678,
                    "durationTicks": 60,
                    "midi": 42,
                    "name": "F#2",
                    "ticks": 40260,
                    "time": 143.7855705,
                    "velocity": 1
                },
                {
                    "duration": 0.21428549999998836,
                    "durationTicks": 60,
                    "midi": 42,
                    "name": "F#2",
                    "ticks": 40320,
                    "time": 143.99985600000002,
                    "velocity": 1
                },
                {
                    "duration": 0.4285709999999767,
                    "durationTicks": 120,
                    "midi": 36,
                    "name": "C2",
                    "ticks": 40320,
                    "time": 143.99985600000002,
                    "velocity": 1
                },
                {
                    "duration": 0.21428549999998836,
                    "durationTicks": 60,
                    "midi": 42,
                    "name": "F#2",
                    "ticks": 40380,
                    "time": 144.2141415,
                    "velocity": 1
                },
                {
                    "duration": 0.21428550000001678,
                    "durationTicks": 60,
                    "midi": 57,
                    "name": "A3",
                    "ticks": 40440,
                    "time": 144.428427,
                    "velocity": 1
                },
                {
                    "duration": 0.21428550000001678,
                    "durationTicks": 60,
                    "midi": 38,
                    "name": "D2",
                    "ticks": 40440,
                    "time": 144.428427,
                    "velocity": 1
                },
                {
                    "duration": 0.21428549999998836,
                    "durationTicks": 60,
                    "midi": 42,
                    "name": "F#2",
                    "ticks": 40500,
                    "time": 144.64271250000002,
                    "velocity": 1
                },
                {
                    "duration": 0.21428550000001678,
                    "durationTicks": 60,
                    "midi": 42,
                    "name": "F#2",
                    "ticks": 40560,
                    "time": 144.856998,
                    "velocity": 1
                },
                {
                    "duration": 0.42857100000000514,
                    "durationTicks": 120,
                    "midi": 36,
                    "name": "C2",
                    "ticks": 40560,
                    "time": 144.856998,
                    "velocity": 1
                },
                {
                    "duration": 0.21428549999998836,
                    "durationTicks": 60,
                    "midi": 42,
                    "name": "F#2",
                    "ticks": 40620,
                    "time": 145.07128350000002,
                    "velocity": 1
                },
                {
                    "duration": 0.21428549999998836,
                    "durationTicks": 60,
                    "midi": 38,
                    "name": "D2",
                    "ticks": 40680,
                    "time": 145.285569,
                    "velocity": 1
                },
                {
                    "duration": 0.21428549999998836,
                    "durationTicks": 60,
                    "midi": 42,
                    "name": "F#2",
                    "ticks": 40680,
                    "time": 145.285569,
                    "velocity": 1
                },
                {
                    "duration": 0.21428550000001678,
                    "durationTicks": 60,
                    "midi": 42,
                    "name": "F#2",
                    "ticks": 40740,
                    "time": 145.4998545,
                    "velocity": 1
                },
                {
                    "duration": 0.42857100000000514,
                    "durationTicks": 120,
                    "midi": 36,
                    "name": "C2",
                    "ticks": 40800,
                    "time": 145.71414000000001,
                    "velocity": 1
                },
                {
                    "duration": 0.21428549999998836,
                    "durationTicks": 60,
                    "midi": 42,
                    "name": "F#2",
                    "ticks": 40800,
                    "time": 145.71414000000001,
                    "velocity": 1
                },
                {
                    "duration": 0.21428550000001678,
                    "durationTicks": 60,
                    "midi": 42,
                    "name": "F#2",
                    "ticks": 40860,
                    "time": 145.9284255,
                    "velocity": 1
                },
                {
                    "duration": 0.21428549999998836,
                    "durationTicks": 60,
                    "midi": 42,
                    "name": "F#2",
                    "ticks": 40920,
                    "time": 146.14271100000002,
                    "velocity": 1
                },
                {
                    "duration": 0.21428550000001678,
                    "durationTicks": 60,
                    "midi": 38,
                    "name": "D2",
                    "ticks": 40980,
                    "time": 146.3569965,
                    "velocity": 1
                },
                {
                    "duration": 0.21428550000001678,
                    "durationTicks": 60,
                    "midi": 42,
                    "name": "F#2",
                    "ticks": 40980,
                    "time": 146.3569965,
                    "velocity": 1
                },
                {
                    "duration": 0.21428549999998836,
                    "durationTicks": 60,
                    "midi": 36,
                    "name": "C2",
                    "ticks": 41040,
                    "time": 146.57128200000002,
                    "velocity": 1
                },
                {
                    "duration": 0.21428549999998836,
                    "durationTicks": 60,
                    "midi": 42,
                    "name": "F#2",
                    "ticks": 41040,
                    "time": 146.57128200000002,
                    "velocity": 1
                },
                {
                    "duration": 0.07142849999999612,
                    "durationTicks": 20,
                    "midi": 36,
                    "name": "C2",
                    "ticks": 41100,
                    "time": 146.7855675,
                    "velocity": 1
                },
                {
                    "duration": 0.21428549999998836,
                    "durationTicks": 60,
                    "midi": 42,
                    "name": "F#2",
                    "ticks": 41100,
                    "time": 146.7855675,
                    "velocity": 1
                },
                {
                    "duration": 0.07142849999999612,
                    "durationTicks": 20,
                    "midi": 36,
                    "name": "C2",
                    "ticks": 41120,
                    "time": 146.856996,
                    "velocity": 1
                },
                {
                    "duration": 0.07142849999999612,
                    "durationTicks": 20,
                    "midi": 36,
                    "name": "C2",
                    "ticks": 41140,
                    "time": 146.9284245,
                    "velocity": 1
                },
                {
                    "duration": 0.21428550000001678,
                    "durationTicks": 60,
                    "midi": 38,
                    "name": "D2",
                    "ticks": 41160,
                    "time": 146.999853,
                    "velocity": 1
                },
                {
                    "duration": 0.21428550000001678,
                    "durationTicks": 60,
                    "midi": 42,
                    "name": "F#2",
                    "ticks": 41160,
                    "time": 146.999853,
                    "velocity": 1
                },
                {
                    "duration": 0.21428549999998836,
                    "durationTicks": 60,
                    "midi": 36,
                    "name": "C2",
                    "ticks": 41220,
                    "time": 147.21413850000002,
                    "velocity": 1
                },
                {
                    "duration": 0.21428549999998836,
                    "durationTicks": 60,
                    "midi": 42,
                    "name": "F#2",
                    "ticks": 41220,
                    "time": 147.21413850000002,
                    "velocity": 1
                },
                {
                    "duration": 0.42857100000000514,
                    "durationTicks": 120,
                    "midi": 36,
                    "name": "C2",
                    "ticks": 41280,
                    "time": 147.428424,
                    "velocity": 1
                },
                {
                    "duration": 0.21428550000001678,
                    "durationTicks": 60,
                    "midi": 42,
                    "name": "F#2",
                    "ticks": 41280,
                    "time": 147.428424,
                    "velocity": 1
                },
                {
                    "duration": 0.21428549999998836,
                    "durationTicks": 60,
                    "midi": 42,
                    "name": "F#2",
                    "ticks": 41340,
                    "time": 147.64270950000002,
                    "velocity": 1
                },
                {
                    "duration": 0.21428549999998836,
                    "durationTicks": 60,
                    "midi": 42,
                    "name": "F#2",
                    "ticks": 41400,
                    "time": 147.856995,
                    "velocity": 1
                },
                {
                    "duration": 0.21428550000001678,
                    "durationTicks": 60,
                    "midi": 57,
                    "name": "A3",
                    "ticks": 41460,
                    "time": 148.0712805,
                    "velocity": 1
                },
                {
                    "duration": 0.21428550000001678,
                    "durationTicks": 60,
                    "midi": 38,
                    "name": "D2",
                    "ticks": 41460,
                    "time": 148.0712805,
                    "velocity": 1
                },
                {
                    "duration": 0.42857100000000514,
                    "durationTicks": 120,
                    "midi": 36,
                    "name": "C2",
                    "ticks": 41520,
                    "time": 148.28556600000002,
                    "velocity": 1
                },
                {
                    "duration": 0.21428549999998836,
                    "durationTicks": 60,
                    "midi": 42,
                    "name": "F#2",
                    "ticks": 41520,
                    "time": 148.28556600000002,
                    "velocity": 1
                },
                {
                    "duration": 0.21428550000001678,
                    "durationTicks": 60,
                    "midi": 42,
                    "name": "F#2",
                    "ticks": 41580,
                    "time": 148.4998515,
                    "velocity": 1
                },
                {
                    "duration": 0.21428549999998836,
                    "durationTicks": 60,
                    "midi": 57,
                    "name": "A3",
                    "ticks": 41640,
                    "time": 148.71413700000002,
                    "velocity": 1
                },
                {
                    "duration": 0.21428549999998836,
                    "durationTicks": 60,
                    "midi": 38,
                    "name": "D2",
                    "ticks": 41640,
                    "time": 148.71413700000002,
                    "velocity": 1
                },
                {
                    "duration": 0.21428549999998836,
                    "durationTicks": 60,
                    "midi": 42,
                    "name": "F#2",
                    "ticks": 41700,
                    "time": 148.9284225,
                    "velocity": 1
                },
                {
                    "duration": 0.21428550000001678,
                    "durationTicks": 60,
                    "midi": 42,
                    "name": "F#2",
                    "ticks": 41760,
                    "time": 149.142708,
                    "velocity": 1
                },
                {
                    "duration": 0.21428550000001678,
                    "durationTicks": 60,
                    "midi": 36,
                    "name": "C2",
                    "ticks": 41760,
                    "time": 149.142708,
                    "velocity": 1
                },
                {
                    "duration": 0.21428549999998836,
                    "durationTicks": 60,
                    "midi": 42,
                    "name": "F#2",
                    "ticks": 41820,
                    "time": 149.35699350000002,
                    "velocity": 1
                },
                {
                    "duration": 0.07142849999999612,
                    "durationTicks": 20,
                    "midi": 36,
                    "name": "C2",
                    "ticks": 41820,
                    "time": 149.35699350000002,
                    "velocity": 1
                },
                {
                    "duration": 0.07142849999999612,
                    "durationTicks": 20,
                    "midi": 36,
                    "name": "C2",
                    "ticks": 41840,
                    "time": 149.428422,
                    "velocity": 1
                },
                {
                    "duration": 0.07142849999999612,
                    "durationTicks": 20,
                    "midi": 36,
                    "name": "C2",
                    "ticks": 41860,
                    "time": 149.4998505,
                    "velocity": 1
                },
                {
                    "duration": 0.21428550000001678,
                    "durationTicks": 60,
                    "midi": 38,
                    "name": "D2",
                    "ticks": 41880,
                    "time": 149.571279,
                    "velocity": 1
                },
                {
                    "duration": 0.21428550000001678,
                    "durationTicks": 60,
                    "midi": 57,
                    "name": "A3",
                    "ticks": 41880,
                    "time": 149.571279,
                    "velocity": 1
                },
                {
                    "duration": 0.21428549999998836,
                    "durationTicks": 60,
                    "midi": 38,
                    "name": "D2",
                    "ticks": 41940,
                    "time": 149.78556450000002,
                    "velocity": 1
                },
                {
                    "duration": 0.21428549999998836,
                    "durationTicks": 60,
                    "midi": 57,
                    "name": "A3",
                    "ticks": 41940,
                    "time": 149.78556450000002,
                    "velocity": 1
                },
                {
                    "duration": 0.21428550000001678,
                    "durationTicks": 60,
                    "midi": 45,
                    "name": "A2",
                    "ticks": 42000,
                    "time": 149.99985,
                    "velocity": 1
                },
                {
                    "duration": 0.10714274999997997,
                    "durationTicks": 30,
                    "midi": 45,
                    "name": "A2",
                    "ticks": 42060,
                    "time": 150.21413550000003,
                    "velocity": 1
                },
                {
                    "duration": 0.10714275000000839,
                    "durationTicks": 30,
                    "midi": 45,
                    "name": "A2",
                    "ticks": 42090,
                    "time": 150.32127825,
                    "velocity": 1
                },
                {
                    "duration": 0.21428549999998836,
                    "durationTicks": 60,
                    "midi": 47,
                    "name": "B2",
                    "ticks": 42120,
                    "time": 150.42842100000001,
                    "velocity": 1
                },
                {
                    "duration": 0.10714275000000839,
                    "durationTicks": 30,
                    "midi": 47,
                    "name": "B2",
                    "ticks": 42180,
                    "time": 150.6427065,
                    "velocity": 1
                },
                {
                    "duration": 0.10714275000000839,
                    "durationTicks": 30,
                    "midi": 47,
                    "name": "B2",
                    "ticks": 42210,
                    "time": 150.74984925,
                    "velocity": 1
                },
                {
                    "duration": 0.21428549999998836,
                    "durationTicks": 60,
                    "midi": 57,
                    "name": "A3",
                    "ticks": 42240,
                    "time": 150.85699200000002,
                    "velocity": 1
                },
                {
                    "duration": 0.42857100000000514,
                    "durationTicks": 120,
                    "midi": 36,
                    "name": "C2",
                    "ticks": 42240,
                    "time": 150.85699200000002,
                    "velocity": 1
                },
                {
                    "duration": 0.21428550000001678,
                    "durationTicks": 60,
                    "midi": 59,
                    "name": "B3",
                    "ticks": 42300,
                    "time": 151.0712775,
                    "velocity": 1
                },
                {
                    "duration": 0.21428549999998836,
                    "durationTicks": 60,
                    "midi": 38,
                    "name": "D2",
                    "ticks": 42360,
                    "time": 151.28556300000002,
                    "velocity": 1
                },
                {
                    "duration": 0.21428549999998836,
                    "durationTicks": 60,
                    "midi": 59,
                    "name": "B3",
                    "ticks": 42360,
                    "time": 151.28556300000002,
                    "velocity": 1
                },
                {
                    "duration": 0.21428549999998836,
                    "durationTicks": 60,
                    "midi": 59,
                    "name": "B3",
                    "ticks": 42420,
                    "time": 151.4998485,
                    "velocity": 1
                },
                {
                    "duration": 0.21428550000001678,
                    "durationTicks": 60,
                    "midi": 59,
                    "name": "B3",
                    "ticks": 42480,
                    "time": 151.714134,
                    "velocity": 1
                },
                {
                    "duration": 0.42857100000000514,
                    "durationTicks": 120,
                    "midi": 36,
                    "name": "C2",
                    "ticks": 42480,
                    "time": 151.714134,
                    "velocity": 1
                },
                {
                    "duration": 0.10714275000000839,
                    "durationTicks": 30,
                    "midi": 45,
                    "name": "A2",
                    "ticks": 42540,
                    "time": 151.92841950000002,
                    "velocity": 1
                },
                {
                    "duration": 0.10714274999997997,
                    "durationTicks": 30,
                    "midi": 45,
                    "name": "A2",
                    "ticks": 42570,
                    "time": 152.03556225000003,
                    "velocity": 1
                },
                {
                    "duration": 0.21428550000001678,
                    "durationTicks": 60,
                    "midi": 57,
                    "name": "A3",
                    "ticks": 42600,
                    "time": 152.142705,
                    "velocity": 1
                },
                {
                    "duration": 0.21428550000001678,
                    "durationTicks": 60,
                    "midi": 36,
                    "name": "C2",
                    "ticks": 42600,
                    "time": 152.142705,
                    "velocity": 1
                },
                {
                    "duration": 0.21428549999998836,
                    "durationTicks": 60,
                    "midi": 57,
                    "name": "A3",
                    "ticks": 42660,
                    "time": 152.35699050000002,
                    "velocity": 1
                },
                {
                    "duration": 0.21428549999998836,
                    "durationTicks": 60,
                    "midi": 36,
                    "name": "C2",
                    "ticks": 42660,
                    "time": 152.35699050000002,
                    "velocity": 1
                },
                {
                    "duration": 0.21428549999998836,
                    "durationTicks": 60,
                    "midi": 57,
                    "name": "A3",
                    "ticks": 42720,
                    "time": 152.571276,
                    "velocity": 1
                },
                {
                    "duration": 0.42857100000000514,
                    "durationTicks": 120,
                    "midi": 36,
                    "name": "C2",
                    "ticks": 42720,
                    "time": 152.571276,
                    "velocity": 1
                },
                {
                    "duration": 0.21428550000001678,
                    "durationTicks": 60,
                    "midi": 59,
                    "name": "B3",
                    "ticks": 42780,
                    "time": 152.7855615,
                    "velocity": 1
                },
                {
                    "duration": 0.21428549999998836,
                    "durationTicks": 60,
                    "midi": 38,
                    "name": "D2",
                    "ticks": 42840,
                    "time": 152.99984700000002,
                    "velocity": 1
                },
                {
                    "duration": 0.21428549999998836,
                    "durationTicks": 60,
                    "midi": 59,
                    "name": "B3",
                    "ticks": 42840,
                    "time": 152.99984700000002,
                    "velocity": 1
                },
                {
                    "duration": 0.21428550000001678,
                    "durationTicks": 60,
                    "midi": 59,
                    "name": "B3",
                    "ticks": 42900,
                    "time": 153.2141325,
                    "velocity": 1
                },
                {
                    "duration": 0.21428549999998836,
                    "durationTicks": 60,
                    "midi": 59,
                    "name": "B3",
                    "ticks": 42960,
                    "time": 153.42841800000002,
                    "velocity": 1
                },
                {
                    "duration": 0.4285709999999767,
                    "durationTicks": 120,
                    "midi": 36,
                    "name": "C2",
                    "ticks": 42960,
                    "time": 153.42841800000002,
                    "velocity": 1
                },
                {
                    "duration": 0.10714275000000839,
                    "durationTicks": 30,
                    "midi": 45,
                    "name": "A2",
                    "ticks": 43020,
                    "time": 153.6427035,
                    "velocity": 1
                },
                {
                    "duration": 0.10714274999997997,
                    "durationTicks": 30,
                    "midi": 45,
                    "name": "A2",
                    "ticks": 43050,
                    "time": 153.74984625000002,
                    "velocity": 1
                },
                {
                    "duration": 0.21428550000001678,
                    "durationTicks": 60,
                    "midi": 57,
                    "name": "A3",
                    "ticks": 43080,
                    "time": 153.856989,
                    "velocity": 1
                },
                {
                    "duration": 0.21428550000001678,
                    "durationTicks": 60,
                    "midi": 36,
                    "name": "C2",
                    "ticks": 43080,
                    "time": 153.856989,
                    "velocity": 1
                },
                {
                    "duration": 0.21428549999998836,
                    "durationTicks": 60,
                    "midi": 57,
                    "name": "A3",
                    "ticks": 43140,
                    "time": 154.07127450000002,
                    "velocity": 1
                },
                {
                    "duration": 0.21428549999998836,
                    "durationTicks": 60,
                    "midi": 36,
                    "name": "C2",
                    "ticks": 43140,
                    "time": 154.07127450000002,
                    "velocity": 1
                },
                {
                    "duration": 0.21428550000001678,
                    "durationTicks": 60,
                    "midi": 57,
                    "name": "A3",
                    "ticks": 43200,
                    "time": 154.28556,
                    "velocity": 1
                },
                {
                    "duration": 0.42857100000000514,
                    "durationTicks": 120,
                    "midi": 36,
                    "name": "C2",
                    "ticks": 43200,
                    "time": 154.28556,
                    "velocity": 1
                },
                {
                    "duration": 0.21428549999998836,
                    "durationTicks": 60,
                    "midi": 59,
                    "name": "B3",
                    "ticks": 43260,
                    "time": 154.49984550000002,
                    "velocity": 1
                },
                {
                    "duration": 0.21428550000001678,
                    "durationTicks": 60,
                    "midi": 38,
                    "name": "D2",
                    "ticks": 43320,
                    "time": 154.714131,
                    "velocity": 1
                },
                {
                    "duration": 0.21428550000001678,
                    "durationTicks": 60,
                    "midi": 59,
                    "name": "B3",
                    "ticks": 43320,
                    "time": 154.714131,
                    "velocity": 1
                },
                {
                    "duration": 0.21428549999998836,
                    "durationTicks": 60,
                    "midi": 59,
                    "name": "B3",
                    "ticks": 43380,
                    "time": 154.92841650000003,
                    "velocity": 1
                },
                {
                    "duration": 0.21428549999998836,
                    "durationTicks": 60,
                    "midi": 59,
                    "name": "B3",
                    "ticks": 43440,
                    "time": 155.142702,
                    "velocity": 1
                },
                {
                    "duration": 0.42857100000000514,
                    "durationTicks": 120,
                    "midi": 36,
                    "name": "C2",
                    "ticks": 43440,
                    "time": 155.142702,
                    "velocity": 1
                },
                {
                    "duration": 0.10714275000000839,
                    "durationTicks": 30,
                    "midi": 45,
                    "name": "A2",
                    "ticks": 43500,
                    "time": 155.3569875,
                    "velocity": 1
                },
                {
                    "duration": 0.10714275000000839,
                    "durationTicks": 30,
                    "midi": 45,
                    "name": "A2",
                    "ticks": 43530,
                    "time": 155.46413025,
                    "velocity": 1
                },
                {
                    "duration": 0.21428549999998836,
                    "durationTicks": 60,
                    "midi": 57,
                    "name": "A3",
                    "ticks": 43560,
                    "time": 155.57127300000002,
                    "velocity": 1
                },
                {
                    "duration": 0.21428549999998836,
                    "durationTicks": 60,
                    "midi": 36,
                    "name": "C2",
                    "ticks": 43560,
                    "time": 155.57127300000002,
                    "velocity": 1
                },
                {
                    "duration": 0.21428550000001678,
                    "durationTicks": 60,
                    "midi": 57,
                    "name": "A3",
                    "ticks": 43620,
                    "time": 155.7855585,
                    "velocity": 1
                },
                {
                    "duration": 0.21428550000001678,
                    "durationTicks": 60,
                    "midi": 36,
                    "name": "C2",
                    "ticks": 43620,
                    "time": 155.7855585,
                    "velocity": 1
                },
                {
                    "duration": 0.21428549999998836,
                    "durationTicks": 60,
                    "midi": 57,
                    "name": "A3",
                    "ticks": 43680,
                    "time": 155.99984400000002,
                    "velocity": 1
                },
                {
                    "duration": 0.4285709999999767,
                    "durationTicks": 120,
                    "midi": 36,
                    "name": "C2",
                    "ticks": 43680,
                    "time": 155.99984400000002,
                    "velocity": 1
                },
                {
                    "duration": 0.21428549999998836,
                    "durationTicks": 60,
                    "midi": 59,
                    "name": "B3",
                    "ticks": 43740,
                    "time": 156.2141295,
                    "velocity": 1
                },
                {
                    "duration": 0.21428550000001678,
                    "durationTicks": 60,
                    "midi": 38,
                    "name": "D2",
                    "ticks": 43800,
                    "time": 156.428415,
                    "velocity": 1
                },
                {
                    "duration": 0.21428550000001678,
                    "durationTicks": 60,
                    "midi": 59,
                    "name": "B3",
                    "ticks": 43800,
                    "time": 156.428415,
                    "velocity": 1
                },
                {
                    "duration": 0.21428549999998836,
                    "durationTicks": 60,
                    "midi": 59,
                    "name": "B3",
                    "ticks": 43860,
                    "time": 156.64270050000002,
                    "velocity": 1
                },
                {
                    "duration": 0.21428550000001678,
                    "durationTicks": 60,
                    "midi": 36,
                    "name": "C2",
                    "ticks": 43920,
                    "time": 156.856986,
                    "velocity": 1
                },
                {
                    "duration": 0.21428550000001678,
                    "durationTicks": 60,
                    "midi": 59,
                    "name": "B3",
                    "ticks": 43920,
                    "time": 156.856986,
                    "velocity": 1
                },
                {
                    "duration": 0.21428549999998836,
                    "durationTicks": 60,
                    "midi": 59,
                    "name": "B3",
                    "ticks": 43980,
                    "time": 157.07127150000002,
                    "velocity": 1
                },
                {
                    "duration": 0.21428549999998836,
                    "durationTicks": 60,
                    "midi": 36,
                    "name": "C2",
                    "ticks": 43980,
                    "time": 157.07127150000002,
                    "velocity": 1
                },
                {
                    "duration": 0.10714275000000839,
                    "durationTicks": 30,
                    "midi": 45,
                    "name": "A2",
                    "ticks": 44040,
                    "time": 157.285557,
                    "velocity": 1
                },
                {
                    "duration": 0.10714274999997997,
                    "durationTicks": 30,
                    "midi": 45,
                    "name": "A2",
                    "ticks": 44070,
                    "time": 157.39269975000002,
                    "velocity": 1
                },
                {
                    "duration": 0.21428550000001678,
                    "durationTicks": 60,
                    "midi": 45,
                    "name": "A2",
                    "ticks": 44100,
                    "time": 157.4998425,
                    "velocity": 1
                },
                {
                    "duration": 0.21428549999998836,
                    "durationTicks": 60,
                    "midi": 57,
                    "name": "A3",
                    "ticks": 44160,
                    "time": 157.71412800000002,
                    "velocity": 1
                },
                {
                    "duration": 0.42857100000000514,
                    "durationTicks": 120,
                    "midi": 36,
                    "name": "C2",
                    "ticks": 44160,
                    "time": 157.71412800000002,
                    "velocity": 1
                },
                {
                    "duration": 0.21428550000001678,
                    "durationTicks": 60,
                    "midi": 59,
                    "name": "B3",
                    "ticks": 44220,
                    "time": 157.9284135,
                    "velocity": 1
                },
                {
                    "duration": 0.21428549999998836,
                    "durationTicks": 60,
                    "midi": 38,
                    "name": "D2",
                    "ticks": 44280,
                    "time": 158.14269900000002,
                    "velocity": 1
                },
                {
                    "duration": 0.21428549999998836,
                    "durationTicks": 60,
                    "midi": 59,
                    "name": "B3",
                    "ticks": 44280,
                    "time": 158.14269900000002,
                    "velocity": 1
                },
                {
                    "duration": 0.21428550000001678,
                    "durationTicks": 60,
                    "midi": 59,
                    "name": "B3",
                    "ticks": 44340,
                    "time": 158.3569845,
                    "velocity": 1
                },
                {
                    "duration": 0.21428549999998836,
                    "durationTicks": 60,
                    "midi": 59,
                    "name": "B3",
                    "ticks": 44400,
                    "time": 158.57127000000003,
                    "velocity": 1
                },
                {
                    "duration": 0.4285709999999767,
                    "durationTicks": 120,
                    "midi": 36,
                    "name": "C2",
                    "ticks": 44400,
                    "time": 158.57127000000003,
                    "velocity": 1
                },
                {
                    "duration": 0.10714275000000839,
                    "durationTicks": 30,
                    "midi": 45,
                    "name": "A2",
                    "ticks": 44460,
                    "time": 158.78555550000002,
                    "velocity": 1
                },
                {
                    "duration": 0.10714274999997997,
                    "durationTicks": 30,
                    "midi": 45,
                    "name": "A2",
                    "ticks": 44490,
                    "time": 158.89269825000002,
                    "velocity": 1
                },
                {
                    "duration": 0.21428550000001678,
                    "durationTicks": 60,
                    "midi": 57,
                    "name": "A3",
                    "ticks": 44520,
                    "time": 158.999841,
                    "velocity": 1
                },
                {
                    "duration": 0.21428550000001678,
                    "durationTicks": 60,
                    "midi": 36,
                    "name": "C2",
                    "ticks": 44520,
                    "time": 158.999841,
                    "velocity": 1
                },
                {
                    "duration": 0.21428549999998836,
                    "durationTicks": 60,
                    "midi": 57,
                    "name": "A3",
                    "ticks": 44580,
                    "time": 159.21412650000002,
                    "velocity": 1
                },
                {
                    "duration": 0.21428549999998836,
                    "durationTicks": 60,
                    "midi": 36,
                    "name": "C2",
                    "ticks": 44580,
                    "time": 159.21412650000002,
                    "velocity": 1
                },
                {
                    "duration": 0.21428550000001678,
                    "durationTicks": 60,
                    "midi": 57,
                    "name": "A3",
                    "ticks": 44640,
                    "time": 159.428412,
                    "velocity": 1
                },
                {
                    "duration": 0.42857100000000514,
                    "durationTicks": 120,
                    "midi": 36,
                    "name": "C2",
                    "ticks": 44640,
                    "time": 159.428412,
                    "velocity": 1
                },
                {
                    "duration": 0.21428549999998836,
                    "durationTicks": 60,
                    "midi": 59,
                    "name": "B3",
                    "ticks": 44700,
                    "time": 159.64269750000003,
                    "velocity": 1
                },
                {
                    "duration": 0.21428549999998836,
                    "durationTicks": 60,
                    "midi": 38,
                    "name": "D2",
                    "ticks": 44760,
                    "time": 159.856983,
                    "velocity": 1
                },
                {
                    "duration": 0.21428549999998836,
                    "durationTicks": 60,
                    "midi": 59,
                    "name": "B3",
                    "ticks": 44760,
                    "time": 159.856983,
                    "velocity": 1
                },
                {
                    "duration": 0.21428550000001678,
                    "durationTicks": 60,
                    "midi": 59,
                    "name": "B3",
                    "ticks": 44820,
                    "time": 160.0712685,
                    "velocity": 1
                },
                {
                    "duration": 0.21428549999998836,
                    "durationTicks": 60,
                    "midi": 59,
                    "name": "B3",
                    "ticks": 44880,
                    "time": 160.28555400000002,
                    "velocity": 1
                },
                {
                    "duration": 0.42857100000000514,
                    "durationTicks": 120,
                    "midi": 36,
                    "name": "C2",
                    "ticks": 44880,
                    "time": 160.28555400000002,
                    "velocity": 1
                },
                {
                    "duration": 0.10714275000000839,
                    "durationTicks": 30,
                    "midi": 45,
                    "name": "A2",
                    "ticks": 44940,
                    "time": 160.4998395,
                    "velocity": 1
                },
                {
                    "duration": 0.10714275000000839,
                    "durationTicks": 30,
                    "midi": 45,
                    "name": "A2",
                    "ticks": 44970,
                    "time": 160.60698225000002,
                    "velocity": 1
                },
                {
                    "duration": 0.21428549999998836,
                    "durationTicks": 60,
                    "midi": 57,
                    "name": "A3",
                    "ticks": 45000,
                    "time": 160.71412500000002,
                    "velocity": 1
                },
                {
                    "duration": 0.21428549999998836,
                    "durationTicks": 60,
                    "midi": 36,
                    "name": "C2",
                    "ticks": 45000,
                    "time": 160.71412500000002,
                    "velocity": 1
                },
                {
                    "duration": 0.21428549999998836,
                    "durationTicks": 60,
                    "midi": 57,
                    "name": "A3",
                    "ticks": 45060,
                    "time": 160.9284105,
                    "velocity": 1
                },
                {
                    "duration": 0.21428549999998836,
                    "durationTicks": 60,
                    "midi": 36,
                    "name": "C2",
                    "ticks": 45060,
                    "time": 160.9284105,
                    "velocity": 1
                },
                {
                    "duration": 0.21428550000001678,
                    "durationTicks": 60,
                    "midi": 57,
                    "name": "A3",
                    "ticks": 45120,
                    "time": 161.142696,
                    "velocity": 1
                },
                {
                    "duration": 0.42857100000000514,
                    "durationTicks": 120,
                    "midi": 36,
                    "name": "C2",
                    "ticks": 45120,
                    "time": 161.142696,
                    "velocity": 1
                },
                {
                    "duration": 0.21428549999998836,
                    "durationTicks": 60,
                    "midi": 59,
                    "name": "B3",
                    "ticks": 45180,
                    "time": 161.35698150000002,
                    "velocity": 1
                },
                {
                    "duration": 0.21428550000001678,
                    "durationTicks": 60,
                    "midi": 38,
                    "name": "D2",
                    "ticks": 45240,
                    "time": 161.571267,
                    "velocity": 1
                },
                {
                    "duration": 0.21428550000001678,
                    "durationTicks": 60,
                    "midi": 59,
                    "name": "B3",
                    "ticks": 45240,
                    "time": 161.571267,
                    "velocity": 1
                },
                {
                    "duration": 0.21428549999998836,
                    "durationTicks": 60,
                    "midi": 59,
                    "name": "B3",
                    "ticks": 45300,
                    "time": 161.78555250000002,
                    "velocity": 1
                },
                {
                    "duration": 0.21428549999998836,
                    "durationTicks": 60,
                    "midi": 59,
                    "name": "B3",
                    "ticks": 45360,
                    "time": 161.999838,
                    "velocity": 1
                },
                {
                    "duration": 0.42857100000000514,
                    "durationTicks": 120,
                    "midi": 36,
                    "name": "C2",
                    "ticks": 45360,
                    "time": 161.999838,
                    "velocity": 1
                },
                {
                    "duration": 0.10714275000000839,
                    "durationTicks": 30,
                    "midi": 45,
                    "name": "A2",
                    "ticks": 45420,
                    "time": 162.2141235,
                    "velocity": 1
                },
                {
                    "duration": 0.10714275000000839,
                    "durationTicks": 30,
                    "midi": 45,
                    "name": "A2",
                    "ticks": 45450,
                    "time": 162.32126625,
                    "velocity": 1
                },
                {
                    "duration": 0.21428549999998836,
                    "durationTicks": 60,
                    "midi": 57,
                    "name": "A3",
                    "ticks": 45480,
                    "time": 162.42840900000002,
                    "velocity": 1
                },
                {
                    "duration": 0.21428549999998836,
                    "durationTicks": 60,
                    "midi": 36,
                    "name": "C2",
                    "ticks": 45480,
                    "time": 162.42840900000002,
                    "velocity": 1
                },
                {
                    "duration": 0.21428550000001678,
                    "durationTicks": 60,
                    "midi": 57,
                    "name": "A3",
                    "ticks": 45540,
                    "time": 162.6426945,
                    "velocity": 1
                },
                {
                    "duration": 0.21428550000001678,
                    "durationTicks": 60,
                    "midi": 36,
                    "name": "C2",
                    "ticks": 45540,
                    "time": 162.6426945,
                    "velocity": 1
                },
                {
                    "duration": 0.42857100000000514,
                    "durationTicks": 120,
                    "midi": 36,
                    "name": "C2",
                    "ticks": 45600,
                    "time": 162.85698000000002,
                    "velocity": 1
                },
                {
                    "duration": 0.21428549999998836,
                    "durationTicks": 60,
                    "midi": 57,
                    "name": "A3",
                    "ticks": 45600,
                    "time": 162.85698000000002,
                    "velocity": 1
                },
                {
                    "duration": 0.10714275000000839,
                    "durationTicks": 30,
                    "midi": 38,
                    "name": "D2",
                    "ticks": 45660,
                    "time": 163.0712655,
                    "velocity": 1
                },
                {
                    "duration": 0.10714275000000839,
                    "durationTicks": 30,
                    "midi": 38,
                    "name": "D2",
                    "ticks": 45690,
                    "time": 163.17840825000002,
                    "velocity": 1
                },
                {
                    "duration": 0.21428549999998836,
                    "durationTicks": 60,
                    "midi": 38,
                    "name": "D2",
                    "ticks": 45720,
                    "time": 163.28555100000003,
                    "velocity": 1
                },
                {
                    "duration": 0.10714275000000839,
                    "durationTicks": 30,
                    "midi": 38,
                    "name": "D2",
                    "ticks": 45780,
                    "time": 163.49983650000001,
                    "velocity": 1
                },
                {
                    "duration": 0.10714274999997997,
                    "durationTicks": 30,
                    "midi": 38,
                    "name": "D2",
                    "ticks": 45810,
                    "time": 163.60697925000002,
                    "velocity": 1
                },
                {
                    "duration": 0.21428550000001678,
                    "durationTicks": 60,
                    "midi": 38,
                    "name": "D2",
                    "ticks": 45840,
                    "time": 163.714122,
                    "velocity": 1
                },
                {
                    "duration": 0.10714274999997997,
                    "durationTicks": 30,
                    "midi": 38,
                    "name": "D2",
                    "ticks": 45900,
                    "time": 163.92840750000002,
                    "velocity": 1
                },
                {
                    "duration": 0.10714275000000839,
                    "durationTicks": 30,
                    "midi": 38,
                    "name": "D2",
                    "ticks": 45930,
                    "time": 164.03555025,
                    "velocity": 1
                },
                {
                    "duration": 0.21428550000001678,
                    "durationTicks": 60,
                    "midi": 38,
                    "name": "D2",
                    "ticks": 45960,
                    "time": 164.142693,
                    "velocity": 1
                },
                {
                    "duration": 0.21428549999998836,
                    "durationTicks": 60,
                    "midi": 38,
                    "name": "D2",
                    "ticks": 46020,
                    "time": 164.35697850000003,
                    "velocity": 1
                },
                {
                    "duration": 0.21428549999998836,
                    "durationTicks": 60,
                    "midi": 57,
                    "name": "A3",
                    "ticks": 46080,
                    "time": 164.571264,
                    "velocity": 1
                },
                {
                    "duration": 0.42857100000000514,
                    "durationTicks": 120,
                    "midi": 36,
                    "name": "C2",
                    "ticks": 46080,
                    "time": 164.571264,
                    "velocity": 1
                },
                {
                    "duration": 0.10714275000000839,
                    "durationTicks": 30,
                    "midi": 38,
                    "name": "D2",
                    "ticks": 46140,
                    "time": 164.7855495,
                    "velocity": 1
                },
                {
                    "duration": 0.10714275000000839,
                    "durationTicks": 30,
                    "midi": 38,
                    "name": "D2",
                    "ticks": 46170,
                    "time": 164.89269225,
                    "velocity": 1
                },
                {
                    "duration": 0.21428549999998836,
                    "durationTicks": 60,
                    "midi": 38,
                    "name": "D2",
                    "ticks": 46200,
                    "time": 164.99983500000002,
                    "velocity": 1
                },
                {
                    "duration": 0.10714275000000839,
                    "durationTicks": 30,
                    "midi": 38,
                    "name": "D2",
                    "ticks": 46260,
                    "time": 165.2141205,
                    "velocity": 1
                },
                {
                    "duration": 0.10714275000000839,
                    "durationTicks": 30,
                    "midi": 38,
                    "name": "D2",
                    "ticks": 46290,
                    "time": 165.32126325000002,
                    "velocity": 1
                },
                {
                    "duration": 0.21428549999998836,
                    "durationTicks": 60,
                    "midi": 45,
                    "name": "A2",
                    "ticks": 46320,
                    "time": 165.42840600000002,
                    "velocity": 1
                },
                {
                    "duration": 0.10714275000000839,
                    "durationTicks": 30,
                    "midi": 45,
                    "name": "A2",
                    "ticks": 46380,
                    "time": 165.6426915,
                    "velocity": 1
                },
                {
                    "duration": 0.10714274999997997,
                    "durationTicks": 30,
                    "midi": 45,
                    "name": "A2",
                    "ticks": 46410,
                    "time": 165.74983425000002,
                    "velocity": 1
                },
                {
                    "duration": 0.21428550000001678,
                    "durationTicks": 60,
                    "midi": 47,
                    "name": "B2",
                    "ticks": 46440,
                    "time": 165.856977,
                    "velocity": 1
                },
                {
                    "duration": 0.21428549999998836,
                    "durationTicks": 60,
                    "midi": 47,
                    "name": "B2",
                    "ticks": 46500,
                    "time": 166.07126250000002,
                    "velocity": 1
                },
                {
                    "duration": 0.21428550000001678,
                    "durationTicks": 60,
                    "midi": 57,
                    "name": "A3",
                    "ticks": 46560,
                    "time": 166.285548,
                    "velocity": 1
                },
                {
                    "duration": 0.42857100000000514,
                    "durationTicks": 120,
                    "midi": 36,
                    "name": "C2",
                    "ticks": 46560,
                    "time": 166.285548,
                    "velocity": 1
                },
                {
                    "duration": 0.21428549999998836,
                    "durationTicks": 60,
                    "midi": 42,
                    "name": "F#2",
                    "ticks": 46620,
                    "time": 166.49983350000002,
                    "velocity": 1
                },
                {
                    "duration": 0.21428550000001678,
                    "durationTicks": 60,
                    "midi": 38,
                    "name": "D2",
                    "ticks": 46680,
                    "time": 166.714119,
                    "velocity": 1
                },
                {
                    "duration": 0.21428550000001678,
                    "durationTicks": 60,
                    "midi": 42,
                    "name": "F#2",
                    "ticks": 46680,
                    "time": 166.714119,
                    "velocity": 1
                },
                {
                    "duration": 0.21428549999998836,
                    "durationTicks": 60,
                    "midi": 42,
                    "name": "F#2",
                    "ticks": 46740,
                    "time": 166.92840450000003,
                    "velocity": 1
                },
                {
                    "duration": 0.21428549999998836,
                    "durationTicks": 60,
                    "midi": 36,
                    "name": "C2",
                    "ticks": 46800,
                    "time": 167.14269000000002,
                    "velocity": 1
                },
                {
                    "duration": 0.21428549999998836,
                    "durationTicks": 60,
                    "midi": 42,
                    "name": "F#2",
                    "ticks": 46800,
                    "time": 167.14269000000002,
                    "velocity": 1
                },
                {
                    "duration": 0.07142850000002454,
                    "durationTicks": 20,
                    "midi": 36,
                    "name": "C2",
                    "ticks": 46860,
                    "time": 167.3569755,
                    "velocity": 1
                },
                {
                    "duration": 0.21428550000001678,
                    "durationTicks": 60,
                    "midi": 42,
                    "name": "F#2",
                    "ticks": 46860,
                    "time": 167.3569755,
                    "velocity": 1
                },
                {
                    "duration": 0.0714284999999677,
                    "durationTicks": 20,
                    "midi": 36,
                    "name": "C2",
                    "ticks": 46880,
                    "time": 167.42840400000003,
                    "velocity": 1
                },
                {
                    "duration": 0.07142850000002454,
                    "durationTicks": 20,
                    "midi": 36,
                    "name": "C2",
                    "ticks": 46900,
                    "time": 167.4998325,
                    "velocity": 1
                },
                {
                    "duration": 0.21428549999998836,
                    "durationTicks": 60,
                    "midi": 38,
                    "name": "D2",
                    "ticks": 46920,
                    "time": 167.57126100000002,
                    "velocity": 1
                },
                {
                    "duration": 0.21428549999998836,
                    "durationTicks": 60,
                    "midi": 42,
                    "name": "F#2",
                    "ticks": 46920,
                    "time": 167.57126100000002,
                    "velocity": 1
                },
                {
                    "duration": 0.21428550000001678,
                    "durationTicks": 60,
                    "midi": 42,
                    "name": "F#2",
                    "ticks": 46980,
                    "time": 167.7855465,
                    "velocity": 1
                },
                {
                    "duration": 0.4285709999999767,
                    "durationTicks": 120,
                    "midi": 36,
                    "name": "C2",
                    "ticks": 47040,
                    "time": 167.99983200000003,
                    "velocity": 1
                },
                {
                    "duration": 0.21428549999998836,
                    "durationTicks": 60,
                    "midi": 57,
                    "name": "A3",
                    "ticks": 47040,
                    "time": 167.99983200000003,
                    "velocity": 1
                },
                {
                    "duration": 0.21428549999998836,
                    "durationTicks": 60,
                    "midi": 42,
                    "name": "F#2",
                    "ticks": 47100,
                    "time": 168.21411750000001,
                    "velocity": 1
                },
                {
                    "duration": 0.21428550000001678,
                    "durationTicks": 60,
                    "midi": 38,
                    "name": "D2",
                    "ticks": 47160,
                    "time": 168.428403,
                    "velocity": 1
                },
                {
                    "duration": 0.21428550000001678,
                    "durationTicks": 60,
                    "midi": 42,
                    "name": "F#2",
                    "ticks": 47160,
                    "time": 168.428403,
                    "velocity": 1
                },
                {
                    "duration": 0.21428549999998836,
                    "durationTicks": 60,
                    "midi": 42,
                    "name": "F#2",
                    "ticks": 47220,
                    "time": 168.64268850000002,
                    "velocity": 1
                },
                {
                    "duration": 0.10714275000000839,
                    "durationTicks": 30,
                    "midi": 38,
                    "name": "D2",
                    "ticks": 47280,
                    "time": 168.856974,
                    "velocity": 1
                },
                {
                    "duration": 0.10714275000000839,
                    "durationTicks": 30,
                    "midi": 38,
                    "name": "D2",
                    "ticks": 47310,
                    "time": 168.96411675000002,
                    "velocity": 1
                },
                {
                    "duration": 0.21428549999998836,
                    "durationTicks": 60,
                    "midi": 38,
                    "name": "D2",
                    "ticks": 47340,
                    "time": 169.07125950000002,
                    "velocity": 1
                },
                {
                    "duration": 0.10714275000000839,
                    "durationTicks": 30,
                    "midi": 45,
                    "name": "A2",
                    "ticks": 47400,
                    "time": 169.285545,
                    "velocity": 1
                },
                {
                    "duration": 0.10714274999997997,
                    "durationTicks": 30,
                    "midi": 45,
                    "name": "A2",
                    "ticks": 47430,
                    "time": 169.39268775000002,
                    "velocity": 1
                },
                {
                    "duration": 0.21428550000001678,
                    "durationTicks": 60,
                    "midi": 45,
                    "name": "A2",
                    "ticks": 47460,
                    "time": 169.4998305,
                    "velocity": 1
                },
                {
                    "duration": 0.21428549999998836,
                    "durationTicks": 60,
                    "midi": 57,
                    "name": "A3",
                    "ticks": 47520,
                    "time": 169.71411600000002,
                    "velocity": 1
                },
                {
                    "duration": 0.42857100000000514,
                    "durationTicks": 120,
                    "midi": 36,
                    "name": "C2",
                    "ticks": 47520,
                    "time": 169.71411600000002,
                    "velocity": 1
                },
                {
                    "duration": 0.21428550000001678,
                    "durationTicks": 60,
                    "midi": 42,
                    "name": "F#2",
                    "ticks": 47580,
                    "time": 169.9284015,
                    "velocity": 1
                },
                {
                    "duration": 0.21428549999998836,
                    "durationTicks": 60,
                    "midi": 38,
                    "name": "D2",
                    "ticks": 47640,
                    "time": 170.14268700000002,
                    "velocity": 1
                },
                {
                    "duration": 0.21428549999998836,
                    "durationTicks": 60,
                    "midi": 42,
                    "name": "F#2",
                    "ticks": 47640,
                    "time": 170.14268700000002,
                    "velocity": 1
                },
                {
                    "duration": 0.21428549999998836,
                    "durationTicks": 60,
                    "midi": 42,
                    "name": "F#2",
                    "ticks": 47700,
                    "time": 170.3569725,
                    "velocity": 1
                },
                {
                    "duration": 0.21428550000001678,
                    "durationTicks": 60,
                    "midi": 42,
                    "name": "F#2",
                    "ticks": 47760,
                    "time": 170.571258,
                    "velocity": 1
                },
                {
                    "duration": 0.42857100000000514,
                    "durationTicks": 120,
                    "midi": 36,
                    "name": "C2",
                    "ticks": 47760,
                    "time": 170.571258,
                    "velocity": 1
                },
                {
                    "duration": 0.21428549999998836,
                    "durationTicks": 60,
                    "midi": 42,
                    "name": "F#2",
                    "ticks": 47820,
                    "time": 170.78554350000002,
                    "velocity": 1
                },
                {
                    "duration": 0.21428550000001678,
                    "durationTicks": 60,
                    "midi": 38,
                    "name": "D2",
                    "ticks": 47880,
                    "time": 170.999829,
                    "velocity": 1
                },
                {
                    "duration": 0.21428550000001678,
                    "durationTicks": 60,
                    "midi": 42,
                    "name": "F#2",
                    "ticks": 47880,
                    "time": 170.999829,
                    "velocity": 1
                },
                {
                    "duration": 0.21428549999998836,
                    "durationTicks": 60,
                    "midi": 42,
                    "name": "F#2",
                    "ticks": 47940,
                    "time": 171.21411450000002,
                    "velocity": 1
                },
                {
                    "duration": 0.21428550000001678,
                    "durationTicks": 60,
                    "midi": 36,
                    "name": "C2",
                    "ticks": 48000,
                    "time": 171.4284,
                    "velocity": 1
                },
                {
                    "duration": 0.21428550000001678,
                    "durationTicks": 60,
                    "midi": 42,
                    "name": "F#2",
                    "ticks": 48000,
                    "time": 171.4284,
                    "velocity": 1
                },
                {
                    "duration": 0.07142849999999612,
                    "durationTicks": 20,
                    "midi": 36,
                    "name": "C2",
                    "ticks": 48060,
                    "time": 171.64268550000003,
                    "velocity": 1
                },
                {
                    "duration": 0.21428549999998836,
                    "durationTicks": 60,
                    "midi": 42,
                    "name": "F#2",
                    "ticks": 48060,
                    "time": 171.64268550000003,
                    "velocity": 1
                },
                {
                    "duration": 0.07142849999999612,
                    "durationTicks": 20,
                    "midi": 36,
                    "name": "C2",
                    "ticks": 48080,
                    "time": 171.71411400000002,
                    "velocity": 1
                },
                {
                    "duration": 0.07142849999999612,
                    "durationTicks": 20,
                    "midi": 36,
                    "name": "C2",
                    "ticks": 48100,
                    "time": 171.78554250000002,
                    "velocity": 1
                },
                {
                    "duration": 0.21428549999998836,
                    "durationTicks": 60,
                    "midi": 38,
                    "name": "D2",
                    "ticks": 48120,
                    "time": 171.85697100000002,
                    "velocity": 1
                },
                {
                    "duration": 0.21428549999998836,
                    "durationTicks": 60,
                    "midi": 42,
                    "name": "F#2",
                    "ticks": 48120,
                    "time": 171.85697100000002,
                    "velocity": 1
                },
                {
                    "duration": 0.07142850000002454,
                    "durationTicks": 20,
                    "midi": 36,
                    "name": "C2",
                    "ticks": 48180,
                    "time": 172.0712565,
                    "velocity": 1
                },
                {
                    "duration": 0.21428550000001678,
                    "durationTicks": 60,
                    "midi": 42,
                    "name": "F#2",
                    "ticks": 48180,
                    "time": 172.0712565,
                    "velocity": 1
                },
                {
                    "duration": 0.0714284999999677,
                    "durationTicks": 20,
                    "midi": 36,
                    "name": "C2",
                    "ticks": 48200,
                    "time": 172.14268500000003,
                    "velocity": 1
                },
                {
                    "duration": 0.07142850000002454,
                    "durationTicks": 20,
                    "midi": 36,
                    "name": "C2",
                    "ticks": 48220,
                    "time": 172.2141135,
                    "velocity": 1
                },
                {
                    "duration": 0.21428549999998836,
                    "durationTicks": 60,
                    "midi": 38,
                    "name": "D2",
                    "ticks": 48240,
                    "time": 172.28554200000002,
                    "velocity": 1
                },
                {
                    "duration": 0.21428549999998836,
                    "durationTicks": 60,
                    "midi": 42,
                    "name": "F#2",
                    "ticks": 48240,
                    "time": 172.28554200000002,
                    "velocity": 1
                },
                {
                    "duration": 0.07142850000002454,
                    "durationTicks": 20,
                    "midi": 36,
                    "name": "C2",
                    "ticks": 48300,
                    "time": 172.4998275,
                    "velocity": 1
                },
                {
                    "duration": 0.21428550000001678,
                    "durationTicks": 60,
                    "midi": 42,
                    "name": "F#2",
                    "ticks": 48300,
                    "time": 172.4998275,
                    "velocity": 1
                },
                {
                    "duration": 0.0714284999999677,
                    "durationTicks": 20,
                    "midi": 36,
                    "name": "C2",
                    "ticks": 48320,
                    "time": 172.57125600000003,
                    "velocity": 1
                },
                {
                    "duration": 0.07142850000002454,
                    "durationTicks": 20,
                    "midi": 36,
                    "name": "C2",
                    "ticks": 48340,
                    "time": 172.6426845,
                    "velocity": 1
                },
                {
                    "duration": 0.21428549999998836,
                    "durationTicks": 60,
                    "midi": 38,
                    "name": "D2",
                    "ticks": 48360,
                    "time": 172.71411300000003,
                    "velocity": 1
                },
                {
                    "duration": 0.21428549999998836,
                    "durationTicks": 60,
                    "midi": 42,
                    "name": "F#2",
                    "ticks": 48360,
                    "time": 172.71411300000003,
                    "velocity": 1
                },
                {
                    "duration": 0.21428549999998836,
                    "durationTicks": 60,
                    "midi": 36,
                    "name": "C2",
                    "ticks": 48420,
                    "time": 172.92839850000001,
                    "velocity": 1
                },
                {
                    "duration": 0.21428549999998836,
                    "durationTicks": 60,
                    "midi": 42,
                    "name": "F#2",
                    "ticks": 48420,
                    "time": 172.92839850000001,
                    "velocity": 1
                },
                {
                    "duration": 0.21428550000001678,
                    "durationTicks": 60,
                    "midi": 57,
                    "name": "A3",
                    "ticks": 48480,
                    "time": 173.142684,
                    "velocity": 1
                },
                {
                    "duration": 0.42857100000000514,
                    "durationTicks": 120,
                    "midi": 36,
                    "name": "C2",
                    "ticks": 48480,
                    "time": 173.142684,
                    "velocity": 1
                },
                {
                    "duration": 0.21428549999998836,
                    "durationTicks": 60,
                    "midi": 42,
                    "name": "F#2",
                    "ticks": 48540,
                    "time": 173.35696950000002,
                    "velocity": 1
                },
                {
                    "duration": 0.21428550000001678,
                    "durationTicks": 60,
                    "midi": 38,
                    "name": "D2",
                    "ticks": 48600,
                    "time": 173.571255,
                    "velocity": 1
                },
                {
                    "duration": 0.21428550000001678,
                    "durationTicks": 60,
                    "midi": 42,
                    "name": "F#2",
                    "ticks": 48600,
                    "time": 173.571255,
                    "velocity": 1
                },
                {
                    "duration": 0.21428549999998836,
                    "durationTicks": 60,
                    "midi": 42,
                    "name": "F#2",
                    "ticks": 48660,
                    "time": 173.78554050000002,
                    "velocity": 1
                },
                {
                    "duration": 0.21428549999998836,
                    "durationTicks": 60,
                    "midi": 42,
                    "name": "F#2",
                    "ticks": 48720,
                    "time": 173.999826,
                    "velocity": 1
                },
                {
                    "duration": 0.21428549999998836,
                    "durationTicks": 60,
                    "midi": 36,
                    "name": "C2",
                    "ticks": 48720,
                    "time": 173.999826,
                    "velocity": 1
                },
                {
                    "duration": 0.21428550000001678,
                    "durationTicks": 60,
                    "midi": 42,
                    "name": "F#2",
                    "ticks": 48780,
                    "time": 174.2141115,
                    "velocity": 1
                },
                {
                    "duration": 0.07142850000002454,
                    "durationTicks": 20,
                    "midi": 36,
                    "name": "C2",
                    "ticks": 48780,
                    "time": 174.2141115,
                    "velocity": 1
                },
                {
                    "duration": 0.0714284999999677,
                    "durationTicks": 20,
                    "midi": 36,
                    "name": "C2",
                    "ticks": 48800,
                    "time": 174.28554000000003,
                    "velocity": 1
                },
                {
                    "duration": 0.07142850000002454,
                    "durationTicks": 20,
                    "midi": 36,
                    "name": "C2",
                    "ticks": 48820,
                    "time": 174.3569685,
                    "velocity": 1
                },
                {
                    "duration": 0.21428549999998836,
                    "durationTicks": 60,
                    "midi": 38,
                    "name": "D2",
                    "ticks": 48840,
                    "time": 174.42839700000002,
                    "velocity": 1
                },
                {
                    "duration": 0.21428549999998836,
                    "durationTicks": 60,
                    "midi": 42,
                    "name": "F#2",
                    "ticks": 48840,
                    "time": 174.42839700000002,
                    "velocity": 1
                },
                {
                    "duration": 0.21428550000001678,
                    "durationTicks": 60,
                    "midi": 42,
                    "name": "F#2",
                    "ticks": 48900,
                    "time": 174.6426825,
                    "velocity": 1
                },
                {
                    "duration": 0.21428550000001678,
                    "durationTicks": 60,
                    "midi": 36,
                    "name": "C2",
                    "ticks": 48900,
                    "time": 174.6426825,
                    "velocity": 1
                },
                {
                    "duration": 0.42857100000000514,
                    "durationTicks": 120,
                    "midi": 36,
                    "name": "C2",
                    "ticks": 48960,
                    "time": 174.85696800000002,
                    "velocity": 1
                },
                {
                    "duration": 0.21428549999998836,
                    "durationTicks": 60,
                    "midi": 57,
                    "name": "A3",
                    "ticks": 48960,
                    "time": 174.85696800000002,
                    "velocity": 1
                },
                {
                    "duration": 0.21428550000001678,
                    "durationTicks": 60,
                    "midi": 42,
                    "name": "F#2",
                    "ticks": 49020,
                    "time": 175.0712535,
                    "velocity": 1
                },
                {
                    "duration": 0.21428549999998836,
                    "durationTicks": 60,
                    "midi": 38,
                    "name": "D2",
                    "ticks": 49080,
                    "time": 175.28553900000003,
                    "velocity": 1
                },
                {
                    "duration": 0.21428549999998836,
                    "durationTicks": 60,
                    "midi": 42,
                    "name": "F#2",
                    "ticks": 49080,
                    "time": 175.28553900000003,
                    "velocity": 1
                },
                {
                    "duration": 0.21428549999998836,
                    "durationTicks": 60,
                    "midi": 42,
                    "name": "F#2",
                    "ticks": 49140,
                    "time": 175.49982450000002,
                    "velocity": 1
                },
                {
                    "duration": 0.21428550000001678,
                    "durationTicks": 60,
                    "midi": 45,
                    "name": "A2",
                    "ticks": 49200,
                    "time": 175.71411,
                    "velocity": 1
                },
                {
                    "duration": 0.21428549999998836,
                    "durationTicks": 60,
                    "midi": 45,
                    "name": "A2",
                    "ticks": 49260,
                    "time": 175.92839550000002,
                    "velocity": 1
                },
                {
                    "duration": 0.10714275000000839,
                    "durationTicks": 30,
                    "midi": 47,
                    "name": "B2",
                    "ticks": 49320,
                    "time": 176.142681,
                    "velocity": 1
                },
                {
                    "duration": 0.10714275000000839,
                    "durationTicks": 30,
                    "midi": 47,
                    "name": "B2",
                    "ticks": 49350,
                    "time": 176.24982375000002,
                    "velocity": 1
                },
                {
                    "duration": 0.10714274999997997,
                    "durationTicks": 30,
                    "midi": 47,
                    "name": "B2",
                    "ticks": 49380,
                    "time": 176.35696650000003,
                    "velocity": 1
                },
                {
                    "duration": 0.10714275000000839,
                    "durationTicks": 30,
                    "midi": 47,
                    "name": "B2",
                    "ticks": 49410,
                    "time": 176.46410925,
                    "velocity": 1
                },
                {
                    "duration": 0.21428549999998836,
                    "durationTicks": 60,
                    "midi": 57,
                    "name": "A3",
                    "ticks": 49440,
                    "time": 176.57125200000002,
                    "velocity": 1
                },
                {
                    "duration": 0.42857100000000514,
                    "durationTicks": 120,
                    "midi": 36,
                    "name": "C2",
                    "ticks": 49440,
                    "time": 176.57125200000002,
                    "velocity": 1
                },
                {
                    "duration": 0.21428550000001678,
                    "durationTicks": 60,
                    "midi": 42,
                    "name": "F#2",
                    "ticks": 49500,
                    "time": 176.7855375,
                    "velocity": 1
                },
                {
                    "duration": 0.21428549999998836,
                    "durationTicks": 60,
                    "midi": 38,
                    "name": "D2",
                    "ticks": 49560,
                    "time": 176.99982300000002,
                    "velocity": 1
                },
                {
                    "duration": 0.21428549999998836,
                    "durationTicks": 60,
                    "midi": 42,
                    "name": "F#2",
                    "ticks": 49560,
                    "time": 176.99982300000002,
                    "velocity": 1
                },
                {
                    "duration": 0.21428550000001678,
                    "durationTicks": 60,
                    "midi": 42,
                    "name": "F#2",
                    "ticks": 49620,
                    "time": 177.2141085,
                    "velocity": 1
                },
                {
                    "duration": 0.21428549999998836,
                    "durationTicks": 60,
                    "midi": 42,
                    "name": "F#2",
                    "ticks": 49680,
                    "time": 177.42839400000003,
                    "velocity": 1
                },
                {
                    "duration": 0.4285709999999767,
                    "durationTicks": 120,
                    "midi": 36,
                    "name": "C2",
                    "ticks": 49680,
                    "time": 177.42839400000003,
                    "velocity": 1
                },
                {
                    "duration": 0.21428549999998836,
                    "durationTicks": 60,
                    "midi": 42,
                    "name": "F#2",
                    "ticks": 49740,
                    "time": 177.6426795,
                    "velocity": 1
                },
                {
                    "duration": 0.21428550000001678,
                    "durationTicks": 60,
                    "midi": 38,
                    "name": "D2",
                    "ticks": 49800,
                    "time": 177.856965,
                    "velocity": 1
                },
                {
                    "duration": 0.21428550000001678,
                    "durationTicks": 60,
                    "midi": 42,
                    "name": "F#2",
                    "ticks": 49800,
                    "time": 177.856965,
                    "velocity": 1
                },
                {
                    "duration": 0.21428549999998836,
                    "durationTicks": 60,
                    "midi": 42,
                    "name": "F#2",
                    "ticks": 49860,
                    "time": 178.07125050000002,
                    "velocity": 1
                },
                {
                    "duration": 0.10714275000000839,
                    "durationTicks": 30,
                    "midi": 38,
                    "name": "D2",
                    "ticks": 49920,
                    "time": 178.285536,
                    "velocity": 1
                },
                {
                    "duration": 0.10714275000000839,
                    "durationTicks": 30,
                    "midi": 38,
                    "name": "D2",
                    "ticks": 49950,
                    "time": 178.39267875000002,
                    "velocity": 1
                },
                {
                    "duration": 0.21428549999998836,
                    "durationTicks": 60,
                    "midi": 42,
                    "name": "F#2",
                    "ticks": 49980,
                    "time": 178.49982150000002,
                    "velocity": 1
                },
                {
                    "duration": 0.10714275000000839,
                    "durationTicks": 30,
                    "midi": 38,
                    "name": "D2",
                    "ticks": 50040,
                    "time": 178.714107,
                    "velocity": 1
                },
                {
                    "duration": 0.10714274999997997,
                    "durationTicks": 30,
                    "midi": 38,
                    "name": "D2",
                    "ticks": 50070,
                    "time": 178.82124975000002,
                    "velocity": 1
                },
                {
                    "duration": 0.21428550000001678,
                    "durationTicks": 60,
                    "midi": 42,
                    "name": "F#2",
                    "ticks": 50100,
                    "time": 178.9283925,
                    "velocity": 1
                },
                {
                    "duration": 0.10714275000000839,
                    "durationTicks": 30,
                    "midi": 38,
                    "name": "D2",
                    "ticks": 50160,
                    "time": 179.14267800000002,
                    "velocity": 1
                },
                {
                    "duration": 0.10714274999997997,
                    "durationTicks": 30,
                    "midi": 38,
                    "name": "D2",
                    "ticks": 50190,
                    "time": 179.24982075000003,
                    "velocity": 1
                },
                {
                    "duration": 0.19642837500001065,
                    "durationTicks": 55,
                    "midi": 42,
                    "name": "F#2",
                    "ticks": 50220,
                    "time": 179.3569635,
                    "velocity": 1
                },
                {
                    "duration": 0.017857125000006135,
                    "durationTicks": 5,
                    "midi": 38,
                    "name": "D2",
                    "ticks": 50275,
                    "time": 179.55339187500002,
                    "velocity": 0.5905511811023622
                },
                {
                    "duration": 0.19642837499998222,
                    "durationTicks": 55,
                    "midi": 38,
                    "name": "D2",
                    "ticks": 50280,
                    "time": 179.57124900000002,
                    "velocity": 1
                },
                {
                    "duration": 0.017857125000006135,
                    "durationTicks": 5,
                    "midi": 38,
                    "name": "D2",
                    "ticks": 50335,
                    "time": 179.767677375,
                    "velocity": 0.5905511811023622
                },
                {
                    "duration": 0.21428550000001678,
                    "durationTicks": 60,
                    "midi": 38,
                    "name": "D2",
                    "ticks": 50340,
                    "time": 179.7855345,
                    "velocity": 1
                },
                {
                    "duration": 0.21428549999998836,
                    "durationTicks": 60,
                    "midi": 57,
                    "name": "A3",
                    "ticks": 50400,
                    "time": 179.99982000000003,
                    "velocity": 1
                },
                {
                    "duration": 0.4285709999999767,
                    "durationTicks": 120,
                    "midi": 36,
                    "name": "C2",
                    "ticks": 50400,
                    "time": 179.99982000000003,
                    "velocity": 1
                },
                {
                    "duration": 0.21428549999998836,
                    "durationTicks": 60,
                    "midi": 42,
                    "name": "F#2",
                    "ticks": 50460,
                    "time": 180.21410550000002,
                    "velocity": 1
                },
                {
                    "duration": 0.21428550000001678,
                    "durationTicks": 60,
                    "midi": 38,
                    "name": "D2",
                    "ticks": 50520,
                    "time": 180.428391,
                    "velocity": 1
                },
                {
                    "duration": 0.21428550000001678,
                    "durationTicks": 60,
                    "midi": 42,
                    "name": "F#2",
                    "ticks": 50520,
                    "time": 180.428391,
                    "velocity": 1
                },
                {
                    "duration": 0.21428549999998836,
                    "durationTicks": 60,
                    "midi": 42,
                    "name": "F#2",
                    "ticks": 50580,
                    "time": 180.64267650000002,
                    "velocity": 1
                },
                {
                    "duration": 0.21428550000001678,
                    "durationTicks": 60,
                    "midi": 42,
                    "name": "F#2",
                    "ticks": 50640,
                    "time": 180.856962,
                    "velocity": 1
                },
                {
                    "duration": 0.21428550000001678,
                    "durationTicks": 60,
                    "midi": 36,
                    "name": "C2",
                    "ticks": 50640,
                    "time": 180.856962,
                    "velocity": 1
                },
                {
                    "duration": 0.21428549999998836,
                    "durationTicks": 60,
                    "midi": 42,
                    "name": "F#2",
                    "ticks": 50700,
                    "time": 181.07124750000003,
                    "velocity": 1
                },
                {
                    "duration": 0.07142849999999612,
                    "durationTicks": 20,
                    "midi": 36,
                    "name": "C2",
                    "ticks": 50700,
                    "time": 181.07124750000003,
                    "velocity": 1
                },
                {
                    "duration": 0.07142849999999612,
                    "durationTicks": 20,
                    "midi": 36,
                    "name": "C2",
                    "ticks": 50720,
                    "time": 181.14267600000002,
                    "velocity": 1
                },
                {
                    "duration": 0.07142849999999612,
                    "durationTicks": 20,
                    "midi": 36,
                    "name": "C2",
                    "ticks": 50740,
                    "time": 181.21410450000002,
                    "velocity": 1
                },
                {
                    "duration": 0.42857100000000514,
                    "durationTicks": 120,
                    "midi": 38,
                    "name": "D2",
                    "ticks": 50760,
                    "time": 181.28553300000002,
                    "velocity": 1
                },
                {
                    "duration": 0.42857100000000514,
                    "durationTicks": 120,
                    "midi": 57,
                    "name": "A3",
                    "ticks": 50760,
                    "time": 181.28553300000002,
                    "velocity": 1
                },
                {
                    "duration": 0.42857100000000514,
                    "durationTicks": 120,
                    "midi": 36,
                    "name": "C2",
                    "ticks": 50880,
                    "time": 181.71410400000002,
                    "velocity": 1
                },
                {
                    "duration": 0.42857100000000514,
                    "durationTicks": 120,
                    "midi": 57,
                    "name": "A3",
                    "ticks": 50880,
                    "time": 181.71410400000002,
                    "velocity": 1
                },
                {
                    "duration": 0.21428549999998836,
                    "durationTicks": 60,
                    "midi": 38,
                    "name": "D2",
                    "ticks": 51000,
                    "time": 182.14267500000003,
                    "velocity": 1
                },
                {
                    "duration": 0.21428549999998836,
                    "durationTicks": 60,
                    "midi": 42,
                    "name": "F#2",
                    "ticks": 51000,
                    "time": 182.14267500000003,
                    "velocity": 1
                },
                {
                    "duration": 0.21428549999998836,
                    "durationTicks": 60,
                    "midi": 42,
                    "name": "F#2",
                    "ticks": 51060,
                    "time": 182.3569605,
                    "velocity": 1
                },
                {
                    "duration": 0.21428550000001678,
                    "durationTicks": 60,
                    "midi": 36,
                    "name": "C2",
                    "ticks": 51120,
                    "time": 182.571246,
                    "velocity": 1
                },
                {
                    "duration": 0.21428550000001678,
                    "durationTicks": 60,
                    "midi": 57,
                    "name": "A3",
                    "ticks": 51120,
                    "time": 182.571246,
                    "velocity": 1
                },
                {
                    "duration": 0.21428549999998836,
                    "durationTicks": 60,
                    "midi": 36,
                    "name": "C2",
                    "ticks": 51180,
                    "time": 182.78553150000002,
                    "velocity": 1
                },
                {
                    "duration": 0.21428549999998836,
                    "durationTicks": 60,
                    "midi": 57,
                    "name": "A3",
                    "ticks": 51180,
                    "time": 182.78553150000002,
                    "velocity": 1
                },
                {
                    "duration": 0.21428550000001678,
                    "durationTicks": 60,
                    "midi": 36,
                    "name": "C2",
                    "ticks": 51240,
                    "time": 182.999817,
                    "velocity": 1
                },
                {
                    "duration": 0.21428550000001678,
                    "durationTicks": 60,
                    "midi": 57,
                    "name": "A3",
                    "ticks": 51240,
                    "time": 182.999817,
                    "velocity": 1
                },
                {
                    "duration": 0.21428549999998836,
                    "durationTicks": 60,
                    "midi": 36,
                    "name": "C2",
                    "ticks": 51300,
                    "time": 183.21410250000002,
                    "velocity": 1
                },
                {
                    "duration": 0.21428549999998836,
                    "durationTicks": 60,
                    "midi": 57,
                    "name": "A3",
                    "ticks": 51300,
                    "time": 183.21410250000002,
                    "velocity": 1
                },
                {
                    "duration": 0.21428550000001678,
                    "durationTicks": 60,
                    "midi": 57,
                    "name": "A3",
                    "ticks": 51360,
                    "time": 183.428388,
                    "velocity": 1
                },
                {
                    "duration": 0.42857100000000514,
                    "durationTicks": 120,
                    "midi": 36,
                    "name": "C2",
                    "ticks": 51360,
                    "time": 183.428388,
                    "velocity": 1
                },
                {
                    "duration": 0.21428549999998836,
                    "durationTicks": 60,
                    "midi": 42,
                    "name": "F#2",
                    "ticks": 51420,
                    "time": 183.64267350000003,
                    "velocity": 1
                },
                {
                    "duration": 0.21428549999998836,
                    "durationTicks": 60,
                    "midi": 38,
                    "name": "D2",
                    "ticks": 51480,
                    "time": 183.85695900000002,
                    "velocity": 1
                },
                {
                    "duration": 0.21428549999998836,
                    "durationTicks": 60,
                    "midi": 42,
                    "name": "F#2",
                    "ticks": 51480,
                    "time": 183.85695900000002,
                    "velocity": 1
                },
                {
                    "duration": 0.21428550000001678,
                    "durationTicks": 60,
                    "midi": 42,
                    "name": "F#2",
                    "ticks": 51540,
                    "time": 184.0712445,
                    "velocity": 1
                },
                {
                    "duration": 0.21428549999998836,
                    "durationTicks": 60,
                    "midi": 42,
                    "name": "F#2",
                    "ticks": 51600,
                    "time": 184.28553000000002,
                    "velocity": 1
                },
                {
                    "duration": 0.42857100000000514,
                    "durationTicks": 120,
                    "midi": 36,
                    "name": "C2",
                    "ticks": 51600,
                    "time": 184.28553000000002,
                    "velocity": 1
                },
                {
                    "duration": 0.21428550000001678,
                    "durationTicks": 60,
                    "midi": 42,
                    "name": "F#2",
                    "ticks": 51660,
                    "time": 184.4998155,
                    "velocity": 1
                },
                {
                    "duration": 0.21428549999998836,
                    "durationTicks": 60,
                    "midi": 38,
                    "name": "D2",
                    "ticks": 51720,
                    "time": 184.71410100000003,
                    "velocity": 1
                },
                {
                    "duration": 0.21428549999998836,
                    "durationTicks": 60,
                    "midi": 42,
                    "name": "F#2",
                    "ticks": 51720,
                    "time": 184.71410100000003,
                    "velocity": 1
                },
                {
                    "duration": 0.21428549999998836,
                    "durationTicks": 60,
                    "midi": 42,
                    "name": "F#2",
                    "ticks": 51780,
                    "time": 184.92838650000002,
                    "velocity": 1
                },
                {
                    "duration": 0.21428550000001678,
                    "durationTicks": 60,
                    "midi": 36,
                    "name": "C2",
                    "ticks": 51840,
                    "time": 185.142672,
                    "velocity": 1
                },
                {
                    "duration": 0.21428550000001678,
                    "durationTicks": 60,
                    "midi": 42,
                    "name": "F#2",
                    "ticks": 51840,
                    "time": 185.142672,
                    "velocity": 1
                },
                {
                    "duration": 0.07142849999999612,
                    "durationTicks": 20,
                    "midi": 36,
                    "name": "C2",
                    "ticks": 51900,
                    "time": 185.35695750000002,
                    "velocity": 1
                },
                {
                    "duration": 0.21428549999998836,
                    "durationTicks": 60,
                    "midi": 42,
                    "name": "F#2",
                    "ticks": 51900,
                    "time": 185.35695750000002,
                    "velocity": 1
                },
                {
                    "duration": 0.07142849999999612,
                    "durationTicks": 20,
                    "midi": 36,
                    "name": "C2",
                    "ticks": 51920,
                    "time": 185.42838600000002,
                    "velocity": 1
                },
                {
                    "duration": 0.07142849999999612,
                    "durationTicks": 20,
                    "midi": 36,
                    "name": "C2",
                    "ticks": 51940,
                    "time": 185.4998145,
                    "velocity": 1
                },
                {
                    "duration": 0.21428550000001678,
                    "durationTicks": 60,
                    "midi": 38,
                    "name": "D2",
                    "ticks": 51960,
                    "time": 185.571243,
                    "velocity": 1
                },
                {
                    "duration": 0.21428550000001678,
                    "durationTicks": 60,
                    "midi": 42,
                    "name": "F#2",
                    "ticks": 51960,
                    "time": 185.571243,
                    "velocity": 1
                },
                {
                    "duration": 0.07142849999999612,
                    "durationTicks": 20,
                    "midi": 36,
                    "name": "C2",
                    "ticks": 52020,
                    "time": 185.78552850000003,
                    "velocity": 1
                },
                {
                    "duration": 0.21428549999998836,
                    "durationTicks": 60,
                    "midi": 42,
                    "name": "F#2",
                    "ticks": 52020,
                    "time": 185.78552850000003,
                    "velocity": 1
                },
                {
                    "duration": 0.07142849999999612,
                    "durationTicks": 20,
                    "midi": 36,
                    "name": "C2",
                    "ticks": 52040,
                    "time": 185.85695700000002,
                    "velocity": 1
                },
                {
                    "duration": 0.07142849999999612,
                    "durationTicks": 20,
                    "midi": 36,
                    "name": "C2",
                    "ticks": 52060,
                    "time": 185.92838550000002,
                    "velocity": 1
                },
                {
                    "duration": 0.21428549999998836,
                    "durationTicks": 60,
                    "midi": 38,
                    "name": "D2",
                    "ticks": 52080,
                    "time": 185.99981400000001,
                    "velocity": 1
                },
                {
                    "duration": 0.21428549999998836,
                    "durationTicks": 60,
                    "midi": 42,
                    "name": "F#2",
                    "ticks": 52080,
                    "time": 185.99981400000001,
                    "velocity": 1
                },
                {
                    "duration": 0.07142850000002454,
                    "durationTicks": 20,
                    "midi": 36,
                    "name": "C2",
                    "ticks": 52140,
                    "time": 186.2140995,
                    "velocity": 1
                },
                {
                    "duration": 0.21428550000001678,
                    "durationTicks": 60,
                    "midi": 42,
                    "name": "F#2",
                    "ticks": 52140,
                    "time": 186.2140995,
                    "velocity": 1
                },
                {
                    "duration": 0.0714284999999677,
                    "durationTicks": 20,
                    "midi": 36,
                    "name": "C2",
                    "ticks": 52160,
                    "time": 186.28552800000003,
                    "velocity": 1
                },
                {
                    "duration": 0.07142850000002454,
                    "durationTicks": 20,
                    "midi": 36,
                    "name": "C2",
                    "ticks": 52180,
                    "time": 186.3569565,
                    "velocity": 1
                },
                {
                    "duration": 0.21428549999998836,
                    "durationTicks": 60,
                    "midi": 38,
                    "name": "D2",
                    "ticks": 52200,
                    "time": 186.42838500000002,
                    "velocity": 1
                },
                {
                    "duration": 0.21428549999998836,
                    "durationTicks": 60,
                    "midi": 42,
                    "name": "F#2",
                    "ticks": 52200,
                    "time": 186.42838500000002,
                    "velocity": 1
                },
                {
                    "duration": 0.21428550000001678,
                    "durationTicks": 60,
                    "midi": 57,
                    "name": "A3",
                    "ticks": 52260,
                    "time": 186.6426705,
                    "velocity": 1
                },
                {
                    "duration": 0.21428550000001678,
                    "durationTicks": 60,
                    "midi": 36,
                    "name": "C2",
                    "ticks": 52260,
                    "time": 186.6426705,
                    "velocity": 1
                },
                {
                    "duration": 0.4285709999999767,
                    "durationTicks": 120,
                    "midi": 36,
                    "name": "C2",
                    "ticks": 52320,
                    "time": 186.85695600000003,
                    "velocity": 1
                },
                {
                    "duration": 0.21428549999998836,
                    "durationTicks": 60,
                    "midi": 57,
                    "name": "A3",
                    "ticks": 52320,
                    "time": 186.85695600000003,
                    "velocity": 1
                },
                {
                    "duration": 0.21428549999998836,
                    "durationTicks": 60,
                    "midi": 42,
                    "name": "F#2",
                    "ticks": 52380,
                    "time": 187.0712415,
                    "velocity": 1
                },
                {
                    "duration": 0.21428550000001678,
                    "durationTicks": 60,
                    "midi": 38,
                    "name": "D2",
                    "ticks": 52440,
                    "time": 187.285527,
                    "velocity": 1
                },
                {
                    "duration": 0.21428550000001678,
                    "durationTicks": 60,
                    "midi": 42,
                    "name": "F#2",
                    "ticks": 52440,
                    "time": 187.285527,
                    "velocity": 1
                },
                {
                    "duration": 0.21428549999998836,
                    "durationTicks": 60,
                    "midi": 42,
                    "name": "F#2",
                    "ticks": 52500,
                    "time": 187.49981250000002,
                    "velocity": 1
                },
                {
                    "duration": 0.21428550000001678,
                    "durationTicks": 60,
                    "midi": 36,
                    "name": "C2",
                    "ticks": 52560,
                    "time": 187.714098,
                    "velocity": 1
                },
                {
                    "duration": 0.21428550000001678,
                    "durationTicks": 60,
                    "midi": 42,
                    "name": "F#2",
                    "ticks": 52560,
                    "time": 187.714098,
                    "velocity": 1
                },
                {
                    "duration": 0.07142849999999612,
                    "durationTicks": 20,
                    "midi": 36,
                    "name": "C2",
                    "ticks": 52620,
                    "time": 187.92838350000002,
                    "velocity": 1
                },
                {
                    "duration": 0.21428549999998836,
                    "durationTicks": 60,
                    "midi": 42,
                    "name": "F#2",
                    "ticks": 52620,
                    "time": 187.92838350000002,
                    "velocity": 1
                },
                {
                    "duration": 0.07142849999999612,
                    "durationTicks": 20,
                    "midi": 36,
                    "name": "C2",
                    "ticks": 52640,
                    "time": 187.99981200000002,
                    "velocity": 1
                },
                {
                    "duration": 0.07142849999999612,
                    "durationTicks": 20,
                    "midi": 36,
                    "name": "C2",
                    "ticks": 52660,
                    "time": 188.07124050000002,
                    "velocity": 1
                },
                {
                    "duration": 0.21428550000001678,
                    "durationTicks": 60,
                    "midi": 38,
                    "name": "D2",
                    "ticks": 52680,
                    "time": 188.142669,
                    "velocity": 1
                },
                {
                    "duration": 0.21428550000001678,
                    "durationTicks": 60,
                    "midi": 42,
                    "name": "F#2",
                    "ticks": 52680,
                    "time": 188.142669,
                    "velocity": 1
                },
                {
                    "duration": 0.21428549999998836,
                    "durationTicks": 60,
                    "midi": 42,
                    "name": "F#2",
                    "ticks": 52740,
                    "time": 188.35695450000003,
                    "velocity": 1
                },
                {
                    "duration": 0.21428549999998836,
                    "durationTicks": 60,
                    "midi": 57,
                    "name": "A3",
                    "ticks": 52800,
                    "time": 188.57124000000002,
                    "velocity": 1
                },
                {
                    "duration": 0.42857100000000514,
                    "durationTicks": 120,
                    "midi": 36,
                    "name": "C2",
                    "ticks": 52800,
                    "time": 188.57124000000002,
                    "velocity": 1
                },
                {
                    "duration": 0.21428550000001678,
                    "durationTicks": 60,
                    "midi": 42,
                    "name": "F#2",
                    "ticks": 52860,
                    "time": 188.7855255,
                    "velocity": 1
                },
                {
                    "duration": 0.21428549999998836,
                    "durationTicks": 60,
                    "midi": 38,
                    "name": "D2",
                    "ticks": 52920,
                    "time": 188.99981100000002,
                    "velocity": 1
                },
                {
                    "duration": 0.21428549999998836,
                    "durationTicks": 60,
                    "midi": 42,
                    "name": "F#2",
                    "ticks": 52920,
                    "time": 188.99981100000002,
                    "velocity": 1
                },
                {
                    "duration": 0.21428550000001678,
                    "durationTicks": 60,
                    "midi": 42,
                    "name": "F#2",
                    "ticks": 52980,
                    "time": 189.2140965,
                    "velocity": 1
                },
                {
                    "duration": 0.4285709999999767,
                    "durationTicks": 120,
                    "midi": 38,
                    "name": "D2",
                    "ticks": 53040,
                    "time": 189.42838200000003,
                    "velocity": 1
                },
                {
                    "duration": 0.4285709999999767,
                    "durationTicks": 120,
                    "midi": 57,
                    "name": "A3",
                    "ticks": 53040,
                    "time": 189.42838200000003,
                    "velocity": 1
                },
                {
                    "duration": 0.07142849999999612,
                    "durationTicks": 20,
                    "midi": 36,
                    "name": "C2",
                    "ticks": 53100,
                    "time": 189.64266750000002,
                    "velocity": 1
                },
                {
                    "duration": 0.07142849999999612,
                    "durationTicks": 20,
                    "midi": 36,
                    "name": "C2",
                    "ticks": 53120,
                    "time": 189.714096,
                    "velocity": 1
                },
                {
                    "duration": 0.07142849999999612,
                    "durationTicks": 20,
                    "midi": 36,
                    "name": "C2",
                    "ticks": 53140,
                    "time": 189.7855245,
                    "velocity": 1
                },
                {
                    "duration": 0.42857100000000514,
                    "durationTicks": 120,
                    "midi": 38,
                    "name": "D2",
                    "ticks": 53160,
                    "time": 189.856953,
                    "velocity": 1
                },
                {
                    "duration": 0.42857100000000514,
                    "durationTicks": 120,
                    "midi": 57,
                    "name": "A3",
                    "ticks": 53160,
                    "time": 189.856953,
                    "velocity": 1
                },
                {
                    "duration": 0.07142849999999612,
                    "durationTicks": 20,
                    "midi": 36,
                    "name": "C2",
                    "ticks": 53220,
                    "time": 190.07123850000002,
                    "velocity": 1
                },
                {
                    "duration": 0.07142849999999612,
                    "durationTicks": 20,
                    "midi": 36,
                    "name": "C2",
                    "ticks": 53240,
                    "time": 190.14266700000002,
                    "velocity": 1
                },
                {
                    "duration": 0.07142849999999612,
                    "durationTicks": 20,
                    "midi": 36,
                    "name": "C2",
                    "ticks": 53260,
                    "time": 190.2140955,
                    "velocity": 1
                },
                {
                    "duration": 0.42857100000000514,
                    "durationTicks": 120,
                    "midi": 38,
                    "name": "D2",
                    "ticks": 53280,
                    "time": 190.285524,
                    "velocity": 1
                },
                {
                    "duration": 0.42857100000000514,
                    "durationTicks": 120,
                    "midi": 57,
                    "name": "A3",
                    "ticks": 53280,
                    "time": 190.285524,
                    "velocity": 1
                },
                {
                    "duration": 0.07142850000002454,
                    "durationTicks": 20,
                    "midi": 36,
                    "name": "C2",
                    "ticks": 53580,
                    "time": 191.3569515,
                    "velocity": 1
                },
                {
                    "duration": 0.0714284999999677,
                    "durationTicks": 20,
                    "midi": 36,
                    "name": "C2",
                    "ticks": 53600,
                    "time": 191.42838000000003,
                    "velocity": 1
                },
                {
                    "duration": 0.07142850000002454,
                    "durationTicks": 20,
                    "midi": 36,
                    "name": "C2",
                    "ticks": 53620,
                    "time": 191.4998085,
                    "velocity": 1
                },
                {
                    "duration": 0.017857125000006135,
                    "durationTicks": 5,
                    "midi": 38,
                    "name": "D2",
                    "ticks": 53635,
                    "time": 191.55337987500002,
                    "velocity": 0.5905511811023622
                },
                {
                    "duration": 0.42857100000000514,
                    "durationTicks": 120,
                    "midi": 38,
                    "name": "D2",
                    "ticks": 53640,
                    "time": 191.57123700000002,
                    "velocity": 1
                },
                {
                    "duration": 0.2884610000000123,
                    "durationTicks": 120,
                    "midi": 36,
                    "name": "C2",
                    "ticks": 53760,
                    "time": 191.99980800000003,
                    "velocity": 1
                },
                {
                    "duration": 0.2884610000000123,
                    "durationTicks": 120,
                    "midi": 57,
                    "name": "A3",
                    "ticks": 53760,
                    "time": 191.99980800000003,
                    "velocity": 1
                },
                {
                    "duration": 0.28846099999998387,
                    "durationTicks": 120,
                    "midi": 42,
                    "name": "F#2",
                    "ticks": 53880,
                    "time": 192.28826900000004,
                    "velocity": 1
                },
                {
                    "duration": 0.28846099999998387,
                    "durationTicks": 120,
                    "midi": 38,
                    "name": "D2",
                    "ticks": 53880,
                    "time": 192.28826900000004,
                    "velocity": 1
                },
                {
                    "duration": 0.14423049999999193,
                    "durationTicks": 60,
                    "midi": 36,
                    "name": "C2",
                    "ticks": 54000,
                    "time": 192.57673000000003,
                    "velocity": 1
                },
                {
                    "duration": 0.2884610000000123,
                    "durationTicks": 120,
                    "midi": 42,
                    "name": "F#2",
                    "ticks": 54000,
                    "time": 192.57673000000003,
                    "velocity": 1
                },
                {
                    "duration": 0.14423050000002036,
                    "durationTicks": 60,
                    "midi": 36,
                    "name": "C2",
                    "ticks": 54060,
                    "time": 192.72096050000002,
                    "velocity": 1
                },
                {
                    "duration": 0.28846099999998387,
                    "durationTicks": 120,
                    "midi": 38,
                    "name": "D2",
                    "ticks": 54120,
                    "time": 192.86519100000004,
                    "velocity": 1
                },
                {
                    "duration": 0.28846099999998387,
                    "durationTicks": 120,
                    "midi": 42,
                    "name": "F#2",
                    "ticks": 54120,
                    "time": 192.86519100000004,
                    "velocity": 1
                },
                {
                    "duration": 0.14423050000002036,
                    "durationTicks": 60,
                    "midi": 36,
                    "name": "C2",
                    "ticks": 54240,
                    "time": 193.15365200000002,
                    "velocity": 1
                },
                {
                    "duration": 0.2884610000000123,
                    "durationTicks": 120,
                    "midi": 42,
                    "name": "F#2",
                    "ticks": 54240,
                    "time": 193.15365200000002,
                    "velocity": 1
                },
                {
                    "duration": 0.14423049999999193,
                    "durationTicks": 60,
                    "midi": 36,
                    "name": "C2",
                    "ticks": 54300,
                    "time": 193.29788250000004,
                    "velocity": 1
                },
                {
                    "duration": 0.28846099999998387,
                    "durationTicks": 120,
                    "midi": 38,
                    "name": "D2",
                    "ticks": 54360,
                    "time": 193.44211300000003,
                    "velocity": 1
                },
                {
                    "duration": 0.28846099999998387,
                    "durationTicks": 120,
                    "midi": 42,
                    "name": "F#2",
                    "ticks": 54360,
                    "time": 193.44211300000003,
                    "velocity": 1
                },
                {
                    "duration": 0.14423050000002036,
                    "durationTicks": 60,
                    "midi": 36,
                    "name": "C2",
                    "ticks": 54480,
                    "time": 193.73057400000002,
                    "velocity": 1
                },
                {
                    "duration": 0.2884610000000123,
                    "durationTicks": 120,
                    "midi": 42,
                    "name": "F#2",
                    "ticks": 54480,
                    "time": 193.73057400000002,
                    "velocity": 1
                },
                {
                    "duration": 0.14423049999999193,
                    "durationTicks": 60,
                    "midi": 36,
                    "name": "C2",
                    "ticks": 54540,
                    "time": 193.87480450000004,
                    "velocity": 1
                },
                {
                    "duration": 0.2884610000000123,
                    "durationTicks": 120,
                    "midi": 38,
                    "name": "D2",
                    "ticks": 54600,
                    "time": 194.01903500000003,
                    "velocity": 1
                },
                {
                    "duration": 0.2884610000000123,
                    "durationTicks": 120,
                    "midi": 42,
                    "name": "F#2",
                    "ticks": 54600,
                    "time": 194.01903500000003,
                    "velocity": 1
                },
                {
                    "duration": 0.14423049999999193,
                    "durationTicks": 60,
                    "midi": 36,
                    "name": "C2",
                    "ticks": 54720,
                    "time": 194.30749600000004,
                    "velocity": 1
                },
                {
                    "duration": 0.28846099999998387,
                    "durationTicks": 120,
                    "midi": 42,
                    "name": "F#2",
                    "ticks": 54720,
                    "time": 194.30749600000004,
                    "velocity": 1
                },
                {
                    "duration": 0.14423049999999193,
                    "durationTicks": 60,
                    "midi": 36,
                    "name": "C2",
                    "ticks": 54780,
                    "time": 194.45172650000004,
                    "velocity": 1
                },
                {
                    "duration": 0.2884610000000123,
                    "durationTicks": 120,
                    "midi": 38,
                    "name": "D2",
                    "ticks": 54840,
                    "time": 194.59595700000003,
                    "velocity": 1
                },
                {
                    "duration": 0.2884610000000123,
                    "durationTicks": 120,
                    "midi": 42,
                    "name": "F#2",
                    "ticks": 54840,
                    "time": 194.59595700000003,
                    "velocity": 1
                },
                {
                    "duration": 0.14423049999999193,
                    "durationTicks": 60,
                    "midi": 36,
                    "name": "C2",
                    "ticks": 54960,
                    "time": 194.88441800000004,
                    "velocity": 1
                },
                {
                    "duration": 0.28846099999998387,
                    "durationTicks": 120,
                    "midi": 42,
                    "name": "F#2",
                    "ticks": 54960,
                    "time": 194.88441800000004,
                    "velocity": 1
                },
                {
                    "duration": 0.14423049999999193,
                    "durationTicks": 60,
                    "midi": 36,
                    "name": "C2",
                    "ticks": 55020,
                    "time": 195.02864850000003,
                    "velocity": 1
                },
                {
                    "duration": 0.2884610000000123,
                    "durationTicks": 120,
                    "midi": 38,
                    "name": "D2",
                    "ticks": 55080,
                    "time": 195.17287900000002,
                    "velocity": 1
                },
                {
                    "duration": 0.2884610000000123,
                    "durationTicks": 120,
                    "midi": 42,
                    "name": "F#2",
                    "ticks": 55080,
                    "time": 195.17287900000002,
                    "velocity": 1
                },
                {
                    "duration": 0.14423049999999193,
                    "durationTicks": 60,
                    "midi": 36,
                    "name": "C2",
                    "ticks": 55200,
                    "time": 195.46134000000004,
                    "velocity": 1
                },
                {
                    "duration": 0.28846099999998387,
                    "durationTicks": 120,
                    "midi": 42,
                    "name": "F#2",
                    "ticks": 55200,
                    "time": 195.46134000000004,
                    "velocity": 1
                },
                {
                    "duration": 0.14423049999999193,
                    "durationTicks": 60,
                    "midi": 36,
                    "name": "C2",
                    "ticks": 55260,
                    "time": 195.60557050000003,
                    "velocity": 1
                },
                {
                    "duration": 0.2884610000000123,
                    "durationTicks": 120,
                    "midi": 38,
                    "name": "D2",
                    "ticks": 55320,
                    "time": 195.74980100000002,
                    "velocity": 1
                },
                {
                    "duration": 0.2884610000000123,
                    "durationTicks": 120,
                    "midi": 42,
                    "name": "F#2",
                    "ticks": 55320,
                    "time": 195.74980100000002,
                    "velocity": 1
                },
                {
                    "duration": 0.14423049999999193,
                    "durationTicks": 60,
                    "midi": 36,
                    "name": "C2",
                    "ticks": 55440,
                    "time": 196.03826200000003,
                    "velocity": 1
                },
                {
                    "duration": 0.2884610000000123,
                    "durationTicks": 120,
                    "midi": 42,
                    "name": "F#2",
                    "ticks": 55440,
                    "time": 196.03826200000003,
                    "velocity": 1
                },
                {
                    "duration": 0.14423050000002036,
                    "durationTicks": 60,
                    "midi": 36,
                    "name": "C2",
                    "ticks": 55500,
                    "time": 196.18249250000002,
                    "velocity": 1
                },
                {
                    "duration": 0.28846099999998387,
                    "durationTicks": 120,
                    "midi": 38,
                    "name": "D2",
                    "ticks": 55560,
                    "time": 196.32672300000004,
                    "velocity": 1
                },
                {
                    "duration": 0.28846099999998387,
                    "durationTicks": 120,
                    "midi": 42,
                    "name": "F#2",
                    "ticks": 55560,
                    "time": 196.32672300000004,
                    "velocity": 1
                },
                {
                    "duration": 0.2884610000000123,
                    "durationTicks": 120,
                    "midi": 36,
                    "name": "C2",
                    "ticks": 55680,
                    "time": 196.61518400000003,
                    "velocity": 1
                },
                {
                    "duration": 0.2884610000000123,
                    "durationTicks": 120,
                    "midi": 57,
                    "name": "A3",
                    "ticks": 55680,
                    "time": 196.61518400000003,
                    "velocity": 1
                },
                {
                    "duration": 0.28846099999998387,
                    "durationTicks": 120,
                    "midi": 42,
                    "name": "F#2",
                    "ticks": 55800,
                    "time": 196.90364500000004,
                    "velocity": 1
                },
                {
                    "duration": 0.28846099999998387,
                    "durationTicks": 120,
                    "midi": 38,
                    "name": "D2",
                    "ticks": 55800,
                    "time": 196.90364500000004,
                    "velocity": 1
                },
                {
                    "duration": 0.14423049999999193,
                    "durationTicks": 60,
                    "midi": 36,
                    "name": "C2",
                    "ticks": 55920,
                    "time": 197.19210600000002,
                    "velocity": 1
                },
                {
                    "duration": 0.2884610000000123,
                    "durationTicks": 120,
                    "midi": 42,
                    "name": "F#2",
                    "ticks": 55920,
                    "time": 197.19210600000002,
                    "velocity": 1
                },
                {
                    "duration": 0.14423050000002036,
                    "durationTicks": 60,
                    "midi": 36,
                    "name": "C2",
                    "ticks": 55980,
                    "time": 197.33633650000002,
                    "velocity": 1
                },
                {
                    "duration": 0.28846099999998387,
                    "durationTicks": 120,
                    "midi": 38,
                    "name": "D2",
                    "ticks": 56040,
                    "time": 197.48056700000004,
                    "velocity": 1
                },
                {
                    "duration": 0.28846099999998387,
                    "durationTicks": 120,
                    "midi": 42,
                    "name": "F#2",
                    "ticks": 56040,
                    "time": 197.48056700000004,
                    "velocity": 1
                },
                {
                    "duration": 0.14423050000002036,
                    "durationTicks": 60,
                    "midi": 36,
                    "name": "C2",
                    "ticks": 56160,
                    "time": 197.76902800000002,
                    "velocity": 1
                },
                {
                    "duration": 0.2884610000000123,
                    "durationTicks": 120,
                    "midi": 42,
                    "name": "F#2",
                    "ticks": 56160,
                    "time": 197.76902800000002,
                    "velocity": 1
                },
                {
                    "duration": 0.14423049999999193,
                    "durationTicks": 60,
                    "midi": 36,
                    "name": "C2",
                    "ticks": 56220,
                    "time": 197.91325850000004,
                    "velocity": 1
                },
                {
                    "duration": 0.28846099999998387,
                    "durationTicks": 120,
                    "midi": 38,
                    "name": "D2",
                    "ticks": 56280,
                    "time": 198.05748900000003,
                    "velocity": 1
                },
                {
                    "duration": 0.28846099999998387,
                    "durationTicks": 120,
                    "midi": 42,
                    "name": "F#2",
                    "ticks": 56280,
                    "time": 198.05748900000003,
                    "velocity": 1
                },
                {
                    "duration": 0.14423050000002036,
                    "durationTicks": 60,
                    "midi": 36,
                    "name": "C2",
                    "ticks": 56400,
                    "time": 198.34595000000002,
                    "velocity": 1
                },
                {
                    "duration": 0.2884610000000123,
                    "durationTicks": 120,
                    "midi": 42,
                    "name": "F#2",
                    "ticks": 56400,
                    "time": 198.34595000000002,
                    "velocity": 1
                },
                {
                    "duration": 0.14423049999999193,
                    "durationTicks": 60,
                    "midi": 36,
                    "name": "C2",
                    "ticks": 56460,
                    "time": 198.49018050000004,
                    "velocity": 1
                },
                {
                    "duration": 0.2884610000000123,
                    "durationTicks": 120,
                    "midi": 38,
                    "name": "D2",
                    "ticks": 56520,
                    "time": 198.63441100000003,
                    "velocity": 1
                },
                {
                    "duration": 0.2884610000000123,
                    "durationTicks": 120,
                    "midi": 42,
                    "name": "F#2",
                    "ticks": 56520,
                    "time": 198.63441100000003,
                    "velocity": 1
                },
                {
                    "duration": 0.14423049999999193,
                    "durationTicks": 60,
                    "midi": 36,
                    "name": "C2",
                    "ticks": 56640,
                    "time": 198.92287200000004,
                    "velocity": 1
                },
                {
                    "duration": 0.28846099999998387,
                    "durationTicks": 120,
                    "midi": 42,
                    "name": "F#2",
                    "ticks": 56640,
                    "time": 198.92287200000004,
                    "velocity": 1
                },
                {
                    "duration": 0.14423049999999193,
                    "durationTicks": 60,
                    "midi": 36,
                    "name": "C2",
                    "ticks": 56700,
                    "time": 199.06710250000003,
                    "velocity": 1
                },
                {
                    "duration": 0.2884610000000123,
                    "durationTicks": 120,
                    "midi": 38,
                    "name": "D2",
                    "ticks": 56760,
                    "time": 199.21133300000002,
                    "velocity": 1
                },
                {
                    "duration": 0.2884610000000123,
                    "durationTicks": 120,
                    "midi": 42,
                    "name": "F#2",
                    "ticks": 56760,
                    "time": 199.21133300000002,
                    "velocity": 1
                },
                {
                    "duration": 0.14423049999999193,
                    "durationTicks": 60,
                    "midi": 36,
                    "name": "C2",
                    "ticks": 56880,
                    "time": 199.49979400000004,
                    "velocity": 1
                },
                {
                    "duration": 0.28846099999998387,
                    "durationTicks": 120,
                    "midi": 42,
                    "name": "F#2",
                    "ticks": 56880,
                    "time": 199.49979400000004,
                    "velocity": 1
                },
                {
                    "duration": 0.14423049999999193,
                    "durationTicks": 60,
                    "midi": 36,
                    "name": "C2",
                    "ticks": 56940,
                    "time": 199.64402450000003,
                    "velocity": 1
                },
                {
                    "duration": 0.2884610000000123,
                    "durationTicks": 120,
                    "midi": 38,
                    "name": "D2",
                    "ticks": 57000,
                    "time": 199.78825500000002,
                    "velocity": 1
                },
                {
                    "duration": 0.2884610000000123,
                    "durationTicks": 120,
                    "midi": 42,
                    "name": "F#2",
                    "ticks": 57000,
                    "time": 199.78825500000002,
                    "velocity": 1
                },
                {
                    "duration": 0.28846099999998387,
                    "durationTicks": 120,
                    "midi": 42,
                    "name": "F#2",
                    "ticks": 57120,
                    "time": 200.07671600000003,
                    "velocity": 1
                },
                {
                    "duration": 0.14423049999999193,
                    "durationTicks": 60,
                    "midi": 36,
                    "name": "C2",
                    "ticks": 57120,
                    "time": 200.07671600000003,
                    "velocity": 1
                },
                {
                    "duration": 0.14423049999999193,
                    "durationTicks": 60,
                    "midi": 36,
                    "name": "C2",
                    "ticks": 57180,
                    "time": 200.22094650000003,
                    "velocity": 1
                },
                {
                    "duration": 0.2884610000000123,
                    "durationTicks": 120,
                    "midi": 38,
                    "name": "D2",
                    "ticks": 57240,
                    "time": 200.36517700000002,
                    "velocity": 1
                },
                {
                    "duration": 0.2884610000000123,
                    "durationTicks": 120,
                    "midi": 57,
                    "name": "A3",
                    "ticks": 57240,
                    "time": 200.36517700000002,
                    "velocity": 1
                },
                {
                    "duration": 0.2884610000000123,
                    "durationTicks": 120,
                    "midi": 42,
                    "name": "F#2",
                    "ticks": 57360,
                    "time": 200.65363800000003,
                    "velocity": 1
                },
                {
                    "duration": 0.14423049999999193,
                    "durationTicks": 60,
                    "midi": 36,
                    "name": "C2",
                    "ticks": 57360,
                    "time": 200.65363800000003,
                    "velocity": 1
                },
                {
                    "duration": 0.14423050000002036,
                    "durationTicks": 60,
                    "midi": 36,
                    "name": "C2",
                    "ticks": 57420,
                    "time": 200.79786850000002,
                    "velocity": 1
                },
                {
                    "duration": 0.28846099999998387,
                    "durationTicks": 120,
                    "midi": 38,
                    "name": "D2",
                    "ticks": 57480,
                    "time": 200.94209900000004,
                    "velocity": 1
                },
                {
                    "duration": 0.28846099999998387,
                    "durationTicks": 120,
                    "midi": 57,
                    "name": "A3",
                    "ticks": 57480,
                    "time": 200.94209900000004,
                    "velocity": 1
                },
                {
                    "duration": 0.14423049999999193,
                    "durationTicks": 60,
                    "midi": 36,
                    "name": "C2",
                    "ticks": 57600,
                    "time": 201.23056000000003,
                    "velocity": 1
                },
                {
                    "duration": 0.2884610000000123,
                    "durationTicks": 120,
                    "midi": 42,
                    "name": "F#2",
                    "ticks": 57600,
                    "time": 201.23056000000003,
                    "velocity": 1
                },
                {
                    "duration": 0.14423050000002036,
                    "durationTicks": 60,
                    "midi": 36,
                    "name": "C2",
                    "ticks": 57660,
                    "time": 201.37479050000002,
                    "velocity": 1
                },
                {
                    "duration": 0.28846099999998387,
                    "durationTicks": 120,
                    "midi": 38,
                    "name": "D2",
                    "ticks": 57720,
                    "time": 201.51902100000004,
                    "velocity": 1
                },
                {
                    "duration": 0.28846099999998387,
                    "durationTicks": 120,
                    "midi": 42,
                    "name": "F#2",
                    "ticks": 57720,
                    "time": 201.51902100000004,
                    "velocity": 1
                },
                {
                    "duration": 0.14423050000002036,
                    "durationTicks": 60,
                    "midi": 36,
                    "name": "C2",
                    "ticks": 57840,
                    "time": 201.80748200000002,
                    "velocity": 1
                },
                {
                    "duration": 0.2884610000000123,
                    "durationTicks": 120,
                    "midi": 42,
                    "name": "F#2",
                    "ticks": 57840,
                    "time": 201.80748200000002,
                    "velocity": 1
                },
                {
                    "duration": 0.14423049999999193,
                    "durationTicks": 60,
                    "midi": 36,
                    "name": "C2",
                    "ticks": 57900,
                    "time": 201.95171250000004,
                    "velocity": 1
                },
                {
                    "duration": 0.28846099999998387,
                    "durationTicks": 120,
                    "midi": 38,
                    "name": "D2",
                    "ticks": 57960,
                    "time": 202.09594300000003,
                    "velocity": 1
                },
                {
                    "duration": 0.28846099999998387,
                    "durationTicks": 120,
                    "midi": 42,
                    "name": "F#2",
                    "ticks": 57960,
                    "time": 202.09594300000003,
                    "velocity": 1
                },
                {
                    "duration": 0.14423050000002036,
                    "durationTicks": 60,
                    "midi": 36,
                    "name": "C2",
                    "ticks": 58080,
                    "time": 202.38440400000002,
                    "velocity": 1
                },
                {
                    "duration": 0.2884610000000123,
                    "durationTicks": 120,
                    "midi": 42,
                    "name": "F#2",
                    "ticks": 58080,
                    "time": 202.38440400000002,
                    "velocity": 1
                },
                {
                    "duration": 0.14423049999999193,
                    "durationTicks": 60,
                    "midi": 36,
                    "name": "C2",
                    "ticks": 58140,
                    "time": 202.52863450000004,
                    "velocity": 1
                },
                {
                    "duration": 0.2884610000000123,
                    "durationTicks": 120,
                    "midi": 38,
                    "name": "D2",
                    "ticks": 58200,
                    "time": 202.67286500000003,
                    "velocity": 1
                },
                {
                    "duration": 0.2884610000000123,
                    "durationTicks": 120,
                    "midi": 42,
                    "name": "F#2",
                    "ticks": 58200,
                    "time": 202.67286500000003,
                    "velocity": 1
                },
                {
                    "duration": 0.14423049999999193,
                    "durationTicks": 60,
                    "midi": 36,
                    "name": "C2",
                    "ticks": 58320,
                    "time": 202.96132600000004,
                    "velocity": 1
                },
                {
                    "duration": 0.28846099999998387,
                    "durationTicks": 120,
                    "midi": 42,
                    "name": "F#2",
                    "ticks": 58320,
                    "time": 202.96132600000004,
                    "velocity": 1
                },
                {
                    "duration": 0.14423049999999193,
                    "durationTicks": 60,
                    "midi": 36,
                    "name": "C2",
                    "ticks": 58380,
                    "time": 203.10555650000003,
                    "velocity": 1
                },
                {
                    "duration": 0.2884610000000123,
                    "durationTicks": 120,
                    "midi": 38,
                    "name": "D2",
                    "ticks": 58440,
                    "time": 203.24978700000003,
                    "velocity": 1
                },
                {
                    "duration": 0.2884610000000123,
                    "durationTicks": 120,
                    "midi": 42,
                    "name": "F#2",
                    "ticks": 58440,
                    "time": 203.24978700000003,
                    "velocity": 1
                },
                {
                    "duration": 0.14423049999999193,
                    "durationTicks": 60,
                    "midi": 36,
                    "name": "C2",
                    "ticks": 58560,
                    "time": 203.53824800000004,
                    "velocity": 1
                },
                {
                    "duration": 0.28846099999998387,
                    "durationTicks": 120,
                    "midi": 42,
                    "name": "F#2",
                    "ticks": 58560,
                    "time": 203.53824800000004,
                    "velocity": 1
                },
                {
                    "duration": 0.14423049999999193,
                    "durationTicks": 60,
                    "midi": 36,
                    "name": "C2",
                    "ticks": 58620,
                    "time": 203.68247850000003,
                    "velocity": 1
                },
                {
                    "duration": 0.2884610000000123,
                    "durationTicks": 120,
                    "midi": 38,
                    "name": "D2",
                    "ticks": 58680,
                    "time": 203.82670900000002,
                    "velocity": 1
                },
                {
                    "duration": 0.2884610000000123,
                    "durationTicks": 120,
                    "midi": 42,
                    "name": "F#2",
                    "ticks": 58680,
                    "time": 203.82670900000002,
                    "velocity": 1
                },
                {
                    "duration": 0.14423049999999193,
                    "durationTicks": 60,
                    "midi": 36,
                    "name": "C2",
                    "ticks": 58800,
                    "time": 204.11517000000003,
                    "velocity": 1
                },
                {
                    "duration": 0.28846099999998387,
                    "durationTicks": 120,
                    "midi": 42,
                    "name": "F#2",
                    "ticks": 58800,
                    "time": 204.11517000000003,
                    "velocity": 1
                },
                {
                    "duration": 0.14423049999999193,
                    "durationTicks": 60,
                    "midi": 36,
                    "name": "C2",
                    "ticks": 58860,
                    "time": 204.25940050000003,
                    "velocity": 1
                },
                {
                    "duration": 0.2884610000000123,
                    "durationTicks": 120,
                    "midi": 38,
                    "name": "D2",
                    "ticks": 58920,
                    "time": 204.40363100000002,
                    "velocity": 1
                },
                {
                    "duration": 0.2884610000000123,
                    "durationTicks": 120,
                    "midi": 42,
                    "name": "F#2",
                    "ticks": 58920,
                    "time": 204.40363100000002,
                    "velocity": 1
                },
                {
                    "duration": 0.07211524999999597,
                    "durationTicks": 30,
                    "midi": 38,
                    "name": "D2",
                    "ticks": 59040,
                    "time": 204.69209200000003,
                    "velocity": 1
                },
                {
                    "duration": 0.2884610000000123,
                    "durationTicks": 120,
                    "midi": 36,
                    "name": "C2",
                    "ticks": 59040,
                    "time": 204.69209200000003,
                    "velocity": 1
                },
                {
                    "duration": 0.07211524999999597,
                    "durationTicks": 30,
                    "midi": 38,
                    "name": "D2",
                    "ticks": 59070,
                    "time": 204.76420725000003,
                    "velocity": 1
                },
                {
                    "duration": 0.07211524999999597,
                    "durationTicks": 30,
                    "midi": 38,
                    "name": "D2",
                    "ticks": 59100,
                    "time": 204.83632250000002,
                    "velocity": 1
                },
                {
                    "duration": 0.07211525000002439,
                    "durationTicks": 30,
                    "midi": 38,
                    "name": "D2",
                    "ticks": 59130,
                    "time": 204.90843775000002,
                    "velocity": 1
                },
                {
                    "duration": 0.07211524999999597,
                    "durationTicks": 30,
                    "midi": 38,
                    "name": "D2",
                    "ticks": 59160,
                    "time": 204.98055300000004,
                    "velocity": 1
                },
                {
                    "duration": 0.28846099999998387,
                    "durationTicks": 120,
                    "midi": 36,
                    "name": "C2",
                    "ticks": 59160,
                    "time": 204.98055300000004,
                    "velocity": 1
                },
                {
                    "duration": 0.07211524999999597,
                    "durationTicks": 30,
                    "midi": 38,
                    "name": "D2",
                    "ticks": 59190,
                    "time": 205.05266825000004,
                    "velocity": 1
                },
                {
                    "duration": 0.07211524999999597,
                    "durationTicks": 30,
                    "midi": 38,
                    "name": "D2",
                    "ticks": 59220,
                    "time": 205.12478350000004,
                    "velocity": 1
                },
                {
                    "duration": 0.07211524999999597,
                    "durationTicks": 30,
                    "midi": 38,
                    "name": "D2",
                    "ticks": 59250,
                    "time": 205.19689875000003,
                    "velocity": 1
                },
                {
                    "duration": 0.07211524999999597,
                    "durationTicks": 30,
                    "midi": 38,
                    "name": "D2",
                    "ticks": 59280,
                    "time": 205.26901400000003,
                    "velocity": 1
                },
                {
                    "duration": 0.2884610000000123,
                    "durationTicks": 120,
                    "midi": 36,
                    "name": "C2",
                    "ticks": 59280,
                    "time": 205.26901400000003,
                    "velocity": 1
                },
                {
                    "duration": 0.07211524999999597,
                    "durationTicks": 30,
                    "midi": 38,
                    "name": "D2",
                    "ticks": 59310,
                    "time": 205.34112925000002,
                    "velocity": 1
                },
                {
                    "duration": 0.07211525000002439,
                    "durationTicks": 30,
                    "midi": 38,
                    "name": "D2",
                    "ticks": 59340,
                    "time": 205.41324450000002,
                    "velocity": 1
                },
                {
                    "duration": 0.07211524999999597,
                    "durationTicks": 30,
                    "midi": 38,
                    "name": "D2",
                    "ticks": 59370,
                    "time": 205.48535975000004,
                    "velocity": 1
                },
                {
                    "duration": 0.07211524999999597,
                    "durationTicks": 30,
                    "midi": 38,
                    "name": "D2",
                    "ticks": 59400,
                    "time": 205.55747500000004,
                    "velocity": 1
                },
                {
                    "duration": 0.28846099999998387,
                    "durationTicks": 120,
                    "midi": 36,
                    "name": "C2",
                    "ticks": 59400,
                    "time": 205.55747500000004,
                    "velocity": 1
                },
                {
                    "duration": 0.07211524999999597,
                    "durationTicks": 30,
                    "midi": 38,
                    "name": "D2",
                    "ticks": 59430,
                    "time": 205.62959025000004,
                    "velocity": 1
                },
                {
                    "duration": 0.07211524999999597,
                    "durationTicks": 30,
                    "midi": 38,
                    "name": "D2",
                    "ticks": 59460,
                    "time": 205.70170550000003,
                    "velocity": 1
                },
                {
                    "duration": 0.07211524999999597,
                    "durationTicks": 30,
                    "midi": 38,
                    "name": "D2",
                    "ticks": 59490,
                    "time": 205.77382075000003,
                    "velocity": 1
                },
                {
                    "duration": 0.2884610000000123,
                    "durationTicks": 120,
                    "midi": 36,
                    "name": "C2",
                    "ticks": 59520,
                    "time": 205.84593600000002,
                    "velocity": 1
                },
                {
                    "duration": 0.2884610000000123,
                    "durationTicks": 120,
                    "midi": 57,
                    "name": "A3",
                    "ticks": 59520,
                    "time": 205.84593600000002,
                    "velocity": 1
                },
                {
                    "duration": 0.28846099999998387,
                    "durationTicks": 120,
                    "midi": 42,
                    "name": "F#2",
                    "ticks": 59640,
                    "time": 206.13439700000004,
                    "velocity": 1
                },
                {
                    "duration": 0.28846099999998387,
                    "durationTicks": 120,
                    "midi": 38,
                    "name": "D2",
                    "ticks": 59640,
                    "time": 206.13439700000004,
                    "velocity": 1
                },
                {
                    "duration": 0.14423050000002036,
                    "durationTicks": 60,
                    "midi": 36,
                    "name": "C2",
                    "ticks": 59760,
                    "time": 206.42285800000002,
                    "velocity": 1
                },
                {
                    "duration": 0.2884610000000123,
                    "durationTicks": 120,
                    "midi": 42,
                    "name": "F#2",
                    "ticks": 59760,
                    "time": 206.42285800000002,
                    "velocity": 1
                },
                {
                    "duration": 0.14423049999999193,
                    "durationTicks": 60,
                    "midi": 36,
                    "name": "C2",
                    "ticks": 59820,
                    "time": 206.56708850000004,
                    "velocity": 1
                },
                {
                    "duration": 0.2884610000000123,
                    "durationTicks": 120,
                    "midi": 38,
                    "name": "D2",
                    "ticks": 59880,
                    "time": 206.71131900000003,
                    "velocity": 1
                },
                {
                    "duration": 0.2884610000000123,
                    "durationTicks": 120,
                    "midi": 42,
                    "name": "F#2",
                    "ticks": 59880,
                    "time": 206.71131900000003,
                    "velocity": 1
                },
                {
                    "duration": 0.14423049999999193,
                    "durationTicks": 60,
                    "midi": 36,
                    "name": "C2",
                    "ticks": 60000,
                    "time": 206.99978000000004,
                    "velocity": 1
                },
                {
                    "duration": 0.28846099999998387,
                    "durationTicks": 120,
                    "midi": 42,
                    "name": "F#2",
                    "ticks": 60000,
                    "time": 206.99978000000004,
                    "velocity": 1
                },
                {
                    "duration": 0.14423049999999193,
                    "durationTicks": 60,
                    "midi": 36,
                    "name": "C2",
                    "ticks": 60060,
                    "time": 207.14401050000004,
                    "velocity": 1
                },
                {
                    "duration": 0.2884610000000123,
                    "durationTicks": 120,
                    "midi": 38,
                    "name": "D2",
                    "ticks": 60120,
                    "time": 207.28824100000003,
                    "velocity": 1
                },
                {
                    "duration": 0.2884610000000123,
                    "durationTicks": 120,
                    "midi": 42,
                    "name": "F#2",
                    "ticks": 60120,
                    "time": 207.28824100000003,
                    "velocity": 1
                },
                {
                    "duration": 0.14423049999999193,
                    "durationTicks": 60,
                    "midi": 36,
                    "name": "C2",
                    "ticks": 60240,
                    "time": 207.57670200000004,
                    "velocity": 1
                },
                {
                    "duration": 0.28846099999998387,
                    "durationTicks": 120,
                    "midi": 42,
                    "name": "F#2",
                    "ticks": 60240,
                    "time": 207.57670200000004,
                    "velocity": 1
                },
                {
                    "duration": 0.14423049999999193,
                    "durationTicks": 60,
                    "midi": 36,
                    "name": "C2",
                    "ticks": 60300,
                    "time": 207.72093250000003,
                    "velocity": 1
                },
                {
                    "duration": 0.2884610000000123,
                    "durationTicks": 120,
                    "midi": 38,
                    "name": "D2",
                    "ticks": 60360,
                    "time": 207.86516300000002,
                    "velocity": 1
                },
                {
                    "duration": 0.2884610000000123,
                    "durationTicks": 120,
                    "midi": 42,
                    "name": "F#2",
                    "ticks": 60360,
                    "time": 207.86516300000002,
                    "velocity": 1
                },
                {
                    "duration": 0.14423049999999193,
                    "durationTicks": 60,
                    "midi": 36,
                    "name": "C2",
                    "ticks": 60480,
                    "time": 208.15362400000004,
                    "velocity": 1
                },
                {
                    "duration": 0.28846099999998387,
                    "durationTicks": 120,
                    "midi": 42,
                    "name": "F#2",
                    "ticks": 60480,
                    "time": 208.15362400000004,
                    "velocity": 1
                },
                {
                    "duration": 0.14423049999999193,
                    "durationTicks": 60,
                    "midi": 36,
                    "name": "C2",
                    "ticks": 60540,
                    "time": 208.29785450000003,
                    "velocity": 1
                },
                {
                    "duration": 0.2884610000000123,
                    "durationTicks": 120,
                    "midi": 38,
                    "name": "D2",
                    "ticks": 60600,
                    "time": 208.44208500000002,
                    "velocity": 1
                },
                {
                    "duration": 0.2884610000000123,
                    "durationTicks": 120,
                    "midi": 42,
                    "name": "F#2",
                    "ticks": 60600,
                    "time": 208.44208500000002,
                    "velocity": 1
                },
                {
                    "duration": 0.14423049999999193,
                    "durationTicks": 60,
                    "midi": 36,
                    "name": "C2",
                    "ticks": 60720,
                    "time": 208.73054600000003,
                    "velocity": 1
                },
                {
                    "duration": 0.2884610000000123,
                    "durationTicks": 120,
                    "midi": 42,
                    "name": "F#2",
                    "ticks": 60720,
                    "time": 208.73054600000003,
                    "velocity": 1
                },
                {
                    "duration": 0.14423050000002036,
                    "durationTicks": 60,
                    "midi": 36,
                    "name": "C2",
                    "ticks": 60780,
                    "time": 208.87477650000002,
                    "velocity": 1
                },
                {
                    "duration": 0.28846099999998387,
                    "durationTicks": 120,
                    "midi": 38,
                    "name": "D2",
                    "ticks": 60840,
                    "time": 209.01900700000004,
                    "velocity": 1
                },
                {
                    "duration": 0.28846099999998387,
                    "durationTicks": 120,
                    "midi": 42,
                    "name": "F#2",
                    "ticks": 60840,
                    "time": 209.01900700000004,
                    "velocity": 1
                },
                {
                    "duration": 0.14423049999999193,
                    "durationTicks": 60,
                    "midi": 36,
                    "name": "C2",
                    "ticks": 60960,
                    "time": 209.30746800000003,
                    "velocity": 1
                },
                {
                    "duration": 0.2884610000000123,
                    "durationTicks": 120,
                    "midi": 42,
                    "name": "F#2",
                    "ticks": 60960,
                    "time": 209.30746800000003,
                    "velocity": 1
                },
                {
                    "duration": 0.14423050000002036,
                    "durationTicks": 60,
                    "midi": 36,
                    "name": "C2",
                    "ticks": 61020,
                    "time": 209.45169850000002,
                    "velocity": 1
                },
                {
                    "duration": 0.28846099999998387,
                    "durationTicks": 120,
                    "midi": 57,
                    "name": "A3",
                    "ticks": 61080,
                    "time": 209.59592900000004,
                    "velocity": 1
                },
                {
                    "duration": 0.28846099999998387,
                    "durationTicks": 120,
                    "midi": 38,
                    "name": "D2",
                    "ticks": 61080,
                    "time": 209.59592900000004,
                    "velocity": 1
                },
                {
                    "duration": 0.14423050000002036,
                    "durationTicks": 60,
                    "midi": 36,
                    "name": "C2",
                    "ticks": 61200,
                    "time": 209.88439000000002,
                    "velocity": 1
                },
                {
                    "duration": 0.2884610000000123,
                    "durationTicks": 120,
                    "midi": 42,
                    "name": "F#2",
                    "ticks": 61200,
                    "time": 209.88439000000002,
                    "velocity": 1
                },
                {
                    "duration": 0.14423049999999193,
                    "durationTicks": 60,
                    "midi": 36,
                    "name": "C2",
                    "ticks": 61260,
                    "time": 210.02862050000005,
                    "velocity": 1
                },
                {
                    "duration": 0.28846099999998387,
                    "durationTicks": 120,
                    "midi": 57,
                    "name": "A3",
                    "ticks": 61320,
                    "time": 210.17285100000004,
                    "velocity": 1
                },
                {
                    "duration": 0.28846099999998387,
                    "durationTicks": 120,
                    "midi": 38,
                    "name": "D2",
                    "ticks": 61320,
                    "time": 210.17285100000004,
                    "velocity": 1
                },
                {
                    "duration": 0.14423050000002036,
                    "durationTicks": 60,
                    "midi": 36,
                    "name": "C2",
                    "ticks": 61440,
                    "time": 210.46131200000002,
                    "velocity": 1
                },
                {
                    "duration": 0.2884610000000123,
                    "durationTicks": 120,
                    "midi": 42,
                    "name": "F#2",
                    "ticks": 61440,
                    "time": 210.46131200000002,
                    "velocity": 1
                },
                {
                    "duration": 0.14423049999999193,
                    "durationTicks": 60,
                    "midi": 36,
                    "name": "C2",
                    "ticks": 61500,
                    "time": 210.60554250000004,
                    "velocity": 1
                },
                {
                    "duration": 0.2884610000000123,
                    "durationTicks": 120,
                    "midi": 38,
                    "name": "D2",
                    "ticks": 61560,
                    "time": 210.74977300000003,
                    "velocity": 1
                },
                {
                    "duration": 0.2884610000000123,
                    "durationTicks": 120,
                    "midi": 42,
                    "name": "F#2",
                    "ticks": 61560,
                    "time": 210.74977300000003,
                    "velocity": 1
                },
                {
                    "duration": 0.14423049999999193,
                    "durationTicks": 60,
                    "midi": 36,
                    "name": "C2",
                    "ticks": 61680,
                    "time": 211.03823400000005,
                    "velocity": 1
                },
                {
                    "duration": 0.28846099999998387,
                    "durationTicks": 120,
                    "midi": 42,
                    "name": "F#2",
                    "ticks": 61680,
                    "time": 211.03823400000005,
                    "velocity": 1
                },
                {
                    "duration": 0.14423049999999193,
                    "durationTicks": 60,
                    "midi": 36,
                    "name": "C2",
                    "ticks": 61740,
                    "time": 211.18246450000004,
                    "velocity": 1
                },
                {
                    "duration": 0.2884610000000123,
                    "durationTicks": 120,
                    "midi": 38,
                    "name": "D2",
                    "ticks": 61800,
                    "time": 211.32669500000003,
                    "velocity": 1
                },
                {
                    "duration": 0.2884610000000123,
                    "durationTicks": 120,
                    "midi": 42,
                    "name": "F#2",
                    "ticks": 61800,
                    "time": 211.32669500000003,
                    "velocity": 1
                },
                {
                    "duration": 0.14423049999999193,
                    "durationTicks": 60,
                    "midi": 36,
                    "name": "C2",
                    "ticks": 61920,
                    "time": 211.61515600000004,
                    "velocity": 1
                },
                {
                    "duration": 0.28846099999998387,
                    "durationTicks": 120,
                    "midi": 42,
                    "name": "F#2",
                    "ticks": 61920,
                    "time": 211.61515600000004,
                    "velocity": 1
                },
                {
                    "duration": 0.14423049999999193,
                    "durationTicks": 60,
                    "midi": 36,
                    "name": "C2",
                    "ticks": 61980,
                    "time": 211.75938650000003,
                    "velocity": 1
                },
                {
                    "duration": 0.2884610000000123,
                    "durationTicks": 120,
                    "midi": 38,
                    "name": "D2",
                    "ticks": 62040,
                    "time": 211.90361700000003,
                    "velocity": 1
                },
                {
                    "duration": 0.2884610000000123,
                    "durationTicks": 120,
                    "midi": 42,
                    "name": "F#2",
                    "ticks": 62040,
                    "time": 211.90361700000003,
                    "velocity": 1
                },
                {
                    "duration": 0.14423049999999193,
                    "durationTicks": 60,
                    "midi": 36,
                    "name": "C2",
                    "ticks": 62160,
                    "time": 212.19207800000004,
                    "velocity": 1
                },
                {
                    "duration": 0.28846099999998387,
                    "durationTicks": 120,
                    "midi": 42,
                    "name": "F#2",
                    "ticks": 62160,
                    "time": 212.19207800000004,
                    "velocity": 1
                },
                {
                    "duration": 0.14423049999999193,
                    "durationTicks": 60,
                    "midi": 36,
                    "name": "C2",
                    "ticks": 62220,
                    "time": 212.33630850000003,
                    "velocity": 1
                },
                {
                    "duration": 0.2884610000000123,
                    "durationTicks": 120,
                    "midi": 38,
                    "name": "D2",
                    "ticks": 62280,
                    "time": 212.48053900000002,
                    "velocity": 1
                },
                {
                    "duration": 0.2884610000000123,
                    "durationTicks": 120,
                    "midi": 42,
                    "name": "F#2",
                    "ticks": 62280,
                    "time": 212.48053900000002,
                    "velocity": 1
                },
                {
                    "duration": 0.14423049999999193,
                    "durationTicks": 60,
                    "midi": 36,
                    "name": "C2",
                    "ticks": 62400,
                    "time": 212.76900000000003,
                    "velocity": 1
                },
                {
                    "duration": 0.2884610000000123,
                    "durationTicks": 120,
                    "midi": 42,
                    "name": "F#2",
                    "ticks": 62400,
                    "time": 212.76900000000003,
                    "velocity": 1
                },
                {
                    "duration": 0.14423050000002036,
                    "durationTicks": 60,
                    "midi": 36,
                    "name": "C2",
                    "ticks": 62460,
                    "time": 212.91323050000003,
                    "velocity": 1
                },
                {
                    "duration": 0.28846099999998387,
                    "durationTicks": 120,
                    "midi": 38,
                    "name": "D2",
                    "ticks": 62520,
                    "time": 213.05746100000005,
                    "velocity": 1
                },
                {
                    "duration": 0.28846099999998387,
                    "durationTicks": 120,
                    "midi": 42,
                    "name": "F#2",
                    "ticks": 62520,
                    "time": 213.05746100000005,
                    "velocity": 1
                },
                {
                    "duration": 0.14423049999999193,
                    "durationTicks": 60,
                    "midi": 36,
                    "name": "C2",
                    "ticks": 62640,
                    "time": 213.34592200000003,
                    "velocity": 1
                },
                {
                    "duration": 0.2884610000000123,
                    "durationTicks": 120,
                    "midi": 42,
                    "name": "F#2",
                    "ticks": 62640,
                    "time": 213.34592200000003,
                    "velocity": 1
                },
                {
                    "duration": 0.14423050000002036,
                    "durationTicks": 60,
                    "midi": 36,
                    "name": "C2",
                    "ticks": 62700,
                    "time": 213.49015250000002,
                    "velocity": 1
                },
                {
                    "duration": 0.28846099999998387,
                    "durationTicks": 120,
                    "midi": 38,
                    "name": "D2",
                    "ticks": 62760,
                    "time": 213.63438300000004,
                    "velocity": 1
                },
                {
                    "duration": 0.28846099999998387,
                    "durationTicks": 120,
                    "midi": 42,
                    "name": "F#2",
                    "ticks": 62760,
                    "time": 213.63438300000004,
                    "velocity": 1
                },
                {
                    "duration": 0.07211524999999597,
                    "durationTicks": 30,
                    "midi": 38,
                    "name": "D2",
                    "ticks": 62880,
                    "time": 213.92284400000003,
                    "velocity": 1
                },
                {
                    "duration": 0.2884610000000123,
                    "durationTicks": 120,
                    "midi": 36,
                    "name": "C2",
                    "ticks": 62880,
                    "time": 213.92284400000003,
                    "velocity": 1
                },
                {
                    "duration": 0.07211525000002439,
                    "durationTicks": 30,
                    "midi": 38,
                    "name": "D2",
                    "ticks": 62910,
                    "time": 213.99495925000002,
                    "velocity": 1
                },
                {
                    "duration": 0.07211524999999597,
                    "durationTicks": 30,
                    "midi": 38,
                    "name": "D2",
                    "ticks": 62940,
                    "time": 214.06707450000005,
                    "velocity": 1
                },
                {
                    "duration": 0.07211524999999597,
                    "durationTicks": 30,
                    "midi": 38,
                    "name": "D2",
                    "ticks": 62970,
                    "time": 214.13918975000004,
                    "velocity": 1
                },
                {
                    "duration": 0.07211524999999597,
                    "durationTicks": 30,
                    "midi": 45,
                    "name": "A2",
                    "ticks": 63000,
                    "time": 214.21130500000004,
                    "velocity": 1
                },
                {
                    "duration": 0.28846099999998387,
                    "durationTicks": 120,
                    "midi": 36,
                    "name": "C2",
                    "ticks": 63000,
                    "time": 214.21130500000004,
                    "velocity": 1
                },
                {
                    "duration": 0.07211524999999597,
                    "durationTicks": 30,
                    "midi": 45,
                    "name": "A2",
                    "ticks": 63030,
                    "time": 214.28342025000003,
                    "velocity": 1
                },
                {
                    "duration": 0.07211524999999597,
                    "durationTicks": 30,
                    "midi": 45,
                    "name": "A2",
                    "ticks": 63060,
                    "time": 214.35553550000003,
                    "velocity": 1
                },
                {
                    "duration": 0.07211524999999597,
                    "durationTicks": 30,
                    "midi": 45,
                    "name": "A2",
                    "ticks": 63090,
                    "time": 214.42765075000003,
                    "velocity": 1
                },
                {
                    "duration": 0.07211525000002439,
                    "durationTicks": 30,
                    "midi": 47,
                    "name": "B2",
                    "ticks": 63120,
                    "time": 214.49976600000002,
                    "velocity": 1
                },
                {
                    "duration": 0.2884610000000123,
                    "durationTicks": 120,
                    "midi": 36,
                    "name": "C2",
                    "ticks": 63120,
                    "time": 214.49976600000002,
                    "velocity": 1
                },
                {
                    "duration": 0.07211524999999597,
                    "durationTicks": 30,
                    "midi": 47,
                    "name": "B2",
                    "ticks": 63150,
                    "time": 214.57188125000005,
                    "velocity": 1
                },
                {
                    "duration": 0.07211524999999597,
                    "durationTicks": 30,
                    "midi": 47,
                    "name": "B2",
                    "ticks": 63180,
                    "time": 214.64399650000004,
                    "velocity": 1
                },
                {
                    "duration": 0.07211524999999597,
                    "durationTicks": 30,
                    "midi": 47,
                    "name": "B2",
                    "ticks": 63210,
                    "time": 214.71611175000004,
                    "velocity": 1
                },
                {
                    "duration": 0.07211524999999597,
                    "durationTicks": 30,
                    "midi": 48,
                    "name": "C3",
                    "ticks": 63240,
                    "time": 214.78822700000003,
                    "velocity": 1
                },
                {
                    "duration": 0.2884610000000123,
                    "durationTicks": 120,
                    "midi": 36,
                    "name": "C2",
                    "ticks": 63240,
                    "time": 214.78822700000003,
                    "velocity": 1
                },
                {
                    "duration": 0.07211524999999597,
                    "durationTicks": 30,
                    "midi": 48,
                    "name": "C3",
                    "ticks": 63270,
                    "time": 214.86034225000003,
                    "velocity": 1
                },
                {
                    "duration": 0.07211524999999597,
                    "durationTicks": 30,
                    "midi": 48,
                    "name": "C3",
                    "ticks": 63300,
                    "time": 214.93245750000003,
                    "velocity": 1
                },
                {
                    "duration": 0.07211525000002439,
                    "durationTicks": 30,
                    "midi": 48,
                    "name": "C3",
                    "ticks": 63330,
                    "time": 215.00457275000002,
                    "velocity": 1
                },
                {
                    "duration": 0.28846099999998387,
                    "durationTicks": 120,
                    "midi": 36,
                    "name": "C2",
                    "ticks": 63360,
                    "time": 215.07668800000005,
                    "velocity": 1
                },
                {
                    "duration": 0.28846099999998387,
                    "durationTicks": 120,
                    "midi": 57,
                    "name": "A3",
                    "ticks": 63360,
                    "time": 215.07668800000005,
                    "velocity": 1
                },
                {
                    "duration": 0.2884610000000123,
                    "durationTicks": 120,
                    "midi": 38,
                    "name": "D2",
                    "ticks": 63480,
                    "time": 215.36514900000003,
                    "velocity": 1
                },
                {
                    "duration": 0.2884610000000123,
                    "durationTicks": 120,
                    "midi": 42,
                    "name": "F#2",
                    "ticks": 63480,
                    "time": 215.36514900000003,
                    "velocity": 1
                },
                {
                    "duration": 0.14423049999999193,
                    "durationTicks": 60,
                    "midi": 36,
                    "name": "C2",
                    "ticks": 63600,
                    "time": 215.65361000000004,
                    "velocity": 1
                },
                {
                    "duration": 0.28846099999998387,
                    "durationTicks": 120,
                    "midi": 42,
                    "name": "F#2",
                    "ticks": 63600,
                    "time": 215.65361000000004,
                    "velocity": 1
                },
                {
                    "duration": 0.14423049999999193,
                    "durationTicks": 60,
                    "midi": 36,
                    "name": "C2",
                    "ticks": 63660,
                    "time": 215.79784050000004,
                    "velocity": 1
                },
                {
                    "duration": 0.2884610000000123,
                    "durationTicks": 120,
                    "midi": 38,
                    "name": "D2",
                    "ticks": 63720,
                    "time": 215.94207100000003,
                    "velocity": 1
                },
                {
                    "duration": 0.2884610000000123,
                    "durationTicks": 120,
                    "midi": 42,
                    "name": "F#2",
                    "ticks": 63720,
                    "time": 215.94207100000003,
                    "velocity": 1
                },
                {
                    "duration": 0.28846099999998387,
                    "durationTicks": 120,
                    "midi": 36,
                    "name": "C2",
                    "ticks": 63840,
                    "time": 216.23053200000004,
                    "velocity": 1
                },
                {
                    "duration": 0.28846099999998387,
                    "durationTicks": 120,
                    "midi": 57,
                    "name": "A3",
                    "ticks": 63840,
                    "time": 216.23053200000004,
                    "velocity": 1
                },
                {
                    "duration": 0.14423050000002036,
                    "durationTicks": 60,
                    "midi": 38,
                    "name": "D2",
                    "ticks": 63960,
                    "time": 216.51899300000002,
                    "velocity": 1
                },
                {
                    "duration": 0.14423050000002036,
                    "durationTicks": 60,
                    "midi": 42,
                    "name": "F#2",
                    "ticks": 63960,
                    "time": 216.51899300000002,
                    "velocity": 1
                },
                {
                    "duration": 0.14423049999999193,
                    "durationTicks": 60,
                    "midi": 45,
                    "name": "A2",
                    "ticks": 64020,
                    "time": 216.66322350000004,
                    "velocity": 1
                },
                {
                    "duration": 0.14423049999999193,
                    "durationTicks": 60,
                    "midi": 47,
                    "name": "B2",
                    "ticks": 64080,
                    "time": 216.80745400000004,
                    "velocity": 1
                },
                {
                    "duration": 0.14423050000002036,
                    "durationTicks": 60,
                    "midi": 47,
                    "name": "B2",
                    "ticks": 64140,
                    "time": 216.95168450000003,
                    "velocity": 1
                },
                {
                    "duration": 0.28846099999998387,
                    "durationTicks": 120,
                    "midi": 47,
                    "name": "B2",
                    "ticks": 64200,
                    "time": 217.09591500000005,
                    "velocity": 1
                },
                {
                    "duration": 0.2884610000000123,
                    "durationTicks": 120,
                    "midi": 36,
                    "name": "C2",
                    "ticks": 64320,
                    "time": 217.38437600000003,
                    "velocity": 1
                },
                {
                    "duration": 0.2884610000000123,
                    "durationTicks": 120,
                    "midi": 57,
                    "name": "A3",
                    "ticks": 64320,
                    "time": 217.38437600000003,
                    "velocity": 1
                },
                {
                    "duration": 0.28846099999998387,
                    "durationTicks": 120,
                    "midi": 38,
                    "name": "D2",
                    "ticks": 64440,
                    "time": 217.67283700000004,
                    "velocity": 1
                },
                {
                    "duration": 0.28846099999998387,
                    "durationTicks": 120,
                    "midi": 42,
                    "name": "F#2",
                    "ticks": 64440,
                    "time": 217.67283700000004,
                    "velocity": 1
                },
                {
                    "duration": 0.14423049999999193,
                    "durationTicks": 60,
                    "midi": 36,
                    "name": "C2",
                    "ticks": 64560,
                    "time": 217.96129800000003,
                    "velocity": 1
                },
                {
                    "duration": 0.2884610000000123,
                    "durationTicks": 120,
                    "midi": 42,
                    "name": "F#2",
                    "ticks": 64560,
                    "time": 217.96129800000003,
                    "velocity": 1
                },
                {
                    "duration": 0.14423050000002036,
                    "durationTicks": 60,
                    "midi": 36,
                    "name": "C2",
                    "ticks": 64620,
                    "time": 218.10552850000002,
                    "velocity": 1
                },
                {
                    "duration": 0.28846099999998387,
                    "durationTicks": 120,
                    "midi": 38,
                    "name": "D2",
                    "ticks": 64680,
                    "time": 218.24975900000004,
                    "velocity": 1
                },
                {
                    "duration": 0.28846099999998387,
                    "durationTicks": 120,
                    "midi": 42,
                    "name": "F#2",
                    "ticks": 64680,
                    "time": 218.24975900000004,
                    "velocity": 1
                },
                {
                    "duration": 0.2884610000000123,
                    "durationTicks": 120,
                    "midi": 42,
                    "name": "F#2",
                    "ticks": 64800,
                    "time": 218.53822000000002,
                    "velocity": 1
                },
                {
                    "duration": 0.14423050000002036,
                    "durationTicks": 60,
                    "midi": 36,
                    "name": "C2",
                    "ticks": 64800,
                    "time": 218.53822000000002,
                    "velocity": 1
                },
                {
                    "duration": 0.14423049999999193,
                    "durationTicks": 60,
                    "midi": 36,
                    "name": "C2",
                    "ticks": 64860,
                    "time": 218.68245050000004,
                    "velocity": 1
                },
                {
                    "duration": 0.28846099999998387,
                    "durationTicks": 120,
                    "midi": 38,
                    "name": "D2",
                    "ticks": 64920,
                    "time": 218.82668100000004,
                    "velocity": 1
                },
                {
                    "duration": 0.28846099999998387,
                    "durationTicks": 120,
                    "midi": 42,
                    "name": "F#2",
                    "ticks": 64920,
                    "time": 218.82668100000004,
                    "velocity": 1
                },
                {
                    "duration": 0.2884610000000123,
                    "durationTicks": 120,
                    "midi": 42,
                    "name": "F#2",
                    "ticks": 65040,
                    "time": 219.11514200000002,
                    "velocity": 1
                },
                {
                    "duration": 0.14423050000002036,
                    "durationTicks": 60,
                    "midi": 36,
                    "name": "C2",
                    "ticks": 65040,
                    "time": 219.11514200000002,
                    "velocity": 1
                },
                {
                    "duration": 0.14423049999999193,
                    "durationTicks": 60,
                    "midi": 36,
                    "name": "C2",
                    "ticks": 65100,
                    "time": 219.25937250000004,
                    "velocity": 1
                },
                {
                    "duration": 0.28846099999998387,
                    "durationTicks": 120,
                    "midi": 38,
                    "name": "D2",
                    "ticks": 65160,
                    "time": 219.40360300000003,
                    "velocity": 1
                },
                {
                    "duration": 0.28846099999998387,
                    "durationTicks": 120,
                    "midi": 42,
                    "name": "F#2",
                    "ticks": 65160,
                    "time": 219.40360300000003,
                    "velocity": 1
                },
                {
                    "duration": 0.2884610000000123,
                    "durationTicks": 120,
                    "midi": 36,
                    "name": "C2",
                    "ticks": 65280,
                    "time": 219.69206400000002,
                    "velocity": 1
                },
                {
                    "duration": 0.2884610000000123,
                    "durationTicks": 120,
                    "midi": 57,
                    "name": "A3",
                    "ticks": 65280,
                    "time": 219.69206400000002,
                    "velocity": 1
                },
                {
                    "duration": 0.2884610000000123,
                    "durationTicks": 120,
                    "midi": 38,
                    "name": "D2",
                    "ticks": 65400,
                    "time": 219.98052500000003,
                    "velocity": 1
                },
                {
                    "duration": 0.2884610000000123,
                    "durationTicks": 120,
                    "midi": 42,
                    "name": "F#2",
                    "ticks": 65400,
                    "time": 219.98052500000003,
                    "velocity": 1
                },
                {
                    "duration": 0.14423049999999193,
                    "durationTicks": 60,
                    "midi": 36,
                    "name": "C2",
                    "ticks": 65520,
                    "time": 220.26898600000004,
                    "velocity": 1
                },
                {
                    "duration": 0.28846099999998387,
                    "durationTicks": 120,
                    "midi": 42,
                    "name": "F#2",
                    "ticks": 65520,
                    "time": 220.26898600000004,
                    "velocity": 1
                },
                {
                    "duration": 0.14423049999999193,
                    "durationTicks": 60,
                    "midi": 36,
                    "name": "C2",
                    "ticks": 65580,
                    "time": 220.41321650000003,
                    "velocity": 1
                },
                {
                    "duration": 0.2884610000000123,
                    "durationTicks": 120,
                    "midi": 38,
                    "name": "D2",
                    "ticks": 65640,
                    "time": 220.55744700000002,
                    "velocity": 1
                },
                {
                    "duration": 0.2884610000000123,
                    "durationTicks": 120,
                    "midi": 42,
                    "name": "F#2",
                    "ticks": 65640,
                    "time": 220.55744700000002,
                    "velocity": 1
                },
                {
                    "duration": 0.28846099999998387,
                    "durationTicks": 120,
                    "midi": 36,
                    "name": "C2",
                    "ticks": 65760,
                    "time": 220.84590800000004,
                    "velocity": 1
                },
                {
                    "duration": 0.28846099999998387,
                    "durationTicks": 120,
                    "midi": 57,
                    "name": "A3",
                    "ticks": 65760,
                    "time": 220.84590800000004,
                    "velocity": 1
                },
                {
                    "duration": 0.14423050000002036,
                    "durationTicks": 60,
                    "midi": 38,
                    "name": "D2",
                    "ticks": 65880,
                    "time": 221.13436900000002,
                    "velocity": 1
                },
                {
                    "duration": 0.14423050000002036,
                    "durationTicks": 60,
                    "midi": 42,
                    "name": "F#2",
                    "ticks": 65880,
                    "time": 221.13436900000002,
                    "velocity": 1
                },
                {
                    "duration": 0.14423049999999193,
                    "durationTicks": 60,
                    "midi": 45,
                    "name": "A2",
                    "ticks": 65940,
                    "time": 221.27859950000004,
                    "velocity": 1
                },
                {
                    "duration": 0.14423049999999193,
                    "durationTicks": 60,
                    "midi": 47,
                    "name": "B2",
                    "ticks": 66000,
                    "time": 221.42283000000003,
                    "velocity": 1
                },
                {
                    "duration": 0.14423049999999193,
                    "durationTicks": 60,
                    "midi": 47,
                    "name": "B2",
                    "ticks": 66060,
                    "time": 221.56706050000003,
                    "velocity": 1
                },
                {
                    "duration": 0.2884610000000123,
                    "durationTicks": 120,
                    "midi": 47,
                    "name": "B2",
                    "ticks": 66120,
                    "time": 221.71129100000002,
                    "velocity": 1
                },
                {
                    "duration": 0.2884610000000123,
                    "durationTicks": 120,
                    "midi": 36,
                    "name": "C2",
                    "ticks": 66240,
                    "time": 221.99975200000003,
                    "velocity": 1
                },
                {
                    "duration": 0.2884610000000123,
                    "durationTicks": 120,
                    "midi": 57,
                    "name": "A3",
                    "ticks": 66240,
                    "time": 221.99975200000003,
                    "velocity": 1
                },
                {
                    "duration": 0.28846099999998387,
                    "durationTicks": 120,
                    "midi": 38,
                    "name": "D2",
                    "ticks": 66360,
                    "time": 222.28821300000004,
                    "velocity": 1
                },
                {
                    "duration": 0.28846099999998387,
                    "durationTicks": 120,
                    "midi": 42,
                    "name": "F#2",
                    "ticks": 66360,
                    "time": 222.28821300000004,
                    "velocity": 1
                },
                {
                    "duration": 0.14423049999999193,
                    "durationTicks": 60,
                    "midi": 36,
                    "name": "C2",
                    "ticks": 66480,
                    "time": 222.57667400000003,
                    "velocity": 1
                },
                {
                    "duration": 0.2884610000000123,
                    "durationTicks": 120,
                    "midi": 42,
                    "name": "F#2",
                    "ticks": 66480,
                    "time": 222.57667400000003,
                    "velocity": 1
                },
                {
                    "duration": 0.14423050000002036,
                    "durationTicks": 60,
                    "midi": 36,
                    "name": "C2",
                    "ticks": 66540,
                    "time": 222.72090450000002,
                    "velocity": 1
                },
                {
                    "duration": 0.28846099999998387,
                    "durationTicks": 120,
                    "midi": 38,
                    "name": "D2",
                    "ticks": 66600,
                    "time": 222.86513500000004,
                    "velocity": 1
                },
                {
                    "duration": 0.28846099999998387,
                    "durationTicks": 120,
                    "midi": 42,
                    "name": "F#2",
                    "ticks": 66600,
                    "time": 222.86513500000004,
                    "velocity": 1
                },
                {
                    "duration": 0.2884610000000123,
                    "durationTicks": 120,
                    "midi": 42,
                    "name": "F#2",
                    "ticks": 66720,
                    "time": 223.15359600000002,
                    "velocity": 1
                },
                {
                    "duration": 0.14423050000002036,
                    "durationTicks": 60,
                    "midi": 36,
                    "name": "C2",
                    "ticks": 66720,
                    "time": 223.15359600000002,
                    "velocity": 1
                },
                {
                    "duration": 0.14423049999999193,
                    "durationTicks": 60,
                    "midi": 36,
                    "name": "C2",
                    "ticks": 66780,
                    "time": 223.29782650000004,
                    "velocity": 1
                },
                {
                    "duration": 0.28846099999998387,
                    "durationTicks": 120,
                    "midi": 38,
                    "name": "D2",
                    "ticks": 66840,
                    "time": 223.44205700000003,
                    "velocity": 1
                },
                {
                    "duration": 0.28846099999998387,
                    "durationTicks": 120,
                    "midi": 42,
                    "name": "F#2",
                    "ticks": 66840,
                    "time": 223.44205700000003,
                    "velocity": 1
                },
                {
                    "duration": 0.2884610000000123,
                    "durationTicks": 120,
                    "midi": 42,
                    "name": "F#2",
                    "ticks": 66960,
                    "time": 223.73051800000002,
                    "velocity": 1
                },
                {
                    "duration": 0.14423050000002036,
                    "durationTicks": 60,
                    "midi": 36,
                    "name": "C2",
                    "ticks": 66960,
                    "time": 223.73051800000002,
                    "velocity": 1
                },
                {
                    "duration": 0.14423049999999193,
                    "durationTicks": 60,
                    "midi": 36,
                    "name": "C2",
                    "ticks": 67020,
                    "time": 223.87474850000004,
                    "velocity": 1
                },
                {
                    "duration": 0.2884610000000123,
                    "durationTicks": 120,
                    "midi": 38,
                    "name": "D2",
                    "ticks": 67080,
                    "time": 224.01897900000003,
                    "velocity": 1
                },
                {
                    "duration": 0.2884610000000123,
                    "durationTicks": 120,
                    "midi": 42,
                    "name": "F#2",
                    "ticks": 67080,
                    "time": 224.01897900000003,
                    "velocity": 1
                },
                {
                    "duration": 0.28846099999998387,
                    "durationTicks": 120,
                    "midi": 36,
                    "name": "C2",
                    "ticks": 67200,
                    "time": 224.30744000000004,
                    "velocity": 1
                },
                {
                    "duration": 0.28846099999998387,
                    "durationTicks": 120,
                    "midi": 57,
                    "name": "A3",
                    "ticks": 67200,
                    "time": 224.30744000000004,
                    "velocity": 1
                },
                {
                    "duration": 0.2884610000000123,
                    "durationTicks": 120,
                    "midi": 38,
                    "name": "D2",
                    "ticks": 67320,
                    "time": 224.59590100000003,
                    "velocity": 1
                },
                {
                    "duration": 0.2884610000000123,
                    "durationTicks": 120,
                    "midi": 42,
                    "name": "F#2",
                    "ticks": 67320,
                    "time": 224.59590100000003,
                    "velocity": 1
                },
                {
                    "duration": 0.14423049999999193,
                    "durationTicks": 60,
                    "midi": 36,
                    "name": "C2",
                    "ticks": 67440,
                    "time": 224.88436200000004,
                    "velocity": 1
                },
                {
                    "duration": 0.28846099999998387,
                    "durationTicks": 120,
                    "midi": 42,
                    "name": "F#2",
                    "ticks": 67440,
                    "time": 224.88436200000004,
                    "velocity": 1
                },
                {
                    "duration": 0.14423049999999193,
                    "durationTicks": 60,
                    "midi": 36,
                    "name": "C2",
                    "ticks": 67500,
                    "time": 225.02859250000003,
                    "velocity": 1
                },
                {
                    "duration": 0.2884610000000123,
                    "durationTicks": 120,
                    "midi": 38,
                    "name": "D2",
                    "ticks": 67560,
                    "time": 225.17282300000002,
                    "velocity": 1
                },
                {
                    "duration": 0.2884610000000123,
                    "durationTicks": 120,
                    "midi": 42,
                    "name": "F#2",
                    "ticks": 67560,
                    "time": 225.17282300000002,
                    "velocity": 1
                },
                {
                    "duration": 0.28846099999998387,
                    "durationTicks": 120,
                    "midi": 36,
                    "name": "C2",
                    "ticks": 67680,
                    "time": 225.46128400000003,
                    "velocity": 1
                },
                {
                    "duration": 0.28846099999998387,
                    "durationTicks": 120,
                    "midi": 57,
                    "name": "A3",
                    "ticks": 67680,
                    "time": 225.46128400000003,
                    "velocity": 1
                },
                {
                    "duration": 0.14423050000002036,
                    "durationTicks": 60,
                    "midi": 38,
                    "name": "D2",
                    "ticks": 67800,
                    "time": 225.74974500000002,
                    "velocity": 1
                },
                {
                    "duration": 0.14423050000002036,
                    "durationTicks": 60,
                    "midi": 42,
                    "name": "F#2",
                    "ticks": 67800,
                    "time": 225.74974500000002,
                    "velocity": 1
                },
                {
                    "duration": 0.14423049999999193,
                    "durationTicks": 60,
                    "midi": 45,
                    "name": "A2",
                    "ticks": 67860,
                    "time": 225.89397550000004,
                    "velocity": 1
                },
                {
                    "duration": 0.14423049999999193,
                    "durationTicks": 60,
                    "midi": 47,
                    "name": "B2",
                    "ticks": 67920,
                    "time": 226.03820600000003,
                    "velocity": 1
                },
                {
                    "duration": 0.14423050000002036,
                    "durationTicks": 60,
                    "midi": 47,
                    "name": "B2",
                    "ticks": 67980,
                    "time": 226.18243650000002,
                    "velocity": 1
                },
                {
                    "duration": 0.28846099999998387,
                    "durationTicks": 120,
                    "midi": 47,
                    "name": "B2",
                    "ticks": 68040,
                    "time": 226.32666700000004,
                    "velocity": 1
                },
                {
                    "duration": 0.2884610000000123,
                    "durationTicks": 120,
                    "midi": 36,
                    "name": "C2",
                    "ticks": 68160,
                    "time": 226.61512800000003,
                    "velocity": 1
                },
                {
                    "duration": 0.2884610000000123,
                    "durationTicks": 120,
                    "midi": 57,
                    "name": "A3",
                    "ticks": 68160,
                    "time": 226.61512800000003,
                    "velocity": 1
                },
                {
                    "duration": 0.28846099999998387,
                    "durationTicks": 120,
                    "midi": 38,
                    "name": "D2",
                    "ticks": 68280,
                    "time": 226.90358900000004,
                    "velocity": 1
                },
                {
                    "duration": 0.28846099999998387,
                    "durationTicks": 120,
                    "midi": 42,
                    "name": "F#2",
                    "ticks": 68280,
                    "time": 226.90358900000004,
                    "velocity": 1
                },
                {
                    "duration": 0.14423050000002036,
                    "durationTicks": 60,
                    "midi": 36,
                    "name": "C2",
                    "ticks": 68400,
                    "time": 227.19205000000002,
                    "velocity": 1
                },
                {
                    "duration": 0.2884610000000123,
                    "durationTicks": 120,
                    "midi": 42,
                    "name": "F#2",
                    "ticks": 68400,
                    "time": 227.19205000000002,
                    "velocity": 1
                },
                {
                    "duration": 0.14423049999999193,
                    "durationTicks": 60,
                    "midi": 36,
                    "name": "C2",
                    "ticks": 68460,
                    "time": 227.33628050000004,
                    "velocity": 1
                },
                {
                    "duration": 0.28846099999998387,
                    "durationTicks": 120,
                    "midi": 38,
                    "name": "D2",
                    "ticks": 68520,
                    "time": 227.48051100000004,
                    "velocity": 1
                },
                {
                    "duration": 0.28846099999998387,
                    "durationTicks": 120,
                    "midi": 42,
                    "name": "F#2",
                    "ticks": 68520,
                    "time": 227.48051100000004,
                    "velocity": 1
                },
                {
                    "duration": 0.2884610000000123,
                    "durationTicks": 120,
                    "midi": 42,
                    "name": "F#2",
                    "ticks": 68640,
                    "time": 227.76897200000002,
                    "velocity": 1
                },
                {
                    "duration": 0.14423050000002036,
                    "durationTicks": 60,
                    "midi": 36,
                    "name": "C2",
                    "ticks": 68640,
                    "time": 227.76897200000002,
                    "velocity": 1
                },
                {
                    "duration": 0.14423049999999193,
                    "durationTicks": 60,
                    "midi": 36,
                    "name": "C2",
                    "ticks": 68700,
                    "time": 227.91320250000004,
                    "velocity": 1
                },
                {
                    "duration": 0.2884610000000123,
                    "durationTicks": 120,
                    "midi": 38,
                    "name": "D2",
                    "ticks": 68760,
                    "time": 228.05743300000003,
                    "velocity": 1
                },
                {
                    "duration": 0.2884610000000123,
                    "durationTicks": 120,
                    "midi": 42,
                    "name": "F#2",
                    "ticks": 68760,
                    "time": 228.05743300000003,
                    "velocity": 1
                },
                {
                    "duration": 0.28846099999998387,
                    "durationTicks": 120,
                    "midi": 42,
                    "name": "F#2",
                    "ticks": 68880,
                    "time": 228.34589400000004,
                    "velocity": 1
                },
                {
                    "duration": 0.14423049999999193,
                    "durationTicks": 60,
                    "midi": 36,
                    "name": "C2",
                    "ticks": 68880,
                    "time": 228.34589400000004,
                    "velocity": 1
                },
                {
                    "duration": 0.14423049999999193,
                    "durationTicks": 60,
                    "midi": 36,
                    "name": "C2",
                    "ticks": 68940,
                    "time": 228.49012450000004,
                    "velocity": 1
                },
                {
                    "duration": 0.2884610000000123,
                    "durationTicks": 120,
                    "midi": 38,
                    "name": "D2",
                    "ticks": 69000,
                    "time": 228.63435500000003,
                    "velocity": 1
                },
                {
                    "duration": 0.2884610000000123,
                    "durationTicks": 120,
                    "midi": 42,
                    "name": "F#2",
                    "ticks": 69000,
                    "time": 228.63435500000003,
                    "velocity": 1
                },
                {
                    "duration": 0.28846099999998387,
                    "durationTicks": 120,
                    "midi": 36,
                    "name": "C2",
                    "ticks": 69120,
                    "time": 228.92281600000004,
                    "velocity": 1
                },
                {
                    "duration": 0.28846099999998387,
                    "durationTicks": 120,
                    "midi": 57,
                    "name": "A3",
                    "ticks": 69120,
                    "time": 228.92281600000004,
                    "velocity": 1
                },
                {
                    "duration": 0.2884610000000123,
                    "durationTicks": 120,
                    "midi": 38,
                    "name": "D2",
                    "ticks": 69240,
                    "time": 229.21127700000002,
                    "velocity": 1
                },
                {
                    "duration": 0.2884610000000123,
                    "durationTicks": 120,
                    "midi": 42,
                    "name": "F#2",
                    "ticks": 69240,
                    "time": 229.21127700000002,
                    "velocity": 1
                },
                {
                    "duration": 0.14423049999999193,
                    "durationTicks": 60,
                    "midi": 36,
                    "name": "C2",
                    "ticks": 69360,
                    "time": 229.49973800000004,
                    "velocity": 1
                },
                {
                    "duration": 0.28846099999998387,
                    "durationTicks": 120,
                    "midi": 42,
                    "name": "F#2",
                    "ticks": 69360,
                    "time": 229.49973800000004,
                    "velocity": 1
                },
                {
                    "duration": 0.14423049999999193,
                    "durationTicks": 60,
                    "midi": 36,
                    "name": "C2",
                    "ticks": 69420,
                    "time": 229.64396850000003,
                    "velocity": 1
                },
                {
                    "duration": 0.2884610000000123,
                    "durationTicks": 120,
                    "midi": 38,
                    "name": "D2",
                    "ticks": 69480,
                    "time": 229.78819900000002,
                    "velocity": 1
                },
                {
                    "duration": 0.2884610000000123,
                    "durationTicks": 120,
                    "midi": 42,
                    "name": "F#2",
                    "ticks": 69480,
                    "time": 229.78819900000002,
                    "velocity": 1
                },
                {
                    "duration": 0.2884610000000123,
                    "durationTicks": 120,
                    "midi": 36,
                    "name": "C2",
                    "ticks": 69600,
                    "time": 230.07666000000003,
                    "velocity": 1
                },
                {
                    "duration": 0.2884610000000123,
                    "durationTicks": 120,
                    "midi": 57,
                    "name": "A3",
                    "ticks": 69600,
                    "time": 230.07666000000003,
                    "velocity": 1
                },
                {
                    "duration": 0.14423049999999193,
                    "durationTicks": 60,
                    "midi": 38,
                    "name": "D2",
                    "ticks": 69720,
                    "time": 230.36512100000004,
                    "velocity": 1
                },
                {
                    "duration": 0.14423049999999193,
                    "durationTicks": 60,
                    "midi": 42,
                    "name": "F#2",
                    "ticks": 69720,
                    "time": 230.36512100000004,
                    "velocity": 1
                },
                {
                    "duration": 0.14423049999999193,
                    "durationTicks": 60,
                    "midi": 45,
                    "name": "A2",
                    "ticks": 69780,
                    "time": 230.50935150000004,
                    "velocity": 1
                },
                {
                    "duration": 0.14423049999999193,
                    "durationTicks": 60,
                    "midi": 47,
                    "name": "B2",
                    "ticks": 69840,
                    "time": 230.65358200000003,
                    "velocity": 1
                },
                {
                    "duration": 0.14423050000002036,
                    "durationTicks": 60,
                    "midi": 47,
                    "name": "B2",
                    "ticks": 69900,
                    "time": 230.79781250000002,
                    "velocity": 1
                },
                {
                    "duration": 0.28846099999998387,
                    "durationTicks": 120,
                    "midi": 47,
                    "name": "B2",
                    "ticks": 69960,
                    "time": 230.94204300000004,
                    "velocity": 1
                },
                {
                    "duration": 0.2884610000000123,
                    "durationTicks": 120,
                    "midi": 36,
                    "name": "C2",
                    "ticks": 70080,
                    "time": 231.23050400000002,
                    "velocity": 1
                },
                {
                    "duration": 0.2884610000000123,
                    "durationTicks": 120,
                    "midi": 57,
                    "name": "A3",
                    "ticks": 70080,
                    "time": 231.23050400000002,
                    "velocity": 1
                },
                {
                    "duration": 0.28846099999998387,
                    "durationTicks": 120,
                    "midi": 38,
                    "name": "D2",
                    "ticks": 70200,
                    "time": 231.51896500000004,
                    "velocity": 1
                },
                {
                    "duration": 0.28846099999998387,
                    "durationTicks": 120,
                    "midi": 42,
                    "name": "F#2",
                    "ticks": 70200,
                    "time": 231.51896500000004,
                    "velocity": 1
                },
                {
                    "duration": 0.14423050000002036,
                    "durationTicks": 60,
                    "midi": 36,
                    "name": "C2",
                    "ticks": 70320,
                    "time": 231.80742600000002,
                    "velocity": 1
                },
                {
                    "duration": 0.2884610000000123,
                    "durationTicks": 120,
                    "midi": 42,
                    "name": "F#2",
                    "ticks": 70320,
                    "time": 231.80742600000002,
                    "velocity": 1
                },
                {
                    "duration": 0.14423049999999193,
                    "durationTicks": 60,
                    "midi": 36,
                    "name": "C2",
                    "ticks": 70380,
                    "time": 231.95165650000004,
                    "velocity": 1
                },
                {
                    "duration": 0.2884610000000123,
                    "durationTicks": 120,
                    "midi": 38,
                    "name": "D2",
                    "ticks": 70440,
                    "time": 232.09588700000003,
                    "velocity": 1
                },
                {
                    "duration": 0.2884610000000123,
                    "durationTicks": 120,
                    "midi": 42,
                    "name": "F#2",
                    "ticks": 70440,
                    "time": 232.09588700000003,
                    "velocity": 1
                },
                {
                    "duration": 0.28846099999998387,
                    "durationTicks": 120,
                    "midi": 42,
                    "name": "F#2",
                    "ticks": 70560,
                    "time": 232.38434800000005,
                    "velocity": 1
                },
                {
                    "duration": 0.28846099999998387,
                    "durationTicks": 120,
                    "midi": 36,
                    "name": "C2",
                    "ticks": 70560,
                    "time": 232.38434800000005,
                    "velocity": 1
                },
                {
                    "duration": 0.2884610000000123,
                    "durationTicks": 120,
                    "midi": 38,
                    "name": "D2",
                    "ticks": 70680,
                    "time": 232.67280900000003,
                    "velocity": 1
                },
                {
                    "duration": 0.2884610000000123,
                    "durationTicks": 120,
                    "midi": 42,
                    "name": "F#2",
                    "ticks": 70680,
                    "time": 232.67280900000003,
                    "velocity": 1
                },
                {
                    "duration": 0.28846099999998387,
                    "durationTicks": 120,
                    "midi": 42,
                    "name": "F#2",
                    "ticks": 70800,
                    "time": 232.96127000000004,
                    "velocity": 1
                },
                {
                    "duration": 0.14423049999999193,
                    "durationTicks": 60,
                    "midi": 36,
                    "name": "C2",
                    "ticks": 70800,
                    "time": 232.96127000000004,
                    "velocity": 1
                },
                {
                    "duration": 0.14423049999999193,
                    "durationTicks": 60,
                    "midi": 36,
                    "name": "C2",
                    "ticks": 70860,
                    "time": 233.10550050000003,
                    "velocity": 1
                },
                {
                    "duration": 0.2884610000000123,
                    "durationTicks": 120,
                    "midi": 38,
                    "name": "D2",
                    "ticks": 70920,
                    "time": 233.24973100000003,
                    "velocity": 1
                },
                {
                    "duration": 0.2884610000000123,
                    "durationTicks": 120,
                    "midi": 42,
                    "name": "F#2",
                    "ticks": 70920,
                    "time": 233.24973100000003,
                    "velocity": 1
                },
                {
                    "duration": 0.28846099999998387,
                    "durationTicks": 120,
                    "midi": 36,
                    "name": "C2",
                    "ticks": 71040,
                    "time": 233.53819200000004,
                    "velocity": 1
                },
                {
                    "duration": 0.28846099999998387,
                    "durationTicks": 120,
                    "midi": 42,
                    "name": "F#2",
                    "ticks": 71040,
                    "time": 233.53819200000004,
                    "velocity": 1
                },
                {
                    "duration": 0.2884610000000123,
                    "durationTicks": 120,
                    "midi": 38,
                    "name": "D2",
                    "ticks": 71160,
                    "time": 233.82665300000002,
                    "velocity": 1
                },
                {
                    "duration": 0.2884610000000123,
                    "durationTicks": 120,
                    "midi": 42,
                    "name": "F#2",
                    "ticks": 71160,
                    "time": 233.82665300000002,
                    "velocity": 1
                },
                {
                    "duration": 0.2884610000000123,
                    "durationTicks": 120,
                    "midi": 42,
                    "name": "F#2",
                    "ticks": 71280,
                    "time": 234.11511400000003,
                    "velocity": 1
                },
                {
                    "duration": 0.14423049999999193,
                    "durationTicks": 60,
                    "midi": 36,
                    "name": "C2",
                    "ticks": 71280,
                    "time": 234.11511400000003,
                    "velocity": 1
                },
                {
                    "duration": 0.14423050000002036,
                    "durationTicks": 60,
                    "midi": 36,
                    "name": "C2",
                    "ticks": 71340,
                    "time": 234.25934450000003,
                    "velocity": 1
                },
                {
                    "duration": 0.28846099999998387,
                    "durationTicks": 120,
                    "midi": 38,
                    "name": "D2",
                    "ticks": 71400,
                    "time": 234.40357500000005,
                    "velocity": 1
                },
                {
                    "duration": 0.28846099999998387,
                    "durationTicks": 120,
                    "midi": 42,
                    "name": "F#2",
                    "ticks": 71400,
                    "time": 234.40357500000005,
                    "velocity": 1
                },
                {
                    "duration": 0.2884610000000123,
                    "durationTicks": 120,
                    "midi": 42,
                    "name": "F#2",
                    "ticks": 71520,
                    "time": 234.69203600000003,
                    "velocity": 1
                },
                {
                    "duration": 0.14423049999999193,
                    "durationTicks": 60,
                    "midi": 36,
                    "name": "C2",
                    "ticks": 71520,
                    "time": 234.69203600000003,
                    "velocity": 1
                },
                {
                    "duration": 0.07211525000002439,
                    "durationTicks": 30,
                    "midi": 36,
                    "name": "C2",
                    "ticks": 71580,
                    "time": 234.83626650000002,
                    "velocity": 1
                },
                {
                    "duration": 0.07211524999999597,
                    "durationTicks": 30,
                    "midi": 36,
                    "name": "C2",
                    "ticks": 71610,
                    "time": 234.90838175000005,
                    "velocity": 1
                },
                {
                    "duration": 0.28846099999998387,
                    "durationTicks": 120,
                    "midi": 38,
                    "name": "D2",
                    "ticks": 71640,
                    "time": 234.98049700000004,
                    "velocity": 1
                },
                {
                    "duration": 0.28846099999998387,
                    "durationTicks": 120,
                    "midi": 57,
                    "name": "A3",
                    "ticks": 71640,
                    "time": 234.98049700000004,
                    "velocity": 1
                },
                {
                    "duration": 0.2884610000000123,
                    "durationTicks": 120,
                    "midi": 42,
                    "name": "F#2",
                    "ticks": 71760,
                    "time": 235.26895800000003,
                    "velocity": 1
                },
                {
                    "duration": 0.0480768333333117,
                    "durationTicks": 20,
                    "midi": 36,
                    "name": "C2",
                    "ticks": 71820,
                    "time": 235.41318850000005,
                    "velocity": 1
                },
                {
                    "duration": 0.04807683333334012,
                    "durationTicks": 20,
                    "midi": 36,
                    "name": "C2",
                    "ticks": 71840,
                    "time": 235.46126533333336,
                    "velocity": 1
                },
                {
                    "duration": 0.04807683333334012,
                    "durationTicks": 20,
                    "midi": 36,
                    "name": "C2",
                    "ticks": 71860,
                    "time": 235.5093421666667,
                    "velocity": 1
                },
                {
                    "duration": 0.28846099999998387,
                    "durationTicks": 120,
                    "midi": 38,
                    "name": "D2",
                    "ticks": 71880,
                    "time": 235.55741900000004,
                    "velocity": 1
                },
                {
                    "duration": 0.28846099999998387,
                    "durationTicks": 120,
                    "midi": 57,
                    "name": "A3",
                    "ticks": 71880,
                    "time": 235.55741900000004,
                    "velocity": 1
                },
                {
                    "duration": 0.2884610000000123,
                    "durationTicks": 120,
                    "midi": 57,
                    "name": "A3",
                    "ticks": 72000,
                    "time": 235.84588000000002,
                    "velocity": 1
                },
                {
                    "duration": 0.2884610000000123,
                    "durationTicks": 120,
                    "midi": 36,
                    "name": "C2",
                    "ticks": 72000,
                    "time": 235.84588000000002,
                    "velocity": 1
                },
                {
                    "duration": 0.2884610000000123,
                    "durationTicks": 120,
                    "midi": 38,
                    "name": "D2",
                    "ticks": 72120,
                    "time": 236.13434100000003,
                    "velocity": 1
                },
                {
                    "duration": 0.2884610000000123,
                    "durationTicks": 120,
                    "midi": 42,
                    "name": "F#2",
                    "ticks": 72120,
                    "time": 236.13434100000003,
                    "velocity": 1
                },
                {
                    "duration": 0.14423049999999193,
                    "durationTicks": 60,
                    "midi": 36,
                    "name": "C2",
                    "ticks": 72240,
                    "time": 236.42280200000005,
                    "velocity": 1
                },
                {
                    "duration": 0.28846099999998387,
                    "durationTicks": 120,
                    "midi": 42,
                    "name": "F#2",
                    "ticks": 72240,
                    "time": 236.42280200000005,
                    "velocity": 1
                },
                {
                    "duration": 0.14423049999999193,
                    "durationTicks": 60,
                    "midi": 36,
                    "name": "C2",
                    "ticks": 72300,
                    "time": 236.56703250000004,
                    "velocity": 1
                },
                {
                    "duration": 0.2884610000000123,
                    "durationTicks": 120,
                    "midi": 38,
                    "name": "D2",
                    "ticks": 72360,
                    "time": 236.71126300000003,
                    "velocity": 1
                },
                {
                    "duration": 0.2884610000000123,
                    "durationTicks": 120,
                    "midi": 42,
                    "name": "F#2",
                    "ticks": 72360,
                    "time": 236.71126300000003,
                    "velocity": 1
                },
                {
                    "duration": 0.28846099999998387,
                    "durationTicks": 120,
                    "midi": 36,
                    "name": "C2",
                    "ticks": 72480,
                    "time": 236.99972400000004,
                    "velocity": 1
                },
                {
                    "duration": 0.28846099999998387,
                    "durationTicks": 120,
                    "midi": 42,
                    "name": "F#2",
                    "ticks": 72480,
                    "time": 236.99972400000004,
                    "velocity": 1
                },
                {
                    "duration": 0.2884610000000123,
                    "durationTicks": 120,
                    "midi": 38,
                    "name": "D2",
                    "ticks": 72600,
                    "time": 237.28818500000003,
                    "velocity": 1
                },
                {
                    "duration": 0.2884610000000123,
                    "durationTicks": 120,
                    "midi": 42,
                    "name": "F#2",
                    "ticks": 72600,
                    "time": 237.28818500000003,
                    "velocity": 1
                },
                {
                    "duration": 0.28846099999998387,
                    "durationTicks": 120,
                    "midi": 42,
                    "name": "F#2",
                    "ticks": 72720,
                    "time": 237.57664600000004,
                    "velocity": 1
                },
                {
                    "duration": 0.14423049999999193,
                    "durationTicks": 60,
                    "midi": 36,
                    "name": "C2",
                    "ticks": 72720,
                    "time": 237.57664600000004,
                    "velocity": 1
                },
                {
                    "duration": 0.14423049999999193,
                    "durationTicks": 60,
                    "midi": 36,
                    "name": "C2",
                    "ticks": 72780,
                    "time": 237.72087650000003,
                    "velocity": 1
                },
                {
                    "duration": 0.2884610000000123,
                    "durationTicks": 120,
                    "midi": 38,
                    "name": "D2",
                    "ticks": 72840,
                    "time": 237.86510700000002,
                    "velocity": 1
                },
                {
                    "duration": 0.2884610000000123,
                    "durationTicks": 120,
                    "midi": 42,
                    "name": "F#2",
                    "ticks": 72840,
                    "time": 237.86510700000002,
                    "velocity": 1
                },
                {
                    "duration": 0.2884610000000123,
                    "durationTicks": 120,
                    "midi": 36,
                    "name": "C2",
                    "ticks": 72960,
                    "time": 238.15356800000004,
                    "velocity": 1
                },
                {
                    "duration": 0.2884610000000123,
                    "durationTicks": 120,
                    "midi": 42,
                    "name": "F#2",
                    "ticks": 72960,
                    "time": 238.15356800000004,
                    "velocity": 1
                },
                {
                    "duration": 0.28846099999998387,
                    "durationTicks": 120,
                    "midi": 38,
                    "name": "D2",
                    "ticks": 73080,
                    "time": 238.44202900000005,
                    "velocity": 1
                },
                {
                    "duration": 0.28846099999998387,
                    "durationTicks": 120,
                    "midi": 42,
                    "name": "F#2",
                    "ticks": 73080,
                    "time": 238.44202900000005,
                    "velocity": 1
                },
                {
                    "duration": 0.2884610000000123,
                    "durationTicks": 120,
                    "midi": 42,
                    "name": "F#2",
                    "ticks": 73200,
                    "time": 238.73049000000003,
                    "velocity": 1
                },
                {
                    "duration": 0.14423049999999193,
                    "durationTicks": 60,
                    "midi": 36,
                    "name": "C2",
                    "ticks": 73200,
                    "time": 238.73049000000003,
                    "velocity": 1
                },
                {
                    "duration": 0.07211525000002439,
                    "durationTicks": 30,
                    "midi": 36,
                    "name": "C2",
                    "ticks": 73260,
                    "time": 238.87472050000002,
                    "velocity": 1
                },
                {
                    "duration": 0.07211524999999597,
                    "durationTicks": 30,
                    "midi": 36,
                    "name": "C2",
                    "ticks": 73290,
                    "time": 238.94683575000005,
                    "velocity": 1
                },
                {
                    "duration": 0.28846099999998387,
                    "durationTicks": 120,
                    "midi": 38,
                    "name": "D2",
                    "ticks": 73320,
                    "time": 239.01895100000004,
                    "velocity": 1
                },
                {
                    "duration": 0.28846099999998387,
                    "durationTicks": 120,
                    "midi": 42,
                    "name": "F#2",
                    "ticks": 73320,
                    "time": 239.01895100000004,
                    "velocity": 1
                },
                {
                    "duration": 0.2884610000000123,
                    "durationTicks": 120,
                    "midi": 42,
                    "name": "F#2",
                    "ticks": 73440,
                    "time": 239.30741200000003,
                    "velocity": 1
                },
                {
                    "duration": 0.14423050000002036,
                    "durationTicks": 60,
                    "midi": 36,
                    "name": "C2",
                    "ticks": 73440,
                    "time": 239.30741200000003,
                    "velocity": 1
                },
                {
                    "duration": 0.07211524999999597,
                    "durationTicks": 30,
                    "midi": 36,
                    "name": "C2",
                    "ticks": 73500,
                    "time": 239.45164250000005,
                    "velocity": 1
                },
                {
                    "duration": 0.07211524999999597,
                    "durationTicks": 30,
                    "midi": 36,
                    "name": "C2",
                    "ticks": 73530,
                    "time": 239.52375775000004,
                    "velocity": 1
                },
                {
                    "duration": 0.28846099999998387,
                    "durationTicks": 120,
                    "midi": 38,
                    "name": "D2",
                    "ticks": 73560,
                    "time": 239.59587300000004,
                    "velocity": 1
                },
                {
                    "duration": 0.28846099999998387,
                    "durationTicks": 120,
                    "midi": 57,
                    "name": "A3",
                    "ticks": 73560,
                    "time": 239.59587300000004,
                    "velocity": 1
                },
                {
                    "duration": 0.2884610000000123,
                    "durationTicks": 120,
                    "midi": 42,
                    "name": "F#2",
                    "ticks": 73680,
                    "time": 239.88433400000002,
                    "velocity": 1
                },
                {
                    "duration": 0.0480768333333117,
                    "durationTicks": 20,
                    "midi": 36,
                    "name": "C2",
                    "ticks": 73740,
                    "time": 240.02856450000004,
                    "velocity": 1
                },
                {
                    "duration": 0.04807683333334012,
                    "durationTicks": 20,
                    "midi": 36,
                    "name": "C2",
                    "ticks": 73760,
                    "time": 240.07664133333336,
                    "velocity": 1
                },
                {
                    "duration": 0.04807683333334012,
                    "durationTicks": 20,
                    "midi": 36,
                    "name": "C2",
                    "ticks": 73780,
                    "time": 240.1247181666667,
                    "velocity": 1
                },
                {
                    "duration": 0.2884610000000123,
                    "durationTicks": 120,
                    "midi": 38,
                    "name": "D2",
                    "ticks": 73800,
                    "time": 240.17279500000004,
                    "velocity": 1
                },
                {
                    "duration": 0.2884610000000123,
                    "durationTicks": 120,
                    "midi": 57,
                    "name": "A3",
                    "ticks": 73800,
                    "time": 240.17279500000004,
                    "velocity": 1
                },
                {
                    "duration": 0.28846099999998387,
                    "durationTicks": 120,
                    "midi": 57,
                    "name": "A3",
                    "ticks": 73920,
                    "time": 240.46125600000005,
                    "velocity": 1
                },
                {
                    "duration": 0.28846099999998387,
                    "durationTicks": 120,
                    "midi": 36,
                    "name": "C2",
                    "ticks": 73920,
                    "time": 240.46125600000005,
                    "velocity": 1
                },
                {
                    "duration": 0.28846099999998387,
                    "durationTicks": 120,
                    "midi": 38,
                    "name": "D2",
                    "ticks": 74040,
                    "time": 240.74971700000003,
                    "velocity": 1
                },
                {
                    "duration": 0.28846099999998387,
                    "durationTicks": 120,
                    "midi": 42,
                    "name": "F#2",
                    "ticks": 74040,
                    "time": 240.74971700000003,
                    "velocity": 1
                },
                {
                    "duration": 0.14423050000002036,
                    "durationTicks": 60,
                    "midi": 36,
                    "name": "C2",
                    "ticks": 74160,
                    "time": 241.03817800000002,
                    "velocity": 1
                },
                {
                    "duration": 0.2884610000000123,
                    "durationTicks": 120,
                    "midi": 42,
                    "name": "F#2",
                    "ticks": 74160,
                    "time": 241.03817800000002,
                    "velocity": 1
                },
                {
                    "duration": 0.14423049999999193,
                    "durationTicks": 60,
                    "midi": 36,
                    "name": "C2",
                    "ticks": 74220,
                    "time": 241.18240850000004,
                    "velocity": 1
                },
                {
                    "duration": 0.2884610000000123,
                    "durationTicks": 120,
                    "midi": 38,
                    "name": "D2",
                    "ticks": 74280,
                    "time": 241.32663900000003,
                    "velocity": 1
                },
                {
                    "duration": 0.2884610000000123,
                    "durationTicks": 120,
                    "midi": 42,
                    "name": "F#2",
                    "ticks": 74280,
                    "time": 241.32663900000003,
                    "velocity": 1
                },
                {
                    "duration": 0.28846099999998387,
                    "durationTicks": 120,
                    "midi": 36,
                    "name": "C2",
                    "ticks": 74400,
                    "time": 241.61510000000004,
                    "velocity": 1
                },
                {
                    "duration": 0.28846099999998387,
                    "durationTicks": 120,
                    "midi": 42,
                    "name": "F#2",
                    "ticks": 74400,
                    "time": 241.61510000000004,
                    "velocity": 1
                },
                {
                    "duration": 0.2884610000000123,
                    "durationTicks": 120,
                    "midi": 38,
                    "name": "D2",
                    "ticks": 74520,
                    "time": 241.90356100000002,
                    "velocity": 1
                },
                {
                    "duration": 0.2884610000000123,
                    "durationTicks": 120,
                    "midi": 42,
                    "name": "F#2",
                    "ticks": 74520,
                    "time": 241.90356100000002,
                    "velocity": 1
                },
                {
                    "duration": 0.2884610000000123,
                    "durationTicks": 120,
                    "midi": 42,
                    "name": "F#2",
                    "ticks": 74640,
                    "time": 242.19202200000004,
                    "velocity": 1
                },
                {
                    "duration": 0.14423049999999193,
                    "durationTicks": 60,
                    "midi": 36,
                    "name": "C2",
                    "ticks": 74640,
                    "time": 242.19202200000004,
                    "velocity": 1
                },
                {
                    "duration": 0.14423050000002036,
                    "durationTicks": 60,
                    "midi": 36,
                    "name": "C2",
                    "ticks": 74700,
                    "time": 242.33625250000003,
                    "velocity": 1
                },
                {
                    "duration": 0.28846099999998387,
                    "durationTicks": 120,
                    "midi": 38,
                    "name": "D2",
                    "ticks": 74760,
                    "time": 242.48048300000005,
                    "velocity": 1
                },
                {
                    "duration": 0.28846099999998387,
                    "durationTicks": 120,
                    "midi": 42,
                    "name": "F#2",
                    "ticks": 74760,
                    "time": 242.48048300000005,
                    "velocity": 1
                },
                {
                    "duration": 0.28846099999998387,
                    "durationTicks": 120,
                    "midi": 36,
                    "name": "C2",
                    "ticks": 74880,
                    "time": 242.76894400000003,
                    "velocity": 1
                },
                {
                    "duration": 0.28846099999998387,
                    "durationTicks": 120,
                    "midi": 42,
                    "name": "F#2",
                    "ticks": 74880,
                    "time": 242.76894400000003,
                    "velocity": 1
                },
                {
                    "duration": 0.2884610000000123,
                    "durationTicks": 120,
                    "midi": 38,
                    "name": "D2",
                    "ticks": 75000,
                    "time": 243.05740500000002,
                    "velocity": 1
                },
                {
                    "duration": 0.2884610000000123,
                    "durationTicks": 120,
                    "midi": 42,
                    "name": "F#2",
                    "ticks": 75000,
                    "time": 243.05740500000002,
                    "velocity": 1
                },
                {
                    "duration": 0.2884610000000123,
                    "durationTicks": 120,
                    "midi": 42,
                    "name": "F#2",
                    "ticks": 75120,
                    "time": 243.34586600000003,
                    "velocity": 1
                },
                {
                    "duration": 0.14423050000002036,
                    "durationTicks": 60,
                    "midi": 36,
                    "name": "C2",
                    "ticks": 75120,
                    "time": 243.34586600000003,
                    "velocity": 1
                },
                {
                    "duration": 0.14423049999999193,
                    "durationTicks": 60,
                    "midi": 36,
                    "name": "C2",
                    "ticks": 75180,
                    "time": 243.49009650000005,
                    "velocity": 1
                },
                {
                    "duration": 0.28846099999998387,
                    "durationTicks": 120,
                    "midi": 38,
                    "name": "D2",
                    "ticks": 75240,
                    "time": 243.63432700000004,
                    "velocity": 1
                },
                {
                    "duration": 0.28846099999998387,
                    "durationTicks": 120,
                    "midi": 42,
                    "name": "F#2",
                    "ticks": 75240,
                    "time": 243.63432700000004,
                    "velocity": 1
                },
                {
                    "duration": 0.2884610000000123,
                    "durationTicks": 120,
                    "midi": 42,
                    "name": "F#2",
                    "ticks": 75360,
                    "time": 243.92278800000003,
                    "velocity": 1
                },
                {
                    "duration": 0.14423049999999193,
                    "durationTicks": 60,
                    "midi": 36,
                    "name": "C2",
                    "ticks": 75360,
                    "time": 243.92278800000003,
                    "velocity": 1
                },
                {
                    "duration": 0.07211525000002439,
                    "durationTicks": 30,
                    "midi": 36,
                    "name": "C2",
                    "ticks": 75420,
                    "time": 244.06701850000002,
                    "velocity": 1
                },
                {
                    "duration": 0.07211524999999597,
                    "durationTicks": 30,
                    "midi": 36,
                    "name": "C2",
                    "ticks": 75450,
                    "time": 244.13913375000004,
                    "velocity": 1
                },
                {
                    "duration": 0.2884610000000123,
                    "durationTicks": 120,
                    "midi": 38,
                    "name": "D2",
                    "ticks": 75480,
                    "time": 244.21124900000004,
                    "velocity": 1
                },
                {
                    "duration": 0.2884610000000123,
                    "durationTicks": 120,
                    "midi": 57,
                    "name": "A3",
                    "ticks": 75480,
                    "time": 244.21124900000004,
                    "velocity": 1
                },
                {
                    "duration": 0.28846099999998387,
                    "durationTicks": 120,
                    "midi": 42,
                    "name": "F#2",
                    "ticks": 75600,
                    "time": 244.49971000000005,
                    "velocity": 1
                },
                {
                    "duration": 0.0480768333333117,
                    "durationTicks": 20,
                    "midi": 36,
                    "name": "C2",
                    "ticks": 75660,
                    "time": 244.64394050000004,
                    "velocity": 1
                },
                {
                    "duration": 0.04807683333334012,
                    "durationTicks": 20,
                    "midi": 36,
                    "name": "C2",
                    "ticks": 75680,
                    "time": 244.69201733333335,
                    "velocity": 1
                },
                {
                    "duration": 0.04807683333334012,
                    "durationTicks": 20,
                    "midi": 36,
                    "name": "C2",
                    "ticks": 75700,
                    "time": 244.7400941666667,
                    "velocity": 1
                },
                {
                    "duration": 0.28846099999998387,
                    "durationTicks": 120,
                    "midi": 38,
                    "name": "D2",
                    "ticks": 75720,
                    "time": 244.78817100000003,
                    "velocity": 1
                },
                {
                    "duration": 0.28846099999998387,
                    "durationTicks": 120,
                    "midi": 57,
                    "name": "A3",
                    "ticks": 75720,
                    "time": 244.78817100000003,
                    "velocity": 1
                },
                {
                    "duration": 0.2884610000000123,
                    "durationTicks": 120,
                    "midi": 57,
                    "name": "A3",
                    "ticks": 75840,
                    "time": 245.07663200000002,
                    "velocity": 1
                },
                {
                    "duration": 0.2884610000000123,
                    "durationTicks": 120,
                    "midi": 36,
                    "name": "C2",
                    "ticks": 75840,
                    "time": 245.07663200000002,
                    "velocity": 1
                },
                {
                    "duration": 0.2884610000000123,
                    "durationTicks": 120,
                    "midi": 38,
                    "name": "D2",
                    "ticks": 75960,
                    "time": 245.36509300000003,
                    "velocity": 1
                },
                {
                    "duration": 0.2884610000000123,
                    "durationTicks": 120,
                    "midi": 42,
                    "name": "F#2",
                    "ticks": 75960,
                    "time": 245.36509300000003,
                    "velocity": 1
                },
                {
                    "duration": 0.14423049999999193,
                    "durationTicks": 60,
                    "midi": 36,
                    "name": "C2",
                    "ticks": 76080,
                    "time": 245.65355400000004,
                    "velocity": 1
                },
                {
                    "duration": 0.28846099999998387,
                    "durationTicks": 120,
                    "midi": 42,
                    "name": "F#2",
                    "ticks": 76080,
                    "time": 245.65355400000004,
                    "velocity": 1
                },
                {
                    "duration": 0.14423049999999193,
                    "durationTicks": 60,
                    "midi": 36,
                    "name": "C2",
                    "ticks": 76140,
                    "time": 245.79778450000003,
                    "velocity": 1
                },
                {
                    "duration": 0.2884610000000123,
                    "durationTicks": 120,
                    "midi": 38,
                    "name": "D2",
                    "ticks": 76200,
                    "time": 245.94201500000003,
                    "velocity": 1
                },
                {
                    "duration": 0.2884610000000123,
                    "durationTicks": 120,
                    "midi": 42,
                    "name": "F#2",
                    "ticks": 76200,
                    "time": 245.94201500000003,
                    "velocity": 1
                },
                {
                    "duration": 0.2884610000000123,
                    "durationTicks": 120,
                    "midi": 36,
                    "name": "C2",
                    "ticks": 76320,
                    "time": 246.23047600000004,
                    "velocity": 1
                },
                {
                    "duration": 0.2884610000000123,
                    "durationTicks": 120,
                    "midi": 42,
                    "name": "F#2",
                    "ticks": 76320,
                    "time": 246.23047600000004,
                    "velocity": 1
                },
                {
                    "duration": 0.28846099999998387,
                    "durationTicks": 120,
                    "midi": 38,
                    "name": "D2",
                    "ticks": 76440,
                    "time": 246.51893700000005,
                    "velocity": 1
                },
                {
                    "duration": 0.28846099999998387,
                    "durationTicks": 120,
                    "midi": 42,
                    "name": "F#2",
                    "ticks": 76440,
                    "time": 246.51893700000005,
                    "velocity": 1
                },
                {
                    "duration": 0.28846099999998387,
                    "durationTicks": 120,
                    "midi": 42,
                    "name": "F#2",
                    "ticks": 76560,
                    "time": 246.80739800000003,
                    "velocity": 1
                },
                {
                    "duration": 0.14423049999999193,
                    "durationTicks": 60,
                    "midi": 36,
                    "name": "C2",
                    "ticks": 76560,
                    "time": 246.80739800000003,
                    "velocity": 1
                },
                {
                    "duration": 0.14423049999999193,
                    "durationTicks": 60,
                    "midi": 36,
                    "name": "C2",
                    "ticks": 76620,
                    "time": 246.95162850000003,
                    "velocity": 1
                },
                {
                    "duration": 0.2884610000000123,
                    "durationTicks": 120,
                    "midi": 38,
                    "name": "D2",
                    "ticks": 76680,
                    "time": 247.09585900000002,
                    "velocity": 1
                },
                {
                    "duration": 0.2884610000000123,
                    "durationTicks": 120,
                    "midi": 42,
                    "name": "F#2",
                    "ticks": 76680,
                    "time": 247.09585900000002,
                    "velocity": 1
                },
                {
                    "duration": 0.2884610000000123,
                    "durationTicks": 120,
                    "midi": 36,
                    "name": "C2",
                    "ticks": 76800,
                    "time": 247.38432000000003,
                    "velocity": 1
                },
                {
                    "duration": 0.2884610000000123,
                    "durationTicks": 120,
                    "midi": 42,
                    "name": "F#2",
                    "ticks": 76800,
                    "time": 247.38432000000003,
                    "velocity": 1
                },
                {
                    "duration": 0.28846099999998387,
                    "durationTicks": 120,
                    "midi": 38,
                    "name": "D2",
                    "ticks": 76920,
                    "time": 247.67278100000004,
                    "velocity": 1
                },
                {
                    "duration": 0.28846099999998387,
                    "durationTicks": 120,
                    "midi": 42,
                    "name": "F#2",
                    "ticks": 76920,
                    "time": 247.67278100000004,
                    "velocity": 1
                },
                {
                    "duration": 0.14423049999999193,
                    "durationTicks": 60,
                    "midi": 36,
                    "name": "C2",
                    "ticks": 77040,
                    "time": 247.96124200000003,
                    "velocity": 1
                },
                {
                    "duration": 0.2884610000000123,
                    "durationTicks": 120,
                    "midi": 42,
                    "name": "F#2",
                    "ticks": 77040,
                    "time": 247.96124200000003,
                    "velocity": 1
                },
                {
                    "duration": 0.14423050000002036,
                    "durationTicks": 60,
                    "midi": 36,
                    "name": "C2",
                    "ticks": 77100,
                    "time": 248.10547250000002,
                    "velocity": 1
                },
                {
                    "duration": 0.2884610000000123,
                    "durationTicks": 120,
                    "midi": 38,
                    "name": "D2",
                    "ticks": 77160,
                    "time": 248.24970300000004,
                    "velocity": 1
                },
                {
                    "duration": 0.2884610000000123,
                    "durationTicks": 120,
                    "midi": 42,
                    "name": "F#2",
                    "ticks": 77160,
                    "time": 248.24970300000004,
                    "velocity": 1
                },
                {
                    "duration": 0.28846099999998387,
                    "durationTicks": 120,
                    "midi": 36,
                    "name": "C2",
                    "ticks": 77280,
                    "time": 248.53816400000005,
                    "velocity": 1
                },
                {
                    "duration": 0.28846099999998387,
                    "durationTicks": 120,
                    "midi": 57,
                    "name": "A3",
                    "ticks": 77280,
                    "time": 248.53816400000005,
                    "velocity": 1
                },
                {
                    "duration": 0.14423049999999193,
                    "durationTicks": 60,
                    "midi": 38,
                    "name": "D2",
                    "ticks": 77460,
                    "time": 248.97085550000003,
                    "velocity": 1
                },
                {
                    "duration": 0.2884610000000123,
                    "durationTicks": 120,
                    "midi": 38,
                    "name": "D2",
                    "ticks": 77640,
                    "time": 249.40354700000003,
                    "velocity": 1
                },
                {
                    "duration": 0.28846099999998387,
                    "durationTicks": 120,
                    "midi": 36,
                    "name": "C2",
                    "ticks": 77760,
                    "time": 249.69200800000004,
                    "velocity": 1
                },
                {
                    "duration": 0.28846099999998387,
                    "durationTicks": 120,
                    "midi": 57,
                    "name": "A3",
                    "ticks": 77760,
                    "time": 249.69200800000004,
                    "velocity": 1
                },
                {
                    "duration": 0.14423050000002036,
                    "durationTicks": 60,
                    "midi": 38,
                    "name": "D2",
                    "ticks": 77940,
                    "time": 250.12469950000002,
                    "velocity": 1
                },
                {
                    "duration": 0.28846099999998387,
                    "durationTicks": 120,
                    "midi": 38,
                    "name": "D2",
                    "ticks": 78120,
                    "time": 250.55739100000005,
                    "velocity": 1
                },
                {
                    "duration": 0.28846099999998387,
                    "durationTicks": 120,
                    "midi": 36,
                    "name": "C2",
                    "ticks": 78240,
                    "time": 250.84585200000004,
                    "velocity": 1
                },
                {
                    "duration": 0.28846099999998387,
                    "durationTicks": 120,
                    "midi": 57,
                    "name": "A3",
                    "ticks": 78240,
                    "time": 250.84585200000004,
                    "velocity": 1
                },
                {
                    "duration": 0.04807683333334012,
                    "durationTicks": 20,
                    "midi": 36,
                    "name": "C2",
                    "ticks": 78540,
                    "time": 251.56700450000002,
                    "velocity": 1
                },
                {
                    "duration": 0.04807683333334012,
                    "durationTicks": 20,
                    "midi": 36,
                    "name": "C2",
                    "ticks": 78560,
                    "time": 251.61508133333336,
                    "velocity": 1
                },
                {
                    "duration": 0.04807683333334012,
                    "durationTicks": 20,
                    "midi": 36,
                    "name": "C2",
                    "ticks": 78580,
                    "time": 251.6631581666667,
                    "velocity": 1
                },
                {
                    "duration": 0.012019208333356346,
                    "durationTicks": 5,
                    "midi": 38,
                    "name": "D2",
                    "ticks": 78595,
                    "time": 251.6992157916667,
                    "velocity": 0.5905511811023622
                },
                {
                    "duration": 0.28846099999998387,
                    "durationTicks": 120,
                    "midi": 38,
                    "name": "D2",
                    "ticks": 78600,
                    "time": 251.71123500000004,
                    "velocity": 1
                },
                {
                    "duration": 0.42857100000000514,
                    "durationTicks": 120,
                    "midi": 36,
                    "name": "C2",
                    "ticks": 78720,
                    "time": 251.99969600000003,
                    "velocity": 1
                },
                {
                    "duration": 0.42857100000000514,
                    "durationTicks": 120,
                    "midi": 57,
                    "name": "A3",
                    "ticks": 78720,
                    "time": 251.99969600000003,
                    "velocity": 1
                },
                {
                    "duration": 0.21428549999998836,
                    "durationTicks": 60,
                    "midi": 36,
                    "name": "C2",
                    "ticks": 79560,
                    "time": 254.99969300000004,
                    "velocity": 1
                },
                {
                    "duration": 0.21428549999998836,
                    "durationTicks": 60,
                    "midi": 38,
                    "name": "D2",
                    "ticks": 79560,
                    "time": 254.99969300000004,
                    "velocity": 1
                },
                {
                    "duration": 0.21428549999998836,
                    "durationTicks": 60,
                    "midi": 42,
                    "name": "F#2",
                    "ticks": 79560,
                    "time": 254.99969300000004,
                    "velocity": 1
                },
                {
                    "duration": 0.21428550000001678,
                    "durationTicks": 60,
                    "midi": 42,
                    "name": "F#2",
                    "ticks": 79620,
                    "time": 255.21397850000002,
                    "velocity": 1
                },
                {
                    "duration": 0.21428550000001678,
                    "durationTicks": 60,
                    "midi": 38,
                    "name": "D2",
                    "ticks": 79620,
                    "time": 255.21397850000002,
                    "velocity": 1
                },
                {
                    "duration": 0.21428550000001678,
                    "durationTicks": 60,
                    "midi": 36,
                    "name": "C2",
                    "ticks": 79620,
                    "time": 255.21397850000002,
                    "velocity": 1
                },
                {
                    "duration": 0.4285709999999767,
                    "durationTicks": 120,
                    "midi": 36,
                    "name": "C2",
                    "ticks": 79680,
                    "time": 255.42826400000004,
                    "velocity": 1
                },
                {
                    "duration": 0.4285709999999767,
                    "durationTicks": 120,
                    "midi": 38,
                    "name": "D2",
                    "ticks": 79680,
                    "time": 255.42826400000004,
                    "velocity": 1
                },
                {
                    "duration": 0.4285709999999767,
                    "durationTicks": 120,
                    "midi": 42,
                    "name": "F#2",
                    "ticks": 79680,
                    "time": 255.42826400000004,
                    "velocity": 1
                },
                {
                    "duration": 0.21428550000001678,
                    "durationTicks": 60,
                    "midi": 36,
                    "name": "C2",
                    "ticks": 80520,
                    "time": 258.428261,
                    "velocity": 1
                },
                {
                    "duration": 0.21428550000001678,
                    "durationTicks": 60,
                    "midi": 38,
                    "name": "D2",
                    "ticks": 80520,
                    "time": 258.428261,
                    "velocity": 1
                },
                {
                    "duration": 0.21428550000001678,
                    "durationTicks": 60,
                    "midi": 42,
                    "name": "F#2",
                    "ticks": 80520,
                    "time": 258.428261,
                    "velocity": 1
                },
                {
                    "duration": 0.21428550000001678,
                    "durationTicks": 60,
                    "midi": 42,
                    "name": "F#2",
                    "ticks": 80580,
                    "time": 258.64254650000004,
                    "velocity": 1
                },
                {
                    "duration": 0.21428550000001678,
                    "durationTicks": 60,
                    "midi": 38,
                    "name": "D2",
                    "ticks": 80580,
                    "time": 258.64254650000004,
                    "velocity": 1
                },
                {
                    "duration": 0.21428550000001678,
                    "durationTicks": 60,
                    "midi": 36,
                    "name": "C2",
                    "ticks": 80580,
                    "time": 258.64254650000004,
                    "velocity": 1
                },
                {
                    "duration": 0.4285709999999767,
                    "durationTicks": 120,
                    "midi": 36,
                    "name": "C2",
                    "ticks": 80640,
                    "time": 258.85683200000005,
                    "velocity": 1
                },
                {
                    "duration": 0.4285709999999767,
                    "durationTicks": 120,
                    "midi": 38,
                    "name": "D2",
                    "ticks": 80640,
                    "time": 258.85683200000005,
                    "velocity": 1
                },
                {
                    "duration": 0.4285709999999767,
                    "durationTicks": 120,
                    "midi": 42,
                    "name": "F#2",
                    "ticks": 80640,
                    "time": 258.85683200000005,
                    "velocity": 1
                },
                {
                    "duration": 0.21428550000001678,
                    "durationTicks": 60,
                    "midi": 38,
                    "name": "D2",
                    "ticks": 81600,
                    "time": 262.28540000000004,
                    "velocity": 1
                },
                {
                    "duration": 0.21428550000001678,
                    "durationTicks": 60,
                    "midi": 42,
                    "name": "F#2",
                    "ticks": 81600,
                    "time": 262.28540000000004,
                    "velocity": 1
                },
                {
                    "duration": 0.21428550000001678,
                    "durationTicks": 60,
                    "midi": 36,
                    "name": "C2",
                    "ticks": 81600,
                    "time": 262.28540000000004,
                    "velocity": 1
                },
                {
                    "duration": 0.21428549999995994,
                    "durationTicks": 60,
                    "midi": 42,
                    "name": "F#2",
                    "ticks": 81660,
                    "time": 262.49968550000006,
                    "velocity": 1
                },
                {
                    "duration": 0.21428549999995994,
                    "durationTicks": 60,
                    "midi": 38,
                    "name": "D2",
                    "ticks": 81660,
                    "time": 262.49968550000006,
                    "velocity": 1
                },
                {
                    "duration": 0.21428549999995994,
                    "durationTicks": 60,
                    "midi": 36,
                    "name": "C2",
                    "ticks": 81660,
                    "time": 262.49968550000006,
                    "velocity": 1
                },
                {
                    "duration": 0.21428550000001678,
                    "durationTicks": 60,
                    "midi": 38,
                    "name": "D2",
                    "ticks": 81720,
                    "time": 262.713971,
                    "velocity": 1
                },
                {
                    "duration": 0.21428550000001678,
                    "durationTicks": 60,
                    "midi": 42,
                    "name": "F#2",
                    "ticks": 81720,
                    "time": 262.713971,
                    "velocity": 1
                },
                {
                    "duration": 0.21428550000001678,
                    "durationTicks": 60,
                    "midi": 36,
                    "name": "C2",
                    "ticks": 81720,
                    "time": 262.713971,
                    "velocity": 1
                },
                {
                    "duration": 0.21428550000001678,
                    "durationTicks": 60,
                    "midi": 42,
                    "name": "F#2",
                    "ticks": 81780,
                    "time": 262.92825650000003,
                    "velocity": 1
                },
                {
                    "duration": 0.21428550000001678,
                    "durationTicks": 60,
                    "midi": 38,
                    "name": "D2",
                    "ticks": 81780,
                    "time": 262.92825650000003,
                    "velocity": 1
                },
                {
                    "duration": 0.21428550000001678,
                    "durationTicks": 60,
                    "midi": 36,
                    "name": "C2",
                    "ticks": 81780,
                    "time": 262.92825650000003,
                    "velocity": 1
                },
                {
                    "duration": 0.21428549999995994,
                    "durationTicks": 60,
                    "midi": 38,
                    "name": "D2",
                    "ticks": 81840,
                    "time": 263.14254200000005,
                    "velocity": 1
                },
                {
                    "duration": 0.21428549999995994,
                    "durationTicks": 60,
                    "midi": 42,
                    "name": "F#2",
                    "ticks": 81840,
                    "time": 263.14254200000005,
                    "velocity": 1
                },
                {
                    "duration": 0.21428549999995994,
                    "durationTicks": 60,
                    "midi": 36,
                    "name": "C2",
                    "ticks": 81840,
                    "time": 263.14254200000005,
                    "velocity": 1
                },
                {
                    "duration": 0.21428550000001678,
                    "durationTicks": 60,
                    "midi": 42,
                    "name": "F#2",
                    "ticks": 81900,
                    "time": 263.3568275,
                    "velocity": 1
                },
                {
                    "duration": 0.21428550000001678,
                    "durationTicks": 60,
                    "midi": 38,
                    "name": "D2",
                    "ticks": 81900,
                    "time": 263.3568275,
                    "velocity": 1
                },
                {
                    "duration": 0.21428550000001678,
                    "durationTicks": 60,
                    "midi": 36,
                    "name": "C2",
                    "ticks": 81900,
                    "time": 263.3568275,
                    "velocity": 1
                },
                {
                    "duration": 0.21428550000001678,
                    "durationTicks": 60,
                    "midi": 38,
                    "name": "D2",
                    "ticks": 81960,
                    "time": 263.571113,
                    "velocity": 1
                },
                {
                    "duration": 0.21428550000001678,
                    "durationTicks": 60,
                    "midi": 42,
                    "name": "F#2",
                    "ticks": 81960,
                    "time": 263.571113,
                    "velocity": 1
                },
                {
                    "duration": 0.21428550000001678,
                    "durationTicks": 60,
                    "midi": 36,
                    "name": "C2",
                    "ticks": 81960,
                    "time": 263.571113,
                    "velocity": 1
                },
                {
                    "duration": 0.21428549999995994,
                    "durationTicks": 60,
                    "midi": 42,
                    "name": "F#2",
                    "ticks": 82020,
                    "time": 263.78539850000004,
                    "velocity": 1
                },
                {
                    "duration": 0.21428549999995994,
                    "durationTicks": 60,
                    "midi": 38,
                    "name": "D2",
                    "ticks": 82020,
                    "time": 263.78539850000004,
                    "velocity": 1
                },
                {
                    "duration": 0.21428549999995994,
                    "durationTicks": 60,
                    "midi": 36,
                    "name": "C2",
                    "ticks": 82020,
                    "time": 263.78539850000004,
                    "velocity": 1
                },
                {
                    "duration": 0.21428550000001678,
                    "durationTicks": 60,
                    "midi": 38,
                    "name": "D2",
                    "ticks": 82080,
                    "time": 263.999684,
                    "velocity": 1
                },
                {
                    "duration": 0.21428550000001678,
                    "durationTicks": 60,
                    "midi": 42,
                    "name": "F#2",
                    "ticks": 82080,
                    "time": 263.999684,
                    "velocity": 1
                },
                {
                    "duration": 0.21428550000001678,
                    "durationTicks": 60,
                    "midi": 36,
                    "name": "C2",
                    "ticks": 82080,
                    "time": 263.999684,
                    "velocity": 1
                },
                {
                    "duration": 0.21428550000001678,
                    "durationTicks": 60,
                    "midi": 42,
                    "name": "F#2",
                    "ticks": 82140,
                    "time": 264.2139695,
                    "velocity": 1
                },
                {
                    "duration": 0.21428550000001678,
                    "durationTicks": 60,
                    "midi": 38,
                    "name": "D2",
                    "ticks": 82140,
                    "time": 264.2139695,
                    "velocity": 1
                },
                {
                    "duration": 0.21428550000001678,
                    "durationTicks": 60,
                    "midi": 36,
                    "name": "C2",
                    "ticks": 82140,
                    "time": 264.2139695,
                    "velocity": 1
                },
                {
                    "duration": 0.4285709999999767,
                    "durationTicks": 120,
                    "midi": 36,
                    "name": "C2",
                    "ticks": 82200,
                    "time": 264.42825500000004,
                    "velocity": 1
                },
                {
                    "duration": 0.10714274999997997,
                    "durationTicks": 30,
                    "midi": 38,
                    "name": "D2",
                    "ticks": 82200,
                    "time": 264.42825500000004,
                    "velocity": 1
                },
                {
                    "duration": 0.10714275000003681,
                    "durationTicks": 30,
                    "midi": 38,
                    "name": "D2",
                    "ticks": 82230,
                    "time": 264.53539775,
                    "velocity": 1
                },
                {
                    "duration": 0.10714274999997997,
                    "durationTicks": 30,
                    "midi": 38,
                    "name": "D2",
                    "ticks": 82260,
                    "time": 264.64254050000005,
                    "velocity": 1
                },
                {
                    "duration": 0.10714274999997997,
                    "durationTicks": 30,
                    "midi": 38,
                    "name": "D2",
                    "ticks": 82290,
                    "time": 264.74968325000003,
                    "velocity": 1
                },
                {
                    "duration": 0.42857100000003356,
                    "durationTicks": 120,
                    "midi": 36,
                    "name": "C2",
                    "ticks": 82320,
                    "time": 264.856826,
                    "velocity": 1
                },
                {
                    "duration": 0.21428550000001678,
                    "durationTicks": 60,
                    "midi": 38,
                    "name": "D2",
                    "ticks": 82320,
                    "time": 264.856826,
                    "velocity": 1
                },
                {
                    "duration": 0.10714274999997997,
                    "durationTicks": 30,
                    "midi": 38,
                    "name": "D2",
                    "ticks": 82380,
                    "time": 265.07111150000003,
                    "velocity": 1
                },
                {
                    "duration": 0.10714275000003681,
                    "durationTicks": 30,
                    "midi": 38,
                    "name": "D2",
                    "ticks": 82410,
                    "time": 265.17825425,
                    "velocity": 1
                },
                {
                    "duration": 0.21428549999995994,
                    "durationTicks": 60,
                    "midi": 57,
                    "name": "A3",
                    "ticks": 82440,
                    "time": 265.28539700000005,
                    "velocity": 1
                },
                {
                    "duration": 0.21428549999995994,
                    "durationTicks": 60,
                    "midi": 36,
                    "name": "C2",
                    "ticks": 82440,
                    "time": 265.28539700000005,
                    "velocity": 1
                },
                {
                    "duration": 0.21428550000001678,
                    "durationTicks": 60,
                    "midi": 57,
                    "name": "A3",
                    "ticks": 82500,
                    "time": 265.4996825,
                    "velocity": 1
                },
                {
                    "duration": 0.21428550000001678,
                    "durationTicks": 60,
                    "midi": 36,
                    "name": "C2",
                    "ticks": 82500,
                    "time": 265.4996825,
                    "velocity": 1
                },
                {
                    "duration": 0.42857100000003356,
                    "durationTicks": 120,
                    "midi": 36,
                    "name": "C2",
                    "ticks": 82560,
                    "time": 265.713968,
                    "velocity": 1
                },
                {
                    "duration": 0.42857100000003356,
                    "durationTicks": 120,
                    "midi": 57,
                    "name": "A3",
                    "ticks": 82560,
                    "time": 265.713968,
                    "velocity": 1
                },
                {
                    "duration": 0.21428549999995994,
                    "durationTicks": 60,
                    "midi": 38,
                    "name": "D2",
                    "ticks": 82680,
                    "time": 266.14253900000006,
                    "velocity": 1
                },
                {
                    "duration": 0.21428549999995994,
                    "durationTicks": 60,
                    "midi": 42,
                    "name": "F#2",
                    "ticks": 82680,
                    "time": 266.14253900000006,
                    "velocity": 1
                },
                {
                    "duration": 0.21428550000001678,
                    "durationTicks": 60,
                    "midi": 42,
                    "name": "F#2",
                    "ticks": 82740,
                    "time": 266.3568245,
                    "velocity": 1
                },
                {
                    "duration": 0.21428550000001678,
                    "durationTicks": 60,
                    "midi": 42,
                    "name": "F#2",
                    "ticks": 82800,
                    "time": 266.57111000000003,
                    "velocity": 1
                },
                {
                    "duration": 0.21428549999995994,
                    "durationTicks": 60,
                    "midi": 36,
                    "name": "C2",
                    "ticks": 82860,
                    "time": 266.78539550000005,
                    "velocity": 1
                },
                {
                    "duration": 0.21428549999995994,
                    "durationTicks": 60,
                    "midi": 42,
                    "name": "F#2",
                    "ticks": 82860,
                    "time": 266.78539550000005,
                    "velocity": 1
                },
                {
                    "duration": 0.21428550000001678,
                    "durationTicks": 60,
                    "midi": 38,
                    "name": "D2",
                    "ticks": 82920,
                    "time": 266.999681,
                    "velocity": 1
                },
                {
                    "duration": 0.21428550000001678,
                    "durationTicks": 60,
                    "midi": 42,
                    "name": "F#2",
                    "ticks": 82920,
                    "time": 266.999681,
                    "velocity": 1
                },
                {
                    "duration": 0.21428550000001678,
                    "durationTicks": 60,
                    "midi": 36,
                    "name": "C2",
                    "ticks": 82980,
                    "time": 267.2139665,
                    "velocity": 1
                },
                {
                    "duration": 0.21428550000001678,
                    "durationTicks": 60,
                    "midi": 42,
                    "name": "F#2",
                    "ticks": 82980,
                    "time": 267.2139665,
                    "velocity": 1
                },
                {
                    "duration": 0.21428549999995994,
                    "durationTicks": 60,
                    "midi": 42,
                    "name": "F#2",
                    "ticks": 83040,
                    "time": 267.42825200000004,
                    "velocity": 1
                },
                {
                    "duration": 0.21428550000001678,
                    "durationTicks": 60,
                    "midi": 36,
                    "name": "C2",
                    "ticks": 83100,
                    "time": 267.6425375,
                    "velocity": 1
                },
                {
                    "duration": 0.21428550000001678,
                    "durationTicks": 60,
                    "midi": 42,
                    "name": "F#2",
                    "ticks": 83100,
                    "time": 267.6425375,
                    "velocity": 1
                },
                {
                    "duration": 0.21428550000001678,
                    "durationTicks": 60,
                    "midi": 38,
                    "name": "D2",
                    "ticks": 83160,
                    "time": 267.856823,
                    "velocity": 1
                },
                {
                    "duration": 0.21428550000001678,
                    "durationTicks": 60,
                    "midi": 42,
                    "name": "F#2",
                    "ticks": 83160,
                    "time": 267.856823,
                    "velocity": 1
                },
                {
                    "duration": 0.21428550000001678,
                    "durationTicks": 60,
                    "midi": 42,
                    "name": "F#2",
                    "ticks": 83220,
                    "time": 268.07110850000004,
                    "velocity": 1
                },
                {
                    "duration": 0.21428549999995994,
                    "durationTicks": 60,
                    "midi": 36,
                    "name": "C2",
                    "ticks": 83280,
                    "time": 268.28539400000005,
                    "velocity": 1
                },
                {
                    "duration": 0.21428549999995994,
                    "durationTicks": 60,
                    "midi": 42,
                    "name": "F#2",
                    "ticks": 83280,
                    "time": 268.28539400000005,
                    "velocity": 1
                },
                {
                    "duration": 0.07142850000002454,
                    "durationTicks": 20,
                    "midi": 36,
                    "name": "C2",
                    "ticks": 83340,
                    "time": 268.4996795,
                    "velocity": 1
                },
                {
                    "duration": 0.21428550000001678,
                    "durationTicks": 60,
                    "midi": 42,
                    "name": "F#2",
                    "ticks": 83340,
                    "time": 268.4996795,
                    "velocity": 1
                },
                {
                    "duration": 0.0714284999999677,
                    "durationTicks": 20,
                    "midi": 36,
                    "name": "C2",
                    "ticks": 83360,
                    "time": 268.57110800000004,
                    "velocity": 1
                },
                {
                    "duration": 0.07142850000002454,
                    "durationTicks": 20,
                    "midi": 36,
                    "name": "C2",
                    "ticks": 83380,
                    "time": 268.6425365,
                    "velocity": 1
                },
                {
                    "duration": 0.21428550000001678,
                    "durationTicks": 60,
                    "midi": 38,
                    "name": "D2",
                    "ticks": 83400,
                    "time": 268.71396500000003,
                    "velocity": 1
                },
                {
                    "duration": 0.21428550000001678,
                    "durationTicks": 60,
                    "midi": 42,
                    "name": "F#2",
                    "ticks": 83400,
                    "time": 268.71396500000003,
                    "velocity": 1
                },
                {
                    "duration": 0.21428549999995994,
                    "durationTicks": 60,
                    "midi": 36,
                    "name": "C2",
                    "ticks": 83460,
                    "time": 268.92825050000005,
                    "velocity": 1
                },
                {
                    "duration": 0.21428549999995994,
                    "durationTicks": 60,
                    "midi": 57,
                    "name": "A3",
                    "ticks": 83460,
                    "time": 268.92825050000005,
                    "velocity": 1
                },
                {
                    "duration": 0.42857100000003356,
                    "durationTicks": 120,
                    "midi": 36,
                    "name": "C2",
                    "ticks": 83520,
                    "time": 269.142536,
                    "velocity": 1
                },
                {
                    "duration": 0.42857100000003356,
                    "durationTicks": 120,
                    "midi": 57,
                    "name": "A3",
                    "ticks": 83520,
                    "time": 269.142536,
                    "velocity": 1
                },
                {
                    "duration": 0.21428550000001678,
                    "durationTicks": 60,
                    "midi": 38,
                    "name": "D2",
                    "ticks": 83640,
                    "time": 269.57110700000004,
                    "velocity": 1
                },
                {
                    "duration": 0.21428550000001678,
                    "durationTicks": 60,
                    "midi": 42,
                    "name": "F#2",
                    "ticks": 83640,
                    "time": 269.57110700000004,
                    "velocity": 1
                },
                {
                    "duration": 0.21428549999995994,
                    "durationTicks": 60,
                    "midi": 42,
                    "name": "F#2",
                    "ticks": 83700,
                    "time": 269.78539250000006,
                    "velocity": 1
                },
                {
                    "duration": 0.21428550000001678,
                    "durationTicks": 60,
                    "midi": 42,
                    "name": "F#2",
                    "ticks": 83760,
                    "time": 269.999678,
                    "velocity": 1
                },
                {
                    "duration": 0.21428550000001678,
                    "durationTicks": 60,
                    "midi": 36,
                    "name": "C2",
                    "ticks": 83820,
                    "time": 270.21396350000003,
                    "velocity": 1
                },
                {
                    "duration": 0.21428550000001678,
                    "durationTicks": 60,
                    "midi": 42,
                    "name": "F#2",
                    "ticks": 83820,
                    "time": 270.21396350000003,
                    "velocity": 1
                },
                {
                    "duration": 0.21428549999995994,
                    "durationTicks": 60,
                    "midi": 38,
                    "name": "D2",
                    "ticks": 83880,
                    "time": 270.42824900000005,
                    "velocity": 1
                },
                {
                    "duration": 0.21428549999995994,
                    "durationTicks": 60,
                    "midi": 42,
                    "name": "F#2",
                    "ticks": 83880,
                    "time": 270.42824900000005,
                    "velocity": 1
                },
                {
                    "duration": 0.21428550000001678,
                    "durationTicks": 60,
                    "midi": 36,
                    "name": "C2",
                    "ticks": 83940,
                    "time": 270.6425345,
                    "velocity": 1
                },
                {
                    "duration": 0.21428550000001678,
                    "durationTicks": 60,
                    "midi": 42,
                    "name": "F#2",
                    "ticks": 83940,
                    "time": 270.6425345,
                    "velocity": 1
                },
                {
                    "duration": 0.21428550000001678,
                    "durationTicks": 60,
                    "midi": 42,
                    "name": "F#2",
                    "ticks": 84000,
                    "time": 270.85682,
                    "velocity": 1
                },
                {
                    "duration": 0.21428549999995994,
                    "durationTicks": 60,
                    "midi": 36,
                    "name": "C2",
                    "ticks": 84060,
                    "time": 271.07110550000004,
                    "velocity": 1
                },
                {
                    "duration": 0.21428549999995994,
                    "durationTicks": 60,
                    "midi": 42,
                    "name": "F#2",
                    "ticks": 84060,
                    "time": 271.07110550000004,
                    "velocity": 1
                },
                {
                    "duration": 0.21428550000001678,
                    "durationTicks": 60,
                    "midi": 38,
                    "name": "D2",
                    "ticks": 84120,
                    "time": 271.285391,
                    "velocity": 1
                },
                {
                    "duration": 0.21428550000001678,
                    "durationTicks": 60,
                    "midi": 42,
                    "name": "F#2",
                    "ticks": 84120,
                    "time": 271.285391,
                    "velocity": 1
                },
                {
                    "duration": 0.21428550000001678,
                    "durationTicks": 60,
                    "midi": 42,
                    "name": "F#2",
                    "ticks": 84180,
                    "time": 271.4996765,
                    "velocity": 1
                },
                {
                    "duration": 0.21428550000001678,
                    "durationTicks": 60,
                    "midi": 36,
                    "name": "C2",
                    "ticks": 84240,
                    "time": 271.71396200000004,
                    "velocity": 1
                },
                {
                    "duration": 0.21428550000001678,
                    "durationTicks": 60,
                    "midi": 42,
                    "name": "F#2",
                    "ticks": 84240,
                    "time": 271.71396200000004,
                    "velocity": 1
                },
                {
                    "duration": 0.0714284999999677,
                    "durationTicks": 20,
                    "midi": 36,
                    "name": "C2",
                    "ticks": 84300,
                    "time": 271.92824750000005,
                    "velocity": 1
                },
                {
                    "duration": 0.21428549999995994,
                    "durationTicks": 60,
                    "midi": 42,
                    "name": "F#2",
                    "ticks": 84300,
                    "time": 271.92824750000005,
                    "velocity": 1
                },
                {
                    "duration": 0.07142850000002454,
                    "durationTicks": 20,
                    "midi": 36,
                    "name": "C2",
                    "ticks": 84320,
                    "time": 271.999676,
                    "velocity": 1
                },
                {
                    "duration": 0.0714284999999677,
                    "durationTicks": 20,
                    "midi": 36,
                    "name": "C2",
                    "ticks": 84340,
                    "time": 272.07110450000005,
                    "velocity": 1
                },
                {
                    "duration": 0.21428550000001678,
                    "durationTicks": 60,
                    "midi": 38,
                    "name": "D2",
                    "ticks": 84360,
                    "time": 272.142533,
                    "velocity": 1
                },
                {
                    "duration": 0.21428550000001678,
                    "durationTicks": 60,
                    "midi": 42,
                    "name": "F#2",
                    "ticks": 84360,
                    "time": 272.142533,
                    "velocity": 1
                },
                {
                    "duration": 0.21428550000001678,
                    "durationTicks": 60,
                    "midi": 36,
                    "name": "C2",
                    "ticks": 84420,
                    "time": 272.35681850000003,
                    "velocity": 1
                },
                {
                    "duration": 0.21428550000001678,
                    "durationTicks": 60,
                    "midi": 57,
                    "name": "A3",
                    "ticks": 84420,
                    "time": 272.35681850000003,
                    "velocity": 1
                },
                {
                    "duration": 0.4285709999999767,
                    "durationTicks": 120,
                    "midi": 36,
                    "name": "C2",
                    "ticks": 84480,
                    "time": 272.57110400000005,
                    "velocity": 1
                },
                {
                    "duration": 0.4285709999999767,
                    "durationTicks": 120,
                    "midi": 57,
                    "name": "A3",
                    "ticks": 84480,
                    "time": 272.57110400000005,
                    "velocity": 1
                },
                {
                    "duration": 0.21428550000001678,
                    "durationTicks": 60,
                    "midi": 38,
                    "name": "D2",
                    "ticks": 84600,
                    "time": 272.999675,
                    "velocity": 1
                },
                {
                    "duration": 0.21428550000001678,
                    "durationTicks": 60,
                    "midi": 42,
                    "name": "F#2",
                    "ticks": 84600,
                    "time": 272.999675,
                    "velocity": 1
                },
                {
                    "duration": 0.21428550000001678,
                    "durationTicks": 60,
                    "midi": 42,
                    "name": "F#2",
                    "ticks": 84660,
                    "time": 273.21396050000004,
                    "velocity": 1
                },
                {
                    "duration": 0.21428549999995994,
                    "durationTicks": 60,
                    "midi": 42,
                    "name": "F#2",
                    "ticks": 84720,
                    "time": 273.42824600000006,
                    "velocity": 1
                },
                {
                    "duration": 0.21428550000001678,
                    "durationTicks": 60,
                    "midi": 36,
                    "name": "C2",
                    "ticks": 84780,
                    "time": 273.6425315,
                    "velocity": 1
                },
                {
                    "duration": 0.21428550000001678,
                    "durationTicks": 60,
                    "midi": 42,
                    "name": "F#2",
                    "ticks": 84780,
                    "time": 273.6425315,
                    "velocity": 1
                },
                {
                    "duration": 0.21428550000001678,
                    "durationTicks": 60,
                    "midi": 38,
                    "name": "D2",
                    "ticks": 84840,
                    "time": 273.85681700000004,
                    "velocity": 1
                },
                {
                    "duration": 0.21428550000001678,
                    "durationTicks": 60,
                    "midi": 42,
                    "name": "F#2",
                    "ticks": 84840,
                    "time": 273.85681700000004,
                    "velocity": 1
                },
                {
                    "duration": 0.21428549999995994,
                    "durationTicks": 60,
                    "midi": 36,
                    "name": "C2",
                    "ticks": 84900,
                    "time": 274.07110250000005,
                    "velocity": 1
                },
                {
                    "duration": 0.21428549999995994,
                    "durationTicks": 60,
                    "midi": 42,
                    "name": "F#2",
                    "ticks": 84900,
                    "time": 274.07110250000005,
                    "velocity": 1
                },
                {
                    "duration": 0.21428550000001678,
                    "durationTicks": 60,
                    "midi": 42,
                    "name": "F#2",
                    "ticks": 84960,
                    "time": 274.285388,
                    "velocity": 1
                },
                {
                    "duration": 0.21428550000001678,
                    "durationTicks": 60,
                    "midi": 36,
                    "name": "C2",
                    "ticks": 85020,
                    "time": 274.49967350000003,
                    "velocity": 1
                },
                {
                    "duration": 0.21428550000001678,
                    "durationTicks": 60,
                    "midi": 42,
                    "name": "F#2",
                    "ticks": 85020,
                    "time": 274.49967350000003,
                    "velocity": 1
                },
                {
                    "duration": 0.21428549999995994,
                    "durationTicks": 60,
                    "midi": 38,
                    "name": "D2",
                    "ticks": 85080,
                    "time": 274.71395900000005,
                    "velocity": 1
                },
                {
                    "duration": 0.21428549999995994,
                    "durationTicks": 60,
                    "midi": 42,
                    "name": "F#2",
                    "ticks": 85080,
                    "time": 274.71395900000005,
                    "velocity": 1
                },
                {
                    "duration": 0.21428550000001678,
                    "durationTicks": 60,
                    "midi": 42,
                    "name": "F#2",
                    "ticks": 85140,
                    "time": 274.9282445,
                    "velocity": 1
                },
                {
                    "duration": 0.21428550000001678,
                    "durationTicks": 60,
                    "midi": 36,
                    "name": "C2",
                    "ticks": 85200,
                    "time": 275.14253,
                    "velocity": 1
                },
                {
                    "duration": 0.21428550000001678,
                    "durationTicks": 60,
                    "midi": 42,
                    "name": "F#2",
                    "ticks": 85200,
                    "time": 275.14253,
                    "velocity": 1
                },
                {
                    "duration": 0.0714284999999677,
                    "durationTicks": 20,
                    "midi": 36,
                    "name": "C2",
                    "ticks": 85260,
                    "time": 275.35681550000004,
                    "velocity": 1
                },
                {
                    "duration": 0.21428550000001678,
                    "durationTicks": 60,
                    "midi": 42,
                    "name": "F#2",
                    "ticks": 85260,
                    "time": 275.35681550000004,
                    "velocity": 1
                },
                {
                    "duration": 0.07142850000002454,
                    "durationTicks": 20,
                    "midi": 36,
                    "name": "C2",
                    "ticks": 85280,
                    "time": 275.428244,
                    "velocity": 1
                },
                {
                    "duration": 0.07142850000002454,
                    "durationTicks": 20,
                    "midi": 36,
                    "name": "C2",
                    "ticks": 85300,
                    "time": 275.49967250000003,
                    "velocity": 1
                },
                {
                    "duration": 0.21428549999995994,
                    "durationTicks": 60,
                    "midi": 38,
                    "name": "D2",
                    "ticks": 85320,
                    "time": 275.57110100000006,
                    "velocity": 1
                },
                {
                    "duration": 0.21428549999995994,
                    "durationTicks": 60,
                    "midi": 42,
                    "name": "F#2",
                    "ticks": 85320,
                    "time": 275.57110100000006,
                    "velocity": 1
                },
                {
                    "duration": 0.21428550000001678,
                    "durationTicks": 60,
                    "midi": 36,
                    "name": "C2",
                    "ticks": 85380,
                    "time": 275.7853865,
                    "velocity": 1
                },
                {
                    "duration": 0.21428550000001678,
                    "durationTicks": 60,
                    "midi": 57,
                    "name": "A3",
                    "ticks": 85380,
                    "time": 275.7853865,
                    "velocity": 1
                },
                {
                    "duration": 0.4285709999999767,
                    "durationTicks": 120,
                    "midi": 36,
                    "name": "C2",
                    "ticks": 85440,
                    "time": 275.99967200000003,
                    "velocity": 1
                },
                {
                    "duration": 0.4285709999999767,
                    "durationTicks": 120,
                    "midi": 57,
                    "name": "A3",
                    "ticks": 85440,
                    "time": 275.99967200000003,
                    "velocity": 1
                },
                {
                    "duration": 0.21428550000001678,
                    "durationTicks": 60,
                    "midi": 38,
                    "name": "D2",
                    "ticks": 85560,
                    "time": 276.428243,
                    "velocity": 1
                },
                {
                    "duration": 0.21428550000001678,
                    "durationTicks": 60,
                    "midi": 42,
                    "name": "F#2",
                    "ticks": 85560,
                    "time": 276.428243,
                    "velocity": 1
                },
                {
                    "duration": 0.21428550000001678,
                    "durationTicks": 60,
                    "midi": 42,
                    "name": "F#2",
                    "ticks": 85620,
                    "time": 276.6425285,
                    "velocity": 1
                },
                {
                    "duration": 0.21428550000001678,
                    "durationTicks": 60,
                    "midi": 42,
                    "name": "F#2",
                    "ticks": 85680,
                    "time": 276.85681400000004,
                    "velocity": 1
                },
                {
                    "duration": 0.21428549999995994,
                    "durationTicks": 60,
                    "midi": 36,
                    "name": "C2",
                    "ticks": 85740,
                    "time": 277.07109950000006,
                    "velocity": 1
                },
                {
                    "duration": 0.21428549999995994,
                    "durationTicks": 60,
                    "midi": 42,
                    "name": "F#2",
                    "ticks": 85740,
                    "time": 277.07109950000006,
                    "velocity": 1
                },
                {
                    "duration": 0.21428550000001678,
                    "durationTicks": 60,
                    "midi": 38,
                    "name": "D2",
                    "ticks": 85800,
                    "time": 277.285385,
                    "velocity": 1
                },
                {
                    "duration": 0.21428550000001678,
                    "durationTicks": 60,
                    "midi": 42,
                    "name": "F#2",
                    "ticks": 85800,
                    "time": 277.285385,
                    "velocity": 1
                },
                {
                    "duration": 0.21428550000001678,
                    "durationTicks": 60,
                    "midi": 36,
                    "name": "C2",
                    "ticks": 85860,
                    "time": 277.49967050000004,
                    "velocity": 1
                },
                {
                    "duration": 0.21428550000001678,
                    "durationTicks": 60,
                    "midi": 42,
                    "name": "F#2",
                    "ticks": 85860,
                    "time": 277.49967050000004,
                    "velocity": 1
                },
                {
                    "duration": 0.21428549999995994,
                    "durationTicks": 60,
                    "midi": 42,
                    "name": "F#2",
                    "ticks": 85920,
                    "time": 277.71395600000005,
                    "velocity": 1
                },
                {
                    "duration": 0.21428550000001678,
                    "durationTicks": 60,
                    "midi": 36,
                    "name": "C2",
                    "ticks": 85980,
                    "time": 277.9282415,
                    "velocity": 1
                },
                {
                    "duration": 0.21428550000001678,
                    "durationTicks": 60,
                    "midi": 42,
                    "name": "F#2",
                    "ticks": 85980,
                    "time": 277.9282415,
                    "velocity": 1
                },
                {
                    "duration": 0.21428550000001678,
                    "durationTicks": 60,
                    "midi": 38,
                    "name": "D2",
                    "ticks": 86040,
                    "time": 278.14252700000003,
                    "velocity": 1
                },
                {
                    "duration": 0.21428550000001678,
                    "durationTicks": 60,
                    "midi": 42,
                    "name": "F#2",
                    "ticks": 86040,
                    "time": 278.14252700000003,
                    "velocity": 1
                },
                {
                    "duration": 0.21428549999995994,
                    "durationTicks": 60,
                    "midi": 42,
                    "name": "F#2",
                    "ticks": 86100,
                    "time": 278.35681250000005,
                    "velocity": 1
                },
                {
                    "duration": 0.21428550000001678,
                    "durationTicks": 60,
                    "midi": 36,
                    "name": "C2",
                    "ticks": 86160,
                    "time": 278.571098,
                    "velocity": 1
                },
                {
                    "duration": 0.21428550000001678,
                    "durationTicks": 60,
                    "midi": 42,
                    "name": "F#2",
                    "ticks": 86160,
                    "time": 278.571098,
                    "velocity": 1
                },
                {
                    "duration": 0.07142850000002454,
                    "durationTicks": 20,
                    "midi": 36,
                    "name": "C2",
                    "ticks": 86220,
                    "time": 278.7853835,
                    "velocity": 1
                },
                {
                    "duration": 0.21428550000001678,
                    "durationTicks": 60,
                    "midi": 42,
                    "name": "F#2",
                    "ticks": 86220,
                    "time": 278.7853835,
                    "velocity": 1
                },
                {
                    "duration": 0.0714284999999677,
                    "durationTicks": 20,
                    "midi": 36,
                    "name": "C2",
                    "ticks": 86240,
                    "time": 278.85681200000005,
                    "velocity": 1
                },
                {
                    "duration": 0.07142850000002454,
                    "durationTicks": 20,
                    "midi": 36,
                    "name": "C2",
                    "ticks": 86260,
                    "time": 278.9282405,
                    "velocity": 1
                },
                {
                    "duration": 0.21428550000001678,
                    "durationTicks": 60,
                    "midi": 38,
                    "name": "D2",
                    "ticks": 86280,
                    "time": 278.99966900000004,
                    "velocity": 1
                },
                {
                    "duration": 0.21428550000001678,
                    "durationTicks": 60,
                    "midi": 42,
                    "name": "F#2",
                    "ticks": 86280,
                    "time": 278.99966900000004,
                    "velocity": 1
                },
                {
                    "duration": 0.21428549999995994,
                    "durationTicks": 60,
                    "midi": 36,
                    "name": "C2",
                    "ticks": 86340,
                    "time": 279.21395450000006,
                    "velocity": 1
                },
                {
                    "duration": 0.21428549999995994,
                    "durationTicks": 60,
                    "midi": 57,
                    "name": "A3",
                    "ticks": 86340,
                    "time": 279.21395450000006,
                    "velocity": 1
                },
                {
                    "duration": 0.42857100000003356,
                    "durationTicks": 120,
                    "midi": 36,
                    "name": "C2",
                    "ticks": 86400,
                    "time": 279.42824,
                    "velocity": 1
                },
                {
                    "duration": 0.42857100000003356,
                    "durationTicks": 120,
                    "midi": 57,
                    "name": "A3",
                    "ticks": 86400,
                    "time": 279.42824,
                    "velocity": 1
                },
                {
                    "duration": 0.21428550000001678,
                    "durationTicks": 60,
                    "midi": 36,
                    "name": "C2",
                    "ticks": 86700,
                    "time": 280.49966750000004,
                    "velocity": 1
                },
                {
                    "duration": 0.4285709999999767,
                    "durationTicks": 120,
                    "midi": 57,
                    "name": "A3",
                    "ticks": 86760,
                    "time": 280.71395300000006,
                    "velocity": 1
                },
                {
                    "duration": 0.4285709999999767,
                    "durationTicks": 120,
                    "midi": 38,
                    "name": "D2",
                    "ticks": 86760,
                    "time": 280.71395300000006,
                    "velocity": 1
                },
                {
                    "duration": 0.4285709999999767,
                    "durationTicks": 120,
                    "midi": 57,
                    "name": "A3",
                    "ticks": 86880,
                    "time": 281.14252400000004,
                    "velocity": 1
                },
                {
                    "duration": 0.4285709999999767,
                    "durationTicks": 120,
                    "midi": 36,
                    "name": "C2",
                    "ticks": 86880,
                    "time": 281.14252400000004,
                    "velocity": 1
                },
                {
                    "duration": 0.21428550000001678,
                    "durationTicks": 60,
                    "midi": 38,
                    "name": "D2",
                    "ticks": 87000,
                    "time": 281.571095,
                    "velocity": 1
                },
                {
                    "duration": 0.21428550000001678,
                    "durationTicks": 60,
                    "midi": 42,
                    "name": "F#2",
                    "ticks": 87000,
                    "time": 281.571095,
                    "velocity": 1
                },
                {
                    "duration": 0.21428550000001678,
                    "durationTicks": 60,
                    "midi": 42,
                    "name": "F#2",
                    "ticks": 87060,
                    "time": 281.78538050000003,
                    "velocity": 1
                },
                {
                    "duration": 0.21428549999995994,
                    "durationTicks": 60,
                    "midi": 36,
                    "name": "C2",
                    "ticks": 87120,
                    "time": 281.99966600000005,
                    "velocity": 1
                },
                {
                    "duration": 0.21428549999995994,
                    "durationTicks": 60,
                    "midi": 42,
                    "name": "F#2",
                    "ticks": 87120,
                    "time": 281.99966600000005,
                    "velocity": 1
                },
                {
                    "duration": 0.07142850000002454,
                    "durationTicks": 20,
                    "midi": 36,
                    "name": "C2",
                    "ticks": 87180,
                    "time": 282.2139515,
                    "velocity": 1
                },
                {
                    "duration": 0.21428550000001678,
                    "durationTicks": 60,
                    "midi": 42,
                    "name": "F#2",
                    "ticks": 87180,
                    "time": 282.2139515,
                    "velocity": 1
                },
                {
                    "duration": 0.07142850000002454,
                    "durationTicks": 20,
                    "midi": 36,
                    "name": "C2",
                    "ticks": 87200,
                    "time": 282.28538000000003,
                    "velocity": 1
                },
                {
                    "duration": 0.0714284999999677,
                    "durationTicks": 20,
                    "midi": 36,
                    "name": "C2",
                    "ticks": 87220,
                    "time": 282.35680850000006,
                    "velocity": 1
                },
                {
                    "duration": 0.21428550000001678,
                    "durationTicks": 60,
                    "midi": 38,
                    "name": "D2",
                    "ticks": 87240,
                    "time": 282.428237,
                    "velocity": 1
                },
                {
                    "duration": 0.21428550000001678,
                    "durationTicks": 60,
                    "midi": 42,
                    "name": "F#2",
                    "ticks": 87240,
                    "time": 282.428237,
                    "velocity": 1
                },
                {
                    "duration": 0.21428549999995994,
                    "durationTicks": 60,
                    "midi": 36,
                    "name": "C2",
                    "ticks": 87300,
                    "time": 282.64252250000004,
                    "velocity": 1
                },
                {
                    "duration": 0.21428549999995994,
                    "durationTicks": 60,
                    "midi": 57,
                    "name": "A3",
                    "ticks": 87300,
                    "time": 282.64252250000004,
                    "velocity": 1
                },
                {
                    "duration": 0.42857100000003356,
                    "durationTicks": 120,
                    "midi": 36,
                    "name": "C2",
                    "ticks": 87360,
                    "time": 282.856808,
                    "velocity": 1
                },
                {
                    "duration": 0.21428550000001678,
                    "durationTicks": 60,
                    "midi": 42,
                    "name": "F#2",
                    "ticks": 87360,
                    "time": 282.856808,
                    "velocity": 1
                },
                {
                    "duration": 0.21428550000001678,
                    "durationTicks": 60,
                    "midi": 42,
                    "name": "F#2",
                    "ticks": 87420,
                    "time": 283.0710935,
                    "velocity": 1
                },
                {
                    "duration": 0.21428550000001678,
                    "durationTicks": 60,
                    "midi": 38,
                    "name": "D2",
                    "ticks": 87480,
                    "time": 283.28537900000003,
                    "velocity": 1
                },
                {
                    "duration": 0.21428550000001678,
                    "durationTicks": 60,
                    "midi": 42,
                    "name": "F#2",
                    "ticks": 87480,
                    "time": 283.28537900000003,
                    "velocity": 1
                },
                {
                    "duration": 0.21428549999995994,
                    "durationTicks": 60,
                    "midi": 42,
                    "name": "F#2",
                    "ticks": 87540,
                    "time": 283.49966450000005,
                    "velocity": 1
                },
                {
                    "duration": 0.21428550000001678,
                    "durationTicks": 60,
                    "midi": 36,
                    "name": "C2",
                    "ticks": 87600,
                    "time": 283.71395,
                    "velocity": 1
                },
                {
                    "duration": 0.21428550000001678,
                    "durationTicks": 60,
                    "midi": 42,
                    "name": "F#2",
                    "ticks": 87600,
                    "time": 283.71395,
                    "velocity": 1
                },
                {
                    "duration": 0.07142850000002454,
                    "durationTicks": 20,
                    "midi": 36,
                    "name": "C2",
                    "ticks": 87660,
                    "time": 283.9282355,
                    "velocity": 1
                },
                {
                    "duration": 0.21428550000001678,
                    "durationTicks": 60,
                    "midi": 42,
                    "name": "F#2",
                    "ticks": 87660,
                    "time": 283.9282355,
                    "velocity": 1
                },
                {
                    "duration": 0.0714284999999677,
                    "durationTicks": 20,
                    "midi": 36,
                    "name": "C2",
                    "ticks": 87680,
                    "time": 283.99966400000005,
                    "velocity": 1
                },
                {
                    "duration": 0.07142850000002454,
                    "durationTicks": 20,
                    "midi": 36,
                    "name": "C2",
                    "ticks": 87700,
                    "time": 284.0710925,
                    "velocity": 1
                },
                {
                    "duration": 0.21428550000001678,
                    "durationTicks": 60,
                    "midi": 38,
                    "name": "D2",
                    "ticks": 87720,
                    "time": 284.14252100000004,
                    "velocity": 1
                },
                {
                    "duration": 0.21428550000001678,
                    "durationTicks": 60,
                    "midi": 42,
                    "name": "F#2",
                    "ticks": 87720,
                    "time": 284.14252100000004,
                    "velocity": 1
                },
                {
                    "duration": 0.21428549999995994,
                    "durationTicks": 60,
                    "midi": 42,
                    "name": "F#2",
                    "ticks": 87780,
                    "time": 284.35680650000006,
                    "velocity": 1
                },
                {
                    "duration": 0.21428549999995994,
                    "durationTicks": 60,
                    "midi": 36,
                    "name": "C2",
                    "ticks": 87780,
                    "time": 284.35680650000006,
                    "velocity": 1
                },
                {
                    "duration": 0.42857100000003356,
                    "durationTicks": 120,
                    "midi": 36,
                    "name": "C2",
                    "ticks": 87840,
                    "time": 284.571092,
                    "velocity": 1
                },
                {
                    "duration": 0.21428550000001678,
                    "durationTicks": 60,
                    "midi": 42,
                    "name": "F#2",
                    "ticks": 87840,
                    "time": 284.571092,
                    "velocity": 1
                },
                {
                    "duration": 0.21428550000001678,
                    "durationTicks": 60,
                    "midi": 42,
                    "name": "F#2",
                    "ticks": 87900,
                    "time": 284.78537750000004,
                    "velocity": 1
                },
                {
                    "duration": 0.21428549999995994,
                    "durationTicks": 60,
                    "midi": 38,
                    "name": "D2",
                    "ticks": 87960,
                    "time": 284.99966300000006,
                    "velocity": 1
                },
                {
                    "duration": 0.21428549999995994,
                    "durationTicks": 60,
                    "midi": 42,
                    "name": "F#2",
                    "ticks": 87960,
                    "time": 284.99966300000006,
                    "velocity": 1
                },
                {
                    "duration": 0.21428550000001678,
                    "durationTicks": 60,
                    "midi": 42,
                    "name": "F#2",
                    "ticks": 88020,
                    "time": 285.2139485,
                    "velocity": 1
                },
                {
                    "duration": 0.21428550000001678,
                    "durationTicks": 60,
                    "midi": 36,
                    "name": "C2",
                    "ticks": 88080,
                    "time": 285.42823400000003,
                    "velocity": 1
                },
                {
                    "duration": 0.21428550000001678,
                    "durationTicks": 60,
                    "midi": 42,
                    "name": "F#2",
                    "ticks": 88080,
                    "time": 285.42823400000003,
                    "velocity": 1
                },
                {
                    "duration": 0.0714284999999677,
                    "durationTicks": 20,
                    "midi": 36,
                    "name": "C2",
                    "ticks": 88140,
                    "time": 285.64251950000005,
                    "velocity": 1
                },
                {
                    "duration": 0.21428549999995994,
                    "durationTicks": 60,
                    "midi": 42,
                    "name": "F#2",
                    "ticks": 88140,
                    "time": 285.64251950000005,
                    "velocity": 1
                },
                {
                    "duration": 0.07142850000002454,
                    "durationTicks": 20,
                    "midi": 36,
                    "name": "C2",
                    "ticks": 88160,
                    "time": 285.713948,
                    "velocity": 1
                },
                {
                    "duration": 0.0714284999999677,
                    "durationTicks": 20,
                    "midi": 36,
                    "name": "C2",
                    "ticks": 88180,
                    "time": 285.78537650000004,
                    "velocity": 1
                },
                {
                    "duration": 0.21428550000001678,
                    "durationTicks": 60,
                    "midi": 38,
                    "name": "D2",
                    "ticks": 88200,
                    "time": 285.856805,
                    "velocity": 1
                },
                {
                    "duration": 0.21428550000001678,
                    "durationTicks": 60,
                    "midi": 42,
                    "name": "F#2",
                    "ticks": 88200,
                    "time": 285.856805,
                    "velocity": 1
                },
                {
                    "duration": 0.21428550000001678,
                    "durationTicks": 60,
                    "midi": 42,
                    "name": "F#2",
                    "ticks": 88260,
                    "time": 286.0710905,
                    "velocity": 1
                },
                {
                    "duration": 0.017857125000034557,
                    "durationTicks": 5,
                    "midi": 38,
                    "name": "D2",
                    "ticks": 88315,
                    "time": 286.267518875,
                    "velocity": 0.5905511811023622
                },
                {
                    "duration": 0.21428549999995994,
                    "durationTicks": 60,
                    "midi": 38,
                    "name": "D2",
                    "ticks": 88320,
                    "time": 286.28537600000004,
                    "velocity": 1
                },
                {
                    "duration": 0.21428550000001678,
                    "durationTicks": 60,
                    "midi": 45,
                    "name": "A2",
                    "ticks": 88380,
                    "time": 286.4996615,
                    "velocity": 1
                },
                {
                    "duration": 0.10714275000003681,
                    "durationTicks": 30,
                    "midi": 47,
                    "name": "B2",
                    "ticks": 88440,
                    "time": 286.713947,
                    "velocity": 1
                },
                {
                    "duration": 0.10714274999997997,
                    "durationTicks": 30,
                    "midi": 47,
                    "name": "B2",
                    "ticks": 88470,
                    "time": 286.82108975000006,
                    "velocity": 1
                },
                {
                    "duration": 0.21428550000001678,
                    "durationTicks": 60,
                    "midi": 47,
                    "name": "B2",
                    "ticks": 88500,
                    "time": 286.92823250000004,
                    "velocity": 1
                },
                {
                    "duration": 0.0714284999999677,
                    "durationTicks": 20,
                    "midi": 48,
                    "name": "C3",
                    "ticks": 88560,
                    "time": 287.14251800000005,
                    "velocity": 1
                },
                {
                    "duration": 0.07142850000002454,
                    "durationTicks": 20,
                    "midi": 47,
                    "name": "B2",
                    "ticks": 88580,
                    "time": 287.2139465,
                    "velocity": 1
                },
                {
                    "duration": 0.0714284999999677,
                    "durationTicks": 20,
                    "midi": 47,
                    "name": "B2",
                    "ticks": 88600,
                    "time": 287.28537500000004,
                    "velocity": 1
                },
                {
                    "duration": 0.21428550000001678,
                    "durationTicks": 60,
                    "midi": 47,
                    "name": "B2",
                    "ticks": 88620,
                    "time": 287.3568035,
                    "velocity": 1
                },
                {
                    "duration": 0.21428550000001678,
                    "durationTicks": 60,
                    "midi": 43,
                    "name": "G2",
                    "ticks": 88680,
                    "time": 287.57108900000003,
                    "velocity": 1
                },
                {
                    "duration": 0.21428550000001678,
                    "durationTicks": 60,
                    "midi": 48,
                    "name": "C3",
                    "ticks": 88680,
                    "time": 287.57108900000003,
                    "velocity": 1
                },
                {
                    "duration": 0.21428550000001678,
                    "durationTicks": 60,
                    "midi": 43,
                    "name": "G2",
                    "ticks": 88740,
                    "time": 287.78537450000005,
                    "velocity": 1
                },
                {
                    "duration": 0.4285709999999767,
                    "durationTicks": 120,
                    "midi": 57,
                    "name": "A3",
                    "ticks": 88800,
                    "time": 287.99966000000006,
                    "velocity": 1
                },
                {
                    "duration": 0.4285709999999767,
                    "durationTicks": 120,
                    "midi": 36,
                    "name": "C2",
                    "ticks": 88800,
                    "time": 287.99966000000006,
                    "velocity": 1
                },
                {
                    "duration": 0.21428550000001678,
                    "durationTicks": 60,
                    "midi": 38,
                    "name": "D2",
                    "ticks": 88920,
                    "time": 288.42823100000004,
                    "velocity": 1
                },
                {
                    "duration": 0.21428550000001678,
                    "durationTicks": 60,
                    "midi": 42,
                    "name": "F#2",
                    "ticks": 88920,
                    "time": 288.42823100000004,
                    "velocity": 1
                },
                {
                    "duration": 0.21428549999995994,
                    "durationTicks": 60,
                    "midi": 42,
                    "name": "F#2",
                    "ticks": 88980,
                    "time": 288.64251650000006,
                    "velocity": 1
                },
                {
                    "duration": 0.21428550000001678,
                    "durationTicks": 60,
                    "midi": 36,
                    "name": "C2",
                    "ticks": 89040,
                    "time": 288.856802,
                    "velocity": 1
                },
                {
                    "duration": 0.21428550000001678,
                    "durationTicks": 60,
                    "midi": 42,
                    "name": "F#2",
                    "ticks": 89040,
                    "time": 288.856802,
                    "velocity": 1
                },
                {
                    "duration": 0.07142850000002454,
                    "durationTicks": 20,
                    "midi": 36,
                    "name": "C2",
                    "ticks": 89100,
                    "time": 289.07108750000003,
                    "velocity": 1
                },
                {
                    "duration": 0.21428550000001678,
                    "durationTicks": 60,
                    "midi": 42,
                    "name": "F#2",
                    "ticks": 89100,
                    "time": 289.07108750000003,
                    "velocity": 1
                },
                {
                    "duration": 0.0714284999999677,
                    "durationTicks": 20,
                    "midi": 36,
                    "name": "C2",
                    "ticks": 89120,
                    "time": 289.14251600000006,
                    "velocity": 1
                },
                {
                    "duration": 0.07142850000002454,
                    "durationTicks": 20,
                    "midi": 36,
                    "name": "C2",
                    "ticks": 89140,
                    "time": 289.2139445,
                    "velocity": 1
                },
                {
                    "duration": 0.21428549999995994,
                    "durationTicks": 60,
                    "midi": 38,
                    "name": "D2",
                    "ticks": 89160,
                    "time": 289.28537300000005,
                    "velocity": 1
                },
                {
                    "duration": 0.21428549999995994,
                    "durationTicks": 60,
                    "midi": 42,
                    "name": "F#2",
                    "ticks": 89160,
                    "time": 289.28537300000005,
                    "velocity": 1
                },
                {
                    "duration": 0.21428550000001678,
                    "durationTicks": 60,
                    "midi": 42,
                    "name": "F#2",
                    "ticks": 89220,
                    "time": 289.4996585,
                    "velocity": 1
                },
                {
                    "duration": 0.21428550000001678,
                    "durationTicks": 60,
                    "midi": 36,
                    "name": "C2",
                    "ticks": 89220,
                    "time": 289.4996585,
                    "velocity": 1
                },
                {
                    "duration": 0.4285709999999767,
                    "durationTicks": 120,
                    "midi": 36,
                    "name": "C2",
                    "ticks": 89280,
                    "time": 289.713944,
                    "velocity": 1
                },
                {
                    "duration": 0.21428550000001678,
                    "durationTicks": 60,
                    "midi": 42,
                    "name": "F#2",
                    "ticks": 89280,
                    "time": 289.713944,
                    "velocity": 1
                },
                {
                    "duration": 0.21428549999995994,
                    "durationTicks": 60,
                    "midi": 42,
                    "name": "F#2",
                    "ticks": 89340,
                    "time": 289.92822950000004,
                    "velocity": 1
                },
                {
                    "duration": 0.21428550000001678,
                    "durationTicks": 60,
                    "midi": 38,
                    "name": "D2",
                    "ticks": 89400,
                    "time": 290.142515,
                    "velocity": 1
                },
                {
                    "duration": 0.21428550000001678,
                    "durationTicks": 60,
                    "midi": 42,
                    "name": "F#2",
                    "ticks": 89400,
                    "time": 290.142515,
                    "velocity": 1
                },
                {
                    "duration": 0.21428550000001678,
                    "durationTicks": 60,
                    "midi": 42,
                    "name": "F#2",
                    "ticks": 89460,
                    "time": 290.3568005,
                    "velocity": 1
                },
                {
                    "duration": 0.21428550000001678,
                    "durationTicks": 60,
                    "midi": 36,
                    "name": "C2",
                    "ticks": 89520,
                    "time": 290.57108600000004,
                    "velocity": 1
                },
                {
                    "duration": 0.21428550000001678,
                    "durationTicks": 60,
                    "midi": 42,
                    "name": "F#2",
                    "ticks": 89520,
                    "time": 290.57108600000004,
                    "velocity": 1
                },
                {
                    "duration": 0.0714284999999677,
                    "durationTicks": 20,
                    "midi": 36,
                    "name": "C2",
                    "ticks": 89580,
                    "time": 290.78537150000005,
                    "velocity": 1
                },
                {
                    "duration": 0.21428549999995994,
                    "durationTicks": 60,
                    "midi": 42,
                    "name": "F#2",
                    "ticks": 89580,
                    "time": 290.78537150000005,
                    "velocity": 1
                },
                {
                    "duration": 0.07142850000002454,
                    "durationTicks": 20,
                    "midi": 36,
                    "name": "C2",
                    "ticks": 89600,
                    "time": 290.8568,
                    "velocity": 1
                },
                {
                    "duration": 0.0714284999999677,
                    "durationTicks": 20,
                    "midi": 36,
                    "name": "C2",
                    "ticks": 89620,
                    "time": 290.92822850000005,
                    "velocity": 1
                },
                {
                    "duration": 0.21428550000001678,
                    "durationTicks": 60,
                    "midi": 38,
                    "name": "D2",
                    "ticks": 89640,
                    "time": 290.999657,
                    "velocity": 1
                },
                {
                    "duration": 0.21428550000001678,
                    "durationTicks": 60,
                    "midi": 42,
                    "name": "F#2",
                    "ticks": 89640,
                    "time": 290.999657,
                    "velocity": 1
                },
                {
                    "duration": 0.21428550000001678,
                    "durationTicks": 60,
                    "midi": 42,
                    "name": "F#2",
                    "ticks": 89700,
                    "time": 291.21394250000003,
                    "velocity": 1
                },
                {
                    "duration": 0.21428550000001678,
                    "durationTicks": 60,
                    "midi": 36,
                    "name": "C2",
                    "ticks": 89700,
                    "time": 291.21394250000003,
                    "velocity": 1
                },
                {
                    "duration": 0.4285709999999767,
                    "durationTicks": 120,
                    "midi": 36,
                    "name": "C2",
                    "ticks": 89760,
                    "time": 291.42822800000005,
                    "velocity": 1
                },
                {
                    "duration": 0.21428550000001678,
                    "durationTicks": 60,
                    "midi": 42,
                    "name": "F#2",
                    "ticks": 89760,
                    "time": 291.42822800000005,
                    "velocity": 1
                },
                {
                    "duration": 0.21428549999995994,
                    "durationTicks": 60,
                    "midi": 42,
                    "name": "F#2",
                    "ticks": 89820,
                    "time": 291.64251350000006,
                    "velocity": 1
                },
                {
                    "duration": 0.21428550000001678,
                    "durationTicks": 60,
                    "midi": 57,
                    "name": "A3",
                    "ticks": 89880,
                    "time": 291.856799,
                    "velocity": 1
                },
                {
                    "duration": 0.21428550000001678,
                    "durationTicks": 60,
                    "midi": 38,
                    "name": "D2",
                    "ticks": 89880,
                    "time": 291.856799,
                    "velocity": 1
                },
                {
                    "duration": 0.21428550000001678,
                    "durationTicks": 60,
                    "midi": 42,
                    "name": "F#2",
                    "ticks": 89940,
                    "time": 292.07108450000004,
                    "velocity": 1
                },
                {
                    "duration": 0.21428549999995994,
                    "durationTicks": 60,
                    "midi": 36,
                    "name": "C2",
                    "ticks": 90000,
                    "time": 292.28537000000006,
                    "velocity": 1
                },
                {
                    "duration": 0.21428549999995994,
                    "durationTicks": 60,
                    "midi": 42,
                    "name": "F#2",
                    "ticks": 90000,
                    "time": 292.28537000000006,
                    "velocity": 1
                },
                {
                    "duration": 0.07142850000002454,
                    "durationTicks": 20,
                    "midi": 36,
                    "name": "C2",
                    "ticks": 90060,
                    "time": 292.4996555,
                    "velocity": 1
                },
                {
                    "duration": 0.21428550000001678,
                    "durationTicks": 60,
                    "midi": 42,
                    "name": "F#2",
                    "ticks": 90060,
                    "time": 292.4996555,
                    "velocity": 1
                },
                {
                    "duration": 0.0714284999999677,
                    "durationTicks": 20,
                    "midi": 36,
                    "name": "C2",
                    "ticks": 90080,
                    "time": 292.57108400000004,
                    "velocity": 1
                },
                {
                    "duration": 0.07142850000002454,
                    "durationTicks": 20,
                    "midi": 36,
                    "name": "C2",
                    "ticks": 90100,
                    "time": 292.6425125,
                    "velocity": 1
                },
                {
                    "duration": 0.21428550000001678,
                    "durationTicks": 60,
                    "midi": 57,
                    "name": "A3",
                    "ticks": 90120,
                    "time": 292.71394100000003,
                    "velocity": 1
                },
                {
                    "duration": 0.21428550000001678,
                    "durationTicks": 60,
                    "midi": 38,
                    "name": "D2",
                    "ticks": 90120,
                    "time": 292.71394100000003,
                    "velocity": 1
                },
                {
                    "duration": 0.21428549999995994,
                    "durationTicks": 60,
                    "midi": 42,
                    "name": "F#2",
                    "ticks": 90180,
                    "time": 292.92822650000005,
                    "velocity": 1
                },
                {
                    "duration": 0.21428550000001678,
                    "durationTicks": 60,
                    "midi": 36,
                    "name": "C2",
                    "ticks": 90240,
                    "time": 293.142512,
                    "velocity": 1
                },
                {
                    "duration": 0.21428550000001678,
                    "durationTicks": 60,
                    "midi": 42,
                    "name": "F#2",
                    "ticks": 90240,
                    "time": 293.142512,
                    "velocity": 1
                },
                {
                    "duration": 0.10714274999997997,
                    "durationTicks": 30,
                    "midi": 36,
                    "name": "C2",
                    "ticks": 90300,
                    "time": 293.3567975,
                    "velocity": 1
                },
                {
                    "duration": 0.21428550000001678,
                    "durationTicks": 60,
                    "midi": 42,
                    "name": "F#2",
                    "ticks": 90300,
                    "time": 293.3567975,
                    "velocity": 1
                },
                {
                    "duration": 0.10714275000003681,
                    "durationTicks": 30,
                    "midi": 36,
                    "name": "C2",
                    "ticks": 90330,
                    "time": 293.46394025,
                    "velocity": 1
                },
                {
                    "duration": 0.21428549999995994,
                    "durationTicks": 60,
                    "midi": 38,
                    "name": "D2",
                    "ticks": 90360,
                    "time": 293.57108300000004,
                    "velocity": 1
                },
                {
                    "duration": 0.21428549999995994,
                    "durationTicks": 60,
                    "midi": 57,
                    "name": "A3",
                    "ticks": 90360,
                    "time": 293.57108300000004,
                    "velocity": 1
                },
                {
                    "duration": 0.10714275000003681,
                    "durationTicks": 30,
                    "midi": 38,
                    "name": "D2",
                    "ticks": 90420,
                    "time": 293.7853685,
                    "velocity": 1
                },
                {
                    "duration": 0.10714274999997997,
                    "durationTicks": 30,
                    "midi": 38,
                    "name": "D2",
                    "ticks": 90450,
                    "time": 293.89251125000004,
                    "velocity": 1
                },
                {
                    "duration": 0.21428550000001678,
                    "durationTicks": 60,
                    "midi": 42,
                    "name": "F#2",
                    "ticks": 90480,
                    "time": 293.999654,
                    "velocity": 1
                },
                {
                    "duration": 0.10714274999997997,
                    "durationTicks": 30,
                    "midi": 38,
                    "name": "D2",
                    "ticks": 90540,
                    "time": 294.21393950000004,
                    "velocity": 1
                },
                {
                    "duration": 0.10714275000003681,
                    "durationTicks": 30,
                    "midi": 38,
                    "name": "D2",
                    "ticks": 90570,
                    "time": 294.32108225,
                    "velocity": 1
                },
                {
                    "duration": 0.21428549999995994,
                    "durationTicks": 60,
                    "midi": 45,
                    "name": "A2",
                    "ticks": 90600,
                    "time": 294.42822500000005,
                    "velocity": 1
                },
                {
                    "duration": 0.10714275000003681,
                    "durationTicks": 30,
                    "midi": 45,
                    "name": "A2",
                    "ticks": 90660,
                    "time": 294.6425105,
                    "velocity": 1
                },
                {
                    "duration": 0.10714274999997997,
                    "durationTicks": 30,
                    "midi": 45,
                    "name": "A2",
                    "ticks": 90690,
                    "time": 294.74965325000005,
                    "velocity": 1
                },
                {
                    "duration": 0.4285709999999767,
                    "durationTicks": 120,
                    "midi": 36,
                    "name": "C2",
                    "ticks": 90720,
                    "time": 294.85679600000003,
                    "velocity": 1
                },
                {
                    "duration": 0.21428550000001678,
                    "durationTicks": 60,
                    "midi": 57,
                    "name": "A3",
                    "ticks": 90720,
                    "time": 294.85679600000003,
                    "velocity": 1
                },
                {
                    "duration": 0.21428549999995994,
                    "durationTicks": 60,
                    "midi": 42,
                    "name": "F#2",
                    "ticks": 90780,
                    "time": 295.07108150000005,
                    "velocity": 1
                },
                {
                    "duration": 0.21428550000001678,
                    "durationTicks": 60,
                    "midi": 38,
                    "name": "D2",
                    "ticks": 90840,
                    "time": 295.285367,
                    "velocity": 1
                },
                {
                    "duration": 0.21428550000001678,
                    "durationTicks": 60,
                    "midi": 42,
                    "name": "F#2",
                    "ticks": 90840,
                    "time": 295.285367,
                    "velocity": 1
                },
                {
                    "duration": 0.21428550000001678,
                    "durationTicks": 60,
                    "midi": 42,
                    "name": "F#2",
                    "ticks": 90900,
                    "time": 295.4996525,
                    "velocity": 1
                },
                {
                    "duration": 0.4285709999999767,
                    "durationTicks": 120,
                    "midi": 36,
                    "name": "C2",
                    "ticks": 90960,
                    "time": 295.71393800000004,
                    "velocity": 1
                },
                {
                    "duration": 0.21428550000001678,
                    "durationTicks": 60,
                    "midi": 42,
                    "name": "F#2",
                    "ticks": 90960,
                    "time": 295.71393800000004,
                    "velocity": 1
                },
                {
                    "duration": 0.21428549999995994,
                    "durationTicks": 60,
                    "midi": 42,
                    "name": "F#2",
                    "ticks": 91020,
                    "time": 295.92822350000006,
                    "velocity": 1
                },
                {
                    "duration": 0.21428550000001678,
                    "durationTicks": 60,
                    "midi": 38,
                    "name": "D2",
                    "ticks": 91080,
                    "time": 296.142509,
                    "velocity": 1
                },
                {
                    "duration": 0.21428550000001678,
                    "durationTicks": 60,
                    "midi": 42,
                    "name": "F#2",
                    "ticks": 91080,
                    "time": 296.142509,
                    "velocity": 1
                },
                {
                    "duration": 0.21428550000001678,
                    "durationTicks": 60,
                    "midi": 42,
                    "name": "F#2",
                    "ticks": 91140,
                    "time": 296.35679450000003,
                    "velocity": 1
                },
                {
                    "duration": 0.4285709999999767,
                    "durationTicks": 120,
                    "midi": 36,
                    "name": "C2",
                    "ticks": 91200,
                    "time": 296.57108000000005,
                    "velocity": 1
                },
                {
                    "duration": 0.21428549999995994,
                    "durationTicks": 60,
                    "midi": 42,
                    "name": "F#2",
                    "ticks": 91200,
                    "time": 296.57108000000005,
                    "velocity": 1
                },
                {
                    "duration": 0.21428550000001678,
                    "durationTicks": 60,
                    "midi": 42,
                    "name": "F#2",
                    "ticks": 91260,
                    "time": 296.7853655,
                    "velocity": 1
                },
                {
                    "duration": 0.21428550000001678,
                    "durationTicks": 60,
                    "midi": 42,
                    "name": "F#2",
                    "ticks": 91320,
                    "time": 296.99965100000003,
                    "velocity": 1
                },
                {
                    "duration": 0.21428549999995994,
                    "durationTicks": 60,
                    "midi": 38,
                    "name": "D2",
                    "ticks": 91380,
                    "time": 297.21393650000005,
                    "velocity": 1
                },
                {
                    "duration": 0.21428549999995994,
                    "durationTicks": 60,
                    "midi": 42,
                    "name": "F#2",
                    "ticks": 91380,
                    "time": 297.21393650000005,
                    "velocity": 1
                },
                {
                    "duration": 0.21428550000001678,
                    "durationTicks": 60,
                    "midi": 36,
                    "name": "C2",
                    "ticks": 91440,
                    "time": 297.428222,
                    "velocity": 1
                },
                {
                    "duration": 0.21428550000001678,
                    "durationTicks": 60,
                    "midi": 42,
                    "name": "F#2",
                    "ticks": 91440,
                    "time": 297.428222,
                    "velocity": 1
                },
                {
                    "duration": 0.07142850000002454,
                    "durationTicks": 20,
                    "midi": 36,
                    "name": "C2",
                    "ticks": 91500,
                    "time": 297.6425075,
                    "velocity": 1
                },
                {
                    "duration": 0.21428550000001678,
                    "durationTicks": 60,
                    "midi": 42,
                    "name": "F#2",
                    "ticks": 91500,
                    "time": 297.6425075,
                    "velocity": 1
                },
                {
                    "duration": 0.0714284999999677,
                    "durationTicks": 20,
                    "midi": 36,
                    "name": "C2",
                    "ticks": 91520,
                    "time": 297.71393600000005,
                    "velocity": 1
                },
                {
                    "duration": 0.07142850000002454,
                    "durationTicks": 20,
                    "midi": 36,
                    "name": "C2",
                    "ticks": 91540,
                    "time": 297.7853645,
                    "velocity": 1
                },
                {
                    "duration": 0.21428550000001678,
                    "durationTicks": 60,
                    "midi": 38,
                    "name": "D2",
                    "ticks": 91560,
                    "time": 297.85679300000004,
                    "velocity": 1
                },
                {
                    "duration": 0.21428550000001678,
                    "durationTicks": 60,
                    "midi": 42,
                    "name": "F#2",
                    "ticks": 91560,
                    "time": 297.85679300000004,
                    "velocity": 1
                },
                {
                    "duration": 0.21428549999995994,
                    "durationTicks": 60,
                    "midi": 36,
                    "name": "C2",
                    "ticks": 91620,
                    "time": 298.07107850000006,
                    "velocity": 1
                },
                {
                    "duration": 0.21428549999995994,
                    "durationTicks": 60,
                    "midi": 42,
                    "name": "F#2",
                    "ticks": 91620,
                    "time": 298.07107850000006,
                    "velocity": 1
                },
                {
                    "duration": 0.21428550000001678,
                    "durationTicks": 60,
                    "midi": 42,
                    "name": "F#2",
                    "ticks": 91680,
                    "time": 298.285364,
                    "velocity": 1
                },
                {
                    "duration": 0.42857100000003356,
                    "durationTicks": 120,
                    "midi": 36,
                    "name": "C2",
                    "ticks": 91680,
                    "time": 298.285364,
                    "velocity": 1
                },
                {
                    "duration": 0.21428550000001678,
                    "durationTicks": 60,
                    "midi": 42,
                    "name": "F#2",
                    "ticks": 91740,
                    "time": 298.49964950000003,
                    "velocity": 1
                },
                {
                    "duration": 0.21428549999995994,
                    "durationTicks": 60,
                    "midi": 42,
                    "name": "F#2",
                    "ticks": 91800,
                    "time": 298.71393500000005,
                    "velocity": 1
                },
                {
                    "duration": 0.21428550000001678,
                    "durationTicks": 60,
                    "midi": 38,
                    "name": "D2",
                    "ticks": 91860,
                    "time": 298.9282205,
                    "velocity": 1
                },
                {
                    "duration": 0.21428550000001678,
                    "durationTicks": 60,
                    "midi": 42,
                    "name": "F#2",
                    "ticks": 91860,
                    "time": 298.9282205,
                    "velocity": 1
                },
                {
                    "duration": 0.21428550000001678,
                    "durationTicks": 60,
                    "midi": 42,
                    "name": "F#2",
                    "ticks": 91920,
                    "time": 299.142506,
                    "velocity": 1
                },
                {
                    "duration": 0.42857100000003356,
                    "durationTicks": 120,
                    "midi": 36,
                    "name": "C2",
                    "ticks": 91920,
                    "time": 299.142506,
                    "velocity": 1
                },
                {
                    "duration": 0.21428550000001678,
                    "durationTicks": 60,
                    "midi": 42,
                    "name": "F#2",
                    "ticks": 91980,
                    "time": 299.35679150000004,
                    "velocity": 1
                },
                {
                    "duration": 0.21428549999995994,
                    "durationTicks": 60,
                    "midi": 38,
                    "name": "D2",
                    "ticks": 92040,
                    "time": 299.57107700000006,
                    "velocity": 1
                },
                {
                    "duration": 0.21428549999995994,
                    "durationTicks": 60,
                    "midi": 42,
                    "name": "F#2",
                    "ticks": 92040,
                    "time": 299.57107700000006,
                    "velocity": 1
                },
                {
                    "duration": 0.21428550000001678,
                    "durationTicks": 60,
                    "midi": 42,
                    "name": "F#2",
                    "ticks": 92100,
                    "time": 299.7853625,
                    "velocity": 1
                },
                {
                    "duration": 0.4285709999999767,
                    "durationTicks": 120,
                    "midi": 36,
                    "name": "C2",
                    "ticks": 92160,
                    "time": 299.99964800000004,
                    "velocity": 1
                },
                {
                    "duration": 0.21428550000001678,
                    "durationTicks": 60,
                    "midi": 42,
                    "name": "F#2",
                    "ticks": 92160,
                    "time": 299.99964800000004,
                    "velocity": 1
                },
                {
                    "duration": 0.21428549999995994,
                    "durationTicks": 60,
                    "midi": 42,
                    "name": "F#2",
                    "ticks": 92220,
                    "time": 300.21393350000005,
                    "velocity": 1
                },
                {
                    "duration": 0.21428550000001678,
                    "durationTicks": 60,
                    "midi": 42,
                    "name": "F#2",
                    "ticks": 92280,
                    "time": 300.428219,
                    "velocity": 1
                },
                {
                    "duration": 0.21428550000001678,
                    "durationTicks": 60,
                    "midi": 38,
                    "name": "D2",
                    "ticks": 92340,
                    "time": 300.64250450000003,
                    "velocity": 1
                },
                {
                    "duration": 0.21428550000001678,
                    "durationTicks": 60,
                    "midi": 42,
                    "name": "F#2",
                    "ticks": 92340,
                    "time": 300.64250450000003,
                    "velocity": 1
                },
                {
                    "duration": 0.21428549999995994,
                    "durationTicks": 60,
                    "midi": 36,
                    "name": "C2",
                    "ticks": 92400,
                    "time": 300.85679000000005,
                    "velocity": 1
                },
                {
                    "duration": 0.21428549999995994,
                    "durationTicks": 60,
                    "midi": 42,
                    "name": "F#2",
                    "ticks": 92400,
                    "time": 300.85679000000005,
                    "velocity": 1
                },
                {
                    "duration": 0.07142850000002454,
                    "durationTicks": 20,
                    "midi": 36,
                    "name": "C2",
                    "ticks": 92460,
                    "time": 301.0710755,
                    "velocity": 1
                },
                {
                    "duration": 0.21428550000001678,
                    "durationTicks": 60,
                    "midi": 42,
                    "name": "F#2",
                    "ticks": 92460,
                    "time": 301.0710755,
                    "velocity": 1
                },
                {
                    "duration": 0.07142850000002454,
                    "durationTicks": 20,
                    "midi": 36,
                    "name": "C2",
                    "ticks": 92480,
                    "time": 301.14250400000003,
                    "velocity": 1
                },
                {
                    "duration": 0.0714284999999677,
                    "durationTicks": 20,
                    "midi": 36,
                    "name": "C2",
                    "ticks": 92500,
                    "time": 301.21393250000006,
                    "velocity": 1
                },
                {
                    "duration": 0.21428550000001678,
                    "durationTicks": 60,
                    "midi": 38,
                    "name": "D2",
                    "ticks": 92520,
                    "time": 301.285361,
                    "velocity": 1
                },
                {
                    "duration": 0.21428550000001678,
                    "durationTicks": 60,
                    "midi": 42,
                    "name": "F#2",
                    "ticks": 92520,
                    "time": 301.285361,
                    "velocity": 1
                },
                {
                    "duration": 0.21428550000001678,
                    "durationTicks": 60,
                    "midi": 36,
                    "name": "C2",
                    "ticks": 92580,
                    "time": 301.49964650000004,
                    "velocity": 1
                },
                {
                    "duration": 0.21428550000001678,
                    "durationTicks": 60,
                    "midi": 42,
                    "name": "F#2",
                    "ticks": 92580,
                    "time": 301.49964650000004,
                    "velocity": 1
                },
                {
                    "duration": 0.21428549999995994,
                    "durationTicks": 60,
                    "midi": 42,
                    "name": "F#2",
                    "ticks": 92640,
                    "time": 301.71393200000006,
                    "velocity": 1
                },
                {
                    "duration": 0.4285709999999767,
                    "durationTicks": 120,
                    "midi": 36,
                    "name": "C2",
                    "ticks": 92640,
                    "time": 301.71393200000006,
                    "velocity": 1
                },
                {
                    "duration": 0.21428550000001678,
                    "durationTicks": 60,
                    "midi": 42,
                    "name": "F#2",
                    "ticks": 92700,
                    "time": 301.9282175,
                    "velocity": 1
                },
                {
                    "duration": 0.21428550000001678,
                    "durationTicks": 60,
                    "midi": 57,
                    "name": "A3",
                    "ticks": 92760,
                    "time": 302.14250300000003,
                    "velocity": 1
                },
                {
                    "duration": 0.21428550000001678,
                    "durationTicks": 60,
                    "midi": 38,
                    "name": "D2",
                    "ticks": 92760,
                    "time": 302.14250300000003,
                    "velocity": 1
                },
                {
                    "duration": 0.21428549999995994,
                    "durationTicks": 60,
                    "midi": 42,
                    "name": "F#2",
                    "ticks": 92820,
                    "time": 302.35678850000005,
                    "velocity": 1
                },
                {
                    "duration": 0.21428550000001678,
                    "durationTicks": 60,
                    "midi": 42,
                    "name": "F#2",
                    "ticks": 92880,
                    "time": 302.571074,
                    "velocity": 1
                },
                {
                    "duration": 0.42857100000003356,
                    "durationTicks": 120,
                    "midi": 36,
                    "name": "C2",
                    "ticks": 92880,
                    "time": 302.571074,
                    "velocity": 1
                },
                {
                    "duration": 0.21428550000001678,
                    "durationTicks": 60,
                    "midi": 42,
                    "name": "F#2",
                    "ticks": 92940,
                    "time": 302.7853595,
                    "velocity": 1
                },
                {
                    "duration": 0.21428550000001678,
                    "durationTicks": 60,
                    "midi": 38,
                    "name": "D2",
                    "ticks": 93000,
                    "time": 302.99964500000004,
                    "velocity": 1
                },
                {
                    "duration": 0.21428550000001678,
                    "durationTicks": 60,
                    "midi": 42,
                    "name": "F#2",
                    "ticks": 93000,
                    "time": 302.99964500000004,
                    "velocity": 1
                },
                {
                    "duration": 0.21428549999995994,
                    "durationTicks": 60,
                    "midi": 42,
                    "name": "F#2",
                    "ticks": 93060,
                    "time": 303.21393050000006,
                    "velocity": 1
                },
                {
                    "duration": 0.42857100000003356,
                    "durationTicks": 120,
                    "midi": 36,
                    "name": "C2",
                    "ticks": 93120,
                    "time": 303.428216,
                    "velocity": 1
                },
                {
                    "duration": 0.21428550000001678,
                    "durationTicks": 60,
                    "midi": 42,
                    "name": "F#2",
                    "ticks": 93120,
                    "time": 303.428216,
                    "velocity": 1
                },
                {
                    "duration": 0.21428550000001678,
                    "durationTicks": 60,
                    "midi": 42,
                    "name": "F#2",
                    "ticks": 93180,
                    "time": 303.64250150000004,
                    "velocity": 1
                },
                {
                    "duration": 0.21428549999995994,
                    "durationTicks": 60,
                    "midi": 42,
                    "name": "F#2",
                    "ticks": 93240,
                    "time": 303.85678700000005,
                    "velocity": 1
                },
                {
                    "duration": 0.21428550000001678,
                    "durationTicks": 60,
                    "midi": 38,
                    "name": "D2",
                    "ticks": 93300,
                    "time": 304.0710725,
                    "velocity": 1
                },
                {
                    "duration": 0.21428550000001678,
                    "durationTicks": 60,
                    "midi": 42,
                    "name": "F#2",
                    "ticks": 93300,
                    "time": 304.0710725,
                    "velocity": 1
                },
                {
                    "duration": 0.21428550000001678,
                    "durationTicks": 60,
                    "midi": 36,
                    "name": "C2",
                    "ticks": 93360,
                    "time": 304.28535800000003,
                    "velocity": 1
                },
                {
                    "duration": 0.21428550000001678,
                    "durationTicks": 60,
                    "midi": 42,
                    "name": "F#2",
                    "ticks": 93360,
                    "time": 304.28535800000003,
                    "velocity": 1
                },
                {
                    "duration": 0.0714284999999677,
                    "durationTicks": 20,
                    "midi": 36,
                    "name": "C2",
                    "ticks": 93420,
                    "time": 304.49964350000005,
                    "velocity": 1
                },
                {
                    "duration": 0.21428549999995994,
                    "durationTicks": 60,
                    "midi": 42,
                    "name": "F#2",
                    "ticks": 93420,
                    "time": 304.49964350000005,
                    "velocity": 1
                },
                {
                    "duration": 0.07142850000002454,
                    "durationTicks": 20,
                    "midi": 36,
                    "name": "C2",
                    "ticks": 93440,
                    "time": 304.571072,
                    "velocity": 1
                },
                {
                    "duration": 0.0714284999999677,
                    "durationTicks": 20,
                    "midi": 36,
                    "name": "C2",
                    "ticks": 93460,
                    "time": 304.64250050000004,
                    "velocity": 1
                },
                {
                    "duration": 0.21428550000001678,
                    "durationTicks": 60,
                    "midi": 38,
                    "name": "D2",
                    "ticks": 93480,
                    "time": 304.713929,
                    "velocity": 1
                },
                {
                    "duration": 0.21428550000001678,
                    "durationTicks": 60,
                    "midi": 42,
                    "name": "F#2",
                    "ticks": 93480,
                    "time": 304.713929,
                    "velocity": 1
                },
                {
                    "duration": 0.21428550000001678,
                    "durationTicks": 60,
                    "midi": 36,
                    "name": "C2",
                    "ticks": 93540,
                    "time": 304.9282145,
                    "velocity": 1
                },
                {
                    "duration": 0.21428550000001678,
                    "durationTicks": 60,
                    "midi": 42,
                    "name": "F#2",
                    "ticks": 93540,
                    "time": 304.9282145,
                    "velocity": 1
                },
                {
                    "duration": 0.4285709999999767,
                    "durationTicks": 120,
                    "midi": 36,
                    "name": "C2",
                    "ticks": 93600,
                    "time": 305.14250000000004,
                    "velocity": 1
                },
                {
                    "duration": 0.21428550000001678,
                    "durationTicks": 60,
                    "midi": 42,
                    "name": "F#2",
                    "ticks": 93600,
                    "time": 305.14250000000004,
                    "velocity": 1
                },
                {
                    "duration": 0.21428549999995994,
                    "durationTicks": 60,
                    "midi": 42,
                    "name": "F#2",
                    "ticks": 93660,
                    "time": 305.35678550000006,
                    "velocity": 1
                },
                {
                    "duration": 0.21428550000001678,
                    "durationTicks": 60,
                    "midi": 42,
                    "name": "F#2",
                    "ticks": 93720,
                    "time": 305.571071,
                    "velocity": 1
                },
                {
                    "duration": 0.21428550000001678,
                    "durationTicks": 60,
                    "midi": 57,
                    "name": "A3",
                    "ticks": 93780,
                    "time": 305.78535650000003,
                    "velocity": 1
                },
                {
                    "duration": 0.21428550000001678,
                    "durationTicks": 60,
                    "midi": 38,
                    "name": "D2",
                    "ticks": 93780,
                    "time": 305.78535650000003,
                    "velocity": 1
                },
                {
                    "duration": 0.21428549999995994,
                    "durationTicks": 60,
                    "midi": 36,
                    "name": "C2",
                    "ticks": 93840,
                    "time": 305.99964200000005,
                    "velocity": 1
                },
                {
                    "duration": 0.21428549999995994,
                    "durationTicks": 60,
                    "midi": 42,
                    "name": "F#2",
                    "ticks": 93840,
                    "time": 305.99964200000005,
                    "velocity": 1
                },
                {
                    "duration": 0.07142850000002454,
                    "durationTicks": 20,
                    "midi": 36,
                    "name": "C2",
                    "ticks": 93900,
                    "time": 306.2139275,
                    "velocity": 1
                },
                {
                    "duration": 0.21428550000001678,
                    "durationTicks": 60,
                    "midi": 42,
                    "name": "F#2",
                    "ticks": 93900,
                    "time": 306.2139275,
                    "velocity": 1
                },
                {
                    "duration": 0.0714284999999677,
                    "durationTicks": 20,
                    "midi": 36,
                    "name": "C2",
                    "ticks": 93920,
                    "time": 306.28535600000004,
                    "velocity": 1
                },
                {
                    "duration": 0.07142850000002454,
                    "durationTicks": 20,
                    "midi": 36,
                    "name": "C2",
                    "ticks": 93940,
                    "time": 306.3567845,
                    "velocity": 1
                },
                {
                    "duration": 0.21428550000001678,
                    "durationTicks": 60,
                    "midi": 57,
                    "name": "A3",
                    "ticks": 93960,
                    "time": 306.428213,
                    "velocity": 1
                },
                {
                    "duration": 0.21428550000001678,
                    "durationTicks": 60,
                    "midi": 38,
                    "name": "D2",
                    "ticks": 93960,
                    "time": 306.428213,
                    "velocity": 1
                },
                {
                    "duration": 0.21428550000001678,
                    "durationTicks": 60,
                    "midi": 42,
                    "name": "F#2",
                    "ticks": 94020,
                    "time": 306.64249850000004,
                    "velocity": 1
                },
                {
                    "duration": 0.21428549999995994,
                    "durationTicks": 60,
                    "midi": 42,
                    "name": "F#2",
                    "ticks": 94080,
                    "time": 306.85678400000006,
                    "velocity": 1
                },
                {
                    "duration": 0.21428549999995994,
                    "durationTicks": 60,
                    "midi": 36,
                    "name": "C2",
                    "ticks": 94080,
                    "time": 306.85678400000006,
                    "velocity": 1
                },
                {
                    "duration": 0.21428550000001678,
                    "durationTicks": 60,
                    "midi": 42,
                    "name": "F#2",
                    "ticks": 94140,
                    "time": 307.0710695,
                    "velocity": 1
                },
                {
                    "duration": 0.07142850000002454,
                    "durationTicks": 20,
                    "midi": 36,
                    "name": "C2",
                    "ticks": 94140,
                    "time": 307.0710695,
                    "velocity": 1
                },
                {
                    "duration": 0.0714284999999677,
                    "durationTicks": 20,
                    "midi": 36,
                    "name": "C2",
                    "ticks": 94160,
                    "time": 307.14249800000005,
                    "velocity": 1
                },
                {
                    "duration": 0.07142850000002454,
                    "durationTicks": 20,
                    "midi": 36,
                    "name": "C2",
                    "ticks": 94180,
                    "time": 307.2139265,
                    "velocity": 1
                },
                {
                    "duration": 0.21428550000001678,
                    "durationTicks": 60,
                    "midi": 38,
                    "name": "D2",
                    "ticks": 94200,
                    "time": 307.28535500000004,
                    "velocity": 1
                },
                {
                    "duration": 0.21428550000001678,
                    "durationTicks": 60,
                    "midi": 57,
                    "name": "A3",
                    "ticks": 94200,
                    "time": 307.28535500000004,
                    "velocity": 1
                },
                {
                    "duration": 0.10714274999997997,
                    "durationTicks": 30,
                    "midi": 38,
                    "name": "D2",
                    "ticks": 94260,
                    "time": 307.49964050000005,
                    "velocity": 1
                },
                {
                    "duration": 0.10714274999997997,
                    "durationTicks": 30,
                    "midi": 38,
                    "name": "D2",
                    "ticks": 94290,
                    "time": 307.60678325000003,
                    "velocity": 1
                },
                {
                    "duration": 0.21428550000001678,
                    "durationTicks": 60,
                    "midi": 45,
                    "name": "A2",
                    "ticks": 94320,
                    "time": 307.713926,
                    "velocity": 1
                },
                {
                    "duration": 0.10714274999997997,
                    "durationTicks": 30,
                    "midi": 45,
                    "name": "A2",
                    "ticks": 94380,
                    "time": 307.92821150000003,
                    "velocity": 1
                },
                {
                    "duration": 0.10714275000003681,
                    "durationTicks": 30,
                    "midi": 45,
                    "name": "A2",
                    "ticks": 94410,
                    "time": 308.03535425,
                    "velocity": 1
                },
                {
                    "duration": 0.21428549999995994,
                    "durationTicks": 60,
                    "midi": 47,
                    "name": "B2",
                    "ticks": 94440,
                    "time": 308.14249700000005,
                    "velocity": 1
                },
                {
                    "duration": 0.10714275000003681,
                    "durationTicks": 30,
                    "midi": 47,
                    "name": "B2",
                    "ticks": 94500,
                    "time": 308.3567825,
                    "velocity": 1
                },
                {
                    "duration": 0.10714274999997997,
                    "durationTicks": 30,
                    "midi": 47,
                    "name": "B2",
                    "ticks": 94530,
                    "time": 308.46392525000005,
                    "velocity": 1
                },
                {
                    "duration": 0.21428550000001678,
                    "durationTicks": 60,
                    "midi": 57,
                    "name": "A3",
                    "ticks": 94560,
                    "time": 308.571068,
                    "velocity": 1
                },
                {
                    "duration": 0.4285709999999767,
                    "durationTicks": 120,
                    "midi": 36,
                    "name": "C2",
                    "ticks": 94560,
                    "time": 308.571068,
                    "velocity": 1
                },
                {
                    "duration": 0.21428549999995994,
                    "durationTicks": 60,
                    "midi": 59,
                    "name": "B3",
                    "ticks": 94620,
                    "time": 308.78535350000004,
                    "velocity": 1
                },
                {
                    "duration": 0.21428550000001678,
                    "durationTicks": 60,
                    "midi": 38,
                    "name": "D2",
                    "ticks": 94680,
                    "time": 308.999639,
                    "velocity": 1
                },
                {
                    "duration": 0.21428550000001678,
                    "durationTicks": 60,
                    "midi": 59,
                    "name": "B3",
                    "ticks": 94680,
                    "time": 308.999639,
                    "velocity": 1
                },
                {
                    "duration": 0.21428550000001678,
                    "durationTicks": 60,
                    "midi": 59,
                    "name": "B3",
                    "ticks": 94740,
                    "time": 309.2139245,
                    "velocity": 1
                },
                {
                    "duration": 0.21428550000001678,
                    "durationTicks": 60,
                    "midi": 59,
                    "name": "B3",
                    "ticks": 94800,
                    "time": 309.42821000000004,
                    "velocity": 1
                },
                {
                    "duration": 0.4285709999999767,
                    "durationTicks": 120,
                    "midi": 36,
                    "name": "C2",
                    "ticks": 94800,
                    "time": 309.42821000000004,
                    "velocity": 1
                },
                {
                    "duration": 0.10714274999997997,
                    "durationTicks": 30,
                    "midi": 45,
                    "name": "A2",
                    "ticks": 94860,
                    "time": 309.64249550000005,
                    "velocity": 1
                },
                {
                    "duration": 0.10714274999997997,
                    "durationTicks": 30,
                    "midi": 45,
                    "name": "A2",
                    "ticks": 94890,
                    "time": 309.74963825000003,
                    "velocity": 1
                },
                {
                    "duration": 0.21428550000001678,
                    "durationTicks": 60,
                    "midi": 57,
                    "name": "A3",
                    "ticks": 94920,
                    "time": 309.856781,
                    "velocity": 1
                },
                {
                    "duration": 0.21428550000001678,
                    "durationTicks": 60,
                    "midi": 36,
                    "name": "C2",
                    "ticks": 94920,
                    "time": 309.856781,
                    "velocity": 1
                },
                {
                    "duration": 0.21428550000001678,
                    "durationTicks": 60,
                    "midi": 57,
                    "name": "A3",
                    "ticks": 94980,
                    "time": 310.07106650000003,
                    "velocity": 1
                },
                {
                    "duration": 0.21428550000001678,
                    "durationTicks": 60,
                    "midi": 36,
                    "name": "C2",
                    "ticks": 94980,
                    "time": 310.07106650000003,
                    "velocity": 1
                },
                {
                    "duration": 0.21428550000001678,
                    "durationTicks": 60,
                    "midi": 57,
                    "name": "A3",
                    "ticks": 95040,
                    "time": 310.28535200000005,
                    "velocity": 1
                },
                {
                    "duration": 0.4285709999999767,
                    "durationTicks": 120,
                    "midi": 36,
                    "name": "C2",
                    "ticks": 95040,
                    "time": 310.28535200000005,
                    "velocity": 1
                },
                {
                    "duration": 0.21428549999995994,
                    "durationTicks": 60,
                    "midi": 59,
                    "name": "B3",
                    "ticks": 95100,
                    "time": 310.49963750000006,
                    "velocity": 1
                },
                {
                    "duration": 0.21428550000001678,
                    "durationTicks": 60,
                    "midi": 38,
                    "name": "D2",
                    "ticks": 95160,
                    "time": 310.713923,
                    "velocity": 1
                },
                {
                    "duration": 0.21428550000001678,
                    "durationTicks": 60,
                    "midi": 59,
                    "name": "B3",
                    "ticks": 95160,
                    "time": 310.713923,
                    "velocity": 1
                },
                {
                    "duration": 0.21428550000001678,
                    "durationTicks": 60,
                    "midi": 59,
                    "name": "B3",
                    "ticks": 95220,
                    "time": 310.92820850000004,
                    "velocity": 1
                },
                {
                    "duration": 0.21428549999995994,
                    "durationTicks": 60,
                    "midi": 59,
                    "name": "B3",
                    "ticks": 95280,
                    "time": 311.14249400000006,
                    "velocity": 1
                },
                {
                    "duration": 0.4285709999999767,
                    "durationTicks": 120,
                    "midi": 36,
                    "name": "C2",
                    "ticks": 95280,
                    "time": 311.14249400000006,
                    "velocity": 1
                },
                {
                    "duration": 0.10714275000003681,
                    "durationTicks": 30,
                    "midi": 45,
                    "name": "A2",
                    "ticks": 95340,
                    "time": 311.3567795,
                    "velocity": 1
                },
                {
                    "duration": 0.10714274999997997,
                    "durationTicks": 30,
                    "midi": 45,
                    "name": "A2",
                    "ticks": 95370,
                    "time": 311.46392225000005,
                    "velocity": 1
                },
                {
                    "duration": 0.21428550000001678,
                    "durationTicks": 60,
                    "midi": 57,
                    "name": "A3",
                    "ticks": 95400,
                    "time": 311.57106500000003,
                    "velocity": 1
                },
                {
                    "duration": 0.21428550000001678,
                    "durationTicks": 60,
                    "midi": 36,
                    "name": "C2",
                    "ticks": 95400,
                    "time": 311.57106500000003,
                    "velocity": 1
                },
                {
                    "duration": 0.21428549999995994,
                    "durationTicks": 60,
                    "midi": 57,
                    "name": "A3",
                    "ticks": 95460,
                    "time": 311.78535050000005,
                    "velocity": 1
                },
                {
                    "duration": 0.21428549999995994,
                    "durationTicks": 60,
                    "midi": 36,
                    "name": "C2",
                    "ticks": 95460,
                    "time": 311.78535050000005,
                    "velocity": 1
                },
                {
                    "duration": 0.21428550000001678,
                    "durationTicks": 60,
                    "midi": 57,
                    "name": "A3",
                    "ticks": 95520,
                    "time": 311.999636,
                    "velocity": 1
                },
                {
                    "duration": 0.42857100000003356,
                    "durationTicks": 120,
                    "midi": 36,
                    "name": "C2",
                    "ticks": 95520,
                    "time": 311.999636,
                    "velocity": 1
                },
                {
                    "duration": 0.21428550000001678,
                    "durationTicks": 60,
                    "midi": 59,
                    "name": "B3",
                    "ticks": 95580,
                    "time": 312.2139215,
                    "velocity": 1
                },
                {
                    "duration": 0.21428549999995994,
                    "durationTicks": 60,
                    "midi": 38,
                    "name": "D2",
                    "ticks": 95640,
                    "time": 312.42820700000004,
                    "velocity": 1
                },
                {
                    "duration": 0.21428549999995994,
                    "durationTicks": 60,
                    "midi": 59,
                    "name": "B3",
                    "ticks": 95640,
                    "time": 312.42820700000004,
                    "velocity": 1
                },
                {
                    "duration": 0.21428550000001678,
                    "durationTicks": 60,
                    "midi": 59,
                    "name": "B3",
                    "ticks": 95700,
                    "time": 312.6424925,
                    "velocity": 1
                },
                {
                    "duration": 0.21428550000001678,
                    "durationTicks": 60,
                    "midi": 59,
                    "name": "B3",
                    "ticks": 95760,
                    "time": 312.856778,
                    "velocity": 1
                },
                {
                    "duration": 0.42857100000003356,
                    "durationTicks": 120,
                    "midi": 36,
                    "name": "C2",
                    "ticks": 95760,
                    "time": 312.856778,
                    "velocity": 1
                },
                {
                    "duration": 0.10714274999997997,
                    "durationTicks": 30,
                    "midi": 45,
                    "name": "A2",
                    "ticks": 95820,
                    "time": 313.07106350000004,
                    "velocity": 1
                },
                {
                    "duration": 0.10714275000003681,
                    "durationTicks": 30,
                    "midi": 45,
                    "name": "A2",
                    "ticks": 95850,
                    "time": 313.17820625,
                    "velocity": 1
                },
                {
                    "duration": 0.21428549999995994,
                    "durationTicks": 60,
                    "midi": 57,
                    "name": "A3",
                    "ticks": 95880,
                    "time": 313.28534900000005,
                    "velocity": 1
                },
                {
                    "duration": 0.21428549999995994,
                    "durationTicks": 60,
                    "midi": 36,
                    "name": "C2",
                    "ticks": 95880,
                    "time": 313.28534900000005,
                    "velocity": 1
                },
                {
                    "duration": 0.21428550000001678,
                    "durationTicks": 60,
                    "midi": 57,
                    "name": "A3",
                    "ticks": 95940,
                    "time": 313.4996345,
                    "velocity": 1
                },
                {
                    "duration": 0.21428550000001678,
                    "durationTicks": 60,
                    "midi": 36,
                    "name": "C2",
                    "ticks": 95940,
                    "time": 313.4996345,
                    "velocity": 1
                },
                {
                    "duration": 0.21428550000001678,
                    "durationTicks": 60,
                    "midi": 57,
                    "name": "A3",
                    "ticks": 96000,
                    "time": 313.71392000000003,
                    "velocity": 1
                },
                {
                    "duration": 0.42857100000003356,
                    "durationTicks": 120,
                    "midi": 36,
                    "name": "C2",
                    "ticks": 96000,
                    "time": 313.71392000000003,
                    "velocity": 1
                },
                {
                    "duration": 0.21428550000001678,
                    "durationTicks": 60,
                    "midi": 59,
                    "name": "B3",
                    "ticks": 96060,
                    "time": 313.92820550000005,
                    "velocity": 1
                },
                {
                    "duration": 0.21428549999995994,
                    "durationTicks": 60,
                    "midi": 38,
                    "name": "D2",
                    "ticks": 96120,
                    "time": 314.14249100000006,
                    "velocity": 1
                },
                {
                    "duration": 0.21428549999995994,
                    "durationTicks": 60,
                    "midi": 59,
                    "name": "B3",
                    "ticks": 96120,
                    "time": 314.14249100000006,
                    "velocity": 1
                },
                {
                    "duration": 0.21428550000001678,
                    "durationTicks": 60,
                    "midi": 59,
                    "name": "B3",
                    "ticks": 96180,
                    "time": 314.3567765,
                    "velocity": 1
                },
                {
                    "duration": 0.21428550000001678,
                    "durationTicks": 60,
                    "midi": 36,
                    "name": "C2",
                    "ticks": 96240,
                    "time": 314.57106200000004,
                    "velocity": 1
                },
                {
                    "duration": 0.21428550000001678,
                    "durationTicks": 60,
                    "midi": 59,
                    "name": "B3",
                    "ticks": 96240,
                    "time": 314.57106200000004,
                    "velocity": 1
                },
                {
                    "duration": 0.21428549999995994,
                    "durationTicks": 60,
                    "midi": 59,
                    "name": "B3",
                    "ticks": 96300,
                    "time": 314.78534750000006,
                    "velocity": 1
                },
                {
                    "duration": 0.21428549999995994,
                    "durationTicks": 60,
                    "midi": 36,
                    "name": "C2",
                    "ticks": 96300,
                    "time": 314.78534750000006,
                    "velocity": 1
                },
                {
                    "duration": 0.10714275000003681,
                    "durationTicks": 30,
                    "midi": 45,
                    "name": "A2",
                    "ticks": 96360,
                    "time": 314.999633,
                    "velocity": 1
                },
                {
                    "duration": 0.10714274999997997,
                    "durationTicks": 30,
                    "midi": 45,
                    "name": "A2",
                    "ticks": 96390,
                    "time": 315.10677575000005,
                    "velocity": 1
                },
                {
                    "duration": 0.21428550000001678,
                    "durationTicks": 60,
                    "midi": 45,
                    "name": "A2",
                    "ticks": 96420,
                    "time": 315.21391850000003,
                    "velocity": 1
                },
                {
                    "duration": 0.21428549999995994,
                    "durationTicks": 60,
                    "midi": 57,
                    "name": "A3",
                    "ticks": 96480,
                    "time": 315.42820400000005,
                    "velocity": 1
                },
                {
                    "duration": 0.4285709999999767,
                    "durationTicks": 120,
                    "midi": 36,
                    "name": "C2",
                    "ticks": 96480,
                    "time": 315.42820400000005,
                    "velocity": 1
                },
                {
                    "duration": 0.21428550000001678,
                    "durationTicks": 60,
                    "midi": 59,
                    "name": "B3",
                    "ticks": 96540,
                    "time": 315.6424895,
                    "velocity": 1
                },
                {
                    "duration": 0.21428550000001678,
                    "durationTicks": 60,
                    "midi": 38,
                    "name": "D2",
                    "ticks": 96600,
                    "time": 315.856775,
                    "velocity": 1
                },
                {
                    "duration": 0.21428550000001678,
                    "durationTicks": 60,
                    "midi": 59,
                    "name": "B3",
                    "ticks": 96600,
                    "time": 315.856775,
                    "velocity": 1
                },
                {
                    "duration": 0.21428549999995994,
                    "durationTicks": 60,
                    "midi": 59,
                    "name": "B3",
                    "ticks": 96660,
                    "time": 316.07106050000004,
                    "velocity": 1
                },
                {
                    "duration": 0.21428550000001678,
                    "durationTicks": 60,
                    "midi": 59,
                    "name": "B3",
                    "ticks": 96720,
                    "time": 316.285346,
                    "velocity": 1
                },
                {
                    "duration": 0.42857100000003356,
                    "durationTicks": 120,
                    "midi": 36,
                    "name": "C2",
                    "ticks": 96720,
                    "time": 316.285346,
                    "velocity": 1
                },
                {
                    "duration": 0.10714275000003681,
                    "durationTicks": 30,
                    "midi": 45,
                    "name": "A2",
                    "ticks": 96780,
                    "time": 316.4996315,
                    "velocity": 1
                },
                {
                    "duration": 0.10714274999997997,
                    "durationTicks": 30,
                    "midi": 45,
                    "name": "A2",
                    "ticks": 96810,
                    "time": 316.60677425000006,
                    "velocity": 1
                },
                {
                    "duration": 0.21428550000001678,
                    "durationTicks": 60,
                    "midi": 57,
                    "name": "A3",
                    "ticks": 96840,
                    "time": 316.71391700000004,
                    "velocity": 1
                },
                {
                    "duration": 0.21428550000001678,
                    "durationTicks": 60,
                    "midi": 36,
                    "name": "C2",
                    "ticks": 96840,
                    "time": 316.71391700000004,
                    "velocity": 1
                },
                {
                    "duration": 0.21428549999995994,
                    "durationTicks": 60,
                    "midi": 57,
                    "name": "A3",
                    "ticks": 96900,
                    "time": 316.92820250000005,
                    "velocity": 1
                },
                {
                    "duration": 0.21428549999995994,
                    "durationTicks": 60,
                    "midi": 36,
                    "name": "C2",
                    "ticks": 96900,
                    "time": 316.92820250000005,
                    "velocity": 1
                },
                {
                    "duration": 0.21428550000001678,
                    "durationTicks": 60,
                    "midi": 57,
                    "name": "A3",
                    "ticks": 96960,
                    "time": 317.142488,
                    "velocity": 1
                },
                {
                    "duration": 0.42857100000003356,
                    "durationTicks": 120,
                    "midi": 36,
                    "name": "C2",
                    "ticks": 96960,
                    "time": 317.142488,
                    "velocity": 1
                },
                {
                    "duration": 0.21428550000001678,
                    "durationTicks": 60,
                    "midi": 59,
                    "name": "B3",
                    "ticks": 97020,
                    "time": 317.35677350000003,
                    "velocity": 1
                },
                {
                    "duration": 0.21428550000001678,
                    "durationTicks": 60,
                    "midi": 38,
                    "name": "D2",
                    "ticks": 97080,
                    "time": 317.57105900000005,
                    "velocity": 1
                },
                {
                    "duration": 0.21428550000001678,
                    "durationTicks": 60,
                    "midi": 59,
                    "name": "B3",
                    "ticks": 97080,
                    "time": 317.57105900000005,
                    "velocity": 1
                },
                {
                    "duration": 0.21428549999995994,
                    "durationTicks": 60,
                    "midi": 59,
                    "name": "B3",
                    "ticks": 97140,
                    "time": 317.78534450000006,
                    "velocity": 1
                },
                {
                    "duration": 0.21428550000001678,
                    "durationTicks": 60,
                    "midi": 59,
                    "name": "B3",
                    "ticks": 97200,
                    "time": 317.99963,
                    "velocity": 1
                },
                {
                    "duration": 0.42857100000003356,
                    "durationTicks": 120,
                    "midi": 36,
                    "name": "C2",
                    "ticks": 97200,
                    "time": 317.99963,
                    "velocity": 1
                },
                {
                    "duration": 0.10714274999997997,
                    "durationTicks": 30,
                    "midi": 45,
                    "name": "A2",
                    "ticks": 97260,
                    "time": 318.21391550000004,
                    "velocity": 1
                },
                {
                    "duration": 0.10714275000003681,
                    "durationTicks": 30,
                    "midi": 45,
                    "name": "A2",
                    "ticks": 97290,
                    "time": 318.32105825,
                    "velocity": 1
                },
                {
                    "duration": 0.21428549999995994,
                    "durationTicks": 60,
                    "midi": 57,
                    "name": "A3",
                    "ticks": 97320,
                    "time": 318.42820100000006,
                    "velocity": 1
                },
                {
                    "duration": 0.21428549999995994,
                    "durationTicks": 60,
                    "midi": 36,
                    "name": "C2",
                    "ticks": 97320,
                    "time": 318.42820100000006,
                    "velocity": 1
                },
                {
                    "duration": 0.21428550000001678,
                    "durationTicks": 60,
                    "midi": 57,
                    "name": "A3",
                    "ticks": 97380,
                    "time": 318.6424865,
                    "velocity": 1
                },
                {
                    "duration": 0.21428550000001678,
                    "durationTicks": 60,
                    "midi": 36,
                    "name": "C2",
                    "ticks": 97380,
                    "time": 318.6424865,
                    "velocity": 1
                },
                {
                    "duration": 0.21428550000001678,
                    "durationTicks": 60,
                    "midi": 57,
                    "name": "A3",
                    "ticks": 97440,
                    "time": 318.85677200000003,
                    "velocity": 1
                },
                {
                    "duration": 0.4285709999999767,
                    "durationTicks": 120,
                    "midi": 36,
                    "name": "C2",
                    "ticks": 97440,
                    "time": 318.85677200000003,
                    "velocity": 1
                },
                {
                    "duration": 0.21428549999995994,
                    "durationTicks": 60,
                    "midi": 59,
                    "name": "B3",
                    "ticks": 97500,
                    "time": 319.07105750000005,
                    "velocity": 1
                },
                {
                    "duration": 0.21428550000001678,
                    "durationTicks": 60,
                    "midi": 38,
                    "name": "D2",
                    "ticks": 97560,
                    "time": 319.285343,
                    "velocity": 1
                },
                {
                    "duration": 0.21428550000001678,
                    "durationTicks": 60,
                    "midi": 59,
                    "name": "B3",
                    "ticks": 97560,
                    "time": 319.285343,
                    "velocity": 1
                },
                {
                    "duration": 0.21428550000001678,
                    "durationTicks": 60,
                    "midi": 59,
                    "name": "B3",
                    "ticks": 97620,
                    "time": 319.49962850000003,
                    "velocity": 1
                },
                {
                    "duration": 0.21428549999995994,
                    "durationTicks": 60,
                    "midi": 59,
                    "name": "B3",
                    "ticks": 97680,
                    "time": 319.71391400000005,
                    "velocity": 1
                },
                {
                    "duration": 0.4285709999999767,
                    "durationTicks": 120,
                    "midi": 36,
                    "name": "C2",
                    "ticks": 97680,
                    "time": 319.71391400000005,
                    "velocity": 1
                },
                {
                    "duration": 0.10714275000003681,
                    "durationTicks": 30,
                    "midi": 45,
                    "name": "A2",
                    "ticks": 97740,
                    "time": 319.9281995,
                    "velocity": 1
                },
                {
                    "duration": 0.10714274999997997,
                    "durationTicks": 30,
                    "midi": 45,
                    "name": "A2",
                    "ticks": 97770,
                    "time": 320.03534225000004,
                    "velocity": 1
                },
                {
                    "duration": 0.21428550000001678,
                    "durationTicks": 60,
                    "midi": 57,
                    "name": "A3",
                    "ticks": 97800,
                    "time": 320.142485,
                    "velocity": 1
                },
                {
                    "duration": 0.21428550000001678,
                    "durationTicks": 60,
                    "midi": 36,
                    "name": "C2",
                    "ticks": 97800,
                    "time": 320.142485,
                    "velocity": 1
                },
                {
                    "duration": 0.21428549999995994,
                    "durationTicks": 60,
                    "midi": 57,
                    "name": "A3",
                    "ticks": 97860,
                    "time": 320.35677050000004,
                    "velocity": 1
                },
                {
                    "duration": 0.21428549999995994,
                    "durationTicks": 60,
                    "midi": 36,
                    "name": "C2",
                    "ticks": 97860,
                    "time": 320.35677050000004,
                    "velocity": 1
                },
                {
                    "duration": 0.42857100000003356,
                    "durationTicks": 120,
                    "midi": 36,
                    "name": "C2",
                    "ticks": 97920,
                    "time": 320.571056,
                    "velocity": 1
                },
                {
                    "duration": 0.21428550000001678,
                    "durationTicks": 60,
                    "midi": 57,
                    "name": "A3",
                    "ticks": 97920,
                    "time": 320.571056,
                    "velocity": 1
                },
                {
                    "duration": 0.10714275000003681,
                    "durationTicks": 30,
                    "midi": 38,
                    "name": "D2",
                    "ticks": 97980,
                    "time": 320.7853415,
                    "velocity": 1
                },
                {
                    "duration": 0.10714274999997997,
                    "durationTicks": 30,
                    "midi": 38,
                    "name": "D2",
                    "ticks": 98010,
                    "time": 320.89248425000005,
                    "velocity": 1
                },
                {
                    "duration": 0.21428550000001678,
                    "durationTicks": 60,
                    "midi": 38,
                    "name": "D2",
                    "ticks": 98040,
                    "time": 320.99962700000003,
                    "velocity": 1
                },
                {
                    "duration": 0.10714274999997997,
                    "durationTicks": 30,
                    "midi": 38,
                    "name": "D2",
                    "ticks": 98100,
                    "time": 321.21391250000005,
                    "velocity": 1
                },
                {
                    "duration": 0.10714275000003681,
                    "durationTicks": 30,
                    "midi": 38,
                    "name": "D2",
                    "ticks": 98130,
                    "time": 321.32105525000003,
                    "velocity": 1
                },
                {
                    "duration": 0.21428549999995994,
                    "durationTicks": 60,
                    "midi": 38,
                    "name": "D2",
                    "ticks": 98160,
                    "time": 321.42819800000007,
                    "velocity": 1
                },
                {
                    "duration": 0.10714274999997997,
                    "durationTicks": 30,
                    "midi": 38,
                    "name": "D2",
                    "ticks": 98220,
                    "time": 321.6424835,
                    "velocity": 1
                },
                {
                    "duration": 0.10714275000003681,
                    "durationTicks": 30,
                    "midi": 38,
                    "name": "D2",
                    "ticks": 98250,
                    "time": 321.74962625,
                    "velocity": 1
                },
                {
                    "duration": 0.21428550000001678,
                    "durationTicks": 60,
                    "midi": 38,
                    "name": "D2",
                    "ticks": 98280,
                    "time": 321.85676900000004,
                    "velocity": 1
                },
                {
                    "duration": 0.21428549999995994,
                    "durationTicks": 60,
                    "midi": 38,
                    "name": "D2",
                    "ticks": 98340,
                    "time": 322.07105450000006,
                    "velocity": 1
                },
                {
                    "duration": 0.21428550000001678,
                    "durationTicks": 60,
                    "midi": 57,
                    "name": "A3",
                    "ticks": 98400,
                    "time": 322.28534,
                    "velocity": 1
                },
                {
                    "duration": 0.42857100000003356,
                    "durationTicks": 120,
                    "midi": 36,
                    "name": "C2",
                    "ticks": 98400,
                    "time": 322.28534,
                    "velocity": 1
                },
                {
                    "duration": 0.10714274999997997,
                    "durationTicks": 30,
                    "midi": 38,
                    "name": "D2",
                    "ticks": 98460,
                    "time": 322.49962550000004,
                    "velocity": 1
                },
                {
                    "duration": 0.10714275000003681,
                    "durationTicks": 30,
                    "midi": 38,
                    "name": "D2",
                    "ticks": 98490,
                    "time": 322.60676825,
                    "velocity": 1
                },
                {
                    "duration": 0.21428549999995994,
                    "durationTicks": 60,
                    "midi": 38,
                    "name": "D2",
                    "ticks": 98520,
                    "time": 322.71391100000005,
                    "velocity": 1
                },
                {
                    "duration": 0.10714275000003681,
                    "durationTicks": 30,
                    "midi": 38,
                    "name": "D2",
                    "ticks": 98580,
                    "time": 322.9281965,
                    "velocity": 1
                },
                {
                    "duration": 0.10714274999997997,
                    "durationTicks": 30,
                    "midi": 38,
                    "name": "D2",
                    "ticks": 98610,
                    "time": 323.03533925000005,
                    "velocity": 1
                },
                {
                    "duration": 0.21428550000001678,
                    "durationTicks": 60,
                    "midi": 45,
                    "name": "A2",
                    "ticks": 98640,
                    "time": 323.14248200000003,
                    "velocity": 1
                },
                {
                    "duration": 0.10714274999997997,
                    "durationTicks": 30,
                    "midi": 45,
                    "name": "A2",
                    "ticks": 98700,
                    "time": 323.35676750000005,
                    "velocity": 1
                },
                {
                    "duration": 0.10714274999997997,
                    "durationTicks": 30,
                    "midi": 45,
                    "name": "A2",
                    "ticks": 98730,
                    "time": 323.46391025,
                    "velocity": 1
                },
                {
                    "duration": 0.21428550000001678,
                    "durationTicks": 60,
                    "midi": 47,
                    "name": "B2",
                    "ticks": 98760,
                    "time": 323.571053,
                    "velocity": 1
                },
                {
                    "duration": 0.21428550000001678,
                    "durationTicks": 60,
                    "midi": 47,
                    "name": "B2",
                    "ticks": 98820,
                    "time": 323.7853385,
                    "velocity": 1
                },
                {
                    "duration": 0.21428549999995994,
                    "durationTicks": 60,
                    "midi": 57,
                    "name": "A3",
                    "ticks": 98880,
                    "time": 323.99962400000004,
                    "velocity": 1
                },
                {
                    "duration": 0.4285709999999767,
                    "durationTicks": 120,
                    "midi": 36,
                    "name": "C2",
                    "ticks": 98880,
                    "time": 323.99962400000004,
                    "velocity": 1
                },
                {
                    "duration": 0.21428550000001678,
                    "durationTicks": 60,
                    "midi": 42,
                    "name": "F#2",
                    "ticks": 98940,
                    "time": 324.2139095,
                    "velocity": 1
                },
                {
                    "duration": 0.21428550000001678,
                    "durationTicks": 60,
                    "midi": 38,
                    "name": "D2",
                    "ticks": 99000,
                    "time": 324.428195,
                    "velocity": 1
                },
                {
                    "duration": 0.21428550000001678,
                    "durationTicks": 60,
                    "midi": 42,
                    "name": "F#2",
                    "ticks": 99000,
                    "time": 324.428195,
                    "velocity": 1
                },
                {
                    "duration": 0.21428550000001678,
                    "durationTicks": 60,
                    "midi": 42,
                    "name": "F#2",
                    "ticks": 99060,
                    "time": 324.64248050000003,
                    "velocity": 1
                },
                {
                    "duration": 0.21428550000001678,
                    "durationTicks": 60,
                    "midi": 36,
                    "name": "C2",
                    "ticks": 99120,
                    "time": 324.85676600000005,
                    "velocity": 1
                },
                {
                    "duration": 0.21428550000001678,
                    "durationTicks": 60,
                    "midi": 42,
                    "name": "F#2",
                    "ticks": 99120,
                    "time": 324.85676600000005,
                    "velocity": 1
                },
                {
                    "duration": 0.0714284999999677,
                    "durationTicks": 20,
                    "midi": 36,
                    "name": "C2",
                    "ticks": 99180,
                    "time": 325.07105150000007,
                    "velocity": 1
                },
                {
                    "duration": 0.21428549999995994,
                    "durationTicks": 60,
                    "midi": 42,
                    "name": "F#2",
                    "ticks": 99180,
                    "time": 325.07105150000007,
                    "velocity": 1
                },
                {
                    "duration": 0.07142850000002454,
                    "durationTicks": 20,
                    "midi": 36,
                    "name": "C2",
                    "ticks": 99200,
                    "time": 325.14248000000003,
                    "velocity": 1
                },
                {
                    "duration": 0.0714284999999677,
                    "durationTicks": 20,
                    "midi": 36,
                    "name": "C2",
                    "ticks": 99220,
                    "time": 325.21390850000006,
                    "velocity": 1
                },
                {
                    "duration": 0.21428550000001678,
                    "durationTicks": 60,
                    "midi": 38,
                    "name": "D2",
                    "ticks": 99240,
                    "time": 325.285337,
                    "velocity": 1
                },
                {
                    "duration": 0.21428550000001678,
                    "durationTicks": 60,
                    "midi": 42,
                    "name": "F#2",
                    "ticks": 99240,
                    "time": 325.285337,
                    "velocity": 1
                },
                {
                    "duration": 0.21428550000001678,
                    "durationTicks": 60,
                    "midi": 42,
                    "name": "F#2",
                    "ticks": 99300,
                    "time": 325.49962250000004,
                    "velocity": 1
                },
                {
                    "duration": 0.4285709999999767,
                    "durationTicks": 120,
                    "midi": 36,
                    "name": "C2",
                    "ticks": 99360,
                    "time": 325.71390800000006,
                    "velocity": 1
                },
                {
                    "duration": 0.21428549999995994,
                    "durationTicks": 60,
                    "midi": 57,
                    "name": "A3",
                    "ticks": 99360,
                    "time": 325.71390800000006,
                    "velocity": 1
                },
                {
                    "duration": 0.21428550000001678,
                    "durationTicks": 60,
                    "midi": 42,
                    "name": "F#2",
                    "ticks": 99420,
                    "time": 325.9281935,
                    "velocity": 1
                },
                {
                    "duration": 0.21428550000001678,
                    "durationTicks": 60,
                    "midi": 38,
                    "name": "D2",
                    "ticks": 99480,
                    "time": 326.14247900000004,
                    "velocity": 1
                },
                {
                    "duration": 0.21428550000001678,
                    "durationTicks": 60,
                    "midi": 42,
                    "name": "F#2",
                    "ticks": 99480,
                    "time": 326.14247900000004,
                    "velocity": 1
                },
                {
                    "duration": 0.21428549999995994,
                    "durationTicks": 60,
                    "midi": 42,
                    "name": "F#2",
                    "ticks": 99540,
                    "time": 326.35676450000005,
                    "velocity": 1
                },
                {
                    "duration": 0.10714275000003681,
                    "durationTicks": 30,
                    "midi": 38,
                    "name": "D2",
                    "ticks": 99600,
                    "time": 326.57105,
                    "velocity": 1
                },
                {
                    "duration": 0.10714274999997997,
                    "durationTicks": 30,
                    "midi": 38,
                    "name": "D2",
                    "ticks": 99630,
                    "time": 326.67819275000005,
                    "velocity": 1
                },
                {
                    "duration": 0.21428550000001678,
                    "durationTicks": 60,
                    "midi": 38,
                    "name": "D2",
                    "ticks": 99660,
                    "time": 326.78533550000003,
                    "velocity": 1
                },
                {
                    "duration": 0.10714274999997997,
                    "durationTicks": 30,
                    "midi": 45,
                    "name": "A2",
                    "ticks": 99720,
                    "time": 326.99962100000005,
                    "velocity": 1
                },
                {
                    "duration": 0.10714274999997997,
                    "durationTicks": 30,
                    "midi": 45,
                    "name": "A2",
                    "ticks": 99750,
                    "time": 327.10676375,
                    "velocity": 1
                },
                {
                    "duration": 0.21428550000001678,
                    "durationTicks": 60,
                    "midi": 45,
                    "name": "A2",
                    "ticks": 99780,
                    "time": 327.2139065,
                    "velocity": 1
                },
                {
                    "duration": 0.21428550000001678,
                    "durationTicks": 60,
                    "midi": 57,
                    "name": "A3",
                    "ticks": 99840,
                    "time": 327.428192,
                    "velocity": 1
                },
                {
                    "duration": 0.4285709999999767,
                    "durationTicks": 120,
                    "midi": 36,
                    "name": "C2",
                    "ticks": 99840,
                    "time": 327.428192,
                    "velocity": 1
                },
                {
                    "duration": 0.21428549999995994,
                    "durationTicks": 60,
                    "midi": 42,
                    "name": "F#2",
                    "ticks": 99900,
                    "time": 327.64247750000004,
                    "velocity": 1
                },
                {
                    "duration": 0.21428550000001678,
                    "durationTicks": 60,
                    "midi": 38,
                    "name": "D2",
                    "ticks": 99960,
                    "time": 327.856763,
                    "velocity": 1
                },
                {
                    "duration": 0.21428550000001678,
                    "durationTicks": 60,
                    "midi": 42,
                    "name": "F#2",
                    "ticks": 99960,
                    "time": 327.856763,
                    "velocity": 1
                },
                {
                    "duration": 0.21428550000001678,
                    "durationTicks": 60,
                    "midi": 42,
                    "name": "F#2",
                    "ticks": 100020,
                    "time": 328.0710485,
                    "velocity": 1
                },
                {
                    "duration": 0.21428550000001678,
                    "durationTicks": 60,
                    "midi": 42,
                    "name": "F#2",
                    "ticks": 100080,
                    "time": 328.28533400000003,
                    "velocity": 1
                },
                {
                    "duration": 0.42857100000003356,
                    "durationTicks": 120,
                    "midi": 36,
                    "name": "C2",
                    "ticks": 100080,
                    "time": 328.28533400000003,
                    "velocity": 1
                },
                {
                    "duration": 0.21428550000001678,
                    "durationTicks": 60,
                    "midi": 42,
                    "name": "F#2",
                    "ticks": 100140,
                    "time": 328.49961950000005,
                    "velocity": 1
                },
                {
                    "duration": 0.21428549999995994,
                    "durationTicks": 60,
                    "midi": 38,
                    "name": "D2",
                    "ticks": 100200,
                    "time": 328.71390500000007,
                    "velocity": 1
                },
                {
                    "duration": 0.21428549999995994,
                    "durationTicks": 60,
                    "midi": 42,
                    "name": "F#2",
                    "ticks": 100200,
                    "time": 328.71390500000007,
                    "velocity": 1
                },
                {
                    "duration": 0.21428550000001678,
                    "durationTicks": 60,
                    "midi": 42,
                    "name": "F#2",
                    "ticks": 100260,
                    "time": 328.9281905,
                    "velocity": 1
                },
                {
                    "duration": 0.4285709999999767,
                    "durationTicks": 120,
                    "midi": 36,
                    "name": "C2",
                    "ticks": 100320,
                    "time": 329.14247600000004,
                    "velocity": 1
                },
                {
                    "duration": 0.21428550000001678,
                    "durationTicks": 60,
                    "midi": 42,
                    "name": "F#2",
                    "ticks": 100320,
                    "time": 329.14247600000004,
                    "velocity": 1
                },
                {
                    "duration": 0.21428549999995994,
                    "durationTicks": 60,
                    "midi": 42,
                    "name": "F#2",
                    "ticks": 100380,
                    "time": 329.35676150000006,
                    "velocity": 1
                },
                {
                    "duration": 0.21428550000001678,
                    "durationTicks": 60,
                    "midi": 38,
                    "name": "D2",
                    "ticks": 100440,
                    "time": 329.571047,
                    "velocity": 1
                },
                {
                    "duration": 0.21428550000001678,
                    "durationTicks": 60,
                    "midi": 42,
                    "name": "F#2",
                    "ticks": 100440,
                    "time": 329.571047,
                    "velocity": 1
                },
                {
                    "duration": 0.0714284999999677,
                    "durationTicks": 20,
                    "midi": 36,
                    "name": "C2",
                    "ticks": 100500,
                    "time": 329.78533250000004,
                    "velocity": 1
                },
                {
                    "duration": 0.21428550000001678,
                    "durationTicks": 60,
                    "midi": 42,
                    "name": "F#2",
                    "ticks": 100500,
                    "time": 329.78533250000004,
                    "velocity": 1
                },
                {
                    "duration": 0.07142850000002454,
                    "durationTicks": 20,
                    "midi": 36,
                    "name": "C2",
                    "ticks": 100520,
                    "time": 329.856761,
                    "velocity": 1
                },
                {
                    "duration": 0.07142850000002454,
                    "durationTicks": 20,
                    "midi": 36,
                    "name": "C2",
                    "ticks": 100540,
                    "time": 329.92818950000003,
                    "velocity": 1
                },
                {
                    "duration": 0.21428549999995994,
                    "durationTicks": 60,
                    "midi": 38,
                    "name": "D2",
                    "ticks": 100560,
                    "time": 329.99961800000005,
                    "velocity": 1
                },
                {
                    "duration": 0.21428549999995994,
                    "durationTicks": 60,
                    "midi": 42,
                    "name": "F#2",
                    "ticks": 100560,
                    "time": 329.99961800000005,
                    "velocity": 1
                },
                {
                    "duration": 0.07142850000002454,
                    "durationTicks": 20,
                    "midi": 36,
                    "name": "C2",
                    "ticks": 100620,
                    "time": 330.2139035,
                    "velocity": 1
                },
                {
                    "duration": 0.21428550000001678,
                    "durationTicks": 60,
                    "midi": 42,
                    "name": "F#2",
                    "ticks": 100620,
                    "time": 330.2139035,
                    "velocity": 1
                },
                {
                    "duration": 0.07142850000002454,
                    "durationTicks": 20,
                    "midi": 36,
                    "name": "C2",
                    "ticks": 100640,
                    "time": 330.28533200000004,
                    "velocity": 1
                },
                {
                    "duration": 0.0714284999999677,
                    "durationTicks": 20,
                    "midi": 36,
                    "name": "C2",
                    "ticks": 100660,
                    "time": 330.35676050000006,
                    "velocity": 1
                },
                {
                    "duration": 0.21428550000001678,
                    "durationTicks": 60,
                    "midi": 38,
                    "name": "D2",
                    "ticks": 100680,
                    "time": 330.42818900000003,
                    "velocity": 1
                },
                {
                    "duration": 0.21428550000001678,
                    "durationTicks": 60,
                    "midi": 42,
                    "name": "F#2",
                    "ticks": 100680,
                    "time": 330.42818900000003,
                    "velocity": 1
                },
                {
                    "duration": 0.21428549999995994,
                    "durationTicks": 60,
                    "midi": 36,
                    "name": "C2",
                    "ticks": 100740,
                    "time": 330.64247450000005,
                    "velocity": 1
                },
                {
                    "duration": 0.21428549999995994,
                    "durationTicks": 60,
                    "midi": 42,
                    "name": "F#2",
                    "ticks": 100740,
                    "time": 330.64247450000005,
                    "velocity": 1
                },
                {
                    "duration": 0.21428550000001678,
                    "durationTicks": 60,
                    "midi": 57,
                    "name": "A3",
                    "ticks": 100800,
                    "time": 330.85676,
                    "velocity": 1
                },
                {
                    "duration": 0.42857100000003356,
                    "durationTicks": 120,
                    "midi": 36,
                    "name": "C2",
                    "ticks": 100800,
                    "time": 330.85676,
                    "velocity": 1
                },
                {
                    "duration": 0.21428550000001678,
                    "durationTicks": 60,
                    "midi": 42,
                    "name": "F#2",
                    "ticks": 100860,
                    "time": 331.0710455,
                    "velocity": 1
                },
                {
                    "duration": 0.21428549999995994,
                    "durationTicks": 60,
                    "midi": 38,
                    "name": "D2",
                    "ticks": 100920,
                    "time": 331.28533100000004,
                    "velocity": 1
                },
                {
                    "duration": 0.21428549999995994,
                    "durationTicks": 60,
                    "midi": 42,
                    "name": "F#2",
                    "ticks": 100920,
                    "time": 331.28533100000004,
                    "velocity": 1
                },
                {
                    "duration": 0.21428550000001678,
                    "durationTicks": 60,
                    "midi": 42,
                    "name": "F#2",
                    "ticks": 100980,
                    "time": 331.4996165,
                    "velocity": 1
                },
                {
                    "duration": 0.21428550000001678,
                    "durationTicks": 60,
                    "midi": 42,
                    "name": "F#2",
                    "ticks": 101040,
                    "time": 331.713902,
                    "velocity": 1
                },
                {
                    "duration": 0.21428550000001678,
                    "durationTicks": 60,
                    "midi": 36,
                    "name": "C2",
                    "ticks": 101040,
                    "time": 331.713902,
                    "velocity": 1
                },
                {
                    "duration": 0.21428550000001678,
                    "durationTicks": 60,
                    "midi": 42,
                    "name": "F#2",
                    "ticks": 101100,
                    "time": 331.92818750000004,
                    "velocity": 1
                },
                {
                    "duration": 0.07142850000002454,
                    "durationTicks": 20,
                    "midi": 36,
                    "name": "C2",
                    "ticks": 101100,
                    "time": 331.92818750000004,
                    "velocity": 1
                },
                {
                    "duration": 0.0714284999999677,
                    "durationTicks": 20,
                    "midi": 36,
                    "name": "C2",
                    "ticks": 101120,
                    "time": 331.99961600000006,
                    "velocity": 1
                },
                {
                    "duration": 0.07142850000002454,
                    "durationTicks": 20,
                    "midi": 36,
                    "name": "C2",
                    "ticks": 101140,
                    "time": 332.0710445,
                    "velocity": 1
                },
                {
                    "duration": 0.21428550000001678,
                    "durationTicks": 60,
                    "midi": 38,
                    "name": "D2",
                    "ticks": 101160,
                    "time": 332.14247300000005,
                    "velocity": 1
                },
                {
                    "duration": 0.21428550000001678,
                    "durationTicks": 60,
                    "midi": 42,
                    "name": "F#2",
                    "ticks": 101160,
                    "time": 332.14247300000005,
                    "velocity": 1
                },
                {
                    "duration": 0.21428549999995994,
                    "durationTicks": 60,
                    "midi": 42,
                    "name": "F#2",
                    "ticks": 101220,
                    "time": 332.35675850000007,
                    "velocity": 1
                },
                {
                    "duration": 0.21428549999995994,
                    "durationTicks": 60,
                    "midi": 36,
                    "name": "C2",
                    "ticks": 101220,
                    "time": 332.35675850000007,
                    "velocity": 1
                },
                {
                    "duration": 0.42857100000003356,
                    "durationTicks": 120,
                    "midi": 36,
                    "name": "C2",
                    "ticks": 101280,
                    "time": 332.57104400000003,
                    "velocity": 1
                },
                {
                    "duration": 0.21428550000001678,
                    "durationTicks": 60,
                    "midi": 57,
                    "name": "A3",
                    "ticks": 101280,
                    "time": 332.57104400000003,
                    "velocity": 1
                },
                {
                    "duration": 0.21428550000001678,
                    "durationTicks": 60,
                    "midi": 42,
                    "name": "F#2",
                    "ticks": 101340,
                    "time": 332.78532950000005,
                    "velocity": 1
                },
                {
                    "duration": 0.21428549999995994,
                    "durationTicks": 60,
                    "midi": 38,
                    "name": "D2",
                    "ticks": 101400,
                    "time": 332.99961500000006,
                    "velocity": 1
                },
                {
                    "duration": 0.21428549999995994,
                    "durationTicks": 60,
                    "midi": 42,
                    "name": "F#2",
                    "ticks": 101400,
                    "time": 332.99961500000006,
                    "velocity": 1
                },
                {
                    "duration": 0.21428550000001678,
                    "durationTicks": 60,
                    "midi": 42,
                    "name": "F#2",
                    "ticks": 101460,
                    "time": 333.2139005,
                    "velocity": 1
                },
                {
                    "duration": 0.21428550000001678,
                    "durationTicks": 60,
                    "midi": 45,
                    "name": "A2",
                    "ticks": 101520,
                    "time": 333.42818600000004,
                    "velocity": 1
                },
                {
                    "duration": 0.21428549999995994,
                    "durationTicks": 60,
                    "midi": 45,
                    "name": "A2",
                    "ticks": 101580,
                    "time": 333.64247150000006,
                    "velocity": 1
                },
                {
                    "duration": 0.10714275000003681,
                    "durationTicks": 30,
                    "midi": 47,
                    "name": "B2",
                    "ticks": 101640,
                    "time": 333.856757,
                    "velocity": 1
                },
                {
                    "duration": 0.10714274999997997,
                    "durationTicks": 30,
                    "midi": 47,
                    "name": "B2",
                    "ticks": 101670,
                    "time": 333.96389975000005,
                    "velocity": 1
                },
                {
                    "duration": 0.10714275000003681,
                    "durationTicks": 30,
                    "midi": 47,
                    "name": "B2",
                    "ticks": 101700,
                    "time": 334.07104250000003,
                    "velocity": 1
                },
                {
                    "duration": 0.10714274999997997,
                    "durationTicks": 30,
                    "midi": 47,
                    "name": "B2",
                    "ticks": 101730,
                    "time": 334.17818525000007,
                    "velocity": 1
                },
                {
                    "duration": 0.21428549999995994,
                    "durationTicks": 60,
                    "midi": 57,
                    "name": "A3",
                    "ticks": 101760,
                    "time": 334.28532800000005,
                    "velocity": 1
                },
                {
                    "duration": 0.4285709999999767,
                    "durationTicks": 120,
                    "midi": 36,
                    "name": "C2",
                    "ticks": 101760,
                    "time": 334.28532800000005,
                    "velocity": 1
                },
                {
                    "duration": 0.21428550000001678,
                    "durationTicks": 60,
                    "midi": 42,
                    "name": "F#2",
                    "ticks": 101820,
                    "time": 334.4996135,
                    "velocity": 1
                },
                {
                    "duration": 0.21428550000001678,
                    "durationTicks": 60,
                    "midi": 38,
                    "name": "D2",
                    "ticks": 101880,
                    "time": 334.713899,
                    "velocity": 1
                },
                {
                    "duration": 0.21428550000001678,
                    "durationTicks": 60,
                    "midi": 42,
                    "name": "F#2",
                    "ticks": 101880,
                    "time": 334.713899,
                    "velocity": 1
                },
                {
                    "duration": 0.21428549999995994,
                    "durationTicks": 60,
                    "midi": 42,
                    "name": "F#2",
                    "ticks": 101940,
                    "time": 334.92818450000004,
                    "velocity": 1
                },
                {
                    "duration": 0.21428550000001678,
                    "durationTicks": 60,
                    "midi": 42,
                    "name": "F#2",
                    "ticks": 102000,
                    "time": 335.14247,
                    "velocity": 1
                },
                {
                    "duration": 0.42857100000003356,
                    "durationTicks": 120,
                    "midi": 36,
                    "name": "C2",
                    "ticks": 102000,
                    "time": 335.14247,
                    "velocity": 1
                },
                {
                    "duration": 0.21428550000001678,
                    "durationTicks": 60,
                    "midi": 42,
                    "name": "F#2",
                    "ticks": 102060,
                    "time": 335.3567555,
                    "velocity": 1
                },
                {
                    "duration": 0.21428550000001678,
                    "durationTicks": 60,
                    "midi": 38,
                    "name": "D2",
                    "ticks": 102120,
                    "time": 335.57104100000004,
                    "velocity": 1
                },
                {
                    "duration": 0.21428550000001678,
                    "durationTicks": 60,
                    "midi": 42,
                    "name": "F#2",
                    "ticks": 102120,
                    "time": 335.57104100000004,
                    "velocity": 1
                },
                {
                    "duration": 0.21428550000001678,
                    "durationTicks": 60,
                    "midi": 42,
                    "name": "F#2",
                    "ticks": 102180,
                    "time": 335.78532650000005,
                    "velocity": 1
                },
                {
                    "duration": 0.10714274999997997,
                    "durationTicks": 30,
                    "midi": 38,
                    "name": "D2",
                    "ticks": 102240,
                    "time": 335.99961200000007,
                    "velocity": 1
                },
                {
                    "duration": 0.10714274999997997,
                    "durationTicks": 30,
                    "midi": 38,
                    "name": "D2",
                    "ticks": 102270,
                    "time": 336.10675475000005,
                    "velocity": 1
                },
                {
                    "duration": 0.21428550000001678,
                    "durationTicks": 60,
                    "midi": 42,
                    "name": "F#2",
                    "ticks": 102300,
                    "time": 336.21389750000003,
                    "velocity": 1
                },
                {
                    "duration": 0.10714274999997997,
                    "durationTicks": 30,
                    "midi": 38,
                    "name": "D2",
                    "ticks": 102360,
                    "time": 336.42818300000005,
                    "velocity": 1
                },
                {
                    "duration": 0.10714275000003681,
                    "durationTicks": 30,
                    "midi": 38,
                    "name": "D2",
                    "ticks": 102390,
                    "time": 336.53532575,
                    "velocity": 1
                },
                {
                    "duration": 0.21428549999995994,
                    "durationTicks": 60,
                    "midi": 42,
                    "name": "F#2",
                    "ticks": 102420,
                    "time": 336.64246850000006,
                    "velocity": 1
                },
                {
                    "duration": 0.10714274999997997,
                    "durationTicks": 30,
                    "midi": 38,
                    "name": "D2",
                    "ticks": 102480,
                    "time": 336.856754,
                    "velocity": 1
                },
                {
                    "duration": 0.10714275000003681,
                    "durationTicks": 30,
                    "midi": 38,
                    "name": "D2",
                    "ticks": 102510,
                    "time": 336.96389675,
                    "velocity": 1
                },
                {
                    "duration": 0.19642837499998222,
                    "durationTicks": 55,
                    "midi": 42,
                    "name": "F#2",
                    "ticks": 102540,
                    "time": 337.07103950000004,
                    "velocity": 1
                },
                {
                    "duration": 0.017857125000034557,
                    "durationTicks": 5,
                    "midi": 38,
                    "name": "D2",
                    "ticks": 102595,
                    "time": 337.267467875,
                    "velocity": 0.5905511811023622
                },
                {
                    "duration": 0.19642837499998222,
                    "durationTicks": 55,
                    "midi": 38,
                    "name": "D2",
                    "ticks": 102600,
                    "time": 337.28532500000006,
                    "velocity": 1
                },
                {
                    "duration": 0.017857124999977714,
                    "durationTicks": 5,
                    "midi": 38,
                    "name": "D2",
                    "ticks": 102655,
                    "time": 337.48175337500004,
                    "velocity": 0.5905511811023622
                },
                {
                    "duration": 0.21428550000001678,
                    "durationTicks": 60,
                    "midi": 38,
                    "name": "D2",
                    "ticks": 102660,
                    "time": 337.4996105,
                    "velocity": 1
                },
                {
                    "duration": 0.21428550000001678,
                    "durationTicks": 60,
                    "midi": 57,
                    "name": "A3",
                    "ticks": 102720,
                    "time": 337.71389600000003,
                    "velocity": 1
                },
                {
                    "duration": 0.4285709999999767,
                    "durationTicks": 120,
                    "midi": 36,
                    "name": "C2",
                    "ticks": 102720,
                    "time": 337.71389600000003,
                    "velocity": 1
                },
                {
                    "duration": 0.21428549999995994,
                    "durationTicks": 60,
                    "midi": 42,
                    "name": "F#2",
                    "ticks": 102780,
                    "time": 337.92818150000005,
                    "velocity": 1
                },
                {
                    "duration": 0.21428550000001678,
                    "durationTicks": 60,
                    "midi": 38,
                    "name": "D2",
                    "ticks": 102840,
                    "time": 338.142467,
                    "velocity": 1
                },
                {
                    "duration": 0.21428550000001678,
                    "durationTicks": 60,
                    "midi": 42,
                    "name": "F#2",
                    "ticks": 102840,
                    "time": 338.142467,
                    "velocity": 1
                },
                {
                    "duration": 0.21428550000001678,
                    "durationTicks": 60,
                    "midi": 42,
                    "name": "F#2",
                    "ticks": 102900,
                    "time": 338.3567525,
                    "velocity": 1
                },
                {
                    "duration": 0.21428549999995994,
                    "durationTicks": 60,
                    "midi": 42,
                    "name": "F#2",
                    "ticks": 102960,
                    "time": 338.57103800000004,
                    "velocity": 1
                },
                {
                    "duration": 0.21428549999995994,
                    "durationTicks": 60,
                    "midi": 36,
                    "name": "C2",
                    "ticks": 102960,
                    "time": 338.57103800000004,
                    "velocity": 1
                },
                {
                    "duration": 0.21428550000001678,
                    "durationTicks": 60,
                    "midi": 42,
                    "name": "F#2",
                    "ticks": 103020,
                    "time": 338.7853235,
                    "velocity": 1
                },
                {
                    "duration": 0.07142850000002454,
                    "durationTicks": 20,
                    "midi": 36,
                    "name": "C2",
                    "ticks": 103020,
                    "time": 338.7853235,
                    "velocity": 1
                },
                {
                    "duration": 0.07142850000002454,
                    "durationTicks": 20,
                    "midi": 36,
                    "name": "C2",
                    "ticks": 103040,
                    "time": 338.85675200000003,
                    "velocity": 1
                },
                {
                    "duration": 0.0714284999999677,
                    "durationTicks": 20,
                    "midi": 36,
                    "name": "C2",
                    "ticks": 103060,
                    "time": 338.92818050000005,
                    "velocity": 1
                },
                {
                    "duration": 0.42857100000003356,
                    "durationTicks": 120,
                    "midi": 38,
                    "name": "D2",
                    "ticks": 103080,
                    "time": 338.999609,
                    "velocity": 1
                },
                {
                    "duration": 0.42857100000003356,
                    "durationTicks": 120,
                    "midi": 57,
                    "name": "A3",
                    "ticks": 103080,
                    "time": 338.999609,
                    "velocity": 1
                },
                {
                    "duration": 0.4285709999999767,
                    "durationTicks": 120,
                    "midi": 36,
                    "name": "C2",
                    "ticks": 103200,
                    "time": 339.42818000000005,
                    "velocity": 1
                },
                {
                    "duration": 0.4285709999999767,
                    "durationTicks": 120,
                    "midi": 57,
                    "name": "A3",
                    "ticks": 103200,
                    "time": 339.42818000000005,
                    "velocity": 1
                },
                {
                    "duration": 0.21428550000001678,
                    "durationTicks": 60,
                    "midi": 38,
                    "name": "D2",
                    "ticks": 103320,
                    "time": 339.85675100000003,
                    "velocity": 1
                },
                {
                    "duration": 0.21428550000001678,
                    "durationTicks": 60,
                    "midi": 42,
                    "name": "F#2",
                    "ticks": 103320,
                    "time": 339.85675100000003,
                    "velocity": 1
                },
                {
                    "duration": 0.21428550000001678,
                    "durationTicks": 60,
                    "midi": 42,
                    "name": "F#2",
                    "ticks": 103380,
                    "time": 340.07103650000005,
                    "velocity": 1
                },
                {
                    "duration": 0.21428549999995994,
                    "durationTicks": 60,
                    "midi": 36,
                    "name": "C2",
                    "ticks": 103440,
                    "time": 340.28532200000006,
                    "velocity": 1
                },
                {
                    "duration": 0.21428549999995994,
                    "durationTicks": 60,
                    "midi": 57,
                    "name": "A3",
                    "ticks": 103440,
                    "time": 340.28532200000006,
                    "velocity": 1
                },
                {
                    "duration": 0.21428550000001678,
                    "durationTicks": 60,
                    "midi": 36,
                    "name": "C2",
                    "ticks": 103500,
                    "time": 340.4996075,
                    "velocity": 1
                },
                {
                    "duration": 0.21428550000001678,
                    "durationTicks": 60,
                    "midi": 57,
                    "name": "A3",
                    "ticks": 103500,
                    "time": 340.4996075,
                    "velocity": 1
                },
                {
                    "duration": 0.21428550000001678,
                    "durationTicks": 60,
                    "midi": 36,
                    "name": "C2",
                    "ticks": 103560,
                    "time": 340.71389300000004,
                    "velocity": 1
                },
                {
                    "duration": 0.21428550000001678,
                    "durationTicks": 60,
                    "midi": 57,
                    "name": "A3",
                    "ticks": 103560,
                    "time": 340.71389300000004,
                    "velocity": 1
                },
                {
                    "duration": 0.21428549999995994,
                    "durationTicks": 60,
                    "midi": 36,
                    "name": "C2",
                    "ticks": 103620,
                    "time": 340.92817850000006,
                    "velocity": 1
                },
                {
                    "duration": 0.21428549999995994,
                    "durationTicks": 60,
                    "midi": 57,
                    "name": "A3",
                    "ticks": 103620,
                    "time": 340.92817850000006,
                    "velocity": 1
                },
                {
                    "duration": 0.21428550000001678,
                    "durationTicks": 60,
                    "midi": 57,
                    "name": "A3",
                    "ticks": 103680,
                    "time": 341.142464,
                    "velocity": 1
                },
                {
                    "duration": 0.42857100000003356,
                    "durationTicks": 120,
                    "midi": 36,
                    "name": "C2",
                    "ticks": 103680,
                    "time": 341.142464,
                    "velocity": 1
                },
                {
                    "duration": 0.21428550000001678,
                    "durationTicks": 60,
                    "midi": 42,
                    "name": "F#2",
                    "ticks": 103740,
                    "time": 341.35674950000003,
                    "velocity": 1
                },
                {
                    "duration": 0.21428549999995994,
                    "durationTicks": 60,
                    "midi": 38,
                    "name": "D2",
                    "ticks": 103800,
                    "time": 341.57103500000005,
                    "velocity": 1
                },
                {
                    "duration": 0.21428549999995994,
                    "durationTicks": 60,
                    "midi": 42,
                    "name": "F#2",
                    "ticks": 103800,
                    "time": 341.57103500000005,
                    "velocity": 1
                },
                {
                    "duration": 0.21428550000001678,
                    "durationTicks": 60,
                    "midi": 42,
                    "name": "F#2",
                    "ticks": 103860,
                    "time": 341.7853205,
                    "velocity": 1
                },
                {
                    "duration": 0.21428550000001678,
                    "durationTicks": 60,
                    "midi": 42,
                    "name": "F#2",
                    "ticks": 103920,
                    "time": 341.999606,
                    "velocity": 1
                },
                {
                    "duration": 0.4285709999999767,
                    "durationTicks": 120,
                    "midi": 36,
                    "name": "C2",
                    "ticks": 103920,
                    "time": 341.999606,
                    "velocity": 1
                },
                {
                    "duration": 0.21428549999995994,
                    "durationTicks": 60,
                    "midi": 42,
                    "name": "F#2",
                    "ticks": 103980,
                    "time": 342.21389150000005,
                    "velocity": 1
                },
                {
                    "duration": 0.21428550000001678,
                    "durationTicks": 60,
                    "midi": 38,
                    "name": "D2",
                    "ticks": 104040,
                    "time": 342.428177,
                    "velocity": 1
                },
                {
                    "duration": 0.21428550000001678,
                    "durationTicks": 60,
                    "midi": 42,
                    "name": "F#2",
                    "ticks": 104040,
                    "time": 342.428177,
                    "velocity": 1
                },
                {
                    "duration": 0.21428550000001678,
                    "durationTicks": 60,
                    "midi": 42,
                    "name": "F#2",
                    "ticks": 104100,
                    "time": 342.6424625,
                    "velocity": 1
                },
                {
                    "duration": 0.21428550000001678,
                    "durationTicks": 60,
                    "midi": 36,
                    "name": "C2",
                    "ticks": 104160,
                    "time": 342.85674800000004,
                    "velocity": 1
                },
                {
                    "duration": 0.21428550000001678,
                    "durationTicks": 60,
                    "midi": 42,
                    "name": "F#2",
                    "ticks": 104160,
                    "time": 342.85674800000004,
                    "velocity": 1
                },
                {
                    "duration": 0.0714284999999677,
                    "durationTicks": 20,
                    "midi": 36,
                    "name": "C2",
                    "ticks": 104220,
                    "time": 343.07103350000006,
                    "velocity": 1
                },
                {
                    "duration": 0.21428549999995994,
                    "durationTicks": 60,
                    "midi": 42,
                    "name": "F#2",
                    "ticks": 104220,
                    "time": 343.07103350000006,
                    "velocity": 1
                },
                {
                    "duration": 0.07142850000002454,
                    "durationTicks": 20,
                    "midi": 36,
                    "name": "C2",
                    "ticks": 104240,
                    "time": 343.142462,
                    "velocity": 1
                },
                {
                    "duration": 0.0714284999999677,
                    "durationTicks": 20,
                    "midi": 36,
                    "name": "C2",
                    "ticks": 104260,
                    "time": 343.21389050000005,
                    "velocity": 1
                },
                {
                    "duration": 0.21428550000001678,
                    "durationTicks": 60,
                    "midi": 38,
                    "name": "D2",
                    "ticks": 104280,
                    "time": 343.285319,
                    "velocity": 1
                },
                {
                    "duration": 0.21428550000001678,
                    "durationTicks": 60,
                    "midi": 42,
                    "name": "F#2",
                    "ticks": 104280,
                    "time": 343.285319,
                    "velocity": 1
                },
                {
                    "duration": 0.07142850000002454,
                    "durationTicks": 20,
                    "midi": 36,
                    "name": "C2",
                    "ticks": 104340,
                    "time": 343.49960450000003,
                    "velocity": 1
                },
                {
                    "duration": 0.21428550000001678,
                    "durationTicks": 60,
                    "midi": 42,
                    "name": "F#2",
                    "ticks": 104340,
                    "time": 343.49960450000003,
                    "velocity": 1
                },
                {
                    "duration": 0.0714284999999677,
                    "durationTicks": 20,
                    "midi": 36,
                    "name": "C2",
                    "ticks": 104360,
                    "time": 343.57103300000006,
                    "velocity": 1
                },
                {
                    "duration": 0.07142850000002454,
                    "durationTicks": 20,
                    "midi": 36,
                    "name": "C2",
                    "ticks": 104380,
                    "time": 343.6424615,
                    "velocity": 1
                },
                {
                    "duration": 0.21428550000001678,
                    "durationTicks": 60,
                    "midi": 38,
                    "name": "D2",
                    "ticks": 104400,
                    "time": 343.71389000000005,
                    "velocity": 1
                },
                {
                    "duration": 0.21428550000001678,
                    "durationTicks": 60,
                    "midi": 42,
                    "name": "F#2",
                    "ticks": 104400,
                    "time": 343.71389000000005,
                    "velocity": 1
                },
                {
                    "duration": 0.0714284999999677,
                    "durationTicks": 20,
                    "midi": 36,
                    "name": "C2",
                    "ticks": 104460,
                    "time": 343.92817550000007,
                    "velocity": 1
                },
                {
                    "duration": 0.21428549999995994,
                    "durationTicks": 60,
                    "midi": 42,
                    "name": "F#2",
                    "ticks": 104460,
                    "time": 343.92817550000007,
                    "velocity": 1
                },
                {
                    "duration": 0.07142850000002454,
                    "durationTicks": 20,
                    "midi": 36,
                    "name": "C2",
                    "ticks": 104480,
                    "time": 343.99960400000003,
                    "velocity": 1
                },
                {
                    "duration": 0.0714284999999677,
                    "durationTicks": 20,
                    "midi": 36,
                    "name": "C2",
                    "ticks": 104500,
                    "time": 344.07103250000006,
                    "velocity": 1
                },
                {
                    "duration": 0.21428550000001678,
                    "durationTicks": 60,
                    "midi": 38,
                    "name": "D2",
                    "ticks": 104520,
                    "time": 344.142461,
                    "velocity": 1
                },
                {
                    "duration": 0.21428550000001678,
                    "durationTicks": 60,
                    "midi": 42,
                    "name": "F#2",
                    "ticks": 104520,
                    "time": 344.142461,
                    "velocity": 1
                },
                {
                    "duration": 0.21428550000001678,
                    "durationTicks": 60,
                    "midi": 57,
                    "name": "A3",
                    "ticks": 104580,
                    "time": 344.35674650000004,
                    "velocity": 1
                },
                {
                    "duration": 0.21428550000001678,
                    "durationTicks": 60,
                    "midi": 36,
                    "name": "C2",
                    "ticks": 104580,
                    "time": 344.35674650000004,
                    "velocity": 1
                },
                {
                    "duration": 0.4285709999999767,
                    "durationTicks": 120,
                    "midi": 36,
                    "name": "C2",
                    "ticks": 104640,
                    "time": 344.57103200000006,
                    "velocity": 1
                },
                {
                    "duration": 0.4285709999999767,
                    "durationTicks": 120,
                    "midi": 57,
                    "name": "A3",
                    "ticks": 104640,
                    "time": 344.57103200000006,
                    "velocity": 1
                },
                {
                    "duration": 0.21428550000001678,
                    "durationTicks": 60,
                    "midi": 38,
                    "name": "D2",
                    "ticks": 104760,
                    "time": 344.99960300000004,
                    "velocity": 1
                },
                {
                    "duration": 0.21428550000001678,
                    "durationTicks": 60,
                    "midi": 42,
                    "name": "F#2",
                    "ticks": 104760,
                    "time": 344.99960300000004,
                    "velocity": 1
                },
                {
                    "duration": 0.21428549999995994,
                    "durationTicks": 60,
                    "midi": 42,
                    "name": "F#2",
                    "ticks": 104820,
                    "time": 345.21388850000005,
                    "velocity": 1
                },
                {
                    "duration": 0.21428550000001678,
                    "durationTicks": 60,
                    "midi": 42,
                    "name": "F#2",
                    "ticks": 104880,
                    "time": 345.428174,
                    "velocity": 1
                },
                {
                    "duration": 0.21428550000001678,
                    "durationTicks": 60,
                    "midi": 36,
                    "name": "C2",
                    "ticks": 104880,
                    "time": 345.428174,
                    "velocity": 1
                },
                {
                    "duration": 0.21428550000001678,
                    "durationTicks": 60,
                    "midi": 42,
                    "name": "F#2",
                    "ticks": 104940,
                    "time": 345.64245950000003,
                    "velocity": 1
                },
                {
                    "duration": 0.0714284999999677,
                    "durationTicks": 20,
                    "midi": 36,
                    "name": "C2",
                    "ticks": 104940,
                    "time": 345.64245950000003,
                    "velocity": 1
                },
                {
                    "duration": 0.07142850000002454,
                    "durationTicks": 20,
                    "midi": 36,
                    "name": "C2",
                    "ticks": 104960,
                    "time": 345.713888,
                    "velocity": 1
                },
                {
                    "duration": 0.07142850000002454,
                    "durationTicks": 20,
                    "midi": 36,
                    "name": "C2",
                    "ticks": 104980,
                    "time": 345.7853165,
                    "velocity": 1
                },
                {
                    "duration": 0.4285709999999767,
                    "durationTicks": 120,
                    "midi": 38,
                    "name": "D2",
                    "ticks": 105000,
                    "time": 345.85674500000005,
                    "velocity": 1
                },
                {
                    "duration": 0.4285709999999767,
                    "durationTicks": 120,
                    "midi": 57,
                    "name": "A3",
                    "ticks": 105000,
                    "time": 345.85674500000005,
                    "velocity": 1
                },
                {
                    "duration": 0.42857100000003356,
                    "durationTicks": 120,
                    "midi": 36,
                    "name": "C2",
                    "ticks": 105120,
                    "time": 346.285316,
                    "velocity": 1
                },
                {
                    "duration": 0.42857100000003356,
                    "durationTicks": 120,
                    "midi": 57,
                    "name": "A3",
                    "ticks": 105120,
                    "time": 346.285316,
                    "velocity": 1
                },
                {
                    "duration": 0.21428549999995994,
                    "durationTicks": 60,
                    "midi": 42,
                    "name": "F#2",
                    "ticks": 105240,
                    "time": 346.71388700000006,
                    "velocity": 1
                },
                {
                    "duration": 0.21428549999995994,
                    "durationTicks": 60,
                    "midi": 38,
                    "name": "D2",
                    "ticks": 105240,
                    "time": 346.71388700000006,
                    "velocity": 1
                },
                {
                    "duration": 0.21428550000001678,
                    "durationTicks": 60,
                    "midi": 42,
                    "name": "F#2",
                    "ticks": 105300,
                    "time": 346.9281725,
                    "velocity": 1
                },
                {
                    "duration": 0.017857124999977714,
                    "durationTicks": 5,
                    "midi": 38,
                    "name": "D2",
                    "ticks": 105355,
                    "time": 347.12460087500006,
                    "velocity": 0.5905511811023622
                },
                {
                    "duration": 0.21428550000001678,
                    "durationTicks": 60,
                    "midi": 38,
                    "name": "D2",
                    "ticks": 105360,
                    "time": 347.14245800000003,
                    "velocity": 1
                },
                {
                    "duration": 0.21428550000001678,
                    "durationTicks": 60,
                    "midi": 38,
                    "name": "D2",
                    "ticks": 105420,
                    "time": 347.35674350000005,
                    "velocity": 1
                },
                {
                    "duration": 0.10714274999997997,
                    "durationTicks": 30,
                    "midi": 45,
                    "name": "A2",
                    "ticks": 105480,
                    "time": 347.57102900000007,
                    "velocity": 1
                },
                {
                    "duration": 0.10714274999997997,
                    "durationTicks": 30,
                    "midi": 45,
                    "name": "A2",
                    "ticks": 105510,
                    "time": 347.67817175000005,
                    "velocity": 1
                },
                {
                    "duration": 0.21428550000001678,
                    "durationTicks": 60,
                    "midi": 45,
                    "name": "A2",
                    "ticks": 105540,
                    "time": 347.7853145,
                    "velocity": 1
                },
                {
                    "duration": 0.4285709999999767,
                    "durationTicks": 120,
                    "midi": 36,
                    "name": "C2",
                    "ticks": 105600,
                    "time": 347.99960000000004,
                    "velocity": 1
                },
                {
                    "duration": 0.21428550000001678,
                    "durationTicks": 60,
                    "midi": 57,
                    "name": "A3",
                    "ticks": 105600,
                    "time": 347.99960000000004,
                    "velocity": 1
                },
                {
                    "duration": 0.21428549999995994,
                    "durationTicks": 60,
                    "midi": 42,
                    "name": "F#2",
                    "ticks": 105660,
                    "time": 348.21388550000006,
                    "velocity": 1
                },
                {
                    "duration": 0.21428550000001678,
                    "durationTicks": 60,
                    "midi": 38,
                    "name": "D2",
                    "ticks": 105720,
                    "time": 348.428171,
                    "velocity": 1
                },
                {
                    "duration": 0.21428550000001678,
                    "durationTicks": 60,
                    "midi": 42,
                    "name": "F#2",
                    "ticks": 105720,
                    "time": 348.428171,
                    "velocity": 1
                },
                {
                    "duration": 0.21428550000001678,
                    "durationTicks": 60,
                    "midi": 42,
                    "name": "F#2",
                    "ticks": 105780,
                    "time": 348.64245650000004,
                    "velocity": 1
                },
                {
                    "duration": 0.4285709999999767,
                    "durationTicks": 120,
                    "midi": 36,
                    "name": "C2",
                    "ticks": 105840,
                    "time": 348.85674200000005,
                    "velocity": 1
                },
                {
                    "duration": 0.21428549999995994,
                    "durationTicks": 60,
                    "midi": 42,
                    "name": "F#2",
                    "ticks": 105840,
                    "time": 348.85674200000005,
                    "velocity": 1
                },
                {
                    "duration": 0.21428550000001678,
                    "durationTicks": 60,
                    "midi": 42,
                    "name": "F#2",
                    "ticks": 105900,
                    "time": 349.0710275,
                    "velocity": 1
                },
                {
                    "duration": 0.21428550000001678,
                    "durationTicks": 60,
                    "midi": 38,
                    "name": "D2",
                    "ticks": 105960,
                    "time": 349.28531300000003,
                    "velocity": 1
                },
                {
                    "duration": 0.21428550000001678,
                    "durationTicks": 60,
                    "midi": 42,
                    "name": "F#2",
                    "ticks": 105960,
                    "time": 349.28531300000003,
                    "velocity": 1
                },
                {
                    "duration": 0.21428549999995994,
                    "durationTicks": 60,
                    "midi": 42,
                    "name": "F#2",
                    "ticks": 106020,
                    "time": 349.49959850000005,
                    "velocity": 1
                },
                {
                    "duration": 0.21428550000001678,
                    "durationTicks": 60,
                    "midi": 42,
                    "name": "F#2",
                    "ticks": 106080,
                    "time": 349.713884,
                    "velocity": 1
                },
                {
                    "duration": 0.42857100000003356,
                    "durationTicks": 120,
                    "midi": 36,
                    "name": "C2",
                    "ticks": 106080,
                    "time": 349.713884,
                    "velocity": 1
                },
                {
                    "duration": 0.21428550000001678,
                    "durationTicks": 60,
                    "midi": 42,
                    "name": "F#2",
                    "ticks": 106140,
                    "time": 349.9281695,
                    "velocity": 1
                },
                {
                    "duration": 0.21428550000001678,
                    "durationTicks": 60,
                    "midi": 38,
                    "name": "D2",
                    "ticks": 106200,
                    "time": 350.14245500000004,
                    "velocity": 1
                },
                {
                    "duration": 0.21428550000001678,
                    "durationTicks": 60,
                    "midi": 42,
                    "name": "F#2",
                    "ticks": 106200,
                    "time": 350.14245500000004,
                    "velocity": 1
                },
                {
                    "duration": 0.21428549999995994,
                    "durationTicks": 60,
                    "midi": 42,
                    "name": "F#2",
                    "ticks": 106260,
                    "time": 350.35674050000006,
                    "velocity": 1
                },
                {
                    "duration": 0.21428550000001678,
                    "durationTicks": 60,
                    "midi": 42,
                    "name": "F#2",
                    "ticks": 106320,
                    "time": 350.571026,
                    "velocity": 1
                },
                {
                    "duration": 0.42857100000003356,
                    "durationTicks": 120,
                    "midi": 36,
                    "name": "C2",
                    "ticks": 106320,
                    "time": 350.571026,
                    "velocity": 1
                },
                {
                    "duration": 0.21428550000001678,
                    "durationTicks": 60,
                    "midi": 38,
                    "name": "D2",
                    "ticks": 106380,
                    "time": 350.78531150000003,
                    "velocity": 1
                },
                {
                    "duration": 0.21428550000001678,
                    "durationTicks": 60,
                    "midi": 38,
                    "name": "D2",
                    "ticks": 106440,
                    "time": 350.99959700000005,
                    "velocity": 1
                },
                {
                    "duration": 0.21428549999995994,
                    "durationTicks": 60,
                    "midi": 57,
                    "name": "A3",
                    "ticks": 106500,
                    "time": 351.21388250000007,
                    "velocity": 1
                },
                {
                    "duration": 0.21428549999995994,
                    "durationTicks": 60,
                    "midi": 36,
                    "name": "C2",
                    "ticks": 106500,
                    "time": 351.21388250000007,
                    "velocity": 1
                },
                {
                    "duration": 0.42857100000003356,
                    "durationTicks": 120,
                    "midi": 36,
                    "name": "C2",
                    "ticks": 106560,
                    "time": 351.428168,
                    "velocity": 1
                },
                {
                    "duration": 0.21428550000001678,
                    "durationTicks": 60,
                    "midi": 57,
                    "name": "A3",
                    "ticks": 106560,
                    "time": 351.428168,
                    "velocity": 1
                },
                {
                    "duration": 0.21428550000001678,
                    "durationTicks": 60,
                    "midi": 42,
                    "name": "F#2",
                    "ticks": 106620,
                    "time": 351.64245350000004,
                    "velocity": 1
                },
                {
                    "duration": 0.21428549999995994,
                    "durationTicks": 60,
                    "midi": 42,
                    "name": "F#2",
                    "ticks": 106680,
                    "time": 351.85673900000006,
                    "velocity": 1
                },
                {
                    "duration": 0.21428550000001678,
                    "durationTicks": 60,
                    "midi": 36,
                    "name": "C2",
                    "ticks": 106740,
                    "time": 352.0710245,
                    "velocity": 1
                },
                {
                    "duration": 0.21428550000001678,
                    "durationTicks": 60,
                    "midi": 42,
                    "name": "F#2",
                    "ticks": 106740,
                    "time": 352.0710245,
                    "velocity": 1
                },
                {
                    "duration": 0.21428550000001678,
                    "durationTicks": 60,
                    "midi": 42,
                    "name": "F#2",
                    "ticks": 106800,
                    "time": 352.28531000000004,
                    "velocity": 1
                },
                {
                    "duration": 0.21428550000001678,
                    "durationTicks": 60,
                    "midi": 38,
                    "name": "D2",
                    "ticks": 106800,
                    "time": 352.28531000000004,
                    "velocity": 1
                },
                {
                    "duration": 0.21428549999995994,
                    "durationTicks": 60,
                    "midi": 42,
                    "name": "F#2",
                    "ticks": 106860,
                    "time": 352.49959550000005,
                    "velocity": 1
                },
                {
                    "duration": 0.21428550000001678,
                    "durationTicks": 60,
                    "midi": 42,
                    "name": "F#2",
                    "ticks": 106920,
                    "time": 352.713881,
                    "velocity": 1
                },
                {
                    "duration": 0.21428550000001678,
                    "durationTicks": 60,
                    "midi": 36,
                    "name": "C2",
                    "ticks": 106980,
                    "time": 352.92816650000003,
                    "velocity": 1
                },
                {
                    "duration": 0.21428550000001678,
                    "durationTicks": 60,
                    "midi": 42,
                    "name": "F#2",
                    "ticks": 106980,
                    "time": 352.92816650000003,
                    "velocity": 1
                },
                {
                    "duration": 0.21428549999995994,
                    "durationTicks": 60,
                    "midi": 42,
                    "name": "F#2",
                    "ticks": 107040,
                    "time": 353.14245200000005,
                    "velocity": 1
                },
                {
                    "duration": 0.4285709999999767,
                    "durationTicks": 120,
                    "midi": 36,
                    "name": "C2",
                    "ticks": 107040,
                    "time": 353.14245200000005,
                    "velocity": 1
                },
                {
                    "duration": 0.21428550000001678,
                    "durationTicks": 60,
                    "midi": 42,
                    "name": "F#2",
                    "ticks": 107100,
                    "time": 353.3567375,
                    "velocity": 1
                },
                {
                    "duration": 0.21428550000001678,
                    "durationTicks": 60,
                    "midi": 42,
                    "name": "F#2",
                    "ticks": 107160,
                    "time": 353.571023,
                    "velocity": 1
                },
                {
                    "duration": 0.21428549999995994,
                    "durationTicks": 60,
                    "midi": 42,
                    "name": "F#2",
                    "ticks": 107220,
                    "time": 353.78530850000004,
                    "velocity": 1
                },
                {
                    "duration": 0.07142850000002454,
                    "durationTicks": 20,
                    "midi": 36,
                    "name": "C2",
                    "ticks": 107220,
                    "time": 353.78530850000004,
                    "velocity": 1
                },
                {
                    "duration": 0.0714284999999677,
                    "durationTicks": 20,
                    "midi": 36,
                    "name": "C2",
                    "ticks": 107240,
                    "time": 353.85673700000007,
                    "velocity": 1
                },
                {
                    "duration": 0.0714284999999677,
                    "durationTicks": 20,
                    "midi": 36,
                    "name": "C2",
                    "ticks": 107260,
                    "time": 353.92816550000003,
                    "velocity": 1
                },
                {
                    "duration": 0.21428550000001678,
                    "durationTicks": 60,
                    "midi": 38,
                    "name": "D2",
                    "ticks": 107280,
                    "time": 353.999594,
                    "velocity": 1
                },
                {
                    "duration": 0.21428550000001678,
                    "durationTicks": 60,
                    "midi": 42,
                    "name": "F#2",
                    "ticks": 107280,
                    "time": 353.999594,
                    "velocity": 1
                },
                {
                    "duration": 0.21428550000001678,
                    "durationTicks": 60,
                    "midi": 42,
                    "name": "F#2",
                    "ticks": 107340,
                    "time": 354.2138795,
                    "velocity": 1
                },
                {
                    "duration": 0.21428550000001678,
                    "durationTicks": 60,
                    "midi": 36,
                    "name": "C2",
                    "ticks": 107340,
                    "time": 354.2138795,
                    "velocity": 1
                },
                {
                    "duration": 0.21428550000001678,
                    "durationTicks": 60,
                    "midi": 42,
                    "name": "F#2",
                    "ticks": 107400,
                    "time": 354.42816500000004,
                    "velocity": 1
                },
                {
                    "duration": 0.21428550000001678,
                    "durationTicks": 60,
                    "midi": 42,
                    "name": "F#2",
                    "ticks": 107460,
                    "time": 354.64245050000005,
                    "velocity": 1
                },
                {
                    "duration": 0.21428550000001678,
                    "durationTicks": 60,
                    "midi": 36,
                    "name": "C2",
                    "ticks": 107460,
                    "time": 354.64245050000005,
                    "velocity": 1
                },
                {
                    "duration": 0.21428549999995994,
                    "durationTicks": 60,
                    "midi": 42,
                    "name": "F#2",
                    "ticks": 107520,
                    "time": 354.85673600000007,
                    "velocity": 1
                },
                {
                    "duration": 0.4285709999999767,
                    "durationTicks": 120,
                    "midi": 36,
                    "name": "C2",
                    "ticks": 107520,
                    "time": 354.85673600000007,
                    "velocity": 1
                },
                {
                    "duration": 0.21428550000001678,
                    "durationTicks": 60,
                    "midi": 42,
                    "name": "F#2",
                    "ticks": 107580,
                    "time": 355.07102150000003,
                    "velocity": 1
                },
                {
                    "duration": 0.21428550000001678,
                    "durationTicks": 60,
                    "midi": 42,
                    "name": "F#2",
                    "ticks": 107640,
                    "time": 355.28530700000005,
                    "velocity": 1
                },
                {
                    "duration": 0.21428549999995994,
                    "durationTicks": 60,
                    "midi": 36,
                    "name": "C2",
                    "ticks": 107700,
                    "time": 355.49959250000006,
                    "velocity": 1
                },
                {
                    "duration": 0.21428549999995994,
                    "durationTicks": 60,
                    "midi": 42,
                    "name": "F#2",
                    "ticks": 107700,
                    "time": 355.49959250000006,
                    "velocity": 1
                },
                {
                    "duration": 0.21428550000001678,
                    "durationTicks": 60,
                    "midi": 42,
                    "name": "F#2",
                    "ticks": 107760,
                    "time": 355.713878,
                    "velocity": 1
                },
                {
                    "duration": 0.21428550000001678,
                    "durationTicks": 60,
                    "midi": 38,
                    "name": "D2",
                    "ticks": 107760,
                    "time": 355.713878,
                    "velocity": 1
                },
                {
                    "duration": 0.21428550000001678,
                    "durationTicks": 60,
                    "midi": 42,
                    "name": "F#2",
                    "ticks": 107820,
                    "time": 355.92816350000004,
                    "velocity": 1
                },
                {
                    "duration": 0.21428549999995994,
                    "durationTicks": 60,
                    "midi": 42,
                    "name": "F#2",
                    "ticks": 107880,
                    "time": 356.14244900000006,
                    "velocity": 1
                },
                {
                    "duration": 0.21428550000001678,
                    "durationTicks": 60,
                    "midi": 36,
                    "name": "C2",
                    "ticks": 107940,
                    "time": 356.3567345,
                    "velocity": 1
                },
                {
                    "duration": 0.21428550000001678,
                    "durationTicks": 60,
                    "midi": 42,
                    "name": "F#2",
                    "ticks": 107940,
                    "time": 356.3567345,
                    "velocity": 1
                },
                {
                    "duration": 0.21428550000001678,
                    "durationTicks": 60,
                    "midi": 42,
                    "name": "F#2",
                    "ticks": 108000,
                    "time": 356.57102000000003,
                    "velocity": 1
                },
                {
                    "duration": 0.4285709999999767,
                    "durationTicks": 120,
                    "midi": 36,
                    "name": "C2",
                    "ticks": 108000,
                    "time": 356.57102000000003,
                    "velocity": 1
                },
                {
                    "duration": 0.21428549999995994,
                    "durationTicks": 60,
                    "midi": 42,
                    "name": "F#2",
                    "ticks": 108060,
                    "time": 356.78530550000005,
                    "velocity": 1
                },
                {
                    "duration": 0.21428550000001678,
                    "durationTicks": 60,
                    "midi": 42,
                    "name": "F#2",
                    "ticks": 108120,
                    "time": 356.999591,
                    "velocity": 1
                },
                {
                    "duration": 0.21428550000001678,
                    "durationTicks": 60,
                    "midi": 42,
                    "name": "F#2",
                    "ticks": 108180,
                    "time": 357.2138765,
                    "velocity": 1
                },
                {
                    "duration": 0.07142850000002454,
                    "durationTicks": 20,
                    "midi": 36,
                    "name": "C2",
                    "ticks": 108180,
                    "time": 357.2138765,
                    "velocity": 1
                },
                {
                    "duration": 0.0714284999999677,
                    "durationTicks": 20,
                    "midi": 36,
                    "name": "C2",
                    "ticks": 108200,
                    "time": 357.28530500000005,
                    "velocity": 1
                },
                {
                    "duration": 0.07142850000002454,
                    "durationTicks": 20,
                    "midi": 36,
                    "name": "C2",
                    "ticks": 108220,
                    "time": 357.3567335,
                    "velocity": 1
                },
                {
                    "duration": 0.21428549999995994,
                    "durationTicks": 60,
                    "midi": 38,
                    "name": "D2",
                    "ticks": 108240,
                    "time": 357.42816200000004,
                    "velocity": 1
                },
                {
                    "duration": 0.21428549999995994,
                    "durationTicks": 60,
                    "midi": 42,
                    "name": "F#2",
                    "ticks": 108240,
                    "time": 357.42816200000004,
                    "velocity": 1
                },
                {
                    "duration": 0.21428550000001678,
                    "durationTicks": 60,
                    "midi": 42,
                    "name": "F#2",
                    "ticks": 108300,
                    "time": 357.6424475,
                    "velocity": 1
                },
                {
                    "duration": 0.21428550000001678,
                    "durationTicks": 60,
                    "midi": 36,
                    "name": "C2",
                    "ticks": 108300,
                    "time": 357.6424475,
                    "velocity": 1
                },
                {
                    "duration": 0.21428550000001678,
                    "durationTicks": 60,
                    "midi": 42,
                    "name": "F#2",
                    "ticks": 108360,
                    "time": 357.856733,
                    "velocity": 1
                },
                {
                    "duration": 0.21428550000001678,
                    "durationTicks": 60,
                    "midi": 42,
                    "name": "F#2",
                    "ticks": 108420,
                    "time": 358.07101850000004,
                    "velocity": 1
                },
                {
                    "duration": 0.21428550000001678,
                    "durationTicks": 60,
                    "midi": 36,
                    "name": "C2",
                    "ticks": 108420,
                    "time": 358.07101850000004,
                    "velocity": 1
                },
                {
                    "duration": 0.21428550000001678,
                    "durationTicks": 60,
                    "midi": 42,
                    "name": "F#2",
                    "ticks": 108480,
                    "time": 358.28530400000005,
                    "velocity": 1
                },
                {
                    "duration": 0.4285709999999767,
                    "durationTicks": 120,
                    "midi": 36,
                    "name": "C2",
                    "ticks": 108480,
                    "time": 358.28530400000005,
                    "velocity": 1
                },
                {
                    "duration": 0.21428549999995994,
                    "durationTicks": 60,
                    "midi": 42,
                    "name": "F#2",
                    "ticks": 108540,
                    "time": 358.49958950000007,
                    "velocity": 1
                },
                {
                    "duration": 0.21428550000001678,
                    "durationTicks": 60,
                    "midi": 42,
                    "name": "F#2",
                    "ticks": 108600,
                    "time": 358.71387500000003,
                    "velocity": 1
                },
                {
                    "duration": 0.21428550000001678,
                    "durationTicks": 60,
                    "midi": 36,
                    "name": "C2",
                    "ticks": 108660,
                    "time": 358.92816050000005,
                    "velocity": 1
                },
                {
                    "duration": 0.21428550000001678,
                    "durationTicks": 60,
                    "midi": 42,
                    "name": "F#2",
                    "ticks": 108660,
                    "time": 358.92816050000005,
                    "velocity": 1
                },
                {
                    "duration": 0.21428549999995994,
                    "durationTicks": 60,
                    "midi": 42,
                    "name": "F#2",
                    "ticks": 108720,
                    "time": 359.14244600000006,
                    "velocity": 1
                },
                {
                    "duration": 0.21428549999995994,
                    "durationTicks": 60,
                    "midi": 38,
                    "name": "D2",
                    "ticks": 108720,
                    "time": 359.14244600000006,
                    "velocity": 1
                },
                {
                    "duration": 0.21428550000001678,
                    "durationTicks": 60,
                    "midi": 42,
                    "name": "F#2",
                    "ticks": 108780,
                    "time": 359.3567315,
                    "velocity": 1
                },
                {
                    "duration": 0.21428550000001678,
                    "durationTicks": 60,
                    "midi": 42,
                    "name": "F#2",
                    "ticks": 108840,
                    "time": 359.57101700000004,
                    "velocity": 1
                },
                {
                    "duration": 0.21428549999995994,
                    "durationTicks": 60,
                    "midi": 36,
                    "name": "C2",
                    "ticks": 108900,
                    "time": 359.78530250000006,
                    "velocity": 1
                },
                {
                    "duration": 0.21428549999995994,
                    "durationTicks": 60,
                    "midi": 42,
                    "name": "F#2",
                    "ticks": 108900,
                    "time": 359.78530250000006,
                    "velocity": 1
                },
                {
                    "duration": 0.21428550000001678,
                    "durationTicks": 60,
                    "midi": 42,
                    "name": "F#2",
                    "ticks": 108960,
                    "time": 359.999588,
                    "velocity": 1
                },
                {
                    "duration": 0.42857100000003356,
                    "durationTicks": 120,
                    "midi": 36,
                    "name": "C2",
                    "ticks": 108960,
                    "time": 359.999588,
                    "velocity": 1
                },
                {
                    "duration": 0.21428550000001678,
                    "durationTicks": 60,
                    "midi": 42,
                    "name": "F#2",
                    "ticks": 109020,
                    "time": 360.21387350000003,
                    "velocity": 1
                },
                {
                    "duration": 0.21428549999995994,
                    "durationTicks": 60,
                    "midi": 42,
                    "name": "F#2",
                    "ticks": 109080,
                    "time": 360.42815900000005,
                    "velocity": 1
                },
                {
                    "duration": 0.21428550000001678,
                    "durationTicks": 60,
                    "midi": 42,
                    "name": "F#2",
                    "ticks": 109140,
                    "time": 360.6424445,
                    "velocity": 1
                },
                {
                    "duration": 0.07142850000002454,
                    "durationTicks": 20,
                    "midi": 36,
                    "name": "C2",
                    "ticks": 109140,
                    "time": 360.6424445,
                    "velocity": 1
                },
                {
                    "duration": 0.07142850000002454,
                    "durationTicks": 20,
                    "midi": 36,
                    "name": "C2",
                    "ticks": 109160,
                    "time": 360.71387300000004,
                    "velocity": 1
                },
                {
                    "duration": 0.0714284999999677,
                    "durationTicks": 20,
                    "midi": 36,
                    "name": "C2",
                    "ticks": 109180,
                    "time": 360.78530150000006,
                    "velocity": 1
                },
                {
                    "duration": 0.21428550000001678,
                    "durationTicks": 60,
                    "midi": 38,
                    "name": "D2",
                    "ticks": 109200,
                    "time": 360.85673,
                    "velocity": 1
                },
                {
                    "duration": 0.21428550000001678,
                    "durationTicks": 60,
                    "midi": 42,
                    "name": "F#2",
                    "ticks": 109200,
                    "time": 360.85673,
                    "velocity": 1
                },
                {
                    "duration": 0.21428549999995994,
                    "durationTicks": 60,
                    "midi": 42,
                    "name": "F#2",
                    "ticks": 109260,
                    "time": 361.07101550000004,
                    "velocity": 1
                },
                {
                    "duration": 0.21428549999995994,
                    "durationTicks": 60,
                    "midi": 36,
                    "name": "C2",
                    "ticks": 109260,
                    "time": 361.07101550000004,
                    "velocity": 1
                },
                {
                    "duration": 0.21428550000001678,
                    "durationTicks": 60,
                    "midi": 42,
                    "name": "F#2",
                    "ticks": 109320,
                    "time": 361.285301,
                    "velocity": 1
                },
                {
                    "duration": 0.21428550000001678,
                    "durationTicks": 60,
                    "midi": 42,
                    "name": "F#2",
                    "ticks": 109380,
                    "time": 361.4995865,
                    "velocity": 1
                },
                {
                    "duration": 0.21428550000001678,
                    "durationTicks": 60,
                    "midi": 36,
                    "name": "C2",
                    "ticks": 109380,
                    "time": 361.4995865,
                    "velocity": 1
                },
                {
                    "duration": 0.21428550000001678,
                    "durationTicks": 60,
                    "midi": 42,
                    "name": "F#2",
                    "ticks": 109440,
                    "time": 361.71387200000004,
                    "velocity": 1
                },
                {
                    "duration": 0.42857100000003356,
                    "durationTicks": 120,
                    "midi": 36,
                    "name": "C2",
                    "ticks": 109440,
                    "time": 361.71387200000004,
                    "velocity": 1
                },
                {
                    "duration": 0.21428550000001678,
                    "durationTicks": 60,
                    "midi": 42,
                    "name": "F#2",
                    "ticks": 109500,
                    "time": 361.92815750000005,
                    "velocity": 1
                },
                {
                    "duration": 0.21428549999995994,
                    "durationTicks": 60,
                    "midi": 42,
                    "name": "F#2",
                    "ticks": 109560,
                    "time": 362.14244300000007,
                    "velocity": 1
                },
                {
                    "duration": 0.21428550000001678,
                    "durationTicks": 60,
                    "midi": 36,
                    "name": "C2",
                    "ticks": 109620,
                    "time": 362.35672850000003,
                    "velocity": 1
                },
                {
                    "duration": 0.21428550000001678,
                    "durationTicks": 60,
                    "midi": 42,
                    "name": "F#2",
                    "ticks": 109620,
                    "time": 362.35672850000003,
                    "velocity": 1
                },
                {
                    "duration": 0.21428550000001678,
                    "durationTicks": 60,
                    "midi": 42,
                    "name": "F#2",
                    "ticks": 109680,
                    "time": 362.57101400000005,
                    "velocity": 1
                },
                {
                    "duration": 0.21428550000001678,
                    "durationTicks": 60,
                    "midi": 38,
                    "name": "D2",
                    "ticks": 109680,
                    "time": 362.57101400000005,
                    "velocity": 1
                },
                {
                    "duration": 0.21428549999995994,
                    "durationTicks": 60,
                    "midi": 42,
                    "name": "F#2",
                    "ticks": 109740,
                    "time": 362.78529950000006,
                    "velocity": 1
                },
                {
                    "duration": 0.21428550000001678,
                    "durationTicks": 60,
                    "midi": 42,
                    "name": "F#2",
                    "ticks": 109800,
                    "time": 362.999585,
                    "velocity": 1
                },
                {
                    "duration": 0.21428550000001678,
                    "durationTicks": 60,
                    "midi": 36,
                    "name": "C2",
                    "ticks": 109860,
                    "time": 363.21387050000004,
                    "velocity": 1
                },
                {
                    "duration": 0.21428550000001678,
                    "durationTicks": 60,
                    "midi": 42,
                    "name": "F#2",
                    "ticks": 109860,
                    "time": 363.21387050000004,
                    "velocity": 1
                },
                {
                    "duration": 0.21428549999995994,
                    "durationTicks": 60,
                    "midi": 42,
                    "name": "F#2",
                    "ticks": 109920,
                    "time": 363.42815600000006,
                    "velocity": 1
                },
                {
                    "duration": 0.4285709999999767,
                    "durationTicks": 120,
                    "midi": 36,
                    "name": "C2",
                    "ticks": 109920,
                    "time": 363.42815600000006,
                    "velocity": 1
                },
                {
                    "duration": 0.21428550000001678,
                    "durationTicks": 60,
                    "midi": 42,
                    "name": "F#2",
                    "ticks": 109980,
                    "time": 363.6424415,
                    "velocity": 1
                },
                {
                    "duration": 0.21428550000001678,
                    "durationTicks": 60,
                    "midi": 42,
                    "name": "F#2",
                    "ticks": 110040,
                    "time": 363.85672700000003,
                    "velocity": 1
                },
                {
                    "duration": 0.21428549999995994,
                    "durationTicks": 60,
                    "midi": 42,
                    "name": "F#2",
                    "ticks": 110100,
                    "time": 364.07101250000005,
                    "velocity": 1
                },
                {
                    "duration": 0.07142850000002454,
                    "durationTicks": 20,
                    "midi": 36,
                    "name": "C2",
                    "ticks": 110100,
                    "time": 364.07101250000005,
                    "velocity": 1
                },
                {
                    "duration": 0.0714284999999677,
                    "durationTicks": 20,
                    "midi": 36,
                    "name": "C2",
                    "ticks": 110120,
                    "time": 364.1424410000001,
                    "velocity": 1
                },
                {
                    "duration": 0.0714284999999677,
                    "durationTicks": 20,
                    "midi": 36,
                    "name": "C2",
                    "ticks": 110140,
                    "time": 364.21386950000004,
                    "velocity": 1
                },
                {
                    "duration": 0.21428550000001678,
                    "durationTicks": 60,
                    "midi": 38,
                    "name": "D2",
                    "ticks": 110160,
                    "time": 364.285298,
                    "velocity": 1
                },
                {
                    "duration": 0.21428550000001678,
                    "durationTicks": 60,
                    "midi": 42,
                    "name": "F#2",
                    "ticks": 110160,
                    "time": 364.285298,
                    "velocity": 1
                },
                {
                    "duration": 0.21428550000001678,
                    "durationTicks": 60,
                    "midi": 42,
                    "name": "F#2",
                    "ticks": 110220,
                    "time": 364.4995835,
                    "velocity": 1
                },
                {
                    "duration": 0.10714275000003681,
                    "durationTicks": 30,
                    "midi": 36,
                    "name": "C2",
                    "ticks": 110220,
                    "time": 364.4995835,
                    "velocity": 1
                },
                {
                    "duration": 0.10714274999997997,
                    "durationTicks": 30,
                    "midi": 36,
                    "name": "C2",
                    "ticks": 110250,
                    "time": 364.60672625000007,
                    "velocity": 1
                },
                {
                    "duration": 0.21428549999995994,
                    "durationTicks": 60,
                    "midi": 42,
                    "name": "F#2",
                    "ticks": 110280,
                    "time": 364.71386900000005,
                    "velocity": 1
                },
                {
                    "duration": 0.21428550000001678,
                    "durationTicks": 60,
                    "midi": 42,
                    "name": "F#2",
                    "ticks": 110340,
                    "time": 364.9281545,
                    "velocity": 1
                },
                {
                    "duration": 0.21428550000001678,
                    "durationTicks": 60,
                    "midi": 36,
                    "name": "C2",
                    "ticks": 110340,
                    "time": 364.9281545,
                    "velocity": 1
                },
                {
                    "duration": 0.42857100000003356,
                    "durationTicks": 120,
                    "midi": 36,
                    "name": "C2",
                    "ticks": 110400,
                    "time": 365.14244,
                    "velocity": 1
                },
                {
                    "duration": 0.21428550000001678,
                    "durationTicks": 60,
                    "midi": 42,
                    "name": "F#2",
                    "ticks": 110400,
                    "time": 365.14244,
                    "velocity": 1
                },
                {
                    "duration": 0.21428550000001678,
                    "durationTicks": 60,
                    "midi": 42,
                    "name": "F#2",
                    "ticks": 110460,
                    "time": 365.35672550000004,
                    "velocity": 1
                },
                {
                    "duration": 0.21428550000001678,
                    "durationTicks": 60,
                    "midi": 38,
                    "name": "D2",
                    "ticks": 110520,
                    "time": 365.57101100000006,
                    "velocity": 1
                },
                {
                    "duration": 0.21428550000001678,
                    "durationTicks": 60,
                    "midi": 57,
                    "name": "A3",
                    "ticks": 110520,
                    "time": 365.57101100000006,
                    "velocity": 1
                },
                {
                    "duration": 0.21428549999995994,
                    "durationTicks": 60,
                    "midi": 36,
                    "name": "C2",
                    "ticks": 110580,
                    "time": 365.7852965000001,
                    "velocity": 1
                },
                {
                    "duration": 0.21428549999995994,
                    "durationTicks": 60,
                    "midi": 42,
                    "name": "F#2",
                    "ticks": 110580,
                    "time": 365.7852965000001,
                    "velocity": 1
                },
                {
                    "duration": 0.42857100000003356,
                    "durationTicks": 120,
                    "midi": 36,
                    "name": "C2",
                    "ticks": 110640,
                    "time": 365.99958200000003,
                    "velocity": 1
                },
                {
                    "duration": 0.21428550000001678,
                    "durationTicks": 60,
                    "midi": 42,
                    "name": "F#2",
                    "ticks": 110640,
                    "time": 365.99958200000003,
                    "velocity": 1
                },
                {
                    "duration": 0.21428550000001678,
                    "durationTicks": 60,
                    "midi": 42,
                    "name": "F#2",
                    "ticks": 110700,
                    "time": 366.21386750000005,
                    "velocity": 1
                },
                {
                    "duration": 0.21428549999995994,
                    "durationTicks": 60,
                    "midi": 57,
                    "name": "A3",
                    "ticks": 110760,
                    "time": 366.42815300000007,
                    "velocity": 1
                },
                {
                    "duration": 0.21428549999995994,
                    "durationTicks": 60,
                    "midi": 38,
                    "name": "D2",
                    "ticks": 110760,
                    "time": 366.42815300000007,
                    "velocity": 1
                },
                {
                    "duration": 0.21428550000001678,
                    "durationTicks": 60,
                    "midi": 36,
                    "name": "C2",
                    "ticks": 110820,
                    "time": 366.6424385,
                    "velocity": 1
                },
                {
                    "duration": 0.21428550000001678,
                    "durationTicks": 60,
                    "midi": 42,
                    "name": "F#2",
                    "ticks": 110820,
                    "time": 366.6424385,
                    "velocity": 1
                },
                {
                    "duration": 0.21428550000001678,
                    "durationTicks": 60,
                    "midi": 42,
                    "name": "F#2",
                    "ticks": 110880,
                    "time": 366.85672400000004,
                    "velocity": 1
                },
                {
                    "duration": 0.4285709999999767,
                    "durationTicks": 120,
                    "midi": 36,
                    "name": "C2",
                    "ticks": 110880,
                    "time": 366.85672400000004,
                    "velocity": 1
                },
                {
                    "duration": 0.21428549999995994,
                    "durationTicks": 60,
                    "midi": 42,
                    "name": "F#2",
                    "ticks": 110940,
                    "time": 367.07100950000006,
                    "velocity": 1
                },
                {
                    "duration": 0.21428550000001678,
                    "durationTicks": 60,
                    "midi": 38,
                    "name": "D2",
                    "ticks": 111000,
                    "time": 367.285295,
                    "velocity": 1
                },
                {
                    "duration": 0.21428550000001678,
                    "durationTicks": 60,
                    "midi": 42,
                    "name": "F#2",
                    "ticks": 111000,
                    "time": 367.285295,
                    "velocity": 1
                },
                {
                    "duration": 0.21428550000001678,
                    "durationTicks": 60,
                    "midi": 42,
                    "name": "F#2",
                    "ticks": 111060,
                    "time": 367.49958050000004,
                    "velocity": 1
                },
                {
                    "duration": 0.21428549999995994,
                    "durationTicks": 60,
                    "midi": 42,
                    "name": "F#2",
                    "ticks": 111120,
                    "time": 367.71386600000005,
                    "velocity": 1
                },
                {
                    "duration": 0.4285709999999767,
                    "durationTicks": 120,
                    "midi": 36,
                    "name": "C2",
                    "ticks": 111120,
                    "time": 367.71386600000005,
                    "velocity": 1
                },
                {
                    "duration": 0.21428550000001678,
                    "durationTicks": 60,
                    "midi": 42,
                    "name": "F#2",
                    "ticks": 111180,
                    "time": 367.9281515,
                    "velocity": 1
                },
                {
                    "duration": 0.21428550000001678,
                    "durationTicks": 60,
                    "midi": 38,
                    "name": "D2",
                    "ticks": 111240,
                    "time": 368.14243700000003,
                    "velocity": 1
                },
                {
                    "duration": 0.21428550000001678,
                    "durationTicks": 60,
                    "midi": 42,
                    "name": "F#2",
                    "ticks": 111240,
                    "time": 368.14243700000003,
                    "velocity": 1
                },
                {
                    "duration": 0.21428549999995994,
                    "durationTicks": 60,
                    "midi": 42,
                    "name": "F#2",
                    "ticks": 111300,
                    "time": 368.35672250000005,
                    "velocity": 1
                },
                {
                    "duration": 0.21428549999995994,
                    "durationTicks": 60,
                    "midi": 36,
                    "name": "C2",
                    "ticks": 111300,
                    "time": 368.35672250000005,
                    "velocity": 1
                },
                {
                    "duration": 0.42857100000003356,
                    "durationTicks": 120,
                    "midi": 36,
                    "name": "C2",
                    "ticks": 111360,
                    "time": 368.571008,
                    "velocity": 1
                },
                {
                    "duration": 0.21428550000001678,
                    "durationTicks": 60,
                    "midi": 42,
                    "name": "F#2",
                    "ticks": 111360,
                    "time": 368.571008,
                    "velocity": 1
                },
                {
                    "duration": 0.21428550000001678,
                    "durationTicks": 60,
                    "midi": 42,
                    "name": "F#2",
                    "ticks": 111420,
                    "time": 368.7852935,
                    "velocity": 1
                },
                {
                    "duration": 0.21428550000001678,
                    "durationTicks": 60,
                    "midi": 38,
                    "name": "D2",
                    "ticks": 111480,
                    "time": 368.99957900000004,
                    "velocity": 1
                },
                {
                    "duration": 0.21428550000001678,
                    "durationTicks": 60,
                    "midi": 57,
                    "name": "A3",
                    "ticks": 111480,
                    "time": 368.99957900000004,
                    "velocity": 1
                },
                {
                    "duration": 0.21428550000001678,
                    "durationTicks": 60,
                    "midi": 36,
                    "name": "C2",
                    "ticks": 111540,
                    "time": 369.21386450000006,
                    "velocity": 1
                },
                {
                    "duration": 0.21428550000001678,
                    "durationTicks": 60,
                    "midi": 42,
                    "name": "F#2",
                    "ticks": 111540,
                    "time": 369.21386450000006,
                    "velocity": 1
                },
                {
                    "duration": 0.4285709999999767,
                    "durationTicks": 120,
                    "midi": 36,
                    "name": "C2",
                    "ticks": 111600,
                    "time": 369.4281500000001,
                    "velocity": 1
                },
                {
                    "duration": 0.21428549999995994,
                    "durationTicks": 60,
                    "midi": 42,
                    "name": "F#2",
                    "ticks": 111600,
                    "time": 369.4281500000001,
                    "velocity": 1
                },
                {
                    "duration": 0.21428550000001678,
                    "durationTicks": 60,
                    "midi": 42,
                    "name": "F#2",
                    "ticks": 111660,
                    "time": 369.64243550000003,
                    "velocity": 1
                },
                {
                    "duration": 0.21428550000001678,
                    "durationTicks": 60,
                    "midi": 57,
                    "name": "A3",
                    "ticks": 111720,
                    "time": 369.85672100000005,
                    "velocity": 1
                },
                {
                    "duration": 0.21428550000001678,
                    "durationTicks": 60,
                    "midi": 38,
                    "name": "D2",
                    "ticks": 111720,
                    "time": 369.85672100000005,
                    "velocity": 1
                },
                {
                    "duration": 0.21428549999995994,
                    "durationTicks": 60,
                    "midi": 36,
                    "name": "C2",
                    "ticks": 111780,
                    "time": 370.07100650000007,
                    "velocity": 1
                },
                {
                    "duration": 0.21428549999995994,
                    "durationTicks": 60,
                    "midi": 42,
                    "name": "F#2",
                    "ticks": 111780,
                    "time": 370.07100650000007,
                    "velocity": 1
                },
                {
                    "duration": 0.21428550000001678,
                    "durationTicks": 60,
                    "midi": 42,
                    "name": "F#2",
                    "ticks": 111840,
                    "time": 370.285292,
                    "velocity": 1
                },
                {
                    "duration": 0.42857100000003356,
                    "durationTicks": 120,
                    "midi": 36,
                    "name": "C2",
                    "ticks": 111840,
                    "time": 370.285292,
                    "velocity": 1
                },
                {
                    "duration": 0.21428550000001678,
                    "durationTicks": 60,
                    "midi": 42,
                    "name": "F#2",
                    "ticks": 111900,
                    "time": 370.49957750000004,
                    "velocity": 1
                },
                {
                    "duration": 0.21428549999995994,
                    "durationTicks": 60,
                    "midi": 38,
                    "name": "D2",
                    "ticks": 111960,
                    "time": 370.71386300000006,
                    "velocity": 1
                },
                {
                    "duration": 0.21428549999995994,
                    "durationTicks": 60,
                    "midi": 42,
                    "name": "F#2",
                    "ticks": 111960,
                    "time": 370.71386300000006,
                    "velocity": 1
                },
                {
                    "duration": 0.21428550000001678,
                    "durationTicks": 60,
                    "midi": 42,
                    "name": "F#2",
                    "ticks": 112020,
                    "time": 370.9281485,
                    "velocity": 1
                },
                {
                    "duration": 0.21428550000001678,
                    "durationTicks": 60,
                    "midi": 42,
                    "name": "F#2",
                    "ticks": 112080,
                    "time": 371.14243400000004,
                    "velocity": 1
                },
                {
                    "duration": 0.4285709999999767,
                    "durationTicks": 120,
                    "midi": 36,
                    "name": "C2",
                    "ticks": 112080,
                    "time": 371.14243400000004,
                    "velocity": 1
                },
                {
                    "duration": 0.21428549999995994,
                    "durationTicks": 60,
                    "midi": 42,
                    "name": "F#2",
                    "ticks": 112140,
                    "time": 371.35671950000005,
                    "velocity": 1
                },
                {
                    "duration": 0.21428550000001678,
                    "durationTicks": 60,
                    "midi": 38,
                    "name": "D2",
                    "ticks": 112200,
                    "time": 371.571005,
                    "velocity": 1
                },
                {
                    "duration": 0.21428550000001678,
                    "durationTicks": 60,
                    "midi": 42,
                    "name": "F#2",
                    "ticks": 112200,
                    "time": 371.571005,
                    "velocity": 1
                },
                {
                    "duration": 0.21428550000001678,
                    "durationTicks": 60,
                    "midi": 42,
                    "name": "F#2",
                    "ticks": 112260,
                    "time": 371.78529050000003,
                    "velocity": 1
                },
                {
                    "duration": 0.21428550000001678,
                    "durationTicks": 60,
                    "midi": 36,
                    "name": "C2",
                    "ticks": 112260,
                    "time": 371.78529050000003,
                    "velocity": 1
                },
                {
                    "duration": 0.4285709999999767,
                    "durationTicks": 120,
                    "midi": 36,
                    "name": "C2",
                    "ticks": 112320,
                    "time": 371.99957600000005,
                    "velocity": 1
                },
                {
                    "duration": 0.21428549999995994,
                    "durationTicks": 60,
                    "midi": 42,
                    "name": "F#2",
                    "ticks": 112320,
                    "time": 371.99957600000005,
                    "velocity": 1
                },
                {
                    "duration": 0.21428550000001678,
                    "durationTicks": 60,
                    "midi": 42,
                    "name": "F#2",
                    "ticks": 112380,
                    "time": 372.2138615,
                    "velocity": 1
                },
                {
                    "duration": 0.21428550000001678,
                    "durationTicks": 60,
                    "midi": 38,
                    "name": "D2",
                    "ticks": 112440,
                    "time": 372.428147,
                    "velocity": 1
                },
                {
                    "duration": 0.21428550000001678,
                    "durationTicks": 60,
                    "midi": 57,
                    "name": "A3",
                    "ticks": 112440,
                    "time": 372.428147,
                    "velocity": 1
                },
                {
                    "duration": 0.21428550000001678,
                    "durationTicks": 60,
                    "midi": 36,
                    "name": "C2",
                    "ticks": 112500,
                    "time": 372.64243250000004,
                    "velocity": 1
                },
                {
                    "duration": 0.21428550000001678,
                    "durationTicks": 60,
                    "midi": 42,
                    "name": "F#2",
                    "ticks": 112500,
                    "time": 372.64243250000004,
                    "velocity": 1
                },
                {
                    "duration": 0.4285709999999767,
                    "durationTicks": 120,
                    "midi": 36,
                    "name": "C2",
                    "ticks": 112560,
                    "time": 372.85671800000006,
                    "velocity": 1
                },
                {
                    "duration": 0.21428549999995994,
                    "durationTicks": 60,
                    "midi": 42,
                    "name": "F#2",
                    "ticks": 112560,
                    "time": 372.85671800000006,
                    "velocity": 1
                },
                {
                    "duration": 0.21428550000001678,
                    "durationTicks": 60,
                    "midi": 42,
                    "name": "F#2",
                    "ticks": 112620,
                    "time": 373.0710035,
                    "velocity": 1
                },
                {
                    "duration": 0.21428550000001678,
                    "durationTicks": 60,
                    "midi": 57,
                    "name": "A3",
                    "ticks": 112680,
                    "time": 373.28528900000003,
                    "velocity": 1
                },
                {
                    "duration": 0.21428550000001678,
                    "durationTicks": 60,
                    "midi": 38,
                    "name": "D2",
                    "ticks": 112680,
                    "time": 373.28528900000003,
                    "velocity": 1
                },
                {
                    "duration": 0.21428550000001678,
                    "durationTicks": 60,
                    "midi": 36,
                    "name": "C2",
                    "ticks": 112740,
                    "time": 373.49957450000005,
                    "velocity": 1
                },
                {
                    "duration": 0.21428550000001678,
                    "durationTicks": 60,
                    "midi": 42,
                    "name": "F#2",
                    "ticks": 112740,
                    "time": 373.49957450000005,
                    "velocity": 1
                },
                {
                    "duration": 0.21428549999995994,
                    "durationTicks": 60,
                    "midi": 42,
                    "name": "F#2",
                    "ticks": 112800,
                    "time": 373.71386000000007,
                    "velocity": 1
                },
                {
                    "duration": 0.4285709999999767,
                    "durationTicks": 120,
                    "midi": 36,
                    "name": "C2",
                    "ticks": 112800,
                    "time": 373.71386000000007,
                    "velocity": 1
                },
                {
                    "duration": 0.21428550000001678,
                    "durationTicks": 60,
                    "midi": 42,
                    "name": "F#2",
                    "ticks": 112860,
                    "time": 373.9281455,
                    "velocity": 1
                },
                {
                    "duration": 0.21428550000001678,
                    "durationTicks": 60,
                    "midi": 38,
                    "name": "D2",
                    "ticks": 112920,
                    "time": 374.14243100000004,
                    "velocity": 1
                },
                {
                    "duration": 0.21428550000001678,
                    "durationTicks": 60,
                    "midi": 42,
                    "name": "F#2",
                    "ticks": 112920,
                    "time": 374.14243100000004,
                    "velocity": 1
                },
                {
                    "duration": 0.21428549999995994,
                    "durationTicks": 60,
                    "midi": 42,
                    "name": "F#2",
                    "ticks": 112980,
                    "time": 374.35671650000006,
                    "velocity": 1
                },
                {
                    "duration": 0.21428550000001678,
                    "durationTicks": 60,
                    "midi": 42,
                    "name": "F#2",
                    "ticks": 113040,
                    "time": 374.571002,
                    "velocity": 1
                },
                {
                    "duration": 0.42857100000003356,
                    "durationTicks": 120,
                    "midi": 36,
                    "name": "C2",
                    "ticks": 113040,
                    "time": 374.571002,
                    "velocity": 1
                },
                {
                    "duration": 0.21428550000001678,
                    "durationTicks": 60,
                    "midi": 42,
                    "name": "F#2",
                    "ticks": 113100,
                    "time": 374.78528750000004,
                    "velocity": 1
                },
                {
                    "duration": 0.21428549999995994,
                    "durationTicks": 60,
                    "midi": 38,
                    "name": "D2",
                    "ticks": 113160,
                    "time": 374.99957300000005,
                    "velocity": 1
                },
                {
                    "duration": 0.21428549999995994,
                    "durationTicks": 60,
                    "midi": 42,
                    "name": "F#2",
                    "ticks": 113160,
                    "time": 374.99957300000005,
                    "velocity": 1
                },
                {
                    "duration": 0.21428550000001678,
                    "durationTicks": 60,
                    "midi": 42,
                    "name": "F#2",
                    "ticks": 113220,
                    "time": 375.2138585,
                    "velocity": 1
                },
                {
                    "duration": 0.21428550000001678,
                    "durationTicks": 60,
                    "midi": 36,
                    "name": "C2",
                    "ticks": 113220,
                    "time": 375.2138585,
                    "velocity": 1
                },
                {
                    "duration": 0.4285709999999767,
                    "durationTicks": 120,
                    "midi": 36,
                    "name": "C2",
                    "ticks": 113280,
                    "time": 375.42814400000003,
                    "velocity": 1
                },
                {
                    "duration": 0.21428550000001678,
                    "durationTicks": 60,
                    "midi": 42,
                    "name": "F#2",
                    "ticks": 113280,
                    "time": 375.42814400000003,
                    "velocity": 1
                },
                {
                    "duration": 0.21428549999995994,
                    "durationTicks": 60,
                    "midi": 42,
                    "name": "F#2",
                    "ticks": 113340,
                    "time": 375.64242950000005,
                    "velocity": 1
                },
                {
                    "duration": 0.21428550000001678,
                    "durationTicks": 60,
                    "midi": 38,
                    "name": "D2",
                    "ticks": 113400,
                    "time": 375.856715,
                    "velocity": 1
                },
                {
                    "duration": 0.21428550000001678,
                    "durationTicks": 60,
                    "midi": 57,
                    "name": "A3",
                    "ticks": 113400,
                    "time": 375.856715,
                    "velocity": 1
                },
                {
                    "duration": 0.21428550000001678,
                    "durationTicks": 60,
                    "midi": 36,
                    "name": "C2",
                    "ticks": 113460,
                    "time": 376.0710005,
                    "velocity": 1
                },
                {
                    "duration": 0.21428550000001678,
                    "durationTicks": 60,
                    "midi": 42,
                    "name": "F#2",
                    "ticks": 113460,
                    "time": 376.0710005,
                    "velocity": 1
                },
                {
                    "duration": 0.4285709999999767,
                    "durationTicks": 120,
                    "midi": 36,
                    "name": "C2",
                    "ticks": 113520,
                    "time": 376.28528600000004,
                    "velocity": 1
                },
                {
                    "duration": 0.21428550000001678,
                    "durationTicks": 60,
                    "midi": 42,
                    "name": "F#2",
                    "ticks": 113520,
                    "time": 376.28528600000004,
                    "velocity": 1
                },
                {
                    "duration": 0.21428549999995994,
                    "durationTicks": 60,
                    "midi": 42,
                    "name": "F#2",
                    "ticks": 113580,
                    "time": 376.49957150000006,
                    "velocity": 1
                },
                {
                    "duration": 0.21428550000001678,
                    "durationTicks": 60,
                    "midi": 57,
                    "name": "A3",
                    "ticks": 113640,
                    "time": 376.713857,
                    "velocity": 1
                },
                {
                    "duration": 0.21428550000001678,
                    "durationTicks": 60,
                    "midi": 38,
                    "name": "D2",
                    "ticks": 113640,
                    "time": 376.713857,
                    "velocity": 1
                },
                {
                    "duration": 0.21428550000001678,
                    "durationTicks": 60,
                    "midi": 42,
                    "name": "F#2",
                    "ticks": 113700,
                    "time": 376.92814250000004,
                    "velocity": 1
                },
                {
                    "duration": 0.10714274999997997,
                    "durationTicks": 30,
                    "midi": 45,
                    "name": "A2",
                    "ticks": 113760,
                    "time": 377.14242800000005,
                    "velocity": 1
                },
                {
                    "duration": 0.10714275000003681,
                    "durationTicks": 30,
                    "midi": 45,
                    "name": "A2",
                    "ticks": 113790,
                    "time": 377.24957075000003,
                    "velocity": 1
                },
                {
                    "duration": 0.21428549999995994,
                    "durationTicks": 60,
                    "midi": 45,
                    "name": "A2",
                    "ticks": 113820,
                    "time": 377.35671350000007,
                    "velocity": 1
                },
                {
                    "duration": 0.10714274999997997,
                    "durationTicks": 30,
                    "midi": 47,
                    "name": "B2",
                    "ticks": 113880,
                    "time": 377.57099900000003,
                    "velocity": 1
                },
                {
                    "duration": 0.10714275000003681,
                    "durationTicks": 30,
                    "midi": 47,
                    "name": "B2",
                    "ticks": 113910,
                    "time": 377.67814175,
                    "velocity": 1
                },
                {
                    "duration": 0.21428550000001678,
                    "durationTicks": 60,
                    "midi": 47,
                    "name": "B2",
                    "ticks": 113940,
                    "time": 377.78528450000005,
                    "velocity": 1
                },
                {
                    "duration": 0.10714274999997997,
                    "durationTicks": 30,
                    "midi": 48,
                    "name": "C3",
                    "ticks": 114000,
                    "time": 377.99957000000006,
                    "velocity": 1
                },
                {
                    "duration": 0.10714274999997997,
                    "durationTicks": 30,
                    "midi": 48,
                    "name": "C3",
                    "ticks": 114030,
                    "time": 378.10671275000004,
                    "velocity": 1
                },
                {
                    "duration": 0.21428550000001678,
                    "durationTicks": 60,
                    "midi": 48,
                    "name": "C3",
                    "ticks": 114060,
                    "time": 378.2138555,
                    "velocity": 1
                },
                {
                    "duration": 0.21428550000001678,
                    "durationTicks": 60,
                    "midi": 50,
                    "name": "D3",
                    "ticks": 114120,
                    "time": 378.42814100000004,
                    "velocity": 1
                },
                {
                    "duration": 0.017857125000034557,
                    "durationTicks": 5,
                    "midi": 38,
                    "name": "D2",
                    "ticks": 114175,
                    "time": 378.624569375,
                    "velocity": 0.5905511811023622
                },
                {
                    "duration": 0.21428549999995994,
                    "durationTicks": 60,
                    "midi": 38,
                    "name": "D2",
                    "ticks": 114180,
                    "time": 378.64242650000006,
                    "velocity": 1
                },
                {
                    "duration": 0.42857100000003356,
                    "durationTicks": 120,
                    "midi": 36,
                    "name": "C2",
                    "ticks": 114240,
                    "time": 378.856712,
                    "velocity": 1
                },
                {
                    "duration": 0.21428550000001678,
                    "durationTicks": 60,
                    "midi": 57,
                    "name": "A3",
                    "ticks": 114240,
                    "time": 378.856712,
                    "velocity": 1
                },
                {
                    "duration": 0.21428550000001678,
                    "durationTicks": 60,
                    "midi": 42,
                    "name": "F#2",
                    "ticks": 114300,
                    "time": 379.07099750000003,
                    "velocity": 1
                },
                {
                    "duration": 0.21428549999995994,
                    "durationTicks": 60,
                    "midi": 42,
                    "name": "F#2",
                    "ticks": 114360,
                    "time": 379.28528300000005,
                    "velocity": 1
                },
                {
                    "duration": 0.21428550000001678,
                    "durationTicks": 60,
                    "midi": 36,
                    "name": "C2",
                    "ticks": 114420,
                    "time": 379.4995685,
                    "velocity": 1
                },
                {
                    "duration": 0.21428550000001678,
                    "durationTicks": 60,
                    "midi": 42,
                    "name": "F#2",
                    "ticks": 114420,
                    "time": 379.4995685,
                    "velocity": 1
                },
                {
                    "duration": 0.21428550000001678,
                    "durationTicks": 60,
                    "midi": 42,
                    "name": "F#2",
                    "ticks": 114480,
                    "time": 379.713854,
                    "velocity": 1
                },
                {
                    "duration": 0.21428550000001678,
                    "durationTicks": 60,
                    "midi": 38,
                    "name": "D2",
                    "ticks": 114480,
                    "time": 379.713854,
                    "velocity": 1
                },
                {
                    "duration": 0.21428549999995994,
                    "durationTicks": 60,
                    "midi": 42,
                    "name": "F#2",
                    "ticks": 114540,
                    "time": 379.92813950000004,
                    "velocity": 1
                },
                {
                    "duration": 0.21428550000007363,
                    "durationTicks": 60,
                    "midi": 42,
                    "name": "F#2",
                    "ticks": 114600,
                    "time": 380.142425,
                    "velocity": 1
                },
                {
                    "duration": 0.21428549999995994,
                    "durationTicks": 60,
                    "midi": 36,
                    "name": "C2",
                    "ticks": 114660,
                    "time": 380.3567105000001,
                    "velocity": 1
                },
                {
                    "duration": 0.21428549999995994,
                    "durationTicks": 60,
                    "midi": 42,
                    "name": "F#2",
                    "ticks": 114660,
                    "time": 380.3567105000001,
                    "velocity": 1
                },
                {
                    "duration": 0.42857100000003356,
                    "durationTicks": 120,
                    "midi": 36,
                    "name": "C2",
                    "ticks": 114720,
                    "time": 380.57099600000004,
                    "velocity": 1
                },
                {
                    "duration": 0.21428550000001678,
                    "durationTicks": 60,
                    "midi": 42,
                    "name": "F#2",
                    "ticks": 114720,
                    "time": 380.57099600000004,
                    "velocity": 1
                },
                {
                    "duration": 0.21428550000001678,
                    "durationTicks": 60,
                    "midi": 42,
                    "name": "F#2",
                    "ticks": 114780,
                    "time": 380.78528150000005,
                    "velocity": 1
                },
                {
                    "duration": 0.21428549999995994,
                    "durationTicks": 60,
                    "midi": 42,
                    "name": "F#2",
                    "ticks": 114840,
                    "time": 380.99956700000007,
                    "velocity": 1
                },
                {
                    "duration": 0.21428550000001678,
                    "durationTicks": 60,
                    "midi": 36,
                    "name": "C2",
                    "ticks": 114900,
                    "time": 381.21385250000003,
                    "velocity": 1
                },
                {
                    "duration": 0.21428550000001678,
                    "durationTicks": 60,
                    "midi": 42,
                    "name": "F#2",
                    "ticks": 114900,
                    "time": 381.21385250000003,
                    "velocity": 1
                },
                {
                    "duration": 0.21428550000001678,
                    "durationTicks": 60,
                    "midi": 42,
                    "name": "F#2",
                    "ticks": 114960,
                    "time": 381.42813800000005,
                    "velocity": 1
                },
                {
                    "duration": 0.21428549999995994,
                    "durationTicks": 60,
                    "midi": 36,
                    "name": "C2",
                    "ticks": 115020,
                    "time": 381.64242350000006,
                    "velocity": 1
                },
                {
                    "duration": 0.21428549999995994,
                    "durationTicks": 60,
                    "midi": 42,
                    "name": "F#2",
                    "ticks": 115020,
                    "time": 381.64242350000006,
                    "velocity": 1
                },
                {
                    "duration": 0.21428550000001678,
                    "durationTicks": 60,
                    "midi": 38,
                    "name": "D2",
                    "ticks": 115080,
                    "time": 381.856709,
                    "velocity": 1
                },
                {
                    "duration": 0.21428550000001678,
                    "durationTicks": 60,
                    "midi": 42,
                    "name": "F#2",
                    "ticks": 115080,
                    "time": 381.856709,
                    "velocity": 1
                },
                {
                    "duration": 0.21428550000001678,
                    "durationTicks": 60,
                    "midi": 36,
                    "name": "C2",
                    "ticks": 115140,
                    "time": 382.07099450000004,
                    "velocity": 1
                },
                {
                    "duration": 0.21428550000001678,
                    "durationTicks": 60,
                    "midi": 42,
                    "name": "F#2",
                    "ticks": 115140,
                    "time": 382.07099450000004,
                    "velocity": 1
                },
                {
                    "duration": 0.21428549999995994,
                    "durationTicks": 60,
                    "midi": 42,
                    "name": "F#2",
                    "ticks": 115200,
                    "time": 382.28528000000006,
                    "velocity": 1
                },
                {
                    "duration": 0.4285709999999767,
                    "durationTicks": 120,
                    "midi": 36,
                    "name": "C2",
                    "ticks": 115200,
                    "time": 382.28528000000006,
                    "velocity": 1
                },
                {
                    "duration": 0.21428550000001678,
                    "durationTicks": 60,
                    "midi": 42,
                    "name": "F#2",
                    "ticks": 115260,
                    "time": 382.4995655,
                    "velocity": 1
                },
                {
                    "duration": 0.21428550000001678,
                    "durationTicks": 60,
                    "midi": 42,
                    "name": "F#2",
                    "ticks": 115320,
                    "time": 382.71385100000003,
                    "velocity": 1
                },
                {
                    "duration": 0.21428549999995994,
                    "durationTicks": 60,
                    "midi": 42,
                    "name": "F#2",
                    "ticks": 115380,
                    "time": 382.92813650000005,
                    "velocity": 1
                },
                {
                    "duration": 0.07142850000002454,
                    "durationTicks": 20,
                    "midi": 36,
                    "name": "C2",
                    "ticks": 115380,
                    "time": 382.92813650000005,
                    "velocity": 1
                },
                {
                    "duration": 0.0714284999999677,
                    "durationTicks": 20,
                    "midi": 36,
                    "name": "C2",
                    "ticks": 115400,
                    "time": 382.9995650000001,
                    "velocity": 1
                },
                {
                    "duration": 0.0714284999999677,
                    "durationTicks": 20,
                    "midi": 36,
                    "name": "C2",
                    "ticks": 115420,
                    "time": 383.07099350000004,
                    "velocity": 1
                },
                {
                    "duration": 0.21428550000001678,
                    "durationTicks": 60,
                    "midi": 57,
                    "name": "A3",
                    "ticks": 115440,
                    "time": 383.142422,
                    "velocity": 1
                },
                {
                    "duration": 0.21428550000001678,
                    "durationTicks": 60,
                    "midi": 38,
                    "name": "D2",
                    "ticks": 115440,
                    "time": 383.142422,
                    "velocity": 1
                },
                {
                    "duration": 0.21428550000001678,
                    "durationTicks": 60,
                    "midi": 42,
                    "name": "F#2",
                    "ticks": 115500,
                    "time": 383.3567075,
                    "velocity": 1
                },
                {
                    "duration": 0.21428549999995994,
                    "durationTicks": 60,
                    "midi": 42,
                    "name": "F#2",
                    "ticks": 115560,
                    "time": 383.57099300000004,
                    "velocity": 1
                },
                {
                    "duration": 0.21428550000007363,
                    "durationTicks": 60,
                    "midi": 42,
                    "name": "F#2",
                    "ticks": 115620,
                    "time": 383.7852785,
                    "velocity": 1
                },
                {
                    "duration": 0.21428550000007363,
                    "durationTicks": 60,
                    "midi": 36,
                    "name": "C2",
                    "ticks": 115620,
                    "time": 383.7852785,
                    "velocity": 1
                },
                {
                    "duration": 0.21428549999995994,
                    "durationTicks": 60,
                    "midi": 42,
                    "name": "F#2",
                    "ticks": 115680,
                    "time": 383.9995640000001,
                    "velocity": 1
                },
                {
                    "duration": 0.4285709999999199,
                    "durationTicks": 120,
                    "midi": 36,
                    "name": "C2",
                    "ticks": 115680,
                    "time": 383.9995640000001,
                    "velocity": 1
                },
                {
                    "duration": 0.21428549999995994,
                    "durationTicks": 60,
                    "midi": 42,
                    "name": "F#2",
                    "ticks": 115740,
                    "time": 384.21384950000004,
                    "velocity": 1
                },
                {
                    "duration": 0.21428550000007363,
                    "durationTicks": 60,
                    "midi": 42,
                    "name": "F#2",
                    "ticks": 115800,
                    "time": 384.428135,
                    "velocity": 1
                },
                {
                    "duration": 0.21428549999995994,
                    "durationTicks": 60,
                    "midi": 36,
                    "name": "C2",
                    "ticks": 115860,
                    "time": 384.64242050000007,
                    "velocity": 1
                },
                {
                    "duration": 0.21428549999995994,
                    "durationTicks": 60,
                    "midi": 42,
                    "name": "F#2",
                    "ticks": 115860,
                    "time": 384.64242050000007,
                    "velocity": 1
                },
                {
                    "duration": 0.21428550000001678,
                    "durationTicks": 60,
                    "midi": 42,
                    "name": "F#2",
                    "ticks": 115920,
                    "time": 384.85670600000003,
                    "velocity": 1
                },
                {
                    "duration": 0.21428550000001678,
                    "durationTicks": 60,
                    "midi": 36,
                    "name": "C2",
                    "ticks": 115980,
                    "time": 385.07099150000005,
                    "velocity": 1
                },
                {
                    "duration": 0.21428550000001678,
                    "durationTicks": 60,
                    "midi": 42,
                    "name": "F#2",
                    "ticks": 115980,
                    "time": 385.07099150000005,
                    "velocity": 1
                },
                {
                    "duration": 0.21428549999995994,
                    "durationTicks": 60,
                    "midi": 42,
                    "name": "F#2",
                    "ticks": 116040,
                    "time": 385.28527700000006,
                    "velocity": 1
                },
                {
                    "duration": 0.21428549999995994,
                    "durationTicks": 60,
                    "midi": 38,
                    "name": "D2",
                    "ticks": 116040,
                    "time": 385.28527700000006,
                    "velocity": 1
                },
                {
                    "duration": 0.21428550000001678,
                    "durationTicks": 60,
                    "midi": 36,
                    "name": "C2",
                    "ticks": 116100,
                    "time": 385.4995625,
                    "velocity": 1
                },
                {
                    "duration": 0.21428550000001678,
                    "durationTicks": 60,
                    "midi": 42,
                    "name": "F#2",
                    "ticks": 116100,
                    "time": 385.4995625,
                    "velocity": 1
                },
                {
                    "duration": 0.21428550000001678,
                    "durationTicks": 60,
                    "midi": 42,
                    "name": "F#2",
                    "ticks": 116160,
                    "time": 385.71384800000004,
                    "velocity": 1
                },
                {
                    "duration": 0.4285709999999767,
                    "durationTicks": 120,
                    "midi": 36,
                    "name": "C2",
                    "ticks": 116160,
                    "time": 385.71384800000004,
                    "velocity": 1
                },
                {
                    "duration": 0.21428549999995994,
                    "durationTicks": 60,
                    "midi": 42,
                    "name": "F#2",
                    "ticks": 116220,
                    "time": 385.92813350000006,
                    "velocity": 1
                },
                {
                    "duration": 0.21428550000001678,
                    "durationTicks": 60,
                    "midi": 42,
                    "name": "F#2",
                    "ticks": 116280,
                    "time": 386.142419,
                    "velocity": 1
                },
                {
                    "duration": 0.21428550000001678,
                    "durationTicks": 60,
                    "midi": 42,
                    "name": "F#2",
                    "ticks": 116340,
                    "time": 386.35670450000003,
                    "velocity": 1
                },
                {
                    "duration": 0.07142850000002454,
                    "durationTicks": 20,
                    "midi": 36,
                    "name": "C2",
                    "ticks": 116340,
                    "time": 386.35670450000003,
                    "velocity": 1
                },
                {
                    "duration": 0.0714284999999677,
                    "durationTicks": 20,
                    "midi": 36,
                    "name": "C2",
                    "ticks": 116360,
                    "time": 386.42813300000006,
                    "velocity": 1
                },
                {
                    "duration": 0.07142850000002454,
                    "durationTicks": 20,
                    "midi": 36,
                    "name": "C2",
                    "ticks": 116380,
                    "time": 386.4995615,
                    "velocity": 1
                },
                {
                    "duration": 0.21428549999995994,
                    "durationTicks": 60,
                    "midi": 57,
                    "name": "A3",
                    "ticks": 116400,
                    "time": 386.57099000000005,
                    "velocity": 1
                },
                {
                    "duration": 0.21428549999995994,
                    "durationTicks": 60,
                    "midi": 38,
                    "name": "D2",
                    "ticks": 116400,
                    "time": 386.57099000000005,
                    "velocity": 1
                },
                {
                    "duration": 0.21428550000001678,
                    "durationTicks": 60,
                    "midi": 42,
                    "name": "F#2",
                    "ticks": 116460,
                    "time": 386.7852755,
                    "velocity": 1
                },
                {
                    "duration": 0.21428550000001678,
                    "durationTicks": 60,
                    "midi": 42,
                    "name": "F#2",
                    "ticks": 116520,
                    "time": 386.999561,
                    "velocity": 1
                },
                {
                    "duration": 0.21428549999995994,
                    "durationTicks": 60,
                    "midi": 42,
                    "name": "F#2",
                    "ticks": 116580,
                    "time": 387.21384650000005,
                    "velocity": 1
                },
                {
                    "duration": 0.21428549999995994,
                    "durationTicks": 60,
                    "midi": 36,
                    "name": "C2",
                    "ticks": 116580,
                    "time": 387.21384650000005,
                    "velocity": 1
                },
                {
                    "duration": 0.21428550000007363,
                    "durationTicks": 60,
                    "midi": 42,
                    "name": "F#2",
                    "ticks": 116640,
                    "time": 387.428132,
                    "velocity": 1
                },
                {
                    "duration": 0.42857100000003356,
                    "durationTicks": 120,
                    "midi": 36,
                    "name": "C2",
                    "ticks": 116640,
                    "time": 387.428132,
                    "velocity": 1
                },
                {
                    "duration": 0.21428549999995994,
                    "durationTicks": 60,
                    "midi": 42,
                    "name": "F#2",
                    "ticks": 116700,
                    "time": 387.6424175000001,
                    "velocity": 1
                },
                {
                    "duration": 0.21428549999995994,
                    "durationTicks": 60,
                    "midi": 42,
                    "name": "F#2",
                    "ticks": 116760,
                    "time": 387.85670300000004,
                    "velocity": 1
                },
                {
                    "duration": 0.21428550000007363,
                    "durationTicks": 60,
                    "midi": 36,
                    "name": "C2",
                    "ticks": 116820,
                    "time": 388.0709885,
                    "velocity": 1
                },
                {
                    "duration": 0.21428550000007363,
                    "durationTicks": 60,
                    "midi": 42,
                    "name": "F#2",
                    "ticks": 116820,
                    "time": 388.0709885,
                    "velocity": 1
                },
                {
                    "duration": 0.21428549999995994,
                    "durationTicks": 60,
                    "midi": 42,
                    "name": "F#2",
                    "ticks": 116880,
                    "time": 388.2852740000001,
                    "velocity": 1
                },
                {
                    "duration": 0.21428550000001678,
                    "durationTicks": 60,
                    "midi": 36,
                    "name": "C2",
                    "ticks": 116940,
                    "time": 388.49955950000003,
                    "velocity": 1
                },
                {
                    "duration": 0.21428550000001678,
                    "durationTicks": 60,
                    "midi": 42,
                    "name": "F#2",
                    "ticks": 116940,
                    "time": 388.49955950000003,
                    "velocity": 1
                },
                {
                    "duration": 0.21428550000001678,
                    "durationTicks": 60,
                    "midi": 42,
                    "name": "F#2",
                    "ticks": 117000,
                    "time": 388.71384500000005,
                    "velocity": 1
                },
                {
                    "duration": 0.21428550000001678,
                    "durationTicks": 60,
                    "midi": 38,
                    "name": "D2",
                    "ticks": 117000,
                    "time": 388.71384500000005,
                    "velocity": 1
                },
                {
                    "duration": 0.21428549999995994,
                    "durationTicks": 60,
                    "midi": 36,
                    "name": "C2",
                    "ticks": 117060,
                    "time": 388.92813050000007,
                    "velocity": 1
                },
                {
                    "duration": 0.21428549999995994,
                    "durationTicks": 60,
                    "midi": 42,
                    "name": "F#2",
                    "ticks": 117060,
                    "time": 388.92813050000007,
                    "velocity": 1
                },
                {
                    "duration": 0.21428550000001678,
                    "durationTicks": 60,
                    "midi": 42,
                    "name": "F#2",
                    "ticks": 117120,
                    "time": 389.142416,
                    "velocity": 1
                },
                {
                    "duration": 0.42857100000003356,
                    "durationTicks": 120,
                    "midi": 36,
                    "name": "C2",
                    "ticks": 117120,
                    "time": 389.142416,
                    "velocity": 1
                },
                {
                    "duration": 0.21428550000001678,
                    "durationTicks": 60,
                    "midi": 42,
                    "name": "F#2",
                    "ticks": 117180,
                    "time": 389.35670150000004,
                    "velocity": 1
                },
                {
                    "duration": 0.21428549999995994,
                    "durationTicks": 60,
                    "midi": 42,
                    "name": "F#2",
                    "ticks": 117240,
                    "time": 389.57098700000006,
                    "velocity": 1
                },
                {
                    "duration": 0.21428550000001678,
                    "durationTicks": 60,
                    "midi": 42,
                    "name": "F#2",
                    "ticks": 117300,
                    "time": 389.7852725,
                    "velocity": 1
                },
                {
                    "duration": 0.07142850000002454,
                    "durationTicks": 20,
                    "midi": 36,
                    "name": "C2",
                    "ticks": 117300,
                    "time": 389.7852725,
                    "velocity": 1
                },
                {
                    "duration": 0.07142850000002454,
                    "durationTicks": 20,
                    "midi": 36,
                    "name": "C2",
                    "ticks": 117320,
                    "time": 389.85670100000004,
                    "velocity": 1
                },
                {
                    "duration": 0.0714284999999677,
                    "durationTicks": 20,
                    "midi": 36,
                    "name": "C2",
                    "ticks": 117340,
                    "time": 389.92812950000007,
                    "velocity": 1
                },
                {
                    "duration": 0.21428550000001678,
                    "durationTicks": 60,
                    "midi": 57,
                    "name": "A3",
                    "ticks": 117360,
                    "time": 389.99955800000004,
                    "velocity": 1
                },
                {
                    "duration": 0.21428550000001678,
                    "durationTicks": 60,
                    "midi": 38,
                    "name": "D2",
                    "ticks": 117360,
                    "time": 389.99955800000004,
                    "velocity": 1
                },
                {
                    "duration": 0.21428549999995994,
                    "durationTicks": 60,
                    "midi": 42,
                    "name": "F#2",
                    "ticks": 117420,
                    "time": 390.21384350000005,
                    "velocity": 1
                },
                {
                    "duration": 0.21428550000001678,
                    "durationTicks": 60,
                    "midi": 42,
                    "name": "F#2",
                    "ticks": 117480,
                    "time": 390.428129,
                    "velocity": 1
                },
                {
                    "duration": 0.21428550000001678,
                    "durationTicks": 60,
                    "midi": 42,
                    "name": "F#2",
                    "ticks": 117540,
                    "time": 390.64241450000003,
                    "velocity": 1
                },
                {
                    "duration": 0.07142850000002454,
                    "durationTicks": 20,
                    "midi": 36,
                    "name": "C2",
                    "ticks": 117540,
                    "time": 390.64241450000003,
                    "velocity": 1
                },
                {
                    "duration": 0.0714284999999677,
                    "durationTicks": 20,
                    "midi": 36,
                    "name": "C2",
                    "ticks": 117560,
                    "time": 390.71384300000005,
                    "velocity": 1
                },
                {
                    "duration": 0.07142850000002454,
                    "durationTicks": 20,
                    "midi": 36,
                    "name": "C2",
                    "ticks": 117580,
                    "time": 390.7852715,
                    "velocity": 1
                },
                {
                    "duration": 0.21428549999995994,
                    "durationTicks": 60,
                    "midi": 38,
                    "name": "D2",
                    "ticks": 117600,
                    "time": 390.85670000000005,
                    "velocity": 1
                },
                {
                    "duration": 0.21428549999995994,
                    "durationTicks": 60,
                    "midi": 57,
                    "name": "A3",
                    "ticks": 117600,
                    "time": 390.85670000000005,
                    "velocity": 1
                },
                {
                    "duration": 0.10714275000003681,
                    "durationTicks": 30,
                    "midi": 38,
                    "name": "D2",
                    "ticks": 117660,
                    "time": 391.0709855,
                    "velocity": 1
                },
                {
                    "duration": 0.10714275000003681,
                    "durationTicks": 30,
                    "midi": 38,
                    "name": "D2",
                    "ticks": 117690,
                    "time": 391.17812825000004,
                    "velocity": 1
                },
                {
                    "duration": 0.4285709999999199,
                    "durationTicks": 120,
                    "midi": 36,
                    "name": "C2",
                    "ticks": 117720,
                    "time": 391.2852710000001,
                    "velocity": 1
                },
                {
                    "duration": 0.21428549999995994,
                    "durationTicks": 60,
                    "midi": 57,
                    "name": "A3",
                    "ticks": 117720,
                    "time": 391.2852710000001,
                    "velocity": 1
                },
                {
                    "duration": 0.10714274999997997,
                    "durationTicks": 30,
                    "midi": 45,
                    "name": "A2",
                    "ticks": 117780,
                    "time": 391.49955650000004,
                    "velocity": 1
                },
                {
                    "duration": 0.10714274999997997,
                    "durationTicks": 30,
                    "midi": 45,
                    "name": "A2",
                    "ticks": 117810,
                    "time": 391.60669925,
                    "velocity": 1
                },
                {
                    "duration": 0.42857100000003356,
                    "durationTicks": 120,
                    "midi": 36,
                    "name": "C2",
                    "ticks": 117840,
                    "time": 391.713842,
                    "velocity": 1
                },
                {
                    "duration": 0.21428550000007363,
                    "durationTicks": 60,
                    "midi": 45,
                    "name": "A2",
                    "ticks": 117840,
                    "time": 391.713842,
                    "velocity": 1
                },
                {
                    "duration": 0.017857125000034557,
                    "durationTicks": 5,
                    "midi": 38,
                    "name": "D2",
                    "ticks": 117895,
                    "time": 391.91027037500004,
                    "velocity": 0.5905511811023622
                },
                {
                    "duration": 0.21428549999995994,
                    "durationTicks": 60,
                    "midi": 38,
                    "name": "D2",
                    "ticks": 117900,
                    "time": 391.9281275000001,
                    "velocity": 1
                },
                {
                    "duration": 0.21428550000001678,
                    "durationTicks": 60,
                    "midi": 36,
                    "name": "C2",
                    "ticks": 117960,
                    "time": 392.14241300000003,
                    "velocity": 1
                },
                {
                    "duration": 0.21428550000001678,
                    "durationTicks": 60,
                    "midi": 57,
                    "name": "A3",
                    "ticks": 117960,
                    "time": 392.14241300000003,
                    "velocity": 1
                },
                {
                    "duration": 0.21428550000001678,
                    "durationTicks": 60,
                    "midi": 36,
                    "name": "C2",
                    "ticks": 118020,
                    "time": 392.35669850000005,
                    "velocity": 1
                },
                {
                    "duration": 0.21428550000001678,
                    "durationTicks": 60,
                    "midi": 57,
                    "name": "A3",
                    "ticks": 118020,
                    "time": 392.35669850000005,
                    "velocity": 1
                },
                {
                    "duration": 0.21428549999995994,
                    "durationTicks": 60,
                    "midi": 57,
                    "name": "A3",
                    "ticks": 118080,
                    "time": 392.57098400000007,
                    "velocity": 1
                },
                {
                    "duration": 0.4285709999999767,
                    "durationTicks": 120,
                    "midi": 36,
                    "name": "C2",
                    "ticks": 118080,
                    "time": 392.57098400000007,
                    "velocity": 1
                },
                {
                    "duration": 0.21428550000001678,
                    "durationTicks": 60,
                    "midi": 42,
                    "name": "F#2",
                    "ticks": 118140,
                    "time": 392.7852695,
                    "velocity": 1
                },
                {
                    "duration": 0.21428550000001678,
                    "durationTicks": 60,
                    "midi": 38,
                    "name": "D2",
                    "ticks": 118200,
                    "time": 392.99955500000004,
                    "velocity": 1
                },
                {
                    "duration": 0.21428550000001678,
                    "durationTicks": 60,
                    "midi": 42,
                    "name": "F#2",
                    "ticks": 118200,
                    "time": 392.99955500000004,
                    "velocity": 1
                },
                {
                    "duration": 0.21428549999995994,
                    "durationTicks": 60,
                    "midi": 42,
                    "name": "F#2",
                    "ticks": 118260,
                    "time": 393.21384050000006,
                    "velocity": 1
                },
                {
                    "duration": 0.21428549999995994,
                    "durationTicks": 60,
                    "midi": 36,
                    "name": "C2",
                    "ticks": 118260,
                    "time": 393.21384050000006,
                    "velocity": 1
                },
                {
                    "duration": 0.21428550000001678,
                    "durationTicks": 60,
                    "midi": 42,
                    "name": "F#2",
                    "ticks": 118320,
                    "time": 393.428126,
                    "velocity": 1
                },
                {
                    "duration": 0.42857100000003356,
                    "durationTicks": 120,
                    "midi": 36,
                    "name": "C2",
                    "ticks": 118320,
                    "time": 393.428126,
                    "velocity": 1
                },
                {
                    "duration": 0.21428550000001678,
                    "durationTicks": 60,
                    "midi": 42,
                    "name": "F#2",
                    "ticks": 118380,
                    "time": 393.64241150000004,
                    "velocity": 1
                },
                {
                    "duration": 0.21428549999995994,
                    "durationTicks": 60,
                    "midi": 38,
                    "name": "D2",
                    "ticks": 118440,
                    "time": 393.85669700000005,
                    "velocity": 1
                },
                {
                    "duration": 0.21428549999995994,
                    "durationTicks": 60,
                    "midi": 42,
                    "name": "F#2",
                    "ticks": 118440,
                    "time": 393.85669700000005,
                    "velocity": 1
                },
                {
                    "duration": 0.21428550000001678,
                    "durationTicks": 60,
                    "midi": 42,
                    "name": "F#2",
                    "ticks": 118500,
                    "time": 394.0709825,
                    "velocity": 1
                },
                {
                    "duration": 0.21428550000001678,
                    "durationTicks": 60,
                    "midi": 36,
                    "name": "C2",
                    "ticks": 118500,
                    "time": 394.0709825,
                    "velocity": 1
                },
                {
                    "duration": 0.21428550000001678,
                    "durationTicks": 60,
                    "midi": 42,
                    "name": "F#2",
                    "ticks": 118560,
                    "time": 394.28526800000003,
                    "velocity": 1
                },
                {
                    "duration": 0.4285709999999767,
                    "durationTicks": 120,
                    "midi": 36,
                    "name": "C2",
                    "ticks": 118560,
                    "time": 394.28526800000003,
                    "velocity": 1
                },
                {
                    "duration": 0.21428549999995994,
                    "durationTicks": 60,
                    "midi": 42,
                    "name": "F#2",
                    "ticks": 118620,
                    "time": 394.49955350000005,
                    "velocity": 1
                },
                {
                    "duration": 0.21428550000007363,
                    "durationTicks": 60,
                    "midi": 38,
                    "name": "D2",
                    "ticks": 118680,
                    "time": 394.713839,
                    "velocity": 1
                },
                {
                    "duration": 0.21428550000007363,
                    "durationTicks": 60,
                    "midi": 42,
                    "name": "F#2",
                    "ticks": 118680,
                    "time": 394.713839,
                    "velocity": 1
                },
                {
                    "duration": 0.21428549999995994,
                    "durationTicks": 60,
                    "midi": 42,
                    "name": "F#2",
                    "ticks": 118740,
                    "time": 394.9281245000001,
                    "velocity": 1
                },
                {
                    "duration": 0.21428549999995994,
                    "durationTicks": 60,
                    "midi": 42,
                    "name": "F#2",
                    "ticks": 118800,
                    "time": 395.14241000000004,
                    "velocity": 1
                },
                {
                    "duration": 0.21428549999995994,
                    "durationTicks": 60,
                    "midi": 36,
                    "name": "C2",
                    "ticks": 118800,
                    "time": 395.14241000000004,
                    "velocity": 1
                },
                {
                    "duration": 0.21428550000007363,
                    "durationTicks": 60,
                    "midi": 42,
                    "name": "F#2",
                    "ticks": 118860,
                    "time": 395.3566955,
                    "velocity": 1
                },
                {
                    "duration": 0.07142850000002454,
                    "durationTicks": 20,
                    "midi": 36,
                    "name": "C2",
                    "ticks": 118860,
                    "time": 395.3566955,
                    "velocity": 1
                },
                {
                    "duration": 0.07142850000002454,
                    "durationTicks": 20,
                    "midi": 36,
                    "name": "C2",
                    "ticks": 118880,
                    "time": 395.428124,
                    "velocity": 1
                },
                {
                    "duration": 0.07142850000002454,
                    "durationTicks": 20,
                    "midi": 36,
                    "name": "C2",
                    "ticks": 118900,
                    "time": 395.49955250000005,
                    "velocity": 1
                },
                {
                    "duration": 0.4285709999999767,
                    "durationTicks": 120,
                    "midi": 57,
                    "name": "A3",
                    "ticks": 118920,
                    "time": 395.5709810000001,
                    "velocity": 1
                },
                {
                    "duration": 0.4285709999999767,
                    "durationTicks": 120,
                    "midi": 38,
                    "name": "D2",
                    "ticks": 118920,
                    "time": 395.5709810000001,
                    "velocity": 1
                },
                {
                    "duration": 0.21428550000001678,
                    "durationTicks": 60,
                    "midi": 57,
                    "name": "A3",
                    "ticks": 119040,
                    "time": 395.99955200000005,
                    "velocity": 1
                },
                {
                    "duration": 0.4285709999999767,
                    "durationTicks": 120,
                    "midi": 36,
                    "name": "C2",
                    "ticks": 119040,
                    "time": 395.99955200000005,
                    "velocity": 1
                },
                {
                    "duration": 0.21428549999995994,
                    "durationTicks": 60,
                    "midi": 42,
                    "name": "F#2",
                    "ticks": 119100,
                    "time": 396.21383750000007,
                    "velocity": 1
                },
                {
                    "duration": 0.21428550000001678,
                    "durationTicks": 60,
                    "midi": 38,
                    "name": "D2",
                    "ticks": 119160,
                    "time": 396.428123,
                    "velocity": 1
                },
                {
                    "duration": 0.21428550000001678,
                    "durationTicks": 60,
                    "midi": 42,
                    "name": "F#2",
                    "ticks": 119160,
                    "time": 396.428123,
                    "velocity": 1
                },
                {
                    "duration": 0.21428550000001678,
                    "durationTicks": 60,
                    "midi": 42,
                    "name": "F#2",
                    "ticks": 119220,
                    "time": 396.64240850000004,
                    "velocity": 1
                },
                {
                    "duration": 0.21428550000001678,
                    "durationTicks": 60,
                    "midi": 36,
                    "name": "C2",
                    "ticks": 119220,
                    "time": 396.64240850000004,
                    "velocity": 1
                },
                {
                    "duration": 0.21428549999995994,
                    "durationTicks": 60,
                    "midi": 42,
                    "name": "F#2",
                    "ticks": 119280,
                    "time": 396.85669400000006,
                    "velocity": 1
                },
                {
                    "duration": 0.4285709999999767,
                    "durationTicks": 120,
                    "midi": 36,
                    "name": "C2",
                    "ticks": 119280,
                    "time": 396.85669400000006,
                    "velocity": 1
                },
                {
                    "duration": 0.21428550000001678,
                    "durationTicks": 60,
                    "midi": 42,
                    "name": "F#2",
                    "ticks": 119340,
                    "time": 397.0709795,
                    "velocity": 1
                },
                {
                    "duration": 0.21428550000001678,
                    "durationTicks": 60,
                    "midi": 38,
                    "name": "D2",
                    "ticks": 119400,
                    "time": 397.28526500000004,
                    "velocity": 1
                },
                {
                    "duration": 0.21428550000001678,
                    "durationTicks": 60,
                    "midi": 42,
                    "name": "F#2",
                    "ticks": 119400,
                    "time": 397.28526500000004,
                    "velocity": 1
                },
                {
                    "duration": 0.21428549999995994,
                    "durationTicks": 60,
                    "midi": 42,
                    "name": "F#2",
                    "ticks": 119460,
                    "time": 397.49955050000005,
                    "velocity": 1
                },
                {
                    "duration": 0.21428549999995994,
                    "durationTicks": 60,
                    "midi": 36,
                    "name": "C2",
                    "ticks": 119460,
                    "time": 397.49955050000005,
                    "velocity": 1
                },
                {
                    "duration": 0.21428550000001678,
                    "durationTicks": 60,
                    "midi": 42,
                    "name": "F#2",
                    "ticks": 119520,
                    "time": 397.713836,
                    "velocity": 1
                },
                {
                    "duration": 0.42857100000003356,
                    "durationTicks": 120,
                    "midi": 36,
                    "name": "C2",
                    "ticks": 119520,
                    "time": 397.713836,
                    "velocity": 1
                },
                {
                    "duration": 0.21428550000001678,
                    "durationTicks": 60,
                    "midi": 42,
                    "name": "F#2",
                    "ticks": 119580,
                    "time": 397.92812150000003,
                    "velocity": 1
                },
                {
                    "duration": 0.21428549999995994,
                    "durationTicks": 60,
                    "midi": 38,
                    "name": "D2",
                    "ticks": 119640,
                    "time": 398.14240700000005,
                    "velocity": 1
                },
                {
                    "duration": 0.21428549999995994,
                    "durationTicks": 60,
                    "midi": 42,
                    "name": "F#2",
                    "ticks": 119640,
                    "time": 398.14240700000005,
                    "velocity": 1
                },
                {
                    "duration": 0.21428550000007363,
                    "durationTicks": 60,
                    "midi": 42,
                    "name": "F#2",
                    "ticks": 119700,
                    "time": 398.3566925,
                    "velocity": 1
                },
                {
                    "duration": 0.21428549999995994,
                    "durationTicks": 60,
                    "midi": 42,
                    "name": "F#2",
                    "ticks": 119760,
                    "time": 398.5709780000001,
                    "velocity": 1
                },
                {
                    "duration": 0.21428549999995994,
                    "durationTicks": 60,
                    "midi": 36,
                    "name": "C2",
                    "ticks": 119760,
                    "time": 398.5709780000001,
                    "velocity": 1
                },
                {
                    "duration": 0.21428549999995994,
                    "durationTicks": 60,
                    "midi": 42,
                    "name": "F#2",
                    "ticks": 119820,
                    "time": 398.78526350000004,
                    "velocity": 1
                },
                {
                    "duration": 0.07142850000002454,
                    "durationTicks": 20,
                    "midi": 36,
                    "name": "C2",
                    "ticks": 119820,
                    "time": 398.78526350000004,
                    "velocity": 1
                },
                {
                    "duration": 0.0714284999999677,
                    "durationTicks": 20,
                    "midi": 36,
                    "name": "C2",
                    "ticks": 119840,
                    "time": 398.85669200000007,
                    "velocity": 1
                },
                {
                    "duration": 0.0714284999999677,
                    "durationTicks": 20,
                    "midi": 36,
                    "name": "C2",
                    "ticks": 119860,
                    "time": 398.92812050000003,
                    "velocity": 1
                },
                {
                    "duration": 0.42857100000003356,
                    "durationTicks": 120,
                    "midi": 57,
                    "name": "A3",
                    "ticks": 119880,
                    "time": 398.999549,
                    "velocity": 1
                },
                {
                    "duration": 0.42857100000003356,
                    "durationTicks": 120,
                    "midi": 38,
                    "name": "D2",
                    "ticks": 119880,
                    "time": 398.999549,
                    "velocity": 1
                },
                {
                    "duration": 0.21428550000001678,
                    "durationTicks": 60,
                    "midi": 57,
                    "name": "A3",
                    "ticks": 120000,
                    "time": 399.42812000000004,
                    "velocity": 1
                },
                {
                    "duration": 0.42857100000003356,
                    "durationTicks": 120,
                    "midi": 36,
                    "name": "C2",
                    "ticks": 120000,
                    "time": 399.42812000000004,
                    "velocity": 1
                },
                {
                    "duration": 0.21428550000001678,
                    "durationTicks": 60,
                    "midi": 42,
                    "name": "F#2",
                    "ticks": 120060,
                    "time": 399.64240550000005,
                    "velocity": 1
                },
                {
                    "duration": 0.21428549999995994,
                    "durationTicks": 60,
                    "midi": 38,
                    "name": "D2",
                    "ticks": 120120,
                    "time": 399.85669100000007,
                    "velocity": 1
                },
                {
                    "duration": 0.21428549999995994,
                    "durationTicks": 60,
                    "midi": 42,
                    "name": "F#2",
                    "ticks": 120120,
                    "time": 399.85669100000007,
                    "velocity": 1
                },
                {
                    "duration": 0.21428550000001678,
                    "durationTicks": 60,
                    "midi": 42,
                    "name": "F#2",
                    "ticks": 120180,
                    "time": 400.07097650000003,
                    "velocity": 1
                },
                {
                    "duration": 0.21428550000001678,
                    "durationTicks": 60,
                    "midi": 36,
                    "name": "C2",
                    "ticks": 120180,
                    "time": 400.07097650000003,
                    "velocity": 1
                },
                {
                    "duration": 0.21428550000001678,
                    "durationTicks": 60,
                    "midi": 42,
                    "name": "F#2",
                    "ticks": 120240,
                    "time": 400.28526200000005,
                    "velocity": 1
                },
                {
                    "duration": 0.4285709999999767,
                    "durationTicks": 120,
                    "midi": 36,
                    "name": "C2",
                    "ticks": 120240,
                    "time": 400.28526200000005,
                    "velocity": 1
                },
                {
                    "duration": 0.21428549999995994,
                    "durationTicks": 60,
                    "midi": 42,
                    "name": "F#2",
                    "ticks": 120300,
                    "time": 400.49954750000006,
                    "velocity": 1
                },
                {
                    "duration": 0.21428550000001678,
                    "durationTicks": 60,
                    "midi": 38,
                    "name": "D2",
                    "ticks": 120360,
                    "time": 400.713833,
                    "velocity": 1
                },
                {
                    "duration": 0.21428550000001678,
                    "durationTicks": 60,
                    "midi": 42,
                    "name": "F#2",
                    "ticks": 120360,
                    "time": 400.713833,
                    "velocity": 1
                },
                {
                    "duration": 0.21428550000001678,
                    "durationTicks": 60,
                    "midi": 42,
                    "name": "F#2",
                    "ticks": 120420,
                    "time": 400.92811850000004,
                    "velocity": 1
                },
                {
                    "duration": 0.21428550000001678,
                    "durationTicks": 60,
                    "midi": 36,
                    "name": "C2",
                    "ticks": 120420,
                    "time": 400.92811850000004,
                    "velocity": 1
                },
                {
                    "duration": 0.21428549999995994,
                    "durationTicks": 60,
                    "midi": 42,
                    "name": "F#2",
                    "ticks": 120480,
                    "time": 401.14240400000006,
                    "velocity": 1
                },
                {
                    "duration": 0.4285709999999767,
                    "durationTicks": 120,
                    "midi": 36,
                    "name": "C2",
                    "ticks": 120480,
                    "time": 401.14240400000006,
                    "velocity": 1
                },
                {
                    "duration": 0.21428550000001678,
                    "durationTicks": 60,
                    "midi": 42,
                    "name": "F#2",
                    "ticks": 120540,
                    "time": 401.3566895,
                    "velocity": 1
                },
                {
                    "duration": 0.21428550000001678,
                    "durationTicks": 60,
                    "midi": 38,
                    "name": "D2",
                    "ticks": 120600,
                    "time": 401.57097500000003,
                    "velocity": 1
                },
                {
                    "duration": 0.21428550000001678,
                    "durationTicks": 60,
                    "midi": 42,
                    "name": "F#2",
                    "ticks": 120600,
                    "time": 401.57097500000003,
                    "velocity": 1
                },
                {
                    "duration": 0.21428549999995994,
                    "durationTicks": 60,
                    "midi": 42,
                    "name": "F#2",
                    "ticks": 120660,
                    "time": 401.78526050000005,
                    "velocity": 1
                },
                {
                    "duration": 0.21428550000007363,
                    "durationTicks": 60,
                    "midi": 42,
                    "name": "F#2",
                    "ticks": 120720,
                    "time": 401.999546,
                    "velocity": 1
                },
                {
                    "duration": 0.21428550000007363,
                    "durationTicks": 60,
                    "midi": 36,
                    "name": "C2",
                    "ticks": 120720,
                    "time": 401.999546,
                    "velocity": 1
                },
                {
                    "duration": 0.21428549999995994,
                    "durationTicks": 60,
                    "midi": 42,
                    "name": "F#2",
                    "ticks": 120780,
                    "time": 402.2138315000001,
                    "velocity": 1
                },
                {
                    "duration": 0.0714284999999677,
                    "durationTicks": 20,
                    "midi": 36,
                    "name": "C2",
                    "ticks": 120780,
                    "time": 402.2138315000001,
                    "velocity": 1
                },
                {
                    "duration": 0.0714284999999677,
                    "durationTicks": 20,
                    "midi": 36,
                    "name": "C2",
                    "ticks": 120800,
                    "time": 402.28526000000005,
                    "velocity": 1
                },
                {
                    "duration": 0.07142850000002454,
                    "durationTicks": 20,
                    "midi": 36,
                    "name": "C2",
                    "ticks": 120820,
                    "time": 402.3566885,
                    "velocity": 1
                },
                {
                    "duration": 0.42857100000003356,
                    "durationTicks": 120,
                    "midi": 57,
                    "name": "A3",
                    "ticks": 120840,
                    "time": 402.42811700000004,
                    "velocity": 1
                },
                {
                    "duration": 0.42857100000003356,
                    "durationTicks": 120,
                    "midi": 38,
                    "name": "D2",
                    "ticks": 120840,
                    "time": 402.42811700000004,
                    "velocity": 1
                },
                {
                    "duration": 0.4285709999999767,
                    "durationTicks": 120,
                    "midi": 36,
                    "name": "C2",
                    "ticks": 120960,
                    "time": 402.8566880000001,
                    "velocity": 1
                },
                {
                    "duration": 0.21428549999995994,
                    "durationTicks": 60,
                    "midi": 57,
                    "name": "A3",
                    "ticks": 120960,
                    "time": 402.8566880000001,
                    "velocity": 1
                },
                {
                    "duration": 0.21428550000001678,
                    "durationTicks": 60,
                    "midi": 42,
                    "name": "F#2",
                    "ticks": 121020,
                    "time": 403.07097350000004,
                    "velocity": 1
                },
                {
                    "duration": 0.21428550000001678,
                    "durationTicks": 60,
                    "midi": 38,
                    "name": "D2",
                    "ticks": 121080,
                    "time": 403.28525900000005,
                    "velocity": 1
                },
                {
                    "duration": 0.21428550000001678,
                    "durationTicks": 60,
                    "midi": 42,
                    "name": "F#2",
                    "ticks": 121080,
                    "time": 403.28525900000005,
                    "velocity": 1
                },
                {
                    "duration": 0.21428549999995994,
                    "durationTicks": 60,
                    "midi": 36,
                    "name": "C2",
                    "ticks": 121140,
                    "time": 403.49954450000007,
                    "velocity": 1
                },
                {
                    "duration": 0.21428549999995994,
                    "durationTicks": 60,
                    "midi": 42,
                    "name": "F#2",
                    "ticks": 121140,
                    "time": 403.49954450000007,
                    "velocity": 1
                },
                {
                    "duration": 0.42857100000003356,
                    "durationTicks": 120,
                    "midi": 36,
                    "name": "C2",
                    "ticks": 121200,
                    "time": 403.71383000000003,
                    "velocity": 1
                },
                {
                    "duration": 0.21428550000001678,
                    "durationTicks": 60,
                    "midi": 42,
                    "name": "F#2",
                    "ticks": 121200,
                    "time": 403.71383000000003,
                    "velocity": 1
                },
                {
                    "duration": 0.21428550000001678,
                    "durationTicks": 60,
                    "midi": 42,
                    "name": "F#2",
                    "ticks": 121260,
                    "time": 403.92811550000005,
                    "velocity": 1
                },
                {
                    "duration": 0.21428549999995994,
                    "durationTicks": 60,
                    "midi": 38,
                    "name": "D2",
                    "ticks": 121320,
                    "time": 404.14240100000006,
                    "velocity": 1
                },
                {
                    "duration": 0.21428549999995994,
                    "durationTicks": 60,
                    "midi": 42,
                    "name": "F#2",
                    "ticks": 121320,
                    "time": 404.14240100000006,
                    "velocity": 1
                },
                {
                    "duration": 0.21428550000001678,
                    "durationTicks": 60,
                    "midi": 36,
                    "name": "C2",
                    "ticks": 121380,
                    "time": 404.3566865,
                    "velocity": 1
                },
                {
                    "duration": 0.21428550000001678,
                    "durationTicks": 60,
                    "midi": 42,
                    "name": "F#2",
                    "ticks": 121380,
                    "time": 404.3566865,
                    "velocity": 1
                },
                {
                    "duration": 0.21428550000001678,
                    "durationTicks": 60,
                    "midi": 42,
                    "name": "F#2",
                    "ticks": 121440,
                    "time": 404.57097200000004,
                    "velocity": 1
                },
                {
                    "duration": 0.4285709999999767,
                    "durationTicks": 120,
                    "midi": 36,
                    "name": "C2",
                    "ticks": 121440,
                    "time": 404.57097200000004,
                    "velocity": 1
                },
                {
                    "duration": 0.21428549999995994,
                    "durationTicks": 60,
                    "midi": 42,
                    "name": "F#2",
                    "ticks": 121500,
                    "time": 404.78525750000006,
                    "velocity": 1
                },
                {
                    "duration": 0.21428550000001678,
                    "durationTicks": 60,
                    "midi": 38,
                    "name": "D2",
                    "ticks": 121560,
                    "time": 404.999543,
                    "velocity": 1
                },
                {
                    "duration": 0.21428550000001678,
                    "durationTicks": 60,
                    "midi": 42,
                    "name": "F#2",
                    "ticks": 121560,
                    "time": 404.999543,
                    "velocity": 1
                },
                {
                    "duration": 0.21428550000001678,
                    "durationTicks": 60,
                    "midi": 42,
                    "name": "F#2",
                    "ticks": 121620,
                    "time": 405.21382850000003,
                    "velocity": 1
                },
                {
                    "duration": 0.21428549999995994,
                    "durationTicks": 60,
                    "midi": 42,
                    "name": "F#2",
                    "ticks": 121680,
                    "time": 405.42811400000005,
                    "velocity": 1
                },
                {
                    "duration": 0.21428549999995994,
                    "durationTicks": 60,
                    "midi": 36,
                    "name": "C2",
                    "ticks": 121680,
                    "time": 405.42811400000005,
                    "velocity": 1
                },
                {
                    "duration": 0.21428550000001678,
                    "durationTicks": 60,
                    "midi": 42,
                    "name": "F#2",
                    "ticks": 121740,
                    "time": 405.6423995,
                    "velocity": 1
                },
                {
                    "duration": 0.07142850000002454,
                    "durationTicks": 20,
                    "midi": 36,
                    "name": "C2",
                    "ticks": 121740,
                    "time": 405.6423995,
                    "velocity": 1
                },
                {
                    "duration": 0.07142850000002454,
                    "durationTicks": 20,
                    "midi": 36,
                    "name": "C2",
                    "ticks": 121760,
                    "time": 405.71382800000003,
                    "velocity": 1
                },
                {
                    "duration": 0.0714284999999677,
                    "durationTicks": 20,
                    "midi": 36,
                    "name": "C2",
                    "ticks": 121780,
                    "time": 405.78525650000006,
                    "velocity": 1
                },
                {
                    "duration": 0.21428550000001678,
                    "durationTicks": 60,
                    "midi": 38,
                    "name": "D2",
                    "ticks": 121800,
                    "time": 405.856685,
                    "velocity": 1
                },
                {
                    "duration": 0.21428550000001678,
                    "durationTicks": 60,
                    "midi": 42,
                    "name": "F#2",
                    "ticks": 121800,
                    "time": 405.856685,
                    "velocity": 1
                },
                {
                    "duration": 0.21428549999995994,
                    "durationTicks": 60,
                    "midi": 42,
                    "name": "F#2",
                    "ticks": 121860,
                    "time": 406.07097050000004,
                    "velocity": 1
                },
                {
                    "duration": 0.21428550000007363,
                    "durationTicks": 60,
                    "midi": 42,
                    "name": "F#2",
                    "ticks": 121920,
                    "time": 406.285256,
                    "velocity": 1
                },
                {
                    "duration": 0.21428550000007363,
                    "durationTicks": 60,
                    "midi": 36,
                    "name": "C2",
                    "ticks": 121920,
                    "time": 406.285256,
                    "velocity": 1
                },
                {
                    "duration": 0.21428549999995994,
                    "durationTicks": 60,
                    "midi": 42,
                    "name": "F#2",
                    "ticks": 121980,
                    "time": 406.4995415000001,
                    "velocity": 1
                },
                {
                    "duration": 0.0714284999999677,
                    "durationTicks": 20,
                    "midi": 36,
                    "name": "C2",
                    "ticks": 121980,
                    "time": 406.4995415000001,
                    "velocity": 1
                },
                {
                    "duration": 0.0714284999999677,
                    "durationTicks": 20,
                    "midi": 36,
                    "name": "C2",
                    "ticks": 122000,
                    "time": 406.57097000000005,
                    "velocity": 1
                },
                {
                    "duration": 0.07142850000002454,
                    "durationTicks": 20,
                    "midi": 36,
                    "name": "C2",
                    "ticks": 122020,
                    "time": 406.6423985,
                    "velocity": 1
                },
                {
                    "duration": 0.42857100000003356,
                    "durationTicks": 120,
                    "midi": 38,
                    "name": "D2",
                    "ticks": 122040,
                    "time": 406.71382700000004,
                    "velocity": 1
                },
                {
                    "duration": 0.42857100000003356,
                    "durationTicks": 120,
                    "midi": 57,
                    "name": "A3",
                    "ticks": 122040,
                    "time": 406.71382700000004,
                    "velocity": 1
                },
                {
                    "duration": 0.4285709999999767,
                    "durationTicks": 120,
                    "midi": 36,
                    "name": "C2",
                    "ticks": 122520,
                    "time": 408.42811100000006,
                    "velocity": 1
                },
                {
                    "duration": 0.4285709999999767,
                    "durationTicks": 120,
                    "midi": 57,
                    "name": "A3",
                    "ticks": 122520,
                    "time": 408.42811100000006,
                    "velocity": 1
                },
                {
                    "duration": 0.4285709999999767,
                    "durationTicks": 120,
                    "midi": 57,
                    "name": "A3",
                    "ticks": 123000,
                    "time": 410.1423950000001,
                    "velocity": 1
                },
                {
                    "duration": 0.4285709999999767,
                    "durationTicks": 120,
                    "midi": 36,
                    "name": "C2",
                    "ticks": 123000,
                    "time": 410.1423950000001,
                    "velocity": 1
                },
                {
                    "duration": 0.21428550000001678,
                    "durationTicks": 60,
                    "midi": 42,
                    "name": "F#2",
                    "ticks": 123480,
                    "time": 411.85667900000004,
                    "velocity": 1
                },
                {
                    "duration": 0.21428550000001678,
                    "durationTicks": 60,
                    "midi": 36,
                    "name": "C2",
                    "ticks": 123480,
                    "time": 411.85667900000004,
                    "velocity": 1
                },
                {
                    "duration": 0.21428549999995994,
                    "durationTicks": 60,
                    "midi": 42,
                    "name": "F#2",
                    "ticks": 123540,
                    "time": 412.07096450000006,
                    "velocity": 1
                },
                {
                    "duration": 0.21428549999995994,
                    "durationTicks": 60,
                    "midi": 36,
                    "name": "C2",
                    "ticks": 123540,
                    "time": 412.07096450000006,
                    "velocity": 1
                },
                {
                    "duration": 0.21428550000001678,
                    "durationTicks": 60,
                    "midi": 42,
                    "name": "F#2",
                    "ticks": 123600,
                    "time": 412.28525,
                    "velocity": 1
                },
                {
                    "duration": 0.42857100000003356,
                    "durationTicks": 120,
                    "midi": 36,
                    "name": "C2",
                    "ticks": 123600,
                    "time": 412.28525,
                    "velocity": 1
                },
                {
                    "duration": 0.21428550000001678,
                    "durationTicks": 60,
                    "midi": 38,
                    "name": "D2",
                    "ticks": 123660,
                    "time": 412.49953550000004,
                    "velocity": 1
                },
                {
                    "duration": 0.21428550000001678,
                    "durationTicks": 60,
                    "midi": 42,
                    "name": "F#2",
                    "ticks": 123660,
                    "time": 412.49953550000004,
                    "velocity": 1
                },
                {
                    "duration": 0.4285709999999767,
                    "durationTicks": 120,
                    "midi": 36,
                    "name": "C2",
                    "ticks": 123720,
                    "time": 412.71382100000005,
                    "velocity": 1
                },
                {
                    "duration": 0.4285709999999767,
                    "durationTicks": 120,
                    "midi": 38,
                    "name": "D2",
                    "ticks": 123720,
                    "time": 412.71382100000005,
                    "velocity": 1
                },
                {
                    "duration": 0.4285709999999767,
                    "durationTicks": 120,
                    "midi": 57,
                    "name": "A3",
                    "ticks": 123720,
                    "time": 412.71382100000005,
                    "velocity": 1
                }
            ],
            "endOfTrackTicks": 123840
        },
        {
            "channel": 0,
            "controlChanges": {},
            "pitchBends": [],
            "instrument": {
                "family": "piano",
                "number": 0,
                "name": "acoustic grand piano"
            },
            "name": " ",
            "notes": [],
            "endOfTrackTicks": 0
        },
        {
            "channel": 0,
            "controlChanges": {},
            "pitchBends": [],
            "instrument": {
                "family": "piano",
                "number": 0,
                "name": "acoustic grand piano"
            },
            "name": "Seek & Destroy",
            "notes": [],
            "endOfTrackTicks": 0
        },
        {
            "channel": 0,
            "controlChanges": {},
            "pitchBends": [],
            "instrument": {
                "family": "piano",
                "number": 0,
                "name": "acoustic grand piano"
            },
            "name": "by Metallica",
            "notes": [],
            "endOfTrackTicks": 0
        },
        {
            "channel": 0,
            "controlChanges": {},
            "pitchBends": [],
            "instrument": {
                "family": "piano",
                "number": 0,
                "name": "acoustic grand piano"
            },
            "name": " ",
            "notes": [],
            "endOfTrackTicks": 0
        },
        {
            "channel": 0,
            "controlChanges": {},
            "pitchBends": [],
            "instrument": {
                "family": "piano",
                "number": 0,
                "name": "acoustic grand piano"
            },
            "name": "Transcribed by",
            "notes": [],
            "endOfTrackTicks": 0
        },
        {
            "channel": 0,
            "controlChanges": {},
            "pitchBends": [],
            "instrument": {
                "family": "piano",
                "number": 0,
                "name": "acoustic grand piano"
            },
            "name": "King Diamond",
            "notes": [],
            "endOfTrackTicks": 0
        }
    ]
}
