<?xml version="1.0" standalone="no"?>
<!DOCTYPE svg PUBLIC "-//W3C//DTD SVG 20010904//EN"
    "http://www.w3.org/TR/2001/REC-SVG-20010904/DTD/svg10.dtd">
<svg xmlns="http://www.w3.org/2000/svg" xmlns:xlink="http://www.w3.org/1999/xlink" width="300" height="300" viewBox="0 0 500 500" class="svg" preserveAspectRatio="xMidYMid " style="width: 512px; height: 512px;">
    <path fill-rule="evenodd" clip-rule="evenodd" d="M78.62,130.216c7.754-1.425,6.355,12.057-0.917,9.475
	C73.724,138.278,73.845,131.093,78.62,130.216z" id="path-0" style="position: relative;"></path>
    <path fill-rule="evenodd" clip-rule="evenodd" d="M61.503,144.581c1.925-15.306,15.11-27.327,27.202-32.397
	c13.968-5.857,29.567-11.9,44.928-14.67c1.218-8.41,5.433-15.282,14.06-15.282c-1.943-0.397-3.706-1.416-5.501-2.445
	c-2.105-1.207-3.915-1.609-3.362-3.668c1.103-4.109,4.573-0.703,6.418,0.306c7.485,4.096,12.795,1.432,19.561-2.445
	c3.504-2.007,8.301-7.178,10.086-1.528c0.033,1.049-2.065,2.135-3.667,3.057c-1.472,0.847-4.195,1.563-3.667,2.445
	c11.944-1.918,16.336,8.897,17.421,19.866c0.213,1.213-0.533,3.385,0.611,3.667c19.97,11.506,38.272,23.796,44.624,48.597
	c3.287,12.836,5.363,25.089,10.086,36.371c4.551,10.871,9.853,20.583,17.116,29.647c13.784,17.203,31.826,30.875,49.513,43.706
	c18.08,13.116,36.135,27.044,65.101,28.425c1.025,0.706,3.357,0.107,4.891,0.306c1.019,0,2.037,0,3.056,0
	c2.143-0.201,5.091,0.403,6.726-0.306c1.222,0,2.444,0,3.667,0c1.432-0.198,3.659,0.399,4.584-0.306
	c19.585-1.539,33.687,5.524,45.541,13.754c10.49,7.282,23.247,19.367,27.812,32.092c0,0.407,0,0.814,0,1.222
	c-0.357,0.05-0.257,0.558-0.305,0.918c-3.819,2.714-8.275,0.395-11.614-0.918c-10.571-4.153-20.345-9.731-33.009-11.614
	c-0.627-0.506-3.347-0.506-3.974,0c-10.683,2.053-16.87,8.6-23.84,14.365c-1.554,1.299-2.979,2.725-4.278,4.279
	c-1.758,1.503-3.388,3.133-4.891,4.891c-1.35,1.094-2.573,2.317-3.668,3.667c-2.011,2.268-4.283,4.275-6.113,6.724
	c-2.368,2.114-4.608,4.356-6.724,6.725c-7.467,6.593-15.294,12.825-24.45,17.728c-1.535,15.987-3.1,31.947-4.279,48.29
	c-0.688,0.229-0.12,1.715-0.305,2.445c-0.816,0-1.631,0-2.446,0c-4.137,0.049-6.823,2.237-9.779,4.89
	c-3.967,3.561-7.745,8.29-7.337,16.2c-1.072,1.264,0.516,3.122-0.609,3.972c-0.963,0.728-2.369-0.498-3.975,0
	c0-0.814,0-1.63,0-2.444c0.144-8.517,2.149-15.17,7.03-18.95c0.725-0.471,3.358-2.978,2.14-2.444
	c-8.587,2.008-11.352,9.84-14.061,17.728c-1.428-0.304-2.544-0.92-3.972-1.224c2.254-8.137,5.48-15.301,12.225-18.948
	c0.692-0.144,2.46-0.773,1.833-1.224c-0.375,0.644-1.84,0.197-2.139,0.917c-5.53,1.5-9.944,4.114-12.226,8.864
	c-1.429-0.608-2.65-1.425-3.668-2.446c3.939-7.369,11.771-10.846,21.7-12.225c1.834,0,3.668,0,5.502,0
	c2.138,0.205,3.756,0.93,5.502,1.527c2.094-13.492,2.544-28.63,4.279-42.483c-6.122,2.539-12.409,4.911-19.563,6.419
	c-2.928,10.521-5.646,21.25-8.251,32.092c-2.066-0.481-3.888-0.271-5.195-0.918c-9.073,3.257-15.566,9.09-16.2,20.784
	c-0.866,0.318-3.045-0.316-4.278-0.61c0.881-10.429,5.208-17.41,12.53-21.396c-9.087,0.693-11.955,7.606-15.281,14.059
	c-1.758-0.075-2.381-1.286-3.973-1.527c3.14-6.844,6.48-13.487,14.059-15.894c0.721,0.007,0.899-0.525,1.834-0.305
	c-0.428-0.507-2.935-0.507-3.362,0c-5.362,0.24-8.116,3.089-11.309,5.501c-0.66-1.071-1.685-1.779-2.75-2.445
	c4.233-8.491,23.297-10.512,30.869-3.667c2.253-8.139,4.28-16.503,6.419-24.758c-22.685,2.393-42.666-3.123-58.988-11.002
	c-12.892-6.223-23.99-13.001-33.621-21.7c-20.069-18.129-30.934-44.362-36.371-73.966c-3.679,1.732-7,6.441-10.698,9.17
	c1.418,2.658,2.384,5.767,2.751,9.475c0,1.223,0,2.445,0,3.669c0,0.305,0,0.609,0,0.916c-1.161,0.783-2.029-0.901-3.361-0.916
	c-0.068-0.239-0.256-0.356-0.612-0.307c-0.899-0.527,0.288-3.141-0.611-3.668c0.166-2.508-0.998-3.688-1.222-5.807
	c-3.475,2.23-5.75,5.661-9.169,7.946c-0.691-1.347-2.312-1.763-2.75-3.362c3.151-2.554,6.033-5.378,8.863-8.251
	c-4.791-1.886-8.689,1.721-11.614,3.667c-1.283-0.857-2.065-2.214-2.751-3.667c3.19-1.803,5.811-4.175,10.086-4.891
	c1.02,0,2.038,0,3.057,0c1.865,0.172,3.091,0.983,4.279,1.834c3.512-2.5,6.264-5.759,9.475-8.558
	c0.882-1.061,3.362-2.133,2.75-3.669c-0.449-3.932-1.116-7.645-1.833-11.308c-7.437,2.65-14.753,5.419-22.006,8.252
	c0.855,5.232-0.244,10.614-2.139,14.06c-1.33,0.417-1.944-2.266-3.363-2.751c0.821-2.673,1.925-6.247,1.223-9.475
	c-3.092,0.477-7.097,2.682-10.697,3.668c-0.329-1.507-1.318-2.35-1.529-3.975c3.436-1.353,6.937-2.641,10.392-3.973
	c0.056-0.979-1.921-2.556-3.973-2.445c-0.626-0.507-3.347-0.507-3.973,0c-1.617-0.089-2.526,0.531-3.973,0.611
	c-0.372-1.359-0.789-2.675-0.917-4.279c2.087-0.153,3.409-1.072,5.807-0.916c1.019,0,2.038,0,3.056,0
	c4.374,0.312,6.627,2.745,8.864,5.195c7.527-2.864,15.18-5.603,22.617-8.558c-1.168-6.997-2.228-14.338-3.667-21.395
	c-1.333-6.534-2.64-14.019-6.725-18.033c-7.416-7.289-20.132-7.133-35.148-7.335c-0.929,0.192-2.632-0.391-3.056,0.306
	c-16.161,1.431-37.379,6.155-54.404,0.917c-4.503-1.386-10.814-3.556-11.615-7.642c-0.982-5.021,3.206-6.122,6.418-7.641
	c2.259-7.318,5.139-14.016,7.336-21.395c3.2,4.273,6.737,8.527,10.392,13.448c0.993,1.337,2.163,4.175,3.973,3.974
	c2.208-0.247,4.218-8.199,4.891-10.086c1.592-4.47,2.466-7.426,3.667-11.309c5.155,5.032,8.702,11.674,13.448,17.116
	c1.738,0.108,2.623-0.637,4.279-0.611c2.491-6.984,5.167-13.782,7.336-21.089c4.758,5.226,8.271,11.698,13.142,16.811
	c3.946-1.258,4.248-6.523,5.502-10.086c1.367-3.884,2.986-7.685,3.974-11.309c3.623,3.507,6.069,8.194,9.474,11.92
	c-3.054-7.134-5.513-14.863-8.863-21.701c-5.136,6.173-8.625,13.992-13.143,20.783c-3.124-7.268-6.007-14.776-8.864-22.311
	c-4.909,6.297-8.042,14.371-13.143,20.478c-2.497-6.978-5.366-13.583-7.947-20.478c-4.331,6.467-8.382,13.216-12.225,20.172
	c-3.383-6.804-5.99-14.386-8.864-21.7c-4.59,6.719-8.635,13.983-12.836,21.089c-3.521-6.871-5.941-14.842-9.169-22.006
	c-0.824-0.704-2.948-0.108-4.279-0.306c-0.696-1.749-1.281-3.609-1.834-5.501C61.503,146.619,61.503,145.601,61.503,144.581z
	 M138.524,102.709c0.436-4.306,1.444-9.587,5.501-9.475c7.297,0.202,7.798,24.441-1.834,21.395c1.534,3.437,5.862,2.569,7.946,0.611
	c6.174-5.797,6.086-27.898-3.667-28.425c-7.141-0.385-9.618,10.918-8.558,18.95c0.278,1.556,0.453,3.215,1.223,4.279
	C138.609,107.922,138.391,105.491,138.524,102.709z M161.447,81.62c0.539-0.646,2.095-1.18,1.528-1.834
	c-3.197,2.436-8.77,3.68-13.753,3.362c4.053,1.042,5.517,4.671,7.641,7.641C157.951,87.573,159.583,83.851,161.447,81.62z
	 M160.53,97.819c0.887-3.692,1.81-8.08,5.807-7.947c8.222,0.274,8.47,27.666-2.139,24.757c2.281,3.367,6.794,4.852,10.392,2.14
	c7.296-5.5,8.452-26.545,0.306-33.314c-7.617-6.331-14.908,5.383-14.671,14.365c-0.379,2.407-0.443,4.553,0,1.222
	C160.28,98.623,160.69,98.461,160.53,97.819z M370.809,292.815c-6.851-2.113-14.69-3.24-22.312-4.584c0,0.102,0,0.204,0,0.306
	c-4.621-1.798-9.806-3.031-13.447-5.808c-5.34-2.811-10.395-5.905-15.895-8.559c-5.043-3.003-9.423-6.672-14.058-10.086
	c-0.103,0-0.205,0-0.307,0c0-0.101,0-0.202,0-0.305c-4.99-3.878-9.874-9.478-14.977-12.226c0,0.306,0,0.611,0,0.916
	c-6.317-4.48-12.041-9.557-17.726-14.669c-3.512-3.926-7.435-9.07-11.003-11.92c0,0.102,0,0.204,0,0.306
	c-3.303-1.297-5.588-6.22-8.559-8.864c-2.836-4.907-5.442-10.043-8.558-14.67c-0.065,0.343-0.339,0.476-0.611,0.611
	c-4.759-8.293-8.699-17.31-11.614-27.202c-3.042-10.324-4.273-21.246-7.947-31.175c-7.142-19.304-22.617-28.886-39.122-38.816
	c-1.436,8.899-8.674,20.703-19.255,15.588c-4.062-1.963-5.741-6.296-8.252-10.392c-1.854,5.995-6.769,12.157-14.365,9.781
	c-6.597-2.064-9.006-10.787-9.78-18.95c-21.628,6.273-46.374,11.045-58.988,26.285c-4.197,5.07-8.938,11.705-7.641,20.478
	c30.881,0.025,61.181,0.709,88.94,4.279c15.029,1.933,30.253,4.093,39.427,10.392c1.273,0.875,2.554,2.228,3.362,3.362
	c5.767,8.092-3.506,11.91-10.086,14.365c-5.469,2.041-11.319,3.773-15.282,4.89c-27.058,7.628-55.101,12.601-83.744,17.421
	c-5.572,0.938-11.764,1.165-15.894,4.585c15.875,13.236,45.046,3.792,66.323,3.056c11.729-0.405,24.215,0.39,33.01,5.808
	c9.008,5.549,11.053,19.067,13.142,31.48c1.508,8.961,3.111,17.884,4.279,26.896c3.852-2.967,9.4-8.529,13.753-12.531
	c0.97-0.892,3.651-4.318,4.584-4.279c1.271,0.055,2.14,3.267,3.057,3.362c-4.102,3.967-10.462,9.563-15.282,14.06
	c-1.211,1.13-4.608,3.86-4.89,5.195c-0.468,2.217,1.546,4.63,1.528,7.03c39.301-0.215,69.242,12.373,92.608,28.729
	c21.718,15.203,40.472,35.122,44.317,66.629c4.332-1.066,7.864-2.936,11.614-4.584c0.425-4.058,0.581-8.386,1.223-12.226
	c1.404,0.227,3.151,0.108,4.279,0.611c0.004,3.061-0.658,5.454-0.611,8.557c19.509-9.905,33.927-31.042,51.348-45.539
	c7.032-5.854,15.866-12.873,27.2-11.614c13.992,1.553,25.895,10.826,38.511,13.447c-6.013-10.437-13.549-18.406-22.923-25.367
	c-8.882-6.596-20.138-13.585-34.231-14.365C395.438,291.928,381.939,293.622,370.809,292.815z M72.507,153.445
	c1.518,4.187,3.09,8.32,4.89,12.226c2.477-4.043,4.923-8.118,7.336-12.226c-2.14,0-4.279,0-6.418,0
	C77.083,152.937,73.737,152.937,72.507,153.445z M100.319,153.75c-2.104-0.035-4.442,0.164-6.113-0.306
	c1.083,4.622,3.175,8.235,4.585,12.531c3.125-3.395,4.961-8.08,7.641-11.92c-0.102,0-0.204,0-0.306,0
	C104.797,153.348,102.157,153.951,100.319,153.75z M116.518,154.362c-0.537,0.176-1.795-0.369-1.833,0.306
	c2.052,3.653,3.072,8.339,5.196,11.92c2.348-3.866,4.704-7.726,7.029-11.615c-2.344-0.101-4.412-0.478-7.029-0.305
	C119.357,153.968,117.547,154.555,116.518,154.362z M136.385,155.584c1.603,4.409,3.229,8.793,5.196,12.837
	c2.095-4.017,4.693-7.533,6.724-11.614C144.499,156.232,140.245,156.105,136.385,155.584z M159.308,158.335
	c1.412,4.294,3.042,8.369,4.89,12.226c1.878-3.726,4.364-6.844,6.113-10.697C166.535,159.461,163.273,158.547,159.308,158.335z
	 M195.373,171.477c0.263-5.226-15.102-9.319-20.478-10.391c-3.888,6.401-7.717,12.862-11.614,19.255
	c0.997,0.836,1.596,2.071,2.445,3.057c2.009-0.436,3.83-1.061,5.807-1.529c2.407-6.354,4.414-13.109,7.03-19.254
	c3.303,4.644,6.361,9.532,10.392,13.448C191.234,174.613,195.227,174.374,195.373,171.477z M179.479,172.089
	c-0.626,3.042-1.879,5.456-2.751,8.252c2.51-0.75,4.954-1.566,7.336-2.445C182.715,175.781,181.485,173.547,179.479,172.089z
	 M154.723,176.368c-1.258,3.428-2.494,6.879-3.667,10.392c3.554-0.418,6.499-1.447,9.78-2.14
	C159.099,181.569,156.97,178.91,154.723,176.368z M132.106,181.258c-1.258,3.428-2.494,6.879-3.667,10.392
	c3.548-0.425,6.537-1.41,10.086-1.834C136.629,186.719,134.566,183.79,132.106,181.258z M107.043,185.537
	c-1.088,3.801-2.712,7.067-3.667,11.002c3.519-0.761,7.452-1.106,10.698-2.14C111.605,191.57,109.857,188.021,107.043,185.537z
	 M83.815,189.816c-0.958,3.829-2.349,7.228-3.667,10.698c3.718-0.255,6.579-1.368,10.392-1.529
	C89.416,196.017,86.39,192.348,83.815,189.816z M193.845,293.427c5.273,23.559,14.482,43.182,28.73,57.766
	c0.891,1.147,1.91,2.166,3.057,3.057c21.9,18.276,48.112,34.823,88.635,33.009c0.187-0.009,0.361-0.053,0.305-0.306
	c4.083-0.094,7.185-1.17,10.698-1.834c-1.745-22.197-12.194-35.689-23.535-48.29c-1.299-1.555-2.725-2.98-4.278-4.279
	c-20.334-18.585-45.456-32.38-78.855-37.899c-5.918-1.212-12.366-1.896-19.56-1.834
	C198.158,292.456,192.799,291.858,193.845,293.427z" id="path-1" style="position: relative;"></path>
    <path fill-rule="evenodd" clip-rule="evenodd" fill="#FFFFFF" d="M137.913,105.765c-1.06-8.032,1.417-19.334,8.558-18.95
	c9.753,0.527,9.841,22.628,3.667,28.425c-2.084,1.958-6.412,2.825-7.946-0.611c9.632,3.046,9.131-21.193,1.834-21.395
	c-4.058-0.112-5.065,5.169-5.501,9.475C137.631,103.039,138.806,105.436,137.913,105.765z" id="path-2" style="position: relative;"></path>
    <path fill-rule="evenodd" clip-rule="evenodd" fill="#800080" d="M335.05,282.729c3.642,2.776,8.826,4.01,13.447,5.808
	c0,2.343,0,4.687,0,7.029c-0.71,1.736-0.104,4.785-0.305,7.029c0,2.344,0,4.687,0,7.03c-0.71,1.735-0.105,4.785-0.307,7.03
	c0,2.241,0,4.481,0,6.723c-0.698,0.523-0.112,2.333-0.306,3.363c0.09,0.726,0.827-0.34,0.917-0.612
	c7.395-11.148,14.853-22.232,22.312-33.314c11.131,0.807,24.63-0.888,35.148-0.306c14.094,0.78,25.35,7.77,34.231,14.365
	c9.374,6.961,16.91,14.931,22.923,25.367c-12.616-2.621-24.519-11.895-38.511-13.447c-11.334-1.259-20.168,5.761-27.2,11.614
	c-17.421,14.497-31.839,35.634-51.348,45.539c-0.047-3.103,0.615-5.496,0.611-8.557c-1.128-0.503-2.875-0.385-4.279-0.611
	c-0.642,3.84-0.798,8.168-1.223,12.226c-3.75,1.648-7.282,3.518-11.614,4.584c-3.846-31.507-22.6-51.426-44.317-66.629
	c-23.366-16.356-53.307-28.944-92.608-28.729c0.018-2.4-1.997-4.813-1.528-7.03c0.282-1.335,3.679-4.065,4.89-5.195
	c4.819-4.496,11.18-10.093,15.282-14.06c-0.917-0.096-1.786-3.308-3.057-3.362c-0.933-0.039-3.614,3.388-4.584,4.279
	c-4.354,4.002-9.902,9.564-13.753,12.531c-1.168-9.013-2.771-17.936-4.279-26.896c-2.089-12.413-4.134-25.931-13.142-31.48
	c-8.795-5.418-21.281-6.213-33.01-5.808c-21.277,0.736-50.448,10.181-66.323-3.056c4.13-3.42,10.322-3.647,15.894-4.585
	c28.644-4.821,56.686-9.793,83.744-17.421c3.963-1.117,9.813-2.849,15.282-4.89c6.58-2.455,15.853-6.272,10.086-14.365
	c-0.808-1.135-2.089-2.488-3.362-3.362c-9.174-6.298-24.398-8.458-39.427-10.392c-27.759-3.57-58.06-4.254-88.94-4.279
	c-1.297-8.773,3.444-15.408,7.641-20.478c12.615-15.24,37.36-20.012,58.988-26.285c0.774,8.163,3.183,16.886,9.78,18.95
	c7.597,2.376,12.511-3.786,14.365-9.781c2.511,4.096,4.19,8.429,8.252,10.392c10.581,5.115,17.82-6.689,19.255-15.588
	c16.504,9.93,31.98,19.512,39.122,38.816c3.673,9.929,4.904,20.852,7.947,31.175c2.915,9.892,6.855,18.909,11.614,27.202
	c0,0.102,0,0.204,0,0.306c-8.243,10.401-16.459,20.829-24.451,31.481c11.786-4.82,22.967-10.246,34.843-14.977
	c0.098-1.422-0.948-1.7-1.223-2.751c2.971,2.644,5.256,7.566,8.559,8.864c-5.46,13.796-10.74,27.771-15.895,41.873
	c-0.296,0.008-0.236,0.374-0.305,0.611c0.836,0.114,2.219-1.849,3.056-2.751c1.811-1.349,3.081-3.237,4.891-4.585
	c2.878-2.624,5.629-5.374,8.253-8.253c1.81-1.348,3.08-3.235,4.889-4.584c2.58-2.719,6.64-5.585,7.947-8.558
	c-0.423-0.902-1.411-1.237-1.833-2.139c5.685,5.113,11.408,10.189,17.726,14.669c-4.774,13.868-9.282,28.004-14.059,41.874
	c0.994,0.171,2.061-2.212,3.056-3.058c1.25-0.992,2.37-2.113,3.363-3.361c0.315-0.805,1.212-1.029,1.527-1.834
	c1.248-0.993,2.369-2.113,3.362-3.362c0.316-0.804,1.212-1.028,1.528-1.833c1.147-0.893,2.166-1.911,3.056-3.057
	c0.423-0.902,1.412-1.238,1.835-2.14c1.146-0.892,2.164-1.91,3.056-3.057c0.423-0.901,1.411-1.237,1.833-2.14
	c1.147-0.891,2.166-1.909,3.058-3.057c0.992-1.247,2.113-2.368,3.361-3.362c0.102,0,0.204,0,0.307,0
	c4.635,3.414,9.015,7.083,14.058,10.086c-4.469,12.239-7.315,26.101-11.002,39.122c9.084-8.644,17.968-20.134,27.202-29.646
	C335.44,283.152,335.066,283.12,335.05,282.729z M77.702,139.691c7.272,2.582,8.671-10.9,0.917-9.475
	C73.845,131.093,73.724,138.278,77.702,139.691z" id="path-3" style="position: relative;"></path>
    <path fill-rule="evenodd" clip-rule="evenodd" fill="#DE00EA" d="M289.814,252.471c0-0.305,0-0.61,0-0.916
	c5.103,2.748,9.986,8.348,14.977,12.226c0,0.103,0,0.204,0,0.305c-1.248,0.994-2.369,2.115-3.361,3.362
	c-1.146,0.891-2.166,1.911-3.058,3.057c-0.422,0.902-1.41,1.238-1.833,2.14c-1.146,0.892-2.165,1.91-3.056,3.057
	c-0.423,0.901-1.412,1.237-1.835,2.14c-1.146,0.891-2.165,1.909-3.056,3.057c-0.316,0.805-1.212,1.029-1.528,1.833
	c-1.249,0.993-2.369,2.114-3.362,3.362c-0.315,0.805-1.212,1.029-1.527,1.834c-1.25,0.992-2.37,2.113-3.363,3.361
	c-0.995,0.846-2.062,3.229-3.056,3.058C280.532,280.475,285.04,266.339,289.814,252.471z" id="path-4" style="position: relative;"></path>
    <path fill-rule="evenodd" clip-rule="evenodd" fill="#DE00EA" d="M261.086,226.187c0-0.102,0-0.204,0-0.306
	c3.568,2.851,7.491,7.994,11.003,11.92c0.422,0.901,1.41,1.237,1.833,2.139c-2.166,3.336-5.527,5.477-7.947,8.558
	c-1.809,1.349-3.079,3.236-4.889,4.584c-2.879,2.624-5.629,5.375-8.253,8.253c-1.81,1.348-3.08,3.236-4.891,4.585
	c-1.045,0.391-1.962,2.508-2.751,2.14C250.346,253.957,255.626,239.983,261.086,226.187z" id="path-5" style="position: relative;"></path>
    <path fill-rule="evenodd" clip-rule="evenodd" fill="#DE00EA" d="M252.527,217.323c0.274,1.051,1.32,1.329,1.223,2.751
	c-11.876,4.731-23.057,10.157-34.843,14.977c7.992-10.652,16.208-21.08,24.451-31.481c0-0.102,0-0.204,0-0.306
	c0.272-0.135,0.546-0.269,0.611-0.611" id="path-6" style="position: relative;"></path>
    <path fill-rule="evenodd" clip-rule="evenodd" fill="#FFFFFF" d="M106.126,154.056c0.102,0,0.204,0,0.306,0
	c-2.68,3.84-4.515,8.525-7.641,11.92c-1.41-4.296-3.501-7.909-4.585-12.531c1.67,0.47,4.009,0.271,6.113,0.306
	C101.649,154.458,104.289,153.856,106.126,154.056z" id="path-7" style="position: relative;"></path>
    <path fill-rule="evenodd" clip-rule="evenodd" fill="#FFFFFF" d="M184.064,177.896c-2.382,0.879-4.826,1.695-7.336,2.445
	c0.872-2.796,2.125-5.21,2.751-8.252C181.485,173.547,182.715,175.781,184.064,177.896z" id="path-8" style="position: relative;"></path>
    <path fill-rule="evenodd" clip-rule="evenodd" fill="#FFFFFF" d="M160.836,184.62c-3.281,0.692-6.226,1.721-9.78,2.14
	c1.173-3.513,2.409-6.964,3.667-10.392C156.97,178.91,159.099,181.569,160.836,184.62z" id="path-9" style="position: relative;"></path>
    <path fill-rule="evenodd" clip-rule="evenodd" fill="#FFFFFF" d="M138.524,189.816c-3.549,0.424-6.538,1.409-10.086,1.834
	c1.173-3.513,2.409-6.964,3.667-10.392C134.566,183.79,136.629,186.719,138.524,189.816z" id="path-10" style="position: relative;"></path>
    <path fill-rule="evenodd" clip-rule="evenodd" fill="#FFFFFF" d="M114.074,194.4c-3.246,1.033-7.179,1.379-10.698,2.14
	c0.955-3.935,2.579-7.201,3.667-11.002C109.857,188.021,111.605,191.57,114.074,194.4z" id="path-11" style="position: relative;"></path>
    <path fill-rule="evenodd" clip-rule="evenodd" fill="#FFFFFF" d="M90.539,198.985c-3.813,0.161-6.674,1.273-10.392,1.529
	c1.318-3.47,2.709-6.869,3.667-10.698C86.39,192.348,89.416,196.017,90.539,198.985z" id="path-12" style="position: relative;"></path>
    <path fill-rule="evenodd" clip-rule="evenodd" fill="#C900D2" d="M218.601,294.649c33.399,5.52,58.521,19.314,78.855,37.899
	c1.299,1.554,2.725,2.98,4.278,4.279c11.341,12.601,21.79,26.093,23.535,48.29c-3.514,0.664-6.615,1.74-10.698,1.834
	c-32.59-30.065-63.763-61.548-95.97-91.998C218.601,294.854,218.601,294.752,218.601,294.649z" id="path-13" style="position: relative;"></path>
    <path fill-rule="evenodd" clip-rule="evenodd" fill="#FFFFFF" d="M78.314,153.445c2.139,0,4.279,0,6.418,0
	c-2.413,4.108-4.859,8.183-7.336,12.226c-1.799-3.906-3.372-8.039-4.89-12.226C74.442,153.445,76.378,153.445,78.314,153.445z" id="path-14" style="position: relative;"></path>
    <path fill-rule="evenodd" clip-rule="evenodd" fill="#FFFFFF" d="M119.88,154.667c2.617-0.172,4.686,0.205,7.029,0.305
	c-2.326,3.889-4.681,7.749-7.029,11.615c-2.124-3.581-3.144-8.267-5.196-11.92c0.039-0.675,1.296-0.129,1.833-0.306
	C117.041,155.061,118.852,154.474,119.88,154.667z" id="path-15" style="position: relative;"></path>
    <path fill-rule="evenodd" clip-rule="evenodd" fill="#FFFFFF" d="M170.311,159.863c-1.75,3.854-4.235,6.971-6.113,10.697
	c-1.849-3.856-3.479-7.931-4.89-12.226C163.273,158.547,166.535,159.461,170.311,159.863z" id="path-16" style="position: relative;"></path>
    <path fill-rule="evenodd" clip-rule="evenodd" fill="#DE00EA" d="M199.041,292.815c7.194-0.063,13.642,0.622,19.56,1.834
	c0,0.103,0,0.204,0,0.305c32.208,30.45,63.38,61.933,95.97,91.998c0.057,0.253-0.118,0.297-0.305,0.306
	c-40.523,1.814-66.735-14.732-88.635-33.009c-0.891-1.147-1.91-2.166-3.057-3.057c-14.248-14.584-23.457-34.207-28.73-57.766
	C194.424,292.069,197.462,293.173,199.041,292.815z" id="path-17" style="position: relative;"></path>
    <path fill-rule="evenodd" clip-rule="evenodd" fill="#DE00EA" d="M335.05,282.729c0.017,0.391,0.391,0.423,0.306,0.918
	c-9.234,9.512-18.118,21.002-27.202,29.646c3.687-13.021,6.533-26.883,11.002-39.122C324.655,276.824,329.71,279.919,335.05,282.729
	z" id="path-18" style="position: relative;"></path>
    <path fill-rule="evenodd" clip-rule="evenodd" fill="#DE00EA" d="M348.497,288.537c0-0.102,0-0.204,0-0.306
	c7.621,1.344,15.461,2.471,22.312,4.584c-7.459,11.082-14.917,22.166-22.312,33.314c-1.108,0.956-0.421-1.841-0.611-2.751
	c0-2.241,0-4.481,0-6.723c0.711-1.737,0.104-4.786,0.307-7.03c0-2.344,0-4.687,0-7.03c0.709-1.734,0.104-4.785,0.305-7.029
	C348.497,293.224,348.497,290.88,348.497,288.537z" id="path-19" style="position: relative;"></path>
    <path fill-rule="evenodd" clip-rule="evenodd" fill="#FFFFFF" d="M160.224,97.819c-0.237-8.982,7.054-20.696,14.671-14.365
	c8.146,6.77,6.991,27.814-0.306,33.314c-3.598,2.712-8.11,1.227-10.392-2.14c10.609,2.909,10.361-24.482,2.139-24.757
	c-3.997-0.133-4.92,4.254-5.807,7.947C160.429,97.819,160.327,97.819,160.224,97.819z" id="path-20" style="position: relative;"></path>
    <path fill-rule="evenodd" clip-rule="evenodd" fill="#FFFFFF" d="M148.305,156.807c-2.031,4.081-4.629,7.597-6.724,11.614
	c-1.966-4.044-3.593-8.428-5.196-12.837C140.245,156.105,144.499,156.232,148.305,156.807z" id="path-21" style="position: relative;"></path>
</svg>
