<svg width="800" height="600" xmlns="http://www.w3.org/2000/svg">
 <g id="Layer_1">
  <title>Layer 1</title>
  <path d="m29,205c2,-1 8.86484,-1.99594 20,-3c11.95151,-1.07767 29.94712,-1.31705 59,-6c19.96604,-3.21826 40.08607,-6.6675 60,-12c21.09705,-5.64931 41.1353,-11.54521 62,-18c15.10507,-4.67296 31.12927,-9.54333 46,-14c15.14584,-4.53912 28.81558,-6.99245 37,-8c10.91757,-1.34401 24,0 34,0c7,0 17.40564,-1.25125 29,2c8.61209,2.41496 18.19925,9.61992 28,15c10.2229,5.61182 17,13 18,16c3,9 4,16 4,21c0,7 0.61624,16.00737 1,26c0.50037,13.02879 1,29 1,45c0,16 2.99915,31.93762 4,56c0.33246,7.9931 -0.23849,33.84198 -10,52c-6.82895,12.70297 -10.77374,21.83521 -16,24c-3.69553,1.53073 -11,0 -26,0c-16,0 -34.18887,-7.59451 -56,-18c-6.0545,-2.88843 -23.58725,-13.453 -31,-22c-9.82803,-11.33182 -16.37451,-22.77045 -23,-34c-6.36713,-10.79166 -10.16409,-22.65948 -19,-33c-8.26843,-9.67642 -18.295,-12.94504 -27,-15c-14.59874,-3.44629 -28.17325,-1.0845 -44,2c-15.23749,2.96967 -32.19321,9.06747 -44,12c-12.27612,3.0491 -19.67036,6.48392 -30,8c-2.9682,0.43564 -7.09022,0.94553 -12,0c-5.28799,-1.01837 -9.9585,-5.04877 -17,-11c-5.96513,-5.04153 -9,-9 -14,-14c-3,-3 -7,-7 -10,-11c-3,-4 -4.75531,-8.13202 -7,-12c-1.80972,-3.11848 -2.5695,-8.133 -4,-12c-1.55159,-4.19435 -2,-8 -2,-13c0,-3 0,-5 0,-7c0,-1 0,-4 0,-6c0,-1 0,-2 -2,-2c-2,0 -1.69344,-1.4588 -3,-2c-0.92388,-0.38269 -2,0 -3,-1c0,0 -1.14935,-0.47427 -2,-1c-1.90211,-1.17557 -2,-3 -2,-4l0,-2l0,-1" id="svg_1" stroke="#000" fill="url(#svg_2)"/>
  <path fill-opacity="0.93" d="m144,50c2,0 6,-1 16,-5c15,-6 26,-9 35,-12c9,-3 17.12631,-2.67625 24,-4c5.28799,-1.01838 20,-2 29,-2c8,0 18,0 28,0c8,0 13.79025,0.99024 21,2c6.93234,0.97091 13.31854,2.2213 19,5c6.47784,3.16821 11.51703,8.53165 16,14c4.57175,5.57665 8.74277,9.62075 10,13c2.81128,7.55624 2,12 2,15c0,1 0.30655,4.4588 -1,5c-3.69553,1.53073 -15.05182,1.61074 -24,3c-10.0773,1.56456 -21.04495,1.2669 -27,2c-4.09222,0.50378 -4.797,1.2565 -6,2c-2.69,1.66251 -6.07611,1.61732 -7,2c-1.30655,0.5412 -3,3 -3,3c0,3 0,4 0,7c0,4 3.48627,5.82375 4,8c0.22977,0.97325 1,1 1,2c0,1 0.30655,2.4588 -1,3c-0.92389,0.38268 -3.64749,0.97251 -8,2c-6.81274,1.60827 -20,0 -32,0c-9,0 -16,0 -21,1c-5,1 -9,1 -13,1c-4,0 -7.07217,-0.75643 -11,0c-5.28799,1.01837 -11,2 -16,2c-6,0 -10.97734,-0.09544 -15,-1c-4.97479,-1.11866 -9.16119,-1.74639 -14,-5c-4.14925,-2.78995 -8,-6 -11,-9c-7,-7 -9,-11 -11,-15c-2,-4 -3.79394,-10.08744 -6,-15c-1.83204,-4.07966 -2,-7 -2,-9c0,-1 0,-4 0,-6c0,-2 1.69344,-4.45881 3,-5c0.92388,-0.38268 1.82375,-0.48626 4,-1c0.97325,-0.22975 2,0 3,0c2,0 4,0 5,0c2,0 4,0 6,0c1,0 3,0 3,-1c0,-1 0,-1 0,-2l0,-1" id="svg_3" stroke="#000" fill="url(#svg_5)"/>
  <path id="svg_6" d="m198.46976,396.60553c38.9619,-101.59187 191.61589,0 0,130.61812c-191.61589,-130.61812 -38.9619,-232.20999 0,-130.61812z" stroke="#000" fill="url(#svg_9)"/>
 </g>
 <defs>
  <linearGradient y2="0" x2="1" y1="0" x1="0" id="svg_2">
   <stop offset="0" stop-color="#619E73"/>
   <stop offset="1" stop-color="#9e618c"/>
  </linearGradient>
  <radialGradient gradientTransform="rotate(-10.500000000000004,0.46875,0.5203124284744263) translate(0,0.17343747615814206) scale(1,0.6666666666666667)" r="0.84157" cy="0.52031" cx="0.46875" spreadMethod="pad" id="svg_5">
   <stop offset="0" stop-color="#7AD6CA"/>
   <stop offset="1" stop-color="#852935"/>
  </radialGradient>
  <linearGradient y2="0.93047" x2="0.28125" y1="0.16094" x1="0.76172" id="svg_9">
   <stop offset="0" stop-color="#33666C"/>
   <stop offset="1" stop-color="#cc9993"/>
  </linearGradient>
 </defs>
</svg>