<?xml version="1.0" encoding="utf-8"?>
<!-- Generator: Adobe Illustrator 23.1.0, SVG Export Plug-In . SVG Version: 6.00 Build 0)  -->
<svg version="1.1" id="Слой_1" xmlns="http://www.w3.org/2000/svg" xmlns:xlink="http://www.w3.org/1999/xlink" x="0px" y="0px"
	 viewBox="0 0 595.28 841.89" style="enable-background:new 0 0 595.28 841.89;" xml:space="preserve">
<style type="text/css">
	.st0{fill:#006838;stroke:#BE1E2D;stroke-miterlimit:10;}
	.st1{fill:#FFF200;stroke:#BE1E2D;stroke-miterlimit:10;}
	.st2{fill:#27AAE1;stroke:#C49A6C;stroke-miterlimit:10;}
	.st3{fill:#C49A6C;stroke:#BE1E2D;stroke-miterlimit:10;}
</style>
<path class="st0" d="M479.6,297.4H128.77c-35.39,0-64.09-28.69-64.09-64.09v-54.38c0-35.39,28.69-64.09,64.09-64.09H479.6
	c35.39,0,64.09,28.69,64.09,64.09v54.38C543.69,268.71,514.99,297.4,479.6,297.4z"/>
<path class="st1" d="M253.44,186.28H149.87c-23.59,0-42.72,19.12-42.72,42.72v126.6c0,23.59,19.12,42.72,42.72,42.72h0
	c80.79,0,146.29-65.49,146.29-146.29V229C296.15,205.41,277.03,186.28,253.44,186.28z"/>
<path class="st2" d="M383.25,379.04h-78.24c-37.26,0-67.46-30.2-67.46-67.46v-91.84c0-37.26,30.2-67.46,67.46-67.46h78.24
	c37.26,0,67.46,30.2,67.46,67.46v91.84C450.71,348.83,420.51,379.04,383.25,379.04z"/>
<ellipse class="st3" cx="114.81" cy="96.71" rx="63.21" ry="79.37"/>
<ellipse class="st3" cx="496.63" cy="109.18" rx="47.06" ry="56.69"/>
</svg>
