<svg xmlns="http://www.w3.org/2000/svg" viewBox="0 0 766.5 980"><title>passport2</title><path d="M705.33,12.65c-5.93,1.58-128.79,31.26-273,66.08-171.93,41.75-266.1,65.49-273.62,68.85-15,7.12-28.29,20.38-35.81,36.21l-6.13,12.86v738l5.54,11.08c8.51,17.41,19.39,28.29,36.6,36.8l15,7.52H825l13.26-6.33a82.3,82.3,0,0,0,38.38-37.19l5.73-11.88L883,569.78c.59-405.78,1.38-375.7-12.86-397.27-13.65-20.58-35.41-31.85-65.29-33.63l-18.2-1.19L786.05,95c-.59-42.14-.59-42.93-5.93-52.82-14-26.92-41.55-37.6-74.79-29.49ZM821.86,170.93a46,46,0,0,1,26.51,22.55l5.34,9.69V564.44c0,298.75-.39,362.45-2.57,367.79-4.35,10.29-13.45,19.39-24.14,24.33l-9.89,4.75H182l-9.89-4.75c-10.68-4.95-19.78-14-24.14-24.33-2.18-5.34-2.57-69.05-2.57-367.79V203.18l5.34-9.69a47.55,47.55,0,0,1,25.92-22.55c11.27-4.17,633.29-4.37,645.16,0Z" transform="translate(-116.75 -10)" style="fill:#c42231"/><path d="M563.9,283c-18,6.13-26.12,16.82-26.12,34.23,0,18.2,7.72,26.12,36.21,38,15,6.33,20,11.87,18,19.79-2.77,10.88-19,13.85-40,7.32l-11.67-3.56-2.57,10.88c-2.77,12.07-2.37,12.66,9.89,16.22,8.9,2.57,34.62,2.57,43.72,0,10.68-3,20-9.89,25.13-18.79,3.56-6.33,4.35-10.09,3.76-19.19-1-16.62-6.73-22.75-32.64-35.61-19.78-9.69-21.17-10.88-21.76-16.82-1-9.69,5.74-13.26,22.75-11.87,7.52.59,15.23,1.58,17.41,2.38,3.56,1,4.55,0,6.73-8.9,1.58-6.13,2-10.88.79-12.07-2.37-2.37-21-5.74-31.06-5.74A80.35,80.35,0,0,0,563.9,283Z" transform="translate(-116.75 -10)" style="fill:#c42231"/><path d="M707.71,280.82c-18,6.53-26.12,17-26.12,34.23,0,17.61,8.51,26.71,36.21,38.19,14.84,6.33,20.38,12.26,18.4,20-2.77,10.49-21,13.85-40.36,7.12-7.32-2.57-10.88-3-11.28-1.38-1.38,4-4.95,18-4.95,19.19,0,5.54,39.77,9.89,54.6,5.94,9.7-2.57,19.79-9.1,25.13-16.42,4.75-6.53,6.53-22.55,3.56-31.65-3.36-9.89-9.69-15.23-32.45-26.31-18.79-9.3-20.18-10.29-20.77-16.22-1-9.69,5.74-13.26,22.75-11.87,7.52.59,15.23,1.58,17.61,2.38,3.56,1.19,4.35,0,7.12-9.7l3-10.88L754,281.24c-12.06-4.18-35-4.37-46.29-.42Z" transform="translate(-116.75 -10)" style="fill:#c42231"/><path d="M246.26,283c-3.36.79-3.56,5.54-3.56,63.11v62.32l13.45-.59,13.26-.59.59-22.36.59-22.16h10.49c30.27,0,50.45-16.62,50.65-41.94,0-11.87-2.57-18.79-10.49-26.91-8.9-9.3-21.17-12.27-48.67-12.07-12.66.2-24.53.59-26.31,1.19Zm46.89,21.17c7.72,3.36,10.88,8.31,10.88,17,0,12.66-8.9,19.78-24.73,19.78h-8.9v-18.4c0-10.29.59-19.19,1.38-19.78C274,300.4,286,301.19,293.15,304.16Z" transform="translate(-116.75 -10)" style="fill:#c42231"/><path d="M406,302c-17.41,56.19-29.87,97.34-29.87,99.32,0,1.38,5.34,2.18,13.85,2.18h13.65l3.17-11.47c6.73-23.54,4-21.17,24.33-21.76,13.65-.4,18.4.2,19.19,2,.4,1.38,2.77,9.1,4.95,17l4.35,14.25h14.84c13.25,0,14.84-.4,13.85-3.56-.4-1.78-9.1-30.27-19.39-63.31l-18.6-59.75H414Zm31.46,19.58c3.36,11.87,6.53,23.15,7.12,24.93,1,3.16-.59,3.56-13.06,3.56-13.85,0-14.25-.2-13.06-4.55.59-2.38,3.56-13.85,6.53-25.52s5.74-21,5.94-20.58c.4.2,3.36,10.29,6.53,22.16Z" transform="translate(-116.75 -10)" style="fill:#c42231"/><g style="isolation:isolate"><g style="isolation:isolate"><path d="M324.77,879.41V511.08H370V879.41Z" transform="translate(-116.75 -10)" style="fill:#c42231"/><path d="M449.82,879.41V511.08H567.64q39.89,0,60.89,5.27,29.4,7.29,50.16,26.38,27.06,24.63,40.48,62.94t13.41,87.56q0,42-9.1,74.37t-23.33,53.65Q685.92,842.47,669,854.66t-40.83,18.47q-23.91,6.29-54.94,6.28Zm45.26-43.47h73q33.82,0,53.07-6.78t30.68-19.09q16.1-17.34,25.08-46.61t9-71q0-57.78-17.61-88.82T625.5,562.08q-18.19-7.53-58.56-7.54H495.08Z" transform="translate(-116.75 -10)" style="fill:#c42231"/></g></g><g style="isolation:isolate"><g style="isolation:isolate"><path d="M302.75,854.75V486.41H348V854.75Z" transform="translate(-116.75 -10)" style="fill:#ce5427"/><path d="M427.79,854.75V486.41H545.61q39.9,0,60.89,5.28,29.4,7.29,50.16,26.38Q683.72,542.7,697.14,581t13.41,87.56q0,42-9.1,74.37t-23.33,53.64Q663.9,817.82,647,830t-40.83,18.46q-23.91,6.28-54.94,6.29Zm45.26-43.47h73q33.82,0,53.07-6.78t30.68-19.1q16.09-17.34,25.08-46.61t9-71q0-57.78-17.61-88.81t-42.81-41.58q-18.19-7.54-58.56-7.54H473.05Z" transform="translate(-116.75 -10)" style="fill:#ce5427"/></g></g><path d="M194,564.52" transform="translate(-116.75 -10)" style="fill:#ce5427"/><path d="M-80,431" transform="translate(-116.75 -10)" style="fill:#ce5427"/></svg>
