<svg width="188" height="188" viewBox="0 0 188 188" fill="none" xmlns="http://www.w3.org/2000/svg">
    <path d="M17.6905 43.0131L17.1986 46.5421L20.4028 48.1004L16.8945 48.7231L16.4026 52.252L14.7263 49.1079L11.218 49.7305L13.6903 47.1647L12.014 44.0205L15.2182 45.5789L17.6905 43.0131Z" fill="#49B749"/>
    <path d="M176.814 45.7833L174.588 48.565L176.545 51.5422L173.212 50.2842L170.985 53.066L171.152 49.5068L167.818 48.2488L171.254 47.3071L171.421 43.7478L173.378 46.725L176.814 45.7833Z" fill="#49B749"/>
    <path d="M97.7588 177.466L96.2317 180.686L98.8215 183.133L95.2879 182.675L93.7607 185.894L93.104 182.392L89.5704 181.935L92.6981 180.228L92.0414 176.726L94.6311 179.173L97.7588 177.466Z" fill="#49B749"/>
    <path d="M78.8944 186.079C78.6592 186.073 78.4103 186.059 78.1475 186.037C77.8729 186.023 77.6052 186 77.3444 185.968C77.0738 185.934 76.814 185.898 76.5651 185.858C76.3162 185.818 76.088 185.777 75.8806 185.736C75.3966 185.639 74.9324 185.494 74.488 185.302C74.0318 185.118 73.6438 184.875 73.3239 184.575C72.9943 184.272 72.7595 183.906 72.6195 183.478C72.4698 183.047 72.4524 182.545 72.5675 181.972C72.6528 181.547 72.7717 181.186 72.9241 180.888C73.0646 180.597 73.2328 180.348 73.4286 180.141C73.6244 179.934 73.8488 179.763 74.1018 179.629C74.3429 179.503 74.6009 179.395 74.8756 179.307L73.2825 174.27L75.6234 174.74L76.8969 179.219L78.1118 179.464L78.9273 175.404L80.9571 175.812L78.8944 186.079ZM76.0956 183.898C76.303 183.94 76.5114 183.977 76.7208 184.009C76.9203 184.038 77.0774 184.049 77.192 184.042L77.7963 181.034L76.9962 180.873C76.4332 180.76 75.9481 180.796 75.5409 180.982C75.1338 181.167 74.8706 181.556 74.7516 182.149C74.6623 182.593 74.7311 182.967 74.9581 183.269C75.183 183.582 75.5622 183.791 76.0956 183.898Z" fill="#49B749"/>
    <path d="M62.5908 182.048L56.1407 179.496L56.8188 177.782L61.3437 179.572L62.2497 177.281L58.0761 175.63L58.7542 173.916L62.9278 175.567L63.8783 173.164L59.2831 171.346L59.9612 169.632L66.4816 172.211L62.5908 182.048Z" fill="#49B749"/>
    <path d="M51.4964 167.174L50.0322 166.266L46.2098 172.431L47.4427 173.195L48.4063 171.641L49.8191 172.517L47.9795 175.484L40.9414 171.12L42.7809 168.153L44.1937 169.029L43.2301 170.583L44.4502 171.34L48.2727 165.175L46.8214 164.275L47.6974 162.862L52.3724 165.761L51.4964 167.174Z" fill="#49B749"/>
    <path d="M33.8653 165.638C33.6662 165.513 33.4592 165.374 33.2444 165.221C33.0154 165.069 32.7968 164.913 32.5887 164.753C32.3732 164.585 32.1685 164.421 31.9746 164.26C31.7807 164.099 31.6052 163.948 31.4481 163.806C31.0813 163.476 30.7558 163.115 30.4715 162.723C30.1729 162.332 29.9628 161.925 29.8409 161.504C29.7117 161.075 29.6962 160.641 29.7946 160.201C29.8854 159.754 30.1264 159.313 30.5176 158.879C30.8076 158.557 31.0942 158.307 31.3773 158.128C31.6463 157.95 31.9178 157.822 32.1919 157.743C32.4661 157.665 32.7461 157.632 33.0322 157.646C33.304 157.66 33.5807 157.7 33.8622 157.763L35.0604 152.618L36.8342 154.217L35.6454 158.719L36.5659 159.549L39.3377 156.473L40.8757 157.859L33.8653 165.638ZM32.57 162.335C32.7271 162.477 32.8877 162.615 33.0516 162.749C33.208 162.876 33.3375 162.966 33.4401 163.018L35.4936 160.739L34.8874 160.192C34.4608 159.808 34.0251 159.592 33.5803 159.544C33.1355 159.495 32.7108 159.696 32.3062 160.145C32.0027 160.482 31.8714 160.838 31.9124 161.214C31.9466 161.597 32.1658 161.971 32.57 162.335Z" fill="#49B749"/>
    <path d="M26.3938 151.024C25.7168 151.549 25.0581 151.957 24.4178 152.249C23.7775 152.541 23.1723 152.697 22.6024 152.718C22.0244 152.746 21.4848 152.641 20.9834 152.405C20.4758 152.161 20.0154 151.772 19.602 151.238C19.1579 150.665 18.8891 150.096 18.7957 149.531C18.7023 148.966 18.7512 148.412 18.9423 147.869C19.1272 147.318 19.4433 146.78 19.8906 146.256C20.3317 145.723 20.8709 145.21 21.5081 144.716C22.8701 143.661 24.141 143.097 25.3207 143.025C26.4863 142.95 27.4794 143.443 28.2998 144.502C28.744 145.075 29.0159 145.649 29.1154 146.221C29.2088 146.786 29.163 147.344 28.9781 147.895C28.787 148.438 28.4679 148.972 28.0206 149.497C27.5733 150.022 27.031 150.531 26.3938 151.024ZM25.0613 149.304C25.4676 148.989 25.8336 148.68 26.1593 148.377C26.479 148.066 26.7332 147.761 26.922 147.461C27.0967 147.16 27.1887 146.86 27.1982 146.559C27.2015 146.251 27.0828 145.942 26.8422 145.631C26.6263 145.352 26.3917 145.164 26.1383 145.067C25.8769 144.977 25.5836 144.968 25.2583 145.042C24.933 145.115 24.5757 145.271 24.1864 145.509C23.783 145.745 23.3344 146.054 22.8405 146.437C22.4503 146.739 22.0922 147.042 21.7664 147.345C21.4345 147.64 21.1772 147.941 20.9945 148.249C20.8057 148.548 20.7097 148.851 20.7064 149.16C20.6951 149.474 20.8129 149.791 21.0596 150.11C21.4915 150.667 22.0274 150.857 22.6675 150.68C23.3076 150.503 24.1055 150.044 25.0613 149.304Z" fill="#49B749"/>
    <path d="M14.283 133.155L12.7875 133.849L12.8295 133.929L16.0641 134.152L16.2318 134.473L14.597 137.32L14.632 137.387L15.9032 136.622L21.0488 133.939L21.957 135.681L12.5771 140.571L11.606 138.709L13.3672 135.745L13.3393 135.692L9.90828 135.453L8.94414 133.603L18.324 128.713L19.2812 130.549L14.283 133.155Z" fill="#49B749"/>
    <path d="M11.7965 117.796L12.7366 120.811L15.1887 120.807L15.8049 122.783L4.6895 122.671L4.07327 120.695L13.16 114.3L13.8078 116.377L11.7965 117.796ZM11.0057 120.844L10.331 118.68L7.27444 120.757L7.31493 120.887L11.0057 120.844Z" fill="#49B749"/>
    <path d="M5.82041 104.435L5.37425 100.851L10.113 100.261C10.4652 100.563 10.7556 100.978 10.984 101.508C11.2111 102.028 11.3602 102.573 11.4311 103.143C11.5145 103.813 11.4779 104.457 11.3214 105.075C11.1637 105.684 10.8816 106.232 10.4752 106.719C10.0589 107.207 9.52634 107.619 8.87763 107.953C8.21892 108.289 7.42969 108.514 6.50993 108.629C5.54018 108.749 4.69672 108.702 3.97956 108.487C3.26241 108.272 2.65964 107.956 2.17126 107.539C1.67163 107.114 1.28514 106.619 1.01176 106.054C0.738387 105.489 0.565609 104.917 0.493427 104.337C0.418757 103.737 0.406518 103.231 0.456711 102.819C0.496908 102.408 0.571452 102.028 0.680344 101.679L3.78454 101.293L3.98988 102.942L2.32531 103.15C2.31528 103.232 2.30524 103.315 2.2952 103.397C2.2801 103.602 2.28748 103.824 2.31735 104.064C2.36838 104.474 2.48565 104.845 2.66917 105.178C2.85269 105.51 3.11059 105.788 3.44287 106.011C3.76391 106.224 4.16308 106.373 4.64038 106.455C5.11769 106.538 5.67626 106.54 6.31609 106.46C6.88594 106.389 7.3871 106.256 7.81956 106.06C8.25202 105.864 8.60765 105.621 8.88646 105.333C9.16527 105.044 9.36349 104.72 9.48114 104.36C9.59754 103.991 9.63085 103.606 9.58107 103.206C9.54871 102.946 9.48947 102.715 9.40335 102.512C9.31599 102.3 9.23733 102.157 9.16739 102.085L7.08294 102.344L7.32002 104.249L5.82041 104.435Z" fill="#49B749"/>
    <path d="M8.54827 87.6907L8.3761 90.8444L10.6754 91.6964L10.5626 93.7636L0.186166 89.7768L0.29902 87.7096L11.0469 84.8911L10.9283 87.0639L8.54827 87.6907ZM6.74263 90.2709L6.86619 88.0075L3.27679 88.8861L3.26938 89.0219L6.74263 90.2709Z" fill="#49B749"/>
    <path d="M10.2459 77.9019L4.68503 71.4885L3.59674 76.076L1.80288 75.6505L3.45276 68.6956L5.24662 69.1211L10.8249 75.461L11.969 70.6382L13.7628 71.0638L12.0397 78.3274L10.2459 77.9019Z" fill="#49B749"/>
    <path d="M23.8703 31.4841C24.0023 31.2895 24.1484 31.0875 24.3087 30.8781C24.4687 30.6544 24.6324 30.4414 24.7999 30.239C24.9744 30.0294 25.1455 29.8305 25.3133 29.6423C25.481 29.4541 25.6383 29.284 25.7853 29.1318C26.1283 28.7768 26.5005 28.4639 26.9019 28.1934C27.3031 27.9085 27.7165 27.7126 28.1421 27.6054C28.5748 27.4911 29.0094 27.4907 29.446 27.6042C29.8896 27.7105 30.3215 27.9667 30.7418 28.3726C31.0534 28.6736 31.2936 28.9687 31.4625 29.2579C31.6311 29.5328 31.7499 29.8086 31.8188 30.0853C31.8877 30.362 31.9104 30.643 31.8869 30.9284C31.8631 31.1996 31.8144 31.4747 31.7408 31.7539L36.8412 33.1296L35.1823 34.847L30.7238 33.5028L29.8629 34.3941L32.8411 37.2708L31.4027 38.7599L23.8703 31.4841ZM27.2164 30.304C27.0694 30.4562 26.926 30.6118 26.7863 30.771C26.6535 30.9229 26.5595 31.0492 26.5043 31.1499L28.7107 33.2812L29.2777 32.6943C29.6767 32.2813 29.9079 31.8533 29.9715 31.4105C30.0351 30.9676 29.8495 30.5362 29.4147 30.1163C29.0886 29.8013 28.737 29.6578 28.3599 29.6857C27.9755 29.7066 27.5943 29.9127 27.2164 30.304Z" fill="#49B749"/>
    <path d="M36.0586 19.9321L41.6864 15.8774L42.7641 17.3732L38.8161 20.2177L40.256 22.2163L43.8975 19.5926L44.9752 21.0885L41.3337 23.7121L42.8443 25.8087L46.8536 22.9201L47.9314 24.4159L42.2423 28.5148L36.0586 19.9321Z" fill="#49B749"/>
    <path d="M54.5687 18.6138L56.123 17.8707L52.9943 11.3264L51.6855 11.9522L52.4742 13.6019L50.9744 14.3189L49.4688 11.1694L56.9401 7.59752L58.4458 10.7469L56.9461 11.4639L56.1574 9.81424L54.8622 10.4335L57.9908 16.9777L59.5315 16.2412L60.2485 17.7409L55.2857 20.1135L54.5687 18.6138Z" fill="#49B749"/>
    <path d="M65.3716 4.59639C65.5844 4.49626 65.8132 4.397 66.0578 4.2986C66.3095 4.18781 66.559 4.08808 66.8062 3.99939C67.0633 3.90804 67.3119 3.82421 67.5521 3.7479C67.7924 3.6716 68.0145 3.60547 68.2185 3.54954C68.6946 3.41902 69.1743 3.33974 69.6576 3.31171C70.1479 3.2713 70.6035 3.31355 71.0242 3.43847C71.4547 3.56072 71.8288 3.78201 72.1464 4.10233C72.4738 4.42 72.7147 4.86059 72.8692 5.42412C72.9837 5.84191 73.0399 6.21825 73.0377 6.55314C73.0425 6.87565 73.004 7.17347 72.9222 7.44661C72.8404 7.71975 72.7166 7.97307 72.5508 8.20656C72.392 8.42766 72.2099 8.63953 72.0042 8.84214L75.6899 12.6266L73.3872 13.2579L70.2375 9.82793L69.0424 10.1556L70.1371 14.1489L68.1405 14.6962L65.3716 4.59639ZM68.8517 5.28762C68.6477 5.34356 68.445 5.40435 68.2436 5.47001C68.0519 5.533 67.9067 5.59371 67.8078 5.65216L68.6189 8.6107L69.4059 8.39495C69.9597 8.24312 70.3769 7.99295 70.6574 7.64444C70.9379 7.29593 70.9983 6.8302 70.8384 6.24723C70.7186 5.81001 70.4893 5.50724 70.1507 5.33892C69.8094 5.16088 69.3764 5.14378 68.8517 5.28762Z" fill="#49B749"/>
    <path d="M81.7077 6.18954C81.6315 5.33661 81.6431 4.56179 81.7426 3.86508C81.8422 3.16838 82.0368 2.57442 82.3267 2.08322C82.6157 1.58199 82.9948 1.18395 83.464 0.889117C83.9433 0.593384 84.5191 0.415456 85.1914 0.355332C85.9139 0.290721 86.5381 0.371447 87.0641 0.59751C87.5901 0.823573 88.0301 1.16352 88.3843 1.61736C88.7484 2.0703 89.0308 2.62665 89.2314 3.2864C89.4421 3.94525 89.5833 4.67606 89.6551 5.47882C89.8085 7.19472 89.5976 8.56896 89.0224 9.60154C88.4563 10.6232 87.506 11.1937 86.1714 11.313C85.4489 11.3776 84.8197 11.2974 84.2837 11.0722C83.7577 10.8461 83.3126 10.5066 82.9485 10.0537C82.5943 9.59985 82.3169 9.04306 82.1163 8.38331C81.9157 7.72356 81.7795 6.9923 81.7077 6.18954ZM83.8752 5.99571C83.921 6.50747 83.9837 6.98231 84.0633 7.42024C84.1529 7.85727 84.2728 8.23598 84.4228 8.55635C84.582 8.86578 84.7855 9.10551 85.0333 9.27553C85.2912 9.44465 85.6158 9.51171 86.0072 9.47671C86.3584 9.4453 86.6431 9.34904 86.8613 9.18791C87.0787 9.01676 87.2441 8.77438 87.3577 8.46078C87.4712 8.14718 87.5329 7.76236 87.5427 7.30632C87.5616 6.83935 87.5433 6.29479 87.4876 5.67265C87.4437 5.18096 87.3819 4.71615 87.3022 4.27822C87.2326 3.83939 87.1178 3.46024 86.9578 3.14077C86.8077 2.8204 86.6038 2.57566 86.3459 2.40654C86.0871 2.22738 85.757 2.15575 85.3557 2.19165C84.6532 2.25447 84.204 2.60314 84.0079 3.23768C83.8117 3.87222 83.7675 4.79157 83.8752 5.99571Z" fill="#49B749"/>
    <path d="M103.287 5.63279L103.509 3.99887L103.418 3.9908L101.486 6.59451L101.125 6.56221L99.6102 3.65024L99.5349 3.64351L99.4933 5.12666L98.9764 10.9065L97.0197 10.7316L97.9619 0.195312L100.054 0.382416L101.599 3.46399L101.659 3.46937L103.712 0.70951L105.789 0.895267L104.847 11.4315L102.784 11.2471L103.287 5.63279Z" fill="#49B749"/>
    <path d="M117.561 11.8245L114.515 10.9894L113.196 13.0566L111.199 12.5092L117.29 3.21035L119.286 3.75773L119.769 14.8586L117.67 14.2832L117.561 11.8245ZM115.421 9.51412L117.607 10.1134L117.507 6.41943L117.376 6.38347L115.421 9.51412Z" fill="#49B749"/>
    <path d="M132.034 14.0004L135.292 15.5583L133.233 19.8666C132.789 20.0006 132.282 20.0208 131.713 19.9273C131.153 19.838 130.613 19.6696 130.095 19.4219C129.486 19.1308 128.964 18.7525 128.527 18.287C128.1 17.8259 127.791 17.2929 127.6 16.688C127.413 16.0739 127.354 15.4035 127.422 14.6768C127.495 13.9411 127.731 13.155 128.131 12.3188C128.553 11.4372 129.047 10.7525 129.616 10.2648C130.184 9.77709 130.775 9.43993 131.389 9.25332C132.016 9.06198 132.642 9.0036 133.265 9.07819C133.888 9.15279 134.463 9.3161 134.99 9.56813C135.536 9.82885 135.968 10.0916 136.289 10.3563C136.613 10.6119 136.893 10.8796 137.127 11.1593L135.778 13.9815L134.278 13.2645L135.002 11.7512C134.938 11.6982 134.874 11.6453 134.81 11.5923C134.645 11.4691 134.454 11.3553 134.236 11.251C133.863 11.0729 133.488 10.9714 133.109 10.9465C132.73 10.9217 132.357 10.9891 131.99 11.1488C131.637 11.3038 131.297 11.5599 130.97 11.9171C130.642 12.2744 130.34 12.7439 130.062 13.3256C129.814 13.8437 129.656 14.3377 129.588 14.8075C129.519 15.2774 129.532 15.7075 129.624 16.0979C129.717 16.4883 129.883 16.8301 130.122 17.1233C130.371 17.4208 130.677 17.6564 131.04 17.8303C131.277 17.9432 131.503 18.0181 131.72 18.0548C131.946 18.0959 132.109 18.1065 132.208 18.0867L133.114 16.1916L131.382 15.3638L132.034 14.0004Z" fill="#49B749"/>
    <path d="M144.662 25.33L142.099 23.4837L140.142 24.9601L138.462 23.7499L147.416 17.1637L149.096 18.3739L145.671 28.9442L143.906 27.6721L144.662 25.33ZM143.463 22.4177L145.303 23.7428L146.499 20.2465L146.389 20.167L143.463 22.4177Z" fill="#49B749"/>
    <path d="M151.989 32.0403L160.389 30.8179L157.113 27.4267L158.439 26.1458L163.405 31.287L162.079 32.5678L153.732 33.8446L157.176 37.4097L155.849 38.6906L150.663 33.3212L151.989 32.0403Z" fill="#49B749"/>
    <path d="M183.724 68.5525C183.816 68.7686 183.908 69.0006 183.998 69.2485C184.1 69.5039 184.191 69.7567 184.271 70.0069C184.353 70.2669 184.428 70.5183 184.496 70.761C184.564 71.0038 184.622 71.2281 184.671 71.4339C184.785 71.9142 184.848 72.3964 184.859 72.8804C184.882 73.3718 184.824 73.8256 184.685 74.2418C184.548 74.6678 184.314 75.0339 183.983 75.3403C183.654 75.6564 183.205 75.882 182.637 76.0168C182.215 76.1168 181.837 76.1599 181.502 76.1461C181.18 76.1398 180.884 76.091 180.614 75.9998C180.343 75.9085 180.095 75.776 179.867 75.6022C179.651 75.4359 179.446 75.2465 179.251 75.034L175.341 78.5863L174.79 76.2631L178.327 73.2341L178.041 72.0284L174.012 72.9841L173.534 70.9697L183.724 68.5525ZM182.912 72.0065C182.863 71.8007 182.81 71.596 182.751 71.3924C182.695 71.1987 182.639 71.0514 182.584 70.9506L179.599 71.6587L179.788 72.4527C179.92 73.0114 180.156 73.437 180.494 73.7294C180.833 74.0219 181.296 74.0983 181.884 73.9588C182.326 73.8541 182.636 73.6355 182.816 73.3029C183.006 72.968 183.038 72.5358 182.912 72.0065Z" fill="#49B749"/>
    <path d="M186.875 85.0479L187.253 91.9739L185.412 92.0744L185.147 87.2156L182.687 87.3499L182.932 91.8314L181.091 91.9319L180.846 87.4504L178.266 87.5912L178.536 92.5254L176.695 92.6259L176.312 85.6245L186.875 85.0479Z" fill="#49B749"/>
    <path d="M178 101.344L177.787 103.054L184.985 103.95L185.165 102.51L183.35 102.284L183.555 100.635L187.02 101.066L185.997 109.284L182.532 108.853L182.738 107.203L184.552 107.429L184.73 106.004L177.532 105.108L177.321 106.803L175.671 106.597L176.351 101.139L178 101.344Z" fill="#49B749"/>
    <path d="M183.973 118.003C183.943 118.236 183.903 118.482 183.854 118.742C183.812 119.013 183.761 119.277 183.702 119.533C183.641 119.799 183.577 120.053 183.512 120.297C183.446 120.54 183.382 120.763 183.319 120.965C183.172 121.436 182.98 121.883 182.743 122.305C182.513 122.74 182.231 123.1 181.899 123.387C181.564 123.684 181.176 123.879 180.735 123.974C180.291 124.078 179.79 124.043 179.232 123.87C178.818 123.741 178.471 123.585 178.19 123.402C177.916 123.232 177.686 123.039 177.5 122.823C177.314 122.607 177.168 122.366 177.061 122.1C176.96 121.847 176.88 121.58 176.82 121.297L171.646 122.359L172.356 120.08L176.944 119.278L177.312 118.095L173.359 116.862L173.976 114.886L183.973 118.003ZM181.514 120.56C181.577 120.359 181.635 120.155 181.689 119.95C181.739 119.755 181.766 119.6 181.77 119.485L178.842 118.572L178.599 119.351C178.428 119.899 178.413 120.385 178.556 120.809C178.698 121.234 179.057 121.536 179.634 121.716C180.067 121.851 180.446 121.821 180.77 121.627C181.104 121.435 181.352 121.08 181.514 120.56Z" fill="#49B749"/>
    <path d="M173.82 130.899C174.579 131.294 175.225 131.722 175.758 132.182C176.291 132.642 176.686 133.126 176.943 133.635C177.21 134.149 177.34 134.683 177.335 135.237C177.326 135.8 177.165 136.381 176.853 136.979C176.517 137.622 176.113 138.104 175.639 138.425C175.165 138.746 174.641 138.933 174.068 138.987C173.49 139.049 172.869 138.987 172.205 138.8C171.537 138.622 170.845 138.346 170.131 137.974C168.603 137.177 167.56 136.258 167.001 135.217C166.446 134.189 166.478 133.081 167.098 131.893C167.433 131.25 167.84 130.763 168.319 130.433C168.793 130.113 169.319 129.921 169.897 129.859C170.47 129.805 171.088 129.872 171.752 130.059C172.416 130.246 173.105 130.526 173.82 130.899ZM172.814 132.828C172.358 132.591 171.924 132.387 171.513 132.218C171.096 132.058 170.713 131.954 170.362 131.908C170.016 131.875 169.704 131.917 169.427 132.034C169.146 132.16 168.914 132.397 168.733 132.745C168.569 133.058 168.497 133.35 168.515 133.62C168.542 133.896 168.657 134.166 168.859 134.431C169.062 134.695 169.353 134.955 169.732 135.209C170.115 135.477 170.583 135.755 171.137 136.044C171.575 136.272 171.999 136.471 172.411 136.64C172.818 136.818 173.199 136.926 173.555 136.964C173.905 137.01 174.221 136.971 174.503 136.845C174.793 136.723 175.032 136.484 175.218 136.127C175.544 135.502 175.493 134.935 175.064 134.428C174.636 133.92 173.886 133.387 172.814 132.828Z" fill="#49B749"/>
    <path d="M162.647 149.369L163.903 150.437L163.958 150.365L162.808 147.334L163.03 147.047L166.299 147.343L166.346 147.283L165.119 146.448L160.531 142.894L161.734 141.341L170.098 147.819L168.811 149.479L165.383 149.118L165.346 149.166L166.563 152.383L165.286 154.031L156.923 147.554L158.19 145.917L162.647 149.369Z" fill="#49B749"/>
    <path d="M149.733 158.047L152.08 155.933L151.051 153.707L152.589 152.321L157.133 162.466L155.595 163.852L145.988 158.269L147.604 156.813L149.733 158.047ZM152.833 157.491L151.149 159.009L154.314 160.918L154.415 160.826L152.833 157.491Z" fill="#49B749"/>
    <path d="M140.093 169.06L137.024 170.963L134.507 166.905C134.634 166.459 134.89 166.022 135.276 165.593C135.653 165.169 136.086 164.806 136.574 164.503C137.148 164.147 137.748 163.911 138.376 163.795C138.994 163.684 139.61 163.711 140.222 163.877C140.84 164.051 141.436 164.363 142.011 164.812C142.592 165.27 143.126 165.893 143.615 166.681C144.13 167.512 144.439 168.298 144.543 169.039C144.647 169.781 144.612 170.46 144.438 171.078C144.261 171.71 143.973 172.268 143.574 172.752C143.175 173.236 142.727 173.633 142.23 173.941C141.717 174.259 141.262 174.482 140.866 174.609C140.476 174.744 140.1 174.835 139.738 174.882L138.089 172.223L139.502 171.347L140.386 172.773C140.465 172.747 140.544 172.722 140.623 172.697C140.816 172.625 141.015 172.525 141.22 172.398C141.571 172.18 141.859 171.918 142.085 171.613C142.31 171.307 142.455 170.957 142.518 170.562C142.578 170.181 142.546 169.756 142.422 169.288C142.297 168.82 142.065 168.312 141.725 167.764C141.423 167.276 141.092 166.876 140.733 166.565C140.374 166.254 140.006 166.032 139.627 165.9C139.248 165.767 138.871 165.722 138.495 165.766C138.11 165.815 137.747 165.945 137.404 166.158C137.182 166.296 136.997 166.446 136.849 166.609C136.692 166.777 136.595 166.908 136.559 167.002L137.666 168.787L139.297 167.776L140.093 169.06Z" fill="#49B749"/>
    <path d="M123.742 173.581L126.679 172.419L126.492 169.975L128.417 169.213L129.132 180.306L127.207 181.067L120.154 172.481L122.178 171.681L123.742 173.581ZM126.84 174.143L124.733 174.977L127.031 177.87L127.157 177.82L126.84 174.143Z" fill="#49B749"/>
    <path d="M114.14 176.13L110.638 183.862L115.26 182.933L115.623 184.741L108.615 186.149L108.252 184.341L111.68 176.624L106.821 177.6L106.458 175.793L113.777 174.322L114.14 176.13Z" fill="#49B749"/>
</svg>
