<svg version="1" xmlns="http://www.w3.org/2000/svg" width="346.667" height="346.667"
     viewBox="0 0 260.000000 260.000000">
    <path
        d="M115 .7c-1.4.2-6.1 1.1-10.5 2C50.7 13.2 8.9 57.5 1.2 112c-.9 6.2-.9 28.2 0 35.5 4 32.9 23.1 65.5 50.3 85.9 18.2 13.7 35.4 21.1 58.2 25 10.4 1.9 35.3 1.4 45.3-.8 35.4-7.7 64.1-27 83.3-55.9 15.1-22.6 21.8-46.3 21.2-74.2-.2-7.7-.6-15.4-.9-17-2.6-12.9-4.2-18.9-6.2-24.5-16.8-45.1-55.1-76.7-102.7-84.6C145.6.7 118.2.1 115 .7zm31 23.8c27.8 3.7 56.7 22.1 72.5 46 7.5 11.3 14.4 27.6 16 37.6.3 1.9.9 5.8 1.4 8.7.9 6 .7 22.2-.4 29.7-5.5 37.1-33.8 71.5-68.7 83.6-16 5.5-28.3 1.6-45.3-14.4-17.4-16.4-34.5-24.5-55.5-26.2-19.5-1.6-20.9-2.1-27.1-10.5-6.9-9.3-13.1-23.9-14.4-34-1-7.3-1.1-24.1-.2-29 2.7-14.3 5.3-22.5 10.1-32.5 12.9-26.4 35.2-45.9 63.2-55 6.8-2.2 8.9-2.7 19.4-4.4 5.4-.8 21.4-.7 29 .4z"/>
</svg>
