# Blender v2.93.0 OBJ File: ''
# www.blender.org
mtllib plus.mtl
o Cube.001_Cube.002
v -31.410702 -16.324047 2.959193
v -31.376167 -12.551958 -0.310440
v -37.953545 -16.147449 -0.205845
v -31.373844 -12.552504 -0.183108
v -31.528236 -16.296400 -3.481556
v -37.951218 -16.147997 -0.078514
v -31.393528 -15.640886 2.961812
v -37.936371 -15.464288 -0.203226
v -31.547920 -19.384781 -0.336635
v -31.511063 -15.613238 -3.478937
v -31.545597 -19.385328 -0.209304
v -37.934044 -15.464835 -0.075895
v 29.566936 -17.852512 1.839874
v 35.989914 -18.000917 -1.563168
v 29.601471 -14.080423 -1.429759
v 29.449402 -17.824865 -4.600875
v 29.603794 -14.080970 -1.302427
v 35.992241 -18.001463 -1.435837
v 29.584110 -17.169352 1.842493
v 29.429718 -20.913248 -1.455955
v 36.007088 -17.317755 -1.560549
v 29.466576 -17.141705 -4.598256
v 36.009415 -17.318302 -1.433217
v 29.432041 -20.913794 -1.328623
v -30.258173 18.397480 2.863918
v -30.268223 22.168930 -0.406365
v -36.683006 18.476280 -0.363086
v -30.270485 22.168518 -0.278971
v -30.143610 18.418175 -3.580023
v -36.685272 18.475868 -0.235691
v -30.270618 19.081173 2.866715
v -36.695457 19.159969 -0.360289
v -30.143744 15.330822 -0.434337
v -30.156055 19.101864 -3.577227
v -30.146008 15.330414 -0.306943
v -36.697716 19.159561 -0.232894
v 30.722675 17.755543 2.312134
v 37.264336 17.697853 -1.032198
v 30.712626 21.526997 -0.958150
v 30.837236 17.776245 -4.131807
v 30.710361 21.526592 -0.830756
v 37.262070 17.697445 -0.904803
v 30.710228 18.439240 2.314931
v 30.837103 14.688892 -0.986121
v 37.251884 18.381542 -1.029401
v 30.824789 18.459934 -4.129011
v 37.249626 18.381134 -0.902007
v 30.834839 14.688484 -0.858727
v 31.183672 -17.318995 2.119610
v 24.759008 -17.152403 -1.107052
v 31.159155 -21.066721 -1.180068
v 24.756741 -17.152811 -0.979656
v 31.298231 -17.298300 -4.324331
v 31.156889 -21.067131 -1.052674
v 30.005121 -17.290628 2.130337
v 29.980606 -21.038355 -1.169341
v 36.546616 -17.436117 -1.214338
v 30.119682 -17.269934 -4.313605
v 36.544357 -17.436527 -1.086943
v 29.978342 -21.038763 -1.041947
v 31.963713 18.031013 2.251387
v 32.105057 21.799843 -1.020271
v 25.539045 18.197613 -0.975274
v 32.078270 18.051712 -4.192554
v 25.536781 18.197197 -0.847879
v 32.102798 21.799435 -0.892876
v 30.785164 18.059383 2.262114
v 37.326653 17.913895 -1.082561
v 30.926504 21.828213 -1.009544
v 30.899723 18.080082 -4.181828
v 30.924242 21.827801 -0.882149
v 37.324394 17.913486 -0.955166
v -30.225842 -16.758612 2.561774
v -36.650513 -16.592018 -0.664888
v -30.250360 -20.506336 -0.737904
v -36.652779 -16.592428 -0.537493
v -30.111282 -16.737915 -3.882168
v -30.252626 -20.506746 -0.610510
v -31.404396 -16.730244 2.572500
v -31.428909 -20.477970 -0.727178
v -24.862900 -16.875732 -0.772175
v -31.289831 -16.709549 -3.871441
v -24.865166 -16.876143 -0.644780
v -31.431175 -20.478378 -0.599783
v -29.445803 18.591400 2.693551
v -29.304462 22.360233 -0.578107
v -35.870468 18.757996 -0.533110
v -29.331244 18.612095 -3.750391
v -35.872734 18.757580 -0.405715
v -29.306725 22.359821 -0.450713
v -30.624355 18.619770 2.704278
v -24.082861 18.474281 -0.640397
v -30.483011 22.388596 -0.567380
v -30.509790 18.640465 -3.739664
v -30.485275 22.388187 -0.439986
v -24.085129 18.473869 -0.513002
vt 0.502471 0.771918
vt 0.497529 0.771918
vt 0.497529 0.978082
vt 0.502471 0.978082
vt 0.502471 0.637498
vt 0.497529 0.637498
vt 0.497529 0.612502
vt 0.502471 0.612502
vt 0.146918 0.637498
vt 0.353082 0.637498
vt 0.353082 0.612502
vt 0.146918 0.612502
vt 0.646918 0.637498
vt 0.853081 0.637498
vt 0.853082 0.612502
vt 0.646918 0.612502
vt 0.502471 0.137498
vt 0.497529 0.137498
vt 0.497529 0.112502
vt 0.502471 0.112502
vt 0.502471 0.271918
vt 0.497529 0.271918
vt 0.497529 0.478082
vt 0.502471 0.478082
vt 0.502471 0.771918
vt 0.497529 0.771918
vt 0.497529 0.978081
vt 0.502471 0.978082
vt 0.502471 0.637498
vt 0.497529 0.637498
vt 0.497529 0.612502
vt 0.502471 0.612502
vt 0.146918 0.637498
vt 0.353082 0.637498
vt 0.353082 0.612502
vt 0.146918 0.612502
vt 0.646918 0.637498
vt 0.853082 0.637498
vt 0.853082 0.612502
vt 0.646919 0.612502
vt 0.502471 0.137498
vt 0.497529 0.137498
vt 0.497529 0.112502
vt 0.502471 0.112502
vt 0.502471 0.271918
vt 0.497529 0.271918
vt 0.497529 0.478081
vt 0.502471 0.478082
vt 0.502471 0.771918
vt 0.497529 0.771919
vt 0.497529 0.978082
vt 0.502471 0.978081
vt 0.502471 0.637498
vt 0.497529 0.637498
vt 0.497529 0.612502
vt 0.502471 0.612502
vt 0.146918 0.637498
vt 0.353082 0.637498
vt 0.353082 0.612502
vt 0.146918 0.612502
vt 0.646918 0.637498
vt 0.853082 0.637498
vt 0.853082 0.612502
vt 0.646918 0.612502
vt 0.502471 0.137498
vt 0.497529 0.137498
vt 0.497529 0.112502
vt 0.502471 0.112502
vt 0.502471 0.271918
vt 0.497529 0.271918
vt 0.497529 0.478082
vt 0.502471 0.478082
vt 0.502471 0.771918
vt 0.497529 0.771918
vt 0.497529 0.978081
vt 0.502471 0.978081
vt 0.502471 0.637498
vt 0.497529 0.637498
vt 0.497529 0.612502
vt 0.502471 0.612502
vt 0.646918 0.637498
vt 0.853082 0.637498
vt 0.853082 0.612502
vt 0.646919 0.612502
vt 0.502471 0.137498
vt 0.497529 0.137498
vt 0.497529 0.112502
vt 0.502471 0.112502
vt 0.502471 0.271918
vt 0.497529 0.271918
vt 0.497529 0.478082
vt 0.502471 0.478082
vt 0.146918 0.612502
vt 0.146918 0.750000
vt 0.125000 0.612502
vt 0.497529 0.000000
vt 0.625000 0.137498
vt 0.625000 0.137498
vt 0.146918 0.637498
vt 0.125000 0.637498
vt 0.146918 0.500000
vt 0.625000 0.112502
vt 0.497529 0.250000
vt 0.625000 0.112502
vt 0.353082 0.612502
vt 0.375000 0.612502
vt 0.353082 0.750000
vt 0.625000 0.771918
vt 0.625000 0.771918
vt 0.497529 0.750000
vt 0.353082 0.637498
vt 0.353082 0.500000
vt 0.375000 0.637498
vt 0.625000 0.478082
vt 0.497529 0.500000
vt 0.625000 0.478082
vt 0.146918 0.750000
vt 0.125000 0.612502
vt 0.625000 0.978081
vt 0.497529 1.000000
vt 0.125000 0.637498
vt 0.146918 0.500000
vt 0.625000 0.271918
vt 0.625000 0.271918
vt 0.497529 0.250000
vt 0.375000 0.612502
vt 0.353082 0.750000
vt 0.625000 0.612502
vt 0.497529 0.750000
vt 0.625000 0.612502
vt 0.353082 0.500000
vt 0.375000 0.637498
vt 0.625000 0.637498
vt 0.625000 0.637498
vt 0.497529 0.500000
vt 0.146918 0.750000
vt 0.125000 0.612502
vt 0.497529 0.000000
vt 0.625000 0.137498
vt 0.497529 0.000000
vt 0.125000 0.637498
vt 0.146918 0.500000
vt 0.625000 0.271918
vt 0.497529 0.250000
vt 0.497529 0.250000
vt 0.375000 0.612502
vt 0.353082 0.750000
vt 0.625000 0.612502
vt 0.497529 0.750000
vt 0.625000 0.612502
vt 0.353082 0.500000
vt 0.375000 0.637498
vt 0.625000 0.478082
vt 0.497529 0.500000
vt 0.497529 0.500000
vt 0.146918 0.750000
vt 0.125000 0.612502
vt 0.497529 0.000000
vt 0.625000 0.137498
vt 0.497529 0.000000
vt 0.125000 0.637498
vt 0.146918 0.500000
vt 0.625000 0.271918
vt 0.497529 0.250000
vt 0.497529 0.250000
vt 0.375000 0.612502
vt 0.353082 0.750000
vt 0.625000 0.612502
vt 0.497529 0.750000
vt 0.497529 0.750000
vt 0.353082 0.500000
vt 0.375000 0.637498
vt 0.625000 0.478082
vt 0.497529 0.500000
vt 0.497529 0.500000
vt 0.502471 0.000000
vt 0.625000 0.271918
vt 0.625000 0.978082
vt 0.502471 1.000000
vt 0.625000 0.137498
vt 0.625000 0.112502
vt 0.625000 0.478081
vt 0.625000 0.771918
vt 0.502471 0.000000
vt 0.625000 0.112502
vt 0.625000 0.771918
vt 0.625000 0.978082
vt 0.502471 0.000000
vt 0.625000 0.112502
vt 0.625000 0.771918
vt 0.625000 0.978082
vn -0.0251 -0.9997 -0.0038
vn 0.9995 -0.0251 -0.0184
vn -0.0090 0.0039 -1.0000
vn 0.0182 -0.0043 0.9998
vn -0.9995 0.0251 0.0184
vn 0.0251 0.9997 0.0038
vn -0.0106 -0.9999 -0.0034
vn 0.9997 0.0181 0.0178
vn 0.0090 -0.0039 1.0000
vn -0.9997 -0.0181 -0.0178
vn 0.0106 0.9999 0.0034
vn 0.9996 -0.0221 0.0177
vn 0.0241 0.9997 0.0036
vn -0.0241 -0.9997 -0.0036
vn -0.9996 0.0221 -0.0176
vn -0.9996 0.0221 -0.0177
vn -0.3279 0.6205 0.7124
vn -0.3535 0.6265 -0.6946
vn -0.3588 -0.6087 0.7077
vn -0.3844 -0.6026 -0.6993
vn 0.3844 0.6026 0.6993
vn 0.3588 0.6087 -0.7077
vn 0.3535 -0.6265 0.6946
vn 0.3279 -0.6205 -0.7124
vn -0.3484 0.6135 0.7086
vn -0.3562 0.6105 -0.7073
vn -0.3568 -0.6240 0.6952
vn -0.3648 -0.6105 -0.7030
vn 0.3648 0.6105 0.7030
vn 0.3568 0.6240 -0.6952
vn 0.3562 -0.6105 0.7073
vn 0.3484 -0.6135 -0.7086
vn -0.3671 -0.6133 0.6993
vn -0.3748 -0.5997 -0.7070
vn 0.3457 -0.6213 0.7031
vn 0.3376 -0.6242 -0.7045
vn -0.3376 0.6242 0.7045
vn -0.3457 0.6213 -0.7031
vn 0.3748 0.5997 0.7070
vn 0.3671 0.6133 -0.6993
vn 0.4353 -0.0075 -0.9003
vn 0.4795 -0.8775 -0.0125
vn 0.4678 -0.0151 0.8837
vn 0.5229 0.8523 -0.0059
vn -0.0028 -0.6610 0.7504
vn -0.0303 -0.6545 -0.7554
vn -0.4795 0.8775 0.0125
vn -0.4678 0.0151 -0.8837
vn -0.4353 0.0075 0.9003
vn -0.5229 -0.8523 0.0059
vn 0.0303 0.6545 0.7554
vn 0.0028 0.6610 -0.7504
vn 0.4489 0.0118 -0.8935
vn 0.4989 -0.8666 0.0061
vn 0.4552 0.0046 0.8904
vn 0.5047 0.8632 0.0117
vn -0.0002 -0.6607 0.7506
vn -0.0137 -0.6551 -0.7554
vn -0.4989 0.8666 -0.0061
vn -0.4552 -0.0046 -0.8904
vn -0.4489 -0.0118 0.8935
vn -0.5047 -0.8632 -0.0117
vn 0.0137 0.6551 0.7554
vn 0.0002 0.6607 -0.7506
vn 0.0091 0.6608 -0.7505
vn 0.5218 0.8530 0.0120
vn 0.0226 0.6549 0.7554
vn -0.4810 0.8767 -0.0057
vn 0.4550 -0.0134 0.8904
vn 0.4487 -0.0066 -0.8937
vn -0.5218 -0.8530 -0.0120
vn -0.0226 -0.6549 -0.7554
vn -0.0091 -0.6608 0.7505
vn 0.4810 -0.8767 0.0057
vn -0.4487 0.0066 0.8937
vn -0.4550 0.0134 -0.8904
vn -0.0182 0.0043 -0.9998
usemtl Material.001
s off
f 15/1/1 17/2/1 4/3/1 2/4/1
f 21/5/2 23/6/2 18/7/2 14/8/2
f 31/9/3 43/10/3 37/11/3 25/12/3
f 22/13/4 10/14/4 5/15/4 16/16/4
f 3/17/5 6/18/5 12/19/5 8/20/5
f 9/21/6 11/22/6 24/23/6 20/24/6
f 39/25/7 41/26/7 28/27/7 26/28/7
f 45/29/8 47/30/8 42/31/8 38/32/8
f 55/33/3 67/34/3 61/35/3 49/36/3
f 46/37/9 34/38/9 29/39/9 40/40/9
f 27/41/10 30/42/10 36/43/10 32/44/10
f 33/45/11 35/46/11 48/47/11 44/48/11
f 63/49/12 65/50/12 52/51/12 50/52/12
f 69/53/13 71/54/13 66/55/13 62/56/13
f 79/57/3 91/58/3 85/59/3 73/60/3
f 70/61/9 58/62/9 53/63/9 64/64/9
f 51/65/14 54/66/14 60/67/14 56/68/14
f 57/69/15 59/70/15 72/71/15 68/72/15
f 87/73/12 89/74/12 76/75/12 74/76/12
f 93/77/13 95/78/13 90/79/13 86/80/13
f 94/81/9 82/82/9 77/83/9 88/84/9
f 75/85/14 78/86/14 84/87/14 80/88/14
f 81/89/16 83/90/16 96/91/16 92/92/16
f 1/93/17 2/94/17 3/95/17
f 4/96/18 5/97/18 6/98/18
f 7/99/19 8/100/19 9/101/19
f 10/102/20 11/103/20 12/104/20
f 13/105/21 14/106/21 15/107/21
f 16/108/22 17/109/22 18/110/22
f 19/111/23 20/112/23 21/113/23
f 22/114/24 23/115/24 24/116/24
f 25/12/25 26/117/25 27/118/25
f 28/27/26 29/119/26 30/120/26
f 31/9/27 32/121/27 33/122/27
f 34/123/28 35/124/28 36/125/28
f 37/11/29 38/126/29 39/127/29
f 40/128/30 41/129/30 42/130/30
f 43/10/31 44/131/31 45/132/31
f 46/133/32 47/134/32 48/135/32
f 49/36/33 50/136/33 51/137/33
f 52/138/34 53/139/34 54/140/34
f 55/33/35 56/141/35 57/142/35
f 58/143/36 59/144/36 60/145/36
f 61/35/37 62/146/37 63/147/37
f 64/148/38 65/149/38 66/150/38
f 67/34/39 68/151/39 69/152/39
f 70/153/40 71/154/40 72/155/40
f 73/60/33 74/156/33 75/157/33
f 76/158/34 77/159/34 78/160/34
f 79/57/35 80/161/35 81/162/35
f 82/163/36 83/164/36 84/165/36
f 85/59/37 86/166/37 87/167/37
f 88/168/38 89/169/38 90/170/38
f 91/58/39 92/171/39 93/172/39
f 94/173/40 95/174/40 96/175/40
f 7/99/41 1/93/41 3/95/41 8/100/41
f 2/176/42 4/96/42 6/18/42 3/17/42
f 5/97/43 10/102/43 12/19/43 6/18/43
f 11/22/44 9/21/44 8/20/44 12/19/44
f 19/111/45 7/99/45 9/101/45 20/112/45
f 10/177/46 22/114/46 24/23/46 11/22/46
f 23/6/47 21/5/47 20/24/47 24/23/47
f 13/105/48 19/111/48 21/5/48 14/8/48
f 22/13/49 16/16/49 18/7/49 23/6/49
f 17/2/50 15/1/50 14/8/50 18/7/50
f 1/93/51 13/105/51 15/107/51 2/94/51
f 16/108/52 5/178/52 4/3/52 17/2/52
f 31/9/53 25/12/53 27/118/53 32/121/53
f 26/28/54 28/27/54 30/120/54 27/179/54
f 29/180/55 34/181/55 36/43/55 30/42/55
f 35/46/56 33/45/56 32/44/56 36/43/56
f 43/10/57 31/9/57 33/122/57 44/131/57
f 34/123/58 46/182/58 48/47/58 35/46/58
f 47/30/59 45/29/59 44/48/59 48/47/59
f 37/11/60 43/10/60 45/29/60 38/32/60
f 46/37/61 40/40/61 42/31/61 47/30/61
f 41/26/62 39/25/62 38/32/62 42/31/62
f 25/12/63 37/11/63 39/127/63 26/117/63
f 40/183/64 29/119/64 28/27/64 41/26/64
f 55/33/65 49/36/65 51/137/65 56/141/65
f 50/184/66 52/138/66 54/66/66 51/65/66
f 53/139/67 58/185/67 60/67/67 54/66/67
f 59/70/68 57/69/68 56/68/68 60/67/68
f 67/34/69 55/33/69 57/142/69 68/151/69
f 58/143/70 70/153/70 72/71/70 59/70/70
f 71/54/71 69/53/71 68/72/71 72/71/71
f 61/35/72 67/34/72 69/53/72 62/56/72
f 70/61/73 64/64/73 66/55/73 71/54/73
f 65/50/74 63/49/74 62/56/74 66/55/74
f 49/36/75 61/35/75 63/147/75 50/136/75
f 64/186/76 53/187/76 52/51/76 65/50/76
f 79/57/65 73/60/65 75/157/65 80/161/65
f 74/188/66 76/158/66 78/86/66 75/85/66
f 77/159/67 82/189/67 84/87/67 78/86/67
f 83/90/68 81/89/68 80/88/68 84/87/68
f 91/58/69 79/57/69 81/162/69 92/171/69
f 82/163/70 94/173/70 96/91/70 83/90/70
f 95/78/71 93/77/71 92/92/71 96/91/71
f 85/59/72 91/58/72 93/77/72 86/80/72
f 94/81/73 88/84/73 90/79/73 95/78/73
f 89/74/74 87/73/74 86/80/74 90/79/74
f 73/60/75 85/59/75 87/167/75 74/156/75
f 88/190/76 77/191/76 76/75/76 89/74/76
f 7/99/77 19/111/77 13/105/77 1/93/77
o Cube.002_cross
v 19.786678 -3.964170 -3.909372
v 19.876488 -3.098308 3.516896
v -19.520603 -3.602915 -3.476138
v -19.430794 -2.737053 3.950130
v 19.849522 3.986259 -4.837108
v 19.939331 4.852121 2.589160
v -19.457760 4.347515 -4.403874
v -19.367950 5.213377 3.022393
v -2.451341 -19.560671 -2.906228
v -4.020369 -20.497908 4.669284
v -3.104813 21.658136 -5.815969
v -4.673841 20.720898 1.759544
v 5.092566 -19.471691 -2.646523
v 3.523539 -20.408930 4.928990
v 4.439095 21.747114 -5.556262
v 2.870067 20.809877 2.019250
vt 0.375000 0.000000
vt 0.625000 0.000000
vt 0.625000 0.250000
vt 0.375000 0.250000
vt 0.625000 0.500000
vt 0.375000 0.500000
vt 0.625000 0.750000
vt 0.375000 0.750000
vt 0.625000 1.000000
vt 0.375000 1.000000
vt 0.125000 0.500000
vt 0.125000 0.750000
vt 0.875000 0.500000
vt 0.875000 0.750000
vt 0.375000 0.000000
vt 0.625000 0.000000
vt 0.625000 0.250000
vt 0.375000 0.250000
vt 0.625000 0.500000
vt 0.375000 0.500000
vt 0.625000 0.750000
vt 0.375000 0.750000
vt 0.625000 1.000000
vt 0.375000 1.000000
vt 0.125000 0.500000
vt 0.125000 0.750000
vt 0.875000 0.500000
vt 0.875000 0.750000
vn -0.0079 -0.9932 0.1159
vn -0.9999 0.0092 0.0110
vn 0.0079 0.9932 -0.1159
vn 0.9999 -0.0092 -0.0110
vn -0.0120 -0.1158 -0.9932
vn 0.0120 0.1158 0.9932
vn -0.9780 -0.0301 -0.2063
vn -0.0158 0.9927 0.1195
vn 0.9780 0.0301 0.2063
vn 0.0158 -0.9927 -0.1195
vn 0.0351 -0.0698 -0.9969
vn -0.0351 0.0698 0.9969
usemtl Material.002
s off
f 97/192/78 98/193/78 100/194/78 99/195/78
f 99/195/79 100/194/79 104/196/79 103/197/79
f 103/197/80 104/196/80 102/198/80 101/199/80
f 101/199/81 102/198/81 98/200/81 97/201/81
f 99/202/82 103/197/82 101/199/82 97/203/82
f 104/196/83 100/204/83 98/205/83 102/198/83
f 105/206/84 106/207/84 108/208/84 107/209/84
f 107/209/85 108/208/85 112/210/85 111/211/85
f 111/211/86 112/210/86 110/212/86 109/213/86
f 109/213/87 110/212/87 106/214/87 105/215/87
f 107/216/88 111/211/88 109/213/88 105/217/88
f 112/210/89 108/218/89 106/219/89 110/212/89
