import {Tracker} from "./seq";

const tracker = new Tracker();
tracker.setTrack(
    {tracks:[
            {
                "startTime": 0,
                "duration": 0,
                "length": 0,
                "notes": [],
                "controlChanges": {},
                "id": 0
            },
            {
                "startTime": 0,
                "duration": 142.21553043750154,
                "length": 1620,
                "notes": [
                    {
                        "name": "G2",
                        "midi": 43,
                        "time": 0,
                        "velocity": 0.7874015748031497,
                        "duration": 0.10647993750000001
                    },
                    {
                        "name": "G4",
                        "midi": 67,
                        "time": 0,
                        "velocity": 0.7874015748031497,
                        "duration": 0.3286989375
                    },
                    {
                        "name": "B4",
                        "midi": 71,
                        "time": 0,
                        "velocity": 0.7874015748031497,
                        "duration": 0.3286989375
                    },
                    {
                        "name": "B3",
                        "midi": 59,
                        "time": 0.11110950000000001,
                        "velocity": 0.7874015748031497,
                        "duration": 0.10647993750000002
                    },
                    {
                        "name": "G2",
                        "midi": 43,
                        "time": 0.22221900000000003,
                        "velocity": 0.7874015748031497,
                        "duration": 0.2175894375
                    },
                    {
                        "name": "G4",
                        "midi": 67,
                        "time": 0.3333285,
                        "velocity": 0.7874015748031497,
                        "duration": 0.3286989375
                    },
                    {
                        "name": "B4",
                        "midi": 71,
                        "time": 0.3333285,
                        "velocity": 0.7874015748031497,
                        "duration": 0.3286989375
                    },
                    {
                        "name": "G4",
                        "midi": 67,
                        "time": 0.44443800000000006,
                        "velocity": 0.7874015748031497,
                        "duration": 0.21758943749999998
                    },
                    {
                        "name": "B3",
                        "midi": 59,
                        "time": 0.666657,
                        "velocity": 0.7874015748031497,
                        "duration": 0.10647993750000007
                    },
                    {
                        "name": "G4",
                        "midi": 67,
                        "time": 0.666657,
                        "velocity": 0.7874015748031497,
                        "duration": 2.6619984374999994
                    },
                    {
                        "name": "B4",
                        "midi": 71,
                        "time": 0.666657,
                        "velocity": 0.7874015748031497,
                        "duration": 0.21758943750000004
                    },
                    {
                        "name": "G2",
                        "midi": 43,
                        "time": 0.7777665000000001,
                        "velocity": 0.7874015748031497,
                        "duration": 0.21758943749999993
                    },
                    {
                        "name": "B4",
                        "midi": 71,
                        "time": 0.8888760000000001,
                        "velocity": 0.7874015748031497,
                        "duration": 0.3286989374999999
                    },
                    {
                        "name": "B4",
                        "midi": 71,
                        "time": 0.8888760000000001,
                        "velocity": 0.7874015748031497,
                        "duration": 0.3286989374999999
                    },
                    {
                        "name": "B3",
                        "midi": 59,
                        "time": 0.9999855000000001,
                        "velocity": 0.7874015748031497,
                        "duration": 0.10647993749999995
                    },
                    {
                        "name": "G2",
                        "midi": 43,
                        "time": 1.111095,
                        "velocity": 0.7874015748031497,
                        "duration": 0.21758943750000004
                    },
                    {
                        "name": "D5",
                        "midi": 74,
                        "time": 1.2222045,
                        "velocity": 0.7874015748031497,
                        "duration": 0.3286989375
                    },
                    {
                        "name": "B4",
                        "midi": 71,
                        "time": 1.2222045,
                        "velocity": 0.7874015748031497,
                        "duration": 0.3286989375
                    },
                    {
                        "name": "F#4",
                        "midi": 66,
                        "time": 1.3333139999999999,
                        "velocity": 0.7874015748031497,
                        "duration": 0.21758943750000004
                    },
                    {
                        "name": "B3",
                        "midi": 59,
                        "time": 1.5555329999999998,
                        "velocity": 0.7874015748031497,
                        "duration": 0.10647993750000007
                    },
                    {
                        "name": "B4",
                        "midi": 71,
                        "time": 1.5555329999999998,
                        "velocity": 0.7874015748031497,
                        "duration": 0.21758943750000004
                    },
                    {
                        "name": "B4",
                        "midi": 71,
                        "time": 1.5555329999999998,
                        "velocity": 0.7874015748031497,
                        "duration": 0.21758943750000004
                    },
                    {
                        "name": "G2",
                        "midi": 43,
                        "time": 1.6666424999999998,
                        "velocity": 0.7874015748031497,
                        "duration": 0.21758943750000004
                    },
                    {
                        "name": "B4",
                        "midi": 71,
                        "time": 1.7777519999999998,
                        "velocity": 0.7874015748031497,
                        "duration": 0.3286989374999998
                    },
                    {
                        "name": "F#5",
                        "midi": 78,
                        "time": 1.7777519999999998,
                        "velocity": 0.7874015748031497,
                        "duration": 0.3286989374999998
                    },
                    {
                        "name": "B3",
                        "midi": 59,
                        "time": 1.8888614999999997,
                        "velocity": 0.7874015748031497,
                        "duration": 0.10647993750000007
                    },
                    {
                        "name": "G2",
                        "midi": 43,
                        "time": 1.9999709999999997,
                        "velocity": 0.7874015748031497,
                        "duration": 0.21758943749999982
                    },
                    {
                        "name": "B4",
                        "midi": 71,
                        "time": 2.1110804999999995,
                        "velocity": 0.7874015748031497,
                        "duration": 0.3286989375
                    },
                    {
                        "name": "F#5",
                        "midi": 78,
                        "time": 2.1110804999999995,
                        "velocity": 0.7874015748031497,
                        "duration": 0.3286989375
                    },
                    {
                        "name": "D4",
                        "midi": 62,
                        "time": 2.2221899999999994,
                        "velocity": 0.7874015748031497,
                        "duration": 0.21758943750000004
                    },
                    {
                        "name": "B3",
                        "midi": 59,
                        "time": 2.4444089999999994,
                        "velocity": 0.7874015748031497,
                        "duration": 0.10647993750000007
                    },
                    {
                        "name": "B4",
                        "midi": 71,
                        "time": 2.4444089999999994,
                        "velocity": 0.7874015748031497,
                        "duration": 0.21758943750000004
                    },
                    {
                        "name": "F#5",
                        "midi": 78,
                        "time": 2.4444089999999994,
                        "velocity": 0.7874015748031497,
                        "duration": 0.21758943750000004
                    },
                    {
                        "name": "G2",
                        "midi": 43,
                        "time": 2.5555184999999994,
                        "velocity": 0.7874015748031497,
                        "duration": 0.21758943750000004
                    },
                    {
                        "name": "B4",
                        "midi": 71,
                        "time": 2.6666279999999993,
                        "velocity": 0.7874015748031497,
                        "duration": 0.3286989375
                    },
                    {
                        "name": "D5",
                        "midi": 74,
                        "time": 2.6666279999999993,
                        "velocity": 0.7874015748031497,
                        "duration": 0.3286989375
                    },
                    {
                        "name": "B3",
                        "midi": 59,
                        "time": 2.7777374999999993,
                        "velocity": 0.7874015748031497,
                        "duration": 0.10647993750000007
                    },
                    {
                        "name": "G2",
                        "midi": 43,
                        "time": 2.8888469999999993,
                        "velocity": 0.7874015748031497,
                        "duration": 0.21758943750000004
                    },
                    {
                        "name": "D5",
                        "midi": 74,
                        "time": 2.9999564999999992,
                        "velocity": 0.7874015748031497,
                        "duration": 0.3286989375
                    },
                    {
                        "name": "D5",
                        "midi": 74,
                        "time": 2.9999564999999992,
                        "velocity": 0.7874015748031497,
                        "duration": 1.4397939374999988
                    },
                    {
                        "name": "B3",
                        "midi": 59,
                        "time": 3.111065999999999,
                        "velocity": 0.7874015748031497,
                        "duration": 0.21758943750000004
                    },
                    {
                        "name": "C4",
                        "midi": 60,
                        "time": 3.333284999999999,
                        "velocity": 0.7874015748031497,
                        "duration": 0.21758943750000004
                    },
                    {
                        "name": "E4",
                        "midi": 64,
                        "time": 3.333284999999999,
                        "velocity": 0.7874015748031497,
                        "duration": 0.10647993750000007
                    },
                    {
                        "name": "B4",
                        "midi": 71,
                        "time": 3.333284999999999,
                        "velocity": 0.7874015748031497,
                        "duration": 0.21758943750000004
                    },
                    {
                        "name": "F#4",
                        "midi": 66,
                        "time": 3.444394499999999,
                        "velocity": 0.7874015748031497,
                        "duration": 0.10647993750000007
                    },
                    {
                        "name": "E2",
                        "midi": 40,
                        "time": 3.555503999999999,
                        "velocity": 0.7874015748031497,
                        "duration": 0.10647993750000007
                    },
                    {
                        "name": "G4",
                        "midi": 67,
                        "time": 3.555503999999999,
                        "velocity": 0.7874015748031497,
                        "duration": 0.3286989375
                    },
                    {
                        "name": "B4",
                        "midi": 71,
                        "time": 3.555503999999999,
                        "velocity": 0.7874015748031497,
                        "duration": 0.3286989375
                    },
                    {
                        "name": "B3",
                        "midi": 59,
                        "time": 3.666613499999999,
                        "velocity": 0.7874015748031497,
                        "duration": 0.10647993750000007
                    },
                    {
                        "name": "E2",
                        "midi": 40,
                        "time": 3.777722999999999,
                        "velocity": 0.7874015748031497,
                        "duration": 0.21758943750000004
                    },
                    {
                        "name": "G4",
                        "midi": 67,
                        "time": 3.888832499999999,
                        "velocity": 0.7874015748031497,
                        "duration": 0.3286989375
                    },
                    {
                        "name": "B4",
                        "midi": 71,
                        "time": 3.888832499999999,
                        "velocity": 0.7874015748031497,
                        "duration": 0.3286989375
                    },
                    {
                        "name": "G4",
                        "midi": 67,
                        "time": 3.999941999999999,
                        "velocity": 0.7874015748031497,
                        "duration": 0.21758943750000004
                    },
                    {
                        "name": "B3",
                        "midi": 59,
                        "time": 4.222160999999999,
                        "velocity": 0.7874015748031497,
                        "duration": 0.10647993749999962
                    },
                    {
                        "name": "G4",
                        "midi": 67,
                        "time": 4.222160999999999,
                        "velocity": 0.7874015748031497,
                        "duration": 1.439793937499994
                    },
                    {
                        "name": "B4",
                        "midi": 71,
                        "time": 4.222160999999999,
                        "velocity": 0.7874015748031497,
                        "duration": 0.21758943749999915
                    },
                    {
                        "name": "E2",
                        "midi": 40,
                        "time": 4.3332704999999985,
                        "velocity": 0.7874015748031497,
                        "duration": 0.21758943749999915
                    },
                    {
                        "name": "B4",
                        "midi": 71,
                        "time": 4.444379999999998,
                        "velocity": 0.7874015748031497,
                        "duration": 0.3286989374999987
                    },
                    {
                        "name": "B4",
                        "midi": 71,
                        "time": 4.444379999999998,
                        "velocity": 0.7874015748031497,
                        "duration": 0.3286989374999987
                    },
                    {
                        "name": "B3",
                        "midi": 59,
                        "time": 4.5554894999999975,
                        "velocity": 0.7874015748031497,
                        "duration": 0.10647993749999962
                    },
                    {
                        "name": "E2",
                        "midi": 40,
                        "time": 4.666598999999997,
                        "velocity": 0.7874015748031497,
                        "duration": 0.21758943749999915
                    },
                    {
                        "name": "D5",
                        "midi": 74,
                        "time": 4.777708499999997,
                        "velocity": 0.7874015748031497,
                        "duration": 0.21758943749999915
                    },
                    {
                        "name": "B4",
                        "midi": 71,
                        "time": 4.777708499999997,
                        "velocity": 0.7874015748031497,
                        "duration": 0.3286989374999987
                    },
                    {
                        "name": "F#4",
                        "midi": 66,
                        "time": 4.888817999999996,
                        "velocity": 0.7874015748031497,
                        "duration": 0.21758943749999915
                    },
                    {
                        "name": "B4",
                        "midi": 71,
                        "time": 4.999927499999996,
                        "velocity": 0.7874015748031497,
                        "duration": 0.3286989374999987
                    },
                    {
                        "name": "B3",
                        "midi": 59,
                        "time": 5.111036999999995,
                        "velocity": 0.7874015748031497,
                        "duration": 0.10647993749999962
                    },
                    {
                        "name": "B4",
                        "midi": 71,
                        "time": 5.111036999999995,
                        "velocity": 0.7874015748031497,
                        "duration": 0.21758943749999915
                    },
                    {
                        "name": "C2",
                        "midi": 36,
                        "time": 5.222146499999995,
                        "velocity": 0.7874015748031497,
                        "duration": 0.21758943749999915
                    },
                    {
                        "name": "G4",
                        "midi": 67,
                        "time": 5.333255999999994,
                        "velocity": 0.7874015748031497,
                        "duration": 0.6620274374999982
                    },
                    {
                        "name": "G5",
                        "midi": 79,
                        "time": 5.333255999999994,
                        "velocity": 0.7874015748031497,
                        "duration": 0.3286989374999987
                    },
                    {
                        "name": "B3",
                        "midi": 59,
                        "time": 5.444365499999994,
                        "velocity": 0.7874015748031497,
                        "duration": 0.10647993749999962
                    },
                    {
                        "name": "C2",
                        "midi": 36,
                        "time": 5.555474999999993,
                        "velocity": 0.7874015748031497,
                        "duration": 0.21758943749999915
                    },
                    {
                        "name": "G4",
                        "midi": 67,
                        "time": 5.666584499999993,
                        "velocity": 0.7874015748031497,
                        "duration": 0.5509179374999986
                    },
                    {
                        "name": "G5",
                        "midi": 79,
                        "time": 5.666584499999993,
                        "velocity": 0.7874015748031497,
                        "duration": 0.32869893749999957
                    },
                    {
                        "name": "D4",
                        "midi": 62,
                        "time": 5.777693999999992,
                        "velocity": 0.7874015748031497,
                        "duration": 0.21758943750000004
                    },
                    {
                        "name": "B3",
                        "midi": 59,
                        "time": 5.999912999999992,
                        "velocity": 0.7874015748031497,
                        "duration": 0.10647993749999962
                    },
                    {
                        "name": "G4",
                        "midi": 67,
                        "time": 5.999912999999992,
                        "velocity": 0.7874015748031497,
                        "duration": 0.8842464374999972
                    },
                    {
                        "name": "G5",
                        "midi": 79,
                        "time": 5.999912999999992,
                        "velocity": 0.7874015748031497,
                        "duration": 0.21758943749999915
                    },
                    {
                        "name": "C2",
                        "midi": 36,
                        "time": 6.111022499999992,
                        "velocity": 0.7874015748031497,
                        "duration": 0.21758943749999915
                    },
                    {
                        "name": "A4",
                        "midi": 69,
                        "time": 6.222131999999991,
                        "velocity": 0.7874015748031497,
                        "duration": 0.3286989374999987
                    },
                    {
                        "name": "F#5",
                        "midi": 78,
                        "time": 6.222131999999991,
                        "velocity": 0.7874015748031497,
                        "duration": 0.3286989374999987
                    },
                    {
                        "name": "B3",
                        "midi": 59,
                        "time": 6.333241499999991,
                        "velocity": 0.7874015748031497,
                        "duration": 0.10647993749999962
                    },
                    {
                        "name": "C2",
                        "midi": 36,
                        "time": 6.44435099999999,
                        "velocity": 0.7874015748031497,
                        "duration": 0.21758943749999915
                    },
                    {
                        "name": "A4",
                        "midi": 69,
                        "time": 6.55546049999999,
                        "velocity": 0.7874015748031497,
                        "duration": 0.32869893749999957
                    },
                    {
                        "name": "F#5",
                        "midi": 78,
                        "time": 6.55546049999999,
                        "velocity": 0.7874015748031497,
                        "duration": 1.4397939374999957
                    },
                    {
                        "name": "B3",
                        "midi": 59,
                        "time": 6.6665699999999894,
                        "velocity": 0.7874015748031497,
                        "duration": 0.21758943750000004
                    },
                    {
                        "name": "C4",
                        "midi": 60,
                        "time": 6.888788999999989,
                        "velocity": 0.7874015748031497,
                        "duration": 0.21758943749999915
                    },
                    {
                        "name": "E4",
                        "midi": 64,
                        "time": 6.888788999999989,
                        "velocity": 0.7874015748031497,
                        "duration": 0.10647993749999962
                    },
                    {
                        "name": "A4",
                        "midi": 69,
                        "time": 6.888788999999989,
                        "velocity": 0.7874015748031497,
                        "duration": 0.21758943749999915
                    },
                    {
                        "name": "F#4",
                        "midi": 66,
                        "time": 6.999898499999989,
                        "velocity": 0.7874015748031497,
                        "duration": 0.10647993749999962
                    },
                    {
                        "name": "G2",
                        "midi": 43,
                        "time": 7.1110079999999884,
                        "velocity": 0.7874015748031497,
                        "duration": 0.10647993749999962
                    },
                    {
                        "name": "G4",
                        "midi": 67,
                        "time": 7.1110079999999884,
                        "velocity": 0.7874015748031497,
                        "duration": 0.3286989374999987
                    },
                    {
                        "name": "B4",
                        "midi": 71,
                        "time": 7.1110079999999884,
                        "velocity": 0.7874015748031497,
                        "duration": 0.3286989374999987
                    },
                    {
                        "name": "B3",
                        "midi": 59,
                        "time": 7.222117499999988,
                        "velocity": 0.7874015748031497,
                        "duration": 0.10647993749999962
                    },
                    {
                        "name": "G2",
                        "midi": 43,
                        "time": 7.3332269999999875,
                        "velocity": 0.7874015748031497,
                        "duration": 0.21758943749999915
                    },
                    {
                        "name": "G4",
                        "midi": 67,
                        "time": 7.444336499999987,
                        "velocity": 0.7874015748031497,
                        "duration": 0.32869893749999957
                    },
                    {
                        "name": "B4",
                        "midi": 71,
                        "time": 7.444336499999987,
                        "velocity": 0.7874015748031497,
                        "duration": 0.32869893749999957
                    },
                    {
                        "name": "G4",
                        "midi": 67,
                        "time": 7.555445999999987,
                        "velocity": 0.7874015748031497,
                        "duration": 0.21758943750000004
                    },
                    {
                        "name": "B3",
                        "midi": 59,
                        "time": 7.7776649999999865,
                        "velocity": 0.7874015748031497,
                        "duration": 0.10647993749999962
                    },
                    {
                        "name": "G4",
                        "midi": 67,
                        "time": 7.7776649999999865,
                        "velocity": 0.7874015748031497,
                        "duration": 2.6619984374999888
                    },
                    {
                        "name": "B4",
                        "midi": 71,
                        "time": 7.7776649999999865,
                        "velocity": 0.7874015748031497,
                        "duration": 0.21758943749999915
                    },
                    {
                        "name": "G2",
                        "midi": 43,
                        "time": 7.888774499999986,
                        "velocity": 0.7874015748031497,
                        "duration": 0.21758943749999915
                    },
                    {
                        "name": "B4",
                        "midi": 71,
                        "time": 7.999883999999986,
                        "velocity": 0.7874015748031497,
                        "duration": 0.3286989374999987
                    },
                    {
                        "name": "B4",
                        "midi": 71,
                        "time": 7.999883999999986,
                        "velocity": 0.7874015748031497,
                        "duration": 0.3286989374999987
                    },
                    {
                        "name": "B3",
                        "midi": 59,
                        "time": 8.110993499999985,
                        "velocity": 0.7874015748031497,
                        "duration": 0.10647993749999962
                    },
                    {
                        "name": "G2",
                        "midi": 43,
                        "time": 8.222102999999985,
                        "velocity": 0.7874015748031497,
                        "duration": 0.21758943749999915
                    },
                    {
                        "name": "D5",
                        "midi": 74,
                        "time": 8.333212499999984,
                        "velocity": 0.7874015748031497,
                        "duration": 0.3286989374999987
                    },
                    {
                        "name": "B4",
                        "midi": 71,
                        "time": 8.333212499999984,
                        "velocity": 0.7874015748031497,
                        "duration": 0.3286989374999987
                    },
                    {
                        "name": "F#4",
                        "midi": 66,
                        "time": 8.444321999999984,
                        "velocity": 0.7874015748031497,
                        "duration": 0.21758943749999915
                    },
                    {
                        "name": "B3",
                        "midi": 59,
                        "time": 8.666540999999983,
                        "velocity": 0.7874015748031497,
                        "duration": 0.10647993749999962
                    },
                    {
                        "name": "B4",
                        "midi": 71,
                        "time": 8.666540999999983,
                        "velocity": 0.7874015748031497,
                        "duration": 0.21758943749999915
                    },
                    {
                        "name": "B4",
                        "midi": 71,
                        "time": 8.666540999999983,
                        "velocity": 0.7874015748031497,
                        "duration": 0.21758943749999915
                    },
                    {
                        "name": "G2",
                        "midi": 43,
                        "time": 8.777650499999982,
                        "velocity": 0.7874015748031497,
                        "duration": 0.21758943749999915
                    },
                    {
                        "name": "B4",
                        "midi": 71,
                        "time": 8.888759999999982,
                        "velocity": 0.7874015748031497,
                        "duration": 0.3286989374999987
                    },
                    {
                        "name": "F#5",
                        "midi": 78,
                        "time": 8.888759999999982,
                        "velocity": 0.7874015748031497,
                        "duration": 0.3286989374999987
                    },
                    {
                        "name": "B3",
                        "midi": 59,
                        "time": 8.999869499999981,
                        "velocity": 0.7874015748031497,
                        "duration": 0.10647993749999962
                    },
                    {
                        "name": "G2",
                        "midi": 43,
                        "time": 9.11097899999998,
                        "velocity": 0.7874015748031497,
                        "duration": 0.21758943749999915
                    },
                    {
                        "name": "B4",
                        "midi": 71,
                        "time": 9.22208849999998,
                        "velocity": 0.7874015748031497,
                        "duration": 0.3286989374999987
                    },
                    {
                        "name": "F#5",
                        "midi": 78,
                        "time": 9.22208849999998,
                        "velocity": 0.7874015748031497,
                        "duration": 0.3286989374999987
                    },
                    {
                        "name": "D4",
                        "midi": 62,
                        "time": 9.33319799999998,
                        "velocity": 0.7874015748031497,
                        "duration": 0.21758943749999915
                    },
                    {
                        "name": "B3",
                        "midi": 59,
                        "time": 9.555416999999979,
                        "velocity": 0.7874015748031497,
                        "duration": 0.10647993749999962
                    },
                    {
                        "name": "B4",
                        "midi": 71,
                        "time": 9.555416999999979,
                        "velocity": 0.7874015748031497,
                        "duration": 0.21758943749999915
                    },
                    {
                        "name": "F#5",
                        "midi": 78,
                        "time": 9.555416999999979,
                        "velocity": 0.7874015748031497,
                        "duration": 0.21758943749999915
                    },
                    {
                        "name": "G2",
                        "midi": 43,
                        "time": 9.666526499999978,
                        "velocity": 0.7874015748031497,
                        "duration": 0.21758943749999915
                    },
                    {
                        "name": "B4",
                        "midi": 71,
                        "time": 9.777635999999978,
                        "velocity": 0.7874015748031497,
                        "duration": 0.3286989374999987
                    },
                    {
                        "name": "D5",
                        "midi": 74,
                        "time": 9.777635999999978,
                        "velocity": 0.7874015748031497,
                        "duration": 0.3286989374999987
                    },
                    {
                        "name": "B3",
                        "midi": 59,
                        "time": 9.888745499999978,
                        "velocity": 0.7874015748031497,
                        "duration": 0.10647993749999962
                    },
                    {
                        "name": "G2",
                        "midi": 43,
                        "time": 9.999854999999977,
                        "velocity": 0.7874015748031497,
                        "duration": 0.21758943749999915
                    },
                    {
                        "name": "D5",
                        "midi": 74,
                        "time": 10.110964499999977,
                        "velocity": 0.7874015748031497,
                        "duration": 0.3286989374999987
                    },
                    {
                        "name": "D5",
                        "midi": 74,
                        "time": 10.110964499999977,
                        "velocity": 0.7874015748031497,
                        "duration": 1.439793937499994
                    },
                    {
                        "name": "B3",
                        "midi": 59,
                        "time": 10.222073999999976,
                        "velocity": 0.7874015748031497,
                        "duration": 0.21758943749999915
                    },
                    {
                        "name": "C4",
                        "midi": 60,
                        "time": 10.444292999999975,
                        "velocity": 0.7874015748031497,
                        "duration": 0.21758943749999915
                    },
                    {
                        "name": "E4",
                        "midi": 64,
                        "time": 10.444292999999975,
                        "velocity": 0.7874015748031497,
                        "duration": 0.10647993749999962
                    },
                    {
                        "name": "B4",
                        "midi": 71,
                        "time": 10.444292999999975,
                        "velocity": 0.7874015748031497,
                        "duration": 0.21758943749999915
                    },
                    {
                        "name": "F#4",
                        "midi": 66,
                        "time": 10.555402499999975,
                        "velocity": 0.7874015748031497,
                        "duration": 0.10647993749999962
                    },
                    {
                        "name": "E2",
                        "midi": 40,
                        "time": 10.666511999999974,
                        "velocity": 0.7874015748031497,
                        "duration": 0.10647993749999962
                    },
                    {
                        "name": "G4",
                        "midi": 67,
                        "time": 10.666511999999974,
                        "velocity": 0.7874015748031497,
                        "duration": 0.3286989374999987
                    },
                    {
                        "name": "B4",
                        "midi": 71,
                        "time": 10.666511999999974,
                        "velocity": 0.7874015748031497,
                        "duration": 0.3286989374999987
                    },
                    {
                        "name": "B3",
                        "midi": 59,
                        "time": 10.777621499999974,
                        "velocity": 0.7874015748031497,
                        "duration": 0.10647993749999962
                    },
                    {
                        "name": "E2",
                        "midi": 40,
                        "time": 10.888730999999973,
                        "velocity": 0.7874015748031497,
                        "duration": 0.21758943749999915
                    },
                    {
                        "name": "G4",
                        "midi": 67,
                        "time": 10.999840499999973,
                        "velocity": 0.7874015748031497,
                        "duration": 0.3286989374999987
                    },
                    {
                        "name": "B4",
                        "midi": 71,
                        "time": 10.999840499999973,
                        "velocity": 0.7874015748031497,
                        "duration": 0.3286989374999987
                    },
                    {
                        "name": "G4",
                        "midi": 67,
                        "time": 11.110949999999972,
                        "velocity": 0.7874015748031497,
                        "duration": 0.21758943749999915
                    },
                    {
                        "name": "B3",
                        "midi": 59,
                        "time": 11.333168999999971,
                        "velocity": 0.7874015748031497,
                        "duration": 0.10647993749999962
                    },
                    {
                        "name": "G4",
                        "midi": 67,
                        "time": 11.333168999999971,
                        "velocity": 0.7874015748031497,
                        "duration": 1.439793937499994
                    },
                    {
                        "name": "B4",
                        "midi": 71,
                        "time": 11.333168999999971,
                        "velocity": 0.7874015748031497,
                        "duration": 0.21758943749999915
                    },
                    {
                        "name": "E2",
                        "midi": 40,
                        "time": 11.444278499999971,
                        "velocity": 0.7874015748031497,
                        "duration": 0.21758943749999915
                    },
                    {
                        "name": "B4",
                        "midi": 71,
                        "time": 11.55538799999997,
                        "velocity": 0.7874015748031497,
                        "duration": 0.3286989374999987
                    },
                    {
                        "name": "B4",
                        "midi": 71,
                        "time": 11.55538799999997,
                        "velocity": 0.7874015748031497,
                        "duration": 0.3286989374999987
                    },
                    {
                        "name": "B3",
                        "midi": 59,
                        "time": 11.66649749999997,
                        "velocity": 0.7874015748031497,
                        "duration": 0.10647993749999962
                    },
                    {
                        "name": "E2",
                        "midi": 40,
                        "time": 11.77760699999997,
                        "velocity": 0.7874015748031497,
                        "duration": 0.21758943749999915
                    },
                    {
                        "name": "D5",
                        "midi": 74,
                        "time": 11.888716499999969,
                        "velocity": 0.7874015748031497,
                        "duration": 0.21758943749999915
                    },
                    {
                        "name": "B4",
                        "midi": 71,
                        "time": 11.888716499999969,
                        "velocity": 0.7874015748031497,
                        "duration": 0.3286989374999987
                    },
                    {
                        "name": "F#4",
                        "midi": 66,
                        "time": 11.999825999999969,
                        "velocity": 0.7874015748031497,
                        "duration": 0.21758943749999915
                    },
                    {
                        "name": "B4",
                        "midi": 71,
                        "time": 12.110935499999968,
                        "velocity": 0.7874015748031497,
                        "duration": 0.3286989374999987
                    },
                    {
                        "name": "B3",
                        "midi": 59,
                        "time": 12.222044999999968,
                        "velocity": 0.7874015748031497,
                        "duration": 0.10647993749999962
                    },
                    {
                        "name": "B4",
                        "midi": 71,
                        "time": 12.222044999999968,
                        "velocity": 0.7874015748031497,
                        "duration": 0.21758943749999915
                    },
                    {
                        "name": "C2",
                        "midi": 36,
                        "time": 12.333154499999967,
                        "velocity": 0.7874015748031497,
                        "duration": 0.21758943749999915
                    },
                    {
                        "name": "G4",
                        "midi": 67,
                        "time": 12.444263999999967,
                        "velocity": 0.7874015748031497,
                        "duration": 0.6620274374999973
                    },
                    {
                        "name": "G5",
                        "midi": 79,
                        "time": 12.444263999999967,
                        "velocity": 0.7874015748031497,
                        "duration": 0.3286989374999987
                    },
                    {
                        "name": "B3",
                        "midi": 59,
                        "time": 12.555373499999966,
                        "velocity": 0.7874015748031497,
                        "duration": 0.10647993749999962
                    },
                    {
                        "name": "C2",
                        "midi": 36,
                        "time": 12.666482999999966,
                        "velocity": 0.7874015748031497,
                        "duration": 0.21758943749999915
                    },
                    {
                        "name": "G4",
                        "midi": 67,
                        "time": 12.777592499999965,
                        "velocity": 0.7874015748031497,
                        "duration": 0.5509179374999977
                    },
                    {
                        "name": "G5",
                        "midi": 79,
                        "time": 12.777592499999965,
                        "velocity": 0.7874015748031497,
                        "duration": 0.3286989374999987
                    },
                    {
                        "name": "D4",
                        "midi": 62,
                        "time": 12.888701999999965,
                        "velocity": 0.7874015748031497,
                        "duration": 0.21758943749999915
                    },
                    {
                        "name": "B3",
                        "midi": 59,
                        "time": 13.110920999999964,
                        "velocity": 0.7874015748031497,
                        "duration": 0.10647993749999962
                    },
                    {
                        "name": "G4",
                        "midi": 67,
                        "time": 13.110920999999964,
                        "velocity": 0.7874015748031497,
                        "duration": 0.8842464374999963
                    },
                    {
                        "name": "G5",
                        "midi": 79,
                        "time": 13.110920999999964,
                        "velocity": 0.7874015748031497,
                        "duration": 0.21758943749999915
                    },
                    {
                        "name": "C2",
                        "midi": 36,
                        "time": 13.222030499999963,
                        "velocity": 0.7874015748031497,
                        "duration": 0.21758943749999915
                    },
                    {
                        "name": "A4",
                        "midi": 69,
                        "time": 13.333139999999963,
                        "velocity": 0.7874015748031497,
                        "duration": 0.3286989374999987
                    },
                    {
                        "name": "F#5",
                        "midi": 78,
                        "time": 13.333139999999963,
                        "velocity": 0.7874015748031497,
                        "duration": 0.3286989374999987
                    },
                    {
                        "name": "B3",
                        "midi": 59,
                        "time": 13.444249499999962,
                        "velocity": 0.7874015748031497,
                        "duration": 0.10647993749999962
                    },
                    {
                        "name": "C2",
                        "midi": 36,
                        "time": 13.555358999999962,
                        "velocity": 0.7874015748031497,
                        "duration": 0.21758943749999915
                    },
                    {
                        "name": "A4",
                        "midi": 69,
                        "time": 13.666468499999961,
                        "velocity": 0.7874015748031497,
                        "duration": 0.3286989374999987
                    },
                    {
                        "name": "F#5",
                        "midi": 78,
                        "time": 13.666468499999961,
                        "velocity": 0.7874015748031497,
                        "duration": 1.439793937499994
                    },
                    {
                        "name": "B3",
                        "midi": 59,
                        "time": 13.777577999999961,
                        "velocity": 0.7874015748031497,
                        "duration": 0.21758943749999915
                    },
                    {
                        "name": "C4",
                        "midi": 60,
                        "time": 13.99979699999996,
                        "velocity": 0.7874015748031497,
                        "duration": 0.21758943749999915
                    },
                    {
                        "name": "E4",
                        "midi": 64,
                        "time": 13.99979699999996,
                        "velocity": 0.7874015748031497,
                        "duration": 0.10647993749999962
                    },
                    {
                        "name": "A4",
                        "midi": 69,
                        "time": 13.99979699999996,
                        "velocity": 0.7874015748031497,
                        "duration": 0.21758943749999915
                    },
                    {
                        "name": "F#4",
                        "midi": 66,
                        "time": 14.11090649999996,
                        "velocity": 0.7874015748031497,
                        "duration": 0.10647993749999962
                    },
                    {
                        "name": "G2",
                        "midi": 43,
                        "time": 14.22201599999996,
                        "velocity": 0.7874015748031497,
                        "duration": 0.10647993749999962
                    },
                    {
                        "name": "G4",
                        "midi": 67,
                        "time": 14.22201599999996,
                        "velocity": 0.7874015748031497,
                        "duration": 0.3286989374999987
                    },
                    {
                        "name": "B4",
                        "midi": 71,
                        "time": 14.22201599999996,
                        "velocity": 0.7874015748031497,
                        "duration": 0.3286989374999987
                    },
                    {
                        "name": "B3",
                        "midi": 59,
                        "time": 14.333125499999959,
                        "velocity": 0.7874015748031497,
                        "duration": 0.10647993749999962
                    },
                    {
                        "name": "G2",
                        "midi": 43,
                        "time": 14.444234999999958,
                        "velocity": 0.7874015748031497,
                        "duration": 0.21758943749999915
                    },
                    {
                        "name": "G4",
                        "midi": 67,
                        "time": 14.555344499999958,
                        "velocity": 0.7874015748031497,
                        "duration": 0.3286989374999987
                    },
                    {
                        "name": "B4",
                        "midi": 71,
                        "time": 14.555344499999958,
                        "velocity": 0.7874015748031497,
                        "duration": 0.3286989374999987
                    },
                    {
                        "name": "G4",
                        "midi": 67,
                        "time": 14.666453999999957,
                        "velocity": 0.7874015748031497,
                        "duration": 0.21758943749999915
                    },
                    {
                        "name": "B3",
                        "midi": 59,
                        "time": 14.888672999999956,
                        "velocity": 0.7874015748031497,
                        "duration": 0.10647993749999962
                    },
                    {
                        "name": "G4",
                        "midi": 67,
                        "time": 14.888672999999956,
                        "velocity": 0.7874015748031497,
                        "duration": 2.6619984375000048
                    },
                    {
                        "name": "B4",
                        "midi": 71,
                        "time": 14.888672999999956,
                        "velocity": 0.7874015748031497,
                        "duration": 0.21758943749999915
                    },
                    {
                        "name": "G2",
                        "midi": 43,
                        "time": 14.999782499999956,
                        "velocity": 0.7874015748031497,
                        "duration": 0.21758943749999915
                    },
                    {
                        "name": "B4",
                        "midi": 71,
                        "time": 15.110891999999955,
                        "velocity": 0.7874015748031497,
                        "duration": 0.3286989374999987
                    },
                    {
                        "name": "B4",
                        "midi": 71,
                        "time": 15.110891999999955,
                        "velocity": 0.7874015748031497,
                        "duration": 0.3286989374999987
                    },
                    {
                        "name": "B3",
                        "midi": 59,
                        "time": 15.222001499999955,
                        "velocity": 0.7874015748031497,
                        "duration": 0.10647993749999962
                    },
                    {
                        "name": "G2",
                        "midi": 43,
                        "time": 15.333110999999954,
                        "velocity": 0.7874015748031497,
                        "duration": 0.21758943749999915
                    },
                    {
                        "name": "D5",
                        "midi": 74,
                        "time": 15.444220499999954,
                        "velocity": 0.7874015748031497,
                        "duration": 0.3286989374999987
                    },
                    {
                        "name": "B4",
                        "midi": 71,
                        "time": 15.444220499999954,
                        "velocity": 0.7874015748031497,
                        "duration": 0.3286989374999987
                    },
                    {
                        "name": "F#4",
                        "midi": 66,
                        "time": 15.555329999999953,
                        "velocity": 0.7874015748031497,
                        "duration": 0.21758943749999915
                    },
                    {
                        "name": "B3",
                        "midi": 59,
                        "time": 15.777548999999953,
                        "velocity": 0.7874015748031497,
                        "duration": 0.10647993749999962
                    },
                    {
                        "name": "B4",
                        "midi": 71,
                        "time": 15.777548999999953,
                        "velocity": 0.7874015748031497,
                        "duration": 0.21758943749999915
                    },
                    {
                        "name": "B4",
                        "midi": 71,
                        "time": 15.777548999999953,
                        "velocity": 0.7874015748031497,
                        "duration": 0.21758943749999915
                    },
                    {
                        "name": "G2",
                        "midi": 43,
                        "time": 15.888658499999952,
                        "velocity": 0.7874015748031497,
                        "duration": 0.21758943749999915
                    },
                    {
                        "name": "B4",
                        "midi": 71,
                        "time": 15.999767999999952,
                        "velocity": 0.7874015748031497,
                        "duration": 0.32869893750000223
                    },
                    {
                        "name": "F#5",
                        "midi": 78,
                        "time": 15.999767999999952,
                        "velocity": 0.7874015748031497,
                        "duration": 0.32869893750000223
                    },
                    {
                        "name": "B3",
                        "midi": 59,
                        "time": 16.11087749999995,
                        "velocity": 0.7874015748031497,
                        "duration": 0.1064799375000014
                    },
                    {
                        "name": "G2",
                        "midi": 43,
                        "time": 16.221986999999952,
                        "velocity": 0.7874015748031497,
                        "duration": 0.2175894375000027
                    },
                    {
                        "name": "B4",
                        "midi": 71,
                        "time": 16.333096499999954,
                        "velocity": 0.7874015748031497,
                        "duration": 0.32869893750000045
                    },
                    {
                        "name": "F#5",
                        "midi": 78,
                        "time": 16.333096499999954,
                        "velocity": 0.7874015748031497,
                        "duration": 0.32869893750000045
                    },
                    {
                        "name": "D4",
                        "midi": 62,
                        "time": 16.444205999999955,
                        "velocity": 0.7874015748031497,
                        "duration": 0.21758943749999915
                    },
                    {
                        "name": "B3",
                        "midi": 59,
                        "time": 16.666424999999954,
                        "velocity": 0.7874015748031497,
                        "duration": 0.1064799375000014
                    },
                    {
                        "name": "B4",
                        "midi": 71,
                        "time": 16.666424999999954,
                        "velocity": 0.7874015748031497,
                        "duration": 0.2175894375000027
                    },
                    {
                        "name": "F#5",
                        "midi": 78,
                        "time": 16.666424999999954,
                        "velocity": 0.7874015748031497,
                        "duration": 0.2175894375000027
                    },
                    {
                        "name": "G2",
                        "midi": 43,
                        "time": 16.777534499999955,
                        "velocity": 0.7874015748031497,
                        "duration": 0.2175894375000027
                    },
                    {
                        "name": "B4",
                        "midi": 71,
                        "time": 16.888643999999957,
                        "velocity": 0.7874015748031497,
                        "duration": 0.328698937500004
                    },
                    {
                        "name": "D5",
                        "midi": 74,
                        "time": 16.888643999999957,
                        "velocity": 0.7874015748031497,
                        "duration": 0.328698937500004
                    },
                    {
                        "name": "B3",
                        "midi": 59,
                        "time": 16.999753499999958,
                        "velocity": 0.7874015748031497,
                        "duration": 0.1064799375000014
                    },
                    {
                        "name": "G2",
                        "midi": 43,
                        "time": 17.11086299999996,
                        "velocity": 0.7874015748031497,
                        "duration": 0.2175894375000027
                    },
                    {
                        "name": "D5",
                        "midi": 74,
                        "time": 17.22197249999996,
                        "velocity": 0.7874015748031497,
                        "duration": 0.32869893750000045
                    },
                    {
                        "name": "D5",
                        "midi": 74,
                        "time": 17.22197249999996,
                        "velocity": 0.7874015748031497,
                        "duration": 1.43979393750001
                    },
                    {
                        "name": "B3",
                        "midi": 59,
                        "time": 17.333081999999962,
                        "velocity": 0.7874015748031497,
                        "duration": 0.21758943749999915
                    },
                    {
                        "name": "C4",
                        "midi": 60,
                        "time": 17.55530099999996,
                        "velocity": 0.7874015748031497,
                        "duration": 0.2175894375000027
                    },
                    {
                        "name": "E4",
                        "midi": 64,
                        "time": 17.55530099999996,
                        "velocity": 0.7874015748031497,
                        "duration": 0.1064799375000014
                    },
                    {
                        "name": "B4",
                        "midi": 71,
                        "time": 17.55530099999996,
                        "velocity": 0.7874015748031497,
                        "duration": 0.2175894375000027
                    },
                    {
                        "name": "F#4",
                        "midi": 66,
                        "time": 17.666410499999962,
                        "velocity": 0.7874015748031497,
                        "duration": 0.1064799375000014
                    },
                    {
                        "name": "E2",
                        "midi": 40,
                        "time": 17.777519999999964,
                        "velocity": 0.7874015748031497,
                        "duration": 0.1064799375000014
                    },
                    {
                        "name": "G4",
                        "midi": 67,
                        "time": 17.777519999999964,
                        "velocity": 0.7874015748031497,
                        "duration": 0.328698937500004
                    },
                    {
                        "name": "B4",
                        "midi": 71,
                        "time": 17.777519999999964,
                        "velocity": 0.7874015748031497,
                        "duration": 0.328698937500004
                    },
                    {
                        "name": "B3",
                        "midi": 59,
                        "time": 17.888629499999965,
                        "velocity": 0.7874015748031497,
                        "duration": 0.1064799375000014
                    },
                    {
                        "name": "E2",
                        "midi": 40,
                        "time": 17.999738999999966,
                        "velocity": 0.7874015748031497,
                        "duration": 0.2175894375000027
                    },
                    {
                        "name": "G4",
                        "midi": 67,
                        "time": 18.110848499999967,
                        "velocity": 0.7874015748031497,
                        "duration": 0.32869893750000045
                    },
                    {
                        "name": "B4",
                        "midi": 71,
                        "time": 18.110848499999967,
                        "velocity": 0.7874015748031497,
                        "duration": 0.32869893750000045
                    },
                    {
                        "name": "G4",
                        "midi": 67,
                        "time": 18.22195799999997,
                        "velocity": 0.7874015748031497,
                        "duration": 0.21758943749999915
                    },
                    {
                        "name": "B3",
                        "midi": 59,
                        "time": 18.444176999999968,
                        "velocity": 0.7874015748031497,
                        "duration": 0.1064799375000014
                    },
                    {
                        "name": "G4",
                        "midi": 67,
                        "time": 18.444176999999968,
                        "velocity": 0.7874015748031497,
                        "duration": 1.439793937500017
                    },
                    {
                        "name": "B4",
                        "midi": 71,
                        "time": 18.444176999999968,
                        "velocity": 0.7874015748031497,
                        "duration": 0.2175894375000027
                    },
                    {
                        "name": "E2",
                        "midi": 40,
                        "time": 18.55528649999997,
                        "velocity": 0.7874015748031497,
                        "duration": 0.2175894375000027
                    },
                    {
                        "name": "B4",
                        "midi": 71,
                        "time": 18.66639599999997,
                        "velocity": 0.7874015748031497,
                        "duration": 0.328698937500004
                    },
                    {
                        "name": "B4",
                        "midi": 71,
                        "time": 18.66639599999997,
                        "velocity": 0.7874015748031497,
                        "duration": 0.328698937500004
                    },
                    {
                        "name": "B3",
                        "midi": 59,
                        "time": 18.77750549999997,
                        "velocity": 0.7874015748031497,
                        "duration": 0.1064799375000014
                    },
                    {
                        "name": "E2",
                        "midi": 40,
                        "time": 18.888614999999973,
                        "velocity": 0.7874015748031497,
                        "duration": 0.2175894375000027
                    },
                    {
                        "name": "D5",
                        "midi": 74,
                        "time": 18.999724499999974,
                        "velocity": 0.7874015748031497,
                        "duration": 0.2175894375000027
                    },
                    {
                        "name": "B4",
                        "midi": 71,
                        "time": 18.999724499999974,
                        "velocity": 0.7874015748031497,
                        "duration": 0.328698937500004
                    },
                    {
                        "name": "F#4",
                        "midi": 66,
                        "time": 19.110833999999976,
                        "velocity": 0.7874015748031497,
                        "duration": 0.2175894375000027
                    },
                    {
                        "name": "B4",
                        "midi": 71,
                        "time": 19.221943499999977,
                        "velocity": 0.7874015748031497,
                        "duration": 0.328698937500004
                    },
                    {
                        "name": "B3",
                        "midi": 59,
                        "time": 19.33305299999998,
                        "velocity": 0.7874015748031497,
                        "duration": 0.1064799375000014
                    },
                    {
                        "name": "B4",
                        "midi": 71,
                        "time": 19.33305299999998,
                        "velocity": 0.7874015748031497,
                        "duration": 0.2175894375000027
                    },
                    {
                        "name": "C2",
                        "midi": 36,
                        "time": 19.44416249999998,
                        "velocity": 0.7874015748031497,
                        "duration": 0.2175894375000027
                    },
                    {
                        "name": "G4",
                        "midi": 67,
                        "time": 19.55527199999998,
                        "velocity": 0.7874015748031497,
                        "duration": 0.6620274375000044
                    },
                    {
                        "name": "G5",
                        "midi": 79,
                        "time": 19.55527199999998,
                        "velocity": 0.7874015748031497,
                        "duration": 0.328698937500004
                    },
                    {
                        "name": "B3",
                        "midi": 59,
                        "time": 19.666381499999982,
                        "velocity": 0.7874015748031497,
                        "duration": 0.1064799375000014
                    },
                    {
                        "name": "C2",
                        "midi": 36,
                        "time": 19.777490999999984,
                        "velocity": 0.7874015748031497,
                        "duration": 0.2175894375000027
                    },
                    {
                        "name": "G4",
                        "midi": 67,
                        "time": 19.888600499999985,
                        "velocity": 0.7874015748031497,
                        "duration": 0.5509179375000031
                    },
                    {
                        "name": "G5",
                        "midi": 79,
                        "time": 19.888600499999985,
                        "velocity": 0.7874015748031497,
                        "duration": 0.32869893750000045
                    },
                    {
                        "name": "D4",
                        "midi": 62,
                        "time": 19.999709999999986,
                        "velocity": 0.7874015748031497,
                        "duration": 0.21758943749999915
                    },
                    {
                        "name": "B3",
                        "midi": 59,
                        "time": 20.221928999999985,
                        "velocity": 0.7874015748031497,
                        "duration": 0.1064799375000014
                    },
                    {
                        "name": "G4",
                        "midi": 67,
                        "time": 20.221928999999985,
                        "velocity": 0.7874015748031497,
                        "duration": 0.884246437500007
                    },
                    {
                        "name": "G5",
                        "midi": 79,
                        "time": 20.221928999999985,
                        "velocity": 0.7874015748031497,
                        "duration": 0.2175894375000027
                    },
                    {
                        "name": "C2",
                        "midi": 36,
                        "time": 20.333038499999986,
                        "velocity": 0.7874015748031497,
                        "duration": 0.2175894375000027
                    },
                    {
                        "name": "A4",
                        "midi": 69,
                        "time": 20.444147999999988,
                        "velocity": 0.7874015748031497,
                        "duration": 0.328698937500004
                    },
                    {
                        "name": "F#5",
                        "midi": 78,
                        "time": 20.444147999999988,
                        "velocity": 0.7874015748031497,
                        "duration": 0.328698937500004
                    },
                    {
                        "name": "B3",
                        "midi": 59,
                        "time": 20.55525749999999,
                        "velocity": 0.7874015748031497,
                        "duration": 0.1064799375000014
                    },
                    {
                        "name": "C2",
                        "midi": 36,
                        "time": 20.66636699999999,
                        "velocity": 0.7874015748031497,
                        "duration": 0.2175894375000027
                    },
                    {
                        "name": "A4",
                        "midi": 69,
                        "time": 20.77747649999999,
                        "velocity": 0.7874015748031497,
                        "duration": 0.32869893750000045
                    },
                    {
                        "name": "F#5",
                        "midi": 78,
                        "time": 20.77747649999999,
                        "velocity": 0.7874015748031497,
                        "duration": 1.43979393750001
                    },
                    {
                        "name": "B3",
                        "midi": 59,
                        "time": 20.888585999999993,
                        "velocity": 0.7874015748031497,
                        "duration": 0.21758943749999915
                    },
                    {
                        "name": "C4",
                        "midi": 60,
                        "time": 21.110804999999992,
                        "velocity": 0.7874015748031497,
                        "duration": 0.2175894375000027
                    },
                    {
                        "name": "E4",
                        "midi": 64,
                        "time": 21.110804999999992,
                        "velocity": 0.7874015748031497,
                        "duration": 0.1064799375000014
                    },
                    {
                        "name": "A4",
                        "midi": 69,
                        "time": 21.110804999999992,
                        "velocity": 0.7874015748031497,
                        "duration": 0.2175894375000027
                    },
                    {
                        "name": "F#4",
                        "midi": 66,
                        "time": 21.221914499999993,
                        "velocity": 0.7874015748031497,
                        "duration": 0.1064799375000014
                    },
                    {
                        "name": "G2",
                        "midi": 43,
                        "time": 21.333023999999995,
                        "velocity": 0.7874015748031497,
                        "duration": 0.1064799375000014
                    },
                    {
                        "name": "G4",
                        "midi": 67,
                        "time": 21.333023999999995,
                        "velocity": 0.7874015748031497,
                        "duration": 0.328698937500004
                    },
                    {
                        "name": "B4",
                        "midi": 71,
                        "time": 21.333023999999995,
                        "velocity": 0.7874015748031497,
                        "duration": 0.328698937500004
                    },
                    {
                        "name": "B3",
                        "midi": 59,
                        "time": 21.444133499999996,
                        "velocity": 0.7874015748031497,
                        "duration": 0.1064799375000014
                    },
                    {
                        "name": "G2",
                        "midi": 43,
                        "time": 21.555242999999997,
                        "velocity": 0.7874015748031497,
                        "duration": 0.2175894375000027
                    },
                    {
                        "name": "G4",
                        "midi": 67,
                        "time": 21.6663525,
                        "velocity": 0.7874015748031497,
                        "duration": 0.32869893750000045
                    },
                    {
                        "name": "B4",
                        "midi": 71,
                        "time": 21.6663525,
                        "velocity": 0.7874015748031497,
                        "duration": 0.32869893750000045
                    },
                    {
                        "name": "G4",
                        "midi": 67,
                        "time": 21.777462,
                        "velocity": 0.7874015748031497,
                        "duration": 0.21758943749999915
                    },
                    {
                        "name": "B3",
                        "midi": 59,
                        "time": 21.999681,
                        "velocity": 0.7874015748031497,
                        "duration": 0.1064799375000014
                    },
                    {
                        "name": "G4",
                        "midi": 67,
                        "time": 21.999681,
                        "velocity": 0.7874015748031497,
                        "duration": 2.6619984375000207
                    },
                    {
                        "name": "B4",
                        "midi": 71,
                        "time": 21.999681,
                        "velocity": 0.7874015748031497,
                        "duration": 0.2175894375000027
                    },
                    {
                        "name": "G2",
                        "midi": 43,
                        "time": 22.1107905,
                        "velocity": 0.7874015748031497,
                        "duration": 0.2175894375000027
                    },
                    {
                        "name": "B4",
                        "midi": 71,
                        "time": 22.2219,
                        "velocity": 0.7874015748031497,
                        "duration": 0.328698937500004
                    },
                    {
                        "name": "B4",
                        "midi": 71,
                        "time": 22.2219,
                        "velocity": 0.7874015748031497,
                        "duration": 0.328698937500004
                    },
                    {
                        "name": "B3",
                        "midi": 59,
                        "time": 22.333009500000003,
                        "velocity": 0.7874015748031497,
                        "duration": 0.1064799375000014
                    },
                    {
                        "name": "G2",
                        "midi": 43,
                        "time": 22.444119000000004,
                        "velocity": 0.7874015748031497,
                        "duration": 0.2175894375000027
                    },
                    {
                        "name": "D5",
                        "midi": 74,
                        "time": 22.555228500000005,
                        "velocity": 0.7874015748031497,
                        "duration": 0.32869893750000045
                    },
                    {
                        "name": "B4",
                        "midi": 71,
                        "time": 22.555228500000005,
                        "velocity": 0.7874015748031497,
                        "duration": 0.32869893750000045
                    },
                    {
                        "name": "F#4",
                        "midi": 66,
                        "time": 22.666338000000007,
                        "velocity": 0.7874015748031497,
                        "duration": 0.21758943749999915
                    },
                    {
                        "name": "B3",
                        "midi": 59,
                        "time": 22.888557000000006,
                        "velocity": 0.7874015748031497,
                        "duration": 0.1064799375000014
                    },
                    {
                        "name": "B4",
                        "midi": 71,
                        "time": 22.888557000000006,
                        "velocity": 0.7874015748031497,
                        "duration": 0.2175894375000027
                    },
                    {
                        "name": "B4",
                        "midi": 71,
                        "time": 22.888557000000006,
                        "velocity": 0.7874015748031497,
                        "duration": 0.2175894375000027
                    },
                    {
                        "name": "G2",
                        "midi": 43,
                        "time": 22.999666500000007,
                        "velocity": 0.7874015748031497,
                        "duration": 0.2175894375000027
                    },
                    {
                        "name": "B4",
                        "midi": 71,
                        "time": 23.11077600000001,
                        "velocity": 0.7874015748031497,
                        "duration": 0.328698937500004
                    },
                    {
                        "name": "F#5",
                        "midi": 78,
                        "time": 23.11077600000001,
                        "velocity": 0.7874015748031497,
                        "duration": 0.328698937500004
                    },
                    {
                        "name": "B3",
                        "midi": 59,
                        "time": 23.22188550000001,
                        "velocity": 0.7874015748031497,
                        "duration": 0.1064799375000014
                    },
                    {
                        "name": "G2",
                        "midi": 43,
                        "time": 23.33299500000001,
                        "velocity": 0.7874015748031497,
                        "duration": 0.2175894375000027
                    },
                    {
                        "name": "B4",
                        "midi": 71,
                        "time": 23.444104500000012,
                        "velocity": 0.7874015748031497,
                        "duration": 0.32869893750000045
                    },
                    {
                        "name": "F#5",
                        "midi": 78,
                        "time": 23.444104500000012,
                        "velocity": 0.7874015748031497,
                        "duration": 0.32869893750000045
                    },
                    {
                        "name": "D4",
                        "midi": 62,
                        "time": 23.555214000000014,
                        "velocity": 0.7874015748031497,
                        "duration": 0.21758943749999915
                    },
                    {
                        "name": "B3",
                        "midi": 59,
                        "time": 23.777433000000013,
                        "velocity": 0.7874015748031497,
                        "duration": 0.1064799375000014
                    },
                    {
                        "name": "B4",
                        "midi": 71,
                        "time": 23.777433000000013,
                        "velocity": 0.7874015748031497,
                        "duration": 0.2175894375000027
                    },
                    {
                        "name": "F#5",
                        "midi": 78,
                        "time": 23.777433000000013,
                        "velocity": 0.7874015748031497,
                        "duration": 0.2175894375000027
                    },
                    {
                        "name": "G2",
                        "midi": 43,
                        "time": 23.888542500000014,
                        "velocity": 0.7874015748031497,
                        "duration": 0.2175894375000027
                    },
                    {
                        "name": "B4",
                        "midi": 71,
                        "time": 23.999652000000015,
                        "velocity": 0.7874015748031497,
                        "duration": 0.328698937500004
                    },
                    {
                        "name": "D5",
                        "midi": 74,
                        "time": 23.999652000000015,
                        "velocity": 0.7874015748031497,
                        "duration": 0.328698937500004
                    },
                    {
                        "name": "B3",
                        "midi": 59,
                        "time": 24.110761500000017,
                        "velocity": 0.7874015748031497,
                        "duration": 0.1064799375000014
                    },
                    {
                        "name": "G2",
                        "midi": 43,
                        "time": 24.221871000000018,
                        "velocity": 0.7874015748031497,
                        "duration": 0.2175894375000027
                    },
                    {
                        "name": "D5",
                        "midi": 74,
                        "time": 24.33298050000002,
                        "velocity": 0.7874015748031497,
                        "duration": 0.32869893750000045
                    },
                    {
                        "name": "D5",
                        "midi": 74,
                        "time": 24.33298050000002,
                        "velocity": 0.7874015748031497,
                        "duration": 1.43979393750001
                    },
                    {
                        "name": "B3",
                        "midi": 59,
                        "time": 24.44409000000002,
                        "velocity": 0.7874015748031497,
                        "duration": 0.21758943749999915
                    },
                    {
                        "name": "C4",
                        "midi": 60,
                        "time": 24.66630900000002,
                        "velocity": 0.7874015748031497,
                        "duration": 0.2175894375000027
                    },
                    {
                        "name": "E4",
                        "midi": 64,
                        "time": 24.66630900000002,
                        "velocity": 0.7874015748031497,
                        "duration": 0.1064799375000014
                    },
                    {
                        "name": "B4",
                        "midi": 71,
                        "time": 24.66630900000002,
                        "velocity": 0.7874015748031497,
                        "duration": 0.2175894375000027
                    },
                    {
                        "name": "F#4",
                        "midi": 66,
                        "time": 24.77741850000002,
                        "velocity": 0.7874015748031497,
                        "duration": 0.1064799375000014
                    },
                    {
                        "name": "E2",
                        "midi": 40,
                        "time": 24.888528000000022,
                        "velocity": 0.7874015748031497,
                        "duration": 0.1064799375000014
                    },
                    {
                        "name": "G4",
                        "midi": 67,
                        "time": 24.888528000000022,
                        "velocity": 0.7874015748031497,
                        "duration": 0.328698937500004
                    },
                    {
                        "name": "B4",
                        "midi": 71,
                        "time": 24.888528000000022,
                        "velocity": 0.7874015748031497,
                        "duration": 0.328698937500004
                    },
                    {
                        "name": "B3",
                        "midi": 59,
                        "time": 24.999637500000023,
                        "velocity": 0.7874015748031497,
                        "duration": 0.1064799375000014
                    },
                    {
                        "name": "E2",
                        "midi": 40,
                        "time": 25.110747000000025,
                        "velocity": 0.7874015748031497,
                        "duration": 0.2175894375000027
                    },
                    {
                        "name": "G4",
                        "midi": 67,
                        "time": 25.221856500000026,
                        "velocity": 0.7874015748031497,
                        "duration": 0.32869893750000045
                    },
                    {
                        "name": "B4",
                        "midi": 71,
                        "time": 25.221856500000026,
                        "velocity": 0.7874015748031497,
                        "duration": 0.32869893750000045
                    },
                    {
                        "name": "G4",
                        "midi": 67,
                        "time": 25.332966000000027,
                        "velocity": 0.7874015748031497,
                        "duration": 0.21758943749999915
                    },
                    {
                        "name": "B3",
                        "midi": 59,
                        "time": 25.555185000000026,
                        "velocity": 0.7874015748031497,
                        "duration": 0.1064799375000014
                    },
                    {
                        "name": "G4",
                        "midi": 67,
                        "time": 25.555185000000026,
                        "velocity": 0.7874015748031497,
                        "duration": 1.439793937500017
                    },
                    {
                        "name": "B4",
                        "midi": 71,
                        "time": 25.555185000000026,
                        "velocity": 0.7874015748031497,
                        "duration": 0.2175894375000027
                    },
                    {
                        "name": "E2",
                        "midi": 40,
                        "time": 25.666294500000028,
                        "velocity": 0.7874015748031497,
                        "duration": 0.2175894375000027
                    },
                    {
                        "name": "B4",
                        "midi": 71,
                        "time": 25.77740400000003,
                        "velocity": 0.7874015748031497,
                        "duration": 0.328698937500004
                    },
                    {
                        "name": "B4",
                        "midi": 71,
                        "time": 25.77740400000003,
                        "velocity": 0.7874015748031497,
                        "duration": 0.328698937500004
                    },
                    {
                        "name": "B3",
                        "midi": 59,
                        "time": 25.88851350000003,
                        "velocity": 0.7874015748031497,
                        "duration": 0.1064799375000014
                    },
                    {
                        "name": "E2",
                        "midi": 40,
                        "time": 25.99962300000003,
                        "velocity": 0.7874015748031497,
                        "duration": 0.2175894375000027
                    },
                    {
                        "name": "D5",
                        "midi": 74,
                        "time": 26.110732500000033,
                        "velocity": 0.7874015748031497,
                        "duration": 0.2175894375000027
                    },
                    {
                        "name": "B4",
                        "midi": 71,
                        "time": 26.110732500000033,
                        "velocity": 0.7874015748031497,
                        "duration": 0.328698937500004
                    },
                    {
                        "name": "F#4",
                        "midi": 66,
                        "time": 26.221842000000034,
                        "velocity": 0.7874015748031497,
                        "duration": 0.2175894375000027
                    },
                    {
                        "name": "B4",
                        "midi": 71,
                        "time": 26.332951500000036,
                        "velocity": 0.7874015748031497,
                        "duration": 0.328698937500004
                    },
                    {
                        "name": "B3",
                        "midi": 59,
                        "time": 26.444061000000037,
                        "velocity": 0.7874015748031497,
                        "duration": 0.1064799375000014
                    },
                    {
                        "name": "B4",
                        "midi": 71,
                        "time": 26.444061000000037,
                        "velocity": 0.7874015748031497,
                        "duration": 0.2175894375000027
                    },
                    {
                        "name": "C2",
                        "midi": 36,
                        "time": 26.555170500000038,
                        "velocity": 0.7874015748031497,
                        "duration": 0.2175894375000027
                    },
                    {
                        "name": "G4",
                        "midi": 67,
                        "time": 26.66628000000004,
                        "velocity": 0.7874015748031497,
                        "duration": 0.6620274375000044
                    },
                    {
                        "name": "G5",
                        "midi": 79,
                        "time": 26.66628000000004,
                        "velocity": 0.7874015748031497,
                        "duration": 0.328698937500004
                    },
                    {
                        "name": "B3",
                        "midi": 59,
                        "time": 26.77738950000004,
                        "velocity": 0.7874015748031497,
                        "duration": 0.1064799375000014
                    },
                    {
                        "name": "C2",
                        "midi": 36,
                        "time": 26.888499000000042,
                        "velocity": 0.7874015748031497,
                        "duration": 0.2175894375000027
                    },
                    {
                        "name": "G4",
                        "midi": 67,
                        "time": 26.999608500000043,
                        "velocity": 0.7874015748031497,
                        "duration": 0.5509179375000031
                    },
                    {
                        "name": "G5",
                        "midi": 79,
                        "time": 26.999608500000043,
                        "velocity": 0.7874015748031497,
                        "duration": 0.32869893750000045
                    },
                    {
                        "name": "D4",
                        "midi": 62,
                        "time": 27.110718000000045,
                        "velocity": 0.7874015748031497,
                        "duration": 0.21758943749999915
                    },
                    {
                        "name": "B3",
                        "midi": 59,
                        "time": 27.332937000000044,
                        "velocity": 0.7874015748031497,
                        "duration": 0.1064799375000014
                    },
                    {
                        "name": "G4",
                        "midi": 67,
                        "time": 27.332937000000044,
                        "velocity": 0.7874015748031497,
                        "duration": 0.884246437500007
                    },
                    {
                        "name": "G5",
                        "midi": 79,
                        "time": 27.332937000000044,
                        "velocity": 0.7874015748031497,
                        "duration": 0.2175894375000027
                    },
                    {
                        "name": "C2",
                        "midi": 36,
                        "time": 27.444046500000045,
                        "velocity": 0.7874015748031497,
                        "duration": 0.2175894375000027
                    },
                    {
                        "name": "A4",
                        "midi": 69,
                        "time": 27.555156000000046,
                        "velocity": 0.7874015748031497,
                        "duration": 0.328698937500004
                    },
                    {
                        "name": "F#5",
                        "midi": 78,
                        "time": 27.555156000000046,
                        "velocity": 0.7874015748031497,
                        "duration": 0.328698937500004
                    },
                    {
                        "name": "B3",
                        "midi": 59,
                        "time": 27.666265500000048,
                        "velocity": 0.7874015748031497,
                        "duration": 0.1064799375000014
                    },
                    {
                        "name": "C2",
                        "midi": 36,
                        "time": 27.77737500000005,
                        "velocity": 0.7874015748031497,
                        "duration": 0.2175894375000027
                    },
                    {
                        "name": "A4",
                        "midi": 69,
                        "time": 27.88848450000005,
                        "velocity": 0.7874015748031497,
                        "duration": 0.32869893750000045
                    },
                    {
                        "name": "F#5",
                        "midi": 78,
                        "time": 27.88848450000005,
                        "velocity": 0.7874015748031497,
                        "duration": 1.43979393750001
                    },
                    {
                        "name": "B3",
                        "midi": 59,
                        "time": 27.99959400000005,
                        "velocity": 0.7874015748031497,
                        "duration": 0.21758943749999915
                    },
                    {
                        "name": "C4",
                        "midi": 60,
                        "time": 28.22181300000005,
                        "velocity": 0.7874015748031497,
                        "duration": 0.2175894375000027
                    },
                    {
                        "name": "E4",
                        "midi": 64,
                        "time": 28.22181300000005,
                        "velocity": 0.7874015748031497,
                        "duration": 0.1064799375000014
                    },
                    {
                        "name": "A4",
                        "midi": 69,
                        "time": 28.22181300000005,
                        "velocity": 0.7874015748031497,
                        "duration": 0.2175894375000027
                    },
                    {
                        "name": "F#4",
                        "midi": 66,
                        "time": 28.332922500000052,
                        "velocity": 0.7874015748031497,
                        "duration": 0.1064799375000014
                    },
                    {
                        "name": "G2",
                        "midi": 43,
                        "time": 28.444032000000053,
                        "velocity": 0.7874015748031497,
                        "duration": 0.1064799375000014
                    },
                    {
                        "name": "G4",
                        "midi": 67,
                        "time": 28.444032000000053,
                        "velocity": 0.7874015748031497,
                        "duration": 0.328698937500004
                    },
                    {
                        "name": "B4",
                        "midi": 71,
                        "time": 28.444032000000053,
                        "velocity": 0.7874015748031497,
                        "duration": 0.328698937500004
                    },
                    {
                        "name": "B3",
                        "midi": 59,
                        "time": 28.555141500000055,
                        "velocity": 0.7874015748031497,
                        "duration": 0.1064799375000014
                    },
                    {
                        "name": "G2",
                        "midi": 43,
                        "time": 28.666251000000056,
                        "velocity": 0.7874015748031497,
                        "duration": 0.2175894375000027
                    },
                    {
                        "name": "G4",
                        "midi": 67,
                        "time": 28.777360500000057,
                        "velocity": 0.7874015748031497,
                        "duration": 0.32869893750000045
                    },
                    {
                        "name": "B4",
                        "midi": 71,
                        "time": 28.777360500000057,
                        "velocity": 0.7874015748031497,
                        "duration": 0.32869893750000045
                    },
                    {
                        "name": "G4",
                        "midi": 67,
                        "time": 28.88847000000006,
                        "velocity": 0.7874015748031497,
                        "duration": 0.21758943749999915
                    },
                    {
                        "name": "B3",
                        "midi": 59,
                        "time": 29.110689000000058,
                        "velocity": 0.7874015748031497,
                        "duration": 0.1064799375000014
                    },
                    {
                        "name": "G4",
                        "midi": 67,
                        "time": 29.110689000000058,
                        "velocity": 0.7874015748031497,
                        "duration": 2.6619984375000207
                    },
                    {
                        "name": "B4",
                        "midi": 71,
                        "time": 29.110689000000058,
                        "velocity": 0.7874015748031497,
                        "duration": 0.2175894375000027
                    },
                    {
                        "name": "G2",
                        "midi": 43,
                        "time": 29.22179850000006,
                        "velocity": 0.7874015748031497,
                        "duration": 0.2175894375000027
                    },
                    {
                        "name": "B4",
                        "midi": 71,
                        "time": 29.33290800000006,
                        "velocity": 0.7874015748031497,
                        "duration": 0.328698937500004
                    },
                    {
                        "name": "B4",
                        "midi": 71,
                        "time": 29.33290800000006,
                        "velocity": 0.7874015748031497,
                        "duration": 0.328698937500004
                    },
                    {
                        "name": "B3",
                        "midi": 59,
                        "time": 29.44401750000006,
                        "velocity": 0.7874015748031497,
                        "duration": 0.1064799375000014
                    },
                    {
                        "name": "G2",
                        "midi": 43,
                        "time": 29.555127000000063,
                        "velocity": 0.7874015748031497,
                        "duration": 0.2175894375000027
                    },
                    {
                        "name": "D5",
                        "midi": 74,
                        "time": 29.666236500000064,
                        "velocity": 0.7874015748031497,
                        "duration": 0.32869893750000045
                    },
                    {
                        "name": "B4",
                        "midi": 71,
                        "time": 29.666236500000064,
                        "velocity": 0.7874015748031497,
                        "duration": 0.32869893750000045
                    },
                    {
                        "name": "F#4",
                        "midi": 66,
                        "time": 29.777346000000065,
                        "velocity": 0.7874015748031497,
                        "duration": 0.21758943749999915
                    },
                    {
                        "name": "B3",
                        "midi": 59,
                        "time": 29.999565000000064,
                        "velocity": 0.7874015748031497,
                        "duration": 0.1064799375000014
                    },
                    {
                        "name": "B4",
                        "midi": 71,
                        "time": 29.999565000000064,
                        "velocity": 0.7874015748031497,
                        "duration": 0.2175894375000027
                    },
                    {
                        "name": "B4",
                        "midi": 71,
                        "time": 29.999565000000064,
                        "velocity": 0.7874015748031497,
                        "duration": 0.2175894375000027
                    },
                    {
                        "name": "G2",
                        "midi": 43,
                        "time": 30.110674500000066,
                        "velocity": 0.7874015748031497,
                        "duration": 0.2175894375000027
                    },
                    {
                        "name": "B4",
                        "midi": 71,
                        "time": 30.221784000000067,
                        "velocity": 0.7874015748031497,
                        "duration": 0.328698937500004
                    },
                    {
                        "name": "F#5",
                        "midi": 78,
                        "time": 30.221784000000067,
                        "velocity": 0.7874015748031497,
                        "duration": 0.328698937500004
                    },
                    {
                        "name": "B3",
                        "midi": 59,
                        "time": 30.33289350000007,
                        "velocity": 0.7874015748031497,
                        "duration": 0.1064799375000014
                    },
                    {
                        "name": "G2",
                        "midi": 43,
                        "time": 30.44400300000007,
                        "velocity": 0.7874015748031497,
                        "duration": 0.2175894375000027
                    },
                    {
                        "name": "B4",
                        "midi": 71,
                        "time": 30.55511250000007,
                        "velocity": 0.7874015748031497,
                        "duration": 0.32869893750000045
                    },
                    {
                        "name": "F#5",
                        "midi": 78,
                        "time": 30.55511250000007,
                        "velocity": 0.7874015748031497,
                        "duration": 0.32869893750000045
                    },
                    {
                        "name": "D4",
                        "midi": 62,
                        "time": 30.666222000000072,
                        "velocity": 0.7874015748031497,
                        "duration": 0.21758943749999915
                    },
                    {
                        "name": "B3",
                        "midi": 59,
                        "time": 30.88844100000007,
                        "velocity": 0.7874015748031497,
                        "duration": 0.1064799375000014
                    },
                    {
                        "name": "B4",
                        "midi": 71,
                        "time": 30.88844100000007,
                        "velocity": 0.7874015748031497,
                        "duration": 0.2175894375000027
                    },
                    {
                        "name": "F#5",
                        "midi": 78,
                        "time": 30.88844100000007,
                        "velocity": 0.7874015748031497,
                        "duration": 0.2175894375000027
                    },
                    {
                        "name": "G2",
                        "midi": 43,
                        "time": 30.999550500000073,
                        "velocity": 0.7874015748031497,
                        "duration": 0.2175894375000027
                    },
                    {
                        "name": "B4",
                        "midi": 71,
                        "time": 31.110660000000074,
                        "velocity": 0.7874015748031497,
                        "duration": 0.328698937500004
                    },
                    {
                        "name": "D5",
                        "midi": 74,
                        "time": 31.110660000000074,
                        "velocity": 0.7874015748031497,
                        "duration": 0.328698937500004
                    },
                    {
                        "name": "B3",
                        "midi": 59,
                        "time": 31.221769500000075,
                        "velocity": 0.7874015748031497,
                        "duration": 0.1064799375000014
                    },
                    {
                        "name": "G2",
                        "midi": 43,
                        "time": 31.332879000000077,
                        "velocity": 0.7874015748031497,
                        "duration": 0.2175894375000027
                    },
                    {
                        "name": "D5",
                        "midi": 74,
                        "time": 31.443988500000078,
                        "velocity": 0.7874015748031497,
                        "duration": 0.32869893750000045
                    },
                    {
                        "name": "D5",
                        "midi": 74,
                        "time": 31.443988500000078,
                        "velocity": 0.7874015748031497,
                        "duration": 1.4397939374999957
                    },
                    {
                        "name": "B3",
                        "midi": 59,
                        "time": 31.55509800000008,
                        "velocity": 0.7874015748031497,
                        "duration": 0.21758943749999915
                    },
                    {
                        "name": "C4",
                        "midi": 60,
                        "time": 31.777317000000078,
                        "velocity": 0.7874015748031497,
                        "duration": 0.2175894375000027
                    },
                    {
                        "name": "E4",
                        "midi": 64,
                        "time": 31.777317000000078,
                        "velocity": 0.7874015748031497,
                        "duration": 0.1064799375000014
                    },
                    {
                        "name": "B4",
                        "midi": 71,
                        "time": 31.777317000000078,
                        "velocity": 0.7874015748031497,
                        "duration": 0.2175894375000027
                    },
                    {
                        "name": "F#4",
                        "midi": 66,
                        "time": 31.88842650000008,
                        "velocity": 0.7874015748031497,
                        "duration": 0.1064799375000014
                    },
                    {
                        "name": "E2",
                        "midi": 40,
                        "time": 31.99953600000008,
                        "velocity": 0.7874015748031497,
                        "duration": 0.1064799375000014
                    },
                    {
                        "name": "G4",
                        "midi": 67,
                        "time": 31.99953600000008,
                        "velocity": 0.7874015748031497,
                        "duration": 0.3286989374999969
                    },
                    {
                        "name": "B4",
                        "midi": 71,
                        "time": 31.99953600000008,
                        "velocity": 0.7874015748031497,
                        "duration": 0.3286989374999969
                    },
                    {
                        "name": "B3",
                        "midi": 59,
                        "time": 32.11064550000008,
                        "velocity": 0.7874015748031497,
                        "duration": 0.10647993749999785
                    },
                    {
                        "name": "E2",
                        "midi": 40,
                        "time": 32.22175500000008,
                        "velocity": 0.7874015748031497,
                        "duration": 0.2175894374999956
                    },
                    {
                        "name": "G4",
                        "midi": 67,
                        "time": 32.33286450000008,
                        "velocity": 0.7874015748031497,
                        "duration": 0.32869893750000045
                    },
                    {
                        "name": "B4",
                        "midi": 71,
                        "time": 32.33286450000008,
                        "velocity": 0.7874015748031497,
                        "duration": 0.32869893750000045
                    },
                    {
                        "name": "G4",
                        "midi": 67,
                        "time": 32.443974000000075,
                        "velocity": 0.7874015748031497,
                        "duration": 0.2175894375000027
                    },
                    {
                        "name": "B3",
                        "midi": 59,
                        "time": 32.66619300000008,
                        "velocity": 0.7874015748031497,
                        "duration": 0.10647993749999785
                    },
                    {
                        "name": "G4",
                        "midi": 67,
                        "time": 32.66619300000008,
                        "velocity": 0.7874015748031497,
                        "duration": 1.4397939374999709
                    },
                    {
                        "name": "B4",
                        "midi": 71,
                        "time": 32.66619300000008,
                        "velocity": 0.7874015748031497,
                        "duration": 0.2175894374999956
                    },
                    {
                        "name": "E2",
                        "midi": 40,
                        "time": 32.777302500000076,
                        "velocity": 0.7874015748031497,
                        "duration": 0.2175894374999956
                    },
                    {
                        "name": "B4",
                        "midi": 71,
                        "time": 32.88841200000007,
                        "velocity": 0.7874015748031497,
                        "duration": 0.32869893749999335
                    },
                    {
                        "name": "B4",
                        "midi": 71,
                        "time": 32.88841200000007,
                        "velocity": 0.7874015748031497,
                        "duration": 0.32869893749999335
                    },
                    {
                        "name": "B3",
                        "midi": 59,
                        "time": 32.99952150000007,
                        "velocity": 0.7874015748031497,
                        "duration": 0.10647993749999785
                    },
                    {
                        "name": "E2",
                        "midi": 40,
                        "time": 33.11063100000007,
                        "velocity": 0.7874015748031497,
                        "duration": 0.2175894374999956
                    },
                    {
                        "name": "D5",
                        "midi": 74,
                        "time": 33.22174050000007,
                        "velocity": 0.7874015748031497,
                        "duration": 0.2175894374999956
                    },
                    {
                        "name": "B4",
                        "midi": 71,
                        "time": 33.22174050000007,
                        "velocity": 0.7874015748031497,
                        "duration": 0.32869893749999335
                    },
                    {
                        "name": "F#4",
                        "midi": 66,
                        "time": 33.332850000000064,
                        "velocity": 0.7874015748031497,
                        "duration": 0.2175894374999956
                    },
                    {
                        "name": "B4",
                        "midi": 71,
                        "time": 33.44395950000006,
                        "velocity": 0.7874015748031497,
                        "duration": 0.32869893749999335
                    },
                    {
                        "name": "B3",
                        "midi": 59,
                        "time": 33.55506900000006,
                        "velocity": 0.7874015748031497,
                        "duration": 0.10647993749999785
                    },
                    {
                        "name": "B4",
                        "midi": 71,
                        "time": 33.55506900000006,
                        "velocity": 0.7874015748031497,
                        "duration": 0.2175894374999956
                    },
                    {
                        "name": "C2",
                        "midi": 36,
                        "time": 33.66617850000006,
                        "velocity": 0.7874015748031497,
                        "duration": 0.2175894374999956
                    },
                    {
                        "name": "G4",
                        "midi": 67,
                        "time": 33.777288000000055,
                        "velocity": 0.7874015748031497,
                        "duration": 0.6620274374999937
                    },
                    {
                        "name": "G5",
                        "midi": 79,
                        "time": 33.777288000000055,
                        "velocity": 0.7874015748031497,
                        "duration": 0.32869893749999335
                    },
                    {
                        "name": "B3",
                        "midi": 59,
                        "time": 33.88839750000005,
                        "velocity": 0.7874015748031497,
                        "duration": 0.10647993749999785
                    },
                    {
                        "name": "C2",
                        "midi": 36,
                        "time": 33.99950700000005,
                        "velocity": 0.7874015748031497,
                        "duration": 0.2175894374999956
                    },
                    {
                        "name": "G4",
                        "midi": 67,
                        "time": 34.11061650000005,
                        "velocity": 0.7874015748031497,
                        "duration": 0.550917937499996
                    },
                    {
                        "name": "G5",
                        "midi": 79,
                        "time": 34.11061650000005,
                        "velocity": 0.7874015748031497,
                        "duration": 0.32869893750000045
                    },
                    {
                        "name": "D4",
                        "midi": 62,
                        "time": 34.22172600000005,
                        "velocity": 0.7874015748031497,
                        "duration": 0.2175894375000027
                    },
                    {
                        "name": "B3",
                        "midi": 59,
                        "time": 34.44394500000005,
                        "velocity": 0.7874015748031497,
                        "duration": 0.10647993749999785
                    },
                    {
                        "name": "G4",
                        "midi": 67,
                        "time": 34.44394500000005,
                        "velocity": 0.7874015748031497,
                        "duration": 0.8842464374999892
                    },
                    {
                        "name": "G5",
                        "midi": 79,
                        "time": 34.44394500000005,
                        "velocity": 0.7874015748031497,
                        "duration": 0.2175894374999956
                    },
                    {
                        "name": "C2",
                        "midi": 36,
                        "time": 34.55505450000005,
                        "velocity": 0.7874015748031497,
                        "duration": 0.2175894374999956
                    },
                    {
                        "name": "A4",
                        "midi": 69,
                        "time": 34.666164000000045,
                        "velocity": 0.7874015748031497,
                        "duration": 0.32869893749999335
                    },
                    {
                        "name": "F#5",
                        "midi": 78,
                        "time": 34.666164000000045,
                        "velocity": 0.7874015748031497,
                        "duration": 0.32869893749999335
                    },
                    {
                        "name": "B3",
                        "midi": 59,
                        "time": 34.77727350000004,
                        "velocity": 0.7874015748031497,
                        "duration": 0.10647993749999785
                    },
                    {
                        "name": "C2",
                        "midi": 36,
                        "time": 34.88838300000004,
                        "velocity": 0.7874015748031497,
                        "duration": 0.2175894374999956
                    },
                    {
                        "name": "A4",
                        "midi": 69,
                        "time": 34.99949250000004,
                        "velocity": 0.7874015748031497,
                        "duration": 0.32869893750000045
                    },
                    {
                        "name": "F#5",
                        "midi": 78,
                        "time": 34.99949250000004,
                        "velocity": 0.7874015748031497,
                        "duration": 1.439793937499985
                    },
                    {
                        "name": "B3",
                        "midi": 59,
                        "time": 35.110602000000036,
                        "velocity": 0.7874015748031497,
                        "duration": 0.2175894375000027
                    },
                    {
                        "name": "C4",
                        "midi": 60,
                        "time": 35.33282100000004,
                        "velocity": 0.7874015748031497,
                        "duration": 0.2175894374999956
                    },
                    {
                        "name": "E4",
                        "midi": 64,
                        "time": 35.33282100000004,
                        "velocity": 0.7874015748031497,
                        "duration": 0.10647993749999785
                    },
                    {
                        "name": "A4",
                        "midi": 69,
                        "time": 35.33282100000004,
                        "velocity": 0.7874015748031497,
                        "duration": 0.2175894374999956
                    },
                    {
                        "name": "F#4",
                        "midi": 66,
                        "time": 35.443930500000036,
                        "velocity": 0.7874015748031497,
                        "duration": 0.10647993749999785
                    },
                    {
                        "name": "G2",
                        "midi": 43,
                        "time": 35.555040000000034,
                        "velocity": 0.7874015748031497,
                        "duration": 0.10647993749999785
                    },
                    {
                        "name": "G4",
                        "midi": 67,
                        "time": 35.555040000000034,
                        "velocity": 0.7874015748031497,
                        "duration": 0.32869893749999335
                    },
                    {
                        "name": "B4",
                        "midi": 71,
                        "time": 35.555040000000034,
                        "velocity": 0.7874015748031497,
                        "duration": 0.32869893749999335
                    },
                    {
                        "name": "B3",
                        "midi": 59,
                        "time": 35.66614950000003,
                        "velocity": 0.7874015748031497,
                        "duration": 0.10647993749999785
                    },
                    {
                        "name": "G2",
                        "midi": 43,
                        "time": 35.77725900000003,
                        "velocity": 0.7874015748031497,
                        "duration": 0.2175894374999956
                    },
                    {
                        "name": "G4",
                        "midi": 67,
                        "time": 35.88836850000003,
                        "velocity": 0.7874015748031497,
                        "duration": 0.32869893750000045
                    },
                    {
                        "name": "B4",
                        "midi": 71,
                        "time": 35.88836850000003,
                        "velocity": 0.7874015748031497,
                        "duration": 0.32869893750000045
                    },
                    {
                        "name": "G4",
                        "midi": 67,
                        "time": 35.999478000000025,
                        "velocity": 0.7874015748031497,
                        "duration": 0.2175894375000027
                    },
                    {
                        "name": "B3",
                        "midi": 59,
                        "time": 36.22169700000003,
                        "velocity": 0.7874015748031497,
                        "duration": 0.10647993749999785
                    },
                    {
                        "name": "G4",
                        "midi": 67,
                        "time": 36.22169700000003,
                        "velocity": 0.7874015748031497,
                        "duration": 2.6619984374999675
                    },
                    {
                        "name": "B4",
                        "midi": 71,
                        "time": 36.22169700000003,
                        "velocity": 0.7874015748031497,
                        "duration": 0.2175894374999956
                    },
                    {
                        "name": "G2",
                        "midi": 43,
                        "time": 36.332806500000025,
                        "velocity": 0.7874015748031497,
                        "duration": 0.2175894374999956
                    },
                    {
                        "name": "B4",
                        "midi": 71,
                        "time": 36.44391600000002,
                        "velocity": 0.7874015748031497,
                        "duration": 0.32869893749999335
                    },
                    {
                        "name": "B4",
                        "midi": 71,
                        "time": 36.44391600000002,
                        "velocity": 0.7874015748031497,
                        "duration": 0.32869893749999335
                    },
                    {
                        "name": "B3",
                        "midi": 59,
                        "time": 36.55502550000002,
                        "velocity": 0.7874015748031497,
                        "duration": 0.10647993749999785
                    },
                    {
                        "name": "G2",
                        "midi": 43,
                        "time": 36.66613500000002,
                        "velocity": 0.7874015748031497,
                        "duration": 0.2175894374999956
                    },
                    {
                        "name": "D5",
                        "midi": 74,
                        "time": 36.777244500000016,
                        "velocity": 0.7874015748031497,
                        "duration": 0.32869893750000045
                    },
                    {
                        "name": "B4",
                        "midi": 71,
                        "time": 36.777244500000016,
                        "velocity": 0.7874015748031497,
                        "duration": 0.32869893750000045
                    },
                    {
                        "name": "F#4",
                        "midi": 66,
                        "time": 36.888354000000014,
                        "velocity": 0.7874015748031497,
                        "duration": 0.2175894375000027
                    },
                    {
                        "name": "B3",
                        "midi": 59,
                        "time": 37.11057300000002,
                        "velocity": 0.7874015748031497,
                        "duration": 0.10647993749999785
                    },
                    {
                        "name": "B4",
                        "midi": 71,
                        "time": 37.11057300000002,
                        "velocity": 0.7874015748031497,
                        "duration": 0.2175894374999956
                    },
                    {
                        "name": "B4",
                        "midi": 71,
                        "time": 37.11057300000002,
                        "velocity": 0.7874015748031497,
                        "duration": 0.2175894374999956
                    },
                    {
                        "name": "G2",
                        "midi": 43,
                        "time": 37.221682500000014,
                        "velocity": 0.7874015748031497,
                        "duration": 0.2175894374999956
                    },
                    {
                        "name": "B4",
                        "midi": 71,
                        "time": 37.33279200000001,
                        "velocity": 0.7874015748031497,
                        "duration": 0.32869893749999335
                    },
                    {
                        "name": "F#5",
                        "midi": 78,
                        "time": 37.33279200000001,
                        "velocity": 0.7874015748031497,
                        "duration": 0.32869893749999335
                    },
                    {
                        "name": "B3",
                        "midi": 59,
                        "time": 37.44390150000001,
                        "velocity": 0.7874015748031497,
                        "duration": 0.10647993749999785
                    },
                    {
                        "name": "G2",
                        "midi": 43,
                        "time": 37.55501100000001,
                        "velocity": 0.7874015748031497,
                        "duration": 0.2175894374999956
                    },
                    {
                        "name": "B4",
                        "midi": 71,
                        "time": 37.666120500000005,
                        "velocity": 0.7874015748031497,
                        "duration": 0.32869893750000045
                    },
                    {
                        "name": "F#5",
                        "midi": 78,
                        "time": 37.666120500000005,
                        "velocity": 0.7874015748031497,
                        "duration": 0.32869893750000045
                    },
                    {
                        "name": "D4",
                        "midi": 62,
                        "time": 37.77723,
                        "velocity": 0.7874015748031497,
                        "duration": 0.2175894375000027
                    },
                    {
                        "name": "B3",
                        "midi": 59,
                        "time": 37.999449000000006,
                        "velocity": 0.7874015748031497,
                        "duration": 0.10647993749999785
                    },
                    {
                        "name": "B4",
                        "midi": 71,
                        "time": 37.999449000000006,
                        "velocity": 0.7874015748031497,
                        "duration": 0.2175894374999956
                    },
                    {
                        "name": "F#5",
                        "midi": 78,
                        "time": 37.999449000000006,
                        "velocity": 0.7874015748031497,
                        "duration": 0.2175894374999956
                    },
                    {
                        "name": "G2",
                        "midi": 43,
                        "time": 38.1105585,
                        "velocity": 0.7874015748031497,
                        "duration": 0.2175894374999956
                    },
                    {
                        "name": "B4",
                        "midi": 71,
                        "time": 38.221668,
                        "velocity": 0.7874015748031497,
                        "duration": 0.32869893749999335
                    },
                    {
                        "name": "D5",
                        "midi": 74,
                        "time": 38.221668,
                        "velocity": 0.7874015748031497,
                        "duration": 0.32869893749999335
                    },
                    {
                        "name": "B3",
                        "midi": 59,
                        "time": 38.3327775,
                        "velocity": 0.7874015748031497,
                        "duration": 0.10647993749999785
                    },
                    {
                        "name": "G2",
                        "midi": 43,
                        "time": 38.443887,
                        "velocity": 0.7874015748031497,
                        "duration": 0.2175894374999956
                    },
                    {
                        "name": "D5",
                        "midi": 74,
                        "time": 38.554996499999994,
                        "velocity": 0.7874015748031497,
                        "duration": 0.32869893750000045
                    },
                    {
                        "name": "D5",
                        "midi": 74,
                        "time": 38.554996499999994,
                        "velocity": 0.7874015748031497,
                        "duration": 1.439793937499985
                    },
                    {
                        "name": "B3",
                        "midi": 59,
                        "time": 38.66610599999999,
                        "velocity": 0.7874015748031497,
                        "duration": 0.2175894375000027
                    },
                    {
                        "name": "C4",
                        "midi": 60,
                        "time": 38.888324999999995,
                        "velocity": 0.7874015748031497,
                        "duration": 0.2175894374999956
                    },
                    {
                        "name": "E4",
                        "midi": 64,
                        "time": 38.888324999999995,
                        "velocity": 0.7874015748031497,
                        "duration": 0.10647993749999785
                    },
                    {
                        "name": "B4",
                        "midi": 71,
                        "time": 38.888324999999995,
                        "velocity": 0.7874015748031497,
                        "duration": 0.2175894374999956
                    },
                    {
                        "name": "F#4",
                        "midi": 66,
                        "time": 38.99943449999999,
                        "velocity": 0.7874015748031497,
                        "duration": 0.10647993749999785
                    },
                    {
                        "name": "E2",
                        "midi": 40,
                        "time": 39.11054399999999,
                        "velocity": 0.7874015748031497,
                        "duration": 0.10647993749999785
                    },
                    {
                        "name": "G4",
                        "midi": 67,
                        "time": 39.11054399999999,
                        "velocity": 0.7874015748031497,
                        "duration": 0.32869893749999335
                    },
                    {
                        "name": "B4",
                        "midi": 71,
                        "time": 39.11054399999999,
                        "velocity": 0.7874015748031497,
                        "duration": 0.32869893749999335
                    },
                    {
                        "name": "B3",
                        "midi": 59,
                        "time": 39.22165349999999,
                        "velocity": 0.7874015748031497,
                        "duration": 0.10647993749999785
                    },
                    {
                        "name": "E2",
                        "midi": 40,
                        "time": 39.332762999999986,
                        "velocity": 0.7874015748031497,
                        "duration": 0.2175894374999956
                    },
                    {
                        "name": "G4",
                        "midi": 67,
                        "time": 39.44387249999998,
                        "velocity": 0.7874015748031497,
                        "duration": 0.32869893750000045
                    },
                    {
                        "name": "B4",
                        "midi": 71,
                        "time": 39.44387249999998,
                        "velocity": 0.7874015748031497,
                        "duration": 0.32869893750000045
                    },
                    {
                        "name": "G4",
                        "midi": 67,
                        "time": 39.55498199999998,
                        "velocity": 0.7874015748031497,
                        "duration": 0.2175894375000027
                    },
                    {
                        "name": "B3",
                        "midi": 59,
                        "time": 39.777200999999984,
                        "velocity": 0.7874015748031497,
                        "duration": 0.10647993749999785
                    },
                    {
                        "name": "G4",
                        "midi": 67,
                        "time": 39.777200999999984,
                        "velocity": 0.7874015748031497,
                        "duration": 1.4397939374999709
                    },
                    {
                        "name": "B4",
                        "midi": 71,
                        "time": 39.777200999999984,
                        "velocity": 0.7874015748031497,
                        "duration": 0.2175894374999956
                    },
                    {
                        "name": "E2",
                        "midi": 40,
                        "time": 39.88831049999998,
                        "velocity": 0.7874015748031497,
                        "duration": 0.2175894374999956
                    },
                    {
                        "name": "B4",
                        "midi": 71,
                        "time": 39.99941999999998,
                        "velocity": 0.7874015748031497,
                        "duration": 0.32869893749999335
                    },
                    {
                        "name": "B4",
                        "midi": 71,
                        "time": 39.99941999999998,
                        "velocity": 0.7874015748031497,
                        "duration": 0.32869893749999335
                    },
                    {
                        "name": "B3",
                        "midi": 59,
                        "time": 40.11052949999998,
                        "velocity": 0.7874015748031497,
                        "duration": 0.10647993749999785
                    },
                    {
                        "name": "E2",
                        "midi": 40,
                        "time": 40.221638999999975,
                        "velocity": 0.7874015748031497,
                        "duration": 0.2175894374999956
                    },
                    {
                        "name": "D5",
                        "midi": 74,
                        "time": 40.33274849999997,
                        "velocity": 0.7874015748031497,
                        "duration": 0.2175894374999956
                    },
                    {
                        "name": "B4",
                        "midi": 71,
                        "time": 40.33274849999997,
                        "velocity": 0.7874015748031497,
                        "duration": 0.32869893749999335
                    },
                    {
                        "name": "F#4",
                        "midi": 66,
                        "time": 40.44385799999997,
                        "velocity": 0.7874015748031497,
                        "duration": 0.2175894374999956
                    },
                    {
                        "name": "B4",
                        "midi": 71,
                        "time": 40.55496749999997,
                        "velocity": 0.7874015748031497,
                        "duration": 0.32869893749999335
                    },
                    {
                        "name": "B3",
                        "midi": 59,
                        "time": 40.666076999999966,
                        "velocity": 0.7874015748031497,
                        "duration": 0.10647993749999785
                    },
                    {
                        "name": "B4",
                        "midi": 71,
                        "time": 40.666076999999966,
                        "velocity": 0.7874015748031497,
                        "duration": 0.2175894374999956
                    },
                    {
                        "name": "C2",
                        "midi": 36,
                        "time": 40.777186499999964,
                        "velocity": 0.7874015748031497,
                        "duration": 0.2175894374999956
                    },
                    {
                        "name": "G4",
                        "midi": 67,
                        "time": 40.88829599999996,
                        "velocity": 0.7874015748031497,
                        "duration": 0.6620274374999937
                    },
                    {
                        "name": "G5",
                        "midi": 79,
                        "time": 40.88829599999996,
                        "velocity": 0.7874015748031497,
                        "duration": 0.32869893749999335
                    },
                    {
                        "name": "B3",
                        "midi": 59,
                        "time": 40.99940549999996,
                        "velocity": 0.7874015748031497,
                        "duration": 0.10647993749999785
                    },
                    {
                        "name": "C2",
                        "midi": 36,
                        "time": 41.11051499999996,
                        "velocity": 0.7874015748031497,
                        "duration": 0.2175894374999956
                    },
                    {
                        "name": "G4",
                        "midi": 67,
                        "time": 41.221624499999955,
                        "velocity": 0.7874015748031497,
                        "duration": 0.550917937499996
                    },
                    {
                        "name": "G5",
                        "midi": 79,
                        "time": 41.221624499999955,
                        "velocity": 0.7874015748031497,
                        "duration": 0.32869893750000045
                    },
                    {
                        "name": "D4",
                        "midi": 62,
                        "time": 41.33273399999995,
                        "velocity": 0.7874015748031497,
                        "duration": 0.2175894375000027
                    },
                    {
                        "name": "B3",
                        "midi": 59,
                        "time": 41.554952999999955,
                        "velocity": 0.7874015748031497,
                        "duration": 0.10647993749999785
                    },
                    {
                        "name": "G4",
                        "midi": 67,
                        "time": 41.554952999999955,
                        "velocity": 0.7874015748031497,
                        "duration": 0.8842464374999892
                    },
                    {
                        "name": "G5",
                        "midi": 79,
                        "time": 41.554952999999955,
                        "velocity": 0.7874015748031497,
                        "duration": 0.2175894374999956
                    },
                    {
                        "name": "C2",
                        "midi": 36,
                        "time": 41.66606249999995,
                        "velocity": 0.7874015748031497,
                        "duration": 0.2175894374999956
                    },
                    {
                        "name": "A4",
                        "midi": 69,
                        "time": 41.77717199999995,
                        "velocity": 0.7874015748031497,
                        "duration": 0.32869893749999335
                    },
                    {
                        "name": "F#5",
                        "midi": 78,
                        "time": 41.77717199999995,
                        "velocity": 0.7874015748031497,
                        "duration": 0.32869893749999335
                    },
                    {
                        "name": "B3",
                        "midi": 59,
                        "time": 41.88828149999995,
                        "velocity": 0.7874015748031497,
                        "duration": 0.10647993749999785
                    },
                    {
                        "name": "C2",
                        "midi": 36,
                        "time": 41.999390999999946,
                        "velocity": 0.7874015748031497,
                        "duration": 0.2175894374999956
                    },
                    {
                        "name": "A4",
                        "midi": 69,
                        "time": 42.110500499999944,
                        "velocity": 0.7874015748031497,
                        "duration": 0.32869893750000045
                    },
                    {
                        "name": "F#5",
                        "midi": 78,
                        "time": 42.110500499999944,
                        "velocity": 0.7874015748031497,
                        "duration": 1.439793937499985
                    },
                    {
                        "name": "B3",
                        "midi": 59,
                        "time": 42.22160999999994,
                        "velocity": 0.7874015748031497,
                        "duration": 0.2175894375000027
                    },
                    {
                        "name": "C4",
                        "midi": 60,
                        "time": 42.443828999999944,
                        "velocity": 0.7874015748031497,
                        "duration": 0.2175894374999956
                    },
                    {
                        "name": "E4",
                        "midi": 64,
                        "time": 42.443828999999944,
                        "velocity": 0.7874015748031497,
                        "duration": 0.10647993749999785
                    },
                    {
                        "name": "A4",
                        "midi": 69,
                        "time": 42.443828999999944,
                        "velocity": 0.7874015748031497,
                        "duration": 0.2175894374999956
                    },
                    {
                        "name": "F#4",
                        "midi": 66,
                        "time": 42.55493849999994,
                        "velocity": 0.7874015748031497,
                        "duration": 0.10647993749999785
                    },
                    {
                        "name": "G2",
                        "midi": 43,
                        "time": 42.66604799999994,
                        "velocity": 0.7874015748031497,
                        "duration": 0.10647993749999785
                    },
                    {
                        "name": "G4",
                        "midi": 67,
                        "time": 42.66604799999994,
                        "velocity": 0.7874015748031497,
                        "duration": 0.32869893749999335
                    },
                    {
                        "name": "B4",
                        "midi": 71,
                        "time": 42.66604799999994,
                        "velocity": 0.7874015748031497,
                        "duration": 0.32869893749999335
                    },
                    {
                        "name": "B3",
                        "midi": 59,
                        "time": 42.77715749999994,
                        "velocity": 0.7874015748031497,
                        "duration": 0.10647993749999785
                    },
                    {
                        "name": "G2",
                        "midi": 43,
                        "time": 42.888266999999935,
                        "velocity": 0.7874015748031497,
                        "duration": 0.2175894374999956
                    },
                    {
                        "name": "G4",
                        "midi": 67,
                        "time": 42.99937649999993,
                        "velocity": 0.7874015748031497,
                        "duration": 0.32869893750000045
                    },
                    {
                        "name": "B4",
                        "midi": 71,
                        "time": 42.99937649999993,
                        "velocity": 0.7874015748031497,
                        "duration": 0.32869893750000045
                    },
                    {
                        "name": "G4",
                        "midi": 67,
                        "time": 43.11048599999993,
                        "velocity": 0.7874015748031497,
                        "duration": 0.2175894375000027
                    },
                    {
                        "name": "B3",
                        "midi": 59,
                        "time": 43.33270499999993,
                        "velocity": 0.7874015748031497,
                        "duration": 0.10647993749999785
                    },
                    {
                        "name": "G4",
                        "midi": 67,
                        "time": 43.33270499999993,
                        "velocity": 0.7874015748031497,
                        "duration": 2.6619984374999675
                    },
                    {
                        "name": "B4",
                        "midi": 71,
                        "time": 43.33270499999993,
                        "velocity": 0.7874015748031497,
                        "duration": 0.2175894374999956
                    },
                    {
                        "name": "G2",
                        "midi": 43,
                        "time": 43.44381449999993,
                        "velocity": 0.7874015748031497,
                        "duration": 0.2175894374999956
                    },
                    {
                        "name": "B4",
                        "midi": 71,
                        "time": 43.55492399999993,
                        "velocity": 0.7874015748031497,
                        "duration": 0.32869893749999335
                    },
                    {
                        "name": "B4",
                        "midi": 71,
                        "time": 43.55492399999993,
                        "velocity": 0.7874015748031497,
                        "duration": 0.32869893749999335
                    },
                    {
                        "name": "B3",
                        "midi": 59,
                        "time": 43.66603349999993,
                        "velocity": 0.7874015748031497,
                        "duration": 0.10647993749999785
                    },
                    {
                        "name": "G2",
                        "midi": 43,
                        "time": 43.777142999999924,
                        "velocity": 0.7874015748031497,
                        "duration": 0.2175894374999956
                    },
                    {
                        "name": "D5",
                        "midi": 74,
                        "time": 43.88825249999992,
                        "velocity": 0.7874015748031497,
                        "duration": 0.32869893750000045
                    },
                    {
                        "name": "B4",
                        "midi": 71,
                        "time": 43.88825249999992,
                        "velocity": 0.7874015748031497,
                        "duration": 0.32869893750000045
                    },
                    {
                        "name": "F#4",
                        "midi": 66,
                        "time": 43.99936199999992,
                        "velocity": 0.7874015748031497,
                        "duration": 0.2175894375000027
                    },
                    {
                        "name": "B3",
                        "midi": 59,
                        "time": 44.22158099999992,
                        "velocity": 0.7874015748031497,
                        "duration": 0.10647993749999785
                    },
                    {
                        "name": "B4",
                        "midi": 71,
                        "time": 44.22158099999992,
                        "velocity": 0.7874015748031497,
                        "duration": 0.2175894374999956
                    },
                    {
                        "name": "B4",
                        "midi": 71,
                        "time": 44.22158099999992,
                        "velocity": 0.7874015748031497,
                        "duration": 0.2175894374999956
                    },
                    {
                        "name": "G2",
                        "midi": 43,
                        "time": 44.33269049999992,
                        "velocity": 0.7874015748031497,
                        "duration": 0.2175894374999956
                    },
                    {
                        "name": "B4",
                        "midi": 71,
                        "time": 44.44379999999992,
                        "velocity": 0.7874015748031497,
                        "duration": 0.32869893749999335
                    },
                    {
                        "name": "F#5",
                        "midi": 78,
                        "time": 44.44379999999992,
                        "velocity": 0.7874015748031497,
                        "duration": 0.32869893749999335
                    },
                    {
                        "name": "B3",
                        "midi": 59,
                        "time": 44.554909499999916,
                        "velocity": 0.7874015748031497,
                        "duration": 0.10647993749999785
                    },
                    {
                        "name": "G2",
                        "midi": 43,
                        "time": 44.66601899999991,
                        "velocity": 0.7874015748031497,
                        "duration": 0.2175894374999956
                    },
                    {
                        "name": "B4",
                        "midi": 71,
                        "time": 44.77712849999991,
                        "velocity": 0.7874015748031497,
                        "duration": 0.32869893750000045
                    },
                    {
                        "name": "F#5",
                        "midi": 78,
                        "time": 44.77712849999991,
                        "velocity": 0.7874015748031497,
                        "duration": 0.32869893750000045
                    },
                    {
                        "name": "D4",
                        "midi": 62,
                        "time": 44.88823799999991,
                        "velocity": 0.7874015748031497,
                        "duration": 0.2175894375000027
                    },
                    {
                        "name": "B3",
                        "midi": 59,
                        "time": 45.11045699999991,
                        "velocity": 0.7874015748031497,
                        "duration": 0.10647993749999785
                    },
                    {
                        "name": "B4",
                        "midi": 71,
                        "time": 45.11045699999991,
                        "velocity": 0.7874015748031497,
                        "duration": 0.2175894374999956
                    },
                    {
                        "name": "F#5",
                        "midi": 78,
                        "time": 45.11045699999991,
                        "velocity": 0.7874015748031497,
                        "duration": 0.2175894374999956
                    },
                    {
                        "name": "G2",
                        "midi": 43,
                        "time": 45.22156649999991,
                        "velocity": 0.7874015748031497,
                        "duration": 0.2175894374999956
                    },
                    {
                        "name": "B4",
                        "midi": 71,
                        "time": 45.33267599999991,
                        "velocity": 0.7874015748031497,
                        "duration": 0.32869893749999335
                    },
                    {
                        "name": "D5",
                        "midi": 74,
                        "time": 45.33267599999991,
                        "velocity": 0.7874015748031497,
                        "duration": 0.32869893749999335
                    },
                    {
                        "name": "B3",
                        "midi": 59,
                        "time": 45.443785499999905,
                        "velocity": 0.7874015748031497,
                        "duration": 0.10647993749999785
                    },
                    {
                        "name": "G2",
                        "midi": 43,
                        "time": 45.5548949999999,
                        "velocity": 0.7874015748031497,
                        "duration": 0.2175894374999956
                    },
                    {
                        "name": "D5",
                        "midi": 74,
                        "time": 45.6660044999999,
                        "velocity": 0.7874015748031497,
                        "duration": 0.32869893750000045
                    },
                    {
                        "name": "D5",
                        "midi": 74,
                        "time": 45.6660044999999,
                        "velocity": 0.7874015748031497,
                        "duration": 1.439793937499985
                    },
                    {
                        "name": "B3",
                        "midi": 59,
                        "time": 45.7771139999999,
                        "velocity": 0.7874015748031497,
                        "duration": 0.2175894375000027
                    },
                    {
                        "name": "C4",
                        "midi": 60,
                        "time": 45.9993329999999,
                        "velocity": 0.7874015748031497,
                        "duration": 0.2175894374999956
                    },
                    {
                        "name": "E4",
                        "midi": 64,
                        "time": 45.9993329999999,
                        "velocity": 0.7874015748031497,
                        "duration": 0.10647993749999785
                    },
                    {
                        "name": "B4",
                        "midi": 71,
                        "time": 45.9993329999999,
                        "velocity": 0.7874015748031497,
                        "duration": 0.2175894374999956
                    },
                    {
                        "name": "F#4",
                        "midi": 66,
                        "time": 46.1104424999999,
                        "velocity": 0.7874015748031497,
                        "duration": 0.10647993749999785
                    },
                    {
                        "name": "E2",
                        "midi": 40,
                        "time": 46.221551999999896,
                        "velocity": 0.7874015748031497,
                        "duration": 0.10647993749999785
                    },
                    {
                        "name": "G4",
                        "midi": 67,
                        "time": 46.221551999999896,
                        "velocity": 0.7874015748031497,
                        "duration": 0.32869893749999335
                    },
                    {
                        "name": "B4",
                        "midi": 71,
                        "time": 46.221551999999896,
                        "velocity": 0.7874015748031497,
                        "duration": 0.32869893749999335
                    },
                    {
                        "name": "B3",
                        "midi": 59,
                        "time": 46.332661499999894,
                        "velocity": 0.7874015748031497,
                        "duration": 0.10647993749999785
                    },
                    {
                        "name": "E2",
                        "midi": 40,
                        "time": 46.44377099999989,
                        "velocity": 0.7874015748031497,
                        "duration": 0.2175894374999956
                    },
                    {
                        "name": "G4",
                        "midi": 67,
                        "time": 46.55488049999989,
                        "velocity": 0.7874015748031497,
                        "duration": 0.32869893750000045
                    },
                    {
                        "name": "B4",
                        "midi": 71,
                        "time": 46.55488049999989,
                        "velocity": 0.7874015748031497,
                        "duration": 0.32869893750000045
                    },
                    {
                        "name": "G4",
                        "midi": 67,
                        "time": 46.66598999999989,
                        "velocity": 0.7874015748031497,
                        "duration": 0.2175894375000027
                    },
                    {
                        "name": "B3",
                        "midi": 59,
                        "time": 46.88820899999989,
                        "velocity": 0.7874015748031497,
                        "duration": 0.10647993749999785
                    },
                    {
                        "name": "G4",
                        "midi": 67,
                        "time": 46.88820899999989,
                        "velocity": 0.7874015748031497,
                        "duration": 1.4397939374999709
                    },
                    {
                        "name": "B4",
                        "midi": 71,
                        "time": 46.88820899999989,
                        "velocity": 0.7874015748031497,
                        "duration": 0.2175894374999956
                    },
                    {
                        "name": "E2",
                        "midi": 40,
                        "time": 46.99931849999989,
                        "velocity": 0.7874015748031497,
                        "duration": 0.2175894374999956
                    },
                    {
                        "name": "B4",
                        "midi": 71,
                        "time": 47.110427999999885,
                        "velocity": 0.7874015748031497,
                        "duration": 0.32869893749999335
                    },
                    {
                        "name": "B4",
                        "midi": 71,
                        "time": 47.110427999999885,
                        "velocity": 0.7874015748031497,
                        "duration": 0.32869893749999335
                    },
                    {
                        "name": "B3",
                        "midi": 59,
                        "time": 47.22153749999988,
                        "velocity": 0.7874015748031497,
                        "duration": 0.10647993749999785
                    },
                    {
                        "name": "E2",
                        "midi": 40,
                        "time": 47.33264699999988,
                        "velocity": 0.7874015748031497,
                        "duration": 0.2175894374999956
                    },
                    {
                        "name": "D5",
                        "midi": 74,
                        "time": 47.44375649999988,
                        "velocity": 0.7874015748031497,
                        "duration": 0.2175894374999956
                    },
                    {
                        "name": "B4",
                        "midi": 71,
                        "time": 47.44375649999988,
                        "velocity": 0.7874015748031497,
                        "duration": 0.32869893749999335
                    },
                    {
                        "name": "F#4",
                        "midi": 66,
                        "time": 47.554865999999876,
                        "velocity": 0.7874015748031497,
                        "duration": 0.2175894374999956
                    },
                    {
                        "name": "B4",
                        "midi": 71,
                        "time": 47.665975499999874,
                        "velocity": 0.7874015748031497,
                        "duration": 0.32869893749999335
                    },
                    {
                        "name": "B3",
                        "midi": 59,
                        "time": 47.77708499999987,
                        "velocity": 0.7874015748031497,
                        "duration": 0.10647993749999785
                    },
                    {
                        "name": "B4",
                        "midi": 71,
                        "time": 47.77708499999987,
                        "velocity": 0.7874015748031497,
                        "duration": 0.2175894374999956
                    },
                    {
                        "name": "C2",
                        "midi": 36,
                        "time": 47.88819449999987,
                        "velocity": 0.7874015748031497,
                        "duration": 0.2175894374999956
                    },
                    {
                        "name": "G4",
                        "midi": 67,
                        "time": 47.99930399999987,
                        "velocity": 0.7874015748031497,
                        "duration": 0.6620274374999937
                    },
                    {
                        "name": "G5",
                        "midi": 79,
                        "time": 47.99930399999987,
                        "velocity": 0.7874015748031497,
                        "duration": 0.32869893749999335
                    },
                    {
                        "name": "B3",
                        "midi": 59,
                        "time": 48.110413499999865,
                        "velocity": 0.7874015748031497,
                        "duration": 0.10647993749999785
                    },
                    {
                        "name": "C2",
                        "midi": 36,
                        "time": 48.22152299999986,
                        "velocity": 0.7874015748031497,
                        "duration": 0.2175894374999956
                    },
                    {
                        "name": "G4",
                        "midi": 67,
                        "time": 48.33263249999986,
                        "velocity": 0.7874015748031497,
                        "duration": 0.550917937499996
                    },
                    {
                        "name": "G5",
                        "midi": 79,
                        "time": 48.33263249999986,
                        "velocity": 0.7874015748031497,
                        "duration": 0.32869893750000045
                    },
                    {
                        "name": "D4",
                        "midi": 62,
                        "time": 48.44374199999986,
                        "velocity": 0.7874015748031497,
                        "duration": 0.2175894375000027
                    },
                    {
                        "name": "B3",
                        "midi": 59,
                        "time": 48.66596099999986,
                        "velocity": 0.7874015748031497,
                        "duration": 0.10647993749999785
                    },
                    {
                        "name": "G4",
                        "midi": 67,
                        "time": 48.66596099999986,
                        "velocity": 0.7874015748031497,
                        "duration": 0.8842464374999892
                    },
                    {
                        "name": "G5",
                        "midi": 79,
                        "time": 48.66596099999986,
                        "velocity": 0.7874015748031497,
                        "duration": 0.2175894374999956
                    },
                    {
                        "name": "C2",
                        "midi": 36,
                        "time": 48.77707049999986,
                        "velocity": 0.7874015748031497,
                        "duration": 0.2175894374999956
                    },
                    {
                        "name": "A4",
                        "midi": 69,
                        "time": 48.888179999999856,
                        "velocity": 0.7874015748031497,
                        "duration": 0.32869893749999335
                    },
                    {
                        "name": "F#5",
                        "midi": 78,
                        "time": 48.888179999999856,
                        "velocity": 0.7874015748031497,
                        "duration": 0.32869893749999335
                    },
                    {
                        "name": "B3",
                        "midi": 59,
                        "time": 48.999289499999854,
                        "velocity": 0.7874015748031497,
                        "duration": 0.10647993749999785
                    },
                    {
                        "name": "C2",
                        "midi": 36,
                        "time": 49.11039899999985,
                        "velocity": 0.7874015748031497,
                        "duration": 0.2175894374999956
                    },
                    {
                        "name": "A4",
                        "midi": 69,
                        "time": 49.22150849999985,
                        "velocity": 0.7874015748031497,
                        "duration": 0.32869893750000045
                    },
                    {
                        "name": "F#5",
                        "midi": 78,
                        "time": 49.22150849999985,
                        "velocity": 0.7874015748031497,
                        "duration": 1.439793937499985
                    },
                    {
                        "name": "B3",
                        "midi": 59,
                        "time": 49.33261799999985,
                        "velocity": 0.7874015748031497,
                        "duration": 0.2175894375000027
                    },
                    {
                        "name": "C4",
                        "midi": 60,
                        "time": 49.55483699999985,
                        "velocity": 0.7874015748031497,
                        "duration": 0.2175894374999956
                    },
                    {
                        "name": "E4",
                        "midi": 64,
                        "time": 49.55483699999985,
                        "velocity": 0.7874015748031497,
                        "duration": 0.10647993749999785
                    },
                    {
                        "name": "A4",
                        "midi": 69,
                        "time": 49.55483699999985,
                        "velocity": 0.7874015748031497,
                        "duration": 0.2175894374999956
                    },
                    {
                        "name": "F#4",
                        "midi": 66,
                        "time": 49.66594649999985,
                        "velocity": 0.7874015748031497,
                        "duration": 0.10647993749999785
                    },
                    {
                        "name": "G2",
                        "midi": 43,
                        "time": 49.777055999999845,
                        "velocity": 0.7874015748031497,
                        "duration": 0.10647993749999785
                    },
                    {
                        "name": "G4",
                        "midi": 67,
                        "time": 49.777055999999845,
                        "velocity": 0.7874015748031497,
                        "duration": 0.32869893749999335
                    },
                    {
                        "name": "B4",
                        "midi": 71,
                        "time": 49.777055999999845,
                        "velocity": 0.7874015748031497,
                        "duration": 0.32869893749999335
                    },
                    {
                        "name": "B3",
                        "midi": 59,
                        "time": 49.88816549999984,
                        "velocity": 0.7874015748031497,
                        "duration": 0.10647993749999785
                    },
                    {
                        "name": "G2",
                        "midi": 43,
                        "time": 49.99927499999984,
                        "velocity": 0.7874015748031497,
                        "duration": 0.2175894374999956
                    },
                    {
                        "name": "G4",
                        "midi": 67,
                        "time": 50.11038449999984,
                        "velocity": 0.7874015748031497,
                        "duration": 0.32869893750000045
                    },
                    {
                        "name": "B4",
                        "midi": 71,
                        "time": 50.11038449999984,
                        "velocity": 0.7874015748031497,
                        "duration": 0.32869893750000045
                    },
                    {
                        "name": "G4",
                        "midi": 67,
                        "time": 50.221493999999836,
                        "velocity": 0.7874015748031497,
                        "duration": 0.2175894375000027
                    },
                    {
                        "name": "B3",
                        "midi": 59,
                        "time": 50.44371299999984,
                        "velocity": 0.7874015748031497,
                        "duration": 0.10647993749999785
                    },
                    {
                        "name": "G4",
                        "midi": 67,
                        "time": 50.44371299999984,
                        "velocity": 0.7874015748031497,
                        "duration": 2.6619984374999675
                    },
                    {
                        "name": "B4",
                        "midi": 71,
                        "time": 50.44371299999984,
                        "velocity": 0.7874015748031497,
                        "duration": 0.2175894374999956
                    },
                    {
                        "name": "G2",
                        "midi": 43,
                        "time": 50.55482249999984,
                        "velocity": 0.7874015748031497,
                        "duration": 0.2175894374999956
                    },
                    {
                        "name": "B4",
                        "midi": 71,
                        "time": 50.665931999999835,
                        "velocity": 0.7874015748031497,
                        "duration": 0.32869893749999335
                    },
                    {
                        "name": "B4",
                        "midi": 71,
                        "time": 50.665931999999835,
                        "velocity": 0.7874015748031497,
                        "duration": 0.32869893749999335
                    },
                    {
                        "name": "B3",
                        "midi": 59,
                        "time": 50.77704149999983,
                        "velocity": 0.7874015748031497,
                        "duration": 0.10647993749999785
                    },
                    {
                        "name": "G2",
                        "midi": 43,
                        "time": 50.88815099999983,
                        "velocity": 0.7874015748031497,
                        "duration": 0.2175894374999956
                    },
                    {
                        "name": "D5",
                        "midi": 74,
                        "time": 50.99926049999983,
                        "velocity": 0.7874015748031497,
                        "duration": 0.32869893750000045
                    },
                    {
                        "name": "B4",
                        "midi": 71,
                        "time": 50.99926049999983,
                        "velocity": 0.7874015748031497,
                        "duration": 0.32869893750000045
                    },
                    {
                        "name": "F#4",
                        "midi": 66,
                        "time": 51.110369999999826,
                        "velocity": 0.7874015748031497,
                        "duration": 0.2175894375000027
                    },
                    {
                        "name": "B3",
                        "midi": 59,
                        "time": 51.33258899999983,
                        "velocity": 0.7874015748031497,
                        "duration": 0.10647993749999785
                    },
                    {
                        "name": "B4",
                        "midi": 71,
                        "time": 51.33258899999983,
                        "velocity": 0.7874015748031497,
                        "duration": 0.2175894374999956
                    },
                    {
                        "name": "B4",
                        "midi": 71,
                        "time": 51.33258899999983,
                        "velocity": 0.7874015748031497,
                        "duration": 0.2175894374999956
                    },
                    {
                        "name": "G2",
                        "midi": 43,
                        "time": 51.443698499999826,
                        "velocity": 0.7874015748031497,
                        "duration": 0.2175894374999956
                    },
                    {
                        "name": "B4",
                        "midi": 71,
                        "time": 51.554807999999824,
                        "velocity": 0.7874015748031497,
                        "duration": 0.32869893749999335
                    },
                    {
                        "name": "F#5",
                        "midi": 78,
                        "time": 51.554807999999824,
                        "velocity": 0.7874015748031497,
                        "duration": 0.32869893749999335
                    },
                    {
                        "name": "B3",
                        "midi": 59,
                        "time": 51.66591749999982,
                        "velocity": 0.7874015748031497,
                        "duration": 0.10647993749999785
                    },
                    {
                        "name": "G2",
                        "midi": 43,
                        "time": 51.77702699999982,
                        "velocity": 0.7874015748031497,
                        "duration": 0.2175894374999956
                    },
                    {
                        "name": "B4",
                        "midi": 71,
                        "time": 51.88813649999982,
                        "velocity": 0.7874015748031497,
                        "duration": 0.32869893750000045
                    },
                    {
                        "name": "F#5",
                        "midi": 78,
                        "time": 51.88813649999982,
                        "velocity": 0.7874015748031497,
                        "duration": 0.32869893750000045
                    },
                    {
                        "name": "D4",
                        "midi": 62,
                        "time": 51.999245999999815,
                        "velocity": 0.7874015748031497,
                        "duration": 0.2175894375000027
                    },
                    {
                        "name": "B3",
                        "midi": 59,
                        "time": 52.22146499999982,
                        "velocity": 0.7874015748031497,
                        "duration": 0.10647993749999785
                    },
                    {
                        "name": "B4",
                        "midi": 71,
                        "time": 52.22146499999982,
                        "velocity": 0.7874015748031497,
                        "duration": 0.2175894374999956
                    },
                    {
                        "name": "F#5",
                        "midi": 78,
                        "time": 52.22146499999982,
                        "velocity": 0.7874015748031497,
                        "duration": 0.2175894374999956
                    },
                    {
                        "name": "G2",
                        "midi": 43,
                        "time": 52.332574499999815,
                        "velocity": 0.7874015748031497,
                        "duration": 0.2175894374999956
                    },
                    {
                        "name": "B4",
                        "midi": 71,
                        "time": 52.44368399999981,
                        "velocity": 0.7874015748031497,
                        "duration": 0.32869893749999335
                    },
                    {
                        "name": "D5",
                        "midi": 74,
                        "time": 52.44368399999981,
                        "velocity": 0.7874015748031497,
                        "duration": 0.32869893749999335
                    },
                    {
                        "name": "B3",
                        "midi": 59,
                        "time": 52.55479349999981,
                        "velocity": 0.7874015748031497,
                        "duration": 0.10647993749999785
                    },
                    {
                        "name": "G2",
                        "midi": 43,
                        "time": 52.66590299999981,
                        "velocity": 0.7874015748031497,
                        "duration": 0.2175894374999956
                    },
                    {
                        "name": "D5",
                        "midi": 74,
                        "time": 52.777012499999806,
                        "velocity": 0.7874015748031497,
                        "duration": 0.32869893750000045
                    },
                    {
                        "name": "D5",
                        "midi": 74,
                        "time": 52.777012499999806,
                        "velocity": 0.7874015748031497,
                        "duration": 1.439793937499985
                    },
                    {
                        "name": "B3",
                        "midi": 59,
                        "time": 52.888121999999804,
                        "velocity": 0.7874015748031497,
                        "duration": 0.2175894375000027
                    },
                    {
                        "name": "C4",
                        "midi": 60,
                        "time": 53.110340999999806,
                        "velocity": 0.7874015748031497,
                        "duration": 0.2175894374999956
                    },
                    {
                        "name": "E4",
                        "midi": 64,
                        "time": 53.110340999999806,
                        "velocity": 0.7874015748031497,
                        "duration": 0.10647993749999785
                    },
                    {
                        "name": "B4",
                        "midi": 71,
                        "time": 53.110340999999806,
                        "velocity": 0.7874015748031497,
                        "duration": 0.2175894374999956
                    },
                    {
                        "name": "F#4",
                        "midi": 66,
                        "time": 53.221450499999804,
                        "velocity": 0.7874015748031497,
                        "duration": 0.10647993749999785
                    },
                    {
                        "name": "E2",
                        "midi": 40,
                        "time": 53.3325599999998,
                        "velocity": 0.7874015748031497,
                        "duration": 0.10647993749999785
                    },
                    {
                        "name": "G4",
                        "midi": 67,
                        "time": 53.3325599999998,
                        "velocity": 0.7874015748031497,
                        "duration": 0.32869893749999335
                    },
                    {
                        "name": "B4",
                        "midi": 71,
                        "time": 53.3325599999998,
                        "velocity": 0.7874015748031497,
                        "duration": 0.32869893749999335
                    },
                    {
                        "name": "B3",
                        "midi": 59,
                        "time": 53.4436694999998,
                        "velocity": 0.7874015748031497,
                        "duration": 0.10647993749999785
                    },
                    {
                        "name": "E2",
                        "midi": 40,
                        "time": 53.5547789999998,
                        "velocity": 0.7874015748031497,
                        "duration": 0.2175894374999956
                    },
                    {
                        "name": "G4",
                        "midi": 67,
                        "time": 53.665888499999795,
                        "velocity": 0.7874015748031497,
                        "duration": 0.32869893750000045
                    },
                    {
                        "name": "B4",
                        "midi": 71,
                        "time": 53.665888499999795,
                        "velocity": 0.7874015748031497,
                        "duration": 0.32869893750000045
                    },
                    {
                        "name": "G4",
                        "midi": 67,
                        "time": 53.77699799999979,
                        "velocity": 0.7874015748031497,
                        "duration": 0.2175894375000027
                    },
                    {
                        "name": "B3",
                        "midi": 59,
                        "time": 53.999216999999796,
                        "velocity": 0.7874015748031497,
                        "duration": 0.10647993749999785
                    },
                    {
                        "name": "G4",
                        "midi": 67,
                        "time": 53.999216999999796,
                        "velocity": 0.7874015748031497,
                        "duration": 1.4397939374999709
                    },
                    {
                        "name": "B4",
                        "midi": 71,
                        "time": 53.999216999999796,
                        "velocity": 0.7874015748031497,
                        "duration": 0.2175894374999956
                    },
                    {
                        "name": "E2",
                        "midi": 40,
                        "time": 54.11032649999979,
                        "velocity": 0.7874015748031497,
                        "duration": 0.2175894374999956
                    },
                    {
                        "name": "B4",
                        "midi": 71,
                        "time": 54.22143599999979,
                        "velocity": 0.7874015748031497,
                        "duration": 0.32869893749999335
                    },
                    {
                        "name": "B4",
                        "midi": 71,
                        "time": 54.22143599999979,
                        "velocity": 0.7874015748031497,
                        "duration": 0.32869893749999335
                    },
                    {
                        "name": "B3",
                        "midi": 59,
                        "time": 54.33254549999979,
                        "velocity": 0.7874015748031497,
                        "duration": 0.10647993749999785
                    },
                    {
                        "name": "E2",
                        "midi": 40,
                        "time": 54.44365499999979,
                        "velocity": 0.7874015748031497,
                        "duration": 0.2175894374999956
                    },
                    {
                        "name": "D5",
                        "midi": 74,
                        "time": 54.554764499999784,
                        "velocity": 0.7874015748031497,
                        "duration": 0.2175894374999956
                    },
                    {
                        "name": "B4",
                        "midi": 71,
                        "time": 54.554764499999784,
                        "velocity": 0.7874015748031497,
                        "duration": 0.32869893749999335
                    },
                    {
                        "name": "F#4",
                        "midi": 66,
                        "time": 54.66587399999978,
                        "velocity": 0.7874015748031497,
                        "duration": 0.2175894374999956
                    },
                    {
                        "name": "B4",
                        "midi": 71,
                        "time": 54.77698349999978,
                        "velocity": 0.7874015748031497,
                        "duration": 0.32869893749999335
                    },
                    {
                        "name": "B3",
                        "midi": 59,
                        "time": 54.88809299999978,
                        "velocity": 0.7874015748031497,
                        "duration": 0.10647993749999785
                    },
                    {
                        "name": "B4",
                        "midi": 71,
                        "time": 54.88809299999978,
                        "velocity": 0.7874015748031497,
                        "duration": 0.2175894374999956
                    },
                    {
                        "name": "C2",
                        "midi": 36,
                        "time": 54.999202499999775,
                        "velocity": 0.7874015748031497,
                        "duration": 0.2175894374999956
                    },
                    {
                        "name": "G4",
                        "midi": 67,
                        "time": 55.11031199999977,
                        "velocity": 0.7874015748031497,
                        "duration": 0.6620274374999937
                    },
                    {
                        "name": "G5",
                        "midi": 79,
                        "time": 55.11031199999977,
                        "velocity": 0.7874015748031497,
                        "duration": 0.32869893749999335
                    },
                    {
                        "name": "B3",
                        "midi": 59,
                        "time": 55.22142149999977,
                        "velocity": 0.7874015748031497,
                        "duration": 0.10647993749999785
                    },
                    {
                        "name": "C2",
                        "midi": 36,
                        "time": 55.33253099999977,
                        "velocity": 0.7874015748031497,
                        "duration": 0.2175894374999956
                    },
                    {
                        "name": "G4",
                        "midi": 67,
                        "time": 55.443640499999766,
                        "velocity": 0.7874015748031497,
                        "duration": 0.550917937499996
                    },
                    {
                        "name": "G5",
                        "midi": 79,
                        "time": 55.443640499999766,
                        "velocity": 0.7874015748031497,
                        "duration": 0.32869893750000045
                    },
                    {
                        "name": "D4",
                        "midi": 62,
                        "time": 55.554749999999764,
                        "velocity": 0.7874015748031497,
                        "duration": 0.2175894375000027
                    },
                    {
                        "name": "B3",
                        "midi": 59,
                        "time": 55.77696899999977,
                        "velocity": 0.7874015748031497,
                        "duration": 0.10647993749999785
                    },
                    {
                        "name": "G4",
                        "midi": 67,
                        "time": 55.77696899999977,
                        "velocity": 0.7874015748031497,
                        "duration": 0.8842464374999892
                    },
                    {
                        "name": "G5",
                        "midi": 79,
                        "time": 55.77696899999977,
                        "velocity": 0.7874015748031497,
                        "duration": 0.2175894374999956
                    },
                    {
                        "name": "C2",
                        "midi": 36,
                        "time": 55.888078499999764,
                        "velocity": 0.7874015748031497,
                        "duration": 0.2175894374999956
                    },
                    {
                        "name": "A4",
                        "midi": 69,
                        "time": 55.99918799999976,
                        "velocity": 0.7874015748031497,
                        "duration": 0.32869893749999335
                    },
                    {
                        "name": "F#5",
                        "midi": 78,
                        "time": 55.99918799999976,
                        "velocity": 0.7874015748031497,
                        "duration": 0.32869893749999335
                    },
                    {
                        "name": "B3",
                        "midi": 59,
                        "time": 56.11029749999976,
                        "velocity": 0.7874015748031497,
                        "duration": 0.10647993749999785
                    },
                    {
                        "name": "C2",
                        "midi": 36,
                        "time": 56.22140699999976,
                        "velocity": 0.7874015748031497,
                        "duration": 0.2175894374999956
                    },
                    {
                        "name": "A4",
                        "midi": 69,
                        "time": 56.332516499999755,
                        "velocity": 0.7874015748031497,
                        "duration": 0.32869893750000045
                    },
                    {
                        "name": "F#5",
                        "midi": 78,
                        "time": 56.332516499999755,
                        "velocity": 0.7874015748031497,
                        "duration": 0.550917937499996
                    },
                    {
                        "name": "B3",
                        "midi": 59,
                        "time": 56.44362599999975,
                        "velocity": 0.7874015748031497,
                        "duration": 0.2175894375000027
                    },
                    {
                        "name": "C4",
                        "midi": 60,
                        "time": 56.665844999999756,
                        "velocity": 0.7874015748031497,
                        "duration": 0.2175894374999956
                    },
                    {
                        "name": "E4",
                        "midi": 64,
                        "time": 56.665844999999756,
                        "velocity": 0.7874015748031497,
                        "duration": 0.10647993749999785
                    },
                    {
                        "name": "A4",
                        "midi": 69,
                        "time": 56.665844999999756,
                        "velocity": 0.7874015748031497,
                        "duration": 0.2175894374999956
                    },
                    {
                        "name": "F#4",
                        "midi": 66,
                        "time": 56.77695449999975,
                        "velocity": 0.7874015748031497,
                        "duration": 0.10647993749999785
                    },
                    {
                        "name": "G2",
                        "midi": 43,
                        "time": 71.11007999999975,
                        "velocity": 0.7874015748031497,
                        "duration": 0.10647993749999785
                    },
                    {
                        "name": "G4",
                        "midi": 67,
                        "time": 71.11007999999975,
                        "velocity": 0.7874015748031497,
                        "duration": 0.32869893749999335
                    },
                    {
                        "name": "B4",
                        "midi": 71,
                        "time": 71.11007999999975,
                        "velocity": 0.7874015748031497,
                        "duration": 0.32869893749999335
                    },
                    {
                        "name": "B3",
                        "midi": 59,
                        "time": 71.22118949999975,
                        "velocity": 0.7874015748031497,
                        "duration": 0.10647993749999785
                    },
                    {
                        "name": "G2",
                        "midi": 43,
                        "time": 71.33229899999975,
                        "velocity": 0.7874015748031497,
                        "duration": 0.2175894374999956
                    },
                    {
                        "name": "G4",
                        "midi": 67,
                        "time": 71.44340849999975,
                        "velocity": 0.7874015748031497,
                        "duration": 0.32869893749999335
                    },
                    {
                        "name": "B4",
                        "midi": 71,
                        "time": 71.44340849999975,
                        "velocity": 0.7874015748031497,
                        "duration": 0.32869893749999335
                    },
                    {
                        "name": "G4",
                        "midi": 67,
                        "time": 71.55451799999975,
                        "velocity": 0.7874015748031497,
                        "duration": 0.2175894374999956
                    },
                    {
                        "name": "B3",
                        "midi": 59,
                        "time": 71.77673699999974,
                        "velocity": 0.7874015748031497,
                        "duration": 0.10647993749999785
                    },
                    {
                        "name": "G4",
                        "midi": 67,
                        "time": 71.77673699999974,
                        "velocity": 0.7874015748031497,
                        "duration": 2.661998437499946
                    },
                    {
                        "name": "B4",
                        "midi": 71,
                        "time": 71.77673699999974,
                        "velocity": 0.7874015748031497,
                        "duration": 0.2175894374999956
                    },
                    {
                        "name": "G2",
                        "midi": 43,
                        "time": 71.88784649999974,
                        "velocity": 0.7874015748031497,
                        "duration": 0.2175894374999956
                    },
                    {
                        "name": "B4",
                        "midi": 71,
                        "time": 71.99895599999974,
                        "velocity": 0.7874015748031497,
                        "duration": 0.32869893749999335
                    },
                    {
                        "name": "B4",
                        "midi": 71,
                        "time": 71.99895599999974,
                        "velocity": 0.7874015748031497,
                        "duration": 0.32869893749999335
                    },
                    {
                        "name": "B3",
                        "midi": 59,
                        "time": 72.11006549999973,
                        "velocity": 0.7874015748031497,
                        "duration": 0.10647993749999785
                    },
                    {
                        "name": "G2",
                        "midi": 43,
                        "time": 72.22117499999973,
                        "velocity": 0.7874015748031497,
                        "duration": 0.2175894374999956
                    },
                    {
                        "name": "D5",
                        "midi": 74,
                        "time": 72.33228449999973,
                        "velocity": 0.7874015748031497,
                        "duration": 0.32869893749999335
                    },
                    {
                        "name": "B4",
                        "midi": 71,
                        "time": 72.33228449999973,
                        "velocity": 0.7874015748031497,
                        "duration": 0.32869893749999335
                    },
                    {
                        "name": "F#4",
                        "midi": 66,
                        "time": 72.44339399999973,
                        "velocity": 0.7874015748031497,
                        "duration": 0.2175894374999956
                    },
                    {
                        "name": "B3",
                        "midi": 59,
                        "time": 72.66561299999972,
                        "velocity": 0.7874015748031497,
                        "duration": 0.10647993749999785
                    },
                    {
                        "name": "B4",
                        "midi": 71,
                        "time": 72.66561299999972,
                        "velocity": 0.7874015748031497,
                        "duration": 0.2175894374999956
                    },
                    {
                        "name": "B4",
                        "midi": 71,
                        "time": 72.66561299999972,
                        "velocity": 0.7874015748031497,
                        "duration": 0.2175894374999956
                    },
                    {
                        "name": "G2",
                        "midi": 43,
                        "time": 72.77672249999972,
                        "velocity": 0.7874015748031497,
                        "duration": 0.2175894374999956
                    },
                    {
                        "name": "B4",
                        "midi": 71,
                        "time": 72.88783199999972,
                        "velocity": 0.7874015748031497,
                        "duration": 0.32869893749999335
                    },
                    {
                        "name": "F#5",
                        "midi": 78,
                        "time": 72.88783199999972,
                        "velocity": 0.7874015748031497,
                        "duration": 0.32869893749999335
                    },
                    {
                        "name": "B3",
                        "midi": 59,
                        "time": 72.99894149999972,
                        "velocity": 0.7874015748031497,
                        "duration": 0.10647993749999785
                    },
                    {
                        "name": "G2",
                        "midi": 43,
                        "time": 73.11005099999971,
                        "velocity": 0.7874015748031497,
                        "duration": 0.2175894374999956
                    },
                    {
                        "name": "B4",
                        "midi": 71,
                        "time": 73.22116049999971,
                        "velocity": 0.7874015748031497,
                        "duration": 0.32869893749999335
                    },
                    {
                        "name": "F#5",
                        "midi": 78,
                        "time": 73.22116049999971,
                        "velocity": 0.7874015748031497,
                        "duration": 0.32869893749999335
                    },
                    {
                        "name": "D4",
                        "midi": 62,
                        "time": 73.33226999999971,
                        "velocity": 0.7874015748031497,
                        "duration": 0.2175894374999956
                    },
                    {
                        "name": "B3",
                        "midi": 59,
                        "time": 73.5544889999997,
                        "velocity": 0.7874015748031497,
                        "duration": 0.10647993749999785
                    },
                    {
                        "name": "B4",
                        "midi": 71,
                        "time": 73.5544889999997,
                        "velocity": 0.7874015748031497,
                        "duration": 0.2175894374999956
                    },
                    {
                        "name": "F#5",
                        "midi": 78,
                        "time": 73.5544889999997,
                        "velocity": 0.7874015748031497,
                        "duration": 0.2175894374999956
                    },
                    {
                        "name": "G2",
                        "midi": 43,
                        "time": 73.6655984999997,
                        "velocity": 0.7874015748031497,
                        "duration": 0.2175894374999956
                    },
                    {
                        "name": "B4",
                        "midi": 71,
                        "time": 73.7767079999997,
                        "velocity": 0.7874015748031497,
                        "duration": 0.32869893749999335
                    },
                    {
                        "name": "D5",
                        "midi": 74,
                        "time": 73.7767079999997,
                        "velocity": 0.7874015748031497,
                        "duration": 0.32869893749999335
                    },
                    {
                        "name": "B3",
                        "midi": 59,
                        "time": 73.8878174999997,
                        "velocity": 0.7874015748031497,
                        "duration": 0.10647993749999785
                    },
                    {
                        "name": "G2",
                        "midi": 43,
                        "time": 73.9989269999997,
                        "velocity": 0.7874015748031497,
                        "duration": 0.2175894374999956
                    },
                    {
                        "name": "D5",
                        "midi": 74,
                        "time": 74.1100364999997,
                        "velocity": 0.7874015748031497,
                        "duration": 0.32869893749999335
                    },
                    {
                        "name": "D5",
                        "midi": 74,
                        "time": 74.1100364999997,
                        "velocity": 0.7874015748031497,
                        "duration": 1.4397939374999709
                    },
                    {
                        "name": "B3",
                        "midi": 59,
                        "time": 74.22114599999969,
                        "velocity": 0.7874015748031497,
                        "duration": 0.2175894374999956
                    },
                    {
                        "name": "C4",
                        "midi": 60,
                        "time": 74.44336499999969,
                        "velocity": 0.7874015748031497,
                        "duration": 0.2175894374999956
                    },
                    {
                        "name": "E4",
                        "midi": 64,
                        "time": 74.44336499999969,
                        "velocity": 0.7874015748031497,
                        "duration": 0.10647993749999785
                    },
                    {
                        "name": "B4",
                        "midi": 71,
                        "time": 74.44336499999969,
                        "velocity": 0.7874015748031497,
                        "duration": 0.2175894374999956
                    },
                    {
                        "name": "F#4",
                        "midi": 66,
                        "time": 74.55447449999969,
                        "velocity": 0.7874015748031497,
                        "duration": 0.10647993749999785
                    },
                    {
                        "name": "E2",
                        "midi": 40,
                        "time": 74.66558399999968,
                        "velocity": 0.7874015748031497,
                        "duration": 0.10647993749999785
                    },
                    {
                        "name": "G4",
                        "midi": 67,
                        "time": 74.66558399999968,
                        "velocity": 0.7874015748031497,
                        "duration": 0.32869893749999335
                    },
                    {
                        "name": "B4",
                        "midi": 71,
                        "time": 74.66558399999968,
                        "velocity": 0.7874015748031497,
                        "duration": 0.32869893749999335
                    },
                    {
                        "name": "B3",
                        "midi": 59,
                        "time": 74.77669349999968,
                        "velocity": 0.7874015748031497,
                        "duration": 0.10647993749999785
                    },
                    {
                        "name": "E2",
                        "midi": 40,
                        "time": 74.88780299999968,
                        "velocity": 0.7874015748031497,
                        "duration": 0.2175894374999956
                    },
                    {
                        "name": "G4",
                        "midi": 67,
                        "time": 74.99891249999968,
                        "velocity": 0.7874015748031497,
                        "duration": 0.32869893749999335
                    },
                    {
                        "name": "B4",
                        "midi": 71,
                        "time": 74.99891249999968,
                        "velocity": 0.7874015748031497,
                        "duration": 0.32869893749999335
                    },
                    {
                        "name": "G4",
                        "midi": 67,
                        "time": 75.11002199999967,
                        "velocity": 0.7874015748031497,
                        "duration": 0.2175894374999956
                    },
                    {
                        "name": "B3",
                        "midi": 59,
                        "time": 75.33224099999967,
                        "velocity": 0.7874015748031497,
                        "duration": 0.10647993749999785
                    },
                    {
                        "name": "G4",
                        "midi": 67,
                        "time": 75.33224099999967,
                        "velocity": 0.7874015748031497,
                        "duration": 1.4397939374999709
                    },
                    {
                        "name": "B4",
                        "midi": 71,
                        "time": 75.33224099999967,
                        "velocity": 0.7874015748031497,
                        "duration": 0.2175894374999956
                    },
                    {
                        "name": "E2",
                        "midi": 40,
                        "time": 75.44335049999967,
                        "velocity": 0.7874015748031497,
                        "duration": 0.2175894374999956
                    },
                    {
                        "name": "B4",
                        "midi": 71,
                        "time": 75.55445999999966,
                        "velocity": 0.7874015748031497,
                        "duration": 0.32869893749999335
                    },
                    {
                        "name": "B4",
                        "midi": 71,
                        "time": 75.55445999999966,
                        "velocity": 0.7874015748031497,
                        "duration": 0.32869893749999335
                    },
                    {
                        "name": "B3",
                        "midi": 59,
                        "time": 75.66556949999966,
                        "velocity": 0.7874015748031497,
                        "duration": 0.10647993749999785
                    },
                    {
                        "name": "E2",
                        "midi": 40,
                        "time": 75.77667899999966,
                        "velocity": 0.7874015748031497,
                        "duration": 0.2175894374999956
                    },
                    {
                        "name": "D5",
                        "midi": 74,
                        "time": 75.88778849999966,
                        "velocity": 0.7874015748031497,
                        "duration": 0.2175894374999956
                    },
                    {
                        "name": "B4",
                        "midi": 71,
                        "time": 75.88778849999966,
                        "velocity": 0.7874015748031497,
                        "duration": 0.32869893749999335
                    },
                    {
                        "name": "F#4",
                        "midi": 66,
                        "time": 75.99889799999966,
                        "velocity": 0.7874015748031497,
                        "duration": 0.2175894374999956
                    },
                    {
                        "name": "B4",
                        "midi": 71,
                        "time": 76.11000749999965,
                        "velocity": 0.7874015748031497,
                        "duration": 0.32869893749999335
                    },
                    {
                        "name": "B3",
                        "midi": 59,
                        "time": 76.22111699999965,
                        "velocity": 0.7874015748031497,
                        "duration": 0.10647993749999785
                    },
                    {
                        "name": "B4",
                        "midi": 71,
                        "time": 76.22111699999965,
                        "velocity": 0.7874015748031497,
                        "duration": 0.2175894374999956
                    },
                    {
                        "name": "C2",
                        "midi": 36,
                        "time": 76.33222649999965,
                        "velocity": 0.7874015748031497,
                        "duration": 0.2175894374999956
                    },
                    {
                        "name": "G4",
                        "midi": 67,
                        "time": 76.44333599999965,
                        "velocity": 0.7874015748031497,
                        "duration": 0.6620274374999866
                    },
                    {
                        "name": "G5",
                        "midi": 79,
                        "time": 76.44333599999965,
                        "velocity": 0.7874015748031497,
                        "duration": 0.32869893749999335
                    },
                    {
                        "name": "B3",
                        "midi": 59,
                        "time": 76.55444549999964,
                        "velocity": 0.7874015748031497,
                        "duration": 0.10647993749999785
                    },
                    {
                        "name": "C2",
                        "midi": 36,
                        "time": 76.66555499999964,
                        "velocity": 0.7874015748031497,
                        "duration": 0.2175894374999956
                    },
                    {
                        "name": "G4",
                        "midi": 67,
                        "time": 76.77666449999964,
                        "velocity": 0.7874015748031497,
                        "duration": 0.5509179374999889
                    },
                    {
                        "name": "G5",
                        "midi": 79,
                        "time": 76.77666449999964,
                        "velocity": 0.7874015748031497,
                        "duration": 0.32869893749999335
                    },
                    {
                        "name": "D4",
                        "midi": 62,
                        "time": 76.88777399999964,
                        "velocity": 0.7874015748031497,
                        "duration": 0.2175894374999956
                    },
                    {
                        "name": "B3",
                        "midi": 59,
                        "time": 77.10999299999963,
                        "velocity": 0.7874015748031497,
                        "duration": 0.10647993749999785
                    },
                    {
                        "name": "G4",
                        "midi": 67,
                        "time": 77.10999299999963,
                        "velocity": 0.7874015748031497,
                        "duration": 0.8842464374999821
                    },
                    {
                        "name": "G5",
                        "midi": 79,
                        "time": 77.10999299999963,
                        "velocity": 0.7874015748031497,
                        "duration": 0.2175894374999956
                    },
                    {
                        "name": "C2",
                        "midi": 36,
                        "time": 77.22110249999963,
                        "velocity": 0.7874015748031497,
                        "duration": 0.2175894374999956
                    },
                    {
                        "name": "A4",
                        "midi": 69,
                        "time": 77.33221199999963,
                        "velocity": 0.7874015748031497,
                        "duration": 0.32869893749999335
                    },
                    {
                        "name": "F#5",
                        "midi": 78,
                        "time": 77.33221199999963,
                        "velocity": 0.7874015748031497,
                        "duration": 0.32869893749999335
                    },
                    {
                        "name": "B3",
                        "midi": 59,
                        "time": 77.44332149999963,
                        "velocity": 0.7874015748031497,
                        "duration": 0.10647993749999785
                    },
                    {
                        "name": "C2",
                        "midi": 36,
                        "time": 77.55443099999962,
                        "velocity": 0.7874015748031497,
                        "duration": 0.2175894374999956
                    },
                    {
                        "name": "A4",
                        "midi": 69,
                        "time": 77.66554049999962,
                        "velocity": 0.7874015748031497,
                        "duration": 0.32869893749999335
                    },
                    {
                        "name": "F#5",
                        "midi": 78,
                        "time": 77.66554049999962,
                        "velocity": 0.7874015748031497,
                        "duration": 1.4397939374999709
                    },
                    {
                        "name": "B3",
                        "midi": 59,
                        "time": 77.77664999999962,
                        "velocity": 0.7874015748031497,
                        "duration": 0.2175894374999956
                    },
                    {
                        "name": "C4",
                        "midi": 60,
                        "time": 77.99886899999962,
                        "velocity": 0.7874015748031497,
                        "duration": 0.2175894374999956
                    },
                    {
                        "name": "E4",
                        "midi": 64,
                        "time": 77.99886899999962,
                        "velocity": 0.7874015748031497,
                        "duration": 0.10647993749999785
                    },
                    {
                        "name": "A4",
                        "midi": 69,
                        "time": 77.99886899999962,
                        "velocity": 0.7874015748031497,
                        "duration": 0.2175894374999956
                    },
                    {
                        "name": "F#4",
                        "midi": 66,
                        "time": 78.10997849999961,
                        "velocity": 0.7874015748031497,
                        "duration": 0.10647993749999785
                    },
                    {
                        "name": "G2",
                        "midi": 43,
                        "time": 78.22108799999961,
                        "velocity": 0.7874015748031497,
                        "duration": 0.10647993749999785
                    },
                    {
                        "name": "G4",
                        "midi": 67,
                        "time": 78.22108799999961,
                        "velocity": 0.7874015748031497,
                        "duration": 0.32869893749999335
                    },
                    {
                        "name": "B4",
                        "midi": 71,
                        "time": 78.22108799999961,
                        "velocity": 0.7874015748031497,
                        "duration": 0.32869893749999335
                    },
                    {
                        "name": "B3",
                        "midi": 59,
                        "time": 78.33219749999961,
                        "velocity": 0.7874015748031497,
                        "duration": 0.10647993749999785
                    },
                    {
                        "name": "G2",
                        "midi": 43,
                        "time": 78.4433069999996,
                        "velocity": 0.7874015748031497,
                        "duration": 0.2175894374999956
                    },
                    {
                        "name": "G4",
                        "midi": 67,
                        "time": 78.5544164999996,
                        "velocity": 0.7874015748031497,
                        "duration": 0.32869893749999335
                    },
                    {
                        "name": "B4",
                        "midi": 71,
                        "time": 78.5544164999996,
                        "velocity": 0.7874015748031497,
                        "duration": 0.32869893749999335
                    },
                    {
                        "name": "G4",
                        "midi": 67,
                        "time": 78.6655259999996,
                        "velocity": 0.7874015748031497,
                        "duration": 0.2175894374999956
                    },
                    {
                        "name": "B3",
                        "midi": 59,
                        "time": 78.8877449999996,
                        "velocity": 0.7874015748031497,
                        "duration": 0.10647993749999785
                    },
                    {
                        "name": "G4",
                        "midi": 67,
                        "time": 78.8877449999996,
                        "velocity": 0.7874015748031497,
                        "duration": 2.661998437499946
                    },
                    {
                        "name": "B4",
                        "midi": 71,
                        "time": 78.8877449999996,
                        "velocity": 0.7874015748031497,
                        "duration": 0.2175894374999956
                    },
                    {
                        "name": "G2",
                        "midi": 43,
                        "time": 78.9988544999996,
                        "velocity": 0.7874015748031497,
                        "duration": 0.2175894374999956
                    },
                    {
                        "name": "B4",
                        "midi": 71,
                        "time": 79.1099639999996,
                        "velocity": 0.7874015748031497,
                        "duration": 0.32869893749999335
                    },
                    {
                        "name": "B4",
                        "midi": 71,
                        "time": 79.1099639999996,
                        "velocity": 0.7874015748031497,
                        "duration": 0.32869893749999335
                    },
                    {
                        "name": "B3",
                        "midi": 59,
                        "time": 79.22107349999959,
                        "velocity": 0.7874015748031497,
                        "duration": 0.10647993749999785
                    },
                    {
                        "name": "G2",
                        "midi": 43,
                        "time": 79.33218299999959,
                        "velocity": 0.7874015748031497,
                        "duration": 0.2175894374999956
                    },
                    {
                        "name": "D5",
                        "midi": 74,
                        "time": 79.44329249999959,
                        "velocity": 0.7874015748031497,
                        "duration": 0.32869893749999335
                    },
                    {
                        "name": "B4",
                        "midi": 71,
                        "time": 79.44329249999959,
                        "velocity": 0.7874015748031497,
                        "duration": 0.32869893749999335
                    },
                    {
                        "name": "F#4",
                        "midi": 66,
                        "time": 79.55440199999958,
                        "velocity": 0.7874015748031497,
                        "duration": 0.2175894374999956
                    },
                    {
                        "name": "B3",
                        "midi": 59,
                        "time": 79.77662099999958,
                        "velocity": 0.7874015748031497,
                        "duration": 0.10647993749999785
                    },
                    {
                        "name": "B4",
                        "midi": 71,
                        "time": 79.77662099999958,
                        "velocity": 0.7874015748031497,
                        "duration": 0.2175894374999956
                    },
                    {
                        "name": "B4",
                        "midi": 71,
                        "time": 79.77662099999958,
                        "velocity": 0.7874015748031497,
                        "duration": 0.2175894374999956
                    },
                    {
                        "name": "G2",
                        "midi": 43,
                        "time": 79.88773049999958,
                        "velocity": 0.7874015748031497,
                        "duration": 0.2175894374999956
                    },
                    {
                        "name": "B4",
                        "midi": 71,
                        "time": 79.99883999999957,
                        "velocity": 0.7874015748031497,
                        "duration": 0.32869893749999335
                    },
                    {
                        "name": "F#5",
                        "midi": 78,
                        "time": 79.99883999999957,
                        "velocity": 0.7874015748031497,
                        "duration": 0.32869893749999335
                    },
                    {
                        "name": "B3",
                        "midi": 59,
                        "time": 80.10994949999957,
                        "velocity": 0.7874015748031497,
                        "duration": 0.10647993749999785
                    },
                    {
                        "name": "G2",
                        "midi": 43,
                        "time": 80.22105899999957,
                        "velocity": 0.7874015748031497,
                        "duration": 0.2175894374999956
                    },
                    {
                        "name": "B4",
                        "midi": 71,
                        "time": 80.33216849999957,
                        "velocity": 0.7874015748031497,
                        "duration": 0.32869893749999335
                    },
                    {
                        "name": "F#5",
                        "midi": 78,
                        "time": 80.33216849999957,
                        "velocity": 0.7874015748031497,
                        "duration": 0.32869893749999335
                    },
                    {
                        "name": "D4",
                        "midi": 62,
                        "time": 80.44327799999957,
                        "velocity": 0.7874015748031497,
                        "duration": 0.2175894374999956
                    },
                    {
                        "name": "B3",
                        "midi": 59,
                        "time": 80.66549699999956,
                        "velocity": 0.7874015748031497,
                        "duration": 0.10647993749999785
                    },
                    {
                        "name": "B4",
                        "midi": 71,
                        "time": 80.66549699999956,
                        "velocity": 0.7874015748031497,
                        "duration": 0.2175894374999956
                    },
                    {
                        "name": "F#5",
                        "midi": 78,
                        "time": 80.66549699999956,
                        "velocity": 0.7874015748031497,
                        "duration": 0.2175894374999956
                    },
                    {
                        "name": "G2",
                        "midi": 43,
                        "time": 80.77660649999956,
                        "velocity": 0.7874015748031497,
                        "duration": 0.2175894374999956
                    },
                    {
                        "name": "B4",
                        "midi": 71,
                        "time": 80.88771599999956,
                        "velocity": 0.7874015748031497,
                        "duration": 0.32869893749999335
                    },
                    {
                        "name": "D5",
                        "midi": 74,
                        "time": 80.88771599999956,
                        "velocity": 0.7874015748031497,
                        "duration": 0.32869893749999335
                    },
                    {
                        "name": "B3",
                        "midi": 59,
                        "time": 80.99882549999955,
                        "velocity": 0.7874015748031497,
                        "duration": 0.10647993749999785
                    },
                    {
                        "name": "G2",
                        "midi": 43,
                        "time": 81.10993499999955,
                        "velocity": 0.7874015748031497,
                        "duration": 0.2175894374999956
                    },
                    {
                        "name": "D5",
                        "midi": 74,
                        "time": 81.22104449999955,
                        "velocity": 0.7874015748031497,
                        "duration": 0.32869893749999335
                    },
                    {
                        "name": "D5",
                        "midi": 74,
                        "time": 81.22104449999955,
                        "velocity": 0.7874015748031497,
                        "duration": 1.4397939374999709
                    },
                    {
                        "name": "B3",
                        "midi": 59,
                        "time": 81.33215399999955,
                        "velocity": 0.7874015748031497,
                        "duration": 0.2175894374999956
                    },
                    {
                        "name": "C4",
                        "midi": 60,
                        "time": 81.55437299999954,
                        "velocity": 0.7874015748031497,
                        "duration": 0.2175894374999956
                    },
                    {
                        "name": "E4",
                        "midi": 64,
                        "time": 81.55437299999954,
                        "velocity": 0.7874015748031497,
                        "duration": 0.10647993749999785
                    },
                    {
                        "name": "B4",
                        "midi": 71,
                        "time": 81.55437299999954,
                        "velocity": 0.7874015748031497,
                        "duration": 0.2175894374999956
                    },
                    {
                        "name": "F#4",
                        "midi": 66,
                        "time": 81.66548249999954,
                        "velocity": 0.7874015748031497,
                        "duration": 0.10647993749999785
                    },
                    {
                        "name": "E2",
                        "midi": 40,
                        "time": 81.77659199999954,
                        "velocity": 0.7874015748031497,
                        "duration": 0.10647993749999785
                    },
                    {
                        "name": "G4",
                        "midi": 67,
                        "time": 81.77659199999954,
                        "velocity": 0.7874015748031497,
                        "duration": 0.32869893749999335
                    },
                    {
                        "name": "B4",
                        "midi": 71,
                        "time": 81.77659199999954,
                        "velocity": 0.7874015748031497,
                        "duration": 0.32869893749999335
                    },
                    {
                        "name": "B3",
                        "midi": 59,
                        "time": 81.88770149999954,
                        "velocity": 0.7874015748031497,
                        "duration": 0.10647993749999785
                    },
                    {
                        "name": "E2",
                        "midi": 40,
                        "time": 81.99881099999953,
                        "velocity": 0.7874015748031497,
                        "duration": 0.2175894374999956
                    },
                    {
                        "name": "G4",
                        "midi": 67,
                        "time": 82.10992049999953,
                        "velocity": 0.7874015748031497,
                        "duration": 0.32869893749999335
                    },
                    {
                        "name": "B4",
                        "midi": 71,
                        "time": 82.10992049999953,
                        "velocity": 0.7874015748031497,
                        "duration": 0.32869893749999335
                    },
                    {
                        "name": "G4",
                        "midi": 67,
                        "time": 82.22102999999953,
                        "velocity": 0.7874015748031497,
                        "duration": 0.2175894374999956
                    },
                    {
                        "name": "B3",
                        "midi": 59,
                        "time": 82.44324899999953,
                        "velocity": 0.7874015748031497,
                        "duration": 0.10647993749999785
                    },
                    {
                        "name": "G4",
                        "midi": 67,
                        "time": 82.44324899999953,
                        "velocity": 0.7874015748031497,
                        "duration": 1.4397939374999709
                    },
                    {
                        "name": "B4",
                        "midi": 71,
                        "time": 82.44324899999953,
                        "velocity": 0.7874015748031497,
                        "duration": 0.2175894374999956
                    },
                    {
                        "name": "E2",
                        "midi": 40,
                        "time": 82.55435849999952,
                        "velocity": 0.7874015748031497,
                        "duration": 0.2175894374999956
                    },
                    {
                        "name": "B4",
                        "midi": 71,
                        "time": 82.66546799999952,
                        "velocity": 0.7874015748031497,
                        "duration": 0.32869893749999335
                    },
                    {
                        "name": "B4",
                        "midi": 71,
                        "time": 82.66546799999952,
                        "velocity": 0.7874015748031497,
                        "duration": 0.32869893749999335
                    },
                    {
                        "name": "B3",
                        "midi": 59,
                        "time": 82.77657749999952,
                        "velocity": 0.7874015748031497,
                        "duration": 0.10647993749999785
                    },
                    {
                        "name": "E2",
                        "midi": 40,
                        "time": 82.88768699999952,
                        "velocity": 0.7874015748031497,
                        "duration": 0.2175894374999956
                    },
                    {
                        "name": "D5",
                        "midi": 74,
                        "time": 82.99879649999951,
                        "velocity": 0.7874015748031497,
                        "duration": 0.2175894374999956
                    },
                    {
                        "name": "B4",
                        "midi": 71,
                        "time": 82.99879649999951,
                        "velocity": 0.7874015748031497,
                        "duration": 0.32869893749999335
                    },
                    {
                        "name": "F#4",
                        "midi": 66,
                        "time": 83.10990599999951,
                        "velocity": 0.7874015748031497,
                        "duration": 0.2175894374999956
                    },
                    {
                        "name": "B4",
                        "midi": 71,
                        "time": 83.22101549999951,
                        "velocity": 0.7874015748031497,
                        "duration": 0.32869893749999335
                    },
                    {
                        "name": "B3",
                        "midi": 59,
                        "time": 83.33212499999951,
                        "velocity": 0.7874015748031497,
                        "duration": 0.10647993749999785
                    },
                    {
                        "name": "B4",
                        "midi": 71,
                        "time": 83.33212499999951,
                        "velocity": 0.7874015748031497,
                        "duration": 0.2175894374999956
                    },
                    {
                        "name": "C2",
                        "midi": 36,
                        "time": 83.4432344999995,
                        "velocity": 0.7874015748031497,
                        "duration": 0.2175894374999956
                    },
                    {
                        "name": "G4",
                        "midi": 67,
                        "time": 83.5543439999995,
                        "velocity": 0.7874015748031497,
                        "duration": 0.6620274374999866
                    },
                    {
                        "name": "G5",
                        "midi": 79,
                        "time": 83.5543439999995,
                        "velocity": 0.7874015748031497,
                        "duration": 0.32869893749999335
                    },
                    {
                        "name": "B3",
                        "midi": 59,
                        "time": 83.6654534999995,
                        "velocity": 0.7874015748031497,
                        "duration": 0.10647993749999785
                    },
                    {
                        "name": "C2",
                        "midi": 36,
                        "time": 83.7765629999995,
                        "velocity": 0.7874015748031497,
                        "duration": 0.2175894374999956
                    },
                    {
                        "name": "G4",
                        "midi": 67,
                        "time": 83.8876724999995,
                        "velocity": 0.7874015748031497,
                        "duration": 0.5509179374999889
                    },
                    {
                        "name": "G5",
                        "midi": 79,
                        "time": 83.8876724999995,
                        "velocity": 0.7874015748031497,
                        "duration": 0.32869893749999335
                    },
                    {
                        "name": "D4",
                        "midi": 62,
                        "time": 83.9987819999995,
                        "velocity": 0.7874015748031497,
                        "duration": 0.2175894374999956
                    },
                    {
                        "name": "B3",
                        "midi": 59,
                        "time": 84.22100099999949,
                        "velocity": 0.7874015748031497,
                        "duration": 0.10647993749999785
                    },
                    {
                        "name": "G4",
                        "midi": 67,
                        "time": 84.22100099999949,
                        "velocity": 0.7874015748031497,
                        "duration": 0.8842464374999821
                    },
                    {
                        "name": "G5",
                        "midi": 79,
                        "time": 84.22100099999949,
                        "velocity": 0.7874015748031497,
                        "duration": 0.2175894374999956
                    },
                    {
                        "name": "C2",
                        "midi": 36,
                        "time": 84.33211049999949,
                        "velocity": 0.7874015748031497,
                        "duration": 0.2175894374999956
                    },
                    {
                        "name": "A4",
                        "midi": 69,
                        "time": 84.44321999999949,
                        "velocity": 0.7874015748031497,
                        "duration": 0.32869893749999335
                    },
                    {
                        "name": "F#5",
                        "midi": 78,
                        "time": 84.44321999999949,
                        "velocity": 0.7874015748031497,
                        "duration": 0.32869893749999335
                    },
                    {
                        "name": "B3",
                        "midi": 59,
                        "time": 84.55432949999948,
                        "velocity": 0.7874015748031497,
                        "duration": 0.10647993749999785
                    },
                    {
                        "name": "C2",
                        "midi": 36,
                        "time": 84.66543899999948,
                        "velocity": 0.7874015748031497,
                        "duration": 0.2175894374999956
                    },
                    {
                        "name": "A4",
                        "midi": 69,
                        "time": 84.77654849999948,
                        "velocity": 0.7874015748031497,
                        "duration": 0.32869893749999335
                    },
                    {
                        "name": "F#5",
                        "midi": 78,
                        "time": 84.77654849999948,
                        "velocity": 0.7874015748031497,
                        "duration": 1.4397939374999709
                    },
                    {
                        "name": "B3",
                        "midi": 59,
                        "time": 84.88765799999948,
                        "velocity": 0.7874015748031497,
                        "duration": 0.2175894374999956
                    },
                    {
                        "name": "C4",
                        "midi": 60,
                        "time": 85.10987699999947,
                        "velocity": 0.7874015748031497,
                        "duration": 0.2175894374999956
                    },
                    {
                        "name": "E4",
                        "midi": 64,
                        "time": 85.10987699999947,
                        "velocity": 0.7874015748031497,
                        "duration": 0.10647993749999785
                    },
                    {
                        "name": "A4",
                        "midi": 69,
                        "time": 85.10987699999947,
                        "velocity": 0.7874015748031497,
                        "duration": 0.2175894374999956
                    },
                    {
                        "name": "F#4",
                        "midi": 66,
                        "time": 85.22098649999947,
                        "velocity": 0.7874015748031497,
                        "duration": 0.10647993749999785
                    },
                    {
                        "name": "G2",
                        "midi": 43,
                        "time": 85.33209599999947,
                        "velocity": 0.7874015748031497,
                        "duration": 0.10647993749999785
                    },
                    {
                        "name": "G4",
                        "midi": 67,
                        "time": 85.33209599999947,
                        "velocity": 0.7874015748031497,
                        "duration": 0.32869893749999335
                    },
                    {
                        "name": "B4",
                        "midi": 71,
                        "time": 85.33209599999947,
                        "velocity": 0.7874015748031497,
                        "duration": 0.32869893749999335
                    },
                    {
                        "name": "B3",
                        "midi": 59,
                        "time": 85.44320549999946,
                        "velocity": 0.7874015748031497,
                        "duration": 0.10647993749999785
                    },
                    {
                        "name": "G2",
                        "midi": 43,
                        "time": 85.55431499999946,
                        "velocity": 0.7874015748031497,
                        "duration": 0.2175894374999956
                    },
                    {
                        "name": "G4",
                        "midi": 67,
                        "time": 85.66542449999946,
                        "velocity": 0.7874015748031497,
                        "duration": 0.32869893749999335
                    },
                    {
                        "name": "B4",
                        "midi": 71,
                        "time": 85.66542449999946,
                        "velocity": 0.7874015748031497,
                        "duration": 0.32869893749999335
                    },
                    {
                        "name": "G4",
                        "midi": 67,
                        "time": 85.77653399999946,
                        "velocity": 0.7874015748031497,
                        "duration": 0.2175894374999956
                    },
                    {
                        "name": "B3",
                        "midi": 59,
                        "time": 85.99875299999945,
                        "velocity": 0.7874015748031497,
                        "duration": 0.10647993749999785
                    },
                    {
                        "name": "G4",
                        "midi": 67,
                        "time": 85.99875299999945,
                        "velocity": 0.7874015748031497,
                        "duration": 2.661998437499946
                    },
                    {
                        "name": "B4",
                        "midi": 71,
                        "time": 85.99875299999945,
                        "velocity": 0.7874015748031497,
                        "duration": 0.2175894374999956
                    },
                    {
                        "name": "G2",
                        "midi": 43,
                        "time": 86.10986249999945,
                        "velocity": 0.7874015748031497,
                        "duration": 0.2175894374999956
                    },
                    {
                        "name": "B4",
                        "midi": 71,
                        "time": 86.22097199999945,
                        "velocity": 0.7874015748031497,
                        "duration": 0.32869893749999335
                    },
                    {
                        "name": "B4",
                        "midi": 71,
                        "time": 86.22097199999945,
                        "velocity": 0.7874015748031497,
                        "duration": 0.32869893749999335
                    },
                    {
                        "name": "B3",
                        "midi": 59,
                        "time": 86.33208149999945,
                        "velocity": 0.7874015748031497,
                        "duration": 0.10647993749999785
                    },
                    {
                        "name": "G2",
                        "midi": 43,
                        "time": 86.44319099999944,
                        "velocity": 0.7874015748031497,
                        "duration": 0.2175894374999956
                    },
                    {
                        "name": "D5",
                        "midi": 74,
                        "time": 86.55430049999944,
                        "velocity": 0.7874015748031497,
                        "duration": 0.32869893749999335
                    },
                    {
                        "name": "B4",
                        "midi": 71,
                        "time": 86.55430049999944,
                        "velocity": 0.7874015748031497,
                        "duration": 0.32869893749999335
                    },
                    {
                        "name": "F#4",
                        "midi": 66,
                        "time": 86.66540999999944,
                        "velocity": 0.7874015748031497,
                        "duration": 0.2175894374999956
                    },
                    {
                        "name": "B3",
                        "midi": 59,
                        "time": 86.88762899999944,
                        "velocity": 0.7874015748031497,
                        "duration": 0.10647993749999785
                    },
                    {
                        "name": "B4",
                        "midi": 71,
                        "time": 86.88762899999944,
                        "velocity": 0.7874015748031497,
                        "duration": 0.2175894374999956
                    },
                    {
                        "name": "B4",
                        "midi": 71,
                        "time": 86.88762899999944,
                        "velocity": 0.7874015748031497,
                        "duration": 0.2175894374999956
                    },
                    {
                        "name": "G2",
                        "midi": 43,
                        "time": 86.99873849999943,
                        "velocity": 0.7874015748031497,
                        "duration": 0.2175894374999956
                    },
                    {
                        "name": "B4",
                        "midi": 71,
                        "time": 87.10984799999943,
                        "velocity": 0.7874015748031497,
                        "duration": 0.32869893749999335
                    },
                    {
                        "name": "F#5",
                        "midi": 78,
                        "time": 87.10984799999943,
                        "velocity": 0.7874015748031497,
                        "duration": 0.32869893749999335
                    },
                    {
                        "name": "B3",
                        "midi": 59,
                        "time": 87.22095749999943,
                        "velocity": 0.7874015748031497,
                        "duration": 0.10647993749999785
                    },
                    {
                        "name": "G2",
                        "midi": 43,
                        "time": 87.33206699999943,
                        "velocity": 0.7874015748031497,
                        "duration": 0.2175894374999956
                    },
                    {
                        "name": "B4",
                        "midi": 71,
                        "time": 87.44317649999942,
                        "velocity": 0.7874015748031497,
                        "duration": 0.32869893749999335
                    },
                    {
                        "name": "F#5",
                        "midi": 78,
                        "time": 87.44317649999942,
                        "velocity": 0.7874015748031497,
                        "duration": 0.32869893749999335
                    },
                    {
                        "name": "D4",
                        "midi": 62,
                        "time": 87.55428599999942,
                        "velocity": 0.7874015748031497,
                        "duration": 0.2175894374999956
                    },
                    {
                        "name": "B3",
                        "midi": 59,
                        "time": 87.77650499999942,
                        "velocity": 0.7874015748031497,
                        "duration": 0.10647993749999785
                    },
                    {
                        "name": "B4",
                        "midi": 71,
                        "time": 87.77650499999942,
                        "velocity": 0.7874015748031497,
                        "duration": 0.2175894374999956
                    },
                    {
                        "name": "F#5",
                        "midi": 78,
                        "time": 87.77650499999942,
                        "velocity": 0.7874015748031497,
                        "duration": 0.2175894374999956
                    },
                    {
                        "name": "G2",
                        "midi": 43,
                        "time": 87.88761449999942,
                        "velocity": 0.7874015748031497,
                        "duration": 0.2175894374999956
                    },
                    {
                        "name": "B4",
                        "midi": 71,
                        "time": 87.99872399999941,
                        "velocity": 0.7874015748031497,
                        "duration": 0.32869893749999335
                    },
                    {
                        "name": "D5",
                        "midi": 74,
                        "time": 87.99872399999941,
                        "velocity": 0.7874015748031497,
                        "duration": 0.32869893749999335
                    },
                    {
                        "name": "B3",
                        "midi": 59,
                        "time": 88.10983349999941,
                        "velocity": 0.7874015748031497,
                        "duration": 0.10647993749999785
                    },
                    {
                        "name": "G2",
                        "midi": 43,
                        "time": 88.22094299999941,
                        "velocity": 0.7874015748031497,
                        "duration": 0.2175894374999956
                    },
                    {
                        "name": "D5",
                        "midi": 74,
                        "time": 88.3320524999994,
                        "velocity": 0.7874015748031497,
                        "duration": 0.32869893749999335
                    },
                    {
                        "name": "D5",
                        "midi": 74,
                        "time": 88.3320524999994,
                        "velocity": 0.7874015748031497,
                        "duration": 1.4397939374999709
                    },
                    {
                        "name": "B3",
                        "midi": 59,
                        "time": 88.4431619999994,
                        "velocity": 0.7874015748031497,
                        "duration": 0.2175894374999956
                    },
                    {
                        "name": "C4",
                        "midi": 60,
                        "time": 88.6653809999994,
                        "velocity": 0.7874015748031497,
                        "duration": 0.2175894374999956
                    },
                    {
                        "name": "E4",
                        "midi": 64,
                        "time": 88.6653809999994,
                        "velocity": 0.7874015748031497,
                        "duration": 0.10647993749999785
                    },
                    {
                        "name": "B4",
                        "midi": 71,
                        "time": 88.6653809999994,
                        "velocity": 0.7874015748031497,
                        "duration": 0.2175894374999956
                    },
                    {
                        "name": "F#4",
                        "midi": 66,
                        "time": 88.7764904999994,
                        "velocity": 0.7874015748031497,
                        "duration": 0.10647993749999785
                    },
                    {
                        "name": "E2",
                        "midi": 40,
                        "time": 88.8875999999994,
                        "velocity": 0.7874015748031497,
                        "duration": 0.10647993749999785
                    },
                    {
                        "name": "G4",
                        "midi": 67,
                        "time": 88.8875999999994,
                        "velocity": 0.7874015748031497,
                        "duration": 0.32869893749999335
                    },
                    {
                        "name": "B4",
                        "midi": 71,
                        "time": 88.8875999999994,
                        "velocity": 0.7874015748031497,
                        "duration": 0.32869893749999335
                    },
                    {
                        "name": "B3",
                        "midi": 59,
                        "time": 88.99870949999939,
                        "velocity": 0.7874015748031497,
                        "duration": 0.10647993749999785
                    },
                    {
                        "name": "E2",
                        "midi": 40,
                        "time": 89.10981899999939,
                        "velocity": 0.7874015748031497,
                        "duration": 0.2175894374999956
                    },
                    {
                        "name": "G4",
                        "midi": 67,
                        "time": 89.22092849999939,
                        "velocity": 0.7874015748031497,
                        "duration": 0.32869893749999335
                    },
                    {
                        "name": "B4",
                        "midi": 71,
                        "time": 89.22092849999939,
                        "velocity": 0.7874015748031497,
                        "duration": 0.32869893749999335
                    },
                    {
                        "name": "G4",
                        "midi": 67,
                        "time": 89.33203799999939,
                        "velocity": 0.7874015748031497,
                        "duration": 0.2175894374999956
                    },
                    {
                        "name": "B3",
                        "midi": 59,
                        "time": 89.55425699999938,
                        "velocity": 0.7874015748031497,
                        "duration": 0.10647993749999785
                    },
                    {
                        "name": "G4",
                        "midi": 67,
                        "time": 89.55425699999938,
                        "velocity": 0.7874015748031497,
                        "duration": 1.4397939374999709
                    },
                    {
                        "name": "B4",
                        "midi": 71,
                        "time": 89.55425699999938,
                        "velocity": 0.7874015748031497,
                        "duration": 0.2175894374999956
                    },
                    {
                        "name": "E2",
                        "midi": 40,
                        "time": 89.66536649999938,
                        "velocity": 0.7874015748031497,
                        "duration": 0.2175894374999956
                    },
                    {
                        "name": "B4",
                        "midi": 71,
                        "time": 89.77647599999938,
                        "velocity": 0.7874015748031497,
                        "duration": 0.32869893749999335
                    },
                    {
                        "name": "B4",
                        "midi": 71,
                        "time": 89.77647599999938,
                        "velocity": 0.7874015748031497,
                        "duration": 0.32869893749999335
                    },
                    {
                        "name": "B3",
                        "midi": 59,
                        "time": 89.88758549999937,
                        "velocity": 0.7874015748031497,
                        "duration": 0.10647993749999785
                    },
                    {
                        "name": "E2",
                        "midi": 40,
                        "time": 89.99869499999937,
                        "velocity": 0.7874015748031497,
                        "duration": 0.2175894374999956
                    },
                    {
                        "name": "D5",
                        "midi": 74,
                        "time": 90.10980449999937,
                        "velocity": 0.7874015748031497,
                        "duration": 0.2175894374999956
                    },
                    {
                        "name": "B4",
                        "midi": 71,
                        "time": 90.10980449999937,
                        "velocity": 0.7874015748031497,
                        "duration": 0.32869893749999335
                    },
                    {
                        "name": "F#4",
                        "midi": 66,
                        "time": 90.22091399999937,
                        "velocity": 0.7874015748031497,
                        "duration": 0.2175894374999956
                    },
                    {
                        "name": "B4",
                        "midi": 71,
                        "time": 90.33202349999937,
                        "velocity": 0.7874015748031497,
                        "duration": 0.32869893749999335
                    },
                    {
                        "name": "B3",
                        "midi": 59,
                        "time": 90.44313299999936,
                        "velocity": 0.7874015748031497,
                        "duration": 0.10647993749999785
                    },
                    {
                        "name": "B4",
                        "midi": 71,
                        "time": 90.44313299999936,
                        "velocity": 0.7874015748031497,
                        "duration": 0.2175894374999956
                    },
                    {
                        "name": "C2",
                        "midi": 36,
                        "time": 90.55424249999936,
                        "velocity": 0.7874015748031497,
                        "duration": 0.2175894374999956
                    },
                    {
                        "name": "G4",
                        "midi": 67,
                        "time": 90.66535199999936,
                        "velocity": 0.7874015748031497,
                        "duration": 0.6620274374999866
                    },
                    {
                        "name": "G5",
                        "midi": 79,
                        "time": 90.66535199999936,
                        "velocity": 0.7874015748031497,
                        "duration": 0.32869893749999335
                    },
                    {
                        "name": "B3",
                        "midi": 59,
                        "time": 90.77646149999936,
                        "velocity": 0.7874015748031497,
                        "duration": 0.10647993749999785
                    },
                    {
                        "name": "C2",
                        "midi": 36,
                        "time": 90.88757099999935,
                        "velocity": 0.7874015748031497,
                        "duration": 0.2175894374999956
                    },
                    {
                        "name": "G4",
                        "midi": 67,
                        "time": 90.99868049999935,
                        "velocity": 0.7874015748031497,
                        "duration": 0.5509179374999889
                    },
                    {
                        "name": "G5",
                        "midi": 79,
                        "time": 90.99868049999935,
                        "velocity": 0.7874015748031497,
                        "duration": 0.32869893749999335
                    },
                    {
                        "name": "D4",
                        "midi": 62,
                        "time": 91.10978999999935,
                        "velocity": 0.7874015748031497,
                        "duration": 0.2175894374999956
                    },
                    {
                        "name": "B3",
                        "midi": 59,
                        "time": 91.33200899999935,
                        "velocity": 0.7874015748031497,
                        "duration": 0.10647993749999785
                    },
                    {
                        "name": "G4",
                        "midi": 67,
                        "time": 91.33200899999935,
                        "velocity": 0.7874015748031497,
                        "duration": 0.8842464374999821
                    },
                    {
                        "name": "G5",
                        "midi": 79,
                        "time": 91.33200899999935,
                        "velocity": 0.7874015748031497,
                        "duration": 0.2175894374999956
                    },
                    {
                        "name": "C2",
                        "midi": 36,
                        "time": 91.44311849999934,
                        "velocity": 0.7874015748031497,
                        "duration": 0.2175894374999956
                    },
                    {
                        "name": "A4",
                        "midi": 69,
                        "time": 91.55422799999934,
                        "velocity": 0.7874015748031497,
                        "duration": 0.32869893749999335
                    },
                    {
                        "name": "F#5",
                        "midi": 78,
                        "time": 91.55422799999934,
                        "velocity": 0.7874015748031497,
                        "duration": 0.32869893749999335
                    },
                    {
                        "name": "B3",
                        "midi": 59,
                        "time": 91.66533749999934,
                        "velocity": 0.7874015748031497,
                        "duration": 0.10647993749999785
                    },
                    {
                        "name": "C2",
                        "midi": 36,
                        "time": 91.77644699999934,
                        "velocity": 0.7874015748031497,
                        "duration": 0.2175894374999956
                    },
                    {
                        "name": "A4",
                        "midi": 69,
                        "time": 91.88755649999933,
                        "velocity": 0.7874015748031497,
                        "duration": 0.32869893749999335
                    },
                    {
                        "name": "F#5",
                        "midi": 78,
                        "time": 91.88755649999933,
                        "velocity": 0.7874015748031497,
                        "duration": 1.4397939374999709
                    },
                    {
                        "name": "B3",
                        "midi": 59,
                        "time": 91.99866599999933,
                        "velocity": 0.7874015748031497,
                        "duration": 0.2175894374999956
                    },
                    {
                        "name": "C4",
                        "midi": 60,
                        "time": 92.22088499999933,
                        "velocity": 0.7874015748031497,
                        "duration": 0.2175894374999956
                    },
                    {
                        "name": "E4",
                        "midi": 64,
                        "time": 92.22088499999933,
                        "velocity": 0.7874015748031497,
                        "duration": 0.10647993749999785
                    },
                    {
                        "name": "A4",
                        "midi": 69,
                        "time": 92.22088499999933,
                        "velocity": 0.7874015748031497,
                        "duration": 0.2175894374999956
                    },
                    {
                        "name": "F#4",
                        "midi": 66,
                        "time": 92.33199449999933,
                        "velocity": 0.7874015748031497,
                        "duration": 0.10647993749999785
                    },
                    {
                        "name": "G2",
                        "midi": 43,
                        "time": 92.44310399999932,
                        "velocity": 0.7874015748031497,
                        "duration": 0.10647993749999785
                    },
                    {
                        "name": "G4",
                        "midi": 67,
                        "time": 92.44310399999932,
                        "velocity": 0.7874015748031497,
                        "duration": 0.32869893749999335
                    },
                    {
                        "name": "B4",
                        "midi": 71,
                        "time": 92.44310399999932,
                        "velocity": 0.7874015748031497,
                        "duration": 0.32869893749999335
                    },
                    {
                        "name": "B3",
                        "midi": 59,
                        "time": 92.55421349999932,
                        "velocity": 0.7874015748031497,
                        "duration": 0.10647993749999785
                    },
                    {
                        "name": "G2",
                        "midi": 43,
                        "time": 92.66532299999932,
                        "velocity": 0.7874015748031497,
                        "duration": 0.2175894374999956
                    },
                    {
                        "name": "G4",
                        "midi": 67,
                        "time": 92.77643249999932,
                        "velocity": 0.7874015748031497,
                        "duration": 0.32869893749999335
                    },
                    {
                        "name": "B4",
                        "midi": 71,
                        "time": 92.77643249999932,
                        "velocity": 0.7874015748031497,
                        "duration": 0.32869893749999335
                    },
                    {
                        "name": "G4",
                        "midi": 67,
                        "time": 92.88754199999931,
                        "velocity": 0.7874015748031497,
                        "duration": 0.2175894374999956
                    },
                    {
                        "name": "B3",
                        "midi": 59,
                        "time": 93.10976099999931,
                        "velocity": 0.7874015748031497,
                        "duration": 0.10647993749999785
                    },
                    {
                        "name": "G4",
                        "midi": 67,
                        "time": 93.10976099999931,
                        "velocity": 0.7874015748031497,
                        "duration": 2.661998437499946
                    },
                    {
                        "name": "B4",
                        "midi": 71,
                        "time": 93.10976099999931,
                        "velocity": 0.7874015748031497,
                        "duration": 0.2175894374999956
                    },
                    {
                        "name": "G2",
                        "midi": 43,
                        "time": 93.22087049999931,
                        "velocity": 0.7874015748031497,
                        "duration": 0.2175894374999956
                    },
                    {
                        "name": "B4",
                        "midi": 71,
                        "time": 93.3319799999993,
                        "velocity": 0.7874015748031497,
                        "duration": 0.32869893749999335
                    },
                    {
                        "name": "B4",
                        "midi": 71,
                        "time": 93.3319799999993,
                        "velocity": 0.7874015748031497,
                        "duration": 0.32869893749999335
                    },
                    {
                        "name": "B3",
                        "midi": 59,
                        "time": 93.4430894999993,
                        "velocity": 0.7874015748031497,
                        "duration": 0.10647993749999785
                    },
                    {
                        "name": "G2",
                        "midi": 43,
                        "time": 93.5541989999993,
                        "velocity": 0.7874015748031497,
                        "duration": 0.2175894374999956
                    },
                    {
                        "name": "D5",
                        "midi": 74,
                        "time": 93.6653084999993,
                        "velocity": 0.7874015748031497,
                        "duration": 0.32869893749999335
                    },
                    {
                        "name": "B4",
                        "midi": 71,
                        "time": 93.6653084999993,
                        "velocity": 0.7874015748031497,
                        "duration": 0.32869893749999335
                    },
                    {
                        "name": "F#4",
                        "midi": 66,
                        "time": 93.7764179999993,
                        "velocity": 0.7874015748031497,
                        "duration": 0.2175894374999956
                    },
                    {
                        "name": "B3",
                        "midi": 59,
                        "time": 93.99863699999929,
                        "velocity": 0.7874015748031497,
                        "duration": 0.10647993749999785
                    },
                    {
                        "name": "B4",
                        "midi": 71,
                        "time": 93.99863699999929,
                        "velocity": 0.7874015748031497,
                        "duration": 0.2175894374999956
                    },
                    {
                        "name": "B4",
                        "midi": 71,
                        "time": 93.99863699999929,
                        "velocity": 0.7874015748031497,
                        "duration": 0.2175894374999956
                    },
                    {
                        "name": "G2",
                        "midi": 43,
                        "time": 94.10974649999929,
                        "velocity": 0.7874015748031497,
                        "duration": 0.2175894374999956
                    },
                    {
                        "name": "B4",
                        "midi": 71,
                        "time": 94.22085599999929,
                        "velocity": 0.7874015748031497,
                        "duration": 0.32869893749999335
                    },
                    {
                        "name": "F#5",
                        "midi": 78,
                        "time": 94.22085599999929,
                        "velocity": 0.7874015748031497,
                        "duration": 0.32869893749999335
                    },
                    {
                        "name": "B3",
                        "midi": 59,
                        "time": 94.33196549999928,
                        "velocity": 0.7874015748031497,
                        "duration": 0.10647993749999785
                    },
                    {
                        "name": "G2",
                        "midi": 43,
                        "time": 94.44307499999928,
                        "velocity": 0.7874015748031497,
                        "duration": 0.2175894374999956
                    },
                    {
                        "name": "B4",
                        "midi": 71,
                        "time": 94.55418449999928,
                        "velocity": 0.7874015748031497,
                        "duration": 0.32869893749999335
                    },
                    {
                        "name": "F#5",
                        "midi": 78,
                        "time": 94.55418449999928,
                        "velocity": 0.7874015748031497,
                        "duration": 0.32869893749999335
                    },
                    {
                        "name": "D4",
                        "midi": 62,
                        "time": 94.66529399999928,
                        "velocity": 0.7874015748031497,
                        "duration": 0.2175894374999956
                    },
                    {
                        "name": "B3",
                        "midi": 59,
                        "time": 94.88751299999927,
                        "velocity": 0.7874015748031497,
                        "duration": 0.10647993749999785
                    },
                    {
                        "name": "B4",
                        "midi": 71,
                        "time": 94.88751299999927,
                        "velocity": 0.7874015748031497,
                        "duration": 0.2175894374999956
                    },
                    {
                        "name": "F#5",
                        "midi": 78,
                        "time": 94.88751299999927,
                        "velocity": 0.7874015748031497,
                        "duration": 0.2175894374999956
                    },
                    {
                        "name": "G2",
                        "midi": 43,
                        "time": 94.99862249999927,
                        "velocity": 0.7874015748031497,
                        "duration": 0.2175894374999956
                    },
                    {
                        "name": "B4",
                        "midi": 71,
                        "time": 95.10973199999927,
                        "velocity": 0.7874015748031497,
                        "duration": 0.32869893749999335
                    },
                    {
                        "name": "D5",
                        "midi": 74,
                        "time": 95.10973199999927,
                        "velocity": 0.7874015748031497,
                        "duration": 0.32869893749999335
                    },
                    {
                        "name": "B3",
                        "midi": 59,
                        "time": 95.22084149999927,
                        "velocity": 0.7874015748031497,
                        "duration": 0.10647993749999785
                    },
                    {
                        "name": "G2",
                        "midi": 43,
                        "time": 95.33195099999926,
                        "velocity": 0.7874015748031497,
                        "duration": 0.2175894374999956
                    },
                    {
                        "name": "D5",
                        "midi": 74,
                        "time": 95.44306049999926,
                        "velocity": 0.7874015748031497,
                        "duration": 0.32869893749999335
                    },
                    {
                        "name": "D5",
                        "midi": 74,
                        "time": 95.44306049999926,
                        "velocity": 0.7874015748031497,
                        "duration": 1.4397939374999709
                    },
                    {
                        "name": "B3",
                        "midi": 59,
                        "time": 95.55416999999926,
                        "velocity": 0.7874015748031497,
                        "duration": 0.2175894374999956
                    },
                    {
                        "name": "C4",
                        "midi": 60,
                        "time": 95.77638899999926,
                        "velocity": 0.7874015748031497,
                        "duration": 0.2175894374999956
                    },
                    {
                        "name": "E4",
                        "midi": 64,
                        "time": 95.77638899999926,
                        "velocity": 0.7874015748031497,
                        "duration": 0.10647993749999785
                    },
                    {
                        "name": "B4",
                        "midi": 71,
                        "time": 95.77638899999926,
                        "velocity": 0.7874015748031497,
                        "duration": 0.2175894374999956
                    },
                    {
                        "name": "F#4",
                        "midi": 66,
                        "time": 95.88749849999925,
                        "velocity": 0.7874015748031497,
                        "duration": 0.10647993749999785
                    },
                    {
                        "name": "E2",
                        "midi": 40,
                        "time": 95.99860799999925,
                        "velocity": 0.7874015748031497,
                        "duration": 0.10647993749999785
                    },
                    {
                        "name": "G4",
                        "midi": 67,
                        "time": 95.99860799999925,
                        "velocity": 0.7874015748031497,
                        "duration": 0.32869893749999335
                    },
                    {
                        "name": "B4",
                        "midi": 71,
                        "time": 95.99860799999925,
                        "velocity": 0.7874015748031497,
                        "duration": 0.32869893749999335
                    },
                    {
                        "name": "B3",
                        "midi": 59,
                        "time": 96.10971749999925,
                        "velocity": 0.7874015748031497,
                        "duration": 0.10647993749999785
                    },
                    {
                        "name": "E2",
                        "midi": 40,
                        "time": 96.22082699999925,
                        "velocity": 0.7874015748031497,
                        "duration": 0.2175894374999956
                    },
                    {
                        "name": "G4",
                        "midi": 67,
                        "time": 96.33193649999924,
                        "velocity": 0.7874015748031497,
                        "duration": 0.32869893749999335
                    },
                    {
                        "name": "B4",
                        "midi": 71,
                        "time": 96.33193649999924,
                        "velocity": 0.7874015748031497,
                        "duration": 0.32869893749999335
                    },
                    {
                        "name": "G4",
                        "midi": 67,
                        "time": 96.44304599999924,
                        "velocity": 0.7874015748031497,
                        "duration": 0.2175894374999956
                    },
                    {
                        "name": "B3",
                        "midi": 59,
                        "time": 96.66526499999924,
                        "velocity": 0.7874015748031497,
                        "duration": 0.10647993749999785
                    },
                    {
                        "name": "G4",
                        "midi": 67,
                        "time": 96.66526499999924,
                        "velocity": 0.7874015748031497,
                        "duration": 1.4397939374999709
                    },
                    {
                        "name": "B4",
                        "midi": 71,
                        "time": 96.66526499999924,
                        "velocity": 0.7874015748031497,
                        "duration": 0.2175894374999956
                    },
                    {
                        "name": "E2",
                        "midi": 40,
                        "time": 96.77637449999924,
                        "velocity": 0.7874015748031497,
                        "duration": 0.2175894374999956
                    },
                    {
                        "name": "B4",
                        "midi": 71,
                        "time": 96.88748399999923,
                        "velocity": 0.7874015748031497,
                        "duration": 0.32869893749999335
                    },
                    {
                        "name": "B4",
                        "midi": 71,
                        "time": 96.88748399999923,
                        "velocity": 0.7874015748031497,
                        "duration": 0.32869893749999335
                    },
                    {
                        "name": "B3",
                        "midi": 59,
                        "time": 96.99859349999923,
                        "velocity": 0.7874015748031497,
                        "duration": 0.10647993749999785
                    },
                    {
                        "name": "E2",
                        "midi": 40,
                        "time": 97.10970299999923,
                        "velocity": 0.7874015748031497,
                        "duration": 0.2175894374999956
                    },
                    {
                        "name": "D5",
                        "midi": 74,
                        "time": 97.22081249999923,
                        "velocity": 0.7874015748031497,
                        "duration": 0.2175894374999956
                    },
                    {
                        "name": "B4",
                        "midi": 71,
                        "time": 97.22081249999923,
                        "velocity": 0.7874015748031497,
                        "duration": 0.32869893749999335
                    },
                    {
                        "name": "F#4",
                        "midi": 66,
                        "time": 97.33192199999922,
                        "velocity": 0.7874015748031497,
                        "duration": 0.2175894374999956
                    },
                    {
                        "name": "B4",
                        "midi": 71,
                        "time": 97.44303149999922,
                        "velocity": 0.7874015748031497,
                        "duration": 0.32869893749999335
                    },
                    {
                        "name": "B3",
                        "midi": 59,
                        "time": 97.55414099999922,
                        "velocity": 0.7874015748031497,
                        "duration": 0.10647993749999785
                    },
                    {
                        "name": "B4",
                        "midi": 71,
                        "time": 97.55414099999922,
                        "velocity": 0.7874015748031497,
                        "duration": 0.2175894374999956
                    },
                    {
                        "name": "C2",
                        "midi": 36,
                        "time": 97.66525049999922,
                        "velocity": 0.7874015748031497,
                        "duration": 0.2175894374999956
                    },
                    {
                        "name": "G4",
                        "midi": 67,
                        "time": 97.77635999999922,
                        "velocity": 0.7874015748031497,
                        "duration": 0.6620274374999866
                    },
                    {
                        "name": "G5",
                        "midi": 79,
                        "time": 97.77635999999922,
                        "velocity": 0.7874015748031497,
                        "duration": 0.32869893749999335
                    },
                    {
                        "name": "B3",
                        "midi": 59,
                        "time": 97.88746949999921,
                        "velocity": 0.7874015748031497,
                        "duration": 0.10647993749999785
                    },
                    {
                        "name": "C2",
                        "midi": 36,
                        "time": 97.99857899999921,
                        "velocity": 0.7874015748031497,
                        "duration": 0.2175894374999956
                    },
                    {
                        "name": "G4",
                        "midi": 67,
                        "time": 98.10968849999921,
                        "velocity": 0.7874015748031497,
                        "duration": 0.5509179374999889
                    },
                    {
                        "name": "G5",
                        "midi": 79,
                        "time": 98.10968849999921,
                        "velocity": 0.7874015748031497,
                        "duration": 0.32869893749999335
                    },
                    {
                        "name": "D4",
                        "midi": 62,
                        "time": 98.2207979999992,
                        "velocity": 0.7874015748031497,
                        "duration": 0.2175894374999956
                    },
                    {
                        "name": "B3",
                        "midi": 59,
                        "time": 98.4430169999992,
                        "velocity": 0.7874015748031497,
                        "duration": 0.10647993749999785
                    },
                    {
                        "name": "G4",
                        "midi": 67,
                        "time": 98.4430169999992,
                        "velocity": 0.7874015748031497,
                        "duration": 0.8842464374999821
                    },
                    {
                        "name": "G5",
                        "midi": 79,
                        "time": 98.4430169999992,
                        "velocity": 0.7874015748031497,
                        "duration": 0.2175894374999956
                    },
                    {
                        "name": "C2",
                        "midi": 36,
                        "time": 98.5541264999992,
                        "velocity": 0.7874015748031497,
                        "duration": 0.2175894374999956
                    },
                    {
                        "name": "A4",
                        "midi": 69,
                        "time": 98.6652359999992,
                        "velocity": 0.7874015748031497,
                        "duration": 0.32869893749999335
                    },
                    {
                        "name": "F#5",
                        "midi": 78,
                        "time": 98.6652359999992,
                        "velocity": 0.7874015748031497,
                        "duration": 0.32869893749999335
                    },
                    {
                        "name": "B3",
                        "midi": 59,
                        "time": 98.7763454999992,
                        "velocity": 0.7874015748031497,
                        "duration": 0.10647993749999785
                    },
                    {
                        "name": "C2",
                        "midi": 36,
                        "time": 98.88745499999919,
                        "velocity": 0.7874015748031497,
                        "duration": 0.2175894374999956
                    },
                    {
                        "name": "A4",
                        "midi": 69,
                        "time": 98.99856449999919,
                        "velocity": 0.7874015748031497,
                        "duration": 0.32869893749999335
                    },
                    {
                        "name": "F#5",
                        "midi": 78,
                        "time": 98.99856449999919,
                        "velocity": 0.7874015748031497,
                        "duration": 1.4397939374999709
                    },
                    {
                        "name": "B3",
                        "midi": 59,
                        "time": 99.10967399999919,
                        "velocity": 0.7874015748031497,
                        "duration": 0.2175894374999956
                    },
                    {
                        "name": "C4",
                        "midi": 60,
                        "time": 99.33189299999918,
                        "velocity": 0.7874015748031497,
                        "duration": 0.2175894374999956
                    },
                    {
                        "name": "E4",
                        "midi": 64,
                        "time": 99.33189299999918,
                        "velocity": 0.7874015748031497,
                        "duration": 0.10647993749999785
                    },
                    {
                        "name": "A4",
                        "midi": 69,
                        "time": 99.33189299999918,
                        "velocity": 0.7874015748031497,
                        "duration": 0.2175894374999956
                    },
                    {
                        "name": "F#4",
                        "midi": 66,
                        "time": 99.44300249999918,
                        "velocity": 0.7874015748031497,
                        "duration": 0.10647993749999785
                    },
                    {
                        "name": "G2",
                        "midi": 43,
                        "time": 99.55411199999918,
                        "velocity": 0.7874015748031497,
                        "duration": 0.10647993749999785
                    },
                    {
                        "name": "G4",
                        "midi": 67,
                        "time": 99.55411199999918,
                        "velocity": 0.7874015748031497,
                        "duration": 0.32869893749999335
                    },
                    {
                        "name": "B4",
                        "midi": 71,
                        "time": 99.55411199999918,
                        "velocity": 0.7874015748031497,
                        "duration": 0.32869893749999335
                    },
                    {
                        "name": "B3",
                        "midi": 59,
                        "time": 99.66522149999918,
                        "velocity": 0.7874015748031497,
                        "duration": 0.10647993749999785
                    },
                    {
                        "name": "G2",
                        "midi": 43,
                        "time": 99.77633099999917,
                        "velocity": 0.7874015748031497,
                        "duration": 0.2175894374999956
                    },
                    {
                        "name": "G4",
                        "midi": 67,
                        "time": 99.88744049999917,
                        "velocity": 0.7874015748031497,
                        "duration": 0.32869893749999335
                    },
                    {
                        "name": "B4",
                        "midi": 71,
                        "time": 99.88744049999917,
                        "velocity": 0.7874015748031497,
                        "duration": 0.32869893749999335
                    },
                    {
                        "name": "G4",
                        "midi": 67,
                        "time": 99.99854999999917,
                        "velocity": 0.7874015748031497,
                        "duration": 0.2175894374999956
                    },
                    {
                        "name": "B3",
                        "midi": 59,
                        "time": 100.22076899999917,
                        "velocity": 0.7874015748031497,
                        "duration": 0.10647993749999785
                    },
                    {
                        "name": "G4",
                        "midi": 67,
                        "time": 100.22076899999917,
                        "velocity": 0.7874015748031497,
                        "duration": 2.661998437499946
                    },
                    {
                        "name": "B4",
                        "midi": 71,
                        "time": 100.22076899999917,
                        "velocity": 0.7874015748031497,
                        "duration": 0.2175894374999956
                    },
                    {
                        "name": "G2",
                        "midi": 43,
                        "time": 100.33187849999916,
                        "velocity": 0.7874015748031497,
                        "duration": 0.2175894374999956
                    },
                    {
                        "name": "B4",
                        "midi": 71,
                        "time": 100.44298799999916,
                        "velocity": 0.7874015748031497,
                        "duration": 0.32869893749999335
                    },
                    {
                        "name": "B4",
                        "midi": 71,
                        "time": 100.44298799999916,
                        "velocity": 0.7874015748031497,
                        "duration": 0.32869893749999335
                    },
                    {
                        "name": "B3",
                        "midi": 59,
                        "time": 100.55409749999916,
                        "velocity": 0.7874015748031497,
                        "duration": 0.10647993749999785
                    },
                    {
                        "name": "G2",
                        "midi": 43,
                        "time": 100.66520699999916,
                        "velocity": 0.7874015748031497,
                        "duration": 0.2175894374999956
                    },
                    {
                        "name": "D5",
                        "midi": 74,
                        "time": 100.77631649999915,
                        "velocity": 0.7874015748031497,
                        "duration": 0.32869893749999335
                    },
                    {
                        "name": "B4",
                        "midi": 71,
                        "time": 100.77631649999915,
                        "velocity": 0.7874015748031497,
                        "duration": 0.32869893749999335
                    },
                    {
                        "name": "F#4",
                        "midi": 66,
                        "time": 100.88742599999915,
                        "velocity": 0.7874015748031497,
                        "duration": 0.2175894374999956
                    },
                    {
                        "name": "B3",
                        "midi": 59,
                        "time": 101.10964499999915,
                        "velocity": 0.7874015748031497,
                        "duration": 0.10647993749999785
                    },
                    {
                        "name": "B4",
                        "midi": 71,
                        "time": 101.10964499999915,
                        "velocity": 0.7874015748031497,
                        "duration": 0.2175894374999956
                    },
                    {
                        "name": "B4",
                        "midi": 71,
                        "time": 101.10964499999915,
                        "velocity": 0.7874015748031497,
                        "duration": 0.2175894374999956
                    },
                    {
                        "name": "G2",
                        "midi": 43,
                        "time": 101.22075449999915,
                        "velocity": 0.7874015748031497,
                        "duration": 0.2175894374999956
                    },
                    {
                        "name": "B4",
                        "midi": 71,
                        "time": 101.33186399999914,
                        "velocity": 0.7874015748031497,
                        "duration": 0.32869893749999335
                    },
                    {
                        "name": "F#5",
                        "midi": 78,
                        "time": 101.33186399999914,
                        "velocity": 0.7874015748031497,
                        "duration": 0.32869893749999335
                    },
                    {
                        "name": "B3",
                        "midi": 59,
                        "time": 101.44297349999914,
                        "velocity": 0.7874015748031497,
                        "duration": 0.10647993749999785
                    },
                    {
                        "name": "G2",
                        "midi": 43,
                        "time": 101.55408299999914,
                        "velocity": 0.7874015748031497,
                        "duration": 0.2175894374999956
                    },
                    {
                        "name": "B4",
                        "midi": 71,
                        "time": 101.66519249999914,
                        "velocity": 0.7874015748031497,
                        "duration": 0.32869893749999335
                    },
                    {
                        "name": "F#5",
                        "midi": 78,
                        "time": 101.66519249999914,
                        "velocity": 0.7874015748031497,
                        "duration": 0.32869893749999335
                    },
                    {
                        "name": "D4",
                        "midi": 62,
                        "time": 101.77630199999913,
                        "velocity": 0.7874015748031497,
                        "duration": 0.2175894374999956
                    },
                    {
                        "name": "B3",
                        "midi": 59,
                        "time": 101.99852099999913,
                        "velocity": 0.7874015748031497,
                        "duration": 0.10647993749999785
                    },
                    {
                        "name": "B4",
                        "midi": 71,
                        "time": 101.99852099999913,
                        "velocity": 0.7874015748031497,
                        "duration": 0.2175894374999956
                    },
                    {
                        "name": "F#5",
                        "midi": 78,
                        "time": 101.99852099999913,
                        "velocity": 0.7874015748031497,
                        "duration": 0.2175894374999956
                    },
                    {
                        "name": "G2",
                        "midi": 43,
                        "time": 102.10963049999913,
                        "velocity": 0.7874015748031497,
                        "duration": 0.2175894374999956
                    },
                    {
                        "name": "B4",
                        "midi": 71,
                        "time": 102.22073999999913,
                        "velocity": 0.7874015748031497,
                        "duration": 0.32869893749999335
                    },
                    {
                        "name": "D5",
                        "midi": 74,
                        "time": 102.22073999999913,
                        "velocity": 0.7874015748031497,
                        "duration": 0.32869893749999335
                    },
                    {
                        "name": "B3",
                        "midi": 59,
                        "time": 102.33184949999912,
                        "velocity": 0.7874015748031497,
                        "duration": 0.10647993749999785
                    },
                    {
                        "name": "G2",
                        "midi": 43,
                        "time": 102.44295899999912,
                        "velocity": 0.7874015748031497,
                        "duration": 0.2175894374999956
                    },
                    {
                        "name": "D5",
                        "midi": 74,
                        "time": 102.55406849999912,
                        "velocity": 0.7874015748031497,
                        "duration": 0.32869893749999335
                    },
                    {
                        "name": "D5",
                        "midi": 74,
                        "time": 102.55406849999912,
                        "velocity": 0.7874015748031497,
                        "duration": 1.4397939374999709
                    },
                    {
                        "name": "B3",
                        "midi": 59,
                        "time": 102.66517799999912,
                        "velocity": 0.7874015748031497,
                        "duration": 0.2175894374999956
                    },
                    {
                        "name": "C4",
                        "midi": 60,
                        "time": 102.88739699999911,
                        "velocity": 0.7874015748031497,
                        "duration": 0.2175894374999956
                    },
                    {
                        "name": "E4",
                        "midi": 64,
                        "time": 102.88739699999911,
                        "velocity": 0.7874015748031497,
                        "duration": 0.10647993749999785
                    },
                    {
                        "name": "B4",
                        "midi": 71,
                        "time": 102.88739699999911,
                        "velocity": 0.7874015748031497,
                        "duration": 0.2175894374999956
                    },
                    {
                        "name": "F#4",
                        "midi": 66,
                        "time": 102.99850649999911,
                        "velocity": 0.7874015748031497,
                        "duration": 0.10647993749999785
                    },
                    {
                        "name": "E2",
                        "midi": 40,
                        "time": 103.10961599999911,
                        "velocity": 0.7874015748031497,
                        "duration": 0.10647993749999785
                    },
                    {
                        "name": "G4",
                        "midi": 67,
                        "time": 103.10961599999911,
                        "velocity": 0.7874015748031497,
                        "duration": 0.32869893749999335
                    },
                    {
                        "name": "B4",
                        "midi": 71,
                        "time": 103.10961599999911,
                        "velocity": 0.7874015748031497,
                        "duration": 0.32869893749999335
                    },
                    {
                        "name": "B3",
                        "midi": 59,
                        "time": 103.2207254999991,
                        "velocity": 0.7874015748031497,
                        "duration": 0.10647993749999785
                    },
                    {
                        "name": "E2",
                        "midi": 40,
                        "time": 103.3318349999991,
                        "velocity": 0.7874015748031497,
                        "duration": 0.2175894374999956
                    },
                    {
                        "name": "G4",
                        "midi": 67,
                        "time": 103.4429444999991,
                        "velocity": 0.7874015748031497,
                        "duration": 0.32869893749999335
                    },
                    {
                        "name": "B4",
                        "midi": 71,
                        "time": 103.4429444999991,
                        "velocity": 0.7874015748031497,
                        "duration": 0.32869893749999335
                    },
                    {
                        "name": "G4",
                        "midi": 67,
                        "time": 103.5540539999991,
                        "velocity": 0.7874015748031497,
                        "duration": 0.2175894374999956
                    },
                    {
                        "name": "B3",
                        "midi": 59,
                        "time": 103.7762729999991,
                        "velocity": 0.7874015748031497,
                        "duration": 0.10647993749999785
                    },
                    {
                        "name": "G4",
                        "midi": 67,
                        "time": 103.7762729999991,
                        "velocity": 0.7874015748031497,
                        "duration": 1.4397939374999709
                    },
                    {
                        "name": "B4",
                        "midi": 71,
                        "time": 103.7762729999991,
                        "velocity": 0.7874015748031497,
                        "duration": 0.2175894374999956
                    },
                    {
                        "name": "E2",
                        "midi": 40,
                        "time": 103.88738249999909,
                        "velocity": 0.7874015748031497,
                        "duration": 0.2175894374999956
                    },
                    {
                        "name": "B4",
                        "midi": 71,
                        "time": 103.99849199999909,
                        "velocity": 0.7874015748031497,
                        "duration": 0.32869893749999335
                    },
                    {
                        "name": "B4",
                        "midi": 71,
                        "time": 103.99849199999909,
                        "velocity": 0.7874015748031497,
                        "duration": 0.32869893749999335
                    },
                    {
                        "name": "B3",
                        "midi": 59,
                        "time": 104.10960149999909,
                        "velocity": 0.7874015748031497,
                        "duration": 0.10647993749999785
                    },
                    {
                        "name": "E2",
                        "midi": 40,
                        "time": 104.22071099999908,
                        "velocity": 0.7874015748031497,
                        "duration": 0.2175894374999956
                    },
                    {
                        "name": "D5",
                        "midi": 74,
                        "time": 104.33182049999908,
                        "velocity": 0.7874015748031497,
                        "duration": 0.2175894374999956
                    },
                    {
                        "name": "B4",
                        "midi": 71,
                        "time": 104.33182049999908,
                        "velocity": 0.7874015748031497,
                        "duration": 0.32869893749999335
                    },
                    {
                        "name": "F#4",
                        "midi": 66,
                        "time": 104.44292999999908,
                        "velocity": 0.7874015748031497,
                        "duration": 0.2175894374999956
                    },
                    {
                        "name": "B4",
                        "midi": 71,
                        "time": 104.55403949999908,
                        "velocity": 0.7874015748031497,
                        "duration": 0.32869893749999335
                    },
                    {
                        "name": "B3",
                        "midi": 59,
                        "time": 104.66514899999908,
                        "velocity": 0.7874015748031497,
                        "duration": 0.10647993749999785
                    },
                    {
                        "name": "B4",
                        "midi": 71,
                        "time": 104.66514899999908,
                        "velocity": 0.7874015748031497,
                        "duration": 0.2175894374999956
                    },
                    {
                        "name": "C2",
                        "midi": 36,
                        "time": 104.77625849999907,
                        "velocity": 0.7874015748031497,
                        "duration": 0.2175894374999956
                    },
                    {
                        "name": "G4",
                        "midi": 67,
                        "time": 104.88736799999907,
                        "velocity": 0.7874015748031497,
                        "duration": 0.6620274374999866
                    },
                    {
                        "name": "G5",
                        "midi": 79,
                        "time": 104.88736799999907,
                        "velocity": 0.7874015748031497,
                        "duration": 0.32869893749999335
                    },
                    {
                        "name": "B3",
                        "midi": 59,
                        "time": 104.99847749999907,
                        "velocity": 0.7874015748031497,
                        "duration": 0.10647993749999785
                    },
                    {
                        "name": "C2",
                        "midi": 36,
                        "time": 105.10958699999907,
                        "velocity": 0.7874015748031497,
                        "duration": 0.2175894374999956
                    },
                    {
                        "name": "G4",
                        "midi": 67,
                        "time": 105.22069649999906,
                        "velocity": 0.7874015748031497,
                        "duration": 0.5509179374999889
                    },
                    {
                        "name": "G5",
                        "midi": 79,
                        "time": 105.22069649999906,
                        "velocity": 0.7874015748031497,
                        "duration": 0.32869893749999335
                    },
                    {
                        "name": "D4",
                        "midi": 62,
                        "time": 105.33180599999906,
                        "velocity": 0.7874015748031497,
                        "duration": 0.2175894374999956
                    },
                    {
                        "name": "B3",
                        "midi": 59,
                        "time": 105.55402499999906,
                        "velocity": 0.7874015748031497,
                        "duration": 0.10647993749999785
                    },
                    {
                        "name": "G4",
                        "midi": 67,
                        "time": 105.55402499999906,
                        "velocity": 0.7874015748031497,
                        "duration": 0.8842464374999821
                    },
                    {
                        "name": "G5",
                        "midi": 79,
                        "time": 105.55402499999906,
                        "velocity": 0.7874015748031497,
                        "duration": 0.2175894374999956
                    },
                    {
                        "name": "C2",
                        "midi": 36,
                        "time": 105.66513449999906,
                        "velocity": 0.7874015748031497,
                        "duration": 0.2175894374999956
                    },
                    {
                        "name": "A4",
                        "midi": 69,
                        "time": 105.77624399999905,
                        "velocity": 0.7874015748031497,
                        "duration": 0.32869893749999335
                    },
                    {
                        "name": "F#5",
                        "midi": 78,
                        "time": 105.77624399999905,
                        "velocity": 0.7874015748031497,
                        "duration": 0.32869893749999335
                    },
                    {
                        "name": "B3",
                        "midi": 59,
                        "time": 105.88735349999905,
                        "velocity": 0.7874015748031497,
                        "duration": 0.10647993749999785
                    },
                    {
                        "name": "C2",
                        "midi": 36,
                        "time": 105.99846299999905,
                        "velocity": 0.7874015748031497,
                        "duration": 0.2175894374999956
                    },
                    {
                        "name": "A4",
                        "midi": 69,
                        "time": 106.10957249999905,
                        "velocity": 0.7874015748031497,
                        "duration": 0.32869893749999335
                    },
                    {
                        "name": "F#5",
                        "midi": 78,
                        "time": 106.10957249999905,
                        "velocity": 0.7874015748031497,
                        "duration": 1.4397939374999709
                    },
                    {
                        "name": "B3",
                        "midi": 59,
                        "time": 106.22068199999904,
                        "velocity": 0.7874015748031497,
                        "duration": 0.2175894374999956
                    },
                    {
                        "name": "C4",
                        "midi": 60,
                        "time": 106.44290099999904,
                        "velocity": 0.7874015748031497,
                        "duration": 0.2175894374999956
                    },
                    {
                        "name": "E4",
                        "midi": 64,
                        "time": 106.44290099999904,
                        "velocity": 0.7874015748031497,
                        "duration": 0.10647993749999785
                    },
                    {
                        "name": "A4",
                        "midi": 69,
                        "time": 106.44290099999904,
                        "velocity": 0.7874015748031497,
                        "duration": 0.2175894374999956
                    },
                    {
                        "name": "F#4",
                        "midi": 66,
                        "time": 106.55401049999904,
                        "velocity": 0.7874015748031497,
                        "duration": 0.10647993749999785
                    },
                    {
                        "name": "G2",
                        "midi": 43,
                        "time": 106.66511999999904,
                        "velocity": 0.7874015748031497,
                        "duration": 0.10647993749999785
                    },
                    {
                        "name": "G4",
                        "midi": 67,
                        "time": 106.66511999999904,
                        "velocity": 0.7874015748031497,
                        "duration": 0.32869893749999335
                    },
                    {
                        "name": "B4",
                        "midi": 71,
                        "time": 106.66511999999904,
                        "velocity": 0.7874015748031497,
                        "duration": 0.32869893749999335
                    },
                    {
                        "name": "B3",
                        "midi": 59,
                        "time": 106.77622949999903,
                        "velocity": 0.7874015748031497,
                        "duration": 0.10647993749999785
                    },
                    {
                        "name": "G2",
                        "midi": 43,
                        "time": 106.88733899999903,
                        "velocity": 0.7874015748031497,
                        "duration": 0.2175894374999956
                    },
                    {
                        "name": "G4",
                        "midi": 67,
                        "time": 106.99844849999903,
                        "velocity": 0.7874015748031497,
                        "duration": 0.32869893749999335
                    },
                    {
                        "name": "B4",
                        "midi": 71,
                        "time": 106.99844849999903,
                        "velocity": 0.7874015748031497,
                        "duration": 0.32869893749999335
                    },
                    {
                        "name": "G4",
                        "midi": 67,
                        "time": 107.10955799999903,
                        "velocity": 0.7874015748031497,
                        "duration": 0.2175894374999956
                    },
                    {
                        "name": "B3",
                        "midi": 59,
                        "time": 107.33177699999902,
                        "velocity": 0.7874015748031497,
                        "duration": 0.10647993749999785
                    },
                    {
                        "name": "G4",
                        "midi": 67,
                        "time": 107.33177699999902,
                        "velocity": 0.7874015748031497,
                        "duration": 2.661998437499946
                    },
                    {
                        "name": "B4",
                        "midi": 71,
                        "time": 107.33177699999902,
                        "velocity": 0.7874015748031497,
                        "duration": 0.2175894374999956
                    },
                    {
                        "name": "G2",
                        "midi": 43,
                        "time": 107.44288649999902,
                        "velocity": 0.7874015748031497,
                        "duration": 0.2175894374999956
                    },
                    {
                        "name": "B4",
                        "midi": 71,
                        "time": 107.55399599999902,
                        "velocity": 0.7874015748031497,
                        "duration": 0.32869893749999335
                    },
                    {
                        "name": "B4",
                        "midi": 71,
                        "time": 107.55399599999902,
                        "velocity": 0.7874015748031497,
                        "duration": 0.32869893749999335
                    },
                    {
                        "name": "B3",
                        "midi": 59,
                        "time": 107.66510549999902,
                        "velocity": 0.7874015748031497,
                        "duration": 0.10647993749999785
                    },
                    {
                        "name": "G2",
                        "midi": 43,
                        "time": 107.77621499999901,
                        "velocity": 0.7874015748031497,
                        "duration": 0.2175894374999956
                    },
                    {
                        "name": "D5",
                        "midi": 74,
                        "time": 107.88732449999901,
                        "velocity": 0.7874015748031497,
                        "duration": 0.32869893749999335
                    },
                    {
                        "name": "B4",
                        "midi": 71,
                        "time": 107.88732449999901,
                        "velocity": 0.7874015748031497,
                        "duration": 0.32869893749999335
                    },
                    {
                        "name": "F#4",
                        "midi": 66,
                        "time": 107.99843399999901,
                        "velocity": 0.7874015748031497,
                        "duration": 0.2175894374999956
                    },
                    {
                        "name": "B3",
                        "midi": 59,
                        "time": 108.220652999999,
                        "velocity": 0.7874015748031497,
                        "duration": 0.10647993749999785
                    },
                    {
                        "name": "B4",
                        "midi": 71,
                        "time": 108.220652999999,
                        "velocity": 0.7874015748031497,
                        "duration": 0.2175894374999956
                    },
                    {
                        "name": "B4",
                        "midi": 71,
                        "time": 108.220652999999,
                        "velocity": 0.7874015748031497,
                        "duration": 0.2175894374999956
                    },
                    {
                        "name": "G2",
                        "midi": 43,
                        "time": 108.331762499999,
                        "velocity": 0.7874015748031497,
                        "duration": 0.2175894374999956
                    },
                    {
                        "name": "B4",
                        "midi": 71,
                        "time": 108.442871999999,
                        "velocity": 0.7874015748031497,
                        "duration": 0.32869893749999335
                    },
                    {
                        "name": "F#5",
                        "midi": 78,
                        "time": 108.442871999999,
                        "velocity": 0.7874015748031497,
                        "duration": 0.32869893749999335
                    },
                    {
                        "name": "B3",
                        "midi": 59,
                        "time": 108.553981499999,
                        "velocity": 0.7874015748031497,
                        "duration": 0.10647993749999785
                    },
                    {
                        "name": "G2",
                        "midi": 43,
                        "time": 108.665090999999,
                        "velocity": 0.7874015748031497,
                        "duration": 0.2175894374999956
                    },
                    {
                        "name": "B4",
                        "midi": 71,
                        "time": 108.77620049999899,
                        "velocity": 0.7874015748031497,
                        "duration": 0.32869893749999335
                    },
                    {
                        "name": "F#5",
                        "midi": 78,
                        "time": 108.77620049999899,
                        "velocity": 0.7874015748031497,
                        "duration": 0.32869893749999335
                    },
                    {
                        "name": "D4",
                        "midi": 62,
                        "time": 108.88730999999899,
                        "velocity": 0.7874015748031497,
                        "duration": 0.2175894374999956
                    },
                    {
                        "name": "B3",
                        "midi": 59,
                        "time": 109.10952899999899,
                        "velocity": 0.7874015748031497,
                        "duration": 0.10647993749999785
                    },
                    {
                        "name": "B4",
                        "midi": 71,
                        "time": 109.10952899999899,
                        "velocity": 0.7874015748031497,
                        "duration": 0.2175894374999956
                    },
                    {
                        "name": "F#5",
                        "midi": 78,
                        "time": 109.10952899999899,
                        "velocity": 0.7874015748031497,
                        "duration": 0.2175894374999956
                    },
                    {
                        "name": "G2",
                        "midi": 43,
                        "time": 109.22063849999898,
                        "velocity": 0.7874015748031497,
                        "duration": 0.2175894374999956
                    },
                    {
                        "name": "B4",
                        "midi": 71,
                        "time": 109.33174799999898,
                        "velocity": 0.7874015748031497,
                        "duration": 0.32869893749999335
                    },
                    {
                        "name": "D5",
                        "midi": 74,
                        "time": 109.33174799999898,
                        "velocity": 0.7874015748031497,
                        "duration": 0.32869893749999335
                    },
                    {
                        "name": "B3",
                        "midi": 59,
                        "time": 109.44285749999898,
                        "velocity": 0.7874015748031497,
                        "duration": 0.10647993749999785
                    },
                    {
                        "name": "G2",
                        "midi": 43,
                        "time": 109.55396699999898,
                        "velocity": 0.7874015748031497,
                        "duration": 0.2175894374999956
                    },
                    {
                        "name": "D5",
                        "midi": 74,
                        "time": 109.66507649999897,
                        "velocity": 0.7874015748031497,
                        "duration": 0.32869893749999335
                    },
                    {
                        "name": "D5",
                        "midi": 74,
                        "time": 109.66507649999897,
                        "velocity": 0.7874015748031497,
                        "duration": 1.4397939374999709
                    },
                    {
                        "name": "B3",
                        "midi": 59,
                        "time": 109.77618599999897,
                        "velocity": 0.7874015748031497,
                        "duration": 0.2175894374999956
                    },
                    {
                        "name": "C4",
                        "midi": 60,
                        "time": 109.99840499999897,
                        "velocity": 0.7874015748031497,
                        "duration": 0.2175894374999956
                    },
                    {
                        "name": "E4",
                        "midi": 64,
                        "time": 109.99840499999897,
                        "velocity": 0.7874015748031497,
                        "duration": 0.10647993749999785
                    },
                    {
                        "name": "B4",
                        "midi": 71,
                        "time": 109.99840499999897,
                        "velocity": 0.7874015748031497,
                        "duration": 0.2175894374999956
                    },
                    {
                        "name": "F#4",
                        "midi": 66,
                        "time": 110.10951449999897,
                        "velocity": 0.7874015748031497,
                        "duration": 0.10647993749999785
                    },
                    {
                        "name": "E2",
                        "midi": 40,
                        "time": 110.22062399999896,
                        "velocity": 0.7874015748031497,
                        "duration": 0.10647993749999785
                    },
                    {
                        "name": "G4",
                        "midi": 67,
                        "time": 110.22062399999896,
                        "velocity": 0.7874015748031497,
                        "duration": 0.32869893749999335
                    },
                    {
                        "name": "B4",
                        "midi": 71,
                        "time": 110.22062399999896,
                        "velocity": 0.7874015748031497,
                        "duration": 0.32869893749999335
                    },
                    {
                        "name": "B3",
                        "midi": 59,
                        "time": 110.33173349999896,
                        "velocity": 0.7874015748031497,
                        "duration": 0.10647993749999785
                    },
                    {
                        "name": "E2",
                        "midi": 40,
                        "time": 110.44284299999896,
                        "velocity": 0.7874015748031497,
                        "duration": 0.2175894374999956
                    },
                    {
                        "name": "G4",
                        "midi": 67,
                        "time": 110.55395249999896,
                        "velocity": 0.7874015748031497,
                        "duration": 0.32869893749999335
                    },
                    {
                        "name": "B4",
                        "midi": 71,
                        "time": 110.55395249999896,
                        "velocity": 0.7874015748031497,
                        "duration": 0.32869893749999335
                    },
                    {
                        "name": "G4",
                        "midi": 67,
                        "time": 110.66506199999895,
                        "velocity": 0.7874015748031497,
                        "duration": 0.2175894374999956
                    },
                    {
                        "name": "B3",
                        "midi": 59,
                        "time": 110.88728099999895,
                        "velocity": 0.7874015748031497,
                        "duration": 0.10647993749999785
                    },
                    {
                        "name": "G4",
                        "midi": 67,
                        "time": 110.88728099999895,
                        "velocity": 0.7874015748031497,
                        "duration": 1.4397939374999709
                    },
                    {
                        "name": "B4",
                        "midi": 71,
                        "time": 110.88728099999895,
                        "velocity": 0.7874015748031497,
                        "duration": 0.2175894374999956
                    },
                    {
                        "name": "E2",
                        "midi": 40,
                        "time": 110.99839049999895,
                        "velocity": 0.7874015748031497,
                        "duration": 0.2175894374999956
                    },
                    {
                        "name": "B4",
                        "midi": 71,
                        "time": 111.10949999999895,
                        "velocity": 0.7874015748031497,
                        "duration": 0.32869893749999335
                    },
                    {
                        "name": "B4",
                        "midi": 71,
                        "time": 111.10949999999895,
                        "velocity": 0.7874015748031497,
                        "duration": 0.32869893749999335
                    },
                    {
                        "name": "B3",
                        "midi": 59,
                        "time": 111.22060949999894,
                        "velocity": 0.7874015748031497,
                        "duration": 0.10647993749999785
                    },
                    {
                        "name": "E2",
                        "midi": 40,
                        "time": 111.33171899999894,
                        "velocity": 0.7874015748031497,
                        "duration": 0.2175894374999956
                    },
                    {
                        "name": "D5",
                        "midi": 74,
                        "time": 111.44282849999894,
                        "velocity": 0.7874015748031497,
                        "duration": 0.2175894374999956
                    },
                    {
                        "name": "B4",
                        "midi": 71,
                        "time": 111.44282849999894,
                        "velocity": 0.7874015748031497,
                        "duration": 0.32869893749999335
                    },
                    {
                        "name": "F#4",
                        "midi": 66,
                        "time": 111.55393799999894,
                        "velocity": 0.7874015748031497,
                        "duration": 0.2175894374999956
                    },
                    {
                        "name": "B4",
                        "midi": 71,
                        "time": 111.66504749999893,
                        "velocity": 0.7874015748031497,
                        "duration": 0.32869893749999335
                    },
                    {
                        "name": "B3",
                        "midi": 59,
                        "time": 111.77615699999893,
                        "velocity": 0.7874015748031497,
                        "duration": 0.10647993749999785
                    },
                    {
                        "name": "B4",
                        "midi": 71,
                        "time": 111.77615699999893,
                        "velocity": 0.7874015748031497,
                        "duration": 0.2175894374999956
                    },
                    {
                        "name": "C2",
                        "midi": 36,
                        "time": 111.88726649999893,
                        "velocity": 0.7874015748031497,
                        "duration": 0.2175894374999956
                    },
                    {
                        "name": "G4",
                        "midi": 67,
                        "time": 111.99837599999893,
                        "velocity": 0.7874015748031497,
                        "duration": 0.6620274374999866
                    },
                    {
                        "name": "G5",
                        "midi": 79,
                        "time": 111.99837599999893,
                        "velocity": 0.7874015748031497,
                        "duration": 0.32869893749999335
                    },
                    {
                        "name": "B3",
                        "midi": 59,
                        "time": 112.10948549999893,
                        "velocity": 0.7874015748031497,
                        "duration": 0.10647993749999785
                    },
                    {
                        "name": "C2",
                        "midi": 36,
                        "time": 112.22059499999892,
                        "velocity": 0.7874015748031497,
                        "duration": 0.2175894374999956
                    },
                    {
                        "name": "G4",
                        "midi": 67,
                        "time": 112.33170449999892,
                        "velocity": 0.7874015748031497,
                        "duration": 0.5509179374999889
                    },
                    {
                        "name": "G5",
                        "midi": 79,
                        "time": 112.33170449999892,
                        "velocity": 0.7874015748031497,
                        "duration": 0.32869893749999335
                    },
                    {
                        "name": "D4",
                        "midi": 62,
                        "time": 112.44281399999892,
                        "velocity": 0.7874015748031497,
                        "duration": 0.2175894374999956
                    },
                    {
                        "name": "B3",
                        "midi": 59,
                        "time": 112.66503299999891,
                        "velocity": 0.7874015748031497,
                        "duration": 0.10647993749999785
                    },
                    {
                        "name": "G4",
                        "midi": 67,
                        "time": 112.66503299999891,
                        "velocity": 0.7874015748031497,
                        "duration": 0.8842464374999821
                    },
                    {
                        "name": "G5",
                        "midi": 79,
                        "time": 112.66503299999891,
                        "velocity": 0.7874015748031497,
                        "duration": 0.2175894374999956
                    },
                    {
                        "name": "C2",
                        "midi": 36,
                        "time": 112.77614249999891,
                        "velocity": 0.7874015748031497,
                        "duration": 0.2175894374999956
                    },
                    {
                        "name": "A4",
                        "midi": 69,
                        "time": 112.88725199999891,
                        "velocity": 0.7874015748031497,
                        "duration": 0.32869893749999335
                    },
                    {
                        "name": "F#5",
                        "midi": 78,
                        "time": 112.88725199999891,
                        "velocity": 0.7874015748031497,
                        "duration": 0.32869893749999335
                    },
                    {
                        "name": "B3",
                        "midi": 59,
                        "time": 112.99836149999891,
                        "velocity": 0.7874015748031497,
                        "duration": 0.10647993749999785
                    },
                    {
                        "name": "C2",
                        "midi": 36,
                        "time": 113.1094709999989,
                        "velocity": 0.7874015748031497,
                        "duration": 0.2175894374999956
                    },
                    {
                        "name": "A4",
                        "midi": 69,
                        "time": 113.2205804999989,
                        "velocity": 0.7874015748031497,
                        "duration": 0.32869893749999335
                    },
                    {
                        "name": "F#5",
                        "midi": 78,
                        "time": 113.2205804999989,
                        "velocity": 0.7874015748031497,
                        "duration": 1.4397939374999709
                    },
                    {
                        "name": "B3",
                        "midi": 59,
                        "time": 113.3316899999989,
                        "velocity": 0.7874015748031497,
                        "duration": 0.2175894374999956
                    },
                    {
                        "name": "C4",
                        "midi": 60,
                        "time": 113.5539089999989,
                        "velocity": 0.7874015748031497,
                        "duration": 0.2175894374999956
                    },
                    {
                        "name": "E4",
                        "midi": 64,
                        "time": 113.5539089999989,
                        "velocity": 0.7874015748031497,
                        "duration": 0.10647993749999785
                    },
                    {
                        "name": "A4",
                        "midi": 69,
                        "time": 113.5539089999989,
                        "velocity": 0.7874015748031497,
                        "duration": 0.2175894374999956
                    },
                    {
                        "name": "F#4",
                        "midi": 66,
                        "time": 113.6650184999989,
                        "velocity": 0.7874015748031497,
                        "duration": 0.10647993749999785
                    },
                    {
                        "name": "G2",
                        "midi": 43,
                        "time": 113.77612799999889,
                        "velocity": 0.7874015748031497,
                        "duration": 0.10647993749999785
                    },
                    {
                        "name": "G4",
                        "midi": 67,
                        "time": 113.77612799999889,
                        "velocity": 0.7874015748031497,
                        "duration": 0.32869893749999335
                    },
                    {
                        "name": "B4",
                        "midi": 71,
                        "time": 113.77612799999889,
                        "velocity": 0.7874015748031497,
                        "duration": 0.32869893749999335
                    },
                    {
                        "name": "B3",
                        "midi": 59,
                        "time": 113.88723749999889,
                        "velocity": 0.7874015748031497,
                        "duration": 0.10647993749999785
                    },
                    {
                        "name": "G2",
                        "midi": 43,
                        "time": 113.99834699999889,
                        "velocity": 0.7874015748031497,
                        "duration": 0.2175894374999956
                    },
                    {
                        "name": "G4",
                        "midi": 67,
                        "time": 114.10945649999888,
                        "velocity": 0.7874015748031497,
                        "duration": 0.32869893749999335
                    },
                    {
                        "name": "B4",
                        "midi": 71,
                        "time": 114.10945649999888,
                        "velocity": 0.7874015748031497,
                        "duration": 0.32869893749999335
                    },
                    {
                        "name": "G4",
                        "midi": 67,
                        "time": 114.22056599999888,
                        "velocity": 0.7874015748031497,
                        "duration": 0.2175894374999956
                    },
                    {
                        "name": "B3",
                        "midi": 59,
                        "time": 114.44278499999888,
                        "velocity": 0.7874015748031497,
                        "duration": 0.10647993749999785
                    },
                    {
                        "name": "G4",
                        "midi": 67,
                        "time": 114.44278499999888,
                        "velocity": 0.7874015748031497,
                        "duration": 2.661998437499946
                    },
                    {
                        "name": "B4",
                        "midi": 71,
                        "time": 114.44278499999888,
                        "velocity": 0.7874015748031497,
                        "duration": 0.2175894374999956
                    },
                    {
                        "name": "G2",
                        "midi": 43,
                        "time": 114.55389449999888,
                        "velocity": 0.7874015748031497,
                        "duration": 0.2175894374999956
                    },
                    {
                        "name": "B4",
                        "midi": 71,
                        "time": 114.66500399999887,
                        "velocity": 0.7874015748031497,
                        "duration": 0.32869893749999335
                    },
                    {
                        "name": "B4",
                        "midi": 71,
                        "time": 114.66500399999887,
                        "velocity": 0.7874015748031497,
                        "duration": 0.32869893749999335
                    },
                    {
                        "name": "B3",
                        "midi": 59,
                        "time": 114.77611349999887,
                        "velocity": 0.7874015748031497,
                        "duration": 0.10647993749999785
                    },
                    {
                        "name": "G2",
                        "midi": 43,
                        "time": 114.88722299999887,
                        "velocity": 0.7874015748031497,
                        "duration": 0.2175894374999956
                    },
                    {
                        "name": "D5",
                        "midi": 74,
                        "time": 114.99833249999887,
                        "velocity": 0.7874015748031497,
                        "duration": 0.32869893749999335
                    },
                    {
                        "name": "B4",
                        "midi": 71,
                        "time": 114.99833249999887,
                        "velocity": 0.7874015748031497,
                        "duration": 0.32869893749999335
                    },
                    {
                        "name": "F#4",
                        "midi": 66,
                        "time": 115.10944199999886,
                        "velocity": 0.7874015748031497,
                        "duration": 0.2175894374999956
                    },
                    {
                        "name": "B3",
                        "midi": 59,
                        "time": 115.33166099999886,
                        "velocity": 0.7874015748031497,
                        "duration": 0.10647993749999785
                    },
                    {
                        "name": "B4",
                        "midi": 71,
                        "time": 115.33166099999886,
                        "velocity": 0.7874015748031497,
                        "duration": 0.2175894374999956
                    },
                    {
                        "name": "B4",
                        "midi": 71,
                        "time": 115.33166099999886,
                        "velocity": 0.7874015748031497,
                        "duration": 0.2175894374999956
                    },
                    {
                        "name": "G2",
                        "midi": 43,
                        "time": 115.44277049999886,
                        "velocity": 0.7874015748031497,
                        "duration": 0.2175894374999956
                    },
                    {
                        "name": "B4",
                        "midi": 71,
                        "time": 115.55387999999886,
                        "velocity": 0.7874015748031497,
                        "duration": 0.32869893749999335
                    },
                    {
                        "name": "F#5",
                        "midi": 78,
                        "time": 115.55387999999886,
                        "velocity": 0.7874015748031497,
                        "duration": 0.32869893749999335
                    },
                    {
                        "name": "B3",
                        "midi": 59,
                        "time": 115.66498949999885,
                        "velocity": 0.7874015748031497,
                        "duration": 0.10647993749999785
                    },
                    {
                        "name": "G2",
                        "midi": 43,
                        "time": 115.77609899999885,
                        "velocity": 0.7874015748031497,
                        "duration": 0.2175894374999956
                    },
                    {
                        "name": "B4",
                        "midi": 71,
                        "time": 115.88720849999885,
                        "velocity": 0.7874015748031497,
                        "duration": 0.32869893749999335
                    },
                    {
                        "name": "F#5",
                        "midi": 78,
                        "time": 115.88720849999885,
                        "velocity": 0.7874015748031497,
                        "duration": 0.32869893749999335
                    },
                    {
                        "name": "D4",
                        "midi": 62,
                        "time": 115.99831799999885,
                        "velocity": 0.7874015748031497,
                        "duration": 0.2175894374999956
                    },
                    {
                        "name": "B3",
                        "midi": 59,
                        "time": 116.22053699999884,
                        "velocity": 0.7874015748031497,
                        "duration": 0.10647993749999785
                    },
                    {
                        "name": "B4",
                        "midi": 71,
                        "time": 116.22053699999884,
                        "velocity": 0.7874015748031497,
                        "duration": 0.2175894374999956
                    },
                    {
                        "name": "F#5",
                        "midi": 78,
                        "time": 116.22053699999884,
                        "velocity": 0.7874015748031497,
                        "duration": 0.2175894374999956
                    },
                    {
                        "name": "G2",
                        "midi": 43,
                        "time": 116.33164649999884,
                        "velocity": 0.7874015748031497,
                        "duration": 0.2175894374999956
                    },
                    {
                        "name": "B4",
                        "midi": 71,
                        "time": 116.44275599999884,
                        "velocity": 0.7874015748031497,
                        "duration": 0.32869893749999335
                    },
                    {
                        "name": "D5",
                        "midi": 74,
                        "time": 116.44275599999884,
                        "velocity": 0.7874015748031497,
                        "duration": 0.32869893749999335
                    },
                    {
                        "name": "B3",
                        "midi": 59,
                        "time": 116.55386549999884,
                        "velocity": 0.7874015748031497,
                        "duration": 0.10647993749999785
                    },
                    {
                        "name": "G2",
                        "midi": 43,
                        "time": 116.66497499999883,
                        "velocity": 0.7874015748031497,
                        "duration": 0.2175894374999956
                    },
                    {
                        "name": "D5",
                        "midi": 74,
                        "time": 116.77608449999883,
                        "velocity": 0.7874015748031497,
                        "duration": 0.32869893749999335
                    },
                    {
                        "name": "D5",
                        "midi": 74,
                        "time": 116.77608449999883,
                        "velocity": 0.7874015748031497,
                        "duration": 1.4397939374999709
                    },
                    {
                        "name": "B3",
                        "midi": 59,
                        "time": 116.88719399999883,
                        "velocity": 0.7874015748031497,
                        "duration": 0.2175894374999956
                    },
                    {
                        "name": "C4",
                        "midi": 60,
                        "time": 117.10941299999882,
                        "velocity": 0.7874015748031497,
                        "duration": 0.2175894374999956
                    },
                    {
                        "name": "E4",
                        "midi": 64,
                        "time": 117.10941299999882,
                        "velocity": 0.7874015748031497,
                        "duration": 0.10647993749999785
                    },
                    {
                        "name": "B4",
                        "midi": 71,
                        "time": 117.10941299999882,
                        "velocity": 0.7874015748031497,
                        "duration": 0.2175894374999956
                    },
                    {
                        "name": "F#4",
                        "midi": 66,
                        "time": 117.22052249999882,
                        "velocity": 0.7874015748031497,
                        "duration": 0.10647993749999785
                    },
                    {
                        "name": "E2",
                        "midi": 40,
                        "time": 117.33163199999882,
                        "velocity": 0.7874015748031497,
                        "duration": 0.10647993749999785
                    },
                    {
                        "name": "G4",
                        "midi": 67,
                        "time": 117.33163199999882,
                        "velocity": 0.7874015748031497,
                        "duration": 0.32869893749999335
                    },
                    {
                        "name": "B4",
                        "midi": 71,
                        "time": 117.33163199999882,
                        "velocity": 0.7874015748031497,
                        "duration": 0.32869893749999335
                    },
                    {
                        "name": "B3",
                        "midi": 59,
                        "time": 117.44274149999882,
                        "velocity": 0.7874015748031497,
                        "duration": 0.10647993749999785
                    },
                    {
                        "name": "E2",
                        "midi": 40,
                        "time": 117.55385099999882,
                        "velocity": 0.7874015748031497,
                        "duration": 0.2175894374999956
                    },
                    {
                        "name": "G4",
                        "midi": 67,
                        "time": 117.66496049999881,
                        "velocity": 0.7874015748031497,
                        "duration": 0.32869893749999335
                    },
                    {
                        "name": "B4",
                        "midi": 71,
                        "time": 117.66496049999881,
                        "velocity": 0.7874015748031497,
                        "duration": 0.32869893749999335
                    },
                    {
                        "name": "G4",
                        "midi": 67,
                        "time": 117.77606999999881,
                        "velocity": 0.7874015748031497,
                        "duration": 0.2175894374999956
                    },
                    {
                        "name": "B3",
                        "midi": 59,
                        "time": 117.9982889999988,
                        "velocity": 0.7874015748031497,
                        "duration": 0.10647993749999785
                    },
                    {
                        "name": "G4",
                        "midi": 67,
                        "time": 117.9982889999988,
                        "velocity": 0.7874015748031497,
                        "duration": 1.4397939374999709
                    },
                    {
                        "name": "B4",
                        "midi": 71,
                        "time": 117.9982889999988,
                        "velocity": 0.7874015748031497,
                        "duration": 0.2175894374999956
                    },
                    {
                        "name": "E2",
                        "midi": 40,
                        "time": 118.1093984999988,
                        "velocity": 0.7874015748031497,
                        "duration": 0.2175894374999956
                    },
                    {
                        "name": "B4",
                        "midi": 71,
                        "time": 118.2205079999988,
                        "velocity": 0.7874015748031497,
                        "duration": 0.32869893749999335
                    },
                    {
                        "name": "B4",
                        "midi": 71,
                        "time": 118.2205079999988,
                        "velocity": 0.7874015748031497,
                        "duration": 0.32869893749999335
                    },
                    {
                        "name": "B3",
                        "midi": 59,
                        "time": 118.3316174999988,
                        "velocity": 0.7874015748031497,
                        "duration": 0.10647993749999785
                    },
                    {
                        "name": "E2",
                        "midi": 40,
                        "time": 118.4427269999988,
                        "velocity": 0.7874015748031497,
                        "duration": 0.2175894374999956
                    },
                    {
                        "name": "D5",
                        "midi": 74,
                        "time": 118.5538364999988,
                        "velocity": 0.7874015748031497,
                        "duration": 0.2175894374999956
                    },
                    {
                        "name": "B4",
                        "midi": 71,
                        "time": 118.5538364999988,
                        "velocity": 0.7874015748031497,
                        "duration": 0.32869893749999335
                    },
                    {
                        "name": "F#4",
                        "midi": 66,
                        "time": 118.66494599999879,
                        "velocity": 0.7874015748031497,
                        "duration": 0.2175894374999956
                    },
                    {
                        "name": "B4",
                        "midi": 71,
                        "time": 118.77605549999879,
                        "velocity": 0.7874015748031497,
                        "duration": 0.32869893749999335
                    },
                    {
                        "name": "B3",
                        "midi": 59,
                        "time": 118.88716499999879,
                        "velocity": 0.7874015748031497,
                        "duration": 0.10647993749999785
                    },
                    {
                        "name": "B4",
                        "midi": 71,
                        "time": 118.88716499999879,
                        "velocity": 0.7874015748031497,
                        "duration": 0.2175894374999956
                    },
                    {
                        "name": "C2",
                        "midi": 36,
                        "time": 118.99827449999879,
                        "velocity": 0.7874015748031497,
                        "duration": 0.2175894374999956
                    },
                    {
                        "name": "G4",
                        "midi": 67,
                        "time": 119.10938399999878,
                        "velocity": 0.7874015748031497,
                        "duration": 0.6620274374999866
                    },
                    {
                        "name": "G5",
                        "midi": 79,
                        "time": 119.10938399999878,
                        "velocity": 0.7874015748031497,
                        "duration": 0.32869893749999335
                    },
                    {
                        "name": "B3",
                        "midi": 59,
                        "time": 119.22049349999878,
                        "velocity": 0.7874015748031497,
                        "duration": 0.10647993749999785
                    },
                    {
                        "name": "C2",
                        "midi": 36,
                        "time": 119.33160299999878,
                        "velocity": 0.7874015748031497,
                        "duration": 0.2175894374999956
                    },
                    {
                        "name": "G4",
                        "midi": 67,
                        "time": 119.44271249999878,
                        "velocity": 0.7874015748031497,
                        "duration": 0.5509179374999889
                    },
                    {
                        "name": "G5",
                        "midi": 79,
                        "time": 119.44271249999878,
                        "velocity": 0.7874015748031497,
                        "duration": 0.32869893749999335
                    },
                    {
                        "name": "D4",
                        "midi": 62,
                        "time": 119.55382199999877,
                        "velocity": 0.7874015748031497,
                        "duration": 0.2175894374999956
                    },
                    {
                        "name": "B3",
                        "midi": 59,
                        "time": 119.77604099999877,
                        "velocity": 0.7874015748031497,
                        "duration": 0.10647993749999785
                    },
                    {
                        "name": "G4",
                        "midi": 67,
                        "time": 119.77604099999877,
                        "velocity": 0.7874015748031497,
                        "duration": 0.8842464374999821
                    },
                    {
                        "name": "G5",
                        "midi": 79,
                        "time": 119.77604099999877,
                        "velocity": 0.7874015748031497,
                        "duration": 0.2175894374999956
                    },
                    {
                        "name": "C2",
                        "midi": 36,
                        "time": 119.88715049999877,
                        "velocity": 0.7874015748031497,
                        "duration": 0.2175894374999956
                    },
                    {
                        "name": "A4",
                        "midi": 69,
                        "time": 119.99825999999877,
                        "velocity": 0.7874015748031497,
                        "duration": 0.32869893749999335
                    },
                    {
                        "name": "F#5",
                        "midi": 78,
                        "time": 119.99825999999877,
                        "velocity": 0.7874015748031497,
                        "duration": 0.32869893749999335
                    },
                    {
                        "name": "B3",
                        "midi": 59,
                        "time": 120.10936949999876,
                        "velocity": 0.7874015748031497,
                        "duration": 0.10647993749999785
                    },
                    {
                        "name": "C2",
                        "midi": 36,
                        "time": 120.22047899999876,
                        "velocity": 0.7874015748031497,
                        "duration": 0.2175894374999956
                    },
                    {
                        "name": "A4",
                        "midi": 69,
                        "time": 120.33158849999876,
                        "velocity": 0.7874015748031497,
                        "duration": 0.32869893749999335
                    },
                    {
                        "name": "F#5",
                        "midi": 78,
                        "time": 120.33158849999876,
                        "velocity": 0.7874015748031497,
                        "duration": 1.4397939374999709
                    },
                    {
                        "name": "B3",
                        "midi": 59,
                        "time": 120.44269799999876,
                        "velocity": 0.7874015748031497,
                        "duration": 0.2175894374999956
                    },
                    {
                        "name": "C4",
                        "midi": 60,
                        "time": 120.66491699999875,
                        "velocity": 0.7874015748031497,
                        "duration": 0.2175894374999956
                    },
                    {
                        "name": "E4",
                        "midi": 64,
                        "time": 120.66491699999875,
                        "velocity": 0.7874015748031497,
                        "duration": 0.10647993749999785
                    },
                    {
                        "name": "A4",
                        "midi": 69,
                        "time": 120.66491699999875,
                        "velocity": 0.7874015748031497,
                        "duration": 0.2175894374999956
                    },
                    {
                        "name": "F#4",
                        "midi": 66,
                        "time": 120.77602649999875,
                        "velocity": 0.7874015748031497,
                        "duration": 0.10647993749999785
                    },
                    {
                        "name": "G2",
                        "midi": 43,
                        "time": 120.88713599999875,
                        "velocity": 0.7874015748031497,
                        "duration": 0.10647993749999785
                    },
                    {
                        "name": "G4",
                        "midi": 67,
                        "time": 120.88713599999875,
                        "velocity": 0.7874015748031497,
                        "duration": 0.32869893749999335
                    },
                    {
                        "name": "B4",
                        "midi": 71,
                        "time": 120.88713599999875,
                        "velocity": 0.7874015748031497,
                        "duration": 0.32869893749999335
                    },
                    {
                        "name": "B3",
                        "midi": 59,
                        "time": 120.99824549999875,
                        "velocity": 0.7874015748031497,
                        "duration": 0.10647993749999785
                    },
                    {
                        "name": "G2",
                        "midi": 43,
                        "time": 121.10935499999874,
                        "velocity": 0.7874015748031497,
                        "duration": 0.2175894374999956
                    },
                    {
                        "name": "G4",
                        "midi": 67,
                        "time": 121.22046449999874,
                        "velocity": 0.7874015748031497,
                        "duration": 0.32869893749999335
                    },
                    {
                        "name": "B4",
                        "midi": 71,
                        "time": 121.22046449999874,
                        "velocity": 0.7874015748031497,
                        "duration": 0.32869893749999335
                    },
                    {
                        "name": "G4",
                        "midi": 67,
                        "time": 121.33157399999874,
                        "velocity": 0.7874015748031497,
                        "duration": 0.2175894374999956
                    },
                    {
                        "name": "B3",
                        "midi": 59,
                        "time": 121.55379299999873,
                        "velocity": 0.7874015748031497,
                        "duration": 0.10647993749999785
                    },
                    {
                        "name": "G4",
                        "midi": 67,
                        "time": 121.55379299999873,
                        "velocity": 0.7874015748031497,
                        "duration": 2.661998437499946
                    },
                    {
                        "name": "B4",
                        "midi": 71,
                        "time": 121.55379299999873,
                        "velocity": 0.7874015748031497,
                        "duration": 0.2175894374999956
                    },
                    {
                        "name": "G2",
                        "midi": 43,
                        "time": 121.66490249999873,
                        "velocity": 0.7874015748031497,
                        "duration": 0.2175894374999956
                    },
                    {
                        "name": "B4",
                        "midi": 71,
                        "time": 121.77601199999873,
                        "velocity": 0.7874015748031497,
                        "duration": 0.32869893749999335
                    },
                    {
                        "name": "B4",
                        "midi": 71,
                        "time": 121.77601199999873,
                        "velocity": 0.7874015748031497,
                        "duration": 0.32869893749999335
                    },
                    {
                        "name": "B3",
                        "midi": 59,
                        "time": 121.88712149999873,
                        "velocity": 0.7874015748031497,
                        "duration": 0.10647993749999785
                    },
                    {
                        "name": "G2",
                        "midi": 43,
                        "time": 121.99823099999873,
                        "velocity": 0.7874015748031497,
                        "duration": 0.2175894374999956
                    },
                    {
                        "name": "D5",
                        "midi": 74,
                        "time": 122.10934049999872,
                        "velocity": 0.7874015748031497,
                        "duration": 0.32869893749999335
                    },
                    {
                        "name": "B4",
                        "midi": 71,
                        "time": 122.10934049999872,
                        "velocity": 0.7874015748031497,
                        "duration": 0.32869893749999335
                    },
                    {
                        "name": "F#4",
                        "midi": 66,
                        "time": 122.22044999999872,
                        "velocity": 0.7874015748031497,
                        "duration": 0.2175894374999956
                    },
                    {
                        "name": "B3",
                        "midi": 59,
                        "time": 122.44266899999872,
                        "velocity": 0.7874015748031497,
                        "duration": 0.10647993749999785
                    },
                    {
                        "name": "B4",
                        "midi": 71,
                        "time": 122.44266899999872,
                        "velocity": 0.7874015748031497,
                        "duration": 0.2175894374999956
                    },
                    {
                        "name": "B4",
                        "midi": 71,
                        "time": 122.44266899999872,
                        "velocity": 0.7874015748031497,
                        "duration": 0.2175894374999956
                    },
                    {
                        "name": "G2",
                        "midi": 43,
                        "time": 122.55377849999871,
                        "velocity": 0.7874015748031497,
                        "duration": 0.2175894374999956
                    },
                    {
                        "name": "B4",
                        "midi": 71,
                        "time": 122.66488799999871,
                        "velocity": 0.7874015748031497,
                        "duration": 0.32869893749999335
                    },
                    {
                        "name": "F#5",
                        "midi": 78,
                        "time": 122.66488799999871,
                        "velocity": 0.7874015748031497,
                        "duration": 0.32869893749999335
                    },
                    {
                        "name": "B3",
                        "midi": 59,
                        "time": 122.77599749999871,
                        "velocity": 0.7874015748031497,
                        "duration": 0.10647993749999785
                    },
                    {
                        "name": "G2",
                        "midi": 43,
                        "time": 122.88710699999871,
                        "velocity": 0.7874015748031497,
                        "duration": 0.2175894374999956
                    },
                    {
                        "name": "B4",
                        "midi": 71,
                        "time": 122.9982164999987,
                        "velocity": 0.7874015748031497,
                        "duration": 0.32869893749999335
                    },
                    {
                        "name": "F#5",
                        "midi": 78,
                        "time": 122.9982164999987,
                        "velocity": 0.7874015748031497,
                        "duration": 0.32869893749999335
                    },
                    {
                        "name": "D4",
                        "midi": 62,
                        "time": 123.1093259999987,
                        "velocity": 0.7874015748031497,
                        "duration": 0.2175894374999956
                    },
                    {
                        "name": "B3",
                        "midi": 59,
                        "time": 123.3315449999987,
                        "velocity": 0.7874015748031497,
                        "duration": 0.10647993749999785
                    },
                    {
                        "name": "B4",
                        "midi": 71,
                        "time": 123.3315449999987,
                        "velocity": 0.7874015748031497,
                        "duration": 0.2175894374999956
                    },
                    {
                        "name": "F#5",
                        "midi": 78,
                        "time": 123.3315449999987,
                        "velocity": 0.7874015748031497,
                        "duration": 0.2175894374999956
                    },
                    {
                        "name": "G2",
                        "midi": 43,
                        "time": 123.4426544999987,
                        "velocity": 0.7874015748031497,
                        "duration": 0.2175894374999956
                    },
                    {
                        "name": "B4",
                        "midi": 71,
                        "time": 123.5537639999987,
                        "velocity": 0.7874015748031497,
                        "duration": 0.32869893749999335
                    },
                    {
                        "name": "D5",
                        "midi": 74,
                        "time": 123.5537639999987,
                        "velocity": 0.7874015748031497,
                        "duration": 0.32869893749999335
                    },
                    {
                        "name": "B3",
                        "midi": 59,
                        "time": 123.66487349999869,
                        "velocity": 0.7874015748031497,
                        "duration": 0.10647993749999785
                    },
                    {
                        "name": "G2",
                        "midi": 43,
                        "time": 123.77598299999869,
                        "velocity": 0.7874015748031497,
                        "duration": 0.2175894374999956
                    },
                    {
                        "name": "D5",
                        "midi": 74,
                        "time": 123.88709249999869,
                        "velocity": 0.7874015748031497,
                        "duration": 0.32869893749999335
                    },
                    {
                        "name": "D5",
                        "midi": 74,
                        "time": 123.88709249999869,
                        "velocity": 0.7874015748031497,
                        "duration": 1.4397939374999709
                    },
                    {
                        "name": "B3",
                        "midi": 59,
                        "time": 123.99820199999868,
                        "velocity": 0.7874015748031497,
                        "duration": 0.2175894374999956
                    },
                    {
                        "name": "C4",
                        "midi": 60,
                        "time": 124.22042099999868,
                        "velocity": 0.7874015748031497,
                        "duration": 0.2175894374999956
                    },
                    {
                        "name": "E4",
                        "midi": 64,
                        "time": 124.22042099999868,
                        "velocity": 0.7874015748031497,
                        "duration": 0.10647993749999785
                    },
                    {
                        "name": "B4",
                        "midi": 71,
                        "time": 124.22042099999868,
                        "velocity": 0.7874015748031497,
                        "duration": 0.2175894374999956
                    },
                    {
                        "name": "F#4",
                        "midi": 66,
                        "time": 124.33153049999868,
                        "velocity": 0.7874015748031497,
                        "duration": 0.10647993749999785
                    },
                    {
                        "name": "E2",
                        "midi": 40,
                        "time": 124.44263999999868,
                        "velocity": 0.7874015748031497,
                        "duration": 0.10647993749999785
                    },
                    {
                        "name": "G4",
                        "midi": 67,
                        "time": 124.44263999999868,
                        "velocity": 0.7874015748031497,
                        "duration": 0.32869893749999335
                    },
                    {
                        "name": "B4",
                        "midi": 71,
                        "time": 124.44263999999868,
                        "velocity": 0.7874015748031497,
                        "duration": 0.32869893749999335
                    },
                    {
                        "name": "B3",
                        "midi": 59,
                        "time": 124.55374949999867,
                        "velocity": 0.7874015748031497,
                        "duration": 0.10647993749999785
                    },
                    {
                        "name": "E2",
                        "midi": 40,
                        "time": 124.66485899999867,
                        "velocity": 0.7874015748031497,
                        "duration": 0.2175894374999956
                    },
                    {
                        "name": "G4",
                        "midi": 67,
                        "time": 124.77596849999867,
                        "velocity": 0.7874015748031497,
                        "duration": 0.32869893749999335
                    },
                    {
                        "name": "B4",
                        "midi": 71,
                        "time": 124.77596849999867,
                        "velocity": 0.7874015748031497,
                        "duration": 0.32869893749999335
                    },
                    {
                        "name": "G4",
                        "midi": 67,
                        "time": 124.88707799999867,
                        "velocity": 0.7874015748031497,
                        "duration": 0.2175894374999956
                    },
                    {
                        "name": "B3",
                        "midi": 59,
                        "time": 125.10929699999866,
                        "velocity": 0.7874015748031497,
                        "duration": 0.10647993749999785
                    },
                    {
                        "name": "G4",
                        "midi": 67,
                        "time": 125.10929699999866,
                        "velocity": 0.7874015748031497,
                        "duration": 1.4397939374999709
                    },
                    {
                        "name": "B4",
                        "midi": 71,
                        "time": 125.10929699999866,
                        "velocity": 0.7874015748031497,
                        "duration": 0.2175894374999956
                    },
                    {
                        "name": "E2",
                        "midi": 40,
                        "time": 125.22040649999866,
                        "velocity": 0.7874015748031497,
                        "duration": 0.2175894374999956
                    },
                    {
                        "name": "B4",
                        "midi": 71,
                        "time": 125.33151599999866,
                        "velocity": 0.7874015748031497,
                        "duration": 0.32869893749999335
                    },
                    {
                        "name": "B4",
                        "midi": 71,
                        "time": 125.33151599999866,
                        "velocity": 0.7874015748031497,
                        "duration": 0.32869893749999335
                    },
                    {
                        "name": "B3",
                        "midi": 59,
                        "time": 125.44262549999866,
                        "velocity": 0.7874015748031497,
                        "duration": 0.10647993749999785
                    },
                    {
                        "name": "E2",
                        "midi": 40,
                        "time": 125.55373499999865,
                        "velocity": 0.7874015748031497,
                        "duration": 0.2175894374999956
                    },
                    {
                        "name": "D5",
                        "midi": 74,
                        "time": 125.66484449999865,
                        "velocity": 0.7874015748031497,
                        "duration": 0.2175894374999956
                    },
                    {
                        "name": "B4",
                        "midi": 71,
                        "time": 125.66484449999865,
                        "velocity": 0.7874015748031497,
                        "duration": 0.32869893749999335
                    },
                    {
                        "name": "F#4",
                        "midi": 66,
                        "time": 125.77595399999865,
                        "velocity": 0.7874015748031497,
                        "duration": 0.2175894374999956
                    },
                    {
                        "name": "B4",
                        "midi": 71,
                        "time": 125.88706349999865,
                        "velocity": 0.7874015748031497,
                        "duration": 0.32869893749999335
                    },
                    {
                        "name": "B3",
                        "midi": 59,
                        "time": 125.99817299999864,
                        "velocity": 0.7874015748031497,
                        "duration": 0.10647993749999785
                    },
                    {
                        "name": "B4",
                        "midi": 71,
                        "time": 125.99817299999864,
                        "velocity": 0.7874015748031497,
                        "duration": 0.2175894374999956
                    },
                    {
                        "name": "C2",
                        "midi": 36,
                        "time": 126.10928249999864,
                        "velocity": 0.7874015748031497,
                        "duration": 0.2175894374999956
                    },
                    {
                        "name": "G4",
                        "midi": 67,
                        "time": 126.22039199999864,
                        "velocity": 0.7874015748031497,
                        "duration": 0.6620274374999866
                    },
                    {
                        "name": "G5",
                        "midi": 79,
                        "time": 126.22039199999864,
                        "velocity": 0.7874015748031497,
                        "duration": 0.32869893749999335
                    },
                    {
                        "name": "B3",
                        "midi": 59,
                        "time": 126.33150149999864,
                        "velocity": 0.7874015748031497,
                        "duration": 0.10647993749999785
                    },
                    {
                        "name": "C2",
                        "midi": 36,
                        "time": 126.44261099999864,
                        "velocity": 0.7874015748031497,
                        "duration": 0.2175894374999956
                    },
                    {
                        "name": "G4",
                        "midi": 67,
                        "time": 126.55372049999863,
                        "velocity": 0.7874015748031497,
                        "duration": 0.5509179374999889
                    },
                    {
                        "name": "G5",
                        "midi": 79,
                        "time": 126.55372049999863,
                        "velocity": 0.7874015748031497,
                        "duration": 0.32869893749999335
                    },
                    {
                        "name": "D4",
                        "midi": 62,
                        "time": 126.66482999999863,
                        "velocity": 0.7874015748031497,
                        "duration": 0.2175894374999956
                    },
                    {
                        "name": "B3",
                        "midi": 59,
                        "time": 126.88704899999863,
                        "velocity": 0.7874015748031497,
                        "duration": 0.10647993749999785
                    },
                    {
                        "name": "G4",
                        "midi": 67,
                        "time": 126.88704899999863,
                        "velocity": 0.7874015748031497,
                        "duration": 0.8842464374999821
                    },
                    {
                        "name": "G5",
                        "midi": 79,
                        "time": 126.88704899999863,
                        "velocity": 0.7874015748031497,
                        "duration": 0.2175894374999956
                    },
                    {
                        "name": "C2",
                        "midi": 36,
                        "time": 126.99815849999862,
                        "velocity": 0.7874015748031497,
                        "duration": 0.2175894374999956
                    },
                    {
                        "name": "A4",
                        "midi": 69,
                        "time": 127.10926799999862,
                        "velocity": 0.7874015748031497,
                        "duration": 0.32869893749999335
                    },
                    {
                        "name": "F#5",
                        "midi": 78,
                        "time": 127.10926799999862,
                        "velocity": 0.7874015748031497,
                        "duration": 0.32869893749999335
                    },
                    {
                        "name": "B3",
                        "midi": 59,
                        "time": 127.22037749999862,
                        "velocity": 0.7874015748031497,
                        "duration": 0.10647993749999785
                    },
                    {
                        "name": "C2",
                        "midi": 36,
                        "time": 127.33148699999862,
                        "velocity": 0.7874015748031497,
                        "duration": 0.2175894374999956
                    },
                    {
                        "name": "A4",
                        "midi": 69,
                        "time": 127.44259649999861,
                        "velocity": 0.7874015748031497,
                        "duration": 0.32869893749999335
                    },
                    {
                        "name": "F#5",
                        "midi": 78,
                        "time": 127.44259649999861,
                        "velocity": 0.7874015748031497,
                        "duration": 1.4397939375001556
                    },
                    {
                        "name": "B3",
                        "midi": 59,
                        "time": 127.55370599999861,
                        "velocity": 0.7874015748031497,
                        "duration": 0.2175894374999956
                    },
                    {
                        "name": "C4",
                        "midi": 60,
                        "time": 127.77592499999861,
                        "velocity": 0.7874015748031497,
                        "duration": 0.2175894374999956
                    },
                    {
                        "name": "E4",
                        "midi": 64,
                        "time": 127.77592499999861,
                        "velocity": 0.7874015748031497,
                        "duration": 0.10647993749999785
                    },
                    {
                        "name": "A4",
                        "midi": 69,
                        "time": 127.77592499999861,
                        "velocity": 0.7874015748031497,
                        "duration": 0.2175894374999956
                    },
                    {
                        "name": "F#4",
                        "midi": 66,
                        "time": 127.8870344999986,
                        "velocity": 0.7874015748031497,
                        "duration": 0.10647993749999785
                    },
                    {
                        "name": "G2",
                        "midi": 43,
                        "time": 127.9981439999986,
                        "velocity": 0.7874015748031497,
                        "duration": 0.10647993750001206
                    },
                    {
                        "name": "G4",
                        "midi": 67,
                        "time": 127.9981439999986,
                        "velocity": 0.7874015748031497,
                        "duration": 0.3286989375000644
                    },
                    {
                        "name": "B4",
                        "midi": 71,
                        "time": 127.9981439999986,
                        "velocity": 0.7874015748031497,
                        "duration": 0.3286989375000644
                    },
                    {
                        "name": "B3",
                        "midi": 59,
                        "time": 128.10925349999863,
                        "velocity": 0.7874015748031497,
                        "duration": 0.10647993750001206
                    },
                    {
                        "name": "G2",
                        "midi": 43,
                        "time": 128.22036299999866,
                        "velocity": 0.7874015748031497,
                        "duration": 0.21758943750003823
                    },
                    {
                        "name": "G4",
                        "midi": 67,
                        "time": 128.33147249999868,
                        "velocity": 0.7874015748031497,
                        "duration": 0.328698937500036
                    },
                    {
                        "name": "B4",
                        "midi": 71,
                        "time": 128.33147249999868,
                        "velocity": 0.7874015748031497,
                        "duration": 0.328698937500036
                    },
                    {
                        "name": "G4",
                        "midi": 67,
                        "time": 128.4425819999987,
                        "velocity": 0.7874015748031497,
                        "duration": 0.2175894375000098
                    },
                    {
                        "name": "B3",
                        "midi": 59,
                        "time": 128.66480099999873,
                        "velocity": 0.7874015748031497,
                        "duration": 0.10647993750001206
                    },
                    {
                        "name": "G4",
                        "midi": 67,
                        "time": 128.66480099999873,
                        "velocity": 0.7874015748031497,
                        "duration": 2.661998437500529
                    },
                    {
                        "name": "B4",
                        "midi": 71,
                        "time": 128.66480099999873,
                        "velocity": 0.7874015748031497,
                        "duration": 0.21758943750003823
                    },
                    {
                        "name": "G2",
                        "midi": 43,
                        "time": 128.77591049999876,
                        "velocity": 0.7874015748031497,
                        "duration": 0.21758943750003823
                    },
                    {
                        "name": "B4",
                        "midi": 71,
                        "time": 128.88701999999878,
                        "velocity": 0.7874015748031497,
                        "duration": 0.3286989375000644
                    },
                    {
                        "name": "B4",
                        "midi": 71,
                        "time": 128.88701999999878,
                        "velocity": 0.7874015748031497,
                        "duration": 0.3286989375000644
                    },
                    {
                        "name": "B3",
                        "midi": 59,
                        "time": 128.9981294999988,
                        "velocity": 0.7874015748031497,
                        "duration": 0.10647993750001206
                    },
                    {
                        "name": "G2",
                        "midi": 43,
                        "time": 129.10923899999884,
                        "velocity": 0.7874015748031497,
                        "duration": 0.21758943750003823
                    },
                    {
                        "name": "D5",
                        "midi": 74,
                        "time": 129.22034849999886,
                        "velocity": 0.7874015748031497,
                        "duration": 0.328698937500036
                    },
                    {
                        "name": "B4",
                        "midi": 71,
                        "time": 129.22034849999886,
                        "velocity": 0.7874015748031497,
                        "duration": 0.328698937500036
                    },
                    {
                        "name": "F#4",
                        "midi": 66,
                        "time": 129.3314579999989,
                        "velocity": 0.7874015748031497,
                        "duration": 0.2175894375000098
                    },
                    {
                        "name": "B3",
                        "midi": 59,
                        "time": 129.5536769999989,
                        "velocity": 0.7874015748031497,
                        "duration": 0.10647993750001206
                    },
                    {
                        "name": "B4",
                        "midi": 71,
                        "time": 129.5536769999989,
                        "velocity": 0.7874015748031497,
                        "duration": 0.21758943750003823
                    },
                    {
                        "name": "B4",
                        "midi": 71,
                        "time": 129.5536769999989,
                        "velocity": 0.7874015748031497,
                        "duration": 0.21758943750003823
                    },
                    {
                        "name": "G2",
                        "midi": 43,
                        "time": 129.66478649999894,
                        "velocity": 0.7874015748031497,
                        "duration": 0.21758943750003823
                    },
                    {
                        "name": "B4",
                        "midi": 71,
                        "time": 129.77589599999897,
                        "velocity": 0.7874015748031497,
                        "duration": 0.3286989375000644
                    },
                    {
                        "name": "F#5",
                        "midi": 78,
                        "time": 129.77589599999897,
                        "velocity": 0.7874015748031497,
                        "duration": 0.3286989375000644
                    },
                    {
                        "name": "B3",
                        "midi": 59,
                        "time": 129.887005499999,
                        "velocity": 0.7874015748031497,
                        "duration": 0.10647993750001206
                    },
                    {
                        "name": "G2",
                        "midi": 43,
                        "time": 129.99811499999902,
                        "velocity": 0.7874015748031497,
                        "duration": 0.21758943750003823
                    },
                    {
                        "name": "B4",
                        "midi": 71,
                        "time": 130.10922449999904,
                        "velocity": 0.7874015748031497,
                        "duration": 0.328698937500036
                    },
                    {
                        "name": "F#5",
                        "midi": 78,
                        "time": 130.10922449999904,
                        "velocity": 0.7874015748031497,
                        "duration": 0.328698937500036
                    },
                    {
                        "name": "D4",
                        "midi": 62,
                        "time": 130.22033399999907,
                        "velocity": 0.7874015748031497,
                        "duration": 0.2175894375000098
                    },
                    {
                        "name": "B3",
                        "midi": 59,
                        "time": 130.4425529999991,
                        "velocity": 0.7874015748031497,
                        "duration": 0.10647993750001206
                    },
                    {
                        "name": "B4",
                        "midi": 71,
                        "time": 130.4425529999991,
                        "velocity": 0.7874015748031497,
                        "duration": 0.21758943750003823
                    },
                    {
                        "name": "F#5",
                        "midi": 78,
                        "time": 130.4425529999991,
                        "velocity": 0.7874015748031497,
                        "duration": 0.21758943750003823
                    },
                    {
                        "name": "G2",
                        "midi": 43,
                        "time": 130.55366249999912,
                        "velocity": 0.7874015748031497,
                        "duration": 0.21758943750003823
                    },
                    {
                        "name": "B4",
                        "midi": 71,
                        "time": 130.66477199999915,
                        "velocity": 0.7874015748031497,
                        "duration": 0.3286989375000644
                    },
                    {
                        "name": "D5",
                        "midi": 74,
                        "time": 130.66477199999915,
                        "velocity": 0.7874015748031497,
                        "duration": 0.3286989375000644
                    },
                    {
                        "name": "B3",
                        "midi": 59,
                        "time": 130.77588149999917,
                        "velocity": 0.7874015748031497,
                        "duration": 0.10647993750001206
                    },
                    {
                        "name": "G2",
                        "midi": 43,
                        "time": 130.8869909999992,
                        "velocity": 0.7874015748031497,
                        "duration": 0.21758943750003823
                    },
                    {
                        "name": "D5",
                        "midi": 74,
                        "time": 130.99810049999923,
                        "velocity": 0.7874015748031497,
                        "duration": 0.328698937500036
                    },
                    {
                        "name": "D5",
                        "midi": 74,
                        "time": 130.99810049999923,
                        "velocity": 0.7874015748031497,
                        "duration": 1.4397939375002693
                    },
                    {
                        "name": "B3",
                        "midi": 59,
                        "time": 131.10920999999925,
                        "velocity": 0.7874015748031497,
                        "duration": 0.2175894375000098
                    },
                    {
                        "name": "C4",
                        "midi": 60,
                        "time": 131.33142899999928,
                        "velocity": 0.7874015748031497,
                        "duration": 0.21758943750003823
                    },
                    {
                        "name": "E4",
                        "midi": 64,
                        "time": 131.33142899999928,
                        "velocity": 0.7874015748031497,
                        "duration": 0.10647993750001206
                    },
                    {
                        "name": "B4",
                        "midi": 71,
                        "time": 131.33142899999928,
                        "velocity": 0.7874015748031497,
                        "duration": 0.21758943750003823
                    },
                    {
                        "name": "F#4",
                        "midi": 66,
                        "time": 131.4425384999993,
                        "velocity": 0.7874015748031497,
                        "duration": 0.10647993750001206
                    },
                    {
                        "name": "E2",
                        "midi": 40,
                        "time": 131.55364799999933,
                        "velocity": 0.7874015748031497,
                        "duration": 0.10647993750001206
                    },
                    {
                        "name": "G4",
                        "midi": 67,
                        "time": 131.55364799999933,
                        "velocity": 0.7874015748031497,
                        "duration": 0.3286989375000644
                    },
                    {
                        "name": "B4",
                        "midi": 71,
                        "time": 131.55364799999933,
                        "velocity": 0.7874015748031497,
                        "duration": 0.3286989375000644
                    },
                    {
                        "name": "B3",
                        "midi": 59,
                        "time": 131.66475749999935,
                        "velocity": 0.7874015748031497,
                        "duration": 0.10647993750001206
                    },
                    {
                        "name": "E2",
                        "midi": 40,
                        "time": 131.77586699999938,
                        "velocity": 0.7874015748031497,
                        "duration": 0.21758943750003823
                    },
                    {
                        "name": "G4",
                        "midi": 67,
                        "time": 131.8869764999994,
                        "velocity": 0.7874015748031497,
                        "duration": 0.328698937500036
                    },
                    {
                        "name": "B4",
                        "midi": 71,
                        "time": 131.8869764999994,
                        "velocity": 0.7874015748031497,
                        "duration": 0.328698937500036
                    },
                    {
                        "name": "G4",
                        "midi": 67,
                        "time": 131.99808599999943,
                        "velocity": 0.7874015748031497,
                        "duration": 0.2175894375000098
                    },
                    {
                        "name": "B3",
                        "midi": 59,
                        "time": 132.22030499999946,
                        "velocity": 0.7874015748031497,
                        "duration": 0.10647993750001206
                    },
                    {
                        "name": "G4",
                        "midi": 67,
                        "time": 132.22030499999946,
                        "velocity": 0.7874015748031497,
                        "duration": 1.4397939375003261
                    },
                    {
                        "name": "B4",
                        "midi": 71,
                        "time": 132.22030499999946,
                        "velocity": 0.7874015748031497,
                        "duration": 0.21758943750003823
                    },
                    {
                        "name": "E2",
                        "midi": 40,
                        "time": 132.33141449999948,
                        "velocity": 0.7874015748031497,
                        "duration": 0.21758943750003823
                    },
                    {
                        "name": "B4",
                        "midi": 71,
                        "time": 132.4425239999995,
                        "velocity": 0.7874015748031497,
                        "duration": 0.3286989375000644
                    },
                    {
                        "name": "B4",
                        "midi": 71,
                        "time": 132.4425239999995,
                        "velocity": 0.7874015748031497,
                        "duration": 0.3286989375000644
                    },
                    {
                        "name": "B3",
                        "midi": 59,
                        "time": 132.55363349999953,
                        "velocity": 0.7874015748031497,
                        "duration": 0.10647993750001206
                    },
                    {
                        "name": "E2",
                        "midi": 40,
                        "time": 132.66474299999956,
                        "velocity": 0.7874015748031497,
                        "duration": 0.21758943750003823
                    },
                    {
                        "name": "D5",
                        "midi": 74,
                        "time": 132.7758524999996,
                        "velocity": 0.7874015748031497,
                        "duration": 0.21758943750003823
                    },
                    {
                        "name": "B4",
                        "midi": 71,
                        "time": 132.7758524999996,
                        "velocity": 0.7874015748031497,
                        "duration": 0.3286989375000644
                    },
                    {
                        "name": "F#4",
                        "midi": 66,
                        "time": 132.8869619999996,
                        "velocity": 0.7874015748031497,
                        "duration": 0.21758943750003823
                    },
                    {
                        "name": "B4",
                        "midi": 71,
                        "time": 132.99807149999964,
                        "velocity": 0.7874015748031497,
                        "duration": 0.3286989375000644
                    },
                    {
                        "name": "B3",
                        "midi": 59,
                        "time": 133.10918099999967,
                        "velocity": 0.7874015748031497,
                        "duration": 0.10647993750001206
                    },
                    {
                        "name": "B4",
                        "midi": 71,
                        "time": 133.10918099999967,
                        "velocity": 0.7874015748031497,
                        "duration": 0.21758943750003823
                    },
                    {
                        "name": "C2",
                        "midi": 36,
                        "time": 133.2202904999997,
                        "velocity": 0.7874015748031497,
                        "duration": 0.21758943750003823
                    },
                    {
                        "name": "G4",
                        "midi": 67,
                        "time": 133.33139999999972,
                        "velocity": 0.7874015748031497,
                        "duration": 0.6620274375001145
                    },
                    {
                        "name": "G5",
                        "midi": 79,
                        "time": 133.33139999999972,
                        "velocity": 0.7874015748031497,
                        "duration": 0.3286989375000644
                    },
                    {
                        "name": "B3",
                        "midi": 59,
                        "time": 133.44250949999974,
                        "velocity": 0.7874015748031497,
                        "duration": 0.10647993750001206
                    },
                    {
                        "name": "C2",
                        "midi": 36,
                        "time": 133.55361899999977,
                        "velocity": 0.7874015748031497,
                        "duration": 0.21758943750003823
                    },
                    {
                        "name": "G4",
                        "midi": 67,
                        "time": 133.6647284999998,
                        "velocity": 0.7874015748031497,
                        "duration": 0.5509179375000883
                    },
                    {
                        "name": "G5",
                        "midi": 79,
                        "time": 133.6647284999998,
                        "velocity": 0.7874015748031497,
                        "duration": 0.328698937500036
                    },
                    {
                        "name": "D4",
                        "midi": 62,
                        "time": 133.77583799999982,
                        "velocity": 0.7874015748031497,
                        "duration": 0.2175894375000098
                    },
                    {
                        "name": "B3",
                        "midi": 59,
                        "time": 133.99805699999985,
                        "velocity": 0.7874015748031497,
                        "duration": 0.10647993750001206
                    },
                    {
                        "name": "G4",
                        "midi": 67,
                        "time": 133.99805699999985,
                        "velocity": 0.7874015748031497,
                        "duration": 0.8842464375001668
                    },
                    {
                        "name": "G5",
                        "midi": 79,
                        "time": 133.99805699999985,
                        "velocity": 0.7874015748031497,
                        "duration": 0.21758943750003823
                    },
                    {
                        "name": "C2",
                        "midi": 36,
                        "time": 134.10916649999987,
                        "velocity": 0.7874015748031497,
                        "duration": 0.21758943750003823
                    },
                    {
                        "name": "A4",
                        "midi": 69,
                        "time": 134.2202759999999,
                        "velocity": 0.7874015748031497,
                        "duration": 0.3286989375000644
                    },
                    {
                        "name": "F#5",
                        "midi": 78,
                        "time": 134.2202759999999,
                        "velocity": 0.7874015748031497,
                        "duration": 0.3286989375000644
                    },
                    {
                        "name": "B3",
                        "midi": 59,
                        "time": 134.33138549999993,
                        "velocity": 0.7874015748031497,
                        "duration": 0.10647993750001206
                    },
                    {
                        "name": "C2",
                        "midi": 36,
                        "time": 134.44249499999995,
                        "velocity": 0.7874015748031497,
                        "duration": 0.21758943750003823
                    },
                    {
                        "name": "A4",
                        "midi": 69,
                        "time": 134.55360449999998,
                        "velocity": 0.7874015748031497,
                        "duration": 0.328698937500036
                    },
                    {
                        "name": "F#5",
                        "midi": 78,
                        "time": 134.55360449999998,
                        "velocity": 0.7874015748031497,
                        "duration": 1.4397939375002693
                    },
                    {
                        "name": "B3",
                        "midi": 59,
                        "time": 134.664714,
                        "velocity": 0.7874015748031497,
                        "duration": 0.2175894375000098
                    },
                    {
                        "name": "C4",
                        "midi": 60,
                        "time": 134.88693300000003,
                        "velocity": 0.7874015748031497,
                        "duration": 0.21758943750003823
                    },
                    {
                        "name": "E4",
                        "midi": 64,
                        "time": 134.88693300000003,
                        "velocity": 0.7874015748031497,
                        "duration": 0.10647993750001206
                    },
                    {
                        "name": "A4",
                        "midi": 69,
                        "time": 134.88693300000003,
                        "velocity": 0.7874015748031497,
                        "duration": 0.21758943750003823
                    },
                    {
                        "name": "F#4",
                        "midi": 66,
                        "time": 134.99804250000005,
                        "velocity": 0.7874015748031497,
                        "duration": 0.10647993750001206
                    },
                    {
                        "name": "G2",
                        "midi": 43,
                        "time": 135.10915200000008,
                        "velocity": 0.7874015748031497,
                        "duration": 0.10647993750001206
                    },
                    {
                        "name": "G4",
                        "midi": 67,
                        "time": 135.10915200000008,
                        "velocity": 0.7874015748031497,
                        "duration": 0.3286989375000644
                    },
                    {
                        "name": "B4",
                        "midi": 71,
                        "time": 135.10915200000008,
                        "velocity": 0.7874015748031497,
                        "duration": 0.3286989375000644
                    },
                    {
                        "name": "B3",
                        "midi": 59,
                        "time": 135.2202615000001,
                        "velocity": 0.7874015748031497,
                        "duration": 0.10647993750001206
                    },
                    {
                        "name": "G2",
                        "midi": 43,
                        "time": 135.33137100000013,
                        "velocity": 0.7874015748031497,
                        "duration": 0.21758943750003823
                    },
                    {
                        "name": "G4",
                        "midi": 67,
                        "time": 135.44248050000016,
                        "velocity": 0.7874015748031497,
                        "duration": 0.328698937500036
                    },
                    {
                        "name": "B4",
                        "midi": 71,
                        "time": 135.44248050000016,
                        "velocity": 0.7874015748031497,
                        "duration": 0.328698937500036
                    },
                    {
                        "name": "G4",
                        "midi": 67,
                        "time": 135.55359000000018,
                        "velocity": 0.7874015748031497,
                        "duration": 0.2175894375000098
                    },
                    {
                        "name": "B3",
                        "midi": 59,
                        "time": 135.7758090000002,
                        "velocity": 0.7874015748031497,
                        "duration": 0.10647993750001206
                    },
                    {
                        "name": "G4",
                        "midi": 67,
                        "time": 135.7758090000002,
                        "velocity": 0.7874015748031497,
                        "duration": 2.661998437500529
                    },
                    {
                        "name": "B4",
                        "midi": 71,
                        "time": 135.7758090000002,
                        "velocity": 0.7874015748031497,
                        "duration": 0.21758943750003823
                    },
                    {
                        "name": "G2",
                        "midi": 43,
                        "time": 135.88691850000023,
                        "velocity": 0.7874015748031497,
                        "duration": 0.21758943750003823
                    },
                    {
                        "name": "B4",
                        "midi": 71,
                        "time": 135.99802800000026,
                        "velocity": 0.7874015748031497,
                        "duration": 0.3286989375000644
                    },
                    {
                        "name": "B4",
                        "midi": 71,
                        "time": 135.99802800000026,
                        "velocity": 0.7874015748031497,
                        "duration": 0.3286989375000644
                    },
                    {
                        "name": "B3",
                        "midi": 59,
                        "time": 136.1091375000003,
                        "velocity": 0.7874015748031497,
                        "duration": 0.10647993750001206
                    },
                    {
                        "name": "G2",
                        "midi": 43,
                        "time": 136.2202470000003,
                        "velocity": 0.7874015748031497,
                        "duration": 0.21758943750003823
                    },
                    {
                        "name": "D5",
                        "midi": 74,
                        "time": 136.33135650000034,
                        "velocity": 0.7874015748031497,
                        "duration": 0.328698937500036
                    },
                    {
                        "name": "B4",
                        "midi": 71,
                        "time": 136.33135650000034,
                        "velocity": 0.7874015748031497,
                        "duration": 0.328698937500036
                    },
                    {
                        "name": "F#4",
                        "midi": 66,
                        "time": 136.44246600000037,
                        "velocity": 0.7874015748031497,
                        "duration": 0.2175894375000098
                    },
                    {
                        "name": "B3",
                        "midi": 59,
                        "time": 136.6646850000004,
                        "velocity": 0.7874015748031497,
                        "duration": 0.10647993750001206
                    },
                    {
                        "name": "B4",
                        "midi": 71,
                        "time": 136.6646850000004,
                        "velocity": 0.7874015748031497,
                        "duration": 0.21758943750003823
                    },
                    {
                        "name": "B4",
                        "midi": 71,
                        "time": 136.6646850000004,
                        "velocity": 0.7874015748031497,
                        "duration": 0.21758943750003823
                    },
                    {
                        "name": "G2",
                        "midi": 43,
                        "time": 136.77579450000042,
                        "velocity": 0.7874015748031497,
                        "duration": 0.21758943750003823
                    },
                    {
                        "name": "B4",
                        "midi": 71,
                        "time": 136.88690400000044,
                        "velocity": 0.7874015748031497,
                        "duration": 0.3286989375000644
                    },
                    {
                        "name": "F#5",
                        "midi": 78,
                        "time": 136.88690400000044,
                        "velocity": 0.7874015748031497,
                        "duration": 0.3286989375000644
                    },
                    {
                        "name": "B3",
                        "midi": 59,
                        "time": 136.99801350000047,
                        "velocity": 0.7874015748031497,
                        "duration": 0.10647993750001206
                    },
                    {
                        "name": "G2",
                        "midi": 43,
                        "time": 137.1091230000005,
                        "velocity": 0.7874015748031497,
                        "duration": 0.21758943750003823
                    },
                    {
                        "name": "B4",
                        "midi": 71,
                        "time": 137.22023250000052,
                        "velocity": 0.7874015748031497,
                        "duration": 0.328698937500036
                    },
                    {
                        "name": "F#5",
                        "midi": 78,
                        "time": 137.22023250000052,
                        "velocity": 0.7874015748031497,
                        "duration": 0.328698937500036
                    },
                    {
                        "name": "D4",
                        "midi": 62,
                        "time": 137.33134200000055,
                        "velocity": 0.7874015748031497,
                        "duration": 0.2175894375000098
                    },
                    {
                        "name": "B3",
                        "midi": 59,
                        "time": 137.55356100000057,
                        "velocity": 0.7874015748031497,
                        "duration": 0.10647993750001206
                    },
                    {
                        "name": "B4",
                        "midi": 71,
                        "time": 137.55356100000057,
                        "velocity": 0.7874015748031497,
                        "duration": 0.21758943750003823
                    },
                    {
                        "name": "F#5",
                        "midi": 78,
                        "time": 137.55356100000057,
                        "velocity": 0.7874015748031497,
                        "duration": 0.21758943750003823
                    },
                    {
                        "name": "G2",
                        "midi": 43,
                        "time": 137.6646705000006,
                        "velocity": 0.7874015748031497,
                        "duration": 0.21758943750003823
                    },
                    {
                        "name": "B4",
                        "midi": 71,
                        "time": 137.77578000000062,
                        "velocity": 0.7874015748031497,
                        "duration": 0.3286989375000644
                    },
                    {
                        "name": "D5",
                        "midi": 74,
                        "time": 137.77578000000062,
                        "velocity": 0.7874015748031497,
                        "duration": 0.3286989375000644
                    },
                    {
                        "name": "B3",
                        "midi": 59,
                        "time": 137.88688950000065,
                        "velocity": 0.7874015748031497,
                        "duration": 0.10647993750001206
                    },
                    {
                        "name": "G2",
                        "midi": 43,
                        "time": 137.99799900000068,
                        "velocity": 0.7874015748031497,
                        "duration": 0.21758943750003823
                    },
                    {
                        "name": "D5",
                        "midi": 74,
                        "time": 138.1091085000007,
                        "velocity": 0.7874015748031497,
                        "duration": 0.328698937500036
                    },
                    {
                        "name": "D5",
                        "midi": 74,
                        "time": 138.1091085000007,
                        "velocity": 0.7874015748031497,
                        "duration": 1.4397939375002693
                    },
                    {
                        "name": "B3",
                        "midi": 59,
                        "time": 138.22021800000073,
                        "velocity": 0.7874015748031497,
                        "duration": 0.2175894375000098
                    },
                    {
                        "name": "C4",
                        "midi": 60,
                        "time": 138.44243700000075,
                        "velocity": 0.7874015748031497,
                        "duration": 0.21758943750003823
                    },
                    {
                        "name": "E4",
                        "midi": 64,
                        "time": 138.44243700000075,
                        "velocity": 0.7874015748031497,
                        "duration": 0.10647993750001206
                    },
                    {
                        "name": "B4",
                        "midi": 71,
                        "time": 138.44243700000075,
                        "velocity": 0.7874015748031497,
                        "duration": 0.21758943750003823
                    },
                    {
                        "name": "F#4",
                        "midi": 66,
                        "time": 138.55354650000078,
                        "velocity": 0.7874015748031497,
                        "duration": 0.10647993750001206
                    },
                    {
                        "name": "E2",
                        "midi": 40,
                        "time": 138.6646560000008,
                        "velocity": 0.7874015748031497,
                        "duration": 0.10647993750001206
                    },
                    {
                        "name": "G4",
                        "midi": 67,
                        "time": 138.6646560000008,
                        "velocity": 0.7874015748031497,
                        "duration": 0.3286989375000644
                    },
                    {
                        "name": "B4",
                        "midi": 71,
                        "time": 138.6646560000008,
                        "velocity": 0.7874015748031497,
                        "duration": 0.3286989375000644
                    },
                    {
                        "name": "B3",
                        "midi": 59,
                        "time": 138.77576550000083,
                        "velocity": 0.7874015748031497,
                        "duration": 0.10647993750001206
                    },
                    {
                        "name": "E2",
                        "midi": 40,
                        "time": 138.88687500000086,
                        "velocity": 0.7874015748031497,
                        "duration": 0.21758943750003823
                    },
                    {
                        "name": "G4",
                        "midi": 67,
                        "time": 138.99798450000088,
                        "velocity": 0.7874015748031497,
                        "duration": 0.328698937500036
                    },
                    {
                        "name": "B4",
                        "midi": 71,
                        "time": 138.99798450000088,
                        "velocity": 0.7874015748031497,
                        "duration": 0.328698937500036
                    },
                    {
                        "name": "G4",
                        "midi": 67,
                        "time": 139.1090940000009,
                        "velocity": 0.7874015748031497,
                        "duration": 0.2175894375000098
                    },
                    {
                        "name": "B3",
                        "midi": 59,
                        "time": 139.33131300000093,
                        "velocity": 0.7874015748031497,
                        "duration": 0.10647993750001206
                    },
                    {
                        "name": "G4",
                        "midi": 67,
                        "time": 139.33131300000093,
                        "velocity": 0.7874015748031497,
                        "duration": 1.4397939375003261
                    },
                    {
                        "name": "B4",
                        "midi": 71,
                        "time": 139.33131300000093,
                        "velocity": 0.7874015748031497,
                        "duration": 0.21758943750003823
                    },
                    {
                        "name": "E2",
                        "midi": 40,
                        "time": 139.44242250000096,
                        "velocity": 0.7874015748031497,
                        "duration": 0.21758943750003823
                    },
                    {
                        "name": "B4",
                        "midi": 71,
                        "time": 139.55353200000098,
                        "velocity": 0.7874015748031497,
                        "duration": 0.3286989375000644
                    },
                    {
                        "name": "B4",
                        "midi": 71,
                        "time": 139.55353200000098,
                        "velocity": 0.7874015748031497,
                        "duration": 0.3286989375000644
                    },
                    {
                        "name": "B3",
                        "midi": 59,
                        "time": 139.664641500001,
                        "velocity": 0.7874015748031497,
                        "duration": 0.10647993750001206
                    },
                    {
                        "name": "E2",
                        "midi": 40,
                        "time": 139.77575100000104,
                        "velocity": 0.7874015748031497,
                        "duration": 0.21758943750003823
                    },
                    {
                        "name": "D5",
                        "midi": 74,
                        "time": 139.88686050000106,
                        "velocity": 0.7874015748031497,
                        "duration": 0.21758943750003823
                    },
                    {
                        "name": "B4",
                        "midi": 71,
                        "time": 139.88686050000106,
                        "velocity": 0.7874015748031497,
                        "duration": 0.3286989375000644
                    },
                    {
                        "name": "F#4",
                        "midi": 66,
                        "time": 139.9979700000011,
                        "velocity": 0.7874015748031497,
                        "duration": 0.21758943750003823
                    },
                    {
                        "name": "B4",
                        "midi": 71,
                        "time": 140.10907950000112,
                        "velocity": 0.7874015748031497,
                        "duration": 0.3286989375000644
                    },
                    {
                        "name": "B3",
                        "midi": 59,
                        "time": 140.22018900000114,
                        "velocity": 0.7874015748031497,
                        "duration": 0.10647993750001206
                    },
                    {
                        "name": "B4",
                        "midi": 71,
                        "time": 140.22018900000114,
                        "velocity": 0.7874015748031497,
                        "duration": 0.21758943750003823
                    },
                    {
                        "name": "C2",
                        "midi": 36,
                        "time": 140.33129850000117,
                        "velocity": 0.7874015748031497,
                        "duration": 0.21758943750003823
                    },
                    {
                        "name": "G4",
                        "midi": 67,
                        "time": 140.4424080000012,
                        "velocity": 0.7874015748031497,
                        "duration": 0.6620274375001145
                    },
                    {
                        "name": "G5",
                        "midi": 79,
                        "time": 140.4424080000012,
                        "velocity": 0.7874015748031497,
                        "duration": 0.3286989375000644
                    },
                    {
                        "name": "B3",
                        "midi": 59,
                        "time": 140.55351750000122,
                        "velocity": 0.7874015748031497,
                        "duration": 0.10647993750001206
                    },
                    {
                        "name": "C2",
                        "midi": 36,
                        "time": 140.66462700000125,
                        "velocity": 0.7874015748031497,
                        "duration": 0.21758943750003823
                    },
                    {
                        "name": "G4",
                        "midi": 67,
                        "time": 140.77573650000127,
                        "velocity": 0.7874015748031497,
                        "duration": 0.5509179375000883
                    },
                    {
                        "name": "G5",
                        "midi": 79,
                        "time": 140.77573650000127,
                        "velocity": 0.7874015748031497,
                        "duration": 0.328698937500036
                    },
                    {
                        "name": "D4",
                        "midi": 62,
                        "time": 140.8868460000013,
                        "velocity": 0.7874015748031497,
                        "duration": 0.2175894375000098
                    },
                    {
                        "name": "B3",
                        "midi": 59,
                        "time": 141.10906500000132,
                        "velocity": 0.7874015748031497,
                        "duration": 0.10647993750001206
                    },
                    {
                        "name": "G4",
                        "midi": 67,
                        "time": 141.10906500000132,
                        "velocity": 0.7874015748031497,
                        "duration": 0.8842464375001668
                    },
                    {
                        "name": "G5",
                        "midi": 79,
                        "time": 141.10906500000132,
                        "velocity": 0.7874015748031497,
                        "duration": 0.21758943750003823
                    },
                    {
                        "name": "C2",
                        "midi": 36,
                        "time": 141.22017450000135,
                        "velocity": 0.7874015748031497,
                        "duration": 0.21758943750003823
                    },
                    {
                        "name": "A4",
                        "midi": 69,
                        "time": 141.33128400000138,
                        "velocity": 0.7874015748031497,
                        "duration": 0.3286989375000644
                    },
                    {
                        "name": "F#5",
                        "midi": 78,
                        "time": 141.33128400000138,
                        "velocity": 0.7874015748031497,
                        "duration": 0.3286989375000644
                    },
                    {
                        "name": "B3",
                        "midi": 59,
                        "time": 141.4423935000014,
                        "velocity": 0.7874015748031497,
                        "duration": 0.10647993750001206
                    },
                    {
                        "name": "C2",
                        "midi": 36,
                        "time": 141.55350300000143,
                        "velocity": 0.7874015748031497,
                        "duration": 0.21758943750003823
                    },
                    {
                        "name": "A4",
                        "midi": 69,
                        "time": 141.66461250000145,
                        "velocity": 0.7874015748031497,
                        "duration": 0.328698937500036
                    },
                    {
                        "name": "F#5",
                        "midi": 78,
                        "time": 141.66461250000145,
                        "velocity": 0.7874015748031497,
                        "duration": 0.5509179375000883
                    },
                    {
                        "name": "B3",
                        "midi": 59,
                        "time": 141.77572200000148,
                        "velocity": 0.7874015748031497,
                        "duration": 0.2175894375000098
                    },
                    {
                        "name": "C4",
                        "midi": 60,
                        "time": 141.9979410000015,
                        "velocity": 0.7874015748031497,
                        "duration": 0.21758943750003823
                    },
                    {
                        "name": "E4",
                        "midi": 64,
                        "time": 141.9979410000015,
                        "velocity": 0.7874015748031497,
                        "duration": 0.10647993750001206
                    },
                    {
                        "name": "A4",
                        "midi": 69,
                        "time": 141.9979410000015,
                        "velocity": 0.7874015748031497,
                        "duration": 0.21758943750003823
                    },
                    {
                        "name": "F#4",
                        "midi": 66,
                        "time": 142.10905050000153,
                        "velocity": 0.7874015748031497,
                        "duration": 0.10647993750001206
                    }
                ],
                "controlChanges": {
                    "1": [
                        {
                            "number": 1,
                            "time": 0,
                            "value": 0.7086614173228346
                        }
                    ],
                    "64": [
                        {
                            "number": 64,
                            "time": 0,
                            "value": 1
                        }
                    ]
                },
                "id": 1,
                "instrumentNumber": 5,
                "instrument": "electric piano 2",
                "instrumentFamily": "piano",
                "channelNumber": 0,
                "isPercussion": false
            },
            {
                "startTime": 7.111008,
                "duration": 127.99351443749883,
                "length": 323,
                "notes": [
                    {
                        "name": "G1",
                        "midi": 31,
                        "time": 7.111008,
                        "velocity": 0.7874015748031497,
                        "duration": 0.32869893750000045
                    },
                    {
                        "name": "G1",
                        "midi": 31,
                        "time": 7.4443365,
                        "velocity": 0.7874015748031497,
                        "duration": 0.32869893750000045
                    },
                    {
                        "name": "G1",
                        "midi": 31,
                        "time": 7.777665000000001,
                        "velocity": 0.7874015748031497,
                        "duration": 0.21758943750000004
                    },
                    {
                        "name": "G1",
                        "midi": 31,
                        "time": 7.999884000000001,
                        "velocity": 0.7874015748031497,
                        "duration": 0.32869893749999957
                    },
                    {
                        "name": "G1",
                        "midi": 31,
                        "time": 8.3332125,
                        "velocity": 0.7874015748031497,
                        "duration": 0.32869893750000045
                    },
                    {
                        "name": "G1",
                        "midi": 31,
                        "time": 8.888760000000001,
                        "velocity": 0.7874015748031497,
                        "duration": 0.32869893750000045
                    },
                    {
                        "name": "G1",
                        "midi": 31,
                        "time": 9.222088500000002,
                        "velocity": 0.7874015748031497,
                        "duration": 0.32869893750000045
                    },
                    {
                        "name": "G1",
                        "midi": 31,
                        "time": 9.777636000000003,
                        "velocity": 0.7874015748031497,
                        "duration": 0.32869893750000045
                    },
                    {
                        "name": "G1",
                        "midi": 31,
                        "time": 10.110964500000003,
                        "velocity": 0.7874015748031497,
                        "duration": 0.32869893750000045
                    },
                    {
                        "name": "E1",
                        "midi": 28,
                        "time": 10.666512000000004,
                        "velocity": 0.7874015748031497,
                        "duration": 0.32869893750000045
                    },
                    {
                        "name": "E1",
                        "midi": 28,
                        "time": 10.999840500000005,
                        "velocity": 0.7874015748031497,
                        "duration": 0.32869893750000045
                    },
                    {
                        "name": "E1",
                        "midi": 28,
                        "time": 11.333169000000005,
                        "velocity": 0.7874015748031497,
                        "duration": 0.21758943749999915
                    },
                    {
                        "name": "E1",
                        "midi": 28,
                        "time": 11.555388000000004,
                        "velocity": 0.7874015748031497,
                        "duration": 0.32869893750000045
                    },
                    {
                        "name": "E1",
                        "midi": 28,
                        "time": 11.888716500000005,
                        "velocity": 0.7874015748031497,
                        "duration": 0.32869893750000045
                    },
                    {
                        "name": "C2",
                        "midi": 36,
                        "time": 12.444264000000006,
                        "velocity": 0.7874015748031497,
                        "duration": 0.32869893750000045
                    },
                    {
                        "name": "C2",
                        "midi": 36,
                        "time": 12.777592500000006,
                        "velocity": 0.7874015748031497,
                        "duration": 0.32869893750000045
                    },
                    {
                        "name": "C2",
                        "midi": 36,
                        "time": 13.333140000000007,
                        "velocity": 0.7874015748031497,
                        "duration": 0.32869893750000045
                    },
                    {
                        "name": "C2",
                        "midi": 36,
                        "time": 13.666468500000008,
                        "velocity": 0.7874015748031497,
                        "duration": 0.32869893750000045
                    },
                    {
                        "name": "C2",
                        "midi": 36,
                        "time": 13.999797000000008,
                        "velocity": 0.7874015748031497,
                        "duration": 0.21758943749999915
                    },
                    {
                        "name": "G1",
                        "midi": 31,
                        "time": 14.222016000000007,
                        "velocity": 0.7874015748031497,
                        "duration": 0.32869893750000045
                    },
                    {
                        "name": "G1",
                        "midi": 31,
                        "time": 14.555344500000007,
                        "velocity": 0.7874015748031497,
                        "duration": 0.32869893750000045
                    },
                    {
                        "name": "G1",
                        "midi": 31,
                        "time": 14.888673000000008,
                        "velocity": 0.7874015748031497,
                        "duration": 0.21758943749999915
                    },
                    {
                        "name": "G1",
                        "midi": 31,
                        "time": 15.110892000000007,
                        "velocity": 0.7874015748031497,
                        "duration": 0.32869893750000045
                    },
                    {
                        "name": "G1",
                        "midi": 31,
                        "time": 15.444220500000007,
                        "velocity": 0.7874015748031497,
                        "duration": 0.32869893750000045
                    },
                    {
                        "name": "G1",
                        "midi": 31,
                        "time": 15.999768000000008,
                        "velocity": 0.7874015748031497,
                        "duration": 0.3286989374999987
                    },
                    {
                        "name": "G1",
                        "midi": 31,
                        "time": 16.333096500000007,
                        "velocity": 0.7874015748031497,
                        "duration": 0.32869893750000045
                    },
                    {
                        "name": "G1",
                        "midi": 31,
                        "time": 16.888644000000006,
                        "velocity": 0.7874015748031497,
                        "duration": 0.32869893750000045
                    },
                    {
                        "name": "G1",
                        "midi": 31,
                        "time": 17.221972500000007,
                        "velocity": 0.7874015748031497,
                        "duration": 0.32869893750000045
                    },
                    {
                        "name": "E1",
                        "midi": 28,
                        "time": 17.777520000000006,
                        "velocity": 0.7874015748031497,
                        "duration": 0.32869893750000045
                    },
                    {
                        "name": "E1",
                        "midi": 28,
                        "time": 18.110848500000007,
                        "velocity": 0.7874015748031497,
                        "duration": 0.32869893750000045
                    },
                    {
                        "name": "E1",
                        "midi": 28,
                        "time": 18.444177000000007,
                        "velocity": 0.7874015748031497,
                        "duration": 0.21758943749999915
                    },
                    {
                        "name": "E1",
                        "midi": 28,
                        "time": 18.666396000000006,
                        "velocity": 0.7874015748031497,
                        "duration": 0.32869893750000045
                    },
                    {
                        "name": "E1",
                        "midi": 28,
                        "time": 18.999724500000006,
                        "velocity": 0.7874015748031497,
                        "duration": 0.32869893750000045
                    },
                    {
                        "name": "C2",
                        "midi": 36,
                        "time": 19.555272000000006,
                        "velocity": 0.7874015748031497,
                        "duration": 0.32869893750000045
                    },
                    {
                        "name": "C2",
                        "midi": 36,
                        "time": 19.888600500000006,
                        "velocity": 0.7874015748031497,
                        "duration": 0.32869893750000045
                    },
                    {
                        "name": "C2",
                        "midi": 36,
                        "time": 20.444148000000006,
                        "velocity": 0.7874015748031497,
                        "duration": 0.32869893750000045
                    },
                    {
                        "name": "C2",
                        "midi": 36,
                        "time": 20.777476500000006,
                        "velocity": 0.7874015748031497,
                        "duration": 0.32869893750000045
                    },
                    {
                        "name": "C2",
                        "midi": 36,
                        "time": 21.110805000000006,
                        "velocity": 0.7874015748031497,
                        "duration": 0.21758943749999915
                    },
                    {
                        "name": "G1",
                        "midi": 31,
                        "time": 21.333024000000005,
                        "velocity": 0.7874015748031497,
                        "duration": 0.32869893750000045
                    },
                    {
                        "name": "G1",
                        "midi": 31,
                        "time": 21.666352500000006,
                        "velocity": 0.7874015748031497,
                        "duration": 0.32869893750000045
                    },
                    {
                        "name": "G1",
                        "midi": 31,
                        "time": 21.999681000000006,
                        "velocity": 0.7874015748031497,
                        "duration": 0.21758943749999915
                    },
                    {
                        "name": "G1",
                        "midi": 31,
                        "time": 22.221900000000005,
                        "velocity": 0.7874015748031497,
                        "duration": 0.32869893750000045
                    },
                    {
                        "name": "G1",
                        "midi": 31,
                        "time": 22.555228500000005,
                        "velocity": 0.7874015748031497,
                        "duration": 0.32869893750000045
                    },
                    {
                        "name": "G1",
                        "midi": 31,
                        "time": 23.110776000000005,
                        "velocity": 0.7874015748031497,
                        "duration": 0.32869893750000045
                    },
                    {
                        "name": "G1",
                        "midi": 31,
                        "time": 23.444104500000005,
                        "velocity": 0.7874015748031497,
                        "duration": 0.32869893750000045
                    },
                    {
                        "name": "G1",
                        "midi": 31,
                        "time": 23.999652000000005,
                        "velocity": 0.7874015748031497,
                        "duration": 0.32869893750000045
                    },
                    {
                        "name": "G1",
                        "midi": 31,
                        "time": 24.332980500000005,
                        "velocity": 0.7874015748031497,
                        "duration": 0.32869893750000045
                    },
                    {
                        "name": "E1",
                        "midi": 28,
                        "time": 24.888528000000004,
                        "velocity": 0.7874015748031497,
                        "duration": 0.32869893750000045
                    },
                    {
                        "name": "E1",
                        "midi": 28,
                        "time": 25.221856500000005,
                        "velocity": 0.7874015748031497,
                        "duration": 0.32869893750000045
                    },
                    {
                        "name": "E1",
                        "midi": 28,
                        "time": 25.555185000000005,
                        "velocity": 0.7874015748031497,
                        "duration": 0.21758943749999915
                    },
                    {
                        "name": "E1",
                        "midi": 28,
                        "time": 25.777404000000004,
                        "velocity": 0.7874015748031497,
                        "duration": 0.32869893750000045
                    },
                    {
                        "name": "E1",
                        "midi": 28,
                        "time": 26.110732500000005,
                        "velocity": 0.7874015748031497,
                        "duration": 0.32869893750000045
                    },
                    {
                        "name": "C2",
                        "midi": 36,
                        "time": 26.666280000000004,
                        "velocity": 0.7874015748031497,
                        "duration": 0.32869893750000045
                    },
                    {
                        "name": "C2",
                        "midi": 36,
                        "time": 26.999608500000004,
                        "velocity": 0.7874015748031497,
                        "duration": 0.32869893750000045
                    },
                    {
                        "name": "C2",
                        "midi": 36,
                        "time": 27.555156000000004,
                        "velocity": 0.7874015748031497,
                        "duration": 0.32869893750000045
                    },
                    {
                        "name": "C2",
                        "midi": 36,
                        "time": 27.888484500000004,
                        "velocity": 0.7874015748031497,
                        "duration": 0.32869893750000045
                    },
                    {
                        "name": "C2",
                        "midi": 36,
                        "time": 28.221813000000004,
                        "velocity": 0.7874015748031497,
                        "duration": 0.21758943749999915
                    },
                    {
                        "name": "G1",
                        "midi": 31,
                        "time": 28.444032000000004,
                        "velocity": 0.7874015748031497,
                        "duration": 0.32869893750000045
                    },
                    {
                        "name": "G1",
                        "midi": 31,
                        "time": 28.777360500000004,
                        "velocity": 0.7874015748031497,
                        "duration": 0.32869893750000045
                    },
                    {
                        "name": "G1",
                        "midi": 31,
                        "time": 29.110689000000004,
                        "velocity": 0.7874015748031497,
                        "duration": 0.21758943749999915
                    },
                    {
                        "name": "G1",
                        "midi": 31,
                        "time": 29.332908000000003,
                        "velocity": 0.7874015748031497,
                        "duration": 0.32869893750000045
                    },
                    {
                        "name": "G1",
                        "midi": 31,
                        "time": 29.666236500000004,
                        "velocity": 0.7874015748031497,
                        "duration": 0.32869893750000045
                    },
                    {
                        "name": "G1",
                        "midi": 31,
                        "time": 30.221784000000003,
                        "velocity": 0.7874015748031497,
                        "duration": 0.32869893750000045
                    },
                    {
                        "name": "G1",
                        "midi": 31,
                        "time": 30.555112500000003,
                        "velocity": 0.7874015748031497,
                        "duration": 0.32869893750000045
                    },
                    {
                        "name": "G1",
                        "midi": 31,
                        "time": 31.110660000000003,
                        "velocity": 0.7874015748031497,
                        "duration": 0.32869893750000045
                    },
                    {
                        "name": "G1",
                        "midi": 31,
                        "time": 31.443988500000003,
                        "velocity": 0.7874015748031497,
                        "duration": 0.32869893750000045
                    },
                    {
                        "name": "E1",
                        "midi": 28,
                        "time": 31.999536000000003,
                        "velocity": 0.7874015748031497,
                        "duration": 0.3286989374999969
                    },
                    {
                        "name": "E1",
                        "midi": 28,
                        "time": 32.3328645,
                        "velocity": 0.7874015748031497,
                        "duration": 0.32869893750000045
                    },
                    {
                        "name": "E1",
                        "midi": 28,
                        "time": 32.666193,
                        "velocity": 0.7874015748031497,
                        "duration": 0.2175894375000027
                    },
                    {
                        "name": "E1",
                        "midi": 28,
                        "time": 32.888412,
                        "velocity": 0.7874015748031497,
                        "duration": 0.32869893750000045
                    },
                    {
                        "name": "E1",
                        "midi": 28,
                        "time": 33.2217405,
                        "velocity": 0.7874015748031497,
                        "duration": 0.32869893750000045
                    },
                    {
                        "name": "C2",
                        "midi": 36,
                        "time": 33.777288000000006,
                        "velocity": 0.7874015748031497,
                        "duration": 0.32869893750000045
                    },
                    {
                        "name": "C2",
                        "midi": 36,
                        "time": 34.110616500000006,
                        "velocity": 0.7874015748031497,
                        "duration": 0.32869893750000045
                    },
                    {
                        "name": "C2",
                        "midi": 36,
                        "time": 34.66616400000001,
                        "velocity": 0.7874015748031497,
                        "duration": 0.32869893750000045
                    },
                    {
                        "name": "C2",
                        "midi": 36,
                        "time": 34.99949250000001,
                        "velocity": 0.7874015748031497,
                        "duration": 0.32869893750000045
                    },
                    {
                        "name": "C2",
                        "midi": 36,
                        "time": 35.33282100000001,
                        "velocity": 0.7874015748031497,
                        "duration": 0.2175894375000027
                    },
                    {
                        "name": "G1",
                        "midi": 31,
                        "time": 35.55504000000001,
                        "velocity": 0.7874015748031497,
                        "duration": 0.32869893750000045
                    },
                    {
                        "name": "G1",
                        "midi": 31,
                        "time": 35.88836850000001,
                        "velocity": 0.7874015748031497,
                        "duration": 0.32869893750000045
                    },
                    {
                        "name": "G1",
                        "midi": 31,
                        "time": 36.22169700000001,
                        "velocity": 0.7874015748031497,
                        "duration": 0.2175894375000027
                    },
                    {
                        "name": "G1",
                        "midi": 31,
                        "time": 36.443916000000016,
                        "velocity": 0.7874015748031497,
                        "duration": 0.32869893750000045
                    },
                    {
                        "name": "G1",
                        "midi": 31,
                        "time": 36.777244500000016,
                        "velocity": 0.7874015748031497,
                        "duration": 0.32869893750000045
                    },
                    {
                        "name": "G1",
                        "midi": 31,
                        "time": 37.33279200000002,
                        "velocity": 0.7874015748031497,
                        "duration": 0.32869893750000045
                    },
                    {
                        "name": "G1",
                        "midi": 31,
                        "time": 37.66612050000002,
                        "velocity": 0.7874015748031497,
                        "duration": 0.32869893750000045
                    },
                    {
                        "name": "G1",
                        "midi": 31,
                        "time": 38.22166800000002,
                        "velocity": 0.7874015748031497,
                        "duration": 0.32869893750000045
                    },
                    {
                        "name": "G1",
                        "midi": 31,
                        "time": 38.55499650000002,
                        "velocity": 0.7874015748031497,
                        "duration": 0.32869893750000045
                    },
                    {
                        "name": "E1",
                        "midi": 28,
                        "time": 39.110544000000026,
                        "velocity": 0.7874015748031497,
                        "duration": 0.32869893750000045
                    },
                    {
                        "name": "E1",
                        "midi": 28,
                        "time": 39.443872500000026,
                        "velocity": 0.7874015748031497,
                        "duration": 0.32869893750000045
                    },
                    {
                        "name": "E1",
                        "midi": 28,
                        "time": 39.77720100000003,
                        "velocity": 0.7874015748031497,
                        "duration": 0.2175894375000027
                    },
                    {
                        "name": "E1",
                        "midi": 28,
                        "time": 39.99942000000003,
                        "velocity": 0.7874015748031497,
                        "duration": 0.32869893750000045
                    },
                    {
                        "name": "E1",
                        "midi": 28,
                        "time": 40.33274850000003,
                        "velocity": 0.7874015748031497,
                        "duration": 0.32869893750000045
                    },
                    {
                        "name": "C2",
                        "midi": 36,
                        "time": 40.88829600000003,
                        "velocity": 0.7874015748031497,
                        "duration": 0.32869893750000045
                    },
                    {
                        "name": "C2",
                        "midi": 36,
                        "time": 41.22162450000003,
                        "velocity": 0.7874015748031497,
                        "duration": 0.32869893750000045
                    },
                    {
                        "name": "C2",
                        "midi": 36,
                        "time": 41.777172000000036,
                        "velocity": 0.7874015748031497,
                        "duration": 0.32869893750000045
                    },
                    {
                        "name": "C2",
                        "midi": 36,
                        "time": 42.110500500000036,
                        "velocity": 0.7874015748031497,
                        "duration": 0.32869893750000045
                    },
                    {
                        "name": "C2",
                        "midi": 36,
                        "time": 42.443829000000036,
                        "velocity": 0.7874015748031497,
                        "duration": 0.2175894375000027
                    },
                    {
                        "name": "G1",
                        "midi": 31,
                        "time": 42.66604800000004,
                        "velocity": 0.7874015748031497,
                        "duration": 0.32869893750000045
                    },
                    {
                        "name": "G1",
                        "midi": 31,
                        "time": 42.99937650000004,
                        "velocity": 0.7874015748031497,
                        "duration": 0.32869893750000045
                    },
                    {
                        "name": "G1",
                        "midi": 31,
                        "time": 43.33270500000004,
                        "velocity": 0.7874015748031497,
                        "duration": 0.2175894375000027
                    },
                    {
                        "name": "G1",
                        "midi": 31,
                        "time": 43.55492400000004,
                        "velocity": 0.7874015748031497,
                        "duration": 0.32869893750000045
                    },
                    {
                        "name": "G1",
                        "midi": 31,
                        "time": 43.88825250000004,
                        "velocity": 0.7874015748031497,
                        "duration": 0.32869893750000045
                    },
                    {
                        "name": "G1",
                        "midi": 31,
                        "time": 44.443800000000046,
                        "velocity": 0.7874015748031497,
                        "duration": 0.32869893750000045
                    },
                    {
                        "name": "G1",
                        "midi": 31,
                        "time": 44.777128500000046,
                        "velocity": 0.7874015748031497,
                        "duration": 0.32869893750000045
                    },
                    {
                        "name": "G1",
                        "midi": 31,
                        "time": 45.33267600000005,
                        "velocity": 0.7874015748031497,
                        "duration": 0.32869893750000045
                    },
                    {
                        "name": "G1",
                        "midi": 31,
                        "time": 45.66600450000005,
                        "velocity": 0.7874015748031497,
                        "duration": 0.32869893750000045
                    },
                    {
                        "name": "E1",
                        "midi": 28,
                        "time": 46.22155200000005,
                        "velocity": 0.7874015748031497,
                        "duration": 0.32869893750000045
                    },
                    {
                        "name": "E1",
                        "midi": 28,
                        "time": 46.55488050000005,
                        "velocity": 0.7874015748031497,
                        "duration": 0.32869893750000045
                    },
                    {
                        "name": "E1",
                        "midi": 28,
                        "time": 46.88820900000005,
                        "velocity": 0.7874015748031497,
                        "duration": 0.2175894375000027
                    },
                    {
                        "name": "E1",
                        "midi": 28,
                        "time": 47.110428000000056,
                        "velocity": 0.7874015748031497,
                        "duration": 0.32869893750000045
                    },
                    {
                        "name": "E1",
                        "midi": 28,
                        "time": 47.443756500000056,
                        "velocity": 0.7874015748031497,
                        "duration": 0.32869893750000045
                    },
                    {
                        "name": "C2",
                        "midi": 36,
                        "time": 47.99930400000006,
                        "velocity": 0.7874015748031497,
                        "duration": 0.32869893750000045
                    },
                    {
                        "name": "C2",
                        "midi": 36,
                        "time": 48.33263250000006,
                        "velocity": 0.7874015748031497,
                        "duration": 0.32869893750000045
                    },
                    {
                        "name": "C2",
                        "midi": 36,
                        "time": 48.88818000000006,
                        "velocity": 0.7874015748031497,
                        "duration": 0.32869893750000045
                    },
                    {
                        "name": "C2",
                        "midi": 36,
                        "time": 49.22150850000006,
                        "velocity": 0.7874015748031497,
                        "duration": 0.32869893750000045
                    },
                    {
                        "name": "C2",
                        "midi": 36,
                        "time": 49.55483700000006,
                        "velocity": 0.7874015748031497,
                        "duration": 0.2175894375000027
                    },
                    {
                        "name": "G1",
                        "midi": 31,
                        "time": 49.777056000000066,
                        "velocity": 0.7874015748031497,
                        "duration": 0.32869893750000045
                    },
                    {
                        "name": "G1",
                        "midi": 31,
                        "time": 50.110384500000066,
                        "velocity": 0.7874015748031497,
                        "duration": 0.32869893750000045
                    },
                    {
                        "name": "G1",
                        "midi": 31,
                        "time": 50.443713000000066,
                        "velocity": 0.7874015748031497,
                        "duration": 0.2175894375000027
                    },
                    {
                        "name": "G1",
                        "midi": 31,
                        "time": 50.66593200000007,
                        "velocity": 0.7874015748031497,
                        "duration": 0.32869893750000045
                    },
                    {
                        "name": "G1",
                        "midi": 31,
                        "time": 50.99926050000007,
                        "velocity": 0.7874015748031497,
                        "duration": 0.32869893750000045
                    },
                    {
                        "name": "G1",
                        "midi": 31,
                        "time": 51.55480800000007,
                        "velocity": 0.7874015748031497,
                        "duration": 0.32869893750000045
                    },
                    {
                        "name": "G1",
                        "midi": 31,
                        "time": 51.88813650000007,
                        "velocity": 0.7874015748031497,
                        "duration": 0.32869893750000045
                    },
                    {
                        "name": "G1",
                        "midi": 31,
                        "time": 52.443684000000076,
                        "velocity": 0.7874015748031497,
                        "duration": 0.32869893750000045
                    },
                    {
                        "name": "G1",
                        "midi": 31,
                        "time": 52.777012500000076,
                        "velocity": 0.7874015748031497,
                        "duration": 0.32869893750000045
                    },
                    {
                        "name": "E1",
                        "midi": 28,
                        "time": 53.33256000000008,
                        "velocity": 0.7874015748031497,
                        "duration": 0.32869893750000045
                    },
                    {
                        "name": "E1",
                        "midi": 28,
                        "time": 53.66588850000008,
                        "velocity": 0.7874015748031497,
                        "duration": 0.32869893750000045
                    },
                    {
                        "name": "E1",
                        "midi": 28,
                        "time": 53.99921700000008,
                        "velocity": 0.7874015748031497,
                        "duration": 0.2175894375000027
                    },
                    {
                        "name": "E1",
                        "midi": 28,
                        "time": 54.22143600000008,
                        "velocity": 0.7874015748031497,
                        "duration": 0.32869893750000045
                    },
                    {
                        "name": "E1",
                        "midi": 28,
                        "time": 54.55476450000008,
                        "velocity": 0.7874015748031497,
                        "duration": 0.32869893750000045
                    },
                    {
                        "name": "C2",
                        "midi": 36,
                        "time": 55.110312000000086,
                        "velocity": 0.7874015748031497,
                        "duration": 0.32869893750000045
                    },
                    {
                        "name": "C2",
                        "midi": 36,
                        "time": 55.443640500000086,
                        "velocity": 0.7874015748031497,
                        "duration": 0.32869893750000045
                    },
                    {
                        "name": "C2",
                        "midi": 36,
                        "time": 55.99918800000009,
                        "velocity": 0.7874015748031497,
                        "duration": 0.32869893750000045
                    },
                    {
                        "name": "C2",
                        "midi": 36,
                        "time": 56.33251650000009,
                        "velocity": 0.7874015748031497,
                        "duration": 0.32869893750000045
                    },
                    {
                        "name": "C2",
                        "midi": 36,
                        "time": 56.66584500000009,
                        "velocity": 0.7874015748031497,
                        "duration": 0.2175894375000027
                    },
                    {
                        "name": "G1",
                        "midi": 31,
                        "time": 56.88806400000009,
                        "velocity": 0.7874015748031497,
                        "duration": 0.32869893750000045
                    },
                    {
                        "name": "G1",
                        "midi": 31,
                        "time": 57.22139250000009,
                        "velocity": 0.7874015748031497,
                        "duration": 0.32869893750000045
                    },
                    {
                        "name": "G1",
                        "midi": 31,
                        "time": 57.55472100000009,
                        "velocity": 0.7874015748031497,
                        "duration": 0.2175894375000027
                    },
                    {
                        "name": "G1",
                        "midi": 31,
                        "time": 57.776940000000096,
                        "velocity": 0.7874015748031497,
                        "duration": 0.32869893750000045
                    },
                    {
                        "name": "G1",
                        "midi": 31,
                        "time": 58.110268500000096,
                        "velocity": 0.7874015748031497,
                        "duration": 0.32869893750000045
                    },
                    {
                        "name": "G1",
                        "midi": 31,
                        "time": 58.6658160000001,
                        "velocity": 0.7874015748031497,
                        "duration": 0.32869893750000045
                    },
                    {
                        "name": "G1",
                        "midi": 31,
                        "time": 58.9991445000001,
                        "velocity": 0.7874015748031497,
                        "duration": 0.32869893750000045
                    },
                    {
                        "name": "G1",
                        "midi": 31,
                        "time": 59.5546920000001,
                        "velocity": 0.7874015748031497,
                        "duration": 0.32869893750000045
                    },
                    {
                        "name": "G1",
                        "midi": 31,
                        "time": 59.8880205000001,
                        "velocity": 0.7874015748031497,
                        "duration": 0.32869893750000045
                    },
                    {
                        "name": "E1",
                        "midi": 28,
                        "time": 60.443568000000106,
                        "velocity": 0.7874015748031497,
                        "duration": 0.32869893750000045
                    },
                    {
                        "name": "E1",
                        "midi": 28,
                        "time": 60.776896500000106,
                        "velocity": 0.7874015748031497,
                        "duration": 0.32869893750000045
                    },
                    {
                        "name": "E1",
                        "midi": 28,
                        "time": 61.110225000000106,
                        "velocity": 0.7874015748031497,
                        "duration": 0.2175894375000027
                    },
                    {
                        "name": "E1",
                        "midi": 28,
                        "time": 61.33244400000011,
                        "velocity": 0.7874015748031497,
                        "duration": 0.32869893750000045
                    },
                    {
                        "name": "E1",
                        "midi": 28,
                        "time": 61.66577250000011,
                        "velocity": 0.7874015748031497,
                        "duration": 0.32869893750000045
                    },
                    {
                        "name": "C2",
                        "midi": 36,
                        "time": 62.22132000000011,
                        "velocity": 0.7874015748031497,
                        "duration": 0.32869893750000045
                    },
                    {
                        "name": "C2",
                        "midi": 36,
                        "time": 62.55464850000011,
                        "velocity": 0.7874015748031497,
                        "duration": 0.32869893750000045
                    },
                    {
                        "name": "C2",
                        "midi": 36,
                        "time": 63.110196000000116,
                        "velocity": 0.7874015748031497,
                        "duration": 0.32869893750000045
                    },
                    {
                        "name": "C2",
                        "midi": 36,
                        "time": 63.443524500000116,
                        "velocity": 0.7874015748031497,
                        "duration": 0.32869893750000045
                    },
                    {
                        "name": "C2",
                        "midi": 36,
                        "time": 63.776853000000116,
                        "velocity": 0.7874015748031497,
                        "duration": 0.2175894375000027
                    },
                    {
                        "name": "G1",
                        "midi": 31,
                        "time": 63.99907200000012,
                        "velocity": 0.7874015748031497,
                        "duration": 0.32869893750000045
                    },
                    {
                        "name": "G1",
                        "midi": 31,
                        "time": 64.33240050000012,
                        "velocity": 0.7874015748031497,
                        "duration": 0.32869893749999335
                    },
                    {
                        "name": "G1",
                        "midi": 31,
                        "time": 64.66572900000011,
                        "velocity": 0.7874015748031497,
                        "duration": 0.2175894374999956
                    },
                    {
                        "name": "G1",
                        "midi": 31,
                        "time": 64.88794800000011,
                        "velocity": 0.7874015748031497,
                        "duration": 0.32869893749999335
                    },
                    {
                        "name": "G1",
                        "midi": 31,
                        "time": 65.2212765000001,
                        "velocity": 0.7874015748031497,
                        "duration": 0.32869893749999335
                    },
                    {
                        "name": "G1",
                        "midi": 31,
                        "time": 65.77682400000009,
                        "velocity": 0.7874015748031497,
                        "duration": 0.32869893749999335
                    },
                    {
                        "name": "G1",
                        "midi": 31,
                        "time": 66.11015250000008,
                        "velocity": 0.7874015748031497,
                        "duration": 0.32869893749999335
                    },
                    {
                        "name": "G1",
                        "midi": 31,
                        "time": 66.66570000000007,
                        "velocity": 0.7874015748031497,
                        "duration": 0.32869893749999335
                    },
                    {
                        "name": "G1",
                        "midi": 31,
                        "time": 66.99902850000007,
                        "velocity": 0.7874015748031497,
                        "duration": 0.32869893749999335
                    },
                    {
                        "name": "E1",
                        "midi": 28,
                        "time": 67.55457600000005,
                        "velocity": 0.7874015748031497,
                        "duration": 0.32869893749999335
                    },
                    {
                        "name": "E1",
                        "midi": 28,
                        "time": 67.88790450000005,
                        "velocity": 0.7874015748031497,
                        "duration": 0.32869893749999335
                    },
                    {
                        "name": "E1",
                        "midi": 28,
                        "time": 68.22123300000004,
                        "velocity": 0.7874015748031497,
                        "duration": 0.2175894374999956
                    },
                    {
                        "name": "E1",
                        "midi": 28,
                        "time": 68.44345200000004,
                        "velocity": 0.7874015748031497,
                        "duration": 0.32869893749999335
                    },
                    {
                        "name": "E1",
                        "midi": 28,
                        "time": 68.77678050000003,
                        "velocity": 0.7874015748031497,
                        "duration": 0.32869893749999335
                    },
                    {
                        "name": "C2",
                        "midi": 36,
                        "time": 69.33232800000002,
                        "velocity": 0.7874015748031497,
                        "duration": 0.32869893749999335
                    },
                    {
                        "name": "C2",
                        "midi": 36,
                        "time": 69.66565650000001,
                        "velocity": 0.7874015748031497,
                        "duration": 0.32869893749999335
                    },
                    {
                        "name": "C2",
                        "midi": 36,
                        "time": 70.221204,
                        "velocity": 0.7874015748031497,
                        "duration": 0.32869893749999335
                    },
                    {
                        "name": "C2",
                        "midi": 36,
                        "time": 70.5545325,
                        "velocity": 0.7874015748031497,
                        "duration": 0.32869893749999335
                    },
                    {
                        "name": "C2",
                        "midi": 36,
                        "time": 70.88786099999999,
                        "velocity": 0.7874015748031497,
                        "duration": 0.2175894374999956
                    },
                    {
                        "name": "G1",
                        "midi": 31,
                        "time": 71.11007999999998,
                        "velocity": 0.7874015748031497,
                        "duration": 0.32869893749999335
                    },
                    {
                        "name": "G1",
                        "midi": 31,
                        "time": 71.44340849999998,
                        "velocity": 0.7874015748031497,
                        "duration": 0.32869893749999335
                    },
                    {
                        "name": "G1",
                        "midi": 31,
                        "time": 71.77673699999997,
                        "velocity": 0.7874015748031497,
                        "duration": 0.2175894374999956
                    },
                    {
                        "name": "G1",
                        "midi": 31,
                        "time": 71.99895599999996,
                        "velocity": 0.7874015748031497,
                        "duration": 0.32869893749999335
                    },
                    {
                        "name": "G1",
                        "midi": 31,
                        "time": 72.33228449999996,
                        "velocity": 0.7874015748031497,
                        "duration": 0.32869893749999335
                    },
                    {
                        "name": "G1",
                        "midi": 31,
                        "time": 72.88783199999995,
                        "velocity": 0.7874015748031497,
                        "duration": 0.32869893749999335
                    },
                    {
                        "name": "G1",
                        "midi": 31,
                        "time": 73.22116049999994,
                        "velocity": 0.7874015748031497,
                        "duration": 0.32869893749999335
                    },
                    {
                        "name": "G1",
                        "midi": 31,
                        "time": 73.77670799999993,
                        "velocity": 0.7874015748031497,
                        "duration": 0.32869893749999335
                    },
                    {
                        "name": "G1",
                        "midi": 31,
                        "time": 74.11003649999992,
                        "velocity": 0.7874015748031497,
                        "duration": 0.32869893749999335
                    },
                    {
                        "name": "E1",
                        "midi": 28,
                        "time": 74.66558399999991,
                        "velocity": 0.7874015748031497,
                        "duration": 0.32869893749999335
                    },
                    {
                        "name": "E1",
                        "midi": 28,
                        "time": 74.9989124999999,
                        "velocity": 0.7874015748031497,
                        "duration": 0.32869893749999335
                    },
                    {
                        "name": "E1",
                        "midi": 28,
                        "time": 75.3322409999999,
                        "velocity": 0.7874015748031497,
                        "duration": 0.2175894374999956
                    },
                    {
                        "name": "E1",
                        "midi": 28,
                        "time": 75.55445999999989,
                        "velocity": 0.7874015748031497,
                        "duration": 0.32869893749999335
                    },
                    {
                        "name": "E1",
                        "midi": 28,
                        "time": 75.88778849999989,
                        "velocity": 0.7874015748031497,
                        "duration": 0.32869893749999335
                    },
                    {
                        "name": "C2",
                        "midi": 36,
                        "time": 76.44333599999987,
                        "velocity": 0.7874015748031497,
                        "duration": 0.32869893749999335
                    },
                    {
                        "name": "C2",
                        "midi": 36,
                        "time": 76.77666449999987,
                        "velocity": 0.7874015748031497,
                        "duration": 0.32869893749999335
                    },
                    {
                        "name": "C2",
                        "midi": 36,
                        "time": 77.33221199999986,
                        "velocity": 0.7874015748031497,
                        "duration": 0.32869893749999335
                    },
                    {
                        "name": "C2",
                        "midi": 36,
                        "time": 77.66554049999985,
                        "velocity": 0.7874015748031497,
                        "duration": 0.32869893749999335
                    },
                    {
                        "name": "C2",
                        "midi": 36,
                        "time": 77.99886899999984,
                        "velocity": 0.7874015748031497,
                        "duration": 0.2175894374999956
                    },
                    {
                        "name": "G1",
                        "midi": 31,
                        "time": 78.22108799999984,
                        "velocity": 0.7874015748031497,
                        "duration": 0.32869893749999335
                    },
                    {
                        "name": "G1",
                        "midi": 31,
                        "time": 78.55441649999983,
                        "velocity": 0.7874015748031497,
                        "duration": 0.32869893749999335
                    },
                    {
                        "name": "G1",
                        "midi": 31,
                        "time": 78.88774499999982,
                        "velocity": 0.7874015748031497,
                        "duration": 0.2175894374999956
                    },
                    {
                        "name": "G1",
                        "midi": 31,
                        "time": 79.10996399999982,
                        "velocity": 0.7874015748031497,
                        "duration": 0.32869893749999335
                    },
                    {
                        "name": "G1",
                        "midi": 31,
                        "time": 79.44329249999981,
                        "velocity": 0.7874015748031497,
                        "duration": 0.32869893749999335
                    },
                    {
                        "name": "G1",
                        "midi": 31,
                        "time": 79.9988399999998,
                        "velocity": 0.7874015748031497,
                        "duration": 0.32869893749999335
                    },
                    {
                        "name": "G1",
                        "midi": 31,
                        "time": 80.3321684999998,
                        "velocity": 0.7874015748031497,
                        "duration": 0.32869893749999335
                    },
                    {
                        "name": "G1",
                        "midi": 31,
                        "time": 80.88771599999978,
                        "velocity": 0.7874015748031497,
                        "duration": 0.32869893749999335
                    },
                    {
                        "name": "G1",
                        "midi": 31,
                        "time": 81.22104449999978,
                        "velocity": 0.7874015748031497,
                        "duration": 0.32869893749999335
                    },
                    {
                        "name": "E1",
                        "midi": 28,
                        "time": 81.77659199999977,
                        "velocity": 0.7874015748031497,
                        "duration": 0.32869893749999335
                    },
                    {
                        "name": "E1",
                        "midi": 28,
                        "time": 82.10992049999976,
                        "velocity": 0.7874015748031497,
                        "duration": 0.32869893749999335
                    },
                    {
                        "name": "E1",
                        "midi": 28,
                        "time": 82.44324899999975,
                        "velocity": 0.7874015748031497,
                        "duration": 0.2175894374999956
                    },
                    {
                        "name": "E1",
                        "midi": 28,
                        "time": 82.66546799999975,
                        "velocity": 0.7874015748031497,
                        "duration": 0.32869893749999335
                    },
                    {
                        "name": "E1",
                        "midi": 28,
                        "time": 82.99879649999974,
                        "velocity": 0.7874015748031497,
                        "duration": 0.32869893749999335
                    },
                    {
                        "name": "C2",
                        "midi": 36,
                        "time": 83.55434399999973,
                        "velocity": 0.7874015748031497,
                        "duration": 0.32869893749999335
                    },
                    {
                        "name": "C2",
                        "midi": 36,
                        "time": 83.88767249999972,
                        "velocity": 0.7874015748031497,
                        "duration": 0.32869893749999335
                    },
                    {
                        "name": "C2",
                        "midi": 36,
                        "time": 84.44321999999971,
                        "velocity": 0.7874015748031497,
                        "duration": 0.32869893749999335
                    },
                    {
                        "name": "C2",
                        "midi": 36,
                        "time": 84.7765484999997,
                        "velocity": 0.7874015748031497,
                        "duration": 0.32869893749999335
                    },
                    {
                        "name": "C2",
                        "midi": 36,
                        "time": 85.1098769999997,
                        "velocity": 0.7874015748031497,
                        "duration": 0.2175894374999956
                    },
                    {
                        "name": "G1",
                        "midi": 31,
                        "time": 85.3320959999997,
                        "velocity": 0.7874015748031497,
                        "duration": 0.32869893749999335
                    },
                    {
                        "name": "G1",
                        "midi": 31,
                        "time": 85.66542449999969,
                        "velocity": 0.7874015748031497,
                        "duration": 0.32869893749999335
                    },
                    {
                        "name": "G1",
                        "midi": 31,
                        "time": 85.99875299999968,
                        "velocity": 0.7874015748031497,
                        "duration": 0.2175894374999956
                    },
                    {
                        "name": "G1",
                        "midi": 31,
                        "time": 86.22097199999968,
                        "velocity": 0.7874015748031497,
                        "duration": 0.32869893749999335
                    },
                    {
                        "name": "G1",
                        "midi": 31,
                        "time": 86.55430049999967,
                        "velocity": 0.7874015748031497,
                        "duration": 0.32869893749999335
                    },
                    {
                        "name": "G1",
                        "midi": 31,
                        "time": 87.10984799999966,
                        "velocity": 0.7874015748031497,
                        "duration": 0.32869893749999335
                    },
                    {
                        "name": "G1",
                        "midi": 31,
                        "time": 87.44317649999965,
                        "velocity": 0.7874015748031497,
                        "duration": 0.32869893749999335
                    },
                    {
                        "name": "G1",
                        "midi": 31,
                        "time": 87.99872399999964,
                        "velocity": 0.7874015748031497,
                        "duration": 0.32869893749999335
                    },
                    {
                        "name": "G1",
                        "midi": 31,
                        "time": 88.33205249999963,
                        "velocity": 0.7874015748031497,
                        "duration": 0.32869893749999335
                    },
                    {
                        "name": "E1",
                        "midi": 28,
                        "time": 88.88759999999962,
                        "velocity": 0.7874015748031497,
                        "duration": 0.32869893749999335
                    },
                    {
                        "name": "E1",
                        "midi": 28,
                        "time": 89.22092849999962,
                        "velocity": 0.7874015748031497,
                        "duration": 0.32869893749999335
                    },
                    {
                        "name": "E1",
                        "midi": 28,
                        "time": 89.55425699999961,
                        "velocity": 0.7874015748031497,
                        "duration": 0.2175894374999956
                    },
                    {
                        "name": "E1",
                        "midi": 28,
                        "time": 89.7764759999996,
                        "velocity": 0.7874015748031497,
                        "duration": 0.32869893749999335
                    },
                    {
                        "name": "E1",
                        "midi": 28,
                        "time": 90.1098044999996,
                        "velocity": 0.7874015748031497,
                        "duration": 0.32869893749999335
                    },
                    {
                        "name": "C2",
                        "midi": 36,
                        "time": 90.66535199999959,
                        "velocity": 0.7874015748031497,
                        "duration": 0.32869893749999335
                    },
                    {
                        "name": "C2",
                        "midi": 36,
                        "time": 90.99868049999958,
                        "velocity": 0.7874015748031497,
                        "duration": 0.32869893749999335
                    },
                    {
                        "name": "C2",
                        "midi": 36,
                        "time": 91.55422799999957,
                        "velocity": 0.7874015748031497,
                        "duration": 0.32869893749999335
                    },
                    {
                        "name": "C2",
                        "midi": 36,
                        "time": 91.88755649999956,
                        "velocity": 0.7874015748031497,
                        "duration": 0.32869893749999335
                    },
                    {
                        "name": "C2",
                        "midi": 36,
                        "time": 92.22088499999956,
                        "velocity": 0.7874015748031497,
                        "duration": 0.2175894374999956
                    },
                    {
                        "name": "G1",
                        "midi": 31,
                        "time": 92.44310399999955,
                        "velocity": 0.7874015748031497,
                        "duration": 0.32869893749999335
                    },
                    {
                        "name": "G1",
                        "midi": 31,
                        "time": 92.77643249999954,
                        "velocity": 0.7874015748031497,
                        "duration": 0.32869893749999335
                    },
                    {
                        "name": "G1",
                        "midi": 31,
                        "time": 93.10976099999954,
                        "velocity": 0.7874015748031497,
                        "duration": 0.2175894374999956
                    },
                    {
                        "name": "G1",
                        "midi": 31,
                        "time": 93.33197999999953,
                        "velocity": 0.7874015748031497,
                        "duration": 0.32869893749999335
                    },
                    {
                        "name": "G1",
                        "midi": 31,
                        "time": 93.66530849999953,
                        "velocity": 0.7874015748031497,
                        "duration": 0.32869893749999335
                    },
                    {
                        "name": "G1",
                        "midi": 31,
                        "time": 94.22085599999951,
                        "velocity": 0.7874015748031497,
                        "duration": 0.32869893749999335
                    },
                    {
                        "name": "G1",
                        "midi": 31,
                        "time": 94.55418449999951,
                        "velocity": 0.7874015748031497,
                        "duration": 0.32869893749999335
                    },
                    {
                        "name": "G1",
                        "midi": 31,
                        "time": 95.1097319999995,
                        "velocity": 0.7874015748031497,
                        "duration": 0.32869893749999335
                    },
                    {
                        "name": "G1",
                        "midi": 31,
                        "time": 95.44306049999949,
                        "velocity": 0.7874015748031497,
                        "duration": 0.32869893749999335
                    },
                    {
                        "name": "E1",
                        "midi": 28,
                        "time": 95.99860799999948,
                        "velocity": 0.7874015748031497,
                        "duration": 0.32869893749999335
                    },
                    {
                        "name": "E1",
                        "midi": 28,
                        "time": 96.33193649999947,
                        "velocity": 0.7874015748031497,
                        "duration": 0.32869893749999335
                    },
                    {
                        "name": "E1",
                        "midi": 28,
                        "time": 96.66526499999947,
                        "velocity": 0.7874015748031497,
                        "duration": 0.2175894374999956
                    },
                    {
                        "name": "E1",
                        "midi": 28,
                        "time": 96.88748399999946,
                        "velocity": 0.7874015748031497,
                        "duration": 0.32869893749999335
                    },
                    {
                        "name": "E1",
                        "midi": 28,
                        "time": 97.22081249999945,
                        "velocity": 0.7874015748031497,
                        "duration": 0.32869893749999335
                    },
                    {
                        "name": "C2",
                        "midi": 36,
                        "time": 97.77635999999944,
                        "velocity": 0.7874015748031497,
                        "duration": 0.32869893749999335
                    },
                    {
                        "name": "C2",
                        "midi": 36,
                        "time": 98.10968849999944,
                        "velocity": 0.7874015748031497,
                        "duration": 0.32869893749999335
                    },
                    {
                        "name": "C2",
                        "midi": 36,
                        "time": 98.66523599999942,
                        "velocity": 0.7874015748031497,
                        "duration": 0.32869893749999335
                    },
                    {
                        "name": "C2",
                        "midi": 36,
                        "time": 98.99856449999942,
                        "velocity": 0.7874015748031497,
                        "duration": 0.32869893749999335
                    },
                    {
                        "name": "C2",
                        "midi": 36,
                        "time": 99.33189299999941,
                        "velocity": 0.7874015748031497,
                        "duration": 0.2175894374999956
                    },
                    {
                        "name": "G1",
                        "midi": 31,
                        "time": 99.5541119999994,
                        "velocity": 0.7874015748031497,
                        "duration": 0.32869893749999335
                    },
                    {
                        "name": "G1",
                        "midi": 31,
                        "time": 99.8874404999994,
                        "velocity": 0.7874015748031497,
                        "duration": 0.32869893749999335
                    },
                    {
                        "name": "G1",
                        "midi": 31,
                        "time": 100.2207689999994,
                        "velocity": 0.7874015748031497,
                        "duration": 0.2175894374999956
                    },
                    {
                        "name": "G1",
                        "midi": 31,
                        "time": 100.44298799999939,
                        "velocity": 0.7874015748031497,
                        "duration": 0.32869893749999335
                    },
                    {
                        "name": "G1",
                        "midi": 31,
                        "time": 100.77631649999938,
                        "velocity": 0.7874015748031497,
                        "duration": 0.32869893749999335
                    },
                    {
                        "name": "G1",
                        "midi": 31,
                        "time": 101.33186399999937,
                        "velocity": 0.7874015748031497,
                        "duration": 0.32869893749999335
                    },
                    {
                        "name": "G1",
                        "midi": 31,
                        "time": 101.66519249999936,
                        "velocity": 0.7874015748031497,
                        "duration": 0.32869893749999335
                    },
                    {
                        "name": "G1",
                        "midi": 31,
                        "time": 102.22073999999935,
                        "velocity": 0.7874015748031497,
                        "duration": 0.32869893749999335
                    },
                    {
                        "name": "G1",
                        "midi": 31,
                        "time": 102.55406849999935,
                        "velocity": 0.7874015748031497,
                        "duration": 0.32869893749999335
                    },
                    {
                        "name": "E1",
                        "midi": 28,
                        "time": 103.10961599999933,
                        "velocity": 0.7874015748031497,
                        "duration": 0.32869893749999335
                    },
                    {
                        "name": "E1",
                        "midi": 28,
                        "time": 103.44294449999933,
                        "velocity": 0.7874015748031497,
                        "duration": 0.32869893749999335
                    },
                    {
                        "name": "E1",
                        "midi": 28,
                        "time": 103.77627299999932,
                        "velocity": 0.7874015748031497,
                        "duration": 0.2175894374999956
                    },
                    {
                        "name": "E1",
                        "midi": 28,
                        "time": 103.99849199999932,
                        "velocity": 0.7874015748031497,
                        "duration": 0.32869893749999335
                    },
                    {
                        "name": "E1",
                        "midi": 28,
                        "time": 104.33182049999931,
                        "velocity": 0.7874015748031497,
                        "duration": 0.32869893749999335
                    },
                    {
                        "name": "C2",
                        "midi": 36,
                        "time": 104.8873679999993,
                        "velocity": 0.7874015748031497,
                        "duration": 0.32869893749999335
                    },
                    {
                        "name": "C2",
                        "midi": 36,
                        "time": 105.22069649999929,
                        "velocity": 0.7874015748031497,
                        "duration": 0.32869893749999335
                    },
                    {
                        "name": "C2",
                        "midi": 36,
                        "time": 105.77624399999928,
                        "velocity": 0.7874015748031497,
                        "duration": 0.32869893749999335
                    },
                    {
                        "name": "C2",
                        "midi": 36,
                        "time": 106.10957249999927,
                        "velocity": 0.7874015748031497,
                        "duration": 0.32869893749999335
                    },
                    {
                        "name": "C2",
                        "midi": 36,
                        "time": 106.44290099999927,
                        "velocity": 0.7874015748031497,
                        "duration": 0.2175894374999956
                    },
                    {
                        "name": "G1",
                        "midi": 31,
                        "time": 106.66511999999926,
                        "velocity": 0.7874015748031497,
                        "duration": 0.32869893749999335
                    },
                    {
                        "name": "G1",
                        "midi": 31,
                        "time": 106.99844849999926,
                        "velocity": 0.7874015748031497,
                        "duration": 0.32869893749999335
                    },
                    {
                        "name": "G1",
                        "midi": 31,
                        "time": 107.33177699999925,
                        "velocity": 0.7874015748031497,
                        "duration": 0.2175894374999956
                    },
                    {
                        "name": "G1",
                        "midi": 31,
                        "time": 107.55399599999924,
                        "velocity": 0.7874015748031497,
                        "duration": 0.32869893749999335
                    },
                    {
                        "name": "G1",
                        "midi": 31,
                        "time": 107.88732449999924,
                        "velocity": 0.7874015748031497,
                        "duration": 0.32869893749999335
                    },
                    {
                        "name": "G1",
                        "midi": 31,
                        "time": 108.44287199999923,
                        "velocity": 0.7874015748031497,
                        "duration": 0.32869893749999335
                    },
                    {
                        "name": "G1",
                        "midi": 31,
                        "time": 108.77620049999922,
                        "velocity": 0.7874015748031497,
                        "duration": 0.32869893749999335
                    },
                    {
                        "name": "G1",
                        "midi": 31,
                        "time": 109.33174799999921,
                        "velocity": 0.7874015748031497,
                        "duration": 0.32869893749999335
                    },
                    {
                        "name": "G1",
                        "midi": 31,
                        "time": 109.6650764999992,
                        "velocity": 0.7874015748031497,
                        "duration": 0.32869893749999335
                    },
                    {
                        "name": "E1",
                        "midi": 28,
                        "time": 110.22062399999919,
                        "velocity": 0.7874015748031497,
                        "duration": 0.32869893749999335
                    },
                    {
                        "name": "E1",
                        "midi": 28,
                        "time": 110.55395249999918,
                        "velocity": 0.7874015748031497,
                        "duration": 0.32869893749999335
                    },
                    {
                        "name": "E1",
                        "midi": 28,
                        "time": 110.88728099999918,
                        "velocity": 0.7874015748031497,
                        "duration": 0.2175894374999956
                    },
                    {
                        "name": "E1",
                        "midi": 28,
                        "time": 111.10949999999917,
                        "velocity": 0.7874015748031497,
                        "duration": 0.32869893749999335
                    },
                    {
                        "name": "E1",
                        "midi": 28,
                        "time": 111.44282849999917,
                        "velocity": 0.7874015748031497,
                        "duration": 0.32869893749999335
                    },
                    {
                        "name": "C2",
                        "midi": 36,
                        "time": 111.99837599999915,
                        "velocity": 0.7874015748031497,
                        "duration": 0.32869893749999335
                    },
                    {
                        "name": "C2",
                        "midi": 36,
                        "time": 112.33170449999915,
                        "velocity": 0.7874015748031497,
                        "duration": 0.32869893749999335
                    },
                    {
                        "name": "C2",
                        "midi": 36,
                        "time": 112.88725199999914,
                        "velocity": 0.7874015748031497,
                        "duration": 0.32869893749999335
                    },
                    {
                        "name": "C2",
                        "midi": 36,
                        "time": 113.22058049999913,
                        "velocity": 0.7874015748031497,
                        "duration": 0.32869893749999335
                    },
                    {
                        "name": "C2",
                        "midi": 36,
                        "time": 113.55390899999912,
                        "velocity": 0.7874015748031497,
                        "duration": 0.2175894374999956
                    },
                    {
                        "name": "G1",
                        "midi": 31,
                        "time": 113.77612799999912,
                        "velocity": 0.7874015748031497,
                        "duration": 0.32869893749999335
                    },
                    {
                        "name": "G1",
                        "midi": 31,
                        "time": 114.10945649999911,
                        "velocity": 0.7874015748031497,
                        "duration": 0.32869893749999335
                    },
                    {
                        "name": "G1",
                        "midi": 31,
                        "time": 114.4427849999991,
                        "velocity": 0.7874015748031497,
                        "duration": 0.2175894374999956
                    },
                    {
                        "name": "G1",
                        "midi": 31,
                        "time": 114.6650039999991,
                        "velocity": 0.7874015748031497,
                        "duration": 0.32869893749999335
                    },
                    {
                        "name": "G1",
                        "midi": 31,
                        "time": 114.9983324999991,
                        "velocity": 0.7874015748031497,
                        "duration": 0.32869893749999335
                    },
                    {
                        "name": "G1",
                        "midi": 31,
                        "time": 115.55387999999908,
                        "velocity": 0.7874015748031497,
                        "duration": 0.32869893749999335
                    },
                    {
                        "name": "G1",
                        "midi": 31,
                        "time": 115.88720849999908,
                        "velocity": 0.7874015748031497,
                        "duration": 0.32869893749999335
                    },
                    {
                        "name": "G1",
                        "midi": 31,
                        "time": 116.44275599999906,
                        "velocity": 0.7874015748031497,
                        "duration": 0.32869893749999335
                    },
                    {
                        "name": "G1",
                        "midi": 31,
                        "time": 116.77608449999906,
                        "velocity": 0.7874015748031497,
                        "duration": 0.32869893749999335
                    },
                    {
                        "name": "E1",
                        "midi": 28,
                        "time": 117.33163199999905,
                        "velocity": 0.7874015748031497,
                        "duration": 0.32869893749999335
                    },
                    {
                        "name": "E1",
                        "midi": 28,
                        "time": 117.66496049999904,
                        "velocity": 0.7874015748031497,
                        "duration": 0.32869893749999335
                    },
                    {
                        "name": "E1",
                        "midi": 28,
                        "time": 117.99828899999903,
                        "velocity": 0.7874015748031497,
                        "duration": 0.2175894374999956
                    },
                    {
                        "name": "E1",
                        "midi": 28,
                        "time": 118.22050799999903,
                        "velocity": 0.7874015748031497,
                        "duration": 0.32869893749999335
                    },
                    {
                        "name": "E1",
                        "midi": 28,
                        "time": 118.55383649999902,
                        "velocity": 0.7874015748031497,
                        "duration": 0.32869893749999335
                    },
                    {
                        "name": "C2",
                        "midi": 36,
                        "time": 119.10938399999901,
                        "velocity": 0.7874015748031497,
                        "duration": 0.32869893749999335
                    },
                    {
                        "name": "C2",
                        "midi": 36,
                        "time": 119.442712499999,
                        "velocity": 0.7874015748031497,
                        "duration": 0.32869893749999335
                    },
                    {
                        "name": "C2",
                        "midi": 36,
                        "time": 119.998259999999,
                        "velocity": 0.7874015748031497,
                        "duration": 0.32869893749999335
                    },
                    {
                        "name": "C2",
                        "midi": 36,
                        "time": 120.33158849999899,
                        "velocity": 0.7874015748031497,
                        "duration": 0.32869893749999335
                    },
                    {
                        "name": "C2",
                        "midi": 36,
                        "time": 120.66491699999898,
                        "velocity": 0.7874015748031497,
                        "duration": 0.2175894374999956
                    },
                    {
                        "name": "G1",
                        "midi": 31,
                        "time": 120.88713599999897,
                        "velocity": 0.7874015748031497,
                        "duration": 0.32869893749999335
                    },
                    {
                        "name": "G1",
                        "midi": 31,
                        "time": 121.22046449999897,
                        "velocity": 0.7874015748031497,
                        "duration": 0.32869893749999335
                    },
                    {
                        "name": "G1",
                        "midi": 31,
                        "time": 121.55379299999896,
                        "velocity": 0.7874015748031497,
                        "duration": 0.2175894374999956
                    },
                    {
                        "name": "G1",
                        "midi": 31,
                        "time": 121.77601199999896,
                        "velocity": 0.7874015748031497,
                        "duration": 0.32869893749999335
                    },
                    {
                        "name": "G1",
                        "midi": 31,
                        "time": 122.10934049999895,
                        "velocity": 0.7874015748031497,
                        "duration": 0.32869893749999335
                    },
                    {
                        "name": "G1",
                        "midi": 31,
                        "time": 122.66488799999894,
                        "velocity": 0.7874015748031497,
                        "duration": 0.32869893749999335
                    },
                    {
                        "name": "G1",
                        "midi": 31,
                        "time": 122.99821649999893,
                        "velocity": 0.7874015748031497,
                        "duration": 0.32869893749999335
                    },
                    {
                        "name": "G1",
                        "midi": 31,
                        "time": 123.55376399999892,
                        "velocity": 0.7874015748031497,
                        "duration": 0.32869893749999335
                    },
                    {
                        "name": "G1",
                        "midi": 31,
                        "time": 123.88709249999891,
                        "velocity": 0.7874015748031497,
                        "duration": 0.32869893749999335
                    },
                    {
                        "name": "E1",
                        "midi": 28,
                        "time": 124.4426399999989,
                        "velocity": 0.7874015748031497,
                        "duration": 0.32869893749999335
                    },
                    {
                        "name": "E1",
                        "midi": 28,
                        "time": 124.7759684999989,
                        "velocity": 0.7874015748031497,
                        "duration": 0.32869893749999335
                    },
                    {
                        "name": "E1",
                        "midi": 28,
                        "time": 125.10929699999889,
                        "velocity": 0.7874015748031497,
                        "duration": 0.2175894374999956
                    },
                    {
                        "name": "E1",
                        "midi": 28,
                        "time": 125.33151599999889,
                        "velocity": 0.7874015748031497,
                        "duration": 0.32869893749999335
                    },
                    {
                        "name": "E1",
                        "midi": 28,
                        "time": 125.66484449999888,
                        "velocity": 0.7874015748031497,
                        "duration": 0.32869893749999335
                    },
                    {
                        "name": "C2",
                        "midi": 36,
                        "time": 126.22039199999887,
                        "velocity": 0.7874015748031497,
                        "duration": 0.32869893749999335
                    },
                    {
                        "name": "C2",
                        "midi": 36,
                        "time": 126.55372049999886,
                        "velocity": 0.7874015748031497,
                        "duration": 0.32869893749999335
                    },
                    {
                        "name": "C2",
                        "midi": 36,
                        "time": 127.10926799999885,
                        "velocity": 0.7874015748031497,
                        "duration": 0.32869893749999335
                    },
                    {
                        "name": "C2",
                        "midi": 36,
                        "time": 127.44259649999884,
                        "velocity": 0.7874015748031497,
                        "duration": 0.32869893749999335
                    },
                    {
                        "name": "C2",
                        "midi": 36,
                        "time": 127.77592499999884,
                        "velocity": 0.7874015748031497,
                        "duration": 0.2175894374999956
                    }
                ],
                "controlChanges": {
                    "1": [
                        {
                            "number": 1,
                            "time": 0,
                            "value": 1
                        }
                    ],
                    "64": [
                        {
                            "number": 64,
                            "time": 0,
                            "value": 0.49606299212598426
                        }
                    ]
                },
                "id": 2,
                "instrumentNumber": 38,
                "instrument": "synth bass 1",
                "instrumentFamily": "bass",
                "channelNumber": 1,
                "isPercussion": false
            },
            {
                "startTime": 14.222016,
                "duration": 127.99351443750011,
                "length": 80,
                "notes": [
                    {
                        "name": "G3",
                        "midi": 55,
                        "time": 14.222016,
                        "velocity": 0.7874015748031497,
                        "duration": 3.550874437499999
                    },
                    {
                        "name": "B4",
                        "midi": 71,
                        "time": 14.222016,
                        "velocity": 0.7874015748031497,
                        "duration": 5.328626437499999
                    },
                    {
                        "name": "E3",
                        "midi": 52,
                        "time": 17.77752,
                        "velocity": 0.7874015748031497,
                        "duration": 1.7731224374999996
                    },
                    {
                        "name": "C4",
                        "midi": 60,
                        "time": 19.555272,
                        "velocity": 0.7874015748031497,
                        "duration": 1.7731224374999996
                    },
                    {
                        "name": "G4",
                        "midi": 67,
                        "time": 19.555272,
                        "velocity": 0.7874015748031497,
                        "duration": 1.7731224374999996
                    },
                    {
                        "name": "G3",
                        "midi": 55,
                        "time": 21.333023999999998,
                        "velocity": 0.7874015748031497,
                        "duration": 3.550874437499999
                    },
                    {
                        "name": "B4",
                        "midi": 71,
                        "time": 21.333023999999998,
                        "velocity": 0.7874015748031497,
                        "duration": 5.328626437499999
                    },
                    {
                        "name": "E3",
                        "midi": 52,
                        "time": 24.888527999999997,
                        "velocity": 0.7874015748031497,
                        "duration": 1.7731224374999996
                    },
                    {
                        "name": "C4",
                        "midi": 60,
                        "time": 26.666279999999997,
                        "velocity": 0.7874015748031497,
                        "duration": 1.7731224374999996
                    },
                    {
                        "name": "G4",
                        "midi": 67,
                        "time": 26.666279999999997,
                        "velocity": 0.7874015748031497,
                        "duration": 1.7731224374999996
                    },
                    {
                        "name": "G3",
                        "midi": 55,
                        "time": 28.444031999999996,
                        "velocity": 0.7874015748031497,
                        "duration": 3.550874437499999
                    },
                    {
                        "name": "B4",
                        "midi": 71,
                        "time": 28.444031999999996,
                        "velocity": 0.7874015748031497,
                        "duration": 5.328626437500002
                    },
                    {
                        "name": "E3",
                        "midi": 52,
                        "time": 31.999535999999996,
                        "velocity": 0.7874015748031497,
                        "duration": 1.7731224375000032
                    },
                    {
                        "name": "C4",
                        "midi": 60,
                        "time": 33.777288,
                        "velocity": 0.7874015748031497,
                        "duration": 1.7731224374999996
                    },
                    {
                        "name": "G4",
                        "midi": 67,
                        "time": 33.777288,
                        "velocity": 0.7874015748031497,
                        "duration": 1.7731224374999996
                    },
                    {
                        "name": "G3",
                        "midi": 55,
                        "time": 35.55504,
                        "velocity": 0.7874015748031497,
                        "duration": 3.550874437499999
                    },
                    {
                        "name": "B4",
                        "midi": 71,
                        "time": 35.55504,
                        "velocity": 0.7874015748031497,
                        "duration": 5.328626437499999
                    },
                    {
                        "name": "E3",
                        "midi": 52,
                        "time": 39.110544,
                        "velocity": 0.7874015748031497,
                        "duration": 1.7731224374999996
                    },
                    {
                        "name": "C4",
                        "midi": 60,
                        "time": 40.888296,
                        "velocity": 0.7874015748031497,
                        "duration": 1.7731224374999996
                    },
                    {
                        "name": "G4",
                        "midi": 67,
                        "time": 40.888296,
                        "velocity": 0.7874015748031497,
                        "duration": 1.7731224374999996
                    },
                    {
                        "name": "G3",
                        "midi": 55,
                        "time": 42.666047999999996,
                        "velocity": 0.7874015748031497,
                        "duration": 3.550874437499999
                    },
                    {
                        "name": "B4",
                        "midi": 71,
                        "time": 42.666047999999996,
                        "velocity": 0.7874015748031497,
                        "duration": 5.328626437499999
                    },
                    {
                        "name": "E3",
                        "midi": 52,
                        "time": 46.221551999999996,
                        "velocity": 0.7874015748031497,
                        "duration": 1.7731224374999996
                    },
                    {
                        "name": "C4",
                        "midi": 60,
                        "time": 47.999303999999995,
                        "velocity": 0.7874015748031497,
                        "duration": 1.7731224374999996
                    },
                    {
                        "name": "G4",
                        "midi": 67,
                        "time": 47.999303999999995,
                        "velocity": 0.7874015748031497,
                        "duration": 1.7731224374999996
                    },
                    {
                        "name": "G3",
                        "midi": 55,
                        "time": 49.777055999999995,
                        "velocity": 0.7874015748031497,
                        "duration": 3.550874437499999
                    },
                    {
                        "name": "B4",
                        "midi": 71,
                        "time": 49.777055999999995,
                        "velocity": 0.7874015748031497,
                        "duration": 5.328626437499999
                    },
                    {
                        "name": "E3",
                        "midi": 52,
                        "time": 53.332559999999994,
                        "velocity": 0.7874015748031497,
                        "duration": 1.7731224374999996
                    },
                    {
                        "name": "C4",
                        "midi": 60,
                        "time": 55.11031199999999,
                        "velocity": 0.7874015748031497,
                        "duration": 1.7731224374999996
                    },
                    {
                        "name": "G4",
                        "midi": 67,
                        "time": 55.11031199999999,
                        "velocity": 0.7874015748031497,
                        "duration": 1.7731224374999996
                    },
                    {
                        "name": "G3",
                        "midi": 55,
                        "time": 56.88806399999999,
                        "velocity": 0.7874015748031497,
                        "duration": 3.550874437499999
                    },
                    {
                        "name": "B4",
                        "midi": 71,
                        "time": 56.88806399999999,
                        "velocity": 0.7874015748031497,
                        "duration": 5.328626437499999
                    },
                    {
                        "name": "E3",
                        "midi": 52,
                        "time": 60.44356799999999,
                        "velocity": 0.7874015748031497,
                        "duration": 1.7731224374999996
                    },
                    {
                        "name": "C4",
                        "midi": 60,
                        "time": 62.22131999999999,
                        "velocity": 0.7874015748031497,
                        "duration": 1.7731224374999996
                    },
                    {
                        "name": "G4",
                        "midi": 67,
                        "time": 62.22131999999999,
                        "velocity": 0.7874015748031497,
                        "duration": 1.7731224374999996
                    },
                    {
                        "name": "G3",
                        "midi": 55,
                        "time": 63.99907199999999,
                        "velocity": 0.7874015748031497,
                        "duration": 3.5508744375000063
                    },
                    {
                        "name": "B4",
                        "midi": 71,
                        "time": 63.99907199999999,
                        "velocity": 0.7874015748031497,
                        "duration": 5.328626437500013
                    },
                    {
                        "name": "E3",
                        "midi": 52,
                        "time": 67.554576,
                        "velocity": 0.7874015748031497,
                        "duration": 1.7731224375000068
                    },
                    {
                        "name": "C4",
                        "midi": 60,
                        "time": 69.332328,
                        "velocity": 0.7874015748031497,
                        "duration": 1.7731224375000068
                    },
                    {
                        "name": "G4",
                        "midi": 67,
                        "time": 69.332328,
                        "velocity": 0.7874015748031497,
                        "duration": 1.7731224375000068
                    },
                    {
                        "name": "G3",
                        "midi": 55,
                        "time": 71.11008000000001,
                        "velocity": 0.7874015748031497,
                        "duration": 3.550874437499999
                    },
                    {
                        "name": "B4",
                        "midi": 71,
                        "time": 71.11008000000001,
                        "velocity": 0.7874015748031497,
                        "duration": 5.328626437500006
                    },
                    {
                        "name": "E3",
                        "midi": 52,
                        "time": 74.66558400000001,
                        "velocity": 0.7874015748031497,
                        "duration": 1.7731224375000068
                    },
                    {
                        "name": "C4",
                        "midi": 60,
                        "time": 76.44333600000002,
                        "velocity": 0.7874015748031497,
                        "duration": 1.7731224375000068
                    },
                    {
                        "name": "G4",
                        "midi": 67,
                        "time": 76.44333600000002,
                        "velocity": 0.7874015748031497,
                        "duration": 1.7731224375000068
                    },
                    {
                        "name": "G3",
                        "midi": 55,
                        "time": 78.22108800000002,
                        "velocity": 0.7874015748031497,
                        "duration": 3.550874437499999
                    },
                    {
                        "name": "B4",
                        "midi": 71,
                        "time": 78.22108800000002,
                        "velocity": 0.7874015748031497,
                        "duration": 5.328626437500006
                    },
                    {
                        "name": "E3",
                        "midi": 52,
                        "time": 81.77659200000002,
                        "velocity": 0.7874015748031497,
                        "duration": 1.7731224375000068
                    },
                    {
                        "name": "C4",
                        "midi": 60,
                        "time": 83.55434400000003,
                        "velocity": 0.7874015748031497,
                        "duration": 1.7731224375000068
                    },
                    {
                        "name": "G4",
                        "midi": 67,
                        "time": 83.55434400000003,
                        "velocity": 0.7874015748031497,
                        "duration": 1.7731224375000068
                    },
                    {
                        "name": "G3",
                        "midi": 55,
                        "time": 85.33209600000004,
                        "velocity": 0.7874015748031497,
                        "duration": 3.550874437499999
                    },
                    {
                        "name": "B4",
                        "midi": 71,
                        "time": 85.33209600000004,
                        "velocity": 0.7874015748031497,
                        "duration": 5.328626437500006
                    },
                    {
                        "name": "E3",
                        "midi": 52,
                        "time": 88.88760000000003,
                        "velocity": 0.7874015748031497,
                        "duration": 1.7731224375000068
                    },
                    {
                        "name": "C4",
                        "midi": 60,
                        "time": 90.66535200000004,
                        "velocity": 0.7874015748031497,
                        "duration": 1.7731224375000068
                    },
                    {
                        "name": "G4",
                        "midi": 67,
                        "time": 90.66535200000004,
                        "velocity": 0.7874015748031497,
                        "duration": 1.7731224375000068
                    },
                    {
                        "name": "G3",
                        "midi": 55,
                        "time": 92.44310400000005,
                        "velocity": 0.7874015748031497,
                        "duration": 3.550874437499999
                    },
                    {
                        "name": "B4",
                        "midi": 71,
                        "time": 92.44310400000005,
                        "velocity": 0.7874015748031497,
                        "duration": 5.328626437500006
                    },
                    {
                        "name": "E3",
                        "midi": 52,
                        "time": 95.99860800000005,
                        "velocity": 0.7874015748031497,
                        "duration": 1.7731224375000068
                    },
                    {
                        "name": "C4",
                        "midi": 60,
                        "time": 97.77636000000005,
                        "velocity": 0.7874015748031497,
                        "duration": 1.7731224375000068
                    },
                    {
                        "name": "G4",
                        "midi": 67,
                        "time": 97.77636000000005,
                        "velocity": 0.7874015748031497,
                        "duration": 1.7731224375000068
                    },
                    {
                        "name": "G3",
                        "midi": 55,
                        "time": 99.55411200000006,
                        "velocity": 0.7874015748031497,
                        "duration": 3.550874437499999
                    },
                    {
                        "name": "B4",
                        "midi": 71,
                        "time": 99.55411200000006,
                        "velocity": 0.7874015748031497,
                        "duration": 5.328626437500006
                    },
                    {
                        "name": "E3",
                        "midi": 52,
                        "time": 103.10961600000006,
                        "velocity": 0.7874015748031497,
                        "duration": 1.7731224375000068
                    },
                    {
                        "name": "C4",
                        "midi": 60,
                        "time": 104.88736800000007,
                        "velocity": 0.7874015748031497,
                        "duration": 1.7731224375000068
                    },
                    {
                        "name": "G4",
                        "midi": 67,
                        "time": 104.88736800000007,
                        "velocity": 0.7874015748031497,
                        "duration": 1.7731224375000068
                    },
                    {
                        "name": "G3",
                        "midi": 55,
                        "time": 106.66512000000007,
                        "velocity": 0.7874015748031497,
                        "duration": 3.550874437499999
                    },
                    {
                        "name": "B4",
                        "midi": 71,
                        "time": 106.66512000000007,
                        "velocity": 0.7874015748031497,
                        "duration": 5.328626437500006
                    },
                    {
                        "name": "E3",
                        "midi": 52,
                        "time": 110.22062400000007,
                        "velocity": 0.7874015748031497,
                        "duration": 1.7731224375000068
                    },
                    {
                        "name": "C4",
                        "midi": 60,
                        "time": 111.99837600000008,
                        "velocity": 0.7874015748031497,
                        "duration": 1.7731224375000068
                    },
                    {
                        "name": "G4",
                        "midi": 67,
                        "time": 111.99837600000008,
                        "velocity": 0.7874015748031497,
                        "duration": 1.7731224375000068
                    },
                    {
                        "name": "G3",
                        "midi": 55,
                        "time": 113.77612800000009,
                        "velocity": 0.7874015748031497,
                        "duration": 3.550874437499999
                    },
                    {
                        "name": "B4",
                        "midi": 71,
                        "time": 113.77612800000009,
                        "velocity": 0.7874015748031497,
                        "duration": 5.328626437500006
                    },
                    {
                        "name": "E3",
                        "midi": 52,
                        "time": 117.33163200000008,
                        "velocity": 0.7874015748031497,
                        "duration": 1.7731224375000068
                    },
                    {
                        "name": "C4",
                        "midi": 60,
                        "time": 119.10938400000009,
                        "velocity": 0.7874015748031497,
                        "duration": 1.7731224375000068
                    },
                    {
                        "name": "G4",
                        "midi": 67,
                        "time": 119.10938400000009,
                        "velocity": 0.7874015748031497,
                        "duration": 1.7731224375000068
                    },
                    {
                        "name": "G3",
                        "midi": 55,
                        "time": 120.8871360000001,
                        "velocity": 0.7874015748031497,
                        "duration": 3.550874437499999
                    },
                    {
                        "name": "B4",
                        "midi": 71,
                        "time": 120.8871360000001,
                        "velocity": 0.7874015748031497,
                        "duration": 5.328626437500006
                    },
                    {
                        "name": "E3",
                        "midi": 52,
                        "time": 124.4426400000001,
                        "velocity": 0.7874015748031497,
                        "duration": 1.7731224375000068
                    },
                    {
                        "name": "C4",
                        "midi": 60,
                        "time": 126.2203920000001,
                        "velocity": 0.7874015748031497,
                        "duration": 1.7731224375000068
                    },
                    {
                        "name": "G4",
                        "midi": 67,
                        "time": 126.2203920000001,
                        "velocity": 0.7874015748031497,
                        "duration": 1.7731224375000068
                    }
                ],
                "controlChanges": {},
                "id": 3,
                "instrumentNumber": 51,
                "instrument": "synthstrings 2",
                "instrumentFamily": "ensemble",
                "channelNumber": 2,
                "isPercussion": false
            },
            {
                "startTime": 28.666251,
                "duration": 127.99351443749924,
                "length": 364,
                "notes": [
                    {
                        "name": "G5",
                        "midi": 79,
                        "time": 28.666251,
                        "velocity": 0.7007874015748031,
                        "duration": 0.21758943749999915
                    },
                    {
                        "name": "F#5",
                        "midi": 78,
                        "time": 28.888469999999998,
                        "velocity": 0.7007874015748031,
                        "duration": 0.21758943749999915
                    },
                    {
                        "name": "D5",
                        "midi": 74,
                        "time": 29.110688999999997,
                        "velocity": 0.7007874015748031,
                        "duration": 0.21758943749999915
                    },
                    {
                        "name": "G5",
                        "midi": 79,
                        "time": 29.332907999999996,
                        "velocity": 0.7007874015748031,
                        "duration": 0.21758943749999915
                    },
                    {
                        "name": "F#5",
                        "midi": 78,
                        "time": 29.555126999999995,
                        "velocity": 0.7007874015748031,
                        "duration": 0.21758943749999915
                    },
                    {
                        "name": "D5",
                        "midi": 74,
                        "time": 29.777345999999994,
                        "velocity": 0.7007874015748031,
                        "duration": 0.21758943749999915
                    },
                    {
                        "name": "G5",
                        "midi": 79,
                        "time": 29.999564999999993,
                        "velocity": 0.7007874015748031,
                        "duration": 0.32869893750000045
                    },
                    {
                        "name": "G5",
                        "midi": 79,
                        "time": 30.444002999999995,
                        "velocity": 0.7007874015748031,
                        "duration": 0.21758943749999915
                    },
                    {
                        "name": "F#5",
                        "midi": 78,
                        "time": 30.666221999999994,
                        "velocity": 0.7007874015748031,
                        "duration": 0.21758943749999915
                    },
                    {
                        "name": "D5",
                        "midi": 74,
                        "time": 30.888440999999993,
                        "velocity": 0.7007874015748031,
                        "duration": 0.21758943749999915
                    },
                    {
                        "name": "G5",
                        "midi": 79,
                        "time": 31.110659999999992,
                        "velocity": 0.7007874015748031,
                        "duration": 0.21758943749999915
                    },
                    {
                        "name": "F#5",
                        "midi": 78,
                        "time": 31.33287899999999,
                        "velocity": 0.7007874015748031,
                        "duration": 0.21758943749999915
                    },
                    {
                        "name": "D5",
                        "midi": 74,
                        "time": 31.55509799999999,
                        "velocity": 0.7007874015748031,
                        "duration": 0.21758943749999915
                    },
                    {
                        "name": "G4",
                        "midi": 67,
                        "time": 31.77731699999999,
                        "velocity": 0.7007874015748031,
                        "duration": 0.32869893750000045
                    },
                    {
                        "name": "G5",
                        "midi": 79,
                        "time": 32.22175499999999,
                        "velocity": 0.7007874015748031,
                        "duration": 0.2175894375000027
                    },
                    {
                        "name": "F#5",
                        "midi": 78,
                        "time": 32.44397399999999,
                        "velocity": 0.7007874015748031,
                        "duration": 0.2175894375000027
                    },
                    {
                        "name": "D5",
                        "midi": 74,
                        "time": 32.66619299999999,
                        "velocity": 0.7007874015748031,
                        "duration": 0.2175894375000027
                    },
                    {
                        "name": "G5",
                        "midi": 79,
                        "time": 32.888411999999995,
                        "velocity": 0.7007874015748031,
                        "duration": 0.2175894375000027
                    },
                    {
                        "name": "F#5",
                        "midi": 78,
                        "time": 33.110631,
                        "velocity": 0.7007874015748031,
                        "duration": 0.2175894375000027
                    },
                    {
                        "name": "D5",
                        "midi": 74,
                        "time": 33.33285,
                        "velocity": 0.7007874015748031,
                        "duration": 0.32869893750000045
                    },
                    {
                        "name": "G4",
                        "midi": 67,
                        "time": 33.777288,
                        "velocity": 0.7007874015748031,
                        "duration": 0.4398084374999982
                    },
                    {
                        "name": "A4",
                        "midi": 69,
                        "time": 34.221726,
                        "velocity": 0.7007874015748031,
                        "duration": 0.4398084374999982
                    },
                    {
                        "name": "B4",
                        "midi": 71,
                        "time": 34.666163999999995,
                        "velocity": 0.7007874015748031,
                        "duration": 0.2175894375000027
                    },
                    {
                        "name": "A4",
                        "midi": 69,
                        "time": 34.888383,
                        "velocity": 0.7007874015748031,
                        "duration": 0.2175894375000027
                    },
                    {
                        "name": "G4",
                        "midi": 67,
                        "time": 35.110602,
                        "velocity": 0.7007874015748031,
                        "duration": 0.2175894375000027
                    },
                    {
                        "name": "D4",
                        "midi": 62,
                        "time": 35.332821,
                        "velocity": 0.7007874015748031,
                        "duration": 0.4398084374999982
                    },
                    {
                        "name": "G5",
                        "midi": 79,
                        "time": 35.777259,
                        "velocity": 0.7007874015748031,
                        "duration": 0.2175894375000027
                    },
                    {
                        "name": "F#5",
                        "midi": 78,
                        "time": 35.999478,
                        "velocity": 0.7007874015748031,
                        "duration": 0.2175894375000027
                    },
                    {
                        "name": "D5",
                        "midi": 74,
                        "time": 36.221697000000006,
                        "velocity": 0.7007874015748031,
                        "duration": 0.2175894375000027
                    },
                    {
                        "name": "G5",
                        "midi": 79,
                        "time": 36.44391600000001,
                        "velocity": 0.7007874015748031,
                        "duration": 0.2175894375000027
                    },
                    {
                        "name": "F#5",
                        "midi": 78,
                        "time": 36.66613500000001,
                        "velocity": 0.7007874015748031,
                        "duration": 0.2175894375000027
                    },
                    {
                        "name": "D5",
                        "midi": 74,
                        "time": 36.888354000000014,
                        "velocity": 0.7007874015748031,
                        "duration": 0.2175894375000027
                    },
                    {
                        "name": "G5",
                        "midi": 79,
                        "time": 37.11057300000002,
                        "velocity": 0.7007874015748031,
                        "duration": 0.32869893750000045
                    },
                    {
                        "name": "G5",
                        "midi": 79,
                        "time": 37.555011000000015,
                        "velocity": 0.7007874015748031,
                        "duration": 0.2175894375000027
                    },
                    {
                        "name": "F#5",
                        "midi": 78,
                        "time": 37.77723000000002,
                        "velocity": 0.7007874015748031,
                        "duration": 0.2175894375000027
                    },
                    {
                        "name": "D5",
                        "midi": 74,
                        "time": 37.99944900000002,
                        "velocity": 0.7007874015748031,
                        "duration": 0.2175894375000027
                    },
                    {
                        "name": "G5",
                        "midi": 79,
                        "time": 38.22166800000002,
                        "velocity": 0.7007874015748031,
                        "duration": 0.2175894375000027
                    },
                    {
                        "name": "F#5",
                        "midi": 78,
                        "time": 38.443887000000025,
                        "velocity": 0.7007874015748031,
                        "duration": 0.2175894375000027
                    },
                    {
                        "name": "D5",
                        "midi": 74,
                        "time": 38.66610600000003,
                        "velocity": 0.7007874015748031,
                        "duration": 0.2175894375000027
                    },
                    {
                        "name": "G4",
                        "midi": 67,
                        "time": 38.88832500000003,
                        "velocity": 0.7007874015748031,
                        "duration": 0.32869893750000045
                    },
                    {
                        "name": "G5",
                        "midi": 79,
                        "time": 39.33276300000003,
                        "velocity": 0.7007874015748031,
                        "duration": 0.2175894375000027
                    },
                    {
                        "name": "F#5",
                        "midi": 78,
                        "time": 39.55498200000003,
                        "velocity": 0.7007874015748031,
                        "duration": 0.2175894375000027
                    },
                    {
                        "name": "D5",
                        "midi": 74,
                        "time": 39.777201000000034,
                        "velocity": 0.7007874015748031,
                        "duration": 0.2175894375000027
                    },
                    {
                        "name": "G5",
                        "midi": 79,
                        "time": 39.999420000000036,
                        "velocity": 0.7007874015748031,
                        "duration": 0.2175894375000027
                    },
                    {
                        "name": "F#5",
                        "midi": 78,
                        "time": 40.22163900000004,
                        "velocity": 0.7007874015748031,
                        "duration": 0.2175894375000027
                    },
                    {
                        "name": "D5",
                        "midi": 74,
                        "time": 40.44385800000004,
                        "velocity": 0.7007874015748031,
                        "duration": 0.32869893750000045
                    },
                    {
                        "name": "G4",
                        "midi": 67,
                        "time": 40.88829600000004,
                        "velocity": 0.7007874015748031,
                        "duration": 0.4398084374999982
                    },
                    {
                        "name": "A4",
                        "midi": 69,
                        "time": 41.33273400000004,
                        "velocity": 0.7007874015748031,
                        "duration": 0.4398084374999982
                    },
                    {
                        "name": "B4",
                        "midi": 71,
                        "time": 41.777172000000036,
                        "velocity": 0.7007874015748031,
                        "duration": 0.2175894375000027
                    },
                    {
                        "name": "A4",
                        "midi": 69,
                        "time": 41.99939100000004,
                        "velocity": 0.7007874015748031,
                        "duration": 0.2175894375000027
                    },
                    {
                        "name": "G4",
                        "midi": 67,
                        "time": 42.22161000000004,
                        "velocity": 0.7007874015748031,
                        "duration": 0.2175894375000027
                    },
                    {
                        "name": "D4",
                        "midi": 62,
                        "time": 42.44382900000004,
                        "velocity": 0.7007874015748031,
                        "duration": 0.4398084374999982
                    },
                    {
                        "name": "G5",
                        "midi": 79,
                        "time": 42.88826700000004,
                        "velocity": 0.7007874015748031,
                        "duration": 0.2175894375000027
                    },
                    {
                        "name": "F#5",
                        "midi": 78,
                        "time": 43.110486000000044,
                        "velocity": 0.7007874015748031,
                        "duration": 0.2175894375000027
                    },
                    {
                        "name": "D5",
                        "midi": 74,
                        "time": 43.33270500000005,
                        "velocity": 0.7007874015748031,
                        "duration": 0.2175894375000027
                    },
                    {
                        "name": "G5",
                        "midi": 79,
                        "time": 43.55492400000005,
                        "velocity": 0.7007874015748031,
                        "duration": 0.2175894375000027
                    },
                    {
                        "name": "F#5",
                        "midi": 78,
                        "time": 43.77714300000005,
                        "velocity": 0.7007874015748031,
                        "duration": 0.2175894375000027
                    },
                    {
                        "name": "D5",
                        "midi": 74,
                        "time": 43.999362000000055,
                        "velocity": 0.7007874015748031,
                        "duration": 0.2175894375000027
                    },
                    {
                        "name": "G5",
                        "midi": 79,
                        "time": 44.22158100000006,
                        "velocity": 0.7007874015748031,
                        "duration": 0.32869893750000045
                    },
                    {
                        "name": "G5",
                        "midi": 79,
                        "time": 44.666019000000055,
                        "velocity": 0.7007874015748031,
                        "duration": 0.2175894375000027
                    },
                    {
                        "name": "F#5",
                        "midi": 78,
                        "time": 44.88823800000006,
                        "velocity": 0.7007874015748031,
                        "duration": 0.2175894375000027
                    },
                    {
                        "name": "D5",
                        "midi": 74,
                        "time": 45.11045700000006,
                        "velocity": 0.7007874015748031,
                        "duration": 0.2175894375000027
                    },
                    {
                        "name": "G5",
                        "midi": 79,
                        "time": 45.33267600000006,
                        "velocity": 0.7007874015748031,
                        "duration": 0.2175894375000027
                    },
                    {
                        "name": "F#5",
                        "midi": 78,
                        "time": 45.554895000000066,
                        "velocity": 0.7007874015748031,
                        "duration": 0.2175894375000027
                    },
                    {
                        "name": "D5",
                        "midi": 74,
                        "time": 45.77711400000007,
                        "velocity": 0.7007874015748031,
                        "duration": 0.2175894375000027
                    },
                    {
                        "name": "G4",
                        "midi": 67,
                        "time": 45.99933300000007,
                        "velocity": 0.7007874015748031,
                        "duration": 0.32869893750000045
                    },
                    {
                        "name": "G5",
                        "midi": 79,
                        "time": 46.44377100000007,
                        "velocity": 0.7007874015748031,
                        "duration": 0.2175894375000027
                    },
                    {
                        "name": "F#5",
                        "midi": 78,
                        "time": 46.66599000000007,
                        "velocity": 0.7007874015748031,
                        "duration": 0.2175894375000027
                    },
                    {
                        "name": "D5",
                        "midi": 74,
                        "time": 46.888209000000074,
                        "velocity": 0.7007874015748031,
                        "duration": 0.2175894375000027
                    },
                    {
                        "name": "G5",
                        "midi": 79,
                        "time": 47.11042800000008,
                        "velocity": 0.7007874015748031,
                        "duration": 0.2175894375000027
                    },
                    {
                        "name": "F#5",
                        "midi": 78,
                        "time": 47.33264700000008,
                        "velocity": 0.7007874015748031,
                        "duration": 0.2175894375000027
                    },
                    {
                        "name": "D5",
                        "midi": 74,
                        "time": 47.55486600000008,
                        "velocity": 0.7007874015748031,
                        "duration": 0.32869893750000045
                    },
                    {
                        "name": "G4",
                        "midi": 67,
                        "time": 47.99930400000008,
                        "velocity": 0.7007874015748031,
                        "duration": 0.4398084374999982
                    },
                    {
                        "name": "A4",
                        "midi": 69,
                        "time": 48.44374200000008,
                        "velocity": 0.7007874015748031,
                        "duration": 0.4398084374999982
                    },
                    {
                        "name": "B4",
                        "midi": 71,
                        "time": 48.88818000000008,
                        "velocity": 0.7007874015748031,
                        "duration": 0.2175894375000027
                    },
                    {
                        "name": "A4",
                        "midi": 69,
                        "time": 49.11039900000008,
                        "velocity": 0.7007874015748031,
                        "duration": 0.2175894375000027
                    },
                    {
                        "name": "G4",
                        "midi": 67,
                        "time": 49.33261800000008,
                        "velocity": 0.7007874015748031,
                        "duration": 0.2175894375000027
                    },
                    {
                        "name": "D4",
                        "midi": 62,
                        "time": 49.554837000000084,
                        "velocity": 0.7007874015748031,
                        "duration": 0.4398084374999982
                    },
                    {
                        "name": "G5",
                        "midi": 79,
                        "time": 49.99927500000008,
                        "velocity": 0.7007874015748031,
                        "duration": 0.2175894375000027
                    },
                    {
                        "name": "F#5",
                        "midi": 78,
                        "time": 50.221494000000085,
                        "velocity": 0.7007874015748031,
                        "duration": 0.2175894375000027
                    },
                    {
                        "name": "D5",
                        "midi": 74,
                        "time": 50.44371300000009,
                        "velocity": 0.7007874015748031,
                        "duration": 0.2175894375000027
                    },
                    {
                        "name": "G5",
                        "midi": 79,
                        "time": 50.66593200000009,
                        "velocity": 0.7007874015748031,
                        "duration": 0.2175894375000027
                    },
                    {
                        "name": "F#5",
                        "midi": 78,
                        "time": 50.88815100000009,
                        "velocity": 0.7007874015748031,
                        "duration": 0.2175894375000027
                    },
                    {
                        "name": "D5",
                        "midi": 74,
                        "time": 51.110370000000096,
                        "velocity": 0.7007874015748031,
                        "duration": 0.2175894375000027
                    },
                    {
                        "name": "G5",
                        "midi": 79,
                        "time": 51.3325890000001,
                        "velocity": 0.7007874015748031,
                        "duration": 0.32869893750000045
                    },
                    {
                        "name": "G5",
                        "midi": 79,
                        "time": 51.777027000000096,
                        "velocity": 0.7007874015748031,
                        "duration": 0.2175894375000027
                    },
                    {
                        "name": "F#5",
                        "midi": 78,
                        "time": 51.9992460000001,
                        "velocity": 0.7007874015748031,
                        "duration": 0.2175894375000027
                    },
                    {
                        "name": "D5",
                        "midi": 74,
                        "time": 52.2214650000001,
                        "velocity": 0.7007874015748031,
                        "duration": 0.2175894375000027
                    },
                    {
                        "name": "G5",
                        "midi": 79,
                        "time": 52.443684000000104,
                        "velocity": 0.7007874015748031,
                        "duration": 0.2175894375000027
                    },
                    {
                        "name": "F#5",
                        "midi": 78,
                        "time": 52.66590300000011,
                        "velocity": 0.7007874015748031,
                        "duration": 0.2175894375000027
                    },
                    {
                        "name": "D5",
                        "midi": 74,
                        "time": 52.88812200000011,
                        "velocity": 0.7007874015748031,
                        "duration": 0.2175894375000027
                    },
                    {
                        "name": "G4",
                        "midi": 67,
                        "time": 53.11034100000011,
                        "velocity": 0.7007874015748031,
                        "duration": 0.32869893750000045
                    },
                    {
                        "name": "G5",
                        "midi": 79,
                        "time": 53.55477900000011,
                        "velocity": 0.7007874015748031,
                        "duration": 0.2175894375000027
                    },
                    {
                        "name": "F#5",
                        "midi": 78,
                        "time": 53.77699800000011,
                        "velocity": 0.7007874015748031,
                        "duration": 0.2175894375000027
                    },
                    {
                        "name": "D5",
                        "midi": 74,
                        "time": 53.999217000000115,
                        "velocity": 0.7007874015748031,
                        "duration": 0.2175894375000027
                    },
                    {
                        "name": "G5",
                        "midi": 79,
                        "time": 54.22143600000012,
                        "velocity": 0.7007874015748031,
                        "duration": 0.2175894375000027
                    },
                    {
                        "name": "F#5",
                        "midi": 78,
                        "time": 54.44365500000012,
                        "velocity": 0.7007874015748031,
                        "duration": 0.2175894375000027
                    },
                    {
                        "name": "D5",
                        "midi": 74,
                        "time": 54.66587400000012,
                        "velocity": 0.7007874015748031,
                        "duration": 0.32869893750000045
                    },
                    {
                        "name": "G4",
                        "midi": 67,
                        "time": 55.11031200000012,
                        "velocity": 0.7007874015748031,
                        "duration": 0.4398084374999982
                    },
                    {
                        "name": "A4",
                        "midi": 69,
                        "time": 55.55475000000012,
                        "velocity": 0.7007874015748031,
                        "duration": 0.4398084374999982
                    },
                    {
                        "name": "B4",
                        "midi": 71,
                        "time": 55.99918800000012,
                        "velocity": 0.7007874015748031,
                        "duration": 0.2175894375000027
                    },
                    {
                        "name": "A4",
                        "midi": 69,
                        "time": 56.22140700000012,
                        "velocity": 0.7007874015748031,
                        "duration": 0.2175894375000027
                    },
                    {
                        "name": "G4",
                        "midi": 67,
                        "time": 56.44362600000012,
                        "velocity": 0.7007874015748031,
                        "duration": 0.2175894375000027
                    },
                    {
                        "name": "D4",
                        "midi": 62,
                        "time": 56.665845000000125,
                        "velocity": 0.7007874015748031,
                        "duration": 0.4398084374999982
                    },
                    {
                        "name": "G5",
                        "midi": 79,
                        "time": 57.11028300000012,
                        "velocity": 0.7007874015748031,
                        "duration": 0.2175894375000027
                    },
                    {
                        "name": "F#5",
                        "midi": 78,
                        "time": 57.332502000000126,
                        "velocity": 0.7007874015748031,
                        "duration": 0.2175894375000027
                    },
                    {
                        "name": "D5",
                        "midi": 74,
                        "time": 57.55472100000013,
                        "velocity": 0.7007874015748031,
                        "duration": 0.2175894375000027
                    },
                    {
                        "name": "G5",
                        "midi": 79,
                        "time": 57.77694000000013,
                        "velocity": 0.7007874015748031,
                        "duration": 0.2175894375000027
                    },
                    {
                        "name": "F#5",
                        "midi": 78,
                        "time": 57.999159000000134,
                        "velocity": 0.7007874015748031,
                        "duration": 0.2175894375000027
                    },
                    {
                        "name": "D5",
                        "midi": 74,
                        "time": 58.221378000000136,
                        "velocity": 0.7007874015748031,
                        "duration": 0.2175894375000027
                    },
                    {
                        "name": "G5",
                        "midi": 79,
                        "time": 58.44359700000014,
                        "velocity": 0.7007874015748031,
                        "duration": 0.32869893750000045
                    },
                    {
                        "name": "G5",
                        "midi": 79,
                        "time": 58.88803500000014,
                        "velocity": 0.7007874015748031,
                        "duration": 0.2175894375000027
                    },
                    {
                        "name": "F#5",
                        "midi": 78,
                        "time": 59.11025400000014,
                        "velocity": 0.7007874015748031,
                        "duration": 0.2175894375000027
                    },
                    {
                        "name": "D5",
                        "midi": 74,
                        "time": 59.33247300000014,
                        "velocity": 0.7007874015748031,
                        "duration": 0.2175894375000027
                    },
                    {
                        "name": "G5",
                        "midi": 79,
                        "time": 59.554692000000145,
                        "velocity": 0.7007874015748031,
                        "duration": 0.2175894375000027
                    },
                    {
                        "name": "F#5",
                        "midi": 78,
                        "time": 59.77691100000015,
                        "velocity": 0.7007874015748031,
                        "duration": 0.2175894375000027
                    },
                    {
                        "name": "D5",
                        "midi": 74,
                        "time": 59.99913000000015,
                        "velocity": 0.7007874015748031,
                        "duration": 0.2175894375000027
                    },
                    {
                        "name": "G4",
                        "midi": 67,
                        "time": 60.22134900000015,
                        "velocity": 0.7007874015748031,
                        "duration": 0.32869893750000045
                    },
                    {
                        "name": "G5",
                        "midi": 79,
                        "time": 60.66578700000015,
                        "velocity": 0.7007874015748031,
                        "duration": 0.2175894375000027
                    },
                    {
                        "name": "F#5",
                        "midi": 78,
                        "time": 60.88800600000015,
                        "velocity": 0.7007874015748031,
                        "duration": 0.2175894375000027
                    },
                    {
                        "name": "D5",
                        "midi": 74,
                        "time": 61.110225000000156,
                        "velocity": 0.7007874015748031,
                        "duration": 0.2175894375000027
                    },
                    {
                        "name": "G5",
                        "midi": 79,
                        "time": 61.33244400000016,
                        "velocity": 0.7007874015748031,
                        "duration": 0.2175894375000027
                    },
                    {
                        "name": "F#5",
                        "midi": 78,
                        "time": 61.55466300000016,
                        "velocity": 0.7007874015748031,
                        "duration": 0.2175894375000027
                    },
                    {
                        "name": "D5",
                        "midi": 74,
                        "time": 61.776882000000164,
                        "velocity": 0.7007874015748031,
                        "duration": 0.32869893750000045
                    },
                    {
                        "name": "G4",
                        "midi": 67,
                        "time": 62.22132000000016,
                        "velocity": 0.7007874015748031,
                        "duration": 0.4398084374999982
                    },
                    {
                        "name": "A4",
                        "midi": 69,
                        "time": 62.66575800000016,
                        "velocity": 0.7007874015748031,
                        "duration": 0.4398084374999982
                    },
                    {
                        "name": "B4",
                        "midi": 71,
                        "time": 63.11019600000016,
                        "velocity": 0.7007874015748031,
                        "duration": 0.2175894375000027
                    },
                    {
                        "name": "A4",
                        "midi": 69,
                        "time": 63.33241500000016,
                        "velocity": 0.7007874015748031,
                        "duration": 0.2175894375000027
                    },
                    {
                        "name": "G4",
                        "midi": 67,
                        "time": 63.55463400000016,
                        "velocity": 0.7007874015748031,
                        "duration": 0.2175894375000027
                    },
                    {
                        "name": "D4",
                        "midi": 62,
                        "time": 63.776853000000166,
                        "velocity": 0.7007874015748031,
                        "duration": 0.4398084374999982
                    },
                    {
                        "name": "G5",
                        "midi": 79,
                        "time": 64.22129100000016,
                        "velocity": 0.7007874015748031,
                        "duration": 0.2175894374999956
                    },
                    {
                        "name": "F#5",
                        "midi": 78,
                        "time": 64.44351000000016,
                        "velocity": 0.7007874015748031,
                        "duration": 0.2175894374999956
                    },
                    {
                        "name": "D5",
                        "midi": 74,
                        "time": 64.66572900000016,
                        "velocity": 0.7007874015748031,
                        "duration": 0.2175894374999956
                    },
                    {
                        "name": "G5",
                        "midi": 79,
                        "time": 64.88794800000015,
                        "velocity": 0.7007874015748031,
                        "duration": 0.2175894374999956
                    },
                    {
                        "name": "F#5",
                        "midi": 78,
                        "time": 65.11016700000015,
                        "velocity": 0.7007874015748031,
                        "duration": 0.2175894374999956
                    },
                    {
                        "name": "D5",
                        "midi": 74,
                        "time": 65.33238600000014,
                        "velocity": 0.7007874015748031,
                        "duration": 0.2175894374999956
                    },
                    {
                        "name": "G5",
                        "midi": 79,
                        "time": 65.55460500000014,
                        "velocity": 0.7007874015748031,
                        "duration": 0.32869893749999335
                    },
                    {
                        "name": "G5",
                        "midi": 79,
                        "time": 65.99904300000013,
                        "velocity": 0.7007874015748031,
                        "duration": 0.2175894374999956
                    },
                    {
                        "name": "F#5",
                        "midi": 78,
                        "time": 66.22126200000012,
                        "velocity": 0.7007874015748031,
                        "duration": 0.2175894374999956
                    },
                    {
                        "name": "D5",
                        "midi": 74,
                        "time": 66.44348100000012,
                        "velocity": 0.7007874015748031,
                        "duration": 0.2175894374999956
                    },
                    {
                        "name": "G5",
                        "midi": 79,
                        "time": 66.66570000000011,
                        "velocity": 0.7007874015748031,
                        "duration": 0.2175894374999956
                    },
                    {
                        "name": "F#5",
                        "midi": 78,
                        "time": 66.88791900000011,
                        "velocity": 0.7007874015748031,
                        "duration": 0.2175894374999956
                    },
                    {
                        "name": "D5",
                        "midi": 74,
                        "time": 67.1101380000001,
                        "velocity": 0.7007874015748031,
                        "duration": 0.2175894374999956
                    },
                    {
                        "name": "G4",
                        "midi": 67,
                        "time": 67.3323570000001,
                        "velocity": 0.7007874015748031,
                        "duration": 0.32869893749999335
                    },
                    {
                        "name": "G5",
                        "midi": 79,
                        "time": 67.77679500000009,
                        "velocity": 0.7007874015748031,
                        "duration": 0.2175894374999956
                    },
                    {
                        "name": "F#5",
                        "midi": 78,
                        "time": 67.99901400000009,
                        "velocity": 0.7007874015748031,
                        "duration": 0.2175894374999956
                    },
                    {
                        "name": "D5",
                        "midi": 74,
                        "time": 68.22123300000008,
                        "velocity": 0.7007874015748031,
                        "duration": 0.2175894374999956
                    },
                    {
                        "name": "G5",
                        "midi": 79,
                        "time": 68.44345200000008,
                        "velocity": 0.7007874015748031,
                        "duration": 0.2175894374999956
                    },
                    {
                        "name": "F#5",
                        "midi": 78,
                        "time": 68.66567100000007,
                        "velocity": 0.7007874015748031,
                        "duration": 0.2175894374999956
                    },
                    {
                        "name": "D5",
                        "midi": 74,
                        "time": 68.88789000000007,
                        "velocity": 0.7007874015748031,
                        "duration": 0.32869893749999335
                    },
                    {
                        "name": "G4",
                        "midi": 67,
                        "time": 69.33232800000006,
                        "velocity": 0.7007874015748031,
                        "duration": 0.4398084375000053
                    },
                    {
                        "name": "A4",
                        "midi": 69,
                        "time": 69.77676600000007,
                        "velocity": 0.7007874015748031,
                        "duration": 0.4398084375000053
                    },
                    {
                        "name": "B4",
                        "midi": 71,
                        "time": 70.22120400000007,
                        "velocity": 0.7007874015748031,
                        "duration": 0.2175894374999956
                    },
                    {
                        "name": "A4",
                        "midi": 69,
                        "time": 70.44342300000007,
                        "velocity": 0.7007874015748031,
                        "duration": 0.2175894374999956
                    },
                    {
                        "name": "G4",
                        "midi": 67,
                        "time": 70.66564200000006,
                        "velocity": 0.7007874015748031,
                        "duration": 0.2175894374999956
                    },
                    {
                        "name": "D4",
                        "midi": 62,
                        "time": 70.88786100000006,
                        "velocity": 0.7007874015748031,
                        "duration": 0.4398084375000053
                    },
                    {
                        "name": "G5",
                        "midi": 79,
                        "time": 71.33229900000006,
                        "velocity": 0.7007874015748031,
                        "duration": 0.2175894374999956
                    },
                    {
                        "name": "F#5",
                        "midi": 78,
                        "time": 71.55451800000006,
                        "velocity": 0.7007874015748031,
                        "duration": 0.2175894374999956
                    },
                    {
                        "name": "D5",
                        "midi": 74,
                        "time": 71.77673700000005,
                        "velocity": 0.7007874015748031,
                        "duration": 0.2175894374999956
                    },
                    {
                        "name": "G5",
                        "midi": 79,
                        "time": 71.99895600000005,
                        "velocity": 0.7007874015748031,
                        "duration": 0.2175894374999956
                    },
                    {
                        "name": "F#5",
                        "midi": 78,
                        "time": 72.22117500000004,
                        "velocity": 0.7007874015748031,
                        "duration": 0.2175894374999956
                    },
                    {
                        "name": "D5",
                        "midi": 74,
                        "time": 72.44339400000004,
                        "velocity": 0.7007874015748031,
                        "duration": 0.2175894374999956
                    },
                    {
                        "name": "G5",
                        "midi": 79,
                        "time": 72.66561300000004,
                        "velocity": 0.7007874015748031,
                        "duration": 0.32869893749999335
                    },
                    {
                        "name": "G5",
                        "midi": 79,
                        "time": 73.11005100000003,
                        "velocity": 0.7007874015748031,
                        "duration": 0.2175894374999956
                    },
                    {
                        "name": "F#5",
                        "midi": 78,
                        "time": 73.33227000000002,
                        "velocity": 0.7007874015748031,
                        "duration": 0.2175894374999956
                    },
                    {
                        "name": "D5",
                        "midi": 74,
                        "time": 73.55448900000002,
                        "velocity": 0.7007874015748031,
                        "duration": 0.2175894374999956
                    },
                    {
                        "name": "G5",
                        "midi": 79,
                        "time": 73.77670800000001,
                        "velocity": 0.7007874015748031,
                        "duration": 0.2175894374999956
                    },
                    {
                        "name": "F#5",
                        "midi": 78,
                        "time": 73.99892700000001,
                        "velocity": 0.7007874015748031,
                        "duration": 0.2175894374999956
                    },
                    {
                        "name": "D5",
                        "midi": 74,
                        "time": 74.221146,
                        "velocity": 0.7007874015748031,
                        "duration": 0.2175894374999956
                    },
                    {
                        "name": "G4",
                        "midi": 67,
                        "time": 74.443365,
                        "velocity": 0.7007874015748031,
                        "duration": 0.32869893749999335
                    },
                    {
                        "name": "G5",
                        "midi": 79,
                        "time": 74.88780299999999,
                        "velocity": 0.7007874015748031,
                        "duration": 0.2175894374999956
                    },
                    {
                        "name": "F#5",
                        "midi": 78,
                        "time": 75.11002199999999,
                        "velocity": 0.7007874015748031,
                        "duration": 0.2175894374999956
                    },
                    {
                        "name": "D5",
                        "midi": 74,
                        "time": 75.33224099999998,
                        "velocity": 0.7007874015748031,
                        "duration": 0.2175894374999956
                    },
                    {
                        "name": "G5",
                        "midi": 79,
                        "time": 75.55445999999998,
                        "velocity": 0.7007874015748031,
                        "duration": 0.2175894374999956
                    },
                    {
                        "name": "F#5",
                        "midi": 78,
                        "time": 75.77667899999997,
                        "velocity": 0.7007874015748031,
                        "duration": 0.2175894374999956
                    },
                    {
                        "name": "D5",
                        "midi": 74,
                        "time": 75.99889799999997,
                        "velocity": 0.7007874015748031,
                        "duration": 0.32869893749999335
                    },
                    {
                        "name": "G4",
                        "midi": 67,
                        "time": 76.44333599999996,
                        "velocity": 0.7007874015748031,
                        "duration": 0.4398084375000053
                    },
                    {
                        "name": "A4",
                        "midi": 69,
                        "time": 76.88777399999996,
                        "velocity": 0.7007874015748031,
                        "duration": 0.4398084375000053
                    },
                    {
                        "name": "B4",
                        "midi": 71,
                        "time": 77.33221199999997,
                        "velocity": 0.7007874015748031,
                        "duration": 0.2175894374999956
                    },
                    {
                        "name": "A4",
                        "midi": 69,
                        "time": 77.55443099999997,
                        "velocity": 0.7007874015748031,
                        "duration": 0.2175894374999956
                    },
                    {
                        "name": "G4",
                        "midi": 67,
                        "time": 77.77664999999996,
                        "velocity": 0.7007874015748031,
                        "duration": 0.2175894374999956
                    },
                    {
                        "name": "D4",
                        "midi": 62,
                        "time": 77.99886899999996,
                        "velocity": 0.7007874015748031,
                        "duration": 0.4398084375000053
                    },
                    {
                        "name": "G5",
                        "midi": 79,
                        "time": 78.44330699999996,
                        "velocity": 0.7007874015748031,
                        "duration": 0.2175894374999956
                    },
                    {
                        "name": "F#5",
                        "midi": 78,
                        "time": 78.66552599999996,
                        "velocity": 0.7007874015748031,
                        "duration": 0.2175894374999956
                    },
                    {
                        "name": "D5",
                        "midi": 74,
                        "time": 78.88774499999995,
                        "velocity": 0.7007874015748031,
                        "duration": 0.2175894374999956
                    },
                    {
                        "name": "G5",
                        "midi": 79,
                        "time": 79.10996399999995,
                        "velocity": 0.7007874015748031,
                        "duration": 0.2175894374999956
                    },
                    {
                        "name": "F#5",
                        "midi": 78,
                        "time": 79.33218299999994,
                        "velocity": 0.7007874015748031,
                        "duration": 0.2175894374999956
                    },
                    {
                        "name": "D5",
                        "midi": 74,
                        "time": 79.55440199999994,
                        "velocity": 0.7007874015748031,
                        "duration": 0.2175894374999956
                    },
                    {
                        "name": "G5",
                        "midi": 79,
                        "time": 79.77662099999993,
                        "velocity": 0.7007874015748031,
                        "duration": 0.32869893749999335
                    },
                    {
                        "name": "G5",
                        "midi": 79,
                        "time": 80.22105899999993,
                        "velocity": 0.7007874015748031,
                        "duration": 0.2175894374999956
                    },
                    {
                        "name": "F#5",
                        "midi": 78,
                        "time": 80.44327799999992,
                        "velocity": 0.7007874015748031,
                        "duration": 0.2175894374999956
                    },
                    {
                        "name": "D5",
                        "midi": 74,
                        "time": 80.66549699999992,
                        "velocity": 0.7007874015748031,
                        "duration": 0.2175894374999956
                    },
                    {
                        "name": "G5",
                        "midi": 79,
                        "time": 80.88771599999991,
                        "velocity": 0.7007874015748031,
                        "duration": 0.2175894374999956
                    },
                    {
                        "name": "F#5",
                        "midi": 78,
                        "time": 81.10993499999991,
                        "velocity": 0.7007874015748031,
                        "duration": 0.2175894374999956
                    },
                    {
                        "name": "D5",
                        "midi": 74,
                        "time": 81.3321539999999,
                        "velocity": 0.7007874015748031,
                        "duration": 0.2175894374999956
                    },
                    {
                        "name": "G4",
                        "midi": 67,
                        "time": 81.5543729999999,
                        "velocity": 0.7007874015748031,
                        "duration": 0.32869893749999335
                    },
                    {
                        "name": "G5",
                        "midi": 79,
                        "time": 81.99881099999989,
                        "velocity": 0.7007874015748031,
                        "duration": 0.2175894374999956
                    },
                    {
                        "name": "F#5",
                        "midi": 78,
                        "time": 82.22102999999989,
                        "velocity": 0.7007874015748031,
                        "duration": 0.2175894374999956
                    },
                    {
                        "name": "D5",
                        "midi": 74,
                        "time": 82.44324899999988,
                        "velocity": 0.7007874015748031,
                        "duration": 0.2175894374999956
                    },
                    {
                        "name": "G5",
                        "midi": 79,
                        "time": 82.66546799999988,
                        "velocity": 0.7007874015748031,
                        "duration": 0.2175894374999956
                    },
                    {
                        "name": "F#5",
                        "midi": 78,
                        "time": 82.88768699999987,
                        "velocity": 0.7007874015748031,
                        "duration": 0.2175894374999956
                    },
                    {
                        "name": "D5",
                        "midi": 74,
                        "time": 83.10990599999987,
                        "velocity": 0.7007874015748031,
                        "duration": 0.32869893749999335
                    },
                    {
                        "name": "G4",
                        "midi": 67,
                        "time": 83.55434399999986,
                        "velocity": 0.7007874015748031,
                        "duration": 0.4398084375000053
                    },
                    {
                        "name": "A4",
                        "midi": 69,
                        "time": 83.99878199999986,
                        "velocity": 0.7007874015748031,
                        "duration": 0.4398084375000053
                    },
                    {
                        "name": "B4",
                        "midi": 71,
                        "time": 84.44321999999987,
                        "velocity": 0.7007874015748031,
                        "duration": 0.2175894374999956
                    },
                    {
                        "name": "A4",
                        "midi": 69,
                        "time": 84.66543899999986,
                        "velocity": 0.7007874015748031,
                        "duration": 0.2175894374999956
                    },
                    {
                        "name": "G4",
                        "midi": 67,
                        "time": 84.88765799999986,
                        "velocity": 0.7007874015748031,
                        "duration": 0.2175894374999956
                    },
                    {
                        "name": "D4",
                        "midi": 62,
                        "time": 85.10987699999986,
                        "velocity": 0.7007874015748031,
                        "duration": 0.4398084375000053
                    },
                    {
                        "name": "G5",
                        "midi": 79,
                        "time": 85.55431499999986,
                        "velocity": 0.7007874015748031,
                        "duration": 0.2175894374999956
                    },
                    {
                        "name": "F#5",
                        "midi": 78,
                        "time": 85.77653399999986,
                        "velocity": 0.7007874015748031,
                        "duration": 0.2175894374999956
                    },
                    {
                        "name": "D5",
                        "midi": 74,
                        "time": 85.99875299999985,
                        "velocity": 0.7007874015748031,
                        "duration": 0.2175894374999956
                    },
                    {
                        "name": "G5",
                        "midi": 79,
                        "time": 86.22097199999985,
                        "velocity": 0.7007874015748031,
                        "duration": 0.2175894374999956
                    },
                    {
                        "name": "F#5",
                        "midi": 78,
                        "time": 86.44319099999984,
                        "velocity": 0.7007874015748031,
                        "duration": 0.2175894374999956
                    },
                    {
                        "name": "D5",
                        "midi": 74,
                        "time": 86.66540999999984,
                        "velocity": 0.7007874015748031,
                        "duration": 0.2175894374999956
                    },
                    {
                        "name": "G5",
                        "midi": 79,
                        "time": 86.88762899999983,
                        "velocity": 0.7007874015748031,
                        "duration": 0.32869893749999335
                    },
                    {
                        "name": "G5",
                        "midi": 79,
                        "time": 87.33206699999982,
                        "velocity": 0.7007874015748031,
                        "duration": 0.2175894374999956
                    },
                    {
                        "name": "F#5",
                        "midi": 78,
                        "time": 87.55428599999982,
                        "velocity": 0.7007874015748031,
                        "duration": 0.2175894374999956
                    },
                    {
                        "name": "D5",
                        "midi": 74,
                        "time": 87.77650499999982,
                        "velocity": 0.7007874015748031,
                        "duration": 0.2175894374999956
                    },
                    {
                        "name": "G5",
                        "midi": 79,
                        "time": 87.99872399999981,
                        "velocity": 0.7007874015748031,
                        "duration": 0.2175894374999956
                    },
                    {
                        "name": "F#5",
                        "midi": 78,
                        "time": 88.2209429999998,
                        "velocity": 0.7007874015748031,
                        "duration": 0.2175894374999956
                    },
                    {
                        "name": "D5",
                        "midi": 74,
                        "time": 88.4431619999998,
                        "velocity": 0.7007874015748031,
                        "duration": 0.2175894374999956
                    },
                    {
                        "name": "G4",
                        "midi": 67,
                        "time": 88.6653809999998,
                        "velocity": 0.7007874015748031,
                        "duration": 0.32869893749999335
                    },
                    {
                        "name": "G5",
                        "midi": 79,
                        "time": 89.10981899999979,
                        "velocity": 0.7007874015748031,
                        "duration": 0.2175894374999956
                    },
                    {
                        "name": "F#5",
                        "midi": 78,
                        "time": 89.33203799999978,
                        "velocity": 0.7007874015748031,
                        "duration": 0.2175894374999956
                    },
                    {
                        "name": "D5",
                        "midi": 74,
                        "time": 89.55425699999978,
                        "velocity": 0.7007874015748031,
                        "duration": 0.2175894374999956
                    },
                    {
                        "name": "G5",
                        "midi": 79,
                        "time": 89.77647599999978,
                        "velocity": 0.7007874015748031,
                        "duration": 0.2175894374999956
                    },
                    {
                        "name": "F#5",
                        "midi": 78,
                        "time": 89.99869499999977,
                        "velocity": 0.7007874015748031,
                        "duration": 0.2175894374999956
                    },
                    {
                        "name": "D5",
                        "midi": 74,
                        "time": 90.22091399999977,
                        "velocity": 0.7007874015748031,
                        "duration": 0.32869893749999335
                    },
                    {
                        "name": "G4",
                        "midi": 67,
                        "time": 90.66535199999976,
                        "velocity": 0.7007874015748031,
                        "duration": 0.4398084375000053
                    },
                    {
                        "name": "A4",
                        "midi": 69,
                        "time": 91.10978999999976,
                        "velocity": 0.7007874015748031,
                        "duration": 0.4398084375000053
                    },
                    {
                        "name": "B4",
                        "midi": 71,
                        "time": 91.55422799999977,
                        "velocity": 0.7007874015748031,
                        "duration": 0.2175894374999956
                    },
                    {
                        "name": "A4",
                        "midi": 69,
                        "time": 91.77644699999976,
                        "velocity": 0.7007874015748031,
                        "duration": 0.2175894374999956
                    },
                    {
                        "name": "G4",
                        "midi": 67,
                        "time": 91.99866599999976,
                        "velocity": 0.7007874015748031,
                        "duration": 0.2175894374999956
                    },
                    {
                        "name": "D4",
                        "midi": 62,
                        "time": 92.22088499999975,
                        "velocity": 0.7007874015748031,
                        "duration": 0.4398084375000053
                    },
                    {
                        "name": "G5",
                        "midi": 79,
                        "time": 92.66532299999976,
                        "velocity": 0.7007874015748031,
                        "duration": 0.2175894374999956
                    },
                    {
                        "name": "F#5",
                        "midi": 78,
                        "time": 92.88754199999975,
                        "velocity": 0.7007874015748031,
                        "duration": 0.2175894374999956
                    },
                    {
                        "name": "D5",
                        "midi": 74,
                        "time": 93.10976099999975,
                        "velocity": 0.7007874015748031,
                        "duration": 0.2175894374999956
                    },
                    {
                        "name": "G5",
                        "midi": 79,
                        "time": 93.33197999999975,
                        "velocity": 0.7007874015748031,
                        "duration": 0.2175894374999956
                    },
                    {
                        "name": "F#5",
                        "midi": 78,
                        "time": 93.55419899999974,
                        "velocity": 0.7007874015748031,
                        "duration": 0.2175894374999956
                    },
                    {
                        "name": "D5",
                        "midi": 74,
                        "time": 93.77641799999974,
                        "velocity": 0.7007874015748031,
                        "duration": 0.2175894374999956
                    },
                    {
                        "name": "G5",
                        "midi": 79,
                        "time": 93.99863699999973,
                        "velocity": 0.7007874015748031,
                        "duration": 0.32869893749999335
                    },
                    {
                        "name": "G5",
                        "midi": 79,
                        "time": 94.44307499999972,
                        "velocity": 0.7007874015748031,
                        "duration": 0.2175894374999956
                    },
                    {
                        "name": "F#5",
                        "midi": 78,
                        "time": 94.66529399999972,
                        "velocity": 0.7007874015748031,
                        "duration": 0.2175894374999956
                    },
                    {
                        "name": "D5",
                        "midi": 74,
                        "time": 94.88751299999971,
                        "velocity": 0.7007874015748031,
                        "duration": 0.2175894374999956
                    },
                    {
                        "name": "G5",
                        "midi": 79,
                        "time": 95.10973199999971,
                        "velocity": 0.7007874015748031,
                        "duration": 0.2175894374999956
                    },
                    {
                        "name": "F#5",
                        "midi": 78,
                        "time": 95.3319509999997,
                        "velocity": 0.7007874015748031,
                        "duration": 0.2175894374999956
                    },
                    {
                        "name": "D5",
                        "midi": 74,
                        "time": 95.5541699999997,
                        "velocity": 0.7007874015748031,
                        "duration": 0.2175894374999956
                    },
                    {
                        "name": "G4",
                        "midi": 67,
                        "time": 95.7763889999997,
                        "velocity": 0.7007874015748031,
                        "duration": 0.32869893749999335
                    },
                    {
                        "name": "G5",
                        "midi": 79,
                        "time": 96.22082699999969,
                        "velocity": 0.7007874015748031,
                        "duration": 0.2175894374999956
                    },
                    {
                        "name": "F#5",
                        "midi": 78,
                        "time": 96.44304599999968,
                        "velocity": 0.7007874015748031,
                        "duration": 0.2175894374999956
                    },
                    {
                        "name": "D5",
                        "midi": 74,
                        "time": 96.66526499999968,
                        "velocity": 0.7007874015748031,
                        "duration": 0.2175894374999956
                    },
                    {
                        "name": "G5",
                        "midi": 79,
                        "time": 96.88748399999967,
                        "velocity": 0.7007874015748031,
                        "duration": 0.2175894374999956
                    },
                    {
                        "name": "F#5",
                        "midi": 78,
                        "time": 97.10970299999967,
                        "velocity": 0.7007874015748031,
                        "duration": 0.2175894374999956
                    },
                    {
                        "name": "D5",
                        "midi": 74,
                        "time": 97.33192199999966,
                        "velocity": 0.7007874015748031,
                        "duration": 0.32869893749999335
                    },
                    {
                        "name": "G4",
                        "midi": 67,
                        "time": 97.77635999999966,
                        "velocity": 0.7007874015748031,
                        "duration": 0.4398084375000053
                    },
                    {
                        "name": "A4",
                        "midi": 69,
                        "time": 98.22079799999966,
                        "velocity": 0.7007874015748031,
                        "duration": 0.4398084375000053
                    },
                    {
                        "name": "B4",
                        "midi": 71,
                        "time": 98.66523599999967,
                        "velocity": 0.7007874015748031,
                        "duration": 0.2175894374999956
                    },
                    {
                        "name": "A4",
                        "midi": 69,
                        "time": 98.88745499999966,
                        "velocity": 0.7007874015748031,
                        "duration": 0.2175894374999956
                    },
                    {
                        "name": "G4",
                        "midi": 67,
                        "time": 99.10967399999966,
                        "velocity": 0.7007874015748031,
                        "duration": 0.2175894374999956
                    },
                    {
                        "name": "D4",
                        "midi": 62,
                        "time": 99.33189299999965,
                        "velocity": 0.7007874015748031,
                        "duration": 0.4398084375000053
                    },
                    {
                        "name": "G5",
                        "midi": 79,
                        "time": 99.77633099999966,
                        "velocity": 0.7007874015748031,
                        "duration": 0.2175894374999956
                    },
                    {
                        "name": "F#5",
                        "midi": 78,
                        "time": 99.99854999999965,
                        "velocity": 0.7007874015748031,
                        "duration": 0.2175894374999956
                    },
                    {
                        "name": "D5",
                        "midi": 74,
                        "time": 100.22076899999965,
                        "velocity": 0.7007874015748031,
                        "duration": 0.2175894374999956
                    },
                    {
                        "name": "G5",
                        "midi": 79,
                        "time": 100.44298799999964,
                        "velocity": 0.7007874015748031,
                        "duration": 0.2175894374999956
                    },
                    {
                        "name": "F#5",
                        "midi": 78,
                        "time": 100.66520699999964,
                        "velocity": 0.7007874015748031,
                        "duration": 0.2175894374999956
                    },
                    {
                        "name": "D5",
                        "midi": 74,
                        "time": 100.88742599999964,
                        "velocity": 0.7007874015748031,
                        "duration": 0.2175894374999956
                    },
                    {
                        "name": "G5",
                        "midi": 79,
                        "time": 101.10964499999963,
                        "velocity": 0.7007874015748031,
                        "duration": 0.32869893749999335
                    },
                    {
                        "name": "G5",
                        "midi": 79,
                        "time": 101.55408299999962,
                        "velocity": 0.7007874015748031,
                        "duration": 0.2175894374999956
                    },
                    {
                        "name": "F#5",
                        "midi": 78,
                        "time": 101.77630199999962,
                        "velocity": 0.7007874015748031,
                        "duration": 0.2175894374999956
                    },
                    {
                        "name": "D5",
                        "midi": 74,
                        "time": 101.99852099999961,
                        "velocity": 0.7007874015748031,
                        "duration": 0.2175894374999956
                    },
                    {
                        "name": "G5",
                        "midi": 79,
                        "time": 102.22073999999961,
                        "velocity": 0.7007874015748031,
                        "duration": 0.2175894374999956
                    },
                    {
                        "name": "F#5",
                        "midi": 78,
                        "time": 102.4429589999996,
                        "velocity": 0.7007874015748031,
                        "duration": 0.2175894374999956
                    },
                    {
                        "name": "D5",
                        "midi": 74,
                        "time": 102.6651779999996,
                        "velocity": 0.7007874015748031,
                        "duration": 0.2175894374999956
                    },
                    {
                        "name": "G4",
                        "midi": 67,
                        "time": 102.8873969999996,
                        "velocity": 0.7007874015748031,
                        "duration": 0.32869893749999335
                    },
                    {
                        "name": "G5",
                        "midi": 79,
                        "time": 103.33183499999959,
                        "velocity": 0.7007874015748031,
                        "duration": 0.2175894374999956
                    },
                    {
                        "name": "F#5",
                        "midi": 78,
                        "time": 103.55405399999958,
                        "velocity": 0.7007874015748031,
                        "duration": 0.2175894374999956
                    },
                    {
                        "name": "D5",
                        "midi": 74,
                        "time": 103.77627299999958,
                        "velocity": 0.7007874015748031,
                        "duration": 0.2175894374999956
                    },
                    {
                        "name": "G5",
                        "midi": 79,
                        "time": 103.99849199999957,
                        "velocity": 0.7007874015748031,
                        "duration": 0.2175894374999956
                    },
                    {
                        "name": "F#5",
                        "midi": 78,
                        "time": 104.22071099999957,
                        "velocity": 0.7007874015748031,
                        "duration": 0.2175894374999956
                    },
                    {
                        "name": "D5",
                        "midi": 74,
                        "time": 104.44292999999956,
                        "velocity": 0.7007874015748031,
                        "duration": 0.32869893749999335
                    },
                    {
                        "name": "G4",
                        "midi": 67,
                        "time": 104.88736799999955,
                        "velocity": 0.7007874015748031,
                        "duration": 0.4398084375000053
                    },
                    {
                        "name": "A4",
                        "midi": 69,
                        "time": 105.33180599999956,
                        "velocity": 0.7007874015748031,
                        "duration": 0.4398084375000053
                    },
                    {
                        "name": "B4",
                        "midi": 71,
                        "time": 105.77624399999956,
                        "velocity": 0.7007874015748031,
                        "duration": 0.2175894374999956
                    },
                    {
                        "name": "A4",
                        "midi": 69,
                        "time": 105.99846299999956,
                        "velocity": 0.7007874015748031,
                        "duration": 0.2175894374999956
                    },
                    {
                        "name": "G4",
                        "midi": 67,
                        "time": 106.22068199999956,
                        "velocity": 0.7007874015748031,
                        "duration": 0.2175894374999956
                    },
                    {
                        "name": "D4",
                        "midi": 62,
                        "time": 106.44290099999955,
                        "velocity": 0.7007874015748031,
                        "duration": 0.4398084375000053
                    },
                    {
                        "name": "G5",
                        "midi": 79,
                        "time": 106.88733899999956,
                        "velocity": 0.7007874015748031,
                        "duration": 0.2175894374999956
                    },
                    {
                        "name": "F#5",
                        "midi": 78,
                        "time": 107.10955799999955,
                        "velocity": 0.7007874015748031,
                        "duration": 0.2175894374999956
                    },
                    {
                        "name": "D5",
                        "midi": 74,
                        "time": 107.33177699999955,
                        "velocity": 0.7007874015748031,
                        "duration": 0.2175894374999956
                    },
                    {
                        "name": "G5",
                        "midi": 79,
                        "time": 107.55399599999954,
                        "velocity": 0.7007874015748031,
                        "duration": 0.2175894374999956
                    },
                    {
                        "name": "F#5",
                        "midi": 78,
                        "time": 107.77621499999954,
                        "velocity": 0.7007874015748031,
                        "duration": 0.2175894374999956
                    },
                    {
                        "name": "D5",
                        "midi": 74,
                        "time": 107.99843399999953,
                        "velocity": 0.7007874015748031,
                        "duration": 0.2175894374999956
                    },
                    {
                        "name": "G5",
                        "midi": 79,
                        "time": 108.22065299999953,
                        "velocity": 0.7007874015748031,
                        "duration": 0.32869893749999335
                    },
                    {
                        "name": "G5",
                        "midi": 79,
                        "time": 108.66509099999952,
                        "velocity": 0.7007874015748031,
                        "duration": 0.2175894374999956
                    },
                    {
                        "name": "F#5",
                        "midi": 78,
                        "time": 108.88730999999952,
                        "velocity": 0.7007874015748031,
                        "duration": 0.2175894374999956
                    },
                    {
                        "name": "D5",
                        "midi": 74,
                        "time": 109.10952899999951,
                        "velocity": 0.7007874015748031,
                        "duration": 0.2175894374999956
                    },
                    {
                        "name": "G5",
                        "midi": 79,
                        "time": 109.33174799999951,
                        "velocity": 0.7007874015748031,
                        "duration": 0.2175894374999956
                    },
                    {
                        "name": "F#5",
                        "midi": 78,
                        "time": 109.5539669999995,
                        "velocity": 0.7007874015748031,
                        "duration": 0.2175894374999956
                    },
                    {
                        "name": "D5",
                        "midi": 74,
                        "time": 109.7761859999995,
                        "velocity": 0.7007874015748031,
                        "duration": 0.2175894374999956
                    },
                    {
                        "name": "G4",
                        "midi": 67,
                        "time": 109.9984049999995,
                        "velocity": 0.7007874015748031,
                        "duration": 0.32869893749999335
                    },
                    {
                        "name": "G5",
                        "midi": 79,
                        "time": 110.44284299999948,
                        "velocity": 0.7007874015748031,
                        "duration": 0.2175894374999956
                    },
                    {
                        "name": "F#5",
                        "midi": 78,
                        "time": 110.66506199999948,
                        "velocity": 0.7007874015748031,
                        "duration": 0.2175894374999956
                    },
                    {
                        "name": "D5",
                        "midi": 74,
                        "time": 110.88728099999948,
                        "velocity": 0.7007874015748031,
                        "duration": 0.2175894374999956
                    },
                    {
                        "name": "G5",
                        "midi": 79,
                        "time": 111.10949999999947,
                        "velocity": 0.7007874015748031,
                        "duration": 0.2175894374999956
                    },
                    {
                        "name": "F#5",
                        "midi": 78,
                        "time": 111.33171899999947,
                        "velocity": 0.7007874015748031,
                        "duration": 0.2175894374999956
                    },
                    {
                        "name": "D5",
                        "midi": 74,
                        "time": 111.55393799999946,
                        "velocity": 0.7007874015748031,
                        "duration": 0.32869893749999335
                    },
                    {
                        "name": "G4",
                        "midi": 67,
                        "time": 111.99837599999945,
                        "velocity": 0.7007874015748031,
                        "duration": 0.4398084375000053
                    },
                    {
                        "name": "A4",
                        "midi": 69,
                        "time": 112.44281399999946,
                        "velocity": 0.7007874015748031,
                        "duration": 0.4398084375000053
                    },
                    {
                        "name": "B4",
                        "midi": 71,
                        "time": 112.88725199999946,
                        "velocity": 0.7007874015748031,
                        "duration": 0.2175894374999956
                    },
                    {
                        "name": "A4",
                        "midi": 69,
                        "time": 113.10947099999946,
                        "velocity": 0.7007874015748031,
                        "duration": 0.2175894374999956
                    },
                    {
                        "name": "G4",
                        "midi": 67,
                        "time": 113.33168999999945,
                        "velocity": 0.7007874015748031,
                        "duration": 0.2175894374999956
                    },
                    {
                        "name": "D4",
                        "midi": 62,
                        "time": 113.55390899999945,
                        "velocity": 0.7007874015748031,
                        "duration": 0.4398084375000053
                    },
                    {
                        "name": "G5",
                        "midi": 79,
                        "time": 113.99834699999946,
                        "velocity": 0.7007874015748031,
                        "duration": 0.2175894374999956
                    },
                    {
                        "name": "F#5",
                        "midi": 78,
                        "time": 114.22056599999945,
                        "velocity": 0.7007874015748031,
                        "duration": 0.2175894374999956
                    },
                    {
                        "name": "D5",
                        "midi": 74,
                        "time": 114.44278499999945,
                        "velocity": 0.7007874015748031,
                        "duration": 0.2175894374999956
                    },
                    {
                        "name": "G5",
                        "midi": 79,
                        "time": 114.66500399999944,
                        "velocity": 0.7007874015748031,
                        "duration": 0.2175894374999956
                    },
                    {
                        "name": "F#5",
                        "midi": 78,
                        "time": 114.88722299999944,
                        "velocity": 0.7007874015748031,
                        "duration": 0.2175894374999956
                    },
                    {
                        "name": "D5",
                        "midi": 74,
                        "time": 115.10944199999943,
                        "velocity": 0.7007874015748031,
                        "duration": 0.2175894374999956
                    },
                    {
                        "name": "G5",
                        "midi": 79,
                        "time": 115.33166099999943,
                        "velocity": 0.7007874015748031,
                        "duration": 0.32869893749999335
                    },
                    {
                        "name": "G5",
                        "midi": 79,
                        "time": 115.77609899999942,
                        "velocity": 0.7007874015748031,
                        "duration": 0.2175894374999956
                    },
                    {
                        "name": "F#5",
                        "midi": 78,
                        "time": 115.99831799999941,
                        "velocity": 0.7007874015748031,
                        "duration": 0.2175894374999956
                    },
                    {
                        "name": "D5",
                        "midi": 74,
                        "time": 116.22053699999941,
                        "velocity": 0.7007874015748031,
                        "duration": 0.2175894374999956
                    },
                    {
                        "name": "G5",
                        "midi": 79,
                        "time": 116.4427559999994,
                        "velocity": 0.7007874015748031,
                        "duration": 0.2175894374999956
                    },
                    {
                        "name": "F#5",
                        "midi": 78,
                        "time": 116.6649749999994,
                        "velocity": 0.7007874015748031,
                        "duration": 0.2175894374999956
                    },
                    {
                        "name": "D5",
                        "midi": 74,
                        "time": 116.8871939999994,
                        "velocity": 0.7007874015748031,
                        "duration": 0.2175894374999956
                    },
                    {
                        "name": "G4",
                        "midi": 67,
                        "time": 117.10941299999939,
                        "velocity": 0.7007874015748031,
                        "duration": 0.32869893749999335
                    },
                    {
                        "name": "G5",
                        "midi": 79,
                        "time": 117.55385099999938,
                        "velocity": 0.7007874015748031,
                        "duration": 0.2175894374999956
                    },
                    {
                        "name": "F#5",
                        "midi": 78,
                        "time": 117.77606999999938,
                        "velocity": 0.7007874015748031,
                        "duration": 0.2175894374999956
                    },
                    {
                        "name": "D5",
                        "midi": 74,
                        "time": 117.99828899999937,
                        "velocity": 0.7007874015748031,
                        "duration": 0.2175894374999956
                    },
                    {
                        "name": "G5",
                        "midi": 79,
                        "time": 118.22050799999937,
                        "velocity": 0.7007874015748031,
                        "duration": 0.2175894374999956
                    },
                    {
                        "name": "F#5",
                        "midi": 78,
                        "time": 118.44272699999937,
                        "velocity": 0.7007874015748031,
                        "duration": 0.2175894374999956
                    },
                    {
                        "name": "D5",
                        "midi": 74,
                        "time": 118.66494599999936,
                        "velocity": 0.7007874015748031,
                        "duration": 0.32869893749999335
                    },
                    {
                        "name": "G4",
                        "midi": 67,
                        "time": 119.10938399999935,
                        "velocity": 0.7007874015748031,
                        "duration": 0.4398084375000053
                    },
                    {
                        "name": "A4",
                        "midi": 69,
                        "time": 119.55382199999936,
                        "velocity": 0.7007874015748031,
                        "duration": 0.4398084375000053
                    },
                    {
                        "name": "B4",
                        "midi": 71,
                        "time": 119.99825999999936,
                        "velocity": 0.7007874015748031,
                        "duration": 0.2175894374999956
                    },
                    {
                        "name": "A4",
                        "midi": 69,
                        "time": 120.22047899999936,
                        "velocity": 0.7007874015748031,
                        "duration": 0.2175894374999956
                    },
                    {
                        "name": "G4",
                        "midi": 67,
                        "time": 120.44269799999935,
                        "velocity": 0.7007874015748031,
                        "duration": 0.2175894374999956
                    },
                    {
                        "name": "D4",
                        "midi": 62,
                        "time": 120.66491699999935,
                        "velocity": 0.7007874015748031,
                        "duration": 0.4398084375000053
                    },
                    {
                        "name": "G5",
                        "midi": 79,
                        "time": 121.10935499999935,
                        "velocity": 0.7007874015748031,
                        "duration": 0.2175894374999956
                    },
                    {
                        "name": "F#5",
                        "midi": 78,
                        "time": 121.33157399999935,
                        "velocity": 0.7007874015748031,
                        "duration": 0.2175894374999956
                    },
                    {
                        "name": "D5",
                        "midi": 74,
                        "time": 121.55379299999935,
                        "velocity": 0.7007874015748031,
                        "duration": 0.2175894374999956
                    },
                    {
                        "name": "G5",
                        "midi": 79,
                        "time": 121.77601199999934,
                        "velocity": 0.7007874015748031,
                        "duration": 0.2175894374999956
                    },
                    {
                        "name": "F#5",
                        "midi": 78,
                        "time": 121.99823099999934,
                        "velocity": 0.7007874015748031,
                        "duration": 0.2175894374999956
                    },
                    {
                        "name": "D5",
                        "midi": 74,
                        "time": 122.22044999999933,
                        "velocity": 0.7007874015748031,
                        "duration": 0.2175894374999956
                    },
                    {
                        "name": "G5",
                        "midi": 79,
                        "time": 122.44266899999933,
                        "velocity": 0.7007874015748031,
                        "duration": 0.32869893749999335
                    },
                    {
                        "name": "G5",
                        "midi": 79,
                        "time": 122.88710699999932,
                        "velocity": 0.7007874015748031,
                        "duration": 0.2175894374999956
                    },
                    {
                        "name": "F#5",
                        "midi": 78,
                        "time": 123.10932599999931,
                        "velocity": 0.7007874015748031,
                        "duration": 0.2175894374999956
                    },
                    {
                        "name": "D5",
                        "midi": 74,
                        "time": 123.33154499999931,
                        "velocity": 0.7007874015748031,
                        "duration": 0.2175894374999956
                    },
                    {
                        "name": "G5",
                        "midi": 79,
                        "time": 123.5537639999993,
                        "velocity": 0.7007874015748031,
                        "duration": 0.2175894374999956
                    },
                    {
                        "name": "F#5",
                        "midi": 78,
                        "time": 123.7759829999993,
                        "velocity": 0.7007874015748031,
                        "duration": 0.2175894374999956
                    },
                    {
                        "name": "D5",
                        "midi": 74,
                        "time": 123.9982019999993,
                        "velocity": 0.7007874015748031,
                        "duration": 0.2175894374999956
                    },
                    {
                        "name": "G4",
                        "midi": 67,
                        "time": 124.22042099999929,
                        "velocity": 0.7007874015748031,
                        "duration": 0.32869893749999335
                    },
                    {
                        "name": "G5",
                        "midi": 79,
                        "time": 124.66485899999928,
                        "velocity": 0.7007874015748031,
                        "duration": 0.2175894374999956
                    },
                    {
                        "name": "F#5",
                        "midi": 78,
                        "time": 124.88707799999928,
                        "velocity": 0.7007874015748031,
                        "duration": 0.2175894374999956
                    },
                    {
                        "name": "D5",
                        "midi": 74,
                        "time": 125.10929699999927,
                        "velocity": 0.7007874015748031,
                        "duration": 0.2175894374999956
                    },
                    {
                        "name": "G5",
                        "midi": 79,
                        "time": 125.33151599999927,
                        "velocity": 0.7007874015748031,
                        "duration": 0.2175894374999956
                    },
                    {
                        "name": "F#5",
                        "midi": 78,
                        "time": 125.55373499999926,
                        "velocity": 0.7007874015748031,
                        "duration": 0.2175894374999956
                    },
                    {
                        "name": "D5",
                        "midi": 74,
                        "time": 125.77595399999926,
                        "velocity": 0.7007874015748031,
                        "duration": 0.32869893749999335
                    },
                    {
                        "name": "G4",
                        "midi": 67,
                        "time": 126.22039199999925,
                        "velocity": 0.7007874015748031,
                        "duration": 0.4398084375000053
                    },
                    {
                        "name": "A4",
                        "midi": 69,
                        "time": 126.66482999999926,
                        "velocity": 0.7007874015748031,
                        "duration": 0.4398084375000053
                    },
                    {
                        "name": "B4",
                        "midi": 71,
                        "time": 127.10926799999926,
                        "velocity": 0.7007874015748031,
                        "duration": 0.2175894374999956
                    },
                    {
                        "name": "A4",
                        "midi": 69,
                        "time": 127.33148699999926,
                        "velocity": 0.7007874015748031,
                        "duration": 0.2175894374999956
                    },
                    {
                        "name": "G4",
                        "midi": 67,
                        "time": 127.55370599999925,
                        "velocity": 0.7007874015748031,
                        "duration": 0.2175894374999956
                    },
                    {
                        "name": "D4",
                        "midi": 62,
                        "time": 127.77592499999925,
                        "velocity": 0.7007874015748031,
                        "duration": 0.2175894374999956
                    }
                ],
                "controlChanges": {
                    "1": [
                        {
                            "number": 1,
                            "time": 0,
                            "value": 0.3937007874015748
                        }
                    ]
                },
                "id": 4,
                "instrumentNumber": 73,
                "instrument": "flute",
                "instrumentFamily": "pipe",
                "channelNumber": 3,
                "isPercussion": false
            },
            {
                "startTime": 28.666251,
                "duration": 120.88250643749922,
                "length": 338,
                "notes": [
                    {
                        "name": "D4",
                        "midi": 62,
                        "time": 28.666251,
                        "velocity": 0.8582677165354331,
                        "duration": 0.21758943749999915
                    },
                    {
                        "name": "G4",
                        "midi": 67,
                        "time": 28.888469999999998,
                        "velocity": 0.8582677165354331,
                        "duration": 0.21758943749999915
                    },
                    {
                        "name": "B4",
                        "midi": 71,
                        "time": 29.110688999999997,
                        "velocity": 0.8582677165354331,
                        "duration": 0.21758943749999915
                    },
                    {
                        "name": "B4",
                        "midi": 71,
                        "time": 29.555126999999995,
                        "velocity": 0.8582677165354331,
                        "duration": 0.21758943749999915
                    },
                    {
                        "name": "G4",
                        "midi": 67,
                        "time": 29.777345999999994,
                        "velocity": 0.8582677165354331,
                        "duration": 0.21758943749999915
                    },
                    {
                        "name": "D4",
                        "midi": 62,
                        "time": 29.999564999999993,
                        "velocity": 0.8582677165354331,
                        "duration": 0.21758943749999915
                    },
                    {
                        "name": "D4",
                        "midi": 62,
                        "time": 30.44400299999999,
                        "velocity": 0.8582677165354331,
                        "duration": 0.21758943749999915
                    },
                    {
                        "name": "G4",
                        "midi": 67,
                        "time": 30.66622199999999,
                        "velocity": 0.8582677165354331,
                        "duration": 0.21758943749999915
                    },
                    {
                        "name": "A4",
                        "midi": 69,
                        "time": 30.88844099999999,
                        "velocity": 0.8582677165354331,
                        "duration": 0.21758943749999915
                    },
                    {
                        "name": "B4",
                        "midi": 71,
                        "time": 31.11065999999999,
                        "velocity": 0.8582677165354331,
                        "duration": 0.21758943749999915
                    },
                    {
                        "name": "A4",
                        "midi": 69,
                        "time": 31.332878999999988,
                        "velocity": 0.8582677165354331,
                        "duration": 0.21758943749999915
                    },
                    {
                        "name": "G4",
                        "midi": 67,
                        "time": 31.555097999999987,
                        "velocity": 0.8582677165354331,
                        "duration": 0.21758943749999915
                    },
                    {
                        "name": "D4",
                        "midi": 62,
                        "time": 31.777316999999986,
                        "velocity": 0.8582677165354331,
                        "duration": 0.21758943749999915
                    },
                    {
                        "name": "D4",
                        "midi": 62,
                        "time": 32.22175499999999,
                        "velocity": 0.8582677165354331,
                        "duration": 0.2175894375000027
                    },
                    {
                        "name": "G4",
                        "midi": 67,
                        "time": 32.44397399999999,
                        "velocity": 0.8582677165354331,
                        "duration": 0.2175894375000027
                    },
                    {
                        "name": "B4",
                        "midi": 71,
                        "time": 32.66619299999999,
                        "velocity": 0.8582677165354331,
                        "duration": 0.2175894375000027
                    },
                    {
                        "name": "B4",
                        "midi": 71,
                        "time": 33.110631,
                        "velocity": 0.8582677165354331,
                        "duration": 0.2175894375000027
                    },
                    {
                        "name": "G4",
                        "midi": 67,
                        "time": 33.33285,
                        "velocity": 0.8582677165354331,
                        "duration": 0.2175894375000027
                    },
                    {
                        "name": "D4",
                        "midi": 62,
                        "time": 33.555069,
                        "velocity": 0.8582677165354331,
                        "duration": 0.2175894375000027
                    },
                    {
                        "name": "D4",
                        "midi": 62,
                        "time": 33.99950700000001,
                        "velocity": 0.8582677165354331,
                        "duration": 0.2175894375000027
                    },
                    {
                        "name": "G4",
                        "midi": 67,
                        "time": 34.22172600000001,
                        "velocity": 0.8582677165354331,
                        "duration": 0.2175894375000027
                    },
                    {
                        "name": "A4",
                        "midi": 69,
                        "time": 34.443945000000014,
                        "velocity": 0.8582677165354331,
                        "duration": 0.2175894375000027
                    },
                    {
                        "name": "B4",
                        "midi": 71,
                        "time": 34.666164000000016,
                        "velocity": 0.8582677165354331,
                        "duration": 0.2175894375000027
                    },
                    {
                        "name": "A4",
                        "midi": 69,
                        "time": 34.88838300000002,
                        "velocity": 0.8582677165354331,
                        "duration": 0.2175894375000027
                    },
                    {
                        "name": "G4",
                        "midi": 67,
                        "time": 35.11060200000002,
                        "velocity": 0.8582677165354331,
                        "duration": 0.2175894375000027
                    },
                    {
                        "name": "B4",
                        "midi": 71,
                        "time": 35.332821000000024,
                        "velocity": 0.8582677165354331,
                        "duration": 0.2175894375000027
                    },
                    {
                        "name": "D4",
                        "midi": 62,
                        "time": 35.77725900000003,
                        "velocity": 0.8582677165354331,
                        "duration": 0.2175894375000027
                    },
                    {
                        "name": "G4",
                        "midi": 67,
                        "time": 35.99947800000003,
                        "velocity": 0.8582677165354331,
                        "duration": 0.2175894375000027
                    },
                    {
                        "name": "B4",
                        "midi": 71,
                        "time": 36.221697000000034,
                        "velocity": 0.8582677165354331,
                        "duration": 0.2175894375000027
                    },
                    {
                        "name": "B4",
                        "midi": 71,
                        "time": 36.66613500000004,
                        "velocity": 0.8582677165354331,
                        "duration": 0.2175894375000027
                    },
                    {
                        "name": "G4",
                        "midi": 67,
                        "time": 36.88835400000004,
                        "velocity": 0.8582677165354331,
                        "duration": 0.2175894375000027
                    },
                    {
                        "name": "D4",
                        "midi": 62,
                        "time": 37.110573000000045,
                        "velocity": 0.8582677165354331,
                        "duration": 0.2175894375000027
                    },
                    {
                        "name": "D4",
                        "midi": 62,
                        "time": 37.55501100000005,
                        "velocity": 0.8582677165354331,
                        "duration": 0.2175894375000027
                    },
                    {
                        "name": "G4",
                        "midi": 67,
                        "time": 37.77723000000005,
                        "velocity": 0.8582677165354331,
                        "duration": 0.2175894375000027
                    },
                    {
                        "name": "A4",
                        "midi": 69,
                        "time": 37.999449000000055,
                        "velocity": 0.8582677165354331,
                        "duration": 0.2175894375000027
                    },
                    {
                        "name": "B4",
                        "midi": 71,
                        "time": 38.22166800000006,
                        "velocity": 0.8582677165354331,
                        "duration": 0.2175894375000027
                    },
                    {
                        "name": "A4",
                        "midi": 69,
                        "time": 38.44388700000006,
                        "velocity": 0.8582677165354331,
                        "duration": 0.2175894375000027
                    },
                    {
                        "name": "G4",
                        "midi": 67,
                        "time": 38.66610600000006,
                        "velocity": 0.8582677165354331,
                        "duration": 0.2175894375000027
                    },
                    {
                        "name": "D4",
                        "midi": 62,
                        "time": 38.888325000000066,
                        "velocity": 0.8582677165354331,
                        "duration": 0.2175894375000027
                    },
                    {
                        "name": "D4",
                        "midi": 62,
                        "time": 39.33276300000007,
                        "velocity": 0.8582677165354331,
                        "duration": 0.2175894375000027
                    },
                    {
                        "name": "G4",
                        "midi": 67,
                        "time": 39.554982000000074,
                        "velocity": 0.8582677165354331,
                        "duration": 0.2175894375000027
                    },
                    {
                        "name": "B4",
                        "midi": 71,
                        "time": 39.777201000000076,
                        "velocity": 0.8582677165354331,
                        "duration": 0.2175894375000027
                    },
                    {
                        "name": "B4",
                        "midi": 71,
                        "time": 40.22163900000008,
                        "velocity": 0.8582677165354331,
                        "duration": 0.2175894375000027
                    },
                    {
                        "name": "G4",
                        "midi": 67,
                        "time": 40.443858000000084,
                        "velocity": 0.8582677165354331,
                        "duration": 0.2175894375000027
                    },
                    {
                        "name": "D4",
                        "midi": 62,
                        "time": 40.66607700000009,
                        "velocity": 0.8582677165354331,
                        "duration": 0.2175894375000027
                    },
                    {
                        "name": "D4",
                        "midi": 62,
                        "time": 41.11051500000009,
                        "velocity": 0.8582677165354331,
                        "duration": 0.2175894375000027
                    },
                    {
                        "name": "G4",
                        "midi": 67,
                        "time": 41.332734000000094,
                        "velocity": 0.8582677165354331,
                        "duration": 0.2175894375000027
                    },
                    {
                        "name": "A4",
                        "midi": 69,
                        "time": 41.5549530000001,
                        "velocity": 0.8582677165354331,
                        "duration": 0.2175894375000027
                    },
                    {
                        "name": "B4",
                        "midi": 71,
                        "time": 41.7771720000001,
                        "velocity": 0.8582677165354331,
                        "duration": 0.2175894375000027
                    },
                    {
                        "name": "A4",
                        "midi": 69,
                        "time": 41.9993910000001,
                        "velocity": 0.8582677165354331,
                        "duration": 0.2175894375000027
                    },
                    {
                        "name": "G4",
                        "midi": 67,
                        "time": 42.221610000000105,
                        "velocity": 0.8582677165354331,
                        "duration": 0.2175894375000027
                    },
                    {
                        "name": "B4",
                        "midi": 71,
                        "time": 42.44382900000011,
                        "velocity": 0.8582677165354331,
                        "duration": 0.2175894375000027
                    },
                    {
                        "name": "D4",
                        "midi": 62,
                        "time": 42.88826700000011,
                        "velocity": 0.8582677165354331,
                        "duration": 0.2175894375000027
                    },
                    {
                        "name": "G4",
                        "midi": 67,
                        "time": 43.110486000000115,
                        "velocity": 0.8582677165354331,
                        "duration": 0.2175894375000027
                    },
                    {
                        "name": "B4",
                        "midi": 71,
                        "time": 43.33270500000012,
                        "velocity": 0.8582677165354331,
                        "duration": 0.2175894375000027
                    },
                    {
                        "name": "B4",
                        "midi": 71,
                        "time": 43.77714300000012,
                        "velocity": 0.8582677165354331,
                        "duration": 0.2175894375000027
                    },
                    {
                        "name": "G4",
                        "midi": 67,
                        "time": 43.999362000000126,
                        "velocity": 0.8582677165354331,
                        "duration": 0.2175894375000027
                    },
                    {
                        "name": "D4",
                        "midi": 62,
                        "time": 44.22158100000013,
                        "velocity": 0.8582677165354331,
                        "duration": 0.2175894375000027
                    },
                    {
                        "name": "D4",
                        "midi": 62,
                        "time": 44.666019000000134,
                        "velocity": 0.8582677165354331,
                        "duration": 0.2175894375000027
                    },
                    {
                        "name": "G4",
                        "midi": 67,
                        "time": 44.888238000000136,
                        "velocity": 0.8582677165354331,
                        "duration": 0.2175894375000027
                    },
                    {
                        "name": "A4",
                        "midi": 69,
                        "time": 45.11045700000014,
                        "velocity": 0.8582677165354331,
                        "duration": 0.2175894375000027
                    },
                    {
                        "name": "B4",
                        "midi": 71,
                        "time": 45.33267600000014,
                        "velocity": 0.8582677165354331,
                        "duration": 0.2175894375000027
                    },
                    {
                        "name": "A4",
                        "midi": 69,
                        "time": 45.554895000000144,
                        "velocity": 0.8582677165354331,
                        "duration": 0.2175894375000027
                    },
                    {
                        "name": "G4",
                        "midi": 67,
                        "time": 45.77711400000015,
                        "velocity": 0.8582677165354331,
                        "duration": 0.2175894375000027
                    },
                    {
                        "name": "D4",
                        "midi": 62,
                        "time": 45.99933300000015,
                        "velocity": 0.8582677165354331,
                        "duration": 0.2175894375000027
                    },
                    {
                        "name": "D4",
                        "midi": 62,
                        "time": 46.443771000000154,
                        "velocity": 0.8582677165354331,
                        "duration": 0.2175894375000027
                    },
                    {
                        "name": "G4",
                        "midi": 67,
                        "time": 46.66599000000016,
                        "velocity": 0.8582677165354331,
                        "duration": 0.2175894375000027
                    },
                    {
                        "name": "B4",
                        "midi": 71,
                        "time": 46.88820900000016,
                        "velocity": 0.8582677165354331,
                        "duration": 0.2175894375000027
                    },
                    {
                        "name": "B4",
                        "midi": 71,
                        "time": 47.332647000000165,
                        "velocity": 0.8582677165354331,
                        "duration": 0.2175894375000027
                    },
                    {
                        "name": "G4",
                        "midi": 67,
                        "time": 47.55486600000017,
                        "velocity": 0.8582677165354331,
                        "duration": 0.2175894375000027
                    },
                    {
                        "name": "D4",
                        "midi": 62,
                        "time": 47.77708500000017,
                        "velocity": 0.8582677165354331,
                        "duration": 0.2175894375000027
                    },
                    {
                        "name": "D4",
                        "midi": 62,
                        "time": 48.221523000000175,
                        "velocity": 0.8582677165354331,
                        "duration": 0.2175894375000027
                    },
                    {
                        "name": "G4",
                        "midi": 67,
                        "time": 48.44374200000018,
                        "velocity": 0.8582677165354331,
                        "duration": 0.2175894375000027
                    },
                    {
                        "name": "A4",
                        "midi": 69,
                        "time": 48.66596100000018,
                        "velocity": 0.8582677165354331,
                        "duration": 0.2175894375000027
                    },
                    {
                        "name": "B4",
                        "midi": 71,
                        "time": 48.88818000000018,
                        "velocity": 0.8582677165354331,
                        "duration": 0.2175894375000027
                    },
                    {
                        "name": "A4",
                        "midi": 69,
                        "time": 49.110399000000186,
                        "velocity": 0.8582677165354331,
                        "duration": 0.2175894375000027
                    },
                    {
                        "name": "G4",
                        "midi": 67,
                        "time": 49.33261800000019,
                        "velocity": 0.8582677165354331,
                        "duration": 0.2175894375000027
                    },
                    {
                        "name": "B4",
                        "midi": 71,
                        "time": 49.55483700000019,
                        "velocity": 0.8582677165354331,
                        "duration": 0.2175894375000027
                    },
                    {
                        "name": "D4",
                        "midi": 62,
                        "time": 49.999275000000196,
                        "velocity": 0.8582677165354331,
                        "duration": 0.2175894375000027
                    },
                    {
                        "name": "G4",
                        "midi": 67,
                        "time": 50.2214940000002,
                        "velocity": 0.8582677165354331,
                        "duration": 0.2175894375000027
                    },
                    {
                        "name": "B4",
                        "midi": 71,
                        "time": 50.4437130000002,
                        "velocity": 0.8582677165354331,
                        "duration": 0.2175894375000027
                    },
                    {
                        "name": "B4",
                        "midi": 71,
                        "time": 50.88815100000021,
                        "velocity": 0.8582677165354331,
                        "duration": 0.2175894375000027
                    },
                    {
                        "name": "G4",
                        "midi": 67,
                        "time": 51.11037000000021,
                        "velocity": 0.8582677165354331,
                        "duration": 0.2175894375000027
                    },
                    {
                        "name": "D4",
                        "midi": 62,
                        "time": 51.33258900000021,
                        "velocity": 0.8582677165354331,
                        "duration": 0.2175894375000027
                    },
                    {
                        "name": "D4",
                        "midi": 62,
                        "time": 51.77702700000022,
                        "velocity": 0.8582677165354331,
                        "duration": 0.2175894375000027
                    },
                    {
                        "name": "G4",
                        "midi": 67,
                        "time": 51.99924600000022,
                        "velocity": 0.8582677165354331,
                        "duration": 0.2175894375000027
                    },
                    {
                        "name": "A4",
                        "midi": 69,
                        "time": 52.22146500000022,
                        "velocity": 0.8582677165354331,
                        "duration": 0.2175894375000027
                    },
                    {
                        "name": "B4",
                        "midi": 71,
                        "time": 52.443684000000225,
                        "velocity": 0.8582677165354331,
                        "duration": 0.2175894375000027
                    },
                    {
                        "name": "A4",
                        "midi": 69,
                        "time": 52.66590300000023,
                        "velocity": 0.8582677165354331,
                        "duration": 0.2175894375000027
                    },
                    {
                        "name": "G4",
                        "midi": 67,
                        "time": 52.88812200000023,
                        "velocity": 0.8582677165354331,
                        "duration": 0.2175894375000027
                    },
                    {
                        "name": "D4",
                        "midi": 62,
                        "time": 53.11034100000023,
                        "velocity": 0.8582677165354331,
                        "duration": 0.2175894375000027
                    },
                    {
                        "name": "D4",
                        "midi": 62,
                        "time": 53.55477900000024,
                        "velocity": 0.8582677165354331,
                        "duration": 0.2175894375000027
                    },
                    {
                        "name": "G4",
                        "midi": 67,
                        "time": 53.77699800000024,
                        "velocity": 0.8582677165354331,
                        "duration": 0.2175894375000027
                    },
                    {
                        "name": "B4",
                        "midi": 71,
                        "time": 53.99921700000024,
                        "velocity": 0.8582677165354331,
                        "duration": 0.2175894375000027
                    },
                    {
                        "name": "B4",
                        "midi": 71,
                        "time": 54.44365500000025,
                        "velocity": 0.8582677165354331,
                        "duration": 0.2175894375000027
                    },
                    {
                        "name": "G4",
                        "midi": 67,
                        "time": 54.66587400000025,
                        "velocity": 0.8582677165354331,
                        "duration": 0.2175894375000027
                    },
                    {
                        "name": "D4",
                        "midi": 62,
                        "time": 54.888093000000254,
                        "velocity": 0.8582677165354331,
                        "duration": 0.2175894375000027
                    },
                    {
                        "name": "D4",
                        "midi": 62,
                        "time": 55.33253100000026,
                        "velocity": 0.8582677165354331,
                        "duration": 0.2175894375000027
                    },
                    {
                        "name": "G4",
                        "midi": 67,
                        "time": 55.55475000000026,
                        "velocity": 0.8582677165354331,
                        "duration": 0.2175894375000027
                    },
                    {
                        "name": "A4",
                        "midi": 69,
                        "time": 55.776969000000264,
                        "velocity": 0.8582677165354331,
                        "duration": 0.2175894375000027
                    },
                    {
                        "name": "B4",
                        "midi": 71,
                        "time": 55.99918800000027,
                        "velocity": 0.8582677165354331,
                        "duration": 0.2175894375000027
                    },
                    {
                        "name": "A4",
                        "midi": 69,
                        "time": 56.22140700000027,
                        "velocity": 0.8582677165354331,
                        "duration": 0.2175894375000027
                    },
                    {
                        "name": "G4",
                        "midi": 67,
                        "time": 56.44362600000027,
                        "velocity": 0.8582677165354331,
                        "duration": 0.2175894375000027
                    },
                    {
                        "name": "B4",
                        "midi": 71,
                        "time": 56.665845000000274,
                        "velocity": 0.8582677165354331,
                        "duration": 0.2175894375000027
                    },
                    {
                        "name": "D4",
                        "midi": 62,
                        "time": 57.11028300000028,
                        "velocity": 0.8582677165354331,
                        "duration": 0.2175894375000027
                    },
                    {
                        "name": "G4",
                        "midi": 67,
                        "time": 57.33250200000028,
                        "velocity": 0.8582677165354331,
                        "duration": 0.2175894375000027
                    },
                    {
                        "name": "B4",
                        "midi": 71,
                        "time": 57.554721000000285,
                        "velocity": 0.8582677165354331,
                        "duration": 0.2175894375000027
                    },
                    {
                        "name": "B4",
                        "midi": 71,
                        "time": 57.99915900000029,
                        "velocity": 0.8582677165354331,
                        "duration": 0.2175894375000027
                    },
                    {
                        "name": "G4",
                        "midi": 67,
                        "time": 58.22137800000029,
                        "velocity": 0.8582677165354331,
                        "duration": 0.2175894375000027
                    },
                    {
                        "name": "D4",
                        "midi": 62,
                        "time": 58.443597000000295,
                        "velocity": 0.8582677165354331,
                        "duration": 0.2175894375000027
                    },
                    {
                        "name": "D4",
                        "midi": 62,
                        "time": 58.8880350000003,
                        "velocity": 0.8582677165354331,
                        "duration": 0.2175894375000027
                    },
                    {
                        "name": "G4",
                        "midi": 67,
                        "time": 59.1102540000003,
                        "velocity": 0.8582677165354331,
                        "duration": 0.2175894375000027
                    },
                    {
                        "name": "A4",
                        "midi": 69,
                        "time": 59.332473000000306,
                        "velocity": 0.8582677165354331,
                        "duration": 0.2175894375000027
                    },
                    {
                        "name": "B4",
                        "midi": 71,
                        "time": 59.55469200000031,
                        "velocity": 0.8582677165354331,
                        "duration": 0.2175894375000027
                    },
                    {
                        "name": "A4",
                        "midi": 69,
                        "time": 59.77691100000031,
                        "velocity": 0.8582677165354331,
                        "duration": 0.2175894375000027
                    },
                    {
                        "name": "G4",
                        "midi": 67,
                        "time": 59.999130000000314,
                        "velocity": 0.8582677165354331,
                        "duration": 0.2175894375000027
                    },
                    {
                        "name": "D4",
                        "midi": 62,
                        "time": 60.221349000000316,
                        "velocity": 0.8582677165354331,
                        "duration": 0.2175894375000027
                    },
                    {
                        "name": "D4",
                        "midi": 62,
                        "time": 60.66578700000032,
                        "velocity": 0.8582677165354331,
                        "duration": 0.2175894375000027
                    },
                    {
                        "name": "G4",
                        "midi": 67,
                        "time": 60.888006000000324,
                        "velocity": 0.8582677165354331,
                        "duration": 0.2175894375000027
                    },
                    {
                        "name": "B4",
                        "midi": 71,
                        "time": 61.11022500000033,
                        "velocity": 0.8582677165354331,
                        "duration": 0.2175894375000027
                    },
                    {
                        "name": "B4",
                        "midi": 71,
                        "time": 61.55466300000033,
                        "velocity": 0.8582677165354331,
                        "duration": 0.2175894375000027
                    },
                    {
                        "name": "G4",
                        "midi": 67,
                        "time": 61.776882000000334,
                        "velocity": 0.8582677165354331,
                        "duration": 0.2175894375000027
                    },
                    {
                        "name": "D4",
                        "midi": 62,
                        "time": 61.99910100000034,
                        "velocity": 0.8582677165354331,
                        "duration": 0.2175894375000027
                    },
                    {
                        "name": "D4",
                        "midi": 62,
                        "time": 62.44353900000034,
                        "velocity": 0.8582677165354331,
                        "duration": 0.2175894375000027
                    },
                    {
                        "name": "G4",
                        "midi": 67,
                        "time": 62.665758000000345,
                        "velocity": 0.8582677165354331,
                        "duration": 0.2175894375000027
                    },
                    {
                        "name": "A4",
                        "midi": 69,
                        "time": 62.88797700000035,
                        "velocity": 0.8582677165354331,
                        "duration": 0.2175894375000027
                    },
                    {
                        "name": "B4",
                        "midi": 71,
                        "time": 63.11019600000035,
                        "velocity": 0.8582677165354331,
                        "duration": 0.2175894375000027
                    },
                    {
                        "name": "A4",
                        "midi": 69,
                        "time": 63.33241500000035,
                        "velocity": 0.8582677165354331,
                        "duration": 0.2175894375000027
                    },
                    {
                        "name": "G4",
                        "midi": 67,
                        "time": 63.554634000000355,
                        "velocity": 0.8582677165354331,
                        "duration": 0.2175894375000027
                    },
                    {
                        "name": "B4",
                        "midi": 71,
                        "time": 63.77685300000036,
                        "velocity": 0.8582677165354331,
                        "duration": 0.2175894375000027
                    },
                    {
                        "name": "D4",
                        "midi": 62,
                        "time": 64.22129100000036,
                        "velocity": 0.8582677165354331,
                        "duration": 0.2175894374999956
                    },
                    {
                        "name": "G4",
                        "midi": 67,
                        "time": 64.44351000000036,
                        "velocity": 0.8582677165354331,
                        "duration": 0.2175894374999956
                    },
                    {
                        "name": "B4",
                        "midi": 71,
                        "time": 64.66572900000035,
                        "velocity": 0.8582677165354331,
                        "duration": 0.2175894374999956
                    },
                    {
                        "name": "B4",
                        "midi": 71,
                        "time": 65.11016700000035,
                        "velocity": 0.8582677165354331,
                        "duration": 0.2175894374999956
                    },
                    {
                        "name": "G4",
                        "midi": 67,
                        "time": 65.33238600000034,
                        "velocity": 0.8582677165354331,
                        "duration": 0.2175894374999956
                    },
                    {
                        "name": "D4",
                        "midi": 62,
                        "time": 65.55460500000034,
                        "velocity": 0.8582677165354331,
                        "duration": 0.2175894374999956
                    },
                    {
                        "name": "D4",
                        "midi": 62,
                        "time": 65.99904300000033,
                        "velocity": 0.8582677165354331,
                        "duration": 0.2175894374999956
                    },
                    {
                        "name": "G4",
                        "midi": 67,
                        "time": 66.22126200000032,
                        "velocity": 0.8582677165354331,
                        "duration": 0.2175894374999956
                    },
                    {
                        "name": "A4",
                        "midi": 69,
                        "time": 66.44348100000032,
                        "velocity": 0.8582677165354331,
                        "duration": 0.2175894374999956
                    },
                    {
                        "name": "B4",
                        "midi": 71,
                        "time": 66.66570000000031,
                        "velocity": 0.8582677165354331,
                        "duration": 0.2175894374999956
                    },
                    {
                        "name": "A4",
                        "midi": 69,
                        "time": 66.88791900000031,
                        "velocity": 0.8582677165354331,
                        "duration": 0.2175894374999956
                    },
                    {
                        "name": "G4",
                        "midi": 67,
                        "time": 67.1101380000003,
                        "velocity": 0.8582677165354331,
                        "duration": 0.2175894374999956
                    },
                    {
                        "name": "D4",
                        "midi": 62,
                        "time": 67.3323570000003,
                        "velocity": 0.8582677165354331,
                        "duration": 0.2175894374999956
                    },
                    {
                        "name": "D4",
                        "midi": 62,
                        "time": 67.77679500000029,
                        "velocity": 0.8582677165354331,
                        "duration": 0.2175894374999956
                    },
                    {
                        "name": "G4",
                        "midi": 67,
                        "time": 67.99901400000029,
                        "velocity": 0.8582677165354331,
                        "duration": 0.2175894374999956
                    },
                    {
                        "name": "B4",
                        "midi": 71,
                        "time": 68.22123300000028,
                        "velocity": 0.8582677165354331,
                        "duration": 0.2175894374999956
                    },
                    {
                        "name": "B4",
                        "midi": 71,
                        "time": 68.66567100000027,
                        "velocity": 0.8582677165354331,
                        "duration": 0.2175894374999956
                    },
                    {
                        "name": "G4",
                        "midi": 67,
                        "time": 68.88789000000027,
                        "velocity": 0.8582677165354331,
                        "duration": 0.2175894374999956
                    },
                    {
                        "name": "D4",
                        "midi": 62,
                        "time": 69.11010900000026,
                        "velocity": 0.8582677165354331,
                        "duration": 0.2175894374999956
                    },
                    {
                        "name": "D4",
                        "midi": 62,
                        "time": 69.55454700000026,
                        "velocity": 0.8582677165354331,
                        "duration": 0.2175894374999956
                    },
                    {
                        "name": "G4",
                        "midi": 67,
                        "time": 69.77676600000025,
                        "velocity": 0.8582677165354331,
                        "duration": 0.2175894374999956
                    },
                    {
                        "name": "A4",
                        "midi": 69,
                        "time": 69.99898500000025,
                        "velocity": 0.8582677165354331,
                        "duration": 0.2175894374999956
                    },
                    {
                        "name": "B4",
                        "midi": 71,
                        "time": 70.22120400000024,
                        "velocity": 0.8582677165354331,
                        "duration": 0.2175894374999956
                    },
                    {
                        "name": "A4",
                        "midi": 69,
                        "time": 70.44342300000024,
                        "velocity": 0.8582677165354331,
                        "duration": 0.2175894374999956
                    },
                    {
                        "name": "G4",
                        "midi": 67,
                        "time": 70.66564200000023,
                        "velocity": 0.8582677165354331,
                        "duration": 0.2175894374999956
                    },
                    {
                        "name": "B4",
                        "midi": 71,
                        "time": 70.88786100000023,
                        "velocity": 0.8582677165354331,
                        "duration": 0.2175894374999956
                    },
                    {
                        "name": "D4",
                        "midi": 62,
                        "time": 71.33229900000022,
                        "velocity": 0.8582677165354331,
                        "duration": 0.2175894374999956
                    },
                    {
                        "name": "G4",
                        "midi": 67,
                        "time": 71.55451800000021,
                        "velocity": 0.8582677165354331,
                        "duration": 0.2175894374999956
                    },
                    {
                        "name": "B4",
                        "midi": 71,
                        "time": 71.77673700000021,
                        "velocity": 0.8582677165354331,
                        "duration": 0.2175894374999956
                    },
                    {
                        "name": "B4",
                        "midi": 71,
                        "time": 72.2211750000002,
                        "velocity": 0.8582677165354331,
                        "duration": 0.2175894374999956
                    },
                    {
                        "name": "G4",
                        "midi": 67,
                        "time": 72.4433940000002,
                        "velocity": 0.8582677165354331,
                        "duration": 0.2175894374999956
                    },
                    {
                        "name": "D4",
                        "midi": 62,
                        "time": 72.66561300000019,
                        "velocity": 0.8582677165354331,
                        "duration": 0.2175894374999956
                    },
                    {
                        "name": "D4",
                        "midi": 62,
                        "time": 73.11005100000018,
                        "velocity": 0.8582677165354331,
                        "duration": 0.2175894374999956
                    },
                    {
                        "name": "G4",
                        "midi": 67,
                        "time": 73.33227000000018,
                        "velocity": 0.8582677165354331,
                        "duration": 0.2175894374999956
                    },
                    {
                        "name": "A4",
                        "midi": 69,
                        "time": 73.55448900000017,
                        "velocity": 0.8582677165354331,
                        "duration": 0.2175894374999956
                    },
                    {
                        "name": "B4",
                        "midi": 71,
                        "time": 73.77670800000017,
                        "velocity": 0.8582677165354331,
                        "duration": 0.2175894374999956
                    },
                    {
                        "name": "A4",
                        "midi": 69,
                        "time": 73.99892700000017,
                        "velocity": 0.8582677165354331,
                        "duration": 0.2175894374999956
                    },
                    {
                        "name": "G4",
                        "midi": 67,
                        "time": 74.22114600000016,
                        "velocity": 0.8582677165354331,
                        "duration": 0.2175894374999956
                    },
                    {
                        "name": "D4",
                        "midi": 62,
                        "time": 74.44336500000016,
                        "velocity": 0.8582677165354331,
                        "duration": 0.2175894374999956
                    },
                    {
                        "name": "D4",
                        "midi": 62,
                        "time": 74.88780300000015,
                        "velocity": 0.8582677165354331,
                        "duration": 0.2175894374999956
                    },
                    {
                        "name": "G4",
                        "midi": 67,
                        "time": 75.11002200000014,
                        "velocity": 0.8582677165354331,
                        "duration": 0.2175894374999956
                    },
                    {
                        "name": "B4",
                        "midi": 71,
                        "time": 75.33224100000014,
                        "velocity": 0.8582677165354331,
                        "duration": 0.2175894374999956
                    },
                    {
                        "name": "B4",
                        "midi": 71,
                        "time": 75.77667900000013,
                        "velocity": 0.8582677165354331,
                        "duration": 0.2175894374999956
                    },
                    {
                        "name": "G4",
                        "midi": 67,
                        "time": 75.99889800000012,
                        "velocity": 0.8582677165354331,
                        "duration": 0.2175894374999956
                    },
                    {
                        "name": "D4",
                        "midi": 62,
                        "time": 76.22111700000012,
                        "velocity": 0.8582677165354331,
                        "duration": 0.2175894374999956
                    },
                    {
                        "name": "D4",
                        "midi": 62,
                        "time": 76.66555500000011,
                        "velocity": 0.8582677165354331,
                        "duration": 0.2175894374999956
                    },
                    {
                        "name": "G4",
                        "midi": 67,
                        "time": 76.8877740000001,
                        "velocity": 0.8582677165354331,
                        "duration": 0.2175894374999956
                    },
                    {
                        "name": "A4",
                        "midi": 69,
                        "time": 77.1099930000001,
                        "velocity": 0.8582677165354331,
                        "duration": 0.2175894374999956
                    },
                    {
                        "name": "B4",
                        "midi": 71,
                        "time": 77.3322120000001,
                        "velocity": 0.8582677165354331,
                        "duration": 0.2175894374999956
                    },
                    {
                        "name": "A4",
                        "midi": 69,
                        "time": 77.5544310000001,
                        "velocity": 0.8582677165354331,
                        "duration": 0.2175894374999956
                    },
                    {
                        "name": "G4",
                        "midi": 67,
                        "time": 77.77665000000009,
                        "velocity": 0.8582677165354331,
                        "duration": 0.2175894374999956
                    },
                    {
                        "name": "B4",
                        "midi": 71,
                        "time": 77.99886900000008,
                        "velocity": 0.8582677165354331,
                        "duration": 0.2175894374999956
                    },
                    {
                        "name": "D4",
                        "midi": 62,
                        "time": 78.44330700000008,
                        "velocity": 0.8582677165354331,
                        "duration": 0.2175894374999956
                    },
                    {
                        "name": "G4",
                        "midi": 67,
                        "time": 78.66552600000007,
                        "velocity": 0.8582677165354331,
                        "duration": 0.2175894374999956
                    },
                    {
                        "name": "B4",
                        "midi": 71,
                        "time": 78.88774500000007,
                        "velocity": 0.8582677165354331,
                        "duration": 0.2175894374999956
                    },
                    {
                        "name": "B4",
                        "midi": 71,
                        "time": 79.33218300000006,
                        "velocity": 0.8582677165354331,
                        "duration": 0.2175894374999956
                    },
                    {
                        "name": "G4",
                        "midi": 67,
                        "time": 79.55440200000005,
                        "velocity": 0.8582677165354331,
                        "duration": 0.2175894374999956
                    },
                    {
                        "name": "D4",
                        "midi": 62,
                        "time": 79.77662100000005,
                        "velocity": 0.8582677165354331,
                        "duration": 0.2175894374999956
                    },
                    {
                        "name": "D4",
                        "midi": 62,
                        "time": 80.22105900000004,
                        "velocity": 0.8582677165354331,
                        "duration": 0.2175894374999956
                    },
                    {
                        "name": "G4",
                        "midi": 67,
                        "time": 80.44327800000003,
                        "velocity": 0.8582677165354331,
                        "duration": 0.2175894374999956
                    },
                    {
                        "name": "A4",
                        "midi": 69,
                        "time": 80.66549700000003,
                        "velocity": 0.8582677165354331,
                        "duration": 0.2175894374999956
                    },
                    {
                        "name": "B4",
                        "midi": 71,
                        "time": 80.88771600000003,
                        "velocity": 0.8582677165354331,
                        "duration": 0.2175894374999956
                    },
                    {
                        "name": "A4",
                        "midi": 69,
                        "time": 81.10993500000002,
                        "velocity": 0.8582677165354331,
                        "duration": 0.2175894374999956
                    },
                    {
                        "name": "G4",
                        "midi": 67,
                        "time": 81.33215400000002,
                        "velocity": 0.8582677165354331,
                        "duration": 0.2175894374999956
                    },
                    {
                        "name": "D4",
                        "midi": 62,
                        "time": 81.55437300000001,
                        "velocity": 0.8582677165354331,
                        "duration": 0.2175894374999956
                    },
                    {
                        "name": "D4",
                        "midi": 62,
                        "time": 81.998811,
                        "velocity": 0.8582677165354331,
                        "duration": 0.2175894374999956
                    },
                    {
                        "name": "G4",
                        "midi": 67,
                        "time": 82.22103,
                        "velocity": 0.8582677165354331,
                        "duration": 0.2175894374999956
                    },
                    {
                        "name": "B4",
                        "midi": 71,
                        "time": 82.443249,
                        "velocity": 0.8582677165354331,
                        "duration": 0.2175894374999956
                    },
                    {
                        "name": "B4",
                        "midi": 71,
                        "time": 82.88768699999999,
                        "velocity": 0.8582677165354331,
                        "duration": 0.2175894374999956
                    },
                    {
                        "name": "G4",
                        "midi": 67,
                        "time": 83.10990599999998,
                        "velocity": 0.8582677165354331,
                        "duration": 0.2175894374999956
                    },
                    {
                        "name": "D4",
                        "midi": 62,
                        "time": 83.33212499999998,
                        "velocity": 0.8582677165354331,
                        "duration": 0.2175894374999956
                    },
                    {
                        "name": "D4",
                        "midi": 62,
                        "time": 83.77656299999997,
                        "velocity": 0.8582677165354331,
                        "duration": 0.2175894374999956
                    },
                    {
                        "name": "G4",
                        "midi": 67,
                        "time": 83.99878199999996,
                        "velocity": 0.8582677165354331,
                        "duration": 0.2175894374999956
                    },
                    {
                        "name": "A4",
                        "midi": 69,
                        "time": 84.22100099999996,
                        "velocity": 0.8582677165354331,
                        "duration": 0.2175894374999956
                    },
                    {
                        "name": "B4",
                        "midi": 71,
                        "time": 84.44321999999995,
                        "velocity": 0.8582677165354331,
                        "duration": 0.2175894374999956
                    },
                    {
                        "name": "A4",
                        "midi": 69,
                        "time": 84.66543899999995,
                        "velocity": 0.8582677165354331,
                        "duration": 0.2175894374999956
                    },
                    {
                        "name": "G4",
                        "midi": 67,
                        "time": 84.88765799999994,
                        "velocity": 0.8582677165354331,
                        "duration": 0.2175894374999956
                    },
                    {
                        "name": "B4",
                        "midi": 71,
                        "time": 85.10987699999994,
                        "velocity": 0.8582677165354331,
                        "duration": 0.2175894374999956
                    },
                    {
                        "name": "D4",
                        "midi": 62,
                        "time": 85.55431499999993,
                        "velocity": 0.8582677165354331,
                        "duration": 0.2175894374999956
                    },
                    {
                        "name": "G4",
                        "midi": 67,
                        "time": 85.77653399999993,
                        "velocity": 0.8582677165354331,
                        "duration": 0.2175894374999956
                    },
                    {
                        "name": "B4",
                        "midi": 71,
                        "time": 85.99875299999992,
                        "velocity": 0.8582677165354331,
                        "duration": 0.2175894374999956
                    },
                    {
                        "name": "B4",
                        "midi": 71,
                        "time": 86.44319099999991,
                        "velocity": 0.8582677165354331,
                        "duration": 0.2175894374999956
                    },
                    {
                        "name": "G4",
                        "midi": 67,
                        "time": 86.66540999999991,
                        "velocity": 0.8582677165354331,
                        "duration": 0.2175894374999956
                    },
                    {
                        "name": "D4",
                        "midi": 62,
                        "time": 86.8876289999999,
                        "velocity": 0.8582677165354331,
                        "duration": 0.2175894374999956
                    },
                    {
                        "name": "D4",
                        "midi": 62,
                        "time": 87.3320669999999,
                        "velocity": 0.8582677165354331,
                        "duration": 0.2175894374999956
                    },
                    {
                        "name": "G4",
                        "midi": 67,
                        "time": 87.55428599999989,
                        "velocity": 0.8582677165354331,
                        "duration": 0.2175894374999956
                    },
                    {
                        "name": "A4",
                        "midi": 69,
                        "time": 87.77650499999989,
                        "velocity": 0.8582677165354331,
                        "duration": 0.2175894374999956
                    },
                    {
                        "name": "B4",
                        "midi": 71,
                        "time": 87.99872399999988,
                        "velocity": 0.8582677165354331,
                        "duration": 0.2175894374999956
                    },
                    {
                        "name": "A4",
                        "midi": 69,
                        "time": 88.22094299999988,
                        "velocity": 0.8582677165354331,
                        "duration": 0.2175894374999956
                    },
                    {
                        "name": "G4",
                        "midi": 67,
                        "time": 88.44316199999987,
                        "velocity": 0.8582677165354331,
                        "duration": 0.2175894374999956
                    },
                    {
                        "name": "D4",
                        "midi": 62,
                        "time": 88.66538099999987,
                        "velocity": 0.8582677165354331,
                        "duration": 0.2175894374999956
                    },
                    {
                        "name": "D4",
                        "midi": 62,
                        "time": 89.10981899999986,
                        "velocity": 0.8582677165354331,
                        "duration": 0.2175894374999956
                    },
                    {
                        "name": "G4",
                        "midi": 67,
                        "time": 89.33203799999986,
                        "velocity": 0.8582677165354331,
                        "duration": 0.2175894374999956
                    },
                    {
                        "name": "B4",
                        "midi": 71,
                        "time": 89.55425699999985,
                        "velocity": 0.8582677165354331,
                        "duration": 0.2175894374999956
                    },
                    {
                        "name": "B4",
                        "midi": 71,
                        "time": 89.99869499999984,
                        "velocity": 0.8582677165354331,
                        "duration": 0.2175894374999956
                    },
                    {
                        "name": "G4",
                        "midi": 67,
                        "time": 90.22091399999984,
                        "velocity": 0.8582677165354331,
                        "duration": 0.2175894374999956
                    },
                    {
                        "name": "D4",
                        "midi": 62,
                        "time": 90.44313299999983,
                        "velocity": 0.8582677165354331,
                        "duration": 0.2175894374999956
                    },
                    {
                        "name": "D4",
                        "midi": 62,
                        "time": 90.88757099999982,
                        "velocity": 0.8582677165354331,
                        "duration": 0.2175894374999956
                    },
                    {
                        "name": "G4",
                        "midi": 67,
                        "time": 91.10978999999982,
                        "velocity": 0.8582677165354331,
                        "duration": 0.2175894374999956
                    },
                    {
                        "name": "A4",
                        "midi": 69,
                        "time": 91.33200899999981,
                        "velocity": 0.8582677165354331,
                        "duration": 0.2175894374999956
                    },
                    {
                        "name": "B4",
                        "midi": 71,
                        "time": 91.55422799999981,
                        "velocity": 0.8582677165354331,
                        "duration": 0.2175894374999956
                    },
                    {
                        "name": "A4",
                        "midi": 69,
                        "time": 91.7764469999998,
                        "velocity": 0.8582677165354331,
                        "duration": 0.2175894374999956
                    },
                    {
                        "name": "G4",
                        "midi": 67,
                        "time": 91.9986659999998,
                        "velocity": 0.8582677165354331,
                        "duration": 0.2175894374999956
                    },
                    {
                        "name": "B4",
                        "midi": 71,
                        "time": 92.2208849999998,
                        "velocity": 0.8582677165354331,
                        "duration": 0.2175894374999956
                    },
                    {
                        "name": "D4",
                        "midi": 62,
                        "time": 92.66532299999979,
                        "velocity": 0.8582677165354331,
                        "duration": 0.2175894374999956
                    },
                    {
                        "name": "G4",
                        "midi": 67,
                        "time": 92.88754199999978,
                        "velocity": 0.8582677165354331,
                        "duration": 0.2175894374999956
                    },
                    {
                        "name": "B4",
                        "midi": 71,
                        "time": 93.10976099999978,
                        "velocity": 0.8582677165354331,
                        "duration": 0.2175894374999956
                    },
                    {
                        "name": "B4",
                        "midi": 71,
                        "time": 93.55419899999977,
                        "velocity": 0.8582677165354331,
                        "duration": 0.2175894374999956
                    },
                    {
                        "name": "G4",
                        "midi": 67,
                        "time": 93.77641799999977,
                        "velocity": 0.8582677165354331,
                        "duration": 0.2175894374999956
                    },
                    {
                        "name": "D4",
                        "midi": 62,
                        "time": 93.99863699999976,
                        "velocity": 0.8582677165354331,
                        "duration": 0.2175894374999956
                    },
                    {
                        "name": "D4",
                        "midi": 62,
                        "time": 94.44307499999975,
                        "velocity": 0.8582677165354331,
                        "duration": 0.2175894374999956
                    },
                    {
                        "name": "G4",
                        "midi": 67,
                        "time": 94.66529399999975,
                        "velocity": 0.8582677165354331,
                        "duration": 0.2175894374999956
                    },
                    {
                        "name": "A4",
                        "midi": 69,
                        "time": 94.88751299999974,
                        "velocity": 0.8582677165354331,
                        "duration": 0.2175894374999956
                    },
                    {
                        "name": "B4",
                        "midi": 71,
                        "time": 95.10973199999974,
                        "velocity": 0.8582677165354331,
                        "duration": 0.2175894374999956
                    },
                    {
                        "name": "A4",
                        "midi": 69,
                        "time": 95.33195099999973,
                        "velocity": 0.8582677165354331,
                        "duration": 0.2175894374999956
                    },
                    {
                        "name": "G4",
                        "midi": 67,
                        "time": 95.55416999999973,
                        "velocity": 0.8582677165354331,
                        "duration": 0.2175894374999956
                    },
                    {
                        "name": "D4",
                        "midi": 62,
                        "time": 95.77638899999972,
                        "velocity": 0.8582677165354331,
                        "duration": 0.2175894374999956
                    },
                    {
                        "name": "D4",
                        "midi": 62,
                        "time": 96.22082699999972,
                        "velocity": 0.8582677165354331,
                        "duration": 0.2175894374999956
                    },
                    {
                        "name": "G4",
                        "midi": 67,
                        "time": 96.44304599999971,
                        "velocity": 0.8582677165354331,
                        "duration": 0.2175894374999956
                    },
                    {
                        "name": "B4",
                        "midi": 71,
                        "time": 96.6652649999997,
                        "velocity": 0.8582677165354331,
                        "duration": 0.2175894374999956
                    },
                    {
                        "name": "B4",
                        "midi": 71,
                        "time": 97.1097029999997,
                        "velocity": 0.8582677165354331,
                        "duration": 0.2175894374999956
                    },
                    {
                        "name": "G4",
                        "midi": 67,
                        "time": 97.3319219999997,
                        "velocity": 0.8582677165354331,
                        "duration": 0.2175894374999956
                    },
                    {
                        "name": "D4",
                        "midi": 62,
                        "time": 97.55414099999969,
                        "velocity": 0.8582677165354331,
                        "duration": 0.2175894374999956
                    },
                    {
                        "name": "D4",
                        "midi": 62,
                        "time": 97.99857899999968,
                        "velocity": 0.8582677165354331,
                        "duration": 0.2175894374999956
                    },
                    {
                        "name": "G4",
                        "midi": 67,
                        "time": 98.22079799999968,
                        "velocity": 0.8582677165354331,
                        "duration": 0.2175894374999956
                    },
                    {
                        "name": "A4",
                        "midi": 69,
                        "time": 98.44301699999967,
                        "velocity": 0.8582677165354331,
                        "duration": 0.2175894374999956
                    },
                    {
                        "name": "B4",
                        "midi": 71,
                        "time": 98.66523599999967,
                        "velocity": 0.8582677165354331,
                        "duration": 0.2175894374999956
                    },
                    {
                        "name": "A4",
                        "midi": 69,
                        "time": 98.88745499999966,
                        "velocity": 0.8582677165354331,
                        "duration": 0.2175894374999956
                    },
                    {
                        "name": "G4",
                        "midi": 67,
                        "time": 99.10967399999966,
                        "velocity": 0.8582677165354331,
                        "duration": 0.2175894374999956
                    },
                    {
                        "name": "B4",
                        "midi": 71,
                        "time": 99.33189299999965,
                        "velocity": 0.8582677165354331,
                        "duration": 0.2175894374999956
                    },
                    {
                        "name": "D4",
                        "midi": 62,
                        "time": 99.77633099999964,
                        "velocity": 0.8582677165354331,
                        "duration": 0.2175894374999956
                    },
                    {
                        "name": "G4",
                        "midi": 67,
                        "time": 99.99854999999964,
                        "velocity": 0.8582677165354331,
                        "duration": 0.2175894374999956
                    },
                    {
                        "name": "B4",
                        "midi": 71,
                        "time": 100.22076899999963,
                        "velocity": 0.8582677165354331,
                        "duration": 0.2175894374999956
                    },
                    {
                        "name": "B4",
                        "midi": 71,
                        "time": 100.66520699999963,
                        "velocity": 0.8582677165354331,
                        "duration": 0.2175894374999956
                    },
                    {
                        "name": "G4",
                        "midi": 67,
                        "time": 100.88742599999962,
                        "velocity": 0.8582677165354331,
                        "duration": 0.2175894374999956
                    },
                    {
                        "name": "D4",
                        "midi": 62,
                        "time": 101.10964499999962,
                        "velocity": 0.8582677165354331,
                        "duration": 0.2175894374999956
                    },
                    {
                        "name": "D4",
                        "midi": 62,
                        "time": 101.55408299999961,
                        "velocity": 0.8582677165354331,
                        "duration": 0.2175894374999956
                    },
                    {
                        "name": "G4",
                        "midi": 67,
                        "time": 101.7763019999996,
                        "velocity": 0.8582677165354331,
                        "duration": 0.2175894374999956
                    },
                    {
                        "name": "A4",
                        "midi": 69,
                        "time": 101.9985209999996,
                        "velocity": 0.8582677165354331,
                        "duration": 0.2175894374999956
                    },
                    {
                        "name": "B4",
                        "midi": 71,
                        "time": 102.2207399999996,
                        "velocity": 0.8582677165354331,
                        "duration": 0.2175894374999956
                    },
                    {
                        "name": "A4",
                        "midi": 69,
                        "time": 102.44295899999959,
                        "velocity": 0.8582677165354331,
                        "duration": 0.2175894374999956
                    },
                    {
                        "name": "G4",
                        "midi": 67,
                        "time": 102.66517799999959,
                        "velocity": 0.8582677165354331,
                        "duration": 0.2175894374999956
                    },
                    {
                        "name": "D4",
                        "midi": 62,
                        "time": 102.88739699999958,
                        "velocity": 0.8582677165354331,
                        "duration": 0.2175894374999956
                    },
                    {
                        "name": "D4",
                        "midi": 62,
                        "time": 103.33183499999957,
                        "velocity": 0.8582677165354331,
                        "duration": 0.2175894374999956
                    },
                    {
                        "name": "G4",
                        "midi": 67,
                        "time": 103.55405399999957,
                        "velocity": 0.8582677165354331,
                        "duration": 0.2175894374999956
                    },
                    {
                        "name": "B4",
                        "midi": 71,
                        "time": 103.77627299999956,
                        "velocity": 0.8582677165354331,
                        "duration": 0.2175894374999956
                    },
                    {
                        "name": "B4",
                        "midi": 71,
                        "time": 104.22071099999955,
                        "velocity": 0.8582677165354331,
                        "duration": 0.2175894374999956
                    },
                    {
                        "name": "G4",
                        "midi": 67,
                        "time": 104.44292999999955,
                        "velocity": 0.8582677165354331,
                        "duration": 0.2175894374999956
                    },
                    {
                        "name": "D4",
                        "midi": 62,
                        "time": 104.66514899999954,
                        "velocity": 0.8582677165354331,
                        "duration": 0.2175894374999956
                    },
                    {
                        "name": "D4",
                        "midi": 62,
                        "time": 105.10958699999954,
                        "velocity": 0.8582677165354331,
                        "duration": 0.2175894374999956
                    },
                    {
                        "name": "G4",
                        "midi": 67,
                        "time": 105.33180599999953,
                        "velocity": 0.8582677165354331,
                        "duration": 0.2175894374999956
                    },
                    {
                        "name": "A4",
                        "midi": 69,
                        "time": 105.55402499999953,
                        "velocity": 0.8582677165354331,
                        "duration": 0.2175894374999956
                    },
                    {
                        "name": "B4",
                        "midi": 71,
                        "time": 105.77624399999952,
                        "velocity": 0.8582677165354331,
                        "duration": 0.2175894374999956
                    },
                    {
                        "name": "A4",
                        "midi": 69,
                        "time": 105.99846299999952,
                        "velocity": 0.8582677165354331,
                        "duration": 0.2175894374999956
                    },
                    {
                        "name": "G4",
                        "midi": 67,
                        "time": 106.22068199999951,
                        "velocity": 0.8582677165354331,
                        "duration": 0.2175894374999956
                    },
                    {
                        "name": "B4",
                        "midi": 71,
                        "time": 106.44290099999951,
                        "velocity": 0.8582677165354331,
                        "duration": 0.2175894374999956
                    },
                    {
                        "name": "D4",
                        "midi": 62,
                        "time": 106.8873389999995,
                        "velocity": 0.8582677165354331,
                        "duration": 0.2175894374999956
                    },
                    {
                        "name": "G4",
                        "midi": 67,
                        "time": 107.1095579999995,
                        "velocity": 0.8582677165354331,
                        "duration": 0.2175894374999956
                    },
                    {
                        "name": "B4",
                        "midi": 71,
                        "time": 107.33177699999949,
                        "velocity": 0.8582677165354331,
                        "duration": 0.2175894374999956
                    },
                    {
                        "name": "B4",
                        "midi": 71,
                        "time": 107.77621499999948,
                        "velocity": 0.8582677165354331,
                        "duration": 0.2175894374999956
                    },
                    {
                        "name": "G4",
                        "midi": 67,
                        "time": 107.99843399999948,
                        "velocity": 0.8582677165354331,
                        "duration": 0.2175894374999956
                    },
                    {
                        "name": "D4",
                        "midi": 62,
                        "time": 108.22065299999947,
                        "velocity": 0.8582677165354331,
                        "duration": 0.2175894374999956
                    },
                    {
                        "name": "D4",
                        "midi": 62,
                        "time": 108.66509099999946,
                        "velocity": 0.8582677165354331,
                        "duration": 0.2175894374999956
                    },
                    {
                        "name": "G4",
                        "midi": 67,
                        "time": 108.88730999999946,
                        "velocity": 0.8582677165354331,
                        "duration": 0.2175894374999956
                    },
                    {
                        "name": "A4",
                        "midi": 69,
                        "time": 109.10952899999945,
                        "velocity": 0.8582677165354331,
                        "duration": 0.2175894374999956
                    },
                    {
                        "name": "B4",
                        "midi": 71,
                        "time": 109.33174799999945,
                        "velocity": 0.8582677165354331,
                        "duration": 0.2175894374999956
                    },
                    {
                        "name": "A4",
                        "midi": 69,
                        "time": 109.55396699999945,
                        "velocity": 0.8582677165354331,
                        "duration": 0.2175894374999956
                    },
                    {
                        "name": "G4",
                        "midi": 67,
                        "time": 109.77618599999944,
                        "velocity": 0.8582677165354331,
                        "duration": 0.2175894374999956
                    },
                    {
                        "name": "D4",
                        "midi": 62,
                        "time": 109.99840499999944,
                        "velocity": 0.8582677165354331,
                        "duration": 0.2175894374999956
                    },
                    {
                        "name": "D4",
                        "midi": 62,
                        "time": 110.44284299999943,
                        "velocity": 0.8582677165354331,
                        "duration": 0.2175894374999956
                    },
                    {
                        "name": "G4",
                        "midi": 67,
                        "time": 110.66506199999942,
                        "velocity": 0.8582677165354331,
                        "duration": 0.2175894374999956
                    },
                    {
                        "name": "B4",
                        "midi": 71,
                        "time": 110.88728099999942,
                        "velocity": 0.8582677165354331,
                        "duration": 0.2175894374999956
                    },
                    {
                        "name": "B4",
                        "midi": 71,
                        "time": 111.33171899999941,
                        "velocity": 0.8582677165354331,
                        "duration": 0.2175894374999956
                    },
                    {
                        "name": "G4",
                        "midi": 67,
                        "time": 111.5539379999994,
                        "velocity": 0.8582677165354331,
                        "duration": 0.2175894374999956
                    },
                    {
                        "name": "D4",
                        "midi": 62,
                        "time": 111.7761569999994,
                        "velocity": 0.8582677165354331,
                        "duration": 0.2175894374999956
                    },
                    {
                        "name": "D4",
                        "midi": 62,
                        "time": 112.22059499999939,
                        "velocity": 0.8582677165354331,
                        "duration": 0.2175894374999956
                    },
                    {
                        "name": "G4",
                        "midi": 67,
                        "time": 112.44281399999939,
                        "velocity": 0.8582677165354331,
                        "duration": 0.2175894374999956
                    },
                    {
                        "name": "A4",
                        "midi": 69,
                        "time": 112.66503299999938,
                        "velocity": 0.8582677165354331,
                        "duration": 0.2175894374999956
                    },
                    {
                        "name": "B4",
                        "midi": 71,
                        "time": 112.88725199999938,
                        "velocity": 0.8582677165354331,
                        "duration": 0.2175894374999956
                    },
                    {
                        "name": "A4",
                        "midi": 69,
                        "time": 113.10947099999937,
                        "velocity": 0.8582677165354331,
                        "duration": 0.2175894374999956
                    },
                    {
                        "name": "G4",
                        "midi": 67,
                        "time": 113.33168999999937,
                        "velocity": 0.8582677165354331,
                        "duration": 0.2175894374999956
                    },
                    {
                        "name": "B4",
                        "midi": 71,
                        "time": 113.55390899999936,
                        "velocity": 0.8582677165354331,
                        "duration": 0.2175894374999956
                    },
                    {
                        "name": "D4",
                        "midi": 62,
                        "time": 113.99834699999936,
                        "velocity": 0.8582677165354331,
                        "duration": 0.2175894374999956
                    },
                    {
                        "name": "G4",
                        "midi": 67,
                        "time": 114.22056599999935,
                        "velocity": 0.8582677165354331,
                        "duration": 0.2175894374999956
                    },
                    {
                        "name": "B4",
                        "midi": 71,
                        "time": 114.44278499999935,
                        "velocity": 0.8582677165354331,
                        "duration": 0.2175894374999956
                    },
                    {
                        "name": "B4",
                        "midi": 71,
                        "time": 114.88722299999934,
                        "velocity": 0.8582677165354331,
                        "duration": 0.2175894374999956
                    },
                    {
                        "name": "G4",
                        "midi": 67,
                        "time": 115.10944199999933,
                        "velocity": 0.8582677165354331,
                        "duration": 0.2175894374999956
                    },
                    {
                        "name": "D4",
                        "midi": 62,
                        "time": 115.33166099999933,
                        "velocity": 0.8582677165354331,
                        "duration": 0.2175894374999956
                    },
                    {
                        "name": "D4",
                        "midi": 62,
                        "time": 115.77609899999932,
                        "velocity": 0.8582677165354331,
                        "duration": 0.2175894374999956
                    },
                    {
                        "name": "G4",
                        "midi": 67,
                        "time": 115.99831799999932,
                        "velocity": 0.8582677165354331,
                        "duration": 0.2175894374999956
                    },
                    {
                        "name": "A4",
                        "midi": 69,
                        "time": 116.22053699999931,
                        "velocity": 0.8582677165354331,
                        "duration": 0.2175894374999956
                    },
                    {
                        "name": "B4",
                        "midi": 71,
                        "time": 116.4427559999993,
                        "velocity": 0.8582677165354331,
                        "duration": 0.2175894374999956
                    },
                    {
                        "name": "A4",
                        "midi": 69,
                        "time": 116.6649749999993,
                        "velocity": 0.8582677165354331,
                        "duration": 0.2175894374999956
                    },
                    {
                        "name": "G4",
                        "midi": 67,
                        "time": 116.8871939999993,
                        "velocity": 0.8582677165354331,
                        "duration": 0.2175894374999956
                    },
                    {
                        "name": "D4",
                        "midi": 62,
                        "time": 117.1094129999993,
                        "velocity": 0.8582677165354331,
                        "duration": 0.2175894374999956
                    },
                    {
                        "name": "D4",
                        "midi": 62,
                        "time": 117.55385099999928,
                        "velocity": 0.8582677165354331,
                        "duration": 0.2175894374999956
                    },
                    {
                        "name": "G4",
                        "midi": 67,
                        "time": 117.77606999999928,
                        "velocity": 0.8582677165354331,
                        "duration": 0.2175894374999956
                    },
                    {
                        "name": "B4",
                        "midi": 71,
                        "time": 117.99828899999928,
                        "velocity": 0.8582677165354331,
                        "duration": 0.2175894374999956
                    },
                    {
                        "name": "B4",
                        "midi": 71,
                        "time": 118.44272699999927,
                        "velocity": 0.8582677165354331,
                        "duration": 0.2175894374999956
                    },
                    {
                        "name": "G4",
                        "midi": 67,
                        "time": 118.66494599999926,
                        "velocity": 0.8582677165354331,
                        "duration": 0.2175894374999956
                    },
                    {
                        "name": "D4",
                        "midi": 62,
                        "time": 118.88716499999926,
                        "velocity": 0.8582677165354331,
                        "duration": 0.2175894374999956
                    },
                    {
                        "name": "D4",
                        "midi": 62,
                        "time": 119.33160299999925,
                        "velocity": 0.8582677165354331,
                        "duration": 0.2175894374999956
                    },
                    {
                        "name": "G4",
                        "midi": 67,
                        "time": 119.55382199999924,
                        "velocity": 0.8582677165354331,
                        "duration": 0.2175894374999956
                    },
                    {
                        "name": "A4",
                        "midi": 69,
                        "time": 119.77604099999924,
                        "velocity": 0.8582677165354331,
                        "duration": 0.2175894374999956
                    },
                    {
                        "name": "B4",
                        "midi": 71,
                        "time": 119.99825999999923,
                        "velocity": 0.8582677165354331,
                        "duration": 0.2175894374999956
                    },
                    {
                        "name": "A4",
                        "midi": 69,
                        "time": 120.22047899999923,
                        "velocity": 0.8582677165354331,
                        "duration": 0.2175894374999956
                    },
                    {
                        "name": "G4",
                        "midi": 67,
                        "time": 120.44269799999923,
                        "velocity": 0.8582677165354331,
                        "duration": 0.2175894374999956
                    },
                    {
                        "name": "B4",
                        "midi": 71,
                        "time": 120.66491699999922,
                        "velocity": 0.8582677165354331,
                        "duration": 0.2175894374999956
                    }
                ],
                "controlChanges": {},
                "id": 5,
                "instrumentNumber": 53,
                "instrument": "voice oohs",
                "instrumentFamily": "ensemble",
                "channelNumber": 4,
                "isPercussion": false
            },
            {
                "startTime": 42.666048,
                "duration": 113.77149843749937,
                "length": 210,
                "notes": [
                    {
                        "name": "B4",
                        "midi": 71,
                        "time": 42.666048,
                        "velocity": 0.6377952755905512,
                        "duration": 0.32869893750000045
                    },
                    {
                        "name": "B4",
                        "midi": 71,
                        "time": 42.999376500000004,
                        "velocity": 0.6377952755905512,
                        "duration": 0.32869893750000045
                    },
                    {
                        "name": "B4",
                        "midi": 71,
                        "time": 43.332705000000004,
                        "velocity": 0.6377952755905512,
                        "duration": 0.2175894375000027
                    },
                    {
                        "name": "B4",
                        "midi": 71,
                        "time": 43.55492400000001,
                        "velocity": 0.6377952755905512,
                        "duration": 0.6620274375000008
                    },
                    {
                        "name": "D5",
                        "midi": 74,
                        "time": 44.22158100000001,
                        "velocity": 0.6377952755905512,
                        "duration": 0.2175894375000027
                    },
                    {
                        "name": "B4",
                        "midi": 71,
                        "time": 44.44380000000001,
                        "velocity": 0.6377952755905512,
                        "duration": 0.32869893750000045
                    },
                    {
                        "name": "B4",
                        "midi": 71,
                        "time": 44.77712850000001,
                        "velocity": 0.6377952755905512,
                        "duration": 0.32869893750000045
                    },
                    {
                        "name": "B4",
                        "midi": 71,
                        "time": 45.11045700000001,
                        "velocity": 0.6377952755905512,
                        "duration": 0.2175894375000027
                    },
                    {
                        "name": "B4",
                        "midi": 71,
                        "time": 45.33267600000001,
                        "velocity": 0.6377952755905512,
                        "duration": 0.6620274375000008
                    },
                    {
                        "name": "C5",
                        "midi": 72,
                        "time": 45.999333000000014,
                        "velocity": 0.6377952755905512,
                        "duration": 0.2175894375000027
                    },
                    {
                        "name": "B4",
                        "midi": 71,
                        "time": 46.22155200000002,
                        "velocity": 0.6377952755905512,
                        "duration": 0.32869893750000045
                    },
                    {
                        "name": "B4",
                        "midi": 71,
                        "time": 46.55488050000002,
                        "velocity": 0.6377952755905512,
                        "duration": 0.32869893750000045
                    },
                    {
                        "name": "B4",
                        "midi": 71,
                        "time": 46.88820900000002,
                        "velocity": 0.6377952755905512,
                        "duration": 0.2175894375000027
                    },
                    {
                        "name": "B4",
                        "midi": 71,
                        "time": 47.11042800000002,
                        "velocity": 0.6377952755905512,
                        "duration": 0.6620274375000008
                    },
                    {
                        "name": "B4",
                        "midi": 71,
                        "time": 47.77708500000002,
                        "velocity": 0.6377952755905512,
                        "duration": 0.2175894375000027
                    },
                    {
                        "name": "G4",
                        "midi": 67,
                        "time": 47.99930400000002,
                        "velocity": 0.6377952755905512,
                        "duration": 0.32869893750000045
                    },
                    {
                        "name": "G4",
                        "midi": 67,
                        "time": 48.332632500000024,
                        "velocity": 0.6377952755905512,
                        "duration": 0.32869893750000045
                    },
                    {
                        "name": "G4",
                        "midi": 67,
                        "time": 48.665961000000024,
                        "velocity": 0.6377952755905512,
                        "duration": 0.2175894375000027
                    },
                    {
                        "name": "A4",
                        "midi": 69,
                        "time": 48.88818000000003,
                        "velocity": 0.6377952755905512,
                        "duration": 0.32869893750000045
                    },
                    {
                        "name": "A4",
                        "midi": 69,
                        "time": 49.22150850000003,
                        "velocity": 0.6377952755905512,
                        "duration": 0.32869893750000045
                    },
                    {
                        "name": "A4",
                        "midi": 69,
                        "time": 49.55483700000003,
                        "velocity": 0.6377952755905512,
                        "duration": 0.2175894375000027
                    },
                    {
                        "name": "B4",
                        "midi": 71,
                        "time": 49.77705600000003,
                        "velocity": 0.6377952755905512,
                        "duration": 0.32869893750000045
                    },
                    {
                        "name": "B4",
                        "midi": 71,
                        "time": 50.11038450000003,
                        "velocity": 0.6377952755905512,
                        "duration": 0.32869893750000045
                    },
                    {
                        "name": "B4",
                        "midi": 71,
                        "time": 50.44371300000003,
                        "velocity": 0.6377952755905512,
                        "duration": 0.2175894375000027
                    },
                    {
                        "name": "B4",
                        "midi": 71,
                        "time": 50.66593200000003,
                        "velocity": 0.6377952755905512,
                        "duration": 0.6620274375000008
                    },
                    {
                        "name": "D5",
                        "midi": 74,
                        "time": 51.332589000000034,
                        "velocity": 0.6377952755905512,
                        "duration": 0.2175894375000027
                    },
                    {
                        "name": "B4",
                        "midi": 71,
                        "time": 51.55480800000004,
                        "velocity": 0.6377952755905512,
                        "duration": 0.32869893750000045
                    },
                    {
                        "name": "B4",
                        "midi": 71,
                        "time": 51.88813650000004,
                        "velocity": 0.6377952755905512,
                        "duration": 0.32869893750000045
                    },
                    {
                        "name": "B4",
                        "midi": 71,
                        "time": 52.22146500000004,
                        "velocity": 0.6377952755905512,
                        "duration": 0.2175894375000027
                    },
                    {
                        "name": "B4",
                        "midi": 71,
                        "time": 52.44368400000004,
                        "velocity": 0.6377952755905512,
                        "duration": 0.6620274375000008
                    },
                    {
                        "name": "C5",
                        "midi": 72,
                        "time": 53.11034100000004,
                        "velocity": 0.6377952755905512,
                        "duration": 0.2175894375000027
                    },
                    {
                        "name": "B4",
                        "midi": 71,
                        "time": 53.33256000000004,
                        "velocity": 0.6377952755905512,
                        "duration": 0.32869893750000045
                    },
                    {
                        "name": "B4",
                        "midi": 71,
                        "time": 53.665888500000044,
                        "velocity": 0.6377952755905512,
                        "duration": 0.32869893750000045
                    },
                    {
                        "name": "B4",
                        "midi": 71,
                        "time": 53.999217000000044,
                        "velocity": 0.6377952755905512,
                        "duration": 0.2175894375000027
                    },
                    {
                        "name": "B4",
                        "midi": 71,
                        "time": 54.22143600000005,
                        "velocity": 0.6377952755905512,
                        "duration": 0.6620274375000008
                    },
                    {
                        "name": "B4",
                        "midi": 71,
                        "time": 54.88809300000005,
                        "velocity": 0.6377952755905512,
                        "duration": 0.2175894375000027
                    },
                    {
                        "name": "G4",
                        "midi": 67,
                        "time": 55.11031200000005,
                        "velocity": 0.6377952755905512,
                        "duration": 0.32869893750000045
                    },
                    {
                        "name": "G4",
                        "midi": 67,
                        "time": 55.44364050000005,
                        "velocity": 0.6377952755905512,
                        "duration": 0.32869893750000045
                    },
                    {
                        "name": "G4",
                        "midi": 67,
                        "time": 55.77696900000005,
                        "velocity": 0.6377952755905512,
                        "duration": 0.2175894375000027
                    },
                    {
                        "name": "A4",
                        "midi": 69,
                        "time": 55.99918800000005,
                        "velocity": 0.6377952755905512,
                        "duration": 0.32869893750000045
                    },
                    {
                        "name": "A4",
                        "midi": 69,
                        "time": 56.332516500000054,
                        "velocity": 0.6377952755905512,
                        "duration": 0.32869893750000045
                    },
                    {
                        "name": "A4",
                        "midi": 69,
                        "time": 56.665845000000054,
                        "velocity": 0.6377952755905512,
                        "duration": 0.2175894375000027
                    },
                    {
                        "name": "B4",
                        "midi": 71,
                        "time": 56.88806400000006,
                        "velocity": 0.6377952755905512,
                        "duration": 0.32869893750000045
                    },
                    {
                        "name": "B4",
                        "midi": 71,
                        "time": 57.22139250000006,
                        "velocity": 0.6377952755905512,
                        "duration": 0.32869893750000045
                    },
                    {
                        "name": "B4",
                        "midi": 71,
                        "time": 57.55472100000006,
                        "velocity": 0.6377952755905512,
                        "duration": 0.2175894375000027
                    },
                    {
                        "name": "B4",
                        "midi": 71,
                        "time": 57.77694000000006,
                        "velocity": 0.6377952755905512,
                        "duration": 0.6620274375000008
                    },
                    {
                        "name": "D5",
                        "midi": 74,
                        "time": 58.44359700000006,
                        "velocity": 0.6377952755905512,
                        "duration": 0.2175894375000027
                    },
                    {
                        "name": "B4",
                        "midi": 71,
                        "time": 58.66581600000006,
                        "velocity": 0.6377952755905512,
                        "duration": 0.32869893750000045
                    },
                    {
                        "name": "B4",
                        "midi": 71,
                        "time": 58.999144500000064,
                        "velocity": 0.6377952755905512,
                        "duration": 0.32869893750000045
                    },
                    {
                        "name": "B4",
                        "midi": 71,
                        "time": 59.332473000000064,
                        "velocity": 0.6377952755905512,
                        "duration": 0.2175894375000027
                    },
                    {
                        "name": "B4",
                        "midi": 71,
                        "time": 59.55469200000007,
                        "velocity": 0.6377952755905512,
                        "duration": 0.6620274375000008
                    },
                    {
                        "name": "C5",
                        "midi": 72,
                        "time": 60.22134900000007,
                        "velocity": 0.6377952755905512,
                        "duration": 0.2175894375000027
                    },
                    {
                        "name": "B4",
                        "midi": 71,
                        "time": 60.44356800000007,
                        "velocity": 0.6377952755905512,
                        "duration": 0.32869893750000045
                    },
                    {
                        "name": "B4",
                        "midi": 71,
                        "time": 60.77689650000007,
                        "velocity": 0.6377952755905512,
                        "duration": 0.32869893750000045
                    },
                    {
                        "name": "B4",
                        "midi": 71,
                        "time": 61.11022500000007,
                        "velocity": 0.6377952755905512,
                        "duration": 0.2175894375000027
                    },
                    {
                        "name": "B4",
                        "midi": 71,
                        "time": 61.33244400000007,
                        "velocity": 0.6377952755905512,
                        "duration": 0.6620274375000008
                    },
                    {
                        "name": "B4",
                        "midi": 71,
                        "time": 61.999101000000074,
                        "velocity": 0.6377952755905512,
                        "duration": 0.2175894375000027
                    },
                    {
                        "name": "G4",
                        "midi": 67,
                        "time": 62.22132000000008,
                        "velocity": 0.6377952755905512,
                        "duration": 0.32869893750000045
                    },
                    {
                        "name": "G4",
                        "midi": 67,
                        "time": 62.55464850000008,
                        "velocity": 0.6377952755905512,
                        "duration": 0.32869893750000045
                    },
                    {
                        "name": "G4",
                        "midi": 67,
                        "time": 62.88797700000008,
                        "velocity": 0.6377952755905512,
                        "duration": 0.2175894375000027
                    },
                    {
                        "name": "A4",
                        "midi": 69,
                        "time": 63.11019600000008,
                        "velocity": 0.6377952755905512,
                        "duration": 0.32869893750000045
                    },
                    {
                        "name": "A4",
                        "midi": 69,
                        "time": 63.44352450000008,
                        "velocity": 0.6377952755905512,
                        "duration": 0.32869893750000045
                    },
                    {
                        "name": "A4",
                        "midi": 69,
                        "time": 63.77685300000008,
                        "velocity": 0.6377952755905512,
                        "duration": 0.2175894375000027
                    },
                    {
                        "name": "B4",
                        "midi": 71,
                        "time": 63.99907200000008,
                        "velocity": 0.6377952755905512,
                        "duration": 0.32869893749999335
                    },
                    {
                        "name": "B4",
                        "midi": 71,
                        "time": 64.33240050000008,
                        "velocity": 0.6377952755905512,
                        "duration": 0.32869893749999335
                    },
                    {
                        "name": "B4",
                        "midi": 71,
                        "time": 64.66572900000007,
                        "velocity": 0.6377952755905512,
                        "duration": 0.2175894374999956
                    },
                    {
                        "name": "B4",
                        "midi": 71,
                        "time": 64.88794800000007,
                        "velocity": 0.6377952755905512,
                        "duration": 0.6620274375000008
                    },
                    {
                        "name": "D5",
                        "midi": 74,
                        "time": 65.55460500000007,
                        "velocity": 0.6377952755905512,
                        "duration": 0.2175894374999956
                    },
                    {
                        "name": "B4",
                        "midi": 71,
                        "time": 65.77682400000006,
                        "velocity": 0.6377952755905512,
                        "duration": 0.32869893749999335
                    },
                    {
                        "name": "B4",
                        "midi": 71,
                        "time": 66.11015250000005,
                        "velocity": 0.6377952755905512,
                        "duration": 0.32869893749999335
                    },
                    {
                        "name": "B4",
                        "midi": 71,
                        "time": 66.44348100000005,
                        "velocity": 0.6377952755905512,
                        "duration": 0.2175894374999956
                    },
                    {
                        "name": "B4",
                        "midi": 71,
                        "time": 66.66570000000004,
                        "velocity": 0.6377952755905512,
                        "duration": 0.6620274375000008
                    },
                    {
                        "name": "C5",
                        "midi": 72,
                        "time": 67.33235700000004,
                        "velocity": 0.6377952755905512,
                        "duration": 0.2175894374999956
                    },
                    {
                        "name": "B4",
                        "midi": 71,
                        "time": 67.55457600000004,
                        "velocity": 0.6377952755905512,
                        "duration": 0.32869893749999335
                    },
                    {
                        "name": "B4",
                        "midi": 71,
                        "time": 67.88790450000003,
                        "velocity": 0.6377952755905512,
                        "duration": 0.32869893749999335
                    },
                    {
                        "name": "B4",
                        "midi": 71,
                        "time": 68.22123300000003,
                        "velocity": 0.6377952755905512,
                        "duration": 0.2175894374999956
                    },
                    {
                        "name": "B4",
                        "midi": 71,
                        "time": 68.44345200000002,
                        "velocity": 0.6377952755905512,
                        "duration": 0.6620274375000008
                    },
                    {
                        "name": "B4",
                        "midi": 71,
                        "time": 69.11010900000002,
                        "velocity": 0.6377952755905512,
                        "duration": 0.2175894374999956
                    },
                    {
                        "name": "G4",
                        "midi": 67,
                        "time": 69.33232800000002,
                        "velocity": 0.6377952755905512,
                        "duration": 0.32869893749999335
                    },
                    {
                        "name": "G4",
                        "midi": 67,
                        "time": 69.66565650000001,
                        "velocity": 0.6377952755905512,
                        "duration": 0.32869893749999335
                    },
                    {
                        "name": "G4",
                        "midi": 67,
                        "time": 69.998985,
                        "velocity": 0.6377952755905512,
                        "duration": 0.2175894374999956
                    },
                    {
                        "name": "A4",
                        "midi": 69,
                        "time": 70.221204,
                        "velocity": 0.6377952755905512,
                        "duration": 0.32869893749999335
                    },
                    {
                        "name": "A4",
                        "midi": 69,
                        "time": 70.5545325,
                        "velocity": 0.6377952755905512,
                        "duration": 0.32869893749999335
                    },
                    {
                        "name": "A4",
                        "midi": 69,
                        "time": 70.88786099999999,
                        "velocity": 0.6377952755905512,
                        "duration": 0.2175894374999956
                    },
                    {
                        "name": "B4",
                        "midi": 71,
                        "time": 71.11007999999998,
                        "velocity": 0.6377952755905512,
                        "duration": 0.32869893749999335
                    },
                    {
                        "name": "B4",
                        "midi": 71,
                        "time": 71.44340849999998,
                        "velocity": 0.6377952755905512,
                        "duration": 0.32869893749999335
                    },
                    {
                        "name": "B4",
                        "midi": 71,
                        "time": 71.77673699999997,
                        "velocity": 0.6377952755905512,
                        "duration": 0.2175894374999956
                    },
                    {
                        "name": "B4",
                        "midi": 71,
                        "time": 71.99895599999996,
                        "velocity": 0.6377952755905512,
                        "duration": 0.6620274375000008
                    },
                    {
                        "name": "D5",
                        "midi": 74,
                        "time": 72.66561299999996,
                        "velocity": 0.6377952755905512,
                        "duration": 0.2175894374999956
                    },
                    {
                        "name": "B4",
                        "midi": 71,
                        "time": 72.88783199999996,
                        "velocity": 0.6377952755905512,
                        "duration": 0.32869893749999335
                    },
                    {
                        "name": "B4",
                        "midi": 71,
                        "time": 73.22116049999995,
                        "velocity": 0.6377952755905512,
                        "duration": 0.32869893749999335
                    },
                    {
                        "name": "B4",
                        "midi": 71,
                        "time": 73.55448899999995,
                        "velocity": 0.6377952755905512,
                        "duration": 0.2175894374999956
                    },
                    {
                        "name": "B4",
                        "midi": 71,
                        "time": 73.77670799999994,
                        "velocity": 0.6377952755905512,
                        "duration": 0.6620274375000008
                    },
                    {
                        "name": "C5",
                        "midi": 72,
                        "time": 74.44336499999994,
                        "velocity": 0.6377952755905512,
                        "duration": 0.2175894374999956
                    },
                    {
                        "name": "B4",
                        "midi": 71,
                        "time": 74.66558399999994,
                        "velocity": 0.6377952755905512,
                        "duration": 0.32869893749999335
                    },
                    {
                        "name": "B4",
                        "midi": 71,
                        "time": 74.99891249999993,
                        "velocity": 0.6377952755905512,
                        "duration": 0.32869893749999335
                    },
                    {
                        "name": "B4",
                        "midi": 71,
                        "time": 75.33224099999993,
                        "velocity": 0.6377952755905512,
                        "duration": 0.2175894374999956
                    },
                    {
                        "name": "B4",
                        "midi": 71,
                        "time": 75.55445999999992,
                        "velocity": 0.6377952755905512,
                        "duration": 0.6620274375000008
                    },
                    {
                        "name": "B4",
                        "midi": 71,
                        "time": 76.22111699999992,
                        "velocity": 0.6377952755905512,
                        "duration": 0.2175894374999956
                    },
                    {
                        "name": "G4",
                        "midi": 67,
                        "time": 76.44333599999992,
                        "velocity": 0.6377952755905512,
                        "duration": 0.32869893749999335
                    },
                    {
                        "name": "G4",
                        "midi": 67,
                        "time": 76.77666449999991,
                        "velocity": 0.6377952755905512,
                        "duration": 0.32869893749999335
                    },
                    {
                        "name": "G4",
                        "midi": 67,
                        "time": 77.1099929999999,
                        "velocity": 0.6377952755905512,
                        "duration": 0.2175894374999956
                    },
                    {
                        "name": "A4",
                        "midi": 69,
                        "time": 77.3322119999999,
                        "velocity": 0.6377952755905512,
                        "duration": 0.32869893749999335
                    },
                    {
                        "name": "A4",
                        "midi": 69,
                        "time": 77.66554049999989,
                        "velocity": 0.6377952755905512,
                        "duration": 0.32869893749999335
                    },
                    {
                        "name": "A4",
                        "midi": 69,
                        "time": 77.99886899999989,
                        "velocity": 0.6377952755905512,
                        "duration": 0.2175894374999956
                    },
                    {
                        "name": "B4",
                        "midi": 71,
                        "time": 78.22108799999988,
                        "velocity": 0.6377952755905512,
                        "duration": 0.32869893749999335
                    },
                    {
                        "name": "B4",
                        "midi": 71,
                        "time": 78.55441649999987,
                        "velocity": 0.6377952755905512,
                        "duration": 0.32869893749999335
                    },
                    {
                        "name": "B4",
                        "midi": 71,
                        "time": 78.88774499999987,
                        "velocity": 0.6377952755905512,
                        "duration": 0.2175894374999956
                    },
                    {
                        "name": "B4",
                        "midi": 71,
                        "time": 79.10996399999986,
                        "velocity": 0.6377952755905512,
                        "duration": 0.6620274375000008
                    },
                    {
                        "name": "D5",
                        "midi": 74,
                        "time": 79.77662099999986,
                        "velocity": 0.6377952755905512,
                        "duration": 0.2175894374999956
                    },
                    {
                        "name": "B4",
                        "midi": 71,
                        "time": 79.99883999999986,
                        "velocity": 0.6377952755905512,
                        "duration": 0.32869893749999335
                    },
                    {
                        "name": "B4",
                        "midi": 71,
                        "time": 80.33216849999985,
                        "velocity": 0.6377952755905512,
                        "duration": 0.32869893749999335
                    },
                    {
                        "name": "B4",
                        "midi": 71,
                        "time": 80.66549699999985,
                        "velocity": 0.6377952755905512,
                        "duration": 0.2175894374999956
                    },
                    {
                        "name": "B4",
                        "midi": 71,
                        "time": 80.88771599999984,
                        "velocity": 0.6377952755905512,
                        "duration": 0.6620274375000008
                    },
                    {
                        "name": "C5",
                        "midi": 72,
                        "time": 81.55437299999984,
                        "velocity": 0.6377952755905512,
                        "duration": 0.2175894374999956
                    },
                    {
                        "name": "B4",
                        "midi": 71,
                        "time": 81.77659199999984,
                        "velocity": 0.6377952755905512,
                        "duration": 0.32869893749999335
                    },
                    {
                        "name": "B4",
                        "midi": 71,
                        "time": 82.10992049999983,
                        "velocity": 0.6377952755905512,
                        "duration": 0.32869893749999335
                    },
                    {
                        "name": "B4",
                        "midi": 71,
                        "time": 82.44324899999982,
                        "velocity": 0.6377952755905512,
                        "duration": 0.2175894374999956
                    },
                    {
                        "name": "B4",
                        "midi": 71,
                        "time": 82.66546799999982,
                        "velocity": 0.6377952755905512,
                        "duration": 0.6620274375000008
                    },
                    {
                        "name": "B4",
                        "midi": 71,
                        "time": 83.33212499999982,
                        "velocity": 0.6377952755905512,
                        "duration": 0.2175894374999956
                    },
                    {
                        "name": "G4",
                        "midi": 67,
                        "time": 83.55434399999982,
                        "velocity": 0.6377952755905512,
                        "duration": 0.32869893749999335
                    },
                    {
                        "name": "G4",
                        "midi": 67,
                        "time": 83.88767249999981,
                        "velocity": 0.6377952755905512,
                        "duration": 0.32869893749999335
                    },
                    {
                        "name": "G4",
                        "midi": 67,
                        "time": 84.2210009999998,
                        "velocity": 0.6377952755905512,
                        "duration": 0.2175894374999956
                    },
                    {
                        "name": "A4",
                        "midi": 69,
                        "time": 84.4432199999998,
                        "velocity": 0.6377952755905512,
                        "duration": 0.32869893749999335
                    },
                    {
                        "name": "A4",
                        "midi": 69,
                        "time": 84.77654849999979,
                        "velocity": 0.6377952755905512,
                        "duration": 0.32869893749999335
                    },
                    {
                        "name": "A4",
                        "midi": 69,
                        "time": 85.10987699999978,
                        "velocity": 0.6377952755905512,
                        "duration": 0.2175894374999956
                    },
                    {
                        "name": "B4",
                        "midi": 71,
                        "time": 85.33209599999978,
                        "velocity": 0.6377952755905512,
                        "duration": 0.32869893749999335
                    },
                    {
                        "name": "B4",
                        "midi": 71,
                        "time": 85.66542449999977,
                        "velocity": 0.6377952755905512,
                        "duration": 0.32869893749999335
                    },
                    {
                        "name": "B4",
                        "midi": 71,
                        "time": 85.99875299999977,
                        "velocity": 0.6377952755905512,
                        "duration": 0.2175894374999956
                    },
                    {
                        "name": "B4",
                        "midi": 71,
                        "time": 86.22097199999976,
                        "velocity": 0.6377952755905512,
                        "duration": 0.6620274375000008
                    },
                    {
                        "name": "D5",
                        "midi": 74,
                        "time": 86.88762899999976,
                        "velocity": 0.6377952755905512,
                        "duration": 0.2175894374999956
                    },
                    {
                        "name": "B4",
                        "midi": 71,
                        "time": 87.10984799999976,
                        "velocity": 0.6377952755905512,
                        "duration": 0.32869893749999335
                    },
                    {
                        "name": "B4",
                        "midi": 71,
                        "time": 87.44317649999975,
                        "velocity": 0.6377952755905512,
                        "duration": 0.32869893749999335
                    },
                    {
                        "name": "B4",
                        "midi": 71,
                        "time": 87.77650499999974,
                        "velocity": 0.6377952755905512,
                        "duration": 0.2175894374999956
                    },
                    {
                        "name": "B4",
                        "midi": 71,
                        "time": 87.99872399999974,
                        "velocity": 0.6377952755905512,
                        "duration": 0.6620274375000008
                    },
                    {
                        "name": "C5",
                        "midi": 72,
                        "time": 88.66538099999974,
                        "velocity": 0.6377952755905512,
                        "duration": 0.2175894374999956
                    },
                    {
                        "name": "B4",
                        "midi": 71,
                        "time": 88.88759999999974,
                        "velocity": 0.6377952755905512,
                        "duration": 0.32869893749999335
                    },
                    {
                        "name": "B4",
                        "midi": 71,
                        "time": 89.22092849999973,
                        "velocity": 0.6377952755905512,
                        "duration": 0.32869893749999335
                    },
                    {
                        "name": "B4",
                        "midi": 71,
                        "time": 89.55425699999972,
                        "velocity": 0.6377952755905512,
                        "duration": 0.2175894374999956
                    },
                    {
                        "name": "B4",
                        "midi": 71,
                        "time": 89.77647599999972,
                        "velocity": 0.6377952755905512,
                        "duration": 0.6620274375000008
                    },
                    {
                        "name": "B4",
                        "midi": 71,
                        "time": 90.44313299999972,
                        "velocity": 0.6377952755905512,
                        "duration": 0.2175894374999956
                    },
                    {
                        "name": "G4",
                        "midi": 67,
                        "time": 90.66535199999971,
                        "velocity": 0.6377952755905512,
                        "duration": 0.32869893749999335
                    },
                    {
                        "name": "G4",
                        "midi": 67,
                        "time": 90.99868049999971,
                        "velocity": 0.6377952755905512,
                        "duration": 0.32869893749999335
                    },
                    {
                        "name": "G4",
                        "midi": 67,
                        "time": 91.3320089999997,
                        "velocity": 0.6377952755905512,
                        "duration": 0.2175894374999956
                    },
                    {
                        "name": "A4",
                        "midi": 69,
                        "time": 91.5542279999997,
                        "velocity": 0.6377952755905512,
                        "duration": 0.32869893749999335
                    },
                    {
                        "name": "A4",
                        "midi": 69,
                        "time": 91.88755649999969,
                        "velocity": 0.6377952755905512,
                        "duration": 0.32869893749999335
                    },
                    {
                        "name": "A4",
                        "midi": 69,
                        "time": 92.22088499999968,
                        "velocity": 0.6377952755905512,
                        "duration": 0.2175894374999956
                    },
                    {
                        "name": "B4",
                        "midi": 71,
                        "time": 92.44310399999968,
                        "velocity": 0.6377952755905512,
                        "duration": 0.32869893749999335
                    },
                    {
                        "name": "B4",
                        "midi": 71,
                        "time": 92.77643249999967,
                        "velocity": 0.6377952755905512,
                        "duration": 0.32869893749999335
                    },
                    {
                        "name": "B4",
                        "midi": 71,
                        "time": 93.10976099999966,
                        "velocity": 0.6377952755905512,
                        "duration": 0.2175894374999956
                    },
                    {
                        "name": "B4",
                        "midi": 71,
                        "time": 93.33197999999966,
                        "velocity": 0.6377952755905512,
                        "duration": 0.6620274375000008
                    },
                    {
                        "name": "D5",
                        "midi": 74,
                        "time": 93.99863699999966,
                        "velocity": 0.6377952755905512,
                        "duration": 0.2175894374999956
                    },
                    {
                        "name": "B4",
                        "midi": 71,
                        "time": 94.22085599999966,
                        "velocity": 0.6377952755905512,
                        "duration": 0.32869893749999335
                    },
                    {
                        "name": "B4",
                        "midi": 71,
                        "time": 94.55418449999965,
                        "velocity": 0.6377952755905512,
                        "duration": 0.32869893749999335
                    },
                    {
                        "name": "B4",
                        "midi": 71,
                        "time": 94.88751299999964,
                        "velocity": 0.6377952755905512,
                        "duration": 0.2175894374999956
                    },
                    {
                        "name": "B4",
                        "midi": 71,
                        "time": 95.10973199999964,
                        "velocity": 0.6377952755905512,
                        "duration": 0.6620274375000008
                    },
                    {
                        "name": "C5",
                        "midi": 72,
                        "time": 95.77638899999964,
                        "velocity": 0.6377952755905512,
                        "duration": 0.2175894374999956
                    },
                    {
                        "name": "B4",
                        "midi": 71,
                        "time": 95.99860799999963,
                        "velocity": 0.6377952755905512,
                        "duration": 0.32869893749999335
                    },
                    {
                        "name": "B4",
                        "midi": 71,
                        "time": 96.33193649999963,
                        "velocity": 0.6377952755905512,
                        "duration": 0.32869893749999335
                    },
                    {
                        "name": "B4",
                        "midi": 71,
                        "time": 96.66526499999962,
                        "velocity": 0.6377952755905512,
                        "duration": 0.2175894374999956
                    },
                    {
                        "name": "B4",
                        "midi": 71,
                        "time": 96.88748399999962,
                        "velocity": 0.6377952755905512,
                        "duration": 0.6620274375000008
                    },
                    {
                        "name": "B4",
                        "midi": 71,
                        "time": 97.55414099999962,
                        "velocity": 0.6377952755905512,
                        "duration": 0.2175894374999956
                    },
                    {
                        "name": "G4",
                        "midi": 67,
                        "time": 97.77635999999961,
                        "velocity": 0.6377952755905512,
                        "duration": 0.32869893749999335
                    },
                    {
                        "name": "G4",
                        "midi": 67,
                        "time": 98.1096884999996,
                        "velocity": 0.6377952755905512,
                        "duration": 0.32869893749999335
                    },
                    {
                        "name": "G4",
                        "midi": 67,
                        "time": 98.4430169999996,
                        "velocity": 0.6377952755905512,
                        "duration": 0.2175894374999956
                    },
                    {
                        "name": "A4",
                        "midi": 69,
                        "time": 98.6652359999996,
                        "velocity": 0.6377952755905512,
                        "duration": 0.32869893749999335
                    },
                    {
                        "name": "A4",
                        "midi": 69,
                        "time": 98.99856449999959,
                        "velocity": 0.6377952755905512,
                        "duration": 0.32869893749999335
                    },
                    {
                        "name": "A4",
                        "midi": 69,
                        "time": 99.33189299999958,
                        "velocity": 0.6377952755905512,
                        "duration": 0.2175894374999956
                    },
                    {
                        "name": "B4",
                        "midi": 71,
                        "time": 99.55411199999958,
                        "velocity": 0.6377952755905512,
                        "duration": 0.32869893749999335
                    },
                    {
                        "name": "B4",
                        "midi": 71,
                        "time": 99.88744049999957,
                        "velocity": 0.6377952755905512,
                        "duration": 0.32869893749999335
                    },
                    {
                        "name": "B4",
                        "midi": 71,
                        "time": 100.22076899999956,
                        "velocity": 0.6377952755905512,
                        "duration": 0.2175894374999956
                    },
                    {
                        "name": "B4",
                        "midi": 71,
                        "time": 100.44298799999956,
                        "velocity": 0.6377952755905512,
                        "duration": 0.6620274375000008
                    },
                    {
                        "name": "D5",
                        "midi": 74,
                        "time": 101.10964499999956,
                        "velocity": 0.6377952755905512,
                        "duration": 0.2175894374999956
                    },
                    {
                        "name": "B4",
                        "midi": 71,
                        "time": 101.33186399999956,
                        "velocity": 0.6377952755905512,
                        "duration": 0.32869893749999335
                    },
                    {
                        "name": "B4",
                        "midi": 71,
                        "time": 101.66519249999955,
                        "velocity": 0.6377952755905512,
                        "duration": 0.32869893749999335
                    },
                    {
                        "name": "B4",
                        "midi": 71,
                        "time": 101.99852099999954,
                        "velocity": 0.6377952755905512,
                        "duration": 0.2175894374999956
                    },
                    {
                        "name": "B4",
                        "midi": 71,
                        "time": 102.22073999999954,
                        "velocity": 0.6377952755905512,
                        "duration": 0.6620274375000008
                    },
                    {
                        "name": "C5",
                        "midi": 72,
                        "time": 102.88739699999954,
                        "velocity": 0.6377952755905512,
                        "duration": 0.2175894374999956
                    },
                    {
                        "name": "B4",
                        "midi": 71,
                        "time": 103.10961599999953,
                        "velocity": 0.6377952755905512,
                        "duration": 0.32869893749999335
                    },
                    {
                        "name": "B4",
                        "midi": 71,
                        "time": 103.44294449999953,
                        "velocity": 0.6377952755905512,
                        "duration": 0.32869893749999335
                    },
                    {
                        "name": "B4",
                        "midi": 71,
                        "time": 103.77627299999952,
                        "velocity": 0.6377952755905512,
                        "duration": 0.2175894374999956
                    },
                    {
                        "name": "B4",
                        "midi": 71,
                        "time": 103.99849199999952,
                        "velocity": 0.6377952755905512,
                        "duration": 0.6620274375000008
                    },
                    {
                        "name": "B4",
                        "midi": 71,
                        "time": 104.66514899999952,
                        "velocity": 0.6377952755905512,
                        "duration": 0.2175894374999956
                    },
                    {
                        "name": "G4",
                        "midi": 67,
                        "time": 104.88736799999951,
                        "velocity": 0.6377952755905512,
                        "duration": 0.32869893749999335
                    },
                    {
                        "name": "G4",
                        "midi": 67,
                        "time": 105.2206964999995,
                        "velocity": 0.6377952755905512,
                        "duration": 0.32869893749999335
                    },
                    {
                        "name": "G4",
                        "midi": 67,
                        "time": 105.5540249999995,
                        "velocity": 0.6377952755905512,
                        "duration": 0.2175894374999956
                    },
                    {
                        "name": "A4",
                        "midi": 69,
                        "time": 105.7762439999995,
                        "velocity": 0.6377952755905512,
                        "duration": 0.32869893749999335
                    },
                    {
                        "name": "A4",
                        "midi": 69,
                        "time": 106.10957249999949,
                        "velocity": 0.6377952755905512,
                        "duration": 0.32869893749999335
                    },
                    {
                        "name": "A4",
                        "midi": 69,
                        "time": 106.44290099999948,
                        "velocity": 0.6377952755905512,
                        "duration": 0.2175894374999956
                    },
                    {
                        "name": "B4",
                        "midi": 71,
                        "time": 106.66511999999948,
                        "velocity": 0.6377952755905512,
                        "duration": 0.32869893749999335
                    },
                    {
                        "name": "B4",
                        "midi": 71,
                        "time": 106.99844849999947,
                        "velocity": 0.6377952755905512,
                        "duration": 0.32869893749999335
                    },
                    {
                        "name": "B4",
                        "midi": 71,
                        "time": 107.33177699999946,
                        "velocity": 0.6377952755905512,
                        "duration": 0.2175894374999956
                    },
                    {
                        "name": "B4",
                        "midi": 71,
                        "time": 107.55399599999946,
                        "velocity": 0.6377952755905512,
                        "duration": 0.6620274375000008
                    },
                    {
                        "name": "D5",
                        "midi": 74,
                        "time": 108.22065299999946,
                        "velocity": 0.6377952755905512,
                        "duration": 0.2175894374999956
                    },
                    {
                        "name": "B4",
                        "midi": 71,
                        "time": 108.44287199999945,
                        "velocity": 0.6377952755905512,
                        "duration": 0.32869893749999335
                    },
                    {
                        "name": "B4",
                        "midi": 71,
                        "time": 108.77620049999945,
                        "velocity": 0.6377952755905512,
                        "duration": 0.32869893749999335
                    },
                    {
                        "name": "B4",
                        "midi": 71,
                        "time": 109.10952899999944,
                        "velocity": 0.6377952755905512,
                        "duration": 0.2175894374999956
                    },
                    {
                        "name": "B4",
                        "midi": 71,
                        "time": 109.33174799999944,
                        "velocity": 0.6377952755905512,
                        "duration": 0.6620274375000008
                    },
                    {
                        "name": "C5",
                        "midi": 72,
                        "time": 109.99840499999944,
                        "velocity": 0.6377952755905512,
                        "duration": 0.2175894374999956
                    },
                    {
                        "name": "B4",
                        "midi": 71,
                        "time": 110.22062399999943,
                        "velocity": 0.6377952755905512,
                        "duration": 0.32869893749999335
                    },
                    {
                        "name": "B4",
                        "midi": 71,
                        "time": 110.55395249999943,
                        "velocity": 0.6377952755905512,
                        "duration": 0.32869893749999335
                    },
                    {
                        "name": "B4",
                        "midi": 71,
                        "time": 110.88728099999942,
                        "velocity": 0.6377952755905512,
                        "duration": 0.2175894374999956
                    },
                    {
                        "name": "B4",
                        "midi": 71,
                        "time": 111.10949999999941,
                        "velocity": 0.6377952755905512,
                        "duration": 0.6620274375000008
                    },
                    {
                        "name": "B4",
                        "midi": 71,
                        "time": 111.77615699999942,
                        "velocity": 0.6377952755905512,
                        "duration": 0.2175894374999956
                    },
                    {
                        "name": "G4",
                        "midi": 67,
                        "time": 111.99837599999941,
                        "velocity": 0.6377952755905512,
                        "duration": 0.32869893749999335
                    },
                    {
                        "name": "G4",
                        "midi": 67,
                        "time": 112.3317044999994,
                        "velocity": 0.6377952755905512,
                        "duration": 0.32869893749999335
                    },
                    {
                        "name": "G4",
                        "midi": 67,
                        "time": 112.6650329999994,
                        "velocity": 0.6377952755905512,
                        "duration": 0.2175894374999956
                    },
                    {
                        "name": "A4",
                        "midi": 69,
                        "time": 112.88725199999939,
                        "velocity": 0.6377952755905512,
                        "duration": 0.32869893749999335
                    },
                    {
                        "name": "A4",
                        "midi": 69,
                        "time": 113.22058049999939,
                        "velocity": 0.6377952755905512,
                        "duration": 0.32869893749999335
                    },
                    {
                        "name": "A4",
                        "midi": 69,
                        "time": 113.55390899999938,
                        "velocity": 0.6377952755905512,
                        "duration": 0.2175894374999956
                    }
                ],
                "controlChanges": {},
                "id": 6,
                "instrumentNumber": 10,
                "instrument": "music box",
                "instrumentFamily": "chromatic percussion",
                "channelNumber": 5,
                "isPercussion": false
            },
            {
                "startTime": 0,
                "duration": 0,
                "length": 0,
                "notes": [],
                "controlChanges": {},
                "id": 7,
                "instrumentNumber": 0,
                "instrument": "acoustic grand piano",
                "instrumentFamily": "piano",
                "channelNumber": 6,
                "isPercussion": false
            },
            {
                "startTime": 0,
                "duration": 0,
                "length": 0,
                "notes": [],
                "controlChanges": {
                    "7": [
                        {
                            "number": 7,
                            "time": 0,
                            "value": 0.889763779527559
                        }
                    ],
                    "64": [
                        {
                            "number": 64,
                            "time": 0,
                            "value": 1
                        }
                    ]
                },
                "id": 8,
                "instrumentNumber": 0,
                "instrument": "acoustic grand piano",
                "instrumentFamily": "piano",
                "channelNumber": 7,
                "isPercussion": false
            },
            {
                "startTime": 0,
                "duration": 0,
                "length": 0,
                "notes": [],
                "controlChanges": {},
                "id": 9,
                "instrumentNumber": 0,
                "instrument": "acoustic grand piano",
                "instrumentFamily": "piano",
                "channelNumber": 8,
                "isPercussion": false
            },
            {
                "startTime": 14.222016,
                "duration": 127.9935144374995,
                "length": 624,
                "notes": [
                    {
                        "name": "C2",
                        "midi": 36,
                        "time": 14.222016,
                        "velocity": 1,
                        "duration": 0.4398084374999982
                    },
                    {
                        "name": "G#2",
                        "midi": 44,
                        "time": 14.444234999999999,
                        "velocity": 1,
                        "duration": 0.5509179374999977
                    },
                    {
                        "name": "D#2",
                        "midi": 39,
                        "time": 14.666453999999998,
                        "velocity": 1,
                        "duration": 0.4398084374999982
                    },
                    {
                        "name": "F#2",
                        "midi": 42,
                        "time": 14.666453999999998,
                        "velocity": 1,
                        "duration": 0.21758943749999915
                    },
                    {
                        "name": "F#2",
                        "midi": 42,
                        "time": 14.888672999999997,
                        "velocity": 1,
                        "duration": 0.6620274374999973
                    },
                    {
                        "name": "G#2",
                        "midi": 44,
                        "time": 14.999782499999997,
                        "velocity": 1,
                        "duration": 0.3286989374999987
                    },
                    {
                        "name": "C2",
                        "midi": 36,
                        "time": 15.110891999999996,
                        "velocity": 1,
                        "duration": 0.21758943749999915
                    },
                    {
                        "name": "C2",
                        "midi": 36,
                        "time": 15.333110999999995,
                        "velocity": 1,
                        "duration": 0.21758943749999915
                    },
                    {
                        "name": "G#2",
                        "midi": 44,
                        "time": 15.333110999999995,
                        "velocity": 1,
                        "duration": 0.8842464374999963
                    },
                    {
                        "name": "D#2",
                        "midi": 39,
                        "time": 15.555329999999994,
                        "velocity": 1,
                        "duration": 0.4398084374999982
                    },
                    {
                        "name": "F2",
                        "midi": 41,
                        "time": 15.555329999999994,
                        "velocity": 1,
                        "duration": 1.773122437499996
                    },
                    {
                        "name": "F#2",
                        "midi": 42,
                        "time": 15.555329999999994,
                        "velocity": 1,
                        "duration": 0.21758943749999915
                    },
                    {
                        "name": "F#2",
                        "midi": 42,
                        "time": 15.777548999999993,
                        "velocity": 1,
                        "duration": 0.6620274374999973
                    },
                    {
                        "name": "C2",
                        "midi": 36,
                        "time": 15.999767999999992,
                        "velocity": 1,
                        "duration": 0.4398084374999982
                    },
                    {
                        "name": "G#2",
                        "midi": 44,
                        "time": 16.22198699999999,
                        "velocity": 1,
                        "duration": 0.5509179374999995
                    },
                    {
                        "name": "D#2",
                        "midi": 39,
                        "time": 16.44420599999999,
                        "velocity": 1,
                        "duration": 0.43980843750000176
                    },
                    {
                        "name": "F#2",
                        "midi": 42,
                        "time": 16.44420599999999,
                        "velocity": 1,
                        "duration": 0.21758943749999915
                    },
                    {
                        "name": "F#2",
                        "midi": 42,
                        "time": 16.66642499999999,
                        "velocity": 1,
                        "duration": 0.6620274375000008
                    },
                    {
                        "name": "G#2",
                        "midi": 44,
                        "time": 16.77753449999999,
                        "velocity": 1,
                        "duration": 0.32869893750000045
                    },
                    {
                        "name": "C2",
                        "midi": 36,
                        "time": 16.888643999999992,
                        "velocity": 1,
                        "duration": 0.21758943749999915
                    },
                    {
                        "name": "C2",
                        "midi": 36,
                        "time": 17.11086299999999,
                        "velocity": 1,
                        "duration": 0.21758943749999915
                    },
                    {
                        "name": "G#2",
                        "midi": 44,
                        "time": 17.11086299999999,
                        "velocity": 1,
                        "duration": 0.8842464374999963
                    },
                    {
                        "name": "D#2",
                        "midi": 39,
                        "time": 17.33308199999999,
                        "velocity": 1,
                        "duration": 0.4398084374999982
                    },
                    {
                        "name": "F2",
                        "midi": 41,
                        "time": 17.33308199999999,
                        "velocity": 1,
                        "duration": 1.773122437499996
                    },
                    {
                        "name": "F#2",
                        "midi": 42,
                        "time": 17.33308199999999,
                        "velocity": 1,
                        "duration": 0.21758943749999915
                    },
                    {
                        "name": "F#2",
                        "midi": 42,
                        "time": 17.55530099999999,
                        "velocity": 1,
                        "duration": 0.6620274374999973
                    },
                    {
                        "name": "C2",
                        "midi": 36,
                        "time": 17.77751999999999,
                        "velocity": 1,
                        "duration": 0.4398084374999982
                    },
                    {
                        "name": "G#2",
                        "midi": 44,
                        "time": 17.999738999999987,
                        "velocity": 1,
                        "duration": 0.5509179374999995
                    },
                    {
                        "name": "D#2",
                        "midi": 39,
                        "time": 18.221957999999987,
                        "velocity": 1,
                        "duration": 0.43980843750000176
                    },
                    {
                        "name": "F#2",
                        "midi": 42,
                        "time": 18.221957999999987,
                        "velocity": 1,
                        "duration": 0.21758943749999915
                    },
                    {
                        "name": "F#2",
                        "midi": 42,
                        "time": 18.444176999999986,
                        "velocity": 1,
                        "duration": 0.6620274375000008
                    },
                    {
                        "name": "G#2",
                        "midi": 44,
                        "time": 18.555286499999987,
                        "velocity": 1,
                        "duration": 0.32869893750000045
                    },
                    {
                        "name": "C2",
                        "midi": 36,
                        "time": 18.666395999999988,
                        "velocity": 1,
                        "duration": 0.21758943749999915
                    },
                    {
                        "name": "C2",
                        "midi": 36,
                        "time": 18.888614999999987,
                        "velocity": 1,
                        "duration": 0.21758943749999915
                    },
                    {
                        "name": "G#2",
                        "midi": 44,
                        "time": 18.888614999999987,
                        "velocity": 1,
                        "duration": 0.4398084374999982
                    },
                    {
                        "name": "D#2",
                        "midi": 39,
                        "time": 19.110833999999986,
                        "velocity": 1,
                        "duration": 0.4398084374999982
                    },
                    {
                        "name": "F2",
                        "midi": 41,
                        "time": 19.110833999999986,
                        "velocity": 1,
                        "duration": 1.773122437499996
                    },
                    {
                        "name": "F#2",
                        "midi": 42,
                        "time": 19.110833999999986,
                        "velocity": 1,
                        "duration": 0.8842464374999963
                    },
                    {
                        "name": "G#2",
                        "midi": 44,
                        "time": 19.333052999999985,
                        "velocity": 1,
                        "duration": 0.4398084374999982
                    },
                    {
                        "name": "C2",
                        "midi": 36,
                        "time": 19.555271999999984,
                        "velocity": 1,
                        "duration": 0.4398084374999982
                    },
                    {
                        "name": "G#2",
                        "midi": 44,
                        "time": 19.777490999999984,
                        "velocity": 1,
                        "duration": 0.5509179374999995
                    },
                    {
                        "name": "D#2",
                        "midi": 39,
                        "time": 19.999709999999983,
                        "velocity": 1,
                        "duration": 0.43980843750000176
                    },
                    {
                        "name": "F#2",
                        "midi": 42,
                        "time": 19.999709999999983,
                        "velocity": 1,
                        "duration": 0.21758943749999915
                    },
                    {
                        "name": "F#2",
                        "midi": 42,
                        "time": 20.22192899999998,
                        "velocity": 1,
                        "duration": 0.6620274375000008
                    },
                    {
                        "name": "G#2",
                        "midi": 44,
                        "time": 20.333038499999983,
                        "velocity": 1,
                        "duration": 0.32869893750000045
                    },
                    {
                        "name": "C2",
                        "midi": 36,
                        "time": 20.444147999999984,
                        "velocity": 1,
                        "duration": 0.4398084374999982
                    },
                    {
                        "name": "G#2",
                        "midi": 44,
                        "time": 20.666366999999983,
                        "velocity": 1,
                        "duration": 0.8842464374999963
                    },
                    {
                        "name": "D#2",
                        "midi": 39,
                        "time": 20.888585999999982,
                        "velocity": 1,
                        "duration": 0.21758943749999915
                    },
                    {
                        "name": "F2",
                        "midi": 41,
                        "time": 20.888585999999982,
                        "velocity": 1,
                        "duration": 1.773122437499996
                    },
                    {
                        "name": "F#2",
                        "midi": 42,
                        "time": 20.888585999999982,
                        "velocity": 1,
                        "duration": 0.21758943749999915
                    },
                    {
                        "name": "D#2",
                        "midi": 39,
                        "time": 21.11080499999998,
                        "velocity": 1,
                        "duration": 0.21758943749999915
                    },
                    {
                        "name": "F#2",
                        "midi": 42,
                        "time": 21.11080499999998,
                        "velocity": 1,
                        "duration": 0.6620274374999973
                    },
                    {
                        "name": "C2",
                        "midi": 36,
                        "time": 21.33302399999998,
                        "velocity": 1,
                        "duration": 0.4398084374999982
                    },
                    {
                        "name": "G#2",
                        "midi": 44,
                        "time": 21.55524299999998,
                        "velocity": 1,
                        "duration": 0.5509179374999995
                    },
                    {
                        "name": "D#2",
                        "midi": 39,
                        "time": 21.77746199999998,
                        "velocity": 1,
                        "duration": 0.43980843750000176
                    },
                    {
                        "name": "F#2",
                        "midi": 42,
                        "time": 21.77746199999998,
                        "velocity": 1,
                        "duration": 0.21758943749999915
                    },
                    {
                        "name": "F#2",
                        "midi": 42,
                        "time": 21.999680999999978,
                        "velocity": 1,
                        "duration": 0.6620274375000008
                    },
                    {
                        "name": "G#2",
                        "midi": 44,
                        "time": 22.11079049999998,
                        "velocity": 1,
                        "duration": 0.32869893750000045
                    },
                    {
                        "name": "C2",
                        "midi": 36,
                        "time": 22.22189999999998,
                        "velocity": 1,
                        "duration": 0.21758943749999915
                    },
                    {
                        "name": "C2",
                        "midi": 36,
                        "time": 22.44411899999998,
                        "velocity": 1,
                        "duration": 0.21758943749999915
                    },
                    {
                        "name": "G#2",
                        "midi": 44,
                        "time": 22.44411899999998,
                        "velocity": 1,
                        "duration": 0.8842464374999963
                    },
                    {
                        "name": "D#2",
                        "midi": 39,
                        "time": 22.66633799999998,
                        "velocity": 1,
                        "duration": 0.4398084374999982
                    },
                    {
                        "name": "F2",
                        "midi": 41,
                        "time": 22.66633799999998,
                        "velocity": 1,
                        "duration": 1.773122437499996
                    },
                    {
                        "name": "F#2",
                        "midi": 42,
                        "time": 22.66633799999998,
                        "velocity": 1,
                        "duration": 0.21758943749999915
                    },
                    {
                        "name": "F#2",
                        "midi": 42,
                        "time": 22.888556999999977,
                        "velocity": 1,
                        "duration": 0.6620274374999973
                    },
                    {
                        "name": "C2",
                        "midi": 36,
                        "time": 23.110775999999976,
                        "velocity": 1,
                        "duration": 0.4398084374999982
                    },
                    {
                        "name": "G#2",
                        "midi": 44,
                        "time": 23.332994999999976,
                        "velocity": 1,
                        "duration": 0.5509179374999995
                    },
                    {
                        "name": "D#2",
                        "midi": 39,
                        "time": 23.555213999999975,
                        "velocity": 1,
                        "duration": 0.43980843750000176
                    },
                    {
                        "name": "F#2",
                        "midi": 42,
                        "time": 23.555213999999975,
                        "velocity": 1,
                        "duration": 0.21758943749999915
                    },
                    {
                        "name": "F#2",
                        "midi": 42,
                        "time": 23.777432999999974,
                        "velocity": 1,
                        "duration": 0.6620274375000008
                    },
                    {
                        "name": "G#2",
                        "midi": 44,
                        "time": 23.888542499999975,
                        "velocity": 1,
                        "duration": 0.32869893750000045
                    },
                    {
                        "name": "C2",
                        "midi": 36,
                        "time": 23.999651999999976,
                        "velocity": 1,
                        "duration": 0.21758943749999915
                    },
                    {
                        "name": "C2",
                        "midi": 36,
                        "time": 24.221870999999975,
                        "velocity": 1,
                        "duration": 0.21758943749999915
                    },
                    {
                        "name": "G#2",
                        "midi": 44,
                        "time": 24.221870999999975,
                        "velocity": 1,
                        "duration": 0.8842464374999963
                    },
                    {
                        "name": "D#2",
                        "midi": 39,
                        "time": 24.444089999999974,
                        "velocity": 1,
                        "duration": 0.4398084374999982
                    },
                    {
                        "name": "F2",
                        "midi": 41,
                        "time": 24.444089999999974,
                        "velocity": 1,
                        "duration": 1.773122437499996
                    },
                    {
                        "name": "F#2",
                        "midi": 42,
                        "time": 24.444089999999974,
                        "velocity": 1,
                        "duration": 0.21758943749999915
                    },
                    {
                        "name": "F#2",
                        "midi": 42,
                        "time": 24.666308999999973,
                        "velocity": 1,
                        "duration": 0.6620274374999973
                    },
                    {
                        "name": "C2",
                        "midi": 36,
                        "time": 24.888527999999972,
                        "velocity": 1,
                        "duration": 0.4398084374999982
                    },
                    {
                        "name": "G#2",
                        "midi": 44,
                        "time": 25.11074699999997,
                        "velocity": 1,
                        "duration": 0.5509179374999995
                    },
                    {
                        "name": "D#2",
                        "midi": 39,
                        "time": 25.33296599999997,
                        "velocity": 1,
                        "duration": 0.43980843750000176
                    },
                    {
                        "name": "F#2",
                        "midi": 42,
                        "time": 25.33296599999997,
                        "velocity": 1,
                        "duration": 0.21758943749999915
                    },
                    {
                        "name": "F#2",
                        "midi": 42,
                        "time": 25.55518499999997,
                        "velocity": 1,
                        "duration": 0.6620274375000008
                    },
                    {
                        "name": "G#2",
                        "midi": 44,
                        "time": 25.66629449999997,
                        "velocity": 1,
                        "duration": 0.32869893750000045
                    },
                    {
                        "name": "C2",
                        "midi": 36,
                        "time": 25.777403999999972,
                        "velocity": 1,
                        "duration": 0.21758943749999915
                    },
                    {
                        "name": "C2",
                        "midi": 36,
                        "time": 25.99962299999997,
                        "velocity": 1,
                        "duration": 0.21758943749999915
                    },
                    {
                        "name": "G#2",
                        "midi": 44,
                        "time": 25.99962299999997,
                        "velocity": 1,
                        "duration": 0.4398084374999982
                    },
                    {
                        "name": "D#2",
                        "midi": 39,
                        "time": 26.22184199999997,
                        "velocity": 1,
                        "duration": 0.4398084374999982
                    },
                    {
                        "name": "F2",
                        "midi": 41,
                        "time": 26.22184199999997,
                        "velocity": 1,
                        "duration": 1.773122437499996
                    },
                    {
                        "name": "F#2",
                        "midi": 42,
                        "time": 26.22184199999997,
                        "velocity": 1,
                        "duration": 0.8842464374999963
                    },
                    {
                        "name": "G#2",
                        "midi": 44,
                        "time": 26.44406099999997,
                        "velocity": 1,
                        "duration": 0.4398084374999982
                    },
                    {
                        "name": "C2",
                        "midi": 36,
                        "time": 26.66627999999997,
                        "velocity": 1,
                        "duration": 0.4398084374999982
                    },
                    {
                        "name": "G#2",
                        "midi": 44,
                        "time": 26.888498999999968,
                        "velocity": 1,
                        "duration": 0.5509179374999995
                    },
                    {
                        "name": "D#2",
                        "midi": 39,
                        "time": 27.110717999999967,
                        "velocity": 1,
                        "duration": 0.43980843750000176
                    },
                    {
                        "name": "F#2",
                        "midi": 42,
                        "time": 27.110717999999967,
                        "velocity": 1,
                        "duration": 0.21758943749999915
                    },
                    {
                        "name": "F#2",
                        "midi": 42,
                        "time": 27.332936999999966,
                        "velocity": 1,
                        "duration": 0.6620274375000008
                    },
                    {
                        "name": "G#2",
                        "midi": 44,
                        "time": 27.444046499999967,
                        "velocity": 1,
                        "duration": 0.32869893750000045
                    },
                    {
                        "name": "C2",
                        "midi": 36,
                        "time": 27.55515599999997,
                        "velocity": 1,
                        "duration": 0.4398084374999982
                    },
                    {
                        "name": "G#2",
                        "midi": 44,
                        "time": 27.777374999999967,
                        "velocity": 1,
                        "duration": 0.8842464374999963
                    },
                    {
                        "name": "D#2",
                        "midi": 39,
                        "time": 27.999593999999966,
                        "velocity": 1,
                        "duration": 0.21758943749999915
                    },
                    {
                        "name": "F2",
                        "midi": 41,
                        "time": 27.999593999999966,
                        "velocity": 1,
                        "duration": 1.773122437499996
                    },
                    {
                        "name": "F#2",
                        "midi": 42,
                        "time": 27.999593999999966,
                        "velocity": 1,
                        "duration": 0.21758943749999915
                    },
                    {
                        "name": "D#2",
                        "midi": 39,
                        "time": 28.221812999999965,
                        "velocity": 1,
                        "duration": 0.21758943749999915
                    },
                    {
                        "name": "F#2",
                        "midi": 42,
                        "time": 28.221812999999965,
                        "velocity": 1,
                        "duration": 0.6620274374999973
                    },
                    {
                        "name": "C2",
                        "midi": 36,
                        "time": 28.444031999999964,
                        "velocity": 1,
                        "duration": 0.4398084374999982
                    },
                    {
                        "name": "G#2",
                        "midi": 44,
                        "time": 28.666250999999964,
                        "velocity": 1,
                        "duration": 0.5509179374999995
                    },
                    {
                        "name": "D#2",
                        "midi": 39,
                        "time": 28.888469999999963,
                        "velocity": 1,
                        "duration": 0.43980843750000176
                    },
                    {
                        "name": "F#2",
                        "midi": 42,
                        "time": 28.888469999999963,
                        "velocity": 1,
                        "duration": 0.21758943749999915
                    },
                    {
                        "name": "F#2",
                        "midi": 42,
                        "time": 29.11068899999996,
                        "velocity": 1,
                        "duration": 0.6620274375000008
                    },
                    {
                        "name": "G#2",
                        "midi": 44,
                        "time": 29.221798499999963,
                        "velocity": 1,
                        "duration": 0.32869893750000045
                    },
                    {
                        "name": "C2",
                        "midi": 36,
                        "time": 29.332907999999964,
                        "velocity": 1,
                        "duration": 0.21758943749999915
                    },
                    {
                        "name": "C2",
                        "midi": 36,
                        "time": 29.555126999999963,
                        "velocity": 1,
                        "duration": 0.21758943749999915
                    },
                    {
                        "name": "G#2",
                        "midi": 44,
                        "time": 29.555126999999963,
                        "velocity": 1,
                        "duration": 0.8842464374999963
                    },
                    {
                        "name": "D#2",
                        "midi": 39,
                        "time": 29.777345999999962,
                        "velocity": 1,
                        "duration": 0.4398084374999982
                    },
                    {
                        "name": "F2",
                        "midi": 41,
                        "time": 29.777345999999962,
                        "velocity": 1,
                        "duration": 1.773122437499996
                    },
                    {
                        "name": "F#2",
                        "midi": 42,
                        "time": 29.777345999999962,
                        "velocity": 1,
                        "duration": 0.21758943749999915
                    },
                    {
                        "name": "F#2",
                        "midi": 42,
                        "time": 29.99956499999996,
                        "velocity": 1,
                        "duration": 0.6620274374999973
                    },
                    {
                        "name": "C2",
                        "midi": 36,
                        "time": 30.22178399999996,
                        "velocity": 1,
                        "duration": 0.4398084374999982
                    },
                    {
                        "name": "G#2",
                        "midi": 44,
                        "time": 30.44400299999996,
                        "velocity": 1,
                        "duration": 0.5509179374999995
                    },
                    {
                        "name": "D#2",
                        "midi": 39,
                        "time": 30.66622199999996,
                        "velocity": 1,
                        "duration": 0.43980843750000176
                    },
                    {
                        "name": "F#2",
                        "midi": 42,
                        "time": 30.66622199999996,
                        "velocity": 1,
                        "duration": 0.21758943749999915
                    },
                    {
                        "name": "F#2",
                        "midi": 42,
                        "time": 30.888440999999958,
                        "velocity": 1,
                        "duration": 0.6620274375000008
                    },
                    {
                        "name": "G#2",
                        "midi": 44,
                        "time": 30.99955049999996,
                        "velocity": 1,
                        "duration": 0.32869893750000045
                    },
                    {
                        "name": "C2",
                        "midi": 36,
                        "time": 31.11065999999996,
                        "velocity": 1,
                        "duration": 0.21758943749999915
                    },
                    {
                        "name": "C2",
                        "midi": 36,
                        "time": 31.33287899999996,
                        "velocity": 1,
                        "duration": 0.21758943749999915
                    },
                    {
                        "name": "G#2",
                        "midi": 44,
                        "time": 31.33287899999996,
                        "velocity": 1,
                        "duration": 0.8842464374999999
                    },
                    {
                        "name": "D#2",
                        "midi": 39,
                        "time": 31.55509799999996,
                        "velocity": 1,
                        "duration": 0.4398084374999982
                    },
                    {
                        "name": "F2",
                        "midi": 41,
                        "time": 31.55509799999996,
                        "velocity": 1,
                        "duration": 1.7731224375000068
                    },
                    {
                        "name": "F#2",
                        "midi": 42,
                        "time": 31.55509799999996,
                        "velocity": 1,
                        "duration": 0.21758943749999915
                    },
                    {
                        "name": "F#2",
                        "midi": 42,
                        "time": 31.777316999999957,
                        "velocity": 1,
                        "duration": 0.6620274375000044
                    },
                    {
                        "name": "C2",
                        "midi": 36,
                        "time": 31.999535999999956,
                        "velocity": 1,
                        "duration": 0.4398084375000053
                    },
                    {
                        "name": "G#2",
                        "midi": 44,
                        "time": 32.22175499999996,
                        "velocity": 1,
                        "duration": 0.5509179375000031
                    },
                    {
                        "name": "D#2",
                        "midi": 39,
                        "time": 32.44397399999996,
                        "velocity": 1,
                        "duration": 0.4398084374999982
                    },
                    {
                        "name": "F#2",
                        "midi": 42,
                        "time": 32.44397399999996,
                        "velocity": 1,
                        "duration": 0.2175894375000027
                    },
                    {
                        "name": "F#2",
                        "midi": 42,
                        "time": 32.666192999999964,
                        "velocity": 1,
                        "duration": 0.6620274375000008
                    },
                    {
                        "name": "G#2",
                        "midi": 44,
                        "time": 32.77730249999996,
                        "velocity": 1,
                        "duration": 0.32869893750000045
                    },
                    {
                        "name": "C2",
                        "midi": 36,
                        "time": 32.88841199999996,
                        "velocity": 1,
                        "duration": 0.2175894375000027
                    },
                    {
                        "name": "C2",
                        "midi": 36,
                        "time": 33.11063099999996,
                        "velocity": 1,
                        "duration": 0.2175894375000027
                    },
                    {
                        "name": "G#2",
                        "midi": 44,
                        "time": 33.11063099999996,
                        "velocity": 1,
                        "duration": 0.4398084375000053
                    },
                    {
                        "name": "D#2",
                        "midi": 39,
                        "time": 33.332849999999965,
                        "velocity": 1,
                        "duration": 0.4398084375000053
                    },
                    {
                        "name": "F2",
                        "midi": 41,
                        "time": 33.332849999999965,
                        "velocity": 1,
                        "duration": 1.7731224375000139
                    },
                    {
                        "name": "F#2",
                        "midi": 42,
                        "time": 33.332849999999965,
                        "velocity": 1,
                        "duration": 0.8842464375000105
                    },
                    {
                        "name": "G#2",
                        "midi": 44,
                        "time": 33.55506899999997,
                        "velocity": 1,
                        "duration": 0.4398084375000053
                    },
                    {
                        "name": "C2",
                        "midi": 36,
                        "time": 33.77728799999997,
                        "velocity": 1,
                        "duration": 0.4398084375000053
                    },
                    {
                        "name": "G#2",
                        "midi": 44,
                        "time": 33.99950699999997,
                        "velocity": 1,
                        "duration": 0.5509179375000031
                    },
                    {
                        "name": "D#2",
                        "midi": 39,
                        "time": 34.221725999999975,
                        "velocity": 1,
                        "duration": 0.4398084374999982
                    },
                    {
                        "name": "F#2",
                        "midi": 42,
                        "time": 34.221725999999975,
                        "velocity": 1,
                        "duration": 0.2175894375000027
                    },
                    {
                        "name": "F#2",
                        "midi": 42,
                        "time": 34.44394499999998,
                        "velocity": 1,
                        "duration": 0.6620274375000008
                    },
                    {
                        "name": "G#2",
                        "midi": 44,
                        "time": 34.555054499999976,
                        "velocity": 1,
                        "duration": 0.32869893750000045
                    },
                    {
                        "name": "C2",
                        "midi": 36,
                        "time": 34.666163999999974,
                        "velocity": 1,
                        "duration": 0.4398084375000053
                    },
                    {
                        "name": "G#2",
                        "midi": 44,
                        "time": 34.888382999999976,
                        "velocity": 1,
                        "duration": 0.8842464375000105
                    },
                    {
                        "name": "D#2",
                        "midi": 39,
                        "time": 35.11060199999998,
                        "velocity": 1,
                        "duration": 0.2175894375000027
                    },
                    {
                        "name": "F2",
                        "midi": 41,
                        "time": 35.11060199999998,
                        "velocity": 1,
                        "duration": 1.7731224375000139
                    },
                    {
                        "name": "F#2",
                        "midi": 42,
                        "time": 35.11060199999998,
                        "velocity": 1,
                        "duration": 0.2175894375000027
                    },
                    {
                        "name": "D#2",
                        "midi": 39,
                        "time": 35.33282099999998,
                        "velocity": 1,
                        "duration": 0.2175894375000027
                    },
                    {
                        "name": "F#2",
                        "midi": 42,
                        "time": 35.33282099999998,
                        "velocity": 1,
                        "duration": 0.6620274375000079
                    },
                    {
                        "name": "C2",
                        "midi": 36,
                        "time": 35.555039999999984,
                        "velocity": 1,
                        "duration": 0.4398084375000053
                    },
                    {
                        "name": "G#2",
                        "midi": 44,
                        "time": 35.77725899999999,
                        "velocity": 1,
                        "duration": 0.5509179375000031
                    },
                    {
                        "name": "D#2",
                        "midi": 39,
                        "time": 35.99947799999999,
                        "velocity": 1,
                        "duration": 0.4398084374999982
                    },
                    {
                        "name": "F#2",
                        "midi": 42,
                        "time": 35.99947799999999,
                        "velocity": 1,
                        "duration": 0.2175894375000027
                    },
                    {
                        "name": "F#2",
                        "midi": 42,
                        "time": 36.22169699999999,
                        "velocity": 1,
                        "duration": 0.6620274375000008
                    },
                    {
                        "name": "G#2",
                        "midi": 44,
                        "time": 36.33280649999999,
                        "velocity": 1,
                        "duration": 0.32869893750000045
                    },
                    {
                        "name": "C2",
                        "midi": 36,
                        "time": 36.44391599999999,
                        "velocity": 1,
                        "duration": 0.2175894375000027
                    },
                    {
                        "name": "C2",
                        "midi": 36,
                        "time": 36.66613499999999,
                        "velocity": 1,
                        "duration": 0.2175894375000027
                    },
                    {
                        "name": "G#2",
                        "midi": 44,
                        "time": 36.66613499999999,
                        "velocity": 1,
                        "duration": 0.8842464375000105
                    },
                    {
                        "name": "D#2",
                        "midi": 39,
                        "time": 36.88835399999999,
                        "velocity": 1,
                        "duration": 0.4398084375000053
                    },
                    {
                        "name": "F2",
                        "midi": 41,
                        "time": 36.88835399999999,
                        "velocity": 1,
                        "duration": 1.7731224375000139
                    },
                    {
                        "name": "F#2",
                        "midi": 42,
                        "time": 36.88835399999999,
                        "velocity": 1,
                        "duration": 0.2175894375000027
                    },
                    {
                        "name": "F#2",
                        "midi": 42,
                        "time": 37.110572999999995,
                        "velocity": 1,
                        "duration": 0.6620274375000079
                    },
                    {
                        "name": "C2",
                        "midi": 36,
                        "time": 37.332792,
                        "velocity": 1,
                        "duration": 0.4398084375000053
                    },
                    {
                        "name": "G#2",
                        "midi": 44,
                        "time": 37.555011,
                        "velocity": 1,
                        "duration": 0.5509179375000031
                    },
                    {
                        "name": "D#2",
                        "midi": 39,
                        "time": 37.77723,
                        "velocity": 1,
                        "duration": 0.4398084374999982
                    },
                    {
                        "name": "F#2",
                        "midi": 42,
                        "time": 37.77723,
                        "velocity": 1,
                        "duration": 0.2175894375000027
                    },
                    {
                        "name": "F#2",
                        "midi": 42,
                        "time": 37.999449000000006,
                        "velocity": 1,
                        "duration": 0.6620274375000008
                    },
                    {
                        "name": "G#2",
                        "midi": 44,
                        "time": 38.1105585,
                        "velocity": 1,
                        "duration": 0.32869893750000045
                    },
                    {
                        "name": "C2",
                        "midi": 36,
                        "time": 38.221668,
                        "velocity": 1,
                        "duration": 0.2175894375000027
                    },
                    {
                        "name": "C2",
                        "midi": 36,
                        "time": 38.443887000000004,
                        "velocity": 1,
                        "duration": 0.2175894375000027
                    },
                    {
                        "name": "G#2",
                        "midi": 44,
                        "time": 38.443887000000004,
                        "velocity": 1,
                        "duration": 0.8842464375000105
                    },
                    {
                        "name": "D#2",
                        "midi": 39,
                        "time": 38.666106000000006,
                        "velocity": 1,
                        "duration": 0.4398084375000053
                    },
                    {
                        "name": "F2",
                        "midi": 41,
                        "time": 38.666106000000006,
                        "velocity": 1,
                        "duration": 1.7731224375000139
                    },
                    {
                        "name": "F#2",
                        "midi": 42,
                        "time": 38.666106000000006,
                        "velocity": 1,
                        "duration": 0.2175894375000027
                    },
                    {
                        "name": "F#2",
                        "midi": 42,
                        "time": 38.88832500000001,
                        "velocity": 1,
                        "duration": 0.6620274375000079
                    },
                    {
                        "name": "C2",
                        "midi": 36,
                        "time": 39.11054400000001,
                        "velocity": 1,
                        "duration": 0.4398084375000053
                    },
                    {
                        "name": "G#2",
                        "midi": 44,
                        "time": 39.332763000000014,
                        "velocity": 1,
                        "duration": 0.5509179375000031
                    },
                    {
                        "name": "D#2",
                        "midi": 39,
                        "time": 39.55498200000002,
                        "velocity": 1,
                        "duration": 0.4398084374999982
                    },
                    {
                        "name": "F#2",
                        "midi": 42,
                        "time": 39.55498200000002,
                        "velocity": 1,
                        "duration": 0.2175894375000027
                    },
                    {
                        "name": "F#2",
                        "midi": 42,
                        "time": 39.77720100000002,
                        "velocity": 1,
                        "duration": 0.6620274375000008
                    },
                    {
                        "name": "G#2",
                        "midi": 44,
                        "time": 39.88831050000002,
                        "velocity": 1,
                        "duration": 0.32869893750000045
                    },
                    {
                        "name": "C2",
                        "midi": 36,
                        "time": 39.999420000000015,
                        "velocity": 1,
                        "duration": 0.2175894375000027
                    },
                    {
                        "name": "C2",
                        "midi": 36,
                        "time": 40.22163900000002,
                        "velocity": 1,
                        "duration": 0.2175894375000027
                    },
                    {
                        "name": "G#2",
                        "midi": 44,
                        "time": 40.22163900000002,
                        "velocity": 1,
                        "duration": 0.4398084375000053
                    },
                    {
                        "name": "D#2",
                        "midi": 39,
                        "time": 40.44385800000002,
                        "velocity": 1,
                        "duration": 0.4398084375000053
                    },
                    {
                        "name": "F2",
                        "midi": 41,
                        "time": 40.44385800000002,
                        "velocity": 1,
                        "duration": 1.7731224375000139
                    },
                    {
                        "name": "F#2",
                        "midi": 42,
                        "time": 40.44385800000002,
                        "velocity": 1,
                        "duration": 0.8842464375000105
                    },
                    {
                        "name": "G#2",
                        "midi": 44,
                        "time": 40.66607700000002,
                        "velocity": 1,
                        "duration": 0.4398084375000053
                    },
                    {
                        "name": "C2",
                        "midi": 36,
                        "time": 40.888296000000025,
                        "velocity": 1,
                        "duration": 0.4398084375000053
                    },
                    {
                        "name": "G#2",
                        "midi": 44,
                        "time": 41.11051500000003,
                        "velocity": 1,
                        "duration": 0.5509179375000031
                    },
                    {
                        "name": "D#2",
                        "midi": 39,
                        "time": 41.33273400000003,
                        "velocity": 1,
                        "duration": 0.4398084374999982
                    },
                    {
                        "name": "F#2",
                        "midi": 42,
                        "time": 41.33273400000003,
                        "velocity": 1,
                        "duration": 0.2175894375000027
                    },
                    {
                        "name": "F#2",
                        "midi": 42,
                        "time": 41.55495300000003,
                        "velocity": 1,
                        "duration": 0.6620274375000008
                    },
                    {
                        "name": "G#2",
                        "midi": 44,
                        "time": 41.66606250000003,
                        "velocity": 1,
                        "duration": 0.32869893750000045
                    },
                    {
                        "name": "C2",
                        "midi": 36,
                        "time": 41.77717200000003,
                        "velocity": 1,
                        "duration": 0.4398084375000053
                    },
                    {
                        "name": "G#2",
                        "midi": 44,
                        "time": 41.99939100000003,
                        "velocity": 1,
                        "duration": 0.8842464375000105
                    },
                    {
                        "name": "D#2",
                        "midi": 39,
                        "time": 42.221610000000034,
                        "velocity": 1,
                        "duration": 0.2175894375000027
                    },
                    {
                        "name": "F2",
                        "midi": 41,
                        "time": 42.221610000000034,
                        "velocity": 1,
                        "duration": 1.7731224375000139
                    },
                    {
                        "name": "F#2",
                        "midi": 42,
                        "time": 42.221610000000034,
                        "velocity": 1,
                        "duration": 0.2175894375000027
                    },
                    {
                        "name": "D#2",
                        "midi": 39,
                        "time": 42.443829000000036,
                        "velocity": 1,
                        "duration": 0.2175894375000027
                    },
                    {
                        "name": "F#2",
                        "midi": 42,
                        "time": 42.443829000000036,
                        "velocity": 1,
                        "duration": 0.6620274375000079
                    },
                    {
                        "name": "C2",
                        "midi": 36,
                        "time": 42.66604800000004,
                        "velocity": 1,
                        "duration": 0.4398084375000053
                    },
                    {
                        "name": "G#2",
                        "midi": 44,
                        "time": 42.88826700000004,
                        "velocity": 1,
                        "duration": 0.5509179375000031
                    },
                    {
                        "name": "D#2",
                        "midi": 39,
                        "time": 43.110486000000044,
                        "velocity": 1,
                        "duration": 0.4398084374999982
                    },
                    {
                        "name": "F#2",
                        "midi": 42,
                        "time": 43.110486000000044,
                        "velocity": 1,
                        "duration": 0.2175894375000027
                    },
                    {
                        "name": "F#2",
                        "midi": 42,
                        "time": 43.33270500000005,
                        "velocity": 1,
                        "duration": 0.6620274375000008
                    },
                    {
                        "name": "G#2",
                        "midi": 44,
                        "time": 43.443814500000045,
                        "velocity": 1,
                        "duration": 0.32869893750000045
                    },
                    {
                        "name": "C2",
                        "midi": 36,
                        "time": 43.55492400000004,
                        "velocity": 1,
                        "duration": 0.2175894375000027
                    },
                    {
                        "name": "C2",
                        "midi": 36,
                        "time": 43.777143000000045,
                        "velocity": 1,
                        "duration": 0.2175894375000027
                    },
                    {
                        "name": "G#2",
                        "midi": 44,
                        "time": 43.777143000000045,
                        "velocity": 1,
                        "duration": 0.8842464375000105
                    },
                    {
                        "name": "D#2",
                        "midi": 39,
                        "time": 43.99936200000005,
                        "velocity": 1,
                        "duration": 0.4398084375000053
                    },
                    {
                        "name": "F2",
                        "midi": 41,
                        "time": 43.99936200000005,
                        "velocity": 1,
                        "duration": 1.7731224375000139
                    },
                    {
                        "name": "F#2",
                        "midi": 42,
                        "time": 43.99936200000005,
                        "velocity": 1,
                        "duration": 0.2175894375000027
                    },
                    {
                        "name": "F#2",
                        "midi": 42,
                        "time": 44.22158100000005,
                        "velocity": 1,
                        "duration": 0.6620274375000079
                    },
                    {
                        "name": "C2",
                        "midi": 36,
                        "time": 44.44380000000005,
                        "velocity": 1,
                        "duration": 0.4398084375000053
                    },
                    {
                        "name": "G#2",
                        "midi": 44,
                        "time": 44.666019000000055,
                        "velocity": 1,
                        "duration": 0.5509179375000031
                    },
                    {
                        "name": "D#2",
                        "midi": 39,
                        "time": 44.88823800000006,
                        "velocity": 1,
                        "duration": 0.4398084374999982
                    },
                    {
                        "name": "F#2",
                        "midi": 42,
                        "time": 44.88823800000006,
                        "velocity": 1,
                        "duration": 0.2175894375000027
                    },
                    {
                        "name": "F#2",
                        "midi": 42,
                        "time": 45.11045700000006,
                        "velocity": 1,
                        "duration": 0.6620274375000008
                    },
                    {
                        "name": "G#2",
                        "midi": 44,
                        "time": 45.22156650000006,
                        "velocity": 1,
                        "duration": 0.32869893750000045
                    },
                    {
                        "name": "C2",
                        "midi": 36,
                        "time": 45.332676000000056,
                        "velocity": 1,
                        "duration": 0.2175894375000027
                    },
                    {
                        "name": "C2",
                        "midi": 36,
                        "time": 45.55489500000006,
                        "velocity": 1,
                        "duration": 0.2175894375000027
                    },
                    {
                        "name": "G#2",
                        "midi": 44,
                        "time": 45.55489500000006,
                        "velocity": 1,
                        "duration": 0.8842464375000105
                    },
                    {
                        "name": "D#2",
                        "midi": 39,
                        "time": 45.77711400000006,
                        "velocity": 1,
                        "duration": 0.4398084375000053
                    },
                    {
                        "name": "F2",
                        "midi": 41,
                        "time": 45.77711400000006,
                        "velocity": 1,
                        "duration": 1.7731224375000139
                    },
                    {
                        "name": "F#2",
                        "midi": 42,
                        "time": 45.77711400000006,
                        "velocity": 1,
                        "duration": 0.2175894375000027
                    },
                    {
                        "name": "F#2",
                        "midi": 42,
                        "time": 45.999333000000064,
                        "velocity": 1,
                        "duration": 0.6620274375000079
                    },
                    {
                        "name": "C2",
                        "midi": 36,
                        "time": 46.22155200000007,
                        "velocity": 1,
                        "duration": 0.4398084375000053
                    },
                    {
                        "name": "G#2",
                        "midi": 44,
                        "time": 46.44377100000007,
                        "velocity": 1,
                        "duration": 0.5509179375000031
                    },
                    {
                        "name": "D#2",
                        "midi": 39,
                        "time": 46.66599000000007,
                        "velocity": 1,
                        "duration": 0.4398084374999982
                    },
                    {
                        "name": "F#2",
                        "midi": 42,
                        "time": 46.66599000000007,
                        "velocity": 1,
                        "duration": 0.2175894375000027
                    },
                    {
                        "name": "F#2",
                        "midi": 42,
                        "time": 46.888209000000074,
                        "velocity": 1,
                        "duration": 0.6620274375000008
                    },
                    {
                        "name": "G#2",
                        "midi": 44,
                        "time": 46.99931850000007,
                        "velocity": 1,
                        "duration": 0.32869893750000045
                    },
                    {
                        "name": "C2",
                        "midi": 36,
                        "time": 47.11042800000007,
                        "velocity": 1,
                        "duration": 0.2175894375000027
                    },
                    {
                        "name": "C2",
                        "midi": 36,
                        "time": 47.33264700000007,
                        "velocity": 1,
                        "duration": 0.2175894375000027
                    },
                    {
                        "name": "G#2",
                        "midi": 44,
                        "time": 47.33264700000007,
                        "velocity": 1,
                        "duration": 0.4398084375000053
                    },
                    {
                        "name": "D#2",
                        "midi": 39,
                        "time": 47.554866000000075,
                        "velocity": 1,
                        "duration": 0.4398084375000053
                    },
                    {
                        "name": "F2",
                        "midi": 41,
                        "time": 47.554866000000075,
                        "velocity": 1,
                        "duration": 1.7731224375000139
                    },
                    {
                        "name": "F#2",
                        "midi": 42,
                        "time": 47.554866000000075,
                        "velocity": 1,
                        "duration": 0.8842464375000105
                    },
                    {
                        "name": "G#2",
                        "midi": 44,
                        "time": 47.77708500000008,
                        "velocity": 1,
                        "duration": 0.4398084375000053
                    },
                    {
                        "name": "C2",
                        "midi": 36,
                        "time": 47.99930400000008,
                        "velocity": 1,
                        "duration": 0.4398084375000053
                    },
                    {
                        "name": "G#2",
                        "midi": 44,
                        "time": 48.22152300000008,
                        "velocity": 1,
                        "duration": 0.5509179375000031
                    },
                    {
                        "name": "D#2",
                        "midi": 39,
                        "time": 48.443742000000086,
                        "velocity": 1,
                        "duration": 0.4398084374999982
                    },
                    {
                        "name": "F#2",
                        "midi": 42,
                        "time": 48.443742000000086,
                        "velocity": 1,
                        "duration": 0.2175894375000027
                    },
                    {
                        "name": "F#2",
                        "midi": 42,
                        "time": 48.66596100000009,
                        "velocity": 1,
                        "duration": 0.6620274375000008
                    },
                    {
                        "name": "G#2",
                        "midi": 44,
                        "time": 48.777070500000086,
                        "velocity": 1,
                        "duration": 0.32869893750000045
                    },
                    {
                        "name": "C2",
                        "midi": 36,
                        "time": 48.888180000000084,
                        "velocity": 1,
                        "duration": 0.4398084375000053
                    },
                    {
                        "name": "G#2",
                        "midi": 44,
                        "time": 49.110399000000086,
                        "velocity": 1,
                        "duration": 0.8842464375000105
                    },
                    {
                        "name": "D#2",
                        "midi": 39,
                        "time": 49.33261800000009,
                        "velocity": 1,
                        "duration": 0.2175894375000027
                    },
                    {
                        "name": "F2",
                        "midi": 41,
                        "time": 49.33261800000009,
                        "velocity": 1,
                        "duration": 1.7731224375000139
                    },
                    {
                        "name": "F#2",
                        "midi": 42,
                        "time": 49.33261800000009,
                        "velocity": 1,
                        "duration": 0.2175894375000027
                    },
                    {
                        "name": "D#2",
                        "midi": 39,
                        "time": 49.55483700000009,
                        "velocity": 1,
                        "duration": 0.2175894375000027
                    },
                    {
                        "name": "F#2",
                        "midi": 42,
                        "time": 49.55483700000009,
                        "velocity": 1,
                        "duration": 0.6620274375000079
                    },
                    {
                        "name": "C2",
                        "midi": 36,
                        "time": 49.777056000000094,
                        "velocity": 1,
                        "duration": 0.4398084375000053
                    },
                    {
                        "name": "G#2",
                        "midi": 44,
                        "time": 49.9992750000001,
                        "velocity": 1,
                        "duration": 0.5509179375000031
                    },
                    {
                        "name": "D#2",
                        "midi": 39,
                        "time": 50.2214940000001,
                        "velocity": 1,
                        "duration": 0.4398084374999982
                    },
                    {
                        "name": "F#2",
                        "midi": 42,
                        "time": 50.2214940000001,
                        "velocity": 1,
                        "duration": 0.2175894375000027
                    },
                    {
                        "name": "F#2",
                        "midi": 42,
                        "time": 50.4437130000001,
                        "velocity": 1,
                        "duration": 0.6620274375000008
                    },
                    {
                        "name": "G#2",
                        "midi": 44,
                        "time": 50.5548225000001,
                        "velocity": 1,
                        "duration": 0.32869893750000045
                    },
                    {
                        "name": "C2",
                        "midi": 36,
                        "time": 50.6659320000001,
                        "velocity": 1,
                        "duration": 0.2175894375000027
                    },
                    {
                        "name": "C2",
                        "midi": 36,
                        "time": 50.8881510000001,
                        "velocity": 1,
                        "duration": 0.2175894375000027
                    },
                    {
                        "name": "G#2",
                        "midi": 44,
                        "time": 50.8881510000001,
                        "velocity": 1,
                        "duration": 0.8842464375000105
                    },
                    {
                        "name": "D#2",
                        "midi": 39,
                        "time": 51.1103700000001,
                        "velocity": 1,
                        "duration": 0.4398084375000053
                    },
                    {
                        "name": "F2",
                        "midi": 41,
                        "time": 51.1103700000001,
                        "velocity": 1,
                        "duration": 1.7731224375000139
                    },
                    {
                        "name": "F#2",
                        "midi": 42,
                        "time": 51.1103700000001,
                        "velocity": 1,
                        "duration": 0.2175894375000027
                    },
                    {
                        "name": "F#2",
                        "midi": 42,
                        "time": 51.332589000000105,
                        "velocity": 1,
                        "duration": 0.6620274375000079
                    },
                    {
                        "name": "C2",
                        "midi": 36,
                        "time": 51.55480800000011,
                        "velocity": 1,
                        "duration": 0.4398084375000053
                    },
                    {
                        "name": "G#2",
                        "midi": 44,
                        "time": 51.77702700000011,
                        "velocity": 1,
                        "duration": 0.5509179375000031
                    },
                    {
                        "name": "D#2",
                        "midi": 39,
                        "time": 51.99924600000011,
                        "velocity": 1,
                        "duration": 0.4398084374999982
                    },
                    {
                        "name": "F#2",
                        "midi": 42,
                        "time": 51.99924600000011,
                        "velocity": 1,
                        "duration": 0.2175894375000027
                    },
                    {
                        "name": "F#2",
                        "midi": 42,
                        "time": 52.221465000000116,
                        "velocity": 1,
                        "duration": 0.6620274375000008
                    },
                    {
                        "name": "G#2",
                        "midi": 44,
                        "time": 52.33257450000011,
                        "velocity": 1,
                        "duration": 0.32869893750000045
                    },
                    {
                        "name": "C2",
                        "midi": 36,
                        "time": 52.44368400000011,
                        "velocity": 1,
                        "duration": 0.2175894375000027
                    },
                    {
                        "name": "C2",
                        "midi": 36,
                        "time": 52.665903000000114,
                        "velocity": 1,
                        "duration": 0.2175894375000027
                    },
                    {
                        "name": "G#2",
                        "midi": 44,
                        "time": 52.665903000000114,
                        "velocity": 1,
                        "duration": 0.8842464375000105
                    },
                    {
                        "name": "D#2",
                        "midi": 39,
                        "time": 52.888122000000116,
                        "velocity": 1,
                        "duration": 0.4398084375000053
                    },
                    {
                        "name": "F2",
                        "midi": 41,
                        "time": 52.888122000000116,
                        "velocity": 1,
                        "duration": 1.7731224375000139
                    },
                    {
                        "name": "F#2",
                        "midi": 42,
                        "time": 52.888122000000116,
                        "velocity": 1,
                        "duration": 0.2175894375000027
                    },
                    {
                        "name": "F#2",
                        "midi": 42,
                        "time": 53.11034100000012,
                        "velocity": 1,
                        "duration": 0.6620274375000079
                    },
                    {
                        "name": "C2",
                        "midi": 36,
                        "time": 53.33256000000012,
                        "velocity": 1,
                        "duration": 0.4398084375000053
                    },
                    {
                        "name": "G#2",
                        "midi": 44,
                        "time": 53.554779000000124,
                        "velocity": 1,
                        "duration": 0.5509179375000031
                    },
                    {
                        "name": "D#2",
                        "midi": 39,
                        "time": 53.77699800000013,
                        "velocity": 1,
                        "duration": 0.4398084374999982
                    },
                    {
                        "name": "F#2",
                        "midi": 42,
                        "time": 53.77699800000013,
                        "velocity": 1,
                        "duration": 0.2175894375000027
                    },
                    {
                        "name": "F#2",
                        "midi": 42,
                        "time": 53.99921700000013,
                        "velocity": 1,
                        "duration": 0.6620274375000008
                    },
                    {
                        "name": "G#2",
                        "midi": 44,
                        "time": 54.11032650000013,
                        "velocity": 1,
                        "duration": 0.32869893750000045
                    },
                    {
                        "name": "C2",
                        "midi": 36,
                        "time": 54.221436000000125,
                        "velocity": 1,
                        "duration": 0.2175894375000027
                    },
                    {
                        "name": "C2",
                        "midi": 36,
                        "time": 54.44365500000013,
                        "velocity": 1,
                        "duration": 0.2175894375000027
                    },
                    {
                        "name": "G#2",
                        "midi": 44,
                        "time": 54.44365500000013,
                        "velocity": 1,
                        "duration": 0.4398084375000053
                    },
                    {
                        "name": "D#2",
                        "midi": 39,
                        "time": 54.66587400000013,
                        "velocity": 1,
                        "duration": 0.4398084375000053
                    },
                    {
                        "name": "F2",
                        "midi": 41,
                        "time": 54.66587400000013,
                        "velocity": 1,
                        "duration": 1.7731224375000139
                    },
                    {
                        "name": "F#2",
                        "midi": 42,
                        "time": 54.66587400000013,
                        "velocity": 1,
                        "duration": 0.8842464375000105
                    },
                    {
                        "name": "G#2",
                        "midi": 44,
                        "time": 54.88809300000013,
                        "velocity": 1,
                        "duration": 0.4398084375000053
                    },
                    {
                        "name": "C2",
                        "midi": 36,
                        "time": 55.110312000000135,
                        "velocity": 1,
                        "duration": 0.4398084375000053
                    },
                    {
                        "name": "G#2",
                        "midi": 44,
                        "time": 55.33253100000014,
                        "velocity": 1,
                        "duration": 0.5509179375000031
                    },
                    {
                        "name": "D#2",
                        "midi": 39,
                        "time": 55.55475000000014,
                        "velocity": 1,
                        "duration": 0.4398084374999982
                    },
                    {
                        "name": "F#2",
                        "midi": 42,
                        "time": 55.55475000000014,
                        "velocity": 1,
                        "duration": 0.2175894375000027
                    },
                    {
                        "name": "F#2",
                        "midi": 42,
                        "time": 55.77696900000014,
                        "velocity": 1,
                        "duration": 0.6620274375000008
                    },
                    {
                        "name": "G#2",
                        "midi": 44,
                        "time": 55.88807850000014,
                        "velocity": 1,
                        "duration": 0.32869893750000045
                    },
                    {
                        "name": "C2",
                        "midi": 36,
                        "time": 55.99918800000014,
                        "velocity": 1,
                        "duration": 0.4398084375000053
                    },
                    {
                        "name": "G#2",
                        "midi": 44,
                        "time": 56.22140700000014,
                        "velocity": 1,
                        "duration": 0.8842464375000105
                    },
                    {
                        "name": "D#2",
                        "midi": 39,
                        "time": 56.443626000000144,
                        "velocity": 1,
                        "duration": 0.2175894375000027
                    },
                    {
                        "name": "F2",
                        "midi": 41,
                        "time": 56.443626000000144,
                        "velocity": 1,
                        "duration": 1.7731224375000139
                    },
                    {
                        "name": "F#2",
                        "midi": 42,
                        "time": 56.443626000000144,
                        "velocity": 1,
                        "duration": 0.2175894375000027
                    },
                    {
                        "name": "D#2",
                        "midi": 39,
                        "time": 56.66584500000015,
                        "velocity": 1,
                        "duration": 0.2175894375000027
                    },
                    {
                        "name": "F#2",
                        "midi": 42,
                        "time": 56.66584500000015,
                        "velocity": 1,
                        "duration": 0.6620274375000079
                    },
                    {
                        "name": "C2",
                        "midi": 36,
                        "time": 56.88806400000015,
                        "velocity": 1,
                        "duration": 0.4398084375000053
                    },
                    {
                        "name": "G#2",
                        "midi": 44,
                        "time": 57.11028300000015,
                        "velocity": 1,
                        "duration": 0.5509179375000031
                    },
                    {
                        "name": "D#2",
                        "midi": 39,
                        "time": 57.332502000000154,
                        "velocity": 1,
                        "duration": 0.4398084374999982
                    },
                    {
                        "name": "F#2",
                        "midi": 42,
                        "time": 57.332502000000154,
                        "velocity": 1,
                        "duration": 0.2175894375000027
                    },
                    {
                        "name": "F#2",
                        "midi": 42,
                        "time": 57.55472100000016,
                        "velocity": 1,
                        "duration": 0.6620274375000008
                    },
                    {
                        "name": "G#2",
                        "midi": 44,
                        "time": 57.665830500000155,
                        "velocity": 1,
                        "duration": 0.32869893750000045
                    },
                    {
                        "name": "C2",
                        "midi": 36,
                        "time": 57.77694000000015,
                        "velocity": 1,
                        "duration": 0.2175894375000027
                    },
                    {
                        "name": "C2",
                        "midi": 36,
                        "time": 57.999159000000155,
                        "velocity": 1,
                        "duration": 0.2175894375000027
                    },
                    {
                        "name": "G#2",
                        "midi": 44,
                        "time": 57.999159000000155,
                        "velocity": 1,
                        "duration": 0.8842464375000105
                    },
                    {
                        "name": "D#2",
                        "midi": 39,
                        "time": 58.22137800000016,
                        "velocity": 1,
                        "duration": 0.4398084375000053
                    },
                    {
                        "name": "F2",
                        "midi": 41,
                        "time": 58.22137800000016,
                        "velocity": 1,
                        "duration": 1.7731224375000139
                    },
                    {
                        "name": "F#2",
                        "midi": 42,
                        "time": 58.22137800000016,
                        "velocity": 1,
                        "duration": 0.2175894375000027
                    },
                    {
                        "name": "F#2",
                        "midi": 42,
                        "time": 58.44359700000016,
                        "velocity": 1,
                        "duration": 0.6620274375000079
                    },
                    {
                        "name": "C2",
                        "midi": 36,
                        "time": 58.66581600000016,
                        "velocity": 1,
                        "duration": 0.4398084375000053
                    },
                    {
                        "name": "G#2",
                        "midi": 44,
                        "time": 58.888035000000166,
                        "velocity": 1,
                        "duration": 0.5509179375000031
                    },
                    {
                        "name": "D#2",
                        "midi": 39,
                        "time": 59.11025400000017,
                        "velocity": 1,
                        "duration": 0.4398084374999982
                    },
                    {
                        "name": "F#2",
                        "midi": 42,
                        "time": 59.11025400000017,
                        "velocity": 1,
                        "duration": 0.2175894375000027
                    },
                    {
                        "name": "F#2",
                        "midi": 42,
                        "time": 59.33247300000017,
                        "velocity": 1,
                        "duration": 0.6620274375000008
                    },
                    {
                        "name": "G#2",
                        "midi": 44,
                        "time": 59.44358250000017,
                        "velocity": 1,
                        "duration": 0.32869893750000045
                    },
                    {
                        "name": "C2",
                        "midi": 36,
                        "time": 59.554692000000166,
                        "velocity": 1,
                        "duration": 0.2175894375000027
                    },
                    {
                        "name": "C2",
                        "midi": 36,
                        "time": 59.77691100000017,
                        "velocity": 1,
                        "duration": 0.2175894375000027
                    },
                    {
                        "name": "G#2",
                        "midi": 44,
                        "time": 59.77691100000017,
                        "velocity": 1,
                        "duration": 0.8842464375000105
                    },
                    {
                        "name": "D#2",
                        "midi": 39,
                        "time": 59.99913000000017,
                        "velocity": 1,
                        "duration": 0.4398084375000053
                    },
                    {
                        "name": "F2",
                        "midi": 41,
                        "time": 59.99913000000017,
                        "velocity": 1,
                        "duration": 1.7731224375000139
                    },
                    {
                        "name": "F#2",
                        "midi": 42,
                        "time": 59.99913000000017,
                        "velocity": 1,
                        "duration": 0.2175894375000027
                    },
                    {
                        "name": "F#2",
                        "midi": 42,
                        "time": 60.221349000000174,
                        "velocity": 1,
                        "duration": 0.6620274375000079
                    },
                    {
                        "name": "C2",
                        "midi": 36,
                        "time": 60.44356800000018,
                        "velocity": 1,
                        "duration": 0.4398084375000053
                    },
                    {
                        "name": "G#2",
                        "midi": 44,
                        "time": 60.66578700000018,
                        "velocity": 1,
                        "duration": 0.5509179375000031
                    },
                    {
                        "name": "D#2",
                        "midi": 39,
                        "time": 60.88800600000018,
                        "velocity": 1,
                        "duration": 0.4398084374999982
                    },
                    {
                        "name": "F#2",
                        "midi": 42,
                        "time": 60.88800600000018,
                        "velocity": 1,
                        "duration": 0.2175894375000027
                    },
                    {
                        "name": "F#2",
                        "midi": 42,
                        "time": 61.110225000000185,
                        "velocity": 1,
                        "duration": 0.6620274375000008
                    },
                    {
                        "name": "G#2",
                        "midi": 44,
                        "time": 61.22133450000018,
                        "velocity": 1,
                        "duration": 0.32869893750000045
                    },
                    {
                        "name": "C2",
                        "midi": 36,
                        "time": 61.33244400000018,
                        "velocity": 1,
                        "duration": 0.2175894375000027
                    },
                    {
                        "name": "C2",
                        "midi": 36,
                        "time": 61.55466300000018,
                        "velocity": 1,
                        "duration": 0.2175894375000027
                    },
                    {
                        "name": "G#2",
                        "midi": 44,
                        "time": 61.55466300000018,
                        "velocity": 1,
                        "duration": 0.4398084375000053
                    },
                    {
                        "name": "D#2",
                        "midi": 39,
                        "time": 61.776882000000185,
                        "velocity": 1,
                        "duration": 0.4398084375000053
                    },
                    {
                        "name": "F2",
                        "midi": 41,
                        "time": 61.776882000000185,
                        "velocity": 1,
                        "duration": 1.7731224375000139
                    },
                    {
                        "name": "F#2",
                        "midi": 42,
                        "time": 61.776882000000185,
                        "velocity": 1,
                        "duration": 0.8842464375000105
                    },
                    {
                        "name": "G#2",
                        "midi": 44,
                        "time": 61.99910100000019,
                        "velocity": 1,
                        "duration": 0.4398084375000053
                    },
                    {
                        "name": "C2",
                        "midi": 36,
                        "time": 62.22132000000019,
                        "velocity": 1,
                        "duration": 0.4398084375000053
                    },
                    {
                        "name": "G#2",
                        "midi": 44,
                        "time": 62.44353900000019,
                        "velocity": 1,
                        "duration": 0.5509179375000031
                    },
                    {
                        "name": "D#2",
                        "midi": 39,
                        "time": 62.665758000000196,
                        "velocity": 1,
                        "duration": 0.4398084374999982
                    },
                    {
                        "name": "F#2",
                        "midi": 42,
                        "time": 62.665758000000196,
                        "velocity": 1,
                        "duration": 0.2175894375000027
                    },
                    {
                        "name": "F#2",
                        "midi": 42,
                        "time": 62.8879770000002,
                        "velocity": 1,
                        "duration": 0.6620274375000008
                    },
                    {
                        "name": "G#2",
                        "midi": 44,
                        "time": 62.999086500000196,
                        "velocity": 1,
                        "duration": 0.32869893750000045
                    },
                    {
                        "name": "C2",
                        "midi": 36,
                        "time": 63.110196000000194,
                        "velocity": 1,
                        "duration": 0.4398084375000053
                    },
                    {
                        "name": "G#2",
                        "midi": 44,
                        "time": 63.332415000000196,
                        "velocity": 1,
                        "duration": 0.8842464375000105
                    },
                    {
                        "name": "D#2",
                        "midi": 39,
                        "time": 63.5546340000002,
                        "velocity": 1,
                        "duration": 0.2175894375000027
                    },
                    {
                        "name": "F2",
                        "midi": 41,
                        "time": 63.5546340000002,
                        "velocity": 1,
                        "duration": 1.7731224374999854
                    },
                    {
                        "name": "F#2",
                        "midi": 42,
                        "time": 63.5546340000002,
                        "velocity": 1,
                        "duration": 0.2175894375000027
                    },
                    {
                        "name": "D#2",
                        "midi": 39,
                        "time": 63.7768530000002,
                        "velocity": 1,
                        "duration": 0.2175894375000027
                    },
                    {
                        "name": "F#2",
                        "midi": 42,
                        "time": 63.7768530000002,
                        "velocity": 1,
                        "duration": 0.6620274375000008
                    },
                    {
                        "name": "C2",
                        "midi": 36,
                        "time": 63.999072000000204,
                        "velocity": 1,
                        "duration": 0.4398084374999982
                    },
                    {
                        "name": "G#2",
                        "midi": 44,
                        "time": 64.2212910000002,
                        "velocity": 1,
                        "duration": 0.5509179374999889
                    },
                    {
                        "name": "D#2",
                        "midi": 39,
                        "time": 64.4435100000002,
                        "velocity": 1,
                        "duration": 0.4398084374999911
                    },
                    {
                        "name": "F#2",
                        "midi": 42,
                        "time": 64.4435100000002,
                        "velocity": 1,
                        "duration": 0.2175894374999956
                    },
                    {
                        "name": "F#2",
                        "midi": 42,
                        "time": 64.6657290000002,
                        "velocity": 1,
                        "duration": 0.6620274374999866
                    },
                    {
                        "name": "G#2",
                        "midi": 44,
                        "time": 64.7768385000002,
                        "velocity": 1,
                        "duration": 0.32869893749999335
                    },
                    {
                        "name": "C2",
                        "midi": 36,
                        "time": 64.8879480000002,
                        "velocity": 1,
                        "duration": 0.2175894374999956
                    },
                    {
                        "name": "C2",
                        "midi": 36,
                        "time": 65.11016700000019,
                        "velocity": 1,
                        "duration": 0.2175894374999956
                    },
                    {
                        "name": "G#2",
                        "midi": 44,
                        "time": 65.11016700000019,
                        "velocity": 1,
                        "duration": 0.8842464374999821
                    },
                    {
                        "name": "D#2",
                        "midi": 39,
                        "time": 65.33238600000018,
                        "velocity": 1,
                        "duration": 0.4398084374999911
                    },
                    {
                        "name": "F2",
                        "midi": 41,
                        "time": 65.33238600000018,
                        "velocity": 1,
                        "duration": 1.7731224374999641
                    },
                    {
                        "name": "F#2",
                        "midi": 42,
                        "time": 65.33238600000018,
                        "velocity": 1,
                        "duration": 0.2175894374999956
                    },
                    {
                        "name": "F#2",
                        "midi": 42,
                        "time": 65.55460500000018,
                        "velocity": 1,
                        "duration": 0.6620274374999866
                    },
                    {
                        "name": "C2",
                        "midi": 36,
                        "time": 65.77682400000018,
                        "velocity": 1,
                        "duration": 0.4398084374999911
                    },
                    {
                        "name": "G#2",
                        "midi": 44,
                        "time": 65.99904300000017,
                        "velocity": 1,
                        "duration": 0.5509179374999889
                    },
                    {
                        "name": "D#2",
                        "midi": 39,
                        "time": 66.22126200000017,
                        "velocity": 1,
                        "duration": 0.4398084374999911
                    },
                    {
                        "name": "F#2",
                        "midi": 42,
                        "time": 66.22126200000017,
                        "velocity": 1,
                        "duration": 0.2175894374999956
                    },
                    {
                        "name": "F#2",
                        "midi": 42,
                        "time": 66.44348100000016,
                        "velocity": 1,
                        "duration": 0.6620274374999866
                    },
                    {
                        "name": "G#2",
                        "midi": 44,
                        "time": 66.55459050000016,
                        "velocity": 1,
                        "duration": 0.32869893749999335
                    },
                    {
                        "name": "C2",
                        "midi": 36,
                        "time": 66.66570000000016,
                        "velocity": 1,
                        "duration": 0.2175894374999956
                    },
                    {
                        "name": "C2",
                        "midi": 36,
                        "time": 66.88791900000015,
                        "velocity": 1,
                        "duration": 0.2175894374999956
                    },
                    {
                        "name": "G#2",
                        "midi": 44,
                        "time": 66.88791900000015,
                        "velocity": 1,
                        "duration": 0.8842464374999821
                    },
                    {
                        "name": "D#2",
                        "midi": 39,
                        "time": 67.11013800000015,
                        "velocity": 1,
                        "duration": 0.4398084374999911
                    },
                    {
                        "name": "F2",
                        "midi": 41,
                        "time": 67.11013800000015,
                        "velocity": 1,
                        "duration": 1.7731224374999641
                    },
                    {
                        "name": "F#2",
                        "midi": 42,
                        "time": 67.11013800000015,
                        "velocity": 1,
                        "duration": 0.2175894374999956
                    },
                    {
                        "name": "F#2",
                        "midi": 42,
                        "time": 67.33235700000014,
                        "velocity": 1,
                        "duration": 0.6620274374999866
                    },
                    {
                        "name": "C2",
                        "midi": 36,
                        "time": 67.55457600000014,
                        "velocity": 1,
                        "duration": 0.4398084374999911
                    },
                    {
                        "name": "G#2",
                        "midi": 44,
                        "time": 67.77679500000013,
                        "velocity": 1,
                        "duration": 0.5509179374999889
                    },
                    {
                        "name": "D#2",
                        "midi": 39,
                        "time": 67.99901400000013,
                        "velocity": 1,
                        "duration": 0.4398084374999911
                    },
                    {
                        "name": "F#2",
                        "midi": 42,
                        "time": 67.99901400000013,
                        "velocity": 1,
                        "duration": 0.2175894374999956
                    },
                    {
                        "name": "F#2",
                        "midi": 42,
                        "time": 68.22123300000013,
                        "velocity": 1,
                        "duration": 0.6620274374999866
                    },
                    {
                        "name": "G#2",
                        "midi": 44,
                        "time": 68.33234250000012,
                        "velocity": 1,
                        "duration": 0.32869893749999335
                    },
                    {
                        "name": "C2",
                        "midi": 36,
                        "time": 68.44345200000012,
                        "velocity": 1,
                        "duration": 0.2175894374999956
                    },
                    {
                        "name": "C2",
                        "midi": 36,
                        "time": 68.66567100000012,
                        "velocity": 1,
                        "duration": 0.2175894374999956
                    },
                    {
                        "name": "G#2",
                        "midi": 44,
                        "time": 68.66567100000012,
                        "velocity": 1,
                        "duration": 0.4398084374999911
                    },
                    {
                        "name": "D#2",
                        "midi": 39,
                        "time": 68.88789000000011,
                        "velocity": 1,
                        "duration": 0.4398084374999911
                    },
                    {
                        "name": "F2",
                        "midi": 41,
                        "time": 68.88789000000011,
                        "velocity": 1,
                        "duration": 1.7731224374999641
                    },
                    {
                        "name": "F#2",
                        "midi": 42,
                        "time": 68.88789000000011,
                        "velocity": 1,
                        "duration": 0.8842464374999821
                    },
                    {
                        "name": "G#2",
                        "midi": 44,
                        "time": 69.11010900000011,
                        "velocity": 1,
                        "duration": 0.4398084374999911
                    },
                    {
                        "name": "C2",
                        "midi": 36,
                        "time": 69.3323280000001,
                        "velocity": 1,
                        "duration": 0.4398084374999911
                    },
                    {
                        "name": "G#2",
                        "midi": 44,
                        "time": 69.5545470000001,
                        "velocity": 1,
                        "duration": 0.5509179374999889
                    },
                    {
                        "name": "D#2",
                        "midi": 39,
                        "time": 69.7767660000001,
                        "velocity": 1,
                        "duration": 0.4398084374999911
                    },
                    {
                        "name": "F#2",
                        "midi": 42,
                        "time": 69.7767660000001,
                        "velocity": 1,
                        "duration": 0.2175894374999956
                    },
                    {
                        "name": "F#2",
                        "midi": 42,
                        "time": 69.99898500000009,
                        "velocity": 1,
                        "duration": 0.6620274374999866
                    },
                    {
                        "name": "G#2",
                        "midi": 44,
                        "time": 70.11009450000009,
                        "velocity": 1,
                        "duration": 0.32869893749999335
                    },
                    {
                        "name": "C2",
                        "midi": 36,
                        "time": 70.22120400000009,
                        "velocity": 1,
                        "duration": 0.4398084374999911
                    },
                    {
                        "name": "G#2",
                        "midi": 44,
                        "time": 70.44342300000008,
                        "velocity": 1,
                        "duration": 0.6620274374999866
                    },
                    {
                        "name": "D#2",
                        "midi": 39,
                        "time": 70.66564200000008,
                        "velocity": 1,
                        "duration": 0.2175894374999956
                    },
                    {
                        "name": "F2",
                        "midi": 41,
                        "time": 70.66564200000008,
                        "velocity": 1,
                        "duration": 0.4398084374999911
                    },
                    {
                        "name": "F#2",
                        "midi": 42,
                        "time": 70.66564200000008,
                        "velocity": 1,
                        "duration": 0.2175894374999956
                    },
                    {
                        "name": "D#2",
                        "midi": 39,
                        "time": 70.88786100000007,
                        "velocity": 1,
                        "duration": 0.2175894374999956
                    },
                    {
                        "name": "F#2",
                        "midi": 42,
                        "time": 70.88786100000007,
                        "velocity": 1,
                        "duration": 0.2175894374999956
                    },
                    {
                        "name": "C2",
                        "midi": 36,
                        "time": 85.33209600000006,
                        "velocity": 1,
                        "duration": 0.4398084374999911
                    },
                    {
                        "name": "G#2",
                        "midi": 44,
                        "time": 85.55431500000006,
                        "velocity": 1,
                        "duration": 0.5509179374999889
                    },
                    {
                        "name": "D#2",
                        "midi": 39,
                        "time": 85.77653400000005,
                        "velocity": 1,
                        "duration": 0.4398084374999911
                    },
                    {
                        "name": "F#2",
                        "midi": 42,
                        "time": 85.77653400000005,
                        "velocity": 1,
                        "duration": 0.2175894374999956
                    },
                    {
                        "name": "F#2",
                        "midi": 42,
                        "time": 85.99875300000005,
                        "velocity": 1,
                        "duration": 0.6620274374999866
                    },
                    {
                        "name": "G#2",
                        "midi": 44,
                        "time": 86.10986250000005,
                        "velocity": 1,
                        "duration": 0.32869893749999335
                    },
                    {
                        "name": "C2",
                        "midi": 36,
                        "time": 86.22097200000005,
                        "velocity": 1,
                        "duration": 0.2175894374999956
                    },
                    {
                        "name": "C2",
                        "midi": 36,
                        "time": 86.44319100000004,
                        "velocity": 1,
                        "duration": 0.2175894374999956
                    },
                    {
                        "name": "G#2",
                        "midi": 44,
                        "time": 86.44319100000004,
                        "velocity": 1,
                        "duration": 0.8842464374999821
                    },
                    {
                        "name": "D#2",
                        "midi": 39,
                        "time": 86.66541000000004,
                        "velocity": 1,
                        "duration": 0.4398084374999911
                    },
                    {
                        "name": "F2",
                        "midi": 41,
                        "time": 86.66541000000004,
                        "velocity": 1,
                        "duration": 1.7731224374999641
                    },
                    {
                        "name": "F#2",
                        "midi": 42,
                        "time": 86.66541000000004,
                        "velocity": 1,
                        "duration": 0.2175894374999956
                    },
                    {
                        "name": "F#2",
                        "midi": 42,
                        "time": 86.88762900000003,
                        "velocity": 1,
                        "duration": 0.6620274374999866
                    },
                    {
                        "name": "C2",
                        "midi": 36,
                        "time": 87.10984800000003,
                        "velocity": 1,
                        "duration": 0.4398084374999911
                    },
                    {
                        "name": "G#2",
                        "midi": 44,
                        "time": 87.33206700000002,
                        "velocity": 1,
                        "duration": 0.5509179374999889
                    },
                    {
                        "name": "D#2",
                        "midi": 39,
                        "time": 87.55428600000002,
                        "velocity": 1,
                        "duration": 0.4398084374999911
                    },
                    {
                        "name": "F#2",
                        "midi": 42,
                        "time": 87.55428600000002,
                        "velocity": 1,
                        "duration": 0.2175894374999956
                    },
                    {
                        "name": "F#2",
                        "midi": 42,
                        "time": 87.77650500000001,
                        "velocity": 1,
                        "duration": 0.6620274374999866
                    },
                    {
                        "name": "G#2",
                        "midi": 44,
                        "time": 87.88761450000001,
                        "velocity": 1,
                        "duration": 0.32869893749999335
                    },
                    {
                        "name": "C2",
                        "midi": 36,
                        "time": 87.99872400000001,
                        "velocity": 1,
                        "duration": 0.2175894374999956
                    },
                    {
                        "name": "C2",
                        "midi": 36,
                        "time": 88.220943,
                        "velocity": 1,
                        "duration": 0.2175894374999956
                    },
                    {
                        "name": "G#2",
                        "midi": 44,
                        "time": 88.220943,
                        "velocity": 1,
                        "duration": 0.8842464374999821
                    },
                    {
                        "name": "D#2",
                        "midi": 39,
                        "time": 88.443162,
                        "velocity": 1,
                        "duration": 0.4398084374999911
                    },
                    {
                        "name": "F2",
                        "midi": 41,
                        "time": 88.443162,
                        "velocity": 1,
                        "duration": 1.7731224374999641
                    },
                    {
                        "name": "F#2",
                        "midi": 42,
                        "time": 88.443162,
                        "velocity": 1,
                        "duration": 0.2175894374999956
                    },
                    {
                        "name": "F#2",
                        "midi": 42,
                        "time": 88.665381,
                        "velocity": 1,
                        "duration": 0.6620274374999866
                    },
                    {
                        "name": "C2",
                        "midi": 36,
                        "time": 88.88759999999999,
                        "velocity": 1,
                        "duration": 0.4398084374999911
                    },
                    {
                        "name": "G#2",
                        "midi": 44,
                        "time": 89.10981899999999,
                        "velocity": 1,
                        "duration": 0.5509179374999889
                    },
                    {
                        "name": "D#2",
                        "midi": 39,
                        "time": 89.33203799999998,
                        "velocity": 1,
                        "duration": 0.4398084374999911
                    },
                    {
                        "name": "F#2",
                        "midi": 42,
                        "time": 89.33203799999998,
                        "velocity": 1,
                        "duration": 0.2175894374999956
                    },
                    {
                        "name": "F#2",
                        "midi": 42,
                        "time": 89.55425699999998,
                        "velocity": 1,
                        "duration": 0.6620274374999866
                    },
                    {
                        "name": "G#2",
                        "midi": 44,
                        "time": 89.66536649999998,
                        "velocity": 1,
                        "duration": 0.32869893749999335
                    },
                    {
                        "name": "C2",
                        "midi": 36,
                        "time": 89.77647599999997,
                        "velocity": 1,
                        "duration": 0.2175894374999956
                    },
                    {
                        "name": "C2",
                        "midi": 36,
                        "time": 89.99869499999997,
                        "velocity": 1,
                        "duration": 0.2175894374999956
                    },
                    {
                        "name": "G#2",
                        "midi": 44,
                        "time": 89.99869499999997,
                        "velocity": 1,
                        "duration": 0.4398084374999911
                    },
                    {
                        "name": "D#2",
                        "midi": 39,
                        "time": 90.22091399999996,
                        "velocity": 1,
                        "duration": 0.4398084374999911
                    },
                    {
                        "name": "F2",
                        "midi": 41,
                        "time": 90.22091399999996,
                        "velocity": 1,
                        "duration": 1.7731224374999641
                    },
                    {
                        "name": "F#2",
                        "midi": 42,
                        "time": 90.22091399999996,
                        "velocity": 1,
                        "duration": 0.8842464374999821
                    },
                    {
                        "name": "G#2",
                        "midi": 44,
                        "time": 90.44313299999996,
                        "velocity": 1,
                        "duration": 0.4398084374999911
                    },
                    {
                        "name": "C2",
                        "midi": 36,
                        "time": 90.66535199999996,
                        "velocity": 1,
                        "duration": 0.4398084374999911
                    },
                    {
                        "name": "G#2",
                        "midi": 44,
                        "time": 90.88757099999995,
                        "velocity": 1,
                        "duration": 0.5509179374999889
                    },
                    {
                        "name": "D#2",
                        "midi": 39,
                        "time": 91.10978999999995,
                        "velocity": 1,
                        "duration": 0.4398084374999911
                    },
                    {
                        "name": "F#2",
                        "midi": 42,
                        "time": 91.10978999999995,
                        "velocity": 1,
                        "duration": 0.2175894374999956
                    },
                    {
                        "name": "F#2",
                        "midi": 42,
                        "time": 91.33200899999994,
                        "velocity": 1,
                        "duration": 0.6620274374999866
                    },
                    {
                        "name": "G#2",
                        "midi": 44,
                        "time": 91.44311849999994,
                        "velocity": 1,
                        "duration": 0.32869893749999335
                    },
                    {
                        "name": "C2",
                        "midi": 36,
                        "time": 91.55422799999994,
                        "velocity": 1,
                        "duration": 0.4398084374999911
                    },
                    {
                        "name": "G#2",
                        "midi": 44,
                        "time": 91.77644699999993,
                        "velocity": 1,
                        "duration": 0.8842464374999821
                    },
                    {
                        "name": "D#2",
                        "midi": 39,
                        "time": 91.99866599999993,
                        "velocity": 1,
                        "duration": 0.2175894374999956
                    },
                    {
                        "name": "F2",
                        "midi": 41,
                        "time": 91.99866599999993,
                        "velocity": 1,
                        "duration": 1.7731224374999641
                    },
                    {
                        "name": "F#2",
                        "midi": 42,
                        "time": 91.99866599999993,
                        "velocity": 1,
                        "duration": 0.2175894374999956
                    },
                    {
                        "name": "D#2",
                        "midi": 39,
                        "time": 92.22088499999992,
                        "velocity": 1,
                        "duration": 0.2175894374999956
                    },
                    {
                        "name": "F#2",
                        "midi": 42,
                        "time": 92.22088499999992,
                        "velocity": 1,
                        "duration": 0.6620274374999866
                    },
                    {
                        "name": "C2",
                        "midi": 36,
                        "time": 92.44310399999992,
                        "velocity": 1,
                        "duration": 0.4398084374999911
                    },
                    {
                        "name": "G#2",
                        "midi": 44,
                        "time": 92.66532299999992,
                        "velocity": 1,
                        "duration": 0.5509179374999889
                    },
                    {
                        "name": "D#2",
                        "midi": 39,
                        "time": 92.88754199999991,
                        "velocity": 1,
                        "duration": 0.4398084374999911
                    },
                    {
                        "name": "F#2",
                        "midi": 42,
                        "time": 92.88754199999991,
                        "velocity": 1,
                        "duration": 0.2175894374999956
                    },
                    {
                        "name": "F#2",
                        "midi": 42,
                        "time": 93.1097609999999,
                        "velocity": 1,
                        "duration": 0.6620274374999866
                    },
                    {
                        "name": "G#2",
                        "midi": 44,
                        "time": 93.2208704999999,
                        "velocity": 1,
                        "duration": 0.32869893749999335
                    },
                    {
                        "name": "C2",
                        "midi": 36,
                        "time": 93.3319799999999,
                        "velocity": 1,
                        "duration": 0.2175894374999956
                    },
                    {
                        "name": "C2",
                        "midi": 36,
                        "time": 93.5541989999999,
                        "velocity": 1,
                        "duration": 0.2175894374999956
                    },
                    {
                        "name": "G#2",
                        "midi": 44,
                        "time": 93.5541989999999,
                        "velocity": 1,
                        "duration": 0.8842464374999821
                    },
                    {
                        "name": "D#2",
                        "midi": 39,
                        "time": 93.7764179999999,
                        "velocity": 1,
                        "duration": 0.4398084374999911
                    },
                    {
                        "name": "F2",
                        "midi": 41,
                        "time": 93.7764179999999,
                        "velocity": 1,
                        "duration": 1.7731224374999641
                    },
                    {
                        "name": "F#2",
                        "midi": 42,
                        "time": 93.7764179999999,
                        "velocity": 1,
                        "duration": 0.2175894374999956
                    },
                    {
                        "name": "F#2",
                        "midi": 42,
                        "time": 93.99863699999989,
                        "velocity": 1,
                        "duration": 0.6620274374999866
                    },
                    {
                        "name": "C2",
                        "midi": 36,
                        "time": 94.22085599999988,
                        "velocity": 1,
                        "duration": 0.4398084374999911
                    },
                    {
                        "name": "G#2",
                        "midi": 44,
                        "time": 94.44307499999988,
                        "velocity": 1,
                        "duration": 0.5509179374999889
                    },
                    {
                        "name": "D#2",
                        "midi": 39,
                        "time": 94.66529399999988,
                        "velocity": 1,
                        "duration": 0.4398084374999911
                    },
                    {
                        "name": "F#2",
                        "midi": 42,
                        "time": 94.66529399999988,
                        "velocity": 1,
                        "duration": 0.2175894374999956
                    },
                    {
                        "name": "F#2",
                        "midi": 42,
                        "time": 94.88751299999987,
                        "velocity": 1,
                        "duration": 0.6620274374999866
                    },
                    {
                        "name": "G#2",
                        "midi": 44,
                        "time": 94.99862249999987,
                        "velocity": 1,
                        "duration": 0.32869893749999335
                    },
                    {
                        "name": "C2",
                        "midi": 36,
                        "time": 95.10973199999987,
                        "velocity": 1,
                        "duration": 0.2175894374999956
                    },
                    {
                        "name": "C2",
                        "midi": 36,
                        "time": 95.33195099999986,
                        "velocity": 1,
                        "duration": 0.2175894374999956
                    },
                    {
                        "name": "G#2",
                        "midi": 44,
                        "time": 95.33195099999986,
                        "velocity": 1,
                        "duration": 0.8842464374999821
                    },
                    {
                        "name": "D#2",
                        "midi": 39,
                        "time": 95.55416999999986,
                        "velocity": 1,
                        "duration": 0.4398084374999911
                    },
                    {
                        "name": "F2",
                        "midi": 41,
                        "time": 95.55416999999986,
                        "velocity": 1,
                        "duration": 1.7731224374999641
                    },
                    {
                        "name": "F#2",
                        "midi": 42,
                        "time": 95.55416999999986,
                        "velocity": 1,
                        "duration": 0.2175894374999956
                    },
                    {
                        "name": "F#2",
                        "midi": 42,
                        "time": 95.77638899999985,
                        "velocity": 1,
                        "duration": 0.6620274374999866
                    },
                    {
                        "name": "C2",
                        "midi": 36,
                        "time": 95.99860799999985,
                        "velocity": 1,
                        "duration": 0.4398084374999911
                    },
                    {
                        "name": "G#2",
                        "midi": 44,
                        "time": 96.22082699999984,
                        "velocity": 1,
                        "duration": 0.5509179374999889
                    },
                    {
                        "name": "D#2",
                        "midi": 39,
                        "time": 96.44304599999984,
                        "velocity": 1,
                        "duration": 0.4398084374999911
                    },
                    {
                        "name": "F#2",
                        "midi": 42,
                        "time": 96.44304599999984,
                        "velocity": 1,
                        "duration": 0.2175894374999956
                    },
                    {
                        "name": "F#2",
                        "midi": 42,
                        "time": 96.66526499999983,
                        "velocity": 1,
                        "duration": 0.6620274374999866
                    },
                    {
                        "name": "G#2",
                        "midi": 44,
                        "time": 96.77637449999983,
                        "velocity": 1,
                        "duration": 0.32869893749999335
                    },
                    {
                        "name": "C2",
                        "midi": 36,
                        "time": 96.88748399999983,
                        "velocity": 1,
                        "duration": 0.2175894374999956
                    },
                    {
                        "name": "C2",
                        "midi": 36,
                        "time": 97.10970299999983,
                        "velocity": 1,
                        "duration": 0.2175894374999956
                    },
                    {
                        "name": "G#2",
                        "midi": 44,
                        "time": 97.10970299999983,
                        "velocity": 1,
                        "duration": 0.4398084374999911
                    },
                    {
                        "name": "D#2",
                        "midi": 39,
                        "time": 97.33192199999982,
                        "velocity": 1,
                        "duration": 0.4398084374999911
                    },
                    {
                        "name": "F2",
                        "midi": 41,
                        "time": 97.33192199999982,
                        "velocity": 1,
                        "duration": 1.7731224374999641
                    },
                    {
                        "name": "F#2",
                        "midi": 42,
                        "time": 97.33192199999982,
                        "velocity": 1,
                        "duration": 0.8842464374999821
                    },
                    {
                        "name": "G#2",
                        "midi": 44,
                        "time": 97.55414099999982,
                        "velocity": 1,
                        "duration": 0.4398084374999911
                    },
                    {
                        "name": "C2",
                        "midi": 36,
                        "time": 97.77635999999981,
                        "velocity": 1,
                        "duration": 0.4398084374999911
                    },
                    {
                        "name": "G#2",
                        "midi": 44,
                        "time": 97.99857899999981,
                        "velocity": 1,
                        "duration": 0.5509179374999889
                    },
                    {
                        "name": "D#2",
                        "midi": 39,
                        "time": 98.2207979999998,
                        "velocity": 1,
                        "duration": 0.4398084374999911
                    },
                    {
                        "name": "F#2",
                        "midi": 42,
                        "time": 98.2207979999998,
                        "velocity": 1,
                        "duration": 0.2175894374999956
                    },
                    {
                        "name": "F#2",
                        "midi": 42,
                        "time": 98.4430169999998,
                        "velocity": 1,
                        "duration": 0.6620274374999866
                    },
                    {
                        "name": "G#2",
                        "midi": 44,
                        "time": 98.5541264999998,
                        "velocity": 1,
                        "duration": 0.32869893749999335
                    },
                    {
                        "name": "C2",
                        "midi": 36,
                        "time": 98.6652359999998,
                        "velocity": 1,
                        "duration": 0.4398084374999911
                    },
                    {
                        "name": "G#2",
                        "midi": 44,
                        "time": 98.88745499999979,
                        "velocity": 1,
                        "duration": 0.8842464374999821
                    },
                    {
                        "name": "D#2",
                        "midi": 39,
                        "time": 99.10967399999979,
                        "velocity": 1,
                        "duration": 0.2175894374999956
                    },
                    {
                        "name": "F2",
                        "midi": 41,
                        "time": 99.10967399999979,
                        "velocity": 1,
                        "duration": 1.7731224374999641
                    },
                    {
                        "name": "F#2",
                        "midi": 42,
                        "time": 99.10967399999979,
                        "velocity": 1,
                        "duration": 0.2175894374999956
                    },
                    {
                        "name": "D#2",
                        "midi": 39,
                        "time": 99.33189299999978,
                        "velocity": 1,
                        "duration": 0.2175894374999956
                    },
                    {
                        "name": "F#2",
                        "midi": 42,
                        "time": 99.33189299999978,
                        "velocity": 1,
                        "duration": 0.6620274374999866
                    },
                    {
                        "name": "C2",
                        "midi": 36,
                        "time": 99.55411199999978,
                        "velocity": 1,
                        "duration": 0.4398084374999911
                    },
                    {
                        "name": "G#2",
                        "midi": 44,
                        "time": 99.77633099999977,
                        "velocity": 1,
                        "duration": 0.5509179374999889
                    },
                    {
                        "name": "D#2",
                        "midi": 39,
                        "time": 99.99854999999977,
                        "velocity": 1,
                        "duration": 0.4398084374999911
                    },
                    {
                        "name": "F#2",
                        "midi": 42,
                        "time": 99.99854999999977,
                        "velocity": 1,
                        "duration": 0.2175894374999956
                    },
                    {
                        "name": "F#2",
                        "midi": 42,
                        "time": 100.22076899999976,
                        "velocity": 1,
                        "duration": 0.6620274374999866
                    },
                    {
                        "name": "G#2",
                        "midi": 44,
                        "time": 100.33187849999976,
                        "velocity": 1,
                        "duration": 0.32869893749999335
                    },
                    {
                        "name": "C2",
                        "midi": 36,
                        "time": 100.44298799999976,
                        "velocity": 1,
                        "duration": 0.2175894374999956
                    },
                    {
                        "name": "C2",
                        "midi": 36,
                        "time": 100.66520699999975,
                        "velocity": 1,
                        "duration": 0.2175894374999956
                    },
                    {
                        "name": "G#2",
                        "midi": 44,
                        "time": 100.66520699999975,
                        "velocity": 1,
                        "duration": 0.8842464374999821
                    },
                    {
                        "name": "D#2",
                        "midi": 39,
                        "time": 100.88742599999975,
                        "velocity": 1,
                        "duration": 0.4398084374999911
                    },
                    {
                        "name": "F2",
                        "midi": 41,
                        "time": 100.88742599999975,
                        "velocity": 1,
                        "duration": 1.7731224374999641
                    },
                    {
                        "name": "F#2",
                        "midi": 42,
                        "time": 100.88742599999975,
                        "velocity": 1,
                        "duration": 0.2175894374999956
                    },
                    {
                        "name": "F#2",
                        "midi": 42,
                        "time": 101.10964499999974,
                        "velocity": 1,
                        "duration": 0.6620274374999866
                    },
                    {
                        "name": "C2",
                        "midi": 36,
                        "time": 101.33186399999974,
                        "velocity": 1,
                        "duration": 0.4398084374999911
                    },
                    {
                        "name": "G#2",
                        "midi": 44,
                        "time": 101.55408299999974,
                        "velocity": 1,
                        "duration": 0.5509179374999889
                    },
                    {
                        "name": "D#2",
                        "midi": 39,
                        "time": 101.77630199999973,
                        "velocity": 1,
                        "duration": 0.4398084374999911
                    },
                    {
                        "name": "F#2",
                        "midi": 42,
                        "time": 101.77630199999973,
                        "velocity": 1,
                        "duration": 0.2175894374999956
                    },
                    {
                        "name": "F#2",
                        "midi": 42,
                        "time": 101.99852099999973,
                        "velocity": 1,
                        "duration": 0.6620274374999866
                    },
                    {
                        "name": "G#2",
                        "midi": 44,
                        "time": 102.10963049999972,
                        "velocity": 1,
                        "duration": 0.32869893749999335
                    },
                    {
                        "name": "C2",
                        "midi": 36,
                        "time": 102.22073999999972,
                        "velocity": 1,
                        "duration": 0.2175894374999956
                    },
                    {
                        "name": "C2",
                        "midi": 36,
                        "time": 102.44295899999972,
                        "velocity": 1,
                        "duration": 0.2175894374999956
                    },
                    {
                        "name": "G#2",
                        "midi": 44,
                        "time": 102.44295899999972,
                        "velocity": 1,
                        "duration": 0.8842464374999821
                    },
                    {
                        "name": "D#2",
                        "midi": 39,
                        "time": 102.66517799999971,
                        "velocity": 1,
                        "duration": 0.4398084374999911
                    },
                    {
                        "name": "F2",
                        "midi": 41,
                        "time": 102.66517799999971,
                        "velocity": 1,
                        "duration": 1.7731224374999641
                    },
                    {
                        "name": "F#2",
                        "midi": 42,
                        "time": 102.66517799999971,
                        "velocity": 1,
                        "duration": 0.2175894374999956
                    },
                    {
                        "name": "F#2",
                        "midi": 42,
                        "time": 102.88739699999971,
                        "velocity": 1,
                        "duration": 0.6620274374999866
                    },
                    {
                        "name": "C2",
                        "midi": 36,
                        "time": 103.1096159999997,
                        "velocity": 1,
                        "duration": 0.4398084374999911
                    },
                    {
                        "name": "G#2",
                        "midi": 44,
                        "time": 103.3318349999997,
                        "velocity": 1,
                        "duration": 0.5509179374999889
                    },
                    {
                        "name": "D#2",
                        "midi": 39,
                        "time": 103.5540539999997,
                        "velocity": 1,
                        "duration": 0.4398084374999911
                    },
                    {
                        "name": "F#2",
                        "midi": 42,
                        "time": 103.5540539999997,
                        "velocity": 1,
                        "duration": 0.2175894374999956
                    },
                    {
                        "name": "F#2",
                        "midi": 42,
                        "time": 103.77627299999969,
                        "velocity": 1,
                        "duration": 0.6620274374999866
                    },
                    {
                        "name": "G#2",
                        "midi": 44,
                        "time": 103.88738249999969,
                        "velocity": 1,
                        "duration": 0.32869893749999335
                    },
                    {
                        "name": "C2",
                        "midi": 36,
                        "time": 103.99849199999969,
                        "velocity": 1,
                        "duration": 0.2175894374999956
                    },
                    {
                        "name": "C2",
                        "midi": 36,
                        "time": 104.22071099999968,
                        "velocity": 1,
                        "duration": 0.2175894374999956
                    },
                    {
                        "name": "G#2",
                        "midi": 44,
                        "time": 104.22071099999968,
                        "velocity": 1,
                        "duration": 0.4398084374999911
                    },
                    {
                        "name": "D#2",
                        "midi": 39,
                        "time": 104.44292999999968,
                        "velocity": 1,
                        "duration": 0.4398084374999911
                    },
                    {
                        "name": "F2",
                        "midi": 41,
                        "time": 104.44292999999968,
                        "velocity": 1,
                        "duration": 1.7731224374999641
                    },
                    {
                        "name": "F#2",
                        "midi": 42,
                        "time": 104.44292999999968,
                        "velocity": 1,
                        "duration": 0.8842464374999821
                    },
                    {
                        "name": "G#2",
                        "midi": 44,
                        "time": 104.66514899999967,
                        "velocity": 1,
                        "duration": 0.4398084374999911
                    },
                    {
                        "name": "C2",
                        "midi": 36,
                        "time": 104.88736799999967,
                        "velocity": 1,
                        "duration": 0.4398084374999911
                    },
                    {
                        "name": "G#2",
                        "midi": 44,
                        "time": 105.10958699999966,
                        "velocity": 1,
                        "duration": 0.5509179374999889
                    },
                    {
                        "name": "D#2",
                        "midi": 39,
                        "time": 105.33180599999966,
                        "velocity": 1,
                        "duration": 0.4398084374999911
                    },
                    {
                        "name": "F#2",
                        "midi": 42,
                        "time": 105.33180599999966,
                        "velocity": 1,
                        "duration": 0.2175894374999956
                    },
                    {
                        "name": "F#2",
                        "midi": 42,
                        "time": 105.55402499999965,
                        "velocity": 1,
                        "duration": 0.6620274374999866
                    },
                    {
                        "name": "G#2",
                        "midi": 44,
                        "time": 105.66513449999965,
                        "velocity": 1,
                        "duration": 0.32869893749999335
                    },
                    {
                        "name": "C2",
                        "midi": 36,
                        "time": 105.77624399999965,
                        "velocity": 1,
                        "duration": 0.4398084374999911
                    },
                    {
                        "name": "G#2",
                        "midi": 44,
                        "time": 105.99846299999965,
                        "velocity": 1,
                        "duration": 0.8842464374999821
                    },
                    {
                        "name": "D#2",
                        "midi": 39,
                        "time": 106.22068199999964,
                        "velocity": 1,
                        "duration": 0.2175894374999956
                    },
                    {
                        "name": "F2",
                        "midi": 41,
                        "time": 106.22068199999964,
                        "velocity": 1,
                        "duration": 1.7731224374999641
                    },
                    {
                        "name": "F#2",
                        "midi": 42,
                        "time": 106.22068199999964,
                        "velocity": 1,
                        "duration": 0.2175894374999956
                    },
                    {
                        "name": "D#2",
                        "midi": 39,
                        "time": 106.44290099999964,
                        "velocity": 1,
                        "duration": 0.2175894374999956
                    },
                    {
                        "name": "F#2",
                        "midi": 42,
                        "time": 106.44290099999964,
                        "velocity": 1,
                        "duration": 0.6620274374999866
                    },
                    {
                        "name": "C2",
                        "midi": 36,
                        "time": 106.66511999999963,
                        "velocity": 1,
                        "duration": 0.4398084374999911
                    },
                    {
                        "name": "G#2",
                        "midi": 44,
                        "time": 106.88733899999963,
                        "velocity": 1,
                        "duration": 0.5509179374999889
                    },
                    {
                        "name": "D#2",
                        "midi": 39,
                        "time": 107.10955799999962,
                        "velocity": 1,
                        "duration": 0.4398084374999911
                    },
                    {
                        "name": "F#2",
                        "midi": 42,
                        "time": 107.10955799999962,
                        "velocity": 1,
                        "duration": 0.2175894374999956
                    },
                    {
                        "name": "F#2",
                        "midi": 42,
                        "time": 107.33177699999962,
                        "velocity": 1,
                        "duration": 0.6620274374999866
                    },
                    {
                        "name": "G#2",
                        "midi": 44,
                        "time": 107.44288649999962,
                        "velocity": 1,
                        "duration": 0.32869893749999335
                    },
                    {
                        "name": "C2",
                        "midi": 36,
                        "time": 107.55399599999961,
                        "velocity": 1,
                        "duration": 0.2175894374999956
                    },
                    {
                        "name": "C2",
                        "midi": 36,
                        "time": 107.77621499999961,
                        "velocity": 1,
                        "duration": 0.2175894374999956
                    },
                    {
                        "name": "G#2",
                        "midi": 44,
                        "time": 107.77621499999961,
                        "velocity": 1,
                        "duration": 0.8842464374999821
                    },
                    {
                        "name": "D#2",
                        "midi": 39,
                        "time": 107.9984339999996,
                        "velocity": 1,
                        "duration": 0.4398084374999911
                    },
                    {
                        "name": "F2",
                        "midi": 41,
                        "time": 107.9984339999996,
                        "velocity": 1,
                        "duration": 1.7731224374999641
                    },
                    {
                        "name": "F#2",
                        "midi": 42,
                        "time": 107.9984339999996,
                        "velocity": 1,
                        "duration": 0.2175894374999956
                    },
                    {
                        "name": "F#2",
                        "midi": 42,
                        "time": 108.2206529999996,
                        "velocity": 1,
                        "duration": 0.6620274374999866
                    },
                    {
                        "name": "C2",
                        "midi": 36,
                        "time": 108.4428719999996,
                        "velocity": 1,
                        "duration": 0.4398084374999911
                    },
                    {
                        "name": "G#2",
                        "midi": 44,
                        "time": 108.66509099999959,
                        "velocity": 1,
                        "duration": 0.5509179374999889
                    },
                    {
                        "name": "D#2",
                        "midi": 39,
                        "time": 108.88730999999959,
                        "velocity": 1,
                        "duration": 0.4398084374999911
                    },
                    {
                        "name": "F#2",
                        "midi": 42,
                        "time": 108.88730999999959,
                        "velocity": 1,
                        "duration": 0.2175894374999956
                    },
                    {
                        "name": "F#2",
                        "midi": 42,
                        "time": 109.10952899999958,
                        "velocity": 1,
                        "duration": 0.6620274374999866
                    },
                    {
                        "name": "G#2",
                        "midi": 44,
                        "time": 109.22063849999958,
                        "velocity": 1,
                        "duration": 0.32869893749999335
                    },
                    {
                        "name": "C2",
                        "midi": 36,
                        "time": 109.33174799999958,
                        "velocity": 1,
                        "duration": 0.2175894374999956
                    },
                    {
                        "name": "C2",
                        "midi": 36,
                        "time": 109.55396699999957,
                        "velocity": 1,
                        "duration": 0.2175894374999956
                    },
                    {
                        "name": "G#2",
                        "midi": 44,
                        "time": 109.55396699999957,
                        "velocity": 1,
                        "duration": 0.8842464374999821
                    },
                    {
                        "name": "D#2",
                        "midi": 39,
                        "time": 109.77618599999957,
                        "velocity": 1,
                        "duration": 0.4398084374999911
                    },
                    {
                        "name": "F2",
                        "midi": 41,
                        "time": 109.77618599999957,
                        "velocity": 1,
                        "duration": 1.7731224374999641
                    },
                    {
                        "name": "F#2",
                        "midi": 42,
                        "time": 109.77618599999957,
                        "velocity": 1,
                        "duration": 0.2175894374999956
                    },
                    {
                        "name": "F#2",
                        "midi": 42,
                        "time": 109.99840499999956,
                        "velocity": 1,
                        "duration": 0.6620274374999866
                    },
                    {
                        "name": "C2",
                        "midi": 36,
                        "time": 110.22062399999956,
                        "velocity": 1,
                        "duration": 0.4398084374999911
                    },
                    {
                        "name": "G#2",
                        "midi": 44,
                        "time": 110.44284299999956,
                        "velocity": 1,
                        "duration": 0.5509179374999889
                    },
                    {
                        "name": "D#2",
                        "midi": 39,
                        "time": 110.66506199999955,
                        "velocity": 1,
                        "duration": 0.4398084374999911
                    },
                    {
                        "name": "F#2",
                        "midi": 42,
                        "time": 110.66506199999955,
                        "velocity": 1,
                        "duration": 0.2175894374999956
                    },
                    {
                        "name": "F#2",
                        "midi": 42,
                        "time": 110.88728099999955,
                        "velocity": 1,
                        "duration": 0.6620274374999866
                    },
                    {
                        "name": "G#2",
                        "midi": 44,
                        "time": 110.99839049999954,
                        "velocity": 1,
                        "duration": 0.32869893749999335
                    },
                    {
                        "name": "C2",
                        "midi": 36,
                        "time": 111.10949999999954,
                        "velocity": 1,
                        "duration": 0.2175894374999956
                    },
                    {
                        "name": "C2",
                        "midi": 36,
                        "time": 111.33171899999954,
                        "velocity": 1,
                        "duration": 0.2175894374999956
                    },
                    {
                        "name": "G#2",
                        "midi": 44,
                        "time": 111.33171899999954,
                        "velocity": 1,
                        "duration": 0.4398084374999911
                    },
                    {
                        "name": "D#2",
                        "midi": 39,
                        "time": 111.55393799999953,
                        "velocity": 1,
                        "duration": 0.4398084374999911
                    },
                    {
                        "name": "F2",
                        "midi": 41,
                        "time": 111.55393799999953,
                        "velocity": 1,
                        "duration": 1.7731224374999641
                    },
                    {
                        "name": "F#2",
                        "midi": 42,
                        "time": 111.55393799999953,
                        "velocity": 1,
                        "duration": 0.8842464374999821
                    },
                    {
                        "name": "G#2",
                        "midi": 44,
                        "time": 111.77615699999953,
                        "velocity": 1,
                        "duration": 0.4398084374999911
                    },
                    {
                        "name": "C2",
                        "midi": 36,
                        "time": 111.99837599999952,
                        "velocity": 1,
                        "duration": 0.4398084374999911
                    },
                    {
                        "name": "G#2",
                        "midi": 44,
                        "time": 112.22059499999952,
                        "velocity": 1,
                        "duration": 0.5509179374999889
                    },
                    {
                        "name": "D#2",
                        "midi": 39,
                        "time": 112.44281399999952,
                        "velocity": 1,
                        "duration": 0.4398084374999911
                    },
                    {
                        "name": "F#2",
                        "midi": 42,
                        "time": 112.44281399999952,
                        "velocity": 1,
                        "duration": 0.2175894374999956
                    },
                    {
                        "name": "F#2",
                        "midi": 42,
                        "time": 112.66503299999951,
                        "velocity": 1,
                        "duration": 0.6620274374999866
                    },
                    {
                        "name": "G#2",
                        "midi": 44,
                        "time": 112.77614249999951,
                        "velocity": 1,
                        "duration": 0.32869893749999335
                    },
                    {
                        "name": "C2",
                        "midi": 36,
                        "time": 112.8872519999995,
                        "velocity": 1,
                        "duration": 0.4398084374999911
                    },
                    {
                        "name": "G#2",
                        "midi": 44,
                        "time": 113.1094709999995,
                        "velocity": 1,
                        "duration": 14.884043437499997
                    },
                    {
                        "name": "D#2",
                        "midi": 39,
                        "time": 113.3316899999995,
                        "velocity": 1,
                        "duration": 0.2175894374999956
                    },
                    {
                        "name": "F2",
                        "midi": 41,
                        "time": 113.3316899999995,
                        "velocity": 1,
                        "duration": 14.661824437500002
                    },
                    {
                        "name": "F#2",
                        "midi": 42,
                        "time": 113.3316899999995,
                        "velocity": 1,
                        "duration": 0.2175894374999956
                    },
                    {
                        "name": "D#2",
                        "midi": 39,
                        "time": 113.55390899999949,
                        "velocity": 1,
                        "duration": 14.439605437500006
                    },
                    {
                        "name": "F#2",
                        "midi": 42,
                        "time": 113.55390899999949,
                        "velocity": 1,
                        "duration": 14.439605437500006
                    }
                ],
                "controlChanges": {},
                "id": 10,
                "instrumentNumber": 0,
                "instrument": "standard kit",
                "instrumentFamily": "drums",
                "channelNumber": 9,
                "isPercussion": true
            },
            {
                "startTime": 14.222016,
                "duration": 127.99814399999998,
                "length": 9,
                "notes": [
                    {
                        "name": "G3",
                        "midi": 55,
                        "time": 14.222016,
                        "velocity": 0.7874015748031497,
                        "duration": 14.2173864375
                    },
                    {
                        "name": "G3",
                        "midi": 55,
                        "time": 28.444032,
                        "velocity": 0.7874015748031497,
                        "duration": 14.217386437500004
                    },
                    {
                        "name": "G3",
                        "midi": 55,
                        "time": 42.666048,
                        "velocity": 0.7874015748031497,
                        "duration": 14.217386437499997
                    },
                    {
                        "name": "G3",
                        "midi": 55,
                        "time": 56.888064,
                        "velocity": 0.7874015748031497,
                        "duration": 14.217386437499997
                    },
                    {
                        "name": "G3",
                        "midi": 55,
                        "time": 71.11008,
                        "velocity": 0.7874015748031497,
                        "duration": 14.217386437499997
                    },
                    {
                        "name": "G3",
                        "midi": 55,
                        "time": 85.33209599999999,
                        "velocity": 0.7874015748031497,
                        "duration": 14.217386437499997
                    },
                    {
                        "name": "G3",
                        "midi": 55,
                        "time": 99.55411199999999,
                        "velocity": 0.7874015748031497,
                        "duration": 14.217386437499997
                    },
                    {
                        "name": "G3",
                        "midi": 55,
                        "time": 113.77612799999999,
                        "velocity": 0.7874015748031497,
                        "duration": 14.217386437499997
                    },
                    {
                        "name": "G3",
                        "midi": 55,
                        "time": 127.99814399999998,
                        "velocity": 0.7874015748031497,
                        "duration": 0
                    }
                ],
                "controlChanges": {},
                "id": 11,
                "instrumentNumber": 0,
                "instrument": "standard kit",
                "instrumentFamily": "drums",
                "channelNumber": 9,
                "isPercussion": true
            },
            {
                "startTime": 0,
                "duration": 0,
                "length": 0,
                "notes": [],
                "controlChanges": {},
                "id": 12,
                "instrumentNumber": 0,
                "instrument": "acoustic grand piano",
                "instrumentFamily": "piano",
                "channelNumber": 11,
                "isPercussion": false
            },
            {
                "startTime": 0,
                "duration": 0,
                "length": 0,
                "notes": [],
                "controlChanges": {},
                "id": 13,
                "instrumentNumber": 0,
                "instrument": "acoustic grand piano",
                "instrumentFamily": "piano",
                "channelNumber": 12,
                "isPercussion": false
            },
            {
                "startTime": 0,
                "duration": 0,
                "length": 0,
                "notes": [],
                "controlChanges": {},
                "id": 14,
                "instrumentNumber": 0,
                "instrument": "acoustic grand piano",
                "instrumentFamily": "piano",
                "channelNumber": 13,
                "isPercussion": false
            },
            {
                "startTime": 0,
                "duration": 0,
                "length": 0,
                "notes": [],
                "controlChanges": {},
                "id": 15,
                "instrumentNumber": 0,
                "instrument": "acoustic grand piano",
                "instrumentFamily": "piano",
                "channelNumber": 14,
                "isPercussion": false
            },
            {
                "startTime": 0,
                "duration": 0,
                "length": 0,
                "notes": [],
                "controlChanges": {},
                "id": 16,
                "instrumentNumber": 0,
                "instrument": "acoustic grand piano",
                "instrumentFamily": "piano",
                "channelNumber": 15,
                "isPercussion": false
            }
        ]}
);

const url = tracker.toURL();
const audio = document.createElement('audio');
audio.src = url;
document.body.appendChild(audio);

const button = document.createElement('button');
button.textContent = 'PLAY';
document.body.appendChild(button);
button.onclick = ()=>{
    audio.play();
};
